<?xml version="1.0" encoding="UTF-8" standalone="no"?>
<!DOCTYPE svg PUBLIC "-//W3C//DTD SVG 1.1//EN"
 "http://www.w3.org/Graphics/SVG/1.1/DTD/svg11.dtd">
<!-- Generated by graphviz version 2.43.0 (0)
 -->
<!-- Title: /home/ugovaretto/projects/uv&#45;cpp/s3client/repo/apps/s3&#45;client.cpp Pages: 1 -->
<svg width="879pt" height="330pt"
 viewBox="0.00 0.00 879.38 330.00" xmlns="http://www.w3.org/2000/svg" xmlns:xlink="http://www.w3.org/1999/xlink">
<g id="graph0" class="graph" transform="scale(1 1) rotate(0) translate(4 326)">
<title>/home/ugovaretto/projects/uv&#45;cpp/s3client/repo/apps/s3&#45;client.cpp</title>
<!-- Node1 -->
<g id="node1" class="node">
<title>Node1</title>
<g id="a_node1"><a xlink:title="Send S3v4&#45;signed requests to S3 andpoint and print raw responses.">
<polygon fill="#bfbfbf" stroke="black" points="268.5,-280.5 268.5,-321.5 399.5,-321.5 399.5,-280.5 268.5,-280.5"/>
<text text-anchor="start" x="276.5" y="-309.5" font-family="Helvetica,sans-Serif" font-size="10.00">/home/ugovaretto/projects</text>
<text text-anchor="start" x="276.5" y="-298.5" font-family="Helvetica,sans-Serif" font-size="10.00">/uv&#45;cpp/s3client/repo/apps</text>
<text text-anchor="middle" x="334" y="-287.5" font-family="Helvetica,sans-Serif" font-size="10.00">/s3&#45;client.cpp</text>
</a>
</g>
</g>
<!-- Node2 -->
<g id="node2" class="node">
<title>Node2</title>
<g id="a_node2"><a xlink:title=" ">
<polygon fill="none" stroke="#bfbfbf" points="392,-0.5 392,-19.5 448,-19.5 448,-0.5 392,-0.5"/>
<text text-anchor="middle" x="420" y="-7.5" font-family="Helvetica,sans-Serif" font-size="10.00">algorithm</text>
</a>
</g>
</g>
<!-- Node1&#45;&gt;Node2 -->
<g id="edge1" class="edge">
<title>Node1&#45;&gt;Node2</title>
<path fill="none" stroke="midnightblue" d="M268.41,-289.93C171.14,-273.12 0,-235.51 0,-179 0,-179 0,-179 0,-121 0,-80.46 27.66,-73.98 64,-56 119.24,-28.67 301.76,-16.7 381.81,-12.68"/>
<polygon fill="midnightblue" stroke="midnightblue" points="382.13,-16.17 391.95,-12.18 381.79,-9.18 382.13,-16.17"/>
</g>
<!-- Node3 -->
<g id="node3" class="node">
<title>Node3</title>
<g id="a_node3"><a xlink:title=" ">
<polygon fill="none" stroke="#bfbfbf" points="244,-56.5 244,-75.5 298,-75.5 298,-56.5 244,-56.5"/>
<text text-anchor="middle" x="271" y="-63.5" font-family="Helvetica,sans-Serif" font-size="10.00">iostream</text>
</a>
</g>
</g>
<!-- Node1&#45;&gt;Node3 -->
<g id="edge2" class="edge">
<title>Node1&#45;&gt;Node3</title>
<path fill="none" stroke="midnightblue" d="M310.81,-280.37C278.87,-251.65 222.82,-194.72 201,-132 198.08,-123.6 196.74,-119.8 201,-112 208.82,-97.68 223.36,-87.24 237.18,-80.04"/>
<polygon fill="midnightblue" stroke="midnightblue" points="239.02,-83.03 246.53,-75.56 236,-76.72 239.02,-83.03"/>
</g>
<!-- Node4 -->
<g id="node4" class="node">
<title>Node4</title>
<g id="a_node4"><a xlink:title=" ">
<polygon fill="none" stroke="#bfbfbf" points="73,-56.5 73,-75.5 117,-75.5 117,-56.5 73,-56.5"/>
<text text-anchor="middle" x="95" y="-63.5" font-family="Helvetica,sans-Serif" font-size="10.00">vector</text>
</a>
</g>
</g>
<!-- Node1&#45;&gt;Node4 -->
<g id="edge3" class="edge">
<title>Node1&#45;&gt;Node4</title>
<path fill="none" stroke="midnightblue" d="M302.14,-280.48C258.31,-252.3 179.15,-196.47 129,-132 117.66,-117.42 108.26,-98.5 102.23,-84.83"/>
<polygon fill="midnightblue" stroke="midnightblue" points="105.43,-83.41 98.31,-75.57 98.99,-86.14 105.43,-83.41"/>
</g>
<!-- Node5 -->
<g id="node5" class="node">
<title>Node5</title>
<g id="a_node5"><a xlink:title=" ">
<polygon fill="none" stroke="#bfbfbf" points="625,-224.5 625,-243.5 695,-243.5 695,-224.5 625,-224.5"/>
<text text-anchor="middle" x="660" y="-231.5" font-family="Helvetica,sans-Serif" font-size="10.00">lyra/lyra.hpp</text>
</a>
</g>
</g>
<!-- Node1&#45;&gt;Node5 -->
<g id="edge4" class="edge">
<title>Node1&#45;&gt;Node5</title>
<path fill="none" stroke="midnightblue" d="M399.55,-287.09C454.37,-276.27 534.93,-260.32 614.71,-244.25"/>
<polygon fill="midnightblue" stroke="midnightblue" points="615.83,-247.6 624.94,-242.19 614.44,-240.73 615.83,-247.6"/>
</g>
<!-- Node6 -->
<g id="node6" class="node">
<title>Node6</title>
<g id="a_node6"><a xlink:href="s3-client_8h.html" target="_top" xlink:title="declaration of functions and data types for sending S3 requests, signing URLs and downloading and upl...">
<polygon fill="none" stroke="black" points="545,-224.5 545,-243.5 607,-243.5 607,-224.5 545,-224.5"/>
<text text-anchor="middle" x="576" y="-231.5" font-family="Helvetica,sans-Serif" font-size="10.00">s3&#45;client.h</text>
</a>
</g>
</g>
<!-- Node1&#45;&gt;Node6 -->
<g id="edge5" class="edge">
<title>Node1&#45;&gt;Node6</title>
<path fill="none" stroke="midnightblue" d="M399.81,-282.32C442.92,-270.74 497.93,-255.97 534.92,-246.03"/>
<polygon fill="midnightblue" stroke="midnightblue" points="536.1,-249.34 544.85,-243.37 534.29,-242.58 536.1,-249.34"/>
</g>
<!-- Node11 -->
<g id="node11" class="node">
<title>Node11</title>
<g id="a_node11"><a xlink:href="url__utility_8h.html" target="_top" xlink:title="Internal utility functions to process and parse text and URLs and create S3 signature keys.">
<polygon fill="none" stroke="black" points="559,-112.5 559,-131.5 621,-131.5 621,-112.5 559,-112.5"/>
<text text-anchor="middle" x="590" y="-119.5" font-family="Helvetica,sans-Serif" font-size="10.00">url_utility.h</text>
</a>
</g>
</g>
<!-- Node1&#45;&gt;Node11 -->
<g id="edge38" class="edge">
<title>Node1&#45;&gt;Node11</title>
<path fill="none" stroke="midnightblue" d="M363.13,-280.31C395.99,-258.05 450.99,-220.65 498,-188 522.71,-170.84 550.94,-150.83 569.54,-137.6"/>
<polygon fill="midnightblue" stroke="midnightblue" points="571.73,-140.34 577.84,-131.68 567.66,-134.63 571.73,-140.34"/>
</g>
<!-- Node6&#45;&gt;Node4 -->
<g id="edge37" class="edge">
<title>Node6&#45;&gt;Node4</title>
<path fill="none" stroke="midnightblue" d="M544.99,-231.36C472.58,-226.35 288.62,-206.62 158,-132 136.98,-119.99 118.45,-98.9 107.02,-84.01"/>
<polygon fill="midnightblue" stroke="midnightblue" points="109.62,-81.63 100.86,-75.67 103.99,-85.79 109.62,-81.63"/>
</g>
<!-- Node7 -->
<g id="node7" class="node">
<title>Node7</title>
<g id="a_node7"><a xlink:href="aws__sign_8h.html" target="_top" xlink:title="Public interface to signing URLs and HTTP headers with the S3v4 protocol standard.">
<polygon fill="none" stroke="black" points="783,-168.5 783,-187.5 849,-187.5 849,-168.5 783,-168.5"/>
<text text-anchor="middle" x="816" y="-175.5" font-family="Helvetica,sans-Serif" font-size="10.00">aws_sign.h</text>
</a>
</g>
</g>
<!-- Node6&#45;&gt;Node7 -->
<g id="edge6" class="edge">
<title>Node6&#45;&gt;Node7</title>
<path fill="none" stroke="midnightblue" d="M607.38,-225.94C649.64,-216.43 725.03,-199.47 772.67,-188.75"/>
<polygon fill="midnightblue" stroke="midnightblue" points="773.7,-192.1 782.69,-186.5 772.16,-185.28 773.7,-192.1"/>
</g>
<!-- Node8 -->
<g id="node8" class="node">
<title>Node8</title>
<g id="a_node8"><a xlink:href="common_8h.html" target="_top" xlink:title="Common definitions.">
<polygon fill="none" stroke="black" points="677,-56.5 677,-75.5 739,-75.5 739,-56.5 677,-56.5"/>
<text text-anchor="middle" x="708" y="-63.5" font-family="Helvetica,sans-Serif" font-size="10.00">common.h</text>
</a>
</g>
</g>
<!-- Node6&#45;&gt;Node8 -->
<g id="edge23" class="edge">
<title>Node6&#45;&gt;Node8</title>
<path fill="none" stroke="midnightblue" d="M589.35,-224.37C612.53,-208.72 660.32,-173.39 687,-132 696.13,-117.83 701.6,-99.35 704.66,-85.71"/>
<polygon fill="midnightblue" stroke="midnightblue" points="708.15,-86.1 706.68,-75.61 701.28,-84.72 708.15,-86.1"/>
</g>
<!-- Node10 -->
<g id="node10" class="node">
<title>Node10</title>
<g id="a_node10"><a xlink:title=" ">
<polygon fill="none" stroke="#bfbfbf" points="716.5,-0.5 716.5,-19.5 757.5,-19.5 757.5,-0.5 716.5,-0.5"/>
<text text-anchor="middle" x="737" y="-7.5" font-family="Helvetica,sans-Serif" font-size="10.00">string</text>
</a>
</g>
</g>
<!-- Node6&#45;&gt;Node10 -->
<g id="edge36" class="edge">
<title>Node6&#45;&gt;Node10</title>
<path fill="none" stroke="midnightblue" d="M607.4,-225.71C610.3,-225.1 613.2,-224.52 616,-224 669.45,-214.03 822.5,-229.18 858,-188 906.31,-131.97 806.68,-56.25 759.7,-25.19"/>
<polygon fill="midnightblue" stroke="midnightblue" points="761.36,-22.1 751.06,-19.59 757.55,-27.97 761.36,-22.1"/>
</g>
<!-- Node15 -->
<g id="node15" class="node">
<title>Node15</title>
<g id="a_node15"><a xlink:href="webclient_8h.html" target="_top" xlink:title="declaration of WebClient class wrapping libcurl to send web requests.">
<polygon fill="none" stroke="black" points="423,-168.5 423,-187.5 489,-187.5 489,-168.5 423,-168.5"/>
<text text-anchor="middle" x="456" y="-175.5" font-family="Helvetica,sans-Serif" font-size="10.00">webclient.h</text>
</a>
</g>
</g>
<!-- Node6&#45;&gt;Node15 -->
<g id="edge24" class="edge">
<title>Node6&#45;&gt;Node15</title>
<path fill="none" stroke="midnightblue" d="M556.99,-224.44C537.41,-215.64 506.69,-201.81 484.27,-191.72"/>
<polygon fill="midnightblue" stroke="midnightblue" points="485.48,-188.43 474.93,-187.52 482.61,-194.81 485.48,-188.43"/>
</g>
<!-- Node7&#45;&gt;Node8 -->
<g id="edge7" class="edge">
<title>Node7&#45;&gt;Node8</title>
<path fill="none" stroke="midnightblue" d="M812.27,-168.17C806.32,-154.83 793.62,-129.25 777,-112 764.83,-99.36 748.47,-88.5 734.74,-80.62"/>
<polygon fill="midnightblue" stroke="midnightblue" points="736.19,-77.42 725.74,-75.65 732.81,-83.55 736.19,-77.42"/>
</g>
<!-- Node7&#45;&gt;Node10 -->
<g id="edge22" class="edge">
<title>Node7&#45;&gt;Node10</title>
<path fill="none" stroke="midnightblue" d="M814.99,-168.19C812.28,-147.37 803.5,-94.01 781,-56 774.35,-44.77 764.33,-34.22 755.53,-26.17"/>
<polygon fill="midnightblue" stroke="midnightblue" points="757.76,-23.46 747.92,-19.52 753.15,-28.74 757.76,-23.46"/>
</g>
<!-- Node7&#45;&gt;Node11 -->
<g id="edge10" class="edge">
<title>Node7&#45;&gt;Node11</title>
<path fill="none" stroke="midnightblue" d="M782.65,-169.03C742.41,-159.42 674.75,-143.25 631.27,-132.86"/>
<polygon fill="midnightblue" stroke="midnightblue" points="631.84,-129.4 621.3,-130.48 630.21,-136.21 631.84,-129.4"/>
</g>
<!-- Node9 -->
<g id="node9" class="node">
<title>Node9</title>
<g id="a_node9"><a xlink:title=" ">
<polygon fill="none" stroke="#bfbfbf" points="644.5,-0.5 644.5,-19.5 679.5,-19.5 679.5,-0.5 644.5,-0.5"/>
<text text-anchor="middle" x="662" y="-7.5" font-family="Helvetica,sans-Serif" font-size="10.00">map</text>
</a>
</g>
</g>
<!-- Node8&#45;&gt;Node9 -->
<g id="edge8" class="edge">
<title>Node8&#45;&gt;Node9</title>
<path fill="none" stroke="midnightblue" d="M700.4,-56.08C693.77,-48.3 683.98,-36.8 675.94,-27.37"/>
<polygon fill="midnightblue" stroke="midnightblue" points="678.6,-25.09 669.45,-19.75 673.27,-29.63 678.6,-25.09"/>
</g>
<!-- Node8&#45;&gt;Node10 -->
<g id="edge9" class="edge">
<title>Node8&#45;&gt;Node10</title>
<path fill="none" stroke="midnightblue" d="M712.79,-56.08C716.76,-48.69 722.53,-37.95 727.43,-28.81"/>
<polygon fill="midnightblue" stroke="midnightblue" points="730.65,-30.22 732.3,-19.75 724.49,-26.91 730.65,-30.22"/>
</g>
<!-- Node11&#45;&gt;Node2 -->
<g id="edge11" class="edge">
<title>Node11&#45;&gt;Node2</title>
<path fill="none" stroke="midnightblue" d="M560.07,-112.47C537.15,-105.06 505.43,-92.87 481,-76 461.6,-62.6 443.68,-42.12 432.35,-27.74"/>
<polygon fill="midnightblue" stroke="midnightblue" points="435.06,-25.51 426.2,-19.69 429.49,-29.76 435.06,-25.51"/>
</g>
<!-- Node11&#45;&gt;Node3 -->
<g id="edge12" class="edge">
<title>Node11&#45;&gt;Node3</title>
<path fill="none" stroke="midnightblue" d="M558.6,-113.74C555.69,-113.13 552.8,-112.54 550,-112 463.74,-95.35 361.65,-79.98 308.08,-72.24"/>
<polygon fill="midnightblue" stroke="midnightblue" points="308.43,-68.75 298.03,-70.8 307.43,-75.68 308.43,-68.75"/>
</g>
<!-- Node11&#45;&gt;Node4 -->
<g id="edge15" class="edge">
<title>Node11&#45;&gt;Node4</title>
<path fill="none" stroke="midnightblue" d="M558.63,-113.56C555.72,-112.98 552.81,-112.45 550,-112 392.77,-86.64 202.52,-73.39 127.58,-68.84"/>
<polygon fill="midnightblue" stroke="midnightblue" points="127.57,-65.34 117.38,-68.24 127.15,-72.33 127.57,-65.34"/>
</g>
<!-- Node11&#45;&gt;Node8 -->
<g id="edge16" class="edge">
<title>Node11&#45;&gt;Node8</title>
<path fill="none" stroke="midnightblue" d="M608.7,-112.44C627.94,-103.64 658.15,-89.81 680.2,-79.72"/>
<polygon fill="midnightblue" stroke="midnightblue" points="681.75,-82.86 689.39,-75.52 678.84,-76.5 681.75,-82.86"/>
</g>
<!-- Node11&#45;&gt;Node9 -->
<g id="edge13" class="edge">
<title>Node11&#45;&gt;Node9</title>
<path fill="none" stroke="midnightblue" d="M588.77,-112.3C587.36,-99.12 586.45,-73.76 597,-56 605.77,-41.24 621.5,-30.16 635.29,-22.68"/>
<polygon fill="midnightblue" stroke="midnightblue" points="637.05,-25.71 644.41,-18.09 633.9,-19.46 637.05,-25.71"/>
</g>
<!-- Node11&#45;&gt;Node10 -->
<g id="edge14" class="edge">
<title>Node11&#45;&gt;Node10</title>
<path fill="none" stroke="midnightblue" d="M599.79,-112.2C614.29,-99.33 642.48,-74.85 668,-56 682.95,-44.95 700.51,-33.52 714.18,-24.94"/>
<polygon fill="midnightblue" stroke="midnightblue" points="716.29,-27.75 722.93,-19.5 712.59,-21.81 716.29,-27.75"/>
</g>
<!-- Node12 -->
<g id="node12" class="node">
<title>Node12</title>
<g id="a_node12"><a xlink:href="lib_2include_2utility_8h.html" target="_top" xlink:title="internal utility functions">
<polygon fill="none" stroke="black" points="490.5,-56.5 490.5,-75.5 537.5,-75.5 537.5,-56.5 490.5,-56.5"/>
<text text-anchor="middle" x="514" y="-63.5" font-family="Helvetica,sans-Serif" font-size="10.00">utility.h</text>
</a>
</g>
</g>
<!-- Node11&#45;&gt;Node12 -->
<g id="edge17" class="edge">
<title>Node11&#45;&gt;Node12</title>
<path fill="none" stroke="midnightblue" d="M577.79,-112.32C566.22,-104.11 548.62,-91.6 534.84,-81.81"/>
<polygon fill="midnightblue" stroke="midnightblue" points="536.61,-78.77 526.43,-75.83 532.56,-84.48 536.61,-78.77"/>
</g>
<!-- Node12&#45;&gt;Node2 -->
<g id="edge18" class="edge">
<title>Node12&#45;&gt;Node2</title>
<path fill="none" stroke="midnightblue" d="M498.9,-56.32C484.1,-47.82 461.31,-34.73 444.02,-24.8"/>
<polygon fill="midnightblue" stroke="midnightblue" points="445.48,-21.6 435.07,-19.65 441.99,-27.67 445.48,-21.6"/>
</g>
<!-- Node12&#45;&gt;Node10 -->
<g id="edge20" class="edge">
<title>Node12&#45;&gt;Node10</title>
<path fill="none" stroke="midnightblue" d="M537.86,-59.22C578.62,-49.35 661.58,-29.26 706.49,-18.39"/>
<polygon fill="midnightblue" stroke="midnightblue" points="707.36,-21.78 716.25,-16.02 705.71,-14.98 707.36,-21.78"/>
</g>
<!-- Node13 -->
<g id="node13" class="node">
<title>Node13</title>
<g id="a_node13"><a xlink:title=" ">
<polygon fill="none" stroke="#bfbfbf" points="567.5,-0.5 567.5,-19.5 626.5,-19.5 626.5,-0.5 567.5,-0.5"/>
<text text-anchor="middle" x="597" y="-7.5" font-family="Helvetica,sans-Serif" font-size="10.00">functional</text>
</a>
</g>
</g>
<!-- Node12&#45;&gt;Node13 -->
<g id="edge19" class="edge">
<title>Node12&#45;&gt;Node13</title>
<path fill="none" stroke="midnightblue" d="M527.34,-56.32C540.16,-47.98 559.78,-35.21 574.94,-25.35"/>
<polygon fill="midnightblue" stroke="midnightblue" points="577.22,-28.04 583.7,-19.65 573.41,-22.17 577.22,-28.04"/>
</g>
<!-- Node14 -->
<g id="node14" class="node">
<title>Node14</title>
<g id="a_node14"><a xlink:title=" ">
<polygon fill="none" stroke="#bfbfbf" points="466.5,-0.5 466.5,-19.5 549.5,-19.5 549.5,-0.5 466.5,-0.5"/>
<text text-anchor="middle" x="508" y="-7.5" font-family="Helvetica,sans-Serif" font-size="10.00">unordered_map</text>
</a>
</g>
</g>
<!-- Node12&#45;&gt;Node14 -->
<g id="edge21" class="edge">
<title>Node12&#45;&gt;Node14</title>
<path fill="none" stroke="midnightblue" d="M513.01,-56.08C512.21,-48.93 511.07,-38.64 510.08,-29.69"/>
<polygon fill="midnightblue" stroke="midnightblue" points="513.56,-29.3 508.97,-19.75 506.6,-30.08 513.56,-29.3"/>
</g>
<!-- Node15&#45;&gt;Node4 -->
<g id="edge32" class="edge">
<title>Node15&#45;&gt;Node4</title>
<path fill="none" stroke="midnightblue" d="M422.75,-175.1C373.05,-171.4 277.08,-160.84 201,-132 168.12,-119.53 134.17,-96.62 113.82,-81.59"/>
<polygon fill="midnightblue" stroke="midnightblue" points="115.82,-78.72 105.72,-75.5 111.61,-84.31 115.82,-78.72"/>
</g>
<!-- Node15&#45;&gt;Node8 -->
<g id="edge33" class="edge">
<title>Node15&#45;&gt;Node8</title>
<path fill="none" stroke="midnightblue" d="M489.36,-177.07C532.86,-175.63 609.66,-167.69 663,-132 680.24,-120.47 692.81,-99.9 700.21,-84.98"/>
<polygon fill="midnightblue" stroke="midnightblue" points="703.47,-86.28 704.51,-75.74 697.12,-83.33 703.47,-86.28"/>
</g>
<!-- Node15&#45;&gt;Node9 -->
<g id="edge29" class="edge">
<title>Node15&#45;&gt;Node9</title>
<path fill="none" stroke="midnightblue" d="M489.33,-177.83C528.38,-176.93 592.5,-169.29 630,-132 657.51,-104.64 662.21,-56.57 662.54,-30"/>
<polygon fill="midnightblue" stroke="midnightblue" points="666.04,-29.72 662.46,-19.75 659.04,-29.78 666.04,-29.72"/>
</g>
<!-- Node15&#45;&gt;Node10 -->
<g id="edge31" class="edge">
<title>Node15&#45;&gt;Node10</title>
<path fill="none" stroke="midnightblue" d="M489.19,-176.14C535.76,-173.73 622.08,-164.78 687,-132 719.85,-115.41 733.19,-109.69 748,-76 754.54,-61.12 750.44,-42.74 745.49,-29.33"/>
<polygon fill="midnightblue" stroke="midnightblue" points="748.6,-27.69 741.52,-19.8 742.13,-30.38 748.6,-27.69"/>
</g>
<!-- Node15&#45;&gt;Node11 -->
<g id="edge34" class="edge">
<title>Node15&#45;&gt;Node11</title>
<path fill="none" stroke="midnightblue" d="M477.23,-168.44C499.38,-159.52 534.32,-145.44 559.44,-135.32"/>
<polygon fill="midnightblue" stroke="midnightblue" points="560.9,-138.5 568.87,-131.52 558.28,-132.01 560.9,-138.5"/>
</g>
<!-- Node15&#45;&gt;Node12 -->
<g id="edge35" class="edge">
<title>Node15&#45;&gt;Node12</title>
<path fill="none" stroke="midnightblue" d="M422.91,-176.01C361.99,-173.43 235.88,-164.21 209,-132 203.31,-125.17 203.19,-118.73 209,-112 243.68,-71.82 407.67,-66.89 479.81,-66.71"/>
<polygon fill="midnightblue" stroke="midnightblue" points="480.16,-70.21 490.16,-66.71 480.16,-63.21 480.16,-70.21"/>
</g>
<!-- Node16 -->
<g id="node16" class="node">
<title>Node16</title>
<g id="a_node16"><a xlink:title=" ">
<polygon fill="none" stroke="#bfbfbf" points="218.5,-112.5 218.5,-131.5 277.5,-131.5 277.5,-112.5 218.5,-112.5"/>
<text text-anchor="middle" x="248" y="-119.5" font-family="Helvetica,sans-Serif" font-size="10.00">curl/curl.h</text>
</a>
</g>
</g>
<!-- Node15&#45;&gt;Node16 -->
<g id="edge25" class="edge">
<title>Node15&#45;&gt;Node16</title>
<path fill="none" stroke="midnightblue" d="M423.04,-168.44C386.26,-158.9 326.78,-143.45 287.53,-133.26"/>
<polygon fill="midnightblue" stroke="midnightblue" points="288.33,-129.85 277.77,-130.73 286.57,-136.63 288.33,-129.85"/>
</g>
<!-- Node17 -->
<g id="node17" class="node">
<title>Node17</title>
<g id="a_node17"><a xlink:title=" ">
<polygon fill="none" stroke="#bfbfbf" points="295.5,-112.5 295.5,-131.5 358.5,-131.5 358.5,-112.5 295.5,-112.5"/>
<text text-anchor="middle" x="327" y="-119.5" font-family="Helvetica,sans-Serif" font-size="10.00">curl/easy.h</text>
</a>
</g>
</g>
<!-- Node15&#45;&gt;Node17 -->
<g id="edge26" class="edge">
<title>Node15&#45;&gt;Node17</title>
<path fill="none" stroke="midnightblue" d="M435.56,-168.44C414.33,-159.56 380.9,-145.56 356.75,-135.45"/>
<polygon fill="midnightblue" stroke="midnightblue" points="357.92,-132.15 347.34,-131.52 355.22,-138.61 357.92,-132.15"/>
</g>
<!-- Node18 -->
<g id="node18" class="node">
<title>Node18</title>
<g id="a_node18"><a xlink:title=" ">
<polygon fill="none" stroke="#bfbfbf" points="377,-112.5 377,-131.5 415,-131.5 415,-112.5 377,-112.5"/>
<text text-anchor="middle" x="396" y="-119.5" font-family="Helvetica,sans-Serif" font-size="10.00">array</text>
</a>
</g>
</g>
<!-- Node15&#45;&gt;Node18 -->
<g id="edge27" class="edge">
<title>Node15&#45;&gt;Node18</title>
<path fill="none" stroke="midnightblue" d="M446.36,-168.32C437.49,-160.34 424.13,-148.31 413.39,-138.65"/>
<polygon fill="midnightblue" stroke="midnightblue" points="415.59,-135.92 405.82,-131.83 410.91,-141.13 415.59,-135.92"/>
</g>
<!-- Node19 -->
<g id="node19" class="node">
<title>Node19</title>
<g id="a_node19"><a xlink:title=" ">
<polygon fill="none" stroke="#bfbfbf" points="433,-112.5 433,-131.5 479,-131.5 479,-112.5 433,-112.5"/>
<text text-anchor="middle" x="456" y="-119.5" font-family="Helvetica,sans-Serif" font-size="10.00">atomic</text>
</a>
</g>
</g>
<!-- Node15&#45;&gt;Node19 -->
<g id="edge28" class="edge">
<title>Node15&#45;&gt;Node19</title>
<path fill="none" stroke="midnightblue" d="M456,-168.08C456,-161.01 456,-150.86 456,-141.99"/>
<polygon fill="midnightblue" stroke="midnightblue" points="459.5,-141.75 456,-131.75 452.5,-141.75 459.5,-141.75"/>
</g>
<!-- Node20 -->
<g id="node20" class="node">
<title>Node20</title>
<g id="a_node20"><a xlink:title=" ">
<polygon fill="none" stroke="#bfbfbf" points="497,-112.5 497,-131.5 541,-131.5 541,-112.5 497,-112.5"/>
<text text-anchor="middle" x="519" y="-119.5" font-family="Helvetica,sans-Serif" font-size="10.00">mutex</text>
</a>
</g>
</g>
<!-- Node15&#45;&gt;Node20 -->
<g id="edge30" class="edge">
<title>Node15&#45;&gt;Node20</title>
<path fill="none" stroke="midnightblue" d="M466.12,-168.32C475.53,-160.26 489.74,-148.08 501.07,-138.37"/>
<polygon fill="midnightblue" stroke="midnightblue" points="503.38,-141 508.69,-131.83 498.82,-135.68 503.38,-141"/>
</g>
</g>
</svg>
