<?xml version="1.0" encoding="UTF-8" standalone="no"?>
<!DOCTYPE svg PUBLIC "-//W3C//DTD SVG 1.1//EN"
 "http://www.w3.org/Graphics/SVG/1.1/DTD/svg11.dtd">
<!-- Generated by graphviz version 8.0.5 (20230430.1635)
 -->
<!-- Title: /Users/ugovaretto/projects/s3client/repo/lib/include/aws_sign.h Pages: 1 -->
<svg width="766pt" height="283pt"
 viewBox="0.00 0.00 766.25 283.00" xmlns="http://www.w3.org/2000/svg" xmlns:xlink="http://www.w3.org/1999/xlink">
<g id="graph0" class="graph" transform="scale(1 1) rotate(0) translate(4 279)">
<title>/Users/ugovaretto/projects/s3client/repo/lib/include/aws_sign.h</title>
<!-- Node1 -->
<g id="node1" class="node">
<title>Node1</title>
<g id="a_node1"><a xlink:title="Public interface to signing URLs and HTTP headers with the S3v4 protocol standard.">
<polygon fill="#999999" stroke="#666666" points="281.5,-275 150,-275 150,-233.25 281.5,-233.25 281.5,-275"/>
<text text-anchor="start" x="158" y="-261.5" font-family="Helvetica,sans-Serif" font-size="10.00">/Users/ugovaretto/projects</text>
<text text-anchor="start" x="158" y="-250.25" font-family="Helvetica,sans-Serif" font-size="10.00">/s3client/repo/lib/include</text>
<text text-anchor="middle" x="215.75" y="-239" font-family="Helvetica,sans-Serif" font-size="10.00">/aws_sign.h</text>
</a>
</g>
</g>
<!-- Node2 -->
<g id="node2" class="node">
<title>Node2</title>
<g id="a_node2"><a xlink:href="s3-api_8h.html" target="_top" xlink:title="declarations of S3Api class.">
<polygon fill="white" stroke="#666666" points="131.5,-119.5 0,-119.5 0,-77.75 131.5,-77.75 131.5,-119.5"/>
<text text-anchor="start" x="8" y="-106" font-family="Helvetica,sans-Serif" font-size="10.00">/Users/ugovaretto/projects</text>
<text text-anchor="start" x="8" y="-94.75" font-family="Helvetica,sans-Serif" font-size="10.00">/s3client/repo/lib/include</text>
<text text-anchor="middle" x="65.75" y="-83.5" font-family="Helvetica,sans-Serif" font-size="10.00">/s3&#45;api.h</text>
</a>
</g>
</g>
<!-- Node1&#45;&gt;Node2 -->
<g id="edge1" class="edge">
<title>Node1&#45;&gt;Node2</title>
<path fill="none" stroke="#63b8ff" d="M188.6,-225.34C158.82,-194.86 111.76,-146.7 85.36,-119.7"/>
<polygon fill="#63b8ff" stroke="#63b8ff" points="185.65,-227.35 195.14,-232.06 190.65,-222.46 185.65,-227.35"/>
</g>
<!-- Node4 -->
<g id="node4" class="node">
<title>Node4</title>
<g id="a_node4"><a xlink:href="s3-client_8h.html" target="_top" xlink:title="declaration of functions and data types for sending S3 requests, signing URLs and downloading and upl...">
<polygon fill="white" stroke="#666666" points="356.5,-197.25 225,-197.25 225,-155.5 356.5,-155.5 356.5,-197.25"/>
<text text-anchor="start" x="233" y="-183.75" font-family="Helvetica,sans-Serif" font-size="10.00">/Users/ugovaretto/projects</text>
<text text-anchor="start" x="233" y="-172.5" font-family="Helvetica,sans-Serif" font-size="10.00">/s3client/repo/lib/include</text>
<text text-anchor="middle" x="290.75" y="-161.25" font-family="Helvetica,sans-Serif" font-size="10.00">/s3&#45;client.h</text>
</a>
</g>
</g>
<!-- Node1&#45;&gt;Node4 -->
<g id="edge3" class="edge">
<title>Node1&#45;&gt;Node4</title>
<path fill="none" stroke="#63b8ff" d="M243.48,-225.11C252.47,-216.03 262.27,-206.14 270.6,-197.73"/>
<polygon fill="#63b8ff" stroke="#63b8ff" points="241.4,-222.26 236.85,-231.83 246.37,-227.18 241.4,-222.26"/>
</g>
<!-- Node3 -->
<g id="node3" class="node">
<title>Node3</title>
<g id="a_node3"><a xlink:href="bucket-test_8cpp.html" target="_top" xlink:title="bucket tests">
<polygon fill="white" stroke="#666666" points="131.5,-41.75 0,-41.75 0,0 131.5,0 131.5,-41.75"/>
<text text-anchor="start" x="8" y="-28.25" font-family="Helvetica,sans-Serif" font-size="10.00">/Users/ugovaretto/projects</text>
<text text-anchor="start" x="8" y="-17" font-family="Helvetica,sans-Serif" font-size="10.00">/s3client/repo/test/api</text>
<text text-anchor="middle" x="65.75" y="-5.75" font-family="Helvetica,sans-Serif" font-size="10.00">/bucket&#45;test.cpp</text>
</a>
</g>
</g>
<!-- Node2&#45;&gt;Node3 -->
<g id="edge2" class="edge">
<title>Node2&#45;&gt;Node3</title>
<path fill="none" stroke="#63b8ff" d="M65.75,-66.56C65.75,-58.36 65.75,-49.71 65.75,-42.23"/>
<polygon fill="#63b8ff" stroke="#63b8ff" points="62.25,-66.33 65.75,-76.33 69.25,-66.33 62.25,-66.33"/>
</g>
<!-- Node4&#45;&gt;Node2 -->
<g id="edge8" class="edge">
<title>Node4&#45;&gt;Node2</title>
<path fill="none" stroke="#63b8ff" d="M220.41,-151.69C190.19,-141.52 155.24,-129.75 126.21,-119.98"/>
<polygon fill="#63b8ff" stroke="#63b8ff" points="218.86,-155.2 229.45,-155.08 221.09,-148.57 218.86,-155.2"/>
</g>
<!-- Node5 -->
<g id="node5" class="node">
<title>Node5</title>
<g id="a_node5"><a xlink:href="parallel__download_8cpp.html" target="_top" xlink:title="Parallel object download download from S3 service.">
<polygon fill="white" stroke="#666666" points="281.88,-119.5 149.62,-119.5 149.62,-77.75 281.88,-77.75 281.88,-119.5"/>
<text text-anchor="start" x="157.62" y="-106" font-family="Helvetica,sans-Serif" font-size="10.00">/Users/ugovaretto/projects</text>
<text text-anchor="start" x="157.62" y="-94.75" font-family="Helvetica,sans-Serif" font-size="10.00">/s3client/repo/apps/parallel</text>
<text text-anchor="middle" x="215.75" y="-83.5" font-family="Helvetica,sans-Serif" font-size="10.00">_download.cpp</text>
</a>
</g>
</g>
<!-- Node4&#45;&gt;Node5 -->
<g id="edge4" class="edge">
<title>Node4&#45;&gt;Node5</title>
<path fill="none" stroke="#63b8ff" d="M263.02,-147.36C254.03,-138.28 244.23,-128.39 235.9,-119.98"/>
<polygon fill="#63b8ff" stroke="#63b8ff" points="260.13,-149.43 269.65,-154.08 265.1,-144.51 260.13,-149.43"/>
</g>
<!-- Node6 -->
<g id="node6" class="node">
<title>Node6</title>
<g id="a_node6"><a xlink:href="parallel__upload_8cpp.html" target="_top" xlink:title="Parallel upload to S3 service.">
<polygon fill="white" stroke="#666666" points="431.88,-119.5 299.62,-119.5 299.62,-77.75 431.88,-77.75 431.88,-119.5"/>
<text text-anchor="start" x="307.62" y="-106" font-family="Helvetica,sans-Serif" font-size="10.00">/Users/ugovaretto/projects</text>
<text text-anchor="start" x="307.62" y="-94.75" font-family="Helvetica,sans-Serif" font-size="10.00">/s3client/repo/apps/parallel</text>
<text text-anchor="middle" x="365.75" y="-83.5" font-family="Helvetica,sans-Serif" font-size="10.00">_upload.cpp</text>
</a>
</g>
</g>
<!-- Node4&#45;&gt;Node6 -->
<g id="edge5" class="edge">
<title>Node4&#45;&gt;Node6</title>
<path fill="none" stroke="#63b8ff" d="M318.48,-147.36C327.47,-138.28 337.27,-128.39 345.6,-119.98"/>
<polygon fill="#63b8ff" stroke="#63b8ff" points="316.4,-144.51 311.85,-154.08 321.37,-149.43 316.4,-144.51"/>
</g>
<!-- Node7 -->
<g id="node7" class="node">
<title>Node7</title>
<g id="a_node7"><a xlink:href="presign__url_8cpp.html" target="_top" xlink:title="Presign URL.">
<polygon fill="white" stroke="#666666" points="583.25,-119.5 450.25,-119.5 450.25,-77.75 583.25,-77.75 583.25,-119.5"/>
<text text-anchor="start" x="458.25" y="-106" font-family="Helvetica,sans-Serif" font-size="10.00">/Users/ugovaretto/projects</text>
<text text-anchor="start" x="458.25" y="-94.75" font-family="Helvetica,sans-Serif" font-size="10.00">/s3client/repo/apps/presign</text>
<text text-anchor="middle" x="516.75" y="-83.5" font-family="Helvetica,sans-Serif" font-size="10.00">_url.cpp</text>
</a>
</g>
</g>
<!-- Node4&#45;&gt;Node7 -->
<g id="edge6" class="edge">
<title>Node4&#45;&gt;Node7</title>
<path fill="none" stroke="#63b8ff" d="M361.41,-151.69C391.75,-141.52 426.86,-129.75 456.02,-119.98"/>
<polygon fill="#63b8ff" stroke="#63b8ff" points="360.68,-148.58 352.31,-155.08 362.91,-155.22 360.68,-148.58"/>
</g>
<!-- Node8 -->
<g id="node8" class="node">
<title>Node8</title>
<g id="a_node8"><a xlink:href="apps_2s3-client_8cpp.html" target="_top" xlink:title="Send S3v4&#45;signed requests to S3 andpoint and print raw responses.">
<polygon fill="white" stroke="#666666" points="758.25,-113.88 601.25,-113.88 601.25,-83.38 758.25,-83.38 758.25,-113.88"/>
<text text-anchor="start" x="609.25" y="-100.38" font-family="Helvetica,sans-Serif" font-size="10.00">/Users/ugovaretto/projects</text>
<text text-anchor="middle" x="679.75" y="-89.12" font-family="Helvetica,sans-Serif" font-size="10.00">/s3client/repo/apps/s3&#45;client.cpp</text>
</a>
</g>
</g>
<!-- Node4&#45;&gt;Node8 -->
<g id="edge7" class="edge">
<title>Node4&#45;&gt;Node8</title>
<path fill="none" stroke="#63b8ff" d="M367.6,-162.07C428.74,-151.26 516.4,-135.28 592.75,-119.5 600.49,-117.9 608.6,-116.15 616.62,-114.37"/>
<polygon fill="#63b8ff" stroke="#63b8ff" points="367.13,-158.77 357.89,-163.96 368.34,-165.67 367.13,-158.77"/>
</g>
</g>
</svg>
