<?xml version="1.0" encoding="UTF-8" standalone="no"?>
<!DOCTYPE svg PUBLIC "-//W3C//DTD SVG 1.1//EN"
 "http://www.w3.org/Graphics/SVG/1.1/DTD/svg11.dtd">
<!-- Generated by graphviz version 2.43.0 (0)
 -->
<!-- Title: /home/ugovaretto/projects/uv&#45;cpp/s3client/repo/lib/include/aws_sign.h Pages: 1 -->
<!--zoomable 373 -->
<svg id="main" version="1.1" xmlns="http://www.w3.org/2000/svg" xmlns:xlink="http://www.w3.org/1999/xlink" xml:space="preserve" onload="init(evt)">
<style type="text/css"><![CDATA[
.edge:hover path { stroke: red; }
.edge:hover polygon { stroke: red; fill: red; }
]]></style>
<script type="text/javascript"><![CDATA[
var edges = document.getElementsByTagName('g');
if (edges && edges.length) {
  for (var i=0;i<edges.length;i++) {
    if (edges[i].id.substr(0,4)=='edge') {
      edges[i].setAttribute('class','edge');
    }
  }
}
]]></script>
        <defs>
                <circle id="rim" cx="0" cy="0" r="7"/>
                <circle id="rim2" cx="0" cy="0" r="3.5"/>
                <g id="zoomPlus">
                        <use xlink:href="#rim" fill="#404040">
                                <set attributeName="fill" to="#808080" begin="zoomplus.mouseover" end="zoomplus.mouseout"/>
                        </use>
                        <path d="M-4,0h8M0,-4v8" fill="none" stroke="white" stroke-width="1.5" pointer-events="none"/>
                </g>
                <g id="zoomMin">
                        <use xlink:href="#rim" fill="#404040">
                                <set attributeName="fill" to="#808080" begin="zoomminus.mouseover" end="zoomminus.mouseout"/>
                        </use>
                        <path d="M-4,0h8" fill="none" stroke="white" stroke-width="1.5" pointer-events="none"/>
                </g>
                <g id="dirArrow">
                        <path fill="none" stroke="white" stroke-width="1.5" d="M0,-3.0v7 M-2.5,-0.5L0,-3.0L2.5,-0.5"/>
                </g>
               <g id="resetDef">
                       <use xlink:href="#rim2" fill="#404040">
                               <set attributeName="fill" to="#808080" begin="reset.mouseover" end="reset.mouseout"/>
                       </use>
               </g>
        </defs>

<script type="text/javascript">
var viewWidth = 1861;
var viewHeight = 373;
var sectionId = 'dynsection-1';
</script>
<script xlink:href="svgpan.js"/>
<svg id="graph" class="graph">
<g id="viewport">
<title>/home/ugovaretto/projects/uv&#45;cpp/s3client/repo/lib/include/aws_sign.h</title>
<!-- Node1 -->
<g id="node1" class="node">
<title>Node1</title>
<g id="a_node1"><a xlink:title="Public interface to signing URLs and HTTP headers with the S3v4 protocol standard.">
<polygon fill="#bfbfbf" stroke="black" points="241.05,-323.5 241.05,-364.5 371.05,-364.5 371.05,-323.5 241.05,-323.5"/>
<text text-anchor="start" x="249.05" y="-352.5" font-family="Helvetica,sans-Serif" font-size="10.00">/home/ugovaretto/projects</text>
<text text-anchor="start" x="249.05" y="-341.5" font-family="Helvetica,sans-Serif" font-size="10.00">/uv&#45;cpp/s3client/repo/lib</text>
<text text-anchor="middle" x="306.05" y="-330.5" font-family="Helvetica,sans-Serif" font-size="10.00">/include/aws_sign.h</text>
</a>
</g>
</g>
<!-- Node2 -->
<g id="node2" class="node">
<title>Node2</title>
<g id="a_node2"><a xlink:href="presign-url-test_8cpp_source.html" target="_top" xlink:title=" ">
<polygon fill="none" stroke="black" points="93.05,-167.5 93.05,-208.5 223.05,-208.5 223.05,-167.5 93.05,-167.5"/>
<text text-anchor="start" x="101.05" y="-196.5" font-family="Helvetica,sans-Serif" font-size="10.00">/home/ugovaretto/projects</text>
<text text-anchor="start" x="101.05" y="-185.5" font-family="Helvetica,sans-Serif" font-size="10.00">/uv&#45;cpp/s3client/repo/test</text>
<text text-anchor="middle" x="158.05" y="-174.5" font-family="Helvetica,sans-Serif" font-size="10.00">/presign&#45;url&#45;test.cpp</text>
</a>
</g>
</g>
<!-- Node1&#45;&gt;Node2 -->
<g id="edge1" class="edge">
<title>Node1&#45;&gt;Node2</title>
<path fill="none" stroke="midnightblue" d="M280.23,-316.14C250.8,-285.51 203.38,-236.17 177.11,-208.83"/>
<polygon fill="midnightblue" stroke="midnightblue" points="277.85,-318.71 287.3,-323.5 282.9,-313.86 277.85,-318.71"/>
</g>
<!-- Node3 -->
<g id="node3" class="node">
<title>Node3</title>
<g id="a_node3"><a xlink:href="sign-test_8cpp_source.html" target="_top" xlink:title=" ">
<polygon fill="none" stroke="black" points="241.05,-167.5 241.05,-208.5 371.05,-208.5 371.05,-167.5 241.05,-167.5"/>
<text text-anchor="start" x="249.05" y="-196.5" font-family="Helvetica,sans-Serif" font-size="10.00">/home/ugovaretto/projects</text>
<text text-anchor="start" x="249.05" y="-185.5" font-family="Helvetica,sans-Serif" font-size="10.00">/uv&#45;cpp/s3client/repo/test</text>
<text text-anchor="middle" x="306.05" y="-174.5" font-family="Helvetica,sans-Serif" font-size="10.00">/sign&#45;test.cpp</text>
</a>
</g>
</g>
<!-- Node1&#45;&gt;Node3 -->
<g id="edge2" class="edge">
<title>Node1&#45;&gt;Node3</title>
<path fill="none" stroke="midnightblue" d="M306.05,-313.36C306.05,-282.61 306.05,-235.36 306.05,-208.83"/>
<polygon fill="midnightblue" stroke="midnightblue" points="302.55,-313.5 306.05,-323.5 309.55,-313.5 302.55,-313.5"/>
</g>
<!-- Node4 -->
<g id="node4" class="node">
<title>Node4</title>
<g id="a_node4"><a xlink:href="multipart__upload_8cpp_source.html" target="_top" xlink:title=" ">
<polygon fill="none" stroke="black" points="124.05,-89.5 124.05,-130.5 266.05,-130.5 266.05,-89.5 124.05,-89.5"/>
<text text-anchor="start" x="132.05" y="-118.5" font-family="Helvetica,sans-Serif" font-size="10.00">/home/ugovaretto/projects</text>
<text text-anchor="start" x="132.05" y="-107.5" font-family="Helvetica,sans-Serif" font-size="10.00">/uv&#45;cpp/s3client/repo/lib</text>
<text text-anchor="middle" x="195.05" y="-96.5" font-family="Helvetica,sans-Serif" font-size="10.00">/src/api/multipart_upload.cpp</text>
</a>
</g>
</g>
<!-- Node1&#45;&gt;Node4 -->
<g id="edge3" class="edge">
<title>Node1&#45;&gt;Node4</title>
<path fill="none" stroke="midnightblue" d="M230.8,-338.44C156.65,-332.2 50.82,-318.01 25.05,-287 -9.05,-245.98 -7.25,-210.19 24.05,-167 46.78,-135.64 87.61,-121.52 123.67,-115.3"/>
<polygon fill="midnightblue" stroke="midnightblue" points="230.79,-341.95 241.04,-339.27 231.35,-334.98 230.79,-341.95"/>
</g>
<!-- Node5 -->
<g id="node5" class="node">
<title>Node5</title>
<g id="a_node5"><a xlink:href="bucket_8cpp_source.html" target="_top" xlink:title=" ">
<polygon fill="none" stroke="black" points="284.05,-89.5 284.05,-130.5 414.05,-130.5 414.05,-89.5 284.05,-89.5"/>
<text text-anchor="start" x="292.05" y="-118.5" font-family="Helvetica,sans-Serif" font-size="10.00">/home/ugovaretto/projects</text>
<text text-anchor="start" x="292.05" y="-107.5" font-family="Helvetica,sans-Serif" font-size="10.00">/uv&#45;cpp/s3client/repo/lib</text>
<text text-anchor="middle" x="349.05" y="-96.5" font-family="Helvetica,sans-Serif" font-size="10.00">/src/api/bucket.cpp</text>
</a>
</g>
</g>
<!-- Node1&#45;&gt;Node5 -->
<g id="edge4" class="edge">
<title>Node1&#45;&gt;Node5</title>
<path fill="none" stroke="midnightblue" d="M230.76,-336.75C163.86,-329.45 73.3,-314.67 51.05,-287 17.62,-245.44 16.46,-207.59 51.05,-167 83.75,-128.63 225.76,-141.59 275.05,-131 277.91,-130.38 280.83,-129.73 283.77,-129.04"/>
<polygon fill="midnightblue" stroke="midnightblue" points="230.55,-340.25 240.87,-337.82 231.29,-333.29 230.55,-340.25"/>
</g>
<!-- Node6 -->
<g id="node6" class="node">
<title>Node6</title>
<g id="a_node6"><a xlink:href="object_8cpp_source.html" target="_top" xlink:title=" ">
<polygon fill="none" stroke="black" points="432.05,-89.5 432.05,-130.5 562.05,-130.5 562.05,-89.5 432.05,-89.5"/>
<text text-anchor="start" x="440.05" y="-118.5" font-family="Helvetica,sans-Serif" font-size="10.00">/home/ugovaretto/projects</text>
<text text-anchor="start" x="440.05" y="-107.5" font-family="Helvetica,sans-Serif" font-size="10.00">/uv&#45;cpp/s3client/repo/lib</text>
<text text-anchor="middle" x="497.05" y="-96.5" font-family="Helvetica,sans-Serif" font-size="10.00">/src/api/object.cpp</text>
</a>
</g>
</g>
<!-- Node1&#45;&gt;Node6 -->
<g id="edge5" class="edge">
<title>Node1&#45;&gt;Node6</title>
<path fill="none" stroke="midnightblue" d="M234.75,-320C150,-289.1 26.8,-230.65 84.05,-167 134.71,-110.67 348.58,-144.93 423.05,-131 425.92,-130.46 428.85,-129.87 431.81,-129.23"/>
<polygon fill="midnightblue" stroke="midnightblue" points="233.77,-323.37 244.37,-323.45 236.14,-316.78 233.77,-323.37"/>
</g>
<!-- Node7 -->
<g id="node7" class="node">
<title>Node7</title>
<g id="a_node7"><a xlink:href="aws__sign_8cpp_source.html" target="_top" xlink:title=" ">
<polygon fill="none" stroke="black" points="634.05,-245.5 634.05,-286.5 764.05,-286.5 764.05,-245.5 634.05,-245.5"/>
<text text-anchor="start" x="642.05" y="-274.5" font-family="Helvetica,sans-Serif" font-size="10.00">/home/ugovaretto/projects</text>
<text text-anchor="start" x="642.05" y="-263.5" font-family="Helvetica,sans-Serif" font-size="10.00">/uv&#45;cpp/s3client/repo/lib</text>
<text text-anchor="middle" x="699.05" y="-252.5" font-family="Helvetica,sans-Serif" font-size="10.00">/src/aws_sign.cpp</text>
</a>
</g>
</g>
<!-- Node1&#45;&gt;Node7 -->
<g id="edge6" class="edge">
<title>Node1&#45;&gt;Node7</title>
<path fill="none" stroke="midnightblue" d="M381.23,-331.14C445.03,-320.71 538.86,-304.49 620.05,-287 624.61,-286.02 629.31,-284.95 634.04,-283.85"/>
<polygon fill="midnightblue" stroke="midnightblue" points="380.57,-327.7 371.26,-332.77 381.69,-334.61 380.57,-327.7"/>
</g>
<!-- Node8 -->
<g id="node8" class="node">
<title>Node8</title>
<g id="a_node8"><a xlink:href="s3-client_8h.html" target="_top" xlink:title="declaration of functions and data types for sending S3 requests, signing URLs and downloading and upl...">
<polygon fill="none" stroke="black" points="410.05,-245.5 410.05,-286.5 540.05,-286.5 540.05,-245.5 410.05,-245.5"/>
<text text-anchor="start" x="418.05" y="-274.5" font-family="Helvetica,sans-Serif" font-size="10.00">/home/ugovaretto/projects</text>
<text text-anchor="start" x="418.05" y="-263.5" font-family="Helvetica,sans-Serif" font-size="10.00">/uv&#45;cpp/s3client/repo/lib</text>
<text text-anchor="middle" x="475.05" y="-252.5" font-family="Helvetica,sans-Serif" font-size="10.00">/include/s3&#45;client.h</text>
</a>
</g>
</g>
<!-- Node1&#45;&gt;Node8 -->
<g id="edge7" class="edge">
<title>Node1&#45;&gt;Node8</title>
<path fill="none" stroke="midnightblue" d="M358.99,-319.19C382.37,-308.67 409.52,-296.47 431.67,-286.51"/>
<polygon fill="midnightblue" stroke="midnightblue" points="357.25,-316.13 349.57,-323.43 360.12,-322.52 357.25,-316.13"/>
</g>
<!-- Node13 -->
<g id="node13" class="node">
<title>Node13</title>
<g id="a_node13"><a xlink:href="lib_2src_2s3-client_8cpp_source.html" target="_top" xlink:title=" ">
<polygon fill="none" stroke="black" points="1248.05,-167.5 1248.05,-208.5 1378.05,-208.5 1378.05,-167.5 1248.05,-167.5"/>
<text text-anchor="start" x="1256.05" y="-196.5" font-family="Helvetica,sans-Serif" font-size="10.00">/home/ugovaretto/projects</text>
<text text-anchor="start" x="1256.05" y="-185.5" font-family="Helvetica,sans-Serif" font-size="10.00">/uv&#45;cpp/s3client/repo/lib</text>
<text text-anchor="middle" x="1313.05" y="-174.5" font-family="Helvetica,sans-Serif" font-size="10.00">/src/s3&#45;client.cpp</text>
</a>
</g>
</g>
<!-- Node1&#45;&gt;Node13 -->
<g id="edge42" class="edge">
<title>Node1&#45;&gt;Node13</title>
<path fill="none" stroke="midnightblue" d="M381.53,-339.84C439.9,-334.64 521.11,-321.23 584.05,-287 606.96,-274.54 601.31,-255.83 625.05,-245 749.4,-188.27 1104.14,-230.95 1239.05,-209 1241.94,-208.53 1244.88,-207.99 1247.84,-207.4"/>
<polygon fill="midnightblue" stroke="midnightblue" points="380.95,-336.37 371.27,-340.69 381.52,-343.35 380.95,-336.37"/>
</g>
<!-- Node14 -->
<g id="node14" class="node">
<title>Node14</title>
<g id="a_node14"><a xlink:href="s3-api_8h.html" target="_top" xlink:title="declarations of S3Api class.">
<polygon fill="none" stroke="black" points="1100.05,-167.5 1100.05,-208.5 1230.05,-208.5 1230.05,-167.5 1100.05,-167.5"/>
<text text-anchor="start" x="1108.05" y="-196.5" font-family="Helvetica,sans-Serif" font-size="10.00">/home/ugovaretto/projects</text>
<text text-anchor="start" x="1108.05" y="-185.5" font-family="Helvetica,sans-Serif" font-size="10.00">/uv&#45;cpp/s3client/repo/lib</text>
<text text-anchor="middle" x="1165.05" y="-174.5" font-family="Helvetica,sans-Serif" font-size="10.00">/include/s3&#45;api.h</text>
</a>
</g>
</g>
<!-- Node1&#45;&gt;Node14 -->
<g id="edge43" class="edge">
<title>Node1&#45;&gt;Node14</title>
<path fill="none" stroke="midnightblue" d="M381.21,-336.36C431.23,-329.44 497.06,-315.4 549.05,-287 572.49,-274.19 567.68,-255.96 592.05,-245 693.43,-199.38 981.43,-227.59 1091.05,-209 1093.93,-208.51 1096.87,-207.96 1099.83,-207.36"/>
<polygon fill="midnightblue" stroke="midnightblue" points="380.56,-332.91 371.1,-337.69 381.47,-339.85 380.56,-332.91"/>
</g>
<!-- Node8&#45;&gt;Node2 -->
<g id="edge8" class="edge">
<title>Node8&#45;&gt;Node2</title>
<path fill="none" stroke="midnightblue" d="M399.89,-248.44C351.79,-237.66 288.12,-223.03 232.05,-209 229.21,-208.29 226.31,-207.55 223.38,-206.8"/>
<polygon fill="midnightblue" stroke="midnightblue" points="399.39,-251.92 409.91,-250.68 400.92,-245.09 399.39,-251.92"/>
</g>
<!-- Node8&#45;&gt;Node3 -->
<g id="edge9" class="edge">
<title>Node8&#45;&gt;Node3</title>
<path fill="none" stroke="midnightblue" d="M422.1,-241.19C398.72,-230.67 371.58,-218.47 349.42,-208.51"/>
<polygon fill="midnightblue" stroke="midnightblue" points="420.97,-244.52 431.52,-245.43 423.84,-238.13 420.97,-244.52"/>
</g>
<!-- Node8&#45;&gt;Node4 -->
<g id="edge10" class="edge">
<title>Node8&#45;&gt;Node4</title>
<path fill="none" stroke="midnightblue" d="M443.93,-238.77C433.74,-229.69 422.59,-219.22 413.05,-209 396.85,-191.65 399.65,-180.39 380.05,-167 370.18,-160.26 313.97,-143.67 266.08,-130.29"/>
<polygon fill="midnightblue" stroke="midnightblue" points="441.67,-241.44 451.5,-245.41 446.29,-236.18 441.67,-241.44"/>
</g>
<!-- Node8&#45;&gt;Node5 -->
<g id="edge11" class="edge">
<title>Node8&#45;&gt;Node5</title>
<path fill="none" stroke="midnightblue" d="M460.02,-236.65C448.53,-216.24 431.55,-188.62 413.05,-167 401.72,-153.77 387.23,-140.83 374.91,-130.74"/>
<polygon fill="midnightblue" stroke="midnightblue" points="456.99,-238.41 464.89,-245.47 463.12,-235.02 456.99,-238.41"/>
</g>
<!-- Node8&#45;&gt;Node6 -->
<g id="edge12" class="edge">
<title>Node8&#45;&gt;Node6</title>
<path fill="none" stroke="midnightblue" d="M479.28,-235.36C483.67,-204.61 490.42,-157.36 494.21,-130.83"/>
<polygon fill="midnightblue" stroke="midnightblue" points="475.78,-235.1 477.83,-245.5 482.71,-236.09 475.78,-235.1"/>
</g>
<!-- Node9 -->
<g id="node9" class="node">
<title>Node9</title>
<g id="a_node9"><a xlink:href="presign__url_8cpp.html" target="_top" xlink:title="Presign URL.">
<polygon fill="none" stroke="black" points="503.55,-167.5 503.55,-208.5 634.55,-208.5 634.55,-167.5 503.55,-167.5"/>
<text text-anchor="start" x="511.55" y="-196.5" font-family="Helvetica,sans-Serif" font-size="10.00">/home/ugovaretto/projects</text>
<text text-anchor="start" x="511.55" y="-185.5" font-family="Helvetica,sans-Serif" font-size="10.00">/uv&#45;cpp/s3client/repo/apps</text>
<text text-anchor="middle" x="569.05" y="-174.5" font-family="Helvetica,sans-Serif" font-size="10.00">/presign_url.cpp</text>
</a>
</g>
</g>
<!-- Node8&#45;&gt;Node9 -->
<g id="edge13" class="edge">
<title>Node8&#45;&gt;Node9</title>
<path fill="none" stroke="midnightblue" d="M507.12,-239.06C519.5,-229.06 533.42,-217.8 544.92,-208.51"/>
<polygon fill="midnightblue" stroke="midnightblue" points="504.83,-236.42 499.25,-245.43 509.23,-241.86 504.83,-236.42"/>
</g>
<!-- Node10 -->
<g id="node10" class="node">
<title>Node10</title>
<g id="a_node10"><a xlink:href="apps_2s3-client_8cpp.html" target="_top" xlink:title="Send S3v4&#45;signed requests to S3 andpoint and print raw responses.">
<polygon fill="none" stroke="black" points="652.55,-167.5 652.55,-208.5 783.55,-208.5 783.55,-167.5 652.55,-167.5"/>
<text text-anchor="start" x="660.55" y="-196.5" font-family="Helvetica,sans-Serif" font-size="10.00">/home/ugovaretto/projects</text>
<text text-anchor="start" x="660.55" y="-185.5" font-family="Helvetica,sans-Serif" font-size="10.00">/uv&#45;cpp/s3client/repo/apps</text>
<text text-anchor="middle" x="718.05" y="-174.5" font-family="Helvetica,sans-Serif" font-size="10.00">/s3&#45;client.cpp</text>
</a>
</g>
</g>
<!-- Node8&#45;&gt;Node10 -->
<g id="edge14" class="edge">
<title>Node8&#45;&gt;Node10</title>
<path fill="none" stroke="midnightblue" d="M547.17,-242.44C581.66,-231.66 622.55,-218.87 655.68,-208.51"/>
<polygon fill="midnightblue" stroke="midnightblue" points="546.12,-239.1 537.63,-245.43 548.21,-245.78 546.12,-239.1"/>
</g>
<!-- Node11 -->
<g id="node11" class="node">
<title>Node11</title>
<g id="a_node11"><a xlink:href="parallel__download_8cpp.html" target="_top" xlink:title="Parallel object download download from S3 service.">
<polygon fill="none" stroke="black" points="801.55,-167.5 801.55,-208.5 932.55,-208.5 932.55,-167.5 801.55,-167.5"/>
<text text-anchor="start" x="809.55" y="-196.5" font-family="Helvetica,sans-Serif" font-size="10.00">/home/ugovaretto/projects</text>
<text text-anchor="start" x="809.55" y="-185.5" font-family="Helvetica,sans-Serif" font-size="10.00">/uv&#45;cpp/s3client/repo/apps</text>
<text text-anchor="middle" x="867.05" y="-174.5" font-family="Helvetica,sans-Serif" font-size="10.00">/parallel_download.cpp</text>
</a>
</g>
</g>
<!-- Node8&#45;&gt;Node11 -->
<g id="edge15" class="edge">
<title>Node8&#45;&gt;Node11</title>
<path fill="none" stroke="midnightblue" d="M550.27,-245.77C551.54,-245.51 552.8,-245.25 554.05,-245 659.35,-223.79 687.91,-231.05 793.05,-209 795.78,-208.43 798.57,-207.81 801.37,-207.17"/>
<polygon fill="midnightblue" stroke="midnightblue" points="549.48,-242.36 540.46,-247.91 550.97,-249.2 549.48,-242.36"/>
</g>
<!-- Node12 -->
<g id="node12" class="node">
<title>Node12</title>
<g id="a_node12"><a xlink:href="parallel__upload_8cpp.html" target="_top" xlink:title="Parallel upload to S3 service.">
<polygon fill="none" stroke="black" points="950.55,-167.5 950.55,-208.5 1081.55,-208.5 1081.55,-167.5 950.55,-167.5"/>
<text text-anchor="start" x="958.55" y="-196.5" font-family="Helvetica,sans-Serif" font-size="10.00">/home/ugovaretto/projects</text>
<text text-anchor="start" x="958.55" y="-185.5" font-family="Helvetica,sans-Serif" font-size="10.00">/uv&#45;cpp/s3client/repo/apps</text>
<text text-anchor="middle" x="1016.05" y="-174.5" font-family="Helvetica,sans-Serif" font-size="10.00">/parallel_upload.cpp</text>
</a>
</g>
</g>
<!-- Node8&#45;&gt;Node12 -->
<g id="edge16" class="edge">
<title>Node8&#45;&gt;Node12</title>
<path fill="none" stroke="midnightblue" d="M550.26,-245.67C551.53,-245.44 552.79,-245.22 554.05,-245 724.73,-215.66 771.61,-239.71 942.05,-209 944.8,-208.5 947.59,-207.96 950.41,-207.37"/>
<polygon fill="midnightblue" stroke="midnightblue" points="549.54,-242.25 540.4,-247.62 550.89,-249.12 549.54,-242.25"/>
</g>
<!-- Node8&#45;&gt;Node13 -->
<g id="edge17" class="edge">
<title>Node8&#45;&gt;Node13</title>
<path fill="none" stroke="midnightblue" d="M550.15,-250.86C564.04,-248.62 578.45,-246.54 592.05,-245 878.23,-212.68 954.71,-254.82 1239.05,-209 1241.94,-208.53 1244.88,-208 1247.84,-207.41"/>
<polygon fill="midnightblue" stroke="midnightblue" points="549.44,-247.43 540.15,-252.52 550.58,-254.34 549.44,-247.43"/>
</g>
<!-- Node8&#45;&gt;Node14 -->
<g id="edge18" class="edge">
<title>Node8&#45;&gt;Node14</title>
<path fill="none" stroke="midnightblue" d="M550.25,-245.63C551.52,-245.41 552.79,-245.2 554.05,-245 790.29,-207.49 855.11,-248.4 1091.05,-209 1093.93,-208.52 1096.87,-207.97 1099.83,-207.37"/>
<polygon fill="midnightblue" stroke="midnightblue" points="549.56,-242.2 540.38,-247.49 550.86,-249.08 549.56,-242.2"/>
</g>
<!-- Node14&#45;&gt;Node4 -->
<g id="edge26" class="edge">
<title>Node14&#45;&gt;Node4</title>
<path fill="none" stroke="midnightblue" d="M1089.95,-167.02C730.53,-112.6 631.04,-182.81 275.05,-131 272.21,-130.59 269.33,-130.12 266.43,-129.6"/>
<polygon fill="midnightblue" stroke="midnightblue" points="1089.43,-170.48 1099.84,-168.54 1090.49,-163.57 1089.43,-170.48"/>
</g>
<!-- Node14&#45;&gt;Node5 -->
<g id="edge27" class="edge">
<title>Node14&#45;&gt;Node5</title>
<path fill="none" stroke="midnightblue" d="M1089.73,-166.98C795.63,-121.25 713.32,-177.52 423.05,-131 420.16,-130.54 417.22,-130.01 414.25,-129.42"/>
<polygon fill="midnightblue" stroke="midnightblue" points="1089.41,-170.47 1099.84,-168.58 1090.51,-163.56 1089.41,-170.47"/>
</g>
<!-- Node14&#45;&gt;Node6 -->
<g id="edge28" class="edge">
<title>Node14&#45;&gt;Node6</title>
<path fill="none" stroke="midnightblue" d="M1089.95,-166.99C862.99,-129.96 799.4,-166.79 576.05,-131 571.58,-130.28 566.99,-129.43 562.38,-128.5"/>
<polygon fill="midnightblue" stroke="midnightblue" points="1089.39,-170.45 1099.83,-168.64 1090.54,-163.54 1089.39,-170.45"/>
</g>
<!-- Node15 -->
<g id="node15" class="node">
<title>Node15</title>
<g id="a_node15"><a xlink:href="abort-multipart-upload-test_8cpp_source.html" target="_top" xlink:title=" ">
<polygon fill="none" stroke="black" points="777.05,-0.5 777.05,-52.5 907.05,-52.5 907.05,-0.5 777.05,-0.5"/>
<text text-anchor="start" x="785.05" y="-40.5" font-family="Helvetica,sans-Serif" font-size="10.00">/home/ugovaretto/projects</text>
<text text-anchor="start" x="785.05" y="-29.5" font-family="Helvetica,sans-Serif" font-size="10.00">/uv&#45;cpp/s3client/repo/test</text>
<text text-anchor="start" x="785.05" y="-18.5" font-family="Helvetica,sans-Serif" font-size="10.00">/api/abort&#45;multipart&#45;upload</text>
<text text-anchor="middle" x="842.05" y="-7.5" font-family="Helvetica,sans-Serif" font-size="10.00">&#45;test.cpp</text>
</a>
</g>
</g>
<!-- Node14&#45;&gt;Node15 -->
<g id="edge19" class="edge">
<title>Node14&#45;&gt;Node15</title>
<path fill="none" stroke="midnightblue" d="M1089.79,-167.37C1009.1,-159.24 679.03,-165.68 647.05,-131 602.68,-82.89 704.25,-52.91 776.82,-38.28"/>
<polygon fill="midnightblue" stroke="midnightblue" points="1089.45,-170.85 1099.82,-168.68 1090.36,-163.91 1089.45,-170.85"/>
</g>
<!-- Node16 -->
<g id="node16" class="node">
<title>Node16</title>
<g id="a_node16"><a xlink:href="multipart-upload-test_8cpp_source.html" target="_top" xlink:title=" ">
<polygon fill="none" stroke="black" points="959.55,-6 959.55,-47 1102.55,-47 1102.55,-6 959.55,-6"/>
<text text-anchor="start" x="967.55" y="-35" font-family="Helvetica,sans-Serif" font-size="10.00">/home/ugovaretto/projects</text>
<text text-anchor="start" x="967.55" y="-24" font-family="Helvetica,sans-Serif" font-size="10.00">/uv&#45;cpp/s3client/repo/test</text>
<text text-anchor="middle" x="1031.05" y="-13" font-family="Helvetica,sans-Serif" font-size="10.00">/api/multipart&#45;upload&#45;test.cpp</text>
</a>
</g>
</g>
<!-- Node14&#45;&gt;Node16 -->
<g id="edge20" class="edge">
<title>Node14&#45;&gt;Node16</title>
<path fill="none" stroke="midnightblue" d="M1212.34,-161.45C1223.06,-153.23 1233.04,-143.07 1239.05,-131 1247.36,-114.29 1250.3,-103.89 1239.05,-89 1203.67,-42.2 1168.25,-69.81 1112.05,-53 1105.69,-51.1 1099.07,-49.08 1092.46,-47.04"/>
<polygon fill="midnightblue" stroke="midnightblue" points="1210.17,-158.69 1204.05,-167.34 1214.23,-164.4 1210.17,-158.69"/>
</g>
<!-- Node17 -->
<g id="node17" class="node">
<title>Node17</title>
<g id="a_node17"><a xlink:href="multipart-upload-file-test_8cpp_source.html" target="_top" xlink:title=" ">
<polygon fill="none" stroke="black" points="1269.05,-0.5 1269.05,-52.5 1399.05,-52.5 1399.05,-0.5 1269.05,-0.5"/>
<text text-anchor="start" x="1277.05" y="-40.5" font-family="Helvetica,sans-Serif" font-size="10.00">/home/ugovaretto/projects</text>
<text text-anchor="start" x="1277.05" y="-29.5" font-family="Helvetica,sans-Serif" font-size="10.00">/uv&#45;cpp/s3client/repo/test</text>
<text text-anchor="start" x="1277.05" y="-18.5" font-family="Helvetica,sans-Serif" font-size="10.00">/api/multipart&#45;upload&#45;file</text>
<text text-anchor="middle" x="1334.05" y="-7.5" font-family="Helvetica,sans-Serif" font-size="10.00">&#45;test.cpp</text>
</a>
</g>
</g>
<!-- Node14&#45;&gt;Node17 -->
<g id="edge21" class="edge">
<title>Node14&#45;&gt;Node17</title>
<path fill="none" stroke="midnightblue" d="M1240.29,-167C1324.82,-151.41 1373.45,-193.54 1425.05,-131 1436.93,-116.6 1433.8,-105.49 1425.05,-89 1417.09,-74.01 1403.66,-62.01 1389.54,-52.73"/>
<polygon fill="midnightblue" stroke="midnightblue" points="1239.43,-163.61 1230.35,-169.07 1240.86,-170.46 1239.43,-163.61"/>
</g>
<!-- Node18 -->
<g id="node18" class="node">
<title>Node18</title>
<g id="a_node18"><a xlink:href="bucket-test_8cpp.html" target="_top" xlink:title="bucket tests">
<polygon fill="none" stroke="black" points="1417.05,-6 1417.05,-47 1547.05,-47 1547.05,-6 1417.05,-6"/>
<text text-anchor="start" x="1425.05" y="-35" font-family="Helvetica,sans-Serif" font-size="10.00">/home/ugovaretto/projects</text>
<text text-anchor="start" x="1425.05" y="-24" font-family="Helvetica,sans-Serif" font-size="10.00">/uv&#45;cpp/s3client/repo/test</text>
<text text-anchor="middle" x="1482.05" y="-13" font-family="Helvetica,sans-Serif" font-size="10.00">/api/bucket&#45;test.cpp</text>
</a>
</g>
</g>
<!-- Node14&#45;&gt;Node18 -->
<g id="edge22" class="edge">
<title>Node14&#45;&gt;Node18</title>
<path fill="none" stroke="midnightblue" d="M1240.21,-166.98C1331.43,-149.8 1373.72,-187.25 1442.05,-131 1467.48,-110.06 1476.78,-70.92 1480.16,-47.23"/>
<polygon fill="midnightblue" stroke="midnightblue" points="1239.43,-163.57 1230.34,-169.02 1240.84,-170.42 1239.43,-163.57"/>
</g>
<!-- Node19 -->
<g id="node19" class="node">
<title>Node19</title>
<g id="a_node19"><a xlink:href="fileobject-test_8cpp_source.html" target="_top" xlink:title=" ">
<polygon fill="none" stroke="black" points="1565.05,-6 1565.05,-47 1695.05,-47 1695.05,-6 1565.05,-6"/>
<text text-anchor="start" x="1573.05" y="-35" font-family="Helvetica,sans-Serif" font-size="10.00">/home/ugovaretto/projects</text>
<text text-anchor="start" x="1573.05" y="-24" font-family="Helvetica,sans-Serif" font-size="10.00">/uv&#45;cpp/s3client/repo/test</text>
<text text-anchor="middle" x="1630.05" y="-13" font-family="Helvetica,sans-Serif" font-size="10.00">/api/fileobject&#45;test.cpp</text>
</a>
</g>
</g>
<!-- Node14&#45;&gt;Node19 -->
<g id="edge23" class="edge">
<title>Node14&#45;&gt;Node19</title>
<path fill="none" stroke="midnightblue" d="M1240.4,-166.87C1342.32,-146.81 1375.36,-166.62 1469.05,-131 1522.47,-110.69 1576.78,-70.95 1606.67,-47.06"/>
<polygon fill="midnightblue" stroke="midnightblue" points="1239.41,-163.51 1230.32,-168.94 1240.82,-170.36 1239.41,-163.51"/>
</g>
<!-- Node20 -->
<g id="node20" class="node">
<title>Node20</title>
<g id="a_node20"><a xlink:href="parallel-file-transfer-test_8cpp_source.html" target="_top" xlink:title=" ">
<polygon fill="none" stroke="black" points="1713.05,-6 1713.05,-47 1853.05,-47 1853.05,-6 1713.05,-6"/>
<text text-anchor="start" x="1721.05" y="-35" font-family="Helvetica,sans-Serif" font-size="10.00">/home/ugovaretto/projects</text>
<text text-anchor="start" x="1721.05" y="-24" font-family="Helvetica,sans-Serif" font-size="10.00">/uv&#45;cpp/s3client/repo/test</text>
<text text-anchor="middle" x="1783.05" y="-13" font-family="Helvetica,sans-Serif" font-size="10.00">/parallel&#45;file&#45;transfer&#45;test.cpp</text>
</a>
</g>
</g>
<!-- Node14&#45;&gt;Node20 -->
<g id="edge24" class="edge">
<title>Node14&#45;&gt;Node20</title>
<path fill="none" stroke="midnightblue" d="M1240.26,-166.92C1365.3,-143.39 1402.38,-161.82 1522.05,-131 1603,-110.15 1692.63,-70.79 1742.97,-47.07"/>
<polygon fill="midnightblue" stroke="midnightblue" points="1239.46,-163.51 1230.3,-168.84 1240.78,-170.38 1239.46,-163.51"/>
</g>
<!-- Node21 -->
<g id="node21" class="node">
<title>Node21</title>
<g id="a_node21"><a xlink:href="object-test_8cpp_source.html" target="_top" xlink:title=" ">
<polygon fill="none" stroke="black" points="560.05,-6 560.05,-47 690.05,-47 690.05,-6 560.05,-6"/>
<text text-anchor="start" x="568.05" y="-35" font-family="Helvetica,sans-Serif" font-size="10.00">/home/ugovaretto/projects</text>
<text text-anchor="start" x="568.05" y="-24" font-family="Helvetica,sans-Serif" font-size="10.00">/uv&#45;cpp/s3client/repo/test</text>
<text text-anchor="middle" x="625.05" y="-13" font-family="Helvetica,sans-Serif" font-size="10.00">/api/object&#45;test.cpp</text>
</a>
</g>
</g>
<!-- Node14&#45;&gt;Node21 -->
<g id="edge25" class="edge">
<title>Node14&#45;&gt;Node21</title>
<path fill="none" stroke="midnightblue" d="M1089.76,-167.35C1007.14,-159.03 666.37,-165.7 632.05,-131 610.51,-109.23 614.49,-70.74 619.6,-47.32"/>
<polygon fill="midnightblue" stroke="midnightblue" points="1089.45,-170.85 1099.82,-168.67 1090.36,-163.9 1089.45,-170.85"/>
</g>
<!-- Node22 -->
<g id="node22" class="node">
<title>Node22</title>
<g id="a_node22"><a xlink:href="s3-api_8cpp_source.html" target="_top" xlink:title=" ">
<polygon fill="none" stroke="black" points="656.05,-89.5 656.05,-130.5 786.05,-130.5 786.05,-89.5 656.05,-89.5"/>
<text text-anchor="start" x="664.05" y="-118.5" font-family="Helvetica,sans-Serif" font-size="10.00">/home/ugovaretto/projects</text>
<text text-anchor="start" x="664.05" y="-107.5" font-family="Helvetica,sans-Serif" font-size="10.00">/uv&#45;cpp/s3client/repo/lib</text>
<text text-anchor="middle" x="721.05" y="-96.5" font-family="Helvetica,sans-Serif" font-size="10.00">/src/api/s3&#45;api.cpp</text>
</a>
</g>
</g>
<!-- Node14&#45;&gt;Node22 -->
<g id="edge29" class="edge">
<title>Node14&#45;&gt;Node22</title>
<path fill="none" stroke="midnightblue" d="M1089.81,-166.91C959.16,-142.34 921.95,-155.73 795.05,-131 792.17,-130.44 789.25,-129.83 786.3,-129.18"/>
<polygon fill="midnightblue" stroke="midnightblue" points="1089.31,-170.37 1099.8,-168.82 1090.63,-163.5 1089.31,-170.37"/>
</g>
<!-- Node23 -->
<g id="node23" class="node">
<title>Node23</title>
<g id="a_node23"><a xlink:href="xml__parser_8cpp_source.html" target="_top" xlink:title=" ">
<polygon fill="none" stroke="black" points="804.05,-89.5 804.05,-130.5 934.05,-130.5 934.05,-89.5 804.05,-89.5"/>
<text text-anchor="start" x="812.05" y="-118.5" font-family="Helvetica,sans-Serif" font-size="10.00">/home/ugovaretto/projects</text>
<text text-anchor="start" x="812.05" y="-107.5" font-family="Helvetica,sans-Serif" font-size="10.00">/uv&#45;cpp/s3client/repo/lib</text>
<text text-anchor="middle" x="869.05" y="-96.5" font-family="Helvetica,sans-Serif" font-size="10.00">/src/api/xml_parser.cpp</text>
</a>
</g>
</g>
<!-- Node14&#45;&gt;Node23 -->
<g id="edge30" class="edge">
<title>Node14&#45;&gt;Node23</title>
<path fill="none" stroke="midnightblue" d="M1089.63,-166.67C1023.79,-149.92 1005.54,-147.04 943.05,-131 940.21,-130.27 937.32,-129.52 934.39,-128.76"/>
<polygon fill="midnightblue" stroke="midnightblue" points="1089.14,-170.16 1099.7,-169.24 1090.88,-163.37 1089.14,-170.16"/>
</g>
<!-- Node24 -->
<g id="node24" class="node">
<title>Node24</title>
<g id="a_node24"><a xlink:href="download-file_8cpp_source.html" target="_top" xlink:title=" ">
<polygon fill="none" stroke="black" points="952.05,-89.5 952.05,-130.5 1082.05,-130.5 1082.05,-89.5 952.05,-89.5"/>
<text text-anchor="start" x="960.05" y="-118.5" font-family="Helvetica,sans-Serif" font-size="10.00">/home/ugovaretto/projects</text>
<text text-anchor="start" x="960.05" y="-107.5" font-family="Helvetica,sans-Serif" font-size="10.00">/uv&#45;cpp/s3client/repo/lib</text>
<text text-anchor="middle" x="1017.05" y="-96.5" font-family="Helvetica,sans-Serif" font-size="10.00">/src/download&#45;file.cpp</text>
</a>
</g>
</g>
<!-- Node14&#45;&gt;Node24 -->
<g id="edge31" class="edge">
<title>Node14&#45;&gt;Node24</title>
<path fill="none" stroke="midnightblue" d="M1117.86,-162.77C1097.57,-152.35 1074.17,-140.34 1055.03,-130.51"/>
<polygon fill="midnightblue" stroke="midnightblue" points="1116.44,-165.97 1126.93,-167.43 1119.64,-159.75 1116.44,-165.97"/>
</g>
<!-- Node25 -->
<g id="node25" class="node">
<title>Node25</title>
<g id="a_node25"><a xlink:href="upload-file_8cpp_source.html" target="_top" xlink:title=" ">
<polygon fill="none" stroke="black" points="1100.05,-89.5 1100.05,-130.5 1230.05,-130.5 1230.05,-89.5 1100.05,-89.5"/>
<text text-anchor="start" x="1108.05" y="-118.5" font-family="Helvetica,sans-Serif" font-size="10.00">/home/ugovaretto/projects</text>
<text text-anchor="start" x="1108.05" y="-107.5" font-family="Helvetica,sans-Serif" font-size="10.00">/uv&#45;cpp/s3client/repo/lib</text>
<text text-anchor="middle" x="1165.05" y="-96.5" font-family="Helvetica,sans-Serif" font-size="10.00">/src/upload&#45;file.cpp</text>
</a>
</g>
</g>
<!-- Node14&#45;&gt;Node25 -->
<g id="edge32" class="edge">
<title>Node14&#45;&gt;Node25</title>
<path fill="none" stroke="midnightblue" d="M1165.05,-157.3C1165.05,-148.3 1165.05,-138.65 1165.05,-130.51"/>
<polygon fill="midnightblue" stroke="midnightblue" points="1161.55,-157.43 1165.05,-167.43 1168.55,-157.43 1161.55,-157.43"/>
</g>
<!-- Node26 -->
<g id="node26" class="node">
<title>Node26</title>
<g id="a_node26"><a xlink:href="test_2utility_8h_source.html" target="_top" xlink:title=" ">
<polygon fill="none" stroke="black" points="1286.05,-89.5 1286.05,-130.5 1416.05,-130.5 1416.05,-89.5 1286.05,-89.5"/>
<text text-anchor="start" x="1294.05" y="-118.5" font-family="Helvetica,sans-Serif" font-size="10.00">/home/ugovaretto/projects</text>
<text text-anchor="start" x="1294.05" y="-107.5" font-family="Helvetica,sans-Serif" font-size="10.00">/uv&#45;cpp/s3client/repo/test</text>
<text text-anchor="middle" x="1351.05" y="-96.5" font-family="Helvetica,sans-Serif" font-size="10.00">/utility.h</text>
</a>
</g>
</g>
<!-- Node14&#45;&gt;Node26 -->
<g id="edge33" class="edge">
<title>Node14&#45;&gt;Node26</title>
<path fill="none" stroke="midnightblue" d="M1222.29,-163.61C1248.25,-153 1278.6,-140.6 1303.31,-130.51"/>
<polygon fill="midnightblue" stroke="midnightblue" points="1220.88,-160.41 1212.95,-167.43 1223.53,-166.89 1220.88,-160.41"/>
</g>
<!-- Node26&#45;&gt;Node15 -->
<g id="edge34" class="edge">
<title>Node26&#45;&gt;Node15</title>
<path fill="none" stroke="midnightblue" d="M1275.79,-95C1263.53,-92.88 1250.95,-90.81 1239.05,-89 1111.51,-69.66 1078.03,-75.72 951.05,-53 936.79,-50.45 921.61,-47.22 907.23,-43.93"/>
<polygon fill="midnightblue" stroke="midnightblue" points="1275.54,-98.51 1286,-96.79 1276.75,-91.62 1275.54,-98.51"/>
</g>
<!-- Node26&#45;&gt;Node16 -->
<g id="edge35" class="edge">
<title>Node26&#45;&gt;Node16</title>
<path fill="none" stroke="midnightblue" d="M1275.91,-89.93C1274.61,-89.61 1273.32,-89.31 1272.05,-89 1201.15,-72.05 1182.43,-71.96 1112.05,-53 1105.21,-51.16 1098.1,-49.11 1091.04,-47"/>
<polygon fill="midnightblue" stroke="midnightblue" points="1275.44,-93.42 1285.98,-92.38 1277.1,-86.61 1275.44,-93.42"/>
</g>
<!-- Node26&#45;&gt;Node17 -->
<g id="edge36" class="edge">
<title>Node26&#45;&gt;Node17</title>
<path fill="none" stroke="midnightblue" d="M1344.87,-79.41C1343.04,-70.62 1341.05,-61.08 1339.28,-52.61"/>
<polygon fill="midnightblue" stroke="midnightblue" points="1341.46,-80.2 1346.93,-89.27 1348.32,-78.77 1341.46,-80.2"/>
</g>
<!-- Node26&#45;&gt;Node18 -->
<g id="edge37" class="edge">
<title>Node26&#45;&gt;Node18</title>
<path fill="none" stroke="midnightblue" d="M1390.93,-84.19C1410.03,-72.3 1432.58,-58.27 1450.47,-47.14"/>
<polygon fill="midnightblue" stroke="midnightblue" points="1389.07,-81.22 1382.42,-89.48 1392.76,-87.17 1389.07,-81.22"/>
</g>
<!-- Node26&#45;&gt;Node19 -->
<g id="edge38" class="edge">
<title>Node26&#45;&gt;Node19</title>
<path fill="none" stroke="midnightblue" d="M1426.14,-89.74C1465.08,-79.44 1513.31,-66.19 1556.05,-53 1562.02,-51.16 1568.24,-49.15 1574.41,-47.11"/>
<polygon fill="midnightblue" stroke="midnightblue" points="1425.23,-86.36 1416.45,-92.3 1427.01,-93.13 1425.23,-86.36"/>
</g>
<!-- Node26&#45;&gt;Node20 -->
<g id="edge40" class="edge">
<title>Node26&#45;&gt;Node20</title>
<path fill="none" stroke="midnightblue" d="M1426.37,-100.48C1498.3,-91.55 1609.43,-75.63 1704.05,-53 1711.19,-51.29 1718.63,-49.25 1725.96,-47.08"/>
<polygon fill="midnightblue" stroke="midnightblue" points="1425.55,-97.06 1416.05,-101.75 1426.4,-104.01 1425.55,-97.06"/>
</g>
<!-- Node26&#45;&gt;Node21 -->
<g id="edge41" class="edge">
<title>Node26&#45;&gt;Node21</title>
<path fill="none" stroke="midnightblue" d="M1275.62,-94.47C1263.43,-92.42 1250.91,-90.51 1239.05,-89 1030.78,-62.51 976.32,-79.46 768.05,-53 742.53,-49.76 714.64,-45.05 690.33,-40.56"/>
<polygon fill="midnightblue" stroke="midnightblue" points="1275.33,-97.97 1285.77,-96.21 1276.51,-91.07 1275.33,-97.97"/>
</g>
<!-- Node27 -->
<g id="node27" class="node">
<title>Node27</title>
<g id="a_node27"><a xlink:href="test_2utility_8cpp_source.html" target="_top" xlink:title=" ">
<polygon fill="none" stroke="black" points="1121.05,-6 1121.05,-47 1251.05,-47 1251.05,-6 1121.05,-6"/>
<text text-anchor="start" x="1129.05" y="-35" font-family="Helvetica,sans-Serif" font-size="10.00">/home/ugovaretto/projects</text>
<text text-anchor="start" x="1129.05" y="-24" font-family="Helvetica,sans-Serif" font-size="10.00">/uv&#45;cpp/s3client/repo/test</text>
<text text-anchor="middle" x="1186.05" y="-13" font-family="Helvetica,sans-Serif" font-size="10.00">/utility.cpp</text>
</a>
</g>
</g>
<!-- Node26&#45;&gt;Node27 -->
<g id="edge39" class="edge">
<title>Node26&#45;&gt;Node27</title>
<path fill="none" stroke="midnightblue" d="M1302.4,-84.97C1277.91,-72.87 1248.6,-58.4 1225.53,-47"/>
<polygon fill="midnightblue" stroke="midnightblue" points="1301.01,-88.19 1311.52,-89.48 1304.11,-81.91 1301.01,-88.19"/>
</g>
</g>
</svg>
        <g id="navigator" transform="translate(0 0)" fill="#404254">
                <rect fill="#f2f5e9" fill-opacity="0.5" stroke="#606060" stroke-width=".5" x="0" y="0" width="60" height="60"/>
                <use id="zoomplus" xlink:href="#zoomPlus" x="17" y="9" onmousedown="handleZoom(evt,'in')"/>
                <use id="zoomminus" xlink:href="#zoomMin" x="42" y="9" onmousedown="handleZoom(evt,'out')"/>
                <use id="reset" xlink:href="#resetDef" x="30" y="36" onmousedown="handleReset()"/>
                <g id="arrowUp" xlink:href="#dirArrow" transform="translate(30 24)" onmousedown="handlePan(0,-1)">
                  <use xlink:href="#rim" fill="#404040">
                        <set attributeName="fill" to="#808080" begin="arrowUp.mouseover" end="arrowUp.mouseout"/>
                  </use>
                  <path fill="none" stroke="white" stroke-width="1.5" d="M0,-3.0v7 M-2.5,-0.5L0,-3.0L2.5,-0.5"/>
                </g>
                <g id="arrowRight" xlink:href="#dirArrow" transform="rotate(90) translate(36 -43)" onmousedown="handlePan(1,0)">
                  <use xlink:href="#rim" fill="#404040">
                        <set attributeName="fill" to="#808080" begin="arrowRight.mouseover" end="arrowRight.mouseout"/>
                  </use>
                  <path fill="none" stroke="white" stroke-width="1.5" d="M0,-3.0v7 M-2.5,-0.5L0,-3.0L2.5,-0.5"/>
                </g>
                <g id="arrowDown" xlink:href="#dirArrow" transform="rotate(180) translate(-30 -48)" onmousedown="handlePan(0,1)">
                  <use xlink:href="#rim" fill="#404040">
                        <set attributeName="fill" to="#808080" begin="arrowDown.mouseover" end="arrowDown.mouseout"/>
                  </use>
                  <path fill="none" stroke="white" stroke-width="1.5" d="M0,-3.0v7 M-2.5,-0.5L0,-3.0L2.5,-0.5"/>
                </g>
                <g id="arrowLeft" xlink:href="#dirArrow" transform="rotate(270) translate(-36 17)" onmousedown="handlePan(-1,0)">
                  <use xlink:href="#rim" fill="#404040">
                        <set attributeName="fill" to="#808080" begin="arrowLeft.mouseover" end="arrowLeft.mouseout"/>
                  </use>
                  <path fill="none" stroke="white" stroke-width="1.5" d="M0,-3.0v7 M-2.5,-0.5L0,-3.0L2.5,-0.5"/>
                </g>
        </g>
        <svg viewBox="0 0 15 15" width="100%" height="30px" preserveAspectRatio="xMaxYMin meet">
         <g id="arrow_out" transform="scale(0.3 0.3)">
          <a xlink:href="aws__sign_8h__dep__incl_org.svg" target="_base">
           <rect id="button" ry="5" rx="5" y="6" x="6" height="38" width="38"
                fill="#f2f5e9" fill-opacity="0.5" stroke="#606060" stroke-width="1.0"/>
           <path id="arrow"
             d="M 11.500037,31.436501 C 11.940474,20.09759 22.043105,11.32322 32.158766,21.979434 L 37.068811,17.246167 C 37.068811,17.246167 37.088388,32 37.088388,32 L 22.160133,31.978069 C 22.160133,31.978069 26.997745,27.140456 26.997745,27.140456 C 18.528582,18.264221 13.291696,25.230495 11.500037,31.436501 z"
             style="fill:#404040;"/>
          </a>
         </g>
        </svg>
</svg>
