<?xml version="1.0" encoding="UTF-8" standalone="no"?>
<!DOCTYPE svg PUBLIC "-//W3C//DTD SVG 1.1//EN"
 "http://www.w3.org/Graphics/SVG/1.1/DTD/svg11.dtd">
<!-- Generated by graphviz version 8.0.5 (20230430.1635)
 -->
<!-- Title: /Users/ugovaretto/projects/s3client/repo/lib/include/aws_sign.h Pages: 1 -->
<svg width="537pt" height="216pt"
 viewBox="0.00 0.00 537.25 215.50" xmlns="http://www.w3.org/2000/svg" xmlns:xlink="http://www.w3.org/1999/xlink">
<g id="graph0" class="graph" transform="scale(1 1) rotate(0) translate(4 211.5)">
<title>/Users/ugovaretto/projects/s3client/repo/lib/include/aws_sign.h</title>
<!-- Node1 -->
<g id="node1" class="node">
<title>Node1</title>
<g id="a_node1"><a xlink:title="Public interface to signing URLs and HTTP headers with the S3v4 protocol standard.">
<polygon fill="#999999" stroke="#666666" points="505.12,-207.5 373.62,-207.5 373.62,-165.75 505.12,-165.75 505.12,-207.5"/>
<text text-anchor="start" x="381.62" y="-194" font-family="Helvetica,sans-Serif" font-size="10.00">/Users/ugovaretto/projects</text>
<text text-anchor="start" x="381.62" y="-182.75" font-family="Helvetica,sans-Serif" font-size="10.00">/s3client/repo/lib/include</text>
<text text-anchor="middle" x="439.38" y="-171.5" font-family="Helvetica,sans-Serif" font-size="10.00">/aws_sign.h</text>
</a>
</g>
</g>
<!-- Node2 -->
<g id="node2" class="node">
<title>Node2</title>
<g id="a_node2"><a xlink:href="common_8h.html" target="_top" xlink:title="Common definitions.">
<polygon fill="white" stroke="#666666" points="529.25,-74.5 467.5,-74.5 467.5,-55.25 529.25,-55.25 529.25,-74.5"/>
<text text-anchor="middle" x="498.38" y="-61" font-family="Helvetica,sans-Serif" font-size="10.00">common.h</text>
</a>
</g>
</g>
<!-- Node1&#45;&gt;Node2 -->
<g id="edge1" class="edge">
<title>Node1&#45;&gt;Node2</title>
<path fill="none" stroke="#63b8ff" d="M449.38,-165.31C460.52,-142.71 478.37,-106.48 489.17,-84.56"/>
<polygon fill="#63b8ff" stroke="#63b8ff" points="492.7,-86.32 493.98,-75.81 486.42,-83.23 492.7,-86.32"/>
</g>
<!-- Node4 -->
<g id="node4" class="node">
<title>Node4</title>
<g id="a_node4"><a xlink:title=" ">
<polygon fill="#e0e0e0" stroke="#999999" points="421.38,-19.25 381.38,-19.25 381.38,0 421.38,0 421.38,-19.25"/>
<text text-anchor="middle" x="401.38" y="-5.75" font-family="Helvetica,sans-Serif" font-size="10.00">string</text>
</a>
</g>
</g>
<!-- Node1&#45;&gt;Node4 -->
<g id="edge16" class="edge">
<title>Node1&#45;&gt;Node4</title>
<path fill="none" stroke="#63b8ff" d="M435.02,-165.55C427.65,-131.65 412.85,-63.48 405.59,-30.03"/>
<polygon fill="#63b8ff" stroke="#63b8ff" points="408.82,-29.44 403.28,-20.41 401.98,-30.92 408.82,-29.44"/>
</g>
<!-- Node5 -->
<g id="node5" class="node">
<title>Node5</title>
<g id="a_node5"><a xlink:href="url__utility_8h.html" target="_top" xlink:title="Internal utility functions to process and parse text and URLs and create S3 signature keys.">
<polygon fill="white" stroke="#666666" points="369.25,-129.75 307.5,-129.75 307.5,-110.5 369.25,-110.5 369.25,-129.75"/>
<text text-anchor="middle" x="338.38" y="-116.25" font-family="Helvetica,sans-Serif" font-size="10.00">url_utility.h</text>
</a>
</g>
</g>
<!-- Node1&#45;&gt;Node5 -->
<g id="edge4" class="edge">
<title>Node1&#45;&gt;Node5</title>
<path fill="none" stroke="#63b8ff" d="M407.7,-165.39C392.8,-155.88 375.35,-144.74 361.69,-136.01"/>
<polygon fill="#63b8ff" stroke="#63b8ff" points="363.81,-132.58 353.5,-130.14 360.04,-138.48 363.81,-132.58"/>
</g>
<!-- Node3 -->
<g id="node3" class="node">
<title>Node3</title>
<g id="a_node3"><a xlink:title=" ">
<polygon fill="#e0e0e0" stroke="#999999" points="494.75,-19.25 460,-19.25 460,0 494.75,0 494.75,-19.25"/>
<text text-anchor="middle" x="477.38" y="-5.75" font-family="Helvetica,sans-Serif" font-size="10.00">map</text>
</a>
</g>
</g>
<!-- Node2&#45;&gt;Node3 -->
<g id="edge2" class="edge">
<title>Node2&#45;&gt;Node3</title>
<path fill="none" stroke="#63b8ff" d="M494.91,-55.08C492.19,-48.19 488.3,-38.34 484.88,-29.66"/>
<polygon fill="#63b8ff" stroke="#63b8ff" points="487.84,-28.63 480.92,-20.61 481.33,-31.2 487.84,-28.63"/>
</g>
<!-- Node2&#45;&gt;Node4 -->
<g id="edge3" class="edge">
<title>Node2&#45;&gt;Node4</title>
<path fill="none" stroke="#63b8ff" d="M481.92,-54.84C467.01,-46.66 444.78,-34.46 427.46,-24.94"/>
<polygon fill="#63b8ff" stroke="#63b8ff" points="429.36,-21.45 418.91,-19.7 425.99,-27.58 429.36,-21.45"/>
</g>
<!-- Node5&#45;&gt;Node2 -->
<g id="edge10" class="edge">
<title>Node5&#45;&gt;Node2</title>
<path fill="none" stroke="#63b8ff" d="M365.52,-110.09C391.72,-101.37 431.62,-88.09 460.86,-78.36"/>
<polygon fill="#63b8ff" stroke="#63b8ff" points="461.72,-81.43 470.1,-74.95 459.51,-74.79 461.72,-81.43"/>
</g>
<!-- Node5&#45;&gt;Node3 -->
<g id="edge7" class="edge">
<title>Node5&#45;&gt;Node3</title>
<path fill="none" stroke="#63b8ff" d="M349.75,-110.25C373.37,-91.81 427.99,-49.17 457.54,-26.11"/>
<polygon fill="#63b8ff" stroke="#63b8ff" points="459.11,-28.54 464.84,-19.63 454.81,-23.02 459.11,-28.54"/>
</g>
<!-- Node5&#45;&gt;Node4 -->
<g id="edge8" class="edge">
<title>Node5&#45;&gt;Node4</title>
<path fill="none" stroke="#63b8ff" d="M343.53,-110.25C353.82,-92.52 377.09,-52.44 390.78,-28.88"/>
<polygon fill="#63b8ff" stroke="#63b8ff" points="394.15,-31.03 396.15,-20.63 388.1,-27.52 394.15,-31.03"/>
</g>
<!-- Node6 -->
<g id="node6" class="node">
<title>Node6</title>
<g id="a_node6"><a xlink:title=" ">
<polygon fill="#e0e0e0" stroke="#999999" points="232.25,-19.25 176.5,-19.25 176.5,0 232.25,0 232.25,-19.25"/>
<text text-anchor="middle" x="204.38" y="-5.75" font-family="Helvetica,sans-Serif" font-size="10.00">algorithm</text>
</a>
</g>
</g>
<!-- Node5&#45;&gt;Node6 -->
<g id="edge5" class="edge">
<title>Node5&#45;&gt;Node6</title>
<path fill="none" stroke="#63b8ff" d="M307.16,-117.26C277.6,-113.7 234.41,-103.51 211.38,-74.5 201.61,-62.2 200.47,-44.12 201.42,-30.32"/>
<polygon fill="#63b8ff" stroke="#63b8ff" points="204.99,-30.89 202.63,-20.57 198.03,-30.11 204.99,-30.89"/>
</g>
<!-- Node7 -->
<g id="node7" class="node">
<title>Node7</title>
<g id="a_node7"><a xlink:title=" ">
<polygon fill="#e0e0e0" stroke="#999999" points="274.12,-74.5 220.62,-74.5 220.62,-55.25 274.12,-55.25 274.12,-74.5"/>
<text text-anchor="middle" x="247.38" y="-61" font-family="Helvetica,sans-Serif" font-size="10.00">iostream</text>
</a>
</g>
</g>
<!-- Node5&#45;&gt;Node7 -->
<g id="edge6" class="edge">
<title>Node5&#45;&gt;Node7</title>
<path fill="none" stroke="#63b8ff" d="M322.94,-110.09C309.08,-101.98 288.49,-89.93 272.3,-80.46"/>
<polygon fill="#63b8ff" stroke="#63b8ff" points="274.29,-76.98 263.89,-74.95 270.75,-83.02 274.29,-76.98"/>
</g>
<!-- Node8 -->
<g id="node8" class="node">
<title>Node8</title>
<g id="a_node8"><a xlink:title=" ">
<polygon fill="#e0e0e0" stroke="#999999" points="334.88,-74.5 291.88,-74.5 291.88,-55.25 334.88,-55.25 334.88,-74.5"/>
<text text-anchor="middle" x="313.38" y="-61" font-family="Helvetica,sans-Serif" font-size="10.00">vector</text>
</a>
</g>
</g>
<!-- Node5&#45;&gt;Node8 -->
<g id="edge9" class="edge">
<title>Node5&#45;&gt;Node8</title>
<path fill="none" stroke="#63b8ff" d="M334.25,-110.33C330.97,-103.36 326.28,-93.37 322.18,-84.62"/>
<polygon fill="#63b8ff" stroke="#63b8ff" points="325.01,-83.42 317.59,-75.86 318.67,-86.4 325.01,-83.42"/>
</g>
<!-- Node9 -->
<g id="node9" class="node">
<title>Node9</title>
<g id="a_node9"><a xlink:href="lib_2include_2utility_8h.html" target="_top" xlink:title="internal utility functions">
<polygon fill="white" stroke="#666666" points="164.38,-74.5 118.38,-74.5 118.38,-55.25 164.38,-55.25 164.38,-74.5"/>
<text text-anchor="middle" x="141.38" y="-61" font-family="Helvetica,sans-Serif" font-size="10.00">utility.h</text>
</a>
</g>
</g>
<!-- Node5&#45;&gt;Node9 -->
<g id="edge11" class="edge">
<title>Node5&#45;&gt;Node9</title>
<path fill="none" stroke="#63b8ff" d="M307.16,-110.69C271.12,-100.94 212.05,-84.98 175.01,-74.97"/>
<polygon fill="#63b8ff" stroke="#63b8ff" points="176.3,-71.42 165.73,-72.19 174.47,-78.18 176.3,-71.42"/>
</g>
<!-- Node9&#45;&gt;Node4 -->
<g id="edge14" class="edge">
<title>Node9&#45;&gt;Node4</title>
<path fill="none" stroke="#63b8ff" d="M164.45,-59.15C211.23,-49.57 317.27,-27.85 370.16,-17.02"/>
<polygon fill="#63b8ff" stroke="#63b8ff" points="370.8,-20.25 379.9,-14.82 369.4,-13.4 370.8,-20.25"/>
</g>
<!-- Node9&#45;&gt;Node6 -->
<g id="edge12" class="edge">
<title>Node9&#45;&gt;Node6</title>
<path fill="none" stroke="#63b8ff" d="M152.06,-54.84C161.26,-47.07 174.74,-35.67 185.71,-26.4"/>
<polygon fill="#63b8ff" stroke="#63b8ff" points="187.47,-28.65 192.85,-19.52 182.95,-23.31 187.47,-28.65"/>
</g>
<!-- Node10 -->
<g id="node10" class="node">
<title>Node10</title>
<g id="a_node10"><a xlink:title=" ">
<polygon fill="#e0e0e0" stroke="#999999" points="158.38,-19.25 100.38,-19.25 100.38,0 158.38,0 158.38,-19.25"/>
<text text-anchor="middle" x="129.38" y="-5.75" font-family="Helvetica,sans-Serif" font-size="10.00">functional</text>
</a>
</g>
</g>
<!-- Node9&#45;&gt;Node10 -->
<g id="edge13" class="edge">
<title>Node9&#45;&gt;Node10</title>
<path fill="none" stroke="#63b8ff" d="M139.39,-55.08C137.87,-48.34 135.72,-38.77 133.8,-30.24"/>
<polygon fill="#63b8ff" stroke="#63b8ff" points="137.01,-29.6 131.4,-20.61 130.18,-31.13 137.01,-29.6"/>
</g>
<!-- Node11 -->
<g id="node11" class="node">
<title>Node11</title>
<g id="a_node11"><a xlink:title=" ">
<polygon fill="#e0e0e0" stroke="#999999" points="82.75,-19.25 0,-19.25 0,0 82.75,0 82.75,-19.25"/>
<text text-anchor="middle" x="41.38" y="-5.75" font-family="Helvetica,sans-Serif" font-size="10.00">unordered_map</text>
</a>
</g>
</g>
<!-- Node9&#45;&gt;Node11 -->
<g id="edge15" class="edge">
<title>Node9&#45;&gt;Node11</title>
<path fill="none" stroke="#63b8ff" d="M124.41,-54.84C108.97,-46.62 85.91,-34.34 68.01,-24.81"/>
<polygon fill="#63b8ff" stroke="#63b8ff" points="69.89,-21.31 59.42,-19.7 66.6,-27.49 69.89,-21.31"/>
</g>
</g>
</svg>
