<?xml version="1.0" encoding="UTF-8" standalone="no"?>
<!DOCTYPE svg PUBLIC "-//W3C//DTD SVG 1.1//EN"
 "http://www.w3.org/Graphics/SVG/1.1/DTD/svg11.dtd">
<!-- Generated by graphviz version 2.43.0 (0)
 -->
<!-- Title: /home/ugovaretto/projects/uv&#45;cpp/s3client/repo/lib/include/aws_sign.h Pages: 1 -->
<svg width="1861pt" height="373pt"
 viewBox="0.00 0.00 1861.16 373.00" xmlns="http://www.w3.org/2000/svg" xmlns:xlink="http://www.w3.org/1999/xlink">
<g id="graph0" class="graph" transform="scale(1 1) rotate(0) translate(4 369)">
<title>/home/ugovaretto/projects/uv&#45;cpp/s3client/repo/lib/include/aws_sign.h</title>
<!-- Node1 -->
<g id="node1" class="node">
<title>Node1</title>
<g id="a_node1"><a xlink:title="Public interface to signing URLs and HTTP headers with the S3v4 protocol standard.">
<polygon fill="#bfbfbf" stroke="black" points="240.16,-323.5 240.16,-364.5 370.16,-364.5 370.16,-323.5 240.16,-323.5"/>
<text text-anchor="start" x="248.16" y="-352.5" font-family="Helvetica,sans-Serif" font-size="10.00">/home/ugovaretto/projects</text>
<text text-anchor="start" x="248.16" y="-341.5" font-family="Helvetica,sans-Serif" font-size="10.00">/uv&#45;cpp/s3client/repo/lib</text>
<text text-anchor="middle" x="305.16" y="-330.5" font-family="Helvetica,sans-Serif" font-size="10.00">/include/aws_sign.h</text>
</a>
</g>
</g>
<!-- Node2 -->
<g id="node2" class="node">
<title>Node2</title>
<g id="a_node2"><a xlink:href="sign-test_8cpp_source.html" target="_top" xlink:title=" ">
<polygon fill="none" stroke="black" points="92.16,-167.5 92.16,-208.5 222.16,-208.5 222.16,-167.5 92.16,-167.5"/>
<text text-anchor="start" x="100.16" y="-196.5" font-family="Helvetica,sans-Serif" font-size="10.00">/home/ugovaretto/projects</text>
<text text-anchor="start" x="100.16" y="-185.5" font-family="Helvetica,sans-Serif" font-size="10.00">/uv&#45;cpp/s3client/repo/test</text>
<text text-anchor="middle" x="157.16" y="-174.5" font-family="Helvetica,sans-Serif" font-size="10.00">/sign&#45;test.cpp</text>
</a>
</g>
</g>
<!-- Node1&#45;&gt;Node2 -->
<g id="edge1" class="edge">
<title>Node1&#45;&gt;Node2</title>
<path fill="none" stroke="midnightblue" d="M279.35,-316.14C249.92,-285.51 202.49,-236.17 176.22,-208.83"/>
<polygon fill="midnightblue" stroke="midnightblue" points="276.97,-318.71 286.42,-323.5 282.01,-313.86 276.97,-318.71"/>
</g>
<!-- Node3 -->
<g id="node3" class="node">
<title>Node3</title>
<g id="a_node3"><a xlink:href="presign-url-test_8cpp_source.html" target="_top" xlink:title=" ">
<polygon fill="none" stroke="black" points="240.16,-167.5 240.16,-208.5 370.16,-208.5 370.16,-167.5 240.16,-167.5"/>
<text text-anchor="start" x="248.16" y="-196.5" font-family="Helvetica,sans-Serif" font-size="10.00">/home/ugovaretto/projects</text>
<text text-anchor="start" x="248.16" y="-185.5" font-family="Helvetica,sans-Serif" font-size="10.00">/uv&#45;cpp/s3client/repo/test</text>
<text text-anchor="middle" x="305.16" y="-174.5" font-family="Helvetica,sans-Serif" font-size="10.00">/presign&#45;url&#45;test.cpp</text>
</a>
</g>
</g>
<!-- Node1&#45;&gt;Node3 -->
<g id="edge2" class="edge">
<title>Node1&#45;&gt;Node3</title>
<path fill="none" stroke="midnightblue" d="M305.16,-313.36C305.16,-282.61 305.16,-235.36 305.16,-208.83"/>
<polygon fill="midnightblue" stroke="midnightblue" points="301.66,-313.5 305.16,-323.5 308.66,-313.5 301.66,-313.5"/>
</g>
<!-- Node4 -->
<g id="node4" class="node">
<title>Node4</title>
<g id="a_node4"><a xlink:href="bucket_8cpp_source.html" target="_top" xlink:title=" ">
<polygon fill="none" stroke="black" points="107.16,-89.5 107.16,-130.5 237.16,-130.5 237.16,-89.5 107.16,-89.5"/>
<text text-anchor="start" x="115.16" y="-118.5" font-family="Helvetica,sans-Serif" font-size="10.00">/home/ugovaretto/projects</text>
<text text-anchor="start" x="115.16" y="-107.5" font-family="Helvetica,sans-Serif" font-size="10.00">/uv&#45;cpp/s3client/repo/lib</text>
<text text-anchor="middle" x="172.16" y="-96.5" font-family="Helvetica,sans-Serif" font-size="10.00">/src/api/bucket.cpp</text>
</a>
</g>
</g>
<!-- Node1&#45;&gt;Node4 -->
<g id="edge3" class="edge">
<title>Node1&#45;&gt;Node4</title>
<path fill="none" stroke="midnightblue" d="M229.83,-338.51C155.62,-332.32 49.74,-318.18 24.16,-287 -9.66,-245.77 -6.15,-210.88 24.16,-167 42.9,-139.88 76.59,-125.88 107.1,-118.66"/>
<polygon fill="midnightblue" stroke="midnightblue" points="229.84,-342.02 240.08,-339.33 230.4,-335.04 229.84,-342.02"/>
</g>
<!-- Node5 -->
<g id="node5" class="node">
<title>Node5</title>
<g id="a_node5"><a xlink:href="object_8cpp_source.html" target="_top" xlink:title=" ">
<polygon fill="none" stroke="black" points="255.16,-89.5 255.16,-130.5 385.16,-130.5 385.16,-89.5 255.16,-89.5"/>
<text text-anchor="start" x="263.16" y="-118.5" font-family="Helvetica,sans-Serif" font-size="10.00">/home/ugovaretto/projects</text>
<text text-anchor="start" x="263.16" y="-107.5" font-family="Helvetica,sans-Serif" font-size="10.00">/uv&#45;cpp/s3client/repo/lib</text>
<text text-anchor="middle" x="320.16" y="-96.5" font-family="Helvetica,sans-Serif" font-size="10.00">/src/api/object.cpp</text>
</a>
</g>
</g>
<!-- Node1&#45;&gt;Node5 -->
<g id="edge4" class="edge">
<title>Node1&#45;&gt;Node5</title>
<path fill="none" stroke="midnightblue" d="M229.88,-336.75C162.98,-329.45 72.42,-314.67 50.16,-287 16.74,-245.44 16.03,-207.98 50.16,-167 78.51,-132.98 202.97,-140.79 246.16,-131 249.02,-130.35 251.93,-129.67 254.87,-128.96"/>
<polygon fill="midnightblue" stroke="midnightblue" points="229.67,-340.25 239.98,-337.82 230.4,-333.29 229.67,-340.25"/>
</g>
<!-- Node6 -->
<g id="node6" class="node">
<title>Node6</title>
<g id="a_node6"><a xlink:href="multipart__upload_8cpp_source.html" target="_top" xlink:title=" ">
<polygon fill="none" stroke="black" points="403.16,-89.5 403.16,-130.5 545.16,-130.5 545.16,-89.5 403.16,-89.5"/>
<text text-anchor="start" x="411.16" y="-118.5" font-family="Helvetica,sans-Serif" font-size="10.00">/home/ugovaretto/projects</text>
<text text-anchor="start" x="411.16" y="-107.5" font-family="Helvetica,sans-Serif" font-size="10.00">/uv&#45;cpp/s3client/repo/lib</text>
<text text-anchor="middle" x="474.16" y="-96.5" font-family="Helvetica,sans-Serif" font-size="10.00">/src/api/multipart_upload.cpp</text>
</a>
</g>
</g>
<!-- Node1&#45;&gt;Node6 -->
<g id="edge5" class="edge">
<title>Node1&#45;&gt;Node6</title>
<path fill="none" stroke="midnightblue" d="M233.61,-319.96C148.97,-289.11 26.3,-230.83 83.16,-167 129.44,-115.05 325.72,-143.46 394.16,-131 396.98,-130.49 399.84,-129.93 402.73,-129.35"/>
<polygon fill="midnightblue" stroke="midnightblue" points="232.62,-323.32 243.21,-323.4 234.98,-316.73 232.62,-323.32"/>
</g>
<!-- Node7 -->
<g id="node7" class="node">
<title>Node7</title>
<g id="a_node7"><a xlink:href="aws__sign_8cpp_source.html" target="_top" xlink:title=" ">
<polygon fill="none" stroke="black" points="633.16,-245.5 633.16,-286.5 763.16,-286.5 763.16,-245.5 633.16,-245.5"/>
<text text-anchor="start" x="641.16" y="-274.5" font-family="Helvetica,sans-Serif" font-size="10.00">/home/ugovaretto/projects</text>
<text text-anchor="start" x="641.16" y="-263.5" font-family="Helvetica,sans-Serif" font-size="10.00">/uv&#45;cpp/s3client/repo/lib</text>
<text text-anchor="middle" x="698.16" y="-252.5" font-family="Helvetica,sans-Serif" font-size="10.00">/src/aws_sign.cpp</text>
</a>
</g>
</g>
<!-- Node1&#45;&gt;Node7 -->
<g id="edge6" class="edge">
<title>Node1&#45;&gt;Node7</title>
<path fill="none" stroke="midnightblue" d="M380.35,-331.14C444.15,-320.71 537.98,-304.49 619.16,-287 623.73,-286.02 628.43,-284.95 633.15,-283.85"/>
<polygon fill="midnightblue" stroke="midnightblue" points="379.68,-327.7 370.38,-332.77 380.81,-334.61 379.68,-327.7"/>
</g>
<!-- Node8 -->
<g id="node8" class="node">
<title>Node8</title>
<g id="a_node8"><a xlink:href="s3-client_8h.html" target="_top" xlink:title="declaration of functions and data types for sending S3 requests, signing URLs and downloading and upl...">
<polygon fill="none" stroke="black" points="409.16,-245.5 409.16,-286.5 539.16,-286.5 539.16,-245.5 409.16,-245.5"/>
<text text-anchor="start" x="417.16" y="-274.5" font-family="Helvetica,sans-Serif" font-size="10.00">/home/ugovaretto/projects</text>
<text text-anchor="start" x="417.16" y="-263.5" font-family="Helvetica,sans-Serif" font-size="10.00">/uv&#45;cpp/s3client/repo/lib</text>
<text text-anchor="middle" x="474.16" y="-252.5" font-family="Helvetica,sans-Serif" font-size="10.00">/include/s3&#45;client.h</text>
</a>
</g>
</g>
<!-- Node1&#45;&gt;Node8 -->
<g id="edge7" class="edge">
<title>Node1&#45;&gt;Node8</title>
<path fill="none" stroke="midnightblue" d="M358.11,-319.19C381.49,-308.67 408.63,-296.47 430.79,-286.51"/>
<polygon fill="midnightblue" stroke="midnightblue" points="356.37,-316.13 348.68,-323.43 359.24,-322.52 356.37,-316.13"/>
</g>
<!-- Node13 -->
<g id="node13" class="node">
<title>Node13</title>
<g id="a_node13"><a xlink:href="lib_2src_2s3-client_8cpp_source.html" target="_top" xlink:title=" ">
<polygon fill="none" stroke="black" points="1247.16,-167.5 1247.16,-208.5 1377.16,-208.5 1377.16,-167.5 1247.16,-167.5"/>
<text text-anchor="start" x="1255.16" y="-196.5" font-family="Helvetica,sans-Serif" font-size="10.00">/home/ugovaretto/projects</text>
<text text-anchor="start" x="1255.16" y="-185.5" font-family="Helvetica,sans-Serif" font-size="10.00">/uv&#45;cpp/s3client/repo/lib</text>
<text text-anchor="middle" x="1312.16" y="-174.5" font-family="Helvetica,sans-Serif" font-size="10.00">/src/s3&#45;client.cpp</text>
</a>
</g>
</g>
<!-- Node1&#45;&gt;Node13 -->
<g id="edge45" class="edge">
<title>Node1&#45;&gt;Node13</title>
<path fill="none" stroke="midnightblue" d="M380.64,-339.84C439.02,-334.64 520.23,-321.23 583.16,-287 606.08,-274.54 600.43,-255.83 624.16,-245 748.51,-188.27 1103.26,-230.95 1238.16,-209 1241.05,-208.53 1243.99,-207.99 1246.95,-207.4"/>
<polygon fill="midnightblue" stroke="midnightblue" points="380.06,-336.37 370.39,-340.69 380.64,-343.35 380.06,-336.37"/>
</g>
<!-- Node14 -->
<g id="node14" class="node">
<title>Node14</title>
<g id="a_node14"><a xlink:href="s3-api_8h.html" target="_top" xlink:title="declarations of S3Api class.">
<polygon fill="none" stroke="black" points="1099.16,-167.5 1099.16,-208.5 1229.16,-208.5 1229.16,-167.5 1099.16,-167.5"/>
<text text-anchor="start" x="1107.16" y="-196.5" font-family="Helvetica,sans-Serif" font-size="10.00">/home/ugovaretto/projects</text>
<text text-anchor="start" x="1107.16" y="-185.5" font-family="Helvetica,sans-Serif" font-size="10.00">/uv&#45;cpp/s3client/repo/lib</text>
<text text-anchor="middle" x="1164.16" y="-174.5" font-family="Helvetica,sans-Serif" font-size="10.00">/include/s3&#45;api.h</text>
</a>
</g>
</g>
<!-- Node1&#45;&gt;Node14 -->
<g id="edge46" class="edge">
<title>Node1&#45;&gt;Node14</title>
<path fill="none" stroke="midnightblue" d="M380.32,-336.36C430.35,-329.44 496.18,-315.4 548.16,-287 571.61,-274.19 566.8,-255.96 591.16,-245 692.55,-199.38 980.55,-227.59 1090.16,-209 1093.05,-208.51 1095.99,-207.96 1098.94,-207.36"/>
<polygon fill="midnightblue" stroke="midnightblue" points="379.67,-332.91 370.22,-337.69 380.59,-339.85 379.67,-332.91"/>
</g>
<!-- Node8&#45;&gt;Node2 -->
<g id="edge8" class="edge">
<title>Node8&#45;&gt;Node2</title>
<path fill="none" stroke="midnightblue" d="M399.01,-248.44C350.91,-237.66 287.23,-223.03 231.16,-209 228.32,-208.29 225.42,-207.55 222.5,-206.8"/>
<polygon fill="midnightblue" stroke="midnightblue" points="398.5,-251.92 409.03,-250.68 400.03,-245.09 398.5,-251.92"/>
</g>
<!-- Node8&#45;&gt;Node3 -->
<g id="edge9" class="edge">
<title>Node8&#45;&gt;Node3</title>
<path fill="none" stroke="midnightblue" d="M421.21,-241.19C397.83,-230.67 370.69,-218.47 348.54,-208.51"/>
<polygon fill="midnightblue" stroke="midnightblue" points="420.08,-244.52 430.64,-245.43 422.96,-238.13 420.08,-244.52"/>
</g>
<!-- Node8&#45;&gt;Node4 -->
<g id="edge10" class="edge">
<title>Node8&#45;&gt;Node4</title>
<path fill="none" stroke="midnightblue" d="M443.05,-238.77C432.86,-229.69 421.71,-219.22 412.16,-209 395.96,-191.65 398.96,-180.1 379.16,-167 379.07,-166.94 297.98,-145.01 237.33,-128.61"/>
<polygon fill="midnightblue" stroke="midnightblue" points="440.79,-241.44 450.61,-245.41 445.41,-236.18 440.79,-241.44"/>
</g>
<!-- Node8&#45;&gt;Node5 -->
<g id="edge11" class="edge">
<title>Node8&#45;&gt;Node5</title>
<path fill="none" stroke="midnightblue" d="M460.61,-236.41C449.66,-215.43 432.71,-187.19 412.16,-167 397.36,-152.45 378.1,-139.99 361.03,-130.54"/>
<polygon fill="midnightblue" stroke="midnightblue" points="457.57,-238.15 465.21,-245.48 463.81,-234.98 457.57,-238.15"/>
</g>
<!-- Node8&#45;&gt;Node6 -->
<g id="edge12" class="edge">
<title>Node8&#45;&gt;Node6</title>
<path fill="none" stroke="midnightblue" d="M474.16,-235.36C474.16,-204.61 474.16,-157.36 474.16,-130.83"/>
<polygon fill="midnightblue" stroke="midnightblue" points="470.66,-235.5 474.16,-245.5 477.66,-235.5 470.66,-235.5"/>
</g>
<!-- Node9 -->
<g id="node9" class="node">
<title>Node9</title>
<g id="a_node9"><a xlink:href="parallel__download_8cpp.html" target="_top" xlink:title="Parallel object download download from S3 service.">
<polygon fill="none" stroke="black" points="502.66,-167.5 502.66,-208.5 633.66,-208.5 633.66,-167.5 502.66,-167.5"/>
<text text-anchor="start" x="510.66" y="-196.5" font-family="Helvetica,sans-Serif" font-size="10.00">/home/ugovaretto/projects</text>
<text text-anchor="start" x="510.66" y="-185.5" font-family="Helvetica,sans-Serif" font-size="10.00">/uv&#45;cpp/s3client/repo/apps</text>
<text text-anchor="middle" x="568.16" y="-174.5" font-family="Helvetica,sans-Serif" font-size="10.00">/parallel_download.cpp</text>
</a>
</g>
</g>
<!-- Node8&#45;&gt;Node9 -->
<g id="edge13" class="edge">
<title>Node8&#45;&gt;Node9</title>
<path fill="none" stroke="midnightblue" d="M506.24,-239.06C518.62,-229.06 532.54,-217.8 544.04,-208.51"/>
<polygon fill="midnightblue" stroke="midnightblue" points="503.95,-236.42 498.37,-245.43 508.35,-241.86 503.95,-236.42"/>
</g>
<!-- Node10 -->
<g id="node10" class="node">
<title>Node10</title>
<g id="a_node10"><a xlink:href="presign__url_8cpp.html" target="_top" xlink:title="Presign URL.">
<polygon fill="none" stroke="black" points="651.66,-167.5 651.66,-208.5 782.66,-208.5 782.66,-167.5 651.66,-167.5"/>
<text text-anchor="start" x="659.66" y="-196.5" font-family="Helvetica,sans-Serif" font-size="10.00">/home/ugovaretto/projects</text>
<text text-anchor="start" x="659.66" y="-185.5" font-family="Helvetica,sans-Serif" font-size="10.00">/uv&#45;cpp/s3client/repo/apps</text>
<text text-anchor="middle" x="717.16" y="-174.5" font-family="Helvetica,sans-Serif" font-size="10.00">/presign_url.cpp</text>
</a>
</g>
</g>
<!-- Node8&#45;&gt;Node10 -->
<g id="edge14" class="edge">
<title>Node8&#45;&gt;Node10</title>
<path fill="none" stroke="midnightblue" d="M546.29,-242.44C580.78,-231.66 621.67,-218.87 654.8,-208.51"/>
<polygon fill="midnightblue" stroke="midnightblue" points="545.24,-239.1 536.74,-245.43 547.33,-245.78 545.24,-239.1"/>
</g>
<!-- Node11 -->
<g id="node11" class="node">
<title>Node11</title>
<g id="a_node11"><a xlink:href="apps_2s3-client_8cpp.html" target="_top" xlink:title="Send S3v4&#45;signed requests to S3 andpoint and print raw responses.">
<polygon fill="none" stroke="black" points="800.66,-167.5 800.66,-208.5 931.66,-208.5 931.66,-167.5 800.66,-167.5"/>
<text text-anchor="start" x="808.66" y="-196.5" font-family="Helvetica,sans-Serif" font-size="10.00">/home/ugovaretto/projects</text>
<text text-anchor="start" x="808.66" y="-185.5" font-family="Helvetica,sans-Serif" font-size="10.00">/uv&#45;cpp/s3client/repo/apps</text>
<text text-anchor="middle" x="866.16" y="-174.5" font-family="Helvetica,sans-Serif" font-size="10.00">/s3&#45;client.cpp</text>
</a>
</g>
</g>
<!-- Node8&#45;&gt;Node11 -->
<g id="edge15" class="edge">
<title>Node8&#45;&gt;Node11</title>
<path fill="none" stroke="midnightblue" d="M549.39,-245.77C550.66,-245.51 551.91,-245.25 553.16,-245 658.47,-223.79 687.03,-231.05 792.16,-209 794.9,-208.43 797.68,-207.81 800.49,-207.17"/>
<polygon fill="midnightblue" stroke="midnightblue" points="548.6,-242.36 539.57,-247.91 550.09,-249.2 548.6,-242.36"/>
</g>
<!-- Node12 -->
<g id="node12" class="node">
<title>Node12</title>
<g id="a_node12"><a xlink:href="parallel__upload_8cpp.html" target="_top" xlink:title="Parallel upload to S3 service.">
<polygon fill="none" stroke="black" points="949.66,-167.5 949.66,-208.5 1080.66,-208.5 1080.66,-167.5 949.66,-167.5"/>
<text text-anchor="start" x="957.66" y="-196.5" font-family="Helvetica,sans-Serif" font-size="10.00">/home/ugovaretto/projects</text>
<text text-anchor="start" x="957.66" y="-185.5" font-family="Helvetica,sans-Serif" font-size="10.00">/uv&#45;cpp/s3client/repo/apps</text>
<text text-anchor="middle" x="1015.16" y="-174.5" font-family="Helvetica,sans-Serif" font-size="10.00">/parallel_upload.cpp</text>
</a>
</g>
</g>
<!-- Node8&#45;&gt;Node12 -->
<g id="edge16" class="edge">
<title>Node8&#45;&gt;Node12</title>
<path fill="none" stroke="midnightblue" d="M549.37,-245.67C550.64,-245.44 551.91,-245.22 553.16,-245 723.84,-215.66 770.72,-239.71 941.16,-209 943.91,-208.5 946.71,-207.96 949.53,-207.37"/>
<polygon fill="midnightblue" stroke="midnightblue" points="548.65,-242.25 539.52,-247.62 550.01,-249.12 548.65,-242.25"/>
</g>
<!-- Node8&#45;&gt;Node13 -->
<g id="edge17" class="edge">
<title>Node8&#45;&gt;Node13</title>
<path fill="none" stroke="midnightblue" d="M549.27,-250.86C563.16,-248.62 577.57,-246.54 591.16,-245 877.34,-212.68 953.83,-254.82 1238.16,-209 1241.05,-208.53 1243.99,-208 1246.95,-207.41"/>
<polygon fill="midnightblue" stroke="midnightblue" points="548.56,-247.43 539.26,-252.52 549.7,-254.34 548.56,-247.43"/>
</g>
<!-- Node8&#45;&gt;Node14 -->
<g id="edge18" class="edge">
<title>Node8&#45;&gt;Node14</title>
<path fill="none" stroke="midnightblue" d="M549.36,-245.63C550.64,-245.41 551.9,-245.2 553.16,-245 789.41,-207.49 854.23,-248.4 1090.16,-209 1093.05,-208.52 1095.99,-207.97 1098.95,-207.37"/>
<polygon fill="midnightblue" stroke="midnightblue" points="548.68,-242.2 539.5,-247.49 549.97,-249.08 548.68,-242.2"/>
</g>
<!-- Node14&#45;&gt;Node4 -->
<g id="edge24" class="edge">
<title>Node14&#45;&gt;Node4</title>
<path fill="none" stroke="midnightblue" d="M1089.01,-167.02C717.3,-111.04 613.95,-187.83 246.16,-131 243.27,-130.55 240.33,-130.04 237.36,-129.46"/>
<polygon fill="midnightblue" stroke="midnightblue" points="1088.55,-170.49 1098.96,-168.54 1089.6,-163.57 1088.55,-170.49"/>
</g>
<!-- Node14&#45;&gt;Node5 -->
<g id="edge27" class="edge">
<title>Node14&#45;&gt;Node5</title>
<path fill="none" stroke="midnightblue" d="M1088.89,-166.99C782.43,-119.62 696.77,-179.16 394.16,-131 391.27,-130.54 388.33,-130.01 385.37,-129.43"/>
<polygon fill="midnightblue" stroke="midnightblue" points="1088.53,-170.48 1098.96,-168.57 1089.62,-163.56 1088.53,-170.48"/>
</g>
<!-- Node14&#45;&gt;Node6 -->
<g id="edge29" class="edge">
<title>Node14&#45;&gt;Node6</title>
<path fill="none" stroke="midnightblue" d="M1088.77,-166.95C855.02,-129.02 789.76,-165.71 559.16,-131 554.67,-130.32 550.05,-129.53 545.42,-128.66"/>
<polygon fill="midnightblue" stroke="midnightblue" points="1088.51,-170.45 1098.95,-168.63 1089.65,-163.55 1088.51,-170.45"/>
</g>
<!-- Node15 -->
<g id="node15" class="node">
<title>Node15</title>
<g id="a_node15"><a xlink:href="object-test_8cpp_source.html" target="_top" xlink:title=" ">
<polygon fill="none" stroke="black" points="661.16,-6 661.16,-47 791.16,-47 791.16,-6 661.16,-6"/>
<text text-anchor="start" x="669.16" y="-35" font-family="Helvetica,sans-Serif" font-size="10.00">/home/ugovaretto/projects</text>
<text text-anchor="start" x="669.16" y="-24" font-family="Helvetica,sans-Serif" font-size="10.00">/uv&#45;cpp/s3client/repo/test</text>
<text text-anchor="middle" x="726.16" y="-13" font-family="Helvetica,sans-Serif" font-size="10.00">/api/object&#45;test.cpp</text>
</a>
</g>
</g>
<!-- Node14&#45;&gt;Node15 -->
<g id="edge19" class="edge">
<title>Node14&#45;&gt;Node15</title>
<path fill="none" stroke="midnightblue" d="M1088.84,-167.36C1005.97,-159.12 663.37,-166.91 630.16,-131 617.49,-117.3 621.2,-105.38 630.16,-89 640.28,-70.51 658.59,-56.76 676.53,-47"/>
<polygon fill="midnightblue" stroke="midnightblue" points="1088.57,-170.85 1098.94,-168.67 1089.47,-163.91 1088.57,-170.85"/>
</g>
<!-- Node16 -->
<g id="node16" class="node">
<title>Node16</title>
<g id="a_node16"><a xlink:href="multipart-upload-test_8cpp_source.html" target="_top" xlink:title=" ">
<polygon fill="none" stroke="black" points="811.66,-6 811.66,-47 954.66,-47 954.66,-6 811.66,-6"/>
<text text-anchor="start" x="819.66" y="-35" font-family="Helvetica,sans-Serif" font-size="10.00">/home/ugovaretto/projects</text>
<text text-anchor="start" x="819.66" y="-24" font-family="Helvetica,sans-Serif" font-size="10.00">/uv&#45;cpp/s3client/repo/test</text>
<text text-anchor="middle" x="883.16" y="-13" font-family="Helvetica,sans-Serif" font-size="10.00">/api/multipart&#45;upload&#45;test.cpp</text>
</a>
</g>
</g>
<!-- Node14&#45;&gt;Node16 -->
<g id="edge20" class="edge">
<title>Node14&#45;&gt;Node16</title>
<path fill="none" stroke="midnightblue" d="M1138.93,-159.97C1130.41,-150.8 1120.85,-140.47 1112.16,-131 1095.15,-112.44 1095.31,-102.66 1074.16,-89 1071.29,-87.14 999.88,-64.36 945.21,-47.06"/>
<polygon fill="midnightblue" stroke="midnightblue" points="1136.44,-162.43 1145.81,-167.36 1141.56,-157.66 1136.44,-162.43"/>
</g>
<!-- Node17 -->
<g id="node17" class="node">
<title>Node17</title>
<g id="a_node17"><a xlink:href="fileobject-test_8cpp_source.html" target="_top" xlink:title=" ">
<polygon fill="none" stroke="black" points="1121.16,-6 1121.16,-47 1251.16,-47 1251.16,-6 1121.16,-6"/>
<text text-anchor="start" x="1129.16" y="-35" font-family="Helvetica,sans-Serif" font-size="10.00">/home/ugovaretto/projects</text>
<text text-anchor="start" x="1129.16" y="-24" font-family="Helvetica,sans-Serif" font-size="10.00">/uv&#45;cpp/s3client/repo/test</text>
<text text-anchor="middle" x="1186.16" y="-13" font-family="Helvetica,sans-Serif" font-size="10.00">/api/fileobject&#45;test.cpp</text>
</a>
</g>
</g>
<!-- Node14&#45;&gt;Node17 -->
<g id="edge21" class="edge">
<title>Node14&#45;&gt;Node17</title>
<path fill="none" stroke="midnightblue" d="M1239.6,-166.95C1317.05,-152.2 1361.53,-188.54 1408.16,-131 1419.92,-116.5 1419.7,-103.68 1408.16,-89 1366.33,-35.77 1325.12,-72.05 1260.16,-53 1253.9,-51.16 1247.39,-49.12 1240.94,-47.01"/>
<polygon fill="midnightblue" stroke="midnightblue" points="1238.52,-163.6 1229.48,-169.14 1240,-170.45 1238.52,-163.6"/>
</g>
<!-- Node18 -->
<g id="node18" class="node">
<title>Node18</title>
<g id="a_node18"><a xlink:href="abort-multipart-upload-test_8cpp_source.html" target="_top" xlink:title=" ">
<polygon fill="none" stroke="black" points="1269.16,-0.5 1269.16,-52.5 1399.16,-52.5 1399.16,-0.5 1269.16,-0.5"/>
<text text-anchor="start" x="1277.16" y="-40.5" font-family="Helvetica,sans-Serif" font-size="10.00">/home/ugovaretto/projects</text>
<text text-anchor="start" x="1277.16" y="-29.5" font-family="Helvetica,sans-Serif" font-size="10.00">/uv&#45;cpp/s3client/repo/test</text>
<text text-anchor="start" x="1277.16" y="-18.5" font-family="Helvetica,sans-Serif" font-size="10.00">/api/abort&#45;multipart&#45;upload</text>
<text text-anchor="middle" x="1334.16" y="-7.5" font-family="Helvetica,sans-Serif" font-size="10.00">&#45;test.cpp</text>
</a>
</g>
</g>
<!-- Node14&#45;&gt;Node18 -->
<g id="edge22" class="edge">
<title>Node14&#45;&gt;Node18</title>
<path fill="none" stroke="midnightblue" d="M1239.5,-166.99C1324.84,-151.34 1373.97,-194.14 1426.16,-131 1438.06,-116.61 1434.96,-105.46 1426.16,-89 1418.1,-73.92 1404.53,-61.89 1390.25,-52.62"/>
<polygon fill="midnightblue" stroke="midnightblue" points="1238.55,-163.61 1229.47,-169.07 1239.97,-170.46 1238.55,-163.61"/>
</g>
<!-- Node19 -->
<g id="node19" class="node">
<title>Node19</title>
<g id="a_node19"><a xlink:href="parallel-file-transfer-test_8cpp_source.html" target="_top" xlink:title=" ">
<polygon fill="none" stroke="black" points="1417.16,-6 1417.16,-47 1557.16,-47 1557.16,-6 1417.16,-6"/>
<text text-anchor="start" x="1425.16" y="-35" font-family="Helvetica,sans-Serif" font-size="10.00">/home/ugovaretto/projects</text>
<text text-anchor="start" x="1425.16" y="-24" font-family="Helvetica,sans-Serif" font-size="10.00">/uv&#45;cpp/s3client/repo/test</text>
<text text-anchor="middle" x="1487.16" y="-13" font-family="Helvetica,sans-Serif" font-size="10.00">/parallel&#45;file&#45;transfer&#45;test.cpp</text>
</a>
</g>
</g>
<!-- Node14&#45;&gt;Node19 -->
<g id="edge23" class="edge">
<title>Node14&#45;&gt;Node19</title>
<path fill="none" stroke="midnightblue" d="M1239.41,-166.96C1331.39,-149.64 1373.21,-186.57 1443.16,-131 1469.3,-110.23 1480.15,-71.03 1484.48,-47.29"/>
<polygon fill="midnightblue" stroke="midnightblue" points="1238.54,-163.57 1229.45,-169.01 1239.95,-170.42 1238.54,-163.57"/>
</g>
<!-- Node20 -->
<g id="node20" class="node">
<title>Node20</title>
<g id="a_node20"><a xlink:href="xml-parse-test_8cpp_source.html" target="_top" xlink:title=" ">
<polygon fill="none" stroke="black" points="639.16,-89.5 639.16,-130.5 769.16,-130.5 769.16,-89.5 639.16,-89.5"/>
<text text-anchor="start" x="647.16" y="-118.5" font-family="Helvetica,sans-Serif" font-size="10.00">/home/ugovaretto/projects</text>
<text text-anchor="start" x="647.16" y="-107.5" font-family="Helvetica,sans-Serif" font-size="10.00">/uv&#45;cpp/s3client/repo/test</text>
<text text-anchor="middle" x="704.16" y="-96.5" font-family="Helvetica,sans-Serif" font-size="10.00">/xml&#45;parse&#45;test.cpp</text>
</a>
</g>
</g>
<!-- Node14&#45;&gt;Node20 -->
<g id="edge25" class="edge">
<title>Node14&#45;&gt;Node20</title>
<path fill="none" stroke="midnightblue" d="M1088.84,-166.9C951.25,-141.47 912.04,-156.67 778.16,-131 775.29,-130.45 772.36,-129.84 769.41,-129.2"/>
<polygon fill="midnightblue" stroke="midnightblue" points="1088.44,-170.38 1098.92,-168.8 1089.74,-163.51 1088.44,-170.38"/>
</g>
<!-- Node21 -->
<g id="node21" class="node">
<title>Node21</title>
<g id="a_node21"><a xlink:href="multipart-upload-file-test_8cpp_source.html" target="_top" xlink:title=" ">
<polygon fill="none" stroke="black" points="1575.16,-0.5 1575.16,-52.5 1705.16,-52.5 1705.16,-0.5 1575.16,-0.5"/>
<text text-anchor="start" x="1583.16" y="-40.5" font-family="Helvetica,sans-Serif" font-size="10.00">/home/ugovaretto/projects</text>
<text text-anchor="start" x="1583.16" y="-29.5" font-family="Helvetica,sans-Serif" font-size="10.00">/uv&#45;cpp/s3client/repo/test</text>
<text text-anchor="start" x="1583.16" y="-18.5" font-family="Helvetica,sans-Serif" font-size="10.00">/api/multipart&#45;upload&#45;file</text>
<text text-anchor="middle" x="1640.16" y="-7.5" font-family="Helvetica,sans-Serif" font-size="10.00">&#45;test.cpp</text>
</a>
</g>
</g>
<!-- Node14&#45;&gt;Node21 -->
<g id="edge26" class="edge">
<title>Node14&#45;&gt;Node21</title>
<path fill="none" stroke="midnightblue" d="M1239.33,-166.91C1342.68,-146.56 1375.76,-165.98 1471.16,-131 1522.52,-112.17 1575.28,-76.8 1607.88,-52.71"/>
<polygon fill="midnightblue" stroke="midnightblue" points="1238.53,-163.5 1229.44,-168.94 1239.94,-170.36 1238.53,-163.5"/>
</g>
<!-- Node22 -->
<g id="node22" class="node">
<title>Node22</title>
<g id="a_node22"><a xlink:href="bucket-test_8cpp.html" target="_top" xlink:title="bucket tests">
<polygon fill="none" stroke="black" points="510.16,-6 510.16,-47 640.16,-47 640.16,-6 510.16,-6"/>
<text text-anchor="start" x="518.16" y="-35" font-family="Helvetica,sans-Serif" font-size="10.00">/home/ugovaretto/projects</text>
<text text-anchor="start" x="518.16" y="-24" font-family="Helvetica,sans-Serif" font-size="10.00">/uv&#45;cpp/s3client/repo/test</text>
<text text-anchor="middle" x="575.16" y="-13" font-family="Helvetica,sans-Serif" font-size="10.00">/api/bucket&#45;test.cpp</text>
</a>
</g>
</g>
<!-- Node14&#45;&gt;Node22 -->
<g id="edge28" class="edge">
<title>Node14&#45;&gt;Node22</title>
<path fill="none" stroke="midnightblue" d="M1088.96,-167.15C970.34,-151.58 699.89,-191.4 617.16,-131 590.22,-111.33 580.52,-71.37 577.06,-47.26"/>
<polygon fill="midnightblue" stroke="midnightblue" points="1088.53,-170.63 1098.94,-168.66 1089.58,-163.7 1088.53,-170.63"/>
</g>
<!-- Node23 -->
<g id="node23" class="node">
<title>Node23</title>
<g id="a_node23"><a xlink:href="s3-api_8cpp_source.html" target="_top" xlink:title=" ">
<polygon fill="none" stroke="black" points="787.16,-89.5 787.16,-130.5 917.16,-130.5 917.16,-89.5 787.16,-89.5"/>
<text text-anchor="start" x="795.16" y="-118.5" font-family="Helvetica,sans-Serif" font-size="10.00">/home/ugovaretto/projects</text>
<text text-anchor="start" x="795.16" y="-107.5" font-family="Helvetica,sans-Serif" font-size="10.00">/uv&#45;cpp/s3client/repo/lib</text>
<text text-anchor="middle" x="852.16" y="-96.5" font-family="Helvetica,sans-Serif" font-size="10.00">/src/api/s3&#45;api.cpp</text>
</a>
</g>
</g>
<!-- Node14&#45;&gt;Node23 -->
<g id="edge30" class="edge">
<title>Node14&#45;&gt;Node23</title>
<path fill="none" stroke="midnightblue" d="M1088.71,-166.7C1015.94,-149.18 995.53,-147.98 926.16,-131 923.32,-130.3 920.42,-129.58 917.49,-128.84"/>
<polygon fill="midnightblue" stroke="midnightblue" points="1088.29,-170.2 1098.84,-169.16 1089.95,-163.4 1088.29,-170.2"/>
</g>
<!-- Node24 -->
<g id="node24" class="node">
<title>Node24</title>
<g id="a_node24"><a xlink:href="download-file_8cpp_source.html" target="_top" xlink:title=" ">
<polygon fill="none" stroke="black" points="935.16,-89.5 935.16,-130.5 1065.16,-130.5 1065.16,-89.5 935.16,-89.5"/>
<text text-anchor="start" x="943.16" y="-118.5" font-family="Helvetica,sans-Serif" font-size="10.00">/home/ugovaretto/projects</text>
<text text-anchor="start" x="943.16" y="-107.5" font-family="Helvetica,sans-Serif" font-size="10.00">/uv&#45;cpp/s3client/repo/lib</text>
<text text-anchor="middle" x="1000.16" y="-96.5" font-family="Helvetica,sans-Serif" font-size="10.00">/src/download&#45;file.cpp</text>
</a>
</g>
</g>
<!-- Node14&#45;&gt;Node24 -->
<g id="edge31" class="edge">
<title>Node14&#45;&gt;Node24</title>
<path fill="none" stroke="midnightblue" d="M1112.78,-163.19C1090.09,-152.67 1063.75,-140.47 1042.25,-130.51"/>
<polygon fill="midnightblue" stroke="midnightblue" points="1111.38,-166.4 1121.93,-167.43 1114.33,-160.05 1111.38,-166.4"/>
</g>
<!-- Node25 -->
<g id="node25" class="node">
<title>Node25</title>
<g id="a_node25"><a xlink:href="xml__parser_8cpp_source.html" target="_top" xlink:title=" ">
<polygon fill="none" stroke="black" points="1723.16,-6 1723.16,-47 1853.16,-47 1853.16,-6 1723.16,-6"/>
<text text-anchor="start" x="1731.16" y="-35" font-family="Helvetica,sans-Serif" font-size="10.00">/home/ugovaretto/projects</text>
<text text-anchor="start" x="1731.16" y="-24" font-family="Helvetica,sans-Serif" font-size="10.00">/uv&#45;cpp/s3client/repo/lib</text>
<text text-anchor="middle" x="1788.16" y="-13" font-family="Helvetica,sans-Serif" font-size="10.00">/src/api/xml_parser.cpp</text>
</a>
</g>
</g>
<!-- Node14&#45;&gt;Node25 -->
<g id="edge32" class="edge">
<title>Node14&#45;&gt;Node25</title>
<path fill="none" stroke="midnightblue" d="M1239.54,-167.31C1328.22,-158.07 1702.34,-162.82 1746.16,-131 1773.15,-111.4 1782.83,-71.42 1786.28,-47.29"/>
<polygon fill="midnightblue" stroke="midnightblue" points="1238.84,-163.87 1229.38,-168.64 1239.75,-170.81 1238.84,-163.87"/>
</g>
<!-- Node26 -->
<g id="node26" class="node">
<title>Node26</title>
<g id="a_node26"><a xlink:href="upload-file_8cpp_source.html" target="_top" xlink:title=" ">
<polygon fill="none" stroke="black" points="1269.16,-89.5 1269.16,-130.5 1399.16,-130.5 1399.16,-89.5 1269.16,-89.5"/>
<text text-anchor="start" x="1277.16" y="-118.5" font-family="Helvetica,sans-Serif" font-size="10.00">/home/ugovaretto/projects</text>
<text text-anchor="start" x="1277.16" y="-107.5" font-family="Helvetica,sans-Serif" font-size="10.00">/uv&#45;cpp/s3client/repo/lib</text>
<text text-anchor="middle" x="1334.16" y="-96.5" font-family="Helvetica,sans-Serif" font-size="10.00">/src/upload&#45;file.cpp</text>
</a>
</g>
</g>
<!-- Node14&#45;&gt;Node26 -->
<g id="edge33" class="edge">
<title>Node14&#45;&gt;Node26</title>
<path fill="none" stroke="midnightblue" d="M1217.11,-163.33C1240.7,-152.78 1268.15,-140.51 1290.53,-130.51"/>
<polygon fill="midnightblue" stroke="midnightblue" points="1215.64,-160.15 1207.94,-167.43 1218.5,-166.54 1215.64,-160.15"/>
</g>
<!-- Node27 -->
<g id="node27" class="node">
<title>Node27</title>
<g id="a_node27"><a xlink:href="test_2utility_8h_source.html" target="_top" xlink:title=" ">
<polygon fill="none" stroke="black" points="1121.16,-89.5 1121.16,-130.5 1251.16,-130.5 1251.16,-89.5 1121.16,-89.5"/>
<text text-anchor="start" x="1129.16" y="-118.5" font-family="Helvetica,sans-Serif" font-size="10.00">/home/ugovaretto/projects</text>
<text text-anchor="start" x="1129.16" y="-107.5" font-family="Helvetica,sans-Serif" font-size="10.00">/uv&#45;cpp/s3client/repo/test</text>
<text text-anchor="middle" x="1186.16" y="-96.5" font-family="Helvetica,sans-Serif" font-size="10.00">/utility.h</text>
</a>
</g>
</g>
<!-- Node14&#45;&gt;Node27 -->
<g id="edge34" class="edge">
<title>Node14&#45;&gt;Node27</title>
<path fill="none" stroke="midnightblue" d="M1172.68,-157.59C1175.3,-148.51 1178.13,-138.74 1180.52,-130.51"/>
<polygon fill="midnightblue" stroke="midnightblue" points="1169.25,-156.85 1169.83,-167.43 1175.97,-158.8 1169.25,-156.85"/>
</g>
<!-- Node29 -->
<g id="node29" class="node">
<title>Node29</title>
<g id="a_node29"><a xlink:href="xmlstreams_8h.html" target="_top" xlink:title="xml parser and generator.">
<polygon fill="none" stroke="black" points="1607.16,-89.5 1607.16,-130.5 1737.16,-130.5 1737.16,-89.5 1607.16,-89.5"/>
<text text-anchor="start" x="1615.16" y="-118.5" font-family="Helvetica,sans-Serif" font-size="10.00">/home/ugovaretto/projects</text>
<text text-anchor="start" x="1615.16" y="-107.5" font-family="Helvetica,sans-Serif" font-size="10.00">/uv&#45;cpp/s3client/repo/lib</text>
<text text-anchor="middle" x="1672.16" y="-96.5" font-family="Helvetica,sans-Serif" font-size="10.00">/include/xmlstreams.h</text>
</a>
</g>
</g>
<!-- Node14&#45;&gt;Node29 -->
<g id="edge43" class="edge">
<title>Node14&#45;&gt;Node29</title>
<path fill="none" stroke="midnightblue" d="M1239.45,-166.9C1382.73,-140.49 1422.61,-151.65 1563.16,-131 1577.44,-128.9 1592.71,-126.32 1607.16,-123.71"/>
<polygon fill="midnightblue" stroke="midnightblue" points="1238.59,-163.5 1229.41,-168.78 1239.88,-170.38 1238.59,-163.5"/>
</g>
<!-- Node27&#45;&gt;Node15 -->
<g id="edge36" class="edge">
<title>Node27&#45;&gt;Node15</title>
<path fill="none" stroke="midnightblue" d="M1110.89,-95.08C1098.63,-92.95 1086.06,-90.85 1074.16,-89 954.11,-70.32 921.58,-80.22 803.16,-53 795.89,-51.33 788.33,-49.26 780.91,-47.02"/>
<polygon fill="midnightblue" stroke="midnightblue" points="1110.64,-98.59 1121.1,-96.87 1111.85,-91.7 1110.64,-98.59"/>
</g>
<!-- Node27&#45;&gt;Node16 -->
<g id="edge37" class="edge">
<title>Node27&#45;&gt;Node16</title>
<path fill="none" stroke="midnightblue" d="M1111.01,-89.97C1109.72,-89.65 1108.44,-89.32 1107.16,-89 1043.62,-72.96 1027.22,-70.85 964.16,-53 957.64,-51.15 950.84,-49.15 944.08,-47.1"/>
<polygon fill="midnightblue" stroke="midnightblue" points="1110.51,-93.46 1121.07,-92.51 1112.23,-86.67 1110.51,-93.46"/>
</g>
<!-- Node27&#45;&gt;Node17 -->
<g id="edge38" class="edge">
<title>Node27&#45;&gt;Node17</title>
<path fill="none" stroke="midnightblue" d="M1186.16,-79.06C1186.16,-68.38 1186.16,-56.63 1186.16,-47.05"/>
<polygon fill="midnightblue" stroke="midnightblue" points="1182.66,-79.27 1186.16,-89.27 1189.66,-79.27 1182.66,-79.27"/>
</g>
<!-- Node27&#45;&gt;Node18 -->
<g id="edge39" class="edge">
<title>Node27&#45;&gt;Node18</title>
<path fill="none" stroke="midnightblue" d="M1230.38,-84.65C1248.77,-74.53 1270.1,-62.78 1288.62,-52.58"/>
<polygon fill="midnightblue" stroke="midnightblue" points="1228.68,-81.59 1221.61,-89.48 1232.06,-87.72 1228.68,-81.59"/>
</g>
<!-- Node27&#45;&gt;Node19 -->
<g id="edge40" class="edge">
<title>Node27&#45;&gt;Node19</title>
<path fill="none" stroke="midnightblue" d="M1261.58,-88.68C1327.46,-72.06 1346.07,-70.55 1408.16,-53 1414.68,-51.16 1421.47,-49.13 1428.21,-47.05"/>
<polygon fill="midnightblue" stroke="midnightblue" points="1260.34,-85.38 1251.51,-91.24 1262.06,-92.17 1260.34,-85.38"/>
</g>
<!-- Node27&#45;&gt;Node21 -->
<g id="edge41" class="edge">
<title>Node27&#45;&gt;Node21</title>
<path fill="none" stroke="midnightblue" d="M1261.31,-88.94C1396.46,-64 1435.79,-82.77 1566.16,-53 1569.08,-52.33 1572.04,-51.6 1575.01,-50.8"/>
<polygon fill="midnightblue" stroke="midnightblue" points="1260.59,-85.51 1251.41,-90.81 1261.89,-92.39 1260.59,-85.51"/>
</g>
<!-- Node27&#45;&gt;Node22 -->
<g id="edge42" class="edge">
<title>Node27&#45;&gt;Node22</title>
<path fill="none" stroke="midnightblue" d="M1110.73,-94.56C1098.53,-92.5 1086.02,-90.56 1074.16,-89 887.54,-64.43 836.55,-90.85 652.16,-53 644.58,-51.44 636.69,-49.38 629,-47.09"/>
<polygon fill="midnightblue" stroke="midnightblue" points="1110.43,-98.06 1120.88,-96.3 1111.62,-91.16 1110.43,-98.06"/>
</g>
<!-- Node28 -->
<g id="node28" class="node">
<title>Node28</title>
<g id="a_node28"><a xlink:href="test_2utility_8cpp_source.html" target="_top" xlink:title=" ">
<polygon fill="none" stroke="black" points="973.16,-6 973.16,-47 1103.16,-47 1103.16,-6 973.16,-6"/>
<text text-anchor="start" x="981.16" y="-35" font-family="Helvetica,sans-Serif" font-size="10.00">/home/ugovaretto/projects</text>
<text text-anchor="start" x="981.16" y="-24" font-family="Helvetica,sans-Serif" font-size="10.00">/uv&#45;cpp/s3client/repo/test</text>
<text text-anchor="middle" x="1038.16" y="-13" font-family="Helvetica,sans-Serif" font-size="10.00">/utility.cpp</text>
</a>
</g>
</g>
<!-- Node27&#45;&gt;Node28 -->
<g id="edge35" class="edge">
<title>Node27&#45;&gt;Node28</title>
<path fill="none" stroke="midnightblue" d="M1141.94,-84.65C1120.1,-72.62 1094.09,-58.3 1073.58,-47"/>
<polygon fill="midnightblue" stroke="midnightblue" points="1140.26,-87.72 1150.71,-89.48 1143.64,-81.59 1140.26,-87.72"/>
</g>
<!-- Node29&#45;&gt;Node25 -->
<g id="edge44" class="edge">
<title>Node29&#45;&gt;Node25</title>
<path fill="none" stroke="midnightblue" d="M1708.4,-83.54C1725.11,-71.8 1744.65,-58.07 1760.2,-47.14"/>
<polygon fill="midnightblue" stroke="midnightblue" points="1706.12,-80.87 1699.95,-89.48 1710.14,-86.59 1706.12,-80.87"/>
</g>
</g>
</svg>
