<?xml version="1.0" encoding="UTF-8" standalone="no"?>
<!DOCTYPE svg PUBLIC "-//W3C//DTD SVG 1.1//EN"
 "http://www.w3.org/Graphics/SVG/1.1/DTD/svg11.dtd">
<!-- Generated by graphviz version 2.43.0 (0)
 -->
<!-- Title: /home/ugovaretto/projects/uv&#45;cpp/s3client/repo/lib/include/aws_sign.h Pages: 1 -->
<svg width="541pt" height="218pt"
 viewBox="0.00 0.00 540.50 218.00" xmlns="http://www.w3.org/2000/svg" xmlns:xlink="http://www.w3.org/1999/xlink">
<g id="graph0" class="graph" transform="scale(1 1) rotate(0) translate(4 214)">
<title>/home/ugovaretto/projects/uv&#45;cpp/s3client/repo/lib/include/aws_sign.h</title>
<!-- Node1 -->
<g id="node1" class="node">
<title>Node1</title>
<g id="a_node1"><a xlink:title="Public interface to signing URLs and HTTP headers with the S3v4 protocol standard.">
<polygon fill="#bfbfbf" stroke="black" points="377.5,-168.5 377.5,-209.5 507.5,-209.5 507.5,-168.5 377.5,-168.5"/>
<text text-anchor="start" x="385.5" y="-197.5" font-family="Helvetica,sans-Serif" font-size="10.00">/home/ugovaretto/projects</text>
<text text-anchor="start" x="385.5" y="-186.5" font-family="Helvetica,sans-Serif" font-size="10.00">/uv&#45;cpp/s3client/repo/lib</text>
<text text-anchor="middle" x="442.5" y="-175.5" font-family="Helvetica,sans-Serif" font-size="10.00">/include/aws_sign.h</text>
</a>
</g>
</g>
<!-- Node2 -->
<g id="node2" class="node">
<title>Node2</title>
<g id="a_node2"><a xlink:href="common_8h.html" target="_top" xlink:title="Common definitions.">
<polygon fill="none" stroke="black" points="470.5,-56.5 470.5,-75.5 532.5,-75.5 532.5,-56.5 470.5,-56.5"/>
<text text-anchor="middle" x="501.5" y="-63.5" font-family="Helvetica,sans-Serif" font-size="10.00">common.h</text>
</a>
</g>
</g>
<!-- Node1&#45;&gt;Node2 -->
<g id="edge1" class="edge">
<title>Node1&#45;&gt;Node2</title>
<path fill="none" stroke="midnightblue" d="M452.11,-168.29C463.39,-145.17 481.92,-107.16 492.79,-84.86"/>
<polygon fill="midnightblue" stroke="midnightblue" points="496.08,-86.1 497.32,-75.57 489.79,-83.03 496.08,-86.1"/>
</g>
<!-- Node4 -->
<g id="node4" class="node">
<title>Node4</title>
<g id="a_node4"><a xlink:title=" ">
<polygon fill="none" stroke="#bfbfbf" points="384,-0.5 384,-19.5 425,-19.5 425,-0.5 384,-0.5"/>
<text text-anchor="middle" x="404.5" y="-7.5" font-family="Helvetica,sans-Serif" font-size="10.00">string</text>
</a>
</g>
</g>
<!-- Node1&#45;&gt;Node4 -->
<g id="edge16" class="edge">
<title>Node1&#45;&gt;Node4</title>
<path fill="none" stroke="midnightblue" d="M438.29,-168.38C430.89,-133.93 415.67,-63.04 408.46,-29.44"/>
<polygon fill="midnightblue" stroke="midnightblue" points="411.86,-28.63 406.34,-19.58 405.02,-30.1 411.86,-28.63"/>
</g>
<!-- Node5 -->
<g id="node5" class="node">
<title>Node5</title>
<g id="a_node5"><a xlink:href="url__utility_8h.html" target="_top" xlink:title="Internal utility functions to process and parse text and URLs and create S3 signature keys.">
<polygon fill="none" stroke="black" points="310.5,-112.5 310.5,-131.5 372.5,-131.5 372.5,-112.5 310.5,-112.5"/>
<text text-anchor="middle" x="341.5" y="-119.5" font-family="Helvetica,sans-Serif" font-size="10.00">url_utility.h</text>
</a>
</g>
</g>
<!-- Node1&#45;&gt;Node5 -->
<g id="edge4" class="edge">
<title>Node1&#45;&gt;Node5</title>
<path fill="none" stroke="midnightblue" d="M412.2,-168.5C396.56,-158.44 377.84,-146.38 363.59,-137.21"/>
<polygon fill="midnightblue" stroke="midnightblue" points="365.25,-134.12 354.94,-131.65 361.46,-140.01 365.25,-134.12"/>
</g>
<!-- Node3 -->
<g id="node3" class="node">
<title>Node3</title>
<g id="a_node3"><a xlink:title=" ">
<polygon fill="none" stroke="#bfbfbf" points="463,-0.5 463,-19.5 498,-19.5 498,-0.5 463,-0.5"/>
<text text-anchor="middle" x="480.5" y="-7.5" font-family="Helvetica,sans-Serif" font-size="10.00">map</text>
</a>
</g>
</g>
<!-- Node2&#45;&gt;Node3 -->
<g id="edge2" class="edge">
<title>Node2&#45;&gt;Node3</title>
<path fill="none" stroke="midnightblue" d="M498.03,-56.08C495.19,-48.77 491.07,-38.18 487.54,-29.1"/>
<polygon fill="midnightblue" stroke="midnightblue" points="490.79,-27.8 483.9,-19.75 484.27,-30.34 490.79,-27.8"/>
</g>
<!-- Node2&#45;&gt;Node4 -->
<g id="edge3" class="edge">
<title>Node2&#45;&gt;Node4</title>
<path fill="none" stroke="midnightblue" d="M485.92,-56.32C470.5,-47.74 446.69,-34.49 428.79,-24.52"/>
<polygon fill="midnightblue" stroke="midnightblue" points="430.49,-21.46 420.05,-19.65 427.08,-27.58 430.49,-21.46"/>
</g>
<!-- Node5&#45;&gt;Node2 -->
<g id="edge10" class="edge">
<title>Node5&#45;&gt;Node2</title>
<path fill="none" stroke="midnightblue" d="M366.85,-112.44C393.77,-103.36 436.5,-88.94 466.59,-78.78"/>
<polygon fill="midnightblue" stroke="midnightblue" points="467.91,-82.03 476.27,-75.52 465.67,-75.4 467.91,-82.03"/>
</g>
<!-- Node5&#45;&gt;Node3 -->
<g id="edge7" class="edge">
<title>Node5&#45;&gt;Node3</title>
<path fill="none" stroke="midnightblue" d="M352.41,-112.37C376.06,-93.65 432.29,-49.15 461.76,-25.83"/>
<polygon fill="midnightblue" stroke="midnightblue" points="463.97,-28.54 469.64,-19.59 459.63,-23.05 463.97,-28.54"/>
</g>
<!-- Node5&#45;&gt;Node4 -->
<g id="edge8" class="edge">
<title>Node5&#45;&gt;Node4</title>
<path fill="none" stroke="midnightblue" d="M346.44,-112.37C356.79,-94.3 380.92,-52.18 394.59,-28.31"/>
<polygon fill="midnightblue" stroke="midnightblue" points="397.65,-30.01 399.58,-19.59 391.57,-26.53 397.65,-30.01"/>
</g>
<!-- Node6 -->
<g id="node6" class="node">
<title>Node6</title>
<g id="a_node6"><a xlink:title=" ">
<polygon fill="none" stroke="#bfbfbf" points="178.5,-0.5 178.5,-19.5 234.5,-19.5 234.5,-0.5 178.5,-0.5"/>
<text text-anchor="middle" x="206.5" y="-7.5" font-family="Helvetica,sans-Serif" font-size="10.00">algorithm</text>
</a>
</g>
</g>
<!-- Node5&#45;&gt;Node6 -->
<g id="edge5" class="edge">
<title>Node5&#45;&gt;Node6</title>
<path fill="none" stroke="midnightblue" d="M310.31,-119.16C280.5,-115.61 236.76,-105.36 213.5,-76 203.27,-63.08 202.39,-43.91 203.55,-29.73"/>
<polygon fill="midnightblue" stroke="midnightblue" points="207.04,-30 204.77,-19.65 200.09,-29.15 207.04,-30"/>
</g>
<!-- Node7 -->
<g id="node7" class="node">
<title>Node7</title>
<g id="a_node7"><a xlink:title=" ">
<polygon fill="none" stroke="#bfbfbf" points="222.5,-56.5 222.5,-75.5 276.5,-75.5 276.5,-56.5 222.5,-56.5"/>
<text text-anchor="middle" x="249.5" y="-63.5" font-family="Helvetica,sans-Serif" font-size="10.00">iostream</text>
</a>
</g>
</g>
<!-- Node5&#45;&gt;Node7 -->
<g id="edge6" class="edge">
<title>Node5&#45;&gt;Node7</title>
<path fill="none" stroke="midnightblue" d="M326.72,-112.32C312.23,-103.82 289.93,-90.73 273.01,-80.8"/>
<polygon fill="midnightblue" stroke="midnightblue" points="274.64,-77.7 264.24,-75.65 271.1,-83.74 274.64,-77.7"/>
</g>
<!-- Node8 -->
<g id="node8" class="node">
<title>Node8</title>
<g id="a_node8"><a xlink:title=" ">
<polygon fill="none" stroke="#bfbfbf" points="294.5,-56.5 294.5,-75.5 338.5,-75.5 338.5,-56.5 294.5,-56.5"/>
<text text-anchor="middle" x="316.5" y="-63.5" font-family="Helvetica,sans-Serif" font-size="10.00">vector</text>
</a>
</g>
</g>
<!-- Node5&#45;&gt;Node8 -->
<g id="edge9" class="edge">
<title>Node5&#45;&gt;Node8</title>
<path fill="none" stroke="midnightblue" d="M337.37,-112.08C333.99,-104.77 329.08,-94.18 324.88,-85.1"/>
<polygon fill="midnightblue" stroke="midnightblue" points="327.93,-83.36 320.55,-75.75 321.58,-86.3 327.93,-83.36"/>
</g>
<!-- Node9 -->
<g id="node9" class="node">
<title>Node9</title>
<g id="a_node9"><a xlink:href="lib_2include_2utility_8h.html" target="_top" xlink:title="internal utility functions">
<polygon fill="none" stroke="black" points="119,-56.5 119,-75.5 166,-75.5 166,-56.5 119,-56.5"/>
<text text-anchor="middle" x="142.5" y="-63.5" font-family="Helvetica,sans-Serif" font-size="10.00">utility.h</text>
</a>
</g>
</g>
<!-- Node5&#45;&gt;Node9 -->
<g id="edge11" class="edge">
<title>Node5&#45;&gt;Node9</title>
<path fill="none" stroke="midnightblue" d="M310.41,-112.56C273.94,-102.67 213.7,-86.32 176.16,-76.13"/>
<polygon fill="midnightblue" stroke="midnightblue" points="176.78,-72.67 166.21,-73.43 174.94,-79.43 176.78,-72.67"/>
</g>
<!-- Node9&#45;&gt;Node4 -->
<g id="edge14" class="edge">
<title>Node9&#45;&gt;Node4</title>
<path fill="none" stroke="midnightblue" d="M166.21,-60.11C213.82,-50.3 320.99,-28.21 373.85,-17.32"/>
<polygon fill="midnightblue" stroke="midnightblue" points="374.87,-20.68 383.96,-15.23 373.46,-13.82 374.87,-20.68"/>
</g>
<!-- Node9&#45;&gt;Node6 -->
<g id="edge12" class="edge">
<title>Node9&#45;&gt;Node6</title>
<path fill="none" stroke="midnightblue" d="M152.78,-56.32C162.34,-48.26 176.78,-36.08 188.28,-26.37"/>
<polygon fill="midnightblue" stroke="midnightblue" points="190.64,-28.96 196.03,-19.83 186.13,-23.61 190.64,-28.96"/>
</g>
<!-- Node10 -->
<g id="node10" class="node">
<title>Node10</title>
<g id="a_node10"><a xlink:title=" ">
<polygon fill="none" stroke="#bfbfbf" points="101,-0.5 101,-19.5 160,-19.5 160,-0.5 101,-0.5"/>
<text text-anchor="middle" x="130.5" y="-7.5" font-family="Helvetica,sans-Serif" font-size="10.00">functional</text>
</a>
</g>
</g>
<!-- Node9&#45;&gt;Node10 -->
<g id="edge13" class="edge">
<title>Node9&#45;&gt;Node10</title>
<path fill="none" stroke="midnightblue" d="M140.52,-56.08C138.93,-48.93 136.64,-38.64 134.65,-29.69"/>
<polygon fill="midnightblue" stroke="midnightblue" points="138.03,-28.75 132.44,-19.75 131.2,-30.27 138.03,-28.75"/>
</g>
<!-- Node11 -->
<g id="node11" class="node">
<title>Node11</title>
<g id="a_node11"><a xlink:title=" ">
<polygon fill="none" stroke="#bfbfbf" points="0,-0.5 0,-19.5 83,-19.5 83,-0.5 0,-0.5"/>
<text text-anchor="middle" x="41.5" y="-7.5" font-family="Helvetica,sans-Serif" font-size="10.00">unordered_map</text>
</a>
</g>
</g>
<!-- Node9&#45;&gt;Node11 -->
<g id="edge15" class="edge">
<title>Node9&#45;&gt;Node11</title>
<path fill="none" stroke="midnightblue" d="M126.27,-56.32C110.15,-47.7 85.2,-34.36 66.54,-24.39"/>
<polygon fill="midnightblue" stroke="midnightblue" points="68.16,-21.28 57.69,-19.65 64.86,-27.46 68.16,-21.28"/>
</g>
</g>
</svg>
