<?xml version="1.0" encoding="UTF-8" standalone="no"?>
<!DOCTYPE svg PUBLIC "-//W3C//DTD SVG 1.1//EN"
 "http://www.w3.org/Graphics/SVG/1.1/DTD/svg11.dtd">
<!-- Generated by graphviz version 8.0.5 (20230430.1635)
 -->
<!-- Title: sss::api::S3Api::DeleteObject Pages: 1 -->
<!--zoomable 600 -->
<svg id="main" version="1.1" xmlns="http://www.w3.org/2000/svg" xmlns:xlink="http://www.w3.org/1999/xlink" xml:space="preserve" onload="init(evt)">
<style type="text/css"><![CDATA[
.edge:hover path { stroke: red; }
.edge:hover polygon { stroke: red; fill: red; }
]]></style>
<script type="text/javascript"><![CDATA[
var edges = document.getElementsByTagName('g');
if (edges && edges.length) {
  for (var i=0;i<edges.length;i++) {
    if (edges[i].id.substr(0,4)=='edge') {
      edges[i].setAttribute('class','edge');
    }
  }
}
]]></script>
        <defs>
                <circle id="rim" cx="0" cy="0" r="7"/>
                <circle id="rim2" cx="0" cy="0" r="3.5"/>
                <g id="zoomPlus">
                        <use xlink:href="#rim" fill="#404040">
                                <set attributeName="fill" to="#808080" begin="zoomplus.mouseover" end="zoomplus.mouseout"/>
                        </use>
                        <path d="M-4,0h8M0,-4v8" fill="none" stroke="white" stroke-width="1.5" pointer-events="none"/>
                </g>
                <g id="zoomMin">
                        <use xlink:href="#rim" fill="#404040">
                                <set attributeName="fill" to="#808080" begin="zoomminus.mouseover" end="zoomminus.mouseout"/>
                        </use>
                        <path d="M-4,0h8" fill="none" stroke="white" stroke-width="1.5" pointer-events="none"/>
                </g>
                <g id="dirArrow">
                        <path fill="none" stroke="white" stroke-width="1.5" d="M0,-3.0v7 M-2.5,-0.5L0,-3.0L2.5,-0.5"/>
                </g>
               <g id="resetDef">
                       <use xlink:href="#rim2" fill="#404040">
                               <set attributeName="fill" to="#808080" begin="reset.mouseover" end="reset.mouseout"/>
                       </use>
               </g>
        </defs>

<script type="text/javascript">
var viewWidth = 1081;
var viewHeight = 600;
var sectionId = 'dynsection-10';
</script>
<script xlink:href="svgpan.js"/>
<svg id="graph" class="graph">
<g id="viewport">
<title>sss::api::S3Api::DeleteObject</title>
<!-- Node1 -->
<g id="node1" class="node">
<title>Node1</title>
<g id="a_node1"><a xlink:title=" ">
<polygon fill="#999999" stroke="#666666" points="145.75,-161.25 0,-161.25 0,-142 145.75,-142 145.75,-161.25"/>
<text text-anchor="middle" x="72.88" y="-147.75" font-family="Helvetica,sans-Serif" font-size="10.00">sss::api::S3Api::DeleteObject</text>
</a>
</g>
</g>
<!-- Node2 -->
<g id="node2" class="node">
<title>Node2</title>
<g id="a_node2"><a xlink:href="classsss_1_1api_1_1S3Api.html#ad09581bf28c4bbbcbb71b329959ec1ae" target="_top" xlink:title=" ">
<polygon fill="white" stroke="#666666" points="293,-161.25 181.75,-161.25 181.75,-142 293,-142 293,-161.25"/>
<text text-anchor="middle" x="237.38" y="-147.75" font-family="Helvetica,sans-Serif" font-size="10.00">sss::api::S3Api::Send</text>
</a>
</g>
</g>
<!-- Node1&#45;&gt;Node2 -->
<g id="edge1" class="edge">
<title>Node1&#45;&gt;Node2</title>
<path fill="none" stroke="#63b8ff" d="M146.1,-151.62C154.25,-151.62 162.54,-151.62 170.61,-151.62"/>
<polygon fill="#63b8ff" stroke="#63b8ff" points="170.45,-155.13 180.45,-151.62 170.45,-148.13 170.45,-155.13"/>
</g>
<!-- Node3 -->
<g id="node3" class="node">
<title>Node3</title>
<g id="a_node3"><a xlink:href="classsss_1_1api_1_1S3Api.html#a840772746fbb0a79c161037da7b24a31" target="_top" xlink:title="[WebClient::Config]">
<polygon fill="white" stroke="#666666" points="465,-365.25 347.75,-365.25 347.75,-346 465,-346 465,-365.25"/>
<text text-anchor="middle" x="406.38" y="-351.75" font-family="Helvetica,sans-Serif" font-size="10.00">sss::api::S3Api::Config</text>
</a>
</g>
</g>
<!-- Node2&#45;&gt;Node3 -->
<g id="edge2" class="edge">
<title>Node2&#45;&gt;Node3</title>
<path fill="none" stroke="#63b8ff" d="M246.66,-161.74C273.21,-194.18 356.48,-295.9 390.59,-337.56"/>
<polygon fill="#63b8ff" stroke="#63b8ff" points="388.39,-339.41 397.44,-344.93 393.81,-334.97 388.39,-339.41"/>
</g>
<!-- Node12 -->
<g id="node12" class="node">
<title>Node12</title>
<g id="a_node12"><a xlink:href="classsss_1_1WebClient.html#a51ce0ecf6487b6a43072643fe4f4cb4e" target="_top" xlink:title=" ">
<polygon fill="white" stroke="#666666" points="857.38,-591.25 712.38,-591.25 712.38,-572 857.38,-572 857.38,-591.25"/>
<text text-anchor="middle" x="784.88" y="-577.75" font-family="Helvetica,sans-Serif" font-size="10.00">sss::WebClient::SetPostData</text>
</a>
</g>
</g>
<!-- Node2&#45;&gt;Node12 -->
<g id="edge39" class="edge">
<title>Node2&#45;&gt;Node12</title>
<path fill="none" stroke="#63b8ff" d="M240.89,-161.65C249.43,-194.36 279.49,-300.15 329,-374.62 395.24,-474.27 410.68,-515.41 519.75,-564.62 576.47,-590.22 647.09,-593.49 701.03,-590.9"/>
<polygon fill="#63b8ff" stroke="#63b8ff" points="701.15,-594.34 710.94,-590.28 700.75,-587.35 701.15,-594.34"/>
</g>
<!-- Node27 -->
<g id="node27" class="node">
<title>Node27</title>
<g id="a_node27"><a xlink:href="lib_2include_2utility_8h.html#ab314781bb3f053ef5325b50f3a1b74f8" target="_top" xlink:title=" ">
<polygon fill="white" stroke="#666666" points="1027.5,-140.25 953,-140.25 953,-121 1027.5,-121 1027.5,-140.25"/>
<text text-anchor="middle" x="990.25" y="-126.75" font-family="Helvetica,sans-Serif" font-size="10.00">sss::ToLower</text>
</a>
</g>
</g>
<!-- Node2&#45;&gt;Node27 -->
<g id="edge42" class="edge">
<title>Node2&#45;&gt;Node27</title>
<path fill="none" stroke="#63b8ff" d="M293.28,-150.09C434.54,-146.14 808.73,-135.67 941.61,-131.96"/>
<polygon fill="#63b8ff" stroke="#63b8ff" points="941.7,-135.43 951.6,-131.65 941.51,-128.43 941.7,-135.43"/>
</g>
<!-- Node29 -->
<g id="node29" class="node">
<title>Node29</title>
<g id="a_node29"><a xlink:href="group__ErrorHandling.html#ga781648957bfce0bbc86cbdbff94e28a6" target="_top" xlink:title=" ">
<polygon fill="white" stroke="#666666" points="451.12,-56.25 361.62,-56.25 361.62,-37 451.12,-37 451.12,-56.25"/>
<text text-anchor="middle" x="406.38" y="-42.75" font-family="Helvetica,sans-Serif" font-size="10.00">sss::HandleError</text>
</a>
</g>
</g>
<!-- Node2&#45;&gt;Node29 -->
<g id="edge36" class="edge">
<title>Node2&#45;&gt;Node29</title>
<path fill="none" stroke="#63b8ff" d="M245.91,-141.66C260.11,-123.61 292.67,-85.54 329,-65.62 335.84,-61.88 343.42,-58.86 351.08,-56.42"/>
<polygon fill="#63b8ff" stroke="#63b8ff" points="351.84,-59.56 360.5,-53.46 349.93,-52.83 351.84,-59.56"/>
</g>
<!-- Node30 -->
<g id="node30" class="node">
<title>Node30</title>
<g id="a_node30"><a xlink:href="group__Internal.html#ga2b8b08c2a4994a87377d83ccfa9a6a53" target="_top" xlink:title=" ">
<polygon fill="white" stroke="#666666" points="454.88,-19.25 357.88,-19.25 357.88,0 454.88,0 454.88,-19.25"/>
<text text-anchor="middle" x="406.38" y="-5.75" font-family="Helvetica,sans-Serif" font-size="10.00">sss::ParseParams</text>
</a>
</g>
</g>
<!-- Node2&#45;&gt;Node30 -->
<g id="edge37" class="edge">
<title>Node2&#45;&gt;Node30</title>
<path fill="none" stroke="#63b8ff" d="M242.62,-141.73C253.34,-117.98 283.89,-57.54 329,-27.62 334.59,-23.92 340.85,-20.97 347.32,-18.63"/>
<polygon fill="#63b8ff" stroke="#63b8ff" points="348.09,-21.75 356.59,-15.43 346.01,-15.06 348.09,-21.75"/>
</g>
<!-- Node31 -->
<g id="node31" class="node">
<title>Node31</title>
<g id="a_node31"><a xlink:href="classsss_1_1WebClient.html#aa1d7484f0e09242ce53b24f9648ce50e" target="_top" xlink:title=" ">
<polygon fill="white" stroke="#666666" points="646.38,-180.25 535.12,-180.25 535.12,-161 646.38,-161 646.38,-180.25"/>
<text text-anchor="middle" x="590.75" y="-166.75" font-family="Helvetica,sans-Serif" font-size="10.00">sss::WebClient::Send</text>
</a>
</g>
</g>
<!-- Node2&#45;&gt;Node31 -->
<g id="edge38" class="edge">
<title>Node2&#45;&gt;Node31</title>
<path fill="none" stroke="#63b8ff" d="M293.28,-154.59C355.62,-157.97 457.31,-163.46 523.88,-167.06"/>
<polygon fill="#63b8ff" stroke="#63b8ff" points="523.48,-170.6 533.65,-167.65 523.86,-163.61 523.48,-170.6"/>
</g>
<!-- Node32 -->
<g id="node32" class="node">
<title>Node32</title>
<g id="a_node32"><a xlink:href="classsss_1_1WebClient.html#a7dfd984b33a29686fb0355b65b620e99" target="_top" xlink:title=" ">
<polygon fill="white" stroke="#666666" points="483.75,-104.88 329,-104.88 329,-74.38 483.75,-74.38 483.75,-104.88"/>
<text text-anchor="start" x="337" y="-91.38" font-family="Helvetica,sans-Serif" font-size="10.00">sss::WebClient::SetUrlEncoded</text>
<text text-anchor="middle" x="406.38" y="-80.12" font-family="Helvetica,sans-Serif" font-size="10.00">PostData</text>
</a>
</g>
</g>
<!-- Node2&#45;&gt;Node32 -->
<g id="edge40" class="edge">
<title>Node2&#45;&gt;Node32</title>
<path fill="none" stroke="#63b8ff" d="M265.58,-141.53C289.22,-132.75 324.14,-119.78 353.17,-109.01"/>
<polygon fill="#63b8ff" stroke="#63b8ff" points="354,-112.06 362.16,-105.3 351.57,-105.5 354,-112.06"/>
</g>
<!-- Node33 -->
<g id="node33" class="node">
<title>Node33</title>
<g id="a_node33"><a xlink:href="classsss_1_1WebClient.html#ae7b1f77bd4ae44585f2d49ea493bdcc5" target="_top" xlink:title="Upload data from memory buffer.">
<polygon fill="white" stroke="#666666" points="476.62,-228.88 336.12,-228.88 336.12,-198.38 476.62,-198.38 476.62,-228.88"/>
<text text-anchor="start" x="344.12" y="-215.38" font-family="Helvetica,sans-Serif" font-size="10.00">sss::WebClient::UploadData</text>
<text text-anchor="middle" x="406.38" y="-204.12" font-family="Helvetica,sans-Serif" font-size="10.00">FromBuffer</text>
</a>
</g>
</g>
<!-- Node2&#45;&gt;Node33 -->
<g id="edge43" class="edge">
<title>Node2&#45;&gt;Node33</title>
<path fill="none" stroke="#63b8ff" d="M265.58,-161.72C289.22,-170.5 324.14,-183.47 353.17,-194.24"/>
<polygon fill="#63b8ff" stroke="#63b8ff" points="351.57,-197.75 362.16,-197.95 354,-191.19 351.57,-197.75"/>
</g>
<!-- Node4 -->
<g id="node4" class="node">
<title>Node4</title>
<g id="a_node4"><a xlink:href="classsss_1_1api_1_1S3Api.html#aea9741d60e74775ccd4de1c2c58f64fa" target="_top" xlink:title=" ">
<polygon fill="white" stroke="#666666" points="651.62,-555.25 529.88,-555.25 529.88,-536 651.62,-536 651.62,-555.25"/>
<text text-anchor="middle" x="590.75" y="-541.75" font-family="Helvetica,sans-Serif" font-size="10.00">sss::api::S3Api::Access</text>
</a>
</g>
</g>
<!-- Node3&#45;&gt;Node4 -->
<g id="edge3" class="edge">
<title>Node3&#45;&gt;Node4</title>
<path fill="none" stroke="#63b8ff" d="M411.33,-365.48C423.27,-393.96 461.7,-477.22 519.75,-521.62 524.72,-525.43 530.33,-528.65 536.16,-531.38"/>
<polygon fill="#63b8ff" stroke="#63b8ff" points="534.52,-534.9 545.1,-535.51 537.21,-528.44 534.52,-534.9"/>
</g>
<!-- Node5 -->
<g id="node5" class="node">
<title>Node5</title>
<g id="a_node5"><a xlink:href="classsss_1_1api_1_1S3Api.html#a3718745d3b940462ae9f3b78f773b3a6" target="_top" xlink:title="Clear data and reset read and write functions.">
<polygon fill="white" stroke="#666666" points="646.75,-479.25 534.75,-479.25 534.75,-460 646.75,-460 646.75,-479.25"/>
<text text-anchor="middle" x="590.75" y="-465.75" font-family="Helvetica,sans-Serif" font-size="10.00">sss::api::S3Api::Clear</text>
</a>
</g>
</g>
<!-- Node3&#45;&gt;Node5 -->
<g id="edge4" class="edge">
<title>Node3&#45;&gt;Node5</title>
<path fill="none" stroke="#63b8ff" d="M417.34,-365.64C435.95,-383.84 477.92,-422.62 519.75,-445.62 526.87,-449.54 534.75,-452.99 542.58,-455.96"/>
<polygon fill="#63b8ff" stroke="#63b8ff" points="541.17,-459.53 551.76,-459.59 543.52,-452.94 541.17,-459.53"/>
</g>
<!-- Node10 -->
<g id="node10" class="node">
<title>Node10</title>
<g id="a_node10"><a xlink:href="classsss_1_1WebClient.html#a75890c14fbe4a4bbac61718a4f3c064d" target="_top" xlink:title=" ">
<polygon fill="white" stroke="#666666" points="855.12,-552.25 714.62,-552.25 714.62,-533 855.12,-533 855.12,-552.25"/>
<text text-anchor="middle" x="784.88" y="-538.75" font-family="Helvetica,sans-Serif" font-size="10.00">sss::WebClient::SetHeaders</text>
</a>
</g>
</g>
<!-- Node3&#45;&gt;Node10 -->
<g id="edge16" class="edge">
<title>Node3&#45;&gt;Node10</title>
<path fill="none" stroke="#63b8ff" d="M412.63,-365.59C426.45,-390.74 466.45,-457.01 519.75,-488.62 550.3,-506.75 637.49,-522.37 703.41,-532.08"/>
<polygon fill="#63b8ff" stroke="#63b8ff" points="702.8,-535.67 713.2,-533.64 703.81,-528.74 702.8,-535.67"/>
</g>
<!-- Node11 -->
<g id="node11" class="node">
<title>Node11</title>
<g id="a_node11"><a xlink:href="classsss_1_1WebClient.html#a12b5db6b8c667024557ab58059d39994" target="_top" xlink:title=" ">
<polygon fill="white" stroke="#666666" points="846.88,-441.25 722.88,-441.25 722.88,-422 846.88,-422 846.88,-441.25"/>
<text text-anchor="middle" x="784.88" y="-427.75" font-family="Helvetica,sans-Serif" font-size="10.00">sss::WebClient::SetPath</text>
</a>
</g>
</g>
<!-- Node3&#45;&gt;Node11 -->
<g id="edge20" class="edge">
<title>Node3&#45;&gt;Node11</title>
<path fill="none" stroke="#63b8ff" d="M431.95,-365.71C454.45,-374.57 488.83,-387.17 519.75,-394.62 583.76,-410.06 658.15,-419.76 711.65,-425.34"/>
<polygon fill="#63b8ff" stroke="#63b8ff" points="711.09,-428.9 721.4,-426.44 711.8,-421.94 711.09,-428.9"/>
</g>
<!-- Node13 -->
<g id="node13" class="node">
<title>Node13</title>
<g id="a_node13"><a xlink:href="classsss_1_1WebClient.html#a9bf978d95b79728f6d60fc2bdb4fe546" target="_top" xlink:title=" ">
<polygon fill="white" stroke="#666666" points="870.88,-404.25 698.88,-404.25 698.88,-385 870.88,-385 870.88,-404.25"/>
<text text-anchor="middle" x="784.88" y="-390.75" font-family="Helvetica,sans-Serif" font-size="10.00">sss::WebClient::SetReqParameters</text>
</a>
</g>
</g>
<!-- Node3&#45;&gt;Node13 -->
<g id="edge21" class="edge">
<title>Node3&#45;&gt;Node13</title>
<path fill="none" stroke="#63b8ff" d="M460.96,-365.72C479.52,-368.94 500.5,-372.27 519.75,-374.62 575.25,-381.4 637.6,-386.25 687.79,-389.48"/>
<polygon fill="#63b8ff" stroke="#63b8ff" points="687.43,-393.03 697.63,-390.16 687.87,-386.04 687.43,-393.03"/>
</g>
<!-- Node14 -->
<g id="node14" class="node">
<title>Node14</title>
<g id="a_node14"><a xlink:href="classsss_1_1api_1_1S3Api.html#a25a999d87c121627166fc0a896f536c7" target="_top" xlink:title=" ">
<polygon fill="white" stroke="#666666" points="654.25,-328.25 527.25,-328.25 527.25,-309 654.25,-309 654.25,-328.25"/>
<text text-anchor="middle" x="590.75" y="-314.75" font-family="Helvetica,sans-Serif" font-size="10.00">sss::api::S3Api::Endpoint</text>
</a>
</g>
</g>
<!-- Node3&#45;&gt;Node14 -->
<g id="edge13" class="edge">
<title>Node3&#45;&gt;Node14</title>
<path fill="none" stroke="#63b8ff" d="M457.21,-345.51C479.53,-340.99 506.03,-335.61 529.46,-330.86"/>
<polygon fill="#63b8ff" stroke="#63b8ff" points="529.87,-334.14 538.98,-328.72 528.48,-327.28 529.87,-334.14"/>
</g>
<!-- Node15 -->
<g id="node15" class="node">
<title>Node15</title>
<g id="a_node15"><a xlink:href="classsss_1_1api_1_1S3Api.html#a6f518c16679e99f119966b36ac28463f" target="_top" xlink:title=" ">
<polygon fill="white" stroke="#666666" points="649.38,-291.25 532.12,-291.25 532.12,-272 649.38,-272 649.38,-291.25"/>
<text text-anchor="middle" x="590.75" y="-277.75" font-family="Helvetica,sans-Serif" font-size="10.00">sss::api::S3Api::Secret</text>
</a>
</g>
</g>
<!-- Node3&#45;&gt;Node15 -->
<g id="edge14" class="edge">
<title>Node3&#45;&gt;Node15</title>
<path fill="none" stroke="#63b8ff" d="M424.76,-345.51C446.42,-333.26 484.83,-312.65 519.75,-299.62 524.5,-297.85 529.49,-296.19 534.53,-294.65"/>
<polygon fill="#63b8ff" stroke="#63b8ff" points="535.24,-297.8 543.88,-291.67 533.3,-291.08 535.24,-297.8"/>
</g>
<!-- Node16 -->
<g id="node16" class="node">
<title>Node16</title>
<g id="a_node16"><a xlink:href="classsss_1_1WebClient.html#afc3b7a92568fbb1ea447918920ca266e" target="_top" xlink:title="Set endpoint: &#160;&lt;proto&gt;://&lt;server&gt;:&lt;port&gt;">
<polygon fill="white" stroke="#666666" points="661.75,-254.25 519.75,-254.25 519.75,-235 661.75,-235 661.75,-254.25"/>
<text text-anchor="middle" x="590.75" y="-240.75" font-family="Helvetica,sans-Serif" font-size="10.00">sss::WebClient::SetEndpoint</text>
</a>
</g>
</g>
<!-- Node3&#45;&gt;Node16 -->
<g id="edge15" class="edge">
<title>Node3&#45;&gt;Node16</title>
<path fill="none" stroke="#63b8ff" d="M416.53,-345.53C434.45,-326.41 476.21,-284.83 519.75,-262.62 522.82,-261.06 526.05,-259.62 529.35,-258.3"/>
<polygon fill="#63b8ff" stroke="#63b8ff" points="530.19,-261.36 538.43,-254.69 527.83,-254.77 530.19,-261.36"/>
</g>
<!-- Node17 -->
<g id="node17" class="node">
<title>Node17</title>
<g id="a_node17"><a xlink:href="classsss_1_1WebClient.html#af6233ffd7b294e1e7e606e838dd44e9e" target="_top" xlink:title=" ">
<polygon fill="white" stroke="#666666" points="658.75,-217.25 522.75,-217.25 522.75,-198 658.75,-198 658.75,-217.25"/>
<text text-anchor="middle" x="590.75" y="-203.75" font-family="Helvetica,sans-Serif" font-size="10.00">sss::WebClient::SetMethod</text>
</a>
</g>
</g>
<!-- Node3&#45;&gt;Node17 -->
<g id="edge17" class="edge">
<title>Node3&#45;&gt;Node17</title>
<path fill="none" stroke="#63b8ff" d="M413,-345.68C427.38,-321.2 468.02,-257.69 519.75,-225.62 521.91,-224.29 524.17,-223.05 526.49,-221.9"/>
<polygon fill="#63b8ff" stroke="#63b8ff" points="527.53,-224.83 535.35,-217.68 524.78,-218.4 527.53,-224.83"/>
</g>
<!-- Node19 -->
<g id="node19" class="node">
<title>Node19</title>
<g id="a_node19"><a xlink:href="group__Sign.html#ga3ae8e18ef70752b7369fca66c40c526b" target="_top" xlink:title="Sign headers.">
<polygon fill="white" stroke="#666666" points="637.75,-365.25 543.75,-365.25 543.75,-346 637.75,-346 637.75,-365.25"/>
<text text-anchor="middle" x="590.75" y="-351.75" font-family="Helvetica,sans-Serif" font-size="10.00">sss::SignHeaders</text>
</a>
</g>
</g>
<!-- Node3&#45;&gt;Node19 -->
<g id="edge22" class="edge">
<title>Node3&#45;&gt;Node19</title>
<path fill="none" stroke="#63b8ff" d="M465.33,-355.62C486.82,-355.62 511.17,-355.62 532.59,-355.62"/>
<polygon fill="#63b8ff" stroke="#63b8ff" points="532.5,-359.13 542.5,-355.62 532.5,-352.13 532.5,-359.13"/>
</g>
<!-- Node6 -->
<g id="node6" class="node">
<title>Node6</title>
<g id="a_node6"><a xlink:href="classsss_1_1WebClient.html#a381f5715b7a2f19a0d4414d278874bae" target="_top" xlink:title="Clear internal buffers.">
<polygon fill="white" stroke="#666666" points="856.62,-515.25 713.12,-515.25 713.12,-496 856.62,-496 856.62,-515.25"/>
<text text-anchor="middle" x="784.88" y="-501.75" font-family="Helvetica,sans-Serif" font-size="10.00">sss::WebClient::ClearBuffers</text>
</a>
</g>
</g>
<!-- Node5&#45;&gt;Node6 -->
<g id="edge5" class="edge">
<title>Node5&#45;&gt;Node6</title>
<path fill="none" stroke="#63b8ff" d="M645.78,-479.75C668.59,-484.02 695.34,-489.04 719.19,-493.5"/>
<polygon fill="#63b8ff" stroke="#63b8ff" points="718.45,-497.11 728.92,-495.51 719.73,-490.23 718.45,-497.11"/>
</g>
<!-- Node7 -->
<g id="node7" class="node">
<title>Node7</title>
<g id="a_node7"><a xlink:href="classsss_1_1WebClient.html#a96837f149bb473853a6523d096a25c56" target="_top" xlink:title="Reset read/write functions to default.">
<polygon fill="white" stroke="#666666" points="872,-478.25 697.75,-478.25 697.75,-459 872,-459 872,-478.25"/>
<text text-anchor="middle" x="784.88" y="-464.75" font-family="Helvetica,sans-Serif" font-size="10.00">sss::WebClient::ResetRWFunctions</text>
</a>
</g>
</g>
<!-- Node5&#45;&gt;Node7 -->
<g id="edge6" class="edge">
<title>Node5&#45;&gt;Node7</title>
<path fill="none" stroke="#63b8ff" d="M647.06,-469.34C659.48,-469.27 673.02,-469.2 686.59,-469.13"/>
<polygon fill="#63b8ff" stroke="#63b8ff" points="686.48,-472.63 696.46,-469.07 686.44,-465.63 686.48,-472.63"/>
</g>
<!-- Node5&#45;&gt;Node10 -->
<g id="edge9" class="edge">
<title>Node5&#45;&gt;Node10</title>
<path fill="none" stroke="#63b8ff" d="M629.59,-479.68C640.35,-483.3 651.83,-487.94 661.75,-493.62 680.07,-504.13 678.82,-515.28 697.75,-524.62 701.07,-526.26 704.53,-527.75 708.08,-529.11"/>
<polygon fill="#63b8ff" stroke="#63b8ff" points="706.67,-532.66 717.27,-532.58 708.93,-526.04 706.67,-532.66"/>
</g>
<!-- Node5&#45;&gt;Node11 -->
<g id="edge10" class="edge">
<title>Node5&#45;&gt;Node11</title>
<path fill="none" stroke="#63b8ff" d="M642.73,-459.54C667.15,-454.71 696.59,-448.89 722.25,-443.81"/>
<polygon fill="#63b8ff" stroke="#63b8ff" points="722.86,-447.06 731.99,-441.69 721.5,-440.2 722.86,-447.06"/>
</g>
<!-- Node5&#45;&gt;Node12 -->
<g id="edge11" class="edge">
<title>Node5&#45;&gt;Node12</title>
<path fill="none" stroke="#63b8ff" d="M604.68,-479.59C618.94,-490.72 642.43,-509.43 661.75,-526.62 678.42,-541.46 678.16,-550.93 697.75,-561.62 702.23,-564.07 707,-566.22 711.91,-568.1"/>
<polygon fill="#63b8ff" stroke="#63b8ff" points="710.53,-571.68 721.13,-571.62 712.81,-565.06 710.53,-571.68"/>
</g>
<!-- Node5&#45;&gt;Node13 -->
<g id="edge12" class="edge">
<title>Node5&#45;&gt;Node13</title>
<path fill="none" stroke="#63b8ff" d="M606.9,-459.66C626.9,-446.94 663.59,-425.08 697.75,-412.62 702.91,-410.74 708.32,-409.04 713.81,-407.49"/>
<polygon fill="#63b8ff" stroke="#63b8ff" points="714.62,-410.63 723.41,-404.71 712.85,-403.86 714.62,-410.63"/>
</g>
<!-- Node8 -->
<g id="node8" class="node">
<title>Node8</title>
<g id="a_node8"><a xlink:href="classsss_1_1WebClient.html#a88dbcc61562e84aa9ebf1eabf887ac28" target="_top" xlink:title=" ">
<polygon fill="white" stroke="#666666" points="1072.5,-521.25 908,-521.25 908,-502 1072.5,-502 1072.5,-521.25"/>
<text text-anchor="middle" x="990.25" y="-507.75" font-family="Helvetica,sans-Serif" font-size="10.00">sss::WebClient::SetReadFunction</text>
</a>
</g>
</g>
<!-- Node7&#45;&gt;Node8 -->
<g id="edge7" class="edge">
<title>Node7&#45;&gt;Node8</title>
<path fill="none" stroke="#63b8ff" d="M834.17,-478.68C846.5,-481.26 859.74,-484.04 872,-486.62 891.41,-490.72 912.62,-495.24 931.6,-499.29"/>
<polygon fill="#63b8ff" stroke="#63b8ff" points="930.68,-502.88 941.19,-501.55 932.14,-496.03 930.68,-502.88"/>
</g>
<!-- Node9 -->
<g id="node9" class="node">
<title>Node9</title>
<g id="a_node9"><a xlink:href="classsss_1_1WebClient.html#a002876073b3869a9b9a9d709d14f1d7e" target="_top" xlink:title=" ">
<polygon fill="white" stroke="#666666" points="1053.38,-483.88 927.12,-483.88 927.12,-453.38 1053.38,-453.38 1053.38,-483.88"/>
<text text-anchor="start" x="935.12" y="-470.38" font-family="Helvetica,sans-Serif" font-size="10.00">sss::WebClient::SetWrite</text>
<text text-anchor="middle" x="990.25" y="-459.12" font-family="Helvetica,sans-Serif" font-size="10.00">Function</text>
</a>
</g>
</g>
<!-- Node7&#45;&gt;Node9 -->
<g id="edge8" class="edge">
<title>Node7&#45;&gt;Node9</title>
<path fill="none" stroke="#63b8ff" d="M872.42,-468.62C886.98,-468.62 901.96,-468.62 916.14,-468.62"/>
<polygon fill="#63b8ff" stroke="#63b8ff" points="915.8,-472.13 925.8,-468.62 915.8,-465.13 915.8,-472.13"/>
</g>
<!-- Node18 -->
<g id="node18" class="node">
<title>Node18</title>
<g id="a_node18"><a xlink:href="lib_2include_2utility_8h.html#ae153c064d6f1beda845702f67605b20e" target="_top" xlink:title=" ">
<polygon fill="white" stroke="#666666" points="1027.5,-195.25 953,-195.25 953,-176 1027.5,-176 1027.5,-195.25"/>
<text text-anchor="middle" x="990.25" y="-181.75" font-family="Helvetica,sans-Serif" font-size="10.00">sss::ToUpper</text>
</a>
</g>
</g>
<!-- Node17&#45;&gt;Node18 -->
<g id="edge18" class="edge">
<title>Node17&#45;&gt;Node18</title>
<path fill="none" stroke="#63b8ff" d="M659.18,-203.89C739.5,-199.45 871.6,-192.14 941.86,-188.25"/>
<polygon fill="#63b8ff" stroke="#63b8ff" points="941.79,-191.7 951.58,-187.65 941.41,-184.71 941.79,-191.7"/>
</g>
<!-- Node18&#45;&gt;Node18 -->
<g id="edge19" class="edge">
<title>Node18&#45;&gt;Node18</title>
<path fill="none" stroke="#63b8ff" d="M958.1,-195.54C943.43,-204.15 954.15,-213.25 990.25,-213.25 1013.38,-213.25 1026.09,-209.51 1028.38,-204.56"/>
<polygon fill="#63b8ff" stroke="#63b8ff" points="1030.84,-202.94 1022.4,-196.54 1025.01,-206.81 1030.84,-202.94"/>
</g>
<!-- Node20 -->
<g id="node20" class="node">
<title>Node20</title>
<g id="a_node20"><a xlink:href="group__Ranges.html#ga0aa7f3b15d2ebf9b597a1b5ba38ae8ac" target="_top" xlink:title="return iterator at start position">
<polygon fill="white" stroke="#666666" points="1020.75,-435.25 959.75,-435.25 959.75,-416 1020.75,-416 1020.75,-435.25"/>
<text text-anchor="middle" x="990.25" y="-421.75" font-family="Helvetica,sans-Serif" font-size="10.00">sss::begin</text>
</a>
</g>
</g>
<!-- Node19&#45;&gt;Node20 -->
<g id="edge23" class="edge">
<title>Node19&#45;&gt;Node20</title>
<path fill="none" stroke="#63b8ff" d="M638.25,-350.08C695.63,-345.19 795.03,-343.18 872,-375.62 891.73,-383.94 888.94,-397.89 908,-407.62 920.59,-414.06 935.42,-418.2 948.95,-420.87"/>
<polygon fill="#63b8ff" stroke="#63b8ff" points="947.99,-424.43 958.45,-422.7 949.2,-417.53 947.99,-424.43"/>
</g>
<!-- Node21 -->
<g id="node21" class="node">
<title>Node21</title>
<g id="a_node21"><a xlink:href="group__Sign.html#ga904d511ec786b87644cc90dc96dd8f3f" target="_top" xlink:title="Compute signature.">
<polygon fill="white" stroke="#666666" points="844.25,-288.25 725.5,-288.25 725.5,-269 844.25,-269 844.25,-288.25"/>
<text text-anchor="middle" x="784.88" y="-274.75" font-family="Helvetica,sans-Serif" font-size="10.00">sss::ComputeSignature</text>
</a>
</g>
</g>
<!-- Node19&#45;&gt;Node21 -->
<g id="edge24" class="edge">
<title>Node19&#45;&gt;Node21</title>
<path fill="none" stroke="#63b8ff" d="M638.16,-347.12C646.29,-344.68 654.47,-341.57 661.75,-337.62 680.83,-327.28 678.89,-315.36 697.75,-304.62 706.61,-299.58 716.56,-295.41 726.46,-292.01"/>
<polygon fill="#63b8ff" stroke="#63b8ff" points="727.26,-295.11 735.72,-288.73 725.13,-288.44 727.26,-295.11"/>
</g>
<!-- Node23 -->
<g id="node23" class="node">
<title>Node23</title>
<g id="a_node23"><a xlink:href="group__Ranges.html#ga4f73053571587e79eb3db628f5e6ef99" target="_top" xlink:title="return iterator at end position">
<polygon fill="white" stroke="#666666" points="1017,-398.25 963.5,-398.25 963.5,-379 1017,-379 1017,-398.25"/>
<text text-anchor="middle" x="990.25" y="-384.75" font-family="Helvetica,sans-Serif" font-size="10.00">sss::end</text>
</a>
</g>
</g>
<!-- Node19&#45;&gt;Node23 -->
<g id="edge35" class="edge">
<title>Node19&#45;&gt;Node23</title>
<path fill="none" stroke="#63b8ff" d="M628.35,-345.56C683.05,-332.36 788.61,-314.01 872,-342.62 891.17,-349.2 889.66,-362 908,-370.62 921.86,-377.14 938.17,-381.35 952.52,-384.04"/>
<polygon fill="#63b8ff" stroke="#63b8ff" points="951.6,-387.6 962.05,-385.81 952.77,-380.7 951.6,-387.6"/>
</g>
<!-- Node21&#45;&gt;Node18 -->
<g id="edge33" class="edge">
<title>Node21&#45;&gt;Node18</title>
<path fill="none" stroke="#63b8ff" d="M807,-268.61C831.3,-257.13 872.43,-237.8 908,-221.62 923.86,-214.41 941.54,-206.56 956.35,-200.03"/>
<polygon fill="#63b8ff" stroke="#63b8ff" points="957.34,-202.98 965.08,-195.75 954.52,-196.57 957.34,-202.98"/>
</g>
<!-- Node21&#45;&gt;Node20 -->
<g id="edge25" class="edge">
<title>Node21&#45;&gt;Node20</title>
<path fill="none" stroke="#63b8ff" d="M803.46,-288.57C822.2,-299.83 851.88,-319.63 872,-342.62 893.74,-367.48 881.54,-387.86 908,-407.62 919.6,-416.29 934.57,-420.93 948.49,-423.37"/>
<polygon fill="#63b8ff" stroke="#63b8ff" points="947.96,-426.97 958.35,-424.88 948.93,-420.03 947.96,-426.97"/>
</g>
<!-- Node22 -->
<g id="node22" class="node">
<title>Node22</title>
<g id="a_node22"><a xlink:href="group__Internal.html#ga74c69f25ce04876e114759c0023b2a12" target="_top" xlink:title=" ">
<polygon fill="white" stroke="#666666" points="1053,-287.25 927.5,-287.25 927.5,-268 1053,-268 1053,-287.25"/>
<text text-anchor="middle" x="990.25" y="-273.75" font-family="Helvetica,sans-Serif" font-size="10.00">sss::CreateSignatureKey</text>
</a>
</g>
</g>
<!-- Node21&#45;&gt;Node22 -->
<g id="edge26" class="edge">
<title>Node21&#45;&gt;Node22</title>
<path fill="none" stroke="#63b8ff" d="M844.7,-278.34C866.98,-278.23 892.62,-278.1 916.06,-277.98"/>
<polygon fill="#63b8ff" stroke="#63b8ff" points="916.03,-281.48 926.01,-277.93 916,-274.48 916.03,-281.48"/>
</g>
<!-- Node21&#45;&gt;Node23 -->
<g id="edge27" class="edge">
<title>Node21&#45;&gt;Node23</title>
<path fill="none" stroke="#63b8ff" d="M841.87,-288.62C852.64,-292.37 863.27,-297.53 872,-304.62 897.93,-325.7 881.29,-350.54 908,-370.62 920.73,-380.2 937.56,-384.86 952.61,-387.07"/>
<polygon fill="#63b8ff" stroke="#63b8ff" points="951.82,-390.62 962.16,-388.28 952.62,-383.67 951.82,-390.62"/>
</g>
<!-- Node24 -->
<g id="node24" class="node">
<title>Node24</title>
<g id="a_node24"><a xlink:href="group__Internal.html#ga50353a351a93b1213dc4e5211c767d85" target="_top" xlink:title=" ">
<polygon fill="white" stroke="#666666" points="1030.12,-250.25 950.38,-250.25 950.38,-231 1030.12,-231 1030.12,-250.25"/>
<text text-anchor="middle" x="990.25" y="-236.75" font-family="Helvetica,sans-Serif" font-size="10.00">sss::GetDates</text>
</a>
</g>
</g>
<!-- Node21&#45;&gt;Node24 -->
<g id="edge28" class="edge">
<title>Node21&#45;&gt;Node24</title>
<path fill="none" stroke="#63b8ff" d="M839.84,-268.54C870.76,-262.76 909.29,-255.57 939.48,-249.92"/>
<polygon fill="#63b8ff" stroke="#63b8ff" points="940.01,-253.2 949.19,-247.92 938.72,-246.32 940.01,-253.2"/>
</g>
<!-- Node25 -->
<g id="node25" class="node">
<title>Node25</title>
<g id="a_node25"><a xlink:href="group__Internal.html#ga990dfaae4abc6bf20a28f9772b7bcd16" target="_top" xlink:title="Byte to hex string conversion.">
<polygon fill="white" stroke="#666666" points="1018.12,-361.25 962.38,-361.25 962.38,-342 1018.12,-342 1018.12,-361.25"/>
<text text-anchor="middle" x="990.25" y="-347.75" font-family="Helvetica,sans-Serif" font-size="10.00">sss::Hex</text>
</a>
</g>
</g>
<!-- Node21&#45;&gt;Node25 -->
<g id="edge29" class="edge">
<title>Node21&#45;&gt;Node25</title>
<path fill="none" stroke="#63b8ff" d="M830.98,-288.71C844.6,-292.67 859.29,-297.92 872,-304.62 890.17,-314.22 889.48,-324.72 908,-333.62 921.36,-340.05 937.06,-344.21 951.07,-346.9"/>
<polygon fill="#63b8ff" stroke="#63b8ff" points="950.43,-350.51 960.88,-348.75 951.61,-343.61 950.43,-350.51"/>
</g>
<!-- Node26 -->
<g id="node26" class="node">
<title>Node26</title>
<g id="a_node26"><a xlink:href="group__Internal.html#ga7160aa316f2c6633467b47588263c690" target="_top" xlink:title=" ">
<polygon fill="white" stroke="#666666" points="1032,-324.25 948.5,-324.25 948.5,-305 1032,-305 1032,-324.25"/>
<text text-anchor="middle" x="990.25" y="-310.75" font-family="Helvetica,sans-Serif" font-size="10.00">sss::ParseURL</text>
</a>
</g>
</g>
<!-- Node21&#45;&gt;Node26 -->
<g id="edge30" class="edge">
<title>Node21&#45;&gt;Node26</title>
<path fill="none" stroke="#63b8ff" d="M843.07,-288.75C872.76,-294 908.75,-300.38 937.6,-305.48"/>
<polygon fill="#63b8ff" stroke="#63b8ff" points="936.81,-309.07 947.27,-307.37 938.03,-302.18 936.81,-309.07"/>
</g>
<!-- Node21&#45;&gt;Node27 -->
<g id="edge31" class="edge">
<title>Node21&#45;&gt;Node27</title>
<path fill="none" stroke="#63b8ff" d="M794.5,-268.79C813.35,-247.76 860.34,-197.82 908,-166.62 921.19,-157.99 936.8,-150.51 950.79,-144.64"/>
<polygon fill="#63b8ff" stroke="#63b8ff" points="951.68,-147.65 959.64,-140.66 949.05,-141.17 951.68,-147.65"/>
</g>
<!-- Node28 -->
<g id="node28" class="node">
<title>Node28</title>
<g id="a_node28"><a xlink:href="group__Internal.html#ga0f079ace8729714b3949eabe22f228c9" target="_top" xlink:title=" ">
<polygon fill="white" stroke="#666666" points="1032,-102.25 948.5,-102.25 948.5,-83 1032,-83 1032,-102.25"/>
<text text-anchor="middle" x="990.25" y="-88.75" font-family="Helvetica,sans-Serif" font-size="10.00">sss::UrlEncode</text>
</a>
</g>
</g>
<!-- Node21&#45;&gt;Node28 -->
<g id="edge34" class="edge">
<title>Node21&#45;&gt;Node28</title>
<path fill="none" stroke="#63b8ff" d="M790.01,-268.84C802.82,-239.78 844.8,-153.45 908,-111.62 916.79,-105.81 927.14,-101.77 937.46,-98.96"/>
<polygon fill="#63b8ff" stroke="#63b8ff" points="938.2,-102.14 947.13,-96.45 936.6,-95.33 938.2,-102.14"/>
</g>
<!-- Node27&#45;&gt;Node27 -->
<g id="edge32" class="edge">
<title>Node27&#45;&gt;Node27</title>
<path fill="none" stroke="#63b8ff" d="M958.1,-140.54C943.43,-149.15 954.15,-158.25 990.25,-158.25 1013.38,-158.25 1026.09,-154.51 1028.38,-149.56"/>
<polygon fill="#63b8ff" stroke="#63b8ff" points="1030.84,-147.94 1022.4,-141.54 1025.01,-151.81 1030.84,-147.94"/>
</g>
<!-- Node32&#45;&gt;Node28 -->
<g id="edge41" class="edge">
<title>Node32&#45;&gt;Node28</title>
<path fill="none" stroke="#63b8ff" d="M484.04,-90.02C604.48,-90.64 834.86,-91.83 937.59,-92.36"/>
<polygon fill="#63b8ff" stroke="#63b8ff" points="937.28,-95.86 947.3,-92.41 937.32,-88.86 937.28,-95.86"/>
</g>
<!-- Node33&#45;&gt;Node17 -->
<g id="edge45" class="edge">
<title>Node33&#45;&gt;Node17</title>
<path fill="none" stroke="#63b8ff" d="M477.1,-211.33C488.38,-210.96 500.12,-210.57 511.59,-210.2"/>
<polygon fill="#63b8ff" stroke="#63b8ff" points="511.59,-213.67 521.47,-209.84 511.36,-206.67 511.59,-213.67"/>
</g>
<!-- Node33&#45;&gt;Node31 -->
<g id="edge44" class="edge">
<title>Node33&#45;&gt;Node31</title>
<path fill="none" stroke="#63b8ff" d="M473.99,-197.92C494.51,-193.08 516.82,-187.82 536.33,-183.22"/>
<polygon fill="#63b8ff" stroke="#63b8ff" points="536.93,-186.44 545.86,-180.74 535.32,-179.63 536.93,-186.44"/>
</g>
</g>
</svg>
        <g id="navigator" transform="translate(0 0)" fill="#404254">
                <rect fill="#f2f5e9" fill-opacity="0.5" stroke="#606060" stroke-width=".5" x="0" y="0" width="60" height="60"/>
                <use id="zoomplus" xlink:href="#zoomPlus" x="17" y="9" onmousedown="handleZoom(evt,'in')"/>
                <use id="zoomminus" xlink:href="#zoomMin" x="42" y="9" onmousedown="handleZoom(evt,'out')"/>
                <use id="reset" xlink:href="#resetDef" x="30" y="36" onmousedown="handleReset()"/>
                <g id="arrowUp" xlink:href="#dirArrow" transform="translate(30 24)" onmousedown="handlePan(0,-1)">
                  <use xlink:href="#rim" fill="#404040">
                        <set attributeName="fill" to="#808080" begin="arrowUp.mouseover" end="arrowUp.mouseout"/>
                  </use>
                  <path fill="none" stroke="white" stroke-width="1.5" d="M0,-3.0v7 M-2.5,-0.5L0,-3.0L2.5,-0.5"/>
                </g>
                <g id="arrowRight" xlink:href="#dirArrow" transform="rotate(90) translate(36 -43)" onmousedown="handlePan(1,0)">
                  <use xlink:href="#rim" fill="#404040">
                        <set attributeName="fill" to="#808080" begin="arrowRight.mouseover" end="arrowRight.mouseout"/>
                  </use>
                  <path fill="none" stroke="white" stroke-width="1.5" d="M0,-3.0v7 M-2.5,-0.5L0,-3.0L2.5,-0.5"/>
                </g>
                <g id="arrowDown" xlink:href="#dirArrow" transform="rotate(180) translate(-30 -48)" onmousedown="handlePan(0,1)">
                  <use xlink:href="#rim" fill="#404040">
                        <set attributeName="fill" to="#808080" begin="arrowDown.mouseover" end="arrowDown.mouseout"/>
                  </use>
                  <path fill="none" stroke="white" stroke-width="1.5" d="M0,-3.0v7 M-2.5,-0.5L0,-3.0L2.5,-0.5"/>
                </g>
                <g id="arrowLeft" xlink:href="#dirArrow" transform="rotate(270) translate(-36 17)" onmousedown="handlePan(-1,0)">
                  <use xlink:href="#rim" fill="#404040">
                        <set attributeName="fill" to="#808080" begin="arrowLeft.mouseover" end="arrowLeft.mouseout"/>
                  </use>
                  <path fill="none" stroke="white" stroke-width="1.5" d="M0,-3.0v7 M-2.5,-0.5L0,-3.0L2.5,-0.5"/>
                </g>
        </g>
        <svg viewBox="0 0 15 15" width="100%" height="30px" preserveAspectRatio="xMaxYMin meet">
         <g id="arrow_out" transform="scale(0.3 0.3)">
          <a xlink:href="classsss_1_1api_1_1S3Api_a14a75f15eb71fbba8639673100768b67_cgraph_org.svg" target="_base">
           <rect id="button" ry="5" rx="5" y="6" x="6" height="38" width="38"
                fill="#f2f5e9" fill-opacity="0.5" stroke="#606060" stroke-width="1.0"/>
           <path id="arrow"
             d="M 11.500037,31.436501 C 11.940474,20.09759 22.043105,11.32322 32.158766,21.979434 L 37.068811,17.246167 C 37.068811,17.246167 37.088388,32 37.088388,32 L 22.160133,31.978069 C 22.160133,31.978069 26.997745,27.140456 26.997745,27.140456 C 18.528582,18.264221 13.291696,25.230495 11.500037,31.436501 z"
             style="fill:#404040;"/>
          </a>
         </g>
        </svg>
</svg>
