<?xml version="1.0" encoding="UTF-8" standalone="no"?>
<!DOCTYPE svg PUBLIC "-//W3C//DTD SVG 1.1//EN"
 "http://www.w3.org/Graphics/SVG/1.1/DTD/svg11.dtd">
<!-- Generated by graphviz version 8.0.5 (20230430.1635)
 -->
<!-- Title: XMLOStream::operator= Pages: 1 -->
<svg width="291pt" height="64pt"
 viewBox="0.00 0.00 291.25 64.25" xmlns="http://www.w3.org/2000/svg" xmlns:xlink="http://www.w3.org/1999/xlink">
<g id="graph0" class="graph" transform="scale(1 1) rotate(0) translate(4 60.25)">
<title>XMLOStream::operator=</title>
<!-- Node1 -->
<g id="node1" class="node">
<title>Node1</title>
<g id="a_node1"><a xlink:title=" ">
<polygon fill="#999999" stroke="#666666" points="122.5,-37.25 0,-37.25 0,-18 122.5,-18 122.5,-37.25"/>
<text text-anchor="middle" x="61.25" y="-23.75" font-family="Helvetica,sans-Serif" font-size="10.00">XMLOStream::operator=</text>
</a>
</g>
</g>
<!-- Node2 -->
<g id="node2" class="node">
<title>Node2</title>
<g id="a_node2"><a xlink:href="classXMLOStream.html#a1e9dac2abc94e68209a47c96109cae37" target="_top" xlink:title=" ">
<polygon fill="white" stroke="#666666" points="283.25,-56.25 158.5,-56.25 158.5,-37 283.25,-37 283.25,-56.25"/>
<text text-anchor="middle" x="220.88" y="-42.75" font-family="Helvetica,sans-Serif" font-size="10.00">XMLOStream::InsertText</text>
</a>
</g>
</g>
<!-- Node1&#45;&gt;Node2 -->
<g id="edge1" class="edge">
<title>Node1&#45;&gt;Node2</title>
<path fill="none" stroke="#63b8ff" d="M122.74,-34.92C130.83,-35.89 139.19,-36.9 147.46,-37.9"/>
<polygon fill="#63b8ff" stroke="#63b8ff" points="146.89,-41.47 157.24,-39.2 147.73,-34.52 146.89,-41.47"/>
</g>
<!-- Node3 -->
<g id="node3" class="node">
<title>Node3</title>
<g id="a_node3"><a xlink:href="classXMLOStream.html#acd90de3b7bb6abc73df983624a26acb2" target="_top" xlink:title=" ">
<polygon fill="white" stroke="#666666" points="267.88,-19.25 173.88,-19.25 173.88,0 267.88,0 267.88,-19.25"/>
<text text-anchor="middle" x="220.88" y="-5.75" font-family="Helvetica,sans-Serif" font-size="10.00">XMLOStream::Up</text>
</a>
</g>
</g>
<!-- Node1&#45;&gt;Node3 -->
<g id="edge2" class="edge">
<title>Node1&#45;&gt;Node3</title>
<path fill="none" stroke="#63b8ff" d="M122.74,-20.72C135.9,-19.21 149.78,-17.63 162.8,-16.14"/>
<polygon fill="#63b8ff" stroke="#63b8ff" points="162.96,-19.53 172.5,-14.92 162.17,-12.58 162.96,-19.53"/>
</g>
</g>
</svg>
