<?xml version="1.0" encoding="UTF-8" standalone="no"?>
<!DOCTYPE svg PUBLIC "-//W3C//DTD SVG 1.1//EN"
 "http://www.w3.org/Graphics/SVG/1.1/DTD/svg11.dtd">
<!-- Generated by graphviz version 8.0.5 (20230430.1635)
 -->
<!-- Title: sss::api::S3Api::GetObjectAcl Pages: 1 -->
<!--zoomable 600 -->
<svg id="main" version="1.1" xmlns="http://www.w3.org/2000/svg" xmlns:xlink="http://www.w3.org/1999/xlink" xml:space="preserve" onload="init(evt)">
<style type="text/css"><![CDATA[
.edge:hover path { stroke: red; }
.edge:hover polygon { stroke: red; fill: red; }
]]></style>
<script type="text/javascript"><![CDATA[
var edges = document.getElementsByTagName('g');
if (edges && edges.length) {
  for (var i=0;i<edges.length;i++) {
    if (edges[i].id.substr(0,4)=='edge') {
      edges[i].setAttribute('class','edge');
    }
  }
}
]]></script>
        <defs>
                <circle id="rim" cx="0" cy="0" r="7"/>
                <circle id="rim2" cx="0" cy="0" r="3.5"/>
                <g id="zoomPlus">
                        <use xlink:href="#rim" fill="#404040">
                                <set attributeName="fill" to="#808080" begin="zoomplus.mouseover" end="zoomplus.mouseout"/>
                        </use>
                        <path d="M-4,0h8M0,-4v8" fill="none" stroke="white" stroke-width="1.5" pointer-events="none"/>
                </g>
                <g id="zoomMin">
                        <use xlink:href="#rim" fill="#404040">
                                <set attributeName="fill" to="#808080" begin="zoomminus.mouseover" end="zoomminus.mouseout"/>
                        </use>
                        <path d="M-4,0h8" fill="none" stroke="white" stroke-width="1.5" pointer-events="none"/>
                </g>
                <g id="dirArrow">
                        <path fill="none" stroke="white" stroke-width="1.5" d="M0,-3.0v7 M-2.5,-0.5L0,-3.0L2.5,-0.5"/>
                </g>
               <g id="resetDef">
                       <use xlink:href="#rim2" fill="#404040">
                               <set attributeName="fill" to="#808080" begin="reset.mouseover" end="reset.mouseout"/>
                       </use>
               </g>
        </defs>

<script type="text/javascript">
var viewWidth = 1082;
var viewHeight = 600;
var sectionId = 'dynsection-18';
</script>
<script xlink:href="svgpan.js"/>
<svg id="graph" class="graph">
<g id="viewport">
<title>sss::api::S3Api::GetObjectAcl</title>
<!-- Node1 -->
<g id="node1" class="node">
<title>Node1</title>
<g id="a_node1"><a xlink:title="Return bucket&#39;s Access Control List.">
<polygon fill="#999999" stroke="#666666" points="147.25,-161.25 0,-161.25 0,-142 147.25,-142 147.25,-161.25"/>
<text text-anchor="middle" x="73.62" y="-147.75" font-family="Helvetica,sans-Serif" font-size="10.00">sss::api::S3Api::GetObjectAcl</text>
</a>
</g>
</g>
<!-- Node2 -->
<g id="node2" class="node">
<title>Node2</title>
<g id="a_node2"><a xlink:href="classsss_1_1api_1_1S3Api.html#ad09581bf28c4bbbcbb71b329959ec1ae" target="_top" xlink:title="Send request.">
<polygon fill="white" stroke="#666666" points="294.5,-161.25 183.25,-161.25 183.25,-142 294.5,-142 294.5,-161.25"/>
<text text-anchor="middle" x="238.88" y="-147.75" font-family="Helvetica,sans-Serif" font-size="10.00">sss::api::S3Api::Send</text>
</a>
</g>
</g>
<!-- Node1&#45;&gt;Node2 -->
<g id="edge1" class="edge">
<title>Node1&#45;&gt;Node2</title>
<path fill="none" stroke="#63b8ff" d="M147.66,-151.62C155.83,-151.62 164.11,-151.62 172.18,-151.62"/>
<polygon fill="#63b8ff" stroke="#63b8ff" points="172.03,-155.13 182.03,-151.62 172.03,-148.13 172.03,-155.13"/>
</g>
<!-- Node3 -->
<g id="node3" class="node">
<title>Node3</title>
<g id="a_node3"><a xlink:href="classsss_1_1api_1_1S3Api.html#a840772746fbb0a79c161037da7b24a31" target="_top" xlink:title="Configure instance.">
<polygon fill="white" stroke="#666666" points="466.5,-365.25 349.25,-365.25 349.25,-346 466.5,-346 466.5,-365.25"/>
<text text-anchor="middle" x="407.88" y="-351.75" font-family="Helvetica,sans-Serif" font-size="10.00">sss::api::S3Api::Config</text>
</a>
</g>
</g>
<!-- Node2&#45;&gt;Node3 -->
<g id="edge2" class="edge">
<title>Node2&#45;&gt;Node3</title>
<path fill="none" stroke="#63b8ff" d="M248.16,-161.74C274.71,-194.18 357.98,-295.9 392.09,-337.56"/>
<polygon fill="#63b8ff" stroke="#63b8ff" points="389.89,-339.41 398.94,-344.93 395.31,-334.97 389.89,-339.41"/>
</g>
<!-- Node12 -->
<g id="node12" class="node">
<title>Node12</title>
<g id="a_node12"><a xlink:href="classsss_1_1WebClient.html#a51ce0ecf6487b6a43072643fe4f4cb4e" target="_top" xlink:title=" ">
<polygon fill="white" stroke="#666666" points="858.88,-591.25 713.88,-591.25 713.88,-572 858.88,-572 858.88,-591.25"/>
<text text-anchor="middle" x="786.38" y="-577.75" font-family="Helvetica,sans-Serif" font-size="10.00">sss::WebClient::SetPostData</text>
</a>
</g>
</g>
<!-- Node2&#45;&gt;Node12 -->
<g id="edge39" class="edge">
<title>Node2&#45;&gt;Node12</title>
<path fill="none" stroke="#63b8ff" d="M242.39,-161.65C250.93,-194.36 280.99,-300.15 330.5,-374.62 396.74,-474.27 412.18,-515.41 521.25,-564.62 577.97,-590.22 648.59,-593.49 702.53,-590.9"/>
<polygon fill="#63b8ff" stroke="#63b8ff" points="702.65,-594.34 712.44,-590.28 702.25,-587.35 702.65,-594.34"/>
</g>
<!-- Node27 -->
<g id="node27" class="node">
<title>Node27</title>
<g id="a_node27"><a xlink:href="lib_2include_2utility_8h.html#ab314781bb3f053ef5325b50f3a1b74f8" target="_top" xlink:title=" ">
<polygon fill="white" stroke="#666666" points="1029,-140.25 954.5,-140.25 954.5,-121 1029,-121 1029,-140.25"/>
<text text-anchor="middle" x="991.75" y="-126.75" font-family="Helvetica,sans-Serif" font-size="10.00">sss::ToLower</text>
</a>
</g>
</g>
<!-- Node2&#45;&gt;Node27 -->
<g id="edge42" class="edge">
<title>Node2&#45;&gt;Node27</title>
<path fill="none" stroke="#63b8ff" d="M294.78,-150.09C436.04,-146.14 810.23,-135.67 943.11,-131.96"/>
<polygon fill="#63b8ff" stroke="#63b8ff" points="943.2,-135.43 953.1,-131.65 943.01,-128.43 943.2,-135.43"/>
</g>
<!-- Node29 -->
<g id="node29" class="node">
<title>Node29</title>
<g id="a_node29"><a xlink:href="group__ErrorHandling.html#ga781648957bfce0bbc86cbdbff94e28a6" target="_top" xlink:title=" ">
<polygon fill="white" stroke="#666666" points="452.62,-56.25 363.12,-56.25 363.12,-37 452.62,-37 452.62,-56.25"/>
<text text-anchor="middle" x="407.88" y="-42.75" font-family="Helvetica,sans-Serif" font-size="10.00">sss::HandleError</text>
</a>
</g>
</g>
<!-- Node2&#45;&gt;Node29 -->
<g id="edge36" class="edge">
<title>Node2&#45;&gt;Node29</title>
<path fill="none" stroke="#63b8ff" d="M247.41,-141.66C261.61,-123.61 294.17,-85.54 330.5,-65.62 337.34,-61.88 344.92,-58.86 352.58,-56.42"/>
<polygon fill="#63b8ff" stroke="#63b8ff" points="353.34,-59.56 362,-53.46 351.43,-52.83 353.34,-59.56"/>
</g>
<!-- Node30 -->
<g id="node30" class="node">
<title>Node30</title>
<g id="a_node30"><a xlink:href="group__Internal.html#ga2b8b08c2a4994a87377d83ccfa9a6a53" target="_top" xlink:title=" ">
<polygon fill="white" stroke="#666666" points="456.38,-19.25 359.38,-19.25 359.38,0 456.38,0 456.38,-19.25"/>
<text text-anchor="middle" x="407.88" y="-5.75" font-family="Helvetica,sans-Serif" font-size="10.00">sss::ParseParams</text>
</a>
</g>
</g>
<!-- Node2&#45;&gt;Node30 -->
<g id="edge37" class="edge">
<title>Node2&#45;&gt;Node30</title>
<path fill="none" stroke="#63b8ff" d="M244.12,-141.73C254.84,-117.98 285.39,-57.54 330.5,-27.62 336.09,-23.92 342.35,-20.97 348.82,-18.63"/>
<polygon fill="#63b8ff" stroke="#63b8ff" points="349.59,-21.75 358.09,-15.43 347.51,-15.06 349.59,-21.75"/>
</g>
<!-- Node31 -->
<g id="node31" class="node">
<title>Node31</title>
<g id="a_node31"><a xlink:href="classsss_1_1WebClient.html#aa1d7484f0e09242ce53b24f9648ce50e" target="_top" xlink:title=" ">
<polygon fill="white" stroke="#666666" points="647.88,-180.25 536.62,-180.25 536.62,-161 647.88,-161 647.88,-180.25"/>
<text text-anchor="middle" x="592.25" y="-166.75" font-family="Helvetica,sans-Serif" font-size="10.00">sss::WebClient::Send</text>
</a>
</g>
</g>
<!-- Node2&#45;&gt;Node31 -->
<g id="edge38" class="edge">
<title>Node2&#45;&gt;Node31</title>
<path fill="none" stroke="#63b8ff" d="M294.78,-154.59C357.12,-157.97 458.81,-163.46 525.38,-167.06"/>
<polygon fill="#63b8ff" stroke="#63b8ff" points="524.98,-170.6 535.15,-167.65 525.36,-163.61 524.98,-170.6"/>
</g>
<!-- Node32 -->
<g id="node32" class="node">
<title>Node32</title>
<g id="a_node32"><a xlink:href="classsss_1_1WebClient.html#a7dfd984b33a29686fb0355b65b620e99" target="_top" xlink:title=" ">
<polygon fill="white" stroke="#666666" points="485.25,-104.88 330.5,-104.88 330.5,-74.38 485.25,-74.38 485.25,-104.88"/>
<text text-anchor="start" x="338.5" y="-91.38" font-family="Helvetica,sans-Serif" font-size="10.00">sss::WebClient::SetUrlEncoded</text>
<text text-anchor="middle" x="407.88" y="-80.12" font-family="Helvetica,sans-Serif" font-size="10.00">PostData</text>
</a>
</g>
</g>
<!-- Node2&#45;&gt;Node32 -->
<g id="edge40" class="edge">
<title>Node2&#45;&gt;Node32</title>
<path fill="none" stroke="#63b8ff" d="M267.08,-141.53C290.72,-132.75 325.64,-119.78 354.67,-109.01"/>
<polygon fill="#63b8ff" stroke="#63b8ff" points="355.5,-112.06 363.66,-105.3 353.07,-105.5 355.5,-112.06"/>
</g>
<!-- Node33 -->
<g id="node33" class="node">
<title>Node33</title>
<g id="a_node33"><a xlink:href="classsss_1_1WebClient.html#ae7b1f77bd4ae44585f2d49ea493bdcc5" target="_top" xlink:title="Upload data from memory buffer.">
<polygon fill="white" stroke="#666666" points="478.12,-228.88 337.62,-228.88 337.62,-198.38 478.12,-198.38 478.12,-228.88"/>
<text text-anchor="start" x="345.62" y="-215.38" font-family="Helvetica,sans-Serif" font-size="10.00">sss::WebClient::UploadData</text>
<text text-anchor="middle" x="407.88" y="-204.12" font-family="Helvetica,sans-Serif" font-size="10.00">FromBuffer</text>
</a>
</g>
</g>
<!-- Node2&#45;&gt;Node33 -->
<g id="edge43" class="edge">
<title>Node2&#45;&gt;Node33</title>
<path fill="none" stroke="#63b8ff" d="M267.08,-161.72C290.72,-170.5 325.64,-183.47 354.67,-194.24"/>
<polygon fill="#63b8ff" stroke="#63b8ff" points="353.07,-197.75 363.66,-197.95 355.5,-191.19 353.07,-197.75"/>
</g>
<!-- Node4 -->
<g id="node4" class="node">
<title>Node4</title>
<g id="a_node4"><a xlink:href="classsss_1_1api_1_1S3Api.html#aea9741d60e74775ccd4de1c2c58f64fa" target="_top" xlink:title=" ">
<polygon fill="white" stroke="#666666" points="653.12,-555.25 531.38,-555.25 531.38,-536 653.12,-536 653.12,-555.25"/>
<text text-anchor="middle" x="592.25" y="-541.75" font-family="Helvetica,sans-Serif" font-size="10.00">sss::api::S3Api::Access</text>
</a>
</g>
</g>
<!-- Node3&#45;&gt;Node4 -->
<g id="edge3" class="edge">
<title>Node3&#45;&gt;Node4</title>
<path fill="none" stroke="#63b8ff" d="M412.83,-365.48C424.77,-393.96 463.2,-477.22 521.25,-521.62 526.22,-525.43 531.83,-528.65 537.66,-531.38"/>
<polygon fill="#63b8ff" stroke="#63b8ff" points="536.02,-534.9 546.6,-535.51 538.71,-528.44 536.02,-534.9"/>
</g>
<!-- Node5 -->
<g id="node5" class="node">
<title>Node5</title>
<g id="a_node5"><a xlink:href="classsss_1_1api_1_1S3Api.html#a3718745d3b940462ae9f3b78f773b3a6" target="_top" xlink:title="Clear data and reset read and write functions.">
<polygon fill="white" stroke="#666666" points="648.25,-479.25 536.25,-479.25 536.25,-460 648.25,-460 648.25,-479.25"/>
<text text-anchor="middle" x="592.25" y="-465.75" font-family="Helvetica,sans-Serif" font-size="10.00">sss::api::S3Api::Clear</text>
</a>
</g>
</g>
<!-- Node3&#45;&gt;Node5 -->
<g id="edge4" class="edge">
<title>Node3&#45;&gt;Node5</title>
<path fill="none" stroke="#63b8ff" d="M418.84,-365.64C437.45,-383.84 479.42,-422.62 521.25,-445.62 528.37,-449.54 536.25,-452.99 544.08,-455.96"/>
<polygon fill="#63b8ff" stroke="#63b8ff" points="542.67,-459.53 553.26,-459.59 545.02,-452.94 542.67,-459.53"/>
</g>
<!-- Node10 -->
<g id="node10" class="node">
<title>Node10</title>
<g id="a_node10"><a xlink:href="classsss_1_1WebClient.html#a75890c14fbe4a4bbac61718a4f3c064d" target="_top" xlink:title=" ">
<polygon fill="white" stroke="#666666" points="856.62,-552.25 716.12,-552.25 716.12,-533 856.62,-533 856.62,-552.25"/>
<text text-anchor="middle" x="786.38" y="-538.75" font-family="Helvetica,sans-Serif" font-size="10.00">sss::WebClient::SetHeaders</text>
</a>
</g>
</g>
<!-- Node3&#45;&gt;Node10 -->
<g id="edge16" class="edge">
<title>Node3&#45;&gt;Node10</title>
<path fill="none" stroke="#63b8ff" d="M414.13,-365.59C427.95,-390.74 467.95,-457.01 521.25,-488.62 551.8,-506.75 638.99,-522.37 704.91,-532.08"/>
<polygon fill="#63b8ff" stroke="#63b8ff" points="704.3,-535.67 714.7,-533.64 705.31,-528.74 704.3,-535.67"/>
</g>
<!-- Node11 -->
<g id="node11" class="node">
<title>Node11</title>
<g id="a_node11"><a xlink:href="classsss_1_1WebClient.html#a12b5db6b8c667024557ab58059d39994" target="_top" xlink:title=" ">
<polygon fill="white" stroke="#666666" points="848.38,-441.25 724.38,-441.25 724.38,-422 848.38,-422 848.38,-441.25"/>
<text text-anchor="middle" x="786.38" y="-427.75" font-family="Helvetica,sans-Serif" font-size="10.00">sss::WebClient::SetPath</text>
</a>
</g>
</g>
<!-- Node3&#45;&gt;Node11 -->
<g id="edge20" class="edge">
<title>Node3&#45;&gt;Node11</title>
<path fill="none" stroke="#63b8ff" d="M433.45,-365.71C455.95,-374.57 490.33,-387.17 521.25,-394.62 585.26,-410.06 659.65,-419.76 713.15,-425.34"/>
<polygon fill="#63b8ff" stroke="#63b8ff" points="712.59,-428.9 722.9,-426.44 713.3,-421.94 712.59,-428.9"/>
</g>
<!-- Node13 -->
<g id="node13" class="node">
<title>Node13</title>
<g id="a_node13"><a xlink:href="classsss_1_1WebClient.html#a9bf978d95b79728f6d60fc2bdb4fe546" target="_top" xlink:title=" ">
<polygon fill="white" stroke="#666666" points="872.38,-404.25 700.38,-404.25 700.38,-385 872.38,-385 872.38,-404.25"/>
<text text-anchor="middle" x="786.38" y="-390.75" font-family="Helvetica,sans-Serif" font-size="10.00">sss::WebClient::SetReqParameters</text>
</a>
</g>
</g>
<!-- Node3&#45;&gt;Node13 -->
<g id="edge21" class="edge">
<title>Node3&#45;&gt;Node13</title>
<path fill="none" stroke="#63b8ff" d="M462.46,-365.72C481.02,-368.94 502,-372.27 521.25,-374.62 576.75,-381.4 639.1,-386.25 689.29,-389.48"/>
<polygon fill="#63b8ff" stroke="#63b8ff" points="688.93,-393.03 699.13,-390.16 689.37,-386.04 688.93,-393.03"/>
</g>
<!-- Node14 -->
<g id="node14" class="node">
<title>Node14</title>
<g id="a_node14"><a xlink:href="classsss_1_1api_1_1S3Api.html#a25a999d87c121627166fc0a896f536c7" target="_top" xlink:title=" ">
<polygon fill="white" stroke="#666666" points="655.75,-328.25 528.75,-328.25 528.75,-309 655.75,-309 655.75,-328.25"/>
<text text-anchor="middle" x="592.25" y="-314.75" font-family="Helvetica,sans-Serif" font-size="10.00">sss::api::S3Api::Endpoint</text>
</a>
</g>
</g>
<!-- Node3&#45;&gt;Node14 -->
<g id="edge13" class="edge">
<title>Node3&#45;&gt;Node14</title>
<path fill="none" stroke="#63b8ff" d="M458.71,-345.51C481.03,-340.99 507.53,-335.61 530.96,-330.86"/>
<polygon fill="#63b8ff" stroke="#63b8ff" points="531.37,-334.14 540.48,-328.72 529.98,-327.28 531.37,-334.14"/>
</g>
<!-- Node15 -->
<g id="node15" class="node">
<title>Node15</title>
<g id="a_node15"><a xlink:href="classsss_1_1api_1_1S3Api.html#a6f518c16679e99f119966b36ac28463f" target="_top" xlink:title=" ">
<polygon fill="white" stroke="#666666" points="650.88,-291.25 533.62,-291.25 533.62,-272 650.88,-272 650.88,-291.25"/>
<text text-anchor="middle" x="592.25" y="-277.75" font-family="Helvetica,sans-Serif" font-size="10.00">sss::api::S3Api::Secret</text>
</a>
</g>
</g>
<!-- Node3&#45;&gt;Node15 -->
<g id="edge14" class="edge">
<title>Node3&#45;&gt;Node15</title>
<path fill="none" stroke="#63b8ff" d="M426.26,-345.51C447.92,-333.26 486.33,-312.65 521.25,-299.62 526,-297.85 530.99,-296.19 536.03,-294.65"/>
<polygon fill="#63b8ff" stroke="#63b8ff" points="536.74,-297.8 545.38,-291.67 534.8,-291.08 536.74,-297.8"/>
</g>
<!-- Node16 -->
<g id="node16" class="node">
<title>Node16</title>
<g id="a_node16"><a xlink:href="classsss_1_1WebClient.html#afc3b7a92568fbb1ea447918920ca266e" target="_top" xlink:title="Set endpoint: &lt;proto&gt;://&lt;server&gt;:&lt;port&gt;">
<polygon fill="white" stroke="#666666" points="663.25,-254.25 521.25,-254.25 521.25,-235 663.25,-235 663.25,-254.25"/>
<text text-anchor="middle" x="592.25" y="-240.75" font-family="Helvetica,sans-Serif" font-size="10.00">sss::WebClient::SetEndpoint</text>
</a>
</g>
</g>
<!-- Node3&#45;&gt;Node16 -->
<g id="edge15" class="edge">
<title>Node3&#45;&gt;Node16</title>
<path fill="none" stroke="#63b8ff" d="M418.03,-345.53C435.95,-326.41 477.71,-284.83 521.25,-262.62 524.32,-261.06 527.55,-259.62 530.85,-258.3"/>
<polygon fill="#63b8ff" stroke="#63b8ff" points="531.69,-261.36 539.93,-254.69 529.33,-254.77 531.69,-261.36"/>
</g>
<!-- Node17 -->
<g id="node17" class="node">
<title>Node17</title>
<g id="a_node17"><a xlink:href="classsss_1_1WebClient.html#af6233ffd7b294e1e7e606e838dd44e9e" target="_top" xlink:title=" ">
<polygon fill="white" stroke="#666666" points="660.25,-217.25 524.25,-217.25 524.25,-198 660.25,-198 660.25,-217.25"/>
<text text-anchor="middle" x="592.25" y="-203.75" font-family="Helvetica,sans-Serif" font-size="10.00">sss::WebClient::SetMethod</text>
</a>
</g>
</g>
<!-- Node3&#45;&gt;Node17 -->
<g id="edge17" class="edge">
<title>Node3&#45;&gt;Node17</title>
<path fill="none" stroke="#63b8ff" d="M414.5,-345.68C428.88,-321.2 469.52,-257.69 521.25,-225.62 523.41,-224.29 525.67,-223.05 527.99,-221.9"/>
<polygon fill="#63b8ff" stroke="#63b8ff" points="529.03,-224.83 536.85,-217.68 526.28,-218.4 529.03,-224.83"/>
</g>
<!-- Node19 -->
<g id="node19" class="node">
<title>Node19</title>
<g id="a_node19"><a xlink:href="group__Sign.html#ga3ae8e18ef70752b7369fca66c40c526b" target="_top" xlink:title="Sign headers.">
<polygon fill="white" stroke="#666666" points="639.25,-365.25 545.25,-365.25 545.25,-346 639.25,-346 639.25,-365.25"/>
<text text-anchor="middle" x="592.25" y="-351.75" font-family="Helvetica,sans-Serif" font-size="10.00">sss::SignHeaders</text>
</a>
</g>
</g>
<!-- Node3&#45;&gt;Node19 -->
<g id="edge22" class="edge">
<title>Node3&#45;&gt;Node19</title>
<path fill="none" stroke="#63b8ff" d="M466.83,-355.62C488.32,-355.62 512.67,-355.62 534.09,-355.62"/>
<polygon fill="#63b8ff" stroke="#63b8ff" points="534,-359.13 544,-355.62 534,-352.13 534,-359.13"/>
</g>
<!-- Node6 -->
<g id="node6" class="node">
<title>Node6</title>
<g id="a_node6"><a xlink:href="classsss_1_1WebClient.html#a381f5715b7a2f19a0d4414d278874bae" target="_top" xlink:title="Clear internal buffers.">
<polygon fill="white" stroke="#666666" points="858.12,-515.25 714.62,-515.25 714.62,-496 858.12,-496 858.12,-515.25"/>
<text text-anchor="middle" x="786.38" y="-501.75" font-family="Helvetica,sans-Serif" font-size="10.00">sss::WebClient::ClearBuffers</text>
</a>
</g>
</g>
<!-- Node5&#45;&gt;Node6 -->
<g id="edge5" class="edge">
<title>Node5&#45;&gt;Node6</title>
<path fill="none" stroke="#63b8ff" d="M647.28,-479.75C670.09,-484.02 696.84,-489.04 720.69,-493.5"/>
<polygon fill="#63b8ff" stroke="#63b8ff" points="719.95,-497.11 730.42,-495.51 721.23,-490.23 719.95,-497.11"/>
</g>
<!-- Node7 -->
<g id="node7" class="node">
<title>Node7</title>
<g id="a_node7"><a xlink:href="classsss_1_1WebClient.html#a96837f149bb473853a6523d096a25c56" target="_top" xlink:title="Reset read/write functions to default.">
<polygon fill="white" stroke="#666666" points="873.5,-478.25 699.25,-478.25 699.25,-459 873.5,-459 873.5,-478.25"/>
<text text-anchor="middle" x="786.38" y="-464.75" font-family="Helvetica,sans-Serif" font-size="10.00">sss::WebClient::ResetRWFunctions</text>
</a>
</g>
</g>
<!-- Node5&#45;&gt;Node7 -->
<g id="edge6" class="edge">
<title>Node5&#45;&gt;Node7</title>
<path fill="none" stroke="#63b8ff" d="M648.56,-469.34C660.98,-469.27 674.52,-469.2 688.09,-469.13"/>
<polygon fill="#63b8ff" stroke="#63b8ff" points="687.98,-472.63 697.96,-469.07 687.94,-465.63 687.98,-472.63"/>
</g>
<!-- Node5&#45;&gt;Node10 -->
<g id="edge9" class="edge">
<title>Node5&#45;&gt;Node10</title>
<path fill="none" stroke="#63b8ff" d="M631.09,-479.68C641.85,-483.3 653.33,-487.94 663.25,-493.62 681.57,-504.13 680.32,-515.28 699.25,-524.62 702.57,-526.26 706.03,-527.75 709.58,-529.11"/>
<polygon fill="#63b8ff" stroke="#63b8ff" points="708.17,-532.66 718.77,-532.58 710.43,-526.04 708.17,-532.66"/>
</g>
<!-- Node5&#45;&gt;Node11 -->
<g id="edge10" class="edge">
<title>Node5&#45;&gt;Node11</title>
<path fill="none" stroke="#63b8ff" d="M644.23,-459.54C668.65,-454.71 698.09,-448.89 723.75,-443.81"/>
<polygon fill="#63b8ff" stroke="#63b8ff" points="724.36,-447.06 733.49,-441.69 723,-440.2 724.36,-447.06"/>
</g>
<!-- Node5&#45;&gt;Node12 -->
<g id="edge11" class="edge">
<title>Node5&#45;&gt;Node12</title>
<path fill="none" stroke="#63b8ff" d="M606.18,-479.59C620.44,-490.72 643.93,-509.43 663.25,-526.62 679.92,-541.46 679.66,-550.93 699.25,-561.62 703.73,-564.07 708.5,-566.22 713.41,-568.1"/>
<polygon fill="#63b8ff" stroke="#63b8ff" points="712.03,-571.68 722.63,-571.62 714.31,-565.06 712.03,-571.68"/>
</g>
<!-- Node5&#45;&gt;Node13 -->
<g id="edge12" class="edge">
<title>Node5&#45;&gt;Node13</title>
<path fill="none" stroke="#63b8ff" d="M608.4,-459.66C628.4,-446.94 665.09,-425.08 699.25,-412.62 704.41,-410.74 709.82,-409.04 715.31,-407.49"/>
<polygon fill="#63b8ff" stroke="#63b8ff" points="716.12,-410.63 724.91,-404.71 714.35,-403.86 716.12,-410.63"/>
</g>
<!-- Node8 -->
<g id="node8" class="node">
<title>Node8</title>
<g id="a_node8"><a xlink:href="classsss_1_1WebClient.html#a88dbcc61562e84aa9ebf1eabf887ac28" target="_top" xlink:title=" ">
<polygon fill="white" stroke="#666666" points="1074,-521.25 909.5,-521.25 909.5,-502 1074,-502 1074,-521.25"/>
<text text-anchor="middle" x="991.75" y="-507.75" font-family="Helvetica,sans-Serif" font-size="10.00">sss::WebClient::SetReadFunction</text>
</a>
</g>
</g>
<!-- Node7&#45;&gt;Node8 -->
<g id="edge7" class="edge">
<title>Node7&#45;&gt;Node8</title>
<path fill="none" stroke="#63b8ff" d="M835.67,-478.68C848,-481.26 861.24,-484.04 873.5,-486.62 892.91,-490.72 914.12,-495.24 933.1,-499.29"/>
<polygon fill="#63b8ff" stroke="#63b8ff" points="932.18,-502.88 942.69,-501.55 933.64,-496.03 932.18,-502.88"/>
</g>
<!-- Node9 -->
<g id="node9" class="node">
<title>Node9</title>
<g id="a_node9"><a xlink:href="classsss_1_1WebClient.html#a002876073b3869a9b9a9d709d14f1d7e" target="_top" xlink:title=" ">
<polygon fill="white" stroke="#666666" points="1054.88,-483.88 928.62,-483.88 928.62,-453.38 1054.88,-453.38 1054.88,-483.88"/>
<text text-anchor="start" x="936.62" y="-470.38" font-family="Helvetica,sans-Serif" font-size="10.00">sss::WebClient::SetWrite</text>
<text text-anchor="middle" x="991.75" y="-459.12" font-family="Helvetica,sans-Serif" font-size="10.00">Function</text>
</a>
</g>
</g>
<!-- Node7&#45;&gt;Node9 -->
<g id="edge8" class="edge">
<title>Node7&#45;&gt;Node9</title>
<path fill="none" stroke="#63b8ff" d="M873.92,-468.62C888.48,-468.62 903.46,-468.62 917.64,-468.62"/>
<polygon fill="#63b8ff" stroke="#63b8ff" points="917.3,-472.13 927.3,-468.62 917.3,-465.13 917.3,-472.13"/>
</g>
<!-- Node18 -->
<g id="node18" class="node">
<title>Node18</title>
<g id="a_node18"><a xlink:href="lib_2include_2utility_8h.html#ae153c064d6f1beda845702f67605b20e" target="_top" xlink:title=" ">
<polygon fill="white" stroke="#666666" points="1029,-195.25 954.5,-195.25 954.5,-176 1029,-176 1029,-195.25"/>
<text text-anchor="middle" x="991.75" y="-181.75" font-family="Helvetica,sans-Serif" font-size="10.00">sss::ToUpper</text>
</a>
</g>
</g>
<!-- Node17&#45;&gt;Node18 -->
<g id="edge18" class="edge">
<title>Node17&#45;&gt;Node18</title>
<path fill="none" stroke="#63b8ff" d="M660.68,-203.89C741,-199.45 873.1,-192.14 943.36,-188.25"/>
<polygon fill="#63b8ff" stroke="#63b8ff" points="943.29,-191.7 953.08,-187.65 942.91,-184.71 943.29,-191.7"/>
</g>
<!-- Node18&#45;&gt;Node18 -->
<g id="edge19" class="edge">
<title>Node18&#45;&gt;Node18</title>
<path fill="none" stroke="#63b8ff" d="M959.6,-195.54C944.93,-204.15 955.65,-213.25 991.75,-213.25 1014.88,-213.25 1027.59,-209.51 1029.88,-204.56"/>
<polygon fill="#63b8ff" stroke="#63b8ff" points="1032.34,-202.94 1023.9,-196.54 1026.51,-206.81 1032.34,-202.94"/>
</g>
<!-- Node20 -->
<g id="node20" class="node">
<title>Node20</title>
<g id="a_node20"><a xlink:href="group__Ranges.html#ga0aa7f3b15d2ebf9b597a1b5ba38ae8ac" target="_top" xlink:title="return iterator at start position">
<polygon fill="white" stroke="#666666" points="1022.25,-435.25 961.25,-435.25 961.25,-416 1022.25,-416 1022.25,-435.25"/>
<text text-anchor="middle" x="991.75" y="-421.75" font-family="Helvetica,sans-Serif" font-size="10.00">sss::begin</text>
</a>
</g>
</g>
<!-- Node19&#45;&gt;Node20 -->
<g id="edge23" class="edge">
<title>Node19&#45;&gt;Node20</title>
<path fill="none" stroke="#63b8ff" d="M639.75,-350.08C697.13,-345.19 796.53,-343.18 873.5,-375.62 893.23,-383.94 890.44,-397.89 909.5,-407.62 922.09,-414.06 936.92,-418.2 950.45,-420.87"/>
<polygon fill="#63b8ff" stroke="#63b8ff" points="949.49,-424.43 959.95,-422.7 950.7,-417.53 949.49,-424.43"/>
</g>
<!-- Node21 -->
<g id="node21" class="node">
<title>Node21</title>
<g id="a_node21"><a xlink:href="group__Sign.html#ga532598da479904609d6c02e4c2a1311a" target="_top" xlink:title="Compute signature.">
<polygon fill="white" stroke="#666666" points="845.75,-288.25 727,-288.25 727,-269 845.75,-269 845.75,-288.25"/>
<text text-anchor="middle" x="786.38" y="-274.75" font-family="Helvetica,sans-Serif" font-size="10.00">sss::ComputeSignature</text>
</a>
</g>
</g>
<!-- Node19&#45;&gt;Node21 -->
<g id="edge24" class="edge">
<title>Node19&#45;&gt;Node21</title>
<path fill="none" stroke="#63b8ff" d="M639.66,-347.12C647.79,-344.68 655.97,-341.57 663.25,-337.62 682.33,-327.28 680.39,-315.36 699.25,-304.62 708.11,-299.58 718.06,-295.41 727.96,-292.01"/>
<polygon fill="#63b8ff" stroke="#63b8ff" points="728.76,-295.11 737.22,-288.73 726.63,-288.44 728.76,-295.11"/>
</g>
<!-- Node23 -->
<g id="node23" class="node">
<title>Node23</title>
<g id="a_node23"><a xlink:href="group__Ranges.html#ga4f73053571587e79eb3db628f5e6ef99" target="_top" xlink:title="return iterator at end position">
<polygon fill="white" stroke="#666666" points="1018.5,-398.25 965,-398.25 965,-379 1018.5,-379 1018.5,-398.25"/>
<text text-anchor="middle" x="991.75" y="-384.75" font-family="Helvetica,sans-Serif" font-size="10.00">sss::end</text>
</a>
</g>
</g>
<!-- Node19&#45;&gt;Node23 -->
<g id="edge35" class="edge">
<title>Node19&#45;&gt;Node23</title>
<path fill="none" stroke="#63b8ff" d="M629.85,-345.56C684.55,-332.36 790.11,-314.01 873.5,-342.62 892.67,-349.2 891.16,-362 909.5,-370.62 923.36,-377.14 939.67,-381.35 954.02,-384.04"/>
<polygon fill="#63b8ff" stroke="#63b8ff" points="953.1,-387.6 963.55,-385.81 954.27,-380.7 953.1,-387.6"/>
</g>
<!-- Node21&#45;&gt;Node18 -->
<g id="edge33" class="edge">
<title>Node21&#45;&gt;Node18</title>
<path fill="none" stroke="#63b8ff" d="M808.5,-268.61C832.8,-257.13 873.93,-237.8 909.5,-221.62 925.36,-214.41 943.04,-206.56 957.85,-200.03"/>
<polygon fill="#63b8ff" stroke="#63b8ff" points="958.84,-202.98 966.58,-195.75 956.02,-196.57 958.84,-202.98"/>
</g>
<!-- Node21&#45;&gt;Node20 -->
<g id="edge25" class="edge">
<title>Node21&#45;&gt;Node20</title>
<path fill="none" stroke="#63b8ff" d="M804.96,-288.57C823.7,-299.83 853.38,-319.63 873.5,-342.62 895.24,-367.48 883.04,-387.86 909.5,-407.62 921.1,-416.29 936.07,-420.93 949.99,-423.37"/>
<polygon fill="#63b8ff" stroke="#63b8ff" points="949.46,-426.97 959.85,-424.88 950.43,-420.03 949.46,-426.97"/>
</g>
<!-- Node22 -->
<g id="node22" class="node">
<title>Node22</title>
<g id="a_node22"><a xlink:href="group__Internal.html#ga74c69f25ce04876e114759c0023b2a12" target="_top" xlink:title=" ">
<polygon fill="white" stroke="#666666" points="1054.5,-287.25 929,-287.25 929,-268 1054.5,-268 1054.5,-287.25"/>
<text text-anchor="middle" x="991.75" y="-273.75" font-family="Helvetica,sans-Serif" font-size="10.00">sss::CreateSignatureKey</text>
</a>
</g>
</g>
<!-- Node21&#45;&gt;Node22 -->
<g id="edge26" class="edge">
<title>Node21&#45;&gt;Node22</title>
<path fill="none" stroke="#63b8ff" d="M846.2,-278.34C868.48,-278.23 894.12,-278.1 917.56,-277.98"/>
<polygon fill="#63b8ff" stroke="#63b8ff" points="917.53,-281.48 927.51,-277.93 917.5,-274.48 917.53,-281.48"/>
</g>
<!-- Node21&#45;&gt;Node23 -->
<g id="edge27" class="edge">
<title>Node21&#45;&gt;Node23</title>
<path fill="none" stroke="#63b8ff" d="M843.37,-288.62C854.14,-292.37 864.77,-297.53 873.5,-304.62 899.43,-325.7 882.79,-350.54 909.5,-370.62 922.23,-380.2 939.06,-384.86 954.11,-387.07"/>
<polygon fill="#63b8ff" stroke="#63b8ff" points="953.32,-390.62 963.66,-388.28 954.12,-383.67 953.32,-390.62"/>
</g>
<!-- Node24 -->
<g id="node24" class="node">
<title>Node24</title>
<g id="a_node24"><a xlink:href="group__Internal.html#ga50353a351a93b1213dc4e5211c767d85" target="_top" xlink:title=" ">
<polygon fill="white" stroke="#666666" points="1031.62,-250.25 951.88,-250.25 951.88,-231 1031.62,-231 1031.62,-250.25"/>
<text text-anchor="middle" x="991.75" y="-236.75" font-family="Helvetica,sans-Serif" font-size="10.00">sss::GetDates</text>
</a>
</g>
</g>
<!-- Node21&#45;&gt;Node24 -->
<g id="edge28" class="edge">
<title>Node21&#45;&gt;Node24</title>
<path fill="none" stroke="#63b8ff" d="M841.34,-268.54C872.26,-262.76 910.79,-255.57 940.98,-249.92"/>
<polygon fill="#63b8ff" stroke="#63b8ff" points="941.51,-253.2 950.69,-247.92 940.22,-246.32 941.51,-253.2"/>
</g>
<!-- Node25 -->
<g id="node25" class="node">
<title>Node25</title>
<g id="a_node25"><a xlink:href="group__Internal.html#ga990dfaae4abc6bf20a28f9772b7bcd16" target="_top" xlink:title="Byte to hex string conversion.">
<polygon fill="white" stroke="#666666" points="1019.62,-361.25 963.88,-361.25 963.88,-342 1019.62,-342 1019.62,-361.25"/>
<text text-anchor="middle" x="991.75" y="-347.75" font-family="Helvetica,sans-Serif" font-size="10.00">sss::Hex</text>
</a>
</g>
</g>
<!-- Node21&#45;&gt;Node25 -->
<g id="edge29" class="edge">
<title>Node21&#45;&gt;Node25</title>
<path fill="none" stroke="#63b8ff" d="M832.48,-288.71C846.1,-292.67 860.79,-297.92 873.5,-304.62 891.67,-314.22 890.98,-324.72 909.5,-333.62 922.86,-340.05 938.56,-344.21 952.57,-346.9"/>
<polygon fill="#63b8ff" stroke="#63b8ff" points="951.93,-350.51 962.38,-348.75 953.11,-343.61 951.93,-350.51"/>
</g>
<!-- Node26 -->
<g id="node26" class="node">
<title>Node26</title>
<g id="a_node26"><a xlink:href="group__Internal.html#ga7160aa316f2c6633467b47588263c690" target="_top" xlink:title=" ">
<polygon fill="white" stroke="#666666" points="1033.5,-324.25 950,-324.25 950,-305 1033.5,-305 1033.5,-324.25"/>
<text text-anchor="middle" x="991.75" y="-310.75" font-family="Helvetica,sans-Serif" font-size="10.00">sss::ParseURL</text>
</a>
</g>
</g>
<!-- Node21&#45;&gt;Node26 -->
<g id="edge30" class="edge">
<title>Node21&#45;&gt;Node26</title>
<path fill="none" stroke="#63b8ff" d="M844.57,-288.75C874.26,-294 910.25,-300.38 939.1,-305.48"/>
<polygon fill="#63b8ff" stroke="#63b8ff" points="938.31,-309.07 948.77,-307.37 939.53,-302.18 938.31,-309.07"/>
</g>
<!-- Node21&#45;&gt;Node27 -->
<g id="edge31" class="edge">
<title>Node21&#45;&gt;Node27</title>
<path fill="none" stroke="#63b8ff" d="M796,-268.79C814.85,-247.76 861.84,-197.82 909.5,-166.62 922.69,-157.99 938.3,-150.51 952.29,-144.64"/>
<polygon fill="#63b8ff" stroke="#63b8ff" points="953.18,-147.65 961.14,-140.66 950.55,-141.17 953.18,-147.65"/>
</g>
<!-- Node28 -->
<g id="node28" class="node">
<title>Node28</title>
<g id="a_node28"><a xlink:href="group__Internal.html#ga0f079ace8729714b3949eabe22f228c9" target="_top" xlink:title=" ">
<polygon fill="white" stroke="#666666" points="1033.5,-102.25 950,-102.25 950,-83 1033.5,-83 1033.5,-102.25"/>
<text text-anchor="middle" x="991.75" y="-88.75" font-family="Helvetica,sans-Serif" font-size="10.00">sss::UrlEncode</text>
</a>
</g>
</g>
<!-- Node21&#45;&gt;Node28 -->
<g id="edge34" class="edge">
<title>Node21&#45;&gt;Node28</title>
<path fill="none" stroke="#63b8ff" d="M791.51,-268.84C804.32,-239.78 846.3,-153.45 909.5,-111.62 918.29,-105.81 928.64,-101.77 938.96,-98.96"/>
<polygon fill="#63b8ff" stroke="#63b8ff" points="939.7,-102.14 948.63,-96.45 938.1,-95.33 939.7,-102.14"/>
</g>
<!-- Node27&#45;&gt;Node27 -->
<g id="edge32" class="edge">
<title>Node27&#45;&gt;Node27</title>
<path fill="none" stroke="#63b8ff" d="M959.6,-140.54C944.93,-149.15 955.65,-158.25 991.75,-158.25 1014.88,-158.25 1027.59,-154.51 1029.88,-149.56"/>
<polygon fill="#63b8ff" stroke="#63b8ff" points="1032.34,-147.94 1023.9,-141.54 1026.51,-151.81 1032.34,-147.94"/>
</g>
<!-- Node32&#45;&gt;Node28 -->
<g id="edge41" class="edge">
<title>Node32&#45;&gt;Node28</title>
<path fill="none" stroke="#63b8ff" d="M485.54,-90.02C605.98,-90.64 836.36,-91.83 939.09,-92.36"/>
<polygon fill="#63b8ff" stroke="#63b8ff" points="938.78,-95.86 948.8,-92.41 938.82,-88.86 938.78,-95.86"/>
</g>
<!-- Node33&#45;&gt;Node17 -->
<g id="edge45" class="edge">
<title>Node33&#45;&gt;Node17</title>
<path fill="none" stroke="#63b8ff" d="M478.6,-211.33C489.88,-210.96 501.62,-210.57 513.09,-210.2"/>
<polygon fill="#63b8ff" stroke="#63b8ff" points="513.09,-213.67 522.97,-209.84 512.86,-206.67 513.09,-213.67"/>
</g>
<!-- Node33&#45;&gt;Node31 -->
<g id="edge44" class="edge">
<title>Node33&#45;&gt;Node31</title>
<path fill="none" stroke="#63b8ff" d="M475.49,-197.92C496.01,-193.08 518.32,-187.82 537.83,-183.22"/>
<polygon fill="#63b8ff" stroke="#63b8ff" points="538.43,-186.44 547.36,-180.74 536.82,-179.63 538.43,-186.44"/>
</g>
</g>
</svg>
        <g id="navigator" transform="translate(0 0)" fill="#404254">
                <rect fill="#f2f5e9" fill-opacity="0.5" stroke="#606060" stroke-width=".5" x="0" y="0" width="60" height="60"/>
                <use id="zoomplus" xlink:href="#zoomPlus" x="17" y="9" onmousedown="handleZoom(evt,'in')"/>
                <use id="zoomminus" xlink:href="#zoomMin" x="42" y="9" onmousedown="handleZoom(evt,'out')"/>
                <use id="reset" xlink:href="#resetDef" x="30" y="36" onmousedown="handleReset()"/>
                <g id="arrowUp" xlink:href="#dirArrow" transform="translate(30 24)" onmousedown="handlePan(0,-1)">
                  <use xlink:href="#rim" fill="#404040">
                        <set attributeName="fill" to="#808080" begin="arrowUp.mouseover" end="arrowUp.mouseout"/>
                  </use>
                  <path fill="none" stroke="white" stroke-width="1.5" d="M0,-3.0v7 M-2.5,-0.5L0,-3.0L2.5,-0.5"/>
                </g>
                <g id="arrowRight" xlink:href="#dirArrow" transform="rotate(90) translate(36 -43)" onmousedown="handlePan(1,0)">
                  <use xlink:href="#rim" fill="#404040">
                        <set attributeName="fill" to="#808080" begin="arrowRight.mouseover" end="arrowRight.mouseout"/>
                  </use>
                  <path fill="none" stroke="white" stroke-width="1.5" d="M0,-3.0v7 M-2.5,-0.5L0,-3.0L2.5,-0.5"/>
                </g>
                <g id="arrowDown" xlink:href="#dirArrow" transform="rotate(180) translate(-30 -48)" onmousedown="handlePan(0,1)">
                  <use xlink:href="#rim" fill="#404040">
                        <set attributeName="fill" to="#808080" begin="arrowDown.mouseover" end="arrowDown.mouseout"/>
                  </use>
                  <path fill="none" stroke="white" stroke-width="1.5" d="M0,-3.0v7 M-2.5,-0.5L0,-3.0L2.5,-0.5"/>
                </g>
                <g id="arrowLeft" xlink:href="#dirArrow" transform="rotate(270) translate(-36 17)" onmousedown="handlePan(-1,0)">
                  <use xlink:href="#rim" fill="#404040">
                        <set attributeName="fill" to="#808080" begin="arrowLeft.mouseover" end="arrowLeft.mouseout"/>
                  </use>
                  <path fill="none" stroke="white" stroke-width="1.5" d="M0,-3.0v7 M-2.5,-0.5L0,-3.0L2.5,-0.5"/>
                </g>
        </g>
        <svg viewBox="0 0 15 15" width="100%" height="30px" preserveAspectRatio="xMaxYMin meet">
         <g id="arrow_out" transform="scale(0.3 0.3)">
          <a xlink:href="classsss_1_1api_1_1S3Api_ae548966dc38f328fc45ee1500f5caf5b_cgraph_org.svg" target="_base">
           <rect id="button" ry="5" rx="5" y="6" x="6" height="38" width="38"
                fill="#f2f5e9" fill-opacity="0.5" stroke="#606060" stroke-width="1.0"/>
           <path id="arrow"
             d="M 11.500037,31.436501 C 11.940474,20.09759 22.043105,11.32322 32.158766,21.979434 L 37.068811,17.246167 C 37.068811,17.246167 37.088388,32 37.088388,32 L 22.160133,31.978069 C 22.160133,31.978069 26.997745,27.140456 26.997745,27.140456 C 18.528582,18.264221 13.291696,25.230495 11.500037,31.436501 z"
             style="fill:#404040;"/>
          </a>
         </g>
        </svg>
</svg>
