<?xml version="1.0" encoding="UTF-8" standalone="no"?>
<!DOCTYPE svg PUBLIC "-//W3C//DTD SVG 1.1//EN"
 "http://www.w3.org/Graphics/SVG/1.1/DTD/svg11.dtd">
<!-- Generated by graphviz version 8.0.5 (20230430.1635)
 -->
<!-- Title: sss::api::S3Api::HeadBucket Pages: 1 -->
<!--zoomable 600 -->
<svg id="main" version="1.1" xmlns="http://www.w3.org/2000/svg" xmlns:xlink="http://www.w3.org/1999/xlink" xml:space="preserve" onload="init(evt)">
<style type="text/css"><![CDATA[
.edge:hover path { stroke: red; }
.edge:hover polygon { stroke: red; fill: red; }
]]></style>
<script type="text/javascript"><![CDATA[
var edges = document.getElementsByTagName('g');
if (edges && edges.length) {
  for (var i=0;i<edges.length;i++) {
    if (edges[i].id.substr(0,4)=='edge') {
      edges[i].setAttribute('class','edge');
    }
  }
}
]]></script>
        <defs>
                <circle id="rim" cx="0" cy="0" r="7"/>
                <circle id="rim2" cx="0" cy="0" r="3.5"/>
                <g id="zoomPlus">
                        <use xlink:href="#rim" fill="#404040">
                                <set attributeName="fill" to="#808080" begin="zoomplus.mouseover" end="zoomplus.mouseout"/>
                        </use>
                        <path d="M-4,0h8M0,-4v8" fill="none" stroke="white" stroke-width="1.5" pointer-events="none"/>
                </g>
                <g id="zoomMin">
                        <use xlink:href="#rim" fill="#404040">
                                <set attributeName="fill" to="#808080" begin="zoomminus.mouseover" end="zoomminus.mouseout"/>
                        </use>
                        <path d="M-4,0h8" fill="none" stroke="white" stroke-width="1.5" pointer-events="none"/>
                </g>
                <g id="dirArrow">
                        <path fill="none" stroke="white" stroke-width="1.5" d="M0,-3.0v7 M-2.5,-0.5L0,-3.0L2.5,-0.5"/>
                </g>
               <g id="resetDef">
                       <use xlink:href="#rim2" fill="#404040">
                               <set attributeName="fill" to="#808080" begin="reset.mouseover" end="reset.mouseout"/>
                       </use>
               </g>
        </defs>

<script type="text/javascript">
var viewWidth = 1078;
var viewHeight = 600;
var sectionId = 'dynsection-22';
</script>
<script xlink:href="svgpan.js"/>
<svg id="graph" class="graph">
<g id="viewport">
<title>sss::api::S3Api::HeadBucket</title>
<!-- Node1 -->
<g id="node1" class="node">
<title>Node1</title>
<g id="a_node1"><a xlink:title=" ">
<polygon fill="#999999" stroke="#666666" points="142.75,-179.25 0,-179.25 0,-160 142.75,-160 142.75,-179.25"/>
<text text-anchor="middle" x="71.38" y="-165.75" font-family="Helvetica,sans-Serif" font-size="10.00">sss::api::S3Api::HeadBucket</text>
</a>
</g>
</g>
<!-- Node2 -->
<g id="node2" class="node">
<title>Node2</title>
<g id="a_node2"><a xlink:href="group__Parsing.html#gaca9233a3e8a097605d9168bf860e93e5" target="_top" xlink:title="Extract and return HTTP headers as key&#45;value pairs.">
<polygon fill="white" stroke="#666666" points="284.75,-198.25 184,-198.25 184,-179 284.75,-179 284.75,-198.25"/>
<text text-anchor="middle" x="234.38" y="-184.75" font-family="Helvetica,sans-Serif" font-size="10.00">sss::HTTPHeaders</text>
</a>
</g>
</g>
<!-- Node1&#45;&gt;Node2 -->
<g id="edge1" class="edge">
<title>Node1&#45;&gt;Node2</title>
<path fill="none" stroke="#63b8ff" d="M142.99,-177.96C152.94,-179.13 163.09,-180.33 172.82,-181.48"/>
<polygon fill="#63b8ff" stroke="#63b8ff" points="172.26,-185.05 182.6,-182.75 173.08,-178.1 172.26,-185.05"/>
</g>
<!-- Node3 -->
<g id="node3" class="node">
<title>Node3</title>
<g id="a_node3"><a xlink:href="classsss_1_1api_1_1S3Api.html#ad09581bf28c4bbbcbb71b329959ec1ae" target="_top" xlink:title="Send request.">
<polygon fill="white" stroke="#666666" points="290,-161.25 178.75,-161.25 178.75,-142 290,-142 290,-161.25"/>
<text text-anchor="middle" x="234.38" y="-147.75" font-family="Helvetica,sans-Serif" font-size="10.00">sss::api::S3Api::Send</text>
</a>
</g>
</g>
<!-- Node1&#45;&gt;Node3 -->
<g id="edge2" class="edge">
<title>Node1&#45;&gt;Node3</title>
<path fill="none" stroke="#63b8ff" d="M142.99,-161.73C151.12,-160.82 159.39,-159.9 167.46,-158.99"/>
<polygon fill="#63b8ff" stroke="#63b8ff" points="167.75,-162.37 177.3,-157.78 166.98,-155.42 167.75,-162.37"/>
</g>
<!-- Node4 -->
<g id="node4" class="node">
<title>Node4</title>
<g id="a_node4"><a xlink:href="classsss_1_1api_1_1S3Api.html#a840772746fbb0a79c161037da7b24a31" target="_top" xlink:title="Configure instance.">
<polygon fill="white" stroke="#666666" points="462,-365.25 344.75,-365.25 344.75,-346 462,-346 462,-365.25"/>
<text text-anchor="middle" x="403.38" y="-351.75" font-family="Helvetica,sans-Serif" font-size="10.00">sss::api::S3Api::Config</text>
</a>
</g>
</g>
<!-- Node3&#45;&gt;Node4 -->
<g id="edge3" class="edge">
<title>Node3&#45;&gt;Node4</title>
<path fill="none" stroke="#63b8ff" d="M277.43,-161.71C281.95,-163.86 286.26,-166.47 290,-169.62 316.13,-191.68 308.69,-208.13 326,-237.62 346.98,-273.38 373.74,-313.63 389.38,-336.68"/>
<polygon fill="#63b8ff" stroke="#63b8ff" points="387.01,-338.42 395.53,-344.71 392.79,-334.47 387.01,-338.42"/>
</g>
<!-- Node13 -->
<g id="node13" class="node">
<title>Node13</title>
<g id="a_node13"><a xlink:href="classsss_1_1WebClient.html#a51ce0ecf6487b6a43072643fe4f4cb4e" target="_top" xlink:title=" ">
<polygon fill="white" stroke="#666666" points="854.38,-591.25 709.38,-591.25 709.38,-572 854.38,-572 854.38,-591.25"/>
<text text-anchor="middle" x="781.88" y="-577.75" font-family="Helvetica,sans-Serif" font-size="10.00">sss::WebClient::SetPostData</text>
</a>
</g>
</g>
<!-- Node3&#45;&gt;Node13 -->
<g id="edge40" class="edge">
<title>Node3&#45;&gt;Node13</title>
<path fill="none" stroke="#63b8ff" d="M280.32,-161.68C283.94,-163.84 287.26,-166.45 290,-169.62 350.52,-239.59 283.23,-292.6 326,-374.62 381.32,-480.73 407.68,-515.41 516.75,-564.62 573.47,-590.22 644.09,-593.49 698.03,-590.9"/>
<polygon fill="#63b8ff" stroke="#63b8ff" points="698.15,-594.34 707.94,-590.28 697.75,-587.35 698.15,-594.34"/>
</g>
<!-- Node28 -->
<g id="node28" class="node">
<title>Node28</title>
<g id="a_node28"><a xlink:href="lib_2include_2utility_8h.html#ab314781bb3f053ef5325b50f3a1b74f8" target="_top" xlink:title=" ">
<polygon fill="white" stroke="#666666" points="1024.5,-140.25 950,-140.25 950,-121 1024.5,-121 1024.5,-140.25"/>
<text text-anchor="middle" x="987.25" y="-126.75" font-family="Helvetica,sans-Serif" font-size="10.00">sss::ToLower</text>
</a>
</g>
</g>
<!-- Node3&#45;&gt;Node28 -->
<g id="edge43" class="edge">
<title>Node3&#45;&gt;Node28</title>
<path fill="none" stroke="#63b8ff" d="M290.28,-150.09C431.54,-146.14 805.73,-135.67 938.61,-131.96"/>
<polygon fill="#63b8ff" stroke="#63b8ff" points="938.7,-135.43 948.6,-131.65 938.51,-128.43 938.7,-135.43"/>
</g>
<!-- Node30 -->
<g id="node30" class="node">
<title>Node30</title>
<g id="a_node30"><a xlink:href="group__ErrorHandling.html#ga781648957bfce0bbc86cbdbff94e28a6" target="_top" xlink:title=" ">
<polygon fill="white" stroke="#666666" points="448.12,-56.25 358.62,-56.25 358.62,-37 448.12,-37 448.12,-56.25"/>
<text text-anchor="middle" x="403.38" y="-42.75" font-family="Helvetica,sans-Serif" font-size="10.00">sss::HandleError</text>
</a>
</g>
</g>
<!-- Node3&#45;&gt;Node30 -->
<g id="edge37" class="edge">
<title>Node3&#45;&gt;Node30</title>
<path fill="none" stroke="#63b8ff" d="M242.91,-141.66C257.11,-123.61 289.67,-85.54 326,-65.62 332.84,-61.88 340.42,-58.86 348.08,-56.42"/>
<polygon fill="#63b8ff" stroke="#63b8ff" points="348.84,-59.56 357.5,-53.46 346.93,-52.83 348.84,-59.56"/>
</g>
<!-- Node31 -->
<g id="node31" class="node">
<title>Node31</title>
<g id="a_node31"><a xlink:href="group__Internal.html#ga2b8b08c2a4994a87377d83ccfa9a6a53" target="_top" xlink:title=" ">
<polygon fill="white" stroke="#666666" points="451.88,-19.25 354.88,-19.25 354.88,0 451.88,0 451.88,-19.25"/>
<text text-anchor="middle" x="403.38" y="-5.75" font-family="Helvetica,sans-Serif" font-size="10.00">sss::ParseParams</text>
</a>
</g>
</g>
<!-- Node3&#45;&gt;Node31 -->
<g id="edge38" class="edge">
<title>Node3&#45;&gt;Node31</title>
<path fill="none" stroke="#63b8ff" d="M239.62,-141.73C250.34,-117.98 280.89,-57.54 326,-27.62 331.59,-23.92 337.85,-20.97 344.32,-18.63"/>
<polygon fill="#63b8ff" stroke="#63b8ff" points="345.09,-21.75 353.59,-15.43 343.01,-15.06 345.09,-21.75"/>
</g>
<!-- Node32 -->
<g id="node32" class="node">
<title>Node32</title>
<g id="a_node32"><a xlink:href="classsss_1_1WebClient.html#aa1d7484f0e09242ce53b24f9648ce50e" target="_top" xlink:title=" ">
<polygon fill="white" stroke="#666666" points="643.38,-180.25 532.12,-180.25 532.12,-161 643.38,-161 643.38,-180.25"/>
<text text-anchor="middle" x="587.75" y="-166.75" font-family="Helvetica,sans-Serif" font-size="10.00">sss::WebClient::Send</text>
</a>
</g>
</g>
<!-- Node3&#45;&gt;Node32 -->
<g id="edge39" class="edge">
<title>Node3&#45;&gt;Node32</title>
<path fill="none" stroke="#63b8ff" d="M290.28,-154.59C352.62,-157.97 454.31,-163.46 520.88,-167.06"/>
<polygon fill="#63b8ff" stroke="#63b8ff" points="520.48,-170.6 530.65,-167.65 520.86,-163.61 520.48,-170.6"/>
</g>
<!-- Node33 -->
<g id="node33" class="node">
<title>Node33</title>
<g id="a_node33"><a xlink:href="classsss_1_1WebClient.html#a7dfd984b33a29686fb0355b65b620e99" target="_top" xlink:title=" ">
<polygon fill="white" stroke="#666666" points="480.75,-104.88 326,-104.88 326,-74.38 480.75,-74.38 480.75,-104.88"/>
<text text-anchor="start" x="334" y="-91.38" font-family="Helvetica,sans-Serif" font-size="10.00">sss::WebClient::SetUrlEncoded</text>
<text text-anchor="middle" x="403.38" y="-80.12" font-family="Helvetica,sans-Serif" font-size="10.00">PostData</text>
</a>
</g>
</g>
<!-- Node3&#45;&gt;Node33 -->
<g id="edge41" class="edge">
<title>Node3&#45;&gt;Node33</title>
<path fill="none" stroke="#63b8ff" d="M262.58,-141.53C286.22,-132.75 321.14,-119.78 350.17,-109.01"/>
<polygon fill="#63b8ff" stroke="#63b8ff" points="351,-112.06 359.16,-105.3 348.57,-105.5 351,-112.06"/>
</g>
<!-- Node34 -->
<g id="node34" class="node">
<title>Node34</title>
<g id="a_node34"><a xlink:href="classsss_1_1WebClient.html#ae7b1f77bd4ae44585f2d49ea493bdcc5" target="_top" xlink:title="Upload data from memory buffer.">
<polygon fill="white" stroke="#666666" points="473.62,-228.88 333.12,-228.88 333.12,-198.38 473.62,-198.38 473.62,-228.88"/>
<text text-anchor="start" x="341.12" y="-215.38" font-family="Helvetica,sans-Serif" font-size="10.00">sss::WebClient::UploadData</text>
<text text-anchor="middle" x="403.38" y="-204.12" font-family="Helvetica,sans-Serif" font-size="10.00">FromBuffer</text>
</a>
</g>
</g>
<!-- Node3&#45;&gt;Node34 -->
<g id="edge44" class="edge">
<title>Node3&#45;&gt;Node34</title>
<path fill="none" stroke="#63b8ff" d="M267.29,-161.69C274.78,-164.17 282.7,-166.91 290,-169.62 306.24,-175.68 309.9,-178.21 326,-184.62 333.78,-187.72 342.04,-190.94 350.14,-194.04"/>
<polygon fill="#63b8ff" stroke="#63b8ff" points="348.67,-197.61 359.26,-197.91 351.17,-191.07 348.67,-197.61"/>
</g>
<!-- Node5 -->
<g id="node5" class="node">
<title>Node5</title>
<g id="a_node5"><a xlink:href="classsss_1_1api_1_1S3Api.html#aea9741d60e74775ccd4de1c2c58f64fa" target="_top" xlink:title=" ">
<polygon fill="white" stroke="#666666" points="648.62,-555.25 526.88,-555.25 526.88,-536 648.62,-536 648.62,-555.25"/>
<text text-anchor="middle" x="587.75" y="-541.75" font-family="Helvetica,sans-Serif" font-size="10.00">sss::api::S3Api::Access</text>
</a>
</g>
</g>
<!-- Node4&#45;&gt;Node5 -->
<g id="edge4" class="edge">
<title>Node4&#45;&gt;Node5</title>
<path fill="none" stroke="#63b8ff" d="M408.33,-365.48C420.27,-393.96 458.7,-477.22 516.75,-521.62 521.72,-525.43 527.33,-528.65 533.16,-531.38"/>
<polygon fill="#63b8ff" stroke="#63b8ff" points="531.52,-534.9 542.1,-535.51 534.21,-528.44 531.52,-534.9"/>
</g>
<!-- Node6 -->
<g id="node6" class="node">
<title>Node6</title>
<g id="a_node6"><a xlink:href="classsss_1_1api_1_1S3Api.html#a3718745d3b940462ae9f3b78f773b3a6" target="_top" xlink:title="Clear data and reset read and write functions.">
<polygon fill="white" stroke="#666666" points="643.75,-479.25 531.75,-479.25 531.75,-460 643.75,-460 643.75,-479.25"/>
<text text-anchor="middle" x="587.75" y="-465.75" font-family="Helvetica,sans-Serif" font-size="10.00">sss::api::S3Api::Clear</text>
</a>
</g>
</g>
<!-- Node4&#45;&gt;Node6 -->
<g id="edge5" class="edge">
<title>Node4&#45;&gt;Node6</title>
<path fill="none" stroke="#63b8ff" d="M414.34,-365.64C432.95,-383.84 474.92,-422.62 516.75,-445.62 523.87,-449.54 531.75,-452.99 539.58,-455.96"/>
<polygon fill="#63b8ff" stroke="#63b8ff" points="538.17,-459.53 548.76,-459.59 540.52,-452.94 538.17,-459.53"/>
</g>
<!-- Node11 -->
<g id="node11" class="node">
<title>Node11</title>
<g id="a_node11"><a xlink:href="classsss_1_1WebClient.html#a75890c14fbe4a4bbac61718a4f3c064d" target="_top" xlink:title=" ">
<polygon fill="white" stroke="#666666" points="852.12,-552.25 711.62,-552.25 711.62,-533 852.12,-533 852.12,-552.25"/>
<text text-anchor="middle" x="781.88" y="-538.75" font-family="Helvetica,sans-Serif" font-size="10.00">sss::WebClient::SetHeaders</text>
</a>
</g>
</g>
<!-- Node4&#45;&gt;Node11 -->
<g id="edge17" class="edge">
<title>Node4&#45;&gt;Node11</title>
<path fill="none" stroke="#63b8ff" d="M409.63,-365.59C423.45,-390.74 463.45,-457.01 516.75,-488.62 547.3,-506.75 634.49,-522.37 700.41,-532.08"/>
<polygon fill="#63b8ff" stroke="#63b8ff" points="699.8,-535.67 710.2,-533.64 700.81,-528.74 699.8,-535.67"/>
</g>
<!-- Node12 -->
<g id="node12" class="node">
<title>Node12</title>
<g id="a_node12"><a xlink:href="classsss_1_1WebClient.html#a12b5db6b8c667024557ab58059d39994" target="_top" xlink:title=" ">
<polygon fill="white" stroke="#666666" points="843.88,-441.25 719.88,-441.25 719.88,-422 843.88,-422 843.88,-441.25"/>
<text text-anchor="middle" x="781.88" y="-427.75" font-family="Helvetica,sans-Serif" font-size="10.00">sss::WebClient::SetPath</text>
</a>
</g>
</g>
<!-- Node4&#45;&gt;Node12 -->
<g id="edge21" class="edge">
<title>Node4&#45;&gt;Node12</title>
<path fill="none" stroke="#63b8ff" d="M428.95,-365.71C451.45,-374.57 485.83,-387.17 516.75,-394.62 580.76,-410.06 655.15,-419.76 708.65,-425.34"/>
<polygon fill="#63b8ff" stroke="#63b8ff" points="708.09,-428.9 718.4,-426.44 708.8,-421.94 708.09,-428.9"/>
</g>
<!-- Node14 -->
<g id="node14" class="node">
<title>Node14</title>
<g id="a_node14"><a xlink:href="classsss_1_1WebClient.html#a9bf978d95b79728f6d60fc2bdb4fe546" target="_top" xlink:title=" ">
<polygon fill="white" stroke="#666666" points="867.88,-404.25 695.88,-404.25 695.88,-385 867.88,-385 867.88,-404.25"/>
<text text-anchor="middle" x="781.88" y="-390.75" font-family="Helvetica,sans-Serif" font-size="10.00">sss::WebClient::SetReqParameters</text>
</a>
</g>
</g>
<!-- Node4&#45;&gt;Node14 -->
<g id="edge22" class="edge">
<title>Node4&#45;&gt;Node14</title>
<path fill="none" stroke="#63b8ff" d="M457.96,-365.72C476.52,-368.94 497.5,-372.27 516.75,-374.62 572.25,-381.4 634.6,-386.25 684.79,-389.48"/>
<polygon fill="#63b8ff" stroke="#63b8ff" points="684.43,-393.03 694.63,-390.16 684.87,-386.04 684.43,-393.03"/>
</g>
<!-- Node15 -->
<g id="node15" class="node">
<title>Node15</title>
<g id="a_node15"><a xlink:href="classsss_1_1api_1_1S3Api.html#a25a999d87c121627166fc0a896f536c7" target="_top" xlink:title=" ">
<polygon fill="white" stroke="#666666" points="651.25,-328.25 524.25,-328.25 524.25,-309 651.25,-309 651.25,-328.25"/>
<text text-anchor="middle" x="587.75" y="-314.75" font-family="Helvetica,sans-Serif" font-size="10.00">sss::api::S3Api::Endpoint</text>
</a>
</g>
</g>
<!-- Node4&#45;&gt;Node15 -->
<g id="edge14" class="edge">
<title>Node4&#45;&gt;Node15</title>
<path fill="none" stroke="#63b8ff" d="M454.21,-345.51C476.53,-340.99 503.03,-335.61 526.46,-330.86"/>
<polygon fill="#63b8ff" stroke="#63b8ff" points="526.87,-334.14 535.98,-328.72 525.48,-327.28 526.87,-334.14"/>
</g>
<!-- Node16 -->
<g id="node16" class="node">
<title>Node16</title>
<g id="a_node16"><a xlink:href="classsss_1_1api_1_1S3Api.html#a6f518c16679e99f119966b36ac28463f" target="_top" xlink:title=" ">
<polygon fill="white" stroke="#666666" points="646.38,-291.25 529.12,-291.25 529.12,-272 646.38,-272 646.38,-291.25"/>
<text text-anchor="middle" x="587.75" y="-277.75" font-family="Helvetica,sans-Serif" font-size="10.00">sss::api::S3Api::Secret</text>
</a>
</g>
</g>
<!-- Node4&#45;&gt;Node16 -->
<g id="edge15" class="edge">
<title>Node4&#45;&gt;Node16</title>
<path fill="none" stroke="#63b8ff" d="M421.76,-345.51C443.42,-333.26 481.83,-312.65 516.75,-299.62 521.5,-297.85 526.49,-296.19 531.53,-294.65"/>
<polygon fill="#63b8ff" stroke="#63b8ff" points="532.24,-297.8 540.88,-291.67 530.3,-291.08 532.24,-297.8"/>
</g>
<!-- Node17 -->
<g id="node17" class="node">
<title>Node17</title>
<g id="a_node17"><a xlink:href="classsss_1_1WebClient.html#afc3b7a92568fbb1ea447918920ca266e" target="_top" xlink:title="Set endpoint: &lt;proto&gt;://&lt;server&gt;:&lt;port&gt;">
<polygon fill="white" stroke="#666666" points="658.75,-254.25 516.75,-254.25 516.75,-235 658.75,-235 658.75,-254.25"/>
<text text-anchor="middle" x="587.75" y="-240.75" font-family="Helvetica,sans-Serif" font-size="10.00">sss::WebClient::SetEndpoint</text>
</a>
</g>
</g>
<!-- Node4&#45;&gt;Node17 -->
<g id="edge16" class="edge">
<title>Node4&#45;&gt;Node17</title>
<path fill="none" stroke="#63b8ff" d="M413.53,-345.53C431.45,-326.41 473.21,-284.83 516.75,-262.62 519.82,-261.06 523.05,-259.62 526.35,-258.3"/>
<polygon fill="#63b8ff" stroke="#63b8ff" points="527.19,-261.36 535.43,-254.69 524.83,-254.77 527.19,-261.36"/>
</g>
<!-- Node18 -->
<g id="node18" class="node">
<title>Node18</title>
<g id="a_node18"><a xlink:href="classsss_1_1WebClient.html#af6233ffd7b294e1e7e606e838dd44e9e" target="_top" xlink:title=" ">
<polygon fill="white" stroke="#666666" points="655.75,-217.25 519.75,-217.25 519.75,-198 655.75,-198 655.75,-217.25"/>
<text text-anchor="middle" x="587.75" y="-203.75" font-family="Helvetica,sans-Serif" font-size="10.00">sss::WebClient::SetMethod</text>
</a>
</g>
</g>
<!-- Node4&#45;&gt;Node18 -->
<g id="edge18" class="edge">
<title>Node4&#45;&gt;Node18</title>
<path fill="none" stroke="#63b8ff" d="M410,-345.68C424.38,-321.2 465.02,-257.69 516.75,-225.62 518.91,-224.29 521.17,-223.05 523.49,-221.9"/>
<polygon fill="#63b8ff" stroke="#63b8ff" points="524.53,-224.83 532.35,-217.68 521.78,-218.4 524.53,-224.83"/>
</g>
<!-- Node20 -->
<g id="node20" class="node">
<title>Node20</title>
<g id="a_node20"><a xlink:href="group__Sign.html#ga3ae8e18ef70752b7369fca66c40c526b" target="_top" xlink:title="Sign headers.">
<polygon fill="white" stroke="#666666" points="634.75,-365.25 540.75,-365.25 540.75,-346 634.75,-346 634.75,-365.25"/>
<text text-anchor="middle" x="587.75" y="-351.75" font-family="Helvetica,sans-Serif" font-size="10.00">sss::SignHeaders</text>
</a>
</g>
</g>
<!-- Node4&#45;&gt;Node20 -->
<g id="edge23" class="edge">
<title>Node4&#45;&gt;Node20</title>
<path fill="none" stroke="#63b8ff" d="M462.33,-355.62C483.82,-355.62 508.17,-355.62 529.59,-355.62"/>
<polygon fill="#63b8ff" stroke="#63b8ff" points="529.5,-359.13 539.5,-355.62 529.5,-352.13 529.5,-359.13"/>
</g>
<!-- Node7 -->
<g id="node7" class="node">
<title>Node7</title>
<g id="a_node7"><a xlink:href="classsss_1_1WebClient.html#a381f5715b7a2f19a0d4414d278874bae" target="_top" xlink:title="Clear internal buffers.">
<polygon fill="white" stroke="#666666" points="853.62,-515.25 710.12,-515.25 710.12,-496 853.62,-496 853.62,-515.25"/>
<text text-anchor="middle" x="781.88" y="-501.75" font-family="Helvetica,sans-Serif" font-size="10.00">sss::WebClient::ClearBuffers</text>
</a>
</g>
</g>
<!-- Node6&#45;&gt;Node7 -->
<g id="edge6" class="edge">
<title>Node6&#45;&gt;Node7</title>
<path fill="none" stroke="#63b8ff" d="M642.78,-479.75C665.59,-484.02 692.34,-489.04 716.19,-493.5"/>
<polygon fill="#63b8ff" stroke="#63b8ff" points="715.45,-497.11 725.92,-495.51 716.73,-490.23 715.45,-497.11"/>
</g>
<!-- Node8 -->
<g id="node8" class="node">
<title>Node8</title>
<g id="a_node8"><a xlink:href="classsss_1_1WebClient.html#a96837f149bb473853a6523d096a25c56" target="_top" xlink:title="Reset read/write functions to default.">
<polygon fill="white" stroke="#666666" points="869,-478.25 694.75,-478.25 694.75,-459 869,-459 869,-478.25"/>
<text text-anchor="middle" x="781.88" y="-464.75" font-family="Helvetica,sans-Serif" font-size="10.00">sss::WebClient::ResetRWFunctions</text>
</a>
</g>
</g>
<!-- Node6&#45;&gt;Node8 -->
<g id="edge7" class="edge">
<title>Node6&#45;&gt;Node8</title>
<path fill="none" stroke="#63b8ff" d="M644.06,-469.34C656.48,-469.27 670.02,-469.2 683.59,-469.13"/>
<polygon fill="#63b8ff" stroke="#63b8ff" points="683.48,-472.63 693.46,-469.07 683.44,-465.63 683.48,-472.63"/>
</g>
<!-- Node6&#45;&gt;Node11 -->
<g id="edge10" class="edge">
<title>Node6&#45;&gt;Node11</title>
<path fill="none" stroke="#63b8ff" d="M626.59,-479.68C637.35,-483.3 648.83,-487.94 658.75,-493.62 677.07,-504.13 675.82,-515.28 694.75,-524.62 698.07,-526.26 701.53,-527.75 705.08,-529.11"/>
<polygon fill="#63b8ff" stroke="#63b8ff" points="703.67,-532.66 714.27,-532.58 705.93,-526.04 703.67,-532.66"/>
</g>
<!-- Node6&#45;&gt;Node12 -->
<g id="edge11" class="edge">
<title>Node6&#45;&gt;Node12</title>
<path fill="none" stroke="#63b8ff" d="M639.73,-459.54C664.15,-454.71 693.59,-448.89 719.25,-443.81"/>
<polygon fill="#63b8ff" stroke="#63b8ff" points="719.86,-447.06 728.99,-441.69 718.5,-440.2 719.86,-447.06"/>
</g>
<!-- Node6&#45;&gt;Node13 -->
<g id="edge12" class="edge">
<title>Node6&#45;&gt;Node13</title>
<path fill="none" stroke="#63b8ff" d="M601.68,-479.59C615.94,-490.72 639.43,-509.43 658.75,-526.62 675.42,-541.46 675.16,-550.93 694.75,-561.62 699.23,-564.07 704,-566.22 708.91,-568.1"/>
<polygon fill="#63b8ff" stroke="#63b8ff" points="707.53,-571.68 718.13,-571.62 709.81,-565.06 707.53,-571.68"/>
</g>
<!-- Node6&#45;&gt;Node14 -->
<g id="edge13" class="edge">
<title>Node6&#45;&gt;Node14</title>
<path fill="none" stroke="#63b8ff" d="M603.9,-459.66C623.9,-446.94 660.59,-425.08 694.75,-412.62 699.91,-410.74 705.32,-409.04 710.81,-407.49"/>
<polygon fill="#63b8ff" stroke="#63b8ff" points="711.62,-410.63 720.41,-404.71 709.85,-403.86 711.62,-410.63"/>
</g>
<!-- Node9 -->
<g id="node9" class="node">
<title>Node9</title>
<g id="a_node9"><a xlink:href="classsss_1_1WebClient.html#a88dbcc61562e84aa9ebf1eabf887ac28" target="_top" xlink:title=" ">
<polygon fill="white" stroke="#666666" points="1069.5,-521.25 905,-521.25 905,-502 1069.5,-502 1069.5,-521.25"/>
<text text-anchor="middle" x="987.25" y="-507.75" font-family="Helvetica,sans-Serif" font-size="10.00">sss::WebClient::SetReadFunction</text>
</a>
</g>
</g>
<!-- Node8&#45;&gt;Node9 -->
<g id="edge8" class="edge">
<title>Node8&#45;&gt;Node9</title>
<path fill="none" stroke="#63b8ff" d="M831.17,-478.68C843.5,-481.26 856.74,-484.04 869,-486.62 888.41,-490.72 909.62,-495.24 928.6,-499.29"/>
<polygon fill="#63b8ff" stroke="#63b8ff" points="927.68,-502.88 938.19,-501.55 929.14,-496.03 927.68,-502.88"/>
</g>
<!-- Node10 -->
<g id="node10" class="node">
<title>Node10</title>
<g id="a_node10"><a xlink:href="classsss_1_1WebClient.html#a002876073b3869a9b9a9d709d14f1d7e" target="_top" xlink:title=" ">
<polygon fill="white" stroke="#666666" points="1050.38,-483.88 924.12,-483.88 924.12,-453.38 1050.38,-453.38 1050.38,-483.88"/>
<text text-anchor="start" x="932.12" y="-470.38" font-family="Helvetica,sans-Serif" font-size="10.00">sss::WebClient::SetWrite</text>
<text text-anchor="middle" x="987.25" y="-459.12" font-family="Helvetica,sans-Serif" font-size="10.00">Function</text>
</a>
</g>
</g>
<!-- Node8&#45;&gt;Node10 -->
<g id="edge9" class="edge">
<title>Node8&#45;&gt;Node10</title>
<path fill="none" stroke="#63b8ff" d="M869.42,-468.62C883.98,-468.62 898.96,-468.62 913.14,-468.62"/>
<polygon fill="#63b8ff" stroke="#63b8ff" points="912.8,-472.13 922.8,-468.62 912.8,-465.13 912.8,-472.13"/>
</g>
<!-- Node19 -->
<g id="node19" class="node">
<title>Node19</title>
<g id="a_node19"><a xlink:href="lib_2include_2utility_8h.html#ae153c064d6f1beda845702f67605b20e" target="_top" xlink:title=" ">
<polygon fill="white" stroke="#666666" points="1024.5,-195.25 950,-195.25 950,-176 1024.5,-176 1024.5,-195.25"/>
<text text-anchor="middle" x="987.25" y="-181.75" font-family="Helvetica,sans-Serif" font-size="10.00">sss::ToUpper</text>
</a>
</g>
</g>
<!-- Node18&#45;&gt;Node19 -->
<g id="edge19" class="edge">
<title>Node18&#45;&gt;Node19</title>
<path fill="none" stroke="#63b8ff" d="M656.18,-203.89C736.5,-199.45 868.6,-192.14 938.86,-188.25"/>
<polygon fill="#63b8ff" stroke="#63b8ff" points="938.79,-191.7 948.58,-187.65 938.41,-184.71 938.79,-191.7"/>
</g>
<!-- Node19&#45;&gt;Node19 -->
<g id="edge20" class="edge">
<title>Node19&#45;&gt;Node19</title>
<path fill="none" stroke="#63b8ff" d="M955.1,-195.54C940.43,-204.15 951.15,-213.25 987.25,-213.25 1010.38,-213.25 1023.09,-209.51 1025.38,-204.56"/>
<polygon fill="#63b8ff" stroke="#63b8ff" points="1027.84,-202.94 1019.4,-196.54 1022.01,-206.81 1027.84,-202.94"/>
</g>
<!-- Node21 -->
<g id="node21" class="node">
<title>Node21</title>
<g id="a_node21"><a xlink:href="group__Ranges.html#ga0aa7f3b15d2ebf9b597a1b5ba38ae8ac" target="_top" xlink:title="return iterator at start position">
<polygon fill="white" stroke="#666666" points="1017.75,-435.25 956.75,-435.25 956.75,-416 1017.75,-416 1017.75,-435.25"/>
<text text-anchor="middle" x="987.25" y="-421.75" font-family="Helvetica,sans-Serif" font-size="10.00">sss::begin</text>
</a>
</g>
</g>
<!-- Node20&#45;&gt;Node21 -->
<g id="edge24" class="edge">
<title>Node20&#45;&gt;Node21</title>
<path fill="none" stroke="#63b8ff" d="M635.25,-350.08C692.63,-345.19 792.03,-343.18 869,-375.62 888.73,-383.94 885.94,-397.89 905,-407.62 917.59,-414.06 932.42,-418.2 945.95,-420.87"/>
<polygon fill="#63b8ff" stroke="#63b8ff" points="944.99,-424.43 955.45,-422.7 946.2,-417.53 944.99,-424.43"/>
</g>
<!-- Node22 -->
<g id="node22" class="node">
<title>Node22</title>
<g id="a_node22"><a xlink:href="group__Sign.html#ga532598da479904609d6c02e4c2a1311a" target="_top" xlink:title="Compute signature.">
<polygon fill="white" stroke="#666666" points="841.25,-288.25 722.5,-288.25 722.5,-269 841.25,-269 841.25,-288.25"/>
<text text-anchor="middle" x="781.88" y="-274.75" font-family="Helvetica,sans-Serif" font-size="10.00">sss::ComputeSignature</text>
</a>
</g>
</g>
<!-- Node20&#45;&gt;Node22 -->
<g id="edge25" class="edge">
<title>Node20&#45;&gt;Node22</title>
<path fill="none" stroke="#63b8ff" d="M635.16,-347.12C643.29,-344.68 651.47,-341.57 658.75,-337.62 677.83,-327.28 675.89,-315.36 694.75,-304.62 703.61,-299.58 713.56,-295.41 723.46,-292.01"/>
<polygon fill="#63b8ff" stroke="#63b8ff" points="724.26,-295.11 732.72,-288.73 722.13,-288.44 724.26,-295.11"/>
</g>
<!-- Node24 -->
<g id="node24" class="node">
<title>Node24</title>
<g id="a_node24"><a xlink:href="group__Ranges.html#ga4f73053571587e79eb3db628f5e6ef99" target="_top" xlink:title="return iterator at end position">
<polygon fill="white" stroke="#666666" points="1014,-398.25 960.5,-398.25 960.5,-379 1014,-379 1014,-398.25"/>
<text text-anchor="middle" x="987.25" y="-384.75" font-family="Helvetica,sans-Serif" font-size="10.00">sss::end</text>
</a>
</g>
</g>
<!-- Node20&#45;&gt;Node24 -->
<g id="edge36" class="edge">
<title>Node20&#45;&gt;Node24</title>
<path fill="none" stroke="#63b8ff" d="M625.35,-345.56C680.05,-332.36 785.61,-314.01 869,-342.62 888.17,-349.2 886.66,-362 905,-370.62 918.86,-377.14 935.17,-381.35 949.52,-384.04"/>
<polygon fill="#63b8ff" stroke="#63b8ff" points="948.6,-387.6 959.05,-385.81 949.77,-380.7 948.6,-387.6"/>
</g>
<!-- Node22&#45;&gt;Node19 -->
<g id="edge34" class="edge">
<title>Node22&#45;&gt;Node19</title>
<path fill="none" stroke="#63b8ff" d="M804,-268.61C828.3,-257.13 869.43,-237.8 905,-221.62 920.86,-214.41 938.54,-206.56 953.35,-200.03"/>
<polygon fill="#63b8ff" stroke="#63b8ff" points="954.34,-202.98 962.08,-195.75 951.52,-196.57 954.34,-202.98"/>
</g>
<!-- Node22&#45;&gt;Node21 -->
<g id="edge26" class="edge">
<title>Node22&#45;&gt;Node21</title>
<path fill="none" stroke="#63b8ff" d="M800.46,-288.57C819.2,-299.83 848.88,-319.63 869,-342.62 890.74,-367.48 878.54,-387.86 905,-407.62 916.6,-416.29 931.57,-420.93 945.49,-423.37"/>
<polygon fill="#63b8ff" stroke="#63b8ff" points="944.96,-426.97 955.35,-424.88 945.93,-420.03 944.96,-426.97"/>
</g>
<!-- Node23 -->
<g id="node23" class="node">
<title>Node23</title>
<g id="a_node23"><a xlink:href="group__Internal.html#ga74c69f25ce04876e114759c0023b2a12" target="_top" xlink:title=" ">
<polygon fill="white" stroke="#666666" points="1050,-287.25 924.5,-287.25 924.5,-268 1050,-268 1050,-287.25"/>
<text text-anchor="middle" x="987.25" y="-273.75" font-family="Helvetica,sans-Serif" font-size="10.00">sss::CreateSignatureKey</text>
</a>
</g>
</g>
<!-- Node22&#45;&gt;Node23 -->
<g id="edge27" class="edge">
<title>Node22&#45;&gt;Node23</title>
<path fill="none" stroke="#63b8ff" d="M841.7,-278.34C863.98,-278.23 889.62,-278.1 913.06,-277.98"/>
<polygon fill="#63b8ff" stroke="#63b8ff" points="913.03,-281.48 923.01,-277.93 913,-274.48 913.03,-281.48"/>
</g>
<!-- Node22&#45;&gt;Node24 -->
<g id="edge28" class="edge">
<title>Node22&#45;&gt;Node24</title>
<path fill="none" stroke="#63b8ff" d="M838.87,-288.62C849.64,-292.37 860.27,-297.53 869,-304.62 894.93,-325.7 878.29,-350.54 905,-370.62 917.73,-380.2 934.56,-384.86 949.61,-387.07"/>
<polygon fill="#63b8ff" stroke="#63b8ff" points="948.82,-390.62 959.16,-388.28 949.62,-383.67 948.82,-390.62"/>
</g>
<!-- Node25 -->
<g id="node25" class="node">
<title>Node25</title>
<g id="a_node25"><a xlink:href="group__Internal.html#ga50353a351a93b1213dc4e5211c767d85" target="_top" xlink:title=" ">
<polygon fill="white" stroke="#666666" points="1027.12,-250.25 947.38,-250.25 947.38,-231 1027.12,-231 1027.12,-250.25"/>
<text text-anchor="middle" x="987.25" y="-236.75" font-family="Helvetica,sans-Serif" font-size="10.00">sss::GetDates</text>
</a>
</g>
</g>
<!-- Node22&#45;&gt;Node25 -->
<g id="edge29" class="edge">
<title>Node22&#45;&gt;Node25</title>
<path fill="none" stroke="#63b8ff" d="M836.84,-268.54C867.76,-262.76 906.29,-255.57 936.48,-249.92"/>
<polygon fill="#63b8ff" stroke="#63b8ff" points="937.01,-253.2 946.19,-247.92 935.72,-246.32 937.01,-253.2"/>
</g>
<!-- Node26 -->
<g id="node26" class="node">
<title>Node26</title>
<g id="a_node26"><a xlink:href="group__Internal.html#ga990dfaae4abc6bf20a28f9772b7bcd16" target="_top" xlink:title="Byte to hex string conversion.">
<polygon fill="white" stroke="#666666" points="1015.12,-361.25 959.38,-361.25 959.38,-342 1015.12,-342 1015.12,-361.25"/>
<text text-anchor="middle" x="987.25" y="-347.75" font-family="Helvetica,sans-Serif" font-size="10.00">sss::Hex</text>
</a>
</g>
</g>
<!-- Node22&#45;&gt;Node26 -->
<g id="edge30" class="edge">
<title>Node22&#45;&gt;Node26</title>
<path fill="none" stroke="#63b8ff" d="M827.98,-288.71C841.6,-292.67 856.29,-297.92 869,-304.62 887.17,-314.22 886.48,-324.72 905,-333.62 918.36,-340.05 934.06,-344.21 948.07,-346.9"/>
<polygon fill="#63b8ff" stroke="#63b8ff" points="947.43,-350.51 957.88,-348.75 948.61,-343.61 947.43,-350.51"/>
</g>
<!-- Node27 -->
<g id="node27" class="node">
<title>Node27</title>
<g id="a_node27"><a xlink:href="group__Internal.html#ga7160aa316f2c6633467b47588263c690" target="_top" xlink:title=" ">
<polygon fill="white" stroke="#666666" points="1029,-324.25 945.5,-324.25 945.5,-305 1029,-305 1029,-324.25"/>
<text text-anchor="middle" x="987.25" y="-310.75" font-family="Helvetica,sans-Serif" font-size="10.00">sss::ParseURL</text>
</a>
</g>
</g>
<!-- Node22&#45;&gt;Node27 -->
<g id="edge31" class="edge">
<title>Node22&#45;&gt;Node27</title>
<path fill="none" stroke="#63b8ff" d="M840.07,-288.75C869.76,-294 905.75,-300.38 934.6,-305.48"/>
<polygon fill="#63b8ff" stroke="#63b8ff" points="933.81,-309.07 944.27,-307.37 935.03,-302.18 933.81,-309.07"/>
</g>
<!-- Node22&#45;&gt;Node28 -->
<g id="edge32" class="edge">
<title>Node22&#45;&gt;Node28</title>
<path fill="none" stroke="#63b8ff" d="M791.5,-268.79C810.35,-247.76 857.34,-197.82 905,-166.62 918.19,-157.99 933.8,-150.51 947.79,-144.64"/>
<polygon fill="#63b8ff" stroke="#63b8ff" points="948.68,-147.65 956.64,-140.66 946.05,-141.17 948.68,-147.65"/>
</g>
<!-- Node29 -->
<g id="node29" class="node">
<title>Node29</title>
<g id="a_node29"><a xlink:href="group__Internal.html#ga0f079ace8729714b3949eabe22f228c9" target="_top" xlink:title=" ">
<polygon fill="white" stroke="#666666" points="1029,-102.25 945.5,-102.25 945.5,-83 1029,-83 1029,-102.25"/>
<text text-anchor="middle" x="987.25" y="-88.75" font-family="Helvetica,sans-Serif" font-size="10.00">sss::UrlEncode</text>
</a>
</g>
</g>
<!-- Node22&#45;&gt;Node29 -->
<g id="edge35" class="edge">
<title>Node22&#45;&gt;Node29</title>
<path fill="none" stroke="#63b8ff" d="M787.01,-268.84C799.82,-239.78 841.8,-153.45 905,-111.62 913.79,-105.81 924.14,-101.77 934.46,-98.96"/>
<polygon fill="#63b8ff" stroke="#63b8ff" points="935.2,-102.14 944.13,-96.45 933.6,-95.33 935.2,-102.14"/>
</g>
<!-- Node28&#45;&gt;Node28 -->
<g id="edge33" class="edge">
<title>Node28&#45;&gt;Node28</title>
<path fill="none" stroke="#63b8ff" d="M955.1,-140.54C940.43,-149.15 951.15,-158.25 987.25,-158.25 1010.38,-158.25 1023.09,-154.51 1025.38,-149.56"/>
<polygon fill="#63b8ff" stroke="#63b8ff" points="1027.84,-147.94 1019.4,-141.54 1022.01,-151.81 1027.84,-147.94"/>
</g>
<!-- Node33&#45;&gt;Node29 -->
<g id="edge42" class="edge">
<title>Node33&#45;&gt;Node29</title>
<path fill="none" stroke="#63b8ff" d="M481.04,-90.02C601.48,-90.64 831.86,-91.83 934.59,-92.36"/>
<polygon fill="#63b8ff" stroke="#63b8ff" points="934.28,-95.86 944.3,-92.41 934.32,-88.86 934.28,-95.86"/>
</g>
<!-- Node34&#45;&gt;Node18 -->
<g id="edge46" class="edge">
<title>Node34&#45;&gt;Node18</title>
<path fill="none" stroke="#63b8ff" d="M474.1,-211.33C485.38,-210.96 497.12,-210.57 508.59,-210.2"/>
<polygon fill="#63b8ff" stroke="#63b8ff" points="508.59,-213.67 518.47,-209.84 508.36,-206.67 508.59,-213.67"/>
</g>
<!-- Node34&#45;&gt;Node32 -->
<g id="edge45" class="edge">
<title>Node34&#45;&gt;Node32</title>
<path fill="none" stroke="#63b8ff" d="M470.99,-197.92C491.51,-193.08 513.82,-187.82 533.33,-183.22"/>
<polygon fill="#63b8ff" stroke="#63b8ff" points="533.93,-186.44 542.86,-180.74 532.32,-179.63 533.93,-186.44"/>
</g>
</g>
</svg>
        <g id="navigator" transform="translate(0 0)" fill="#404254">
                <rect fill="#f2f5e9" fill-opacity="0.5" stroke="#606060" stroke-width=".5" x="0" y="0" width="60" height="60"/>
                <use id="zoomplus" xlink:href="#zoomPlus" x="17" y="9" onmousedown="handleZoom(evt,'in')"/>
                <use id="zoomminus" xlink:href="#zoomMin" x="42" y="9" onmousedown="handleZoom(evt,'out')"/>
                <use id="reset" xlink:href="#resetDef" x="30" y="36" onmousedown="handleReset()"/>
                <g id="arrowUp" xlink:href="#dirArrow" transform="translate(30 24)" onmousedown="handlePan(0,-1)">
                  <use xlink:href="#rim" fill="#404040">
                        <set attributeName="fill" to="#808080" begin="arrowUp.mouseover" end="arrowUp.mouseout"/>
                  </use>
                  <path fill="none" stroke="white" stroke-width="1.5" d="M0,-3.0v7 M-2.5,-0.5L0,-3.0L2.5,-0.5"/>
                </g>
                <g id="arrowRight" xlink:href="#dirArrow" transform="rotate(90) translate(36 -43)" onmousedown="handlePan(1,0)">
                  <use xlink:href="#rim" fill="#404040">
                        <set attributeName="fill" to="#808080" begin="arrowRight.mouseover" end="arrowRight.mouseout"/>
                  </use>
                  <path fill="none" stroke="white" stroke-width="1.5" d="M0,-3.0v7 M-2.5,-0.5L0,-3.0L2.5,-0.5"/>
                </g>
                <g id="arrowDown" xlink:href="#dirArrow" transform="rotate(180) translate(-30 -48)" onmousedown="handlePan(0,1)">
                  <use xlink:href="#rim" fill="#404040">
                        <set attributeName="fill" to="#808080" begin="arrowDown.mouseover" end="arrowDown.mouseout"/>
                  </use>
                  <path fill="none" stroke="white" stroke-width="1.5" d="M0,-3.0v7 M-2.5,-0.5L0,-3.0L2.5,-0.5"/>
                </g>
                <g id="arrowLeft" xlink:href="#dirArrow" transform="rotate(270) translate(-36 17)" onmousedown="handlePan(-1,0)">
                  <use xlink:href="#rim" fill="#404040">
                        <set attributeName="fill" to="#808080" begin="arrowLeft.mouseover" end="arrowLeft.mouseout"/>
                  </use>
                  <path fill="none" stroke="white" stroke-width="1.5" d="M0,-3.0v7 M-2.5,-0.5L0,-3.0L2.5,-0.5"/>
                </g>
        </g>
        <svg viewBox="0 0 15 15" width="100%" height="30px" preserveAspectRatio="xMaxYMin meet">
         <g id="arrow_out" transform="scale(0.3 0.3)">
          <a xlink:href="classsss_1_1api_1_1S3Api_aa4a2b1cc2c89a52d1aa89e571b785db2_cgraph_org.svg" target="_base">
           <rect id="button" ry="5" rx="5" y="6" x="6" height="38" width="38"
                fill="#f2f5e9" fill-opacity="0.5" stroke="#606060" stroke-width="1.0"/>
           <path id="arrow"
             d="M 11.500037,31.436501 C 11.940474,20.09759 22.043105,11.32322 32.158766,21.979434 L 37.068811,17.246167 C 37.068811,17.246167 37.088388,32 37.088388,32 L 22.160133,31.978069 C 22.160133,31.978069 26.997745,27.140456 26.997745,27.140456 C 18.528582,18.264221 13.291696,25.230495 11.500037,31.436501 z"
             style="fill:#404040;"/>
          </a>
         </g>
        </svg>
</svg>
