<?xml version="1.0" encoding="UTF-8" standalone="no"?>
<!DOCTYPE svg PUBLIC "-//W3C//DTD SVG 1.1//EN"
 "http://www.w3.org/Graphics/SVG/1.1/DTD/svg11.dtd">
<!-- Generated by graphviz version 2.43.0 (0)
 -->
<!-- Title: XMLOStream::Move Pages: 1 -->
<svg width="265pt" height="104pt"
 viewBox="0.00 0.00 265.00 104.00" xmlns="http://www.w3.org/2000/svg" xmlns:xlink="http://www.w3.org/1999/xlink">
<g id="graph0" class="graph" transform="scale(1 1) rotate(0) translate(4 100)">
<title>XMLOStream::Move</title>
<!-- Node1 -->
<g id="node1" class="node">
<title>Node1</title>
<g id="a_node1"><a xlink:title=" ">
<polygon fill="#bfbfbf" stroke="black" points="0,-38.5 0,-57.5 106,-57.5 106,-38.5 0,-38.5"/>
<text text-anchor="middle" x="53" y="-45.5" font-family="Helvetica,sans-Serif" font-size="10.00">XMLOStream::Move</text>
</a>
</g>
</g>
<!-- Node2 -->
<g id="node2" class="node">
<title>Node2</title>
<g id="a_node2"><a xlink:href="classXMLOStream.html#a6fbcc3e20dbd9f8a6c7043d1f60f4d6b" target="_top" xlink:title=" ">
<polygon fill="none" stroke="black" points="146,-76.5 146,-95.5 253,-95.5 253,-76.5 146,-76.5"/>
<text text-anchor="middle" x="199.5" y="-83.5" font-family="Helvetica,sans-Serif" font-size="10.00">XMLOStream::Down</text>
</a>
</g>
</g>
<!-- Node1&#45;&gt;Node2 -->
<g id="edge1" class="edge">
<title>Node1&#45;&gt;Node2</title>
<path fill="none" stroke="midnightblue" d="M90.46,-57.59C109.27,-62.54 132.41,-68.62 152.45,-73.89"/>
<polygon fill="midnightblue" stroke="midnightblue" points="151.74,-77.32 162.3,-76.48 153.52,-70.55 151.74,-77.32"/>
</g>
<!-- Node3 -->
<g id="node3" class="node">
<title>Node3</title>
<g id="a_node3"><a xlink:href="classXMLOStream.html#a88a87268938a7919f2c27ea3f2af6b88" target="_top" xlink:title="Move pointer to current node to root.">
<polygon fill="none" stroke="black" points="142,-38.5 142,-57.5 257,-57.5 257,-38.5 142,-38.5"/>
<text text-anchor="middle" x="199.5" y="-45.5" font-family="Helvetica,sans-Serif" font-size="10.00">XMLOStream::Rewind</text>
</a>
</g>
</g>
<!-- Node1&#45;&gt;Node3 -->
<g id="edge2" class="edge">
<title>Node1&#45;&gt;Node3</title>
<path fill="none" stroke="midnightblue" d="M106.17,-48C114.33,-48 122.86,-48 131.3,-48"/>
<polygon fill="midnightblue" stroke="midnightblue" points="131.52,-51.5 141.52,-48 131.52,-44.5 131.52,-51.5"/>
</g>
<!-- Node4 -->
<g id="node4" class="node">
<title>Node4</title>
<g id="a_node4"><a xlink:href="classXMLOStream.html#acd90de3b7bb6abc73df983624a26acb2" target="_top" xlink:title=" ">
<polygon fill="none" stroke="black" points="152,-0.5 152,-19.5 247,-19.5 247,-0.5 152,-0.5"/>
<text text-anchor="middle" x="199.5" y="-7.5" font-family="Helvetica,sans-Serif" font-size="10.00">XMLOStream::Up</text>
</a>
</g>
</g>
<!-- Node1&#45;&gt;Node4 -->
<g id="edge3" class="edge">
<title>Node1&#45;&gt;Node4</title>
<path fill="none" stroke="midnightblue" d="M90.46,-38.41C109.27,-33.46 132.41,-27.38 152.45,-22.11"/>
<polygon fill="midnightblue" stroke="midnightblue" points="153.52,-25.45 162.3,-19.52 151.74,-18.68 153.52,-25.45"/>
</g>
</g>
</svg>
