<?xml version="1.0" encoding="UTF-8" standalone="no"?>
<!DOCTYPE svg PUBLIC "-//W3C//DTD SVG 1.1//EN"
 "http://www.w3.org/Graphics/SVG/1.1/DTD/svg11.dtd">
<!-- Generated by graphviz version 2.43.0 (0)
 -->
<!-- Title: sss::WebClient::GetResponseBody Pages: 1 -->
<svg width="374pt" height="66pt"
 viewBox="0.00 0.00 374.00 66.00" xmlns="http://www.w3.org/2000/svg" xmlns:xlink="http://www.w3.org/1999/xlink">
<g id="graph0" class="graph" transform="scale(1 1) rotate(0) translate(4 62)">
<title>sss::WebClient::GetResponseBody</title>
<!-- Node1 -->
<g id="node1" class="node">
<title>Node1</title>
<g id="a_node1"><a xlink:title=" ">
<polygon fill="#bfbfbf" stroke="black" points="194,-19.5 194,-38.5 366,-38.5 366,-19.5 194,-19.5"/>
<text text-anchor="middle" x="280" y="-26.5" font-family="Helvetica,sans-Serif" font-size="10.00">sss::WebClient::GetResponseBody</text>
</a>
</g>
</g>
<!-- Node2 -->
<g id="node2" class="node">
<title>Node2</title>
<g id="a_node2"><a xlink:href="classsss_1_1WebClient.html#ac9e82fc4b56b142d91f9b104f5266f91" target="_top" xlink:title="Get response body as text.">
<polygon fill="none" stroke="black" points="0,-38.5 0,-57.5 158,-57.5 158,-38.5 0,-38.5"/>
<text text-anchor="middle" x="79" y="-45.5" font-family="Helvetica,sans-Serif" font-size="10.00">sss::WebClient::GetContentText</text>
</a>
</g>
</g>
<!-- Node1&#45;&gt;Node2 -->
<g id="edge1" class="edge">
<title>Node1&#45;&gt;Node2</title>
<path fill="none" stroke="midnightblue" d="M183.72,-38.1C175.16,-38.91 166.55,-39.74 158.16,-40.54"/>
<polygon fill="midnightblue" stroke="midnightblue" points="184.12,-41.58 193.74,-37.14 183.45,-34.61 184.12,-41.58"/>
</g>
<!-- Node3 -->
<g id="node3" class="node">
<title>Node3</title>
<g id="a_node3"><a xlink:href="classsss_1_1api_1_1S3Api.html#ac1463274896e5191d1315075539f84b4" target="_top" xlink:title=" ">
<polygon fill="none" stroke="black" points="12,-0.5 12,-19.5 146,-19.5 146,-0.5 12,-0.5"/>
<text text-anchor="middle" x="79" y="-7.5" font-family="Helvetica,sans-Serif" font-size="10.00">sss::api::S3Api::GetObject</text>
</a>
</g>
</g>
<!-- Node1&#45;&gt;Node3 -->
<g id="edge2" class="edge">
<title>Node1&#45;&gt;Node3</title>
<path fill="none" stroke="midnightblue" d="M183.61,-19.89C170.93,-18.68 158.17,-17.46 146.14,-16.31"/>
<polygon fill="midnightblue" stroke="midnightblue" points="183.45,-23.39 193.74,-20.86 184.12,-16.42 183.45,-23.39"/>
</g>
</g>
</svg>
