<?xml version="1.0" encoding="UTF-8" standalone="no"?>
<!DOCTYPE svg PUBLIC "-//W3C//DTD SVG 1.1//EN"
 "http://www.w3.org/Graphics/SVG/1.1/DTD/svg11.dtd">
<!-- Generated by graphviz version 2.43.0 (0)
 -->
<!-- Title: sss::WebClient::SetWriteFunction Pages: 1 -->
<!--zoomable 1081 -->
<svg id="main" version="1.1" xmlns="http://www.w3.org/2000/svg" xmlns:xlink="http://www.w3.org/1999/xlink" xml:space="preserve" onload="init(evt)">
<style type="text/css"><![CDATA[
.edge:hover path { stroke: red; }
.edge:hover polygon { stroke: red; fill: red; }
]]></style>
<script type="text/javascript"><![CDATA[
var edges = document.getElementsByTagName('g');
if (edges && edges.length) {
  for (var i=0;i<edges.length;i++) {
    if (edges[i].id.substr(0,4)=='edge') {
      edges[i].setAttribute('class','edge');
    }
  }
}
]]></script>
        <defs>
                <circle id="rim" cx="0" cy="0" r="7"/>
                <circle id="rim2" cx="0" cy="0" r="3.5"/>
                <g id="zoomPlus">
                        <use xlink:href="#rim" fill="#404040">
                                <set attributeName="fill" to="#808080" begin="zoomplus.mouseover" end="zoomplus.mouseout"/>
                        </use>
                        <path d="M-4,0h8M0,-4v8" fill="none" stroke="white" stroke-width="1.5" pointer-events="none"/>
                </g>
                <g id="zoomMin">
                        <use xlink:href="#rim" fill="#404040">
                                <set attributeName="fill" to="#808080" begin="zoomminus.mouseover" end="zoomminus.mouseout"/>
                        </use>
                        <path d="M-4,0h8" fill="none" stroke="white" stroke-width="1.5" pointer-events="none"/>
                </g>
                <g id="dirArrow">
                        <path fill="none" stroke="white" stroke-width="1.5" d="M0,-3.0v7 M-2.5,-0.5L0,-3.0L2.5,-0.5"/>
                </g>
               <g id="resetDef">
                       <use xlink:href="#rim2" fill="#404040">
                               <set attributeName="fill" to="#808080" begin="reset.mouseover" end="reset.mouseout"/>
                       </use>
               </g>
        </defs>

<script type="text/javascript">
var viewWidth = 1187;
var viewHeight = 1081;
var sectionId = 'dynsection-15';
</script>
<script xlink:href="svgpan.js"/>
<svg id="graph" class="graph">
<g id="viewport">
<title>sss::WebClient::SetWriteFunction</title>
<!-- Node1 -->
<g id="node1" class="node">
<title>Node1</title>
<g id="a_node1"><a xlink:title=" ">
<polygon fill="#bfbfbf" stroke="black" points="1052,-526 1052,-556 1179,-556 1179,-526 1052,-526"/>
<text text-anchor="start" x="1060" y="-544" font-family="Helvetica,sans-Serif" font-size="10.00">sss::WebClient::SetWrite</text>
<text text-anchor="middle" x="1115.5" y="-533" font-family="Helvetica,sans-Serif" font-size="10.00">Function</text>
</a>
</g>
</g>
<!-- Node2 -->
<g id="node2" class="node">
<title>Node2</title>
<g id="a_node2"><a xlink:href="classsss_1_1api_1_1S3Api.html#ac2848a787b6656ee031822a1ad698de4" target="_top" xlink:title="Download object into file.">
<polygon fill="none" stroke="black" points="381,-575 381,-605 502,-605 502,-575 381,-575"/>
<text text-anchor="start" x="389" y="-593" font-family="Helvetica,sans-Serif" font-size="10.00">sss::api::S3Api::GetFile</text>
<text text-anchor="middle" x="441.5" y="-582" font-family="Helvetica,sans-Serif" font-size="10.00">Object</text>
</a>
</g>
</g>
<!-- Node1&#45;&gt;Node2 -->
<g id="edge1" class="edge">
<title>Node1&#45;&gt;Node2</title>
<path fill="none" stroke="midnightblue" d="M1041.8,-556.19C1033.13,-557.66 1024.39,-558.98 1016,-560 829.44,-582.76 606.68,-588.27 502.18,-589.59"/>
<polygon fill="midnightblue" stroke="midnightblue" points="1042.67,-559.6 1051.91,-554.42 1041.46,-552.7 1042.67,-559.6"/>
</g>
<!-- Node3 -->
<g id="node3" class="node">
<title>Node3</title>
<g id="a_node3"><a xlink:href="classsss_1_1WebClient.html#a96837f149bb473853a6523d096a25c56" target="_top" xlink:title="Reset read/write functions to default.">
<polygon fill="none" stroke="black" points="841,-531.5 841,-550.5 1016,-550.5 1016,-531.5 841,-531.5"/>
<text text-anchor="middle" x="928.5" y="-538.5" font-family="Helvetica,sans-Serif" font-size="10.00">sss::WebClient::ResetRWFunctions</text>
</a>
</g>
</g>
<!-- Node1&#45;&gt;Node3 -->
<g id="edge2" class="edge">
<title>Node1&#45;&gt;Node3</title>
<path fill="none" stroke="midnightblue" d="M1041.71,-541C1033.28,-541 1024.62,-541 1016.02,-541"/>
<polygon fill="midnightblue" stroke="midnightblue" points="1041.87,-544.5 1051.87,-541 1041.87,-537.5 1041.87,-544.5"/>
</g>
<!-- Node33 -->
<g id="node33" class="node">
<title>Node33</title>
<g id="a_node33"><a xlink:href="classsss_1_1api_1_1S3Api.html#a0473917e4d25a4a6fca40d097e4299d6" target="_top" xlink:title=" ">
<polygon fill="none" stroke="black" points="211,-0.5 211,-19.5 323,-19.5 323,-0.5 211,-0.5"/>
<text text-anchor="middle" x="267" y="-7.5" font-family="Helvetica,sans-Serif" font-size="10.00">sss::api::S3Api::Send</text>
</a>
</g>
</g>
<!-- Node1&#45;&gt;Node33 -->
<g id="edge35" class="edge">
<title>Node1&#45;&gt;Node33</title>
<path fill="none" stroke="midnightblue" d="M1100.87,-517.36C1058.55,-447.36 921.83,-246 749.5,-246 749.5,-246 749.5,-246 596,-246 448.53,-246 475.98,-96.76 345,-29 337.54,-25.14 329.26,-22.04 320.98,-19.56"/>
<polygon fill="midnightblue" stroke="midnightblue" points="1097.87,-519.16 1106,-525.97 1103.89,-515.58 1097.87,-519.16"/>
</g>
<!-- Node4 -->
<g id="node4" class="node">
<title>Node4</title>
<g id="a_node4"><a xlink:href="classsss_1_1api_1_1S3Api.html#a3718745d3b940462ae9f3b78f773b3a6" target="_top" xlink:title="Clear data and reset read and write functions.">
<polygon fill="none" stroke="black" points="692,-531.5 692,-550.5 805,-550.5 805,-531.5 692,-531.5"/>
<text text-anchor="middle" x="748.5" y="-538.5" font-family="Helvetica,sans-Serif" font-size="10.00">sss::api::S3Api::Clear</text>
</a>
</g>
</g>
<!-- Node3&#45;&gt;Node4 -->
<g id="edge3" class="edge">
<title>Node3&#45;&gt;Node4</title>
<path fill="none" stroke="midnightblue" d="M830.71,-541C822.09,-541 813.57,-541 805.48,-541"/>
<polygon fill="midnightblue" stroke="midnightblue" points="830.85,-544.5 840.85,-541 830.85,-537.5 830.85,-544.5"/>
</g>
<!-- Node5 -->
<g id="node5" class="node">
<title>Node5</title>
<g id="a_node5"><a xlink:href="classsss_1_1api_1_1S3Api.html#a840772746fbb0a79c161037da7b24a31" target="_top" xlink:title="Configure instance.">
<polygon fill="none" stroke="black" points="538,-531.5 538,-550.5 656,-550.5 656,-531.5 538,-531.5"/>
<text text-anchor="middle" x="597" y="-538.5" font-family="Helvetica,sans-Serif" font-size="10.00">sss::api::S3Api::Config</text>
</a>
</g>
</g>
<!-- Node4&#45;&gt;Node5 -->
<g id="edge4" class="edge">
<title>Node4&#45;&gt;Node5</title>
<path fill="none" stroke="midnightblue" d="M681.62,-541C673.16,-541 664.54,-541 656.22,-541"/>
<polygon fill="midnightblue" stroke="midnightblue" points="681.83,-544.5 691.83,-541 681.83,-537.5 681.83,-544.5"/>
</g>
<!-- Node5&#45;&gt;Node2 -->
<g id="edge5" class="edge">
<title>Node5&#45;&gt;Node2</title>
<path fill="none" stroke="midnightblue" d="M556.43,-553.63C536.03,-560.14 511,-568.13 489.61,-574.96"/>
<polygon fill="midnightblue" stroke="midnightblue" points="557.58,-556.94 566.04,-550.56 555.45,-550.27 557.58,-556.94"/>
</g>
<!-- Node6 -->
<g id="node6" class="node">
<title>Node6</title>
<g id="a_node6"><a xlink:href="classsss_1_1api_1_1S3Api.html#ab7affe0834f5892b393e731783b7ccac" target="_top" xlink:title="Upload file to object.">
<polygon fill="none" stroke="black" points="381.5,-526 381.5,-556 501.5,-556 501.5,-526 381.5,-526"/>
<text text-anchor="start" x="389.5" y="-544" font-family="Helvetica,sans-Serif" font-size="10.00">sss::api::S3Api::PutFile</text>
<text text-anchor="middle" x="441.5" y="-533" font-family="Helvetica,sans-Serif" font-size="10.00">Object</text>
</a>
</g>
</g>
<!-- Node5&#45;&gt;Node6 -->
<g id="edge6" class="edge">
<title>Node5&#45;&gt;Node6</title>
<path fill="none" stroke="midnightblue" d="M527.82,-541C519.09,-541 510.2,-541 501.63,-541"/>
<polygon fill="midnightblue" stroke="midnightblue" points="527.97,-544.5 537.97,-541 527.97,-537.5 527.97,-544.5"/>
</g>
<!-- Node7 -->
<g id="node7" class="node">
<title>Node7</title>
<g id="a_node7"><a xlink:href="classsss_1_1api_1_1S3Api.html#a02b4f0c95255f151beb72f0a6bdf5889" target="_top" xlink:title="Send request.">
<polygon fill="none" stroke="black" points="385.5,-487.5 385.5,-506.5 497.5,-506.5 497.5,-487.5 385.5,-487.5"/>
<text text-anchor="middle" x="441.5" y="-494.5" font-family="Helvetica,sans-Serif" font-size="10.00">sss::api::S3Api::Send</text>
</a>
</g>
</g>
<!-- Node5&#45;&gt;Node7 -->
<g id="edge7" class="edge">
<title>Node5&#45;&gt;Node7</title>
<path fill="none" stroke="midnightblue" d="M552.95,-528.66C528.5,-521.65 498.36,-513.01 475.74,-506.53"/>
<polygon fill="midnightblue" stroke="midnightblue" points="552.12,-532.06 562.69,-531.45 554.04,-525.33 552.12,-532.06"/>
</g>
<!-- Node8 -->
<g id="node8" class="node">
<title>Node8</title>
<g id="a_node8"><a xlink:href="classsss_1_1api_1_1S3Api.html#a4ea265566c3c4335ec01201cdc4410c6" target="_top" xlink:title="Abort multipart upload.">
<polygon fill="none" stroke="black" points="192,-1042 192,-1072 342,-1072 342,-1042 192,-1042"/>
<text text-anchor="start" x="200" y="-1060" font-family="Helvetica,sans-Serif" font-size="10.00">sss::api::S3Api::AbortMultipart</text>
<text text-anchor="middle" x="267" y="-1049" font-family="Helvetica,sans-Serif" font-size="10.00">Upload</text>
</a>
</g>
</g>
<!-- Node7&#45;&gt;Node8 -->
<g id="edge8" class="edge">
<title>Node7&#45;&gt;Node8</title>
<path fill="none" stroke="midnightblue" d="M383.72,-512.94C382.76,-513.9 381.85,-514.92 381,-516 309.88,-606.58 416.43,-942.66 345,-1033 342.31,-1036.4 339.14,-1039.34 335.65,-1041.86"/>
<polygon fill="midnightblue" stroke="midnightblue" points="386.18,-515.47 392.01,-506.62 381.93,-509.9 386.18,-515.47"/>
</g>
<!-- Node9 -->
<g id="node9" class="node">
<title>Node9</title>
<g id="a_node9"><a xlink:href="classsss_1_1api_1_1S3Api.html#a98f999a216121118dd569c7ef0c28ff3" target="_top" xlink:title="Complete multipart upload.">
<polygon fill="none" stroke="black" points="201.5,-993 201.5,-1023 332.5,-1023 332.5,-993 201.5,-993"/>
<text text-anchor="start" x="209.5" y="-1011" font-family="Helvetica,sans-Serif" font-size="10.00">sss::api::S3Api::Complete</text>
<text text-anchor="middle" x="267" y="-1000" font-family="Helvetica,sans-Serif" font-size="10.00">MultipartUpload</text>
</a>
</g>
</g>
<!-- Node7&#45;&gt;Node9 -->
<g id="edge9" class="edge">
<title>Node7&#45;&gt;Node9</title>
<path fill="none" stroke="midnightblue" d="M383.73,-512.95C382.76,-513.91 381.85,-514.92 381,-516 316.42,-597.63 409.38,-901.22 345,-983 341.52,-987.42 337.25,-991.06 332.52,-994.07"/>
<polygon fill="midnightblue" stroke="midnightblue" points="386.19,-515.48 392.04,-506.65 381.96,-509.9 386.19,-515.48"/>
</g>
<!-- Node10 -->
<g id="node10" class="node">
<title>Node10</title>
<g id="a_node10"><a xlink:href="classsss_1_1api_1_1S3Api.html#abea2ccea14a042c7c0d4b2ce5266ea5f" target="_top" xlink:title="Create bucket.">
<polygon fill="none" stroke="black" points="192.5,-954.5 192.5,-973.5 341.5,-973.5 341.5,-954.5 192.5,-954.5"/>
<text text-anchor="middle" x="267" y="-961.5" font-family="Helvetica,sans-Serif" font-size="10.00">sss::api::S3Api::CreateBucket</text>
</a>
</g>
</g>
<!-- Node7&#45;&gt;Node10 -->
<g id="edge10" class="edge">
<title>Node7&#45;&gt;Node10</title>
<path fill="none" stroke="midnightblue" d="M384.14,-512.57C383.02,-513.64 381.97,-514.78 381,-516 321.39,-590.83 407.09,-872.22 345,-945 341.78,-948.77 337.95,-951.86 333.73,-954.38"/>
<polygon fill="midnightblue" stroke="midnightblue" points="386.38,-515.26 392.35,-506.5 382.22,-509.63 386.38,-515.26"/>
</g>
<!-- Node11 -->
<g id="node11" class="node">
<title>Node11</title>
<g id="a_node11"><a xlink:href="classsss_1_1api_1_1S3Api.html#a1796fafda3d90a4292a611ce1999433b" target="_top" xlink:title="Create multipart upload.">
<polygon fill="none" stroke="black" points="189,-905 189,-935 345,-935 345,-905 189,-905"/>
<text text-anchor="start" x="197" y="-923" font-family="Helvetica,sans-Serif" font-size="10.00">sss::api::S3Api::CreateMultipart</text>
<text text-anchor="middle" x="267" y="-912" font-family="Helvetica,sans-Serif" font-size="10.00">Upload</text>
</a>
</g>
</g>
<!-- Node7&#45;&gt;Node11 -->
<g id="edge11" class="edge">
<title>Node7&#45;&gt;Node11</title>
<path fill="none" stroke="midnightblue" d="M384.16,-512.58C383.03,-513.65 381.98,-514.79 381,-516 274.84,-647.76 450.84,-762.98 345,-895 341.92,-898.84 338.25,-902.09 334.2,-904.86"/>
<polygon fill="midnightblue" stroke="midnightblue" points="386.4,-515.28 392.39,-506.54 382.26,-509.63 386.4,-515.28"/>
</g>
<!-- Node12 -->
<g id="node12" class="node">
<title>Node12</title>
<g id="a_node12"><a xlink:href="classsss_1_1api_1_1S3Api.html#a3d63825d1916e4ba3ca13122c7660603" target="_top" xlink:title="Delete bucket.">
<polygon fill="none" stroke="black" points="192.5,-866.5 192.5,-885.5 341.5,-885.5 341.5,-866.5 192.5,-866.5"/>
<text text-anchor="middle" x="267" y="-873.5" font-family="Helvetica,sans-Serif" font-size="10.00">sss::api::S3Api::DeleteBucket</text>
</a>
</g>
</g>
<!-- Node7&#45;&gt;Node12 -->
<g id="edge12" class="edge">
<title>Node7&#45;&gt;Node12</title>
<path fill="none" stroke="midnightblue" d="M384.17,-512.6C383.05,-513.66 381.98,-514.79 381,-516 284.77,-634.17 445.15,-742.13 345,-857 341.74,-860.74 337.88,-863.8 333.64,-866.3"/>
<polygon fill="midnightblue" stroke="midnightblue" points="386.42,-515.29 392.43,-506.57 382.29,-509.64 386.42,-515.29"/>
</g>
<!-- Node13 -->
<g id="node13" class="node">
<title>Node13</title>
<g id="a_node13"><a xlink:href="classsss_1_1api_1_1S3Api.html#a062a3a07fb8ade39db1e46426ff939d8" target="_top" xlink:title="Remove all tags from bucket.">
<polygon fill="none" stroke="black" points="192.5,-817 192.5,-847 341.5,-847 341.5,-817 192.5,-817"/>
<text text-anchor="start" x="200.5" y="-835" font-family="Helvetica,sans-Serif" font-size="10.00">sss::api::S3Api::DeleteBucket</text>
<text text-anchor="middle" x="267" y="-824" font-family="Helvetica,sans-Serif" font-size="10.00">Tagging</text>
</a>
</g>
</g>
<!-- Node7&#45;&gt;Node13 -->
<g id="edge13" class="edge">
<title>Node7&#45;&gt;Node13</title>
<path fill="none" stroke="midnightblue" d="M384.2,-512.62C383.07,-513.68 382,-514.8 381,-516 297.81,-616.31 427.95,-706.49 345,-807 341.78,-810.9 337.94,-814.2 333.72,-816.99"/>
<polygon fill="midnightblue" stroke="midnightblue" points="386.44,-515.32 392.5,-506.63 382.34,-509.64 386.44,-515.32"/>
</g>
<!-- Node14 -->
<g id="node14" class="node">
<title>Node14</title>
<g id="a_node14"><a xlink:href="classsss_1_1api_1_1S3Api.html#ade1a193696061cfc0e6dff4a6975f8b3" target="_top" xlink:title="Delete object.">
<polygon fill="none" stroke="black" points="194,-778.5 194,-797.5 340,-797.5 340,-778.5 194,-778.5"/>
<text text-anchor="middle" x="267" y="-785.5" font-family="Helvetica,sans-Serif" font-size="10.00">sss::api::S3Api::DeleteObject</text>
</a>
</g>
</g>
<!-- Node7&#45;&gt;Node14 -->
<g id="edge14" class="edge">
<title>Node7&#45;&gt;Node14</title>
<path fill="none" stroke="midnightblue" d="M384.66,-512.26C383.36,-513.42 382.13,-514.66 381,-516 307.7,-602.76 421.17,-684.75 345,-769 341.58,-772.78 337.55,-775.86 333.14,-778.37"/>
<polygon fill="midnightblue" stroke="midnightblue" points="386.66,-515.13 392.86,-506.53 382.66,-509.39 386.66,-515.13"/>
</g>
<!-- Node15 -->
<g id="node15" class="node">
<title>Node15</title>
<g id="a_node15"><a xlink:href="classsss_1_1api_1_1S3Api.html#a23419050019b63bc5548181344067f01" target="_top" xlink:title="Remove all tags from object.">
<polygon fill="none" stroke="black" points="194,-729 194,-759 340,-759 340,-729 194,-729"/>
<text text-anchor="start" x="202" y="-747" font-family="Helvetica,sans-Serif" font-size="10.00">sss::api::S3Api::DeleteObject</text>
<text text-anchor="middle" x="267" y="-736" font-family="Helvetica,sans-Serif" font-size="10.00">Tagging</text>
</a>
</g>
</g>
<!-- Node7&#45;&gt;Node15 -->
<g id="edge15" class="edge">
<title>Node7&#45;&gt;Node15</title>
<path fill="none" stroke="midnightblue" d="M384.72,-512.31C383.4,-513.45 382.15,-514.68 381,-516 320.68,-584.97 405.16,-649.88 345,-719 341.68,-722.82 337.77,-726.05 333.5,-728.8"/>
<polygon fill="midnightblue" stroke="midnightblue" points="386.72,-515.18 392.99,-506.64 382.76,-509.41 386.72,-515.18"/>
</g>
<!-- Node16 -->
<g id="node16" class="node">
<title>Node16</title>
<g id="a_node16"><a xlink:href="classsss_1_1api_1_1S3Api.html#a3b53152bf39143843a4033aa4a1b3fa0" target="_top" xlink:title=" ">
<polygon fill="none" stroke="black" points="192,-690.5 192,-709.5 342,-709.5 342,-690.5 192,-690.5"/>
<text text-anchor="middle" x="267" y="-697.5" font-family="Helvetica,sans-Serif" font-size="10.00">sss::api::S3Api::GetBucketAcl</text>
</a>
</g>
</g>
<!-- Node7&#45;&gt;Node16 -->
<g id="edge16" class="edge">
<title>Node7&#45;&gt;Node16</title>
<path fill="none" stroke="midnightblue" d="M384.87,-512.3C383.5,-513.44 382.2,-514.68 381,-516 330.49,-571.52 397.35,-627.21 345,-681 341.25,-684.85 336.86,-687.96 332.11,-690.48"/>
<polygon fill="midnightblue" stroke="midnightblue" points="387.03,-515.07 393.43,-506.62 383.16,-509.23 387.03,-515.07"/>
</g>
<!-- Node17 -->
<g id="node17" class="node">
<title>Node17</title>
<g id="a_node17"><a xlink:href="classsss_1_1api_1_1S3Api.html#afdb9997dfbd29512cbfe8da9f0028cf8" target="_top" xlink:title="Return bucket tags.">
<polygon fill="none" stroke="black" points="199,-641 199,-671 335,-671 335,-641 199,-641"/>
<text text-anchor="start" x="207" y="-659" font-family="Helvetica,sans-Serif" font-size="10.00">sss::api::S3Api::GetBucket</text>
<text text-anchor="middle" x="267" y="-648" font-family="Helvetica,sans-Serif" font-size="10.00">Tagging</text>
</a>
</g>
</g>
<!-- Node7&#45;&gt;Node17 -->
<g id="edge17" class="edge">
<title>Node7&#45;&gt;Node17</title>
<path fill="none" stroke="midnightblue" d="M385.6,-511.99C383.97,-513.22 382.43,-514.56 381,-516 342.99,-554.33 383.15,-593.81 345,-632 341.54,-635.47 337.58,-638.44 333.33,-640.98"/>
<polygon fill="midnightblue" stroke="midnightblue" points="387.64,-514.84 394.34,-506.63 383.99,-508.87 387.64,-514.84"/>
</g>
<!-- Node18 -->
<g id="node18" class="node">
<title>Node18</title>
<g id="a_node18"><a xlink:href="classsss_1_1api_1_1S3Api.html#a26387e640fa4d3c0715dc48f932ae410" target="_top" xlink:title="Retrieve versioning status.">
<polygon fill="none" stroke="black" points="199,-592 199,-622 335,-622 335,-592 199,-592"/>
<text text-anchor="start" x="207" y="-610" font-family="Helvetica,sans-Serif" font-size="10.00">sss::api::S3Api::GetBucket</text>
<text text-anchor="middle" x="267" y="-599" font-family="Helvetica,sans-Serif" font-size="10.00">Versioning</text>
</a>
</g>
</g>
<!-- Node7&#45;&gt;Node18 -->
<g id="edge18" class="edge">
<title>Node7&#45;&gt;Node18</title>
<path fill="none" stroke="midnightblue" d="M387.56,-511.36C385.25,-512.77 383.05,-514.31 381,-516 355.24,-537.28 370.71,-560.66 345,-582 340.35,-585.86 335.09,-589.13 329.55,-591.89"/>
<polygon fill="midnightblue" stroke="midnightblue" points="389.57,-514.26 396.87,-506.59 386.37,-508.03 389.57,-514.26"/>
</g>
<!-- Node19 -->
<g id="node19" class="node">
<title>Node19</title>
<g id="a_node19"><a xlink:href="classsss_1_1api_1_1S3Api.html#ae548966dc38f328fc45ee1500f5caf5b" target="_top" xlink:title="Return bucket&#39;s Access Control List.">
<polygon fill="none" stroke="black" points="193,-553.5 193,-572.5 341,-572.5 341,-553.5 193,-553.5"/>
<text text-anchor="middle" x="267" y="-560.5" font-family="Helvetica,sans-Serif" font-size="10.00">sss::api::S3Api::GetObjectAcl</text>
</a>
</g>
</g>
<!-- Node7&#45;&gt;Node19 -->
<g id="edge19" class="edge">
<title>Node7&#45;&gt;Node19</title>
<path fill="none" stroke="midnightblue" d="M394.37,-510.02C389.77,-511.82 385.23,-513.82 381,-516 363.23,-525.17 363.02,-534.32 345,-543 336.16,-547.25 326.31,-550.69 316.68,-553.43"/>
<polygon fill="midnightblue" stroke="midnightblue" points="395.65,-513.28 403.85,-506.58 393.26,-506.7 395.65,-513.28"/>
</g>
<!-- Node20 -->
<g id="node20" class="node">
<title>Node20</title>
<g id="a_node20"><a xlink:href="classsss_1_1api_1_1S3Api.html#aceb12e50a72a7b9b3ca460c23671c586" target="_top" xlink:title="Return object tags.">
<polygon fill="none" stroke="black" points="200,-504 200,-534 334,-534 334,-504 200,-504"/>
<text text-anchor="start" x="208" y="-522" font-family="Helvetica,sans-Serif" font-size="10.00">sss::api::S3Api::GetObject</text>
<text text-anchor="middle" x="267" y="-511" font-family="Helvetica,sans-Serif" font-size="10.00">Tagging</text>
</a>
</g>
</g>
<!-- Node7&#45;&gt;Node20 -->
<g id="edge20" class="edge">
<title>Node7&#45;&gt;Node20</title>
<path fill="none" stroke="midnightblue" d="M375.34,-505.31C361.92,-507.02 347.76,-508.83 334.3,-510.54"/>
<polygon fill="midnightblue" stroke="midnightblue" points="375.97,-508.76 385.45,-504.02 375.08,-501.81 375.97,-508.76"/>
</g>
<!-- Node21 -->
<g id="node21" class="node">
<title>Node21</title>
<g id="a_node21"><a xlink:href="classsss_1_1api_1_1S3Api.html#aa4a2b1cc2c89a52d1aa89e571b785db2" target="_top" xlink:title=" ">
<polygon fill="none" stroke="black" points="195.5,-465.5 195.5,-484.5 338.5,-484.5 338.5,-465.5 195.5,-465.5"/>
<text text-anchor="middle" x="267" y="-472.5" font-family="Helvetica,sans-Serif" font-size="10.00">sss::api::S3Api::HeadBucket</text>
</a>
</g>
</g>
<!-- Node7&#45;&gt;Node21 -->
<g id="edge21" class="edge">
<title>Node7&#45;&gt;Node21</title>
<path fill="none" stroke="midnightblue" d="M375.49,-488.71C363.45,-487.17 350.82,-485.56 338.62,-484.01"/>
<polygon fill="midnightblue" stroke="midnightblue" points="375.08,-492.19 385.45,-489.98 375.97,-485.24 375.08,-492.19"/>
</g>
<!-- Node22 -->
<g id="node22" class="node">
<title>Node22</title>
<g id="a_node22"><a xlink:href="classsss_1_1api_1_1S3Api.html#a0382afb5f4a42d477af76ea322324ddd" target="_top" xlink:title="Send HeadObject request.">
<polygon fill="none" stroke="black" points="196.5,-427.5 196.5,-446.5 337.5,-446.5 337.5,-427.5 196.5,-427.5"/>
<text text-anchor="middle" x="267" y="-434.5" font-family="Helvetica,sans-Serif" font-size="10.00">sss::api::S3Api::HeadObject</text>
</a>
</g>
</g>
<!-- Node7&#45;&gt;Node22 -->
<g id="edge22" class="edge">
<title>Node7&#45;&gt;Node22</title>
<path fill="none" stroke="midnightblue" d="M411.59,-483.12C392.9,-474.51 367.87,-463.67 345,-456 334.43,-452.45 322.84,-449.25 311.93,-446.52"/>
<polygon fill="midnightblue" stroke="midnightblue" points="410.21,-486.34 420.75,-487.39 413.17,-479.99 410.21,-486.34"/>
</g>
<!-- Node25 -->
<g id="node25" class="node">
<title>Node25</title>
<g id="a_node25"><a xlink:href="classsss_1_1api_1_1S3Api.html#a81e30673c06b609a2ee6e6bfd9130ca6" target="_top" xlink:title="List buckets.">
<polygon fill="none" stroke="black" points="196.5,-389.5 196.5,-408.5 337.5,-408.5 337.5,-389.5 196.5,-389.5"/>
<text text-anchor="middle" x="267" y="-396.5" font-family="Helvetica,sans-Serif" font-size="10.00">sss::api::S3Api::ListBuckets</text>
</a>
</g>
</g>
<!-- Node7&#45;&gt;Node25 -->
<g id="edge25" class="edge">
<title>Node7&#45;&gt;Node25</title>
<path fill="none" stroke="midnightblue" d="M424.54,-479.84C406.81,-461.8 376.5,-433.86 345,-418 337.38,-414.16 328.93,-411.07 320.5,-408.58"/>
<polygon fill="midnightblue" stroke="midnightblue" points="422.31,-482.57 431.76,-487.36 427.36,-477.72 422.31,-482.57"/>
</g>
<!-- Node26 -->
<g id="node26" class="node">
<title>Node26</title>
<g id="a_node26"><a xlink:href="classsss_1_1api_1_1S3Api.html#a3f00f611cd210a58ac6e8c0555984433" target="_top" xlink:title="List objects by sending a ListObjectsV2 request.">
<polygon fill="none" stroke="black" points="191.5,-351.5 191.5,-370.5 342.5,-370.5 342.5,-351.5 191.5,-351.5"/>
<text text-anchor="middle" x="267" y="-358.5" font-family="Helvetica,sans-Serif" font-size="10.00">sss::api::S3Api::ListObjectsV2</text>
</a>
</g>
</g>
<!-- Node7&#45;&gt;Node26 -->
<g id="edge26" class="edge">
<title>Node7&#45;&gt;Node26</title>
<path fill="none" stroke="midnightblue" d="M430.57,-478.47C415.59,-452.36 384.69,-405.11 345,-380 338.83,-376.1 331.92,-373 324.83,-370.53"/>
<polygon fill="midnightblue" stroke="midnightblue" points="427.6,-480.32 435.52,-487.36 433.71,-476.92 427.6,-480.32"/>
</g>
<!-- Node27 -->
<g id="node27" class="node">
<title>Node27</title>
<g id="a_node27"><a xlink:href="classsss_1_1api_1_1S3Api.html#a9695a76eb84d3e52800d037f1ef391aa" target="_top" xlink:title="Return all versions and delete markers for object.">
<polygon fill="none" stroke="black" points="200,-302 200,-332 334,-332 334,-302 200,-302"/>
<text text-anchor="start" x="208" y="-320" font-family="Helvetica,sans-Serif" font-size="10.00">sss::api::S3Api::ListObject</text>
<text text-anchor="middle" x="267" y="-309" font-family="Helvetica,sans-Serif" font-size="10.00">Versions</text>
</a>
</g>
</g>
<!-- Node7&#45;&gt;Node27 -->
<g id="edge27" class="edge">
<title>Node7&#45;&gt;Node27</title>
<path fill="none" stroke="midnightblue" d="M433.71,-477.66C421.25,-444.94 391.66,-378.68 345,-342 340.14,-338.18 334.67,-334.93 328.96,-332.17"/>
<polygon fill="midnightblue" stroke="midnightblue" points="430.54,-479.19 437.28,-487.37 437.11,-476.78 430.54,-479.19"/>
</g>
<!-- Node28 -->
<g id="node28" class="node">
<title>Node28</title>
<g id="a_node28"><a xlink:href="classsss_1_1api_1_1S3Api.html#aa35e9b1cc7661cd9bb0d5f2de6cbbc7d" target="_top" xlink:title="Set Access Control Policy for bucket.">
<polygon fill="none" stroke="black" points="192.5,-263.5 192.5,-282.5 341.5,-282.5 341.5,-263.5 192.5,-263.5"/>
<text text-anchor="middle" x="267" y="-270.5" font-family="Helvetica,sans-Serif" font-size="10.00">sss::api::S3Api::PutBucketAcl</text>
</a>
</g>
</g>
<!-- Node7&#45;&gt;Node28 -->
<g id="edge28" class="edge">
<title>Node7&#45;&gt;Node28</title>
<path fill="none" stroke="midnightblue" d="M437.19,-477.46C429.19,-436.47 404.87,-341.25 345,-292 340.32,-288.15 334.98,-285.06 329.33,-282.59"/>
<polygon fill="midnightblue" stroke="midnightblue" points="433.79,-478.29 439.03,-487.5 440.67,-477.03 433.79,-478.29"/>
</g>
<!-- Node29 -->
<g id="node29" class="node">
<title>Node29</title>
<g id="a_node29"><a xlink:href="classsss_1_1api_1_1S3Api.html#ae0b480d21933d41f7ca992ca5abe3091" target="_top" xlink:title="Tag bucket.">
<polygon fill="none" stroke="black" points="199.5,-214 199.5,-244 334.5,-244 334.5,-214 199.5,-214"/>
<text text-anchor="start" x="207.5" y="-232" font-family="Helvetica,sans-Serif" font-size="10.00">sss::api::S3Api::PutBucket</text>
<text text-anchor="middle" x="267" y="-221" font-family="Helvetica,sans-Serif" font-size="10.00">Tagging</text>
</a>
</g>
</g>
<!-- Node7&#45;&gt;Node29 -->
<g id="edge29" class="edge">
<title>Node7&#45;&gt;Node29</title>
<path fill="none" stroke="midnightblue" d="M438.35,-476.8C432.37,-430.6 411.33,-316.44 345,-254 340.91,-250.15 336.21,-246.89 331.2,-244.13"/>
<polygon fill="midnightblue" stroke="midnightblue" points="434.91,-477.49 439.57,-487 441.86,-476.66 434.91,-477.49"/>
</g>
<!-- Node30 -->
<g id="node30" class="node">
<title>Node30</title>
<g id="a_node30"><a xlink:href="classsss_1_1api_1_1S3Api.html#a11f96e3a1f9487688c824fea1831fe71" target="_top" xlink:title="Enable bucket versioning.">
<polygon fill="none" stroke="black" points="199.5,-165 199.5,-195 334.5,-195 334.5,-165 199.5,-165"/>
<text text-anchor="start" x="207.5" y="-183" font-family="Helvetica,sans-Serif" font-size="10.00">sss::api::S3Api::PutBucket</text>
<text text-anchor="middle" x="267" y="-172" font-family="Helvetica,sans-Serif" font-size="10.00">Versioning</text>
</a>
</g>
</g>
<!-- Node7&#45;&gt;Node30 -->
<g id="edge30" class="edge">
<title>Node7&#45;&gt;Node30</title>
<path fill="none" stroke="midnightblue" d="M436.56,-477.41C424.31,-418.38 385.33,-243.81 345,-204 341.51,-200.56 337.54,-197.61 333.28,-195.08"/>
<polygon fill="midnightblue" stroke="midnightblue" points="433.15,-478.22 438.58,-487.32 440.01,-476.82 433.15,-478.22"/>
</g>
<!-- Node31 -->
<g id="node31" class="node">
<title>Node31</title>
<g id="a_node31"><a xlink:href="classsss_1_1api_1_1S3Api.html#a2cc08fb777cfc4d24c40bea1cde967e7" target="_top" xlink:title="Set Access Control Policy.">
<polygon fill="none" stroke="black" points="193.5,-126.5 193.5,-145.5 340.5,-145.5 340.5,-126.5 193.5,-126.5"/>
<text text-anchor="middle" x="267" y="-133.5" font-family="Helvetica,sans-Serif" font-size="10.00">sss::api::S3Api::PutObjectAcl</text>
</a>
</g>
</g>
<!-- Node7&#45;&gt;Node31 -->
<g id="edge31" class="edge">
<title>Node7&#45;&gt;Node31</title>
<path fill="none" stroke="midnightblue" d="M435.57,-477.25C417.75,-406.14 357.05,-166.69 345,-155 341.05,-151.17 336.45,-148.06 331.5,-145.56"/>
<polygon fill="midnightblue" stroke="midnightblue" points="432.23,-478.31 438.05,-487.16 439.02,-476.61 432.23,-478.31"/>
</g>
<!-- Node32 -->
<g id="node32" class="node">
<title>Node32</title>
<g id="a_node32"><a xlink:href="classsss_1_1api_1_1S3Api.html#ac098e2619080dde98a75b71af8f66eef" target="_top" xlink:title="Set object tags.">
<polygon fill="none" stroke="black" points="200.5,-77 200.5,-107 333.5,-107 333.5,-77 200.5,-77"/>
<text text-anchor="start" x="208.5" y="-95" font-family="Helvetica,sans-Serif" font-size="10.00">sss::api::S3Api::PutObject</text>
<text text-anchor="middle" x="267" y="-84" font-family="Helvetica,sans-Serif" font-size="10.00">Tagging</text>
</a>
</g>
</g>
<!-- Node7&#45;&gt;Node32 -->
<g id="edge32" class="edge">
<title>Node7&#45;&gt;Node32</title>
<path fill="none" stroke="midnightblue" d="M435.54,-477.26C415.95,-399.3 345,-117 345,-117 341.35,-113.1 337.09,-109.8 332.48,-107.02"/>
<polygon fill="midnightblue" stroke="midnightblue" points="432.21,-478.38 438.04,-487.22 439,-476.67 432.21,-478.38"/>
</g>
<!-- Node7&#45;&gt;Node33 -->
<g id="edge33" class="edge">
<title>Node7&#45;&gt;Node33</title>
<path fill="none" stroke="midnightblue" d="M434.96,-477.49C423.64,-437.15 397.54,-341.5 381,-260 370.66,-209.09 380.1,-67.3 345,-29 339.14,-22.6 331.5,-18.21 323.31,-15.21"/>
<polygon fill="midnightblue" stroke="midnightblue" points="431.6,-478.47 437.68,-487.14 438.33,-476.57 431.6,-478.47"/>
</g>
<!-- Node34 -->
<g id="node34" class="node">
<title>Node34</title>
<g id="a_node34"><a xlink:href="classsss_1_1api_1_1S3Api.html#a23223ee1fb701c55af2d942dbf261ae2" target="_top" xlink:title="Check if bucket exist.">
<polygon fill="none" stroke="black" points="197.5,-38.5 197.5,-57.5 336.5,-57.5 336.5,-38.5 197.5,-38.5"/>
<text text-anchor="middle" x="267" y="-45.5" font-family="Helvetica,sans-Serif" font-size="10.00">sss::api::S3Api::TestBucket</text>
</a>
</g>
</g>
<!-- Node7&#45;&gt;Node34 -->
<g id="edge34" class="edge">
<title>Node7&#45;&gt;Node34</title>
<path fill="none" stroke="midnightblue" d="M435.16,-477.45C424.21,-437.03 398.76,-341.24 381,-260 362.37,-174.76 404.9,-130.45 345,-67 341.41,-63.2 337.19,-60.1 332.6,-57.59"/>
<polygon fill="midnightblue" stroke="midnightblue" points="431.78,-478.39 437.79,-487.12 438.54,-476.55 431.78,-478.39"/>
</g>
<!-- Node23 -->
<g id="node23" class="node">
<title>Node23</title>
<g id="a_node23"><a xlink:href="classsss_1_1api_1_1S3Api.html#ae6a826615a079564b77bb680b6b75a34" target="_top" xlink:title="Return object size.">
<polygon fill="none" stroke="black" points="0,-446.5 0,-465.5 153,-465.5 153,-446.5 0,-446.5"/>
<text text-anchor="middle" x="76.5" y="-453.5" font-family="Helvetica,sans-Serif" font-size="10.00">sss::api::S3Api::GetObjectSize</text>
</a>
</g>
</g>
<!-- Node22&#45;&gt;Node23 -->
<g id="edge23" class="edge">
<title>Node22&#45;&gt;Node23</title>
<path fill="none" stroke="midnightblue" d="M186.35,-445.03C175.37,-446.14 164.11,-447.27 153.2,-448.37"/>
<polygon fill="midnightblue" stroke="midnightblue" points="186.75,-448.51 196.35,-444.02 186.04,-441.54 186.75,-448.51"/>
</g>
<!-- Node24 -->
<g id="node24" class="node">
<title>Node24</title>
<g id="a_node24"><a xlink:href="classsss_1_1api_1_1S3Api.html#aa3f7a3001bdad58c7b0c04cbd0dc3236" target="_top" xlink:title="Check if key exists.">
<polygon fill="none" stroke="black" points="8,-408.5 8,-427.5 145,-427.5 145,-408.5 8,-408.5"/>
<text text-anchor="middle" x="76.5" y="-415.5" font-family="Helvetica,sans-Serif" font-size="10.00">sss::api::S3Api::TestObject</text>
</a>
</g>
</g>
<!-- Node22&#45;&gt;Node24 -->
<g id="edge24" class="edge">
<title>Node22&#45;&gt;Node24</title>
<path fill="none" stroke="midnightblue" d="M186.07,-428.94C172.5,-427.58 158.52,-426.17 145.3,-424.83"/>
<polygon fill="midnightblue" stroke="midnightblue" points="186.04,-432.46 196.35,-429.98 186.75,-425.49 186.04,-432.46"/>
</g>
</g>
</svg>
        <g id="navigator" transform="translate(0 0)" fill="#404254">
                <rect fill="#f2f5e9" fill-opacity="0.5" stroke="#606060" stroke-width=".5" x="0" y="0" width="60" height="60"/>
                <use id="zoomplus" xlink:href="#zoomPlus" x="17" y="9" onmousedown="handleZoom(evt,'in')"/>
                <use id="zoomminus" xlink:href="#zoomMin" x="42" y="9" onmousedown="handleZoom(evt,'out')"/>
                <use id="reset" xlink:href="#resetDef" x="30" y="36" onmousedown="handleReset()"/>
                <g id="arrowUp" xlink:href="#dirArrow" transform="translate(30 24)" onmousedown="handlePan(0,-1)">
                  <use xlink:href="#rim" fill="#404040">
                        <set attributeName="fill" to="#808080" begin="arrowUp.mouseover" end="arrowUp.mouseout"/>
                  </use>
                  <path fill="none" stroke="white" stroke-width="1.5" d="M0,-3.0v7 M-2.5,-0.5L0,-3.0L2.5,-0.5"/>
                </g>
                <g id="arrowRight" xlink:href="#dirArrow" transform="rotate(90) translate(36 -43)" onmousedown="handlePan(1,0)">
                  <use xlink:href="#rim" fill="#404040">
                        <set attributeName="fill" to="#808080" begin="arrowRight.mouseover" end="arrowRight.mouseout"/>
                  </use>
                  <path fill="none" stroke="white" stroke-width="1.5" d="M0,-3.0v7 M-2.5,-0.5L0,-3.0L2.5,-0.5"/>
                </g>
                <g id="arrowDown" xlink:href="#dirArrow" transform="rotate(180) translate(-30 -48)" onmousedown="handlePan(0,1)">
                  <use xlink:href="#rim" fill="#404040">
                        <set attributeName="fill" to="#808080" begin="arrowDown.mouseover" end="arrowDown.mouseout"/>
                  </use>
                  <path fill="none" stroke="white" stroke-width="1.5" d="M0,-3.0v7 M-2.5,-0.5L0,-3.0L2.5,-0.5"/>
                </g>
                <g id="arrowLeft" xlink:href="#dirArrow" transform="rotate(270) translate(-36 17)" onmousedown="handlePan(-1,0)">
                  <use xlink:href="#rim" fill="#404040">
                        <set attributeName="fill" to="#808080" begin="arrowLeft.mouseover" end="arrowLeft.mouseout"/>
                  </use>
                  <path fill="none" stroke="white" stroke-width="1.5" d="M0,-3.0v7 M-2.5,-0.5L0,-3.0L2.5,-0.5"/>
                </g>
        </g>
        <svg viewBox="0 0 15 15" width="100%" height="30px" preserveAspectRatio="xMaxYMin meet">
         <g id="arrow_out" transform="scale(0.3 0.3)">
          <a xlink:href="classsss_1_1WebClient_a002876073b3869a9b9a9d709d14f1d7e_icgraph_org.svg" target="_base">
           <rect id="button" ry="5" rx="5" y="6" x="6" height="38" width="38"
                fill="#f2f5e9" fill-opacity="0.5" stroke="#606060" stroke-width="1.0"/>
           <path id="arrow"
             d="M 11.500037,31.436501 C 11.940474,20.09759 22.043105,11.32322 32.158766,21.979434 L 37.068811,17.246167 C 37.068811,17.246167 37.088388,32 37.088388,32 L 22.160133,31.978069 C 22.160133,31.978069 26.997745,27.140456 26.997745,27.140456 C 18.528582,18.264221 13.291696,25.230495 11.500037,31.436501 z"
             style="fill:#404040;"/>
          </a>
         </g>
        </svg>
</svg>
