<?xml version="1.0" encoding="UTF-8" standalone="no"?>
<!DOCTYPE svg PUBLIC "-//W3C//DTD SVG 1.1//EN"
 "http://www.w3.org/Graphics/SVG/1.1/DTD/svg11.dtd">
<!-- Generated by graphviz version 8.0.5 (20230430.1635)
 -->
<!-- Title: sss::WebClient::UploadDataFromBuffer Pages: 1 -->
<!--zoomable 507 -->
<svg id="main" version="1.1" xmlns="http://www.w3.org/2000/svg" xmlns:xlink="http://www.w3.org/1999/xlink" xml:space="preserve" onload="init(evt)">
<style type="text/css"><![CDATA[
.edge:hover path { stroke: red; }
.edge:hover polygon { stroke: red; fill: red; }
]]></style>
<script type="text/javascript"><![CDATA[
var edges = document.getElementsByTagName('g');
if (edges && edges.length) {
  for (var i=0;i<edges.length;i++) {
    if (edges[i].id.substr(0,4)=='edge') {
      edges[i].setAttribute('class','edge');
    }
  }
}
]]></script>
        <defs>
                <circle id="rim" cx="0" cy="0" r="7"/>
                <circle id="rim2" cx="0" cy="0" r="3.5"/>
                <g id="zoomPlus">
                        <use xlink:href="#rim" fill="#404040">
                                <set attributeName="fill" to="#808080" begin="zoomplus.mouseover" end="zoomplus.mouseout"/>
                        </use>
                        <path d="M-4,0h8M0,-4v8" fill="none" stroke="white" stroke-width="1.5" pointer-events="none"/>
                </g>
                <g id="zoomMin">
                        <use xlink:href="#rim" fill="#404040">
                                <set attributeName="fill" to="#808080" begin="zoomminus.mouseover" end="zoomminus.mouseout"/>
                        </use>
                        <path d="M-4,0h8" fill="none" stroke="white" stroke-width="1.5" pointer-events="none"/>
                </g>
                <g id="dirArrow">
                        <path fill="none" stroke="white" stroke-width="1.5" d="M0,-3.0v7 M-2.5,-0.5L0,-3.0L2.5,-0.5"/>
                </g>
               <g id="resetDef">
                       <use xlink:href="#rim2" fill="#404040">
                               <set attributeName="fill" to="#808080" begin="reset.mouseover" end="reset.mouseout"/>
                       </use>
               </g>
        </defs>

<script type="text/javascript">
var viewWidth = 716;
var viewHeight = 507;
var sectionId = 'dynsection-19';
</script>
<script xlink:href="svgpan.js"/>
<svg id="graph" class="graph">
<g id="viewport">
<title>sss::WebClient::UploadDataFromBuffer</title>
<!-- Node1 -->
<g id="node1" class="node">
<title>Node1</title>
<g id="a_node1"><a xlink:title="Upload data from memory buffer.">
<polygon fill="#999999" stroke="#666666" points="708.25,-209.88 567.75,-209.88 567.75,-179.38 708.25,-179.38 708.25,-209.88"/>
<text text-anchor="start" x="575.75" y="-196.38" font-family="Helvetica,sans-Serif" font-size="10.00">sss::WebClient::UploadData</text>
<text text-anchor="middle" x="638" y="-185.12" font-family="Helvetica,sans-Serif" font-size="10.00">FromBuffer</text>
</a>
</g>
</g>
<!-- Node2 -->
<g id="node2" class="node">
<title>Node2</title>
<g id="a_node2"><a xlink:href="classsss_1_1api_1_1S3Api.html#ad09581bf28c4bbbcbb71b329959ec1ae" target="_top" xlink:title=" ">
<polygon fill="white" stroke="#666666" points="511.5,-241.25 400.25,-241.25 400.25,-222 511.5,-222 511.5,-241.25"/>
<text text-anchor="middle" x="455.88" y="-227.75" font-family="Helvetica,sans-Serif" font-size="10.00">sss::api::S3Api::Send</text>
</a>
</g>
</g>
<!-- Node1&#45;&gt;Node2 -->
<g id="edge1" class="edge">
<title>Node1&#45;&gt;Node2</title>
<path fill="none" stroke="#63b8ff" d="M556.68,-211.12C539.4,-214.67 521.63,-218.32 505.97,-221.54"/>
<polygon fill="#63b8ff" stroke="#63b8ff" points="557.27,-214.37 566.36,-208.93 555.86,-207.51 557.27,-214.37"/>
</g>
<!-- Node19 -->
<g id="node19" class="node">
<title>Node19</title>
<g id="a_node19"><a xlink:href="group__S3Client.html#ga5a769be8fbc874bad858ea95743e5643" target="_top" xlink:title="Send S3 request to endpoint.">
<polygon fill="white" stroke="#666666" points="510.38,-204.25 401.38,-204.25 401.38,-185 510.38,-185 510.38,-204.25"/>
<text text-anchor="middle" x="455.88" y="-190.75" font-family="Helvetica,sans-Serif" font-size="10.00">sss::SendS3Request</text>
</a>
</g>
</g>
<!-- Node1&#45;&gt;Node19 -->
<g id="edge21" class="edge">
<title>Node1&#45;&gt;Node19</title>
<path fill="none" stroke="#63b8ff" d="M556.67,-194.62C541.1,-194.62 525.15,-194.62 510.69,-194.62"/>
<polygon fill="#63b8ff" stroke="#63b8ff" points="556.36,-198.13 566.36,-194.62 556.36,-191.13 556.36,-198.13"/>
</g>
<!-- Node20 -->
<g id="node20" class="node">
<title>Node20</title>
<g id="a_node20"><a xlink:href="classsss_1_1WebClient.html#ab5af9d8e7c424e49fab04f0d9d59b489" target="_top" xlink:title="Upload file starting from offset using unbuffered memory mapping of file.">
<polygon fill="white" stroke="#666666" points="531.75,-167.25 380,-167.25 380,-148 531.75,-148 531.75,-167.25"/>
<text text-anchor="middle" x="455.88" y="-153.75" font-family="Helvetica,sans-Serif" font-size="10.00">sss::WebClient::UploadFileMM</text>
</a>
</g>
</g>
<!-- Node1&#45;&gt;Node20 -->
<g id="edge22" class="edge">
<title>Node1&#45;&gt;Node20</title>
<path fill="none" stroke="#63b8ff" d="M556.68,-178.13C539.4,-174.58 521.63,-170.93 505.97,-167.71"/>
<polygon fill="#63b8ff" stroke="#63b8ff" points="555.86,-181.74 566.36,-180.32 557.27,-174.88 555.86,-181.74"/>
</g>
<!-- Node3 -->
<g id="node3" class="node">
<title>Node3</title>
<g id="a_node3"><a xlink:href="classsss_1_1api_1_1S3Api.html#a4ea265566c3c4335ec01201cdc4410c6" target="_top" xlink:title=" ">
<polygon fill="white" stroke="#666666" points="341,-498.88 191.5,-498.88 191.5,-468.38 341,-468.38 341,-498.88"/>
<text text-anchor="start" x="199.5" y="-485.38" font-family="Helvetica,sans-Serif" font-size="10.00">sss::api::S3Api::AbortMultipart</text>
<text text-anchor="middle" x="266.25" y="-474.12" font-family="Helvetica,sans-Serif" font-size="10.00">Upload</text>
</a>
</g>
</g>
<!-- Node2&#45;&gt;Node3 -->
<g id="edge2" class="edge">
<title>Node2&#45;&gt;Node3</title>
<path fill="none" stroke="#63b8ff" d="M450.59,-252.01C440.26,-296.19 409.79,-401.42 344,-458.62 339.88,-462.21 335.23,-465.28 330.31,-467.92"/>
<polygon fill="#63b8ff" stroke="#63b8ff" points="454.18,-253 452.94,-242.48 447.35,-251.48 454.18,-253"/>
</g>
<!-- Node4 -->
<g id="node4" class="node">
<title>Node4</title>
<g id="a_node4"><a xlink:href="classsss_1_1api_1_1S3Api.html#a98f999a216121118dd569c7ef0c28ff3" target="_top" xlink:title=" ">
<polygon fill="white" stroke="#666666" points="331.62,-449.88 200.88,-449.88 200.88,-419.38 331.62,-419.38 331.62,-449.88"/>
<text text-anchor="start" x="208.88" y="-436.38" font-family="Helvetica,sans-Serif" font-size="10.00">sss::api::S3Api::Complete</text>
<text text-anchor="middle" x="266.25" y="-425.12" font-family="Helvetica,sans-Serif" font-size="10.00">MultipartUpload</text>
</a>
</g>
</g>
<!-- Node2&#45;&gt;Node4 -->
<g id="edge3" class="edge">
<title>Node2&#45;&gt;Node4</title>
<path fill="none" stroke="#63b8ff" d="M447.98,-251.46C434.14,-288.33 399.5,-367.58 344,-410.62 339.92,-413.79 335.41,-416.54 330.69,-418.93"/>
<polygon fill="#63b8ff" stroke="#63b8ff" points="451.48,-253.06 451.6,-242.46 444.9,-250.67 451.48,-253.06"/>
</g>
<!-- Node5 -->
<g id="node5" class="node">
<title>Node5</title>
<g id="a_node5"><a xlink:href="classsss_1_1api_1_1S3Api.html#ad890bd1ecfc978df24b2c3ed641e4081" target="_top" xlink:title=" ">
<polygon fill="white" stroke="#666666" points="340.62,-401.25 191.88,-401.25 191.88,-382 340.62,-382 340.62,-401.25"/>
<text text-anchor="middle" x="266.25" y="-387.75" font-family="Helvetica,sans-Serif" font-size="10.00">sss::api::S3Api::CreateBucket</text>
</a>
</g>
</g>
<!-- Node2&#45;&gt;Node5 -->
<g id="edge4" class="edge">
<title>Node2&#45;&gt;Node5</title>
<path fill="none" stroke="#63b8ff" d="M444.99,-251.3C428.46,-282.12 392.2,-341.49 344,-372.62 338.35,-376.27 332.05,-379.22 325.56,-381.61"/>
<polygon fill="#63b8ff" stroke="#63b8ff" points="448.49,-253.16 450.01,-242.68 442.28,-249.93 448.49,-253.16"/>
</g>
<!-- Node7 -->
<g id="node7" class="node">
<title>Node7</title>
<g id="a_node7"><a xlink:href="classsss_1_1api_1_1S3Api.html#a1796fafda3d90a4292a611ce1999433b" target="_top" xlink:title=" ">
<polygon fill="white" stroke="#666666" points="344,-363.88 188.5,-363.88 188.5,-333.38 344,-333.38 344,-363.88"/>
<text text-anchor="start" x="196.5" y="-350.38" font-family="Helvetica,sans-Serif" font-size="10.00">sss::api::S3Api::CreateMultipart</text>
<text text-anchor="middle" x="266.25" y="-339.12" font-family="Helvetica,sans-Serif" font-size="10.00">Upload</text>
</a>
</g>
</g>
<!-- Node2&#45;&gt;Node7 -->
<g id="edge6" class="edge">
<title>Node2&#45;&gt;Node7</title>
<path fill="none" stroke="#63b8ff" d="M438.3,-249.26C417.91,-269.99 381.39,-304.17 344,-324.62 338.37,-327.71 332.28,-330.46 326.08,-332.89"/>
<polygon fill="#63b8ff" stroke="#63b8ff" points="440.34,-252.15 444.76,-242.52 435.3,-247.28 440.34,-252.15"/>
</g>
<!-- Node8 -->
<g id="node8" class="node">
<title>Node8</title>
<g id="a_node8"><a xlink:href="classsss_1_1api_1_1S3Api.html#a3d63825d1916e4ba3ca13122c7660603" target="_top" xlink:title=" ">
<polygon fill="white" stroke="#666666" points="340.25,-315.25 192.25,-315.25 192.25,-296 340.25,-296 340.25,-315.25"/>
<text text-anchor="middle" x="266.25" y="-301.75" font-family="Helvetica,sans-Serif" font-size="10.00">sss::api::S3Api::DeleteBucket</text>
</a>
</g>
</g>
<!-- Node2&#45;&gt;Node8 -->
<g id="edge7" class="edge">
<title>Node2&#45;&gt;Node8</title>
<path fill="none" stroke="#63b8ff" d="M428.85,-247C406.87,-259.43 374.23,-276.62 344,-287.62 335.64,-290.67 326.58,-293.33 317.71,-295.6"/>
<polygon fill="#63b8ff" stroke="#63b8ff" points="430.22,-249.67 437.15,-241.66 426.74,-243.6 430.22,-249.67"/>
</g>
<!-- Node9 -->
<g id="node9" class="node">
<title>Node9</title>
<g id="a_node9"><a xlink:href="classsss_1_1api_1_1S3Api.html#a14a75f15eb71fbba8639673100768b67" target="_top" xlink:title=" ">
<polygon fill="white" stroke="#666666" points="339.12,-278.25 193.38,-278.25 193.38,-259 339.12,-259 339.12,-278.25"/>
<text text-anchor="middle" x="266.25" y="-264.75" font-family="Helvetica,sans-Serif" font-size="10.00">sss::api::S3Api::DeleteObject</text>
</a>
</g>
</g>
<!-- Node2&#45;&gt;Node9 -->
<g id="edge9" class="edge">
<title>Node2&#45;&gt;Node9</title>
<path fill="none" stroke="#63b8ff" d="M393.11,-243.81C368.92,-248.57 341.51,-253.98 318.46,-258.53"/>
<polygon fill="#63b8ff" stroke="#63b8ff" points="393.47,-247.1 402.61,-241.74 392.12,-240.24 393.47,-247.1"/>
</g>
<!-- Node10 -->
<g id="node10" class="node">
<title>Node10</title>
<g id="a_node10"><a xlink:href="classsss_1_1api_1_1S3Api.html#af61465d92c0a94aa82ae863fc2a776a0" target="_top" xlink:title=" ">
<polygon fill="white" stroke="#666666" points="332.75,-241.25 199.75,-241.25 199.75,-222 332.75,-222 332.75,-241.25"/>
<text text-anchor="middle" x="266.25" y="-227.75" font-family="Helvetica,sans-Serif" font-size="10.00">sss::api::S3Api::GetObject</text>
</a>
</g>
</g>
<!-- Node2&#45;&gt;Node10 -->
<g id="edge10" class="edge">
<title>Node2&#45;&gt;Node10</title>
<path fill="none" stroke="#63b8ff" d="M389.1,-231.62C370.99,-231.62 351.34,-231.62 333.23,-231.62"/>
<polygon fill="#63b8ff" stroke="#63b8ff" points="388.85,-235.13 398.85,-231.62 388.85,-228.13 388.85,-235.13"/>
</g>
<!-- Node11 -->
<g id="node11" class="node">
<title>Node11</title>
<g id="a_node11"><a xlink:href="classsss_1_1api_1_1S3Api.html#aa4a2b1cc2c89a52d1aa89e571b785db2" target="_top" xlink:title=" ">
<polygon fill="white" stroke="#666666" points="337.62,-204.25 194.88,-204.25 194.88,-185 337.62,-185 337.62,-204.25"/>
<text text-anchor="middle" x="266.25" y="-190.75" font-family="Helvetica,sans-Serif" font-size="10.00">sss::api::S3Api::HeadBucket</text>
</a>
</g>
</g>
<!-- Node2&#45;&gt;Node11 -->
<g id="edge11" class="edge">
<title>Node2&#45;&gt;Node11</title>
<path fill="none" stroke="#63b8ff" d="M393.11,-219.44C368.92,-214.68 341.51,-209.27 318.46,-204.72"/>
<polygon fill="#63b8ff" stroke="#63b8ff" points="392.12,-223.01 402.61,-221.51 393.47,-216.15 392.12,-223.01"/>
</g>
<!-- Node12 -->
<g id="node12" class="node">
<title>Node12</title>
<g id="a_node12"><a xlink:href="classsss_1_1api_1_1S3Api.html#abc84a71b9a88b81afaa353ad17a91d22" target="_top" xlink:title=" ">
<polygon fill="white" stroke="#666666" points="336.5,-130.25 196,-130.25 196,-111 336.5,-111 336.5,-130.25"/>
<text text-anchor="middle" x="266.25" y="-116.75" font-family="Helvetica,sans-Serif" font-size="10.00">sss::api::S3Api::HeadObject</text>
</a>
</g>
</g>
<!-- Node2&#45;&gt;Node12 -->
<g id="edge13" class="edge">
<title>Node2&#45;&gt;Node12</title>
<path fill="none" stroke="#63b8ff" d="M390.05,-220.16C386.48,-218.29 383.09,-216.12 380,-213.62 351.24,-190.39 372.82,-161.78 344,-138.62 340.05,-135.45 335.64,-132.82 330.99,-130.64"/>
<polygon fill="#63b8ff" stroke="#63b8ff" points="388.28,-223.64 398.84,-224.45 391.09,-217.23 388.28,-223.64"/>
</g>
<!-- Node15 -->
<g id="node15" class="node">
<title>Node15</title>
<g id="a_node15"><a xlink:href="classsss_1_1api_1_1S3Api.html#a81e30673c06b609a2ee6e6bfd9130ca6" target="_top" xlink:title=" ">
<polygon fill="white" stroke="#666666" points="336.5,-167.25 196,-167.25 196,-148 336.5,-148 336.5,-167.25"/>
<text text-anchor="middle" x="266.25" y="-153.75" font-family="Helvetica,sans-Serif" font-size="10.00">sss::api::S3Api::ListBuckets</text>
</a>
</g>
</g>
<!-- Node2&#45;&gt;Node15 -->
<g id="edge16" class="edge">
<title>Node2&#45;&gt;Node15</title>
<path fill="none" stroke="#63b8ff" d="M389.64,-218.44C386.3,-217 383.07,-215.4 380,-213.62 359.86,-201.98 364.17,-187.21 344,-175.62 338.42,-172.42 332.31,-169.79 326.04,-167.62"/>
<polygon fill="#63b8ff" stroke="#63b8ff" points="388.28,-222.05 398.87,-222.31 390.76,-215.5 388.28,-222.05"/>
</g>
<!-- Node16 -->
<g id="node16" class="node">
<title>Node16</title>
<g id="a_node16"><a xlink:href="classsss_1_1api_1_1S3Api.html#a3f00f611cd210a58ac6e8c0555984433" target="_top" xlink:title=" ">
<polygon fill="white" stroke="#666666" points="341.38,-93.25 191.12,-93.25 191.12,-74 341.38,-74 341.38,-93.25"/>
<text text-anchor="middle" x="266.25" y="-79.75" font-family="Helvetica,sans-Serif" font-size="10.00">sss::api::S3Api::ListObjectsV2</text>
</a>
</g>
</g>
<!-- Node2&#45;&gt;Node16 -->
<g id="edge18" class="edge">
<title>Node2&#45;&gt;Node16</title>
<path fill="none" stroke="#63b8ff" d="M390,-220.85C386.4,-218.81 383.02,-216.43 380,-213.62 341.67,-178.07 382.43,-137.08 344,-101.62 340.58,-98.47 336.71,-95.84 332.58,-93.64"/>
<polygon fill="#63b8ff" stroke="#63b8ff" points="388.44,-224.44 398.99,-225.44 391.37,-218.08 388.44,-224.44"/>
</g>
<!-- Node17 -->
<g id="node17" class="node">
<title>Node17</title>
<g id="a_node17"><a xlink:href="classsss_1_1api_1_1S3Api.html#a0473917e4d25a4a6fca40d097e4299d6" target="_top" xlink:title=" ">
<polygon fill="white" stroke="#666666" points="321.88,-56.25 210.62,-56.25 210.62,-37 321.88,-37 321.88,-56.25"/>
<text text-anchor="middle" x="266.25" y="-42.75" font-family="Helvetica,sans-Serif" font-size="10.00">sss::api::S3Api::Send</text>
</a>
</g>
</g>
<!-- Node2&#45;&gt;Node17 -->
<g id="edge19" class="edge">
<title>Node2&#45;&gt;Node17</title>
<path fill="none" stroke="#63b8ff" d="M390.26,-221.4C386.52,-219.24 383.05,-216.67 380,-213.62 331.8,-165.48 392.33,-112.64 344,-64.62 337.98,-58.65 330.37,-54.51 322.3,-51.67"/>
<polygon fill="#63b8ff" stroke="#63b8ff" points="388.47,-224.89 399.01,-225.96 391.44,-218.55 388.47,-224.89"/>
</g>
<!-- Node18 -->
<g id="node18" class="node">
<title>Node18</title>
<g id="a_node18"><a xlink:href="classsss_1_1api_1_1S3Api.html#a23223ee1fb701c55af2d942dbf261ae2" target="_top" xlink:title=" ">
<polygon fill="white" stroke="#666666" points="335.38,-19.25 197.12,-19.25 197.12,0 335.38,0 335.38,-19.25"/>
<text text-anchor="middle" x="266.25" y="-5.75" font-family="Helvetica,sans-Serif" font-size="10.00">sss::api::S3Api::TestBucket</text>
</a>
</g>
</g>
<!-- Node2&#45;&gt;Node18 -->
<g id="edge20" class="edge">
<title>Node2&#45;&gt;Node18</title>
<path fill="none" stroke="#63b8ff" d="M390.1,-221.55C386.4,-219.36 382.98,-216.74 380,-213.62 321.81,-152.77 402.36,-88.32 344,-27.62 340.96,-24.47 337.49,-21.82 333.73,-19.6"/>
<polygon fill="#63b8ff" stroke="#63b8ff" points="388.25,-225.03 398.78,-226.18 391.27,-218.71 388.25,-225.03"/>
</g>
<!-- Node6 -->
<g id="node6" class="node">
<title>Node6</title>
<g id="a_node6"><a xlink:href="bucket-test_8cpp.html#a3c04138a5bfe5d72780bb7e82a18e627" target="_top" xlink:title="Bucket tests.">
<polygon fill="white" stroke="#666666" points="94.75,-259.25 57.75,-259.25 57.75,-240 94.75,-240 94.75,-259.25"/>
<text text-anchor="middle" x="76.25" y="-245.75" font-family="Helvetica,sans-Serif" font-size="10.00">main</text>
</a>
</g>
</g>
<!-- Node5&#45;&gt;Node6 -->
<g id="edge5" class="edge">
<title>Node5&#45;&gt;Node6</title>
<path fill="none" stroke="#63b8ff" d="M197.94,-377.52C194.67,-376.05 191.5,-374.42 188.5,-372.62 138.59,-342.77 98.18,-283.45 83.35,-259.75"/>
<polygon fill="#63b8ff" stroke="#63b8ff" points="196.4,-381.07 206.98,-381.5 198.97,-374.56 196.4,-381.07"/>
</g>
<!-- Node8&#45;&gt;Node6 -->
<g id="edge8" class="edge">
<title>Node8&#45;&gt;Node6</title>
<path fill="none" stroke="#63b8ff" d="M208.32,-292.94C201.61,-291.25 194.89,-289.46 188.5,-287.62 155.15,-278.04 117.04,-264.43 95.19,-256.37"/>
<polygon fill="#63b8ff" stroke="#63b8ff" points="207.25,-296.52 217.79,-295.51 208.91,-289.72 207.25,-296.52"/>
</g>
<!-- Node11&#45;&gt;Node6 -->
<g id="edge12" class="edge">
<title>Node11&#45;&gt;Node6</title>
<path fill="none" stroke="#63b8ff" d="M208.61,-207.3C201.81,-209 194.98,-210.79 188.5,-212.62 155.2,-222.05 117.07,-235.27 95.21,-243.09"/>
<polygon fill="#63b8ff" stroke="#63b8ff" points="209.33,-210.48 218.21,-204.7 207.67,-203.68 209.33,-210.48"/>
</g>
<!-- Node13 -->
<g id="node13" class="node">
<title>Node13</title>
<g id="a_node13"><a xlink:href="classsss_1_1api_1_1S3Api.html#a872e80e356e8c404a9b0739d95a0af41" target="_top" xlink:title="[WebClient::Config]">
<polygon fill="white" stroke="#666666" points="152.5,-148.25 0,-148.25 0,-129 152.5,-129 152.5,-148.25"/>
<text text-anchor="middle" x="76.25" y="-134.75" font-family="Helvetica,sans-Serif" font-size="10.00">sss::api::S3Api::GetObjectSize</text>
</a>
</g>
</g>
<!-- Node12&#45;&gt;Node13 -->
<g id="edge14" class="edge">
<title>Node12&#45;&gt;Node13</title>
<path fill="none" stroke="#63b8ff" d="M184.63,-128.34C174.09,-129.35 163.33,-130.38 152.87,-131.38"/>
<polygon fill="#63b8ff" stroke="#63b8ff" points="184.89,-131.74 194.51,-127.3 184.22,-124.77 184.89,-131.74"/>
</g>
<!-- Node14 -->
<g id="node14" class="node">
<title>Node14</title>
<g id="a_node14"><a xlink:href="classsss_1_1api_1_1S3Api.html#aa3f7a3001bdad58c7b0c04cbd0dc3236" target="_top" xlink:title=" ">
<polygon fill="white" stroke="#666666" points="144.25,-111.25 8.25,-111.25 8.25,-92 144.25,-92 144.25,-111.25"/>
<text text-anchor="middle" x="76.25" y="-97.75" font-family="Helvetica,sans-Serif" font-size="10.00">sss::api::S3Api::TestObject</text>
</a>
</g>
</g>
<!-- Node12&#45;&gt;Node14 -->
<g id="edge15" class="edge">
<title>Node12&#45;&gt;Node14</title>
<path fill="none" stroke="#63b8ff" d="M184.88,-112.5C171.48,-111.15 157.71,-109.76 144.69,-108.44"/>
<polygon fill="#63b8ff" stroke="#63b8ff" points="184.21,-116.05 194.51,-113.58 184.92,-109.09 184.21,-116.05"/>
</g>
<!-- Node15&#45;&gt;Node6 -->
<g id="edge17" class="edge">
<title>Node15&#45;&gt;Node6</title>
<path fill="none" stroke="#63b8ff" d="M200.7,-170.97C196.51,-172.38 192.41,-173.93 188.5,-175.62 149.12,-192.68 108.56,-223.73 89.09,-239.64"/>
<polygon fill="#63b8ff" stroke="#63b8ff" points="201.67,-174.02 210.2,-167.73 199.61,-167.33 201.67,-174.02"/>
</g>
</g>
</svg>
        <g id="navigator" transform="translate(0 0)" fill="#404254">
                <rect fill="#f2f5e9" fill-opacity="0.5" stroke="#606060" stroke-width=".5" x="0" y="0" width="60" height="60"/>
                <use id="zoomplus" xlink:href="#zoomPlus" x="17" y="9" onmousedown="handleZoom(evt,'in')"/>
                <use id="zoomminus" xlink:href="#zoomMin" x="42" y="9" onmousedown="handleZoom(evt,'out')"/>
                <use id="reset" xlink:href="#resetDef" x="30" y="36" onmousedown="handleReset()"/>
                <g id="arrowUp" xlink:href="#dirArrow" transform="translate(30 24)" onmousedown="handlePan(0,-1)">
                  <use xlink:href="#rim" fill="#404040">
                        <set attributeName="fill" to="#808080" begin="arrowUp.mouseover" end="arrowUp.mouseout"/>
                  </use>
                  <path fill="none" stroke="white" stroke-width="1.5" d="M0,-3.0v7 M-2.5,-0.5L0,-3.0L2.5,-0.5"/>
                </g>
                <g id="arrowRight" xlink:href="#dirArrow" transform="rotate(90) translate(36 -43)" onmousedown="handlePan(1,0)">
                  <use xlink:href="#rim" fill="#404040">
                        <set attributeName="fill" to="#808080" begin="arrowRight.mouseover" end="arrowRight.mouseout"/>
                  </use>
                  <path fill="none" stroke="white" stroke-width="1.5" d="M0,-3.0v7 M-2.5,-0.5L0,-3.0L2.5,-0.5"/>
                </g>
                <g id="arrowDown" xlink:href="#dirArrow" transform="rotate(180) translate(-30 -48)" onmousedown="handlePan(0,1)">
                  <use xlink:href="#rim" fill="#404040">
                        <set attributeName="fill" to="#808080" begin="arrowDown.mouseover" end="arrowDown.mouseout"/>
                  </use>
                  <path fill="none" stroke="white" stroke-width="1.5" d="M0,-3.0v7 M-2.5,-0.5L0,-3.0L2.5,-0.5"/>
                </g>
                <g id="arrowLeft" xlink:href="#dirArrow" transform="rotate(270) translate(-36 17)" onmousedown="handlePan(-1,0)">
                  <use xlink:href="#rim" fill="#404040">
                        <set attributeName="fill" to="#808080" begin="arrowLeft.mouseover" end="arrowLeft.mouseout"/>
                  </use>
                  <path fill="none" stroke="white" stroke-width="1.5" d="M0,-3.0v7 M-2.5,-0.5L0,-3.0L2.5,-0.5"/>
                </g>
        </g>
        <svg viewBox="0 0 15 15" width="100%" height="30px" preserveAspectRatio="xMaxYMin meet">
         <g id="arrow_out" transform="scale(0.3 0.3)">
          <a xlink:href="classsss_1_1WebClient_ae7b1f77bd4ae44585f2d49ea493bdcc5_icgraph_org.svg" target="_base">
           <rect id="button" ry="5" rx="5" y="6" x="6" height="38" width="38"
                fill="#f2f5e9" fill-opacity="0.5" stroke="#606060" stroke-width="1.0"/>
           <path id="arrow"
             d="M 11.500037,31.436501 C 11.940474,20.09759 22.043105,11.32322 32.158766,21.979434 L 37.068811,17.246167 C 37.068811,17.246167 37.088388,32 37.088388,32 L 22.160133,31.978069 C 22.160133,31.978069 26.997745,27.140456 26.997745,27.140456 C 18.528582,18.264221 13.291696,25.230495 11.500037,31.436501 z"
             style="fill:#404040;"/>
          </a>
         </g>
        </svg>
</svg>
