<?xml version="1.0" encoding="UTF-8" standalone="no"?>
<!DOCTYPE svg PUBLIC "-//W3C//DTD SVG 1.1//EN"
 "http://www.w3.org/Graphics/SVG/1.1/DTD/svg11.dtd">
<!-- Generated by graphviz version 8.0.5 (20230430.1635)
 -->
<!-- Title: sss::WebClient::SetReqParameters Pages: 1 -->
<svg width="333pt" height="64pt"
 viewBox="0.00 0.00 333.25 64.25" xmlns="http://www.w3.org/2000/svg" xmlns:xlink="http://www.w3.org/1999/xlink">
<g id="graph0" class="graph" transform="scale(1 1) rotate(0) translate(4 60.25)">
<title>sss::WebClient::SetReqParameters</title>
<!-- Node1 -->
<g id="node1" class="node">
<title>Node1</title>
<g id="a_node1"><a xlink:title=" ">
<polygon fill="#999999" stroke="#666666" points="325.25,-37.25 153.25,-37.25 153.25,-18 325.25,-18 325.25,-37.25"/>
<text text-anchor="middle" x="239.25" y="-23.75" font-family="Helvetica,sans-Serif" font-size="10.00">sss::WebClient::SetReqParameters</text>
</a>
</g>
</g>
<!-- Node2 -->
<g id="node2" class="node">
<title>Node2</title>
<g id="a_node2"><a xlink:href="classsss_1_1api_1_1S3Api.html#a88b3eb551e57106ed171d9079de6afb4" target="_top" xlink:title="[WebClient::Config]">
<polygon fill="white" stroke="#666666" points="117.25,-56.25 0,-56.25 0,-37 117.25,-37 117.25,-56.25"/>
<text text-anchor="middle" x="58.62" y="-42.75" font-family="Helvetica,sans-Serif" font-size="10.00">sss::api::S3Api::Config</text>
</a>
</g>
</g>
<!-- Node1&#45;&gt;Node2 -->
<g id="edge1" class="edge">
<title>Node1&#45;&gt;Node2</title>
<path fill="none" stroke="#63b8ff" d="M141.95,-37.87C133.68,-38.75 125.48,-39.62 117.64,-40.45"/>
<polygon fill="#63b8ff" stroke="#63b8ff" points="142.29,-41.25 151.86,-36.71 141.55,-34.29 142.29,-41.25"/>
</g>
<!-- Node3 -->
<g id="node3" class="node">
<title>Node3</title>
<g id="a_node3"><a xlink:href="group__S3Client.html#ga5a769be8fbc874bad858ea95743e5643" target="_top" xlink:title="Send S3 request to endpoint.">
<polygon fill="white" stroke="#666666" points="113.12,-19.25 4.12,-19.25 4.12,0 113.12,0 113.12,-19.25"/>
<text text-anchor="middle" x="58.62" y="-5.75" font-family="Helvetica,sans-Serif" font-size="10.00">sss::SendS3Request</text>
</a>
</g>
</g>
<!-- Node1&#45;&gt;Node3 -->
<g id="edge2" class="edge">
<title>Node1&#45;&gt;Node3</title>
<path fill="none" stroke="#63b8ff" d="M142.14,-17.94C132.27,-16.95 122.52,-15.96 113.37,-15.04"/>
<polygon fill="#63b8ff" stroke="#63b8ff" points="141.56,-21.5 151.86,-19.02 142.26,-14.54 141.56,-21.5"/>
</g>
</g>
</svg>
