<?xml version="1.0" encoding="UTF-8" standalone="no"?>
<!DOCTYPE svg PUBLIC "-//W3C//DTD SVG 1.1//EN"
 "http://www.w3.org/Graphics/SVG/1.1/DTD/svg11.dtd">
<!-- Generated by graphviz version 2.43.0 (0)
 -->
<!-- Title: sss::api::S3Api::ListBuckets Pages: 1 -->
<svg width="1142pt" height="534pt"
 viewBox="0.00 0.00 1142.00 534.00" xmlns="http://www.w3.org/2000/svg" xmlns:xlink="http://www.w3.org/1999/xlink">
<g id="graph0" class="graph" transform="scale(1 1) rotate(0) translate(4 530)">
<title>sss::api::S3Api::ListBuckets</title>
<!-- Node1 -->
<g id="node1" class="node">
<title>Node1</title>
<g id="a_node1"><a xlink:title=" ">
<polygon fill="#bfbfbf" stroke="black" points="0,-228.5 0,-247.5 141,-247.5 141,-228.5 0,-228.5"/>
<text text-anchor="middle" x="70.5" y="-235.5" font-family="Helvetica,sans-Serif" font-size="10.00">sss::api::S3Api::ListBuckets</text>
</a>
</g>
</g>
<!-- Node2 -->
<g id="node2" class="node">
<title>Node2</title>
<g id="a_node2"><a xlink:href="classsss_1_1WebClient.html#ac9e82fc4b56b142d91f9b104f5266f91" target="_top" xlink:title="Get response body as text.">
<polygon fill="none" stroke="black" points="177,-386.5 177,-405.5 335,-405.5 335,-386.5 177,-386.5"/>
<text text-anchor="middle" x="256" y="-393.5" font-family="Helvetica,sans-Serif" font-size="10.00">sss::WebClient::GetContentText</text>
</a>
</g>
</g>
<!-- Node1&#45;&gt;Node2 -->
<g id="edge1" class="edge">
<title>Node1&#45;&gt;Node2</title>
<path fill="none" stroke="midnightblue" d="M82.7,-247.65C113.23,-273.93 198.14,-347.04 236.17,-379.78"/>
<polygon fill="midnightblue" stroke="midnightblue" points="234.08,-382.61 243.94,-386.48 238.65,-377.3 234.08,-382.61"/>
</g>
<!-- Node4 -->
<g id="node4" class="node">
<title>Node4</title>
<g id="a_node4"><a xlink:href="classsss_1_1api_1_1S3Api.html#a02b4f0c95255f151beb72f0a6bdf5889" target="_top" xlink:title=" ">
<polygon fill="none" stroke="black" points="200,-209.5 200,-228.5 312,-228.5 312,-209.5 200,-209.5"/>
<text text-anchor="middle" x="256" y="-216.5" font-family="Helvetica,sans-Serif" font-size="10.00">sss::api::S3Api::Send</text>
</a>
</g>
</g>
<!-- Node1&#45;&gt;Node4 -->
<g id="edge3" class="edge">
<title>Node1&#45;&gt;Node4</title>
<path fill="none" stroke="midnightblue" d="M141.14,-230.79C157.1,-229.14 174.02,-227.38 189.8,-225.75"/>
<polygon fill="midnightblue" stroke="midnightblue" points="190.39,-229.21 199.98,-224.7 189.67,-222.25 190.39,-229.21"/>
</g>
<!-- Node3 -->
<g id="node3" class="node">
<title>Node3</title>
<g id="a_node3"><a xlink:href="classsss_1_1WebClient.html#a77a4e0190a4f207b969cb63b6ba38ccc" target="_top" xlink:title=" ">
<polygon fill="none" stroke="black" points="371,-506.5 371,-525.5 543,-525.5 543,-506.5 371,-506.5"/>
<text text-anchor="middle" x="457" y="-513.5" font-family="Helvetica,sans-Serif" font-size="10.00">sss::WebClient::GetResponseBody</text>
</a>
</g>
</g>
<!-- Node2&#45;&gt;Node3 -->
<g id="edge2" class="edge">
<title>Node2&#45;&gt;Node3</title>
<path fill="none" stroke="midnightblue" d="M264.72,-405.54C281.68,-425.79 324.38,-473.17 371,-497 375.59,-499.35 380.47,-501.41 385.48,-503.21"/>
<polygon fill="midnightblue" stroke="midnightblue" points="384.64,-506.62 395.23,-506.39 386.8,-499.96 384.64,-506.62"/>
</g>
<!-- Node5 -->
<g id="node5" class="node">
<title>Node5</title>
<g id="a_node5"><a xlink:href="classsss_1_1api_1_1S3Api.html#a840772746fbb0a79c161037da7b24a31" target="_top" xlink:title="[WebClient::Config]">
<polygon fill="none" stroke="black" points="398,-209.5 398,-228.5 516,-228.5 516,-209.5 398,-209.5"/>
<text text-anchor="middle" x="457" y="-216.5" font-family="Helvetica,sans-Serif" font-size="10.00">sss::api::S3Api::Config</text>
</a>
</g>
</g>
<!-- Node4&#45;&gt;Node5 -->
<g id="edge4" class="edge">
<title>Node4&#45;&gt;Node5</title>
<path fill="none" stroke="midnightblue" d="M312.17,-219C335.62,-219 363.21,-219 387.91,-219"/>
<polygon fill="midnightblue" stroke="midnightblue" points="387.94,-222.5 397.94,-219 387.94,-215.5 387.94,-222.5"/>
</g>
<!-- Node14 -->
<g id="node14" class="node">
<title>Node14</title>
<g id="a_node14"><a xlink:href="classsss_1_1WebClient.html#a51ce0ecf6487b6a43072643fe4f4cb4e" target="_top" xlink:title=" ">
<polygon fill="none" stroke="black" points="772.5,-380.5 772.5,-399.5 918.5,-399.5 918.5,-380.5 772.5,-380.5"/>
<text text-anchor="middle" x="845.5" y="-387.5" font-family="Helvetica,sans-Serif" font-size="10.00">sss::WebClient::SetPostData</text>
</a>
</g>
</g>
<!-- Node4&#45;&gt;Node14 -->
<g id="edge25" class="edge">
<title>Node4&#45;&gt;Node14</title>
<path fill="none" stroke="midnightblue" d="M267.95,-228.53C306.87,-261.69 443.43,-371.99 579,-409 655.01,-429.75 747.55,-414.43 800.88,-401.88"/>
<polygon fill="midnightblue" stroke="midnightblue" points="801.8,-405.26 810.69,-399.5 800.15,-398.46 801.8,-405.26"/>
</g>
<!-- Node21 -->
<g id="node21" class="node">
<title>Node21</title>
<g id="a_node21"><a xlink:href="group__Internal.html#ga2b8b08c2a4994a87377d83ccfa9a6a53" target="_top" xlink:title=" ">
<polygon fill="none" stroke="black" points="408,-32.5 408,-51.5 506,-51.5 506,-32.5 408,-32.5"/>
<text text-anchor="middle" x="457" y="-39.5" font-family="Helvetica,sans-Serif" font-size="10.00">sss::ParseParams</text>
</a>
</g>
</g>
<!-- Node4&#45;&gt;Node21 -->
<g id="edge23" class="edge">
<title>Node4&#45;&gt;Node21</title>
<path fill="none" stroke="midnightblue" d="M261.35,-209.39C274.08,-182.39 313.97,-105.25 371,-66 379.15,-60.39 388.58,-56.09 398.15,-52.78"/>
<polygon fill="midnightblue" stroke="midnightblue" points="399.2,-56.12 407.7,-49.8 397.12,-49.44 399.2,-56.12"/>
</g>
<!-- Node22 -->
<g id="node22" class="node">
<title>Node22</title>
<g id="a_node22"><a xlink:href="classsss_1_1WebClient.html#aa1d7484f0e09242ce53b24f9648ce50e" target="_top" xlink:title=" ">
<polygon fill="none" stroke="black" points="594.5,-0.5 594.5,-19.5 706.5,-19.5 706.5,-0.5 594.5,-0.5"/>
<text text-anchor="middle" x="650.5" y="-7.5" font-family="Helvetica,sans-Serif" font-size="10.00">sss::WebClient::Send</text>
</a>
</g>
</g>
<!-- Node4&#45;&gt;Node22 -->
<g id="edge24" class="edge">
<title>Node4&#45;&gt;Node22</title>
<path fill="none" stroke="midnightblue" d="M263.1,-209.39C278.29,-186.34 320.21,-127.69 371,-99 439.16,-60.49 473.27,-96.6 543,-61 562.07,-51.27 560.16,-39.17 579,-29 583.24,-26.71 587.77,-24.68 592.42,-22.89"/>
<polygon fill="midnightblue" stroke="midnightblue" points="593.77,-26.13 602.06,-19.53 591.47,-19.52 593.77,-26.13"/>
</g>
<!-- Node23 -->
<g id="node23" class="node">
<title>Node23</title>
<g id="a_node23"><a xlink:href="classsss_1_1WebClient.html#a7dfd984b33a29686fb0355b65b620e99" target="_top" xlink:title=" ">
<polygon fill="none" stroke="black" points="379.5,-457 379.5,-487 534.5,-487 534.5,-457 379.5,-457"/>
<text text-anchor="start" x="387.5" y="-475" font-family="Helvetica,sans-Serif" font-size="10.00">sss::WebClient::SetUrlEncoded</text>
<text text-anchor="middle" x="457" y="-464" font-family="Helvetica,sans-Serif" font-size="10.00">PostData</text>
</a>
</g>
</g>
<!-- Node4&#45;&gt;Node23 -->
<g id="edge26" class="edge">
<title>Node4&#45;&gt;Node23</title>
<path fill="none" stroke="midnightblue" d="M261.74,-228.76C282.14,-270.73 361.88,-434.02 371,-442 375.45,-445.89 380.44,-449.29 385.71,-452.26"/>
<polygon fill="midnightblue" stroke="midnightblue" points="384.3,-455.47 394.81,-456.85 387.46,-449.22 384.3,-455.47"/>
</g>
<!-- Node25 -->
<g id="node25" class="node">
<title>Node25</title>
<g id="a_node25"><a xlink:href="classsss_1_1WebClient.html#ae7b1f77bd4ae44585f2d49ea493bdcc5" target="_top" xlink:title="Upload data from memory buffer.">
<polygon fill="none" stroke="black" points="386.5,-109 386.5,-139 527.5,-139 527.5,-109 386.5,-109"/>
<text text-anchor="start" x="394.5" y="-127" font-family="Helvetica,sans-Serif" font-size="10.00">sss::WebClient::UploadData</text>
<text text-anchor="middle" x="457" y="-116" font-family="Helvetica,sans-Serif" font-size="10.00">FromBuffer</text>
</a>
</g>
</g>
<!-- Node4&#45;&gt;Node25 -->
<g id="edge28" class="edge">
<title>Node4&#45;&gt;Node25</title>
<path fill="none" stroke="midnightblue" d="M277.18,-209.37C309.42,-193.98 373.2,-163.53 415.22,-143.47"/>
<polygon fill="midnightblue" stroke="midnightblue" points="416.85,-146.57 424.36,-139.1 413.83,-140.25 416.85,-146.57"/>
</g>
<!-- Node6 -->
<g id="node6" class="node">
<title>Node6</title>
<g id="a_node6"><a xlink:href="classsss_1_1api_1_1S3Api.html#a1a4e05ac14390c7f42feef2c26e22031" target="_top" xlink:title=" ">
<polygon fill="none" stroke="black" points="589.5,-304.5 589.5,-323.5 711.5,-323.5 711.5,-304.5 589.5,-304.5"/>
<text text-anchor="middle" x="650.5" y="-311.5" font-family="Helvetica,sans-Serif" font-size="10.00">sss::api::S3Api::Access</text>
</a>
</g>
</g>
<!-- Node5&#45;&gt;Node6 -->
<g id="edge5" class="edge">
<title>Node5&#45;&gt;Node6</title>
<path fill="none" stroke="midnightblue" d="M472.02,-228.5C494.06,-243.14 538.47,-271.44 579,-290 587.99,-294.11 597.89,-297.91 607.37,-301.21"/>
<polygon fill="midnightblue" stroke="midnightblue" points="606.44,-304.59 617.03,-304.47 608.67,-297.96 606.44,-304.59"/>
</g>
<!-- Node7 -->
<g id="node7" class="node">
<title>Node7</title>
<g id="a_node7"><a xlink:href="classsss_1_1api_1_1S3Api.html#a3718745d3b940462ae9f3b78f773b3a6" target="_top" xlink:title="Clear data and reset read and write functions.">
<polygon fill="none" stroke="black" points="594,-228.5 594,-247.5 707,-247.5 707,-228.5 594,-228.5"/>
<text text-anchor="middle" x="650.5" y="-235.5" font-family="Helvetica,sans-Serif" font-size="10.00">sss::api::S3Api::Clear</text>
</a>
</g>
</g>
<!-- Node5&#45;&gt;Node7 -->
<g id="edge6" class="edge">
<title>Node5&#45;&gt;Node7</title>
<path fill="none" stroke="midnightblue" d="M516.24,-224.78C537.52,-226.89 561.73,-229.29 583.63,-231.46"/>
<polygon fill="midnightblue" stroke="midnightblue" points="583.54,-234.97 593.84,-232.48 584.23,-228.01 583.54,-234.97"/>
</g>
<!-- Node12 -->
<g id="node12" class="node">
<title>Node12</title>
<g id="a_node12"><a xlink:href="classsss_1_1WebClient.html#a75890c14fbe4a4bbac61718a4f3c064d" target="_top" xlink:title=" ">
<polygon fill="none" stroke="black" points="775,-285.5 775,-304.5 916,-304.5 916,-285.5 775,-285.5"/>
<text text-anchor="middle" x="845.5" y="-292.5" font-family="Helvetica,sans-Serif" font-size="10.00">sss::WebClient::SetHeaders</text>
</a>
</g>
</g>
<!-- Node5&#45;&gt;Node12 -->
<g id="edge18" class="edge">
<title>Node5&#45;&gt;Node12</title>
<path fill="none" stroke="midnightblue" d="M484.1,-228.55C508.38,-237.11 545.72,-249.44 579,-257 640.75,-271.02 711.81,-280.87 764.87,-287.02"/>
<polygon fill="midnightblue" stroke="midnightblue" points="764.57,-290.51 774.9,-288.16 765.36,-283.55 764.57,-290.51"/>
</g>
<!-- Node13 -->
<g id="node13" class="node">
<title>Node13</title>
<g id="a_node13"><a xlink:href="classsss_1_1WebClient.html#a12b5db6b8c667024557ab58059d39994" target="_top" xlink:title=" ">
<polygon fill="none" stroke="black" points="783,-171.5 783,-190.5 908,-190.5 908,-171.5 783,-171.5"/>
<text text-anchor="middle" x="845.5" y="-178.5" font-family="Helvetica,sans-Serif" font-size="10.00">sss::WebClient::SetPath</text>
</a>
</g>
</g>
<!-- Node5&#45;&gt;Node13 -->
<g id="edge20" class="edge">
<title>Node5&#45;&gt;Node13</title>
<path fill="none" stroke="midnightblue" d="M516.28,-213.27C584.86,-206.53 698.74,-195.33 772.7,-188.06"/>
<polygon fill="midnightblue" stroke="midnightblue" points="773.25,-191.52 782.86,-187.06 772.57,-184.56 773.25,-191.52"/>
</g>
<!-- Node15 -->
<g id="node15" class="node">
<title>Node15</title>
<g id="a_node15"><a xlink:href="classsss_1_1WebClient.html#a9bf978d95b79728f6d60fc2bdb4fe546" target="_top" xlink:title=" ">
<polygon fill="none" stroke="black" points="759,-133.5 759,-152.5 932,-152.5 932,-133.5 759,-133.5"/>
<text text-anchor="middle" x="845.5" y="-140.5" font-family="Helvetica,sans-Serif" font-size="10.00">sss::WebClient::SetReqParameters</text>
</a>
</g>
</g>
<!-- Node5&#45;&gt;Node15 -->
<g id="edge21" class="edge">
<title>Node5&#45;&gt;Node15</title>
<path fill="none" stroke="midnightblue" d="M468.63,-209.33C488.52,-191.96 533.47,-156.11 579,-143 642.56,-124.69 718.29,-126.91 772.57,-132.39"/>
<polygon fill="midnightblue" stroke="midnightblue" points="772.47,-135.9 782.79,-133.49 773.22,-128.94 772.47,-135.9"/>
</g>
<!-- Node16 -->
<g id="node16" class="node">
<title>Node16</title>
<g id="a_node16"><a xlink:href="classsss_1_1api_1_1S3Api.html#a70f1068d07e1d4c1be164e0cb9328cc0" target="_top" xlink:title=" ">
<polygon fill="none" stroke="black" points="586.5,-76.5 586.5,-95.5 714.5,-95.5 714.5,-76.5 586.5,-76.5"/>
<text text-anchor="middle" x="650.5" y="-83.5" font-family="Helvetica,sans-Serif" font-size="10.00">sss::api::S3Api::Endpoint</text>
</a>
</g>
</g>
<!-- Node5&#45;&gt;Node16 -->
<g id="edge15" class="edge">
<title>Node5&#45;&gt;Node16</title>
<path fill="none" stroke="midnightblue" d="M470.49,-209.32C487.41,-196.04 518.34,-171.17 543,-148 559.96,-132.07 559.42,-122.56 579,-110 585.81,-105.63 593.5,-101.97 601.24,-98.92"/>
<polygon fill="midnightblue" stroke="midnightblue" points="602.43,-102.21 610.64,-95.51 600.04,-95.63 602.43,-102.21"/>
</g>
<!-- Node17 -->
<g id="node17" class="node">
<title>Node17</title>
<g id="a_node17"><a xlink:href="classsss_1_1api_1_1S3Api.html#acfffe29254323fb41231787a0afb7edc" target="_top" xlink:title=" ">
<polygon fill="none" stroke="black" points="591.5,-380.5 591.5,-399.5 709.5,-399.5 709.5,-380.5 591.5,-380.5"/>
<text text-anchor="middle" x="650.5" y="-387.5" font-family="Helvetica,sans-Serif" font-size="10.00">sss::api::S3Api::Secret</text>
</a>
</g>
</g>
<!-- Node5&#45;&gt;Node17 -->
<g id="edge16" class="edge">
<title>Node5&#45;&gt;Node17</title>
<path fill="none" stroke="midnightblue" d="M462.78,-228.58C476.71,-255.49 520.07,-332.32 579,-371 582.15,-373.07 585.52,-374.91 589.02,-376.56"/>
<polygon fill="midnightblue" stroke="midnightblue" points="587.93,-379.89 598.51,-380.46 590.59,-373.42 587.93,-379.89"/>
</g>
<!-- Node18 -->
<g id="node18" class="node">
<title>Node18</title>
<g id="a_node18"><a xlink:href="classsss_1_1WebClient.html#afc3b7a92568fbb1ea447918920ca266e" target="_top" xlink:title="Set endpoint: &#160;&lt;proto&gt;://&lt;server&gt;:&lt;port&gt;">
<polygon fill="none" stroke="black" points="579,-342.5 579,-361.5 722,-361.5 722,-342.5 579,-342.5"/>
<text text-anchor="middle" x="650.5" y="-349.5" font-family="Helvetica,sans-Serif" font-size="10.00">sss::WebClient::SetEndpoint</text>
</a>
</g>
</g>
<!-- Node5&#45;&gt;Node18 -->
<g id="edge17" class="edge">
<title>Node5&#45;&gt;Node18</title>
<path fill="none" stroke="midnightblue" d="M465.34,-228.61C482.65,-250.57 528.35,-304.71 579,-333 582.97,-335.22 587.2,-337.18 591.56,-338.93"/>
<polygon fill="midnightblue" stroke="midnightblue" points="590.63,-342.31 601.22,-342.41 593,-335.73 590.63,-342.31"/>
</g>
<!-- Node19 -->
<g id="node19" class="node">
<title>Node19</title>
<g id="a_node19"><a xlink:href="classsss_1_1WebClient.html#af6233ffd7b294e1e7e606e838dd44e9e" target="_top" xlink:title=" ">
<polygon fill="none" stroke="black" points="582,-38.5 582,-57.5 719,-57.5 719,-38.5 582,-38.5"/>
<text text-anchor="middle" x="650.5" y="-45.5" font-family="Helvetica,sans-Serif" font-size="10.00">sss::WebClient::SetMethod</text>
</a>
</g>
</g>
<!-- Node5&#45;&gt;Node19 -->
<g id="edge19" class="edge">
<title>Node5&#45;&gt;Node19</title>
<path fill="none" stroke="midnightblue" d="M473.34,-209.4C491.92,-197.11 523.19,-174.24 543,-148 566.73,-116.56 549.07,-92.62 579,-67 580.98,-65.31 583.1,-63.76 585.32,-62.35"/>
<polygon fill="midnightblue" stroke="midnightblue" points="587.12,-65.35 594.31,-57.57 583.83,-59.17 587.12,-65.35"/>
</g>
<!-- Node20 -->
<g id="node20" class="node">
<title>Node20</title>
<g id="a_node20"><a xlink:href="group__Sign.html#ga3ae8e18ef70752b7369fca66c40c526b" target="_top" xlink:title="Sign headers.">
<polygon fill="none" stroke="black" points="603,-152.5 603,-171.5 698,-171.5 698,-152.5 603,-152.5"/>
<text text-anchor="middle" x="650.5" y="-159.5" font-family="Helvetica,sans-Serif" font-size="10.00">sss::SignHeaders</text>
</a>
</g>
</g>
<!-- Node5&#45;&gt;Node20 -->
<g id="edge22" class="edge">
<title>Node5&#45;&gt;Node20</title>
<path fill="none" stroke="midnightblue" d="M490.05,-209.46C522.23,-199.88 571.96,-185.08 607.32,-174.55"/>
<polygon fill="midnightblue" stroke="midnightblue" points="608.76,-177.78 617.34,-171.57 606.76,-171.07 608.76,-177.78"/>
</g>
<!-- Node8 -->
<g id="node8" class="node">
<title>Node8</title>
<g id="a_node8"><a xlink:href="classsss_1_1WebClient.html#a381f5715b7a2f19a0d4414d278874bae" target="_top" xlink:title="Clear internal buffers.">
<polygon fill="none" stroke="black" points="773.5,-209.5 773.5,-228.5 917.5,-228.5 917.5,-209.5 773.5,-209.5"/>
<text text-anchor="middle" x="845.5" y="-216.5" font-family="Helvetica,sans-Serif" font-size="10.00">sss::WebClient::ClearBuffers</text>
</a>
</g>
</g>
<!-- Node7&#45;&gt;Node8 -->
<g id="edge7" class="edge">
<title>Node7&#45;&gt;Node8</title>
<path fill="none" stroke="midnightblue" d="M707.06,-232.53C724.62,-230.8 744.4,-228.85 763.36,-226.99"/>
<polygon fill="midnightblue" stroke="midnightblue" points="763.88,-230.45 773.49,-225.99 763.2,-223.49 763.88,-230.45"/>
</g>
<!-- Node9 -->
<g id="node9" class="node">
<title>Node9</title>
<g id="a_node9"><a xlink:href="classsss_1_1WebClient.html#a96837f149bb473853a6523d096a25c56" target="_top" xlink:title="Reset read/write functions to default.">
<polygon fill="none" stroke="black" points="758,-247.5 758,-266.5 933,-266.5 933,-247.5 758,-247.5"/>
<text text-anchor="middle" x="845.5" y="-254.5" font-family="Helvetica,sans-Serif" font-size="10.00">sss::WebClient::ResetRWFunctions</text>
</a>
</g>
</g>
<!-- Node7&#45;&gt;Node9 -->
<g id="edge8" class="edge">
<title>Node7&#45;&gt;Node9</title>
<path fill="none" stroke="midnightblue" d="M707.06,-243.47C719.79,-244.72 733.68,-246.09 747.58,-247.46"/>
<polygon fill="midnightblue" stroke="midnightblue" points="747.39,-250.96 757.69,-248.45 748.08,-243.99 747.39,-250.96"/>
</g>
<!-- Node7&#45;&gt;Node12 -->
<g id="edge11" class="edge">
<title>Node7&#45;&gt;Node12</title>
<path fill="none" stroke="midnightblue" d="M680.41,-247.53C693.2,-251.83 708.39,-257.04 722,-262 738.13,-267.88 741.57,-271.03 758,-276 766.65,-278.61 775.88,-281.03 784.98,-283.2"/>
<polygon fill="midnightblue" stroke="midnightblue" points="784.23,-286.62 794.76,-285.45 785.8,-279.8 784.23,-286.62"/>
</g>
<!-- Node7&#45;&gt;Node13 -->
<g id="edge12" class="edge">
<title>Node7&#45;&gt;Node13</title>
<path fill="none" stroke="midnightblue" d="M680.41,-228.47C693.2,-224.17 708.39,-218.96 722,-214 738.13,-208.12 741.57,-204.97 758,-200 766.65,-197.39 775.88,-194.97 784.98,-192.8"/>
<polygon fill="midnightblue" stroke="midnightblue" points="785.8,-196.2 794.76,-190.55 784.23,-189.38 785.8,-196.2"/>
</g>
<!-- Node7&#45;&gt;Node14 -->
<g id="edge13" class="edge">
<title>Node7&#45;&gt;Node14</title>
<path fill="none" stroke="midnightblue" d="M663.57,-247.51C695.86,-272.94 784.47,-342.72 824.46,-374.21"/>
<polygon fill="midnightblue" stroke="midnightblue" points="822.41,-377.06 832.43,-380.5 826.74,-371.56 822.41,-377.06"/>
</g>
<!-- Node7&#45;&gt;Node15 -->
<g id="edge14" class="edge">
<title>Node7&#45;&gt;Node15</title>
<path fill="none" stroke="midnightblue" d="M661.79,-228.43C679.83,-212.2 718.97,-179.34 758,-162 763.72,-159.46 769.8,-157.25 775.99,-155.32"/>
<polygon fill="midnightblue" stroke="midnightblue" points="777.12,-158.64 785.77,-152.53 775.2,-151.91 777.12,-158.64"/>
</g>
<!-- Node10 -->
<g id="node10" class="node">
<title>Node10</title>
<g id="a_node10"><a xlink:href="classsss_1_1WebClient.html#a88dbcc61562e84aa9ebf1eabf887ac28" target="_top" xlink:title=" ">
<polygon fill="none" stroke="black" points="969,-269.5 969,-288.5 1134,-288.5 1134,-269.5 969,-269.5"/>
<text text-anchor="middle" x="1051.5" y="-276.5" font-family="Helvetica,sans-Serif" font-size="10.00">sss::WebClient::SetReadFunction</text>
</a>
</g>
</g>
<!-- Node9&#45;&gt;Node10 -->
<g id="edge9" class="edge">
<title>Node9&#45;&gt;Node10</title>
<path fill="none" stroke="midnightblue" d="M933.01,-266.33C941.52,-267.25 950.18,-268.18 958.73,-269.1"/>
<polygon fill="midnightblue" stroke="midnightblue" points="958.4,-272.59 968.72,-270.18 959.15,-265.63 958.4,-272.59"/>
</g>
<!-- Node11 -->
<g id="node11" class="node">
<title>Node11</title>
<g id="a_node11"><a xlink:href="classsss_1_1WebClient.html#a002876073b3869a9b9a9d709d14f1d7e" target="_top" xlink:title=" ">
<polygon fill="none" stroke="black" points="988,-220 988,-250 1115,-250 1115,-220 988,-220"/>
<text text-anchor="start" x="996" y="-238" font-family="Helvetica,sans-Serif" font-size="10.00">sss::WebClient::SetWrite</text>
<text text-anchor="middle" x="1051.5" y="-227" font-family="Helvetica,sans-Serif" font-size="10.00">Function</text>
</a>
</g>
</g>
<!-- Node9&#45;&gt;Node11 -->
<g id="edge10" class="edge">
<title>Node9&#45;&gt;Node11</title>
<path fill="none" stroke="midnightblue" d="M933.01,-247.67C947.87,-246.07 963.17,-244.42 977.63,-242.86"/>
<polygon fill="midnightblue" stroke="midnightblue" points="978.41,-246.29 987.98,-241.74 977.66,-239.33 978.41,-246.29"/>
</g>
<!-- Node24 -->
<g id="node24" class="node">
<title>Node24</title>
<g id="a_node24"><a xlink:href="group__Internal.html#ga6e3db8d156313abef7e2c966df1a3d7c" target="_top" xlink:title=" ">
<polygon fill="none" stroke="black" points="608.5,-462.5 608.5,-481.5 692.5,-481.5 692.5,-462.5 608.5,-462.5"/>
<text text-anchor="middle" x="650.5" y="-469.5" font-family="Helvetica,sans-Serif" font-size="10.00">sss::UrlEncode</text>
</a>
</g>
</g>
<!-- Node23&#45;&gt;Node24 -->
<g id="edge27" class="edge">
<title>Node23&#45;&gt;Node24</title>
<path fill="none" stroke="midnightblue" d="M534.51,-472C555.88,-472 578.59,-472 598.13,-472"/>
<polygon fill="midnightblue" stroke="midnightblue" points="598.33,-475.5 608.33,-472 598.33,-468.5 598.33,-475.5"/>
</g>
<!-- Node25&#45;&gt;Node19 -->
<g id="edge30" class="edge">
<title>Node25&#45;&gt;Node19</title>
<path fill="none" stroke="midnightblue" d="M508.97,-108.85C520.45,-104.67 532.38,-99.69 543,-94 560.63,-84.56 561.02,-75.76 579,-67 583.84,-64.64 589.02,-62.54 594.29,-60.68"/>
<polygon fill="midnightblue" stroke="midnightblue" points="595.39,-64 603.82,-57.58 593.23,-57.34 595.39,-64"/>
</g>
<!-- Node25&#45;&gt;Node22 -->
<g id="edge29" class="edge">
<title>Node25&#45;&gt;Node22</title>
<path fill="none" stroke="midnightblue" d="M518.58,-108.84C527.35,-104.93 535.83,-100.06 543,-94 568.21,-72.67 553,-49.35 579,-29 581.34,-27.17 583.84,-25.51 586.46,-24.02"/>
<polygon fill="midnightblue" stroke="midnightblue" points="588.25,-27.04 595.71,-19.52 585.19,-20.74 588.25,-27.04"/>
</g>
</g>
</svg>
