<?xml version="1.0" encoding="UTF-8" standalone="no"?>
<!DOCTYPE svg PUBLIC "-//W3C//DTD SVG 1.1//EN"
 "http://www.w3.org/Graphics/SVG/1.1/DTD/svg11.dtd">
<!-- Generated by graphviz version 2.43.0 (0)
 -->
<!-- Title: sss::WebClient::UploadDataFromBuffer Pages: 1 -->
<svg width="718pt" height="557pt"
 viewBox="0.00 0.00 718.00 556.50" xmlns="http://www.w3.org/2000/svg" xmlns:xlink="http://www.w3.org/1999/xlink">
<g id="graph0" class="graph" transform="scale(1 1) rotate(0) translate(4 552.5)">
<title>sss::WebClient::UploadDataFromBuffer</title>
<!-- Node1 -->
<g id="node1" class="node">
<title>Node1</title>
<g id="a_node1"><a xlink:title="Upload data from memory buffer.">
<polygon fill="#bfbfbf" stroke="black" points="569,-223 569,-253 710,-253 710,-223 569,-223"/>
<text text-anchor="start" x="577" y="-241" font-family="Helvetica,sans-Serif" font-size="10.00">sss::WebClient::UploadData</text>
<text text-anchor="middle" x="639.5" y="-230" font-family="Helvetica,sans-Serif" font-size="10.00">FromBuffer</text>
</a>
</g>
</g>
<!-- Node2 -->
<g id="node2" class="node">
<title>Node2</title>
<g id="a_node2"><a xlink:href="classsss_1_1api_1_1S3Api.html#a02b4f0c95255f151beb72f0a6bdf5889" target="_top" xlink:title=" ">
<polygon fill="none" stroke="black" points="401,-247.5 401,-266.5 513,-266.5 513,-247.5 401,-247.5"/>
<text text-anchor="middle" x="457" y="-254.5" font-family="Helvetica,sans-Serif" font-size="10.00">sss::api::S3Api::Send</text>
</a>
</g>
</g>
<!-- Node1&#45;&gt;Node2 -->
<g id="edge1" class="edge">
<title>Node1&#45;&gt;Node2</title>
<path fill="none" stroke="midnightblue" d="M558.92,-246.38C543.49,-248 527.64,-249.67 513.21,-251.19"/>
<polygon fill="midnightblue" stroke="midnightblue" points="559.39,-249.85 568.97,-245.32 558.66,-242.88 559.39,-249.85"/>
</g>
<!-- Node19 -->
<g id="node19" class="node">
<title>Node19</title>
<g id="a_node19"><a xlink:href="classsss_1_1WebClient.html#ab5af9d8e7c424e49fab04f0d9d59b489" target="_top" xlink:title="Upload file starting from offset using unbuffered memory mapping of file.">
<polygon fill="none" stroke="black" points="381,-209.5 381,-228.5 533,-228.5 533,-209.5 381,-209.5"/>
<text text-anchor="middle" x="457" y="-216.5" font-family="Helvetica,sans-Serif" font-size="10.00">sss::WebClient::UploadFileMM</text>
</a>
</g>
</g>
<!-- Node1&#45;&gt;Node19 -->
<g id="edge18" class="edge">
<title>Node1&#45;&gt;Node19</title>
<path fill="none" stroke="midnightblue" d="M558.99,-229.63C550.41,-228.73 541.71,-227.81 533.19,-226.91"/>
<polygon fill="midnightblue" stroke="midnightblue" points="558.66,-233.12 568.97,-230.68 559.39,-226.15 558.66,-233.12"/>
</g>
<!-- Node3 -->
<g id="node3" class="node">
<title>Node3</title>
<g id="a_node3"><a xlink:href="classsss_1_1api_1_1S3Api.html#a4ea265566c3c4335ec01201cdc4410c6" target="_top" xlink:title=" ">
<polygon fill="none" stroke="black" points="192,-518 192,-548 342,-548 342,-518 192,-518"/>
<text text-anchor="start" x="200" y="-536" font-family="Helvetica,sans-Serif" font-size="10.00">sss::api::S3Api::AbortMultipart</text>
<text text-anchor="middle" x="267" y="-525" font-family="Helvetica,sans-Serif" font-size="10.00">Upload</text>
</a>
</g>
</g>
<!-- Node2&#45;&gt;Node3 -->
<g id="edge2" class="edge">
<title>Node2&#45;&gt;Node3</title>
<path fill="none" stroke="midnightblue" d="M452.98,-276.77C444.71,-324.04 417.3,-444.42 345,-509 341.14,-512.45 336.78,-515.41 332.16,-517.94"/>
<polygon fill="midnightblue" stroke="midnightblue" points="456.47,-277.08 454.65,-266.64 449.57,-275.94 456.47,-277.08"/>
</g>
<!-- Node4 -->
<g id="node4" class="node">
<title>Node4</title>
<g id="a_node4"><a xlink:href="classsss_1_1api_1_1S3Api.html#a98f999a216121118dd569c7ef0c28ff3" target="_top" xlink:title=" ">
<polygon fill="none" stroke="black" points="201.5,-469 201.5,-499 332.5,-499 332.5,-469 201.5,-469"/>
<text text-anchor="start" x="209.5" y="-487" font-family="Helvetica,sans-Serif" font-size="10.00">sss::api::S3Api::Complete</text>
<text text-anchor="middle" x="267" y="-476" font-family="Helvetica,sans-Serif" font-size="10.00">MultipartUpload</text>
</a>
</g>
</g>
<!-- Node2&#45;&gt;Node4 -->
<g id="edge3" class="edge">
<title>Node2&#45;&gt;Node4</title>
<path fill="none" stroke="midnightblue" d="M450.62,-276.53C438.57,-316.67 405.59,-408.87 345,-459 340.34,-462.85 335.08,-466.12 329.54,-468.88"/>
<polygon fill="midnightblue" stroke="midnightblue" points="454.06,-277.24 453.47,-266.66 447.33,-275.3 454.06,-277.24"/>
</g>
<!-- Node5 -->
<g id="node5" class="node">
<title>Node5</title>
<g id="a_node5"><a xlink:href="classsss_1_1api_1_1S3Api.html#ad890bd1ecfc978df24b2c3ed641e4081" target="_top" xlink:title=" ">
<polygon fill="none" stroke="black" points="192.5,-430.5 192.5,-449.5 341.5,-449.5 341.5,-430.5 192.5,-430.5"/>
<text text-anchor="middle" x="267" y="-437.5" font-family="Helvetica,sans-Serif" font-size="10.00">sss::api::S3Api::CreateBucket</text>
</a>
</g>
</g>
<!-- Node2&#45;&gt;Node5 -->
<g id="edge4" class="edge">
<title>Node2&#45;&gt;Node5</title>
<path fill="none" stroke="midnightblue" d="M448.63,-275.97C434.22,-310.47 398.93,-383.4 345,-421 339.47,-424.86 333.23,-427.94 326.76,-430.39"/>
<polygon fill="midnightblue" stroke="midnightblue" points="451.93,-277.16 452.43,-266.57 445.44,-274.53 451.93,-277.16"/>
</g>
<!-- Node6 -->
<g id="node6" class="node">
<title>Node6</title>
<g id="a_node6"><a xlink:href="classsss_1_1api_1_1S3Api.html#a1796fafda3d90a4292a611ce1999433b" target="_top" xlink:title=" ">
<polygon fill="none" stroke="black" points="189,-381 189,-411 345,-411 345,-381 189,-381"/>
<text text-anchor="start" x="197" y="-399" font-family="Helvetica,sans-Serif" font-size="10.00">sss::api::S3Api::CreateMultipart</text>
<text text-anchor="middle" x="267" y="-388" font-family="Helvetica,sans-Serif" font-size="10.00">Upload</text>
</a>
</g>
</g>
<!-- Node2&#45;&gt;Node6 -->
<g id="edge5" class="edge">
<title>Node2&#45;&gt;Node6</title>
<path fill="none" stroke="midnightblue" d="M443.03,-275.02C424.16,-300 386.78,-345.02 345,-371 338.91,-374.79 332.2,-378.05 325.34,-380.86"/>
<polygon fill="midnightblue" stroke="midnightblue" points="445.99,-276.91 449.12,-266.79 440.36,-272.74 445.99,-276.91"/>
</g>
<!-- Node7 -->
<g id="node7" class="node">
<title>Node7</title>
<g id="a_node7"><a xlink:href="classsss_1_1api_1_1S3Api.html#a3d63825d1916e4ba3ca13122c7660603" target="_top" xlink:title=" ">
<polygon fill="none" stroke="black" points="192.5,-342.5 192.5,-361.5 341.5,-361.5 341.5,-342.5 192.5,-342.5"/>
<text text-anchor="middle" x="267" y="-349.5" font-family="Helvetica,sans-Serif" font-size="10.00">sss::api::S3Api::DeleteBucket</text>
</a>
</g>
</g>
<!-- Node2&#45;&gt;Node7 -->
<g id="edge6" class="edge">
<title>Node2&#45;&gt;Node7</title>
<path fill="none" stroke="midnightblue" d="M436.98,-273.21C415.83,-290.44 380.03,-317.31 345,-333 336.58,-336.77 327.29,-339.87 318.17,-342.39"/>
<polygon fill="midnightblue" stroke="midnightblue" points="439.38,-275.77 444.84,-266.7 434.91,-270.38 439.38,-275.77"/>
</g>
<!-- Node8 -->
<g id="node8" class="node">
<title>Node8</title>
<g id="a_node8"><a xlink:href="classsss_1_1api_1_1S3Api.html#a14a75f15eb71fbba8639673100768b67" target="_top" xlink:title=" ">
<polygon fill="none" stroke="black" points="194,-304.5 194,-323.5 340,-323.5 340,-304.5 194,-304.5"/>
<text text-anchor="middle" x="267" y="-311.5" font-family="Helvetica,sans-Serif" font-size="10.00">sss::api::S3Api::DeleteObject</text>
</a>
</g>
</g>
<!-- Node2&#45;&gt;Node8 -->
<g id="edge7" class="edge">
<title>Node2&#45;&gt;Node8</title>
<path fill="none" stroke="midnightblue" d="M420.73,-269.96C399.04,-277.71 370.59,-287.48 345,-295 333.64,-298.34 321.22,-301.58 309.74,-304.41"/>
<polygon fill="midnightblue" stroke="midnightblue" points="421.97,-273.24 430.19,-266.56 419.6,-266.65 421.97,-273.24"/>
</g>
<!-- Node9 -->
<g id="node9" class="node">
<title>Node9</title>
<g id="a_node9"><a xlink:href="classsss_1_1api_1_1S3Api.html#a3b53152bf39143843a4033aa4a1b3fa0" target="_top" xlink:title=" ">
<polygon fill="none" stroke="black" points="192,-266.5 192,-285.5 342,-285.5 342,-266.5 192,-266.5"/>
<text text-anchor="middle" x="267" y="-273.5" font-family="Helvetica,sans-Serif" font-size="10.00">sss::api::S3Api::GetBucketAcl</text>
</a>
</g>
</g>
<!-- Node2&#45;&gt;Node9 -->
<g id="edge8" class="edge">
<title>Node2&#45;&gt;Node9</title>
<path fill="none" stroke="midnightblue" d="M390.78,-263.59C375.15,-265.17 358.35,-266.87 342.34,-268.49"/>
<polygon fill="midnightblue" stroke="midnightblue" points="391.27,-267.06 400.86,-262.57 390.56,-260.1 391.27,-267.06"/>
</g>
<!-- Node10 -->
<g id="node10" class="node">
<title>Node10</title>
<g id="a_node10"><a xlink:href="classsss_1_1api_1_1S3Api.html#af61465d92c0a94aa82ae863fc2a776a0" target="_top" xlink:title=" ">
<polygon fill="none" stroke="black" points="200,-228.5 200,-247.5 334,-247.5 334,-228.5 200,-228.5"/>
<text text-anchor="middle" x="267" y="-235.5" font-family="Helvetica,sans-Serif" font-size="10.00">sss::api::S3Api::GetObject</text>
</a>
</g>
</g>
<!-- Node2&#45;&gt;Node10 -->
<g id="edge9" class="edge">
<title>Node2&#45;&gt;Node10</title>
<path fill="none" stroke="midnightblue" d="M390.85,-250.42C372.5,-248.56 352.52,-246.54 334.11,-244.68"/>
<polygon fill="midnightblue" stroke="midnightblue" points="390.56,-253.9 400.86,-251.43 391.27,-246.94 390.56,-253.9"/>
</g>
<!-- Node11 -->
<g id="node11" class="node">
<title>Node11</title>
<g id="a_node11"><a xlink:href="classsss_1_1api_1_1S3Api.html#aa4a2b1cc2c89a52d1aa89e571b785db2" target="_top" xlink:title=" ">
<polygon fill="none" stroke="black" points="195.5,-190.5 195.5,-209.5 338.5,-209.5 338.5,-190.5 195.5,-190.5"/>
<text text-anchor="middle" x="267" y="-197.5" font-family="Helvetica,sans-Serif" font-size="10.00">sss::api::S3Api::HeadBucket</text>
</a>
</g>
</g>
<!-- Node2&#45;&gt;Node11 -->
<g id="edge10" class="edge">
<title>Node2&#45;&gt;Node11</title>
<path fill="none" stroke="midnightblue" d="M401.07,-244.7C394.23,-242.69 387.4,-240.46 381,-238 364.11,-231.51 361.91,-225.44 345,-219 335.35,-215.33 324.74,-212.17 314.57,-209.55"/>
<polygon fill="midnightblue" stroke="midnightblue" points="400.47,-248.16 411.04,-247.46 402.34,-241.42 400.47,-248.16"/>
</g>
<!-- Node12 -->
<g id="node12" class="node">
<title>Node12</title>
<g id="a_node12"><a xlink:href="classsss_1_1api_1_1S3Api.html#abc84a71b9a88b81afaa353ad17a91d22" target="_top" xlink:title=" ">
<polygon fill="none" stroke="black" points="196.5,-152.5 196.5,-171.5 337.5,-171.5 337.5,-152.5 196.5,-152.5"/>
<text text-anchor="middle" x="267" y="-159.5" font-family="Helvetica,sans-Serif" font-size="10.00">sss::api::S3Api::HeadObject</text>
</a>
</g>
</g>
<!-- Node2&#45;&gt;Node12 -->
<g id="edge11" class="edge">
<title>Node2&#45;&gt;Node12</title>
<path fill="none" stroke="midnightblue" d="M391.5,-244.27C387.81,-242.45 384.27,-240.37 381,-238 356.75,-220.4 369.3,-198.52 345,-181 339.64,-177.13 333.58,-174.05 327.28,-171.59"/>
<polygon fill="midnightblue" stroke="midnightblue" points="390.38,-247.6 400.96,-248.28 393.12,-241.15 390.38,-247.6"/>
</g>
<!-- Node15 -->
<g id="node15" class="node">
<title>Node15</title>
<g id="a_node15"><a xlink:href="classsss_1_1api_1_1S3Api.html#a81e30673c06b609a2ee6e6bfd9130ca6" target="_top" xlink:title=" ">
<polygon fill="none" stroke="black" points="196.5,-114.5 196.5,-133.5 337.5,-133.5 337.5,-114.5 196.5,-114.5"/>
<text text-anchor="middle" x="267" y="-121.5" font-family="Helvetica,sans-Serif" font-size="10.00">sss::api::S3Api::ListBuckets</text>
</a>
</g>
</g>
<!-- Node2&#45;&gt;Node15 -->
<g id="edge14" class="edge">
<title>Node2&#45;&gt;Node15</title>
<path fill="none" stroke="midnightblue" d="M391.61,-245.4C387.8,-243.31 384.21,-240.87 381,-238 347.3,-207.95 378.79,-172.95 345,-143 340.67,-139.16 335.69,-136.08 330.39,-133.59"/>
<polygon fill="midnightblue" stroke="midnightblue" points="390.31,-248.65 400.86,-249.64 393.23,-242.29 390.31,-248.65"/>
</g>
<!-- Node16 -->
<g id="node16" class="node">
<title>Node16</title>
<g id="a_node16"><a xlink:href="classsss_1_1api_1_1S3Api.html#a3f00f611cd210a58ac6e8c0555984433" target="_top" xlink:title=" ">
<polygon fill="none" stroke="black" points="191.5,-76.5 191.5,-95.5 342.5,-95.5 342.5,-76.5 191.5,-76.5"/>
<text text-anchor="middle" x="267" y="-83.5" font-family="Helvetica,sans-Serif" font-size="10.00">sss::api::S3Api::ListObjectsV2</text>
</a>
</g>
</g>
<!-- Node2&#45;&gt;Node16 -->
<g id="edge15" class="edge">
<title>Node2&#45;&gt;Node16</title>
<path fill="none" stroke="midnightblue" d="M391.48,-245.87C387.67,-243.67 384.12,-241.07 381,-238 337.35,-195.05 388.78,-147.81 345,-105 341.06,-101.15 336.47,-98.04 331.54,-95.53"/>
<polygon fill="midnightblue" stroke="midnightblue" points="390.24,-249.15 400.77,-250.29 393.25,-242.83 390.24,-249.15"/>
</g>
<!-- Node17 -->
<g id="node17" class="node">
<title>Node17</title>
<g id="a_node17"><a xlink:href="classsss_1_1api_1_1S3Api.html#a0473917e4d25a4a6fca40d097e4299d6" target="_top" xlink:title=" ">
<polygon fill="none" stroke="black" points="211,-38.5 211,-57.5 323,-57.5 323,-38.5 211,-38.5"/>
<text text-anchor="middle" x="267" y="-45.5" font-family="Helvetica,sans-Serif" font-size="10.00">sss::api::S3Api::Send</text>
</a>
</g>
</g>
<!-- Node2&#45;&gt;Node17 -->
<g id="edge16" class="edge">
<title>Node2&#45;&gt;Node17</title>
<path fill="none" stroke="midnightblue" d="M391.79,-246.37C387.83,-244.07 384.17,-241.3 381,-238 327.21,-181.98 398.96,-122.86 345,-67 338.97,-60.76 331.25,-56.44 323.03,-53.48"/>
<polygon fill="midnightblue" stroke="midnightblue" points="390.34,-249.55 400.87,-250.72 393.36,-243.24 390.34,-249.55"/>
</g>
<!-- Node18 -->
<g id="node18" class="node">
<title>Node18</title>
<g id="a_node18"><a xlink:href="classsss_1_1api_1_1S3Api.html#a23223ee1fb701c55af2d942dbf261ae2" target="_top" xlink:title=" ">
<polygon fill="none" stroke="black" points="197.5,-0.5 197.5,-19.5 336.5,-19.5 336.5,-0.5 197.5,-0.5"/>
<text text-anchor="middle" x="267" y="-7.5" font-family="Helvetica,sans-Serif" font-size="10.00">sss::api::S3Api::TestBucket</text>
</a>
</g>
</g>
<!-- Node2&#45;&gt;Node18 -->
<g id="edge17" class="edge">
<title>Node2&#45;&gt;Node18</title>
<path fill="none" stroke="midnightblue" d="M391.65,-246.5C387.73,-244.17 384.11,-241.36 381,-238 316.98,-168.82 409.23,-97.98 345,-29 341.43,-25.17 337.23,-22.06 332.66,-19.54"/>
<polygon fill="midnightblue" stroke="midnightblue" points="390.15,-249.66 400.68,-250.9 393.22,-243.37 390.15,-249.66"/>
</g>
<!-- Node13 -->
<g id="node13" class="node">
<title>Node13</title>
<g id="a_node13"><a xlink:href="classsss_1_1api_1_1S3Api.html#a872e80e356e8c404a9b0739d95a0af41" target="_top" xlink:title="[WebClient::Config]">
<polygon fill="none" stroke="black" points="0,-171.5 0,-190.5 153,-190.5 153,-171.5 0,-171.5"/>
<text text-anchor="middle" x="76.5" y="-178.5" font-family="Helvetica,sans-Serif" font-size="10.00">sss::api::S3Api::GetObjectSize</text>
</a>
</g>
</g>
<!-- Node12&#45;&gt;Node13 -->
<g id="edge12" class="edge">
<title>Node12&#45;&gt;Node13</title>
<path fill="none" stroke="midnightblue" d="M186.35,-170.03C175.37,-171.14 164.11,-172.27 153.2,-173.37"/>
<polygon fill="midnightblue" stroke="midnightblue" points="186.75,-173.51 196.35,-169.02 186.04,-166.54 186.75,-173.51"/>
</g>
<!-- Node14 -->
<g id="node14" class="node">
<title>Node14</title>
<g id="a_node14"><a xlink:href="classsss_1_1api_1_1S3Api.html#aa3f7a3001bdad58c7b0c04cbd0dc3236" target="_top" xlink:title=" ">
<polygon fill="none" stroke="black" points="8,-133.5 8,-152.5 145,-152.5 145,-133.5 8,-133.5"/>
<text text-anchor="middle" x="76.5" y="-140.5" font-family="Helvetica,sans-Serif" font-size="10.00">sss::api::S3Api::TestObject</text>
</a>
</g>
</g>
<!-- Node12&#45;&gt;Node14 -->
<g id="edge13" class="edge">
<title>Node12&#45;&gt;Node14</title>
<path fill="none" stroke="midnightblue" d="M186.07,-153.94C172.5,-152.58 158.52,-151.17 145.3,-149.83"/>
<polygon fill="midnightblue" stroke="midnightblue" points="186.04,-157.46 196.35,-154.98 186.75,-150.49 186.04,-157.46"/>
</g>
</g>
</svg>
