<?xml version="1.0" encoding="UTF-8" standalone="no"?>
<!DOCTYPE svg PUBLIC "-//W3C//DTD SVG 1.1//EN"
 "http://www.w3.org/Graphics/SVG/1.1/DTD/svg11.dtd">
<!-- Generated by graphviz version 2.43.0 (0)
 -->
<!-- Title: sss::WebClient::GetResponseBody Pages: 1 -->
<svg width="762pt" height="542pt"
 viewBox="0.00 0.00 762.00 541.50" xmlns="http://www.w3.org/2000/svg" xmlns:xlink="http://www.w3.org/1999/xlink">
<g id="graph0" class="graph" transform="scale(1 1) rotate(0) translate(4 537.5)">
<title>sss::WebClient::GetResponseBody</title>
<!-- Node1 -->
<g id="node1" class="node">
<title>Node1</title>
<g id="a_node1"><a xlink:title=" ">
<polygon fill="#bfbfbf" stroke="black" points="582,-215.5 582,-234.5 754,-234.5 754,-215.5 582,-215.5"/>
<text text-anchor="middle" x="668" y="-222.5" font-family="Helvetica,sans-Serif" font-size="10.00">sss::WebClient::GetResponseBody</text>
</a>
</g>
</g>
<!-- Node2 -->
<g id="node2" class="node">
<title>Node2</title>
<g id="a_node2"><a xlink:href="classsss_1_1WebClient.html#ac9e82fc4b56b142d91f9b104f5266f91" target="_top" xlink:title="Get response body as text.">
<polygon fill="none" stroke="black" points="381,-234.5 381,-253.5 539,-253.5 539,-234.5 381,-234.5"/>
<text text-anchor="middle" x="460" y="-241.5" font-family="Helvetica,sans-Serif" font-size="10.00">sss::WebClient::GetContentText</text>
</a>
</g>
</g>
<!-- Node1&#45;&gt;Node2 -->
<g id="edge1" class="edge">
<title>Node1&#45;&gt;Node2</title>
<path fill="none" stroke="midnightblue" d="M571.45,-233.81C560.68,-234.81 549.8,-235.81 539.28,-236.78"/>
<polygon fill="midnightblue" stroke="midnightblue" points="572.09,-237.27 581.72,-232.87 571.45,-230.3 572.09,-237.27"/>
</g>
<!-- Node17 -->
<g id="node17" class="node">
<title>Node17</title>
<g id="a_node17"><a xlink:href="classsss_1_1api_1_1S3Api.html#a83364bc622245c0396a3bbc46399baf4" target="_top" xlink:title=" ">
<polygon fill="none" stroke="black" points="374,-196.5 374,-215.5 546,-215.5 546,-196.5 374,-196.5"/>
<text text-anchor="middle" x="460" y="-203.5" font-family="Helvetica,sans-Serif" font-size="10.00">sss::api::S3Api::GetResponseBody</text>
</a>
</g>
</g>
<!-- Node1&#45;&gt;Node17 -->
<g id="edge16" class="edge">
<title>Node1&#45;&gt;Node17</title>
<path fill="none" stroke="midnightblue" d="M571.76,-216.22C563.24,-215.43 554.64,-214.64 546.21,-213.86"/>
<polygon fill="midnightblue" stroke="midnightblue" points="571.45,-219.7 581.72,-217.13 572.09,-212.73 571.45,-219.7"/>
</g>
<!-- Node3 -->
<g id="node3" class="node">
<title>Node3</title>
<g id="a_node3"><a xlink:href="classsss_1_1api_1_1S3Api.html#a98f999a216121118dd569c7ef0c28ff3" target="_top" xlink:title="Complete multipart upload.">
<polygon fill="none" stroke="black" points="188.5,-503 188.5,-533 319.5,-533 319.5,-503 188.5,-503"/>
<text text-anchor="start" x="196.5" y="-521" font-family="Helvetica,sans-Serif" font-size="10.00">sss::api::S3Api::Complete</text>
<text text-anchor="middle" x="254" y="-510" font-family="Helvetica,sans-Serif" font-size="10.00">MultipartUpload</text>
</a>
</g>
</g>
<!-- Node2&#45;&gt;Node3 -->
<g id="edge2" class="edge">
<title>Node2&#45;&gt;Node3</title>
<path fill="none" stroke="midnightblue" d="M455.24,-263.45C445.13,-310.42 412.9,-430.82 338,-494 332.61,-498.55 326.4,-502.23 319.86,-505.22"/>
<polygon fill="midnightblue" stroke="midnightblue" points="458.67,-264.13 457.26,-253.64 451.82,-262.73 458.67,-264.13"/>
</g>
<!-- Node4 -->
<g id="node4" class="node">
<title>Node4</title>
<g id="a_node4"><a xlink:href="classsss_1_1api_1_1S3Api.html#a1796fafda3d90a4292a611ce1999433b" target="_top" xlink:title="Create multipart upload.">
<polygon fill="none" stroke="black" points="176,-454 176,-484 332,-484 332,-454 176,-454"/>
<text text-anchor="start" x="184" y="-472" font-family="Helvetica,sans-Serif" font-size="10.00">sss::api::S3Api::CreateMultipart</text>
<text text-anchor="middle" x="254" y="-461" font-family="Helvetica,sans-Serif" font-size="10.00">Upload</text>
</a>
</g>
</g>
<!-- Node2&#45;&gt;Node4 -->
<g id="edge3" class="edge">
<title>Node2&#45;&gt;Node4</title>
<path fill="none" stroke="midnightblue" d="M452.74,-263.2C438.75,-303.03 401.16,-395.02 338,-444 333.01,-447.87 327.42,-451.15 321.56,-453.92"/>
<polygon fill="midnightblue" stroke="midnightblue" points="456.08,-264.23 455.99,-253.63 449.46,-261.97 456.08,-264.23"/>
</g>
<!-- Node5 -->
<g id="node5" class="node">
<title>Node5</title>
<g id="a_node5"><a xlink:href="classsss_1_1api_1_1S3Api.html#a3b53152bf39143843a4033aa4a1b3fa0" target="_top" xlink:title=" ">
<polygon fill="none" stroke="black" points="179,-415.5 179,-434.5 329,-434.5 329,-415.5 179,-415.5"/>
<text text-anchor="middle" x="254" y="-422.5" font-family="Helvetica,sans-Serif" font-size="10.00">sss::api::S3Api::GetBucketAcl</text>
</a>
</g>
</g>
<!-- Node2&#45;&gt;Node5 -->
<g id="edge4" class="edge">
<title>Node2&#45;&gt;Node5</title>
<path fill="none" stroke="midnightblue" d="M450.48,-262.83C433.98,-297.08 394.25,-369.37 338,-406 332.05,-409.87 325.42,-412.96 318.56,-415.42"/>
<polygon fill="midnightblue" stroke="midnightblue" points="453.78,-264.05 454.85,-253.51 447.44,-261.08 453.78,-264.05"/>
</g>
<!-- Node6 -->
<g id="node6" class="node">
<title>Node6</title>
<g id="a_node6"><a xlink:href="classsss_1_1api_1_1S3Api.html#afdb9997dfbd29512cbfe8da9f0028cf8" target="_top" xlink:title="Return bucket tags.">
<polygon fill="none" stroke="black" points="186,-366 186,-396 322,-396 322,-366 186,-366"/>
<text text-anchor="start" x="194" y="-384" font-family="Helvetica,sans-Serif" font-size="10.00">sss::api::S3Api::GetBucket</text>
<text text-anchor="middle" x="254" y="-373" font-family="Helvetica,sans-Serif" font-size="10.00">Tagging</text>
</a>
</g>
</g>
<!-- Node2&#45;&gt;Node6 -->
<g id="edge5" class="edge">
<title>Node2&#45;&gt;Node6</title>
<path fill="none" stroke="midnightblue" d="M444.86,-261.66C424.03,-286.52 382.72,-331.61 338,-357 332,-360.41 325.48,-363.36 318.81,-365.92"/>
<polygon fill="midnightblue" stroke="midnightblue" points="447.69,-263.73 451.34,-253.78 442.28,-259.28 447.69,-263.73"/>
</g>
<!-- Node7 -->
<g id="node7" class="node">
<title>Node7</title>
<g id="a_node7"><a xlink:href="classsss_1_1api_1_1S3Api.html#a26387e640fa4d3c0715dc48f932ae410" target="_top" xlink:title="Retrieve versioning status.">
<polygon fill="none" stroke="black" points="186,-317 186,-347 322,-347 322,-317 186,-317"/>
<text text-anchor="start" x="194" y="-335" font-family="Helvetica,sans-Serif" font-size="10.00">sss::api::S3Api::GetBucket</text>
<text text-anchor="middle" x="254" y="-324" font-family="Helvetica,sans-Serif" font-size="10.00">Versioning</text>
</a>
</g>
</g>
<!-- Node2&#45;&gt;Node7 -->
<g id="edge6" class="edge">
<title>Node2&#45;&gt;Node7</title>
<path fill="none" stroke="midnightblue" d="M434.23,-258.66C410.22,-272.43 372.47,-292.98 338,-307 329.22,-310.57 319.73,-313.9 310.42,-316.89"/>
<polygon fill="midnightblue" stroke="midnightblue" points="436.12,-261.6 443.02,-253.56 432.61,-255.54 436.12,-261.6"/>
</g>
<!-- Node8 -->
<g id="node8" class="node">
<title>Node8</title>
<g id="a_node8"><a xlink:href="classsss_1_1api_1_1S3Api.html#ae548966dc38f328fc45ee1500f5caf5b" target="_top" xlink:title="Return bucket&#39;s Access Control List.">
<polygon fill="none" stroke="black" points="180,-278.5 180,-297.5 328,-297.5 328,-278.5 180,-278.5"/>
<text text-anchor="middle" x="254" y="-285.5" font-family="Helvetica,sans-Serif" font-size="10.00">sss::api::S3Api::GetObjectAcl</text>
</a>
</g>
</g>
<!-- Node2&#45;&gt;Node8 -->
<g id="edge7" class="edge">
<title>Node2&#45;&gt;Node8</title>
<path fill="none" stroke="midnightblue" d="M404.79,-255.69C371.79,-262.81 330.17,-271.79 299.18,-278.47"/>
<polygon fill="midnightblue" stroke="midnightblue" points="405.7,-259.08 414.74,-253.55 404.22,-252.23 405.7,-259.08"/>
</g>
<!-- Node9 -->
<g id="node9" class="node">
<title>Node9</title>
<g id="a_node9"><a xlink:href="classsss_1_1api_1_1S3Api.html#aceb12e50a72a7b9b3ca460c23671c586" target="_top" xlink:title="Return object tags.">
<polygon fill="none" stroke="black" points="187,-229 187,-259 321,-259 321,-229 187,-229"/>
<text text-anchor="start" x="195" y="-247" font-family="Helvetica,sans-Serif" font-size="10.00">sss::api::S3Api::GetObject</text>
<text text-anchor="middle" x="254" y="-236" font-family="Helvetica,sans-Serif" font-size="10.00">Tagging</text>
</a>
</g>
</g>
<!-- Node2&#45;&gt;Node9 -->
<g id="edge8" class="edge">
<title>Node2&#45;&gt;Node9</title>
<path fill="none" stroke="midnightblue" d="M370.48,-244C353.92,-244 336.87,-244 321.14,-244"/>
<polygon fill="midnightblue" stroke="midnightblue" points="370.71,-247.5 380.71,-244 370.71,-240.5 370.71,-247.5"/>
</g>
<!-- Node10 -->
<g id="node10" class="node">
<title>Node10</title>
<g id="a_node10"><a xlink:href="classsss_1_1api_1_1S3Api.html#a014e8431fd351f9994324527f74ba3e9" target="_top" xlink:title=" ">
<polygon fill="none" stroke="black" points="170,-190.5 170,-209.5 338,-209.5 338,-190.5 170,-190.5"/>
<text text-anchor="middle" x="254" y="-197.5" font-family="Helvetica,sans-Serif" font-size="10.00">sss::api::S3Api::GetResponseText</text>
</a>
</g>
</g>
<!-- Node2&#45;&gt;Node10 -->
<g id="edge9" class="edge">
<title>Node2&#45;&gt;Node10</title>
<path fill="none" stroke="midnightblue" d="M404.79,-232.31C371.79,-225.19 330.17,-216.21 299.18,-209.53"/>
<polygon fill="midnightblue" stroke="midnightblue" points="404.22,-235.77 414.74,-234.45 405.7,-228.92 404.22,-235.77"/>
</g>
<!-- Node12 -->
<g id="node12" class="node">
<title>Node12</title>
<g id="a_node12"><a xlink:href="classsss_1_1api_1_1S3Api.html#aa4a2b1cc2c89a52d1aa89e571b785db2" target="_top" xlink:title=" ">
<polygon fill="none" stroke="black" points="182.5,-152.5 182.5,-171.5 325.5,-171.5 325.5,-152.5 182.5,-152.5"/>
<text text-anchor="middle" x="254" y="-159.5" font-family="Helvetica,sans-Serif" font-size="10.00">sss::api::S3Api::HeadBucket</text>
</a>
</g>
</g>
<!-- Node2&#45;&gt;Node12 -->
<g id="edge11" class="edge">
<title>Node2&#45;&gt;Node12</title>
<path fill="none" stroke="midnightblue" d="M384.89,-230.69C381.11,-229.02 377.45,-227.13 374,-225 352.49,-211.74 359.47,-194.32 338,-181 331.72,-177.1 324.72,-174.01 317.54,-171.54"/>
<polygon fill="midnightblue" stroke="midnightblue" points="383.93,-234.08 394.52,-234.45 386.48,-227.56 383.93,-234.08"/>
</g>
<!-- Node13 -->
<g id="node13" class="node">
<title>Node13</title>
<g id="a_node13"><a xlink:href="classsss_1_1api_1_1S3Api.html#a81e30673c06b609a2ee6e6bfd9130ca6" target="_top" xlink:title="List buckets.">
<polygon fill="none" stroke="black" points="183.5,-114.5 183.5,-133.5 324.5,-133.5 324.5,-114.5 183.5,-114.5"/>
<text text-anchor="middle" x="254" y="-121.5" font-family="Helvetica,sans-Serif" font-size="10.00">sss::api::S3Api::ListBuckets</text>
</a>
</g>
</g>
<!-- Node2&#45;&gt;Node13 -->
<g id="edge12" class="edge">
<title>Node2&#45;&gt;Node13</title>
<path fill="none" stroke="midnightblue" d="M380.46,-229.63C378.2,-228.22 376.04,-226.68 374,-225 343.27,-199.71 368.67,-168.37 338,-143 333.33,-139.14 328.03,-136.02 322.41,-133.52"/>
<polygon fill="midnightblue" stroke="midnightblue" points="379.08,-232.86 389.55,-234.45 382.36,-226.68 379.08,-232.86"/>
</g>
<!-- Node14 -->
<g id="node14" class="node">
<title>Node14</title>
<g id="a_node14"><a xlink:href="classsss_1_1api_1_1S3Api.html#a3f00f611cd210a58ac6e8c0555984433" target="_top" xlink:title="List objects by sending a ListObjectsV2 request.">
<polygon fill="none" stroke="black" points="178.5,-76.5 178.5,-95.5 329.5,-95.5 329.5,-76.5 178.5,-76.5"/>
<text text-anchor="middle" x="254" y="-83.5" font-family="Helvetica,sans-Serif" font-size="10.00">sss::api::S3Api::ListObjectsV2</text>
</a>
</g>
</g>
<!-- Node2&#45;&gt;Node14 -->
<g id="edge13" class="edge">
<title>Node2&#45;&gt;Node14</title>
<path fill="none" stroke="midnightblue" d="M378.84,-229C377.15,-227.76 375.54,-226.43 374,-225 333.24,-187.06 378.66,-143.04 338,-105 333.9,-101.16 329.19,-98.04 324.13,-95.52"/>
<polygon fill="midnightblue" stroke="midnightblue" points="377.44,-232.24 387.8,-234.45 381.08,-226.26 377.44,-232.24"/>
</g>
<!-- Node15 -->
<g id="node15" class="node">
<title>Node15</title>
<g id="a_node15"><a xlink:href="classsss_1_1api_1_1S3Api.html#aa35e9b1cc7661cd9bb0d5f2de6cbbc7d" target="_top" xlink:title="Set Access Control Policy for bucket.">
<polygon fill="none" stroke="black" points="179.5,-38.5 179.5,-57.5 328.5,-57.5 328.5,-38.5 179.5,-38.5"/>
<text text-anchor="middle" x="254" y="-45.5" font-family="Helvetica,sans-Serif" font-size="10.00">sss::api::S3Api::PutBucketAcl</text>
</a>
</g>
</g>
<!-- Node2&#45;&gt;Node15 -->
<g id="edge14" class="edge">
<title>Node2&#45;&gt;Node15</title>
<path fill="none" stroke="midnightblue" d="M378.06,-228.62C376.64,-227.49 375.29,-226.28 374,-225 322.97,-174.18 388.9,-117.95 338,-67 334.24,-63.24 329.89,-60.15 325.2,-57.64"/>
<polygon fill="midnightblue" stroke="midnightblue" points="376.44,-231.74 386.72,-234.32 380.29,-225.9 376.44,-231.74"/>
</g>
<!-- Node16 -->
<g id="node16" class="node">
<title>Node16</title>
<g id="a_node16"><a xlink:href="classsss_1_1api_1_1S3Api.html#a2cc08fb777cfc4d24c40bea1cde967e7" target="_top" xlink:title="Set Access Control Policy.">
<polygon fill="none" stroke="black" points="180.5,-0.5 180.5,-19.5 327.5,-19.5 327.5,-0.5 180.5,-0.5"/>
<text text-anchor="middle" x="254" y="-7.5" font-family="Helvetica,sans-Serif" font-size="10.00">sss::api::S3Api::PutObjectAcl</text>
</a>
</g>
</g>
<!-- Node2&#45;&gt;Node16 -->
<g id="edge15" class="edge">
<title>Node2&#45;&gt;Node16</title>
<path fill="none" stroke="midnightblue" d="M377.98,-228.69C376.59,-227.54 375.26,-226.31 374,-225 312.58,-161.19 399.25,-92.97 338,-29 334.42,-25.26 330.27,-22.19 325.77,-19.68"/>
<polygon fill="midnightblue" stroke="midnightblue" points="376.3,-231.78 386.54,-234.49 380.22,-225.98 376.3,-231.78"/>
</g>
<!-- Node11 -->
<g id="node11" class="node">
<title>Node11</title>
<g id="a_node11"><a xlink:href="classsss_1_1api_1_1S3Api.html#a9695a76eb84d3e52800d037f1ef391aa" target="_top" xlink:title="Return all versions and delete markers for object.">
<polygon fill="none" stroke="black" points="0,-185 0,-215 134,-215 134,-185 0,-185"/>
<text text-anchor="start" x="8" y="-203" font-family="Helvetica,sans-Serif" font-size="10.00">sss::api::S3Api::ListObject</text>
<text text-anchor="middle" x="67" y="-192" font-family="Helvetica,sans-Serif" font-size="10.00">Versions</text>
</a>
</g>
</g>
<!-- Node10&#45;&gt;Node11 -->
<g id="edge10" class="edge">
<title>Node10&#45;&gt;Node11</title>
<path fill="none" stroke="midnightblue" d="M159.81,-200C151.14,-200 142.47,-200 134.12,-200"/>
<polygon fill="midnightblue" stroke="midnightblue" points="159.97,-203.5 169.97,-200 159.97,-196.5 159.97,-203.5"/>
</g>
</g>
</svg>
