<?xml version="1.0" encoding="UTF-8" standalone="no"?>
<!DOCTYPE svg PUBLIC "-//W3C//DTD SVG 1.1//EN"
 "http://www.w3.org/Graphics/SVG/1.1/DTD/svg11.dtd">
<!-- Generated by graphviz version 2.43.0 (0)
 -->
<!-- Title: sss::api::S3Api::ListObjectVersions Pages: 1 -->
<!--zoomable 571 -->
<svg id="main" version="1.1" xmlns="http://www.w3.org/2000/svg" xmlns:xlink="http://www.w3.org/1999/xlink" xml:space="preserve" onload="init(evt)">
<style type="text/css"><![CDATA[
.edge:hover path { stroke: red; }
.edge:hover polygon { stroke: red; fill: red; }
]]></style>
<script type="text/javascript"><![CDATA[
var edges = document.getElementsByTagName('g');
if (edges && edges.length) {
  for (var i=0;i<edges.length;i++) {
    if (edges[i].id.substr(0,4)=='edge') {
      edges[i].setAttribute('class','edge');
    }
  }
}
]]></script>
        <defs>
                <circle id="rim" cx="0" cy="0" r="7"/>
                <circle id="rim2" cx="0" cy="0" r="3.5"/>
                <g id="zoomPlus">
                        <use xlink:href="#rim" fill="#404040">
                                <set attributeName="fill" to="#808080" begin="zoomplus.mouseover" end="zoomplus.mouseout"/>
                        </use>
                        <path d="M-4,0h8M0,-4v8" fill="none" stroke="white" stroke-width="1.5" pointer-events="none"/>
                </g>
                <g id="zoomMin">
                        <use xlink:href="#rim" fill="#404040">
                                <set attributeName="fill" to="#808080" begin="zoomminus.mouseover" end="zoomminus.mouseout"/>
                        </use>
                        <path d="M-4,0h8" fill="none" stroke="white" stroke-width="1.5" pointer-events="none"/>
                </g>
                <g id="dirArrow">
                        <path fill="none" stroke="white" stroke-width="1.5" d="M0,-3.0v7 M-2.5,-0.5L0,-3.0L2.5,-0.5"/>
                </g>
               <g id="resetDef">
                       <use xlink:href="#rim2" fill="#404040">
                               <set attributeName="fill" to="#808080" begin="reset.mouseover" end="reset.mouseout"/>
                       </use>
               </g>
        </defs>

<script type="text/javascript">
var viewWidth = 1160;
var viewHeight = 571;
var sectionId = 'dynsection-28';
</script>
<script xlink:href="svgpan.js"/>
<svg id="graph" class="graph">
<g id="viewport">
<title>sss::api::S3Api::ListObjectVersions</title>
<!-- Node1 -->
<g id="node1" class="node">
<title>Node1</title>
<g id="a_node1"><a xlink:title="Return all versions and delete markers for object.">
<polygon fill="#bfbfbf" stroke="black" points="0,-430.56 0,-460.56 134,-460.56 134,-430.56 0,-430.56"/>
<text text-anchor="start" x="8" y="-448.56" font-family="Helvetica,sans-Serif" font-size="10.00">sss::api::S3Api::ListObject</text>
<text text-anchor="middle" x="67" y="-437.56" font-family="Helvetica,sans-Serif" font-size="10.00">Versions</text>
</a>
</g>
</g>
<!-- Node2 -->
<g id="node2" class="node">
<title>Node2</title>
<g id="a_node2"><a xlink:href="classsss_1_1api_1_1S3Api.html#a014e8431fd351f9994324527f74ba3e9" target="_top" xlink:title=" ">
<polygon fill="none" stroke="black" points="170,-499.06 170,-518.06 338,-518.06 338,-499.06 170,-499.06"/>
<text text-anchor="middle" x="254" y="-506.06" font-family="Helvetica,sans-Serif" font-size="10.00">sss::api::S3Api::GetResponseText</text>
</a>
</g>
</g>
<!-- Node1&#45;&gt;Node2 -->
<g id="edge1" class="edge">
<title>Node1&#45;&gt;Node2</title>
<path fill="none" stroke="midnightblue" d="M112.31,-460.65C143.72,-471.34 185.4,-485.54 215.23,-495.7"/>
<polygon fill="midnightblue" stroke="midnightblue" points="214.27,-499.07 224.86,-498.98 216.52,-492.44 214.27,-499.07"/>
</g>
<!-- Node5 -->
<g id="node5" class="node">
<title>Node5</title>
<g id="a_node5"><a xlink:href="classsss_1_1api_1_1S3Api.html#a02b4f0c95255f151beb72f0a6bdf5889" target="_top" xlink:title="Send request.">
<polygon fill="none" stroke="black" points="198,-417.06 198,-436.06 310,-436.06 310,-417.06 198,-417.06"/>
<text text-anchor="middle" x="254" y="-424.06" font-family="Helvetica,sans-Serif" font-size="10.00">sss::api::S3Api::Send</text>
</a>
</g>
</g>
<!-- Node1&#45;&gt;Node5 -->
<g id="edge4" class="edge">
<title>Node1&#45;&gt;Node5</title>
<path fill="none" stroke="midnightblue" d="M134.01,-438.78C151.44,-436.99 170.25,-435.06 187.65,-433.27"/>
<polygon fill="midnightblue" stroke="midnightblue" points="188.12,-436.74 197.71,-432.24 187.41,-429.78 188.12,-436.74"/>
</g>
<!-- Node3 -->
<g id="node3" class="node">
<title>Node3</title>
<g id="a_node3"><a xlink:href="classsss_1_1WebClient.html#ac9e82fc4b56b142d91f9b104f5266f91" target="_top" xlink:title="Get response body as text.">
<polygon fill="none" stroke="black" points="374,-543.06 374,-562.06 532,-562.06 532,-543.06 374,-543.06"/>
<text text-anchor="middle" x="453" y="-550.06" font-family="Helvetica,sans-Serif" font-size="10.00">sss::WebClient::GetContentText</text>
</a>
</g>
</g>
<!-- Node2&#45;&gt;Node3 -->
<g id="edge2" class="edge">
<title>Node2&#45;&gt;Node3</title>
<path fill="none" stroke="midnightblue" d="M297.75,-518.11C327.56,-524.77 367.54,-533.7 399.33,-540.8"/>
<polygon fill="midnightblue" stroke="midnightblue" points="398.81,-544.27 409.34,-543.03 400.34,-537.43 398.81,-544.27"/>
</g>
<!-- Node4 -->
<g id="node4" class="node">
<title>Node4</title>
<g id="a_node4"><a xlink:href="classsss_1_1WebClient.html#a77a4e0190a4f207b969cb63b6ba38ccc" target="_top" xlink:title=" ">
<polygon fill="none" stroke="black" points="568,-543.06 568,-562.06 740,-562.06 740,-543.06 568,-543.06"/>
<text text-anchor="middle" x="654" y="-550.06" font-family="Helvetica,sans-Serif" font-size="10.00">sss::WebClient::GetResponseBody</text>
</a>
</g>
</g>
<!-- Node3&#45;&gt;Node4 -->
<g id="edge3" class="edge">
<title>Node3&#45;&gt;Node4</title>
<path fill="none" stroke="midnightblue" d="M532.08,-552.56C540.53,-552.56 549.2,-552.56 557.83,-552.56"/>
<polygon fill="midnightblue" stroke="midnightblue" points="557.92,-556.06 567.92,-552.56 557.92,-549.06 557.92,-556.06"/>
</g>
<!-- Node6 -->
<g id="node6" class="node">
<title>Node6</title>
<g id="a_node6"><a xlink:href="classsss_1_1api_1_1S3Api.html#a840772746fbb0a79c161037da7b24a31" target="_top" xlink:title="Configure instance.">
<polygon fill="none" stroke="black" points="394,-189.06 394,-208.06 512,-208.06 512,-189.06 394,-189.06"/>
<text text-anchor="middle" x="453" y="-196.06" font-family="Helvetica,sans-Serif" font-size="10.00">sss::api::S3Api::Config</text>
</a>
</g>
</g>
<!-- Node5&#45;&gt;Node6 -->
<g id="edge5" class="edge">
<title>Node5&#45;&gt;Node6</title>
<path fill="none" stroke="midnightblue" d="M263.21,-417.05C293.31,-382.22 397.86,-261.21 437.03,-215.88"/>
<polygon fill="midnightblue" stroke="midnightblue" points="439.86,-217.96 443.75,-208.11 434.56,-213.38 439.86,-217.96"/>
</g>
<!-- Node15 -->
<g id="node15" class="node">
<title>Node15</title>
<g id="a_node15"><a xlink:href="classsss_1_1WebClient.html#a51ce0ecf6487b6a43072643fe4f4cb4e" target="_top" xlink:title=" ">
<polygon fill="none" stroke="black" points="790.5,-317.06 790.5,-336.06 936.5,-336.06 936.5,-317.06 790.5,-317.06"/>
<text text-anchor="middle" x="863.5" y="-324.06" font-family="Helvetica,sans-Serif" font-size="10.00">sss::WebClient::SetPostData</text>
</a>
</g>
</g>
<!-- Node5&#45;&gt;Node15 -->
<g id="edge26" class="edge">
<title>Node5&#45;&gt;Node15</title>
<path fill="none" stroke="midnightblue" d="M310.12,-433.82C401.88,-443.84 590.62,-455.69 740,-407.56 781.53,-394.18 822.28,-362.49 844.73,-342.95"/>
<polygon fill="midnightblue" stroke="midnightblue" points="847.26,-345.38 852.4,-336.12 842.61,-340.15 847.26,-345.38"/>
</g>
<!-- Node22 -->
<g id="node22" class="node">
<title>Node22</title>
<g id="a_node22"><a xlink:href="group__Internal.html#ga2b8b08c2a4994a87377d83ccfa9a6a53" target="_top" xlink:title=" ">
<polygon fill="none" stroke="black" points="404,-455.06 404,-474.06 502,-474.06 502,-455.06 404,-455.06"/>
<text text-anchor="middle" x="453" y="-462.06" font-family="Helvetica,sans-Serif" font-size="10.00">sss::ParseParams</text>
</a>
</g>
</g>
<!-- Node5&#45;&gt;Node22 -->
<g id="edge24" class="edge">
<title>Node5&#45;&gt;Node22</title>
<path fill="none" stroke="midnightblue" d="M304.46,-436.1C331.56,-441.33 365.31,-447.84 393.69,-453.31"/>
<polygon fill="midnightblue" stroke="midnightblue" points="393.4,-456.82 403.88,-455.28 394.73,-449.95 393.4,-456.82"/>
</g>
<!-- Node23 -->
<g id="node23" class="node">
<title>Node23</title>
<g id="a_node23"><a xlink:href="classsss_1_1WebClient.html#aa1d7484f0e09242ce53b24f9648ce50e" target="_top" xlink:title=" ">
<polygon fill="none" stroke="black" points="598,-379.06 598,-398.06 710,-398.06 710,-379.06 598,-379.06"/>
<text text-anchor="middle" x="654" y="-386.06" font-family="Helvetica,sans-Serif" font-size="10.00">sss::WebClient::Send</text>
</a>
</g>
</g>
<!-- Node5&#45;&gt;Node23 -->
<g id="edge25" class="edge">
<title>Node5&#45;&gt;Node23</title>
<path fill="none" stroke="midnightblue" d="M310.06,-419.72C330.17,-417.32 353.1,-414.69 374,-412.56 447.08,-405.12 531.08,-398.1 587.66,-393.6"/>
<polygon fill="midnightblue" stroke="midnightblue" points="588.2,-397.07 597.9,-392.79 587.65,-390.09 588.2,-397.07"/>
</g>
<!-- Node24 -->
<g id="node24" class="node">
<title>Node24</title>
<g id="a_node24"><a xlink:href="classsss_1_1WebClient.html#a7dfd984b33a29686fb0355b65b620e99" target="_top" xlink:title=" ">
<polygon fill="none" stroke="black" points="375.5,-493.56 375.5,-523.56 530.5,-523.56 530.5,-493.56 375.5,-493.56"/>
<text text-anchor="start" x="383.5" y="-511.56" font-family="Helvetica,sans-Serif" font-size="10.00">sss::WebClient::SetUrlEncoded</text>
<text text-anchor="middle" x="453" y="-500.56" font-family="Helvetica,sans-Serif" font-size="10.00">PostData</text>
</a>
</g>
</g>
<!-- Node5&#45;&gt;Node24 -->
<g id="edge27" class="edge">
<title>Node5&#45;&gt;Node24</title>
<path fill="none" stroke="midnightblue" d="M273.2,-436.24C296.25,-448.28 337.39,-469 374,-483.56 379.81,-485.87 385.93,-488.12 392.07,-490.27"/>
<polygon fill="midnightblue" stroke="midnightblue" points="391.11,-493.64 401.71,-493.56 393.37,-487.02 391.11,-493.64"/>
</g>
<!-- Node26 -->
<g id="node26" class="node">
<title>Node26</title>
<g id="a_node26"><a xlink:href="classsss_1_1WebClient.html#ae7b1f77bd4ae44585f2d49ea493bdcc5" target="_top" xlink:title="Upload data from memory buffer.">
<polygon fill="none" stroke="black" points="382.5,-329.56 382.5,-359.56 523.5,-359.56 523.5,-329.56 382.5,-329.56"/>
<text text-anchor="start" x="390.5" y="-347.56" font-family="Helvetica,sans-Serif" font-size="10.00">sss::WebClient::UploadData</text>
<text text-anchor="middle" x="453" y="-336.56" font-family="Helvetica,sans-Serif" font-size="10.00">FromBuffer</text>
</a>
</g>
</g>
<!-- Node5&#45;&gt;Node26 -->
<g id="edge29" class="edge">
<title>Node5&#45;&gt;Node26</title>
<path fill="none" stroke="midnightblue" d="M276.37,-416.87C300.1,-406.21 339.59,-388.69 374,-374.56 383.06,-370.84 392.78,-366.99 402.16,-363.35"/>
<polygon fill="midnightblue" stroke="midnightblue" points="403.71,-366.5 411.78,-359.63 401.19,-359.97 403.71,-366.5"/>
</g>
<!-- Node7 -->
<g id="node7" class="node">
<title>Node7</title>
<g id="a_node7"><a xlink:href="classsss_1_1api_1_1S3Api.html#a1a4e05ac14390c7f42feef2c26e22031" target="_top" xlink:title=" ">
<polygon fill="none" stroke="black" points="593,-189.06 593,-208.06 715,-208.06 715,-189.06 593,-189.06"/>
<text text-anchor="middle" x="654" y="-196.06" font-family="Helvetica,sans-Serif" font-size="10.00">sss::api::S3Api::Access</text>
</a>
</g>
</g>
<!-- Node6&#45;&gt;Node7 -->
<g id="edge6" class="edge">
<title>Node6&#45;&gt;Node7</title>
<path fill="none" stroke="midnightblue" d="M512.09,-198.56C534.18,-198.56 559.58,-198.56 582.67,-198.56"/>
<polygon fill="midnightblue" stroke="midnightblue" points="582.76,-202.06 592.76,-198.56 582.76,-195.06 582.76,-202.06"/>
</g>
<!-- Node8 -->
<g id="node8" class="node">
<title>Node8</title>
<g id="a_node8"><a xlink:href="classsss_1_1api_1_1S3Api.html#a3718745d3b940462ae9f3b78f773b3a6" target="_top" xlink:title="Clear data and reset read and write functions.">
<polygon fill="none" stroke="black" points="597.5,-113.06 597.5,-132.06 710.5,-132.06 710.5,-113.06 597.5,-113.06"/>
<text text-anchor="middle" x="654" y="-120.06" font-family="Helvetica,sans-Serif" font-size="10.00">sss::api::S3Api::Clear</text>
</a>
</g>
</g>
<!-- Node6&#45;&gt;Node8 -->
<g id="edge7" class="edge">
<title>Node6&#45;&gt;Node8</title>
<path fill="none" stroke="midnightblue" d="M472.59,-189.01C494.86,-177.83 533.49,-159.22 568,-146.56 579.7,-142.27 592.53,-138.28 604.6,-134.84"/>
<polygon fill="midnightblue" stroke="midnightblue" points="605.82,-138.14 614.52,-132.09 603.95,-131.39 605.82,-138.14"/>
</g>
<!-- Node13 -->
<g id="node13" class="node">
<title>Node13</title>
<g id="a_node13"><a xlink:href="classsss_1_1WebClient.html#a75890c14fbe4a4bbac61718a4f3c064d" target="_top" xlink:title=" ">
<polygon fill="none" stroke="black" points="793,-179.06 793,-198.06 934,-198.06 934,-179.06 793,-179.06"/>
<text text-anchor="middle" x="863.5" y="-186.06" font-family="Helvetica,sans-Serif" font-size="10.00">sss::WebClient::SetHeaders</text>
</a>
</g>
</g>
<!-- Node6&#45;&gt;Node13 -->
<g id="edge19" class="edge">
<title>Node6&#45;&gt;Node13</title>
<path fill="none" stroke="midnightblue" d="M500.37,-189.05C520.98,-185.28 545.6,-181.41 568,-179.56 640.53,-173.56 723.4,-177.01 782.71,-181.25"/>
<polygon fill="midnightblue" stroke="midnightblue" points="782.53,-184.75 792.77,-182 783.05,-177.77 782.53,-184.75"/>
</g>
<!-- Node14 -->
<g id="node14" class="node">
<title>Node14</title>
<g id="a_node14"><a xlink:href="classsss_1_1WebClient.html#a12b5db6b8c667024557ab58059d39994" target="_top" xlink:title=" ">
<polygon fill="none" stroke="black" points="801,-65.06 801,-84.06 926,-84.06 926,-65.06 801,-65.06"/>
<text text-anchor="middle" x="863.5" y="-72.06" font-family="Helvetica,sans-Serif" font-size="10.00">sss::WebClient::SetPath</text>
</a>
</g>
</g>
<!-- Node6&#45;&gt;Node14 -->
<g id="edge21" class="edge">
<title>Node6&#45;&gt;Node14</title>
<path fill="none" stroke="midnightblue" d="M461.91,-188.87C478.91,-168.85 521.18,-123.16 568,-103.56 639.45,-73.65 728.9,-68.91 790.35,-70.07"/>
<polygon fill="midnightblue" stroke="midnightblue" points="790.65,-73.58 800.73,-70.33 790.82,-66.58 790.65,-73.58"/>
</g>
<!-- Node16 -->
<g id="node16" class="node">
<title>Node16</title>
<g id="a_node16"><a xlink:href="classsss_1_1WebClient.html#a9bf978d95b79728f6d60fc2bdb4fe546" target="_top" xlink:title=" ">
<polygon fill="none" stroke="black" points="777,-18.06 777,-37.06 950,-37.06 950,-18.06 777,-18.06"/>
<text text-anchor="middle" x="863.5" y="-25.06" font-family="Helvetica,sans-Serif" font-size="10.00">sss::WebClient::SetReqParameters</text>
</a>
</g>
</g>
<!-- Node6&#45;&gt;Node16 -->
<g id="edge22" class="edge">
<title>Node6&#45;&gt;Node16</title>
<path fill="none" stroke="midnightblue" d="M456.9,-188.74C466.57,-157.99 500.99,-63.42 568,-27.56 648.11,15.32 758.92,-1.34 819.2,-15.53"/>
<polygon fill="midnightblue" stroke="midnightblue" points="818.6,-18.99 829.14,-17.96 820.26,-12.19 818.6,-18.99"/>
</g>
<!-- Node17 -->
<g id="node17" class="node">
<title>Node17</title>
<g id="a_node17"><a xlink:href="classsss_1_1api_1_1S3Api.html#a70f1068d07e1d4c1be164e0cb9328cc0" target="_top" xlink:title=" ">
<polygon fill="none" stroke="black" points="590,-303.06 590,-322.06 718,-322.06 718,-303.06 590,-303.06"/>
<text text-anchor="middle" x="654" y="-310.06" font-family="Helvetica,sans-Serif" font-size="10.00">sss::api::S3Api::Endpoint</text>
</a>
</g>
</g>
<!-- Node6&#45;&gt;Node17 -->
<g id="edge16" class="edge">
<title>Node6&#45;&gt;Node17</title>
<path fill="none" stroke="midnightblue" d="M462.38,-208.09C479.94,-227.42 522.69,-271.26 568,-293.56 572.92,-295.98 578.15,-298.1 583.5,-299.94"/>
<polygon fill="midnightblue" stroke="midnightblue" points="582.65,-303.34 593.23,-302.99 584.74,-296.66 582.65,-303.34"/>
</g>
<!-- Node18 -->
<g id="node18" class="node">
<title>Node18</title>
<g id="a_node18"><a xlink:href="classsss_1_1api_1_1S3Api.html#acfffe29254323fb41231787a0afb7edc" target="_top" xlink:title=" ">
<polygon fill="none" stroke="black" points="595,-265.06 595,-284.06 713,-284.06 713,-265.06 595,-265.06"/>
<text text-anchor="middle" x="654" y="-272.06" font-family="Helvetica,sans-Serif" font-size="10.00">sss::api::S3Api::Secret</text>
</a>
</g>
</g>
<!-- Node6&#45;&gt;Node18 -->
<g id="edge17" class="edge">
<title>Node6&#45;&gt;Node18</title>
<path fill="none" stroke="midnightblue" d="M470.06,-208.17C491.64,-220.71 531.52,-242.58 568,-255.56 575.31,-258.16 583.11,-260.48 590.9,-262.53"/>
<polygon fill="midnightblue" stroke="midnightblue" points="590.19,-265.96 600.74,-264.98 591.88,-259.17 590.19,-265.96"/>
</g>
<!-- Node19 -->
<g id="node19" class="node">
<title>Node19</title>
<g id="a_node19"><a xlink:href="classsss_1_1WebClient.html#afc3b7a92568fbb1ea447918920ca266e" target="_top" xlink:title="Set endpoint: &lt;proto&gt;://&lt;server&gt;:&lt;port&gt;">
<polygon fill="none" stroke="black" points="582.5,-227.06 582.5,-246.06 725.5,-246.06 725.5,-227.06 582.5,-227.06"/>
<text text-anchor="middle" x="654" y="-234.06" font-family="Helvetica,sans-Serif" font-size="10.00">sss::WebClient::SetEndpoint</text>
</a>
</g>
</g>
<!-- Node6&#45;&gt;Node19 -->
<g id="edge18" class="edge">
<title>Node6&#45;&gt;Node19</title>
<path fill="none" stroke="midnightblue" d="M503.96,-208.1C531.05,-213.27 564.71,-219.7 593.18,-225.14"/>
<polygon fill="midnightblue" stroke="midnightblue" points="592.54,-228.58 603.02,-227.02 593.85,-221.7 592.54,-228.58"/>
</g>
<!-- Node20 -->
<g id="node20" class="node">
<title>Node20</title>
<g id="a_node20"><a xlink:href="classsss_1_1WebClient.html#af6233ffd7b294e1e7e606e838dd44e9e" target="_top" xlink:title=" ">
<polygon fill="none" stroke="black" points="585.5,-341.06 585.5,-360.06 722.5,-360.06 722.5,-341.06 585.5,-341.06"/>
<text text-anchor="middle" x="654" y="-348.06" font-family="Helvetica,sans-Serif" font-size="10.00">sss::WebClient::SetMethod</text>
</a>
</g>
</g>
<!-- Node6&#45;&gt;Node20 -->
<g id="edge20" class="edge">
<title>Node6&#45;&gt;Node20</title>
<path fill="none" stroke="midnightblue" d="M459.2,-208.11C473.21,-232.84 514.3,-299.29 568,-331.56 571.65,-333.75 575.52,-335.69 579.52,-337.4"/>
<polygon fill="midnightblue" stroke="midnightblue" points="578.46,-340.74 589.05,-341.01 580.94,-334.2 578.46,-340.74"/>
</g>
<!-- Node21 -->
<g id="node21" class="node">
<title>Node21</title>
<g id="a_node21"><a xlink:href="group__Sign.html#ga3ae8e18ef70752b7369fca66c40c526b" target="_top" xlink:title="Sign headers.">
<polygon fill="none" stroke="black" points="606.5,-37.06 606.5,-56.06 701.5,-56.06 701.5,-37.06 606.5,-37.06"/>
<text text-anchor="middle" x="654" y="-44.06" font-family="Helvetica,sans-Serif" font-size="10.00">sss::SignHeaders</text>
</a>
</g>
</g>
<!-- Node6&#45;&gt;Node21 -->
<g id="edge23" class="edge">
<title>Node6&#45;&gt;Node21</title>
<path fill="none" stroke="midnightblue" d="M459.83,-188.85C474.7,-164.92 516.54,-102.76 568,-70.56 576.77,-65.07 586.81,-60.81 596.86,-57.51"/>
<polygon fill="midnightblue" stroke="midnightblue" points="597.88,-60.86 606.45,-54.63 595.86,-54.16 597.88,-60.86"/>
</g>
<!-- Node9 -->
<g id="node9" class="node">
<title>Node9</title>
<g id="a_node9"><a xlink:href="classsss_1_1WebClient.html#a381f5715b7a2f19a0d4414d278874bae" target="_top" xlink:title="Clear internal buffers.">
<polygon fill="none" stroke="black" points="791.5,-103.06 791.5,-122.06 935.5,-122.06 935.5,-103.06 791.5,-103.06"/>
<text text-anchor="middle" x="863.5" y="-110.06" font-family="Helvetica,sans-Serif" font-size="10.00">sss::WebClient::ClearBuffers</text>
</a>
</g>
</g>
<!-- Node8&#45;&gt;Node9 -->
<g id="edge8" class="edge">
<title>Node8&#45;&gt;Node9</title>
<path fill="none" stroke="midnightblue" d="M710.61,-119.88C732.35,-118.83 757.72,-117.61 781.43,-116.47"/>
<polygon fill="midnightblue" stroke="midnightblue" points="781.65,-119.96 791.47,-115.98 781.31,-112.97 781.65,-119.96"/>
</g>
<!-- Node10 -->
<g id="node10" class="node">
<title>Node10</title>
<g id="a_node10"><a xlink:href="classsss_1_1WebClient.html#a96837f149bb473853a6523d096a25c56" target="_top" xlink:title="Reset read/write functions to default.">
<polygon fill="none" stroke="black" points="776,-141.06 776,-160.06 951,-160.06 951,-141.06 776,-141.06"/>
<text text-anchor="middle" x="863.5" y="-148.06" font-family="Helvetica,sans-Serif" font-size="10.00">sss::WebClient::ResetRWFunctions</text>
</a>
</g>
</g>
<!-- Node8&#45;&gt;Node10 -->
<g id="edge9" class="edge">
<title>Node8&#45;&gt;Node10</title>
<path fill="none" stroke="midnightblue" d="M710.61,-130.06C732.45,-133.01 757.96,-136.45 781.77,-139.67"/>
<polygon fill="midnightblue" stroke="midnightblue" points="781.47,-143.16 791.85,-141.03 782.41,-136.22 781.47,-143.16"/>
</g>
<!-- Node8&#45;&gt;Node13 -->
<g id="edge12" class="edge">
<title>Node8&#45;&gt;Node13</title>
<path fill="none" stroke="midnightblue" d="M698.24,-132.14C711.9,-135.85 726.85,-140.66 740,-146.56 757.32,-154.33 758.46,-162.3 776,-169.56 782.2,-172.13 788.81,-174.37 795.5,-176.33"/>
<polygon fill="midnightblue" stroke="midnightblue" points="794.75,-179.75 805.32,-178.99 796.58,-173 794.75,-179.75"/>
</g>
<!-- Node8&#45;&gt;Node14 -->
<g id="edge13" class="edge">
<title>Node8&#45;&gt;Node14</title>
<path fill="none" stroke="midnightblue" d="M693.92,-113.03C717.62,-107.28 748.52,-99.87 776,-93.56 786.56,-91.14 797.85,-88.61 808.68,-86.21"/>
<polygon fill="midnightblue" stroke="midnightblue" points="809.44,-89.63 818.46,-84.06 807.94,-82.79 809.44,-89.63"/>
</g>
<!-- Node8&#45;&gt;Node15 -->
<g id="edge14" class="edge">
<title>Node8&#45;&gt;Node15</title>
<path fill="none" stroke="midnightblue" d="M672.32,-132.18C690.26,-142.58 718.62,-160.29 740,-179.56 785.65,-220.69 829.29,-279.13 849.99,-308.39"/>
<polygon fill="midnightblue" stroke="midnightblue" points="847.28,-310.62 855.88,-316.81 853.01,-306.61 847.28,-310.62"/>
</g>
<!-- Node8&#45;&gt;Node16 -->
<g id="edge15" class="edge">
<title>Node8&#45;&gt;Node16</title>
<path fill="none" stroke="midnightblue" d="M670.18,-112.9C692.64,-98.9 736.35,-72.76 776,-55.56 789.4,-49.75 804.41,-44.48 818.13,-40.12"/>
<polygon fill="midnightblue" stroke="midnightblue" points="819.32,-43.41 827.84,-37.11 817.25,-36.72 819.32,-43.41"/>
</g>
<!-- Node11 -->
<g id="node11" class="node">
<title>Node11</title>
<g id="a_node11"><a xlink:href="classsss_1_1WebClient.html#a88dbcc61562e84aa9ebf1eabf887ac28" target="_top" xlink:title=" ">
<polygon fill="none" stroke="black" points="987,-163.06 987,-182.06 1152,-182.06 1152,-163.06 987,-163.06"/>
<text text-anchor="middle" x="1069.5" y="-170.06" font-family="Helvetica,sans-Serif" font-size="10.00">sss::WebClient::SetReadFunction</text>
</a>
</g>
</g>
<!-- Node10&#45;&gt;Node11 -->
<g id="edge10" class="edge">
<title>Node10&#45;&gt;Node11</title>
<path fill="none" stroke="midnightblue" d="M951.01,-159.89C959.52,-160.81 968.18,-161.74 976.73,-162.66"/>
<polygon fill="midnightblue" stroke="midnightblue" points="976.4,-166.15 986.72,-163.74 977.15,-159.19 976.4,-166.15"/>
</g>
<!-- Node12 -->
<g id="node12" class="node">
<title>Node12</title>
<g id="a_node12"><a xlink:href="classsss_1_1WebClient.html#a002876073b3869a9b9a9d709d14f1d7e" target="_top" xlink:title=" ">
<polygon fill="none" stroke="black" points="1006,-113.56 1006,-143.56 1133,-143.56 1133,-113.56 1006,-113.56"/>
<text text-anchor="start" x="1014" y="-131.56" font-family="Helvetica,sans-Serif" font-size="10.00">sss::WebClient::SetWrite</text>
<text text-anchor="middle" x="1069.5" y="-120.56" font-family="Helvetica,sans-Serif" font-size="10.00">Function</text>
</a>
</g>
</g>
<!-- Node10&#45;&gt;Node12 -->
<g id="edge11" class="edge">
<title>Node10&#45;&gt;Node12</title>
<path fill="none" stroke="midnightblue" d="M951.01,-141.23C965.87,-139.63 981.17,-137.98 995.63,-136.42"/>
<polygon fill="midnightblue" stroke="midnightblue" points="996.41,-139.85 1005.98,-135.3 995.66,-132.89 996.41,-139.85"/>
</g>
<!-- Node25 -->
<g id="node25" class="node">
<title>Node25</title>
<g id="a_node25"><a xlink:href="group__Internal.html#ga6e3db8d156313abef7e2c966df1a3d7c" target="_top" xlink:title=" ">
<polygon fill="none" stroke="black" points="612,-499.06 612,-518.06 696,-518.06 696,-499.06 612,-499.06"/>
<text text-anchor="middle" x="654" y="-506.06" font-family="Helvetica,sans-Serif" font-size="10.00">sss::UrlEncode</text>
</a>
</g>
</g>
<!-- Node24&#45;&gt;Node25 -->
<g id="edge28" class="edge">
<title>Node24&#45;&gt;Node25</title>
<path fill="none" stroke="midnightblue" d="M530.65,-508.56C554.37,-508.56 579.91,-508.56 601.49,-508.56"/>
<polygon fill="midnightblue" stroke="midnightblue" points="601.74,-512.06 611.74,-508.56 601.74,-505.06 601.74,-512.06"/>
</g>
<!-- Node26&#45;&gt;Node20 -->
<g id="edge31" class="edge">
<title>Node26&#45;&gt;Node20</title>
<path fill="none" stroke="midnightblue" d="M523.6,-346.66C540.21,-347.16 558.06,-347.7 575.02,-348.21"/>
<polygon fill="midnightblue" stroke="midnightblue" points="575.35,-351.72 585.45,-348.52 575.56,-344.72 575.35,-351.72"/>
</g>
<!-- Node26&#45;&gt;Node23 -->
<g id="edge30" class="edge">
<title>Node26&#45;&gt;Node23</title>
<path fill="none" stroke="midnightblue" d="M521.93,-359.58C547.44,-365.22 576.05,-371.55 600.02,-376.84"/>
<polygon fill="midnightblue" stroke="midnightblue" points="599.46,-380.31 609.98,-379.05 600.97,-373.47 599.46,-380.31"/>
</g>
</g>
</svg>
        <g id="navigator" transform="translate(0 0)" fill="#404254">
                <rect fill="#f2f5e9" fill-opacity="0.5" stroke="#606060" stroke-width=".5" x="0" y="0" width="60" height="60"/>
                <use id="zoomplus" xlink:href="#zoomPlus" x="17" y="9" onmousedown="handleZoom(evt,'in')"/>
                <use id="zoomminus" xlink:href="#zoomMin" x="42" y="9" onmousedown="handleZoom(evt,'out')"/>
                <use id="reset" xlink:href="#resetDef" x="30" y="36" onmousedown="handleReset()"/>
                <g id="arrowUp" xlink:href="#dirArrow" transform="translate(30 24)" onmousedown="handlePan(0,-1)">
                  <use xlink:href="#rim" fill="#404040">
                        <set attributeName="fill" to="#808080" begin="arrowUp.mouseover" end="arrowUp.mouseout"/>
                  </use>
                  <path fill="none" stroke="white" stroke-width="1.5" d="M0,-3.0v7 M-2.5,-0.5L0,-3.0L2.5,-0.5"/>
                </g>
                <g id="arrowRight" xlink:href="#dirArrow" transform="rotate(90) translate(36 -43)" onmousedown="handlePan(1,0)">
                  <use xlink:href="#rim" fill="#404040">
                        <set attributeName="fill" to="#808080" begin="arrowRight.mouseover" end="arrowRight.mouseout"/>
                  </use>
                  <path fill="none" stroke="white" stroke-width="1.5" d="M0,-3.0v7 M-2.5,-0.5L0,-3.0L2.5,-0.5"/>
                </g>
                <g id="arrowDown" xlink:href="#dirArrow" transform="rotate(180) translate(-30 -48)" onmousedown="handlePan(0,1)">
                  <use xlink:href="#rim" fill="#404040">
                        <set attributeName="fill" to="#808080" begin="arrowDown.mouseover" end="arrowDown.mouseout"/>
                  </use>
                  <path fill="none" stroke="white" stroke-width="1.5" d="M0,-3.0v7 M-2.5,-0.5L0,-3.0L2.5,-0.5"/>
                </g>
                <g id="arrowLeft" xlink:href="#dirArrow" transform="rotate(270) translate(-36 17)" onmousedown="handlePan(-1,0)">
                  <use xlink:href="#rim" fill="#404040">
                        <set attributeName="fill" to="#808080" begin="arrowLeft.mouseover" end="arrowLeft.mouseout"/>
                  </use>
                  <path fill="none" stroke="white" stroke-width="1.5" d="M0,-3.0v7 M-2.5,-0.5L0,-3.0L2.5,-0.5"/>
                </g>
        </g>
        <svg viewBox="0 0 15 15" width="100%" height="30px" preserveAspectRatio="xMaxYMin meet">
         <g id="arrow_out" transform="scale(0.3 0.3)">
          <a xlink:href="classsss_1_1api_1_1S3Api_a9695a76eb84d3e52800d037f1ef391aa_cgraph_org.svg" target="_base">
           <rect id="button" ry="5" rx="5" y="6" x="6" height="38" width="38"
                fill="#f2f5e9" fill-opacity="0.5" stroke="#606060" stroke-width="1.0"/>
           <path id="arrow"
             d="M 11.500037,31.436501 C 11.940474,20.09759 22.043105,11.32322 32.158766,21.979434 L 37.068811,17.246167 C 37.068811,17.246167 37.088388,32 37.088388,32 L 22.160133,31.978069 C 22.160133,31.978069 26.997745,27.140456 26.997745,27.140456 C 18.528582,18.264221 13.291696,25.230495 11.500037,31.436501 z"
             style="fill:#404040;"/>
          </a>
         </g>
        </svg>
</svg>
