<?xml version="1.0" encoding="UTF-8" standalone="no"?>
<!DOCTYPE svg PUBLIC "-//W3C//DTD SVG 1.1//EN"
 "http://www.w3.org/Graphics/SVG/1.1/DTD/svg11.dtd">
<!-- Generated by graphviz version 2.43.0 (0)
 -->
<!-- Title: sss::WebClient::SetReqParameters Pages: 1 -->
<!--zoomable 557 -->
<svg id="main" version="1.1" xmlns="http://www.w3.org/2000/svg" xmlns:xlink="http://www.w3.org/1999/xlink" xml:space="preserve" onload="init(evt)">
<style type="text/css"><![CDATA[
.edge:hover path { stroke: red; }
.edge:hover polygon { stroke: red; fill: red; }
]]></style>
<script type="text/javascript"><![CDATA[
var edges = document.getElementsByTagName('g');
if (edges && edges.length) {
  for (var i=0;i<edges.length;i++) {
    if (edges[i].id.substr(0,4)=='edge') {
      edges[i].setAttribute('class','edge');
    }
  }
}
]]></script>
        <defs>
                <circle id="rim" cx="0" cy="0" r="7"/>
                <circle id="rim2" cx="0" cy="0" r="3.5"/>
                <g id="zoomPlus">
                        <use xlink:href="#rim" fill="#404040">
                                <set attributeName="fill" to="#808080" begin="zoomplus.mouseover" end="zoomplus.mouseout"/>
                        </use>
                        <path d="M-4,0h8M0,-4v8" fill="none" stroke="white" stroke-width="1.5" pointer-events="none"/>
                </g>
                <g id="zoomMin">
                        <use xlink:href="#rim" fill="#404040">
                                <set attributeName="fill" to="#808080" begin="zoomminus.mouseover" end="zoomminus.mouseout"/>
                        </use>
                        <path d="M-4,0h8" fill="none" stroke="white" stroke-width="1.5" pointer-events="none"/>
                </g>
                <g id="dirArrow">
                        <path fill="none" stroke="white" stroke-width="1.5" d="M0,-3.0v7 M-2.5,-0.5L0,-3.0L2.5,-0.5"/>
                </g>
               <g id="resetDef">
                       <use xlink:href="#rim2" fill="#404040">
                               <set attributeName="fill" to="#808080" begin="reset.mouseover" end="reset.mouseout"/>
                       </use>
               </g>
        </defs>

<script type="text/javascript">
var viewWidth = 1022;
var viewHeight = 557;
var sectionId = 'dynsection-11';
</script>
<script xlink:href="svgpan.js"/>
<svg id="graph" class="graph">
<g id="viewport">
<title>sss::WebClient::SetReqParameters</title>
<!-- Node1 -->
<g id="node1" class="node">
<title>Node1</title>
<g id="a_node1"><a xlink:title=" ">
<polygon fill="#bfbfbf" stroke="black" points="841,-291.5 841,-310.5 1014,-310.5 1014,-291.5 841,-291.5"/>
<text text-anchor="middle" x="927.5" y="-298.5" font-family="Helvetica,sans-Serif" font-size="10.00">sss::WebClient::SetReqParameters</text>
</a>
</g>
</g>
<!-- Node2 -->
<g id="node2" class="node">
<title>Node2</title>
<g id="a_node2"><a xlink:href="classsss_1_1api_1_1S3Api.html#a3718745d3b940462ae9f3b78f773b3a6" target="_top" xlink:title="Clear data and reset read and write functions.">
<polygon fill="none" stroke="black" points="692,-310.5 692,-329.5 805,-329.5 805,-310.5 692,-310.5"/>
<text text-anchor="middle" x="748.5" y="-317.5" font-family="Helvetica,sans-Serif" font-size="10.00">sss::api::S3Api::Clear</text>
</a>
</g>
</g>
<!-- Node1&#45;&gt;Node2 -->
<g id="edge1" class="edge">
<title>Node1&#45;&gt;Node2</title>
<path fill="none" stroke="midnightblue" d="M830.87,-311.27C822.04,-312.21 813.31,-313.15 805.03,-314.04"/>
<polygon fill="midnightblue" stroke="midnightblue" points="831.28,-314.74 840.85,-310.19 830.54,-307.78 831.28,-314.74"/>
</g>
<!-- Node3 -->
<g id="node3" class="node">
<title>Node3</title>
<g id="a_node3"><a xlink:href="classsss_1_1api_1_1S3Api.html#a840772746fbb0a79c161037da7b24a31" target="_top" xlink:title="[WebClient::Config]">
<polygon fill="none" stroke="black" points="538,-291.5 538,-310.5 656,-310.5 656,-291.5 538,-291.5"/>
<text text-anchor="middle" x="597" y="-298.5" font-family="Helvetica,sans-Serif" font-size="10.00">sss::api::S3Api::Config</text>
</a>
</g>
</g>
<!-- Node1&#45;&gt;Node3 -->
<g id="edge22" class="edge">
<title>Node1&#45;&gt;Node3</title>
<path fill="none" stroke="midnightblue" d="M830.59,-301C774.11,-301 704.5,-301 656.22,-301"/>
<polygon fill="midnightblue" stroke="midnightblue" points="830.62,-304.5 840.62,-301 830.62,-297.5 830.62,-304.5"/>
</g>
<!-- Node2&#45;&gt;Node3 -->
<g id="edge2" class="edge">
<title>Node2&#45;&gt;Node3</title>
<path fill="none" stroke="midnightblue" d="M681.9,-311.66C673.35,-310.58 664.63,-309.47 656.22,-308.4"/>
<polygon fill="midnightblue" stroke="midnightblue" points="681.47,-315.14 691.83,-312.93 682.35,-308.19 681.47,-315.14"/>
</g>
<!-- Node4 -->
<g id="node4" class="node">
<title>Node4</title>
<g id="a_node4"><a xlink:href="classsss_1_1api_1_1S3Api.html#a1196f1cb9ce1e5d69336e9b8dbb5d59c" target="_top" xlink:title=" ">
<polygon fill="none" stroke="black" points="381,-335 381,-365 502,-365 502,-335 381,-335"/>
<text text-anchor="start" x="389" y="-353" font-family="Helvetica,sans-Serif" font-size="10.00">sss::api::S3Api::GetFile</text>
<text text-anchor="middle" x="441.5" y="-342" font-family="Helvetica,sans-Serif" font-size="10.00">Object</text>
</a>
</g>
</g>
<!-- Node3&#45;&gt;Node4 -->
<g id="edge3" class="edge">
<title>Node3&#45;&gt;Node4</title>
<path fill="none" stroke="midnightblue" d="M556.43,-313.63C536.03,-320.14 511,-328.13 489.61,-334.96"/>
<polygon fill="midnightblue" stroke="midnightblue" points="557.58,-316.94 566.04,-310.56 555.45,-310.27 557.58,-316.94"/>
</g>
<!-- Node5 -->
<g id="node5" class="node">
<title>Node5</title>
<g id="a_node5"><a xlink:href="classsss_1_1api_1_1S3Api.html#ab7affe0834f5892b393e731783b7ccac" target="_top" xlink:title=" ">
<polygon fill="none" stroke="black" points="381.5,-286 381.5,-316 501.5,-316 501.5,-286 381.5,-286"/>
<text text-anchor="start" x="389.5" y="-304" font-family="Helvetica,sans-Serif" font-size="10.00">sss::api::S3Api::PutFile</text>
<text text-anchor="middle" x="441.5" y="-293" font-family="Helvetica,sans-Serif" font-size="10.00">Object</text>
</a>
</g>
</g>
<!-- Node3&#45;&gt;Node5 -->
<g id="edge4" class="edge">
<title>Node3&#45;&gt;Node5</title>
<path fill="none" stroke="midnightblue" d="M527.82,-301C519.09,-301 510.2,-301 501.63,-301"/>
<polygon fill="midnightblue" stroke="midnightblue" points="527.97,-304.5 537.97,-301 527.97,-297.5 527.97,-304.5"/>
</g>
<!-- Node6 -->
<g id="node6" class="node">
<title>Node6</title>
<g id="a_node6"><a xlink:href="classsss_1_1api_1_1S3Api.html#a02b4f0c95255f151beb72f0a6bdf5889" target="_top" xlink:title=" ">
<polygon fill="none" stroke="black" points="385.5,-247.5 385.5,-266.5 497.5,-266.5 497.5,-247.5 385.5,-247.5"/>
<text text-anchor="middle" x="441.5" y="-254.5" font-family="Helvetica,sans-Serif" font-size="10.00">sss::api::S3Api::Send</text>
</a>
</g>
</g>
<!-- Node3&#45;&gt;Node6 -->
<g id="edge5" class="edge">
<title>Node3&#45;&gt;Node6</title>
<path fill="none" stroke="midnightblue" d="M552.95,-288.66C528.5,-281.65 498.36,-273.01 475.74,-266.53"/>
<polygon fill="midnightblue" stroke="midnightblue" points="552.12,-292.06 562.69,-291.45 554.04,-285.33 552.12,-292.06"/>
</g>
<!-- Node7 -->
<g id="node7" class="node">
<title>Node7</title>
<g id="a_node7"><a xlink:href="classsss_1_1api_1_1S3Api.html#a4ea265566c3c4335ec01201cdc4410c6" target="_top" xlink:title=" ">
<polygon fill="none" stroke="black" points="192,-518 192,-548 342,-548 342,-518 192,-518"/>
<text text-anchor="start" x="200" y="-536" font-family="Helvetica,sans-Serif" font-size="10.00">sss::api::S3Api::AbortMultipart</text>
<text text-anchor="middle" x="267" y="-525" font-family="Helvetica,sans-Serif" font-size="10.00">Upload</text>
</a>
</g>
</g>
<!-- Node6&#45;&gt;Node7 -->
<g id="edge6" class="edge">
<title>Node6&#45;&gt;Node7</title>
<path fill="none" stroke="midnightblue" d="M384.68,-272.28C383.37,-273.43 382.14,-274.67 381,-276 312.9,-355.64 413.38,-429.6 345,-509 342.08,-512.4 338.68,-515.32 334.98,-517.83"/>
<polygon fill="midnightblue" stroke="midnightblue" points="386.68,-275.15 392.9,-266.57 382.69,-269.39 386.68,-275.15"/>
</g>
<!-- Node8 -->
<g id="node8" class="node">
<title>Node8</title>
<g id="a_node8"><a xlink:href="classsss_1_1api_1_1S3Api.html#a98f999a216121118dd569c7ef0c28ff3" target="_top" xlink:title=" ">
<polygon fill="none" stroke="black" points="201.5,-469 201.5,-499 332.5,-499 332.5,-469 201.5,-469"/>
<text text-anchor="start" x="209.5" y="-487" font-family="Helvetica,sans-Serif" font-size="10.00">sss::api::S3Api::Complete</text>
<text text-anchor="middle" x="267" y="-476" font-family="Helvetica,sans-Serif" font-size="10.00">MultipartUpload</text>
</a>
</g>
</g>
<!-- Node6&#45;&gt;Node8 -->
<g id="edge7" class="edge">
<title>Node6&#45;&gt;Node8</title>
<path fill="none" stroke="midnightblue" d="M384.84,-272.27C383.47,-273.42 382.19,-274.66 381,-276 325.85,-337.88 400,-396.99 345,-459 341.46,-463 337.27,-466.36 332.7,-469.18"/>
<polygon fill="midnightblue" stroke="midnightblue" points="387,-275.03 393.35,-266.55 383.1,-269.22 387,-275.03"/>
</g>
<!-- Node9 -->
<g id="node9" class="node">
<title>Node9</title>
<g id="a_node9"><a xlink:href="classsss_1_1api_1_1S3Api.html#ad890bd1ecfc978df24b2c3ed641e4081" target="_top" xlink:title=" ">
<polygon fill="none" stroke="black" points="192.5,-430.5 192.5,-449.5 341.5,-449.5 341.5,-430.5 192.5,-430.5"/>
<text text-anchor="middle" x="267" y="-437.5" font-family="Helvetica,sans-Serif" font-size="10.00">sss::api::S3Api::CreateBucket</text>
</a>
</g>
</g>
<!-- Node6&#45;&gt;Node9 -->
<g id="edge8" class="edge">
<title>Node6&#45;&gt;Node9</title>
<path fill="none" stroke="midnightblue" d="M385.4,-271.96C383.83,-273.2 382.36,-274.55 381,-276 335.62,-324.47 391.99,-374.08 345,-421 341.2,-424.79 336.77,-427.87 331.99,-430.37"/>
<polygon fill="midnightblue" stroke="midnightblue" points="387.29,-274.91 393.83,-266.57 383.52,-269.01 387.29,-274.91"/>
</g>
<!-- Node10 -->
<g id="node10" class="node">
<title>Node10</title>
<g id="a_node10"><a xlink:href="classsss_1_1api_1_1S3Api.html#a1796fafda3d90a4292a611ce1999433b" target="_top" xlink:title=" ">
<polygon fill="none" stroke="black" points="189,-381 189,-411 345,-411 345,-381 189,-381"/>
<text text-anchor="start" x="197" y="-399" font-family="Helvetica,sans-Serif" font-size="10.00">sss::api::S3Api::CreateMultipart</text>
<text text-anchor="middle" x="267" y="-388" font-family="Helvetica,sans-Serif" font-size="10.00">Upload</text>
</a>
</g>
</g>
<!-- Node6&#45;&gt;Node10 -->
<g id="edge9" class="edge">
<title>Node6&#45;&gt;Node10</title>
<path fill="none" stroke="midnightblue" d="M386.35,-271.65C384.46,-272.98 382.66,-274.42 381,-276 348.24,-307.07 377.69,-339.85 345,-371 340.93,-374.88 336.25,-378.15 331.25,-380.92"/>
<polygon fill="midnightblue" stroke="midnightblue" points="388.24,-274.6 395.16,-266.58 384.75,-268.53 388.24,-274.6"/>
</g>
<!-- Node11 -->
<g id="node11" class="node">
<title>Node11</title>
<g id="a_node11"><a xlink:href="classsss_1_1api_1_1S3Api.html#a3d63825d1916e4ba3ca13122c7660603" target="_top" xlink:title=" ">
<polygon fill="none" stroke="black" points="192.5,-342.5 192.5,-361.5 341.5,-361.5 341.5,-342.5 192.5,-342.5"/>
<text text-anchor="middle" x="267" y="-349.5" font-family="Helvetica,sans-Serif" font-size="10.00">sss::api::S3Api::DeleteBucket</text>
</a>
</g>
</g>
<!-- Node6&#45;&gt;Node11 -->
<g id="edge10" class="edge">
<title>Node6&#45;&gt;Node11</title>
<path fill="none" stroke="midnightblue" d="M388.46,-271.08C385.84,-272.56 383.33,-274.2 381,-276 357.3,-294.33 369.3,-315.48 345,-333 339.64,-336.87 333.58,-339.95 327.28,-342.41"/>
<polygon fill="midnightblue" stroke="midnightblue" points="390.23,-274.11 397.71,-266.61 387.18,-267.81 390.23,-274.11"/>
</g>
<!-- Node12 -->
<g id="node12" class="node">
<title>Node12</title>
<g id="a_node12"><a xlink:href="classsss_1_1api_1_1S3Api.html#a14a75f15eb71fbba8639673100768b67" target="_top" xlink:title=" ">
<polygon fill="none" stroke="black" points="194,-304.5 194,-323.5 340,-323.5 340,-304.5 194,-304.5"/>
<text text-anchor="middle" x="267" y="-311.5" font-family="Helvetica,sans-Serif" font-size="10.00">sss::api::S3Api::DeleteObject</text>
</a>
</g>
</g>
<!-- Node6&#45;&gt;Node12 -->
<g id="edge11" class="edge">
<title>Node6&#45;&gt;Node12</title>
<path fill="none" stroke="midnightblue" d="M397.23,-269.82C391.71,-271.75 386.19,-273.82 381,-276 364.32,-283 361.91,-288.56 345,-295 335.35,-298.67 324.74,-301.83 314.57,-304.45"/>
<polygon fill="midnightblue" stroke="midnightblue" points="398.7,-273.02 407.08,-266.53 396.48,-266.38 398.7,-273.02"/>
</g>
<!-- Node13 -->
<g id="node13" class="node">
<title>Node13</title>
<g id="a_node13"><a xlink:href="classsss_1_1api_1_1S3Api.html#a3b53152bf39143843a4033aa4a1b3fa0" target="_top" xlink:title=" ">
<polygon fill="none" stroke="black" points="192,-266.5 192,-285.5 342,-285.5 342,-266.5 192,-266.5"/>
<text text-anchor="middle" x="267" y="-273.5" font-family="Helvetica,sans-Serif" font-size="10.00">sss::api::S3Api::GetBucketAcl</text>
</a>
</g>
</g>
<!-- Node6&#45;&gt;Node13 -->
<g id="edge12" class="edge">
<title>Node6&#45;&gt;Node13</title>
<path fill="none" stroke="midnightblue" d="M375.22,-264.19C364.39,-265.38 353.08,-266.63 342.04,-267.84"/>
<polygon fill="midnightblue" stroke="midnightblue" points="375.89,-267.64 385.45,-263.06 375.12,-260.68 375.89,-267.64"/>
</g>
<!-- Node14 -->
<g id="node14" class="node">
<title>Node14</title>
<g id="a_node14"><a xlink:href="classsss_1_1api_1_1S3Api.html#af61465d92c0a94aa82ae863fc2a776a0" target="_top" xlink:title=" ">
<polygon fill="none" stroke="black" points="200,-228.5 200,-247.5 334,-247.5 334,-228.5 200,-228.5"/>
<text text-anchor="middle" x="267" y="-235.5" font-family="Helvetica,sans-Serif" font-size="10.00">sss::api::S3Api::GetObject</text>
</a>
</g>
</g>
<!-- Node6&#45;&gt;Node14 -->
<g id="edge13" class="edge">
<title>Node6&#45;&gt;Node14</title>
<path fill="none" stroke="midnightblue" d="M375.34,-249.82C361.92,-248.34 347.76,-246.79 334.3,-245.3"/>
<polygon fill="midnightblue" stroke="midnightblue" points="375.12,-253.32 385.45,-250.94 375.89,-246.36 375.12,-253.32"/>
</g>
<!-- Node15 -->
<g id="node15" class="node">
<title>Node15</title>
<g id="a_node15"><a xlink:href="classsss_1_1api_1_1S3Api.html#aa4a2b1cc2c89a52d1aa89e571b785db2" target="_top" xlink:title=" ">
<polygon fill="none" stroke="black" points="195.5,-190.5 195.5,-209.5 338.5,-209.5 338.5,-190.5 195.5,-190.5"/>
<text text-anchor="middle" x="267" y="-197.5" font-family="Helvetica,sans-Serif" font-size="10.00">sss::api::S3Api::HeadBucket</text>
</a>
</g>
</g>
<!-- Node6&#45;&gt;Node15 -->
<g id="edge14" class="edge">
<title>Node6&#45;&gt;Node15</title>
<path fill="none" stroke="midnightblue" d="M409.43,-243.38C390.94,-235.6 366.89,-226.02 345,-219 334.12,-215.51 322.2,-212.29 311.06,-209.52"/>
<polygon fill="midnightblue" stroke="midnightblue" points="408.24,-246.68 418.81,-247.38 410.98,-240.24 408.24,-246.68"/>
</g>
<!-- Node16 -->
<g id="node16" class="node">
<title>Node16</title>
<g id="a_node16"><a xlink:href="classsss_1_1api_1_1S3Api.html#abc84a71b9a88b81afaa353ad17a91d22" target="_top" xlink:title=" ">
<polygon fill="none" stroke="black" points="196.5,-152.5 196.5,-171.5 337.5,-171.5 337.5,-152.5 196.5,-152.5"/>
<text text-anchor="middle" x="267" y="-159.5" font-family="Helvetica,sans-Serif" font-size="10.00">sss::api::S3Api::HeadObject</text>
</a>
</g>
</g>
<!-- Node6&#45;&gt;Node16 -->
<g id="edge15" class="edge">
<title>Node6&#45;&gt;Node16</title>
<path fill="none" stroke="midnightblue" d="M424.13,-240.24C406.25,-222.9 376,-196.24 345,-181 337.22,-177.17 328.6,-174.08 320.03,-171.59"/>
<polygon fill="midnightblue" stroke="midnightblue" points="421.87,-242.93 431.43,-247.48 426.79,-237.96 421.87,-242.93"/>
</g>
<!-- Node19 -->
<g id="node19" class="node">
<title>Node19</title>
<g id="a_node19"><a xlink:href="classsss_1_1api_1_1S3Api.html#a81e30673c06b609a2ee6e6bfd9130ca6" target="_top" xlink:title=" ">
<polygon fill="none" stroke="black" points="196.5,-114.5 196.5,-133.5 337.5,-133.5 337.5,-114.5 196.5,-114.5"/>
<text text-anchor="middle" x="267" y="-121.5" font-family="Helvetica,sans-Serif" font-size="10.00">sss::api::S3Api::ListBuckets</text>
</a>
</g>
</g>
<!-- Node6&#45;&gt;Node19 -->
<g id="edge18" class="edge">
<title>Node6&#45;&gt;Node19</title>
<path fill="none" stroke="midnightblue" d="M430.22,-238.57C415.01,-213.05 384.04,-167.35 345,-143 338.81,-139.14 331.88,-136.06 324.79,-133.61"/>
<polygon fill="midnightblue" stroke="midnightblue" points="427.23,-240.38 435.27,-247.28 433.28,-236.87 427.23,-240.38"/>
</g>
<!-- Node20 -->
<g id="node20" class="node">
<title>Node20</title>
<g id="a_node20"><a xlink:href="classsss_1_1api_1_1S3Api.html#a3f00f611cd210a58ac6e8c0555984433" target="_top" xlink:title=" ">
<polygon fill="none" stroke="black" points="191.5,-76.5 191.5,-95.5 342.5,-95.5 342.5,-76.5 191.5,-76.5"/>
<text text-anchor="middle" x="267" y="-83.5" font-family="Helvetica,sans-Serif" font-size="10.00">sss::api::S3Api::ListObjectsV2</text>
</a>
</g>
</g>
<!-- Node6&#45;&gt;Node20 -->
<g id="edge19" class="edge">
<title>Node6&#45;&gt;Node20</title>
<path fill="none" stroke="midnightblue" d="M433.87,-237.67C421.66,-205.05 392.43,-139.28 345,-105 339.64,-101.13 333.59,-98.04 327.29,-95.58"/>
<polygon fill="midnightblue" stroke="midnightblue" points="430.68,-239.15 437.36,-247.37 437.27,-236.77 430.68,-239.15"/>
</g>
<!-- Node21 -->
<g id="node21" class="node">
<title>Node21</title>
<g id="a_node21"><a xlink:href="classsss_1_1api_1_1S3Api.html#a0473917e4d25a4a6fca40d097e4299d6" target="_top" xlink:title=" ">
<polygon fill="none" stroke="black" points="211,-38.5 211,-57.5 323,-57.5 323,-38.5 211,-38.5"/>
<text text-anchor="middle" x="267" y="-45.5" font-family="Helvetica,sans-Serif" font-size="10.00">sss::api::S3Api::Send</text>
</a>
</g>
</g>
<!-- Node6&#45;&gt;Node21 -->
<g id="edge20" class="edge">
<title>Node6&#45;&gt;Node21</title>
<path fill="none" stroke="midnightblue" d="M436.37,-237.29C427.17,-198.44 401.21,-111.85 345,-67 338.65,-61.93 331.14,-58.19 323.33,-55.44"/>
<polygon fill="midnightblue" stroke="midnightblue" points="433.01,-238.32 438.62,-247.31 439.85,-236.79 433.01,-238.32"/>
</g>
<!-- Node22 -->
<g id="node22" class="node">
<title>Node22</title>
<g id="a_node22"><a xlink:href="classsss_1_1api_1_1S3Api.html#a23223ee1fb701c55af2d942dbf261ae2" target="_top" xlink:title=" ">
<polygon fill="none" stroke="black" points="197.5,-0.5 197.5,-19.5 336.5,-19.5 336.5,-0.5 197.5,-0.5"/>
<text text-anchor="middle" x="267" y="-7.5" font-family="Helvetica,sans-Serif" font-size="10.00">sss::api::S3Api::TestBucket</text>
</a>
</g>
</g>
<!-- Node6&#45;&gt;Node22 -->
<g id="edge21" class="edge">
<title>Node6&#45;&gt;Node22</title>
<path fill="none" stroke="midnightblue" d="M438.2,-237.42C431.93,-193.17 410.38,-84.97 345,-29 340.5,-25.15 335.34,-22.06 329.87,-19.58"/>
<polygon fill="midnightblue" stroke="midnightblue" points="434.74,-237.98 439.51,-247.44 441.69,-237.07 434.74,-237.98"/>
</g>
<!-- Node17 -->
<g id="node17" class="node">
<title>Node17</title>
<g id="a_node17"><a xlink:href="classsss_1_1api_1_1S3Api.html#a872e80e356e8c404a9b0739d95a0af41" target="_top" xlink:title="[WebClient::Config]">
<polygon fill="none" stroke="black" points="0,-171.5 0,-190.5 153,-190.5 153,-171.5 0,-171.5"/>
<text text-anchor="middle" x="76.5" y="-178.5" font-family="Helvetica,sans-Serif" font-size="10.00">sss::api::S3Api::GetObjectSize</text>
</a>
</g>
</g>
<!-- Node16&#45;&gt;Node17 -->
<g id="edge16" class="edge">
<title>Node16&#45;&gt;Node17</title>
<path fill="none" stroke="midnightblue" d="M186.35,-170.03C175.37,-171.14 164.11,-172.27 153.2,-173.37"/>
<polygon fill="midnightblue" stroke="midnightblue" points="186.75,-173.51 196.35,-169.02 186.04,-166.54 186.75,-173.51"/>
</g>
<!-- Node18 -->
<g id="node18" class="node">
<title>Node18</title>
<g id="a_node18"><a xlink:href="classsss_1_1api_1_1S3Api.html#aa3f7a3001bdad58c7b0c04cbd0dc3236" target="_top" xlink:title=" ">
<polygon fill="none" stroke="black" points="8,-133.5 8,-152.5 145,-152.5 145,-133.5 8,-133.5"/>
<text text-anchor="middle" x="76.5" y="-140.5" font-family="Helvetica,sans-Serif" font-size="10.00">sss::api::S3Api::TestObject</text>
</a>
</g>
</g>
<!-- Node16&#45;&gt;Node18 -->
<g id="edge17" class="edge">
<title>Node16&#45;&gt;Node18</title>
<path fill="none" stroke="midnightblue" d="M186.07,-153.94C172.5,-152.58 158.52,-151.17 145.3,-149.83"/>
<polygon fill="midnightblue" stroke="midnightblue" points="186.04,-157.46 196.35,-154.98 186.75,-150.49 186.04,-157.46"/>
</g>
</g>
</svg>
        <g id="navigator" transform="translate(0 0)" fill="#404254">
                <rect fill="#f2f5e9" fill-opacity="0.5" stroke="#606060" stroke-width=".5" x="0" y="0" width="60" height="60"/>
                <use id="zoomplus" xlink:href="#zoomPlus" x="17" y="9" onmousedown="handleZoom(evt,'in')"/>
                <use id="zoomminus" xlink:href="#zoomMin" x="42" y="9" onmousedown="handleZoom(evt,'out')"/>
                <use id="reset" xlink:href="#resetDef" x="30" y="36" onmousedown="handleReset()"/>
                <g id="arrowUp" xlink:href="#dirArrow" transform="translate(30 24)" onmousedown="handlePan(0,-1)">
                  <use xlink:href="#rim" fill="#404040">
                        <set attributeName="fill" to="#808080" begin="arrowUp.mouseover" end="arrowUp.mouseout"/>
                  </use>
                  <path fill="none" stroke="white" stroke-width="1.5" d="M0,-3.0v7 M-2.5,-0.5L0,-3.0L2.5,-0.5"/>
                </g>
                <g id="arrowRight" xlink:href="#dirArrow" transform="rotate(90) translate(36 -43)" onmousedown="handlePan(1,0)">
                  <use xlink:href="#rim" fill="#404040">
                        <set attributeName="fill" to="#808080" begin="arrowRight.mouseover" end="arrowRight.mouseout"/>
                  </use>
                  <path fill="none" stroke="white" stroke-width="1.5" d="M0,-3.0v7 M-2.5,-0.5L0,-3.0L2.5,-0.5"/>
                </g>
                <g id="arrowDown" xlink:href="#dirArrow" transform="rotate(180) translate(-30 -48)" onmousedown="handlePan(0,1)">
                  <use xlink:href="#rim" fill="#404040">
                        <set attributeName="fill" to="#808080" begin="arrowDown.mouseover" end="arrowDown.mouseout"/>
                  </use>
                  <path fill="none" stroke="white" stroke-width="1.5" d="M0,-3.0v7 M-2.5,-0.5L0,-3.0L2.5,-0.5"/>
                </g>
                <g id="arrowLeft" xlink:href="#dirArrow" transform="rotate(270) translate(-36 17)" onmousedown="handlePan(-1,0)">
                  <use xlink:href="#rim" fill="#404040">
                        <set attributeName="fill" to="#808080" begin="arrowLeft.mouseover" end="arrowLeft.mouseout"/>
                  </use>
                  <path fill="none" stroke="white" stroke-width="1.5" d="M0,-3.0v7 M-2.5,-0.5L0,-3.0L2.5,-0.5"/>
                </g>
        </g>
        <svg viewBox="0 0 15 15" width="100%" height="30px" preserveAspectRatio="xMaxYMin meet">
         <g id="arrow_out" transform="scale(0.3 0.3)">
          <a xlink:href="classsss_1_1WebClient_a9bf978d95b79728f6d60fc2bdb4fe546_icgraph_org.svg" target="_base">
           <rect id="button" ry="5" rx="5" y="6" x="6" height="38" width="38"
                fill="#f2f5e9" fill-opacity="0.5" stroke="#606060" stroke-width="1.0"/>
           <path id="arrow"
             d="M 11.500037,31.436501 C 11.940474,20.09759 22.043105,11.32322 32.158766,21.979434 L 37.068811,17.246167 C 37.068811,17.246167 37.088388,32 37.088388,32 L 22.160133,31.978069 C 22.160133,31.978069 26.997745,27.140456 26.997745,27.140456 C 18.528582,18.264221 13.291696,25.230495 11.500037,31.436501 z"
             style="fill:#404040;"/>
          </a>
         </g>
        </svg>
</svg>
