<?xml version="1.0" encoding="UTF-8" standalone="no"?>
<!DOCTYPE svg PUBLIC "-//W3C//DTD SVG 1.1//EN"
 "http://www.w3.org/Graphics/SVG/1.1/DTD/svg11.dtd">
<!-- Generated by graphviz version 8.0.5 (20230430.1635)
 -->
<!-- Title: sss::api::S3Api::HeadObject Pages: 1 -->
<svg width="1075pt" height="600pt"
 viewBox="0.00 0.00 1075.25 599.83" xmlns="http://www.w3.org/2000/svg" xmlns:xlink="http://www.w3.org/1999/xlink">
<g id="graph0" class="graph" transform="scale(1 1) rotate(0) translate(4 595.83)">
<title>sss::api::S3Api::HeadObject</title>
<!-- Node1 -->
<g id="node1" class="node">
<title>Node1</title>
<g id="a_node1"><a xlink:title="Send HeadObject request.">
<polygon fill="#999999" stroke="#666666" points="140.5,-179.25 0,-179.25 0,-160 140.5,-160 140.5,-179.25"/>
<text text-anchor="middle" x="70.25" y="-165.75" font-family="Helvetica,sans-Serif" font-size="10.00">sss::api::S3Api::HeadObject</text>
</a>
</g>
</g>
<!-- Node2 -->
<g id="node2" class="node">
<title>Node2</title>
<g id="a_node2"><a xlink:href="group__Parsing.html#gaca9233a3e8a097605d9168bf860e93e5" target="_top" xlink:title="Extract and return HTTP headers as key&#45;value pairs.">
<polygon fill="white" stroke="#666666" points="282.5,-198.25 181.75,-198.25 181.75,-179 282.5,-179 282.5,-198.25"/>
<text text-anchor="middle" x="232.12" y="-184.75" font-family="Helvetica,sans-Serif" font-size="10.00">sss::HTTPHeaders</text>
</a>
</g>
</g>
<!-- Node1&#45;&gt;Node2 -->
<g id="edge1" class="edge">
<title>Node1&#45;&gt;Node2</title>
<path fill="none" stroke="#63b8ff" d="M140.91,-177.9C150.81,-179.08 160.93,-180.28 170.64,-181.44"/>
<polygon fill="#63b8ff" stroke="#63b8ff" points="170.06,-185.01 180.4,-182.72 170.88,-178.06 170.06,-185.01"/>
</g>
<!-- Node3 -->
<g id="node3" class="node">
<title>Node3</title>
<g id="a_node3"><a xlink:href="classsss_1_1api_1_1S3Api.html#ad09581bf28c4bbbcbb71b329959ec1ae" target="_top" xlink:title="Send request.">
<polygon fill="white" stroke="#666666" points="287.75,-161.25 176.5,-161.25 176.5,-142 287.75,-142 287.75,-161.25"/>
<text text-anchor="middle" x="232.12" y="-147.75" font-family="Helvetica,sans-Serif" font-size="10.00">sss::api::S3Api::Send</text>
</a>
</g>
</g>
<!-- Node1&#45;&gt;Node3 -->
<g id="edge2" class="edge">
<title>Node1&#45;&gt;Node3</title>
<path fill="none" stroke="#63b8ff" d="M140.91,-161.78C149.01,-160.87 157.25,-159.94 165.3,-159.04"/>
<polygon fill="#63b8ff" stroke="#63b8ff" points="165.57,-162.42 175.11,-157.82 164.78,-155.46 165.57,-162.42"/>
</g>
<!-- Node4 -->
<g id="node4" class="node">
<title>Node4</title>
<g id="a_node4"><a xlink:href="classsss_1_1api_1_1S3Api.html#a840772746fbb0a79c161037da7b24a31" target="_top" xlink:title="Configure instance.">
<polygon fill="white" stroke="#666666" points="459.75,-365.25 342.5,-365.25 342.5,-346 459.75,-346 459.75,-365.25"/>
<text text-anchor="middle" x="401.12" y="-351.75" font-family="Helvetica,sans-Serif" font-size="10.00">sss::api::S3Api::Config</text>
</a>
</g>
</g>
<!-- Node3&#45;&gt;Node4 -->
<g id="edge3" class="edge">
<title>Node3&#45;&gt;Node4</title>
<path fill="none" stroke="#63b8ff" d="M275.18,-161.71C279.7,-163.86 284.01,-166.47 287.75,-169.62 313.88,-191.68 306.44,-208.13 323.75,-237.62 344.73,-273.38 371.49,-313.63 387.13,-336.68"/>
<polygon fill="#63b8ff" stroke="#63b8ff" points="384.76,-338.42 393.28,-344.71 390.54,-334.47 384.76,-338.42"/>
</g>
<!-- Node13 -->
<g id="node13" class="node">
<title>Node13</title>
<g id="a_node13"><a xlink:href="classsss_1_1WebClient.html#a51ce0ecf6487b6a43072643fe4f4cb4e" target="_top" xlink:title=" ">
<polygon fill="white" stroke="#666666" points="852.12,-591.25 707.12,-591.25 707.12,-572 852.12,-572 852.12,-591.25"/>
<text text-anchor="middle" x="779.62" y="-577.75" font-family="Helvetica,sans-Serif" font-size="10.00">sss::WebClient::SetPostData</text>
</a>
</g>
</g>
<!-- Node3&#45;&gt;Node13 -->
<g id="edge40" class="edge">
<title>Node3&#45;&gt;Node13</title>
<path fill="none" stroke="#63b8ff" d="M278.07,-161.68C281.69,-163.84 285.01,-166.45 287.75,-169.62 348.27,-239.59 280.98,-292.6 323.75,-374.62 379.07,-480.73 405.43,-515.41 514.5,-564.62 571.22,-590.22 641.84,-593.49 695.78,-590.9"/>
<polygon fill="#63b8ff" stroke="#63b8ff" points="695.9,-594.34 705.69,-590.28 695.5,-587.35 695.9,-594.34"/>
</g>
<!-- Node28 -->
<g id="node28" class="node">
<title>Node28</title>
<g id="a_node28"><a xlink:href="lib_2include_2utility_8h.html#ab314781bb3f053ef5325b50f3a1b74f8" target="_top" xlink:title=" ">
<polygon fill="white" stroke="#666666" points="1022.25,-140.25 947.75,-140.25 947.75,-121 1022.25,-121 1022.25,-140.25"/>
<text text-anchor="middle" x="985" y="-126.75" font-family="Helvetica,sans-Serif" font-size="10.00">sss::ToLower</text>
</a>
</g>
</g>
<!-- Node3&#45;&gt;Node28 -->
<g id="edge43" class="edge">
<title>Node3&#45;&gt;Node28</title>
<path fill="none" stroke="#63b8ff" d="M288.03,-150.09C429.29,-146.14 803.48,-135.67 936.36,-131.96"/>
<polygon fill="#63b8ff" stroke="#63b8ff" points="936.45,-135.43 946.35,-131.65 936.26,-128.43 936.45,-135.43"/>
</g>
<!-- Node30 -->
<g id="node30" class="node">
<title>Node30</title>
<g id="a_node30"><a xlink:href="group__ErrorHandling.html#ga781648957bfce0bbc86cbdbff94e28a6" target="_top" xlink:title=" ">
<polygon fill="white" stroke="#666666" points="445.88,-56.25 356.38,-56.25 356.38,-37 445.88,-37 445.88,-56.25"/>
<text text-anchor="middle" x="401.12" y="-42.75" font-family="Helvetica,sans-Serif" font-size="10.00">sss::HandleError</text>
</a>
</g>
</g>
<!-- Node3&#45;&gt;Node30 -->
<g id="edge37" class="edge">
<title>Node3&#45;&gt;Node30</title>
<path fill="none" stroke="#63b8ff" d="M240.66,-141.66C254.86,-123.61 287.42,-85.54 323.75,-65.62 330.59,-61.88 338.17,-58.86 345.83,-56.42"/>
<polygon fill="#63b8ff" stroke="#63b8ff" points="346.59,-59.56 355.25,-53.46 344.68,-52.83 346.59,-59.56"/>
</g>
<!-- Node31 -->
<g id="node31" class="node">
<title>Node31</title>
<g id="a_node31"><a xlink:href="group__Internal.html#ga2b8b08c2a4994a87377d83ccfa9a6a53" target="_top" xlink:title=" ">
<polygon fill="white" stroke="#666666" points="449.62,-19.25 352.62,-19.25 352.62,0 449.62,0 449.62,-19.25"/>
<text text-anchor="middle" x="401.12" y="-5.75" font-family="Helvetica,sans-Serif" font-size="10.00">sss::ParseParams</text>
</a>
</g>
</g>
<!-- Node3&#45;&gt;Node31 -->
<g id="edge38" class="edge">
<title>Node3&#45;&gt;Node31</title>
<path fill="none" stroke="#63b8ff" d="M237.37,-141.73C248.09,-117.98 278.64,-57.54 323.75,-27.62 329.34,-23.92 335.6,-20.97 342.07,-18.63"/>
<polygon fill="#63b8ff" stroke="#63b8ff" points="342.84,-21.75 351.34,-15.43 340.76,-15.06 342.84,-21.75"/>
</g>
<!-- Node32 -->
<g id="node32" class="node">
<title>Node32</title>
<g id="a_node32"><a xlink:href="classsss_1_1WebClient.html#aa1d7484f0e09242ce53b24f9648ce50e" target="_top" xlink:title=" ">
<polygon fill="white" stroke="#666666" points="641.12,-180.25 529.88,-180.25 529.88,-161 641.12,-161 641.12,-180.25"/>
<text text-anchor="middle" x="585.5" y="-166.75" font-family="Helvetica,sans-Serif" font-size="10.00">sss::WebClient::Send</text>
</a>
</g>
</g>
<!-- Node3&#45;&gt;Node32 -->
<g id="edge39" class="edge">
<title>Node3&#45;&gt;Node32</title>
<path fill="none" stroke="#63b8ff" d="M288.03,-154.59C350.37,-157.97 452.06,-163.46 518.63,-167.06"/>
<polygon fill="#63b8ff" stroke="#63b8ff" points="518.23,-170.6 528.4,-167.65 518.61,-163.61 518.23,-170.6"/>
</g>
<!-- Node33 -->
<g id="node33" class="node">
<title>Node33</title>
<g id="a_node33"><a xlink:href="classsss_1_1WebClient.html#a7dfd984b33a29686fb0355b65b620e99" target="_top" xlink:title=" ">
<polygon fill="white" stroke="#666666" points="478.5,-104.88 323.75,-104.88 323.75,-74.38 478.5,-74.38 478.5,-104.88"/>
<text text-anchor="start" x="331.75" y="-91.38" font-family="Helvetica,sans-Serif" font-size="10.00">sss::WebClient::SetUrlEncoded</text>
<text text-anchor="middle" x="401.12" y="-80.12" font-family="Helvetica,sans-Serif" font-size="10.00">PostData</text>
</a>
</g>
</g>
<!-- Node3&#45;&gt;Node33 -->
<g id="edge41" class="edge">
<title>Node3&#45;&gt;Node33</title>
<path fill="none" stroke="#63b8ff" d="M260.33,-141.53C283.97,-132.75 318.89,-119.78 347.92,-109.01"/>
<polygon fill="#63b8ff" stroke="#63b8ff" points="348.75,-112.06 356.91,-105.3 346.32,-105.5 348.75,-112.06"/>
</g>
<!-- Node34 -->
<g id="node34" class="node">
<title>Node34</title>
<g id="a_node34"><a xlink:href="classsss_1_1WebClient.html#ae7b1f77bd4ae44585f2d49ea493bdcc5" target="_top" xlink:title="Upload data from memory buffer.">
<polygon fill="white" stroke="#666666" points="471.38,-228.88 330.88,-228.88 330.88,-198.38 471.38,-198.38 471.38,-228.88"/>
<text text-anchor="start" x="338.88" y="-215.38" font-family="Helvetica,sans-Serif" font-size="10.00">sss::WebClient::UploadData</text>
<text text-anchor="middle" x="401.12" y="-204.12" font-family="Helvetica,sans-Serif" font-size="10.00">FromBuffer</text>
</a>
</g>
</g>
<!-- Node3&#45;&gt;Node34 -->
<g id="edge44" class="edge">
<title>Node3&#45;&gt;Node34</title>
<path fill="none" stroke="#63b8ff" d="M265.04,-161.69C272.53,-164.17 280.45,-166.91 287.75,-169.62 303.99,-175.68 307.65,-178.21 323.75,-184.62 331.53,-187.72 339.79,-190.94 347.89,-194.04"/>
<polygon fill="#63b8ff" stroke="#63b8ff" points="346.42,-197.61 357.01,-197.91 348.92,-191.07 346.42,-197.61"/>
</g>
<!-- Node5 -->
<g id="node5" class="node">
<title>Node5</title>
<g id="a_node5"><a xlink:href="classsss_1_1api_1_1S3Api.html#aea9741d60e74775ccd4de1c2c58f64fa" target="_top" xlink:title=" ">
<polygon fill="white" stroke="#666666" points="646.38,-555.25 524.62,-555.25 524.62,-536 646.38,-536 646.38,-555.25"/>
<text text-anchor="middle" x="585.5" y="-541.75" font-family="Helvetica,sans-Serif" font-size="10.00">sss::api::S3Api::Access</text>
</a>
</g>
</g>
<!-- Node4&#45;&gt;Node5 -->
<g id="edge4" class="edge">
<title>Node4&#45;&gt;Node5</title>
<path fill="none" stroke="#63b8ff" d="M406.08,-365.48C418.02,-393.96 456.45,-477.22 514.5,-521.62 519.47,-525.43 525.08,-528.65 530.91,-531.38"/>
<polygon fill="#63b8ff" stroke="#63b8ff" points="529.27,-534.9 539.85,-535.51 531.96,-528.44 529.27,-534.9"/>
</g>
<!-- Node6 -->
<g id="node6" class="node">
<title>Node6</title>
<g id="a_node6"><a xlink:href="classsss_1_1api_1_1S3Api.html#a3718745d3b940462ae9f3b78f773b3a6" target="_top" xlink:title="Clear data and reset read and write functions.">
<polygon fill="white" stroke="#666666" points="641.5,-479.25 529.5,-479.25 529.5,-460 641.5,-460 641.5,-479.25"/>
<text text-anchor="middle" x="585.5" y="-465.75" font-family="Helvetica,sans-Serif" font-size="10.00">sss::api::S3Api::Clear</text>
</a>
</g>
</g>
<!-- Node4&#45;&gt;Node6 -->
<g id="edge5" class="edge">
<title>Node4&#45;&gt;Node6</title>
<path fill="none" stroke="#63b8ff" d="M412.09,-365.64C430.7,-383.84 472.67,-422.62 514.5,-445.62 521.62,-449.54 529.5,-452.99 537.33,-455.96"/>
<polygon fill="#63b8ff" stroke="#63b8ff" points="535.92,-459.53 546.51,-459.59 538.27,-452.94 535.92,-459.53"/>
</g>
<!-- Node11 -->
<g id="node11" class="node">
<title>Node11</title>
<g id="a_node11"><a xlink:href="classsss_1_1WebClient.html#a75890c14fbe4a4bbac61718a4f3c064d" target="_top" xlink:title=" ">
<polygon fill="white" stroke="#666666" points="849.88,-552.25 709.38,-552.25 709.38,-533 849.88,-533 849.88,-552.25"/>
<text text-anchor="middle" x="779.62" y="-538.75" font-family="Helvetica,sans-Serif" font-size="10.00">sss::WebClient::SetHeaders</text>
</a>
</g>
</g>
<!-- Node4&#45;&gt;Node11 -->
<g id="edge17" class="edge">
<title>Node4&#45;&gt;Node11</title>
<path fill="none" stroke="#63b8ff" d="M407.38,-365.59C421.2,-390.74 461.2,-457.01 514.5,-488.62 545.05,-506.75 632.24,-522.37 698.16,-532.08"/>
<polygon fill="#63b8ff" stroke="#63b8ff" points="697.55,-535.67 707.95,-533.64 698.56,-528.74 697.55,-535.67"/>
</g>
<!-- Node12 -->
<g id="node12" class="node">
<title>Node12</title>
<g id="a_node12"><a xlink:href="classsss_1_1WebClient.html#a12b5db6b8c667024557ab58059d39994" target="_top" xlink:title=" ">
<polygon fill="white" stroke="#666666" points="841.62,-441.25 717.62,-441.25 717.62,-422 841.62,-422 841.62,-441.25"/>
<text text-anchor="middle" x="779.62" y="-427.75" font-family="Helvetica,sans-Serif" font-size="10.00">sss::WebClient::SetPath</text>
</a>
</g>
</g>
<!-- Node4&#45;&gt;Node12 -->
<g id="edge21" class="edge">
<title>Node4&#45;&gt;Node12</title>
<path fill="none" stroke="#63b8ff" d="M426.7,-365.71C449.2,-374.57 483.58,-387.17 514.5,-394.62 578.51,-410.06 652.9,-419.76 706.4,-425.34"/>
<polygon fill="#63b8ff" stroke="#63b8ff" points="705.84,-428.9 716.15,-426.44 706.55,-421.94 705.84,-428.9"/>
</g>
<!-- Node14 -->
<g id="node14" class="node">
<title>Node14</title>
<g id="a_node14"><a xlink:href="classsss_1_1WebClient.html#a9bf978d95b79728f6d60fc2bdb4fe546" target="_top" xlink:title=" ">
<polygon fill="white" stroke="#666666" points="865.62,-404.25 693.62,-404.25 693.62,-385 865.62,-385 865.62,-404.25"/>
<text text-anchor="middle" x="779.62" y="-390.75" font-family="Helvetica,sans-Serif" font-size="10.00">sss::WebClient::SetReqParameters</text>
</a>
</g>
</g>
<!-- Node4&#45;&gt;Node14 -->
<g id="edge22" class="edge">
<title>Node4&#45;&gt;Node14</title>
<path fill="none" stroke="#63b8ff" d="M455.71,-365.72C474.27,-368.94 495.25,-372.27 514.5,-374.62 570,-381.4 632.35,-386.25 682.54,-389.48"/>
<polygon fill="#63b8ff" stroke="#63b8ff" points="682.18,-393.03 692.38,-390.16 682.62,-386.04 682.18,-393.03"/>
</g>
<!-- Node15 -->
<g id="node15" class="node">
<title>Node15</title>
<g id="a_node15"><a xlink:href="classsss_1_1api_1_1S3Api.html#a25a999d87c121627166fc0a896f536c7" target="_top" xlink:title=" ">
<polygon fill="white" stroke="#666666" points="649,-328.25 522,-328.25 522,-309 649,-309 649,-328.25"/>
<text text-anchor="middle" x="585.5" y="-314.75" font-family="Helvetica,sans-Serif" font-size="10.00">sss::api::S3Api::Endpoint</text>
</a>
</g>
</g>
<!-- Node4&#45;&gt;Node15 -->
<g id="edge14" class="edge">
<title>Node4&#45;&gt;Node15</title>
<path fill="none" stroke="#63b8ff" d="M451.96,-345.51C474.28,-340.99 500.78,-335.61 524.21,-330.86"/>
<polygon fill="#63b8ff" stroke="#63b8ff" points="524.62,-334.14 533.73,-328.72 523.23,-327.28 524.62,-334.14"/>
</g>
<!-- Node16 -->
<g id="node16" class="node">
<title>Node16</title>
<g id="a_node16"><a xlink:href="classsss_1_1api_1_1S3Api.html#a6f518c16679e99f119966b36ac28463f" target="_top" xlink:title=" ">
<polygon fill="white" stroke="#666666" points="644.12,-291.25 526.88,-291.25 526.88,-272 644.12,-272 644.12,-291.25"/>
<text text-anchor="middle" x="585.5" y="-277.75" font-family="Helvetica,sans-Serif" font-size="10.00">sss::api::S3Api::Secret</text>
</a>
</g>
</g>
<!-- Node4&#45;&gt;Node16 -->
<g id="edge15" class="edge">
<title>Node4&#45;&gt;Node16</title>
<path fill="none" stroke="#63b8ff" d="M419.51,-345.51C441.17,-333.26 479.58,-312.65 514.5,-299.62 519.25,-297.85 524.24,-296.19 529.28,-294.65"/>
<polygon fill="#63b8ff" stroke="#63b8ff" points="529.99,-297.8 538.63,-291.67 528.05,-291.08 529.99,-297.8"/>
</g>
<!-- Node17 -->
<g id="node17" class="node">
<title>Node17</title>
<g id="a_node17"><a xlink:href="classsss_1_1WebClient.html#afc3b7a92568fbb1ea447918920ca266e" target="_top" xlink:title="Set endpoint: &lt;proto&gt;://&lt;server&gt;:&lt;port&gt;">
<polygon fill="white" stroke="#666666" points="656.5,-254.25 514.5,-254.25 514.5,-235 656.5,-235 656.5,-254.25"/>
<text text-anchor="middle" x="585.5" y="-240.75" font-family="Helvetica,sans-Serif" font-size="10.00">sss::WebClient::SetEndpoint</text>
</a>
</g>
</g>
<!-- Node4&#45;&gt;Node17 -->
<g id="edge16" class="edge">
<title>Node4&#45;&gt;Node17</title>
<path fill="none" stroke="#63b8ff" d="M411.28,-345.53C429.2,-326.41 470.96,-284.83 514.5,-262.62 517.57,-261.06 520.8,-259.62 524.1,-258.3"/>
<polygon fill="#63b8ff" stroke="#63b8ff" points="524.94,-261.36 533.18,-254.69 522.58,-254.77 524.94,-261.36"/>
</g>
<!-- Node18 -->
<g id="node18" class="node">
<title>Node18</title>
<g id="a_node18"><a xlink:href="classsss_1_1WebClient.html#af6233ffd7b294e1e7e606e838dd44e9e" target="_top" xlink:title=" ">
<polygon fill="white" stroke="#666666" points="653.5,-217.25 517.5,-217.25 517.5,-198 653.5,-198 653.5,-217.25"/>
<text text-anchor="middle" x="585.5" y="-203.75" font-family="Helvetica,sans-Serif" font-size="10.00">sss::WebClient::SetMethod</text>
</a>
</g>
</g>
<!-- Node4&#45;&gt;Node18 -->
<g id="edge18" class="edge">
<title>Node4&#45;&gt;Node18</title>
<path fill="none" stroke="#63b8ff" d="M407.75,-345.68C422.13,-321.2 462.77,-257.69 514.5,-225.62 516.66,-224.29 518.92,-223.05 521.24,-221.9"/>
<polygon fill="#63b8ff" stroke="#63b8ff" points="522.28,-224.83 530.1,-217.68 519.53,-218.4 522.28,-224.83"/>
</g>
<!-- Node20 -->
<g id="node20" class="node">
<title>Node20</title>
<g id="a_node20"><a xlink:href="group__Sign.html#ga3ae8e18ef70752b7369fca66c40c526b" target="_top" xlink:title="Sign headers.">
<polygon fill="white" stroke="#666666" points="632.5,-365.25 538.5,-365.25 538.5,-346 632.5,-346 632.5,-365.25"/>
<text text-anchor="middle" x="585.5" y="-351.75" font-family="Helvetica,sans-Serif" font-size="10.00">sss::SignHeaders</text>
</a>
</g>
</g>
<!-- Node4&#45;&gt;Node20 -->
<g id="edge23" class="edge">
<title>Node4&#45;&gt;Node20</title>
<path fill="none" stroke="#63b8ff" d="M460.08,-355.62C481.57,-355.62 505.92,-355.62 527.34,-355.62"/>
<polygon fill="#63b8ff" stroke="#63b8ff" points="527.25,-359.13 537.25,-355.62 527.25,-352.13 527.25,-359.13"/>
</g>
<!-- Node7 -->
<g id="node7" class="node">
<title>Node7</title>
<g id="a_node7"><a xlink:href="classsss_1_1WebClient.html#a381f5715b7a2f19a0d4414d278874bae" target="_top" xlink:title="Clear internal buffers.">
<polygon fill="white" stroke="#666666" points="851.38,-515.25 707.88,-515.25 707.88,-496 851.38,-496 851.38,-515.25"/>
<text text-anchor="middle" x="779.62" y="-501.75" font-family="Helvetica,sans-Serif" font-size="10.00">sss::WebClient::ClearBuffers</text>
</a>
</g>
</g>
<!-- Node6&#45;&gt;Node7 -->
<g id="edge6" class="edge">
<title>Node6&#45;&gt;Node7</title>
<path fill="none" stroke="#63b8ff" d="M640.53,-479.75C663.34,-484.02 690.09,-489.04 713.94,-493.5"/>
<polygon fill="#63b8ff" stroke="#63b8ff" points="713.2,-497.11 723.67,-495.51 714.48,-490.23 713.2,-497.11"/>
</g>
<!-- Node8 -->
<g id="node8" class="node">
<title>Node8</title>
<g id="a_node8"><a xlink:href="classsss_1_1WebClient.html#a96837f149bb473853a6523d096a25c56" target="_top" xlink:title="Reset read/write functions to default.">
<polygon fill="white" stroke="#666666" points="866.75,-478.25 692.5,-478.25 692.5,-459 866.75,-459 866.75,-478.25"/>
<text text-anchor="middle" x="779.62" y="-464.75" font-family="Helvetica,sans-Serif" font-size="10.00">sss::WebClient::ResetRWFunctions</text>
</a>
</g>
</g>
<!-- Node6&#45;&gt;Node8 -->
<g id="edge7" class="edge">
<title>Node6&#45;&gt;Node8</title>
<path fill="none" stroke="#63b8ff" d="M641.81,-469.34C654.23,-469.27 667.77,-469.2 681.34,-469.13"/>
<polygon fill="#63b8ff" stroke="#63b8ff" points="681.23,-472.63 691.21,-469.07 681.19,-465.63 681.23,-472.63"/>
</g>
<!-- Node6&#45;&gt;Node11 -->
<g id="edge10" class="edge">
<title>Node6&#45;&gt;Node11</title>
<path fill="none" stroke="#63b8ff" d="M624.34,-479.68C635.1,-483.3 646.58,-487.94 656.5,-493.62 674.82,-504.13 673.57,-515.28 692.5,-524.62 695.82,-526.26 699.28,-527.75 702.83,-529.11"/>
<polygon fill="#63b8ff" stroke="#63b8ff" points="701.42,-532.66 712.02,-532.58 703.68,-526.04 701.42,-532.66"/>
</g>
<!-- Node6&#45;&gt;Node12 -->
<g id="edge11" class="edge">
<title>Node6&#45;&gt;Node12</title>
<path fill="none" stroke="#63b8ff" d="M637.48,-459.54C661.9,-454.71 691.34,-448.89 717,-443.81"/>
<polygon fill="#63b8ff" stroke="#63b8ff" points="717.61,-447.06 726.74,-441.69 716.25,-440.2 717.61,-447.06"/>
</g>
<!-- Node6&#45;&gt;Node13 -->
<g id="edge12" class="edge">
<title>Node6&#45;&gt;Node13</title>
<path fill="none" stroke="#63b8ff" d="M599.43,-479.59C613.69,-490.72 637.18,-509.43 656.5,-526.62 673.17,-541.46 672.91,-550.93 692.5,-561.62 696.98,-564.07 701.75,-566.22 706.66,-568.1"/>
<polygon fill="#63b8ff" stroke="#63b8ff" points="705.28,-571.68 715.88,-571.62 707.56,-565.06 705.28,-571.68"/>
</g>
<!-- Node6&#45;&gt;Node14 -->
<g id="edge13" class="edge">
<title>Node6&#45;&gt;Node14</title>
<path fill="none" stroke="#63b8ff" d="M601.65,-459.66C621.65,-446.94 658.34,-425.08 692.5,-412.62 697.66,-410.74 703.07,-409.04 708.56,-407.49"/>
<polygon fill="#63b8ff" stroke="#63b8ff" points="709.37,-410.63 718.16,-404.71 707.6,-403.86 709.37,-410.63"/>
</g>
<!-- Node9 -->
<g id="node9" class="node">
<title>Node9</title>
<g id="a_node9"><a xlink:href="classsss_1_1WebClient.html#a88dbcc61562e84aa9ebf1eabf887ac28" target="_top" xlink:title=" ">
<polygon fill="white" stroke="#666666" points="1067.25,-521.25 902.75,-521.25 902.75,-502 1067.25,-502 1067.25,-521.25"/>
<text text-anchor="middle" x="985" y="-507.75" font-family="Helvetica,sans-Serif" font-size="10.00">sss::WebClient::SetReadFunction</text>
</a>
</g>
</g>
<!-- Node8&#45;&gt;Node9 -->
<g id="edge8" class="edge">
<title>Node8&#45;&gt;Node9</title>
<path fill="none" stroke="#63b8ff" d="M828.92,-478.68C841.25,-481.26 854.49,-484.04 866.75,-486.62 886.16,-490.72 907.37,-495.24 926.35,-499.29"/>
<polygon fill="#63b8ff" stroke="#63b8ff" points="925.43,-502.88 935.94,-501.55 926.89,-496.03 925.43,-502.88"/>
</g>
<!-- Node10 -->
<g id="node10" class="node">
<title>Node10</title>
<g id="a_node10"><a xlink:href="classsss_1_1WebClient.html#a002876073b3869a9b9a9d709d14f1d7e" target="_top" xlink:title=" ">
<polygon fill="white" stroke="#666666" points="1048.12,-483.88 921.88,-483.88 921.88,-453.38 1048.12,-453.38 1048.12,-483.88"/>
<text text-anchor="start" x="929.88" y="-470.38" font-family="Helvetica,sans-Serif" font-size="10.00">sss::WebClient::SetWrite</text>
<text text-anchor="middle" x="985" y="-459.12" font-family="Helvetica,sans-Serif" font-size="10.00">Function</text>
</a>
</g>
</g>
<!-- Node8&#45;&gt;Node10 -->
<g id="edge9" class="edge">
<title>Node8&#45;&gt;Node10</title>
<path fill="none" stroke="#63b8ff" d="M867.17,-468.62C881.73,-468.62 896.71,-468.62 910.89,-468.62"/>
<polygon fill="#63b8ff" stroke="#63b8ff" points="910.55,-472.13 920.55,-468.62 910.55,-465.13 910.55,-472.13"/>
</g>
<!-- Node19 -->
<g id="node19" class="node">
<title>Node19</title>
<g id="a_node19"><a xlink:href="lib_2include_2utility_8h.html#ae153c064d6f1beda845702f67605b20e" target="_top" xlink:title=" ">
<polygon fill="white" stroke="#666666" points="1022.25,-195.25 947.75,-195.25 947.75,-176 1022.25,-176 1022.25,-195.25"/>
<text text-anchor="middle" x="985" y="-181.75" font-family="Helvetica,sans-Serif" font-size="10.00">sss::ToUpper</text>
</a>
</g>
</g>
<!-- Node18&#45;&gt;Node19 -->
<g id="edge19" class="edge">
<title>Node18&#45;&gt;Node19</title>
<path fill="none" stroke="#63b8ff" d="M653.93,-203.89C734.25,-199.45 866.35,-192.14 936.61,-188.25"/>
<polygon fill="#63b8ff" stroke="#63b8ff" points="936.54,-191.7 946.33,-187.65 936.16,-184.71 936.54,-191.7"/>
</g>
<!-- Node19&#45;&gt;Node19 -->
<g id="edge20" class="edge">
<title>Node19&#45;&gt;Node19</title>
<path fill="none" stroke="#63b8ff" d="M952.85,-195.54C938.18,-204.15 948.9,-213.25 985,-213.25 1008.13,-213.25 1020.84,-209.51 1023.13,-204.56"/>
<polygon fill="#63b8ff" stroke="#63b8ff" points="1025.59,-202.94 1017.15,-196.54 1019.76,-206.81 1025.59,-202.94"/>
</g>
<!-- Node21 -->
<g id="node21" class="node">
<title>Node21</title>
<g id="a_node21"><a xlink:href="group__Ranges.html#ga0aa7f3b15d2ebf9b597a1b5ba38ae8ac" target="_top" xlink:title="return iterator at start position">
<polygon fill="white" stroke="#666666" points="1015.5,-435.25 954.5,-435.25 954.5,-416 1015.5,-416 1015.5,-435.25"/>
<text text-anchor="middle" x="985" y="-421.75" font-family="Helvetica,sans-Serif" font-size="10.00">sss::begin</text>
</a>
</g>
</g>
<!-- Node20&#45;&gt;Node21 -->
<g id="edge24" class="edge">
<title>Node20&#45;&gt;Node21</title>
<path fill="none" stroke="#63b8ff" d="M633,-350.08C690.38,-345.19 789.78,-343.18 866.75,-375.62 886.48,-383.94 883.69,-397.89 902.75,-407.62 915.34,-414.06 930.17,-418.2 943.7,-420.87"/>
<polygon fill="#63b8ff" stroke="#63b8ff" points="942.74,-424.43 953.2,-422.7 943.95,-417.53 942.74,-424.43"/>
</g>
<!-- Node22 -->
<g id="node22" class="node">
<title>Node22</title>
<g id="a_node22"><a xlink:href="group__Sign.html#ga532598da479904609d6c02e4c2a1311a" target="_top" xlink:title="Compute signature.">
<polygon fill="white" stroke="#666666" points="839,-288.25 720.25,-288.25 720.25,-269 839,-269 839,-288.25"/>
<text text-anchor="middle" x="779.62" y="-274.75" font-family="Helvetica,sans-Serif" font-size="10.00">sss::ComputeSignature</text>
</a>
</g>
</g>
<!-- Node20&#45;&gt;Node22 -->
<g id="edge25" class="edge">
<title>Node20&#45;&gt;Node22</title>
<path fill="none" stroke="#63b8ff" d="M632.91,-347.12C641.04,-344.68 649.22,-341.57 656.5,-337.62 675.58,-327.28 673.64,-315.36 692.5,-304.62 701.36,-299.58 711.31,-295.41 721.21,-292.01"/>
<polygon fill="#63b8ff" stroke="#63b8ff" points="722.01,-295.11 730.47,-288.73 719.88,-288.44 722.01,-295.11"/>
</g>
<!-- Node24 -->
<g id="node24" class="node">
<title>Node24</title>
<g id="a_node24"><a xlink:href="group__Ranges.html#ga4f73053571587e79eb3db628f5e6ef99" target="_top" xlink:title="return iterator at end position">
<polygon fill="white" stroke="#666666" points="1011.75,-398.25 958.25,-398.25 958.25,-379 1011.75,-379 1011.75,-398.25"/>
<text text-anchor="middle" x="985" y="-384.75" font-family="Helvetica,sans-Serif" font-size="10.00">sss::end</text>
</a>
</g>
</g>
<!-- Node20&#45;&gt;Node24 -->
<g id="edge36" class="edge">
<title>Node20&#45;&gt;Node24</title>
<path fill="none" stroke="#63b8ff" d="M623.1,-345.56C677.8,-332.36 783.36,-314.01 866.75,-342.62 885.92,-349.2 884.41,-362 902.75,-370.62 916.61,-377.14 932.92,-381.35 947.27,-384.04"/>
<polygon fill="#63b8ff" stroke="#63b8ff" points="946.35,-387.6 956.8,-385.81 947.52,-380.7 946.35,-387.6"/>
</g>
<!-- Node22&#45;&gt;Node19 -->
<g id="edge34" class="edge">
<title>Node22&#45;&gt;Node19</title>
<path fill="none" stroke="#63b8ff" d="M801.75,-268.61C826.05,-257.13 867.18,-237.8 902.75,-221.62 918.61,-214.41 936.29,-206.56 951.1,-200.03"/>
<polygon fill="#63b8ff" stroke="#63b8ff" points="952.09,-202.98 959.83,-195.75 949.27,-196.57 952.09,-202.98"/>
</g>
<!-- Node22&#45;&gt;Node21 -->
<g id="edge26" class="edge">
<title>Node22&#45;&gt;Node21</title>
<path fill="none" stroke="#63b8ff" d="M798.21,-288.57C816.95,-299.83 846.63,-319.63 866.75,-342.62 888.49,-367.48 876.29,-387.86 902.75,-407.62 914.35,-416.29 929.32,-420.93 943.24,-423.37"/>
<polygon fill="#63b8ff" stroke="#63b8ff" points="942.71,-426.97 953.1,-424.88 943.68,-420.03 942.71,-426.97"/>
</g>
<!-- Node23 -->
<g id="node23" class="node">
<title>Node23</title>
<g id="a_node23"><a xlink:href="group__Internal.html#ga74c69f25ce04876e114759c0023b2a12" target="_top" xlink:title=" ">
<polygon fill="white" stroke="#666666" points="1047.75,-287.25 922.25,-287.25 922.25,-268 1047.75,-268 1047.75,-287.25"/>
<text text-anchor="middle" x="985" y="-273.75" font-family="Helvetica,sans-Serif" font-size="10.00">sss::CreateSignatureKey</text>
</a>
</g>
</g>
<!-- Node22&#45;&gt;Node23 -->
<g id="edge27" class="edge">
<title>Node22&#45;&gt;Node23</title>
<path fill="none" stroke="#63b8ff" d="M839.45,-278.34C861.73,-278.23 887.37,-278.1 910.81,-277.98"/>
<polygon fill="#63b8ff" stroke="#63b8ff" points="910.78,-281.48 920.76,-277.93 910.75,-274.48 910.78,-281.48"/>
</g>
<!-- Node22&#45;&gt;Node24 -->
<g id="edge28" class="edge">
<title>Node22&#45;&gt;Node24</title>
<path fill="none" stroke="#63b8ff" d="M836.62,-288.62C847.39,-292.37 858.02,-297.53 866.75,-304.62 892.68,-325.7 876.04,-350.54 902.75,-370.62 915.48,-380.2 932.31,-384.86 947.36,-387.07"/>
<polygon fill="#63b8ff" stroke="#63b8ff" points="946.57,-390.62 956.91,-388.28 947.37,-383.67 946.57,-390.62"/>
</g>
<!-- Node25 -->
<g id="node25" class="node">
<title>Node25</title>
<g id="a_node25"><a xlink:href="group__Internal.html#ga50353a351a93b1213dc4e5211c767d85" target="_top" xlink:title=" ">
<polygon fill="white" stroke="#666666" points="1024.88,-250.25 945.12,-250.25 945.12,-231 1024.88,-231 1024.88,-250.25"/>
<text text-anchor="middle" x="985" y="-236.75" font-family="Helvetica,sans-Serif" font-size="10.00">sss::GetDates</text>
</a>
</g>
</g>
<!-- Node22&#45;&gt;Node25 -->
<g id="edge29" class="edge">
<title>Node22&#45;&gt;Node25</title>
<path fill="none" stroke="#63b8ff" d="M834.59,-268.54C865.51,-262.76 904.04,-255.57 934.23,-249.92"/>
<polygon fill="#63b8ff" stroke="#63b8ff" points="934.76,-253.2 943.94,-247.92 933.47,-246.32 934.76,-253.2"/>
</g>
<!-- Node26 -->
<g id="node26" class="node">
<title>Node26</title>
<g id="a_node26"><a xlink:href="group__Internal.html#ga990dfaae4abc6bf20a28f9772b7bcd16" target="_top" xlink:title="Byte to hex string conversion.">
<polygon fill="white" stroke="#666666" points="1012.88,-361.25 957.12,-361.25 957.12,-342 1012.88,-342 1012.88,-361.25"/>
<text text-anchor="middle" x="985" y="-347.75" font-family="Helvetica,sans-Serif" font-size="10.00">sss::Hex</text>
</a>
</g>
</g>
<!-- Node22&#45;&gt;Node26 -->
<g id="edge30" class="edge">
<title>Node22&#45;&gt;Node26</title>
<path fill="none" stroke="#63b8ff" d="M825.73,-288.71C839.35,-292.67 854.04,-297.92 866.75,-304.62 884.92,-314.22 884.23,-324.72 902.75,-333.62 916.11,-340.05 931.81,-344.21 945.82,-346.9"/>
<polygon fill="#63b8ff" stroke="#63b8ff" points="945.18,-350.51 955.63,-348.75 946.36,-343.61 945.18,-350.51"/>
</g>
<!-- Node27 -->
<g id="node27" class="node">
<title>Node27</title>
<g id="a_node27"><a xlink:href="group__Internal.html#ga7160aa316f2c6633467b47588263c690" target="_top" xlink:title=" ">
<polygon fill="white" stroke="#666666" points="1026.75,-324.25 943.25,-324.25 943.25,-305 1026.75,-305 1026.75,-324.25"/>
<text text-anchor="middle" x="985" y="-310.75" font-family="Helvetica,sans-Serif" font-size="10.00">sss::ParseURL</text>
</a>
</g>
</g>
<!-- Node22&#45;&gt;Node27 -->
<g id="edge31" class="edge">
<title>Node22&#45;&gt;Node27</title>
<path fill="none" stroke="#63b8ff" d="M837.82,-288.75C867.51,-294 903.5,-300.38 932.35,-305.48"/>
<polygon fill="#63b8ff" stroke="#63b8ff" points="931.56,-309.07 942.02,-307.37 932.78,-302.18 931.56,-309.07"/>
</g>
<!-- Node22&#45;&gt;Node28 -->
<g id="edge32" class="edge">
<title>Node22&#45;&gt;Node28</title>
<path fill="none" stroke="#63b8ff" d="M789.25,-268.79C808.1,-247.76 855.09,-197.82 902.75,-166.62 915.94,-157.99 931.55,-150.51 945.54,-144.64"/>
<polygon fill="#63b8ff" stroke="#63b8ff" points="946.43,-147.65 954.39,-140.66 943.8,-141.17 946.43,-147.65"/>
</g>
<!-- Node29 -->
<g id="node29" class="node">
<title>Node29</title>
<g id="a_node29"><a xlink:href="group__Internal.html#ga0f079ace8729714b3949eabe22f228c9" target="_top" xlink:title=" ">
<polygon fill="white" stroke="#666666" points="1026.75,-102.25 943.25,-102.25 943.25,-83 1026.75,-83 1026.75,-102.25"/>
<text text-anchor="middle" x="985" y="-88.75" font-family="Helvetica,sans-Serif" font-size="10.00">sss::UrlEncode</text>
</a>
</g>
</g>
<!-- Node22&#45;&gt;Node29 -->
<g id="edge35" class="edge">
<title>Node22&#45;&gt;Node29</title>
<path fill="none" stroke="#63b8ff" d="M784.76,-268.84C797.57,-239.78 839.55,-153.45 902.75,-111.62 911.54,-105.81 921.89,-101.77 932.21,-98.96"/>
<polygon fill="#63b8ff" stroke="#63b8ff" points="932.95,-102.14 941.88,-96.45 931.35,-95.33 932.95,-102.14"/>
</g>
<!-- Node28&#45;&gt;Node28 -->
<g id="edge33" class="edge">
<title>Node28&#45;&gt;Node28</title>
<path fill="none" stroke="#63b8ff" d="M952.85,-140.54C938.18,-149.15 948.9,-158.25 985,-158.25 1008.13,-158.25 1020.84,-154.51 1023.13,-149.56"/>
<polygon fill="#63b8ff" stroke="#63b8ff" points="1025.59,-147.94 1017.15,-141.54 1019.76,-151.81 1025.59,-147.94"/>
</g>
<!-- Node33&#45;&gt;Node29 -->
<g id="edge42" class="edge">
<title>Node33&#45;&gt;Node29</title>
<path fill="none" stroke="#63b8ff" d="M478.79,-90.02C599.23,-90.64 829.61,-91.83 932.34,-92.36"/>
<polygon fill="#63b8ff" stroke="#63b8ff" points="932.03,-95.86 942.05,-92.41 932.07,-88.86 932.03,-95.86"/>
</g>
<!-- Node34&#45;&gt;Node18 -->
<g id="edge46" class="edge">
<title>Node34&#45;&gt;Node18</title>
<path fill="none" stroke="#63b8ff" d="M471.85,-211.33C483.13,-210.96 494.87,-210.57 506.34,-210.2"/>
<polygon fill="#63b8ff" stroke="#63b8ff" points="506.34,-213.67 516.22,-209.84 506.11,-206.67 506.34,-213.67"/>
</g>
<!-- Node34&#45;&gt;Node32 -->
<g id="edge45" class="edge">
<title>Node34&#45;&gt;Node32</title>
<path fill="none" stroke="#63b8ff" d="M468.74,-197.92C489.26,-193.08 511.57,-187.82 531.08,-183.22"/>
<polygon fill="#63b8ff" stroke="#63b8ff" points="531.68,-186.44 540.61,-180.74 530.07,-179.63 531.68,-186.44"/>
</g>
</g>
</svg>
