<?xml version="1.0" encoding="UTF-8" standalone="no"?>
<!DOCTYPE svg PUBLIC "-//W3C//DTD SVG 1.1//EN"
 "http://www.w3.org/Graphics/SVG/1.1/DTD/svg11.dtd">
<!-- Generated by graphviz version 8.0.5 (20230430.1635)
 -->
<!-- Title: sss::WebClient::SetMethod Pages: 1 -->
<!--zoomable 201 -->
<svg id="main" version="1.1" xmlns="http://www.w3.org/2000/svg" xmlns:xlink="http://www.w3.org/1999/xlink" xml:space="preserve" onload="init(evt)">
<style type="text/css"><![CDATA[
.edge:hover path { stroke: red; }
.edge:hover polygon { stroke: red; fill: red; }
]]></style>
<script type="text/javascript"><![CDATA[
var edges = document.getElementsByTagName('g');
if (edges && edges.length) {
  for (var i=0;i<edges.length;i++) {
    if (edges[i].id.substr(0,4)=='edge') {
      edges[i].setAttribute('class','edge');
    }
  }
}
]]></script>
        <defs>
                <circle id="rim" cx="0" cy="0" r="7"/>
                <circle id="rim2" cx="0" cy="0" r="3.5"/>
                <g id="zoomPlus">
                        <use xlink:href="#rim" fill="#404040">
                                <set attributeName="fill" to="#808080" begin="zoomplus.mouseover" end="zoomplus.mouseout"/>
                        </use>
                        <path d="M-4,0h8M0,-4v8" fill="none" stroke="white" stroke-width="1.5" pointer-events="none"/>
                </g>
                <g id="zoomMin">
                        <use xlink:href="#rim" fill="#404040">
                                <set attributeName="fill" to="#808080" begin="zoomminus.mouseover" end="zoomminus.mouseout"/>
                        </use>
                        <path d="M-4,0h8" fill="none" stroke="white" stroke-width="1.5" pointer-events="none"/>
                </g>
                <g id="dirArrow">
                        <path fill="none" stroke="white" stroke-width="1.5" d="M0,-3.0v7 M-2.5,-0.5L0,-3.0L2.5,-0.5"/>
                </g>
               <g id="resetDef">
                       <use xlink:href="#rim2" fill="#404040">
                               <set attributeName="fill" to="#808080" begin="reset.mouseover" end="reset.mouseout"/>
                       </use>
               </g>
        </defs>

<script type="text/javascript">
var viewWidth = 508;
var viewHeight = 201;
var sectionId = 'dynsection-7';
</script>
<script xlink:href="svgpan.js"/>
<svg id="graph" class="graph">
<g id="viewport">
<title>sss::WebClient::SetMethod</title>
<!-- Node1 -->
<g id="node1" class="node">
<title>Node1</title>
<g id="a_node1"><a xlink:title=" ">
<polygon fill="#999999" stroke="#666666" points="500.25,-116.88 364.25,-116.88 364.25,-97.62 500.25,-97.62 500.25,-116.88"/>
<text text-anchor="middle" x="432.25" y="-103.38" font-family="Helvetica,sans-Serif" font-size="10.00">sss::WebClient::SetMethod</text>
</a>
</g>
</g>
<!-- Node2 -->
<g id="node2" class="node">
<title>Node2</title>
<g id="a_node2"><a xlink:href="classsss_1_1api_1_1S3Api.html#a88b3eb551e57106ed171d9079de6afb4" target="_top" xlink:title="[WebClient::Config]">
<polygon fill="white" stroke="#666666" points="316.62,-192.88 199.38,-192.88 199.38,-173.62 316.62,-173.62 316.62,-192.88"/>
<text text-anchor="middle" x="258" y="-179.38" font-family="Helvetica,sans-Serif" font-size="10.00">sss::api::S3Api::Config</text>
</a>
</g>
</g>
<!-- Node1&#45;&gt;Node2 -->
<g id="edge1" class="edge">
<title>Node1&#45;&gt;Node2</title>
<path fill="none" stroke="#63b8ff" d="M403.75,-122.4C383.27,-133.37 354.44,-148.16 328.25,-159.25 316.3,-164.31 302.88,-169.15 291.06,-173.14"/>
<polygon fill="#63b8ff" stroke="#63b8ff" points="405.23,-125.04 412.36,-117.2 401.9,-118.88 405.23,-125.04"/>
</g>
<!-- Node3 -->
<g id="node3" class="node">
<title>Node3</title>
<g id="a_node3"><a xlink:href="group__S3Client.html#ga5a769be8fbc874bad858ea95743e5643" target="_top" xlink:title="Send S3 request to endpoint.">
<polygon fill="white" stroke="#666666" points="130.38,-116.88 21.38,-116.88 21.38,-97.62 130.38,-97.62 130.38,-116.88"/>
<text text-anchor="middle" x="75.88" y="-103.38" font-family="Helvetica,sans-Serif" font-size="10.00">sss::SendS3Request</text>
</a>
</g>
</g>
<!-- Node1&#45;&gt;Node3 -->
<g id="edge2" class="edge">
<title>Node1&#45;&gt;Node3</title>
<path fill="none" stroke="#63b8ff" d="M375.98,-119.36C360.61,-122.21 343.85,-124.82 328.25,-126.25 266.07,-131.94 249.97,-131.54 187.75,-126.25 167.12,-124.5 144.57,-120.94 125.22,-117.37"/>
<polygon fill="#63b8ff" stroke="#63b8ff" points="376.21,-122.69 385.37,-117.37 374.89,-115.81 376.21,-122.69"/>
</g>
<!-- Node4 -->
<g id="node4" class="node">
<title>Node4</title>
<g id="a_node4"><a xlink:href="classsss_1_1WebClient.html#ae7b1f77bd4ae44585f2d49ea493bdcc5" target="_top" xlink:title="Upload data from memory buffer.">
<polygon fill="white" stroke="#666666" points="328.25,-79.5 187.75,-79.5 187.75,-49 328.25,-49 328.25,-79.5"/>
<text text-anchor="start" x="195.75" y="-66" font-family="Helvetica,sans-Serif" font-size="10.00">sss::WebClient::UploadData</text>
<text text-anchor="middle" x="258" y="-54.75" font-family="Helvetica,sans-Serif" font-size="10.00">FromBuffer</text>
</a>
</g>
</g>
<!-- Node1&#45;&gt;Node4 -->
<g id="edge3" class="edge">
<title>Node1&#45;&gt;Node4</title>
<path fill="none" stroke="#63b8ff" d="M380.42,-94.56C362.13,-89.99 341.26,-84.79 322.05,-79.99"/>
<polygon fill="#63b8ff" stroke="#63b8ff" points="379.32,-98.14 389.87,-97.17 381.01,-91.35 379.32,-98.14"/>
</g>
<!-- Node6 -->
<g id="node6" class="node">
<title>Node6</title>
<g id="a_node6"><a xlink:href="classsss_1_1WebClient.html#ad038e41cfc902f6e49754c52a9a71992" target="_top" xlink:title="Upload file.">
<polygon fill="white" stroke="#666666" points="325.62,-116.88 190.38,-116.88 190.38,-97.62 325.62,-97.62 325.62,-116.88"/>
<text text-anchor="middle" x="258" y="-103.38" font-family="Helvetica,sans-Serif" font-size="10.00">sss::WebClient::UploadFile</text>
</a>
</g>
</g>
<!-- Node1&#45;&gt;Node6 -->
<g id="edge6" class="edge">
<title>Node1&#45;&gt;Node6</title>
<path fill="none" stroke="#63b8ff" d="M353.45,-107.25C344.26,-107.25 334.93,-107.25 325.91,-107.25"/>
<polygon fill="#63b8ff" stroke="#63b8ff" points="353.16,-110.75 363.16,-107.25 353.16,-103.75 353.16,-110.75"/>
</g>
<!-- Node7 -->
<g id="node7" class="node">
<title>Node7</title>
<g id="a_node7"><a xlink:href="classsss_1_1WebClient.html#accb4e986d73bb44149918fa0043ec43b" target="_top" xlink:title="Upload file starting from offset using unbuffered I/O read.">
<polygon fill="white" stroke="#666666" points="325.62,-30.5 190.38,-30.5 190.38,0 325.62,0 325.62,-30.5"/>
<text text-anchor="start" x="198.38" y="-17" font-family="Helvetica,sans-Serif" font-size="10.00">sss::WebClient::UploadFile</text>
<text text-anchor="middle" x="258" y="-5.75" font-family="Helvetica,sans-Serif" font-size="10.00">Unbuffered</text>
</a>
</g>
</g>
<!-- Node1&#45;&gt;Node7 -->
<g id="edge8" class="edge">
<title>Node1&#45;&gt;Node7</title>
<path fill="none" stroke="#63b8ff" d="M409.44,-90.93C389.18,-76.3 357.76,-54.93 328.25,-40.25 321.5,-36.89 314.18,-33.75 306.92,-30.91"/>
<polygon fill="#63b8ff" stroke="#63b8ff" points="407.04,-94.25 417.18,-97.33 411.18,-88.6 407.04,-94.25"/>
</g>
<!-- Node4&#45;&gt;Node3 -->
<g id="edge4" class="edge">
<title>Node4&#45;&gt;Node3</title>
<path fill="none" stroke="#63b8ff" d="M180.66,-82.47C159.63,-87.49 137.58,-92.76 119.24,-97.14"/>
<polygon fill="#63b8ff" stroke="#63b8ff" points="181.29,-85.68 190.21,-79.96 179.67,-78.87 181.29,-85.68"/>
</g>
<!-- Node5 -->
<g id="node5" class="node">
<title>Node5</title>
<g id="a_node5"><a xlink:href="classsss_1_1WebClient.html#ab5af9d8e7c424e49fab04f0d9d59b489" target="_top" xlink:title="Upload file starting from offset using unbuffered memory mapping of file.">
<polygon fill="white" stroke="#666666" points="151.75,-73.88 0,-73.88 0,-54.62 151.75,-54.62 151.75,-73.88"/>
<text text-anchor="middle" x="75.88" y="-60.38" font-family="Helvetica,sans-Serif" font-size="10.00">sss::WebClient::UploadFileMM</text>
</a>
</g>
</g>
<!-- Node4&#45;&gt;Node5 -->
<g id="edge5" class="edge">
<title>Node4&#45;&gt;Node5</title>
<path fill="none" stroke="#63b8ff" d="M176.39,-64.25C168.27,-64.25 160.06,-64.25 152.01,-64.25"/>
<polygon fill="#63b8ff" stroke="#63b8ff" points="176.36,-67.75 186.36,-64.25 176.36,-60.75 176.36,-67.75"/>
</g>
<!-- Node6&#45;&gt;Node3 -->
<g id="edge7" class="edge">
<title>Node6&#45;&gt;Node3</title>
<path fill="none" stroke="#63b8ff" d="M179.29,-107.25C162.94,-107.25 146.04,-107.25 130.79,-107.25"/>
<polygon fill="#63b8ff" stroke="#63b8ff" points="178.93,-110.75 188.93,-107.25 178.93,-103.75 178.93,-110.75"/>
</g>
</g>
</svg>
        <g id="navigator" transform="translate(0 0)" fill="#404254">
                <rect fill="#f2f5e9" fill-opacity="0.5" stroke="#606060" stroke-width=".5" x="0" y="0" width="60" height="60"/>
                <use id="zoomplus" xlink:href="#zoomPlus" x="17" y="9" onmousedown="handleZoom(evt,'in')"/>
                <use id="zoomminus" xlink:href="#zoomMin" x="42" y="9" onmousedown="handleZoom(evt,'out')"/>
                <use id="reset" xlink:href="#resetDef" x="30" y="36" onmousedown="handleReset()"/>
                <g id="arrowUp" xlink:href="#dirArrow" transform="translate(30 24)" onmousedown="handlePan(0,-1)">
                  <use xlink:href="#rim" fill="#404040">
                        <set attributeName="fill" to="#808080" begin="arrowUp.mouseover" end="arrowUp.mouseout"/>
                  </use>
                  <path fill="none" stroke="white" stroke-width="1.5" d="M0,-3.0v7 M-2.5,-0.5L0,-3.0L2.5,-0.5"/>
                </g>
                <g id="arrowRight" xlink:href="#dirArrow" transform="rotate(90) translate(36 -43)" onmousedown="handlePan(1,0)">
                  <use xlink:href="#rim" fill="#404040">
                        <set attributeName="fill" to="#808080" begin="arrowRight.mouseover" end="arrowRight.mouseout"/>
                  </use>
                  <path fill="none" stroke="white" stroke-width="1.5" d="M0,-3.0v7 M-2.5,-0.5L0,-3.0L2.5,-0.5"/>
                </g>
                <g id="arrowDown" xlink:href="#dirArrow" transform="rotate(180) translate(-30 -48)" onmousedown="handlePan(0,1)">
                  <use xlink:href="#rim" fill="#404040">
                        <set attributeName="fill" to="#808080" begin="arrowDown.mouseover" end="arrowDown.mouseout"/>
                  </use>
                  <path fill="none" stroke="white" stroke-width="1.5" d="M0,-3.0v7 M-2.5,-0.5L0,-3.0L2.5,-0.5"/>
                </g>
                <g id="arrowLeft" xlink:href="#dirArrow" transform="rotate(270) translate(-36 17)" onmousedown="handlePan(-1,0)">
                  <use xlink:href="#rim" fill="#404040">
                        <set attributeName="fill" to="#808080" begin="arrowLeft.mouseover" end="arrowLeft.mouseout"/>
                  </use>
                  <path fill="none" stroke="white" stroke-width="1.5" d="M0,-3.0v7 M-2.5,-0.5L0,-3.0L2.5,-0.5"/>
                </g>
        </g>
        <svg viewBox="0 0 15 15" width="100%" height="30px" preserveAspectRatio="xMaxYMin meet">
         <g id="arrow_out" transform="scale(0.3 0.3)">
          <a xlink:href="classsss_1_1WebClient_af6233ffd7b294e1e7e606e838dd44e9e_icgraph_org.svg" target="_base">
           <rect id="button" ry="5" rx="5" y="6" x="6" height="38" width="38"
                fill="#f2f5e9" fill-opacity="0.5" stroke="#606060" stroke-width="1.0"/>
           <path id="arrow"
             d="M 11.500037,31.436501 C 11.940474,20.09759 22.043105,11.32322 32.158766,21.979434 L 37.068811,17.246167 C 37.068811,17.246167 37.088388,32 37.088388,32 L 22.160133,31.978069 C 22.160133,31.978069 26.997745,27.140456 26.997745,27.140456 C 18.528582,18.264221 13.291696,25.230495 11.500037,31.436501 z"
             style="fill:#404040;"/>
          </a>
         </g>
        </svg>
</svg>
