<?xml version="1.0" encoding="UTF-8" standalone="no"?>
<!DOCTYPE svg PUBLIC "-//W3C//DTD SVG 1.1//EN"
 "http://www.w3.org/Graphics/SVG/1.1/DTD/svg11.dtd">
<!-- Generated by graphviz version 2.43.0 (0)
 -->
<!-- Title: sss::api::S3Api::GetFileObject Pages: 1 -->
<svg width="874pt" height="446pt"
 viewBox="0.00 0.00 874.00 446.00" xmlns="http://www.w3.org/2000/svg" xmlns:xlink="http://www.w3.org/1999/xlink">
<g id="graph0" class="graph" transform="scale(1 1) rotate(0) translate(4 442)">
<title>sss::api::S3Api::GetFileObject</title>
<!-- Node1 -->
<g id="node1" class="node">
<title>Node1</title>
<g id="a_node1"><a xlink:title="Download object into file.">
<polygon fill="#bfbfbf" stroke="black" points="0,-33 0,-63 121,-63 121,-33 0,-33"/>
<text text-anchor="start" x="8" y="-51" font-family="Helvetica,sans-Serif" font-size="10.00">sss::api::S3Api::GetFile</text>
<text text-anchor="middle" x="60.5" y="-40" font-family="Helvetica,sans-Serif" font-size="10.00">Object</text>
</a>
</g>
</g>
<!-- Node2 -->
<g id="node2" class="node">
<title>Node2</title>
<g id="a_node2"><a xlink:href="classsss_1_1api_1_1S3Api.html#a840772746fbb0a79c161037da7b24a31" target="_top" xlink:title="Configure instance.">
<polygon fill="none" stroke="black" points="157,-228.5 157,-247.5 275,-247.5 275,-228.5 157,-228.5"/>
<text text-anchor="middle" x="216" y="-235.5" font-family="Helvetica,sans-Serif" font-size="10.00">sss::api::S3Api::Config</text>
</a>
</g>
</g>
<!-- Node1&#45;&gt;Node2 -->
<g id="edge1" class="edge">
<title>Node1&#45;&gt;Node2</title>
<path fill="none" stroke="midnightblue" d="M73.8,-63.23C101.99,-98.12 171.11,-183.68 200.93,-220.59"/>
<polygon fill="midnightblue" stroke="midnightblue" points="198.3,-222.9 207.3,-228.47 203.74,-218.5 198.3,-222.9"/>
</g>
<!-- Node8 -->
<g id="node8" class="node">
<title>Node8</title>
<g id="a_node8"><a xlink:href="classsss_1_1WebClient.html#a002876073b3869a9b9a9d709d14f1d7e" target="_top" xlink:title=" ">
<polygon fill="none" stroke="black" points="720,-125 720,-155 847,-155 847,-125 720,-125"/>
<text text-anchor="start" x="728" y="-143" font-family="Helvetica,sans-Serif" font-size="10.00">sss::WebClient::SetWrite</text>
<text text-anchor="middle" x="783.5" y="-132" font-family="Helvetica,sans-Serif" font-size="10.00">Function</text>
</a>
</g>
</g>
<!-- Node1&#45;&gt;Node8 -->
<g id="edge21" class="edge">
<title>Node1&#45;&gt;Node8</title>
<path fill="none" stroke="midnightblue" d="M121.3,-47.74C198.5,-48.13 336.86,-51.27 454,-67 547.08,-79.5 652.79,-105.09 718.57,-122.39"/>
<polygon fill="midnightblue" stroke="midnightblue" points="717.81,-125.81 728.37,-124.99 719.6,-119.05 717.81,-125.81"/>
</g>
<!-- Node18 -->
<g id="node18" class="node">
<title>Node18</title>
<g id="a_node18"><a xlink:href="classsss_1_1WebClient.html#aa1d7484f0e09242ce53b24f9648ce50e" target="_top" xlink:title=" ">
<polygon fill="none" stroke="black" points="160,-0.5 160,-19.5 272,-19.5 272,-0.5 160,-0.5"/>
<text text-anchor="middle" x="216" y="-7.5" font-family="Helvetica,sans-Serif" font-size="10.00">sss::WebClient::Send</text>
</a>
</g>
</g>
<!-- Node1&#45;&gt;Node18 -->
<g id="edge20" class="edge">
<title>Node1&#45;&gt;Node18</title>
<path fill="none" stroke="midnightblue" d="M121.29,-33.2C136.19,-29.51 151.99,-25.6 166.29,-22.06"/>
<polygon fill="midnightblue" stroke="midnightblue" points="167.53,-25.36 176.4,-19.56 165.85,-18.56 167.53,-25.36"/>
</g>
<!-- Node3 -->
<g id="node3" class="node">
<title>Node3</title>
<g id="a_node3"><a xlink:href="classsss_1_1api_1_1S3Api.html#a1a4e05ac14390c7f42feef2c26e22031" target="_top" xlink:title=" ">
<polygon fill="none" stroke="black" points="321.5,-304.5 321.5,-323.5 443.5,-323.5 443.5,-304.5 321.5,-304.5"/>
<text text-anchor="middle" x="382.5" y="-311.5" font-family="Helvetica,sans-Serif" font-size="10.00">sss::api::S3Api::Access</text>
</a>
</g>
</g>
<!-- Node2&#45;&gt;Node3 -->
<g id="edge2" class="edge">
<title>Node2&#45;&gt;Node3</title>
<path fill="none" stroke="midnightblue" d="M232.2,-247.51C250.44,-258.67 282.18,-277.24 311,-290 320.13,-294.04 330.16,-297.82 339.72,-301.14"/>
<polygon fill="midnightblue" stroke="midnightblue" points="338.86,-304.55 349.46,-304.42 341.1,-297.91 338.86,-304.55"/>
</g>
<!-- Node4 -->
<g id="node4" class="node">
<title>Node4</title>
<g id="a_node4"><a xlink:href="classsss_1_1api_1_1S3Api.html#a3718745d3b940462ae9f3b78f773b3a6" target="_top" xlink:title="Clear data and reset read and write functions.">
<polygon fill="none" stroke="black" points="326,-228.5 326,-247.5 439,-247.5 439,-228.5 326,-228.5"/>
<text text-anchor="middle" x="382.5" y="-235.5" font-family="Helvetica,sans-Serif" font-size="10.00">sss::api::S3Api::Clear</text>
</a>
</g>
</g>
<!-- Node2&#45;&gt;Node4 -->
<g id="edge3" class="edge">
<title>Node2&#45;&gt;Node4</title>
<path fill="none" stroke="midnightblue" d="M275.46,-238C288.56,-238 302.54,-238 315.91,-238"/>
<polygon fill="midnightblue" stroke="midnightblue" points="315.98,-241.5 325.98,-238 315.98,-234.5 315.98,-241.5"/>
</g>
<!-- Node9 -->
<g id="node9" class="node">
<title>Node9</title>
<g id="a_node9"><a xlink:href="classsss_1_1WebClient.html#a75890c14fbe4a4bbac61718a4f3c064d" target="_top" xlink:title=" ">
<polygon fill="none" stroke="black" points="507,-323.5 507,-342.5 648,-342.5 648,-323.5 507,-323.5"/>
<text text-anchor="middle" x="577.5" y="-330.5" font-family="Helvetica,sans-Serif" font-size="10.00">sss::WebClient::SetHeaders</text>
</a>
</g>
</g>
<!-- Node2&#45;&gt;Node9 -->
<g id="edge15" class="edge">
<title>Node2&#45;&gt;Node9</title>
<path fill="none" stroke="midnightblue" d="M262.51,-247.53C321.05,-260.03 419.31,-281.91 454,-295 470.93,-301.39 473.01,-307.78 490,-314 497.21,-316.64 504.89,-318.97 512.6,-321.02"/>
<polygon fill="midnightblue" stroke="midnightblue" points="511.78,-324.42 522.33,-323.45 513.48,-317.63 511.78,-324.42"/>
</g>
<!-- Node10 -->
<g id="node10" class="node">
<title>Node10</title>
<g id="a_node10"><a xlink:href="classsss_1_1WebClient.html#a12b5db6b8c667024557ab58059d39994" target="_top" xlink:title=" ">
<polygon fill="none" stroke="black" points="515,-171.5 515,-190.5 640,-190.5 640,-171.5 515,-171.5"/>
<text text-anchor="middle" x="577.5" y="-178.5" font-family="Helvetica,sans-Serif" font-size="10.00">sss::WebClient::SetPath</text>
</a>
</g>
</g>
<!-- Node2&#45;&gt;Node10 -->
<g id="edge17" class="edge">
<title>Node2&#45;&gt;Node10</title>
<path fill="none" stroke="midnightblue" d="M261.37,-228.49C277.02,-225.28 294.76,-221.8 311,-219 376.42,-207.72 451.31,-197.22 504.84,-190.13"/>
<polygon fill="midnightblue" stroke="midnightblue" points="505.46,-193.57 514.91,-188.8 504.54,-186.63 505.46,-193.57"/>
</g>
<!-- Node12 -->
<g id="node12" class="node">
<title>Node12</title>
<g id="a_node12"><a xlink:href="classsss_1_1WebClient.html#a9bf978d95b79728f6d60fc2bdb4fe546" target="_top" xlink:title=" ">
<polygon fill="none" stroke="black" points="491,-133.5 491,-152.5 664,-152.5 664,-133.5 491,-133.5"/>
<text text-anchor="middle" x="577.5" y="-140.5" font-family="Helvetica,sans-Serif" font-size="10.00">sss::WebClient::SetReqParameters</text>
</a>
</g>
</g>
<!-- Node2&#45;&gt;Node12 -->
<g id="edge18" class="edge">
<title>Node2&#45;&gt;Node12</title>
<path fill="none" stroke="midnightblue" d="M233.77,-228.32C252.15,-218.1 282.8,-202.23 311,-193 367.94,-174.36 434.16,-161.88 486.22,-154.04"/>
<polygon fill="midnightblue" stroke="midnightblue" points="487.05,-157.46 496.44,-152.54 486.03,-150.53 487.05,-157.46"/>
</g>
<!-- Node13 -->
<g id="node13" class="node">
<title>Node13</title>
<g id="a_node13"><a xlink:href="classsss_1_1api_1_1S3Api.html#a70f1068d07e1d4c1be164e0cb9328cc0" target="_top" xlink:title=" ">
<polygon fill="none" stroke="black" points="318.5,-114.5 318.5,-133.5 446.5,-133.5 446.5,-114.5 318.5,-114.5"/>
<text text-anchor="middle" x="382.5" y="-121.5" font-family="Helvetica,sans-Serif" font-size="10.00">sss::api::S3Api::Endpoint</text>
</a>
</g>
</g>
<!-- Node2&#45;&gt;Node13 -->
<g id="edge12" class="edge">
<title>Node2&#45;&gt;Node13</title>
<path fill="none" stroke="midnightblue" d="M224.51,-228.44C239.23,-210.3 273.73,-170.64 311,-148 318.07,-143.7 326.01,-140.06 333.94,-137"/>
<polygon fill="midnightblue" stroke="midnightblue" points="335.32,-140.23 343.56,-133.57 332.96,-133.64 335.32,-140.23"/>
</g>
<!-- Node14 -->
<g id="node14" class="node">
<title>Node14</title>
<g id="a_node14"><a xlink:href="classsss_1_1api_1_1S3Api.html#acfffe29254323fb41231787a0afb7edc" target="_top" xlink:title=" ">
<polygon fill="none" stroke="black" points="323.5,-76.5 323.5,-95.5 441.5,-95.5 441.5,-76.5 323.5,-76.5"/>
<text text-anchor="middle" x="382.5" y="-83.5" font-family="Helvetica,sans-Serif" font-size="10.00">sss::api::S3Api::Secret</text>
</a>
</g>
</g>
<!-- Node2&#45;&gt;Node14 -->
<g id="edge13" class="edge">
<title>Node2&#45;&gt;Node14</title>
<path fill="none" stroke="midnightblue" d="M221.05,-228.22C231.78,-203.51 263.47,-138.18 311,-105 313.89,-102.98 316.99,-101.17 320.22,-99.56"/>
<polygon fill="midnightblue" stroke="midnightblue" points="321.79,-102.69 329.57,-95.5 319,-96.27 321.79,-102.69"/>
</g>
<!-- Node15 -->
<g id="node15" class="node">
<title>Node15</title>
<g id="a_node15"><a xlink:href="classsss_1_1WebClient.html#afc3b7a92568fbb1ea447918920ca266e" target="_top" xlink:title="Set endpoint: &lt;proto&gt;://&lt;server&gt;:&lt;port&gt;">
<polygon fill="none" stroke="black" points="311,-418.5 311,-437.5 454,-437.5 454,-418.5 311,-418.5"/>
<text text-anchor="middle" x="382.5" y="-425.5" font-family="Helvetica,sans-Serif" font-size="10.00">sss::WebClient::SetEndpoint</text>
</a>
</g>
</g>
<!-- Node2&#45;&gt;Node15 -->
<g id="edge14" class="edge">
<title>Node2&#45;&gt;Node15</title>
<path fill="none" stroke="midnightblue" d="M219.48,-247.9C227.38,-277.31 254.78,-364.85 311,-409 313.34,-410.83 315.84,-412.49 318.45,-413.99"/>
<polygon fill="midnightblue" stroke="midnightblue" points="317.18,-417.27 327.7,-418.5 320.24,-410.97 317.18,-417.27"/>
</g>
<!-- Node16 -->
<g id="node16" class="node">
<title>Node16</title>
<g id="a_node16"><a xlink:href="classsss_1_1WebClient.html#af6233ffd7b294e1e7e606e838dd44e9e" target="_top" xlink:title=" ">
<polygon fill="none" stroke="black" points="314,-380.5 314,-399.5 451,-399.5 451,-380.5 314,-380.5"/>
<text text-anchor="middle" x="382.5" y="-387.5" font-family="Helvetica,sans-Serif" font-size="10.00">sss::WebClient::SetMethod</text>
</a>
</g>
</g>
<!-- Node2&#45;&gt;Node16 -->
<g id="edge16" class="edge">
<title>Node2&#45;&gt;Node16</title>
<path fill="none" stroke="midnightblue" d="M221.05,-247.78C231.78,-272.49 263.47,-337.82 311,-371 313.89,-373.02 316.99,-374.83 320.22,-376.44"/>
<polygon fill="midnightblue" stroke="midnightblue" points="319,-379.73 329.57,-380.5 321.79,-373.31 319,-379.73"/>
</g>
<!-- Node17 -->
<g id="node17" class="node">
<title>Node17</title>
<g id="a_node17"><a xlink:href="group__Sign.html#ga3ae8e18ef70752b7369fca66c40c526b" target="_top" xlink:title="Sign headers.">
<polygon fill="none" stroke="black" points="335,-342.5 335,-361.5 430,-361.5 430,-342.5 335,-342.5"/>
<text text-anchor="middle" x="382.5" y="-349.5" font-family="Helvetica,sans-Serif" font-size="10.00">sss::SignHeaders</text>
</a>
</g>
</g>
<!-- Node2&#45;&gt;Node17 -->
<g id="edge19" class="edge">
<title>Node2&#45;&gt;Node17</title>
<path fill="none" stroke="midnightblue" d="M223.81,-247.74C237.82,-267.04 271.89,-310.25 311,-333 315.47,-335.6 320.31,-337.86 325.29,-339.81"/>
<polygon fill="midnightblue" stroke="midnightblue" points="324.37,-343.2 334.96,-343.21 326.69,-336.59 324.37,-343.2"/>
</g>
<!-- Node5 -->
<g id="node5" class="node">
<title>Node5</title>
<g id="a_node5"><a xlink:href="classsss_1_1WebClient.html#a381f5715b7a2f19a0d4414d278874bae" target="_top" xlink:title="Clear internal buffers.">
<polygon fill="none" stroke="black" points="505.5,-285.5 505.5,-304.5 649.5,-304.5 649.5,-285.5 505.5,-285.5"/>
<text text-anchor="middle" x="577.5" y="-292.5" font-family="Helvetica,sans-Serif" font-size="10.00">sss::WebClient::ClearBuffers</text>
</a>
</g>
</g>
<!-- Node4&#45;&gt;Node5 -->
<g id="edge4" class="edge">
<title>Node4&#45;&gt;Node5</title>
<path fill="none" stroke="midnightblue" d="M412.41,-247.53C425.2,-251.83 440.39,-257.04 454,-262 470.13,-267.88 473.57,-271.03 490,-276 498.65,-278.61 507.88,-281.03 516.98,-283.2"/>
<polygon fill="midnightblue" stroke="midnightblue" points="516.23,-286.62 526.76,-285.45 517.8,-279.8 516.23,-286.62"/>
</g>
<!-- Node6 -->
<g id="node6" class="node">
<title>Node6</title>
<g id="a_node6"><a xlink:href="classsss_1_1WebClient.html#a96837f149bb473853a6523d096a25c56" target="_top" xlink:title="Reset read/write functions to default.">
<polygon fill="none" stroke="black" points="490,-247.5 490,-266.5 665,-266.5 665,-247.5 490,-247.5"/>
<text text-anchor="middle" x="577.5" y="-254.5" font-family="Helvetica,sans-Serif" font-size="10.00">sss::WebClient::ResetRWFunctions</text>
</a>
</g>
</g>
<!-- Node4&#45;&gt;Node6 -->
<g id="edge5" class="edge">
<title>Node4&#45;&gt;Node6</title>
<path fill="none" stroke="midnightblue" d="M439.06,-243.47C451.79,-244.72 465.68,-246.09 479.58,-247.46"/>
<polygon fill="midnightblue" stroke="midnightblue" points="479.39,-250.96 489.69,-248.45 480.08,-243.99 479.39,-250.96"/>
</g>
<!-- Node4&#45;&gt;Node9 -->
<g id="edge8" class="edge">
<title>Node4&#45;&gt;Node9</title>
<path fill="none" stroke="midnightblue" d="M425.94,-247.6C435.76,-251.09 445.75,-255.77 454,-262 476.43,-278.94 466.65,-298.34 490,-314 492.96,-315.99 496.1,-317.77 499.35,-319.37"/>
<polygon fill="midnightblue" stroke="midnightblue" points="498.22,-322.69 508.79,-323.41 500.97,-316.26 498.22,-322.69"/>
</g>
<!-- Node4&#45;&gt;Node10 -->
<g id="edge9" class="edge">
<title>Node4&#45;&gt;Node10</title>
<path fill="none" stroke="midnightblue" d="M412.41,-228.47C425.2,-224.17 440.39,-218.96 454,-214 470.13,-208.12 473.57,-204.97 490,-200 498.65,-197.39 507.88,-194.97 516.98,-192.8"/>
<polygon fill="midnightblue" stroke="midnightblue" points="517.8,-196.2 526.76,-190.55 516.23,-189.38 517.8,-196.2"/>
</g>
<!-- Node11 -->
<g id="node11" class="node">
<title>Node11</title>
<g id="a_node11"><a xlink:href="classsss_1_1WebClient.html#a51ce0ecf6487b6a43072643fe4f4cb4e" target="_top" xlink:title=" ">
<polygon fill="none" stroke="black" points="504.5,-209.5 504.5,-228.5 650.5,-228.5 650.5,-209.5 504.5,-209.5"/>
<text text-anchor="middle" x="577.5" y="-216.5" font-family="Helvetica,sans-Serif" font-size="10.00">sss::WebClient::SetPostData</text>
</a>
</g>
</g>
<!-- Node4&#45;&gt;Node11 -->
<g id="edge10" class="edge">
<title>Node4&#45;&gt;Node11</title>
<path fill="none" stroke="midnightblue" d="M439.06,-232.53C456.34,-230.83 475.76,-228.92 494.44,-227.08"/>
<polygon fill="midnightblue" stroke="midnightblue" points="494.82,-230.56 504.43,-226.1 494.13,-223.59 494.82,-230.56"/>
</g>
<!-- Node4&#45;&gt;Node12 -->
<g id="edge11" class="edge">
<title>Node4&#45;&gt;Node12</title>
<path fill="none" stroke="midnightblue" d="M393.79,-228.43C411.83,-212.2 450.97,-179.34 490,-162 495.72,-159.46 501.8,-157.25 507.99,-155.32"/>
<polygon fill="midnightblue" stroke="midnightblue" points="509.12,-158.64 517.77,-152.53 507.2,-151.91 509.12,-158.64"/>
</g>
<!-- Node7 -->
<g id="node7" class="node">
<title>Node7</title>
<g id="a_node7"><a xlink:href="classsss_1_1WebClient.html#a88dbcc61562e84aa9ebf1eabf887ac28" target="_top" xlink:title=" ">
<polygon fill="none" stroke="black" points="701,-247.5 701,-266.5 866,-266.5 866,-247.5 701,-247.5"/>
<text text-anchor="middle" x="783.5" y="-254.5" font-family="Helvetica,sans-Serif" font-size="10.00">sss::WebClient::SetReadFunction</text>
</a>
</g>
</g>
<!-- Node6&#45;&gt;Node7 -->
<g id="edge6" class="edge">
<title>Node6&#45;&gt;Node7</title>
<path fill="none" stroke="midnightblue" d="M665.01,-257C673.43,-257 681.99,-257 690.46,-257"/>
<polygon fill="midnightblue" stroke="midnightblue" points="690.72,-260.5 700.72,-257 690.72,-253.5 690.72,-260.5"/>
</g>
<!-- Node6&#45;&gt;Node8 -->
<g id="edge7" class="edge">
<title>Node6&#45;&gt;Node8</title>
<path fill="none" stroke="midnightblue" d="M639.78,-247.4C648.48,-244.94 657.13,-241.86 665,-238 703.41,-219.18 739.98,-185.26 761.84,-162.69"/>
<polygon fill="midnightblue" stroke="midnightblue" points="764.58,-164.88 768.93,-155.22 759.51,-160.06 764.58,-164.88"/>
</g>
</g>
</svg>
