<?xml version="1.0" encoding="UTF-8" standalone="no"?>
<!DOCTYPE svg PUBLIC "-//W3C//DTD SVG 1.1//EN"
 "http://www.w3.org/Graphics/SVG/1.1/DTD/svg11.dtd">
<!-- Generated by graphviz version 2.43.0 (0)
 -->
<!-- Title: sss::WebClient::Send Pages: 1 -->
<!--zoomable 557 -->
<svg id="main" version="1.1" xmlns="http://www.w3.org/2000/svg" xmlns:xlink="http://www.w3.org/1999/xlink" xml:space="preserve" onload="init(evt)">
<style type="text/css"><![CDATA[
.edge:hover path { stroke: red; }
.edge:hover polygon { stroke: red; fill: red; }
]]></style>
<script type="text/javascript"><![CDATA[
var edges = document.getElementsByTagName('g');
if (edges && edges.length) {
  for (var i=0;i<edges.length;i++) {
    if (edges[i].id.substr(0,4)=='edge') {
      edges[i].setAttribute('class','edge');
    }
  }
}
]]></script>
        <defs>
                <circle id="rim" cx="0" cy="0" r="7"/>
                <circle id="rim2" cx="0" cy="0" r="3.5"/>
                <g id="zoomPlus">
                        <use xlink:href="#rim" fill="#404040">
                                <set attributeName="fill" to="#808080" begin="zoomplus.mouseover" end="zoomplus.mouseout"/>
                        </use>
                        <path d="M-4,0h8M0,-4v8" fill="none" stroke="white" stroke-width="1.5" pointer-events="none"/>
                </g>
                <g id="zoomMin">
                        <use xlink:href="#rim" fill="#404040">
                                <set attributeName="fill" to="#808080" begin="zoomminus.mouseover" end="zoomminus.mouseout"/>
                        </use>
                        <path d="M-4,0h8" fill="none" stroke="white" stroke-width="1.5" pointer-events="none"/>
                </g>
                <g id="dirArrow">
                        <path fill="none" stroke="white" stroke-width="1.5" d="M0,-3.0v7 M-2.5,-0.5L0,-3.0L2.5,-0.5"/>
                </g>
               <g id="resetDef">
                       <use xlink:href="#rim2" fill="#404040">
                               <set attributeName="fill" to="#808080" begin="reset.mouseover" end="reset.mouseout"/>
                       </use>
               </g>
        </defs>

<script type="text/javascript">
var viewWidth = 866;
var viewHeight = 557;
var sectionId = 'dynsection-5';
</script>
<script xlink:href="svgpan.js"/>
<svg id="graph" class="graph">
<g id="viewport">
<title>sss::WebClient::Send</title>
<!-- Node1 -->
<g id="node1" class="node">
<title>Node1</title>
<g id="a_node1"><a xlink:title=" ">
<polygon fill="#bfbfbf" stroke="black" points="746,-206.5 746,-225.5 858,-225.5 858,-206.5 746,-206.5"/>
<text text-anchor="middle" x="802" y="-213.5" font-family="Helvetica,sans-Serif" font-size="10.00">sss::WebClient::Send</text>
</a>
</g>
</g>
<!-- Node2 -->
<g id="node2" class="node">
<title>Node2</title>
<g id="a_node2"><a xlink:href="classsss_1_1api_1_1S3Api.html#a1196f1cb9ce1e5d69336e9b8dbb5d59c" target="_top" xlink:title=" ">
<polygon fill="none" stroke="black" points="579,-289 579,-319 700,-319 700,-289 579,-289"/>
<text text-anchor="start" x="587" y="-307" font-family="Helvetica,sans-Serif" font-size="10.00">sss::api::S3Api::GetFile</text>
<text text-anchor="middle" x="639.5" y="-296" font-family="Helvetica,sans-Serif" font-size="10.00">Object</text>
</a>
</g>
</g>
<!-- Node1&#45;&gt;Node2 -->
<g id="edge1" class="edge">
<title>Node1&#45;&gt;Node2</title>
<path fill="none" stroke="midnightblue" d="M778.91,-231.49C760.84,-243.82 734.39,-261.07 710,-274 700.01,-279.29 688.89,-284.42 678.53,-288.89"/>
<polygon fill="midnightblue" stroke="midnightblue" points="781.29,-234.11 787.54,-225.55 777.32,-228.34 781.29,-234.11"/>
</g>
<!-- Node3 -->
<g id="node3" class="node">
<title>Node3</title>
<g id="a_node3"><a xlink:href="classsss_1_1api_1_1S3Api.html#a02b4f0c95255f151beb72f0a6bdf5889" target="_top" xlink:title=" ">
<polygon fill="none" stroke="black" points="401,-247.5 401,-266.5 513,-266.5 513,-247.5 401,-247.5"/>
<text text-anchor="middle" x="457" y="-254.5" font-family="Helvetica,sans-Serif" font-size="10.00">sss::api::S3Api::Send</text>
</a>
</g>
</g>
<!-- Node1&#45;&gt;Node3 -->
<g id="edge2" class="edge">
<title>Node1&#45;&gt;Node3</title>
<path fill="none" stroke="midnightblue" d="M760.67,-228.4C744.99,-232.76 726.8,-237.24 710,-240 642.93,-251 564.7,-254.91 513.4,-256.29"/>
<polygon fill="midnightblue" stroke="midnightblue" points="761.91,-231.69 770.57,-225.58 759.99,-224.96 761.91,-231.69"/>
</g>
<!-- Node20 -->
<g id="node20" class="node">
<title>Node20</title>
<g id="a_node20"><a xlink:href="classsss_1_1WebClient.html#ae7b1f77bd4ae44585f2d49ea493bdcc5" target="_top" xlink:title="Upload data from memory buffer.">
<polygon fill="none" stroke="black" points="569,-201 569,-231 710,-231 710,-201 569,-201"/>
<text text-anchor="start" x="577" y="-219" font-family="Helvetica,sans-Serif" font-size="10.00">sss::WebClient::UploadData</text>
<text text-anchor="middle" x="639.5" y="-208" font-family="Helvetica,sans-Serif" font-size="10.00">FromBuffer</text>
</a>
</g>
</g>
<!-- Node1&#45;&gt;Node20 -->
<g id="edge19" class="edge">
<title>Node1&#45;&gt;Node20</title>
<path fill="none" stroke="midnightblue" d="M735.61,-216C727.18,-216 718.51,-216 710.01,-216"/>
<polygon fill="midnightblue" stroke="midnightblue" points="735.77,-219.5 745.77,-216 735.76,-212.5 735.77,-219.5"/>
</g>
<!-- Node22 -->
<g id="node22" class="node">
<title>Node22</title>
<g id="a_node22"><a xlink:href="classsss_1_1WebClient.html#ad038e41cfc902f6e49754c52a9a71992" target="_top" xlink:title="Upload file.">
<polygon fill="none" stroke="black" points="571.5,-162.5 571.5,-181.5 707.5,-181.5 707.5,-162.5 571.5,-162.5"/>
<text text-anchor="middle" x="639.5" y="-169.5" font-family="Helvetica,sans-Serif" font-size="10.00">sss::WebClient::UploadFile</text>
</a>
</g>
</g>
<!-- Node1&#45;&gt;Node22 -->
<g id="edge22" class="edge">
<title>Node1&#45;&gt;Node22</title>
<path fill="none" stroke="midnightblue" d="M756.51,-203.77C741.72,-199.7 725.15,-195.15 710,-191 698.78,-187.93 686.54,-184.58 675.5,-181.56"/>
<polygon fill="midnightblue" stroke="midnightblue" points="755.86,-207.22 766.43,-206.49 757.72,-200.47 755.86,-207.22"/>
</g>
<!-- Node23 -->
<g id="node23" class="node">
<title>Node23</title>
<g id="a_node23"><a xlink:href="classsss_1_1WebClient.html#accb4e986d73bb44149918fa0043ec43b" target="_top" xlink:title="Upload file starting from offset using unbuffered I/O read.">
<polygon fill="none" stroke="black" points="571.5,-113 571.5,-143 707.5,-143 707.5,-113 571.5,-113"/>
<text text-anchor="start" x="579.5" y="-131" font-family="Helvetica,sans-Serif" font-size="10.00">sss::WebClient::UploadFile</text>
<text text-anchor="middle" x="639.5" y="-120" font-family="Helvetica,sans-Serif" font-size="10.00">Unbuffered</text>
</a>
</g>
</g>
<!-- Node1&#45;&gt;Node23 -->
<g id="edge23" class="edge">
<title>Node1&#45;&gt;Node23</title>
<path fill="none" stroke="midnightblue" d="M781.34,-200.14C763.53,-186.32 736.13,-166.45 710,-153 702.93,-149.36 695.21,-146.02 687.57,-143.04"/>
<polygon fill="midnightblue" stroke="midnightblue" points="779.25,-202.94 789.27,-206.38 783.58,-197.44 779.25,-202.94"/>
</g>
<!-- Node4 -->
<g id="node4" class="node">
<title>Node4</title>
<g id="a_node4"><a xlink:href="classsss_1_1api_1_1S3Api.html#a4ea265566c3c4335ec01201cdc4410c6" target="_top" xlink:title=" ">
<polygon fill="none" stroke="black" points="192,-518 192,-548 342,-548 342,-518 192,-518"/>
<text text-anchor="start" x="200" y="-536" font-family="Helvetica,sans-Serif" font-size="10.00">sss::api::S3Api::AbortMultipart</text>
<text text-anchor="middle" x="267" y="-525" font-family="Helvetica,sans-Serif" font-size="10.00">Upload</text>
</a>
</g>
</g>
<!-- Node3&#45;&gt;Node4 -->
<g id="edge3" class="edge">
<title>Node3&#45;&gt;Node4</title>
<path fill="none" stroke="midnightblue" d="M452.98,-276.77C444.71,-324.04 417.3,-444.42 345,-509 341.14,-512.45 336.78,-515.41 332.16,-517.94"/>
<polygon fill="midnightblue" stroke="midnightblue" points="456.47,-277.08 454.65,-266.64 449.57,-275.94 456.47,-277.08"/>
</g>
<!-- Node5 -->
<g id="node5" class="node">
<title>Node5</title>
<g id="a_node5"><a xlink:href="classsss_1_1api_1_1S3Api.html#a98f999a216121118dd569c7ef0c28ff3" target="_top" xlink:title=" ">
<polygon fill="none" stroke="black" points="201.5,-469 201.5,-499 332.5,-499 332.5,-469 201.5,-469"/>
<text text-anchor="start" x="209.5" y="-487" font-family="Helvetica,sans-Serif" font-size="10.00">sss::api::S3Api::Complete</text>
<text text-anchor="middle" x="267" y="-476" font-family="Helvetica,sans-Serif" font-size="10.00">MultipartUpload</text>
</a>
</g>
</g>
<!-- Node3&#45;&gt;Node5 -->
<g id="edge4" class="edge">
<title>Node3&#45;&gt;Node5</title>
<path fill="none" stroke="midnightblue" d="M450.62,-276.53C438.57,-316.67 405.59,-408.87 345,-459 340.34,-462.85 335.08,-466.12 329.54,-468.88"/>
<polygon fill="midnightblue" stroke="midnightblue" points="454.06,-277.24 453.47,-266.66 447.33,-275.3 454.06,-277.24"/>
</g>
<!-- Node6 -->
<g id="node6" class="node">
<title>Node6</title>
<g id="a_node6"><a xlink:href="classsss_1_1api_1_1S3Api.html#ad890bd1ecfc978df24b2c3ed641e4081" target="_top" xlink:title=" ">
<polygon fill="none" stroke="black" points="192.5,-430.5 192.5,-449.5 341.5,-449.5 341.5,-430.5 192.5,-430.5"/>
<text text-anchor="middle" x="267" y="-437.5" font-family="Helvetica,sans-Serif" font-size="10.00">sss::api::S3Api::CreateBucket</text>
</a>
</g>
</g>
<!-- Node3&#45;&gt;Node6 -->
<g id="edge5" class="edge">
<title>Node3&#45;&gt;Node6</title>
<path fill="none" stroke="midnightblue" d="M448.63,-275.97C434.22,-310.47 398.93,-383.4 345,-421 339.47,-424.86 333.23,-427.94 326.76,-430.39"/>
<polygon fill="midnightblue" stroke="midnightblue" points="451.93,-277.16 452.43,-266.57 445.44,-274.53 451.93,-277.16"/>
</g>
<!-- Node7 -->
<g id="node7" class="node">
<title>Node7</title>
<g id="a_node7"><a xlink:href="classsss_1_1api_1_1S3Api.html#a1796fafda3d90a4292a611ce1999433b" target="_top" xlink:title=" ">
<polygon fill="none" stroke="black" points="189,-381 189,-411 345,-411 345,-381 189,-381"/>
<text text-anchor="start" x="197" y="-399" font-family="Helvetica,sans-Serif" font-size="10.00">sss::api::S3Api::CreateMultipart</text>
<text text-anchor="middle" x="267" y="-388" font-family="Helvetica,sans-Serif" font-size="10.00">Upload</text>
</a>
</g>
</g>
<!-- Node3&#45;&gt;Node7 -->
<g id="edge6" class="edge">
<title>Node3&#45;&gt;Node7</title>
<path fill="none" stroke="midnightblue" d="M443.03,-275.02C424.16,-300 386.78,-345.02 345,-371 338.91,-374.79 332.2,-378.05 325.34,-380.86"/>
<polygon fill="midnightblue" stroke="midnightblue" points="445.99,-276.91 449.12,-266.79 440.36,-272.74 445.99,-276.91"/>
</g>
<!-- Node8 -->
<g id="node8" class="node">
<title>Node8</title>
<g id="a_node8"><a xlink:href="classsss_1_1api_1_1S3Api.html#a3d63825d1916e4ba3ca13122c7660603" target="_top" xlink:title=" ">
<polygon fill="none" stroke="black" points="192.5,-342.5 192.5,-361.5 341.5,-361.5 341.5,-342.5 192.5,-342.5"/>
<text text-anchor="middle" x="267" y="-349.5" font-family="Helvetica,sans-Serif" font-size="10.00">sss::api::S3Api::DeleteBucket</text>
</a>
</g>
</g>
<!-- Node3&#45;&gt;Node8 -->
<g id="edge7" class="edge">
<title>Node3&#45;&gt;Node8</title>
<path fill="none" stroke="midnightblue" d="M436.98,-273.21C415.83,-290.44 380.03,-317.31 345,-333 336.58,-336.77 327.29,-339.87 318.17,-342.39"/>
<polygon fill="midnightblue" stroke="midnightblue" points="439.38,-275.77 444.84,-266.7 434.91,-270.38 439.38,-275.77"/>
</g>
<!-- Node9 -->
<g id="node9" class="node">
<title>Node9</title>
<g id="a_node9"><a xlink:href="classsss_1_1api_1_1S3Api.html#a14a75f15eb71fbba8639673100768b67" target="_top" xlink:title=" ">
<polygon fill="none" stroke="black" points="194,-304.5 194,-323.5 340,-323.5 340,-304.5 194,-304.5"/>
<text text-anchor="middle" x="267" y="-311.5" font-family="Helvetica,sans-Serif" font-size="10.00">sss::api::S3Api::DeleteObject</text>
</a>
</g>
</g>
<!-- Node3&#45;&gt;Node9 -->
<g id="edge8" class="edge">
<title>Node3&#45;&gt;Node9</title>
<path fill="none" stroke="midnightblue" d="M420.73,-269.96C399.04,-277.71 370.59,-287.48 345,-295 333.64,-298.34 321.22,-301.58 309.74,-304.41"/>
<polygon fill="midnightblue" stroke="midnightblue" points="421.97,-273.24 430.19,-266.56 419.6,-266.65 421.97,-273.24"/>
</g>
<!-- Node10 -->
<g id="node10" class="node">
<title>Node10</title>
<g id="a_node10"><a xlink:href="classsss_1_1api_1_1S3Api.html#a3b53152bf39143843a4033aa4a1b3fa0" target="_top" xlink:title=" ">
<polygon fill="none" stroke="black" points="192,-266.5 192,-285.5 342,-285.5 342,-266.5 192,-266.5"/>
<text text-anchor="middle" x="267" y="-273.5" font-family="Helvetica,sans-Serif" font-size="10.00">sss::api::S3Api::GetBucketAcl</text>
</a>
</g>
</g>
<!-- Node3&#45;&gt;Node10 -->
<g id="edge9" class="edge">
<title>Node3&#45;&gt;Node10</title>
<path fill="none" stroke="midnightblue" d="M390.78,-263.59C375.15,-265.17 358.35,-266.87 342.34,-268.49"/>
<polygon fill="midnightblue" stroke="midnightblue" points="391.27,-267.06 400.86,-262.57 390.56,-260.1 391.27,-267.06"/>
</g>
<!-- Node11 -->
<g id="node11" class="node">
<title>Node11</title>
<g id="a_node11"><a xlink:href="classsss_1_1api_1_1S3Api.html#af61465d92c0a94aa82ae863fc2a776a0" target="_top" xlink:title=" ">
<polygon fill="none" stroke="black" points="200,-228.5 200,-247.5 334,-247.5 334,-228.5 200,-228.5"/>
<text text-anchor="middle" x="267" y="-235.5" font-family="Helvetica,sans-Serif" font-size="10.00">sss::api::S3Api::GetObject</text>
</a>
</g>
</g>
<!-- Node3&#45;&gt;Node11 -->
<g id="edge10" class="edge">
<title>Node3&#45;&gt;Node11</title>
<path fill="none" stroke="midnightblue" d="M390.85,-250.42C372.5,-248.56 352.52,-246.54 334.11,-244.68"/>
<polygon fill="midnightblue" stroke="midnightblue" points="390.56,-253.9 400.86,-251.43 391.27,-246.94 390.56,-253.9"/>
</g>
<!-- Node12 -->
<g id="node12" class="node">
<title>Node12</title>
<g id="a_node12"><a xlink:href="classsss_1_1api_1_1S3Api.html#aa4a2b1cc2c89a52d1aa89e571b785db2" target="_top" xlink:title=" ">
<polygon fill="none" stroke="black" points="195.5,-190.5 195.5,-209.5 338.5,-209.5 338.5,-190.5 195.5,-190.5"/>
<text text-anchor="middle" x="267" y="-197.5" font-family="Helvetica,sans-Serif" font-size="10.00">sss::api::S3Api::HeadBucket</text>
</a>
</g>
</g>
<!-- Node3&#45;&gt;Node12 -->
<g id="edge11" class="edge">
<title>Node3&#45;&gt;Node12</title>
<path fill="none" stroke="midnightblue" d="M409.97,-244.55C400.32,-241.64 390.27,-238.4 381,-235 364.56,-228.97 361.56,-224.67 345,-219 334.58,-215.43 323.15,-212.24 312.37,-209.53"/>
<polygon fill="midnightblue" stroke="midnightblue" points="409.24,-247.98 419.82,-247.44 411.21,-241.27 409.24,-247.98"/>
</g>
<!-- Node13 -->
<g id="node13" class="node">
<title>Node13</title>
<g id="a_node13"><a xlink:href="classsss_1_1api_1_1S3Api.html#abc84a71b9a88b81afaa353ad17a91d22" target="_top" xlink:title=" ">
<polygon fill="none" stroke="black" points="196.5,-152.5 196.5,-171.5 337.5,-171.5 337.5,-152.5 196.5,-152.5"/>
<text text-anchor="middle" x="267" y="-159.5" font-family="Helvetica,sans-Serif" font-size="10.00">sss::api::S3Api::HeadObject</text>
</a>
</g>
</g>
<!-- Node3&#45;&gt;Node13 -->
<g id="edge12" class="edge">
<title>Node3&#45;&gt;Node13</title>
<path fill="none" stroke="midnightblue" d="M395.73,-243.53C390.51,-241.13 385.51,-238.32 381,-235 357.76,-217.91 368.6,-197.58 345,-181 339.48,-177.12 333.25,-174.03 326.79,-171.57"/>
<polygon fill="midnightblue" stroke="midnightblue" points="394.72,-246.9 405.31,-247.4 397.35,-240.41 394.72,-246.9"/>
</g>
<!-- Node16 -->
<g id="node16" class="node">
<title>Node16</title>
<g id="a_node16"><a xlink:href="classsss_1_1api_1_1S3Api.html#a81e30673c06b609a2ee6e6bfd9130ca6" target="_top" xlink:title=" ">
<polygon fill="none" stroke="black" points="196.5,-114.5 196.5,-133.5 337.5,-133.5 337.5,-114.5 196.5,-114.5"/>
<text text-anchor="middle" x="267" y="-121.5" font-family="Helvetica,sans-Serif" font-size="10.00">sss::api::S3Api::ListBuckets</text>
</a>
</g>
</g>
<!-- Node3&#45;&gt;Node16 -->
<g id="edge15" class="edge">
<title>Node3&#45;&gt;Node16</title>
<path fill="none" stroke="midnightblue" d="M392.12,-243C388.12,-240.72 384.36,-238.07 381,-235 348.62,-205.34 378.01,-171.95 345,-143 340.65,-139.19 335.66,-136.11 330.35,-133.64"/>
<polygon fill="midnightblue" stroke="midnightblue" points="390.7,-246.19 401.22,-247.42 393.76,-239.9 390.7,-246.19"/>
</g>
<!-- Node17 -->
<g id="node17" class="node">
<title>Node17</title>
<g id="a_node17"><a xlink:href="classsss_1_1api_1_1S3Api.html#a3f00f611cd210a58ac6e8c0555984433" target="_top" xlink:title=" ">
<polygon fill="none" stroke="black" points="191.5,-76.5 191.5,-95.5 342.5,-95.5 342.5,-76.5 191.5,-76.5"/>
<text text-anchor="middle" x="267" y="-83.5" font-family="Helvetica,sans-Serif" font-size="10.00">sss::api::S3Api::ListObjectsV2</text>
</a>
</g>
</g>
<!-- Node3&#45;&gt;Node17 -->
<g id="edge16" class="edge">
<title>Node3&#45;&gt;Node17</title>
<path fill="none" stroke="midnightblue" d="M391.76,-243.38C387.84,-241.01 384.19,-238.24 381,-235 338.93,-192.29 387.99,-146.79 345,-105 341.05,-101.16 336.46,-98.06 331.51,-95.55"/>
<polygon fill="midnightblue" stroke="midnightblue" points="390.22,-246.52 400.72,-247.94 393.39,-240.28 390.22,-246.52"/>
</g>
<!-- Node18 -->
<g id="node18" class="node">
<title>Node18</title>
<g id="a_node18"><a xlink:href="classsss_1_1api_1_1S3Api.html#a0473917e4d25a4a6fca40d097e4299d6" target="_top" xlink:title=" ">
<polygon fill="none" stroke="black" points="211,-38.5 211,-57.5 323,-57.5 323,-38.5 211,-38.5"/>
<text text-anchor="middle" x="267" y="-45.5" font-family="Helvetica,sans-Serif" font-size="10.00">sss::api::S3Api::Send</text>
</a>
</g>
</g>
<!-- Node3&#45;&gt;Node18 -->
<g id="edge17" class="edge">
<title>Node3&#45;&gt;Node18</title>
<path fill="none" stroke="midnightblue" d="M391.74,-243.71C387.79,-241.27 384.15,-238.39 381,-235 329.05,-179.04 398.16,-121.82 345,-67 338.96,-60.77 331.23,-56.46 323.01,-53.5"/>
<polygon fill="midnightblue" stroke="midnightblue" points="390.3,-246.91 400.79,-248.39 393.51,-240.69 390.3,-246.91"/>
</g>
<!-- Node19 -->
<g id="node19" class="node">
<title>Node19</title>
<g id="a_node19"><a xlink:href="classsss_1_1api_1_1S3Api.html#a23223ee1fb701c55af2d942dbf261ae2" target="_top" xlink:title=" ">
<polygon fill="none" stroke="black" points="197.5,-0.5 197.5,-19.5 336.5,-19.5 336.5,-0.5 197.5,-0.5"/>
<text text-anchor="middle" x="267" y="-7.5" font-family="Helvetica,sans-Serif" font-size="10.00">sss::api::S3Api::TestBucket</text>
</a>
</g>
</g>
<!-- Node3&#45;&gt;Node19 -->
<g id="edge18" class="edge">
<title>Node3&#45;&gt;Node19</title>
<path fill="none" stroke="midnightblue" d="M391.79,-243.97C387.8,-241.47 384.14,-238.51 381,-235 319.07,-165.69 408.42,-96.95 345,-29 341.43,-25.18 337.22,-22.07 332.65,-19.55"/>
<polygon fill="midnightblue" stroke="midnightblue" points="390.48,-247.24 400.97,-248.74 393.7,-241.02 390.48,-247.24"/>
</g>
<!-- Node14 -->
<g id="node14" class="node">
<title>Node14</title>
<g id="a_node14"><a xlink:href="classsss_1_1api_1_1S3Api.html#a872e80e356e8c404a9b0739d95a0af41" target="_top" xlink:title="[WebClient::Config]">
<polygon fill="none" stroke="black" points="0,-171.5 0,-190.5 153,-190.5 153,-171.5 0,-171.5"/>
<text text-anchor="middle" x="76.5" y="-178.5" font-family="Helvetica,sans-Serif" font-size="10.00">sss::api::S3Api::GetObjectSize</text>
</a>
</g>
</g>
<!-- Node13&#45;&gt;Node14 -->
<g id="edge13" class="edge">
<title>Node13&#45;&gt;Node14</title>
<path fill="none" stroke="midnightblue" d="M186.35,-170.03C175.37,-171.14 164.11,-172.27 153.2,-173.37"/>
<polygon fill="midnightblue" stroke="midnightblue" points="186.75,-173.51 196.35,-169.02 186.04,-166.54 186.75,-173.51"/>
</g>
<!-- Node15 -->
<g id="node15" class="node">
<title>Node15</title>
<g id="a_node15"><a xlink:href="classsss_1_1api_1_1S3Api.html#aa3f7a3001bdad58c7b0c04cbd0dc3236" target="_top" xlink:title=" ">
<polygon fill="none" stroke="black" points="8,-133.5 8,-152.5 145,-152.5 145,-133.5 8,-133.5"/>
<text text-anchor="middle" x="76.5" y="-140.5" font-family="Helvetica,sans-Serif" font-size="10.00">sss::api::S3Api::TestObject</text>
</a>
</g>
</g>
<!-- Node13&#45;&gt;Node15 -->
<g id="edge14" class="edge">
<title>Node13&#45;&gt;Node15</title>
<path fill="none" stroke="midnightblue" d="M186.07,-153.94C172.5,-152.58 158.52,-151.17 145.3,-149.83"/>
<polygon fill="midnightblue" stroke="midnightblue" points="186.04,-157.46 196.35,-154.98 186.75,-150.49 186.04,-157.46"/>
</g>
<!-- Node20&#45;&gt;Node3 -->
<g id="edge20" class="edge">
<title>Node20&#45;&gt;Node3</title>
<path fill="none" stroke="midnightblue" d="M562.29,-233.31C540.98,-238.15 518.6,-243.23 500.06,-247.45"/>
<polygon fill="midnightblue" stroke="midnightblue" points="563.34,-236.66 572.31,-231.03 561.79,-229.84 563.34,-236.66"/>
</g>
<!-- Node21 -->
<g id="node21" class="node">
<title>Node21</title>
<g id="a_node21"><a xlink:href="classsss_1_1WebClient.html#ab5af9d8e7c424e49fab04f0d9d59b489" target="_top" xlink:title="Upload file starting from offset using unbuffered memory mapping of file.">
<polygon fill="none" stroke="black" points="381,-206.5 381,-225.5 533,-225.5 533,-206.5 381,-206.5"/>
<text text-anchor="middle" x="457" y="-213.5" font-family="Helvetica,sans-Serif" font-size="10.00">sss::WebClient::UploadFileMM</text>
</a>
</g>
</g>
<!-- Node20&#45;&gt;Node21 -->
<g id="edge21" class="edge">
<title>Node20&#45;&gt;Node21</title>
<path fill="none" stroke="midnightblue" d="M558.71,-216C550.22,-216 541.62,-216 533.19,-216"/>
<polygon fill="midnightblue" stroke="midnightblue" points="558.97,-219.5 568.97,-216 558.97,-212.5 558.97,-219.5"/>
</g>
</g>
</svg>
        <g id="navigator" transform="translate(0 0)" fill="#404254">
                <rect fill="#f2f5e9" fill-opacity="0.5" stroke="#606060" stroke-width=".5" x="0" y="0" width="60" height="60"/>
                <use id="zoomplus" xlink:href="#zoomPlus" x="17" y="9" onmousedown="handleZoom(evt,'in')"/>
                <use id="zoomminus" xlink:href="#zoomMin" x="42" y="9" onmousedown="handleZoom(evt,'out')"/>
                <use id="reset" xlink:href="#resetDef" x="30" y="36" onmousedown="handleReset()"/>
                <g id="arrowUp" xlink:href="#dirArrow" transform="translate(30 24)" onmousedown="handlePan(0,-1)">
                  <use xlink:href="#rim" fill="#404040">
                        <set attributeName="fill" to="#808080" begin="arrowUp.mouseover" end="arrowUp.mouseout"/>
                  </use>
                  <path fill="none" stroke="white" stroke-width="1.5" d="M0,-3.0v7 M-2.5,-0.5L0,-3.0L2.5,-0.5"/>
                </g>
                <g id="arrowRight" xlink:href="#dirArrow" transform="rotate(90) translate(36 -43)" onmousedown="handlePan(1,0)">
                  <use xlink:href="#rim" fill="#404040">
                        <set attributeName="fill" to="#808080" begin="arrowRight.mouseover" end="arrowRight.mouseout"/>
                  </use>
                  <path fill="none" stroke="white" stroke-width="1.5" d="M0,-3.0v7 M-2.5,-0.5L0,-3.0L2.5,-0.5"/>
                </g>
                <g id="arrowDown" xlink:href="#dirArrow" transform="rotate(180) translate(-30 -48)" onmousedown="handlePan(0,1)">
                  <use xlink:href="#rim" fill="#404040">
                        <set attributeName="fill" to="#808080" begin="arrowDown.mouseover" end="arrowDown.mouseout"/>
                  </use>
                  <path fill="none" stroke="white" stroke-width="1.5" d="M0,-3.0v7 M-2.5,-0.5L0,-3.0L2.5,-0.5"/>
                </g>
                <g id="arrowLeft" xlink:href="#dirArrow" transform="rotate(270) translate(-36 17)" onmousedown="handlePan(-1,0)">
                  <use xlink:href="#rim" fill="#404040">
                        <set attributeName="fill" to="#808080" begin="arrowLeft.mouseover" end="arrowLeft.mouseout"/>
                  </use>
                  <path fill="none" stroke="white" stroke-width="1.5" d="M0,-3.0v7 M-2.5,-0.5L0,-3.0L2.5,-0.5"/>
                </g>
        </g>
        <svg viewBox="0 0 15 15" width="100%" height="30px" preserveAspectRatio="xMaxYMin meet">
         <g id="arrow_out" transform="scale(0.3 0.3)">
          <a xlink:href="classsss_1_1WebClient_aa1d7484f0e09242ce53b24f9648ce50e_icgraph_org.svg" target="_base">
           <rect id="button" ry="5" rx="5" y="6" x="6" height="38" width="38"
                fill="#f2f5e9" fill-opacity="0.5" stroke="#606060" stroke-width="1.0"/>
           <path id="arrow"
             d="M 11.500037,31.436501 C 11.940474,20.09759 22.043105,11.32322 32.158766,21.979434 L 37.068811,17.246167 C 37.068811,17.246167 37.088388,32 37.088388,32 L 22.160133,31.978069 C 22.160133,31.978069 26.997745,27.140456 26.997745,27.140456 C 18.528582,18.264221 13.291696,25.230495 11.500037,31.436501 z"
             style="fill:#404040;"/>
          </a>
         </g>
        </svg>
</svg>
