<?xml version="1.0" encoding="UTF-8" standalone="no"?>
<!DOCTYPE svg PUBLIC "-//W3C//DTD SVG 1.1//EN"
 "http://www.w3.org/Graphics/SVG/1.1/DTD/svg11.dtd">
<!-- Generated by graphviz version 2.43.0 (0)
 -->
<!-- Title: sss::WebClient::Send Pages: 1 -->
<svg width="866pt" height="1081pt"
 viewBox="0.00 0.00 866.00 1080.50" xmlns="http://www.w3.org/2000/svg" xmlns:xlink="http://www.w3.org/1999/xlink">
<g id="graph0" class="graph" transform="scale(1 1) rotate(0) translate(4 1076.5)">
<title>sss::WebClient::Send</title>
<!-- Node1 -->
<g id="node1" class="node">
<title>Node1</title>
<g id="a_node1"><a xlink:title=" ">
<polygon fill="#bfbfbf" stroke="black" points="746,-468.5 746,-487.5 858,-487.5 858,-468.5 746,-468.5"/>
<text text-anchor="middle" x="802" y="-475.5" font-family="Helvetica,sans-Serif" font-size="10.00">sss::WebClient::Send</text>
</a>
</g>
</g>
<!-- Node2 -->
<g id="node2" class="node">
<title>Node2</title>
<g id="a_node2"><a xlink:href="classsss_1_1api_1_1S3Api.html#ac2848a787b6656ee031822a1ad698de4" target="_top" xlink:title="Download object into file.">
<polygon fill="none" stroke="black" points="579,-551 579,-581 700,-581 700,-551 579,-551"/>
<text text-anchor="start" x="587" y="-569" font-family="Helvetica,sans-Serif" font-size="10.00">sss::api::S3Api::GetFile</text>
<text text-anchor="middle" x="639.5" y="-558" font-family="Helvetica,sans-Serif" font-size="10.00">Object</text>
</a>
</g>
</g>
<!-- Node1&#45;&gt;Node2 -->
<g id="edge1" class="edge">
<title>Node1&#45;&gt;Node2</title>
<path fill="none" stroke="midnightblue" d="M778.91,-493.49C760.84,-505.82 734.39,-523.07 710,-536 700.01,-541.29 688.89,-546.42 678.53,-550.89"/>
<polygon fill="midnightblue" stroke="midnightblue" points="781.29,-496.11 787.54,-487.55 777.32,-490.34 781.29,-496.11"/>
</g>
<!-- Node3 -->
<g id="node3" class="node">
<title>Node3</title>
<g id="a_node3"><a xlink:href="classsss_1_1api_1_1S3Api.html#a02b4f0c95255f151beb72f0a6bdf5889" target="_top" xlink:title="Send request.">
<polygon fill="none" stroke="black" points="401,-509.5 401,-528.5 513,-528.5 513,-509.5 401,-509.5"/>
<text text-anchor="middle" x="457" y="-516.5" font-family="Helvetica,sans-Serif" font-size="10.00">sss::api::S3Api::Send</text>
</a>
</g>
</g>
<!-- Node1&#45;&gt;Node3 -->
<g id="edge2" class="edge">
<title>Node1&#45;&gt;Node3</title>
<path fill="none" stroke="midnightblue" d="M760.67,-490.4C744.99,-494.76 726.8,-499.24 710,-502 642.93,-513 564.7,-516.91 513.4,-518.29"/>
<polygon fill="midnightblue" stroke="midnightblue" points="761.91,-493.69 770.57,-487.58 759.99,-486.96 761.91,-493.69"/>
</g>
<!-- Node31 -->
<g id="node31" class="node">
<title>Node31</title>
<g id="a_node31"><a xlink:href="classsss_1_1WebClient.html#ae7b1f77bd4ae44585f2d49ea493bdcc5" target="_top" xlink:title="Upload data from memory buffer.">
<polygon fill="none" stroke="black" points="569,-463 569,-493 710,-493 710,-463 569,-463"/>
<text text-anchor="start" x="577" y="-481" font-family="Helvetica,sans-Serif" font-size="10.00">sss::WebClient::UploadData</text>
<text text-anchor="middle" x="639.5" y="-470" font-family="Helvetica,sans-Serif" font-size="10.00">FromBuffer</text>
</a>
</g>
</g>
<!-- Node1&#45;&gt;Node31 -->
<g id="edge30" class="edge">
<title>Node1&#45;&gt;Node31</title>
<path fill="none" stroke="midnightblue" d="M735.61,-478C727.18,-478 718.51,-478 710.01,-478"/>
<polygon fill="midnightblue" stroke="midnightblue" points="735.77,-481.5 745.77,-478 735.76,-474.5 735.77,-481.5"/>
</g>
<!-- Node33 -->
<g id="node33" class="node">
<title>Node33</title>
<g id="a_node33"><a xlink:href="classsss_1_1WebClient.html#ad038e41cfc902f6e49754c52a9a71992" target="_top" xlink:title="Upload file.">
<polygon fill="none" stroke="black" points="571.5,-424.5 571.5,-443.5 707.5,-443.5 707.5,-424.5 571.5,-424.5"/>
<text text-anchor="middle" x="639.5" y="-431.5" font-family="Helvetica,sans-Serif" font-size="10.00">sss::WebClient::UploadFile</text>
</a>
</g>
</g>
<!-- Node1&#45;&gt;Node33 -->
<g id="edge33" class="edge">
<title>Node1&#45;&gt;Node33</title>
<path fill="none" stroke="midnightblue" d="M756.51,-465.77C741.72,-461.7 725.15,-457.15 710,-453 698.78,-449.93 686.54,-446.58 675.5,-443.56"/>
<polygon fill="midnightblue" stroke="midnightblue" points="755.86,-469.22 766.43,-468.49 757.72,-462.47 755.86,-469.22"/>
</g>
<!-- Node34 -->
<g id="node34" class="node">
<title>Node34</title>
<g id="a_node34"><a xlink:href="classsss_1_1WebClient.html#accb4e986d73bb44149918fa0043ec43b" target="_top" xlink:title="Upload file starting from offset using unbuffered I/O read.">
<polygon fill="none" stroke="black" points="571.5,-375 571.5,-405 707.5,-405 707.5,-375 571.5,-375"/>
<text text-anchor="start" x="579.5" y="-393" font-family="Helvetica,sans-Serif" font-size="10.00">sss::WebClient::UploadFile</text>
<text text-anchor="middle" x="639.5" y="-382" font-family="Helvetica,sans-Serif" font-size="10.00">Unbuffered</text>
</a>
</g>
</g>
<!-- Node1&#45;&gt;Node34 -->
<g id="edge34" class="edge">
<title>Node1&#45;&gt;Node34</title>
<path fill="none" stroke="midnightblue" d="M781.34,-462.14C763.53,-448.32 736.13,-428.45 710,-415 702.93,-411.36 695.21,-408.02 687.57,-405.04"/>
<polygon fill="midnightblue" stroke="midnightblue" points="779.25,-464.94 789.27,-468.38 783.58,-459.44 779.25,-464.94"/>
</g>
<!-- Node4 -->
<g id="node4" class="node">
<title>Node4</title>
<g id="a_node4"><a xlink:href="classsss_1_1api_1_1S3Api.html#a4ea265566c3c4335ec01201cdc4410c6" target="_top" xlink:title="Abort multipart upload.">
<polygon fill="none" stroke="black" points="192,-1042 192,-1072 342,-1072 342,-1042 192,-1042"/>
<text text-anchor="start" x="200" y="-1060" font-family="Helvetica,sans-Serif" font-size="10.00">sss::api::S3Api::AbortMultipart</text>
<text text-anchor="middle" x="267" y="-1049" font-family="Helvetica,sans-Serif" font-size="10.00">Upload</text>
</a>
</g>
</g>
<!-- Node3&#45;&gt;Node4 -->
<g id="edge3" class="edge">
<title>Node3&#45;&gt;Node4</title>
<path fill="none" stroke="midnightblue" d="M454.34,-538.95C446.86,-624.32 413.61,-957.96 345,-1033 341.88,-1036.41 338.29,-1039.34 334.39,-1041.86"/>
<polygon fill="midnightblue" stroke="midnightblue" points="457.85,-539.06 455.21,-528.8 450.87,-538.47 457.85,-539.06"/>
</g>
<!-- Node5 -->
<g id="node5" class="node">
<title>Node5</title>
<g id="a_node5"><a xlink:href="classsss_1_1api_1_1S3Api.html#a98f999a216121118dd569c7ef0c28ff3" target="_top" xlink:title="Complete multipart upload.">
<polygon fill="none" stroke="black" points="201.5,-993 201.5,-1023 332.5,-1023 332.5,-993 201.5,-993"/>
<text text-anchor="start" x="209.5" y="-1011" font-family="Helvetica,sans-Serif" font-size="10.00">sss::api::S3Api::Complete</text>
<text text-anchor="middle" x="267" y="-1000" font-family="Helvetica,sans-Serif" font-size="10.00">MultipartUpload</text>
</a>
</g>
</g>
<!-- Node3&#45;&gt;Node5 -->
<g id="edge4" class="edge">
<title>Node3&#45;&gt;Node5</title>
<path fill="none" stroke="midnightblue" d="M453.84,-538.74C444.75,-618.48 407.14,-915.73 345,-983 341.38,-986.92 337.13,-990.23 332.53,-993.02"/>
<polygon fill="midnightblue" stroke="midnightblue" points="457.34,-538.94 454.98,-528.61 450.38,-538.16 457.34,-538.94"/>
</g>
<!-- Node6 -->
<g id="node6" class="node">
<title>Node6</title>
<g id="a_node6"><a xlink:href="classsss_1_1api_1_1S3Api.html#abea2ccea14a042c7c0d4b2ce5266ea5f" target="_top" xlink:title="Create bucket.">
<polygon fill="none" stroke="black" points="192.5,-954.5 192.5,-973.5 341.5,-973.5 341.5,-954.5 192.5,-954.5"/>
<text text-anchor="middle" x="267" y="-961.5" font-family="Helvetica,sans-Serif" font-size="10.00">sss::api::S3Api::CreateBucket</text>
</a>
</g>
</g>
<!-- Node3&#45;&gt;Node6 -->
<g id="edge5" class="edge">
<title>Node3&#45;&gt;Node6</title>
<path fill="none" stroke="midnightblue" d="M453.54,-538.69C443.7,-614.47 404.76,-886.02 345,-945 341.18,-948.77 336.73,-951.84 331.95,-954.32"/>
<polygon fill="midnightblue" stroke="midnightblue" points="457.03,-538.98 454.83,-528.62 450.09,-538.1 457.03,-538.98"/>
</g>
<!-- Node7 -->
<g id="node7" class="node">
<title>Node7</title>
<g id="a_node7"><a xlink:href="classsss_1_1api_1_1S3Api.html#a1796fafda3d90a4292a611ce1999433b" target="_top" xlink:title="Create multipart upload.">
<polygon fill="none" stroke="black" points="189,-905 189,-935 345,-935 345,-905 189,-905"/>
<text text-anchor="start" x="197" y="-923" font-family="Helvetica,sans-Serif" font-size="10.00">sss::api::S3Api::CreateMultipart</text>
<text text-anchor="middle" x="267" y="-912" font-family="Helvetica,sans-Serif" font-size="10.00">Upload</text>
</a>
</g>
</g>
<!-- Node3&#45;&gt;Node7 -->
<g id="edge6" class="edge">
<title>Node3&#45;&gt;Node7</title>
<path fill="none" stroke="midnightblue" d="M456.21,-539.06C455.75,-601.03 445.8,-791.45 345,-895 341.27,-898.83 336.96,-902.07 332.31,-904.81"/>
<polygon fill="midnightblue" stroke="midnightblue" points="459.71,-538.74 456.2,-528.74 452.71,-538.74 459.71,-538.74"/>
</g>
<!-- Node8 -->
<g id="node8" class="node">
<title>Node8</title>
<g id="a_node8"><a xlink:href="classsss_1_1api_1_1S3Api.html#a3d63825d1916e4ba3ca13122c7660603" target="_top" xlink:title="Delete bucket.">
<polygon fill="none" stroke="black" points="192.5,-866.5 192.5,-885.5 341.5,-885.5 341.5,-866.5 192.5,-866.5"/>
<text text-anchor="middle" x="267" y="-873.5" font-family="Helvetica,sans-Serif" font-size="10.00">sss::api::S3Api::DeleteBucket</text>
</a>
</g>
</g>
<!-- Node3&#45;&gt;Node8 -->
<g id="edge7" class="edge">
<title>Node3&#45;&gt;Node8</title>
<path fill="none" stroke="midnightblue" d="M455.76,-538.86C453.94,-597.05 440.33,-768.6 345,-857 340.86,-860.84 336.07,-863.93 330.95,-866.43"/>
<polygon fill="midnightblue" stroke="midnightblue" points="459.27,-538.59 455.99,-528.51 452.27,-538.43 459.27,-538.59"/>
</g>
<!-- Node9 -->
<g id="node9" class="node">
<title>Node9</title>
<g id="a_node9"><a xlink:href="classsss_1_1api_1_1S3Api.html#a062a3a07fb8ade39db1e46426ff939d8" target="_top" xlink:title="Remove all tags from bucket.">
<polygon fill="none" stroke="black" points="192.5,-817 192.5,-847 341.5,-847 341.5,-817 192.5,-817"/>
<text text-anchor="start" x="200.5" y="-835" font-family="Helvetica,sans-Serif" font-size="10.00">sss::api::S3Api::DeleteBucket</text>
<text text-anchor="middle" x="267" y="-824" font-family="Helvetica,sans-Serif" font-size="10.00">Tagging</text>
</a>
</g>
</g>
<!-- Node3&#45;&gt;Node9 -->
<g id="edge8" class="edge">
<title>Node3&#45;&gt;Node9</title>
<path fill="none" stroke="midnightblue" d="M454.15,-538.68C448.26,-590.32 425.28,-730.93 345,-807 340.92,-810.87 336.23,-814.14 331.23,-816.9"/>
<polygon fill="midnightblue" stroke="midnightblue" points="457.65,-538.87 455.22,-528.56 450.69,-538.14 457.65,-538.87"/>
</g>
<!-- Node10 -->
<g id="node10" class="node">
<title>Node10</title>
<g id="a_node10"><a xlink:href="classsss_1_1api_1_1S3Api.html#ade1a193696061cfc0e6dff4a6975f8b3" target="_top" xlink:title="Delete object.">
<polygon fill="none" stroke="black" points="194,-778.5 194,-797.5 340,-797.5 340,-778.5 194,-778.5"/>
<text text-anchor="middle" x="267" y="-785.5" font-family="Helvetica,sans-Serif" font-size="10.00">sss::api::S3Api::DeleteObject</text>
</a>
</g>
</g>
<!-- Node3&#45;&gt;Node10 -->
<g id="edge9" class="edge">
<title>Node3&#45;&gt;Node10</title>
<path fill="none" stroke="midnightblue" d="M453.22,-538.6C445.45,-585.91 418.97,-707.02 345,-769 340.36,-772.89 335.03,-776.01 329.4,-778.5"/>
<polygon fill="midnightblue" stroke="midnightblue" points="456.68,-539.13 454.75,-528.71 449.76,-538.06 456.68,-539.13"/>
</g>
<!-- Node11 -->
<g id="node11" class="node">
<title>Node11</title>
<g id="a_node11"><a xlink:href="classsss_1_1api_1_1S3Api.html#a23419050019b63bc5548181344067f01" target="_top" xlink:title="Remove all tags from object.">
<polygon fill="none" stroke="black" points="194,-729 194,-759 340,-759 340,-729 194,-729"/>
<text text-anchor="start" x="202" y="-747" font-family="Helvetica,sans-Serif" font-size="10.00">sss::api::S3Api::DeleteObject</text>
<text text-anchor="middle" x="267" y="-736" font-family="Helvetica,sans-Serif" font-size="10.00">Tagging</text>
</a>
</g>
</g>
<!-- Node3&#45;&gt;Node11 -->
<g id="edge10" class="edge">
<title>Node3&#45;&gt;Node11</title>
<path fill="none" stroke="midnightblue" d="M450.56,-538.34C438.4,-578.08 405.24,-669.38 345,-719 340.34,-722.84 335.06,-726.1 329.52,-728.86"/>
<polygon fill="midnightblue" stroke="midnightblue" points="453.97,-539.15 453.44,-528.57 447.26,-537.17 453.97,-539.15"/>
</g>
<!-- Node12 -->
<g id="node12" class="node">
<title>Node12</title>
<g id="a_node12"><a xlink:href="classsss_1_1api_1_1S3Api.html#a3b53152bf39143843a4033aa4a1b3fa0" target="_top" xlink:title=" ">
<polygon fill="none" stroke="black" points="192,-690.5 192,-709.5 342,-709.5 342,-690.5 192,-690.5"/>
<text text-anchor="middle" x="267" y="-697.5" font-family="Helvetica,sans-Serif" font-size="10.00">sss::api::S3Api::GetBucketAcl</text>
</a>
</g>
</g>
<!-- Node3&#45;&gt;Node12 -->
<g id="edge11" class="edge">
<title>Node3&#45;&gt;Node12</title>
<path fill="none" stroke="midnightblue" d="M448.36,-538.22C433.71,-572.5 398.33,-644.04 345,-681 339.45,-684.84 333.21,-687.91 326.74,-690.36"/>
<polygon fill="midnightblue" stroke="midnightblue" points="451.64,-539.44 452.24,-528.86 445.18,-536.76 451.64,-539.44"/>
</g>
<!-- Node13 -->
<g id="node13" class="node">
<title>Node13</title>
<g id="a_node13"><a xlink:href="classsss_1_1api_1_1S3Api.html#afdb9997dfbd29512cbfe8da9f0028cf8" target="_top" xlink:title="Return bucket tags.">
<polygon fill="none" stroke="black" points="199,-641 199,-671 335,-671 335,-641 199,-641"/>
<text text-anchor="start" x="207" y="-659" font-family="Helvetica,sans-Serif" font-size="10.00">sss::api::S3Api::GetBucket</text>
<text text-anchor="middle" x="267" y="-648" font-family="Helvetica,sans-Serif" font-size="10.00">Tagging</text>
</a>
</g>
</g>
<!-- Node3&#45;&gt;Node13 -->
<g id="edge12" class="edge">
<title>Node3&#45;&gt;Node13</title>
<path fill="none" stroke="midnightblue" d="M443.04,-536.92C424.17,-561.76 386.81,-606.47 345,-632 339.38,-635.43 333.23,-638.41 326.94,-640.99"/>
<polygon fill="midnightblue" stroke="midnightblue" points="445.97,-538.85 449.13,-528.74 440.35,-534.67 445.97,-538.85"/>
</g>
<!-- Node14 -->
<g id="node14" class="node">
<title>Node14</title>
<g id="a_node14"><a xlink:href="classsss_1_1api_1_1S3Api.html#a26387e640fa4d3c0715dc48f932ae410" target="_top" xlink:title="Retrieve versioning status.">
<polygon fill="none" stroke="black" points="199,-592 199,-622 335,-622 335,-592 199,-592"/>
<text text-anchor="start" x="207" y="-610" font-family="Helvetica,sans-Serif" font-size="10.00">sss::api::S3Api::GetBucket</text>
<text text-anchor="middle" x="267" y="-599" font-family="Helvetica,sans-Serif" font-size="10.00">Versioning</text>
</a>
</g>
</g>
<!-- Node3&#45;&gt;Node14 -->
<g id="edge13" class="edge">
<title>Node3&#45;&gt;Node14</title>
<path fill="none" stroke="midnightblue" d="M432.79,-534.01C410.82,-547.78 376.58,-568.08 345,-582 336.9,-585.57 328.12,-588.9 319.49,-591.89"/>
<polygon fill="midnightblue" stroke="midnightblue" points="434.84,-536.86 441.42,-528.55 431.1,-530.95 434.84,-536.86"/>
</g>
<!-- Node15 -->
<g id="node15" class="node">
<title>Node15</title>
<g id="a_node15"><a xlink:href="classsss_1_1api_1_1S3Api.html#ae548966dc38f328fc45ee1500f5caf5b" target="_top" xlink:title="Return bucket&#39;s Access Control List.">
<polygon fill="none" stroke="black" points="193,-553.5 193,-572.5 341,-572.5 341,-553.5 193,-553.5"/>
<text text-anchor="middle" x="267" y="-560.5" font-family="Helvetica,sans-Serif" font-size="10.00">sss::api::S3Api::GetObjectAcl</text>
</a>
</g>
</g>
<!-- Node3&#45;&gt;Node15 -->
<g id="edge14" class="edge">
<title>Node3&#45;&gt;Node15</title>
<path fill="none" stroke="midnightblue" d="M405.26,-530.88C374.97,-537.96 337.03,-546.84 308.71,-553.47"/>
<polygon fill="midnightblue" stroke="midnightblue" points="406.27,-534.23 415.21,-528.55 404.67,-527.42 406.27,-534.23"/>
</g>
<!-- Node16 -->
<g id="node16" class="node">
<title>Node16</title>
<g id="a_node16"><a xlink:href="classsss_1_1api_1_1S3Api.html#aceb12e50a72a7b9b3ca460c23671c586" target="_top" xlink:title="Return object tags.">
<polygon fill="none" stroke="black" points="200,-504 200,-534 334,-534 334,-504 200,-504"/>
<text text-anchor="start" x="208" y="-522" font-family="Helvetica,sans-Serif" font-size="10.00">sss::api::S3Api::GetObject</text>
<text text-anchor="middle" x="267" y="-511" font-family="Helvetica,sans-Serif" font-size="10.00">Tagging</text>
</a>
</g>
</g>
<!-- Node3&#45;&gt;Node16 -->
<g id="edge15" class="edge">
<title>Node3&#45;&gt;Node16</title>
<path fill="none" stroke="midnightblue" d="M390.85,-519C372.5,-519 352.52,-519 334.11,-519"/>
<polygon fill="midnightblue" stroke="midnightblue" points="390.86,-522.5 400.86,-519 390.86,-515.5 390.86,-522.5"/>
</g>
<!-- Node17 -->
<g id="node17" class="node">
<title>Node17</title>
<g id="a_node17"><a xlink:href="classsss_1_1api_1_1S3Api.html#aa4a2b1cc2c89a52d1aa89e571b785db2" target="_top" xlink:title=" ">
<polygon fill="none" stroke="black" points="195.5,-465.5 195.5,-484.5 338.5,-484.5 338.5,-465.5 195.5,-465.5"/>
<text text-anchor="middle" x="267" y="-472.5" font-family="Helvetica,sans-Serif" font-size="10.00">sss::api::S3Api::HeadBucket</text>
</a>
</g>
</g>
<!-- Node3&#45;&gt;Node17 -->
<g id="edge16" class="edge">
<title>Node3&#45;&gt;Node17</title>
<path fill="none" stroke="midnightblue" d="M405.26,-507.12C374.97,-500.04 337.03,-491.16 308.71,-484.53"/>
<polygon fill="midnightblue" stroke="midnightblue" points="404.67,-510.58 415.21,-509.45 406.27,-503.77 404.67,-510.58"/>
</g>
<!-- Node18 -->
<g id="node18" class="node">
<title>Node18</title>
<g id="a_node18"><a xlink:href="classsss_1_1api_1_1S3Api.html#a0382afb5f4a42d477af76ea322324ddd" target="_top" xlink:title="Send HeadObject request.">
<polygon fill="none" stroke="black" points="196.5,-427.5 196.5,-446.5 337.5,-446.5 337.5,-427.5 196.5,-427.5"/>
<text text-anchor="middle" x="267" y="-434.5" font-family="Helvetica,sans-Serif" font-size="10.00">sss::api::S3Api::HeadObject</text>
</a>
</g>
</g>
<!-- Node3&#45;&gt;Node18 -->
<g id="edge17" class="edge">
<title>Node3&#45;&gt;Node18</title>
<path fill="none" stroke="midnightblue" d="M398.5,-505.85C392.37,-503.37 386.41,-500.45 381,-497 360.56,-483.96 365.72,-468.59 345,-456 338.65,-452.14 331.55,-449.06 324.3,-446.61"/>
<polygon fill="midnightblue" stroke="midnightblue" points="397.63,-509.26 408.23,-509.38 400.02,-502.68 397.63,-509.26"/>
</g>
<!-- Node21 -->
<g id="node21" class="node">
<title>Node21</title>
<g id="a_node21"><a xlink:href="classsss_1_1api_1_1S3Api.html#a81e30673c06b609a2ee6e6bfd9130ca6" target="_top" xlink:title="List buckets.">
<polygon fill="none" stroke="black" points="196.5,-389.5 196.5,-408.5 337.5,-408.5 337.5,-389.5 196.5,-389.5"/>
<text text-anchor="middle" x="267" y="-396.5" font-family="Helvetica,sans-Serif" font-size="10.00">sss::api::S3Api::ListBuckets</text>
</a>
</g>
</g>
<!-- Node3&#45;&gt;Node21 -->
<g id="edge20" class="edge">
<title>Node3&#45;&gt;Node21</title>
<path fill="none" stroke="midnightblue" d="M393.07,-505.2C388.74,-502.88 384.65,-500.17 381,-497 351.85,-471.72 374.7,-442.64 345,-418 340.34,-414.13 335,-411.03 329.37,-408.55"/>
<polygon fill="midnightblue" stroke="midnightblue" points="391.7,-508.42 402.25,-509.44 394.64,-502.07 391.7,-508.42"/>
</g>
<!-- Node22 -->
<g id="node22" class="node">
<title>Node22</title>
<g id="a_node22"><a xlink:href="classsss_1_1api_1_1S3Api.html#a3f00f611cd210a58ac6e8c0555984433" target="_top" xlink:title="List objects by sending a ListObjectsV2 request.">
<polygon fill="none" stroke="black" points="191.5,-351.5 191.5,-370.5 342.5,-370.5 342.5,-351.5 191.5,-351.5"/>
<text text-anchor="middle" x="267" y="-358.5" font-family="Helvetica,sans-Serif" font-size="10.00">sss::api::S3Api::ListObjectsV2</text>
</a>
</g>
</g>
<!-- Node3&#45;&gt;Node22 -->
<g id="edge21" class="edge">
<title>Node3&#45;&gt;Node22</title>
<path fill="none" stroke="midnightblue" d="M391.86,-505.27C387.92,-502.93 384.24,-500.2 381,-497 342.28,-458.78 384.54,-417.37 345,-380 341,-376.22 336.36,-373.15 331.4,-370.67"/>
<polygon fill="midnightblue" stroke="midnightblue" points="390.35,-508.43 400.86,-509.8 393.5,-502.18 390.35,-508.43"/>
</g>
<!-- Node23 -->
<g id="node23" class="node">
<title>Node23</title>
<g id="a_node23"><a xlink:href="classsss_1_1api_1_1S3Api.html#a9695a76eb84d3e52800d037f1ef391aa" target="_top" xlink:title="Return all versions and delete markers for object.">
<polygon fill="none" stroke="black" points="200,-302 200,-332 334,-332 334,-302 200,-302"/>
<text text-anchor="start" x="208" y="-320" font-family="Helvetica,sans-Serif" font-size="10.00">sss::api::S3Api::ListObject</text>
<text text-anchor="middle" x="267" y="-309" font-family="Helvetica,sans-Serif" font-size="10.00">Versions</text>
</a>
</g>
</g>
<!-- Node3&#45;&gt;Node23 -->
<g id="edge22" class="edge">
<title>Node3&#45;&gt;Node23</title>
<path fill="none" stroke="midnightblue" d="M391.8,-505.65C387.84,-503.22 384.18,-500.36 381,-497 332.44,-445.58 392.82,-394.11 345,-342 341.48,-338.17 337.38,-334.92 332.92,-332.17"/>
<polygon fill="midnightblue" stroke="midnightblue" points="390.39,-508.86 400.88,-510.31 393.58,-502.63 390.39,-508.86"/>
</g>
<!-- Node24 -->
<g id="node24" class="node">
<title>Node24</title>
<g id="a_node24"><a xlink:href="classsss_1_1api_1_1S3Api.html#aa35e9b1cc7661cd9bb0d5f2de6cbbc7d" target="_top" xlink:title="Set Access Control Policy for bucket.">
<polygon fill="none" stroke="black" points="192.5,-263.5 192.5,-282.5 341.5,-282.5 341.5,-263.5 192.5,-263.5"/>
<text text-anchor="middle" x="267" y="-270.5" font-family="Helvetica,sans-Serif" font-size="10.00">sss::api::S3Api::PutBucketAcl</text>
</a>
</g>
</g>
<!-- Node3&#45;&gt;Node24 -->
<g id="edge23" class="edge">
<title>Node3&#45;&gt;Node24</title>
<path fill="none" stroke="midnightblue" d="M391.79,-505.97C387.8,-503.47 384.14,-500.51 381,-497 319.33,-428.05 408.15,-359.6 345,-292 341.43,-288.18 337.22,-285.07 332.64,-282.55"/>
<polygon fill="midnightblue" stroke="midnightblue" points="390.48,-509.23 400.97,-510.73 393.71,-503.02 390.48,-509.23"/>
</g>
<!-- Node25 -->
<g id="node25" class="node">
<title>Node25</title>
<g id="a_node25"><a xlink:href="classsss_1_1api_1_1S3Api.html#ae0b480d21933d41f7ca992ca5abe3091" target="_top" xlink:title="Tag bucket.">
<polygon fill="none" stroke="black" points="199.5,-214 199.5,-244 334.5,-244 334.5,-214 199.5,-214"/>
<text text-anchor="start" x="207.5" y="-232" font-family="Helvetica,sans-Serif" font-size="10.00">sss::api::S3Api::PutBucket</text>
<text text-anchor="middle" x="267" y="-221" font-family="Helvetica,sans-Serif" font-size="10.00">Tagging</text>
</a>
</g>
</g>
<!-- Node3&#45;&gt;Node25 -->
<g id="edge24" class="edge">
<title>Node3&#45;&gt;Node25</title>
<path fill="none" stroke="midnightblue" d="M391.69,-506.06C387.72,-503.54 384.09,-500.55 381,-497 309.32,-414.65 415.5,-337.37 345,-254 341.73,-250.14 337.86,-246.87 333.62,-244.1"/>
<polygon fill="midnightblue" stroke="midnightblue" points="390.35,-509.31 400.83,-510.86 393.6,-503.11 390.35,-509.31"/>
</g>
<!-- Node26 -->
<g id="node26" class="node">
<title>Node26</title>
<g id="a_node26"><a xlink:href="classsss_1_1api_1_1S3Api.html#a11f96e3a1f9487688c824fea1831fe71" target="_top" xlink:title="Enable bucket versioning.">
<polygon fill="none" stroke="black" points="199.5,-165 199.5,-195 334.5,-195 334.5,-165 199.5,-165"/>
<text text-anchor="start" x="207.5" y="-183" font-family="Helvetica,sans-Serif" font-size="10.00">sss::api::S3Api::PutBucket</text>
<text text-anchor="middle" x="267" y="-172" font-family="Helvetica,sans-Serif" font-size="10.00">Versioning</text>
</a>
</g>
</g>
<!-- Node3&#45;&gt;Node26 -->
<g id="edge25" class="edge">
<title>Node3&#45;&gt;Node26</title>
<path fill="none" stroke="midnightblue" d="M391.59,-506.15C387.64,-503.61 384.05,-500.59 381,-497 296.09,-396.98 429.07,-304.73 345,-204 342.04,-200.45 338.56,-197.42 334.75,-194.83"/>
<polygon fill="midnightblue" stroke="midnightblue" points="390.22,-509.38 400.69,-510.97 393.5,-503.2 390.22,-509.38"/>
</g>
<!-- Node27 -->
<g id="node27" class="node">
<title>Node27</title>
<g id="a_node27"><a xlink:href="classsss_1_1api_1_1S3Api.html#a2cc08fb777cfc4d24c40bea1cde967e7" target="_top" xlink:title="Set Access Control Policy.">
<polygon fill="none" stroke="black" points="193.5,-126.5 193.5,-145.5 340.5,-145.5 340.5,-126.5 193.5,-126.5"/>
<text text-anchor="middle" x="267" y="-133.5" font-family="Helvetica,sans-Serif" font-size="10.00">sss::api::S3Api::PutObjectAcl</text>
</a>
</g>
</g>
<!-- Node3&#45;&gt;Node27 -->
<g id="edge26" class="edge">
<title>Node3&#45;&gt;Node27</title>
<path fill="none" stroke="midnightblue" d="M392.04,-506.54C387.91,-503.92 384.15,-500.77 381,-497 283.1,-379.63 445.42,-270.22 345,-155 341.74,-151.26 337.88,-148.2 333.64,-145.7"/>
<polygon fill="midnightblue" stroke="midnightblue" points="390.49,-509.68 400.97,-511.22 393.74,-503.48 390.49,-509.68"/>
</g>
<!-- Node28 -->
<g id="node28" class="node">
<title>Node28</title>
<g id="a_node28"><a xlink:href="classsss_1_1api_1_1S3Api.html#ac098e2619080dde98a75b71af8f66eef" target="_top" xlink:title="Set object tags.">
<polygon fill="none" stroke="black" points="200.5,-77 200.5,-107 333.5,-107 333.5,-77 200.5,-77"/>
<text text-anchor="start" x="208.5" y="-95" font-family="Helvetica,sans-Serif" font-size="10.00">sss::api::S3Api::PutObject</text>
<text text-anchor="middle" x="267" y="-84" font-family="Helvetica,sans-Serif" font-size="10.00">Tagging</text>
</a>
</g>
</g>
<!-- Node3&#45;&gt;Node28 -->
<g id="edge27" class="edge">
<title>Node3&#45;&gt;Node28</title>
<path fill="none" stroke="midnightblue" d="M392,-506.58C387.87,-503.95 384.13,-500.79 381,-497 327.01,-431.58 398.05,-183.19 345,-117 341.84,-113.05 338.04,-109.72 333.85,-106.91"/>
<polygon fill="midnightblue" stroke="midnightblue" points="390.44,-509.71 400.92,-511.26 393.69,-503.52 390.44,-509.71"/>
</g>
<!-- Node29 -->
<g id="node29" class="node">
<title>Node29</title>
<g id="a_node29"><a xlink:href="classsss_1_1api_1_1S3Api.html#a0473917e4d25a4a6fca40d097e4299d6" target="_top" xlink:title=" ">
<polygon fill="none" stroke="black" points="211,-38.5 211,-57.5 323,-57.5 323,-38.5 211,-38.5"/>
<text text-anchor="middle" x="267" y="-45.5" font-family="Helvetica,sans-Serif" font-size="10.00">sss::api::S3Api::Send</text>
</a>
</g>
</g>
<!-- Node3&#45;&gt;Node29 -->
<g id="edge28" class="edge">
<title>Node3&#45;&gt;Node29</title>
<path fill="none" stroke="midnightblue" d="M391.95,-506.62C387.84,-503.98 384.11,-500.81 381,-497 320.37,-422.71 407.23,-139.96 345,-67 339.28,-60.3 331.61,-55.76 323.32,-52.72"/>
<polygon fill="midnightblue" stroke="midnightblue" points="390.38,-509.74 400.86,-511.31 393.64,-503.55 390.38,-509.74"/>
</g>
<!-- Node30 -->
<g id="node30" class="node">
<title>Node30</title>
<g id="a_node30"><a xlink:href="classsss_1_1api_1_1S3Api.html#a23223ee1fb701c55af2d942dbf261ae2" target="_top" xlink:title="Check if bucket exist.">
<polygon fill="none" stroke="black" points="197.5,-0.5 197.5,-19.5 336.5,-19.5 336.5,-0.5 197.5,-0.5"/>
<text text-anchor="middle" x="267" y="-7.5" font-family="Helvetica,sans-Serif" font-size="10.00">sss::api::S3Api::TestBucket</text>
</a>
</g>
</g>
<!-- Node3&#45;&gt;Node30 -->
<g id="edge29" class="edge">
<title>Node3&#45;&gt;Node30</title>
<path fill="none" stroke="midnightblue" d="M391.92,-506.64C387.81,-504 384.09,-500.82 381,-497 315.32,-415.97 412.42,-108.59 345,-29 341.8,-25.22 337.97,-22.12 333.76,-19.6"/>
<polygon fill="midnightblue" stroke="midnightblue" points="390.34,-509.76 400.82,-511.35 393.62,-503.58 390.34,-509.76"/>
</g>
<!-- Node19 -->
<g id="node19" class="node">
<title>Node19</title>
<g id="a_node19"><a xlink:href="classsss_1_1api_1_1S3Api.html#ae6a826615a079564b77bb680b6b75a34" target="_top" xlink:title="Return object size.">
<polygon fill="none" stroke="black" points="0,-446.5 0,-465.5 153,-465.5 153,-446.5 0,-446.5"/>
<text text-anchor="middle" x="76.5" y="-453.5" font-family="Helvetica,sans-Serif" font-size="10.00">sss::api::S3Api::GetObjectSize</text>
</a>
</g>
</g>
<!-- Node18&#45;&gt;Node19 -->
<g id="edge18" class="edge">
<title>Node18&#45;&gt;Node19</title>
<path fill="none" stroke="midnightblue" d="M186.35,-445.03C175.37,-446.14 164.11,-447.27 153.2,-448.37"/>
<polygon fill="midnightblue" stroke="midnightblue" points="186.75,-448.51 196.35,-444.02 186.04,-441.54 186.75,-448.51"/>
</g>
<!-- Node20 -->
<g id="node20" class="node">
<title>Node20</title>
<g id="a_node20"><a xlink:href="classsss_1_1api_1_1S3Api.html#aa3f7a3001bdad58c7b0c04cbd0dc3236" target="_top" xlink:title="Check if key exists.">
<polygon fill="none" stroke="black" points="8,-408.5 8,-427.5 145,-427.5 145,-408.5 8,-408.5"/>
<text text-anchor="middle" x="76.5" y="-415.5" font-family="Helvetica,sans-Serif" font-size="10.00">sss::api::S3Api::TestObject</text>
</a>
</g>
</g>
<!-- Node18&#45;&gt;Node20 -->
<g id="edge19" class="edge">
<title>Node18&#45;&gt;Node20</title>
<path fill="none" stroke="midnightblue" d="M186.07,-428.94C172.5,-427.58 158.52,-426.17 145.3,-424.83"/>
<polygon fill="midnightblue" stroke="midnightblue" points="186.04,-432.46 196.35,-429.98 186.75,-425.49 186.04,-432.46"/>
</g>
<!-- Node31&#45;&gt;Node3 -->
<g id="edge31" class="edge">
<title>Node31&#45;&gt;Node3</title>
<path fill="none" stroke="midnightblue" d="M562.29,-495.31C540.98,-500.15 518.6,-505.23 500.06,-509.45"/>
<polygon fill="midnightblue" stroke="midnightblue" points="563.34,-498.66 572.31,-493.03 561.79,-491.84 563.34,-498.66"/>
</g>
<!-- Node32 -->
<g id="node32" class="node">
<title>Node32</title>
<g id="a_node32"><a xlink:href="classsss_1_1WebClient.html#ab5af9d8e7c424e49fab04f0d9d59b489" target="_top" xlink:title="Upload file starting from offset using unbuffered memory mapping of file.">
<polygon fill="none" stroke="black" points="381,-468.5 381,-487.5 533,-487.5 533,-468.5 381,-468.5"/>
<text text-anchor="middle" x="457" y="-475.5" font-family="Helvetica,sans-Serif" font-size="10.00">sss::WebClient::UploadFileMM</text>
</a>
</g>
</g>
<!-- Node31&#45;&gt;Node32 -->
<g id="edge32" class="edge">
<title>Node31&#45;&gt;Node32</title>
<path fill="none" stroke="midnightblue" d="M558.71,-478C550.22,-478 541.62,-478 533.19,-478"/>
<polygon fill="midnightblue" stroke="midnightblue" points="558.97,-481.5 568.97,-478 558.97,-474.5 558.97,-481.5"/>
</g>
</g>
</svg>
