<?xml version="1.0" encoding="UTF-8" standalone="no"?>
<!DOCTYPE svg PUBLIC "-//W3C//DTD SVG 1.1//EN"
 "http://www.w3.org/Graphics/SVG/1.1/DTD/svg11.dtd">
<!-- Generated by graphviz version 2.43.0 (0)
 -->
<!-- Title: sss::api::S3Api::HeadBucket Pages: 1 -->
<!--zoomable 534 -->
<svg id="main" version="1.1" xmlns="http://www.w3.org/2000/svg" xmlns:xlink="http://www.w3.org/1999/xlink" xml:space="preserve" onload="init(evt)">
<style type="text/css"><![CDATA[
.edge:hover path { stroke: red; }
.edge:hover polygon { stroke: red; fill: red; }
]]></style>
<script type="text/javascript"><![CDATA[
var edges = document.getElementsByTagName('g');
if (edges && edges.length) {
  for (var i=0;i<edges.length;i++) {
    if (edges[i].id.substr(0,4)=='edge') {
      edges[i].setAttribute('class','edge');
    }
  }
}
]]></script>
        <defs>
                <circle id="rim" cx="0" cy="0" r="7"/>
                <circle id="rim2" cx="0" cy="0" r="3.5"/>
                <g id="zoomPlus">
                        <use xlink:href="#rim" fill="#404040">
                                <set attributeName="fill" to="#808080" begin="zoomplus.mouseover" end="zoomplus.mouseout"/>
                        </use>
                        <path d="M-4,0h8M0,-4v8" fill="none" stroke="white" stroke-width="1.5" pointer-events="none"/>
                </g>
                <g id="zoomMin">
                        <use xlink:href="#rim" fill="#404040">
                                <set attributeName="fill" to="#808080" begin="zoomminus.mouseover" end="zoomminus.mouseout"/>
                        </use>
                        <path d="M-4,0h8" fill="none" stroke="white" stroke-width="1.5" pointer-events="none"/>
                </g>
                <g id="dirArrow">
                        <path fill="none" stroke="white" stroke-width="1.5" d="M0,-3.0v7 M-2.5,-0.5L0,-3.0L2.5,-0.5"/>
                </g>
               <g id="resetDef">
                       <use xlink:href="#rim2" fill="#404040">
                               <set attributeName="fill" to="#808080" begin="reset.mouseover" end="reset.mouseout"/>
                       </use>
               </g>
        </defs>

<script type="text/javascript">
var viewWidth = 1144;
var viewHeight = 534;
var sectionId = 'dynsection-19';
</script>
<script xlink:href="svgpan.js"/>
<svg id="graph" class="graph">
<g id="viewport">
<title>sss::api::S3Api::HeadBucket</title>
<!-- Node1 -->
<g id="node1" class="node">
<title>Node1</title>
<g id="a_node1"><a xlink:title=" ">
<polygon fill="#bfbfbf" stroke="black" points="0,-367.5 0,-386.5 143,-386.5 143,-367.5 0,-367.5"/>
<text text-anchor="middle" x="71.5" y="-374.5" font-family="Helvetica,sans-Serif" font-size="10.00">sss::api::S3Api::HeadBucket</text>
</a>
</g>
</g>
<!-- Node2 -->
<g id="node2" class="node">
<title>Node2</title>
<g id="a_node2"><a xlink:href="classsss_1_1WebClient.html#ac9e82fc4b56b142d91f9b104f5266f91" target="_top" xlink:title="Get response body as text.">
<polygon fill="none" stroke="black" points="179,-465.5 179,-484.5 337,-484.5 337,-465.5 179,-465.5"/>
<text text-anchor="middle" x="258" y="-472.5" font-family="Helvetica,sans-Serif" font-size="10.00">sss::WebClient::GetContentText</text>
</a>
</g>
</g>
<!-- Node1&#45;&gt;Node2 -->
<g id="edge1" class="edge">
<title>Node1&#45;&gt;Node2</title>
<path fill="none" stroke="midnightblue" d="M90.53,-386.58C123.04,-403.85 191.68,-440.3 229.88,-460.6"/>
<polygon fill="midnightblue" stroke="midnightblue" points="228.43,-463.79 238.9,-465.39 231.71,-457.6 228.43,-463.79"/>
</g>
<!-- Node4 -->
<g id="node4" class="node">
<title>Node4</title>
<g id="a_node4"><a xlink:href="group__Parsing.html#gaca9233a3e8a097605d9168bf860e93e5" target="_top" xlink:title="Extract and return HTTP headers as key&#45;value pairs.">
<polygon fill="none" stroke="black" points="207.5,-367.5 207.5,-386.5 308.5,-386.5 308.5,-367.5 207.5,-367.5"/>
<text text-anchor="middle" x="258" y="-374.5" font-family="Helvetica,sans-Serif" font-size="10.00">sss::HTTPHeaders</text>
</a>
</g>
</g>
<!-- Node1&#45;&gt;Node4 -->
<g id="edge3" class="edge">
<title>Node1&#45;&gt;Node4</title>
<path fill="none" stroke="midnightblue" d="M143.04,-377C160.82,-377 179.73,-377 196.94,-377"/>
<polygon fill="midnightblue" stroke="midnightblue" points="197.41,-380.5 207.41,-377 197.41,-373.5 197.41,-380.5"/>
</g>
<!-- Node5 -->
<g id="node5" class="node">
<title>Node5</title>
<g id="a_node5"><a xlink:href="classsss_1_1api_1_1S3Api.html#a02b4f0c95255f151beb72f0a6bdf5889" target="_top" xlink:title="Send request.">
<polygon fill="none" stroke="black" points="202,-209.5 202,-228.5 314,-228.5 314,-209.5 202,-209.5"/>
<text text-anchor="middle" x="258" y="-216.5" font-family="Helvetica,sans-Serif" font-size="10.00">sss::api::S3Api::Send</text>
</a>
</g>
</g>
<!-- Node1&#45;&gt;Node5 -->
<g id="edge4" class="edge">
<title>Node1&#45;&gt;Node5</title>
<path fill="none" stroke="midnightblue" d="M83.76,-367.35C114.46,-341.07 199.83,-267.96 238.06,-235.22"/>
<polygon fill="midnightblue" stroke="midnightblue" points="240.56,-237.68 245.88,-228.52 236.01,-232.37 240.56,-237.68"/>
</g>
<!-- Node3 -->
<g id="node3" class="node">
<title>Node3</title>
<g id="a_node3"><a xlink:href="classsss_1_1WebClient.html#a77a4e0190a4f207b969cb63b6ba38ccc" target="_top" xlink:title=" ">
<polygon fill="none" stroke="black" points="373,-506.5 373,-525.5 545,-525.5 545,-506.5 373,-506.5"/>
<text text-anchor="middle" x="459" y="-513.5" font-family="Helvetica,sans-Serif" font-size="10.00">sss::WebClient::GetResponseBody</text>
</a>
</g>
</g>
<!-- Node2&#45;&gt;Node3 -->
<g id="edge2" class="edge">
<title>Node2&#45;&gt;Node3</title>
<path fill="none" stroke="midnightblue" d="M305.15,-484.51C333.94,-490.44 371.17,-498.11 401.68,-504.4"/>
<polygon fill="midnightblue" stroke="midnightblue" points="401.25,-507.88 411.75,-506.47 402.66,-501.03 401.25,-507.88"/>
</g>
<!-- Node6 -->
<g id="node6" class="node">
<title>Node6</title>
<g id="a_node6"><a xlink:href="classsss_1_1api_1_1S3Api.html#a840772746fbb0a79c161037da7b24a31" target="_top" xlink:title="Configure instance.">
<polygon fill="none" stroke="black" points="400,-209.5 400,-228.5 518,-228.5 518,-209.5 400,-209.5"/>
<text text-anchor="middle" x="459" y="-216.5" font-family="Helvetica,sans-Serif" font-size="10.00">sss::api::S3Api::Config</text>
</a>
</g>
</g>
<!-- Node5&#45;&gt;Node6 -->
<g id="edge5" class="edge">
<title>Node5&#45;&gt;Node6</title>
<path fill="none" stroke="midnightblue" d="M314.17,-219C337.62,-219 365.21,-219 389.91,-219"/>
<polygon fill="midnightblue" stroke="midnightblue" points="389.94,-222.5 399.94,-219 389.94,-215.5 389.94,-222.5"/>
</g>
<!-- Node15 -->
<g id="node15" class="node">
<title>Node15</title>
<g id="a_node15"><a xlink:href="classsss_1_1WebClient.html#a51ce0ecf6487b6a43072643fe4f4cb4e" target="_top" xlink:title=" ">
<polygon fill="none" stroke="black" points="774.5,-380.5 774.5,-399.5 920.5,-399.5 920.5,-380.5 774.5,-380.5"/>
<text text-anchor="middle" x="847.5" y="-387.5" font-family="Helvetica,sans-Serif" font-size="10.00">sss::WebClient::SetPostData</text>
</a>
</g>
</g>
<!-- Node5&#45;&gt;Node15 -->
<g id="edge26" class="edge">
<title>Node5&#45;&gt;Node15</title>
<path fill="none" stroke="midnightblue" d="M269.95,-228.53C308.87,-261.69 445.43,-371.99 581,-409 657.01,-429.75 749.55,-414.43 802.88,-401.88"/>
<polygon fill="midnightblue" stroke="midnightblue" points="803.8,-405.26 812.69,-399.5 802.15,-398.46 803.8,-405.26"/>
</g>
<!-- Node22 -->
<g id="node22" class="node">
<title>Node22</title>
<g id="a_node22"><a xlink:href="group__Internal.html#ga2b8b08c2a4994a87377d83ccfa9a6a53" target="_top" xlink:title=" ">
<polygon fill="none" stroke="black" points="410,-32.5 410,-51.5 508,-51.5 508,-32.5 410,-32.5"/>
<text text-anchor="middle" x="459" y="-39.5" font-family="Helvetica,sans-Serif" font-size="10.00">sss::ParseParams</text>
</a>
</g>
</g>
<!-- Node5&#45;&gt;Node22 -->
<g id="edge24" class="edge">
<title>Node5&#45;&gt;Node22</title>
<path fill="none" stroke="midnightblue" d="M263.35,-209.39C276.08,-182.39 315.97,-105.25 373,-66 381.15,-60.39 390.58,-56.09 400.15,-52.78"/>
<polygon fill="midnightblue" stroke="midnightblue" points="401.2,-56.12 409.7,-49.8 399.12,-49.44 401.2,-56.12"/>
</g>
<!-- Node23 -->
<g id="node23" class="node">
<title>Node23</title>
<g id="a_node23"><a xlink:href="classsss_1_1WebClient.html#aa1d7484f0e09242ce53b24f9648ce50e" target="_top" xlink:title=" ">
<polygon fill="none" stroke="black" points="596.5,-0.5 596.5,-19.5 708.5,-19.5 708.5,-0.5 596.5,-0.5"/>
<text text-anchor="middle" x="652.5" y="-7.5" font-family="Helvetica,sans-Serif" font-size="10.00">sss::WebClient::Send</text>
</a>
</g>
</g>
<!-- Node5&#45;&gt;Node23 -->
<g id="edge25" class="edge">
<title>Node5&#45;&gt;Node23</title>
<path fill="none" stroke="midnightblue" d="M265.1,-209.39C280.29,-186.34 322.21,-127.69 373,-99 441.16,-60.49 475.27,-96.6 545,-61 564.07,-51.27 562.16,-39.17 581,-29 585.24,-26.71 589.77,-24.68 594.42,-22.89"/>
<polygon fill="midnightblue" stroke="midnightblue" points="595.77,-26.13 604.06,-19.53 593.47,-19.52 595.77,-26.13"/>
</g>
<!-- Node24 -->
<g id="node24" class="node">
<title>Node24</title>
<g id="a_node24"><a xlink:href="classsss_1_1WebClient.html#a7dfd984b33a29686fb0355b65b620e99" target="_top" xlink:title=" ">
<polygon fill="none" stroke="black" points="381.5,-457 381.5,-487 536.5,-487 536.5,-457 381.5,-457"/>
<text text-anchor="start" x="389.5" y="-475" font-family="Helvetica,sans-Serif" font-size="10.00">sss::WebClient::SetUrlEncoded</text>
<text text-anchor="middle" x="459" y="-464" font-family="Helvetica,sans-Serif" font-size="10.00">PostData</text>
</a>
</g>
</g>
<!-- Node5&#45;&gt;Node24 -->
<g id="edge27" class="edge">
<title>Node5&#45;&gt;Node24</title>
<path fill="none" stroke="midnightblue" d="M264.85,-228.58C278.35,-250.88 312.4,-308.12 337,-358 354.96,-394.43 343.35,-414.24 373,-442 377.07,-445.81 381.65,-449.14 386.53,-452.05"/>
<polygon fill="midnightblue" stroke="midnightblue" points="385.09,-455.26 395.57,-456.85 388.38,-449.07 385.09,-455.26"/>
</g>
<!-- Node26 -->
<g id="node26" class="node">
<title>Node26</title>
<g id="a_node26"><a xlink:href="classsss_1_1WebClient.html#ae7b1f77bd4ae44585f2d49ea493bdcc5" target="_top" xlink:title="Upload data from memory buffer.">
<polygon fill="none" stroke="black" points="388.5,-109 388.5,-139 529.5,-139 529.5,-109 388.5,-109"/>
<text text-anchor="start" x="396.5" y="-127" font-family="Helvetica,sans-Serif" font-size="10.00">sss::WebClient::UploadData</text>
<text text-anchor="middle" x="459" y="-116" font-family="Helvetica,sans-Serif" font-size="10.00">FromBuffer</text>
</a>
</g>
</g>
<!-- Node5&#45;&gt;Node26 -->
<g id="edge29" class="edge">
<title>Node5&#45;&gt;Node26</title>
<path fill="none" stroke="midnightblue" d="M279.18,-209.37C311.42,-193.98 375.2,-163.53 417.22,-143.47"/>
<polygon fill="midnightblue" stroke="midnightblue" points="418.85,-146.57 426.36,-139.1 415.83,-140.25 418.85,-146.57"/>
</g>
<!-- Node7 -->
<g id="node7" class="node">
<title>Node7</title>
<g id="a_node7"><a xlink:href="classsss_1_1api_1_1S3Api.html#a1a4e05ac14390c7f42feef2c26e22031" target="_top" xlink:title=" ">
<polygon fill="none" stroke="black" points="591.5,-304.5 591.5,-323.5 713.5,-323.5 713.5,-304.5 591.5,-304.5"/>
<text text-anchor="middle" x="652.5" y="-311.5" font-family="Helvetica,sans-Serif" font-size="10.00">sss::api::S3Api::Access</text>
</a>
</g>
</g>
<!-- Node6&#45;&gt;Node7 -->
<g id="edge6" class="edge">
<title>Node6&#45;&gt;Node7</title>
<path fill="none" stroke="midnightblue" d="M474.02,-228.5C496.06,-243.14 540.47,-271.44 581,-290 589.99,-294.11 599.89,-297.91 609.37,-301.21"/>
<polygon fill="midnightblue" stroke="midnightblue" points="608.44,-304.59 619.03,-304.47 610.67,-297.96 608.44,-304.59"/>
</g>
<!-- Node8 -->
<g id="node8" class="node">
<title>Node8</title>
<g id="a_node8"><a xlink:href="classsss_1_1api_1_1S3Api.html#a3718745d3b940462ae9f3b78f773b3a6" target="_top" xlink:title="Clear data and reset read and write functions.">
<polygon fill="none" stroke="black" points="596,-228.5 596,-247.5 709,-247.5 709,-228.5 596,-228.5"/>
<text text-anchor="middle" x="652.5" y="-235.5" font-family="Helvetica,sans-Serif" font-size="10.00">sss::api::S3Api::Clear</text>
</a>
</g>
</g>
<!-- Node6&#45;&gt;Node8 -->
<g id="edge7" class="edge">
<title>Node6&#45;&gt;Node8</title>
<path fill="none" stroke="midnightblue" d="M518.24,-224.78C539.52,-226.89 563.73,-229.29 585.63,-231.46"/>
<polygon fill="midnightblue" stroke="midnightblue" points="585.54,-234.97 595.84,-232.48 586.23,-228.01 585.54,-234.97"/>
</g>
<!-- Node13 -->
<g id="node13" class="node">
<title>Node13</title>
<g id="a_node13"><a xlink:href="classsss_1_1WebClient.html#a75890c14fbe4a4bbac61718a4f3c064d" target="_top" xlink:title=" ">
<polygon fill="none" stroke="black" points="777,-285.5 777,-304.5 918,-304.5 918,-285.5 777,-285.5"/>
<text text-anchor="middle" x="847.5" y="-292.5" font-family="Helvetica,sans-Serif" font-size="10.00">sss::WebClient::SetHeaders</text>
</a>
</g>
</g>
<!-- Node6&#45;&gt;Node13 -->
<g id="edge19" class="edge">
<title>Node6&#45;&gt;Node13</title>
<path fill="none" stroke="midnightblue" d="M486.1,-228.55C510.38,-237.11 547.72,-249.44 581,-257 642.75,-271.02 713.81,-280.87 766.87,-287.02"/>
<polygon fill="midnightblue" stroke="midnightblue" points="766.57,-290.51 776.9,-288.16 767.36,-283.55 766.57,-290.51"/>
</g>
<!-- Node14 -->
<g id="node14" class="node">
<title>Node14</title>
<g id="a_node14"><a xlink:href="classsss_1_1WebClient.html#a12b5db6b8c667024557ab58059d39994" target="_top" xlink:title=" ">
<polygon fill="none" stroke="black" points="785,-171.5 785,-190.5 910,-190.5 910,-171.5 785,-171.5"/>
<text text-anchor="middle" x="847.5" y="-178.5" font-family="Helvetica,sans-Serif" font-size="10.00">sss::WebClient::SetPath</text>
</a>
</g>
</g>
<!-- Node6&#45;&gt;Node14 -->
<g id="edge21" class="edge">
<title>Node6&#45;&gt;Node14</title>
<path fill="none" stroke="midnightblue" d="M518.28,-213.27C586.86,-206.53 700.74,-195.33 774.7,-188.06"/>
<polygon fill="midnightblue" stroke="midnightblue" points="775.25,-191.52 784.86,-187.06 774.57,-184.56 775.25,-191.52"/>
</g>
<!-- Node16 -->
<g id="node16" class="node">
<title>Node16</title>
<g id="a_node16"><a xlink:href="classsss_1_1WebClient.html#a9bf978d95b79728f6d60fc2bdb4fe546" target="_top" xlink:title=" ">
<polygon fill="none" stroke="black" points="761,-133.5 761,-152.5 934,-152.5 934,-133.5 761,-133.5"/>
<text text-anchor="middle" x="847.5" y="-140.5" font-family="Helvetica,sans-Serif" font-size="10.00">sss::WebClient::SetReqParameters</text>
</a>
</g>
</g>
<!-- Node6&#45;&gt;Node16 -->
<g id="edge22" class="edge">
<title>Node6&#45;&gt;Node16</title>
<path fill="none" stroke="midnightblue" d="M470.63,-209.33C490.52,-191.96 535.47,-156.11 581,-143 644.56,-124.69 720.29,-126.91 774.57,-132.39"/>
<polygon fill="midnightblue" stroke="midnightblue" points="774.47,-135.9 784.79,-133.49 775.22,-128.94 774.47,-135.9"/>
</g>
<!-- Node17 -->
<g id="node17" class="node">
<title>Node17</title>
<g id="a_node17"><a xlink:href="classsss_1_1api_1_1S3Api.html#a70f1068d07e1d4c1be164e0cb9328cc0" target="_top" xlink:title=" ">
<polygon fill="none" stroke="black" points="588.5,-76.5 588.5,-95.5 716.5,-95.5 716.5,-76.5 588.5,-76.5"/>
<text text-anchor="middle" x="652.5" y="-83.5" font-family="Helvetica,sans-Serif" font-size="10.00">sss::api::S3Api::Endpoint</text>
</a>
</g>
</g>
<!-- Node6&#45;&gt;Node17 -->
<g id="edge16" class="edge">
<title>Node6&#45;&gt;Node17</title>
<path fill="none" stroke="midnightblue" d="M472.49,-209.32C489.41,-196.04 520.34,-171.17 545,-148 561.96,-132.07 561.42,-122.56 581,-110 587.81,-105.63 595.5,-101.97 603.24,-98.92"/>
<polygon fill="midnightblue" stroke="midnightblue" points="604.43,-102.21 612.64,-95.51 602.04,-95.63 604.43,-102.21"/>
</g>
<!-- Node18 -->
<g id="node18" class="node">
<title>Node18</title>
<g id="a_node18"><a xlink:href="classsss_1_1api_1_1S3Api.html#acfffe29254323fb41231787a0afb7edc" target="_top" xlink:title=" ">
<polygon fill="none" stroke="black" points="593.5,-380.5 593.5,-399.5 711.5,-399.5 711.5,-380.5 593.5,-380.5"/>
<text text-anchor="middle" x="652.5" y="-387.5" font-family="Helvetica,sans-Serif" font-size="10.00">sss::api::S3Api::Secret</text>
</a>
</g>
</g>
<!-- Node6&#45;&gt;Node18 -->
<g id="edge17" class="edge">
<title>Node6&#45;&gt;Node18</title>
<path fill="none" stroke="midnightblue" d="M464.78,-228.58C478.71,-255.49 522.07,-332.32 581,-371 584.15,-373.07 587.52,-374.91 591.02,-376.56"/>
<polygon fill="midnightblue" stroke="midnightblue" points="589.93,-379.89 600.51,-380.46 592.59,-373.42 589.93,-379.89"/>
</g>
<!-- Node19 -->
<g id="node19" class="node">
<title>Node19</title>
<g id="a_node19"><a xlink:href="classsss_1_1WebClient.html#afc3b7a92568fbb1ea447918920ca266e" target="_top" xlink:title="Set endpoint: &lt;proto&gt;://&lt;server&gt;:&lt;port&gt;">
<polygon fill="none" stroke="black" points="581,-342.5 581,-361.5 724,-361.5 724,-342.5 581,-342.5"/>
<text text-anchor="middle" x="652.5" y="-349.5" font-family="Helvetica,sans-Serif" font-size="10.00">sss::WebClient::SetEndpoint</text>
</a>
</g>
</g>
<!-- Node6&#45;&gt;Node19 -->
<g id="edge18" class="edge">
<title>Node6&#45;&gt;Node19</title>
<path fill="none" stroke="midnightblue" d="M467.34,-228.61C484.65,-250.57 530.35,-304.71 581,-333 584.97,-335.22 589.2,-337.18 593.56,-338.93"/>
<polygon fill="midnightblue" stroke="midnightblue" points="592.63,-342.31 603.22,-342.41 595,-335.73 592.63,-342.31"/>
</g>
<!-- Node20 -->
<g id="node20" class="node">
<title>Node20</title>
<g id="a_node20"><a xlink:href="classsss_1_1WebClient.html#af6233ffd7b294e1e7e606e838dd44e9e" target="_top" xlink:title=" ">
<polygon fill="none" stroke="black" points="584,-38.5 584,-57.5 721,-57.5 721,-38.5 584,-38.5"/>
<text text-anchor="middle" x="652.5" y="-45.5" font-family="Helvetica,sans-Serif" font-size="10.00">sss::WebClient::SetMethod</text>
</a>
</g>
</g>
<!-- Node6&#45;&gt;Node20 -->
<g id="edge20" class="edge">
<title>Node6&#45;&gt;Node20</title>
<path fill="none" stroke="midnightblue" d="M475.34,-209.4C493.92,-197.11 525.19,-174.24 545,-148 568.73,-116.56 551.07,-92.62 581,-67 582.98,-65.31 585.1,-63.76 587.32,-62.35"/>
<polygon fill="midnightblue" stroke="midnightblue" points="589.12,-65.35 596.31,-57.57 585.83,-59.17 589.12,-65.35"/>
</g>
<!-- Node21 -->
<g id="node21" class="node">
<title>Node21</title>
<g id="a_node21"><a xlink:href="group__Sign.html#ga3ae8e18ef70752b7369fca66c40c526b" target="_top" xlink:title="Sign headers.">
<polygon fill="none" stroke="black" points="605,-152.5 605,-171.5 700,-171.5 700,-152.5 605,-152.5"/>
<text text-anchor="middle" x="652.5" y="-159.5" font-family="Helvetica,sans-Serif" font-size="10.00">sss::SignHeaders</text>
</a>
</g>
</g>
<!-- Node6&#45;&gt;Node21 -->
<g id="edge23" class="edge">
<title>Node6&#45;&gt;Node21</title>
<path fill="none" stroke="midnightblue" d="M492.05,-209.46C524.23,-199.88 573.96,-185.08 609.32,-174.55"/>
<polygon fill="midnightblue" stroke="midnightblue" points="610.76,-177.78 619.34,-171.57 608.76,-171.07 610.76,-177.78"/>
</g>
<!-- Node9 -->
<g id="node9" class="node">
<title>Node9</title>
<g id="a_node9"><a xlink:href="classsss_1_1WebClient.html#a381f5715b7a2f19a0d4414d278874bae" target="_top" xlink:title="Clear internal buffers.">
<polygon fill="none" stroke="black" points="775.5,-209.5 775.5,-228.5 919.5,-228.5 919.5,-209.5 775.5,-209.5"/>
<text text-anchor="middle" x="847.5" y="-216.5" font-family="Helvetica,sans-Serif" font-size="10.00">sss::WebClient::ClearBuffers</text>
</a>
</g>
</g>
<!-- Node8&#45;&gt;Node9 -->
<g id="edge8" class="edge">
<title>Node8&#45;&gt;Node9</title>
<path fill="none" stroke="midnightblue" d="M709.06,-232.53C726.62,-230.8 746.4,-228.85 765.36,-226.99"/>
<polygon fill="midnightblue" stroke="midnightblue" points="765.88,-230.45 775.49,-225.99 765.2,-223.49 765.88,-230.45"/>
</g>
<!-- Node10 -->
<g id="node10" class="node">
<title>Node10</title>
<g id="a_node10"><a xlink:href="classsss_1_1WebClient.html#a96837f149bb473853a6523d096a25c56" target="_top" xlink:title="Reset read/write functions to default.">
<polygon fill="none" stroke="black" points="760,-247.5 760,-266.5 935,-266.5 935,-247.5 760,-247.5"/>
<text text-anchor="middle" x="847.5" y="-254.5" font-family="Helvetica,sans-Serif" font-size="10.00">sss::WebClient::ResetRWFunctions</text>
</a>
</g>
</g>
<!-- Node8&#45;&gt;Node10 -->
<g id="edge9" class="edge">
<title>Node8&#45;&gt;Node10</title>
<path fill="none" stroke="midnightblue" d="M709.06,-243.47C721.79,-244.72 735.68,-246.09 749.58,-247.46"/>
<polygon fill="midnightblue" stroke="midnightblue" points="749.39,-250.96 759.69,-248.45 750.08,-243.99 749.39,-250.96"/>
</g>
<!-- Node8&#45;&gt;Node13 -->
<g id="edge12" class="edge">
<title>Node8&#45;&gt;Node13</title>
<path fill="none" stroke="midnightblue" d="M682.41,-247.53C695.2,-251.83 710.39,-257.04 724,-262 740.13,-267.88 743.57,-271.03 760,-276 768.65,-278.61 777.88,-281.03 786.98,-283.2"/>
<polygon fill="midnightblue" stroke="midnightblue" points="786.23,-286.62 796.76,-285.45 787.8,-279.8 786.23,-286.62"/>
</g>
<!-- Node8&#45;&gt;Node14 -->
<g id="edge13" class="edge">
<title>Node8&#45;&gt;Node14</title>
<path fill="none" stroke="midnightblue" d="M682.41,-228.47C695.2,-224.17 710.39,-218.96 724,-214 740.13,-208.12 743.57,-204.97 760,-200 768.65,-197.39 777.88,-194.97 786.98,-192.8"/>
<polygon fill="midnightblue" stroke="midnightblue" points="787.8,-196.2 796.76,-190.55 786.23,-189.38 787.8,-196.2"/>
</g>
<!-- Node8&#45;&gt;Node15 -->
<g id="edge14" class="edge">
<title>Node8&#45;&gt;Node15</title>
<path fill="none" stroke="midnightblue" d="M665.57,-247.51C697.86,-272.94 786.47,-342.72 826.46,-374.21"/>
<polygon fill="midnightblue" stroke="midnightblue" points="824.41,-377.06 834.43,-380.5 828.74,-371.56 824.41,-377.06"/>
</g>
<!-- Node8&#45;&gt;Node16 -->
<g id="edge15" class="edge">
<title>Node8&#45;&gt;Node16</title>
<path fill="none" stroke="midnightblue" d="M663.79,-228.43C681.83,-212.2 720.97,-179.34 760,-162 765.72,-159.46 771.8,-157.25 777.99,-155.32"/>
<polygon fill="midnightblue" stroke="midnightblue" points="779.12,-158.64 787.77,-152.53 777.2,-151.91 779.12,-158.64"/>
</g>
<!-- Node11 -->
<g id="node11" class="node">
<title>Node11</title>
<g id="a_node11"><a xlink:href="classsss_1_1WebClient.html#a88dbcc61562e84aa9ebf1eabf887ac28" target="_top" xlink:title=" ">
<polygon fill="none" stroke="black" points="971,-269.5 971,-288.5 1136,-288.5 1136,-269.5 971,-269.5"/>
<text text-anchor="middle" x="1053.5" y="-276.5" font-family="Helvetica,sans-Serif" font-size="10.00">sss::WebClient::SetReadFunction</text>
</a>
</g>
</g>
<!-- Node10&#45;&gt;Node11 -->
<g id="edge10" class="edge">
<title>Node10&#45;&gt;Node11</title>
<path fill="none" stroke="midnightblue" d="M935.01,-266.33C943.52,-267.25 952.18,-268.18 960.73,-269.1"/>
<polygon fill="midnightblue" stroke="midnightblue" points="960.4,-272.59 970.72,-270.18 961.15,-265.63 960.4,-272.59"/>
</g>
<!-- Node12 -->
<g id="node12" class="node">
<title>Node12</title>
<g id="a_node12"><a xlink:href="classsss_1_1WebClient.html#a002876073b3869a9b9a9d709d14f1d7e" target="_top" xlink:title=" ">
<polygon fill="none" stroke="black" points="990,-220 990,-250 1117,-250 1117,-220 990,-220"/>
<text text-anchor="start" x="998" y="-238" font-family="Helvetica,sans-Serif" font-size="10.00">sss::WebClient::SetWrite</text>
<text text-anchor="middle" x="1053.5" y="-227" font-family="Helvetica,sans-Serif" font-size="10.00">Function</text>
</a>
</g>
</g>
<!-- Node10&#45;&gt;Node12 -->
<g id="edge11" class="edge">
<title>Node10&#45;&gt;Node12</title>
<path fill="none" stroke="midnightblue" d="M935.01,-247.67C949.87,-246.07 965.17,-244.42 979.63,-242.86"/>
<polygon fill="midnightblue" stroke="midnightblue" points="980.41,-246.29 989.98,-241.74 979.66,-239.33 980.41,-246.29"/>
</g>
<!-- Node25 -->
<g id="node25" class="node">
<title>Node25</title>
<g id="a_node25"><a xlink:href="group__Internal.html#ga6e3db8d156313abef7e2c966df1a3d7c" target="_top" xlink:title=" ">
<polygon fill="none" stroke="black" points="610.5,-462.5 610.5,-481.5 694.5,-481.5 694.5,-462.5 610.5,-462.5"/>
<text text-anchor="middle" x="652.5" y="-469.5" font-family="Helvetica,sans-Serif" font-size="10.00">sss::UrlEncode</text>
</a>
</g>
</g>
<!-- Node24&#45;&gt;Node25 -->
<g id="edge28" class="edge">
<title>Node24&#45;&gt;Node25</title>
<path fill="none" stroke="midnightblue" d="M536.51,-472C557.88,-472 580.59,-472 600.13,-472"/>
<polygon fill="midnightblue" stroke="midnightblue" points="600.33,-475.5 610.33,-472 600.33,-468.5 600.33,-475.5"/>
</g>
<!-- Node26&#45;&gt;Node20 -->
<g id="edge31" class="edge">
<title>Node26&#45;&gt;Node20</title>
<path fill="none" stroke="midnightblue" d="M510.97,-108.85C522.45,-104.67 534.38,-99.69 545,-94 562.63,-84.56 563.02,-75.76 581,-67 585.84,-64.64 591.02,-62.54 596.29,-60.68"/>
<polygon fill="midnightblue" stroke="midnightblue" points="597.39,-64 605.82,-57.58 595.23,-57.34 597.39,-64"/>
</g>
<!-- Node26&#45;&gt;Node23 -->
<g id="edge30" class="edge">
<title>Node26&#45;&gt;Node23</title>
<path fill="none" stroke="midnightblue" d="M520.58,-108.84C529.35,-104.93 537.83,-100.06 545,-94 570.21,-72.67 555,-49.35 581,-29 583.34,-27.17 585.84,-25.51 588.46,-24.02"/>
<polygon fill="midnightblue" stroke="midnightblue" points="590.25,-27.04 597.71,-19.52 587.19,-20.74 590.25,-27.04"/>
</g>
</g>
</svg>
        <g id="navigator" transform="translate(0 0)" fill="#404254">
                <rect fill="#f2f5e9" fill-opacity="0.5" stroke="#606060" stroke-width=".5" x="0" y="0" width="60" height="60"/>
                <use id="zoomplus" xlink:href="#zoomPlus" x="17" y="9" onmousedown="handleZoom(evt,'in')"/>
                <use id="zoomminus" xlink:href="#zoomMin" x="42" y="9" onmousedown="handleZoom(evt,'out')"/>
                <use id="reset" xlink:href="#resetDef" x="30" y="36" onmousedown="handleReset()"/>
                <g id="arrowUp" xlink:href="#dirArrow" transform="translate(30 24)" onmousedown="handlePan(0,-1)">
                  <use xlink:href="#rim" fill="#404040">
                        <set attributeName="fill" to="#808080" begin="arrowUp.mouseover" end="arrowUp.mouseout"/>
                  </use>
                  <path fill="none" stroke="white" stroke-width="1.5" d="M0,-3.0v7 M-2.5,-0.5L0,-3.0L2.5,-0.5"/>
                </g>
                <g id="arrowRight" xlink:href="#dirArrow" transform="rotate(90) translate(36 -43)" onmousedown="handlePan(1,0)">
                  <use xlink:href="#rim" fill="#404040">
                        <set attributeName="fill" to="#808080" begin="arrowRight.mouseover" end="arrowRight.mouseout"/>
                  </use>
                  <path fill="none" stroke="white" stroke-width="1.5" d="M0,-3.0v7 M-2.5,-0.5L0,-3.0L2.5,-0.5"/>
                </g>
                <g id="arrowDown" xlink:href="#dirArrow" transform="rotate(180) translate(-30 -48)" onmousedown="handlePan(0,1)">
                  <use xlink:href="#rim" fill="#404040">
                        <set attributeName="fill" to="#808080" begin="arrowDown.mouseover" end="arrowDown.mouseout"/>
                  </use>
                  <path fill="none" stroke="white" stroke-width="1.5" d="M0,-3.0v7 M-2.5,-0.5L0,-3.0L2.5,-0.5"/>
                </g>
                <g id="arrowLeft" xlink:href="#dirArrow" transform="rotate(270) translate(-36 17)" onmousedown="handlePan(-1,0)">
                  <use xlink:href="#rim" fill="#404040">
                        <set attributeName="fill" to="#808080" begin="arrowLeft.mouseover" end="arrowLeft.mouseout"/>
                  </use>
                  <path fill="none" stroke="white" stroke-width="1.5" d="M0,-3.0v7 M-2.5,-0.5L0,-3.0L2.5,-0.5"/>
                </g>
        </g>
        <svg viewBox="0 0 15 15" width="100%" height="30px" preserveAspectRatio="xMaxYMin meet">
         <g id="arrow_out" transform="scale(0.3 0.3)">
          <a xlink:href="classsss_1_1api_1_1S3Api_aa4a2b1cc2c89a52d1aa89e571b785db2_cgraph_org.svg" target="_base">
           <rect id="button" ry="5" rx="5" y="6" x="6" height="38" width="38"
                fill="#f2f5e9" fill-opacity="0.5" stroke="#606060" stroke-width="1.0"/>
           <path id="arrow"
             d="M 11.500037,31.436501 C 11.940474,20.09759 22.043105,11.32322 32.158766,21.979434 L 37.068811,17.246167 C 37.068811,17.246167 37.088388,32 37.088388,32 L 22.160133,31.978069 C 22.160133,31.978069 26.997745,27.140456 26.997745,27.140456 C 18.528582,18.264221 13.291696,25.230495 11.500037,31.436501 z"
             style="fill:#404040;"/>
          </a>
         </g>
        </svg>
</svg>
