<?xml version="1.0" encoding="UTF-8" standalone="no"?>
<!DOCTYPE svg PUBLIC "-//W3C//DTD SVG 1.1//EN"
 "http://www.w3.org/Graphics/SVG/1.1/DTD/svg11.dtd">
<!-- Generated by graphviz version 2.43.0 (0)
 -->
<!-- Title: sss::WebClient::SetReadFunction Pages: 1 -->
<!--zoomable 671 -->
<svg id="main" version="1.1" xmlns="http://www.w3.org/2000/svg" xmlns:xlink="http://www.w3.org/1999/xlink" xml:space="preserve" onload="init(evt)">
<style type="text/css"><![CDATA[
.edge:hover path { stroke: red; }
.edge:hover polygon { stroke: red; fill: red; }
]]></style>
<script type="text/javascript"><![CDATA[
var edges = document.getElementsByTagName('g');
if (edges && edges.length) {
  for (var i=0;i<edges.length;i++) {
    if (edges[i].id.substr(0,4)=='edge') {
      edges[i].setAttribute('class','edge');
    }
  }
}
]]></script>
        <defs>
                <circle id="rim" cx="0" cy="0" r="7"/>
                <circle id="rim2" cx="0" cy="0" r="3.5"/>
                <g id="zoomPlus">
                        <use xlink:href="#rim" fill="#404040">
                                <set attributeName="fill" to="#808080" begin="zoomplus.mouseover" end="zoomplus.mouseout"/>
                        </use>
                        <path d="M-4,0h8M0,-4v8" fill="none" stroke="white" stroke-width="1.5" pointer-events="none"/>
                </g>
                <g id="zoomMin">
                        <use xlink:href="#rim" fill="#404040">
                                <set attributeName="fill" to="#808080" begin="zoomminus.mouseover" end="zoomminus.mouseout"/>
                        </use>
                        <path d="M-4,0h8" fill="none" stroke="white" stroke-width="1.5" pointer-events="none"/>
                </g>
                <g id="dirArrow">
                        <path fill="none" stroke="white" stroke-width="1.5" d="M0,-3.0v7 M-2.5,-0.5L0,-3.0L2.5,-0.5"/>
                </g>
               <g id="resetDef">
                       <use xlink:href="#rim2" fill="#404040">
                               <set attributeName="fill" to="#808080" begin="reset.mouseover" end="reset.mouseout"/>
                       </use>
               </g>
        </defs>

<script type="text/javascript">
var viewWidth = 1225;
var viewHeight = 671;
var sectionId = 'dynsection-10';
</script>
<script xlink:href="svgpan.js"/>
<svg id="graph" class="graph">
<g id="viewport">
<title>sss::WebClient::SetReadFunction</title>
<!-- Node1 -->
<g id="node1" class="node">
<title>Node1</title>
<g id="a_node1"><a xlink:title=" ">
<polygon fill="#bfbfbf" stroke="black" points="1052,-114.5 1052,-133.5 1217,-133.5 1217,-114.5 1052,-114.5"/>
<text text-anchor="middle" x="1134.5" y="-121.5" font-family="Helvetica,sans-Serif" font-size="10.00">sss::WebClient::SetReadFunction</text>
</a>
</g>
</g>
<!-- Node2 -->
<g id="node2" class="node">
<title>Node2</title>
<g id="a_node2"><a xlink:href="classsss_1_1WebClient.html#a96837f149bb473853a6523d096a25c56" target="_top" xlink:title="Reset read/write functions to default.">
<polygon fill="none" stroke="black" points="841,-199.5 841,-218.5 1016,-218.5 1016,-199.5 841,-199.5"/>
<text text-anchor="middle" x="928.5" y="-206.5" font-family="Helvetica,sans-Serif" font-size="10.00">sss::WebClient::ResetRWFunctions</text>
</a>
</g>
</g>
<!-- Node1&#45;&gt;Node2 -->
<g id="edge1" class="edge">
<title>Node1&#45;&gt;Node2</title>
<path fill="none" stroke="midnightblue" d="M1101.12,-137.49C1059.62,-154.78 988.74,-184.32 952.42,-199.45"/>
<polygon fill="midnightblue" stroke="midnightblue" points="1102.61,-140.66 1110.5,-133.59 1099.92,-134.2 1102.61,-140.66"/>
</g>
<!-- Node25 -->
<g id="node25" class="node">
<title>Node25</title>
<g id="a_node25"><a xlink:href="classsss_1_1api_1_1S3Api.html#a0473917e4d25a4a6fca40d097e4299d6" target="_top" xlink:title=" ">
<polygon fill="none" stroke="black" points="211,-0.5 211,-19.5 323,-19.5 323,-0.5 211,-0.5"/>
<text text-anchor="middle" x="267" y="-7.5" font-family="Helvetica,sans-Serif" font-size="10.00">sss::api::S3Api::Send</text>
</a>
</g>
</g>
<!-- Node1&#45;&gt;Node25 -->
<g id="edge26" class="edge">
<title>Node1&#45;&gt;Node25</title>
<path fill="none" stroke="midnightblue" d="M1041.66,-131.1C963.91,-136.5 849.47,-143 749.5,-143 749.5,-143 749.5,-143 596,-143 473.48,-143 460.75,-69.18 345,-29 334.72,-25.43 323.46,-22.26 312.79,-19.57"/>
<polygon fill="midnightblue" stroke="midnightblue" points="1042.18,-134.57 1051.91,-130.38 1041.69,-127.59 1042.18,-134.57"/>
</g>
<!-- Node27 -->
<g id="node27" class="node">
<title>Node27</title>
<g id="a_node27"><a xlink:href="classsss_1_1WebClient.html#ad038e41cfc902f6e49754c52a9a71992" target="_top" xlink:title="Upload file.">
<polygon fill="none" stroke="black" points="860.5,-95.5 860.5,-114.5 996.5,-114.5 996.5,-95.5 860.5,-95.5"/>
<text text-anchor="middle" x="928.5" y="-102.5" font-family="Helvetica,sans-Serif" font-size="10.00">sss::WebClient::UploadFile</text>
</a>
</g>
</g>
<!-- Node1&#45;&gt;Node27 -->
<g id="edge27" class="edge">
<title>Node1&#45;&gt;Node27</title>
<path fill="none" stroke="midnightblue" d="M1041.61,-115.44C1026.53,-114.04 1011.14,-112.6 996.8,-111.27"/>
<polygon fill="midnightblue" stroke="midnightblue" points="1041.71,-118.97 1051.99,-116.41 1042.36,-112 1041.71,-118.97"/>
</g>
<!-- Node28 -->
<g id="node28" class="node">
<title>Node28</title>
<g id="a_node28"><a xlink:href="classsss_1_1WebClient.html#accb4e986d73bb44149918fa0043ec43b" target="_top" xlink:title="Upload file starting from offset using unbuffered I/O read.">
<polygon fill="none" stroke="black" points="860.5,-46 860.5,-76 996.5,-76 996.5,-46 860.5,-46"/>
<text text-anchor="start" x="868.5" y="-64" font-family="Helvetica,sans-Serif" font-size="10.00">sss::WebClient::UploadFile</text>
<text text-anchor="middle" x="928.5" y="-53" font-family="Helvetica,sans-Serif" font-size="10.00">Unbuffered</text>
</a>
</g>
</g>
<!-- Node1&#45;&gt;Node28 -->
<g id="edge28" class="edge">
<title>Node1&#45;&gt;Node28</title>
<path fill="none" stroke="midnightblue" d="M1094.92,-111.19C1072.04,-103.67 1042.43,-94.09 1016,-86 1005.24,-82.71 993.69,-79.29 982.64,-76.07"/>
<polygon fill="midnightblue" stroke="midnightblue" points="1094.01,-114.57 1104.61,-114.38 1096.2,-107.92 1094.01,-114.57"/>
</g>
<!-- Node3 -->
<g id="node3" class="node">
<title>Node3</title>
<g id="a_node3"><a xlink:href="classsss_1_1api_1_1S3Api.html#a3718745d3b940462ae9f3b78f773b3a6" target="_top" xlink:title="Clear data and reset read and write functions.">
<polygon fill="none" stroke="black" points="692,-228.5 692,-247.5 805,-247.5 805,-228.5 692,-228.5"/>
<text text-anchor="middle" x="748.5" y="-235.5" font-family="Helvetica,sans-Serif" font-size="10.00">sss::api::S3Api::Clear</text>
</a>
</g>
</g>
<!-- Node2&#45;&gt;Node3 -->
<g id="edge2" class="edge">
<title>Node2&#45;&gt;Node3</title>
<path fill="none" stroke="midnightblue" d="M858.48,-220.24C840.83,-223.12 822.08,-226.17 805.2,-228.93"/>
<polygon fill="midnightblue" stroke="midnightblue" points="859.42,-223.64 868.72,-218.58 858.29,-216.73 859.42,-223.64"/>
</g>
<!-- Node4 -->
<g id="node4" class="node">
<title>Node4</title>
<g id="a_node4"><a xlink:href="classsss_1_1api_1_1S3Api.html#a840772746fbb0a79c161037da7b24a31" target="_top" xlink:title="Configure instance.">
<polygon fill="none" stroke="black" points="538,-307.5 538,-326.5 656,-326.5 656,-307.5 538,-307.5"/>
<text text-anchor="middle" x="597" y="-314.5" font-family="Helvetica,sans-Serif" font-size="10.00">sss::api::S3Api::Config</text>
</a>
</g>
</g>
<!-- Node3&#45;&gt;Node4 -->
<g id="edge3" class="edge">
<title>Node3&#45;&gt;Node4</title>
<path fill="none" stroke="midnightblue" d="M720.32,-252.36C690.08,-268.34 642.06,-293.72 616.1,-307.44"/>
<polygon fill="midnightblue" stroke="midnightblue" points="722.26,-255.3 729.47,-247.53 718.99,-249.11 722.26,-255.3"/>
</g>
<!-- Node5 -->
<g id="node5" class="node">
<title>Node5</title>
<g id="a_node5"><a xlink:href="classsss_1_1api_1_1S3Api.html#a1196f1cb9ce1e5d69336e9b8dbb5d59c" target="_top" xlink:title="Download object into file.">
<polygon fill="none" stroke="black" points="381,-373 381,-403 502,-403 502,-373 381,-373"/>
<text text-anchor="start" x="389" y="-391" font-family="Helvetica,sans-Serif" font-size="10.00">sss::api::S3Api::GetFile</text>
<text text-anchor="middle" x="441.5" y="-380" font-family="Helvetica,sans-Serif" font-size="10.00">Object</text>
</a>
</g>
</g>
<!-- Node4&#45;&gt;Node5 -->
<g id="edge4" class="edge">
<title>Node4&#45;&gt;Node5</title>
<path fill="none" stroke="midnightblue" d="M568.76,-331.34C550.14,-340.97 524.8,-353.72 502,-364 495.3,-367.02 488.1,-370.08 481.1,-372.96"/>
<polygon fill="midnightblue" stroke="midnightblue" points="570.58,-334.34 577.84,-326.63 567.35,-328.13 570.58,-334.34"/>
</g>
<!-- Node6 -->
<g id="node6" class="node">
<title>Node6</title>
<g id="a_node6"><a xlink:href="classsss_1_1api_1_1S3Api.html#ab7affe0834f5892b393e731783b7ccac" target="_top" xlink:title="Upload file to object.">
<polygon fill="none" stroke="black" points="381.5,-324 381.5,-354 501.5,-354 501.5,-324 381.5,-324"/>
<text text-anchor="start" x="389.5" y="-342" font-family="Helvetica,sans-Serif" font-size="10.00">sss::api::S3Api::PutFile</text>
<text text-anchor="middle" x="441.5" y="-331" font-family="Helvetica,sans-Serif" font-size="10.00">Object</text>
</a>
</g>
</g>
<!-- Node4&#45;&gt;Node6 -->
<g id="edge5" class="edge">
<title>Node4&#45;&gt;Node6</title>
<path fill="none" stroke="midnightblue" d="M527.82,-326.77C519.09,-328.02 510.2,-329.3 501.63,-330.52"/>
<polygon fill="midnightblue" stroke="midnightblue" points="528.57,-330.2 537.97,-325.32 527.57,-323.27 528.57,-330.2"/>
</g>
<!-- Node7 -->
<g id="node7" class="node">
<title>Node7</title>
<g id="a_node7"><a xlink:href="classsss_1_1api_1_1S3Api.html#a02b4f0c95255f151beb72f0a6bdf5889" target="_top" xlink:title="Send request.">
<polygon fill="none" stroke="black" points="385.5,-285.5 385.5,-304.5 497.5,-304.5 497.5,-285.5 385.5,-285.5"/>
<text text-anchor="middle" x="441.5" y="-292.5" font-family="Helvetica,sans-Serif" font-size="10.00">sss::api::S3Api::Send</text>
</a>
</g>
</g>
<!-- Node4&#45;&gt;Node7 -->
<g id="edge6" class="edge">
<title>Node4&#45;&gt;Node7</title>
<path fill="none" stroke="midnightblue" d="M527.91,-307.24C517.76,-305.79 507.41,-304.3 497.57,-302.89"/>
<polygon fill="midnightblue" stroke="midnightblue" points="527.57,-310.73 537.97,-308.68 528.57,-303.8 527.57,-310.73"/>
</g>
<!-- Node8 -->
<g id="node8" class="node">
<title>Node8</title>
<g id="a_node8"><a xlink:href="classsss_1_1api_1_1S3Api.html#a4ea265566c3c4335ec01201cdc4410c6" target="_top" xlink:title="Abort multipart upload.">
<polygon fill="none" stroke="black" points="192,-632 192,-662 342,-662 342,-632 192,-632"/>
<text text-anchor="start" x="200" y="-650" font-family="Helvetica,sans-Serif" font-size="10.00">sss::api::S3Api::AbortMultipart</text>
<text text-anchor="middle" x="267" y="-639" font-family="Helvetica,sans-Serif" font-size="10.00">Upload</text>
</a>
</g>
</g>
<!-- Node7&#45;&gt;Node8 -->
<g id="edge7" class="edge">
<title>Node7&#45;&gt;Node8</title>
<path fill="none" stroke="midnightblue" d="M384.19,-310.61C383.06,-311.67 381.99,-312.8 381,-314 293.11,-420.74 433.26,-516.57 345,-623 342.14,-626.45 338.79,-629.41 335.12,-631.95"/>
<polygon fill="midnightblue" stroke="midnightblue" points="386.43,-313.31 392.47,-304.61 382.32,-307.64 386.43,-313.31"/>
</g>
<!-- Node9 -->
<g id="node9" class="node">
<title>Node9</title>
<g id="a_node9"><a xlink:href="classsss_1_1api_1_1S3Api.html#a98f999a216121118dd569c7ef0c28ff3" target="_top" xlink:title="Complete multipart upload.">
<polygon fill="none" stroke="black" points="201.5,-583 201.5,-613 332.5,-613 332.5,-583 201.5,-583"/>
<text text-anchor="start" x="209.5" y="-601" font-family="Helvetica,sans-Serif" font-size="10.00">sss::api::S3Api::Complete</text>
<text text-anchor="middle" x="267" y="-590" font-family="Helvetica,sans-Serif" font-size="10.00">MultipartUpload</text>
</a>
</g>
</g>
<!-- Node7&#45;&gt;Node9 -->
<g id="edge8" class="edge">
<title>Node7&#45;&gt;Node9</title>
<path fill="none" stroke="midnightblue" d="M384.3,-310.57C383.13,-311.64 382.03,-312.78 381,-314 306.14,-402.9 419.65,-483.92 345,-573 341.48,-577.2 337.24,-580.7 332.59,-583.62"/>
<polygon fill="midnightblue" stroke="midnightblue" points="386.71,-313.16 392.84,-304.52 382.66,-307.44 386.71,-313.16"/>
</g>
<!-- Node10 -->
<g id="node10" class="node">
<title>Node10</title>
<g id="a_node10"><a xlink:href="classsss_1_1api_1_1S3Api.html#ad890bd1ecfc978df24b2c3ed641e4081" target="_top" xlink:title="Create bucket.">
<polygon fill="none" stroke="black" points="192.5,-544.5 192.5,-563.5 341.5,-563.5 341.5,-544.5 192.5,-544.5"/>
<text text-anchor="middle" x="267" y="-551.5" font-family="Helvetica,sans-Serif" font-size="10.00">sss::api::S3Api::CreateBucket</text>
</a>
</g>
</g>
<!-- Node7&#45;&gt;Node10 -->
<g id="edge9" class="edge">
<title>Node7&#45;&gt;Node10</title>
<path fill="none" stroke="midnightblue" d="M384.69,-310.29C383.38,-311.44 382.14,-312.67 381,-314 316.01,-389.37 412.48,-461.86 345,-535 341.45,-538.85 337.26,-541.97 332.7,-544.5"/>
<polygon fill="midnightblue" stroke="midnightblue" points="386.7,-313.16 392.94,-304.6 382.72,-307.4 386.7,-313.16"/>
</g>
<!-- Node11 -->
<g id="node11" class="node">
<title>Node11</title>
<g id="a_node11"><a xlink:href="classsss_1_1api_1_1S3Api.html#a1796fafda3d90a4292a611ce1999433b" target="_top" xlink:title="Create multipart upload.">
<polygon fill="none" stroke="black" points="189,-495 189,-525 345,-525 345,-495 189,-495"/>
<text text-anchor="start" x="197" y="-513" font-family="Helvetica,sans-Serif" font-size="10.00">sss::api::S3Api::CreateMultipart</text>
<text text-anchor="middle" x="267" y="-502" font-family="Helvetica,sans-Serif" font-size="10.00">Upload</text>
</a>
</g>
</g>
<!-- Node7&#45;&gt;Node11 -->
<g id="edge10" class="edge">
<title>Node7&#45;&gt;Node11</title>
<path fill="none" stroke="midnightblue" d="M384.86,-310.29C383.49,-311.44 382.2,-312.67 381,-314 328.94,-371.64 396.92,-427.24 345,-485 341.52,-488.87 337.44,-492.14 333.01,-494.91"/>
<polygon fill="midnightblue" stroke="midnightblue" points="387.02,-313.05 393.4,-304.6 383.14,-307.23 387.02,-313.05"/>
</g>
<!-- Node12 -->
<g id="node12" class="node">
<title>Node12</title>
<g id="a_node12"><a xlink:href="classsss_1_1api_1_1S3Api.html#a3d63825d1916e4ba3ca13122c7660603" target="_top" xlink:title="Delete bucket.">
<polygon fill="none" stroke="black" points="192.5,-456.5 192.5,-475.5 341.5,-475.5 341.5,-456.5 192.5,-456.5"/>
<text text-anchor="middle" x="267" y="-463.5" font-family="Helvetica,sans-Serif" font-size="10.00">sss::api::S3Api::DeleteBucket</text>
</a>
</g>
</g>
<!-- Node7&#45;&gt;Node12 -->
<g id="edge11" class="edge">
<title>Node7&#45;&gt;Node12</title>
<path fill="none" stroke="midnightblue" d="M385.44,-310C383.86,-311.23 382.38,-312.56 381,-314 338.68,-358.26 388.78,-404.19 345,-447 341.06,-450.85 336.47,-453.96 331.54,-456.47"/>
<polygon fill="midnightblue" stroke="midnightblue" points="387.32,-312.95 393.91,-304.65 383.58,-307.03 387.32,-312.95"/>
</g>
<!-- Node13 -->
<g id="node13" class="node">
<title>Node13</title>
<g id="a_node13"><a xlink:href="classsss_1_1api_1_1S3Api.html#a14a75f15eb71fbba8639673100768b67" target="_top" xlink:title="Delete object.">
<polygon fill="none" stroke="black" points="194,-418.5 194,-437.5 340,-437.5 340,-418.5 194,-418.5"/>
<text text-anchor="middle" x="267" y="-425.5" font-family="Helvetica,sans-Serif" font-size="10.00">sss::api::S3Api::DeleteObject</text>
</a>
</g>
</g>
<!-- Node7&#45;&gt;Node13 -->
<g id="edge12" class="edge">
<title>Node7&#45;&gt;Node13</title>
<path fill="none" stroke="midnightblue" d="M386.35,-309.65C384.46,-310.98 382.66,-312.42 381,-314 348.24,-345.07 378.79,-379.05 345,-409 340.67,-412.84 335.69,-415.92 330.39,-418.41"/>
<polygon fill="midnightblue" stroke="midnightblue" points="388.24,-312.6 395.16,-304.58 384.75,-306.53 388.24,-312.6"/>
</g>
<!-- Node14 -->
<g id="node14" class="node">
<title>Node14</title>
<g id="a_node14"><a xlink:href="classsss_1_1api_1_1S3Api.html#a3b53152bf39143843a4033aa4a1b3fa0" target="_top" xlink:title=" ">
<polygon fill="none" stroke="black" points="192,-380.5 192,-399.5 342,-399.5 342,-380.5 192,-380.5"/>
<text text-anchor="middle" x="267" y="-387.5" font-family="Helvetica,sans-Serif" font-size="10.00">sss::api::S3Api::GetBucketAcl</text>
</a>
</g>
</g>
<!-- Node7&#45;&gt;Node14 -->
<g id="edge13" class="edge">
<title>Node7&#45;&gt;Node14</title>
<path fill="none" stroke="midnightblue" d="M388.46,-309.08C385.84,-310.56 383.33,-312.2 381,-314 357.3,-332.33 369.3,-353.48 345,-371 339.64,-374.87 333.58,-377.95 327.28,-380.41"/>
<polygon fill="midnightblue" stroke="midnightblue" points="390.23,-312.11 397.71,-304.61 387.18,-305.81 390.23,-312.11"/>
</g>
<!-- Node15 -->
<g id="node15" class="node">
<title>Node15</title>
<g id="a_node15"><a xlink:href="classsss_1_1api_1_1S3Api.html#af61465d92c0a94aa82ae863fc2a776a0" target="_top" xlink:title="Download object data.">
<polygon fill="none" stroke="black" points="200,-342.5 200,-361.5 334,-361.5 334,-342.5 200,-342.5"/>
<text text-anchor="middle" x="267" y="-349.5" font-family="Helvetica,sans-Serif" font-size="10.00">sss::api::S3Api::GetObject</text>
</a>
</g>
</g>
<!-- Node7&#45;&gt;Node15 -->
<g id="edge14" class="edge">
<title>Node7&#45;&gt;Node15</title>
<path fill="none" stroke="midnightblue" d="M397.23,-307.82C391.71,-309.75 386.19,-311.82 381,-314 364.32,-321 361.91,-326.56 345,-333 335.35,-336.67 324.74,-339.83 314.57,-342.45"/>
<polygon fill="midnightblue" stroke="midnightblue" points="398.7,-311.02 407.08,-304.53 396.48,-304.38 398.7,-311.02"/>
</g>
<!-- Node16 -->
<g id="node16" class="node">
<title>Node16</title>
<g id="a_node16"><a xlink:href="classsss_1_1api_1_1S3Api.html#ae548966dc38f328fc45ee1500f5caf5b" target="_top" xlink:title="Return bucket&#39;s Access Control List.">
<polygon fill="none" stroke="black" points="193,-304.5 193,-323.5 341,-323.5 341,-304.5 193,-304.5"/>
<text text-anchor="middle" x="267" y="-311.5" font-family="Helvetica,sans-Serif" font-size="10.00">sss::api::S3Api::GetObjectAcl</text>
</a>
</g>
</g>
<!-- Node7&#45;&gt;Node16 -->
<g id="edge15" class="edge">
<title>Node7&#45;&gt;Node16</title>
<path fill="none" stroke="midnightblue" d="M375.34,-302.18C364.16,-303.41 352.48,-304.7 341.11,-305.95"/>
<polygon fill="midnightblue" stroke="midnightblue" points="375.89,-305.64 385.45,-301.06 375.12,-298.68 375.89,-305.64"/>
</g>
<!-- Node17 -->
<g id="node17" class="node">
<title>Node17</title>
<g id="a_node17"><a xlink:href="classsss_1_1api_1_1S3Api.html#aa4a2b1cc2c89a52d1aa89e571b785db2" target="_top" xlink:title=" ">
<polygon fill="none" stroke="black" points="195.5,-266.5 195.5,-285.5 338.5,-285.5 338.5,-266.5 195.5,-266.5"/>
<text text-anchor="middle" x="267" y="-273.5" font-family="Helvetica,sans-Serif" font-size="10.00">sss::api::S3Api::HeadBucket</text>
</a>
</g>
</g>
<!-- Node7&#45;&gt;Node17 -->
<g id="edge16" class="edge">
<title>Node7&#45;&gt;Node17</title>
<path fill="none" stroke="midnightblue" d="M375.49,-287.84C363.45,-286.51 350.82,-285.12 338.62,-283.78"/>
<polygon fill="midnightblue" stroke="midnightblue" points="375.12,-291.32 385.45,-288.94 375.89,-284.36 375.12,-291.32"/>
</g>
<!-- Node18 -->
<g id="node18" class="node">
<title>Node18</title>
<g id="a_node18"><a xlink:href="classsss_1_1api_1_1S3Api.html#abc84a71b9a88b81afaa353ad17a91d22" target="_top" xlink:title="Send HeadObject request.">
<polygon fill="none" stroke="black" points="196.5,-228.5 196.5,-247.5 337.5,-247.5 337.5,-228.5 196.5,-228.5"/>
<text text-anchor="middle" x="267" y="-235.5" font-family="Helvetica,sans-Serif" font-size="10.00">sss::api::S3Api::HeadObject</text>
</a>
</g>
</g>
<!-- Node7&#45;&gt;Node18 -->
<g id="edge17" class="edge">
<title>Node7&#45;&gt;Node18</title>
<path fill="none" stroke="midnightblue" d="M409.43,-281.38C390.94,-273.6 366.89,-264.02 345,-257 334.12,-253.51 322.2,-250.29 311.06,-247.52"/>
<polygon fill="midnightblue" stroke="midnightblue" points="408.24,-284.68 418.81,-285.38 410.98,-278.24 408.24,-284.68"/>
</g>
<!-- Node21 -->
<g id="node21" class="node">
<title>Node21</title>
<g id="a_node21"><a xlink:href="classsss_1_1api_1_1S3Api.html#a81e30673c06b609a2ee6e6bfd9130ca6" target="_top" xlink:title="List buckets.">
<polygon fill="none" stroke="black" points="196.5,-190.5 196.5,-209.5 337.5,-209.5 337.5,-190.5 196.5,-190.5"/>
<text text-anchor="middle" x="267" y="-197.5" font-family="Helvetica,sans-Serif" font-size="10.00">sss::api::S3Api::ListBuckets</text>
</a>
</g>
</g>
<!-- Node7&#45;&gt;Node21 -->
<g id="edge20" class="edge">
<title>Node7&#45;&gt;Node21</title>
<path fill="none" stroke="midnightblue" d="M424.13,-278.24C406.25,-260.9 376,-234.24 345,-219 337.22,-215.17 328.6,-212.08 320.03,-209.59"/>
<polygon fill="midnightblue" stroke="midnightblue" points="421.87,-280.93 431.43,-285.48 426.79,-275.96 421.87,-280.93"/>
</g>
<!-- Node22 -->
<g id="node22" class="node">
<title>Node22</title>
<g id="a_node22"><a xlink:href="classsss_1_1api_1_1S3Api.html#a3f00f611cd210a58ac6e8c0555984433" target="_top" xlink:title="List objects by sending a ListObjectsV2 request.">
<polygon fill="none" stroke="black" points="191.5,-152.5 191.5,-171.5 342.5,-171.5 342.5,-152.5 191.5,-152.5"/>
<text text-anchor="middle" x="267" y="-159.5" font-family="Helvetica,sans-Serif" font-size="10.00">sss::api::S3Api::ListObjectsV2</text>
</a>
</g>
</g>
<!-- Node7&#45;&gt;Node22 -->
<g id="edge21" class="edge">
<title>Node7&#45;&gt;Node22</title>
<path fill="none" stroke="midnightblue" d="M430.22,-276.57C415.01,-251.05 384.04,-205.35 345,-181 338.81,-177.14 331.88,-174.06 324.79,-171.61"/>
<polygon fill="midnightblue" stroke="midnightblue" points="427.23,-278.38 435.27,-285.28 433.28,-274.87 427.23,-278.38"/>
</g>
<!-- Node23 -->
<g id="node23" class="node">
<title>Node23</title>
<g id="a_node23"><a xlink:href="classsss_1_1api_1_1S3Api.html#aa35e9b1cc7661cd9bb0d5f2de6cbbc7d" target="_top" xlink:title="Set Access Control Policy for bucket.">
<polygon fill="none" stroke="black" points="192.5,-114.5 192.5,-133.5 341.5,-133.5 341.5,-114.5 192.5,-114.5"/>
<text text-anchor="middle" x="267" y="-121.5" font-family="Helvetica,sans-Serif" font-size="10.00">sss::api::S3Api::PutBucketAcl</text>
</a>
</g>
</g>
<!-- Node7&#45;&gt;Node23 -->
<g id="edge22" class="edge">
<title>Node7&#45;&gt;Node23</title>
<path fill="none" stroke="midnightblue" d="M433.87,-275.67C421.66,-243.05 392.43,-177.28 345,-143 339.64,-139.13 333.59,-136.04 327.29,-133.58"/>
<polygon fill="midnightblue" stroke="midnightblue" points="430.68,-277.15 437.36,-285.37 437.27,-274.77 430.68,-277.15"/>
</g>
<!-- Node24 -->
<g id="node24" class="node">
<title>Node24</title>
<g id="a_node24"><a xlink:href="classsss_1_1api_1_1S3Api.html#a2cc08fb777cfc4d24c40bea1cde967e7" target="_top" xlink:title="Set Access Control Policy.">
<polygon fill="none" stroke="black" points="193.5,-76.5 193.5,-95.5 340.5,-95.5 340.5,-76.5 193.5,-76.5"/>
<text text-anchor="middle" x="267" y="-83.5" font-family="Helvetica,sans-Serif" font-size="10.00">sss::api::S3Api::PutObjectAcl</text>
</a>
</g>
</g>
<!-- Node7&#45;&gt;Node24 -->
<g id="edge23" class="edge">
<title>Node7&#45;&gt;Node24</title>
<path fill="none" stroke="midnightblue" d="M433.28,-275.92C416.5,-232.48 374.06,-128.19 345,-105 340.16,-101.14 334.64,-98.04 328.83,-95.57"/>
<polygon fill="midnightblue" stroke="midnightblue" points="430.05,-277.25 436.89,-285.34 436.59,-274.75 430.05,-277.25"/>
</g>
<!-- Node7&#45;&gt;Node25 -->
<g id="edge24" class="edge">
<title>Node7&#45;&gt;Node25</title>
<path fill="none" stroke="midnightblue" d="M431.5,-276.32C419.08,-250.08 396.47,-200.64 381,-157 361.26,-101.3 387.46,-70.11 345,-29 338.87,-23.06 331.19,-18.89 323.07,-15.97"/>
<polygon fill="midnightblue" stroke="midnightblue" points="428.4,-277.95 435.87,-285.47 434.72,-274.94 428.4,-277.95"/>
</g>
<!-- Node26 -->
<g id="node26" class="node">
<title>Node26</title>
<g id="a_node26"><a xlink:href="classsss_1_1api_1_1S3Api.html#a23223ee1fb701c55af2d942dbf261ae2" target="_top" xlink:title="Check if bucket exist.">
<polygon fill="none" stroke="black" points="197.5,-38.5 197.5,-57.5 336.5,-57.5 336.5,-38.5 197.5,-38.5"/>
<text text-anchor="middle" x="267" y="-45.5" font-family="Helvetica,sans-Serif" font-size="10.00">sss::api::S3Api::TestBucket</text>
</a>
</g>
</g>
<!-- Node7&#45;&gt;Node26 -->
<g id="edge25" class="edge">
<title>Node7&#45;&gt;Node26</title>
<path fill="none" stroke="midnightblue" d="M432.15,-276.07C420.49,-249.54 398.76,-199.75 381,-157 364.47,-117.22 377.5,-95.28 345,-67 340.53,-63.11 335.4,-60 329.94,-57.5"/>
<polygon fill="midnightblue" stroke="midnightblue" points="428.99,-277.59 436.23,-285.33 435.4,-274.77 428.99,-277.59"/>
</g>
<!-- Node19 -->
<g id="node19" class="node">
<title>Node19</title>
<g id="a_node19"><a xlink:href="classsss_1_1api_1_1S3Api.html#a872e80e356e8c404a9b0739d95a0af41" target="_top" xlink:title="Return object size.">
<polygon fill="none" stroke="black" points="0,-247.5 0,-266.5 153,-266.5 153,-247.5 0,-247.5"/>
<text text-anchor="middle" x="76.5" y="-254.5" font-family="Helvetica,sans-Serif" font-size="10.00">sss::api::S3Api::GetObjectSize</text>
</a>
</g>
</g>
<!-- Node18&#45;&gt;Node19 -->
<g id="edge18" class="edge">
<title>Node18&#45;&gt;Node19</title>
<path fill="none" stroke="midnightblue" d="M186.35,-246.03C175.37,-247.14 164.11,-248.27 153.2,-249.37"/>
<polygon fill="midnightblue" stroke="midnightblue" points="186.75,-249.51 196.35,-245.02 186.04,-242.54 186.75,-249.51"/>
</g>
<!-- Node20 -->
<g id="node20" class="node">
<title>Node20</title>
<g id="a_node20"><a xlink:href="classsss_1_1api_1_1S3Api.html#aa3f7a3001bdad58c7b0c04cbd0dc3236" target="_top" xlink:title="Check if key exists.">
<polygon fill="none" stroke="black" points="8,-209.5 8,-228.5 145,-228.5 145,-209.5 8,-209.5"/>
<text text-anchor="middle" x="76.5" y="-216.5" font-family="Helvetica,sans-Serif" font-size="10.00">sss::api::S3Api::TestObject</text>
</a>
</g>
</g>
<!-- Node18&#45;&gt;Node20 -->
<g id="edge19" class="edge">
<title>Node18&#45;&gt;Node20</title>
<path fill="none" stroke="midnightblue" d="M186.07,-229.94C172.5,-228.58 158.52,-227.17 145.3,-225.83"/>
<polygon fill="midnightblue" stroke="midnightblue" points="186.04,-233.46 196.35,-230.98 186.75,-226.49 186.04,-233.46"/>
</g>
</g>
</svg>
        <g id="navigator" transform="translate(0 0)" fill="#404254">
                <rect fill="#f2f5e9" fill-opacity="0.5" stroke="#606060" stroke-width=".5" x="0" y="0" width="60" height="60"/>
                <use id="zoomplus" xlink:href="#zoomPlus" x="17" y="9" onmousedown="handleZoom(evt,'in')"/>
                <use id="zoomminus" xlink:href="#zoomMin" x="42" y="9" onmousedown="handleZoom(evt,'out')"/>
                <use id="reset" xlink:href="#resetDef" x="30" y="36" onmousedown="handleReset()"/>
                <g id="arrowUp" xlink:href="#dirArrow" transform="translate(30 24)" onmousedown="handlePan(0,-1)">
                  <use xlink:href="#rim" fill="#404040">
                        <set attributeName="fill" to="#808080" begin="arrowUp.mouseover" end="arrowUp.mouseout"/>
                  </use>
                  <path fill="none" stroke="white" stroke-width="1.5" d="M0,-3.0v7 M-2.5,-0.5L0,-3.0L2.5,-0.5"/>
                </g>
                <g id="arrowRight" xlink:href="#dirArrow" transform="rotate(90) translate(36 -43)" onmousedown="handlePan(1,0)">
                  <use xlink:href="#rim" fill="#404040">
                        <set attributeName="fill" to="#808080" begin="arrowRight.mouseover" end="arrowRight.mouseout"/>
                  </use>
                  <path fill="none" stroke="white" stroke-width="1.5" d="M0,-3.0v7 M-2.5,-0.5L0,-3.0L2.5,-0.5"/>
                </g>
                <g id="arrowDown" xlink:href="#dirArrow" transform="rotate(180) translate(-30 -48)" onmousedown="handlePan(0,1)">
                  <use xlink:href="#rim" fill="#404040">
                        <set attributeName="fill" to="#808080" begin="arrowDown.mouseover" end="arrowDown.mouseout"/>
                  </use>
                  <path fill="none" stroke="white" stroke-width="1.5" d="M0,-3.0v7 M-2.5,-0.5L0,-3.0L2.5,-0.5"/>
                </g>
                <g id="arrowLeft" xlink:href="#dirArrow" transform="rotate(270) translate(-36 17)" onmousedown="handlePan(-1,0)">
                  <use xlink:href="#rim" fill="#404040">
                        <set attributeName="fill" to="#808080" begin="arrowLeft.mouseover" end="arrowLeft.mouseout"/>
                  </use>
                  <path fill="none" stroke="white" stroke-width="1.5" d="M0,-3.0v7 M-2.5,-0.5L0,-3.0L2.5,-0.5"/>
                </g>
        </g>
        <svg viewBox="0 0 15 15" width="100%" height="30px" preserveAspectRatio="xMaxYMin meet">
         <g id="arrow_out" transform="scale(0.3 0.3)">
          <a xlink:href="classsss_1_1WebClient_a88dbcc61562e84aa9ebf1eabf887ac28_icgraph_org.svg" target="_base">
           <rect id="button" ry="5" rx="5" y="6" x="6" height="38" width="38"
                fill="#f2f5e9" fill-opacity="0.5" stroke="#606060" stroke-width="1.0"/>
           <path id="arrow"
             d="M 11.500037,31.436501 C 11.940474,20.09759 22.043105,11.32322 32.158766,21.979434 L 37.068811,17.246167 C 37.068811,17.246167 37.088388,32 37.088388,32 L 22.160133,31.978069 C 22.160133,31.978069 26.997745,27.140456 26.997745,27.140456 C 18.528582,18.264221 13.291696,25.230495 11.500037,31.436501 z"
             style="fill:#404040;"/>
          </a>
         </g>
        </svg>
</svg>
