<?xml version="1.0" encoding="UTF-8" standalone="no"?>
<!DOCTYPE svg PUBLIC "-//W3C//DTD SVG 1.1//EN"
 "http://www.w3.org/Graphics/SVG/1.1/DTD/svg11.dtd">
<!-- Generated by graphviz version 8.0.5 (20230430.1635)
 -->
<!-- Title: sss::api::S3Api::GetObjectSize Pages: 1 -->
<svg width="1264pt" height="600pt"
 viewBox="0.00 0.00 1263.75 599.83" xmlns="http://www.w3.org/2000/svg" xmlns:xlink="http://www.w3.org/1999/xlink">
<g id="graph0" class="graph" transform="scale(1 1) rotate(0) translate(4 595.83)">
<title>sss::api::S3Api::GetObjectSize</title>
<!-- Node1 -->
<g id="node1" class="node">
<title>Node1</title>
<g id="a_node1"><a xlink:title="[WebClient::Config]">
<polygon fill="#999999" stroke="#666666" points="152.5,-197.25 0,-197.25 0,-178 152.5,-178 152.5,-197.25"/>
<text text-anchor="middle" x="76.25" y="-183.75" font-family="Helvetica,sans-Serif" font-size="10.00">sss::api::S3Api::GetObjectSize</text>
</a>
</g>
</g>
<!-- Node2 -->
<g id="node2" class="node">
<title>Node2</title>
<g id="a_node2"><a xlink:href="group__Internal.html#gad39402e23f6ef63de04e903825a7271a" target="_top" xlink:title="Map key to value using regular expression.">
<polygon fill="white" stroke="#666666" points="297.5,-216.25 220,-216.25 220,-197 297.5,-197 297.5,-216.25"/>
<text text-anchor="middle" x="258.75" y="-202.75" font-family="Helvetica,sans-Serif" font-size="10.00">sss::GetValue</text>
</a>
</g>
</g>
<!-- Node1&#45;&gt;Node2 -->
<g id="edge1" class="edge">
<title>Node1&#45;&gt;Node2</title>
<path fill="none" stroke="#63b8ff" d="M152.75,-195.57C171.95,-197.59 192.07,-199.71 209.5,-201.55"/>
<polygon fill="#63b8ff" stroke="#63b8ff" points="208.65,-205.08 218.97,-202.65 209.39,-198.12 208.65,-205.08"/>
</g>
<!-- Node3 -->
<g id="node3" class="node">
<title>Node3</title>
<g id="a_node3"><a xlink:href="classsss_1_1api_1_1S3Api.html#abc84a71b9a88b81afaa353ad17a91d22" target="_top" xlink:title=" ">
<polygon fill="white" stroke="#666666" points="329,-179.25 188.5,-179.25 188.5,-160 329,-160 329,-179.25"/>
<text text-anchor="middle" x="258.75" y="-165.75" font-family="Helvetica,sans-Serif" font-size="10.00">sss::api::S3Api::HeadObject</text>
</a>
</g>
</g>
<!-- Node1&#45;&gt;Node3 -->
<g id="edge2" class="edge">
<title>Node1&#45;&gt;Node3</title>
<path fill="none" stroke="#63b8ff" d="M152.75,-180.1C160.88,-179.29 169.17,-178.46 177.35,-177.64"/>
<polygon fill="#63b8ff" stroke="#63b8ff" points="177.42,-181.05 187.02,-176.58 176.73,-174.09 177.42,-181.05"/>
</g>
<!-- Node4 -->
<g id="node4" class="node">
<title>Node4</title>
<g id="a_node4"><a xlink:href="group__Parsing.html#gaca9233a3e8a097605d9168bf860e93e5" target="_top" xlink:title=" ">
<polygon fill="white" stroke="#666666" points="471,-198.25 370.25,-198.25 370.25,-179 471,-179 471,-198.25"/>
<text text-anchor="middle" x="420.62" y="-184.75" font-family="Helvetica,sans-Serif" font-size="10.00">sss::HTTPHeaders</text>
</a>
</g>
</g>
<!-- Node3&#45;&gt;Node4 -->
<g id="edge3" class="edge">
<title>Node3&#45;&gt;Node4</title>
<path fill="none" stroke="#63b8ff" d="M329.41,-177.9C339.31,-179.08 349.43,-180.28 359.14,-181.44"/>
<polygon fill="#63b8ff" stroke="#63b8ff" points="358.56,-185.01 368.9,-182.72 359.38,-178.06 358.56,-185.01"/>
</g>
<!-- Node5 -->
<g id="node5" class="node">
<title>Node5</title>
<g id="a_node5"><a xlink:href="classsss_1_1api_1_1S3Api.html#ad09581bf28c4bbbcbb71b329959ec1ae" target="_top" xlink:title=" ">
<polygon fill="white" stroke="#666666" points="476.25,-161.25 365,-161.25 365,-142 476.25,-142 476.25,-161.25"/>
<text text-anchor="middle" x="420.62" y="-147.75" font-family="Helvetica,sans-Serif" font-size="10.00">sss::api::S3Api::Send</text>
</a>
</g>
</g>
<!-- Node3&#45;&gt;Node5 -->
<g id="edge4" class="edge">
<title>Node3&#45;&gt;Node5</title>
<path fill="none" stroke="#63b8ff" d="M329.41,-161.78C337.51,-160.87 345.75,-159.94 353.8,-159.04"/>
<polygon fill="#63b8ff" stroke="#63b8ff" points="354.07,-162.42 363.61,-157.82 353.28,-155.46 354.07,-162.42"/>
</g>
<!-- Node6 -->
<g id="node6" class="node">
<title>Node6</title>
<g id="a_node6"><a xlink:href="classsss_1_1api_1_1S3Api.html#a840772746fbb0a79c161037da7b24a31" target="_top" xlink:title="[WebClient::Config]">
<polygon fill="white" stroke="#666666" points="648.25,-365.25 531,-365.25 531,-346 648.25,-346 648.25,-365.25"/>
<text text-anchor="middle" x="589.62" y="-351.75" font-family="Helvetica,sans-Serif" font-size="10.00">sss::api::S3Api::Config</text>
</a>
</g>
</g>
<!-- Node5&#45;&gt;Node6 -->
<g id="edge5" class="edge">
<title>Node5&#45;&gt;Node6</title>
<path fill="none" stroke="#63b8ff" d="M463.68,-161.71C468.2,-163.86 472.51,-166.47 476.25,-169.62 502.38,-191.68 494.94,-208.13 512.25,-237.62 533.23,-273.38 559.99,-313.63 575.63,-336.68"/>
<polygon fill="#63b8ff" stroke="#63b8ff" points="573.26,-338.42 581.78,-344.71 579.04,-334.47 573.26,-338.42"/>
</g>
<!-- Node15 -->
<g id="node15" class="node">
<title>Node15</title>
<g id="a_node15"><a xlink:href="classsss_1_1WebClient.html#a51ce0ecf6487b6a43072643fe4f4cb4e" target="_top" xlink:title=" ">
<polygon fill="white" stroke="#666666" points="1040.62,-591.25 895.62,-591.25 895.62,-572 1040.62,-572 1040.62,-591.25"/>
<text text-anchor="middle" x="968.12" y="-577.75" font-family="Helvetica,sans-Serif" font-size="10.00">sss::WebClient::SetPostData</text>
</a>
</g>
</g>
<!-- Node5&#45;&gt;Node15 -->
<g id="edge42" class="edge">
<title>Node5&#45;&gt;Node15</title>
<path fill="none" stroke="#63b8ff" d="M466.57,-161.68C470.19,-163.84 473.51,-166.45 476.25,-169.62 536.77,-239.59 469.48,-292.6 512.25,-374.62 567.57,-480.73 593.93,-515.41 703,-564.62 759.72,-590.22 830.34,-593.49 884.28,-590.9"/>
<polygon fill="#63b8ff" stroke="#63b8ff" points="884.4,-594.34 894.19,-590.28 884,-587.35 884.4,-594.34"/>
</g>
<!-- Node30 -->
<g id="node30" class="node">
<title>Node30</title>
<g id="a_node30"><a xlink:href="lib_2include_2utility_8h.html#ab314781bb3f053ef5325b50f3a1b74f8" target="_top" xlink:title=" ">
<polygon fill="white" stroke="#666666" points="1210.75,-140.25 1136.25,-140.25 1136.25,-121 1210.75,-121 1210.75,-140.25"/>
<text text-anchor="middle" x="1173.5" y="-126.75" font-family="Helvetica,sans-Serif" font-size="10.00">sss::ToLower</text>
</a>
</g>
</g>
<!-- Node5&#45;&gt;Node30 -->
<g id="edge45" class="edge">
<title>Node5&#45;&gt;Node30</title>
<path fill="none" stroke="#63b8ff" d="M476.53,-150.09C617.79,-146.14 991.98,-135.67 1124.86,-131.96"/>
<polygon fill="#63b8ff" stroke="#63b8ff" points="1124.95,-135.43 1134.85,-131.65 1124.76,-128.43 1124.95,-135.43"/>
</g>
<!-- Node32 -->
<g id="node32" class="node">
<title>Node32</title>
<g id="a_node32"><a xlink:href="group__ErrorHandling.html#ga781648957bfce0bbc86cbdbff94e28a6" target="_top" xlink:title=" ">
<polygon fill="white" stroke="#666666" points="634.38,-56.25 544.88,-56.25 544.88,-37 634.38,-37 634.38,-56.25"/>
<text text-anchor="middle" x="589.62" y="-42.75" font-family="Helvetica,sans-Serif" font-size="10.00">sss::HandleError</text>
</a>
</g>
</g>
<!-- Node5&#45;&gt;Node32 -->
<g id="edge39" class="edge">
<title>Node5&#45;&gt;Node32</title>
<path fill="none" stroke="#63b8ff" d="M429.16,-141.66C443.36,-123.61 475.92,-85.54 512.25,-65.62 519.09,-61.88 526.67,-58.86 534.33,-56.42"/>
<polygon fill="#63b8ff" stroke="#63b8ff" points="535.09,-59.56 543.75,-53.46 533.18,-52.83 535.09,-59.56"/>
</g>
<!-- Node33 -->
<g id="node33" class="node">
<title>Node33</title>
<g id="a_node33"><a xlink:href="group__Internal.html#ga2b8b08c2a4994a87377d83ccfa9a6a53" target="_top" xlink:title=" ">
<polygon fill="white" stroke="#666666" points="638.12,-19.25 541.12,-19.25 541.12,0 638.12,0 638.12,-19.25"/>
<text text-anchor="middle" x="589.62" y="-5.75" font-family="Helvetica,sans-Serif" font-size="10.00">sss::ParseParams</text>
</a>
</g>
</g>
<!-- Node5&#45;&gt;Node33 -->
<g id="edge40" class="edge">
<title>Node5&#45;&gt;Node33</title>
<path fill="none" stroke="#63b8ff" d="M425.87,-141.73C436.59,-117.98 467.14,-57.54 512.25,-27.62 517.84,-23.92 524.1,-20.97 530.57,-18.63"/>
<polygon fill="#63b8ff" stroke="#63b8ff" points="531.34,-21.75 539.84,-15.43 529.26,-15.06 531.34,-21.75"/>
</g>
<!-- Node34 -->
<g id="node34" class="node">
<title>Node34</title>
<g id="a_node34"><a xlink:href="classsss_1_1WebClient.html#aa1d7484f0e09242ce53b24f9648ce50e" target="_top" xlink:title=" ">
<polygon fill="white" stroke="#666666" points="829.62,-180.25 718.38,-180.25 718.38,-161 829.62,-161 829.62,-180.25"/>
<text text-anchor="middle" x="774" y="-166.75" font-family="Helvetica,sans-Serif" font-size="10.00">sss::WebClient::Send</text>
</a>
</g>
</g>
<!-- Node5&#45;&gt;Node34 -->
<g id="edge41" class="edge">
<title>Node5&#45;&gt;Node34</title>
<path fill="none" stroke="#63b8ff" d="M476.53,-154.59C538.87,-157.97 640.56,-163.46 707.13,-167.06"/>
<polygon fill="#63b8ff" stroke="#63b8ff" points="706.73,-170.6 716.9,-167.65 707.11,-163.61 706.73,-170.6"/>
</g>
<!-- Node35 -->
<g id="node35" class="node">
<title>Node35</title>
<g id="a_node35"><a xlink:href="classsss_1_1WebClient.html#a7dfd984b33a29686fb0355b65b620e99" target="_top" xlink:title=" ">
<polygon fill="white" stroke="#666666" points="667,-104.88 512.25,-104.88 512.25,-74.38 667,-74.38 667,-104.88"/>
<text text-anchor="start" x="520.25" y="-91.38" font-family="Helvetica,sans-Serif" font-size="10.00">sss::WebClient::SetUrlEncoded</text>
<text text-anchor="middle" x="589.62" y="-80.12" font-family="Helvetica,sans-Serif" font-size="10.00">PostData</text>
</a>
</g>
</g>
<!-- Node5&#45;&gt;Node35 -->
<g id="edge43" class="edge">
<title>Node5&#45;&gt;Node35</title>
<path fill="none" stroke="#63b8ff" d="M448.83,-141.53C472.47,-132.75 507.39,-119.78 536.42,-109.01"/>
<polygon fill="#63b8ff" stroke="#63b8ff" points="537.25,-112.06 545.41,-105.3 534.82,-105.5 537.25,-112.06"/>
</g>
<!-- Node36 -->
<g id="node36" class="node">
<title>Node36</title>
<g id="a_node36"><a xlink:href="classsss_1_1WebClient.html#ae7b1f77bd4ae44585f2d49ea493bdcc5" target="_top" xlink:title="Upload data from memory buffer.">
<polygon fill="white" stroke="#666666" points="659.88,-228.88 519.38,-228.88 519.38,-198.38 659.88,-198.38 659.88,-228.88"/>
<text text-anchor="start" x="527.38" y="-215.38" font-family="Helvetica,sans-Serif" font-size="10.00">sss::WebClient::UploadData</text>
<text text-anchor="middle" x="589.62" y="-204.12" font-family="Helvetica,sans-Serif" font-size="10.00">FromBuffer</text>
</a>
</g>
</g>
<!-- Node5&#45;&gt;Node36 -->
<g id="edge46" class="edge">
<title>Node5&#45;&gt;Node36</title>
<path fill="none" stroke="#63b8ff" d="M453.54,-161.69C461.03,-164.17 468.95,-166.91 476.25,-169.62 492.49,-175.68 496.15,-178.21 512.25,-184.62 520.03,-187.72 528.29,-190.94 536.39,-194.04"/>
<polygon fill="#63b8ff" stroke="#63b8ff" points="534.92,-197.61 545.51,-197.91 537.42,-191.07 534.92,-197.61"/>
</g>
<!-- Node7 -->
<g id="node7" class="node">
<title>Node7</title>
<g id="a_node7"><a xlink:href="classsss_1_1api_1_1S3Api.html#aea9741d60e74775ccd4de1c2c58f64fa" target="_top" xlink:title=" ">
<polygon fill="white" stroke="#666666" points="834.88,-555.25 713.12,-555.25 713.12,-536 834.88,-536 834.88,-555.25"/>
<text text-anchor="middle" x="774" y="-541.75" font-family="Helvetica,sans-Serif" font-size="10.00">sss::api::S3Api::Access</text>
</a>
</g>
</g>
<!-- Node6&#45;&gt;Node7 -->
<g id="edge6" class="edge">
<title>Node6&#45;&gt;Node7</title>
<path fill="none" stroke="#63b8ff" d="M594.58,-365.48C606.52,-393.96 644.95,-477.22 703,-521.62 707.97,-525.43 713.58,-528.65 719.41,-531.38"/>
<polygon fill="#63b8ff" stroke="#63b8ff" points="717.77,-534.9 728.35,-535.51 720.46,-528.44 717.77,-534.9"/>
</g>
<!-- Node8 -->
<g id="node8" class="node">
<title>Node8</title>
<g id="a_node8"><a xlink:href="classsss_1_1api_1_1S3Api.html#a3718745d3b940462ae9f3b78f773b3a6" target="_top" xlink:title="Clear data and reset read and write functions.">
<polygon fill="white" stroke="#666666" points="830,-479.25 718,-479.25 718,-460 830,-460 830,-479.25"/>
<text text-anchor="middle" x="774" y="-465.75" font-family="Helvetica,sans-Serif" font-size="10.00">sss::api::S3Api::Clear</text>
</a>
</g>
</g>
<!-- Node6&#45;&gt;Node8 -->
<g id="edge7" class="edge">
<title>Node6&#45;&gt;Node8</title>
<path fill="none" stroke="#63b8ff" d="M600.59,-365.64C619.2,-383.84 661.17,-422.62 703,-445.62 710.12,-449.54 718,-452.99 725.83,-455.96"/>
<polygon fill="#63b8ff" stroke="#63b8ff" points="724.42,-459.53 735.01,-459.59 726.77,-452.94 724.42,-459.53"/>
</g>
<!-- Node13 -->
<g id="node13" class="node">
<title>Node13</title>
<g id="a_node13"><a xlink:href="classsss_1_1WebClient.html#a75890c14fbe4a4bbac61718a4f3c064d" target="_top" xlink:title=" ">
<polygon fill="white" stroke="#666666" points="1038.38,-552.25 897.88,-552.25 897.88,-533 1038.38,-533 1038.38,-552.25"/>
<text text-anchor="middle" x="968.12" y="-538.75" font-family="Helvetica,sans-Serif" font-size="10.00">sss::WebClient::SetHeaders</text>
</a>
</g>
</g>
<!-- Node6&#45;&gt;Node13 -->
<g id="edge19" class="edge">
<title>Node6&#45;&gt;Node13</title>
<path fill="none" stroke="#63b8ff" d="M595.88,-365.59C609.7,-390.74 649.7,-457.01 703,-488.62 733.55,-506.75 820.74,-522.37 886.66,-532.08"/>
<polygon fill="#63b8ff" stroke="#63b8ff" points="886.05,-535.67 896.45,-533.64 887.06,-528.74 886.05,-535.67"/>
</g>
<!-- Node14 -->
<g id="node14" class="node">
<title>Node14</title>
<g id="a_node14"><a xlink:href="classsss_1_1WebClient.html#a12b5db6b8c667024557ab58059d39994" target="_top" xlink:title=" ">
<polygon fill="white" stroke="#666666" points="1030.12,-441.25 906.12,-441.25 906.12,-422 1030.12,-422 1030.12,-441.25"/>
<text text-anchor="middle" x="968.12" y="-427.75" font-family="Helvetica,sans-Serif" font-size="10.00">sss::WebClient::SetPath</text>
</a>
</g>
</g>
<!-- Node6&#45;&gt;Node14 -->
<g id="edge23" class="edge">
<title>Node6&#45;&gt;Node14</title>
<path fill="none" stroke="#63b8ff" d="M615.2,-365.71C637.7,-374.57 672.08,-387.17 703,-394.62 767.01,-410.06 841.4,-419.76 894.9,-425.34"/>
<polygon fill="#63b8ff" stroke="#63b8ff" points="894.34,-428.9 904.65,-426.44 895.05,-421.94 894.34,-428.9"/>
</g>
<!-- Node16 -->
<g id="node16" class="node">
<title>Node16</title>
<g id="a_node16"><a xlink:href="classsss_1_1WebClient.html#a9bf978d95b79728f6d60fc2bdb4fe546" target="_top" xlink:title=" ">
<polygon fill="white" stroke="#666666" points="1054.12,-404.25 882.12,-404.25 882.12,-385 1054.12,-385 1054.12,-404.25"/>
<text text-anchor="middle" x="968.12" y="-390.75" font-family="Helvetica,sans-Serif" font-size="10.00">sss::WebClient::SetReqParameters</text>
</a>
</g>
</g>
<!-- Node6&#45;&gt;Node16 -->
<g id="edge24" class="edge">
<title>Node6&#45;&gt;Node16</title>
<path fill="none" stroke="#63b8ff" d="M644.21,-365.72C662.77,-368.94 683.75,-372.27 703,-374.62 758.5,-381.4 820.85,-386.25 871.04,-389.48"/>
<polygon fill="#63b8ff" stroke="#63b8ff" points="870.68,-393.03 880.88,-390.16 871.12,-386.04 870.68,-393.03"/>
</g>
<!-- Node17 -->
<g id="node17" class="node">
<title>Node17</title>
<g id="a_node17"><a xlink:href="classsss_1_1api_1_1S3Api.html#a25a999d87c121627166fc0a896f536c7" target="_top" xlink:title=" ">
<polygon fill="white" stroke="#666666" points="837.5,-328.25 710.5,-328.25 710.5,-309 837.5,-309 837.5,-328.25"/>
<text text-anchor="middle" x="774" y="-314.75" font-family="Helvetica,sans-Serif" font-size="10.00">sss::api::S3Api::Endpoint</text>
</a>
</g>
</g>
<!-- Node6&#45;&gt;Node17 -->
<g id="edge16" class="edge">
<title>Node6&#45;&gt;Node17</title>
<path fill="none" stroke="#63b8ff" d="M640.46,-345.51C662.78,-340.99 689.28,-335.61 712.71,-330.86"/>
<polygon fill="#63b8ff" stroke="#63b8ff" points="713.12,-334.14 722.23,-328.72 711.73,-327.28 713.12,-334.14"/>
</g>
<!-- Node18 -->
<g id="node18" class="node">
<title>Node18</title>
<g id="a_node18"><a xlink:href="classsss_1_1api_1_1S3Api.html#a6f518c16679e99f119966b36ac28463f" target="_top" xlink:title=" ">
<polygon fill="white" stroke="#666666" points="832.62,-291.25 715.38,-291.25 715.38,-272 832.62,-272 832.62,-291.25"/>
<text text-anchor="middle" x="774" y="-277.75" font-family="Helvetica,sans-Serif" font-size="10.00">sss::api::S3Api::Secret</text>
</a>
</g>
</g>
<!-- Node6&#45;&gt;Node18 -->
<g id="edge17" class="edge">
<title>Node6&#45;&gt;Node18</title>
<path fill="none" stroke="#63b8ff" d="M608.01,-345.51C629.67,-333.26 668.08,-312.65 703,-299.62 707.75,-297.85 712.74,-296.19 717.78,-294.65"/>
<polygon fill="#63b8ff" stroke="#63b8ff" points="718.49,-297.8 727.13,-291.67 716.55,-291.08 718.49,-297.8"/>
</g>
<!-- Node19 -->
<g id="node19" class="node">
<title>Node19</title>
<g id="a_node19"><a xlink:href="classsss_1_1WebClient.html#afc3b7a92568fbb1ea447918920ca266e" target="_top" xlink:title="Set endpoint: &#160;&lt;proto&gt;://&lt;server&gt;:&lt;port&gt;">
<polygon fill="white" stroke="#666666" points="845,-254.25 703,-254.25 703,-235 845,-235 845,-254.25"/>
<text text-anchor="middle" x="774" y="-240.75" font-family="Helvetica,sans-Serif" font-size="10.00">sss::WebClient::SetEndpoint</text>
</a>
</g>
</g>
<!-- Node6&#45;&gt;Node19 -->
<g id="edge18" class="edge">
<title>Node6&#45;&gt;Node19</title>
<path fill="none" stroke="#63b8ff" d="M599.78,-345.53C617.7,-326.41 659.46,-284.83 703,-262.62 706.07,-261.06 709.3,-259.62 712.6,-258.3"/>
<polygon fill="#63b8ff" stroke="#63b8ff" points="713.44,-261.36 721.68,-254.69 711.08,-254.77 713.44,-261.36"/>
</g>
<!-- Node20 -->
<g id="node20" class="node">
<title>Node20</title>
<g id="a_node20"><a xlink:href="classsss_1_1WebClient.html#af6233ffd7b294e1e7e606e838dd44e9e" target="_top" xlink:title=" ">
<polygon fill="white" stroke="#666666" points="842,-217.25 706,-217.25 706,-198 842,-198 842,-217.25"/>
<text text-anchor="middle" x="774" y="-203.75" font-family="Helvetica,sans-Serif" font-size="10.00">sss::WebClient::SetMethod</text>
</a>
</g>
</g>
<!-- Node6&#45;&gt;Node20 -->
<g id="edge20" class="edge">
<title>Node6&#45;&gt;Node20</title>
<path fill="none" stroke="#63b8ff" d="M596.25,-345.68C610.63,-321.2 651.27,-257.69 703,-225.62 705.16,-224.29 707.42,-223.05 709.74,-221.9"/>
<polygon fill="#63b8ff" stroke="#63b8ff" points="710.78,-224.83 718.6,-217.68 708.03,-218.4 710.78,-224.83"/>
</g>
<!-- Node22 -->
<g id="node22" class="node">
<title>Node22</title>
<g id="a_node22"><a xlink:href="group__Sign.html#ga3ae8e18ef70752b7369fca66c40c526b" target="_top" xlink:title="Sign headers.">
<polygon fill="white" stroke="#666666" points="821,-365.25 727,-365.25 727,-346 821,-346 821,-365.25"/>
<text text-anchor="middle" x="774" y="-351.75" font-family="Helvetica,sans-Serif" font-size="10.00">sss::SignHeaders</text>
</a>
</g>
</g>
<!-- Node6&#45;&gt;Node22 -->
<g id="edge25" class="edge">
<title>Node6&#45;&gt;Node22</title>
<path fill="none" stroke="#63b8ff" d="M648.58,-355.62C670.07,-355.62 694.42,-355.62 715.84,-355.62"/>
<polygon fill="#63b8ff" stroke="#63b8ff" points="715.75,-359.13 725.75,-355.62 715.75,-352.13 715.75,-359.13"/>
</g>
<!-- Node9 -->
<g id="node9" class="node">
<title>Node9</title>
<g id="a_node9"><a xlink:href="classsss_1_1WebClient.html#a381f5715b7a2f19a0d4414d278874bae" target="_top" xlink:title="Clear internal buffers.">
<polygon fill="white" stroke="#666666" points="1039.88,-515.25 896.38,-515.25 896.38,-496 1039.88,-496 1039.88,-515.25"/>
<text text-anchor="middle" x="968.12" y="-501.75" font-family="Helvetica,sans-Serif" font-size="10.00">sss::WebClient::ClearBuffers</text>
</a>
</g>
</g>
<!-- Node8&#45;&gt;Node9 -->
<g id="edge8" class="edge">
<title>Node8&#45;&gt;Node9</title>
<path fill="none" stroke="#63b8ff" d="M829.03,-479.75C851.84,-484.02 878.59,-489.04 902.44,-493.5"/>
<polygon fill="#63b8ff" stroke="#63b8ff" points="901.7,-497.11 912.17,-495.51 902.98,-490.23 901.7,-497.11"/>
</g>
<!-- Node10 -->
<g id="node10" class="node">
<title>Node10</title>
<g id="a_node10"><a xlink:href="classsss_1_1WebClient.html#a96837f149bb473853a6523d096a25c56" target="_top" xlink:title="Reset read/write functions to default.">
<polygon fill="white" stroke="#666666" points="1055.25,-478.25 881,-478.25 881,-459 1055.25,-459 1055.25,-478.25"/>
<text text-anchor="middle" x="968.12" y="-464.75" font-family="Helvetica,sans-Serif" font-size="10.00">sss::WebClient::ResetRWFunctions</text>
</a>
</g>
</g>
<!-- Node8&#45;&gt;Node10 -->
<g id="edge9" class="edge">
<title>Node8&#45;&gt;Node10</title>
<path fill="none" stroke="#63b8ff" d="M830.31,-469.34C842.73,-469.27 856.27,-469.2 869.84,-469.13"/>
<polygon fill="#63b8ff" stroke="#63b8ff" points="869.73,-472.63 879.71,-469.07 869.69,-465.63 869.73,-472.63"/>
</g>
<!-- Node8&#45;&gt;Node13 -->
<g id="edge12" class="edge">
<title>Node8&#45;&gt;Node13</title>
<path fill="none" stroke="#63b8ff" d="M812.84,-479.68C823.6,-483.3 835.08,-487.94 845,-493.62 863.32,-504.13 862.07,-515.28 881,-524.62 884.32,-526.26 887.78,-527.75 891.33,-529.11"/>
<polygon fill="#63b8ff" stroke="#63b8ff" points="889.92,-532.66 900.52,-532.58 892.18,-526.04 889.92,-532.66"/>
</g>
<!-- Node8&#45;&gt;Node14 -->
<g id="edge13" class="edge">
<title>Node8&#45;&gt;Node14</title>
<path fill="none" stroke="#63b8ff" d="M825.98,-459.54C850.4,-454.71 879.84,-448.89 905.5,-443.81"/>
<polygon fill="#63b8ff" stroke="#63b8ff" points="906.11,-447.06 915.24,-441.69 904.75,-440.2 906.11,-447.06"/>
</g>
<!-- Node8&#45;&gt;Node15 -->
<g id="edge14" class="edge">
<title>Node8&#45;&gt;Node15</title>
<path fill="none" stroke="#63b8ff" d="M787.93,-479.59C802.19,-490.72 825.68,-509.43 845,-526.62 861.67,-541.46 861.41,-550.93 881,-561.62 885.48,-564.07 890.25,-566.22 895.16,-568.1"/>
<polygon fill="#63b8ff" stroke="#63b8ff" points="893.78,-571.68 904.38,-571.62 896.06,-565.06 893.78,-571.68"/>
</g>
<!-- Node8&#45;&gt;Node16 -->
<g id="edge15" class="edge">
<title>Node8&#45;&gt;Node16</title>
<path fill="none" stroke="#63b8ff" d="M790.15,-459.66C810.15,-446.94 846.84,-425.08 881,-412.62 886.16,-410.74 891.57,-409.04 897.06,-407.49"/>
<polygon fill="#63b8ff" stroke="#63b8ff" points="897.87,-410.63 906.66,-404.71 896.1,-403.86 897.87,-410.63"/>
</g>
<!-- Node11 -->
<g id="node11" class="node">
<title>Node11</title>
<g id="a_node11"><a xlink:href="classsss_1_1WebClient.html#a88dbcc61562e84aa9ebf1eabf887ac28" target="_top" xlink:title=" ">
<polygon fill="white" stroke="#666666" points="1255.75,-521.25 1091.25,-521.25 1091.25,-502 1255.75,-502 1255.75,-521.25"/>
<text text-anchor="middle" x="1173.5" y="-507.75" font-family="Helvetica,sans-Serif" font-size="10.00">sss::WebClient::SetReadFunction</text>
</a>
</g>
</g>
<!-- Node10&#45;&gt;Node11 -->
<g id="edge10" class="edge">
<title>Node10&#45;&gt;Node11</title>
<path fill="none" stroke="#63b8ff" d="M1017.42,-478.68C1029.75,-481.26 1042.99,-484.04 1055.25,-486.62 1074.66,-490.72 1095.87,-495.24 1114.85,-499.29"/>
<polygon fill="#63b8ff" stroke="#63b8ff" points="1113.93,-502.88 1124.44,-501.55 1115.39,-496.03 1113.93,-502.88"/>
</g>
<!-- Node12 -->
<g id="node12" class="node">
<title>Node12</title>
<g id="a_node12"><a xlink:href="classsss_1_1WebClient.html#a002876073b3869a9b9a9d709d14f1d7e" target="_top" xlink:title=" ">
<polygon fill="white" stroke="#666666" points="1236.62,-483.88 1110.38,-483.88 1110.38,-453.38 1236.62,-453.38 1236.62,-483.88"/>
<text text-anchor="start" x="1118.38" y="-470.38" font-family="Helvetica,sans-Serif" font-size="10.00">sss::WebClient::SetWrite</text>
<text text-anchor="middle" x="1173.5" y="-459.12" font-family="Helvetica,sans-Serif" font-size="10.00">Function</text>
</a>
</g>
</g>
<!-- Node10&#45;&gt;Node12 -->
<g id="edge11" class="edge">
<title>Node10&#45;&gt;Node12</title>
<path fill="none" stroke="#63b8ff" d="M1055.67,-468.62C1070.23,-468.62 1085.21,-468.62 1099.39,-468.62"/>
<polygon fill="#63b8ff" stroke="#63b8ff" points="1099.05,-472.13 1109.05,-468.62 1099.05,-465.13 1099.05,-472.13"/>
</g>
<!-- Node21 -->
<g id="node21" class="node">
<title>Node21</title>
<g id="a_node21"><a xlink:href="lib_2include_2utility_8h.html#ae153c064d6f1beda845702f67605b20e" target="_top" xlink:title=" ">
<polygon fill="white" stroke="#666666" points="1210.75,-195.25 1136.25,-195.25 1136.25,-176 1210.75,-176 1210.75,-195.25"/>
<text text-anchor="middle" x="1173.5" y="-181.75" font-family="Helvetica,sans-Serif" font-size="10.00">sss::ToUpper</text>
</a>
</g>
</g>
<!-- Node20&#45;&gt;Node21 -->
<g id="edge21" class="edge">
<title>Node20&#45;&gt;Node21</title>
<path fill="none" stroke="#63b8ff" d="M842.43,-203.89C922.75,-199.45 1054.85,-192.14 1125.11,-188.25"/>
<polygon fill="#63b8ff" stroke="#63b8ff" points="1125.04,-191.7 1134.83,-187.65 1124.66,-184.71 1125.04,-191.7"/>
</g>
<!-- Node21&#45;&gt;Node21 -->
<g id="edge22" class="edge">
<title>Node21&#45;&gt;Node21</title>
<path fill="none" stroke="#63b8ff" d="M1141.35,-195.54C1126.68,-204.15 1137.4,-213.25 1173.5,-213.25 1196.63,-213.25 1209.34,-209.51 1211.63,-204.56"/>
<polygon fill="#63b8ff" stroke="#63b8ff" points="1214.09,-202.94 1205.65,-196.54 1208.26,-206.81 1214.09,-202.94"/>
</g>
<!-- Node23 -->
<g id="node23" class="node">
<title>Node23</title>
<g id="a_node23"><a xlink:href="group__Ranges.html#ga0aa7f3b15d2ebf9b597a1b5ba38ae8ac" target="_top" xlink:title="return iterator at start position">
<polygon fill="white" stroke="#666666" points="1204,-435.25 1143,-435.25 1143,-416 1204,-416 1204,-435.25"/>
<text text-anchor="middle" x="1173.5" y="-421.75" font-family="Helvetica,sans-Serif" font-size="10.00">sss::begin</text>
</a>
</g>
</g>
<!-- Node22&#45;&gt;Node23 -->
<g id="edge26" class="edge">
<title>Node22&#45;&gt;Node23</title>
<path fill="none" stroke="#63b8ff" d="M821.5,-350.08C878.88,-345.19 978.28,-343.18 1055.25,-375.62 1074.98,-383.94 1072.19,-397.89 1091.25,-407.62 1103.84,-414.06 1118.67,-418.2 1132.2,-420.87"/>
<polygon fill="#63b8ff" stroke="#63b8ff" points="1131.24,-424.43 1141.7,-422.7 1132.45,-417.53 1131.24,-424.43"/>
</g>
<!-- Node24 -->
<g id="node24" class="node">
<title>Node24</title>
<g id="a_node24"><a xlink:href="group__Sign.html#ga904d511ec786b87644cc90dc96dd8f3f" target="_top" xlink:title="Compute signature.">
<polygon fill="white" stroke="#666666" points="1027.5,-288.25 908.75,-288.25 908.75,-269 1027.5,-269 1027.5,-288.25"/>
<text text-anchor="middle" x="968.12" y="-274.75" font-family="Helvetica,sans-Serif" font-size="10.00">sss::ComputeSignature</text>
</a>
</g>
</g>
<!-- Node22&#45;&gt;Node24 -->
<g id="edge27" class="edge">
<title>Node22&#45;&gt;Node24</title>
<path fill="none" stroke="#63b8ff" d="M821.41,-347.12C829.54,-344.68 837.72,-341.57 845,-337.62 864.08,-327.28 862.14,-315.36 881,-304.62 889.86,-299.58 899.81,-295.41 909.71,-292.01"/>
<polygon fill="#63b8ff" stroke="#63b8ff" points="910.51,-295.11 918.97,-288.73 908.38,-288.44 910.51,-295.11"/>
</g>
<!-- Node26 -->
<g id="node26" class="node">
<title>Node26</title>
<g id="a_node26"><a xlink:href="group__Ranges.html#ga4f73053571587e79eb3db628f5e6ef99" target="_top" xlink:title="return iterator at end position">
<polygon fill="white" stroke="#666666" points="1200.25,-398.25 1146.75,-398.25 1146.75,-379 1200.25,-379 1200.25,-398.25"/>
<text text-anchor="middle" x="1173.5" y="-384.75" font-family="Helvetica,sans-Serif" font-size="10.00">sss::end</text>
</a>
</g>
</g>
<!-- Node22&#45;&gt;Node26 -->
<g id="edge38" class="edge">
<title>Node22&#45;&gt;Node26</title>
<path fill="none" stroke="#63b8ff" d="M811.6,-345.56C866.3,-332.36 971.86,-314.01 1055.25,-342.62 1074.42,-349.2 1072.91,-362 1091.25,-370.62 1105.11,-377.14 1121.42,-381.35 1135.77,-384.04"/>
<polygon fill="#63b8ff" stroke="#63b8ff" points="1134.85,-387.6 1145.3,-385.81 1136.02,-380.7 1134.85,-387.6"/>
</g>
<!-- Node24&#45;&gt;Node21 -->
<g id="edge36" class="edge">
<title>Node24&#45;&gt;Node21</title>
<path fill="none" stroke="#63b8ff" d="M990.25,-268.61C1014.55,-257.13 1055.68,-237.8 1091.25,-221.62 1107.11,-214.41 1124.79,-206.56 1139.6,-200.03"/>
<polygon fill="#63b8ff" stroke="#63b8ff" points="1140.59,-202.98 1148.33,-195.75 1137.77,-196.57 1140.59,-202.98"/>
</g>
<!-- Node24&#45;&gt;Node23 -->
<g id="edge28" class="edge">
<title>Node24&#45;&gt;Node23</title>
<path fill="none" stroke="#63b8ff" d="M986.71,-288.57C1005.45,-299.83 1035.13,-319.63 1055.25,-342.62 1076.99,-367.48 1064.79,-387.86 1091.25,-407.62 1102.85,-416.29 1117.82,-420.93 1131.74,-423.37"/>
<polygon fill="#63b8ff" stroke="#63b8ff" points="1131.21,-426.97 1141.6,-424.88 1132.18,-420.03 1131.21,-426.97"/>
</g>
<!-- Node25 -->
<g id="node25" class="node">
<title>Node25</title>
<g id="a_node25"><a xlink:href="group__Internal.html#ga74c69f25ce04876e114759c0023b2a12" target="_top" xlink:title=" ">
<polygon fill="white" stroke="#666666" points="1236.25,-287.25 1110.75,-287.25 1110.75,-268 1236.25,-268 1236.25,-287.25"/>
<text text-anchor="middle" x="1173.5" y="-273.75" font-family="Helvetica,sans-Serif" font-size="10.00">sss::CreateSignatureKey</text>
</a>
</g>
</g>
<!-- Node24&#45;&gt;Node25 -->
<g id="edge29" class="edge">
<title>Node24&#45;&gt;Node25</title>
<path fill="none" stroke="#63b8ff" d="M1027.95,-278.34C1050.23,-278.23 1075.87,-278.1 1099.31,-277.98"/>
<polygon fill="#63b8ff" stroke="#63b8ff" points="1099.28,-281.48 1109.26,-277.93 1099.25,-274.48 1099.28,-281.48"/>
</g>
<!-- Node24&#45;&gt;Node26 -->
<g id="edge30" class="edge">
<title>Node24&#45;&gt;Node26</title>
<path fill="none" stroke="#63b8ff" d="M1025.12,-288.62C1035.89,-292.37 1046.52,-297.53 1055.25,-304.62 1081.18,-325.7 1064.54,-350.54 1091.25,-370.62 1103.98,-380.2 1120.81,-384.86 1135.86,-387.07"/>
<polygon fill="#63b8ff" stroke="#63b8ff" points="1135.07,-390.62 1145.41,-388.28 1135.87,-383.67 1135.07,-390.62"/>
</g>
<!-- Node27 -->
<g id="node27" class="node">
<title>Node27</title>
<g id="a_node27"><a xlink:href="group__Internal.html#ga50353a351a93b1213dc4e5211c767d85" target="_top" xlink:title=" ">
<polygon fill="white" stroke="#666666" points="1213.38,-250.25 1133.62,-250.25 1133.62,-231 1213.38,-231 1213.38,-250.25"/>
<text text-anchor="middle" x="1173.5" y="-236.75" font-family="Helvetica,sans-Serif" font-size="10.00">sss::GetDates</text>
</a>
</g>
</g>
<!-- Node24&#45;&gt;Node27 -->
<g id="edge31" class="edge">
<title>Node24&#45;&gt;Node27</title>
<path fill="none" stroke="#63b8ff" d="M1023.09,-268.54C1054.01,-262.76 1092.54,-255.57 1122.73,-249.92"/>
<polygon fill="#63b8ff" stroke="#63b8ff" points="1123.26,-253.2 1132.44,-247.92 1121.97,-246.32 1123.26,-253.2"/>
</g>
<!-- Node28 -->
<g id="node28" class="node">
<title>Node28</title>
<g id="a_node28"><a xlink:href="group__Internal.html#ga990dfaae4abc6bf20a28f9772b7bcd16" target="_top" xlink:title="Byte to hex string conversion.">
<polygon fill="white" stroke="#666666" points="1201.38,-361.25 1145.62,-361.25 1145.62,-342 1201.38,-342 1201.38,-361.25"/>
<text text-anchor="middle" x="1173.5" y="-347.75" font-family="Helvetica,sans-Serif" font-size="10.00">sss::Hex</text>
</a>
</g>
</g>
<!-- Node24&#45;&gt;Node28 -->
<g id="edge32" class="edge">
<title>Node24&#45;&gt;Node28</title>
<path fill="none" stroke="#63b8ff" d="M1014.23,-288.71C1027.85,-292.67 1042.54,-297.92 1055.25,-304.62 1073.42,-314.22 1072.73,-324.72 1091.25,-333.62 1104.61,-340.05 1120.31,-344.21 1134.32,-346.9"/>
<polygon fill="#63b8ff" stroke="#63b8ff" points="1133.68,-350.51 1144.13,-348.75 1134.86,-343.61 1133.68,-350.51"/>
</g>
<!-- Node29 -->
<g id="node29" class="node">
<title>Node29</title>
<g id="a_node29"><a xlink:href="group__Internal.html#ga7160aa316f2c6633467b47588263c690" target="_top" xlink:title=" ">
<polygon fill="white" stroke="#666666" points="1215.25,-324.25 1131.75,-324.25 1131.75,-305 1215.25,-305 1215.25,-324.25"/>
<text text-anchor="middle" x="1173.5" y="-310.75" font-family="Helvetica,sans-Serif" font-size="10.00">sss::ParseURL</text>
</a>
</g>
</g>
<!-- Node24&#45;&gt;Node29 -->
<g id="edge33" class="edge">
<title>Node24&#45;&gt;Node29</title>
<path fill="none" stroke="#63b8ff" d="M1026.32,-288.75C1056.01,-294 1092,-300.38 1120.85,-305.48"/>
<polygon fill="#63b8ff" stroke="#63b8ff" points="1120.06,-309.07 1130.52,-307.37 1121.28,-302.18 1120.06,-309.07"/>
</g>
<!-- Node24&#45;&gt;Node30 -->
<g id="edge34" class="edge">
<title>Node24&#45;&gt;Node30</title>
<path fill="none" stroke="#63b8ff" d="M977.75,-268.79C996.6,-247.76 1043.59,-197.82 1091.25,-166.62 1104.44,-157.99 1120.05,-150.51 1134.04,-144.64"/>
<polygon fill="#63b8ff" stroke="#63b8ff" points="1134.93,-147.65 1142.89,-140.66 1132.3,-141.17 1134.93,-147.65"/>
</g>
<!-- Node31 -->
<g id="node31" class="node">
<title>Node31</title>
<g id="a_node31"><a xlink:href="group__Internal.html#ga0f079ace8729714b3949eabe22f228c9" target="_top" xlink:title=" ">
<polygon fill="white" stroke="#666666" points="1215.25,-102.25 1131.75,-102.25 1131.75,-83 1215.25,-83 1215.25,-102.25"/>
<text text-anchor="middle" x="1173.5" y="-88.75" font-family="Helvetica,sans-Serif" font-size="10.00">sss::UrlEncode</text>
</a>
</g>
</g>
<!-- Node24&#45;&gt;Node31 -->
<g id="edge37" class="edge">
<title>Node24&#45;&gt;Node31</title>
<path fill="none" stroke="#63b8ff" d="M973.26,-268.84C986.07,-239.78 1028.05,-153.45 1091.25,-111.62 1100.04,-105.81 1110.39,-101.77 1120.71,-98.96"/>
<polygon fill="#63b8ff" stroke="#63b8ff" points="1121.45,-102.14 1130.38,-96.45 1119.85,-95.33 1121.45,-102.14"/>
</g>
<!-- Node30&#45;&gt;Node30 -->
<g id="edge35" class="edge">
<title>Node30&#45;&gt;Node30</title>
<path fill="none" stroke="#63b8ff" d="M1141.35,-140.54C1126.68,-149.15 1137.4,-158.25 1173.5,-158.25 1196.63,-158.25 1209.34,-154.51 1211.63,-149.56"/>
<polygon fill="#63b8ff" stroke="#63b8ff" points="1214.09,-147.94 1205.65,-141.54 1208.26,-151.81 1214.09,-147.94"/>
</g>
<!-- Node35&#45;&gt;Node31 -->
<g id="edge44" class="edge">
<title>Node35&#45;&gt;Node31</title>
<path fill="none" stroke="#63b8ff" d="M667.29,-90.02C787.73,-90.64 1018.11,-91.83 1120.84,-92.36"/>
<polygon fill="#63b8ff" stroke="#63b8ff" points="1120.53,-95.86 1130.55,-92.41 1120.57,-88.86 1120.53,-95.86"/>
</g>
<!-- Node36&#45;&gt;Node20 -->
<g id="edge48" class="edge">
<title>Node36&#45;&gt;Node20</title>
<path fill="none" stroke="#63b8ff" d="M660.35,-211.33C671.63,-210.96 683.37,-210.57 694.84,-210.2"/>
<polygon fill="#63b8ff" stroke="#63b8ff" points="694.84,-213.67 704.72,-209.84 694.61,-206.67 694.84,-213.67"/>
</g>
<!-- Node36&#45;&gt;Node34 -->
<g id="edge47" class="edge">
<title>Node36&#45;&gt;Node34</title>
<path fill="none" stroke="#63b8ff" d="M657.24,-197.92C677.76,-193.08 700.07,-187.82 719.58,-183.22"/>
<polygon fill="#63b8ff" stroke="#63b8ff" points="720.18,-186.44 729.11,-180.74 718.57,-179.63 720.18,-186.44"/>
</g>
</g>
</svg>
