<?xml version="1.0" encoding="UTF-8" standalone="no"?>
<!DOCTYPE svg PUBLIC "-//W3C//DTD SVG 1.1//EN"
 "http://www.w3.org/Graphics/SVG/1.1/DTD/svg11.dtd">
<!-- Generated by graphviz version 8.0.5 (20230430.1635)
 -->
<!-- Title: sss::api::S3Api::GetFileObject Pages: 1 -->
<svg width="870pt" height="548pt"
 viewBox="0.00 0.00 870.25 548.35" xmlns="http://www.w3.org/2000/svg" xmlns:xlink="http://www.w3.org/1999/xlink">
<g id="graph0" class="graph" transform="scale(1 1) rotate(0) translate(4 544.35)">
<title>sss::api::S3Api::GetFileObject</title>
<!-- Node1 -->
<g id="node1" class="node">
<title>Node1</title>
<g id="a_node1"><a xlink:title="Download object into file.">
<polygon fill="#999999" stroke="#666666" points="120.25,-194.88 0,-194.88 0,-164.38 120.25,-164.38 120.25,-194.88"/>
<text text-anchor="start" x="8" y="-181.38" font-family="Helvetica,sans-Serif" font-size="10.00">sss::api::S3Api::GetFile</text>
<text text-anchor="middle" x="60.12" y="-170.12" font-family="Helvetica,sans-Serif" font-size="10.00">Object</text>
</a>
</g>
</g>
<!-- Node2 -->
<g id="node2" class="node">
<title>Node2</title>
<g id="a_node2"><a xlink:href="group__Ranges.html#ga0aa7f3b15d2ebf9b597a1b5ba38ae8ac" target="_top" xlink:title="return iterator at start position">
<polygon fill="white" stroke="#666666" points="810.5,-539.25 749.5,-539.25 749.5,-520 810.5,-520 810.5,-539.25"/>
<text text-anchor="middle" x="780" y="-525.75" font-family="Helvetica,sans-Serif" font-size="10.00">sss::begin</text>
</a>
</g>
</g>
<!-- Node1&#45;&gt;Node2 -->
<g id="edge1" class="edge">
<title>Node1&#45;&gt;Node2</title>
<path fill="none" stroke="#63b8ff" d="M63.83,-195.1C71.57,-235.41 97.16,-345.29 156.25,-413.62 207.91,-473.37 234.02,-480.35 309.5,-503.62 462.02,-550.66 655.42,-541.02 738.3,-533.83"/>
<polygon fill="#63b8ff" stroke="#63b8ff" points="738.37,-537.25 748.01,-532.87 737.74,-530.28 738.37,-537.25"/>
</g>
<!-- Node3 -->
<g id="node3" class="node">
<title>Node3</title>
<g id="a_node3"><a xlink:href="classsss_1_1api_1_1S3Api.html#a840772746fbb0a79c161037da7b24a31" target="_top" xlink:title="Configure instance.">
<polygon fill="white" stroke="#666666" points="273.5,-284.25 156.25,-284.25 156.25,-265 273.5,-265 273.5,-284.25"/>
<text text-anchor="middle" x="214.88" y="-270.75" font-family="Helvetica,sans-Serif" font-size="10.00">sss::api::S3Api::Config</text>
</a>
</g>
</g>
<!-- Node1&#45;&gt;Node3 -->
<g id="edge2" class="edge">
<title>Node1&#45;&gt;Node3</title>
<path fill="none" stroke="#63b8ff" d="M86.35,-195.31C114.7,-212.94 160.45,-241.4 188.75,-259"/>
<polygon fill="#63b8ff" stroke="#63b8ff" points="186.64,-262.43 196.98,-264.74 190.34,-256.49 186.64,-262.43"/>
</g>
<!-- Node9 -->
<g id="node9" class="node">
<title>Node9</title>
<g id="a_node9"><a xlink:href="classsss_1_1WebClient.html#a002876073b3869a9b9a9d709d14f1d7e" target="_top" xlink:title=" ">
<polygon fill="white" stroke="#666666" points="843.12,-116.88 716.88,-116.88 716.88,-86.38 843.12,-86.38 843.12,-116.88"/>
<text text-anchor="start" x="724.88" y="-103.38" font-family="Helvetica,sans-Serif" font-size="10.00">sss::WebClient::SetWrite</text>
<text text-anchor="middle" x="780" y="-92.12" font-family="Helvetica,sans-Serif" font-size="10.00">Function</text>
</a>
</g>
</g>
<!-- Node1&#45;&gt;Node9 -->
<g id="edge39" class="edge">
<title>Node1&#45;&gt;Node9</title>
<path fill="none" stroke="#63b8ff" d="M105.31,-163.99C154.45,-147.4 236.54,-122.04 309.5,-110.62 448.24,-88.93 612.83,-92.35 705.67,-96.92"/>
<polygon fill="#63b8ff" stroke="#63b8ff" points="705.47,-100.46 715.64,-97.48 705.83,-93.47 705.47,-100.46"/>
</g>
<!-- Node22 -->
<g id="node22" class="node">
<title>Node22</title>
<g id="a_node22"><a xlink:href="group__Ranges.html#ga4f73053571587e79eb3db628f5e6ef99" target="_top" xlink:title="return iterator at end position">
<polygon fill="white" stroke="#666666" points="806.75,-502.25 753.25,-502.25 753.25,-483 806.75,-483 806.75,-502.25"/>
<text text-anchor="middle" x="780" y="-488.75" font-family="Helvetica,sans-Serif" font-size="10.00">sss::end</text>
</a>
</g>
</g>
<!-- Node1&#45;&gt;Node22 -->
<g id="edge36" class="edge">
<title>Node1&#45;&gt;Node22</title>
<path fill="none" stroke="#63b8ff" d="M68.16,-195.28C92.54,-247.36 179.09,-415.03 309.5,-478.62 385.29,-515.58 645.04,-501.97 742.06,-495.37"/>
<polygon fill="#63b8ff" stroke="#63b8ff" points="742.06,-498.81 751.79,-494.62 741.57,-491.82 742.06,-498.81"/>
</g>
<!-- Node28 -->
<g id="node28" class="node">
<title>Node28</title>
<g id="a_node28"><a xlink:href="group__ErrorHandling.html#ga781648957bfce0bbc86cbdbff94e28a6" target="_top" xlink:title=" ">
<polygon fill="white" stroke="#666666" points="259.62,-56.25 170.12,-56.25 170.12,-37 259.62,-37 259.62,-56.25"/>
<text text-anchor="middle" x="214.88" y="-42.75" font-family="Helvetica,sans-Serif" font-size="10.00">sss::HandleError</text>
</a>
</g>
</g>
<!-- Node1&#45;&gt;Node28 -->
<g id="edge37" class="edge">
<title>Node1&#45;&gt;Node28</title>
<path fill="none" stroke="#63b8ff" d="M71.33,-163.88C87.08,-140.68 119.36,-97.19 156.25,-70.62 161.26,-67.01 166.9,-63.82 172.64,-61.04"/>
<polygon fill="#63b8ff" stroke="#63b8ff" points="173.58,-64.01 181.3,-56.75 170.74,-57.61 173.58,-64.01"/>
</g>
<!-- Node29 -->
<g id="node29" class="node">
<title>Node29</title>
<g id="a_node29"><a xlink:href="classsss_1_1WebClient.html#aa1d7484f0e09242ce53b24f9648ce50e" target="_top" xlink:title=" ">
<polygon fill="white" stroke="#666666" points="270.5,-19.25 159.25,-19.25 159.25,0 270.5,0 270.5,-19.25"/>
<text text-anchor="middle" x="214.88" y="-5.75" font-family="Helvetica,sans-Serif" font-size="10.00">sss::WebClient::Send</text>
</a>
</g>
</g>
<!-- Node1&#45;&gt;Node29 -->
<g id="edge38" class="edge">
<title>Node1&#45;&gt;Node29</title>
<path fill="none" stroke="#63b8ff" d="M66.57,-164.16C78.15,-133.49 108.19,-64.71 156.25,-27.62 157.52,-26.64 158.85,-25.72 160.21,-24.84"/>
<polygon fill="#63b8ff" stroke="#63b8ff" points="161.58,-27.54 168.75,-19.75 158.28,-21.37 161.58,-27.54"/>
</g>
<!-- Node4 -->
<g id="node4" class="node">
<title>Node4</title>
<g id="a_node4"><a xlink:href="classsss_1_1api_1_1S3Api.html#aea9741d60e74775ccd4de1c2c58f64fa" target="_top" xlink:title=" ">
<polygon fill="white" stroke="#666666" points="441.38,-284.25 319.62,-284.25 319.62,-265 441.38,-265 441.38,-284.25"/>
<text text-anchor="middle" x="380.5" y="-270.75" font-family="Helvetica,sans-Serif" font-size="10.00">sss::api::S3Api::Access</text>
</a>
</g>
</g>
<!-- Node3&#45;&gt;Node4 -->
<g id="edge3" class="edge">
<title>Node3&#45;&gt;Node4</title>
<path fill="none" stroke="#63b8ff" d="M273.56,-274.62C284.9,-274.62 296.93,-274.62 308.64,-274.62"/>
<polygon fill="#63b8ff" stroke="#63b8ff" points="308.29,-278.13 318.29,-274.62 308.29,-271.13 308.29,-278.13"/>
</g>
<!-- Node5 -->
<g id="node5" class="node">
<title>Node5</title>
<g id="a_node5"><a xlink:href="classsss_1_1api_1_1S3Api.html#a3718745d3b940462ae9f3b78f773b3a6" target="_top" xlink:title="Clear data and reset read and write functions.">
<polygon fill="white" stroke="#666666" points="436.5,-208.25 324.5,-208.25 324.5,-189 436.5,-189 436.5,-208.25"/>
<text text-anchor="middle" x="380.5" y="-194.75" font-family="Helvetica,sans-Serif" font-size="10.00">sss::api::S3Api::Clear</text>
</a>
</g>
</g>
<!-- Node3&#45;&gt;Node5 -->
<g id="edge4" class="edge">
<title>Node3&#45;&gt;Node5</title>
<path fill="none" stroke="#63b8ff" d="M232,-264.52C250.31,-253.31 281.3,-235.17 309.5,-222.62 317.94,-218.87 327.15,-215.33 336.05,-212.19"/>
<polygon fill="#63b8ff" stroke="#63b8ff" points="336.95,-215.23 345.27,-208.68 334.68,-208.61 336.95,-215.23"/>
</g>
<!-- Node10 -->
<g id="node10" class="node">
<title>Node10</title>
<g id="a_node10"><a xlink:href="classsss_1_1WebClient.html#a75890c14fbe4a4bbac61718a4f3c064d" target="_top" xlink:title=" ">
<polygon fill="white" stroke="#666666" points="644.88,-317.25 504.38,-317.25 504.38,-298 644.88,-298 644.88,-317.25"/>
<text text-anchor="middle" x="574.62" y="-303.75" font-family="Helvetica,sans-Serif" font-size="10.00">sss::WebClient::SetHeaders</text>
</a>
</g>
</g>
<!-- Node3&#45;&gt;Node10 -->
<g id="edge16" class="edge">
<title>Node3&#45;&gt;Node10</title>
<path fill="none" stroke="#63b8ff" d="M243.91,-264.58C289.31,-249.99 380.95,-227.57 451.5,-255.62 471.95,-263.76 467.99,-279.43 487.5,-289.62 490.45,-291.17 493.52,-292.58 496.68,-293.87"/>
<polygon fill="#63b8ff" stroke="#63b8ff" points="495.37,-297.48 505.96,-297.58 497.75,-290.89 495.37,-297.48"/>
</g>
<!-- Node11 -->
<g id="node11" class="node">
<title>Node11</title>
<g id="a_node11"><a xlink:href="classsss_1_1WebClient.html#a12b5db6b8c667024557ab58059d39994" target="_top" xlink:title=" ">
<polygon fill="white" stroke="#666666" points="636.62,-169.25 512.62,-169.25 512.62,-150 636.62,-150 636.62,-169.25"/>
<text text-anchor="middle" x="574.62" y="-155.75" font-family="Helvetica,sans-Serif" font-size="10.00">sss::WebClient::SetPath</text>
</a>
</g>
</g>
<!-- Node3&#45;&gt;Node11 -->
<g id="edge20" class="edge">
<title>Node3&#45;&gt;Node11</title>
<path fill="none" stroke="#63b8ff" d="M222.11,-264.56C235.32,-244.26 268.32,-198.72 309.5,-179.62 369.93,-151.61 446.53,-148.89 501.66,-151.82"/>
<polygon fill="#63b8ff" stroke="#63b8ff" points="501.19,-155.36 511.39,-152.47 501.62,-148.37 501.19,-155.36"/>
</g>
<!-- Node13 -->
<g id="node13" class="node">
<title>Node13</title>
<g id="a_node13"><a xlink:href="classsss_1_1WebClient.html#a9bf978d95b79728f6d60fc2bdb4fe546" target="_top" xlink:title=" ">
<polygon fill="white" stroke="#666666" points="660.62,-132.25 488.62,-132.25 488.62,-113 660.62,-113 660.62,-132.25"/>
<text text-anchor="middle" x="574.62" y="-118.75" font-family="Helvetica,sans-Serif" font-size="10.00">sss::WebClient::SetReqParameters</text>
</a>
</g>
</g>
<!-- Node3&#45;&gt;Node13 -->
<g id="edge21" class="edge">
<title>Node3&#45;&gt;Node13</title>
<path fill="none" stroke="#63b8ff" d="M219.72,-264.8C229.99,-240.08 260.63,-175.28 309.5,-147.62 360.04,-119.03 424.85,-112.53 477.62,-113.31"/>
<polygon fill="#63b8ff" stroke="#63b8ff" points="477.27,-116.82 487.35,-113.57 477.44,-109.83 477.27,-116.82"/>
</g>
<!-- Node14 -->
<g id="node14" class="node">
<title>Node14</title>
<g id="a_node14"><a xlink:href="classsss_1_1api_1_1S3Api.html#a25a999d87c121627166fc0a896f536c7" target="_top" xlink:title=" ">
<polygon fill="white" stroke="#666666" points="444,-432.25 317,-432.25 317,-413 444,-413 444,-432.25"/>
<text text-anchor="middle" x="380.5" y="-418.75" font-family="Helvetica,sans-Serif" font-size="10.00">sss::api::S3Api::Endpoint</text>
</a>
</g>
</g>
<!-- Node3&#45;&gt;Node14 -->
<g id="edge13" class="edge">
<title>Node3&#45;&gt;Node14</title>
<path fill="none" stroke="#63b8ff" d="M220.09,-284.58C231.01,-309.07 262.64,-372.63 309.5,-404.62 311.25,-405.82 313.07,-406.93 314.95,-407.98"/>
<polygon fill="#63b8ff" stroke="#63b8ff" points="313.19,-411.49 323.73,-412.59 316.18,-405.16 313.19,-411.49"/>
</g>
<!-- Node15 -->
<g id="node15" class="node">
<title>Node15</title>
<g id="a_node15"><a xlink:href="classsss_1_1api_1_1S3Api.html#a6f518c16679e99f119966b36ac28463f" target="_top" xlink:title=" ">
<polygon fill="white" stroke="#666666" points="439.12,-395.25 321.88,-395.25 321.88,-376 439.12,-376 439.12,-395.25"/>
<text text-anchor="middle" x="380.5" y="-381.75" font-family="Helvetica,sans-Serif" font-size="10.00">sss::api::S3Api::Secret</text>
</a>
</g>
</g>
<!-- Node3&#45;&gt;Node15 -->
<g id="edge14" class="edge">
<title>Node3&#45;&gt;Node15</title>
<path fill="none" stroke="#63b8ff" d="M222.89,-284.48C237.02,-303.58 270.86,-345.66 309.5,-367.62 312.02,-369.06 314.66,-370.38 317.37,-371.6"/>
<polygon fill="#63b8ff" stroke="#63b8ff" points="315.84,-375.15 326.43,-375.57 318.41,-368.64 315.84,-375.15"/>
</g>
<!-- Node16 -->
<g id="node16" class="node">
<title>Node16</title>
<g id="a_node16"><a xlink:href="classsss_1_1WebClient.html#afc3b7a92568fbb1ea447918920ca266e" target="_top" xlink:title="Set endpoint: &lt;proto&gt;://&lt;server&gt;:&lt;port&gt;">
<polygon fill="white" stroke="#666666" points="451.5,-321.25 309.5,-321.25 309.5,-302 451.5,-302 451.5,-321.25"/>
<text text-anchor="middle" x="380.5" y="-307.75" font-family="Helvetica,sans-Serif" font-size="10.00">sss::WebClient::SetEndpoint</text>
</a>
</g>
</g>
<!-- Node3&#45;&gt;Node16 -->
<g id="edge15" class="edge">
<title>Node3&#45;&gt;Node16</title>
<path fill="none" stroke="#63b8ff" d="M260.59,-284.74C280.25,-289.18 303.53,-294.45 324.27,-299.14"/>
<polygon fill="#63b8ff" stroke="#63b8ff" points="323.32,-302.73 333.84,-301.53 324.86,-295.91 323.32,-302.73"/>
</g>
<!-- Node17 -->
<g id="node17" class="node">
<title>Node17</title>
<g id="a_node17"><a xlink:href="classsss_1_1WebClient.html#af6233ffd7b294e1e7e606e838dd44e9e" target="_top" xlink:title=" ">
<polygon fill="white" stroke="#666666" points="448.5,-358.25 312.5,-358.25 312.5,-339 448.5,-339 448.5,-358.25"/>
<text text-anchor="middle" x="380.5" y="-344.75" font-family="Helvetica,sans-Serif" font-size="10.00">sss::WebClient::SetMethod</text>
</a>
</g>
</g>
<!-- Node3&#45;&gt;Node17 -->
<g id="edge17" class="edge">
<title>Node3&#45;&gt;Node17</title>
<path fill="none" stroke="#63b8ff" d="M229.79,-284.7C247.51,-297.11 279.44,-318.08 309.5,-330.62 313.6,-332.34 317.91,-333.92 322.29,-335.38"/>
<polygon fill="#63b8ff" stroke="#63b8ff" points="320.98,-338.95 331.57,-338.55 323.05,-332.26 320.98,-338.95"/>
</g>
<!-- Node19 -->
<g id="node19" class="node">
<title>Node19</title>
<g id="a_node19"><a xlink:href="group__Sign.html#ga3ae8e18ef70752b7369fca66c40c526b" target="_top" xlink:title="Sign headers.">
<polygon fill="white" stroke="#666666" points="427.5,-469.25 333.5,-469.25 333.5,-450 427.5,-450 427.5,-469.25"/>
<text text-anchor="middle" x="380.5" y="-455.75" font-family="Helvetica,sans-Serif" font-size="10.00">sss::SignHeaders</text>
</a>
</g>
</g>
<!-- Node3&#45;&gt;Node19 -->
<g id="edge22" class="edge">
<title>Node3&#45;&gt;Node19</title>
<path fill="none" stroke="#63b8ff" d="M218.5,-284.74C226.62,-313.95 254.18,-399.06 309.5,-441.62 313.63,-444.81 318.27,-447.43 323.14,-449.59"/>
<polygon fill="#63b8ff" stroke="#63b8ff" points="321.77,-453.19 332.36,-453.41 324.22,-446.63 321.77,-453.19"/>
</g>
<!-- Node6 -->
<g id="node6" class="node">
<title>Node6</title>
<g id="a_node6"><a xlink:href="classsss_1_1WebClient.html#a381f5715b7a2f19a0d4414d278874bae" target="_top" xlink:title="Clear internal buffers.">
<polygon fill="white" stroke="#666666" points="646.38,-243.25 502.88,-243.25 502.88,-224 646.38,-224 646.38,-243.25"/>
<text text-anchor="middle" x="574.62" y="-229.75" font-family="Helvetica,sans-Serif" font-size="10.00">sss::WebClient::ClearBuffers</text>
</a>
</g>
</g>
<!-- Node5&#45;&gt;Node6 -->
<g id="edge5" class="edge">
<title>Node5&#45;&gt;Node6</title>
<path fill="none" stroke="#63b8ff" d="M436.81,-208.7C458.92,-212.73 484.56,-217.4 507.63,-221.6"/>
<polygon fill="#63b8ff" stroke="#63b8ff" points="506.9,-225.21 517.37,-223.56 508.16,-218.32 506.9,-225.21"/>
</g>
<!-- Node7 -->
<g id="node7" class="node">
<title>Node7</title>
<g id="a_node7"><a xlink:href="classsss_1_1WebClient.html#a96837f149bb473853a6523d096a25c56" target="_top" xlink:title="Reset read/write functions to default.">
<polygon fill="white" stroke="#666666" points="661.75,-206.25 487.5,-206.25 487.5,-187 661.75,-187 661.75,-206.25"/>
<text text-anchor="middle" x="574.62" y="-192.75" font-family="Helvetica,sans-Serif" font-size="10.00">sss::WebClient::ResetRWFunctions</text>
</a>
</g>
</g>
<!-- Node5&#45;&gt;Node7 -->
<g id="edge6" class="edge">
<title>Node5&#45;&gt;Node7</title>
<path fill="none" stroke="#63b8ff" d="M436.81,-198.05C449.23,-197.92 462.77,-197.78 476.34,-197.64"/>
<polygon fill="#63b8ff" stroke="#63b8ff" points="476.25,-201.13 486.21,-197.52 476.17,-194.13 476.25,-201.13"/>
</g>
<!-- Node5&#45;&gt;Node10 -->
<g id="edge9" class="edge">
<title>Node5&#45;&gt;Node10</title>
<path fill="none" stroke="#63b8ff" d="M427.08,-208.72C435.83,-212.12 444.45,-216.64 451.5,-222.62 477.27,-244.51 460.42,-269.39 487.5,-289.62 489.62,-291.21 491.84,-292.66 494.15,-293.99"/>
<polygon fill="#63b8ff" stroke="#63b8ff" points="492.51,-297.57 503.03,-298.8 495.57,-291.27 492.51,-297.57"/>
</g>
<!-- Node5&#45;&gt;Node11 -->
<g id="edge10" class="edge">
<title>Node5&#45;&gt;Node11</title>
<path fill="none" stroke="#63b8ff" d="M431.23,-188.53C456.24,-183.45 486.77,-177.26 513.14,-171.9"/>
<polygon fill="#63b8ff" stroke="#63b8ff" points="513.67,-175.16 522.77,-169.74 512.28,-168.3 513.67,-175.16"/>
</g>
<!-- Node12 -->
<g id="node12" class="node">
<title>Node12</title>
<g id="a_node12"><a xlink:href="classsss_1_1WebClient.html#a51ce0ecf6487b6a43072643fe4f4cb4e" target="_top" xlink:title=" ">
<polygon fill="white" stroke="#666666" points="647.12,-280.25 502.12,-280.25 502.12,-261 647.12,-261 647.12,-280.25"/>
<text text-anchor="middle" x="574.62" y="-266.75" font-family="Helvetica,sans-Serif" font-size="10.00">sss::WebClient::SetPostData</text>
</a>
</g>
</g>
<!-- Node5&#45;&gt;Node12 -->
<g id="edge11" class="edge">
<title>Node5&#45;&gt;Node12</title>
<path fill="none" stroke="#63b8ff" d="M418.92,-208.66C429.78,-212.31 441.42,-216.96 451.5,-222.62 469.65,-232.84 468.75,-243.56 487.5,-252.62 490.9,-254.27 494.45,-255.77 498.09,-257.13"/>
<polygon fill="#63b8ff" stroke="#63b8ff" points="496.93,-260.76 507.52,-260.61 499.14,-254.12 496.93,-260.76"/>
</g>
<!-- Node5&#45;&gt;Node13 -->
<g id="edge12" class="edge">
<title>Node5&#45;&gt;Node13</title>
<path fill="none" stroke="#63b8ff" d="M396.28,-188.7C416.17,-175.77 453.06,-153.33 487.5,-140.62 492.65,-138.72 498.06,-137 503.54,-135.45"/>
<polygon fill="#63b8ff" stroke="#63b8ff" points="504.36,-138.59 513.14,-132.66 502.58,-131.82 504.36,-138.59"/>
</g>
<!-- Node8 -->
<g id="node8" class="node">
<title>Node8</title>
<g id="a_node8"><a xlink:href="classsss_1_1WebClient.html#a88dbcc61562e84aa9ebf1eabf887ac28" target="_top" xlink:title=" ">
<polygon fill="white" stroke="#666666" points="862.25,-170.25 697.75,-170.25 697.75,-151 862.25,-151 862.25,-170.25"/>
<text text-anchor="middle" x="780" y="-156.75" font-family="Helvetica,sans-Serif" font-size="10.00">sss::WebClient::SetReadFunction</text>
</a>
</g>
</g>
<!-- Node7&#45;&gt;Node8 -->
<g id="edge7" class="edge">
<title>Node7&#45;&gt;Node8</title>
<path fill="none" stroke="#63b8ff" d="M632.82,-186.5C657.18,-182.19 685.79,-177.12 711.21,-172.63"/>
<polygon fill="#63b8ff" stroke="#63b8ff" points="711.65,-175.92 720.88,-170.74 710.43,-169.03 711.65,-175.92"/>
</g>
<!-- Node7&#45;&gt;Node9 -->
<g id="edge8" class="edge">
<title>Node7&#45;&gt;Node9</title>
<path fill="none" stroke="#63b8ff" d="M643.32,-186.55C649.74,-184.4 655.99,-181.79 661.75,-178.62 681.86,-167.57 679.19,-155.11 697.75,-141.62 707.88,-134.26 719.58,-127.61 730.88,-121.94"/>
<polygon fill="#63b8ff" stroke="#63b8ff" points="732.18,-124.71 739.66,-117.21 729.14,-118.41 732.18,-124.71"/>
</g>
<!-- Node18 -->
<g id="node18" class="node">
<title>Node18</title>
<g id="a_node18"><a xlink:href="lib_2include_2utility_8h.html#ae153c064d6f1beda845702f67605b20e" target="_top" xlink:title=" ">
<polygon fill="white" stroke="#666666" points="817.25,-447.25 742.75,-447.25 742.75,-428 817.25,-428 817.25,-447.25"/>
<text text-anchor="middle" x="780" y="-433.75" font-family="Helvetica,sans-Serif" font-size="10.00">sss::ToUpper</text>
</a>
</g>
</g>
<!-- Node17&#45;&gt;Node18 -->
<g id="edge18" class="edge">
<title>Node17&#45;&gt;Node18</title>
<path fill="none" stroke="#63b8ff" d="M426.27,-358.72C487.54,-372.52 600.95,-398.04 697.75,-419.62 708.86,-422.1 720.84,-424.76 732.08,-427.25"/>
<polygon fill="#63b8ff" stroke="#63b8ff" points="731.07,-430.84 741.59,-429.58 732.59,-424 731.07,-430.84"/>
</g>
<!-- Node18&#45;&gt;Node18 -->
<g id="edge19" class="edge">
<title>Node18&#45;&gt;Node18</title>
<path fill="none" stroke="#63b8ff" d="M747.85,-447.54C733.18,-456.15 743.9,-465.25 780,-465.25 803.13,-465.25 815.84,-461.51 818.13,-456.56"/>
<polygon fill="#63b8ff" stroke="#63b8ff" points="820.59,-454.94 812.15,-448.54 814.76,-458.81 820.59,-454.94"/>
</g>
<!-- Node19&#45;&gt;Node2 -->
<g id="edge23" class="edge">
<title>Node19&#45;&gt;Node2</title>
<path fill="none" stroke="#63b8ff" d="M427.88,-467.79C506.28,-481.6 663.75,-509.33 738.21,-522.44"/>
<polygon fill="#63b8ff" stroke="#63b8ff" points="737.54,-526.05 748,-524.34 738.76,-519.16 737.54,-526.05"/>
</g>
<!-- Node20 -->
<g id="node20" class="node">
<title>Node20</title>
<g id="a_node20"><a xlink:href="group__Sign.html#ga532598da479904609d6c02e4c2a1311a" target="_top" xlink:title="Compute signature.">
<polygon fill="white" stroke="#666666" points="634,-355.25 515.25,-355.25 515.25,-336 634,-336 634,-355.25"/>
<text text-anchor="middle" x="574.62" y="-341.75" font-family="Helvetica,sans-Serif" font-size="10.00">sss::ComputeSignature</text>
</a>
</g>
</g>
<!-- Node19&#45;&gt;Node20 -->
<g id="edge24" class="edge">
<title>Node19&#45;&gt;Node20</title>
<path fill="none" stroke="#63b8ff" d="M427.96,-451.21C436.08,-448.76 444.25,-445.63 451.5,-441.62 470.77,-430.99 470.53,-421.64 487.5,-407.62 507.64,-390.99 531.88,-373.77 549.51,-361.71"/>
<polygon fill="#63b8ff" stroke="#63b8ff" points="551.24,-364.09 557.55,-355.58 547.31,-358.29 551.24,-364.09"/>
</g>
<!-- Node19&#45;&gt;Node22 -->
<g id="edge35" class="edge">
<title>Node19&#45;&gt;Node22</title>
<path fill="none" stroke="#63b8ff" d="M416.81,-449.51C471.18,-435.76 577.91,-416.06 661.75,-445.62 681.13,-452.46 679.23,-465.72 697.75,-474.62 711.65,-481.31 728.1,-485.55 742.54,-488.22"/>
<polygon fill="#63b8ff" stroke="#63b8ff" points="741.68,-491.79 752.12,-489.97 742.82,-484.89 741.68,-491.79"/>
</g>
<!-- Node20&#45;&gt;Node2 -->
<g id="edge25" class="edge">
<title>Node20&#45;&gt;Node2</title>
<path fill="none" stroke="#63b8ff" d="M585.44,-355.55C602.28,-372.87 637.24,-410.2 661.75,-445.62 680.76,-473.1 671.04,-491.54 697.75,-511.62 709.32,-520.33 724.28,-524.97 738.21,-527.41"/>
<polygon fill="#63b8ff" stroke="#63b8ff" points="737.68,-531.01 748.07,-528.92 738.65,-524.07 737.68,-531.01"/>
</g>
<!-- Node20&#45;&gt;Node18 -->
<g id="edge33" class="edge">
<title>Node20&#45;&gt;Node18</title>
<path fill="none" stroke="#63b8ff" d="M632.74,-355.67C642.96,-359.06 653.09,-363.58 661.75,-369.62 684.21,-385.3 674.88,-404.56 697.75,-419.62 707.82,-426.26 719.96,-430.48 731.75,-433.15"/>
<polygon fill="#63b8ff" stroke="#63b8ff" points="730.92,-436.75 741.41,-435.2 732.25,-429.88 730.92,-436.75"/>
</g>
<!-- Node21 -->
<g id="node21" class="node">
<title>Node21</title>
<g id="a_node21"><a xlink:href="group__Internal.html#ga74c69f25ce04876e114759c0023b2a12" target="_top" xlink:title=" ">
<polygon fill="white" stroke="#666666" points="842.75,-318.25 717.25,-318.25 717.25,-299 842.75,-299 842.75,-318.25"/>
<text text-anchor="middle" x="780" y="-304.75" font-family="Helvetica,sans-Serif" font-size="10.00">sss::CreateSignatureKey</text>
</a>
</g>
</g>
<!-- Node20&#45;&gt;Node21 -->
<g id="edge26" class="edge">
<title>Node20&#45;&gt;Node21</title>
<path fill="none" stroke="#63b8ff" d="M631.2,-335.51C656.42,-330.93 686.44,-325.46 712.82,-320.66"/>
<polygon fill="#63b8ff" stroke="#63b8ff" points="713.28,-323.96 722.49,-318.72 712.03,-317.07 713.28,-323.96"/>
</g>
<!-- Node20&#45;&gt;Node22 -->
<g id="edge27" class="edge">
<title>Node20&#45;&gt;Node22</title>
<path fill="none" stroke="#63b8ff" d="M594.32,-355.69C613.17,-366.55 642.19,-385.32 661.75,-407.62 684.04,-433.04 670.8,-454.22 697.75,-474.62 710.45,-484.24 727.28,-488.91 742.33,-491.11"/>
<polygon fill="#63b8ff" stroke="#63b8ff" points="741.55,-494.66 751.88,-492.32 742.34,-487.71 741.55,-494.66"/>
</g>
<!-- Node23 -->
<g id="node23" class="node">
<title>Node23</title>
<g id="a_node23"><a xlink:href="group__Internal.html#ga50353a351a93b1213dc4e5211c767d85" target="_top" xlink:title=" ">
<polygon fill="white" stroke="#666666" points="819.88,-281.25 740.12,-281.25 740.12,-262 819.88,-262 819.88,-281.25"/>
<text text-anchor="middle" x="780" y="-267.75" font-family="Helvetica,sans-Serif" font-size="10.00">sss::GetDates</text>
</a>
</g>
</g>
<!-- Node20&#45;&gt;Node23 -->
<g id="edge28" class="edge">
<title>Node20&#45;&gt;Node23</title>
<path fill="none" stroke="#63b8ff" d="M634.3,-337.51C643.83,-334.85 653.32,-331.32 661.75,-326.62 681.8,-315.46 677.71,-300.8 697.75,-289.62 707.31,-284.3 718.33,-280.54 729.1,-277.9"/>
<polygon fill="#63b8ff" stroke="#63b8ff" points="729.69,-281.14 738.73,-275.62 728.22,-274.3 729.69,-281.14"/>
</g>
<!-- Node24 -->
<g id="node24" class="node">
<title>Node24</title>
<g id="a_node24"><a xlink:href="group__Internal.html#ga990dfaae4abc6bf20a28f9772b7bcd16" target="_top" xlink:title="Byte to hex string conversion.">
<polygon fill="white" stroke="#666666" points="807.88,-244.25 752.12,-244.25 752.12,-225 807.88,-225 807.88,-244.25"/>
<text text-anchor="middle" x="780" y="-230.75" font-family="Helvetica,sans-Serif" font-size="10.00">sss::Hex</text>
</a>
</g>
</g>
<!-- Node20&#45;&gt;Node24 -->
<g id="edge29" class="edge">
<title>Node20&#45;&gt;Node24</title>
<path fill="none" stroke="#63b8ff" d="M634.41,-340.1C644.25,-337.17 653.81,-332.88 661.75,-326.62 690.47,-303.98 669.04,-275.28 697.75,-252.62 709.95,-243 726.25,-238.28 741.04,-236.05"/>
<polygon fill="#63b8ff" stroke="#63b8ff" points="741.43,-239.41 750.97,-234.79 740.63,-232.46 741.43,-239.41"/>
</g>
<!-- Node25 -->
<g id="node25" class="node">
<title>Node25</title>
<g id="a_node25"><a xlink:href="group__Internal.html#ga7160aa316f2c6633467b47588263c690" target="_top" xlink:title=" ">
<polygon fill="white" stroke="#666666" points="821.75,-207.25 738.25,-207.25 738.25,-188 821.75,-188 821.75,-207.25"/>
<text text-anchor="middle" x="780" y="-193.75" font-family="Helvetica,sans-Serif" font-size="10.00">sss::ParseURL</text>
</a>
</g>
</g>
<!-- Node20&#45;&gt;Node25 -->
<g id="edge30" class="edge">
<title>Node20&#45;&gt;Node25</title>
<path fill="none" stroke="#63b8ff" d="M634.28,-341.26C644.35,-338.25 654.04,-333.62 661.75,-326.62 700.15,-291.76 659.37,-250.5 697.75,-215.62 705.93,-208.19 716.48,-203.59 727.24,-200.8"/>
<polygon fill="#63b8ff" stroke="#63b8ff" points="727.93,-204.03 737.01,-198.57 726.51,-197.17 727.93,-204.03"/>
</g>
<!-- Node26 -->
<g id="node26" class="node">
<title>Node26</title>
<g id="a_node26"><a xlink:href="lib_2include_2utility_8h.html#ab314781bb3f053ef5325b50f3a1b74f8" target="_top" xlink:title=" ">
<polygon fill="white" stroke="#666666" points="817.25,-392.25 742.75,-392.25 742.75,-373 817.25,-373 817.25,-392.25"/>
<text text-anchor="middle" x="780" y="-378.75" font-family="Helvetica,sans-Serif" font-size="10.00">sss::ToLower</text>
</a>
</g>
</g>
<!-- Node20&#45;&gt;Node26 -->
<g id="edge31" class="edge">
<title>Node20&#45;&gt;Node26</title>
<path fill="none" stroke="#63b8ff" d="M631.2,-355.74C662.73,-361.47 701.76,-368.57 731.79,-374.04"/>
<polygon fill="#63b8ff" stroke="#63b8ff" points="730.96,-377.62 741.42,-375.97 732.21,-370.74 730.96,-377.62"/>
</g>
<!-- Node27 -->
<g id="node27" class="node">
<title>Node27</title>
<g id="a_node27"><a xlink:href="group__Internal.html#ga0f079ace8729714b3949eabe22f228c9" target="_top" xlink:title=" ">
<polygon fill="white" stroke="#666666" points="821.75,-355.25 738.25,-355.25 738.25,-336 821.75,-336 821.75,-355.25"/>
<text text-anchor="middle" x="780" y="-341.75" font-family="Helvetica,sans-Serif" font-size="10.00">sss::UrlEncode</text>
</a>
</g>
</g>
<!-- Node20&#45;&gt;Node27 -->
<g id="edge34" class="edge">
<title>Node20&#45;&gt;Node27</title>
<path fill="none" stroke="#63b8ff" d="M634.45,-345.62C663.76,-345.62 698.88,-345.62 727.17,-345.62"/>
<polygon fill="#63b8ff" stroke="#63b8ff" points="727.04,-349.13 737.04,-345.62 727.04,-342.13 727.04,-349.13"/>
</g>
<!-- Node26&#45;&gt;Node26 -->
<g id="edge32" class="edge">
<title>Node26&#45;&gt;Node26</title>
<path fill="none" stroke="#63b8ff" d="M747.85,-392.54C733.18,-401.15 743.9,-410.25 780,-410.25 803.13,-410.25 815.84,-406.51 818.13,-401.56"/>
<polygon fill="#63b8ff" stroke="#63b8ff" points="820.59,-399.94 812.15,-393.54 814.76,-403.81 820.59,-399.94"/>
</g>
</g>
</svg>
