<?xml version="1.0" encoding="UTF-8" standalone="no"?>
<!DOCTYPE svg PUBLIC "-//W3C//DTD SVG 1.1//EN"
 "http://www.w3.org/Graphics/SVG/1.1/DTD/svg11.dtd">
<!-- Generated by graphviz version 2.43.0 (0)
 -->
<!-- Title: sss::api::S3Api::HeadObject Pages: 1 -->
<!--zoomable 545 -->
<svg id="main" version="1.1" xmlns="http://www.w3.org/2000/svg" xmlns:xlink="http://www.w3.org/1999/xlink" xml:space="preserve" onload="init(evt)">
<style type="text/css"><![CDATA[
.edge:hover path { stroke: red; }
.edge:hover polygon { stroke: red; fill: red; }
]]></style>
<script type="text/javascript"><![CDATA[
var edges = document.getElementsByTagName('g');
if (edges && edges.length) {
  for (var i=0;i<edges.length;i++) {
    if (edges[i].id.substr(0,4)=='edge') {
      edges[i].setAttribute('class','edge');
    }
  }
}
]]></script>
        <defs>
                <circle id="rim" cx="0" cy="0" r="7"/>
                <circle id="rim2" cx="0" cy="0" r="3.5"/>
                <g id="zoomPlus">
                        <use xlink:href="#rim" fill="#404040">
                                <set attributeName="fill" to="#808080" begin="zoomplus.mouseover" end="zoomplus.mouseout"/>
                        </use>
                        <path d="M-4,0h8M0,-4v8" fill="none" stroke="white" stroke-width="1.5" pointer-events="none"/>
                </g>
                <g id="zoomMin">
                        <use xlink:href="#rim" fill="#404040">
                                <set attributeName="fill" to="#808080" begin="zoomminus.mouseover" end="zoomminus.mouseout"/>
                        </use>
                        <path d="M-4,0h8" fill="none" stroke="white" stroke-width="1.5" pointer-events="none"/>
                </g>
                <g id="dirArrow">
                        <path fill="none" stroke="white" stroke-width="1.5" d="M0,-3.0v7 M-2.5,-0.5L0,-3.0L2.5,-0.5"/>
                </g>
               <g id="resetDef">
                       <use xlink:href="#rim2" fill="#404040">
                               <set attributeName="fill" to="#808080" begin="reset.mouseover" end="reset.mouseout"/>
                       </use>
               </g>
        </defs>

<script type="text/javascript">
var viewWidth = 1122;
var viewHeight = 545;
var sectionId = 'dynsection-24';
</script>
<script xlink:href="svgpan.js"/>
<svg id="graph" class="graph">
<g id="viewport">
<title>sss::api::S3Api::HeadObject</title>
<!-- Node1 -->
<g id="node1" class="node">
<title>Node1</title>
<g id="a_node1"><a xlink:title="Send HeadObject request.">
<polygon fill="#bfbfbf" stroke="black" points="0,-369.5 0,-388.5 141,-388.5 141,-369.5 0,-369.5"/>
<text text-anchor="middle" x="70.5" y="-376.5" font-family="Helvetica,sans-Serif" font-size="10.00">sss::api::S3Api::HeadObject</text>
</a>
</g>
</g>
<!-- Node2 -->
<g id="node2" class="node">
<title>Node2</title>
<g id="a_node2"><a xlink:href="classsss_1_1WebClient.html#a42af351286f1fa68c3385d81f0bc2015" target="_top" xlink:title=" ">
<polygon fill="none" stroke="black" points="177,-468.5 177,-487.5 332,-487.5 332,-468.5 177,-468.5"/>
<text text-anchor="middle" x="254.5" y="-475.5" font-family="Helvetica,sans-Serif" font-size="10.00">sss::WebClient::GetHeaderText</text>
</a>
</g>
</g>
<!-- Node1&#45;&gt;Node2 -->
<g id="edge1" class="edge">
<title>Node1&#45;&gt;Node2</title>
<path fill="none" stroke="midnightblue" d="M89.28,-388.67C121.44,-406.17 189.41,-443.14 227.04,-463.61"/>
<polygon fill="midnightblue" stroke="midnightblue" points="225.46,-466.73 235.91,-468.43 228.8,-460.58 225.46,-466.73"/>
</g>
<!-- Node4 -->
<g id="node4" class="node">
<title>Node4</title>
<g id="a_node4"><a xlink:href="group__Parsing.html#gaca9233a3e8a097605d9168bf860e93e5" target="_top" xlink:title="Extract and return HTTP headers as key&#45;value pairs.">
<polygon fill="none" stroke="black" points="204,-369.5 204,-388.5 305,-388.5 305,-369.5 204,-369.5"/>
<text text-anchor="middle" x="254.5" y="-376.5" font-family="Helvetica,sans-Serif" font-size="10.00">sss::HTTPHeaders</text>
</a>
</g>
</g>
<!-- Node1&#45;&gt;Node4 -->
<g id="edge3" class="edge">
<title>Node1&#45;&gt;Node4</title>
<path fill="none" stroke="midnightblue" d="M141.09,-379C158.37,-379 176.75,-379 193.53,-379"/>
<polygon fill="midnightblue" stroke="midnightblue" points="193.75,-382.5 203.75,-379 193.75,-375.5 193.75,-382.5"/>
</g>
<!-- Node5 -->
<g id="node5" class="node">
<title>Node5</title>
<g id="a_node5"><a xlink:href="classsss_1_1api_1_1S3Api.html#a02b4f0c95255f151beb72f0a6bdf5889" target="_top" xlink:title="Send request.">
<polygon fill="none" stroke="black" points="198.5,-209.5 198.5,-228.5 310.5,-228.5 310.5,-209.5 198.5,-209.5"/>
<text text-anchor="middle" x="254.5" y="-216.5" font-family="Helvetica,sans-Serif" font-size="10.00">sss::api::S3Api::Send</text>
</a>
</g>
</g>
<!-- Node1&#45;&gt;Node5 -->
<g id="edge4" class="edge">
<title>Node1&#45;&gt;Node5</title>
<path fill="none" stroke="midnightblue" d="M82.34,-369.47C112.36,-343.08 196.87,-268.78 234.74,-235.49"/>
<polygon fill="midnightblue" stroke="midnightblue" points="237.29,-237.91 242.49,-228.68 232.67,-232.66 237.29,-237.91"/>
</g>
<!-- Node3 -->
<g id="node3" class="node">
<title>Node3</title>
<g id="a_node3"><a xlink:href="classsss_1_1WebClient.html#a0b9b001ddc7ce778a613250e27e50731" target="_top" xlink:title=" ">
<polygon fill="none" stroke="black" points="371,-506 371,-536 520,-536 520,-506 371,-506"/>
<text text-anchor="start" x="379" y="-524" font-family="Helvetica,sans-Serif" font-size="10.00">sss::WebClient::GetResponse</text>
<text text-anchor="middle" x="445.5" y="-513" font-family="Helvetica,sans-Serif" font-size="10.00">Header</text>
</a>
</g>
</g>
<!-- Node2&#45;&gt;Node3 -->
<g id="edge2" class="edge">
<title>Node2&#45;&gt;Node3</title>
<path fill="none" stroke="midnightblue" d="M297.45,-487.54C318.38,-492.31 344.35,-498.22 368.63,-503.74"/>
<polygon fill="midnightblue" stroke="midnightblue" points="368.01,-507.19 378.54,-505.99 369.57,-500.36 368.01,-507.19"/>
</g>
<!-- Node6 -->
<g id="node6" class="node">
<title>Node6</title>
<g id="a_node6"><a xlink:href="classsss_1_1api_1_1S3Api.html#a840772746fbb0a79c161037da7b24a31" target="_top" xlink:title="Configure instance.">
<polygon fill="none" stroke="black" points="386.5,-209.5 386.5,-228.5 504.5,-228.5 504.5,-209.5 386.5,-209.5"/>
<text text-anchor="middle" x="445.5" y="-216.5" font-family="Helvetica,sans-Serif" font-size="10.00">sss::api::S3Api::Config</text>
</a>
</g>
</g>
<!-- Node5&#45;&gt;Node6 -->
<g id="edge5" class="edge">
<title>Node5&#45;&gt;Node6</title>
<path fill="none" stroke="midnightblue" d="M310.67,-219C331.18,-219 354.69,-219 376.23,-219"/>
<polygon fill="midnightblue" stroke="midnightblue" points="376.29,-222.5 386.29,-219 376.29,-215.5 376.29,-222.5"/>
</g>
<!-- Node15 -->
<g id="node15" class="node">
<title>Node15</title>
<g id="a_node15"><a xlink:href="classsss_1_1WebClient.html#a51ce0ecf6487b6a43072643fe4f4cb4e" target="_top" xlink:title=" ">
<polygon fill="none" stroke="black" points="752.5,-380.5 752.5,-399.5 898.5,-399.5 898.5,-380.5 752.5,-380.5"/>
<text text-anchor="middle" x="825.5" y="-387.5" font-family="Helvetica,sans-Serif" font-size="10.00">sss::WebClient::SetPostData</text>
</a>
</g>
</g>
<!-- Node5&#45;&gt;Node15 -->
<g id="edge26" class="edge">
<title>Node5&#45;&gt;Node15</title>
<path fill="none" stroke="midnightblue" d="M265.96,-228.75C302.6,-262.15 429.94,-371.93 559,-409 635.15,-430.87 728.39,-414.92 781.67,-402.01"/>
<polygon fill="midnightblue" stroke="midnightblue" points="782.6,-405.38 791.46,-399.56 780.91,-398.59 782.6,-405.38"/>
</g>
<!-- Node22 -->
<g id="node22" class="node">
<title>Node22</title>
<g id="a_node22"><a xlink:href="group__Internal.html#ga2b8b08c2a4994a87377d83ccfa9a6a53" target="_top" xlink:title=" ">
<polygon fill="none" stroke="black" points="396.5,-32.5 396.5,-51.5 494.5,-51.5 494.5,-32.5 396.5,-32.5"/>
<text text-anchor="middle" x="445.5" y="-39.5" font-family="Helvetica,sans-Serif" font-size="10.00">sss::ParseParams</text>
</a>
</g>
</g>
<!-- Node5&#45;&gt;Node22 -->
<g id="edge24" class="edge">
<title>Node5&#45;&gt;Node22</title>
<path fill="none" stroke="midnightblue" d="M259.81,-209.47C272.43,-182.69 311.93,-106.06 368,-66 374.07,-61.66 380.96,-58.09 388.05,-55.15"/>
<polygon fill="midnightblue" stroke="midnightblue" points="389.64,-58.29 397.79,-51.52 387.2,-51.73 389.64,-58.29"/>
</g>
<!-- Node23 -->
<g id="node23" class="node">
<title>Node23</title>
<g id="a_node23"><a xlink:href="classsss_1_1WebClient.html#aa1d7484f0e09242ce53b24f9648ce50e" target="_top" xlink:title=" ">
<polygon fill="none" stroke="black" points="574.5,-0.5 574.5,-19.5 686.5,-19.5 686.5,-0.5 574.5,-0.5"/>
<text text-anchor="middle" x="630.5" y="-7.5" font-family="Helvetica,sans-Serif" font-size="10.00">sss::WebClient::Send</text>
</a>
</g>
</g>
<!-- Node5&#45;&gt;Node23 -->
<g id="edge25" class="edge">
<title>Node5&#45;&gt;Node23</title>
<path fill="none" stroke="midnightblue" d="M261.53,-209.46C276.54,-186.57 317.95,-128.26 368,-99 429.23,-63.2 460.2,-93.98 523,-61 541.95,-51.05 540.16,-39.17 559,-29 563.24,-26.71 567.77,-24.68 572.42,-22.89"/>
<polygon fill="midnightblue" stroke="midnightblue" points="573.77,-26.13 582.06,-19.53 571.47,-19.52 573.77,-26.13"/>
</g>
<!-- Node24 -->
<g id="node24" class="node">
<title>Node24</title>
<g id="a_node24"><a xlink:href="classsss_1_1WebClient.html#a7dfd984b33a29686fb0355b65b620e99" target="_top" xlink:title=" ">
<polygon fill="none" stroke="black" points="368,-457 368,-487 523,-487 523,-457 368,-457"/>
<text text-anchor="start" x="376" y="-475" font-family="Helvetica,sans-Serif" font-size="10.00">sss::WebClient::SetUrlEncoded</text>
<text text-anchor="middle" x="445.5" y="-464" font-family="Helvetica,sans-Serif" font-size="10.00">PostData</text>
</a>
</g>
</g>
<!-- Node5&#45;&gt;Node24 -->
<g id="edge27" class="edge">
<title>Node5&#45;&gt;Node24</title>
<path fill="none" stroke="midnightblue" d="M261.17,-228.77C274.26,-251.48 307.38,-309.73 332,-360 349.51,-395.75 339.3,-414.42 368,-442 371.99,-445.83 376.52,-449.19 381.34,-452.13"/>
<polygon fill="midnightblue" stroke="midnightblue" points="379.82,-455.29 390.28,-456.98 383.16,-449.13 379.82,-455.29"/>
</g>
<!-- Node26 -->
<g id="node26" class="node">
<title>Node26</title>
<g id="a_node26"><a xlink:href="classsss_1_1WebClient.html#ae7b1f77bd4ae44585f2d49ea493bdcc5" target="_top" xlink:title="Upload data from memory buffer.">
<polygon fill="none" stroke="black" points="375,-109 375,-139 516,-139 516,-109 375,-109"/>
<text text-anchor="start" x="383" y="-127" font-family="Helvetica,sans-Serif" font-size="10.00">sss::WebClient::UploadData</text>
<text text-anchor="middle" x="445.5" y="-116" font-family="Helvetica,sans-Serif" font-size="10.00">FromBuffer</text>
</a>
</g>
</g>
<!-- Node5&#45;&gt;Node26 -->
<g id="edge29" class="edge">
<title>Node5&#45;&gt;Node26</title>
<path fill="none" stroke="midnightblue" d="M274.66,-209.37C305.16,-194.04 365.36,-163.78 405.27,-143.72"/>
<polygon fill="midnightblue" stroke="midnightblue" points="407.09,-146.72 414.45,-139.1 403.95,-140.47 407.09,-146.72"/>
</g>
<!-- Node7 -->
<g id="node7" class="node">
<title>Node7</title>
<g id="a_node7"><a xlink:href="classsss_1_1api_1_1S3Api.html#a1a4e05ac14390c7f42feef2c26e22031" target="_top" xlink:title=" ">
<polygon fill="none" stroke="black" points="569.5,-304.5 569.5,-323.5 691.5,-323.5 691.5,-304.5 569.5,-304.5"/>
<text text-anchor="middle" x="630.5" y="-311.5" font-family="Helvetica,sans-Serif" font-size="10.00">sss::api::S3Api::Access</text>
</a>
</g>
</g>
<!-- Node6&#45;&gt;Node7 -->
<g id="edge6" class="edge">
<title>Node6&#45;&gt;Node7</title>
<path fill="none" stroke="midnightblue" d="M459.42,-228.58C479.76,-243.33 520.86,-271.79 559,-290 567.75,-294.18 577.41,-297.97 586.72,-301.23"/>
<polygon fill="midnightblue" stroke="midnightblue" points="585.63,-304.56 596.22,-304.45 587.87,-297.93 585.63,-304.56"/>
</g>
<!-- Node8 -->
<g id="node8" class="node">
<title>Node8</title>
<g id="a_node8"><a xlink:href="classsss_1_1api_1_1S3Api.html#a3718745d3b940462ae9f3b78f773b3a6" target="_top" xlink:title="Clear data and reset read and write functions.">
<polygon fill="none" stroke="black" points="574,-228.5 574,-247.5 687,-247.5 687,-228.5 574,-228.5"/>
<text text-anchor="middle" x="630.5" y="-235.5" font-family="Helvetica,sans-Serif" font-size="10.00">sss::api::S3Api::Clear</text>
</a>
</g>
</g>
<!-- Node6&#45;&gt;Node8 -->
<g id="edge7" class="edge">
<title>Node6&#45;&gt;Node8</title>
<path fill="none" stroke="midnightblue" d="M504.65,-225.04C523.55,-227 544.64,-229.19 564.03,-231.2"/>
<polygon fill="midnightblue" stroke="midnightblue" points="563.69,-234.69 573.99,-232.24 564.41,-227.72 563.69,-234.69"/>
</g>
<!-- Node13 -->
<g id="node13" class="node">
<title>Node13</title>
<g id="a_node13"><a xlink:href="classsss_1_1WebClient.html#a75890c14fbe4a4bbac61718a4f3c064d" target="_top" xlink:title=" ">
<polygon fill="none" stroke="black" points="755,-285.5 755,-304.5 896,-304.5 896,-285.5 755,-285.5"/>
<text text-anchor="middle" x="825.5" y="-292.5" font-family="Helvetica,sans-Serif" font-size="10.00">sss::WebClient::SetHeaders</text>
</a>
</g>
</g>
<!-- Node6&#45;&gt;Node13 -->
<g id="edge19" class="edge">
<title>Node6&#45;&gt;Node13</title>
<path fill="none" stroke="midnightblue" d="M470.7,-228.62C493.23,-237.22 527.92,-249.59 559,-257 620.59,-271.68 691.67,-281.49 744.77,-287.45"/>
<polygon fill="midnightblue" stroke="midnightblue" points="744.48,-290.94 754.8,-288.56 745.25,-283.99 744.48,-290.94"/>
</g>
<!-- Node14 -->
<g id="node14" class="node">
<title>Node14</title>
<g id="a_node14"><a xlink:href="classsss_1_1WebClient.html#a12b5db6b8c667024557ab58059d39994" target="_top" xlink:title=" ">
<polygon fill="none" stroke="black" points="763,-171.5 763,-190.5 888,-190.5 888,-171.5 763,-171.5"/>
<text text-anchor="middle" x="825.5" y="-178.5" font-family="Helvetica,sans-Serif" font-size="10.00">sss::WebClient::SetPath</text>
</a>
</g>
</g>
<!-- Node6&#45;&gt;Node14 -->
<g id="edge21" class="edge">
<title>Node6&#45;&gt;Node14</title>
<path fill="none" stroke="midnightblue" d="M504.73,-213.15C571.35,-206.45 680.48,-195.48 752.41,-188.25"/>
<polygon fill="midnightblue" stroke="midnightblue" points="753.14,-191.69 762.74,-187.21 752.44,-184.73 753.14,-191.69"/>
</g>
<!-- Node16 -->
<g id="node16" class="node">
<title>Node16</title>
<g id="a_node16"><a xlink:href="classsss_1_1WebClient.html#a9bf978d95b79728f6d60fc2bdb4fe546" target="_top" xlink:title=" ">
<polygon fill="none" stroke="black" points="739,-133.5 739,-152.5 912,-152.5 912,-133.5 739,-133.5"/>
<text text-anchor="middle" x="825.5" y="-140.5" font-family="Helvetica,sans-Serif" font-size="10.00">sss::WebClient::SetReqParameters</text>
</a>
</g>
</g>
<!-- Node6&#45;&gt;Node16 -->
<g id="edge22" class="edge">
<title>Node6&#45;&gt;Node16</title>
<path fill="none" stroke="midnightblue" d="M456.25,-209.34C474.52,-192 515.95,-156.18 559,-143 624.01,-123.1 702.24,-126.13 756.88,-132.27"/>
<polygon fill="midnightblue" stroke="midnightblue" points="756.79,-135.79 767.14,-133.5 757.62,-128.84 756.79,-135.79"/>
</g>
<!-- Node17 -->
<g id="node17" class="node">
<title>Node17</title>
<g id="a_node17"><a xlink:href="classsss_1_1api_1_1S3Api.html#a70f1068d07e1d4c1be164e0cb9328cc0" target="_top" xlink:title=" ">
<polygon fill="none" stroke="black" points="566.5,-76.5 566.5,-95.5 694.5,-95.5 694.5,-76.5 566.5,-76.5"/>
<text text-anchor="middle" x="630.5" y="-83.5" font-family="Helvetica,sans-Serif" font-size="10.00">sss::api::S3Api::Endpoint</text>
</a>
</g>
</g>
<!-- Node6&#45;&gt;Node17 -->
<g id="edge16" class="edge">
<title>Node6&#45;&gt;Node17</title>
<path fill="none" stroke="midnightblue" d="M457.6,-209.11C472.68,-195.58 500.33,-170.43 523,-148 539.53,-131.63 539.42,-122.56 559,-110 565.81,-105.63 573.5,-101.97 581.24,-98.92"/>
<polygon fill="midnightblue" stroke="midnightblue" points="582.43,-102.21 590.64,-95.51 580.04,-95.63 582.43,-102.21"/>
</g>
<!-- Node18 -->
<g id="node18" class="node">
<title>Node18</title>
<g id="a_node18"><a xlink:href="classsss_1_1api_1_1S3Api.html#acfffe29254323fb41231787a0afb7edc" target="_top" xlink:title=" ">
<polygon fill="none" stroke="black" points="571.5,-380.5 571.5,-399.5 689.5,-399.5 689.5,-380.5 571.5,-380.5"/>
<text text-anchor="middle" x="630.5" y="-387.5" font-family="Helvetica,sans-Serif" font-size="10.00">sss::api::S3Api::Secret</text>
</a>
</g>
</g>
<!-- Node6&#45;&gt;Node18 -->
<g id="edge17" class="edge">
<title>Node6&#45;&gt;Node18</title>
<path fill="none" stroke="midnightblue" d="M450.75,-228.58C463.2,-255.5 502.31,-332.34 559,-371 561.92,-372.99 565.03,-374.77 568.27,-376.36"/>
<polygon fill="midnightblue" stroke="midnightblue" points="567.08,-379.66 577.65,-380.38 569.84,-373.23 567.08,-379.66"/>
</g>
<!-- Node19 -->
<g id="node19" class="node">
<title>Node19</title>
<g id="a_node19"><a xlink:href="classsss_1_1WebClient.html#afc3b7a92568fbb1ea447918920ca266e" target="_top" xlink:title="Set endpoint: &lt;proto&gt;://&lt;server&gt;:&lt;port&gt;">
<polygon fill="none" stroke="black" points="559,-342.5 559,-361.5 702,-361.5 702,-342.5 559,-342.5"/>
<text text-anchor="middle" x="630.5" y="-349.5" font-family="Helvetica,sans-Serif" font-size="10.00">sss::WebClient::SetEndpoint</text>
</a>
</g>
</g>
<!-- Node6&#45;&gt;Node19 -->
<g id="edge18" class="edge">
<title>Node6&#45;&gt;Node19</title>
<path fill="none" stroke="midnightblue" d="M453.16,-228.63C468.9,-250.63 510.71,-304.86 559,-333 562.86,-335.25 567,-337.24 571.26,-339"/>
<polygon fill="midnightblue" stroke="midnightblue" points="570.14,-342.32 580.73,-342.5 572.56,-335.75 570.14,-342.32"/>
</g>
<!-- Node20 -->
<g id="node20" class="node">
<title>Node20</title>
<g id="a_node20"><a xlink:href="classsss_1_1WebClient.html#af6233ffd7b294e1e7e606e838dd44e9e" target="_top" xlink:title=" ">
<polygon fill="none" stroke="black" points="562,-38.5 562,-57.5 699,-57.5 699,-38.5 562,-38.5"/>
<text text-anchor="middle" x="630.5" y="-45.5" font-family="Helvetica,sans-Serif" font-size="10.00">sss::WebClient::SetMethod</text>
</a>
</g>
</g>
<!-- Node6&#45;&gt;Node20 -->
<g id="edge20" class="edge">
<title>Node6&#45;&gt;Node20</title>
<path fill="none" stroke="midnightblue" d="M459.66,-209.49C476.25,-196.96 504.77,-173.5 523,-148 545.9,-115.95 529.07,-92.62 559,-67 560.98,-65.31 563.1,-63.76 565.32,-62.35"/>
<polygon fill="midnightblue" stroke="midnightblue" points="567.12,-65.35 574.31,-57.57 563.83,-59.17 567.12,-65.35"/>
</g>
<!-- Node21 -->
<g id="node21" class="node">
<title>Node21</title>
<g id="a_node21"><a xlink:href="group__Sign.html#ga3ae8e18ef70752b7369fca66c40c526b" target="_top" xlink:title="Sign headers.">
<polygon fill="none" stroke="black" points="583,-152.5 583,-171.5 678,-171.5 678,-152.5 583,-152.5"/>
<text text-anchor="middle" x="630.5" y="-159.5" font-family="Helvetica,sans-Serif" font-size="10.00">sss::SignHeaders</text>
</a>
</g>
</g>
<!-- Node6&#45;&gt;Node21 -->
<g id="edge23" class="edge">
<title>Node6&#45;&gt;Node21</title>
<path fill="none" stroke="midnightblue" d="M477.13,-209.46C507.88,-199.88 555.4,-185.08 589.19,-174.55"/>
<polygon fill="midnightblue" stroke="midnightblue" points="590.26,-177.89 598.77,-171.57 588.18,-171.2 590.26,-177.89"/>
</g>
<!-- Node9 -->
<g id="node9" class="node">
<title>Node9</title>
<g id="a_node9"><a xlink:href="classsss_1_1WebClient.html#a381f5715b7a2f19a0d4414d278874bae" target="_top" xlink:title="Clear internal buffers.">
<polygon fill="none" stroke="black" points="753.5,-209.5 753.5,-228.5 897.5,-228.5 897.5,-209.5 753.5,-209.5"/>
<text text-anchor="middle" x="825.5" y="-216.5" font-family="Helvetica,sans-Serif" font-size="10.00">sss::WebClient::ClearBuffers</text>
</a>
</g>
</g>
<!-- Node8&#45;&gt;Node9 -->
<g id="edge8" class="edge">
<title>Node8&#45;&gt;Node9</title>
<path fill="none" stroke="midnightblue" d="M687.06,-232.53C704.62,-230.8 724.4,-228.85 743.36,-226.99"/>
<polygon fill="midnightblue" stroke="midnightblue" points="743.88,-230.45 753.49,-225.99 743.2,-223.49 743.88,-230.45"/>
</g>
<!-- Node10 -->
<g id="node10" class="node">
<title>Node10</title>
<g id="a_node10"><a xlink:href="classsss_1_1WebClient.html#a96837f149bb473853a6523d096a25c56" target="_top" xlink:title="Reset read/write functions to default.">
<polygon fill="none" stroke="black" points="738,-247.5 738,-266.5 913,-266.5 913,-247.5 738,-247.5"/>
<text text-anchor="middle" x="825.5" y="-254.5" font-family="Helvetica,sans-Serif" font-size="10.00">sss::WebClient::ResetRWFunctions</text>
</a>
</g>
</g>
<!-- Node8&#45;&gt;Node10 -->
<g id="edge9" class="edge">
<title>Node8&#45;&gt;Node10</title>
<path fill="none" stroke="midnightblue" d="M687.06,-243.47C699.79,-244.72 713.68,-246.09 727.58,-247.46"/>
<polygon fill="midnightblue" stroke="midnightblue" points="727.39,-250.96 737.69,-248.45 728.08,-243.99 727.39,-250.96"/>
</g>
<!-- Node8&#45;&gt;Node13 -->
<g id="edge12" class="edge">
<title>Node8&#45;&gt;Node13</title>
<path fill="none" stroke="midnightblue" d="M660.41,-247.53C673.2,-251.83 688.39,-257.04 702,-262 718.13,-267.88 721.57,-271.03 738,-276 746.65,-278.61 755.88,-281.03 764.98,-283.2"/>
<polygon fill="midnightblue" stroke="midnightblue" points="764.23,-286.62 774.76,-285.45 765.8,-279.8 764.23,-286.62"/>
</g>
<!-- Node8&#45;&gt;Node14 -->
<g id="edge13" class="edge">
<title>Node8&#45;&gt;Node14</title>
<path fill="none" stroke="midnightblue" d="M660.41,-228.47C673.2,-224.17 688.39,-218.96 702,-214 718.13,-208.12 721.57,-204.97 738,-200 746.65,-197.39 755.88,-194.97 764.98,-192.8"/>
<polygon fill="midnightblue" stroke="midnightblue" points="765.8,-196.2 774.76,-190.55 764.23,-189.38 765.8,-196.2"/>
</g>
<!-- Node8&#45;&gt;Node15 -->
<g id="edge14" class="edge">
<title>Node8&#45;&gt;Node15</title>
<path fill="none" stroke="midnightblue" d="M643.57,-247.51C675.86,-272.94 764.47,-342.72 804.46,-374.21"/>
<polygon fill="midnightblue" stroke="midnightblue" points="802.41,-377.06 812.43,-380.5 806.74,-371.56 802.41,-377.06"/>
</g>
<!-- Node8&#45;&gt;Node16 -->
<g id="edge15" class="edge">
<title>Node8&#45;&gt;Node16</title>
<path fill="none" stroke="midnightblue" d="M641.79,-228.43C659.83,-212.2 698.97,-179.34 738,-162 743.72,-159.46 749.8,-157.25 755.99,-155.32"/>
<polygon fill="midnightblue" stroke="midnightblue" points="757.12,-158.64 765.77,-152.53 755.2,-151.91 757.12,-158.64"/>
</g>
<!-- Node11 -->
<g id="node11" class="node">
<title>Node11</title>
<g id="a_node11"><a xlink:href="classsss_1_1WebClient.html#a88dbcc61562e84aa9ebf1eabf887ac28" target="_top" xlink:title=" ">
<polygon fill="none" stroke="black" points="949,-269.5 949,-288.5 1114,-288.5 1114,-269.5 949,-269.5"/>
<text text-anchor="middle" x="1031.5" y="-276.5" font-family="Helvetica,sans-Serif" font-size="10.00">sss::WebClient::SetReadFunction</text>
</a>
</g>
</g>
<!-- Node10&#45;&gt;Node11 -->
<g id="edge10" class="edge">
<title>Node10&#45;&gt;Node11</title>
<path fill="none" stroke="midnightblue" d="M913.01,-266.33C921.52,-267.25 930.18,-268.18 938.73,-269.1"/>
<polygon fill="midnightblue" stroke="midnightblue" points="938.4,-272.59 948.72,-270.18 939.15,-265.63 938.4,-272.59"/>
</g>
<!-- Node12 -->
<g id="node12" class="node">
<title>Node12</title>
<g id="a_node12"><a xlink:href="classsss_1_1WebClient.html#a002876073b3869a9b9a9d709d14f1d7e" target="_top" xlink:title=" ">
<polygon fill="none" stroke="black" points="968,-220 968,-250 1095,-250 1095,-220 968,-220"/>
<text text-anchor="start" x="976" y="-238" font-family="Helvetica,sans-Serif" font-size="10.00">sss::WebClient::SetWrite</text>
<text text-anchor="middle" x="1031.5" y="-227" font-family="Helvetica,sans-Serif" font-size="10.00">Function</text>
</a>
</g>
</g>
<!-- Node10&#45;&gt;Node12 -->
<g id="edge11" class="edge">
<title>Node10&#45;&gt;Node12</title>
<path fill="none" stroke="midnightblue" d="M913.01,-247.67C927.87,-246.07 943.17,-244.42 957.63,-242.86"/>
<polygon fill="midnightblue" stroke="midnightblue" points="958.41,-246.29 967.98,-241.74 957.66,-239.33 958.41,-246.29"/>
</g>
<!-- Node25 -->
<g id="node25" class="node">
<title>Node25</title>
<g id="a_node25"><a xlink:href="group__Internal.html#ga6e3db8d156313abef7e2c966df1a3d7c" target="_top" xlink:title=" ">
<polygon fill="none" stroke="black" points="588.5,-462.5 588.5,-481.5 672.5,-481.5 672.5,-462.5 588.5,-462.5"/>
<text text-anchor="middle" x="630.5" y="-469.5" font-family="Helvetica,sans-Serif" font-size="10.00">sss::UrlEncode</text>
</a>
</g>
</g>
<!-- Node24&#45;&gt;Node25 -->
<g id="edge28" class="edge">
<title>Node24&#45;&gt;Node25</title>
<path fill="none" stroke="midnightblue" d="M523.05,-472C541.62,-472 561.04,-472 578.13,-472"/>
<polygon fill="midnightblue" stroke="midnightblue" points="578.44,-475.5 588.44,-472 578.44,-468.5 578.44,-475.5"/>
</g>
<!-- Node26&#45;&gt;Node20 -->
<g id="edge31" class="edge">
<title>Node26&#45;&gt;Node20</title>
<path fill="none" stroke="midnightblue" d="M490.72,-109C501.54,-104.7 512.91,-99.63 523,-94 540.47,-84.26 541.02,-75.76 559,-67 563.84,-64.64 569.02,-62.54 574.29,-60.68"/>
<polygon fill="midnightblue" stroke="midnightblue" points="575.39,-64 583.82,-57.58 573.23,-57.34 575.39,-64"/>
</g>
<!-- Node26&#45;&gt;Node23 -->
<g id="edge30" class="edge">
<title>Node26&#45;&gt;Node23</title>
<path fill="none" stroke="midnightblue" d="M499.46,-108.84C507.92,-104.9 516.13,-100.02 523,-94 547.84,-72.24 533,-49.35 559,-29 561.34,-27.17 563.84,-25.51 566.46,-24.02"/>
<polygon fill="midnightblue" stroke="midnightblue" points="568.25,-27.04 575.71,-19.52 565.19,-20.74 568.25,-27.04"/>
</g>
</g>
</svg>
        <g id="navigator" transform="translate(0 0)" fill="#404254">
                <rect fill="#f2f5e9" fill-opacity="0.5" stroke="#606060" stroke-width=".5" x="0" y="0" width="60" height="60"/>
                <use id="zoomplus" xlink:href="#zoomPlus" x="17" y="9" onmousedown="handleZoom(evt,'in')"/>
                <use id="zoomminus" xlink:href="#zoomMin" x="42" y="9" onmousedown="handleZoom(evt,'out')"/>
                <use id="reset" xlink:href="#resetDef" x="30" y="36" onmousedown="handleReset()"/>
                <g id="arrowUp" xlink:href="#dirArrow" transform="translate(30 24)" onmousedown="handlePan(0,-1)">
                  <use xlink:href="#rim" fill="#404040">
                        <set attributeName="fill" to="#808080" begin="arrowUp.mouseover" end="arrowUp.mouseout"/>
                  </use>
                  <path fill="none" stroke="white" stroke-width="1.5" d="M0,-3.0v7 M-2.5,-0.5L0,-3.0L2.5,-0.5"/>
                </g>
                <g id="arrowRight" xlink:href="#dirArrow" transform="rotate(90) translate(36 -43)" onmousedown="handlePan(1,0)">
                  <use xlink:href="#rim" fill="#404040">
                        <set attributeName="fill" to="#808080" begin="arrowRight.mouseover" end="arrowRight.mouseout"/>
                  </use>
                  <path fill="none" stroke="white" stroke-width="1.5" d="M0,-3.0v7 M-2.5,-0.5L0,-3.0L2.5,-0.5"/>
                </g>
                <g id="arrowDown" xlink:href="#dirArrow" transform="rotate(180) translate(-30 -48)" onmousedown="handlePan(0,1)">
                  <use xlink:href="#rim" fill="#404040">
                        <set attributeName="fill" to="#808080" begin="arrowDown.mouseover" end="arrowDown.mouseout"/>
                  </use>
                  <path fill="none" stroke="white" stroke-width="1.5" d="M0,-3.0v7 M-2.5,-0.5L0,-3.0L2.5,-0.5"/>
                </g>
                <g id="arrowLeft" xlink:href="#dirArrow" transform="rotate(270) translate(-36 17)" onmousedown="handlePan(-1,0)">
                  <use xlink:href="#rim" fill="#404040">
                        <set attributeName="fill" to="#808080" begin="arrowLeft.mouseover" end="arrowLeft.mouseout"/>
                  </use>
                  <path fill="none" stroke="white" stroke-width="1.5" d="M0,-3.0v7 M-2.5,-0.5L0,-3.0L2.5,-0.5"/>
                </g>
        </g>
        <svg viewBox="0 0 15 15" width="100%" height="30px" preserveAspectRatio="xMaxYMin meet">
         <g id="arrow_out" transform="scale(0.3 0.3)">
          <a xlink:href="classsss_1_1api_1_1S3Api_a0382afb5f4a42d477af76ea322324ddd_cgraph_org.svg" target="_base">
           <rect id="button" ry="5" rx="5" y="6" x="6" height="38" width="38"
                fill="#f2f5e9" fill-opacity="0.5" stroke="#606060" stroke-width="1.0"/>
           <path id="arrow"
             d="M 11.500037,31.436501 C 11.940474,20.09759 22.043105,11.32322 32.158766,21.979434 L 37.068811,17.246167 C 37.068811,17.246167 37.088388,32 37.088388,32 L 22.160133,31.978069 C 22.160133,31.978069 26.997745,27.140456 26.997745,27.140456 C 18.528582,18.264221 13.291696,25.230495 11.500037,31.436501 z"
             style="fill:#404040;"/>
          </a>
         </g>
        </svg>
</svg>
