<?xml version="1.0" encoding="UTF-8" standalone="no"?>
<!DOCTYPE svg PUBLIC "-//W3C//DTD SVG 1.1//EN"
 "http://www.w3.org/Graphics/SVG/1.1/DTD/svg11.dtd">
<!-- Generated by graphviz version 8.0.5 (20230430.1635)
 -->
<!-- Title: sss::WebClient::Send Pages: 1 -->
<svg width="864pt" height="507pt"
 viewBox="0.00 0.00 863.50 506.88" xmlns="http://www.w3.org/2000/svg" xmlns:xlink="http://www.w3.org/1999/xlink">
<g id="graph0" class="graph" transform="scale(1 1) rotate(0) translate(4 502.88)">
<title>sss::WebClient::Send</title>
<!-- Node1 -->
<g id="node1" class="node">
<title>Node1</title>
<g id="a_node1"><a xlink:title=" ">
<polygon fill="#999999" stroke="#666666" points="855.5,-179.25 744.25,-179.25 744.25,-160 855.5,-160 855.5,-179.25"/>
<text text-anchor="middle" x="799.88" y="-165.75" font-family="Helvetica,sans-Serif" font-size="10.00">sss::WebClient::Send</text>
</a>
</g>
</g>
<!-- Node2 -->
<g id="node2" class="node">
<title>Node2</title>
<g id="a_node2"><a xlink:href="classsss_1_1api_1_1S3Api.html#a1196f1cb9ce1e5d69336e9b8dbb5d59c" target="_top" xlink:title=" ">
<polygon fill="white" stroke="#666666" points="698.12,-292.88 577.88,-292.88 577.88,-262.38 698.12,-262.38 698.12,-292.88"/>
<text text-anchor="start" x="585.88" y="-279.38" font-family="Helvetica,sans-Serif" font-size="10.00">sss::api::S3Api::GetFile</text>
<text text-anchor="middle" x="638" y="-268.12" font-family="Helvetica,sans-Serif" font-size="10.00">Object</text>
</a>
</g>
</g>
<!-- Node1&#45;&gt;Node2 -->
<g id="edge1" class="edge">
<title>Node1&#45;&gt;Node2</title>
<path fill="none" stroke="#63b8ff" d="M782.11,-187.23C764.86,-204.58 736.57,-230.99 708.25,-248.62 700.28,-253.58 691.32,-258.05 682.55,-261.9"/>
<polygon fill="#63b8ff" stroke="#63b8ff" points="784.16,-190.11 788.65,-180.51 779.15,-185.22 784.16,-190.11"/>
</g>
<!-- Node3 -->
<g id="node3" class="node">
<title>Node3</title>
<g id="a_node3"><a xlink:href="classsss_1_1api_1_1S3Api.html#ad09581bf28c4bbbcbb71b329959ec1ae" target="_top" xlink:title=" ">
<polygon fill="white" stroke="#666666" points="511.5,-241.25 400.25,-241.25 400.25,-222 511.5,-222 511.5,-241.25"/>
<text text-anchor="middle" x="455.88" y="-227.75" font-family="Helvetica,sans-Serif" font-size="10.00">sss::api::S3Api::Send</text>
</a>
</g>
</g>
<!-- Node1&#45;&gt;Node3 -->
<g id="edge2" class="edge">
<title>Node1&#45;&gt;Node3</title>
<path fill="none" stroke="#63b8ff" d="M774.94,-185.19C757.27,-195.8 732.23,-209.07 708.25,-215.62 642.44,-233.6 563.49,-235.61 511.85,-234.44"/>
<polygon fill="#63b8ff" stroke="#63b8ff" points="776.27,-187.86 782.94,-179.62 772.59,-181.9 776.27,-187.86"/>
</g>
<!-- Node20 -->
<g id="node20" class="node">
<title>Node20</title>
<g id="a_node20"><a xlink:href="group__S3Client.html#ga5a769be8fbc874bad858ea95743e5643" target="_top" xlink:title="Send S3 request to endpoint.">
<polygon fill="white" stroke="#666666" points="510.38,-161.25 401.38,-161.25 401.38,-142 510.38,-142 510.38,-161.25"/>
<text text-anchor="middle" x="455.88" y="-147.75" font-family="Helvetica,sans-Serif" font-size="10.00">sss::SendS3Request</text>
</a>
</g>
</g>
<!-- Node1&#45;&gt;Node20 -->
<g id="edge22" class="edge">
<title>Node1&#45;&gt;Node20</title>
<path fill="none" stroke="#63b8ff" d="M733.05,-166.16C668.43,-162.76 571.04,-157.63 510.84,-154.47"/>
<polygon fill="#63b8ff" stroke="#63b8ff" points="732.76,-169.7 742.93,-166.73 733.12,-162.71 732.76,-169.7"/>
</g>
<!-- Node21 -->
<g id="node21" class="node">
<title>Node21</title>
<g id="a_node21"><a xlink:href="classsss_1_1WebClient.html#ae7b1f77bd4ae44585f2d49ea493bdcc5" target="_top" xlink:title="Upload data from memory buffer.">
<polygon fill="white" stroke="#666666" points="708.25,-206.88 567.75,-206.88 567.75,-176.38 708.25,-176.38 708.25,-206.88"/>
<text text-anchor="start" x="575.75" y="-193.38" font-family="Helvetica,sans-Serif" font-size="10.00">sss::WebClient::UploadData</text>
<text text-anchor="middle" x="638" y="-182.12" font-family="Helvetica,sans-Serif" font-size="10.00">FromBuffer</text>
</a>
</g>
</g>
<!-- Node1&#45;&gt;Node21 -->
<g id="edge23" class="edge">
<title>Node1&#45;&gt;Node21</title>
<path fill="none" stroke="#63b8ff" d="M733,-178.69C724.92,-179.8 716.65,-180.94 708.52,-182.06"/>
<polygon fill="#63b8ff" stroke="#63b8ff" points="733.43,-182.03 742.86,-177.2 732.47,-175.09 733.43,-182.03"/>
</g>
<!-- Node23 -->
<g id="node23" class="node">
<title>Node23</title>
<g id="a_node23"><a xlink:href="classsss_1_1WebClient.html#ad038e41cfc902f6e49754c52a9a71992" target="_top" xlink:title="Upload file.">
<polygon fill="white" stroke="#666666" points="705.62,-120.25 570.38,-120.25 570.38,-101 705.62,-101 705.62,-120.25"/>
<text text-anchor="middle" x="638" y="-106.75" font-family="Helvetica,sans-Serif" font-size="10.00">sss::WebClient::UploadFile</text>
</a>
</g>
</g>
<!-- Node1&#45;&gt;Node23 -->
<g id="edge27" class="edge">
<title>Node1&#45;&gt;Node23</title>
<path fill="none" stroke="#63b8ff" d="M763.67,-155.7C746.93,-149.16 726.61,-141.35 708.25,-134.62 695.35,-129.9 681,-124.89 668.74,-120.68"/>
<polygon fill="#63b8ff" stroke="#63b8ff" points="761.99,-159.19 772.57,-159.58 764.54,-152.67 761.99,-159.19"/>
</g>
<!-- Node25 -->
<g id="node25" class="node">
<title>Node25</title>
<g id="a_node25"><a xlink:href="classsss_1_1WebClient.html#accb4e986d73bb44149918fa0043ec43b" target="_top" xlink:title="Upload file starting from offset using unbuffered I/O read.">
<polygon fill="white" stroke="#666666" points="705.62,-82.88 570.38,-82.88 570.38,-52.38 705.62,-52.38 705.62,-82.88"/>
<text text-anchor="start" x="578.38" y="-69.38" font-family="Helvetica,sans-Serif" font-size="10.00">sss::WebClient::UploadFile</text>
<text text-anchor="middle" x="638" y="-58.12" font-family="Helvetica,sans-Serif" font-size="10.00">Unbuffered</text>
</a>
</g>
</g>
<!-- Node1&#45;&gt;Node25 -->
<g id="edge30" class="edge">
<title>Node1&#45;&gt;Node25</title>
<path fill="none" stroke="#63b8ff" d="M782.3,-151.88C765.19,-134.47 737.01,-108.17 708.25,-91.62 702.85,-88.52 696.97,-85.72 691.01,-83.22"/>
<polygon fill="#63b8ff" stroke="#63b8ff" points="779.3,-153.86 788.76,-158.64 784.35,-149.01 779.3,-153.86"/>
</g>
<!-- Node4 -->
<g id="node4" class="node">
<title>Node4</title>
<g id="a_node4"><a xlink:href="classsss_1_1api_1_1S3Api.html#a4ea265566c3c4335ec01201cdc4410c6" target="_top" xlink:title=" ">
<polygon fill="white" stroke="#666666" points="341,-498.88 191.5,-498.88 191.5,-468.38 341,-468.38 341,-498.88"/>
<text text-anchor="start" x="199.5" y="-485.38" font-family="Helvetica,sans-Serif" font-size="10.00">sss::api::S3Api::AbortMultipart</text>
<text text-anchor="middle" x="266.25" y="-474.12" font-family="Helvetica,sans-Serif" font-size="10.00">Upload</text>
</a>
</g>
</g>
<!-- Node3&#45;&gt;Node4 -->
<g id="edge3" class="edge">
<title>Node3&#45;&gt;Node4</title>
<path fill="none" stroke="#63b8ff" d="M450.59,-252.01C440.26,-296.19 409.79,-401.42 344,-458.62 339.88,-462.21 335.23,-465.28 330.31,-467.92"/>
<polygon fill="#63b8ff" stroke="#63b8ff" points="454.18,-253 452.94,-242.48 447.35,-251.48 454.18,-253"/>
</g>
<!-- Node5 -->
<g id="node5" class="node">
<title>Node5</title>
<g id="a_node5"><a xlink:href="classsss_1_1api_1_1S3Api.html#a98f999a216121118dd569c7ef0c28ff3" target="_top" xlink:title=" ">
<polygon fill="white" stroke="#666666" points="331.62,-449.88 200.88,-449.88 200.88,-419.38 331.62,-419.38 331.62,-449.88"/>
<text text-anchor="start" x="208.88" y="-436.38" font-family="Helvetica,sans-Serif" font-size="10.00">sss::api::S3Api::Complete</text>
<text text-anchor="middle" x="266.25" y="-425.12" font-family="Helvetica,sans-Serif" font-size="10.00">MultipartUpload</text>
</a>
</g>
</g>
<!-- Node3&#45;&gt;Node5 -->
<g id="edge4" class="edge">
<title>Node3&#45;&gt;Node5</title>
<path fill="none" stroke="#63b8ff" d="M447.98,-251.46C434.14,-288.33 399.5,-367.58 344,-410.62 339.92,-413.79 335.41,-416.54 330.69,-418.93"/>
<polygon fill="#63b8ff" stroke="#63b8ff" points="451.48,-253.06 451.6,-242.46 444.9,-250.67 451.48,-253.06"/>
</g>
<!-- Node6 -->
<g id="node6" class="node">
<title>Node6</title>
<g id="a_node6"><a xlink:href="classsss_1_1api_1_1S3Api.html#ad890bd1ecfc978df24b2c3ed641e4081" target="_top" xlink:title=" ">
<polygon fill="white" stroke="#666666" points="340.62,-315.25 191.88,-315.25 191.88,-296 340.62,-296 340.62,-315.25"/>
<text text-anchor="middle" x="266.25" y="-301.75" font-family="Helvetica,sans-Serif" font-size="10.00">sss::api::S3Api::CreateBucket</text>
</a>
</g>
</g>
<!-- Node3&#45;&gt;Node6 -->
<g id="edge5" class="edge">
<title>Node3&#45;&gt;Node6</title>
<path fill="none" stroke="#63b8ff" d="M428.85,-247C406.87,-259.43 374.23,-276.62 344,-287.62 335.64,-290.67 326.58,-293.33 317.71,-295.6"/>
<polygon fill="#63b8ff" stroke="#63b8ff" points="430.22,-249.67 437.15,-241.66 426.74,-243.6 430.22,-249.67"/>
</g>
<!-- Node8 -->
<g id="node8" class="node">
<title>Node8</title>
<g id="a_node8"><a xlink:href="classsss_1_1api_1_1S3Api.html#a1796fafda3d90a4292a611ce1999433b" target="_top" xlink:title=" ">
<polygon fill="white" stroke="#666666" points="344,-363.88 188.5,-363.88 188.5,-333.38 344,-333.38 344,-363.88"/>
<text text-anchor="start" x="196.5" y="-350.38" font-family="Helvetica,sans-Serif" font-size="10.00">sss::api::S3Api::CreateMultipart</text>
<text text-anchor="middle" x="266.25" y="-339.12" font-family="Helvetica,sans-Serif" font-size="10.00">Upload</text>
</a>
</g>
</g>
<!-- Node3&#45;&gt;Node8 -->
<g id="edge7" class="edge">
<title>Node3&#45;&gt;Node8</title>
<path fill="none" stroke="#63b8ff" d="M438.3,-249.26C417.91,-269.99 381.39,-304.17 344,-324.62 338.37,-327.71 332.28,-330.46 326.08,-332.89"/>
<polygon fill="#63b8ff" stroke="#63b8ff" points="440.34,-252.15 444.76,-242.52 435.3,-247.28 440.34,-252.15"/>
</g>
<!-- Node9 -->
<g id="node9" class="node">
<title>Node9</title>
<g id="a_node9"><a xlink:href="classsss_1_1api_1_1S3Api.html#a3d63825d1916e4ba3ca13122c7660603" target="_top" xlink:title=" ">
<polygon fill="white" stroke="#666666" points="340.25,-204.25 192.25,-204.25 192.25,-185 340.25,-185 340.25,-204.25"/>
<text text-anchor="middle" x="266.25" y="-190.75" font-family="Helvetica,sans-Serif" font-size="10.00">sss::api::S3Api::DeleteBucket</text>
</a>
</g>
</g>
<!-- Node3&#45;&gt;Node9 -->
<g id="edge8" class="edge">
<title>Node3&#45;&gt;Node9</title>
<path fill="none" stroke="#63b8ff" d="M393.11,-219.44C368.92,-214.68 341.51,-209.27 318.46,-204.72"/>
<polygon fill="#63b8ff" stroke="#63b8ff" points="392.12,-223.01 402.61,-221.51 393.47,-216.15 392.12,-223.01"/>
</g>
<!-- Node10 -->
<g id="node10" class="node">
<title>Node10</title>
<g id="a_node10"><a xlink:href="classsss_1_1api_1_1S3Api.html#a14a75f15eb71fbba8639673100768b67" target="_top" xlink:title=" ">
<polygon fill="white" stroke="#666666" points="339.12,-278.25 193.38,-278.25 193.38,-259 339.12,-259 339.12,-278.25"/>
<text text-anchor="middle" x="266.25" y="-264.75" font-family="Helvetica,sans-Serif" font-size="10.00">sss::api::S3Api::DeleteObject</text>
</a>
</g>
</g>
<!-- Node3&#45;&gt;Node10 -->
<g id="edge10" class="edge">
<title>Node3&#45;&gt;Node10</title>
<path fill="none" stroke="#63b8ff" d="M393.11,-243.81C368.92,-248.57 341.51,-253.98 318.46,-258.53"/>
<polygon fill="#63b8ff" stroke="#63b8ff" points="393.47,-247.1 402.61,-241.74 392.12,-240.24 393.47,-247.1"/>
</g>
<!-- Node11 -->
<g id="node11" class="node">
<title>Node11</title>
<g id="a_node11"><a xlink:href="classsss_1_1api_1_1S3Api.html#af61465d92c0a94aa82ae863fc2a776a0" target="_top" xlink:title=" ">
<polygon fill="white" stroke="#666666" points="332.75,-241.25 199.75,-241.25 199.75,-222 332.75,-222 332.75,-241.25"/>
<text text-anchor="middle" x="266.25" y="-227.75" font-family="Helvetica,sans-Serif" font-size="10.00">sss::api::S3Api::GetObject</text>
</a>
</g>
</g>
<!-- Node3&#45;&gt;Node11 -->
<g id="edge11" class="edge">
<title>Node3&#45;&gt;Node11</title>
<path fill="none" stroke="#63b8ff" d="M389.1,-231.62C370.99,-231.62 351.34,-231.62 333.23,-231.62"/>
<polygon fill="#63b8ff" stroke="#63b8ff" points="388.85,-235.13 398.85,-231.62 388.85,-228.13 388.85,-235.13"/>
</g>
<!-- Node12 -->
<g id="node12" class="node">
<title>Node12</title>
<g id="a_node12"><a xlink:href="classsss_1_1api_1_1S3Api.html#aa4a2b1cc2c89a52d1aa89e571b785db2" target="_top" xlink:title=" ">
<polygon fill="white" stroke="#666666" points="337.62,-167.25 194.88,-167.25 194.88,-148 337.62,-148 337.62,-167.25"/>
<text text-anchor="middle" x="266.25" y="-153.75" font-family="Helvetica,sans-Serif" font-size="10.00">sss::api::S3Api::HeadBucket</text>
</a>
</g>
</g>
<!-- Node3&#45;&gt;Node12 -->
<g id="edge12" class="edge">
<title>Node3&#45;&gt;Node12</title>
<path fill="none" stroke="#63b8ff" d="M395.23,-217.89C389.93,-215.78 384.78,-213.38 380,-210.62 360.66,-199.49 363.57,-186.34 344,-175.62 338.24,-172.47 331.94,-169.87 325.5,-167.72"/>
<polygon fill="#63b8ff" stroke="#63b8ff" points="393.93,-221.49 404.52,-221.57 396.28,-214.9 393.93,-221.49"/>
</g>
<!-- Node13 -->
<g id="node13" class="node">
<title>Node13</title>
<g id="a_node13"><a xlink:href="classsss_1_1api_1_1S3Api.html#abc84a71b9a88b81afaa353ad17a91d22" target="_top" xlink:title=" ">
<polygon fill="white" stroke="#666666" points="336.5,-130.25 196,-130.25 196,-111 336.5,-111 336.5,-130.25"/>
<text text-anchor="middle" x="266.25" y="-116.75" font-family="Helvetica,sans-Serif" font-size="10.00">sss::api::S3Api::HeadObject</text>
</a>
</g>
</g>
<!-- Node3&#45;&gt;Node13 -->
<g id="edge14" class="edge">
<title>Node3&#45;&gt;Node13</title>
<path fill="none" stroke="#63b8ff" d="M390.06,-217.4C386.49,-215.43 383.1,-213.18 380,-210.62 352.41,-187.84 372.07,-160.81 344,-138.62 340.03,-135.49 335.6,-132.88 330.93,-130.71"/>
<polygon fill="#63b8ff" stroke="#63b8ff" points="388.32,-220.92 398.86,-222.02 391.3,-214.59 388.32,-220.92"/>
</g>
<!-- Node16 -->
<g id="node16" class="node">
<title>Node16</title>
<g id="a_node16"><a xlink:href="classsss_1_1api_1_1S3Api.html#a81e30673c06b609a2ee6e6bfd9130ca6" target="_top" xlink:title=" ">
<polygon fill="white" stroke="#666666" points="336.5,-401.25 196,-401.25 196,-382 336.5,-382 336.5,-401.25"/>
<text text-anchor="middle" x="266.25" y="-387.75" font-family="Helvetica,sans-Serif" font-size="10.00">sss::api::S3Api::ListBuckets</text>
</a>
</g>
</g>
<!-- Node3&#45;&gt;Node16 -->
<g id="edge17" class="edge">
<title>Node3&#45;&gt;Node16</title>
<path fill="none" stroke="#63b8ff" d="M444.99,-251.3C428.46,-282.12 392.2,-341.49 344,-372.62 338.35,-376.27 332.05,-379.22 325.56,-381.61"/>
<polygon fill="#63b8ff" stroke="#63b8ff" points="448.49,-253.16 450.01,-242.68 442.28,-249.93 448.49,-253.16"/>
</g>
<!-- Node17 -->
<g id="node17" class="node">
<title>Node17</title>
<g id="a_node17"><a xlink:href="classsss_1_1api_1_1S3Api.html#a3f00f611cd210a58ac6e8c0555984433" target="_top" xlink:title=" ">
<polygon fill="white" stroke="#666666" points="341.38,-93.25 191.12,-93.25 191.12,-74 341.38,-74 341.38,-93.25"/>
<text text-anchor="middle" x="266.25" y="-79.75" font-family="Helvetica,sans-Serif" font-size="10.00">sss::api::S3Api::ListObjectsV2</text>
</a>
</g>
</g>
<!-- Node3&#45;&gt;Node17 -->
<g id="edge19" class="edge">
<title>Node3&#45;&gt;Node17</title>
<path fill="none" stroke="#63b8ff" d="M390.29,-218.32C386.57,-216.13 383.1,-213.58 380,-210.62 343.11,-175.38 381.64,-136.07 344,-101.62 340.57,-98.48 336.69,-95.86 332.55,-93.67"/>
<polygon fill="#63b8ff" stroke="#63b8ff" points="388.43,-221.8 398.95,-223.08 391.52,-215.52 388.43,-221.8"/>
</g>
<!-- Node18 -->
<g id="node18" class="node">
<title>Node18</title>
<g id="a_node18"><a xlink:href="classsss_1_1api_1_1S3Api.html#a0473917e4d25a4a6fca40d097e4299d6" target="_top" xlink:title=" ">
<polygon fill="white" stroke="#666666" points="321.88,-56.25 210.62,-56.25 210.62,-37 321.88,-37 321.88,-56.25"/>
<text text-anchor="middle" x="266.25" y="-42.75" font-family="Helvetica,sans-Serif" font-size="10.00">sss::api::S3Api::Send</text>
</a>
</g>
</g>
<!-- Node3&#45;&gt;Node18 -->
<g id="edge20" class="edge">
<title>Node3&#45;&gt;Node18</title>
<path fill="none" stroke="#63b8ff" d="M390.21,-218.71C386.49,-216.43 383.03,-213.75 380,-210.62 333.5,-162.62 391.53,-111.61 344,-64.62 337.97,-58.66 330.35,-54.53 322.28,-51.69"/>
<polygon fill="#63b8ff" stroke="#63b8ff" points="388.44,-222.24 398.94,-223.62 391.59,-215.99 388.44,-222.24"/>
</g>
<!-- Node19 -->
<g id="node19" class="node">
<title>Node19</title>
<g id="a_node19"><a xlink:href="classsss_1_1api_1_1S3Api.html#a23223ee1fb701c55af2d942dbf261ae2" target="_top" xlink:title=" ">
<polygon fill="white" stroke="#666666" points="335.38,-19.25 197.12,-19.25 197.12,0 335.38,0 335.38,-19.25"/>
<text text-anchor="middle" x="266.25" y="-5.75" font-family="Helvetica,sans-Serif" font-size="10.00">sss::api::S3Api::TestBucket</text>
</a>
</g>
</g>
<!-- Node3&#45;&gt;Node19 -->
<g id="edge21" class="edge">
<title>Node3&#45;&gt;Node19</title>
<path fill="none" stroke="#63b8ff" d="M390.55,-219.19C386.67,-216.8 383.09,-213.97 380,-210.62 323.75,-149.74 401.55,-87.29 344,-27.62 340.96,-24.47 337.48,-21.83 333.72,-19.61"/>
<polygon fill="#63b8ff" stroke="#63b8ff" points="388.57,-222.62 399.08,-224.01 391.73,-216.37 388.57,-222.62"/>
</g>
<!-- Node7 -->
<g id="node7" class="node">
<title>Node7</title>
<g id="a_node7"><a xlink:href="bucket-test_8cpp.html#a3c04138a5bfe5d72780bb7e82a18e627" target="_top" xlink:title="Bucket tests.">
<polygon fill="white" stroke="#666666" points="94.75,-259.25 57.75,-259.25 57.75,-240 94.75,-240 94.75,-259.25"/>
<text text-anchor="middle" x="76.25" y="-245.75" font-family="Helvetica,sans-Serif" font-size="10.00">main</text>
</a>
</g>
</g>
<!-- Node6&#45;&gt;Node7 -->
<g id="edge6" class="edge">
<title>Node6&#45;&gt;Node7</title>
<path fill="none" stroke="#63b8ff" d="M208.32,-292.94C201.61,-291.25 194.89,-289.46 188.5,-287.62 155.15,-278.04 117.04,-264.43 95.19,-256.37"/>
<polygon fill="#63b8ff" stroke="#63b8ff" points="207.25,-296.52 217.79,-295.51 208.91,-289.72 207.25,-296.52"/>
</g>
<!-- Node9&#45;&gt;Node7 -->
<g id="edge9" class="edge">
<title>Node9&#45;&gt;Node7</title>
<path fill="none" stroke="#63b8ff" d="M208.61,-207.3C201.81,-209 194.98,-210.79 188.5,-212.62 155.2,-222.05 117.07,-235.27 95.21,-243.09"/>
<polygon fill="#63b8ff" stroke="#63b8ff" points="209.33,-210.48 218.21,-204.7 207.67,-203.68 209.33,-210.48"/>
</g>
<!-- Node12&#45;&gt;Node7 -->
<g id="edge13" class="edge">
<title>Node12&#45;&gt;Node7</title>
<path fill="none" stroke="#63b8ff" d="M200.7,-170.97C196.51,-172.38 192.41,-173.93 188.5,-175.62 149.12,-192.68 108.56,-223.73 89.09,-239.64"/>
<polygon fill="#63b8ff" stroke="#63b8ff" points="201.67,-174.02 210.2,-167.73 199.61,-167.33 201.67,-174.02"/>
</g>
<!-- Node14 -->
<g id="node14" class="node">
<title>Node14</title>
<g id="a_node14"><a xlink:href="classsss_1_1api_1_1S3Api.html#a872e80e356e8c404a9b0739d95a0af41" target="_top" xlink:title="[WebClient::Config]">
<polygon fill="white" stroke="#666666" points="152.5,-111.25 0,-111.25 0,-92 152.5,-92 152.5,-111.25"/>
<text text-anchor="middle" x="76.25" y="-97.75" font-family="Helvetica,sans-Serif" font-size="10.00">sss::api::S3Api::GetObjectSize</text>
</a>
</g>
</g>
<!-- Node13&#45;&gt;Node14 -->
<g id="edge15" class="edge">
<title>Node13&#45;&gt;Node14</title>
<path fill="none" stroke="#63b8ff" d="M184.63,-112.48C174.09,-111.41 163.33,-110.32 152.87,-109.27"/>
<polygon fill="#63b8ff" stroke="#63b8ff" points="184.21,-116.05 194.51,-113.58 184.92,-109.09 184.21,-116.05"/>
</g>
<!-- Node15 -->
<g id="node15" class="node">
<title>Node15</title>
<g id="a_node15"><a xlink:href="classsss_1_1api_1_1S3Api.html#aa3f7a3001bdad58c7b0c04cbd0dc3236" target="_top" xlink:title=" ">
<polygon fill="white" stroke="#666666" points="144.25,-148.25 8.25,-148.25 8.25,-129 144.25,-129 144.25,-148.25"/>
<text text-anchor="middle" x="76.25" y="-134.75" font-family="Helvetica,sans-Serif" font-size="10.00">sss::api::S3Api::TestObject</text>
</a>
</g>
</g>
<!-- Node13&#45;&gt;Node15 -->
<g id="edge16" class="edge">
<title>Node13&#45;&gt;Node15</title>
<path fill="none" stroke="#63b8ff" d="M184.88,-128.32C171.48,-129.6 157.71,-130.92 144.69,-132.17"/>
<polygon fill="#63b8ff" stroke="#63b8ff" points="184.89,-131.74 194.51,-127.3 184.22,-124.77 184.89,-131.74"/>
</g>
<!-- Node16&#45;&gt;Node7 -->
<g id="edge18" class="edge">
<title>Node16&#45;&gt;Node7</title>
<path fill="none" stroke="#63b8ff" d="M197.94,-377.52C194.67,-376.05 191.5,-374.42 188.5,-372.62 138.59,-342.77 98.18,-283.45 83.35,-259.75"/>
<polygon fill="#63b8ff" stroke="#63b8ff" points="196.4,-381.07 206.98,-381.5 198.97,-374.56 196.4,-381.07"/>
</g>
<!-- Node21&#45;&gt;Node3 -->
<g id="edge24" class="edge">
<title>Node21&#45;&gt;Node3</title>
<path fill="none" stroke="#63b8ff" d="M556.79,-209.44C538.16,-213.57 518.97,-217.84 502.44,-221.51"/>
<polygon fill="#63b8ff" stroke="#63b8ff" points="557.36,-212.67 566.36,-207.09 555.84,-205.84 557.36,-212.67"/>
</g>
<!-- Node21&#45;&gt;Node20 -->
<g id="edge25" class="edge">
<title>Node21&#45;&gt;Node20</title>
<path fill="none" stroke="#63b8ff" d="M556.79,-173.81C538.16,-169.68 518.97,-165.41 502.44,-161.74"/>
<polygon fill="#63b8ff" stroke="#63b8ff" points="555.84,-177.41 566.36,-176.16 557.36,-170.58 555.84,-177.41"/>
</g>
<!-- Node22 -->
<g id="node22" class="node">
<title>Node22</title>
<g id="a_node22"><a xlink:href="classsss_1_1WebClient.html#ab5af9d8e7c424e49fab04f0d9d59b489" target="_top" xlink:title="Upload file starting from offset using unbuffered memory mapping of file.">
<polygon fill="white" stroke="#666666" points="531.75,-201.25 380,-201.25 380,-182 531.75,-182 531.75,-201.25"/>
<text text-anchor="middle" x="455.88" y="-187.75" font-family="Helvetica,sans-Serif" font-size="10.00">sss::WebClient::UploadFileMM</text>
</a>
</g>
</g>
<!-- Node21&#45;&gt;Node22 -->
<g id="edge26" class="edge">
<title>Node21&#45;&gt;Node22</title>
<path fill="none" stroke="#63b8ff" d="M556.39,-191.62C548.27,-191.62 540.06,-191.62 532.01,-191.62"/>
<polygon fill="#63b8ff" stroke="#63b8ff" points="556.36,-195.13 566.36,-191.62 556.36,-188.13 556.36,-195.13"/>
</g>
<!-- Node23&#45;&gt;Node20 -->
<g id="edge29" class="edge">
<title>Node23&#45;&gt;Node20</title>
<path fill="none" stroke="#63b8ff" d="M582.47,-123.04C556.43,-128.96 525.67,-135.97 501.11,-141.56"/>
<polygon fill="#63b8ff" stroke="#63b8ff" points="582.96,-126.29 591.94,-120.65 581.41,-119.46 582.96,-126.29"/>
</g>
<!-- Node24 -->
<g id="node24" class="node">
<title>Node24</title>
<g id="a_node24"><a xlink:href="classsss_1_1api_1_1S3Api.html#ab7affe0834f5892b393e731783b7ccac" target="_top" xlink:title=" ">
<polygon fill="white" stroke="#666666" points="515.62,-123.88 396.12,-123.88 396.12,-93.38 515.62,-93.38 515.62,-123.88"/>
<text text-anchor="start" x="404.12" y="-110.38" font-family="Helvetica,sans-Serif" font-size="10.00">sss::api::S3Api::PutFile</text>
<text text-anchor="middle" x="455.88" y="-99.12" font-family="Helvetica,sans-Serif" font-size="10.00">Object</text>
</a>
</g>
</g>
<!-- Node23&#45;&gt;Node24 -->
<g id="edge28" class="edge">
<title>Node23&#45;&gt;Node24</title>
<path fill="none" stroke="#63b8ff" d="M559.01,-109.76C544.59,-109.6 529.75,-109.43 516,-109.28"/>
<polygon fill="#63b8ff" stroke="#63b8ff" points="558.89,-113.27 568.93,-109.88 558.97,-106.27 558.89,-113.27"/>
</g>
</g>
</svg>
