<?xml version="1.0" encoding="UTF-8" standalone="no"?>
<!DOCTYPE svg PUBLIC "-//W3C//DTD SVG 1.1//EN"
 "http://www.w3.org/Graphics/SVG/1.1/DTD/svg11.dtd">
<!-- Generated by graphviz version 8.0.5 (20230430.1635)
 -->
<!-- Title: sss::api::S3Api::TestBucket Pages: 1 -->
<svg width="1083pt" height="600pt"
 viewBox="0.00 0.00 1082.75 599.83" xmlns="http://www.w3.org/2000/svg" xmlns:xlink="http://www.w3.org/1999/xlink">
<g id="graph0" class="graph" transform="scale(1 1) rotate(0) translate(4 595.83)">
<title>sss::api::S3Api::TestBucket</title>
<!-- Node1 -->
<g id="node1" class="node">
<title>Node1</title>
<g id="a_node1"><a xlink:title=" ">
<polygon fill="#999999" stroke="#666666" points="138.25,-139.25 0,-139.25 0,-120 138.25,-120 138.25,-139.25"/>
<text text-anchor="middle" x="69.12" y="-125.75" font-family="Helvetica,sans-Serif" font-size="10.00">sss::api::S3Api::TestBucket</text>
</a>
</g>
</g>
<!-- Node2 -->
<g id="node2" class="node">
<title>Node2</title>
<g id="a_node2"><a xlink:href="classsss_1_1api_1_1S3Api.html#ad09581bf28c4bbbcbb71b329959ec1ae" target="_top" xlink:title=" ">
<polygon fill="white" stroke="#666666" points="290.38,-161.25 179.12,-161.25 179.12,-142 290.38,-142 290.38,-161.25"/>
<text text-anchor="middle" x="234.75" y="-147.75" font-family="Helvetica,sans-Serif" font-size="10.00">sss::api::S3Api::Send</text>
</a>
</g>
</g>
<!-- Node1&#45;&gt;Node2 -->
<g id="edge1" class="edge">
<title>Node1&#45;&gt;Node2</title>
<path fill="none" stroke="#63b8ff" d="M138.57,-138.83C148.3,-140.14 158.3,-141.48 167.98,-142.78"/>
<polygon fill="#63b8ff" stroke="#63b8ff" points="167.37,-146.37 177.75,-144.23 168.31,-139.43 167.37,-146.37"/>
</g>
<!-- Node34 -->
<g id="node34" class="node">
<title>Node34</title>
<g id="a_node34"><a xlink:href="classsss_1_1api_1_1S3Api.html#a69578085d659cbb214ef8ccc12a12cd4" target="_top" xlink:title=" ">
<polygon fill="white" stroke="#666666" points="295.25,-123.88 174.25,-123.88 174.25,-93.38 295.25,-93.38 295.25,-123.88"/>
<text text-anchor="start" x="182.25" y="-110.38" font-family="Helvetica,sans-Serif" font-size="10.00">sss::api::S3Api::Signing</text>
<text text-anchor="middle" x="234.75" y="-99.12" font-family="Helvetica,sans-Serif" font-size="10.00">Endpoint</text>
</a>
</g>
</g>
<!-- Node1&#45;&gt;Node34 -->
<g id="edge46" class="edge">
<title>Node1&#45;&gt;Node34</title>
<path fill="none" stroke="#63b8ff" d="M138.57,-120.84C146.73,-119.79 155.07,-118.72 163.26,-117.67"/>
<polygon fill="#63b8ff" stroke="#63b8ff" points="163.43,-121.05 172.9,-116.31 162.54,-114.11 163.43,-121.05"/>
</g>
<!-- Node3 -->
<g id="node3" class="node">
<title>Node3</title>
<g id="a_node3"><a xlink:href="classsss_1_1api_1_1S3Api.html#a840772746fbb0a79c161037da7b24a31" target="_top" xlink:title="[WebClient::Config]">
<polygon fill="white" stroke="#666666" points="467.25,-365.25 350,-365.25 350,-346 467.25,-346 467.25,-365.25"/>
<text text-anchor="middle" x="408.62" y="-351.75" font-family="Helvetica,sans-Serif" font-size="10.00">sss::api::S3Api::Config</text>
</a>
</g>
</g>
<!-- Node2&#45;&gt;Node3 -->
<g id="edge2" class="edge">
<title>Node2&#45;&gt;Node3</title>
<path fill="none" stroke="#63b8ff" d="M244.27,-161.74C271.6,-194.18 357.3,-295.9 392.4,-337.56"/>
<polygon fill="#63b8ff" stroke="#63b8ff" points="390.33,-339.53 399.45,-344.93 395.69,-335.02 390.33,-339.53"/>
</g>
<!-- Node12 -->
<g id="node12" class="node">
<title>Node12</title>
<g id="a_node12"><a xlink:href="classsss_1_1WebClient.html#a51ce0ecf6487b6a43072643fe4f4cb4e" target="_top" xlink:title=" ">
<polygon fill="white" stroke="#666666" points="859.62,-591.25 714.62,-591.25 714.62,-572 859.62,-572 859.62,-591.25"/>
<text text-anchor="middle" x="787.12" y="-577.75" font-family="Helvetica,sans-Serif" font-size="10.00">sss::WebClient::SetPostData</text>
</a>
</g>
</g>
<!-- Node2&#45;&gt;Node12 -->
<g id="edge39" class="edge">
<title>Node2&#45;&gt;Node12</title>
<path fill="none" stroke="#63b8ff" d="M238.55,-161.7C254.53,-216.82 339.9,-482.46 522,-564.62 578.72,-590.22 649.34,-593.49 703.28,-590.9"/>
<polygon fill="#63b8ff" stroke="#63b8ff" points="703.4,-594.34 713.19,-590.28 703,-587.35 703.4,-594.34"/>
</g>
<!-- Node27 -->
<g id="node27" class="node">
<title>Node27</title>
<g id="a_node27"><a xlink:href="lib_2include_2utility_8h.html#ab314781bb3f053ef5325b50f3a1b74f8" target="_top" xlink:title=" ">
<polygon fill="white" stroke="#666666" points="1029.75,-140.25 955.25,-140.25 955.25,-121 1029.75,-121 1029.75,-140.25"/>
<text text-anchor="middle" x="992.5" y="-126.75" font-family="Helvetica,sans-Serif" font-size="10.00">sss::ToLower</text>
</a>
</g>
</g>
<!-- Node2&#45;&gt;Node27 -->
<g id="edge42" class="edge">
<title>Node2&#45;&gt;Node27</title>
<path fill="none" stroke="#63b8ff" d="M290.71,-150.1C432.94,-146.15 811.25,-135.63 944.36,-131.93"/>
<polygon fill="#63b8ff" stroke="#63b8ff" points="944.1,-135.42 954,-131.64 943.9,-128.42 944.1,-135.42"/>
</g>
<!-- Node29 -->
<g id="node29" class="node">
<title>Node29</title>
<g id="a_node29"><a xlink:href="group__ErrorHandling.html#ga781648957bfce0bbc86cbdbff94e28a6" target="_top" xlink:title=" ">
<polygon fill="white" stroke="#666666" points="453.38,-56.25 363.88,-56.25 363.88,-37 453.38,-37 453.38,-56.25"/>
<text text-anchor="middle" x="408.62" y="-42.75" font-family="Helvetica,sans-Serif" font-size="10.00">sss::HandleError</text>
</a>
</g>
</g>
<!-- Node2&#45;&gt;Node29 -->
<g id="edge36" class="edge">
<title>Node2&#45;&gt;Node29</title>
<path fill="none" stroke="#63b8ff" d="M280.62,-141.52C285.88,-139.15 290.91,-136.23 295.25,-132.62 321.25,-111.02 304.56,-86.37 331.25,-65.62 337.7,-60.61 345.3,-56.9 353.17,-54.16"/>
<polygon fill="#63b8ff" stroke="#63b8ff" points="353.99,-57.28 362.59,-51.09 352.01,-50.56 353.99,-57.28"/>
</g>
<!-- Node30 -->
<g id="node30" class="node">
<title>Node30</title>
<g id="a_node30"><a xlink:href="group__Internal.html#ga2b8b08c2a4994a87377d83ccfa9a6a53" target="_top" xlink:title=" ">
<polygon fill="white" stroke="#666666" points="457.12,-19.25 360.12,-19.25 360.12,0 457.12,0 457.12,-19.25"/>
<text text-anchor="middle" x="408.62" y="-5.75" font-family="Helvetica,sans-Serif" font-size="10.00">sss::ParseParams</text>
</a>
</g>
</g>
<!-- Node2&#45;&gt;Node30 -->
<g id="edge37" class="edge">
<title>Node2&#45;&gt;Node30</title>
<path fill="none" stroke="#63b8ff" d="M282.39,-141.59C287.11,-139.21 291.53,-136.27 295.25,-132.62 330.5,-98.11 294.69,-60.74 331.25,-27.62 336.61,-22.77 343.03,-19.16 349.84,-16.47"/>
<polygon fill="#63b8ff" stroke="#63b8ff" points="350.58,-19.59 359.02,-13.18 348.43,-12.93 350.58,-19.59"/>
</g>
<!-- Node31 -->
<g id="node31" class="node">
<title>Node31</title>
<g id="a_node31"><a xlink:href="classsss_1_1WebClient.html#aa1d7484f0e09242ce53b24f9648ce50e" target="_top" xlink:title=" ">
<polygon fill="white" stroke="#666666" points="648.62,-180.25 537.38,-180.25 537.38,-161 648.62,-161 648.62,-180.25"/>
<text text-anchor="middle" x="593" y="-166.75" font-family="Helvetica,sans-Serif" font-size="10.00">sss::WebClient::Send</text>
</a>
</g>
</g>
<!-- Node2&#45;&gt;Node31 -->
<g id="edge38" class="edge">
<title>Node2&#45;&gt;Node31</title>
<path fill="none" stroke="#63b8ff" d="M290.63,-154.55C354.05,-157.93 458.34,-163.5 526.09,-167.11"/>
<polygon fill="#63b8ff" stroke="#63b8ff" points="525.88,-170.66 536.05,-167.69 526.25,-163.67 525.88,-170.66"/>
</g>
<!-- Node32 -->
<g id="node32" class="node">
<title>Node32</title>
<g id="a_node32"><a xlink:href="classsss_1_1WebClient.html#a7dfd984b33a29686fb0355b65b620e99" target="_top" xlink:title=" ">
<polygon fill="white" stroke="#666666" points="486,-104.88 331.25,-104.88 331.25,-74.38 486,-74.38 486,-104.88"/>
<text text-anchor="start" x="339.25" y="-91.38" font-family="Helvetica,sans-Serif" font-size="10.00">sss::WebClient::SetUrlEncoded</text>
<text text-anchor="middle" x="408.62" y="-80.12" font-family="Helvetica,sans-Serif" font-size="10.00">PostData</text>
</a>
</g>
</g>
<!-- Node2&#45;&gt;Node32 -->
<g id="edge40" class="edge">
<title>Node2&#45;&gt;Node32</title>
<path fill="none" stroke="#63b8ff" d="M268.61,-141.53C277.3,-138.75 286.66,-135.66 295.25,-132.62 311.43,-126.9 315.23,-124.78 331.25,-118.62 339.16,-115.58 347.54,-112.38 355.74,-109.26"/>
<polygon fill="#63b8ff" stroke="#63b8ff" points="356.88,-112.19 364.98,-105.37 354.39,-105.65 356.88,-112.19"/>
</g>
<!-- Node33 -->
<g id="node33" class="node">
<title>Node33</title>
<g id="a_node33"><a xlink:href="classsss_1_1WebClient.html#ae7b1f77bd4ae44585f2d49ea493bdcc5" target="_top" xlink:title="Upload data from memory buffer.">
<polygon fill="white" stroke="#666666" points="478.88,-228.88 338.38,-228.88 338.38,-198.38 478.88,-198.38 478.88,-228.88"/>
<text text-anchor="start" x="346.38" y="-215.38" font-family="Helvetica,sans-Serif" font-size="10.00">sss::WebClient::UploadData</text>
<text text-anchor="middle" x="408.62" y="-204.12" font-family="Helvetica,sans-Serif" font-size="10.00">FromBuffer</text>
</a>
</g>
</g>
<!-- Node2&#45;&gt;Node33 -->
<g id="edge43" class="edge">
<title>Node2&#45;&gt;Node33</title>
<path fill="none" stroke="#63b8ff" d="M263.75,-161.72C288.08,-170.5 324.02,-183.47 353.89,-194.24"/>
<polygon fill="#63b8ff" stroke="#63b8ff" points="352.58,-197.85 363.18,-197.95 354.96,-191.27 352.58,-197.85"/>
</g>
<!-- Node4 -->
<g id="node4" class="node">
<title>Node4</title>
<g id="a_node4"><a xlink:href="classsss_1_1api_1_1S3Api.html#aea9741d60e74775ccd4de1c2c58f64fa" target="_top" xlink:title=" ">
<polygon fill="white" stroke="#666666" points="653.88,-555.25 532.12,-555.25 532.12,-536 653.88,-536 653.88,-555.25"/>
<text text-anchor="middle" x="593" y="-541.75" font-family="Helvetica,sans-Serif" font-size="10.00">sss::api::S3Api::Access</text>
</a>
</g>
</g>
<!-- Node3&#45;&gt;Node4 -->
<g id="edge3" class="edge">
<title>Node3&#45;&gt;Node4</title>
<path fill="none" stroke="#63b8ff" d="M413.58,-365.48C425.52,-393.96 463.95,-477.22 522,-521.62 526.97,-525.43 532.58,-528.65 538.41,-531.38"/>
<polygon fill="#63b8ff" stroke="#63b8ff" points="536.77,-534.9 547.35,-535.51 539.46,-528.44 536.77,-534.9"/>
</g>
<!-- Node5 -->
<g id="node5" class="node">
<title>Node5</title>
<g id="a_node5"><a xlink:href="classsss_1_1api_1_1S3Api.html#a3718745d3b940462ae9f3b78f773b3a6" target="_top" xlink:title="Clear data and reset read and write functions.">
<polygon fill="white" stroke="#666666" points="649,-479.25 537,-479.25 537,-460 649,-460 649,-479.25"/>
<text text-anchor="middle" x="593" y="-465.75" font-family="Helvetica,sans-Serif" font-size="10.00">sss::api::S3Api::Clear</text>
</a>
</g>
</g>
<!-- Node3&#45;&gt;Node5 -->
<g id="edge4" class="edge">
<title>Node3&#45;&gt;Node5</title>
<path fill="none" stroke="#63b8ff" d="M419.59,-365.64C438.2,-383.84 480.17,-422.62 522,-445.62 529.12,-449.54 537,-452.99 544.83,-455.96"/>
<polygon fill="#63b8ff" stroke="#63b8ff" points="543.42,-459.53 554.01,-459.59 545.77,-452.94 543.42,-459.53"/>
</g>
<!-- Node10 -->
<g id="node10" class="node">
<title>Node10</title>
<g id="a_node10"><a xlink:href="classsss_1_1WebClient.html#a75890c14fbe4a4bbac61718a4f3c064d" target="_top" xlink:title=" ">
<polygon fill="white" stroke="#666666" points="857.38,-552.25 716.88,-552.25 716.88,-533 857.38,-533 857.38,-552.25"/>
<text text-anchor="middle" x="787.12" y="-538.75" font-family="Helvetica,sans-Serif" font-size="10.00">sss::WebClient::SetHeaders</text>
</a>
</g>
</g>
<!-- Node3&#45;&gt;Node10 -->
<g id="edge16" class="edge">
<title>Node3&#45;&gt;Node10</title>
<path fill="none" stroke="#63b8ff" d="M414.88,-365.59C428.7,-390.74 468.7,-457.01 522,-488.62 552.55,-506.75 639.74,-522.37 705.66,-532.08"/>
<polygon fill="#63b8ff" stroke="#63b8ff" points="705.05,-535.67 715.45,-533.64 706.06,-528.74 705.05,-535.67"/>
</g>
<!-- Node11 -->
<g id="node11" class="node">
<title>Node11</title>
<g id="a_node11"><a xlink:href="classsss_1_1WebClient.html#a12b5db6b8c667024557ab58059d39994" target="_top" xlink:title=" ">
<polygon fill="white" stroke="#666666" points="849.12,-441.25 725.12,-441.25 725.12,-422 849.12,-422 849.12,-441.25"/>
<text text-anchor="middle" x="787.12" y="-427.75" font-family="Helvetica,sans-Serif" font-size="10.00">sss::WebClient::SetPath</text>
</a>
</g>
</g>
<!-- Node3&#45;&gt;Node11 -->
<g id="edge20" class="edge">
<title>Node3&#45;&gt;Node11</title>
<path fill="none" stroke="#63b8ff" d="M434.2,-365.71C456.7,-374.57 491.08,-387.17 522,-394.62 586.01,-410.06 660.4,-419.76 713.9,-425.34"/>
<polygon fill="#63b8ff" stroke="#63b8ff" points="713.34,-428.9 723.65,-426.44 714.05,-421.94 713.34,-428.9"/>
</g>
<!-- Node13 -->
<g id="node13" class="node">
<title>Node13</title>
<g id="a_node13"><a xlink:href="classsss_1_1WebClient.html#a9bf978d95b79728f6d60fc2bdb4fe546" target="_top" xlink:title=" ">
<polygon fill="white" stroke="#666666" points="873.12,-404.25 701.12,-404.25 701.12,-385 873.12,-385 873.12,-404.25"/>
<text text-anchor="middle" x="787.12" y="-390.75" font-family="Helvetica,sans-Serif" font-size="10.00">sss::WebClient::SetReqParameters</text>
</a>
</g>
</g>
<!-- Node3&#45;&gt;Node13 -->
<g id="edge21" class="edge">
<title>Node3&#45;&gt;Node13</title>
<path fill="none" stroke="#63b8ff" d="M463.21,-365.72C481.77,-368.94 502.75,-372.27 522,-374.62 577.5,-381.4 639.85,-386.25 690.04,-389.48"/>
<polygon fill="#63b8ff" stroke="#63b8ff" points="689.68,-393.03 699.88,-390.16 690.12,-386.04 689.68,-393.03"/>
</g>
<!-- Node14 -->
<g id="node14" class="node">
<title>Node14</title>
<g id="a_node14"><a xlink:href="classsss_1_1api_1_1S3Api.html#a25a999d87c121627166fc0a896f536c7" target="_top" xlink:title=" ">
<polygon fill="white" stroke="#666666" points="656.5,-328.25 529.5,-328.25 529.5,-309 656.5,-309 656.5,-328.25"/>
<text text-anchor="middle" x="593" y="-314.75" font-family="Helvetica,sans-Serif" font-size="10.00">sss::api::S3Api::Endpoint</text>
</a>
</g>
</g>
<!-- Node3&#45;&gt;Node14 -->
<g id="edge13" class="edge">
<title>Node3&#45;&gt;Node14</title>
<path fill="none" stroke="#63b8ff" d="M459.46,-345.51C481.78,-340.99 508.28,-335.61 531.71,-330.86"/>
<polygon fill="#63b8ff" stroke="#63b8ff" points="532.12,-334.14 541.23,-328.72 530.73,-327.28 532.12,-334.14"/>
</g>
<!-- Node15 -->
<g id="node15" class="node">
<title>Node15</title>
<g id="a_node15"><a xlink:href="classsss_1_1api_1_1S3Api.html#a6f518c16679e99f119966b36ac28463f" target="_top" xlink:title=" ">
<polygon fill="white" stroke="#666666" points="651.62,-291.25 534.38,-291.25 534.38,-272 651.62,-272 651.62,-291.25"/>
<text text-anchor="middle" x="593" y="-277.75" font-family="Helvetica,sans-Serif" font-size="10.00">sss::api::S3Api::Secret</text>
</a>
</g>
</g>
<!-- Node3&#45;&gt;Node15 -->
<g id="edge14" class="edge">
<title>Node3&#45;&gt;Node15</title>
<path fill="none" stroke="#63b8ff" d="M427.01,-345.51C448.67,-333.26 487.08,-312.65 522,-299.62 526.75,-297.85 531.74,-296.19 536.78,-294.65"/>
<polygon fill="#63b8ff" stroke="#63b8ff" points="537.49,-297.8 546.13,-291.67 535.55,-291.08 537.49,-297.8"/>
</g>
<!-- Node16 -->
<g id="node16" class="node">
<title>Node16</title>
<g id="a_node16"><a xlink:href="classsss_1_1WebClient.html#afc3b7a92568fbb1ea447918920ca266e" target="_top" xlink:title="Set endpoint: &#160;&lt;proto&gt;://&lt;server&gt;:&lt;port&gt;">
<polygon fill="white" stroke="#666666" points="664,-254.25 522,-254.25 522,-235 664,-235 664,-254.25"/>
<text text-anchor="middle" x="593" y="-240.75" font-family="Helvetica,sans-Serif" font-size="10.00">sss::WebClient::SetEndpoint</text>
</a>
</g>
</g>
<!-- Node3&#45;&gt;Node16 -->
<g id="edge15" class="edge">
<title>Node3&#45;&gt;Node16</title>
<path fill="none" stroke="#63b8ff" d="M418.78,-345.53C436.7,-326.41 478.46,-284.83 522,-262.62 525.07,-261.06 528.3,-259.62 531.6,-258.3"/>
<polygon fill="#63b8ff" stroke="#63b8ff" points="532.44,-261.36 540.68,-254.69 530.08,-254.77 532.44,-261.36"/>
</g>
<!-- Node17 -->
<g id="node17" class="node">
<title>Node17</title>
<g id="a_node17"><a xlink:href="classsss_1_1WebClient.html#af6233ffd7b294e1e7e606e838dd44e9e" target="_top" xlink:title=" ">
<polygon fill="white" stroke="#666666" points="661,-217.25 525,-217.25 525,-198 661,-198 661,-217.25"/>
<text text-anchor="middle" x="593" y="-203.75" font-family="Helvetica,sans-Serif" font-size="10.00">sss::WebClient::SetMethod</text>
</a>
</g>
</g>
<!-- Node3&#45;&gt;Node17 -->
<g id="edge17" class="edge">
<title>Node3&#45;&gt;Node17</title>
<path fill="none" stroke="#63b8ff" d="M415.25,-345.68C429.63,-321.2 470.27,-257.69 522,-225.62 524.16,-224.29 526.42,-223.05 528.74,-221.9"/>
<polygon fill="#63b8ff" stroke="#63b8ff" points="529.78,-224.83 537.6,-217.68 527.03,-218.4 529.78,-224.83"/>
</g>
<!-- Node19 -->
<g id="node19" class="node">
<title>Node19</title>
<g id="a_node19"><a xlink:href="group__Sign.html#ga3ae8e18ef70752b7369fca66c40c526b" target="_top" xlink:title="Sign headers.">
<polygon fill="white" stroke="#666666" points="640,-365.25 546,-365.25 546,-346 640,-346 640,-365.25"/>
<text text-anchor="middle" x="593" y="-351.75" font-family="Helvetica,sans-Serif" font-size="10.00">sss::SignHeaders</text>
</a>
</g>
</g>
<!-- Node3&#45;&gt;Node19 -->
<g id="edge22" class="edge">
<title>Node3&#45;&gt;Node19</title>
<path fill="none" stroke="#63b8ff" d="M467.58,-355.62C489.07,-355.62 513.42,-355.62 534.84,-355.62"/>
<polygon fill="#63b8ff" stroke="#63b8ff" points="534.75,-359.13 544.75,-355.62 534.75,-352.13 534.75,-359.13"/>
</g>
<!-- Node6 -->
<g id="node6" class="node">
<title>Node6</title>
<g id="a_node6"><a xlink:href="classsss_1_1WebClient.html#a381f5715b7a2f19a0d4414d278874bae" target="_top" xlink:title="Clear internal buffers.">
<polygon fill="white" stroke="#666666" points="858.88,-515.25 715.38,-515.25 715.38,-496 858.88,-496 858.88,-515.25"/>
<text text-anchor="middle" x="787.12" y="-501.75" font-family="Helvetica,sans-Serif" font-size="10.00">sss::WebClient::ClearBuffers</text>
</a>
</g>
</g>
<!-- Node5&#45;&gt;Node6 -->
<g id="edge5" class="edge">
<title>Node5&#45;&gt;Node6</title>
<path fill="none" stroke="#63b8ff" d="M648.03,-479.75C670.84,-484.02 697.59,-489.04 721.44,-493.5"/>
<polygon fill="#63b8ff" stroke="#63b8ff" points="720.7,-497.11 731.17,-495.51 721.98,-490.23 720.7,-497.11"/>
</g>
<!-- Node7 -->
<g id="node7" class="node">
<title>Node7</title>
<g id="a_node7"><a xlink:href="classsss_1_1WebClient.html#a96837f149bb473853a6523d096a25c56" target="_top" xlink:title="Reset read/write functions to default.">
<polygon fill="white" stroke="#666666" points="874.25,-478.25 700,-478.25 700,-459 874.25,-459 874.25,-478.25"/>
<text text-anchor="middle" x="787.12" y="-464.75" font-family="Helvetica,sans-Serif" font-size="10.00">sss::WebClient::ResetRWFunctions</text>
</a>
</g>
</g>
<!-- Node5&#45;&gt;Node7 -->
<g id="edge6" class="edge">
<title>Node5&#45;&gt;Node7</title>
<path fill="none" stroke="#63b8ff" d="M649.31,-469.34C661.73,-469.27 675.27,-469.2 688.84,-469.13"/>
<polygon fill="#63b8ff" stroke="#63b8ff" points="688.73,-472.63 698.71,-469.07 688.69,-465.63 688.73,-472.63"/>
</g>
<!-- Node5&#45;&gt;Node10 -->
<g id="edge9" class="edge">
<title>Node5&#45;&gt;Node10</title>
<path fill="none" stroke="#63b8ff" d="M631.84,-479.68C642.6,-483.3 654.08,-487.94 664,-493.62 682.32,-504.13 681.07,-515.28 700,-524.62 703.32,-526.26 706.78,-527.75 710.33,-529.11"/>
<polygon fill="#63b8ff" stroke="#63b8ff" points="708.92,-532.66 719.52,-532.58 711.18,-526.04 708.92,-532.66"/>
</g>
<!-- Node5&#45;&gt;Node11 -->
<g id="edge10" class="edge">
<title>Node5&#45;&gt;Node11</title>
<path fill="none" stroke="#63b8ff" d="M644.98,-459.54C669.4,-454.71 698.84,-448.89 724.5,-443.81"/>
<polygon fill="#63b8ff" stroke="#63b8ff" points="725.11,-447.06 734.24,-441.69 723.75,-440.2 725.11,-447.06"/>
</g>
<!-- Node5&#45;&gt;Node12 -->
<g id="edge11" class="edge">
<title>Node5&#45;&gt;Node12</title>
<path fill="none" stroke="#63b8ff" d="M606.93,-479.59C621.19,-490.72 644.68,-509.43 664,-526.62 680.67,-541.46 680.41,-550.93 700,-561.62 704.48,-564.07 709.25,-566.22 714.16,-568.1"/>
<polygon fill="#63b8ff" stroke="#63b8ff" points="712.78,-571.68 723.38,-571.62 715.06,-565.06 712.78,-571.68"/>
</g>
<!-- Node5&#45;&gt;Node13 -->
<g id="edge12" class="edge">
<title>Node5&#45;&gt;Node13</title>
<path fill="none" stroke="#63b8ff" d="M609.15,-459.66C629.15,-446.94 665.84,-425.08 700,-412.62 705.16,-410.74 710.57,-409.04 716.06,-407.49"/>
<polygon fill="#63b8ff" stroke="#63b8ff" points="716.87,-410.63 725.66,-404.71 715.1,-403.86 716.87,-410.63"/>
</g>
<!-- Node8 -->
<g id="node8" class="node">
<title>Node8</title>
<g id="a_node8"><a xlink:href="classsss_1_1WebClient.html#a88dbcc61562e84aa9ebf1eabf887ac28" target="_top" xlink:title=" ">
<polygon fill="white" stroke="#666666" points="1074.75,-521.25 910.25,-521.25 910.25,-502 1074.75,-502 1074.75,-521.25"/>
<text text-anchor="middle" x="992.5" y="-507.75" font-family="Helvetica,sans-Serif" font-size="10.00">sss::WebClient::SetReadFunction</text>
</a>
</g>
</g>
<!-- Node7&#45;&gt;Node8 -->
<g id="edge7" class="edge">
<title>Node7&#45;&gt;Node8</title>
<path fill="none" stroke="#63b8ff" d="M836.42,-478.68C848.75,-481.26 861.99,-484.04 874.25,-486.62 893.66,-490.72 914.87,-495.24 933.85,-499.29"/>
<polygon fill="#63b8ff" stroke="#63b8ff" points="932.93,-502.88 943.44,-501.55 934.39,-496.03 932.93,-502.88"/>
</g>
<!-- Node9 -->
<g id="node9" class="node">
<title>Node9</title>
<g id="a_node9"><a xlink:href="classsss_1_1WebClient.html#a002876073b3869a9b9a9d709d14f1d7e" target="_top" xlink:title=" ">
<polygon fill="white" stroke="#666666" points="1055.62,-483.88 929.38,-483.88 929.38,-453.38 1055.62,-453.38 1055.62,-483.88"/>
<text text-anchor="start" x="937.38" y="-470.38" font-family="Helvetica,sans-Serif" font-size="10.00">sss::WebClient::SetWrite</text>
<text text-anchor="middle" x="992.5" y="-459.12" font-family="Helvetica,sans-Serif" font-size="10.00">Function</text>
</a>
</g>
</g>
<!-- Node7&#45;&gt;Node9 -->
<g id="edge8" class="edge">
<title>Node7&#45;&gt;Node9</title>
<path fill="none" stroke="#63b8ff" d="M874.67,-468.62C889.23,-468.62 904.21,-468.62 918.39,-468.62"/>
<polygon fill="#63b8ff" stroke="#63b8ff" points="918.05,-472.13 928.05,-468.62 918.05,-465.13 918.05,-472.13"/>
</g>
<!-- Node18 -->
<g id="node18" class="node">
<title>Node18</title>
<g id="a_node18"><a xlink:href="lib_2include_2utility_8h.html#ae153c064d6f1beda845702f67605b20e" target="_top" xlink:title=" ">
<polygon fill="white" stroke="#666666" points="1029.75,-195.25 955.25,-195.25 955.25,-176 1029.75,-176 1029.75,-195.25"/>
<text text-anchor="middle" x="992.5" y="-181.75" font-family="Helvetica,sans-Serif" font-size="10.00">sss::ToUpper</text>
</a>
</g>
</g>
<!-- Node17&#45;&gt;Node18 -->
<g id="edge18" class="edge">
<title>Node17&#45;&gt;Node18</title>
<path fill="none" stroke="#63b8ff" d="M661.43,-203.89C741.75,-199.45 873.85,-192.14 944.11,-188.25"/>
<polygon fill="#63b8ff" stroke="#63b8ff" points="944.04,-191.7 953.83,-187.65 943.66,-184.71 944.04,-191.7"/>
</g>
<!-- Node18&#45;&gt;Node18 -->
<g id="edge19" class="edge">
<title>Node18&#45;&gt;Node18</title>
<path fill="none" stroke="#63b8ff" d="M960.35,-195.54C945.68,-204.15 956.4,-213.25 992.5,-213.25 1015.63,-213.25 1028.34,-209.51 1030.63,-204.56"/>
<polygon fill="#63b8ff" stroke="#63b8ff" points="1033.09,-202.94 1024.65,-196.54 1027.26,-206.81 1033.09,-202.94"/>
</g>
<!-- Node20 -->
<g id="node20" class="node">
<title>Node20</title>
<g id="a_node20"><a xlink:href="group__Ranges.html#ga0aa7f3b15d2ebf9b597a1b5ba38ae8ac" target="_top" xlink:title="return iterator at start position">
<polygon fill="white" stroke="#666666" points="1023,-435.25 962,-435.25 962,-416 1023,-416 1023,-435.25"/>
<text text-anchor="middle" x="992.5" y="-421.75" font-family="Helvetica,sans-Serif" font-size="10.00">sss::begin</text>
</a>
</g>
</g>
<!-- Node19&#45;&gt;Node20 -->
<g id="edge23" class="edge">
<title>Node19&#45;&gt;Node20</title>
<path fill="none" stroke="#63b8ff" d="M640.5,-350.08C697.88,-345.19 797.28,-343.18 874.25,-375.62 893.98,-383.94 891.19,-397.89 910.25,-407.62 922.84,-414.06 937.67,-418.2 951.2,-420.87"/>
<polygon fill="#63b8ff" stroke="#63b8ff" points="950.24,-424.43 960.7,-422.7 951.45,-417.53 950.24,-424.43"/>
</g>
<!-- Node21 -->
<g id="node21" class="node">
<title>Node21</title>
<g id="a_node21"><a xlink:href="group__Sign.html#ga904d511ec786b87644cc90dc96dd8f3f" target="_top" xlink:title="Compute signature.">
<polygon fill="white" stroke="#666666" points="846.5,-288.25 727.75,-288.25 727.75,-269 846.5,-269 846.5,-288.25"/>
<text text-anchor="middle" x="787.12" y="-274.75" font-family="Helvetica,sans-Serif" font-size="10.00">sss::ComputeSignature</text>
</a>
</g>
</g>
<!-- Node19&#45;&gt;Node21 -->
<g id="edge24" class="edge">
<title>Node19&#45;&gt;Node21</title>
<path fill="none" stroke="#63b8ff" d="M640.41,-347.12C648.54,-344.68 656.72,-341.57 664,-337.62 683.08,-327.28 681.14,-315.36 700,-304.62 708.86,-299.58 718.81,-295.41 728.71,-292.01"/>
<polygon fill="#63b8ff" stroke="#63b8ff" points="729.51,-295.11 737.97,-288.73 727.38,-288.44 729.51,-295.11"/>
</g>
<!-- Node23 -->
<g id="node23" class="node">
<title>Node23</title>
<g id="a_node23"><a xlink:href="group__Ranges.html#ga4f73053571587e79eb3db628f5e6ef99" target="_top" xlink:title="return iterator at end position">
<polygon fill="white" stroke="#666666" points="1019.25,-398.25 965.75,-398.25 965.75,-379 1019.25,-379 1019.25,-398.25"/>
<text text-anchor="middle" x="992.5" y="-384.75" font-family="Helvetica,sans-Serif" font-size="10.00">sss::end</text>
</a>
</g>
</g>
<!-- Node19&#45;&gt;Node23 -->
<g id="edge35" class="edge">
<title>Node19&#45;&gt;Node23</title>
<path fill="none" stroke="#63b8ff" d="M630.6,-345.56C685.3,-332.36 790.86,-314.01 874.25,-342.62 893.42,-349.2 891.91,-362 910.25,-370.62 924.11,-377.14 940.42,-381.35 954.77,-384.04"/>
<polygon fill="#63b8ff" stroke="#63b8ff" points="953.85,-387.6 964.3,-385.81 955.02,-380.7 953.85,-387.6"/>
</g>
<!-- Node21&#45;&gt;Node18 -->
<g id="edge33" class="edge">
<title>Node21&#45;&gt;Node18</title>
<path fill="none" stroke="#63b8ff" d="M809.25,-268.61C833.55,-257.13 874.68,-237.8 910.25,-221.62 926.11,-214.41 943.79,-206.56 958.6,-200.03"/>
<polygon fill="#63b8ff" stroke="#63b8ff" points="959.59,-202.98 967.33,-195.75 956.77,-196.57 959.59,-202.98"/>
</g>
<!-- Node21&#45;&gt;Node20 -->
<g id="edge25" class="edge">
<title>Node21&#45;&gt;Node20</title>
<path fill="none" stroke="#63b8ff" d="M805.71,-288.57C824.45,-299.83 854.13,-319.63 874.25,-342.62 895.99,-367.48 883.79,-387.86 910.25,-407.62 921.85,-416.29 936.82,-420.93 950.74,-423.37"/>
<polygon fill="#63b8ff" stroke="#63b8ff" points="950.21,-426.97 960.6,-424.88 951.18,-420.03 950.21,-426.97"/>
</g>
<!-- Node22 -->
<g id="node22" class="node">
<title>Node22</title>
<g id="a_node22"><a xlink:href="group__Internal.html#ga74c69f25ce04876e114759c0023b2a12" target="_top" xlink:title=" ">
<polygon fill="white" stroke="#666666" points="1055.25,-287.25 929.75,-287.25 929.75,-268 1055.25,-268 1055.25,-287.25"/>
<text text-anchor="middle" x="992.5" y="-273.75" font-family="Helvetica,sans-Serif" font-size="10.00">sss::CreateSignatureKey</text>
</a>
</g>
</g>
<!-- Node21&#45;&gt;Node22 -->
<g id="edge26" class="edge">
<title>Node21&#45;&gt;Node22</title>
<path fill="none" stroke="#63b8ff" d="M846.95,-278.34C869.23,-278.23 894.87,-278.1 918.31,-277.98"/>
<polygon fill="#63b8ff" stroke="#63b8ff" points="918.28,-281.48 928.26,-277.93 918.25,-274.48 918.28,-281.48"/>
</g>
<!-- Node21&#45;&gt;Node23 -->
<g id="edge27" class="edge">
<title>Node21&#45;&gt;Node23</title>
<path fill="none" stroke="#63b8ff" d="M844.12,-288.62C854.89,-292.37 865.52,-297.53 874.25,-304.62 900.18,-325.7 883.54,-350.54 910.25,-370.62 922.98,-380.2 939.81,-384.86 954.86,-387.07"/>
<polygon fill="#63b8ff" stroke="#63b8ff" points="954.07,-390.62 964.41,-388.28 954.87,-383.67 954.07,-390.62"/>
</g>
<!-- Node24 -->
<g id="node24" class="node">
<title>Node24</title>
<g id="a_node24"><a xlink:href="group__Internal.html#ga50353a351a93b1213dc4e5211c767d85" target="_top" xlink:title=" ">
<polygon fill="white" stroke="#666666" points="1032.38,-250.25 952.62,-250.25 952.62,-231 1032.38,-231 1032.38,-250.25"/>
<text text-anchor="middle" x="992.5" y="-236.75" font-family="Helvetica,sans-Serif" font-size="10.00">sss::GetDates</text>
</a>
</g>
</g>
<!-- Node21&#45;&gt;Node24 -->
<g id="edge28" class="edge">
<title>Node21&#45;&gt;Node24</title>
<path fill="none" stroke="#63b8ff" d="M842.09,-268.54C873.01,-262.76 911.54,-255.57 941.73,-249.92"/>
<polygon fill="#63b8ff" stroke="#63b8ff" points="942.26,-253.2 951.44,-247.92 940.97,-246.32 942.26,-253.2"/>
</g>
<!-- Node25 -->
<g id="node25" class="node">
<title>Node25</title>
<g id="a_node25"><a xlink:href="group__Internal.html#ga990dfaae4abc6bf20a28f9772b7bcd16" target="_top" xlink:title="Byte to hex string conversion.">
<polygon fill="white" stroke="#666666" points="1020.38,-361.25 964.62,-361.25 964.62,-342 1020.38,-342 1020.38,-361.25"/>
<text text-anchor="middle" x="992.5" y="-347.75" font-family="Helvetica,sans-Serif" font-size="10.00">sss::Hex</text>
</a>
</g>
</g>
<!-- Node21&#45;&gt;Node25 -->
<g id="edge29" class="edge">
<title>Node21&#45;&gt;Node25</title>
<path fill="none" stroke="#63b8ff" d="M833.23,-288.71C846.85,-292.67 861.54,-297.92 874.25,-304.62 892.42,-314.22 891.73,-324.72 910.25,-333.62 923.61,-340.05 939.31,-344.21 953.32,-346.9"/>
<polygon fill="#63b8ff" stroke="#63b8ff" points="952.68,-350.51 963.13,-348.75 953.86,-343.61 952.68,-350.51"/>
</g>
<!-- Node26 -->
<g id="node26" class="node">
<title>Node26</title>
<g id="a_node26"><a xlink:href="group__Internal.html#ga7160aa316f2c6633467b47588263c690" target="_top" xlink:title=" ">
<polygon fill="white" stroke="#666666" points="1034.25,-324.25 950.75,-324.25 950.75,-305 1034.25,-305 1034.25,-324.25"/>
<text text-anchor="middle" x="992.5" y="-310.75" font-family="Helvetica,sans-Serif" font-size="10.00">sss::ParseURL</text>
</a>
</g>
</g>
<!-- Node21&#45;&gt;Node26 -->
<g id="edge30" class="edge">
<title>Node21&#45;&gt;Node26</title>
<path fill="none" stroke="#63b8ff" d="M845.32,-288.75C875.01,-294 911,-300.38 939.85,-305.48"/>
<polygon fill="#63b8ff" stroke="#63b8ff" points="939.06,-309.07 949.52,-307.37 940.28,-302.18 939.06,-309.07"/>
</g>
<!-- Node21&#45;&gt;Node27 -->
<g id="edge31" class="edge">
<title>Node21&#45;&gt;Node27</title>
<path fill="none" stroke="#63b8ff" d="M796.75,-268.79C815.6,-247.76 862.59,-197.82 910.25,-166.62 923.44,-157.99 939.05,-150.51 953.04,-144.64"/>
<polygon fill="#63b8ff" stroke="#63b8ff" points="953.93,-147.65 961.89,-140.66 951.3,-141.17 953.93,-147.65"/>
</g>
<!-- Node28 -->
<g id="node28" class="node">
<title>Node28</title>
<g id="a_node28"><a xlink:href="group__Internal.html#ga0f079ace8729714b3949eabe22f228c9" target="_top" xlink:title=" ">
<polygon fill="white" stroke="#666666" points="1034.25,-102.25 950.75,-102.25 950.75,-83 1034.25,-83 1034.25,-102.25"/>
<text text-anchor="middle" x="992.5" y="-88.75" font-family="Helvetica,sans-Serif" font-size="10.00">sss::UrlEncode</text>
</a>
</g>
</g>
<!-- Node21&#45;&gt;Node28 -->
<g id="edge34" class="edge">
<title>Node21&#45;&gt;Node28</title>
<path fill="none" stroke="#63b8ff" d="M792.26,-268.84C805.07,-239.78 847.05,-153.45 910.25,-111.62 919.04,-105.81 929.39,-101.77 939.71,-98.96"/>
<polygon fill="#63b8ff" stroke="#63b8ff" points="940.45,-102.14 949.38,-96.45 938.85,-95.33 940.45,-102.14"/>
</g>
<!-- Node27&#45;&gt;Node27 -->
<g id="edge32" class="edge">
<title>Node27&#45;&gt;Node27</title>
<path fill="none" stroke="#63b8ff" d="M960.35,-140.54C945.68,-149.15 956.4,-158.25 992.5,-158.25 1015.63,-158.25 1028.34,-154.51 1030.63,-149.56"/>
<polygon fill="#63b8ff" stroke="#63b8ff" points="1033.09,-147.94 1024.65,-141.54 1027.26,-151.81 1033.09,-147.94"/>
</g>
<!-- Node32&#45;&gt;Node28 -->
<g id="edge41" class="edge">
<title>Node32&#45;&gt;Node28</title>
<path fill="none" stroke="#63b8ff" d="M486.29,-90.02C606.73,-90.64 837.11,-91.83 939.84,-92.36"/>
<polygon fill="#63b8ff" stroke="#63b8ff" points="939.53,-95.86 949.55,-92.41 939.57,-88.86 939.53,-95.86"/>
</g>
<!-- Node33&#45;&gt;Node17 -->
<g id="edge45" class="edge">
<title>Node33&#45;&gt;Node17</title>
<path fill="none" stroke="#63b8ff" d="M479.35,-211.33C490.63,-210.96 502.37,-210.57 513.84,-210.2"/>
<polygon fill="#63b8ff" stroke="#63b8ff" points="513.84,-213.67 523.72,-209.84 513.61,-206.67 513.84,-213.67"/>
</g>
<!-- Node33&#45;&gt;Node31 -->
<g id="edge44" class="edge">
<title>Node33&#45;&gt;Node31</title>
<path fill="none" stroke="#63b8ff" d="M476.24,-197.92C496.76,-193.08 519.07,-187.82 538.58,-183.22"/>
<polygon fill="#63b8ff" stroke="#63b8ff" points="539.18,-186.44 548.11,-180.74 537.57,-179.63 539.18,-186.44"/>
</g>
</g>
</svg>
