<?xml version="1.0" encoding="UTF-8" standalone="no"?>
<!DOCTYPE svg PUBLIC "-//W3C//DTD SVG 1.1//EN"
 "http://www.w3.org/Graphics/SVG/1.1/DTD/svg11.dtd">
<!-- Generated by graphviz version 8.0.5 (20230430.1635)
 -->
<!-- Title: sss::api::S3Api::GetObject Pages: 1 -->
<svg width="348pt" height="101pt"
 viewBox="0.00 0.00 348.25 101.25" xmlns="http://www.w3.org/2000/svg" xmlns:xlink="http://www.w3.org/1999/xlink">
<g id="graph0" class="graph" transform="scale(1 1) rotate(0) translate(4 97.25)">
<title>sss::api::S3Api::GetObject</title>
<!-- Node1 -->
<g id="node1" class="node">
<title>Node1</title>
<g id="a_node1"><a xlink:title=" ">
<polygon fill="#999999" stroke="#666666" points="133,-56.25 0,-56.25 0,-37 133,-37 133,-56.25"/>
<text text-anchor="middle" x="66.5" y="-42.75" font-family="Helvetica,sans-Serif" font-size="10.00">sss::api::S3Api::GetObject</text>
</a>
</g>
</g>
<!-- Node2 -->
<g id="node2" class="node">
<title>Node2</title>
<g id="a_node2"><a xlink:href="group__Ranges.html#ga0aa7f3b15d2ebf9b597a1b5ba38ae8ac" target="_top" xlink:title="return iterator at start position">
<polygon fill="white" stroke="#666666" points="285.12,-93.25 224.12,-93.25 224.12,-74 285.12,-74 285.12,-93.25"/>
<text text-anchor="middle" x="254.62" y="-79.75" font-family="Helvetica,sans-Serif" font-size="10.00">sss::begin</text>
</a>
</g>
</g>
<!-- Node1&#45;&gt;Node2 -->
<g id="edge1" class="edge">
<title>Node1&#45;&gt;Node2</title>
<path fill="none" stroke="#63b8ff" d="M118.36,-56.74C148.2,-62.67 185.37,-70.06 213.2,-75.59"/>
<polygon fill="#63b8ff" stroke="#63b8ff" points="212.26,-79.17 222.75,-77.69 213.62,-72.3 212.26,-79.17"/>
</g>
<!-- Node3 -->
<g id="node3" class="node">
<title>Node3</title>
<g id="a_node3"><a xlink:href="group__Ranges.html#ga4f73053571587e79eb3db628f5e6ef99" target="_top" xlink:title="return iterator at end position">
<polygon fill="white" stroke="#666666" points="281.38,-56.25 227.88,-56.25 227.88,-37 281.38,-37 281.38,-56.25"/>
<text text-anchor="middle" x="254.62" y="-42.75" font-family="Helvetica,sans-Serif" font-size="10.00">sss::end</text>
</a>
</g>
</g>
<!-- Node1&#45;&gt;Node3 -->
<g id="edge2" class="edge">
<title>Node1&#45;&gt;Node3</title>
<path fill="none" stroke="#63b8ff" d="M133.38,-46.62C161.24,-46.62 192.66,-46.62 216.4,-46.62"/>
<polygon fill="#63b8ff" stroke="#63b8ff" points="216.38,-50.13 226.38,-46.62 216.38,-43.13 216.38,-50.13"/>
</g>
<!-- Node4 -->
<g id="node4" class="node">
<title>Node4</title>
<g id="a_node4"><a xlink:href="classsss_1_1WebClient.html#a77a4e0190a4f207b969cb63b6ba38ccc" target="_top" xlink:title=" ">
<polygon fill="white" stroke="#666666" points="340.25,-19.25 169,-19.25 169,0 340.25,0 340.25,-19.25"/>
<text text-anchor="middle" x="254.62" y="-5.75" font-family="Helvetica,sans-Serif" font-size="10.00">sss::WebClient::GetResponseBody</text>
</a>
</g>
</g>
<!-- Node1&#45;&gt;Node4 -->
<g id="edge3" class="edge">
<title>Node1&#45;&gt;Node4</title>
<path fill="none" stroke="#63b8ff" d="M118.36,-36.51C141.13,-31.99 168.19,-26.61 192.09,-21.86"/>
<polygon fill="#63b8ff" stroke="#63b8ff" points="192.7,-25.11 201.83,-19.72 191.34,-18.24 192.7,-25.11"/>
</g>
</g>
</svg>
