<?xml version="1.0" encoding="UTF-8" standalone="no"?>
<!DOCTYPE svg PUBLIC "-//W3C//DTD SVG 1.1//EN"
 "http://www.w3.org/Graphics/SVG/1.1/DTD/svg11.dtd">
<!-- Generated by graphviz version 8.0.5 (20230430.1635)
 -->
<!-- Title: sss::WebClient::SetMethod Pages: 1 -->
<svg width="888pt" height="507pt"
 viewBox="0.00 0.00 888.25 506.88" xmlns="http://www.w3.org/2000/svg" xmlns:xlink="http://www.w3.org/1999/xlink">
<g id="graph0" class="graph" transform="scale(1 1) rotate(0) translate(4 502.88)">
<title>sss::WebClient::SetMethod</title>
<!-- Node1 -->
<g id="node1" class="node">
<title>Node1</title>
<g id="a_node1"><a xlink:title=" ">
<polygon fill="#999999" stroke="#666666" points="880.25,-216.25 744.25,-216.25 744.25,-197 880.25,-197 880.25,-216.25"/>
<text text-anchor="middle" x="812.25" y="-202.75" font-family="Helvetica,sans-Serif" font-size="10.00">sss::WebClient::SetMethod</text>
</a>
</g>
</g>
<!-- Node2 -->
<g id="node2" class="node">
<title>Node2</title>
<g id="a_node2"><a xlink:href="classsss_1_1api_1_1S3Api.html#a840772746fbb0a79c161037da7b24a31" target="_top" xlink:title="[WebClient::Config]">
<polygon fill="white" stroke="#666666" points="696.62,-291.25 579.38,-291.25 579.38,-272 696.62,-272 696.62,-291.25"/>
<text text-anchor="middle" x="638" y="-277.75" font-family="Helvetica,sans-Serif" font-size="10.00">sss::api::S3Api::Config</text>
</a>
</g>
</g>
<!-- Node1&#45;&gt;Node2 -->
<g id="edge1" class="edge">
<title>Node1&#45;&gt;Node2</title>
<path fill="none" stroke="#63b8ff" d="M787,-222.34C766.65,-234.95 736.47,-252.36 708.25,-263.62 700.75,-266.62 692.6,-269.25 684.6,-271.52"/>
<polygon fill="#63b8ff" stroke="#63b8ff" points="788.55,-224.87 795.14,-216.58 784.82,-218.95 788.55,-224.87"/>
</g>
<!-- Node22 -->
<g id="node22" class="node">
<title>Node22</title>
<g id="a_node22"><a xlink:href="group__S3Client.html#ga5a769be8fbc874bad858ea95743e5643" target="_top" xlink:title="Send S3 request to endpoint.">
<polygon fill="white" stroke="#666666" points="510.38,-210.25 401.38,-210.25 401.38,-191 510.38,-191 510.38,-210.25"/>
<text text-anchor="middle" x="455.88" y="-196.75" font-family="Helvetica,sans-Serif" font-size="10.00">sss::SendS3Request</text>
</a>
</g>
</g>
<!-- Node1&#45;&gt;Node22 -->
<g id="edge24" class="edge">
<title>Node1&#45;&gt;Node22</title>
<path fill="none" stroke="#63b8ff" d="M732.77,-205.3C665.35,-204.15 569.92,-202.54 510.79,-201.54"/>
<polygon fill="#63b8ff" stroke="#63b8ff" points="732.7,-208.81 742.76,-205.48 732.82,-201.81 732.7,-208.81"/>
</g>
<!-- Node23 -->
<g id="node23" class="node">
<title>Node23</title>
<g id="a_node23"><a xlink:href="classsss_1_1WebClient.html#ae7b1f77bd4ae44585f2d49ea493bdcc5" target="_top" xlink:title="Upload data from memory buffer.">
<polygon fill="white" stroke="#666666" points="708.25,-178.88 567.75,-178.88 567.75,-148.38 708.25,-148.38 708.25,-178.88"/>
<text text-anchor="start" x="575.75" y="-165.38" font-family="Helvetica,sans-Serif" font-size="10.00">sss::WebClient::UploadData</text>
<text text-anchor="middle" x="638" y="-154.12" font-family="Helvetica,sans-Serif" font-size="10.00">FromBuffer</text>
</a>
</g>
</g>
<!-- Node1&#45;&gt;Node23 -->
<g id="edge25" class="edge">
<title>Node1&#45;&gt;Node23</title>
<path fill="none" stroke="#63b8ff" d="M760.42,-193.94C742.13,-189.37 721.26,-184.16 702.05,-179.37"/>
<polygon fill="#63b8ff" stroke="#63b8ff" points="759.32,-197.52 769.87,-196.54 761.01,-190.73 759.32,-197.52"/>
</g>
<!-- Node25 -->
<g id="node25" class="node">
<title>Node25</title>
<g id="a_node25"><a xlink:href="classsss_1_1WebClient.html#ad038e41cfc902f6e49754c52a9a71992" target="_top" xlink:title="Upload file.">
<polygon fill="white" stroke="#666666" points="705.62,-254.25 570.38,-254.25 570.38,-235 705.62,-235 705.62,-254.25"/>
<text text-anchor="middle" x="638" y="-240.75" font-family="Helvetica,sans-Serif" font-size="10.00">sss::WebClient::UploadFile</text>
</a>
</g>
</g>
<!-- Node1&#45;&gt;Node25 -->
<g id="edge29" class="edge">
<title>Node1&#45;&gt;Node25</title>
<path fill="none" stroke="#63b8ff" d="M754.98,-219.04C732.19,-224.07 706.21,-229.8 684.62,-234.56"/>
<polygon fill="#63b8ff" stroke="#63b8ff" points="755.53,-222.28 764.54,-216.71 754.02,-215.45 755.53,-222.28"/>
</g>
<!-- Node26 -->
<g id="node26" class="node">
<title>Node26</title>
<g id="a_node26"><a xlink:href="classsss_1_1WebClient.html#accb4e986d73bb44149918fa0043ec43b" target="_top" xlink:title="Upload file starting from offset using unbuffered I/O read.">
<polygon fill="white" stroke="#666666" points="705.62,-129.88 570.38,-129.88 570.38,-99.38 705.62,-99.38 705.62,-129.88"/>
<text text-anchor="start" x="578.38" y="-116.38" font-family="Helvetica,sans-Serif" font-size="10.00">sss::WebClient::UploadFile</text>
<text text-anchor="middle" x="638" y="-105.12" font-family="Helvetica,sans-Serif" font-size="10.00">Unbuffered</text>
</a>
</g>
</g>
<!-- Node1&#45;&gt;Node26 -->
<g id="edge32" class="edge">
<title>Node1&#45;&gt;Node26</title>
<path fill="none" stroke="#63b8ff" d="M789.44,-190.31C769.18,-175.68 737.76,-154.31 708.25,-139.62 701.5,-136.27 694.18,-133.13 686.92,-130.29"/>
<polygon fill="#63b8ff" stroke="#63b8ff" points="787.04,-193.62 797.18,-196.7 791.18,-187.97 787.04,-193.62"/>
</g>
<!-- Node3 -->
<g id="node3" class="node">
<title>Node3</title>
<g id="a_node3"><a xlink:href="classsss_1_1api_1_1S3Api.html#a1196f1cb9ce1e5d69336e9b8dbb5d59c" target="_top" xlink:title=" ">
<polygon fill="white" stroke="#666666" points="516,-344.88 395.75,-344.88 395.75,-314.38 516,-314.38 516,-344.88"/>
<text text-anchor="start" x="403.75" y="-331.38" font-family="Helvetica,sans-Serif" font-size="10.00">sss::api::S3Api::GetFile</text>
<text text-anchor="middle" x="455.88" y="-320.12" font-family="Helvetica,sans-Serif" font-size="10.00">Object</text>
</a>
</g>
</g>
<!-- Node2&#45;&gt;Node3 -->
<g id="edge2" class="edge">
<title>Node2&#45;&gt;Node3</title>
<path fill="none" stroke="#63b8ff" d="M588.63,-294.51C566.24,-300.48 539.43,-307.63 515.86,-313.91"/>
<polygon fill="#63b8ff" stroke="#63b8ff" points="589.48,-297.64 598.24,-291.69 587.68,-290.88 589.48,-297.64"/>
</g>
<!-- Node4 -->
<g id="node4" class="node">
<title>Node4</title>
<g id="a_node4"><a xlink:href="classsss_1_1api_1_1S3Api.html#ab7affe0834f5892b393e731783b7ccac" target="_top" xlink:title=" ">
<polygon fill="white" stroke="#666666" points="515.62,-295.88 396.12,-295.88 396.12,-265.38 515.62,-265.38 515.62,-295.88"/>
<text text-anchor="start" x="404.12" y="-282.38" font-family="Helvetica,sans-Serif" font-size="10.00">sss::api::S3Api::PutFile</text>
<text text-anchor="middle" x="455.88" y="-271.12" font-family="Helvetica,sans-Serif" font-size="10.00">Object</text>
</a>
</g>
</g>
<!-- Node2&#45;&gt;Node4 -->
<g id="edge3" class="edge">
<title>Node2&#45;&gt;Node4</title>
<path fill="none" stroke="#63b8ff" d="M568.43,-281.24C551.15,-281.15 532.75,-281.05 515.99,-280.95"/>
<polygon fill="#63b8ff" stroke="#63b8ff" points="568,-284.75 578.02,-281.3 568.04,-277.75 568,-284.75"/>
</g>
<!-- Node5 -->
<g id="node5" class="node">
<title>Node5</title>
<g id="a_node5"><a xlink:href="classsss_1_1api_1_1S3Api.html#ad09581bf28c4bbbcbb71b329959ec1ae" target="_top" xlink:title=" ">
<polygon fill="white" stroke="#666666" points="511.5,-247.25 400.25,-247.25 400.25,-228 511.5,-228 511.5,-247.25"/>
<text text-anchor="middle" x="455.88" y="-233.75" font-family="Helvetica,sans-Serif" font-size="10.00">sss::api::S3Api::Send</text>
</a>
</g>
</g>
<!-- Node2&#45;&gt;Node5 -->
<g id="edge4" class="edge">
<title>Node2&#45;&gt;Node5</title>
<path fill="none" stroke="#63b8ff" d="M585.04,-268.93C557.49,-262.2 524.11,-254.05 498.32,-247.75"/>
<polygon fill="#63b8ff" stroke="#63b8ff" points="584.13,-272.56 594.68,-271.53 585.79,-265.76 584.13,-272.56"/>
</g>
<!-- Node6 -->
<g id="node6" class="node">
<title>Node6</title>
<g id="a_node6"><a xlink:href="classsss_1_1api_1_1S3Api.html#a4ea265566c3c4335ec01201cdc4410c6" target="_top" xlink:title=" ">
<polygon fill="white" stroke="#666666" points="341,-498.88 191.5,-498.88 191.5,-468.38 341,-468.38 341,-498.88"/>
<text text-anchor="start" x="199.5" y="-485.38" font-family="Helvetica,sans-Serif" font-size="10.00">sss::api::S3Api::AbortMultipart</text>
<text text-anchor="middle" x="266.25" y="-474.12" font-family="Helvetica,sans-Serif" font-size="10.00">Upload</text>
</a>
</g>
</g>
<!-- Node5&#45;&gt;Node6 -->
<g id="edge5" class="edge">
<title>Node5&#45;&gt;Node6</title>
<path fill="none" stroke="#63b8ff" d="M390.21,-248.42C386.46,-250.7 383,-253.4 380,-256.62 317.88,-323.39 403.87,-389.83 344,-458.62 340.87,-462.22 337.22,-465.3 333.24,-467.94"/>
<polygon fill="#63b8ff" stroke="#63b8ff" points="391.6,-251.15 399.05,-243.62 388.53,-244.86 391.6,-251.15"/>
</g>
<!-- Node7 -->
<g id="node7" class="node">
<title>Node7</title>
<g id="a_node7"><a xlink:href="classsss_1_1api_1_1S3Api.html#a98f999a216121118dd569c7ef0c28ff3" target="_top" xlink:title=" ">
<polygon fill="white" stroke="#666666" points="331.62,-449.88 200.88,-449.88 200.88,-419.38 331.62,-419.38 331.62,-449.88"/>
<text text-anchor="start" x="208.88" y="-436.38" font-family="Helvetica,sans-Serif" font-size="10.00">sss::api::S3Api::Complete</text>
<text text-anchor="middle" x="266.25" y="-425.12" font-family="Helvetica,sans-Serif" font-size="10.00">MultipartUpload</text>
</a>
</g>
</g>
<!-- Node5&#45;&gt;Node7 -->
<g id="edge6" class="edge">
<title>Node5&#45;&gt;Node7</title>
<path fill="none" stroke="#63b8ff" d="M390.21,-248.72C386.49,-250.92 383.03,-253.54 380,-256.62 330.77,-306.79 391.84,-359.13 344,-410.62 340.48,-414.41 336.38,-417.6 331.93,-420.29"/>
<polygon fill="#63b8ff" stroke="#63b8ff" points="391.45,-251.52 398.94,-244.03 388.42,-245.22 391.45,-251.52"/>
</g>
<!-- Node8 -->
<g id="node8" class="node">
<title>Node8</title>
<g id="a_node8"><a xlink:href="classsss_1_1api_1_1S3Api.html#ad890bd1ecfc978df24b2c3ed641e4081" target="_top" xlink:title=" ">
<polygon fill="white" stroke="#666666" points="340.62,-290.25 191.88,-290.25 191.88,-271 340.62,-271 340.62,-290.25"/>
<text text-anchor="middle" x="266.25" y="-276.75" font-family="Helvetica,sans-Serif" font-size="10.00">sss::api::S3Api::CreateBucket</text>
</a>
</g>
</g>
<!-- Node5&#45;&gt;Node8 -->
<g id="edge7" class="edge">
<title>Node5&#45;&gt;Node8</title>
<path fill="none" stroke="#63b8ff" d="M400.35,-250.12C372.04,-256.61 337.9,-264.43 311.29,-270.53"/>
<polygon fill="#63b8ff" stroke="#63b8ff" points="400.92,-253.35 409.89,-247.71 399.36,-246.53 400.92,-253.35"/>
</g>
<!-- Node10 -->
<g id="node10" class="node">
<title>Node10</title>
<g id="a_node10"><a xlink:href="classsss_1_1api_1_1S3Api.html#a1796fafda3d90a4292a611ce1999433b" target="_top" xlink:title=" ">
<polygon fill="white" stroke="#666666" points="344,-252.88 188.5,-252.88 188.5,-222.38 344,-222.38 344,-252.88"/>
<text text-anchor="start" x="196.5" y="-239.38" font-family="Helvetica,sans-Serif" font-size="10.00">sss::api::S3Api::CreateMultipart</text>
<text text-anchor="middle" x="266.25" y="-228.12" font-family="Helvetica,sans-Serif" font-size="10.00">Upload</text>
</a>
</g>
</g>
<!-- Node5&#45;&gt;Node10 -->
<g id="edge9" class="edge">
<title>Node5&#45;&gt;Node10</title>
<path fill="none" stroke="#63b8ff" d="M389,-237.62C374.53,-237.62 359.08,-237.62 344.22,-237.62"/>
<polygon fill="#63b8ff" stroke="#63b8ff" points="388.85,-241.13 398.85,-237.62 388.85,-234.13 388.85,-241.13"/>
</g>
<!-- Node11 -->
<g id="node11" class="node">
<title>Node11</title>
<g id="a_node11"><a xlink:href="classsss_1_1api_1_1S3Api.html#a3d63825d1916e4ba3ca13122c7660603" target="_top" xlink:title=" ">
<polygon fill="white" stroke="#666666" points="340.25,-401.25 192.25,-401.25 192.25,-382 340.25,-382 340.25,-401.25"/>
<text text-anchor="middle" x="266.25" y="-387.75" font-family="Helvetica,sans-Serif" font-size="10.00">sss::api::S3Api::DeleteBucket</text>
</a>
</g>
</g>
<!-- Node5&#45;&gt;Node11 -->
<g id="edge10" class="edge">
<title>Node5&#45;&gt;Node11</title>
<path fill="none" stroke="#63b8ff" d="M390.26,-249.07C386.55,-251.2 383.08,-253.69 380,-256.62 340.58,-294.12 383.76,-336.49 344,-373.62 340.6,-376.8 336.75,-379.45 332.63,-381.66"/>
<polygon fill="#63b8ff" stroke="#63b8ff" points="391.35,-251.95 398.9,-244.52 388.37,-245.62 391.35,-251.95"/>
</g>
<!-- Node12 -->
<g id="node12" class="node">
<title>Node12</title>
<g id="a_node12"><a xlink:href="classsss_1_1api_1_1S3Api.html#a14a75f15eb71fbba8639673100768b67" target="_top" xlink:title=" ">
<polygon fill="white" stroke="#666666" points="339.12,-204.25 193.38,-204.25 193.38,-185 339.12,-185 339.12,-204.25"/>
<text text-anchor="middle" x="266.25" y="-190.75" font-family="Helvetica,sans-Serif" font-size="10.00">sss::api::S3Api::DeleteObject</text>
</a>
</g>
</g>
<!-- Node5&#45;&gt;Node12 -->
<g id="edge12" class="edge">
<title>Node5&#45;&gt;Node12</title>
<path fill="none" stroke="#63b8ff" d="M400.35,-225.13C372.04,-218.64 337.9,-210.82 311.29,-204.72"/>
<polygon fill="#63b8ff" stroke="#63b8ff" points="399.36,-228.72 409.89,-227.54 400.92,-221.9 399.36,-228.72"/>
</g>
<!-- Node13 -->
<g id="node13" class="node">
<title>Node13</title>
<g id="a_node13"><a xlink:href="classsss_1_1api_1_1S3Api.html#af61465d92c0a94aa82ae863fc2a776a0" target="_top" xlink:title=" ">
<polygon fill="white" stroke="#666666" points="332.75,-167.25 199.75,-167.25 199.75,-148 332.75,-148 332.75,-167.25"/>
<text text-anchor="middle" x="266.25" y="-153.75" font-family="Helvetica,sans-Serif" font-size="10.00">sss::api::S3Api::GetObject</text>
</a>
</g>
</g>
<!-- Node5&#45;&gt;Node13 -->
<g id="edge13" class="edge">
<title>Node5&#45;&gt;Node13</title>
<path fill="none" stroke="#63b8ff" d="M389.98,-224.93C386.51,-223.37 383.15,-221.6 380,-219.62 358.6,-206.19 365.44,-189 344,-175.62 338.89,-172.44 333.27,-169.81 327.47,-167.66"/>
<polygon fill="#63b8ff" stroke="#63b8ff" points="388.42,-228.47 399.01,-228.86 390.97,-221.96 388.42,-228.47"/>
</g>
<!-- Node14 -->
<g id="node14" class="node">
<title>Node14</title>
<g id="a_node14"><a xlink:href="classsss_1_1api_1_1S3Api.html#aa4a2b1cc2c89a52d1aa89e571b785db2" target="_top" xlink:title=" ">
<polygon fill="white" stroke="#666666" points="337.62,-364.25 194.88,-364.25 194.88,-345 337.62,-345 337.62,-364.25"/>
<text text-anchor="middle" x="266.25" y="-350.75" font-family="Helvetica,sans-Serif" font-size="10.00">sss::api::S3Api::HeadBucket</text>
</a>
</g>
</g>
<!-- Node5&#45;&gt;Node14 -->
<g id="edge14" class="edge">
<title>Node5&#45;&gt;Node14</title>
<path fill="none" stroke="#63b8ff" d="M390.15,-249.8C386.53,-251.76 383.11,-254.01 380,-256.62 350.13,-281.69 374.09,-311.83 344,-336.62 340.2,-339.76 335.95,-342.37 331.45,-344.53"/>
<polygon fill="#63b8ff" stroke="#63b8ff" points="391.42,-252.62 399.1,-245.31 388.54,-246.24 391.42,-252.62"/>
</g>
<!-- Node15 -->
<g id="node15" class="node">
<title>Node15</title>
<g id="a_node15"><a xlink:href="classsss_1_1api_1_1S3Api.html#abc84a71b9a88b81afaa353ad17a91d22" target="_top" xlink:title=" ">
<polygon fill="white" stroke="#666666" points="336.5,-130.25 196,-130.25 196,-111 336.5,-111 336.5,-130.25"/>
<text text-anchor="middle" x="266.25" y="-116.75" font-family="Helvetica,sans-Serif" font-size="10.00">sss::api::S3Api::HeadObject</text>
</a>
</g>
</g>
<!-- Node5&#45;&gt;Node15 -->
<g id="edge16" class="edge">
<title>Node5&#45;&gt;Node15</title>
<path fill="none" stroke="#63b8ff" d="M390.15,-226.36C386.53,-224.44 383.11,-222.22 380,-219.62 349.72,-194.42 374.35,-163.75 344,-138.62 340.2,-135.48 335.96,-132.87 331.46,-130.7"/>
<polygon fill="#63b8ff" stroke="#63b8ff" points="388.54,-229.92 399.1,-230.74 391.36,-223.51 388.54,-229.92"/>
</g>
<!-- Node18 -->
<g id="node18" class="node">
<title>Node18</title>
<g id="a_node18"><a xlink:href="classsss_1_1api_1_1S3Api.html#a81e30673c06b609a2ee6e6bfd9130ca6" target="_top" xlink:title=" ">
<polygon fill="white" stroke="#666666" points="336.5,-327.25 196,-327.25 196,-308 336.5,-308 336.5,-327.25"/>
<text text-anchor="middle" x="266.25" y="-313.75" font-family="Helvetica,sans-Serif" font-size="10.00">sss::api::S3Api::ListBuckets</text>
</a>
</g>
</g>
<!-- Node5&#45;&gt;Node18 -->
<g id="edge19" class="edge">
<title>Node5&#45;&gt;Node18</title>
<path fill="none" stroke="#63b8ff" d="M390,-251.26C386.52,-252.86 383.16,-254.64 380,-256.62 358.9,-269.89 365.22,-286.55 344,-299.62 338.87,-302.78 333.24,-305.39 327.43,-307.54"/>
<polygon fill="#63b8ff" stroke="#63b8ff" points="391.06,-254.21 399.04,-247.25 388.46,-247.71 391.06,-254.21"/>
</g>
<!-- Node19 -->
<g id="node19" class="node">
<title>Node19</title>
<g id="a_node19"><a xlink:href="classsss_1_1api_1_1S3Api.html#a3f00f611cd210a58ac6e8c0555984433" target="_top" xlink:title=" ">
<polygon fill="white" stroke="#666666" points="341.38,-93.25 191.12,-93.25 191.12,-74 341.38,-74 341.38,-93.25"/>
<text text-anchor="middle" x="266.25" y="-79.75" font-family="Helvetica,sans-Serif" font-size="10.00">sss::api::S3Api::ListObjectsV2</text>
</a>
</g>
</g>
<!-- Node5&#45;&gt;Node19 -->
<g id="edge21" class="edge">
<title>Node5&#45;&gt;Node19</title>
<path fill="none" stroke="#63b8ff" d="M389.96,-226.9C386.36,-224.85 383,-222.45 380,-219.62 340.08,-182.04 384.02,-139.1 344,-101.62 340.6,-98.44 336.75,-95.79 332.63,-93.58"/>
<polygon fill="#63b8ff" stroke="#63b8ff" points="388.38,-230.49 398.92,-231.52 391.32,-224.14 388.38,-230.49"/>
</g>
<!-- Node20 -->
<g id="node20" class="node">
<title>Node20</title>
<g id="a_node20"><a xlink:href="classsss_1_1api_1_1S3Api.html#a0473917e4d25a4a6fca40d097e4299d6" target="_top" xlink:title=" ">
<polygon fill="white" stroke="#666666" points="321.88,-56.25 210.62,-56.25 210.62,-37 321.88,-37 321.88,-56.25"/>
<text text-anchor="middle" x="266.25" y="-42.75" font-family="Helvetica,sans-Serif" font-size="10.00">sss::api::S3Api::Send</text>
</a>
</g>
</g>
<!-- Node5&#45;&gt;Node20 -->
<g id="edge22" class="edge">
<title>Node5&#45;&gt;Node20</title>
<path fill="none" stroke="#63b8ff" d="M390.23,-227.43C386.5,-225.26 383.04,-222.69 380,-219.62 330.18,-169.42 393.95,-114.69 344,-64.62 338.01,-58.62 330.41,-54.47 322.35,-51.62"/>
<polygon fill="#63b8ff" stroke="#63b8ff" points="388.43,-230.92 398.97,-232 391.4,-224.58 388.43,-230.92"/>
</g>
<!-- Node21 -->
<g id="node21" class="node">
<title>Node21</title>
<g id="a_node21"><a xlink:href="classsss_1_1api_1_1S3Api.html#a23223ee1fb701c55af2d942dbf261ae2" target="_top" xlink:title=" ">
<polygon fill="white" stroke="#666666" points="335.38,-19.25 197.12,-19.25 197.12,0 335.38,0 335.38,-19.25"/>
<text text-anchor="middle" x="266.25" y="-5.75" font-family="Helvetica,sans-Serif" font-size="10.00">sss::api::S3Api::TestBucket</text>
</a>
</g>
</g>
<!-- Node5&#45;&gt;Node21 -->
<g id="edge23" class="edge">
<title>Node5&#45;&gt;Node21</title>
<path fill="none" stroke="#63b8ff" d="M390.08,-227.57C386.38,-225.38 382.97,-222.75 380,-219.62 320.18,-156.7 403.99,-90.38 344,-27.62 340.97,-24.46 337.5,-21.8 333.75,-19.58"/>
<polygon fill="#63b8ff" stroke="#63b8ff" points="388.22,-231.05 398.75,-232.21 391.25,-224.73 388.22,-231.05"/>
</g>
<!-- Node9 -->
<g id="node9" class="node">
<title>Node9</title>
<g id="a_node9"><a xlink:href="bucket-test_8cpp.html#a3c04138a5bfe5d72780bb7e82a18e627" target="_top" xlink:title="Bucket tests.">
<polygon fill="white" stroke="#666666" points="94.75,-345.25 57.75,-345.25 57.75,-326 94.75,-326 94.75,-345.25"/>
<text text-anchor="middle" x="76.25" y="-331.75" font-family="Helvetica,sans-Serif" font-size="10.00">main</text>
</a>
</g>
</g>
<!-- Node8&#45;&gt;Node9 -->
<g id="edge8" class="edge">
<title>Node8&#45;&gt;Node9</title>
<path fill="none" stroke="#63b8ff" d="M208.61,-293.3C201.81,-295 194.98,-296.79 188.5,-298.62 155.2,-308.05 117.07,-321.27 95.21,-329.09"/>
<polygon fill="#63b8ff" stroke="#63b8ff" points="209.33,-296.48 218.21,-290.7 207.67,-289.68 209.33,-296.48"/>
</g>
<!-- Node11&#45;&gt;Node9 -->
<g id="edge11" class="edge">
<title>Node11&#45;&gt;Node9</title>
<path fill="none" stroke="#63b8ff" d="M208.32,-378.94C201.61,-377.25 194.89,-375.46 188.5,-373.62 155.15,-364.04 117.04,-350.43 95.19,-342.37"/>
<polygon fill="#63b8ff" stroke="#63b8ff" points="207.25,-382.52 217.79,-381.51 208.91,-375.72 207.25,-382.52"/>
</g>
<!-- Node14&#45;&gt;Node9 -->
<g id="edge15" class="edge">
<title>Node14&#45;&gt;Node9</title>
<path fill="none" stroke="#63b8ff" d="M183.77,-346.39C150.62,-343.04 115.35,-339.48 94.86,-337.4"/>
<polygon fill="#63b8ff" stroke="#63b8ff" points="183.14,-349.95 193.44,-347.47 183.85,-342.98 183.14,-349.95"/>
</g>
<!-- Node16 -->
<g id="node16" class="node">
<title>Node16</title>
<g id="a_node16"><a xlink:href="classsss_1_1api_1_1S3Api.html#a872e80e356e8c404a9b0739d95a0af41" target="_top" xlink:title="[WebClient::Config]">
<polygon fill="white" stroke="#666666" points="152.5,-111.25 0,-111.25 0,-92 152.5,-92 152.5,-111.25"/>
<text text-anchor="middle" x="76.25" y="-97.75" font-family="Helvetica,sans-Serif" font-size="10.00">sss::api::S3Api::GetObjectSize</text>
</a>
</g>
</g>
<!-- Node15&#45;&gt;Node16 -->
<g id="edge17" class="edge">
<title>Node15&#45;&gt;Node16</title>
<path fill="none" stroke="#63b8ff" d="M184.63,-112.48C174.09,-111.41 163.33,-110.32 152.87,-109.27"/>
<polygon fill="#63b8ff" stroke="#63b8ff" points="184.21,-116.05 194.51,-113.58 184.92,-109.09 184.21,-116.05"/>
</g>
<!-- Node17 -->
<g id="node17" class="node">
<title>Node17</title>
<g id="a_node17"><a xlink:href="classsss_1_1api_1_1S3Api.html#aa3f7a3001bdad58c7b0c04cbd0dc3236" target="_top" xlink:title=" ">
<polygon fill="white" stroke="#666666" points="144.25,-148.25 8.25,-148.25 8.25,-129 144.25,-129 144.25,-148.25"/>
<text text-anchor="middle" x="76.25" y="-134.75" font-family="Helvetica,sans-Serif" font-size="10.00">sss::api::S3Api::TestObject</text>
</a>
</g>
</g>
<!-- Node15&#45;&gt;Node17 -->
<g id="edge18" class="edge">
<title>Node15&#45;&gt;Node17</title>
<path fill="none" stroke="#63b8ff" d="M184.88,-128.32C171.48,-129.6 157.71,-130.92 144.69,-132.17"/>
<polygon fill="#63b8ff" stroke="#63b8ff" points="184.89,-131.74 194.51,-127.3 184.22,-124.77 184.89,-131.74"/>
</g>
<!-- Node18&#45;&gt;Node9 -->
<g id="edge20" class="edge">
<title>Node18&#45;&gt;Node9</title>
<path fill="none" stroke="#63b8ff" d="M184.8,-325.33C151.47,-328.52 115.82,-331.93 95.08,-333.92"/>
<polygon fill="#63b8ff" stroke="#63b8ff" points="184.89,-328.74 194.51,-324.3 184.22,-321.77 184.89,-328.74"/>
</g>
<!-- Node23&#45;&gt;Node5 -->
<g id="edge26" class="edge">
<title>Node23&#45;&gt;Node5</title>
<path fill="none" stroke="#63b8ff" d="M602.57,-184.8C582.5,-196.41 556.37,-210.29 531.75,-219.62 523.75,-222.66 515.07,-225.3 506.55,-227.56"/>
<polygon fill="#63b8ff" stroke="#63b8ff" points="604.05,-187.4 610.9,-179.32 600.51,-181.37 604.05,-187.4"/>
</g>
<!-- Node23&#45;&gt;Node22 -->
<g id="edge27" class="edge">
<title>Node23&#45;&gt;Node22</title>
<path fill="none" stroke="#63b8ff" d="M556.68,-180.12C539.4,-183.67 521.63,-187.32 505.97,-190.54"/>
<polygon fill="#63b8ff" stroke="#63b8ff" points="557.27,-183.37 566.36,-177.93 555.86,-176.51 557.27,-183.37"/>
</g>
<!-- Node24 -->
<g id="node24" class="node">
<title>Node24</title>
<g id="a_node24"><a xlink:href="classsss_1_1WebClient.html#ab5af9d8e7c424e49fab04f0d9d59b489" target="_top" xlink:title="Upload file starting from offset using unbuffered memory mapping of file.">
<polygon fill="white" stroke="#666666" points="531.75,-173.25 380,-173.25 380,-154 531.75,-154 531.75,-173.25"/>
<text text-anchor="middle" x="455.88" y="-159.75" font-family="Helvetica,sans-Serif" font-size="10.00">sss::WebClient::UploadFileMM</text>
</a>
</g>
</g>
<!-- Node23&#45;&gt;Node24 -->
<g id="edge28" class="edge">
<title>Node23&#45;&gt;Node24</title>
<path fill="none" stroke="#63b8ff" d="M556.39,-163.62C548.27,-163.62 540.06,-163.62 532.01,-163.62"/>
<polygon fill="#63b8ff" stroke="#63b8ff" points="556.36,-167.13 566.36,-163.62 556.36,-160.13 556.36,-167.13"/>
</g>
<!-- Node25&#45;&gt;Node4 -->
<g id="edge30" class="edge">
<title>Node25&#45;&gt;Node4</title>
<path fill="none" stroke="#63b8ff" d="M575.58,-256.9C556.34,-260.75 535.15,-264.98 516.06,-268.8"/>
<polygon fill="#63b8ff" stroke="#63b8ff" points="576.23,-260.14 585.35,-254.75 574.85,-253.28 576.23,-260.14"/>
</g>
<!-- Node25&#45;&gt;Node22 -->
<g id="edge31" class="edge">
<title>Node25&#45;&gt;Node22</title>
<path fill="none" stroke="#63b8ff" d="M585.88,-231.93C568.69,-227.68 549.39,-222.92 531.75,-218.62 521.1,-216.03 509.59,-213.25 498.86,-210.67"/>
<polygon fill="#63b8ff" stroke="#63b8ff" points="584.73,-235.5 595.28,-234.5 586.41,-228.7 584.73,-235.5"/>
</g>
</g>
</svg>
