<?xml version="1.0" encoding="UTF-8" standalone="no"?>
<!DOCTYPE svg PUBLIC "-//W3C//DTD SVG 1.1//EN"
 "http://www.w3.org/Graphics/SVG/1.1/DTD/svg11.dtd">
<!-- Generated by graphviz version 2.43.0 (0)
 -->
<!-- Title: sss::WebClient::Send Pages: 1 -->
<svg width="866pt" height="871pt"
 viewBox="0.00 0.00 866.00 870.50" xmlns="http://www.w3.org/2000/svg" xmlns:xlink="http://www.w3.org/1999/xlink">
<g id="graph0" class="graph" transform="scale(1 1) rotate(0) translate(4 866.5)">
<title>sss::WebClient::Send</title>
<!-- Node1 -->
<g id="node1" class="node">
<title>Node1</title>
<g id="a_node1"><a xlink:title=" ">
<polygon fill="#bfbfbf" stroke="black" points="746,-369.5 746,-388.5 858,-388.5 858,-369.5 746,-369.5"/>
<text text-anchor="middle" x="802" y="-376.5" font-family="Helvetica,sans-Serif" font-size="10.00">sss::WebClient::Send</text>
</a>
</g>
</g>
<!-- Node2 -->
<g id="node2" class="node">
<title>Node2</title>
<g id="a_node2"><a xlink:href="classsss_1_1api_1_1S3Api.html#a1196f1cb9ce1e5d69336e9b8dbb5d59c" target="_top" xlink:title="Download object into file.">
<polygon fill="none" stroke="black" points="579,-452 579,-482 700,-482 700,-452 579,-452"/>
<text text-anchor="start" x="587" y="-470" font-family="Helvetica,sans-Serif" font-size="10.00">sss::api::S3Api::GetFile</text>
<text text-anchor="middle" x="639.5" y="-459" font-family="Helvetica,sans-Serif" font-size="10.00">Object</text>
</a>
</g>
</g>
<!-- Node1&#45;&gt;Node2 -->
<g id="edge1" class="edge">
<title>Node1&#45;&gt;Node2</title>
<path fill="none" stroke="midnightblue" d="M778.91,-394.49C760.84,-406.82 734.39,-424.07 710,-437 700.01,-442.29 688.89,-447.42 678.53,-451.89"/>
<polygon fill="midnightblue" stroke="midnightblue" points="781.29,-397.11 787.54,-388.55 777.32,-391.34 781.29,-397.11"/>
</g>
<!-- Node3 -->
<g id="node3" class="node">
<title>Node3</title>
<g id="a_node3"><a xlink:href="classsss_1_1api_1_1S3Api.html#a02b4f0c95255f151beb72f0a6bdf5889" target="_top" xlink:title="Send request.">
<polygon fill="none" stroke="black" points="401,-410.5 401,-429.5 513,-429.5 513,-410.5 401,-410.5"/>
<text text-anchor="middle" x="457" y="-417.5" font-family="Helvetica,sans-Serif" font-size="10.00">sss::api::S3Api::Send</text>
</a>
</g>
</g>
<!-- Node1&#45;&gt;Node3 -->
<g id="edge2" class="edge">
<title>Node1&#45;&gt;Node3</title>
<path fill="none" stroke="midnightblue" d="M760.67,-391.4C744.99,-395.76 726.8,-400.24 710,-403 642.93,-414 564.7,-417.91 513.4,-419.29"/>
<polygon fill="midnightblue" stroke="midnightblue" points="761.91,-394.69 770.57,-388.58 759.99,-387.96 761.91,-394.69"/>
</g>
<!-- Node27 -->
<g id="node27" class="node">
<title>Node27</title>
<g id="a_node27"><a xlink:href="classsss_1_1WebClient.html#ae7b1f77bd4ae44585f2d49ea493bdcc5" target="_top" xlink:title="Upload data from memory buffer.">
<polygon fill="none" stroke="black" points="569,-364 569,-394 710,-394 710,-364 569,-364"/>
<text text-anchor="start" x="577" y="-382" font-family="Helvetica,sans-Serif" font-size="10.00">sss::WebClient::UploadData</text>
<text text-anchor="middle" x="639.5" y="-371" font-family="Helvetica,sans-Serif" font-size="10.00">FromBuffer</text>
</a>
</g>
</g>
<!-- Node1&#45;&gt;Node27 -->
<g id="edge26" class="edge">
<title>Node1&#45;&gt;Node27</title>
<path fill="none" stroke="midnightblue" d="M735.61,-379C727.18,-379 718.51,-379 710.01,-379"/>
<polygon fill="midnightblue" stroke="midnightblue" points="735.77,-382.5 745.77,-379 735.76,-375.5 735.77,-382.5"/>
</g>
<!-- Node29 -->
<g id="node29" class="node">
<title>Node29</title>
<g id="a_node29"><a xlink:href="classsss_1_1WebClient.html#ad038e41cfc902f6e49754c52a9a71992" target="_top" xlink:title="Upload file.">
<polygon fill="none" stroke="black" points="571.5,-325.5 571.5,-344.5 707.5,-344.5 707.5,-325.5 571.5,-325.5"/>
<text text-anchor="middle" x="639.5" y="-332.5" font-family="Helvetica,sans-Serif" font-size="10.00">sss::WebClient::UploadFile</text>
</a>
</g>
</g>
<!-- Node1&#45;&gt;Node29 -->
<g id="edge29" class="edge">
<title>Node1&#45;&gt;Node29</title>
<path fill="none" stroke="midnightblue" d="M756.51,-366.77C741.72,-362.7 725.15,-358.15 710,-354 698.78,-350.93 686.54,-347.58 675.5,-344.56"/>
<polygon fill="midnightblue" stroke="midnightblue" points="755.86,-370.22 766.43,-369.49 757.72,-363.47 755.86,-370.22"/>
</g>
<!-- Node30 -->
<g id="node30" class="node">
<title>Node30</title>
<g id="a_node30"><a xlink:href="classsss_1_1WebClient.html#accb4e986d73bb44149918fa0043ec43b" target="_top" xlink:title="Upload file starting from offset using unbuffered I/O read.">
<polygon fill="none" stroke="black" points="571.5,-276 571.5,-306 707.5,-306 707.5,-276 571.5,-276"/>
<text text-anchor="start" x="579.5" y="-294" font-family="Helvetica,sans-Serif" font-size="10.00">sss::WebClient::UploadFile</text>
<text text-anchor="middle" x="639.5" y="-283" font-family="Helvetica,sans-Serif" font-size="10.00">Unbuffered</text>
</a>
</g>
</g>
<!-- Node1&#45;&gt;Node30 -->
<g id="edge30" class="edge">
<title>Node1&#45;&gt;Node30</title>
<path fill="none" stroke="midnightblue" d="M781.34,-363.14C763.53,-349.32 736.13,-329.45 710,-316 702.93,-312.36 695.21,-309.02 687.57,-306.04"/>
<polygon fill="midnightblue" stroke="midnightblue" points="779.25,-365.94 789.27,-369.38 783.58,-360.44 779.25,-365.94"/>
</g>
<!-- Node4 -->
<g id="node4" class="node">
<title>Node4</title>
<g id="a_node4"><a xlink:href="classsss_1_1api_1_1S3Api.html#a4ea265566c3c4335ec01201cdc4410c6" target="_top" xlink:title="Abort multipart upload.">
<polygon fill="none" stroke="black" points="192,-832 192,-862 342,-862 342,-832 192,-832"/>
<text text-anchor="start" x="200" y="-850" font-family="Helvetica,sans-Serif" font-size="10.00">sss::api::S3Api::AbortMultipart</text>
<text text-anchor="middle" x="267" y="-839" font-family="Helvetica,sans-Serif" font-size="10.00">Upload</text>
</a>
</g>
</g>
<!-- Node3&#45;&gt;Node4 -->
<g id="edge3" class="edge">
<title>Node3&#45;&gt;Node4</title>
<path fill="none" stroke="midnightblue" d="M456.73,-439.84C458,-504.48 453.04,-711.29 345,-823 341.69,-826.42 337.9,-829.36 333.82,-831.88"/>
<polygon fill="midnightblue" stroke="midnightblue" points="460.23,-439.69 456.46,-429.78 453.23,-439.88 460.23,-439.69"/>
</g>
<!-- Node5 -->
<g id="node5" class="node">
<title>Node5</title>
<g id="a_node5"><a xlink:href="classsss_1_1api_1_1S3Api.html#a98f999a216121118dd569c7ef0c28ff3" target="_top" xlink:title="Complete multipart upload.">
<polygon fill="none" stroke="black" points="201.5,-783 201.5,-813 332.5,-813 332.5,-783 201.5,-783"/>
<text text-anchor="start" x="209.5" y="-801" font-family="Helvetica,sans-Serif" font-size="10.00">sss::api::S3Api::Complete</text>
<text text-anchor="middle" x="267" y="-790" font-family="Helvetica,sans-Serif" font-size="10.00">MultipartUpload</text>
</a>
</g>
</g>
<!-- Node3&#45;&gt;Node5 -->
<g id="edge4" class="edge">
<title>Node3&#45;&gt;Node5</title>
<path fill="none" stroke="midnightblue" d="M455.76,-440.01C453.94,-499.45 440.38,-676.73 345,-773 341.14,-776.89 336.67,-780.18 331.87,-782.96"/>
<polygon fill="midnightblue" stroke="midnightblue" points="459.26,-439.83 455.99,-429.76 452.27,-439.68 459.26,-439.83"/>
</g>
<!-- Node6 -->
<g id="node6" class="node">
<title>Node6</title>
<g id="a_node6"><a xlink:href="classsss_1_1api_1_1S3Api.html#ad890bd1ecfc978df24b2c3ed641e4081" target="_top" xlink:title="Create bucket.">
<polygon fill="none" stroke="black" points="192.5,-744.5 192.5,-763.5 341.5,-763.5 341.5,-744.5 192.5,-744.5"/>
<text text-anchor="middle" x="267" y="-751.5" font-family="Helvetica,sans-Serif" font-size="10.00">sss::api::S3Api::CreateBucket</text>
</a>
</g>
</g>
<!-- Node3&#45;&gt;Node6 -->
<g id="edge5" class="edge">
<title>Node3&#45;&gt;Node6</title>
<path fill="none" stroke="midnightblue" d="M455.21,-439.99C451.88,-495.66 434.59,-653.69 345,-735 340.82,-738.79 336,-741.86 330.86,-744.33"/>
<polygon fill="midnightblue" stroke="midnightblue" points="458.72,-439.89 455.73,-429.73 451.73,-439.54 458.72,-439.89"/>
</g>
<!-- Node7 -->
<g id="node7" class="node">
<title>Node7</title>
<g id="a_node7"><a xlink:href="classsss_1_1api_1_1S3Api.html#a1796fafda3d90a4292a611ce1999433b" target="_top" xlink:title="Create multipart upload.">
<polygon fill="none" stroke="black" points="189,-695 189,-725 345,-725 345,-695 189,-695"/>
<text text-anchor="start" x="197" y="-713" font-family="Helvetica,sans-Serif" font-size="10.00">sss::api::S3Api::CreateMultipart</text>
<text text-anchor="middle" x="267" y="-702" font-family="Helvetica,sans-Serif" font-size="10.00">Upload</text>
</a>
</g>
</g>
<!-- Node3&#45;&gt;Node7 -->
<g id="edge6" class="edge">
<title>Node3&#45;&gt;Node7</title>
<path fill="none" stroke="midnightblue" d="M453.4,-439.73C445.93,-488.56 419.91,-616.04 345,-685 340.76,-688.9 335.9,-692.2 330.74,-694.98"/>
<polygon fill="midnightblue" stroke="midnightblue" points="456.9,-439.97 454.86,-429.58 449.97,-438.98 456.9,-439.97"/>
</g>
<!-- Node8 -->
<g id="node8" class="node">
<title>Node8</title>
<g id="a_node8"><a xlink:href="classsss_1_1api_1_1S3Api.html#a3d63825d1916e4ba3ca13122c7660603" target="_top" xlink:title="Delete bucket.">
<polygon fill="none" stroke="black" points="192.5,-656.5 192.5,-675.5 341.5,-675.5 341.5,-656.5 192.5,-656.5"/>
<text text-anchor="middle" x="267" y="-663.5" font-family="Helvetica,sans-Serif" font-size="10.00">sss::api::S3Api::DeleteBucket</text>
</a>
</g>
</g>
<!-- Node3&#45;&gt;Node8 -->
<g id="edge7" class="edge">
<title>Node3&#45;&gt;Node8</title>
<path fill="none" stroke="midnightblue" d="M452.27,-439.56C442.78,-483.76 413.47,-591.75 345,-647 340.18,-650.89 334.67,-654 328.87,-656.48"/>
<polygon fill="midnightblue" stroke="midnightblue" points="455.74,-440.05 454.31,-429.55 448.88,-438.65 455.74,-440.05"/>
</g>
<!-- Node9 -->
<g id="node9" class="node">
<title>Node9</title>
<g id="a_node9"><a xlink:href="classsss_1_1api_1_1S3Api.html#a14a75f15eb71fbba8639673100768b67" target="_top" xlink:title="Delete object.">
<polygon fill="none" stroke="black" points="194,-618.5 194,-637.5 340,-637.5 340,-618.5 194,-618.5"/>
<text text-anchor="middle" x="267" y="-625.5" font-family="Helvetica,sans-Serif" font-size="10.00">sss::api::S3Api::DeleteObject</text>
</a>
</g>
</g>
<!-- Node3&#45;&gt;Node9 -->
<g id="edge8" class="edge">
<title>Node3&#45;&gt;Node9</title>
<path fill="none" stroke="midnightblue" d="M450.18,-439.66C437.67,-478.4 404.41,-564.69 345,-609 339.81,-612.87 333.93,-615.96 327.79,-618.42"/>
<polygon fill="midnightblue" stroke="midnightblue" points="453.67,-440.25 453.29,-429.66 446.98,-438.17 453.67,-440.25"/>
</g>
<!-- Node10 -->
<g id="node10" class="node">
<title>Node10</title>
<g id="a_node10"><a xlink:href="classsss_1_1api_1_1S3Api.html#a3b53152bf39143843a4033aa4a1b3fa0" target="_top" xlink:title=" ">
<polygon fill="none" stroke="black" points="192,-580.5 192,-599.5 342,-599.5 342,-580.5 192,-580.5"/>
<text text-anchor="middle" x="267" y="-587.5" font-family="Helvetica,sans-Serif" font-size="10.00">sss::api::S3Api::GetBucketAcl</text>
</a>
</g>
</g>
<!-- Node3&#45;&gt;Node10 -->
<g id="edge9" class="edge">
<title>Node3&#45;&gt;Node10</title>
<path fill="none" stroke="midnightblue" d="M447.57,-438.8C432.1,-471.09 396.01,-536.89 345,-571 339.16,-574.9 332.6,-578.01 325.82,-580.47"/>
<polygon fill="midnightblue" stroke="midnightblue" points="450.82,-440.12 451.87,-429.58 444.47,-437.17 450.82,-440.12"/>
</g>
<!-- Node11 -->
<g id="node11" class="node">
<title>Node11</title>
<g id="a_node11"><a xlink:href="classsss_1_1api_1_1S3Api.html#afdb9997dfbd29512cbfe8da9f0028cf8" target="_top" xlink:title="Return bucket tags.">
<polygon fill="none" stroke="black" points="199,-531 199,-561 335,-561 335,-531 199,-531"/>
<text text-anchor="start" x="207" y="-549" font-family="Helvetica,sans-Serif" font-size="10.00">sss::api::S3Api::GetBucket</text>
<text text-anchor="middle" x="267" y="-538" font-family="Helvetica,sans-Serif" font-size="10.00">Tagging</text>
</a>
</g>
</g>
<!-- Node3&#45;&gt;Node11 -->
<g id="edge10" class="edge">
<title>Node3&#45;&gt;Node11</title>
<path fill="none" stroke="midnightblue" d="M441.43,-437.18C421.69,-459.45 384.36,-498.15 345,-521 338.44,-524.81 331.22,-528.13 323.91,-530.99"/>
<polygon fill="midnightblue" stroke="midnightblue" points="444.18,-439.35 448.1,-429.51 438.9,-434.76 444.18,-439.35"/>
</g>
<!-- Node12 -->
<g id="node12" class="node">
<title>Node12</title>
<g id="a_node12"><a xlink:href="classsss_1_1api_1_1S3Api.html#af61465d92c0a94aa82ae863fc2a776a0" target="_top" xlink:title="Download object data.">
<polygon fill="none" stroke="black" points="200,-492.5 200,-511.5 334,-511.5 334,-492.5 200,-492.5"/>
<text text-anchor="middle" x="267" y="-499.5" font-family="Helvetica,sans-Serif" font-size="10.00">sss::api::S3Api::GetObject</text>
</a>
</g>
</g>
<!-- Node3&#45;&gt;Node12 -->
<g id="edge11" class="edge">
<title>Node3&#45;&gt;Node12</title>
<path fill="none" stroke="midnightblue" d="M433.38,-435.3C411.58,-449.45 377.24,-470.16 345,-483 335.66,-486.72 325.39,-489.86 315.47,-492.46"/>
<polygon fill="midnightblue" stroke="midnightblue" points="435.49,-438.11 441.92,-429.69 431.64,-432.26 435.49,-438.11"/>
</g>
<!-- Node13 -->
<g id="node13" class="node">
<title>Node13</title>
<g id="a_node13"><a xlink:href="classsss_1_1api_1_1S3Api.html#ae548966dc38f328fc45ee1500f5caf5b" target="_top" xlink:title="Return bucket&#39;s Access Control List.">
<polygon fill="none" stroke="black" points="193,-454.5 193,-473.5 341,-473.5 341,-454.5 193,-454.5"/>
<text text-anchor="middle" x="267" y="-461.5" font-family="Helvetica,sans-Serif" font-size="10.00">sss::api::S3Api::GetObjectAcl</text>
</a>
</g>
</g>
<!-- Node3&#45;&gt;Node13 -->
<g id="edge12" class="edge">
<title>Node3&#45;&gt;Node13</title>
<path fill="none" stroke="midnightblue" d="M405.26,-431.88C374.97,-438.96 337.03,-447.84 308.71,-454.47"/>
<polygon fill="midnightblue" stroke="midnightblue" points="406.27,-435.23 415.21,-429.55 404.67,-428.42 406.27,-435.23"/>
</g>
<!-- Node14 -->
<g id="node14" class="node">
<title>Node14</title>
<g id="a_node14"><a xlink:href="classsss_1_1api_1_1S3Api.html#aceb12e50a72a7b9b3ca460c23671c586" target="_top" xlink:title="Return object tags.">
<polygon fill="none" stroke="black" points="200,-405 200,-435 334,-435 334,-405 200,-405"/>
<text text-anchor="start" x="208" y="-423" font-family="Helvetica,sans-Serif" font-size="10.00">sss::api::S3Api::GetObject</text>
<text text-anchor="middle" x="267" y="-412" font-family="Helvetica,sans-Serif" font-size="10.00">Tagging</text>
</a>
</g>
</g>
<!-- Node3&#45;&gt;Node14 -->
<g id="edge13" class="edge">
<title>Node3&#45;&gt;Node14</title>
<path fill="none" stroke="midnightblue" d="M390.85,-420C372.5,-420 352.52,-420 334.11,-420"/>
<polygon fill="midnightblue" stroke="midnightblue" points="390.86,-423.5 400.86,-420 390.86,-416.5 390.86,-423.5"/>
</g>
<!-- Node15 -->
<g id="node15" class="node">
<title>Node15</title>
<g id="a_node15"><a xlink:href="classsss_1_1api_1_1S3Api.html#aa4a2b1cc2c89a52d1aa89e571b785db2" target="_top" xlink:title=" ">
<polygon fill="none" stroke="black" points="195.5,-366.5 195.5,-385.5 338.5,-385.5 338.5,-366.5 195.5,-366.5"/>
<text text-anchor="middle" x="267" y="-373.5" font-family="Helvetica,sans-Serif" font-size="10.00">sss::api::S3Api::HeadBucket</text>
</a>
</g>
</g>
<!-- Node3&#45;&gt;Node15 -->
<g id="edge14" class="edge">
<title>Node3&#45;&gt;Node15</title>
<path fill="none" stroke="midnightblue" d="M405.26,-408.12C374.97,-401.04 337.03,-392.16 308.71,-385.53"/>
<polygon fill="midnightblue" stroke="midnightblue" points="404.67,-411.58 415.21,-410.45 406.27,-404.77 404.67,-411.58"/>
</g>
<!-- Node16 -->
<g id="node16" class="node">
<title>Node16</title>
<g id="a_node16"><a xlink:href="classsss_1_1api_1_1S3Api.html#abc84a71b9a88b81afaa353ad17a91d22" target="_top" xlink:title="Send HeadObject request.">
<polygon fill="none" stroke="black" points="196.5,-328.5 196.5,-347.5 337.5,-347.5 337.5,-328.5 196.5,-328.5"/>
<text text-anchor="middle" x="267" y="-335.5" font-family="Helvetica,sans-Serif" font-size="10.00">sss::api::S3Api::HeadObject</text>
</a>
</g>
</g>
<!-- Node3&#45;&gt;Node16 -->
<g id="edge15" class="edge">
<title>Node3&#45;&gt;Node16</title>
<path fill="none" stroke="midnightblue" d="M398.5,-406.85C392.37,-404.37 386.41,-401.45 381,-398 360.56,-384.96 365.72,-369.59 345,-357 338.65,-353.14 331.55,-350.06 324.3,-347.61"/>
<polygon fill="midnightblue" stroke="midnightblue" points="397.63,-410.26 408.23,-410.38 400.02,-403.68 397.63,-410.26"/>
</g>
<!-- Node19 -->
<g id="node19" class="node">
<title>Node19</title>
<g id="a_node19"><a xlink:href="classsss_1_1api_1_1S3Api.html#a81e30673c06b609a2ee6e6bfd9130ca6" target="_top" xlink:title="List buckets.">
<polygon fill="none" stroke="black" points="196.5,-290.5 196.5,-309.5 337.5,-309.5 337.5,-290.5 196.5,-290.5"/>
<text text-anchor="middle" x="267" y="-297.5" font-family="Helvetica,sans-Serif" font-size="10.00">sss::api::S3Api::ListBuckets</text>
</a>
</g>
</g>
<!-- Node3&#45;&gt;Node19 -->
<g id="edge18" class="edge">
<title>Node3&#45;&gt;Node19</title>
<path fill="none" stroke="midnightblue" d="M393.07,-406.2C388.74,-403.88 384.65,-401.17 381,-398 351.85,-372.72 374.7,-343.64 345,-319 340.34,-315.13 335,-312.03 329.37,-309.55"/>
<polygon fill="midnightblue" stroke="midnightblue" points="391.7,-409.42 402.25,-410.44 394.64,-403.07 391.7,-409.42"/>
</g>
<!-- Node20 -->
<g id="node20" class="node">
<title>Node20</title>
<g id="a_node20"><a xlink:href="classsss_1_1api_1_1S3Api.html#a3f00f611cd210a58ac6e8c0555984433" target="_top" xlink:title="List objects by sending a ListObjectsV2 request.">
<polygon fill="none" stroke="black" points="191.5,-252.5 191.5,-271.5 342.5,-271.5 342.5,-252.5 191.5,-252.5"/>
<text text-anchor="middle" x="267" y="-259.5" font-family="Helvetica,sans-Serif" font-size="10.00">sss::api::S3Api::ListObjectsV2</text>
</a>
</g>
</g>
<!-- Node3&#45;&gt;Node20 -->
<g id="edge19" class="edge">
<title>Node3&#45;&gt;Node20</title>
<path fill="none" stroke="midnightblue" d="M391.86,-406.27C387.92,-403.93 384.24,-401.2 381,-398 342.28,-359.78 384.54,-318.37 345,-281 341,-277.22 336.36,-274.15 331.4,-271.67"/>
<polygon fill="midnightblue" stroke="midnightblue" points="390.35,-409.43 400.86,-410.8 393.5,-403.18 390.35,-409.43"/>
</g>
<!-- Node21 -->
<g id="node21" class="node">
<title>Node21</title>
<g id="a_node21"><a xlink:href="classsss_1_1api_1_1S3Api.html#aa35e9b1cc7661cd9bb0d5f2de6cbbc7d" target="_top" xlink:title="Set Access Control Policy for bucket.">
<polygon fill="none" stroke="black" points="192.5,-214.5 192.5,-233.5 341.5,-233.5 341.5,-214.5 192.5,-214.5"/>
<text text-anchor="middle" x="267" y="-221.5" font-family="Helvetica,sans-Serif" font-size="10.00">sss::api::S3Api::PutBucketAcl</text>
</a>
</g>
</g>
<!-- Node3&#45;&gt;Node21 -->
<g id="edge20" class="edge">
<title>Node3&#45;&gt;Node21</title>
<path fill="none" stroke="midnightblue" d="M391.8,-406.65C387.84,-404.22 384.18,-401.36 381,-398 332.44,-346.58 394.66,-293.35 345,-243 341.23,-239.18 336.82,-236.08 332.05,-233.57"/>
<polygon fill="midnightblue" stroke="midnightblue" points="390.39,-409.86 400.88,-411.31 393.58,-403.63 390.39,-409.86"/>
</g>
<!-- Node22 -->
<g id="node22" class="node">
<title>Node22</title>
<g id="a_node22"><a xlink:href="classsss_1_1api_1_1S3Api.html#ae0b480d21933d41f7ca992ca5abe3091" target="_top" xlink:title=" ">
<polygon fill="none" stroke="black" points="199.5,-165 199.5,-195 334.5,-195 334.5,-165 199.5,-165"/>
<text text-anchor="start" x="207.5" y="-183" font-family="Helvetica,sans-Serif" font-size="10.00">sss::api::S3Api::PutBucket</text>
<text text-anchor="middle" x="267" y="-172" font-family="Helvetica,sans-Serif" font-size="10.00">Tagging</text>
</a>
</g>
</g>
<!-- Node3&#45;&gt;Node22 -->
<g id="edge21" class="edge">
<title>Node3&#45;&gt;Node22</title>
<path fill="none" stroke="midnightblue" d="M391.63,-406.81C387.71,-404.34 384.1,-401.43 381,-398 322.49,-333.27 402.58,-270.56 345,-205 341.57,-201.09 337.52,-197.79 333.11,-195.01"/>
<polygon fill="midnightblue" stroke="midnightblue" points="390.17,-409.99 400.65,-411.52 393.41,-403.79 390.17,-409.99"/>
</g>
<!-- Node23 -->
<g id="node23" class="node">
<title>Node23</title>
<g id="a_node23"><a xlink:href="classsss_1_1api_1_1S3Api.html#a2cc08fb777cfc4d24c40bea1cde967e7" target="_top" xlink:title="Set Access Control Policy.">
<polygon fill="none" stroke="black" points="193.5,-126.5 193.5,-145.5 340.5,-145.5 340.5,-126.5 193.5,-126.5"/>
<text text-anchor="middle" x="267" y="-133.5" font-family="Helvetica,sans-Serif" font-size="10.00">sss::api::S3Api::PutObjectAcl</text>
</a>
</g>
</g>
<!-- Node3&#45;&gt;Node23 -->
<g id="edge22" class="edge">
<title>Node3&#45;&gt;Node23</title>
<path fill="none" stroke="midnightblue" d="M391.69,-407.06C387.72,-404.54 384.09,-401.55 381,-398 309.32,-315.65 418.45,-235.77 345,-155 341.57,-151.23 337.53,-148.15 333.11,-145.65"/>
<polygon fill="midnightblue" stroke="midnightblue" points="390.35,-410.31 400.83,-411.86 393.6,-404.11 390.35,-410.31"/>
</g>
<!-- Node24 -->
<g id="node24" class="node">
<title>Node24</title>
<g id="a_node24"><a xlink:href="classsss_1_1api_1_1S3Api.html#ac098e2619080dde98a75b71af8f66eef" target="_top" xlink:title="Set object tags.">
<polygon fill="none" stroke="black" points="200.5,-77 200.5,-107 333.5,-107 333.5,-77 200.5,-77"/>
<text text-anchor="start" x="208.5" y="-95" font-family="Helvetica,sans-Serif" font-size="10.00">sss::api::S3Api::PutObject</text>
<text text-anchor="middle" x="267" y="-84" font-family="Helvetica,sans-Serif" font-size="10.00">Tagging</text>
</a>
</g>
</g>
<!-- Node3&#45;&gt;Node24 -->
<g id="edge23" class="edge">
<title>Node3&#45;&gt;Node24</title>
<path fill="none" stroke="midnightblue" d="M391.61,-407.13C387.66,-404.59 384.06,-401.58 381,-398 299.27,-302.22 425.35,-213.94 345,-117 341.77,-113.1 337.93,-109.81 333.71,-107.03"/>
<polygon fill="midnightblue" stroke="midnightblue" points="390.25,-410.37 400.72,-411.95 393.52,-404.18 390.25,-410.37"/>
</g>
<!-- Node25 -->
<g id="node25" class="node">
<title>Node25</title>
<g id="a_node25"><a xlink:href="classsss_1_1api_1_1S3Api.html#a0473917e4d25a4a6fca40d097e4299d6" target="_top" xlink:title=" ">
<polygon fill="none" stroke="black" points="211,-38.5 211,-57.5 323,-57.5 323,-38.5 211,-38.5"/>
<text text-anchor="middle" x="267" y="-45.5" font-family="Helvetica,sans-Serif" font-size="10.00">sss::api::S3Api::Send</text>
</a>
</g>
</g>
<!-- Node3&#45;&gt;Node25 -->
<g id="edge24" class="edge">
<title>Node3&#45;&gt;Node25</title>
<path fill="none" stroke="midnightblue" d="M392.05,-407.53C387.92,-404.91 384.15,-401.77 381,-398 286.02,-284.52 442.42,-178.39 345,-67 339.2,-60.37 331.49,-55.86 323.18,-52.84"/>
<polygon fill="midnightblue" stroke="midnightblue" points="390.51,-410.67 400.99,-412.2 393.75,-404.47 390.51,-410.67"/>
</g>
<!-- Node26 -->
<g id="node26" class="node">
<title>Node26</title>
<g id="a_node26"><a xlink:href="classsss_1_1api_1_1S3Api.html#a23223ee1fb701c55af2d942dbf261ae2" target="_top" xlink:title="Check if bucket exist.">
<polygon fill="none" stroke="black" points="197.5,-0.5 197.5,-19.5 336.5,-19.5 336.5,-0.5 197.5,-0.5"/>
<text text-anchor="middle" x="267" y="-7.5" font-family="Helvetica,sans-Serif" font-size="10.00">sss::api::S3Api::TestBucket</text>
</a>
</g>
</g>
<!-- Node3&#45;&gt;Node26 -->
<g id="edge25" class="edge">
<title>Node3&#45;&gt;Node26</title>
<path fill="none" stroke="midnightblue" d="M392.01,-407.57C387.88,-404.94 384.13,-401.79 381,-398 328.47,-334.53 398.9,-91.32 345,-29 341.76,-25.25 337.9,-22.18 333.68,-19.67"/>
<polygon fill="midnightblue" stroke="midnightblue" points="390.45,-410.7 400.93,-412.25 393.7,-404.51 390.45,-410.7"/>
</g>
<!-- Node17 -->
<g id="node17" class="node">
<title>Node17</title>
<g id="a_node17"><a xlink:href="classsss_1_1api_1_1S3Api.html#a872e80e356e8c404a9b0739d95a0af41" target="_top" xlink:title="Return object size.">
<polygon fill="none" stroke="black" points="0,-347.5 0,-366.5 153,-366.5 153,-347.5 0,-347.5"/>
<text text-anchor="middle" x="76.5" y="-354.5" font-family="Helvetica,sans-Serif" font-size="10.00">sss::api::S3Api::GetObjectSize</text>
</a>
</g>
</g>
<!-- Node16&#45;&gt;Node17 -->
<g id="edge16" class="edge">
<title>Node16&#45;&gt;Node17</title>
<path fill="none" stroke="midnightblue" d="M186.35,-346.03C175.37,-347.14 164.11,-348.27 153.2,-349.37"/>
<polygon fill="midnightblue" stroke="midnightblue" points="186.75,-349.51 196.35,-345.02 186.04,-342.54 186.75,-349.51"/>
</g>
<!-- Node18 -->
<g id="node18" class="node">
<title>Node18</title>
<g id="a_node18"><a xlink:href="classsss_1_1api_1_1S3Api.html#aa3f7a3001bdad58c7b0c04cbd0dc3236" target="_top" xlink:title="Check if key exists.">
<polygon fill="none" stroke="black" points="8,-309.5 8,-328.5 145,-328.5 145,-309.5 8,-309.5"/>
<text text-anchor="middle" x="76.5" y="-316.5" font-family="Helvetica,sans-Serif" font-size="10.00">sss::api::S3Api::TestObject</text>
</a>
</g>
</g>
<!-- Node16&#45;&gt;Node18 -->
<g id="edge17" class="edge">
<title>Node16&#45;&gt;Node18</title>
<path fill="none" stroke="midnightblue" d="M186.07,-329.94C172.5,-328.58 158.52,-327.17 145.3,-325.83"/>
<polygon fill="midnightblue" stroke="midnightblue" points="186.04,-333.46 196.35,-330.98 186.75,-326.49 186.04,-333.46"/>
</g>
<!-- Node27&#45;&gt;Node3 -->
<g id="edge27" class="edge">
<title>Node27&#45;&gt;Node3</title>
<path fill="none" stroke="midnightblue" d="M562.29,-396.31C540.98,-401.15 518.6,-406.23 500.06,-410.45"/>
<polygon fill="midnightblue" stroke="midnightblue" points="563.34,-399.66 572.31,-394.03 561.79,-392.84 563.34,-399.66"/>
</g>
<!-- Node28 -->
<g id="node28" class="node">
<title>Node28</title>
<g id="a_node28"><a xlink:href="classsss_1_1WebClient.html#ab5af9d8e7c424e49fab04f0d9d59b489" target="_top" xlink:title="Upload file starting from offset using unbuffered memory mapping of file.">
<polygon fill="none" stroke="black" points="381,-369.5 381,-388.5 533,-388.5 533,-369.5 381,-369.5"/>
<text text-anchor="middle" x="457" y="-376.5" font-family="Helvetica,sans-Serif" font-size="10.00">sss::WebClient::UploadFileMM</text>
</a>
</g>
</g>
<!-- Node27&#45;&gt;Node28 -->
<g id="edge28" class="edge">
<title>Node27&#45;&gt;Node28</title>
<path fill="none" stroke="midnightblue" d="M558.71,-379C550.22,-379 541.62,-379 533.19,-379"/>
<polygon fill="midnightblue" stroke="midnightblue" points="558.97,-382.5 568.97,-379 558.97,-375.5 558.97,-382.5"/>
</g>
</g>
</svg>
