<?xml version="1.0" encoding="UTF-8" standalone="no"?>
<!DOCTYPE svg PUBLIC "-//W3C//DTD SVG 1.1//EN"
 "http://www.w3.org/Graphics/SVG/1.1/DTD/svg11.dtd">
<!-- Generated by graphviz version 8.0.5 (20230430.1635)
 -->
<!-- Title: sss::api::S3Api::CreateMultipartUpload Pages: 1 -->
<!--zoomable 605 -->
<svg id="main" version="1.1" xmlns="http://www.w3.org/2000/svg" xmlns:xlink="http://www.w3.org/1999/xlink" xml:space="preserve" onload="init(evt)">
<style type="text/css"><![CDATA[
.edge:hover path { stroke: red; }
.edge:hover polygon { stroke: red; fill: red; }
]]></style>
<script type="text/javascript"><![CDATA[
var edges = document.getElementsByTagName('g');
if (edges && edges.length) {
  for (var i=0;i<edges.length;i++) {
    if (edges[i].id.substr(0,4)=='edge') {
      edges[i].setAttribute('class','edge');
    }
  }
}
]]></script>
        <defs>
                <circle id="rim" cx="0" cy="0" r="7"/>
                <circle id="rim2" cx="0" cy="0" r="3.5"/>
                <g id="zoomPlus">
                        <use xlink:href="#rim" fill="#404040">
                                <set attributeName="fill" to="#808080" begin="zoomplus.mouseover" end="zoomplus.mouseout"/>
                        </use>
                        <path d="M-4,0h8M0,-4v8" fill="none" stroke="white" stroke-width="1.5" pointer-events="none"/>
                </g>
                <g id="zoomMin">
                        <use xlink:href="#rim" fill="#404040">
                                <set attributeName="fill" to="#808080" begin="zoomminus.mouseover" end="zoomminus.mouseout"/>
                        </use>
                        <path d="M-4,0h8" fill="none" stroke="white" stroke-width="1.5" pointer-events="none"/>
                </g>
                <g id="dirArrow">
                        <path fill="none" stroke="white" stroke-width="1.5" d="M0,-3.0v7 M-2.5,-0.5L0,-3.0L2.5,-0.5"/>
                </g>
               <g id="resetDef">
                       <use xlink:href="#rim2" fill="#404040">
                               <set attributeName="fill" to="#808080" begin="reset.mouseover" end="reset.mouseout"/>
                       </use>
               </g>
        </defs>

<script type="text/javascript">
var viewWidth = 1097;
var viewHeight = 605;
var sectionId = 'dynsection-7';
</script>
<script xlink:href="svgpan.js"/>
<svg id="graph" class="graph">
<g id="viewport">
<title>sss::api::S3Api::CreateMultipartUpload</title>
<!-- Node1 -->
<g id="node1" class="node">
<title>Node1</title>
<g id="a_node1"><a xlink:title=" ">
<polygon fill="#999999" stroke="#666666" points="155.5,-208.5 0,-208.5 0,-178 155.5,-178 155.5,-208.5"/>
<text text-anchor="start" x="8" y="-195" font-family="Helvetica,sans-Serif" font-size="10.00">sss::api::S3Api::CreateMultipart</text>
<text text-anchor="middle" x="77.75" y="-183.75" font-family="Helvetica,sans-Serif" font-size="10.00">Upload</text>
</a>
</g>
</g>
<!-- Node2 -->
<g id="node2" class="node">
<title>Node2</title>
<g id="a_node2"><a xlink:href="classsss_1_1WebClient.html#ac9e82fc4b56b142d91f9b104f5266f91" target="_top" xlink:title="Get response body as text.">
<polygon fill="white" stroke="#666666" points="873.5,-570.88 715.75,-570.88 715.75,-551.62 873.5,-551.62 873.5,-570.88"/>
<text text-anchor="middle" x="794.62" y="-557.38" font-family="Helvetica,sans-Serif" font-size="10.00">sss::WebClient::GetContentText</text>
</a>
</g>
</g>
<!-- Node1&#45;&gt;Node2 -->
<g id="edge1" class="edge">
<title>Node1&#45;&gt;Node2</title>
<path fill="none" stroke="#63b8ff" d="M89.72,-208.61C135.03,-270.58 315.38,-502.63 529.5,-582.25 605.33,-610.45 701.64,-589.99 754.49,-574.42"/>
<polygon fill="#63b8ff" stroke="#63b8ff" points="755.23,-577.55 763.78,-571.29 753.19,-570.85 755.23,-577.55"/>
</g>
<!-- Node6 -->
<g id="node6" class="node">
<title>Node6</title>
<g id="a_node6"><a xlink:href="classsss_1_1api_1_1S3Api.html#ad09581bf28c4bbbcbb71b329959ec1ae" target="_top" xlink:title=" ">
<polygon fill="white" stroke="#666666" points="302.75,-202.88 191.5,-202.88 191.5,-183.62 302.75,-183.62 302.75,-202.88"/>
<text text-anchor="middle" x="247.12" y="-189.38" font-family="Helvetica,sans-Serif" font-size="10.00">sss::api::S3Api::Send</text>
</a>
</g>
</g>
<!-- Node1&#45;&gt;Node6 -->
<g id="edge5" class="edge">
<title>Node1&#45;&gt;Node6</title>
<path fill="none" stroke="#63b8ff" d="M155.58,-193.25C163.85,-193.25 172.21,-193.25 180.34,-193.25"/>
<polygon fill="#63b8ff" stroke="#63b8ff" points="180.24,-196.75 190.24,-193.25 180.24,-189.75 180.24,-196.75"/>
</g>
<!-- Node36 -->
<g id="node36" class="node">
<title>Node36</title>
<g id="a_node36"><a xlink:href="group__Parsing.html#gacf486071ed8bd3e6f76fe9ee23639bde" target="_top" xlink:title=" ">
<polygon fill="white" stroke="#666666" points="284,-165.88 210.25,-165.88 210.25,-146.62 284,-146.62 284,-165.88"/>
<text text-anchor="middle" x="247.12" y="-152.38" font-family="Helvetica,sans-Serif" font-size="10.00">sss::XMLTag</text>
</a>
</g>
</g>
<!-- Node1&#45;&gt;Node36 -->
<g id="edge50" class="edge">
<title>Node1&#45;&gt;Node36</title>
<path fill="none" stroke="#63b8ff" d="M149.73,-177.56C166.67,-173.81 184.32,-169.91 199.82,-166.49"/>
<polygon fill="#63b8ff" stroke="#63b8ff" points="200.16,-169.77 209.17,-164.2 198.65,-162.94 200.16,-169.77"/>
</g>
<!-- Node3 -->
<g id="node3" class="node">
<title>Node3</title>
<g id="a_node3"><a xlink:href="group__Ranges.html#ga0aa7f3b15d2ebf9b597a1b5ba38ae8ac" target="_top" xlink:title="return iterator at start position">
<polygon fill="white" stroke="#666666" points="1033.88,-495.88 972.88,-495.88 972.88,-476.62 1033.88,-476.62 1033.88,-495.88"/>
<text text-anchor="middle" x="1003.38" y="-482.38" font-family="Helvetica,sans-Serif" font-size="10.00">sss::begin</text>
</a>
</g>
</g>
<!-- Node2&#45;&gt;Node3 -->
<g id="edge2" class="edge">
<title>Node2&#45;&gt;Node3</title>
<path fill="none" stroke="#63b8ff" d="M813.71,-551.21C837.09,-538.62 879.37,-517.1 917.75,-504.25 931.94,-499.5 947.9,-495.72 962.1,-492.88"/>
<polygon fill="#63b8ff" stroke="#63b8ff" points="962.39,-496.19 971.56,-490.88 961.08,-489.32 962.39,-496.19"/>
</g>
<!-- Node4 -->
<g id="node4" class="node">
<title>Node4</title>
<g id="a_node4"><a xlink:href="group__Ranges.html#ga4f73053571587e79eb3db628f5e6ef99" target="_top" xlink:title="return iterator at end position">
<polygon fill="white" stroke="#666666" points="1030.12,-532.88 976.62,-532.88 976.62,-513.62 1030.12,-513.62 1030.12,-532.88"/>
<text text-anchor="middle" x="1003.38" y="-519.38" font-family="Helvetica,sans-Serif" font-size="10.00">sss::end</text>
</a>
</g>
</g>
<!-- Node2&#45;&gt;Node4 -->
<g id="edge3" class="edge">
<title>Node2&#45;&gt;Node4</title>
<path fill="none" stroke="#63b8ff" d="M850.49,-551.17C886.87,-544.48 933.63,-535.89 965.59,-530.01"/>
<polygon fill="#63b8ff" stroke="#63b8ff" points="966.04,-533.3 975.24,-528.05 964.77,-526.42 966.04,-533.3"/>
</g>
<!-- Node5 -->
<g id="node5" class="node">
<title>Node5</title>
<g id="a_node5"><a xlink:href="classsss_1_1WebClient.html#a77a4e0190a4f207b969cb63b6ba38ccc" target="_top" xlink:title=" ">
<polygon fill="white" stroke="#666666" points="1089,-570.88 917.75,-570.88 917.75,-551.62 1089,-551.62 1089,-570.88"/>
<text text-anchor="middle" x="1003.38" y="-557.38" font-family="Helvetica,sans-Serif" font-size="10.00">sss::WebClient::GetResponseBody</text>
</a>
</g>
</g>
<!-- Node2&#45;&gt;Node5 -->
<g id="edge4" class="edge">
<title>Node2&#45;&gt;Node5</title>
<path fill="none" stroke="#63b8ff" d="M873.79,-561.25C884.51,-561.25 895.61,-561.25 906.6,-561.25"/>
<polygon fill="#63b8ff" stroke="#63b8ff" points="906.54,-564.75 916.54,-561.25 906.54,-557.75 906.54,-564.75"/>
</g>
<!-- Node7 -->
<g id="node7" class="node">
<title>Node7</title>
<g id="a_node7"><a xlink:href="classsss_1_1api_1_1S3Api.html#a840772746fbb0a79c161037da7b24a31" target="_top" xlink:title="[WebClient::Config]">
<polygon fill="white" stroke="#666666" points="474.75,-385.88 357.5,-385.88 357.5,-366.62 474.75,-366.62 474.75,-385.88"/>
<text text-anchor="middle" x="416.12" y="-372.38" font-family="Helvetica,sans-Serif" font-size="10.00">sss::api::S3Api::Config</text>
</a>
</g>
</g>
<!-- Node6&#45;&gt;Node7 -->
<g id="edge6" class="edge">
<title>Node6&#45;&gt;Node7</title>
<path fill="none" stroke="#63b8ff" d="M255.48,-203.11C270.41,-222.93 305.69,-268.75 338.75,-304.25 357.09,-323.94 379.68,-344.87 395.52,-359.06"/>
<polygon fill="#63b8ff" stroke="#63b8ff" points="392.75,-361.17 402.55,-365.2 397.4,-355.94 392.75,-361.17"/>
</g>
<!-- Node16 -->
<g id="node16" class="node">
<title>Node16</title>
<g id="a_node16"><a xlink:href="classsss_1_1WebClient.html#a51ce0ecf6487b6a43072643fe4f4cb4e" target="_top" xlink:title=" ">
<polygon fill="white" stroke="#666666" points="867.12,-159.88 722.12,-159.88 722.12,-140.62 867.12,-140.62 867.12,-159.88"/>
<text text-anchor="middle" x="794.62" y="-146.38" font-family="Helvetica,sans-Serif" font-size="10.00">sss::WebClient::SetPostData</text>
</a>
</g>
</g>
<!-- Node6&#45;&gt;Node16 -->
<g id="edge43" class="edge">
<title>Node6&#45;&gt;Node16</title>
<path fill="none" stroke="#63b8ff" d="M279.23,-183.22C296.56,-178.09 318.63,-172.3 338.75,-169.25 467.73,-149.72 619.46,-147.47 711,-148.34"/>
<polygon fill="#63b8ff" stroke="#63b8ff" points="710.83,-151.85 720.86,-148.46 710.9,-144.85 710.83,-151.85"/>
</g>
<!-- Node29 -->
<g id="node29" class="node">
<title>Node29</title>
<g id="a_node29"><a xlink:href="lib_2include_2utility_8h.html#ab314781bb3f053ef5325b50f3a1b74f8" target="_top" xlink:title=" ">
<polygon fill="white" stroke="#666666" points="1040.62,-116.88 966.12,-116.88 966.12,-97.62 1040.62,-97.62 1040.62,-116.88"/>
<text text-anchor="middle" x="1003.38" y="-103.38" font-family="Helvetica,sans-Serif" font-size="10.00">sss::ToLower</text>
</a>
</g>
</g>
<!-- Node6&#45;&gt;Node29 -->
<g id="edge46" class="edge">
<title>Node6&#45;&gt;Node29</title>
<path fill="none" stroke="#63b8ff" d="M290.56,-183.16C294.96,-181.01 299.14,-178.4 302.75,-175.25 330.29,-151.18 308.16,-121.29 338.75,-101.25 439.87,-35 821.14,-81.4 955.31,-100.28"/>
<polygon fill="#63b8ff" stroke="#63b8ff" points="954.64,-103.86 965.03,-101.8 955.62,-96.93 954.64,-103.86"/>
</g>
<!-- Node31 -->
<g id="node31" class="node">
<title>Node31</title>
<g id="a_node31"><a xlink:href="group__ErrorHandling.html#ga781648957bfce0bbc86cbdbff94e28a6" target="_top" xlink:title=" ">
<polygon fill="white" stroke="#666666" points="460.88,-45.88 371.38,-45.88 371.38,-26.62 460.88,-26.62 460.88,-45.88"/>
<text text-anchor="middle" x="416.12" y="-32.38" font-family="Helvetica,sans-Serif" font-size="10.00">sss::HandleError</text>
</a>
</g>
</g>
<!-- Node6&#45;&gt;Node31 -->
<g id="edge40" class="edge">
<title>Node6&#45;&gt;Node31</title>
<path fill="none" stroke="#63b8ff" d="M291.85,-183.25C295.86,-181.08 299.6,-178.45 302.75,-175.25 340.34,-137.1 300.9,-98.14 338.75,-60.25 344.97,-54.03 352.77,-49.42 361.01,-46"/>
<polygon fill="#63b8ff" stroke="#63b8ff" points="361.93,-49.03 370.19,-42.39 359.59,-42.43 361.93,-49.03"/>
</g>
<!-- Node32 -->
<g id="node32" class="node">
<title>Node32</title>
<g id="a_node32"><a xlink:href="group__Internal.html#ga2b8b08c2a4994a87377d83ccfa9a6a53" target="_top" xlink:title=" ">
<polygon fill="white" stroke="#666666" points="464.62,-294.88 367.62,-294.88 367.62,-275.62 464.62,-275.62 464.62,-294.88"/>
<text text-anchor="middle" x="416.12" y="-281.38" font-family="Helvetica,sans-Serif" font-size="10.00">sss::ParseParams</text>
</a>
</g>
</g>
<!-- Node6&#45;&gt;Node32 -->
<g id="edge41" class="edge">
<title>Node6&#45;&gt;Node32</title>
<path fill="none" stroke="#63b8ff" d="M257.45,-203.14C272.85,-218.91 305.28,-249.63 338.75,-266.25 344.39,-269.05 350.48,-271.46 356.68,-273.53"/>
<polygon fill="#63b8ff" stroke="#63b8ff" points="355.55,-277.15 366.13,-276.7 357.57,-270.45 355.55,-277.15"/>
</g>
<!-- Node33 -->
<g id="node33" class="node">
<title>Node33</title>
<g id="a_node33"><a xlink:href="classsss_1_1WebClient.html#aa1d7484f0e09242ce53b24f9648ce50e" target="_top" xlink:title=" ">
<polygon fill="white" stroke="#666666" points="656.12,-121.88 544.88,-121.88 544.88,-102.62 656.12,-102.62 656.12,-121.88"/>
<text text-anchor="middle" x="600.5" y="-108.38" font-family="Helvetica,sans-Serif" font-size="10.00">sss::WebClient::Send</text>
</a>
</g>
</g>
<!-- Node6&#45;&gt;Node33 -->
<g id="edge42" class="edge">
<title>Node6&#45;&gt;Node33</title>
<path fill="none" stroke="#63b8ff" d="M286.87,-183.23C292.41,-181.02 297.88,-178.38 302.75,-175.25 322.59,-162.48 317.6,-146.69 338.75,-136.25 399.9,-106.06 478.91,-103.01 533.86,-105.66"/>
<polygon fill="#63b8ff" stroke="#63b8ff" points="533.33,-109.19 543.51,-106.26 533.72,-102.2 533.33,-109.19"/>
</g>
<!-- Node34 -->
<g id="node34" class="node">
<title>Node34</title>
<g id="a_node34"><a xlink:href="classsss_1_1WebClient.html#a7dfd984b33a29686fb0355b65b620e99" target="_top" xlink:title=" ">
<polygon fill="white" stroke="#666666" points="493.5,-257.5 338.75,-257.5 338.75,-227 493.5,-227 493.5,-257.5"/>
<text text-anchor="start" x="346.75" y="-244" font-family="Helvetica,sans-Serif" font-size="10.00">sss::WebClient::SetUrlEncoded</text>
<text text-anchor="middle" x="416.12" y="-232.75" font-family="Helvetica,sans-Serif" font-size="10.00">PostData</text>
</a>
</g>
</g>
<!-- Node6&#45;&gt;Node34 -->
<g id="edge44" class="edge">
<title>Node6&#45;&gt;Node34</title>
<path fill="none" stroke="#63b8ff" d="M282.32,-203.28C302.19,-209.11 327.86,-216.64 351.32,-223.53"/>
<polygon fill="#63b8ff" stroke="#63b8ff" points="349.99,-227.08 360.57,-226.54 351.96,-220.36 349.99,-227.08"/>
</g>
<!-- Node35 -->
<g id="node35" class="node">
<title>Node35</title>
<g id="a_node35"><a xlink:href="classsss_1_1WebClient.html#ae7b1f77bd4ae44585f2d49ea493bdcc5" target="_top" xlink:title="Upload data from memory buffer.">
<polygon fill="white" stroke="#666666" points="486.38,-208.5 345.88,-208.5 345.88,-178 486.38,-178 486.38,-208.5"/>
<text text-anchor="start" x="353.88" y="-195" font-family="Helvetica,sans-Serif" font-size="10.00">sss::WebClient::UploadData</text>
<text text-anchor="middle" x="416.12" y="-183.75" font-family="Helvetica,sans-Serif" font-size="10.00">FromBuffer</text>
</a>
</g>
</g>
<!-- Node6&#45;&gt;Node35 -->
<g id="edge47" class="edge">
<title>Node6&#45;&gt;Node35</title>
<path fill="none" stroke="#63b8ff" d="M302.81,-193.25C313.01,-193.25 323.87,-193.25 334.65,-193.25"/>
<polygon fill="#63b8ff" stroke="#63b8ff" points="334.39,-196.75 344.39,-193.25 334.39,-189.75 334.39,-196.75"/>
</g>
<!-- Node8 -->
<g id="node8" class="node">
<title>Node8</title>
<g id="a_node8"><a xlink:href="classsss_1_1api_1_1S3Api.html#aea9741d60e74775ccd4de1c2c58f64fa" target="_top" xlink:title=" ">
<polygon fill="white" stroke="#666666" points="661.38,-535.88 539.62,-535.88 539.62,-516.62 661.38,-516.62 661.38,-535.88"/>
<text text-anchor="middle" x="600.5" y="-522.38" font-family="Helvetica,sans-Serif" font-size="10.00">sss::api::S3Api::Access</text>
</a>
</g>
</g>
<!-- Node7&#45;&gt;Node8 -->
<g id="edge7" class="edge">
<title>Node7&#45;&gt;Node8</title>
<path fill="none" stroke="#63b8ff" d="M422.71,-386.35C436.99,-411.21 477.44,-475.71 529.5,-508.25 531.65,-509.6 533.91,-510.84 536.23,-512"/>
<polygon fill="#63b8ff" stroke="#63b8ff" points="534.51,-515.5 545.08,-516.23 537.27,-509.07 534.51,-515.5"/>
</g>
<!-- Node9 -->
<g id="node9" class="node">
<title>Node9</title>
<g id="a_node9"><a xlink:href="classsss_1_1api_1_1S3Api.html#a3718745d3b940462ae9f3b78f773b3a6" target="_top" xlink:title="Clear data and reset read and write functions.">
<polygon fill="white" stroke="#666666" points="656.5,-272.88 544.5,-272.88 544.5,-253.62 656.5,-253.62 656.5,-272.88"/>
<text text-anchor="middle" x="600.5" y="-259.38" font-family="Helvetica,sans-Serif" font-size="10.00">sss::api::S3Api::Clear</text>
</a>
</g>
</g>
<!-- Node7&#45;&gt;Node9 -->
<g id="edge8" class="edge">
<title>Node7&#45;&gt;Node9</title>
<path fill="none" stroke="#63b8ff" d="M427.65,-366.28C450.98,-344.36 506.8,-292.97 529.5,-281.25 532.57,-279.67 535.78,-278.22 539.08,-276.89"/>
<polygon fill="#63b8ff" stroke="#63b8ff" points="539.92,-279.94 548.15,-273.26 537.55,-273.36 539.92,-279.94"/>
</g>
<!-- Node14 -->
<g id="node14" class="node">
<title>Node14</title>
<g id="a_node14"><a xlink:href="classsss_1_1WebClient.html#a75890c14fbe4a4bbac61718a4f3c064d" target="_top" xlink:title=" ">
<polygon fill="white" stroke="#666666" points="864.88,-310.88 724.38,-310.88 724.38,-291.62 864.88,-291.62 864.88,-310.88"/>
<text text-anchor="middle" x="794.62" y="-297.38" font-family="Helvetica,sans-Serif" font-size="10.00">sss::WebClient::SetHeaders</text>
</a>
</g>
</g>
<!-- Node7&#45;&gt;Node14 -->
<g id="edge20" class="edge">
<title>Node7&#45;&gt;Node14</title>
<path fill="none" stroke="#63b8ff" d="M463.28,-366.18C483.57,-361.81 507.7,-356.68 529.5,-352.25 597.47,-338.43 675.47,-323.48 728.99,-313.36"/>
<polygon fill="#63b8ff" stroke="#63b8ff" points="729.51,-316.64 738.69,-311.34 728.21,-309.76 729.51,-316.64"/>
</g>
<!-- Node15 -->
<g id="node15" class="node">
<title>Node15</title>
<g id="a_node15"><a xlink:href="classsss_1_1WebClient.html#a12b5db6b8c667024557ab58059d39994" target="_top" xlink:title=" ">
<polygon fill="white" stroke="#666666" points="856.62,-384.88 732.62,-384.88 732.62,-365.62 856.62,-365.62 856.62,-384.88"/>
<text text-anchor="middle" x="794.62" y="-371.38" font-family="Helvetica,sans-Serif" font-size="10.00">sss::WebClient::SetPath</text>
</a>
</g>
</g>
<!-- Node7&#45;&gt;Node15 -->
<g id="edge24" class="edge">
<title>Node7&#45;&gt;Node15</title>
<path fill="none" stroke="#63b8ff" d="M475.03,-384.86C492.49,-387.08 511.74,-389.15 529.5,-390.25 592.49,-394.16 608.51,-394.1 671.5,-390.25 687.77,-389.25 705.18,-387.52 721.62,-385.58"/>
<polygon fill="#63b8ff" stroke="#63b8ff" points="721.76,-388.96 731.26,-384.27 720.91,-382.02 721.76,-388.96"/>
</g>
<!-- Node17 -->
<g id="node17" class="node">
<title>Node17</title>
<g id="a_node17"><a xlink:href="classsss_1_1WebClient.html#a9bf978d95b79728f6d60fc2bdb4fe546" target="_top" xlink:title=" ">
<polygon fill="white" stroke="#666666" points="880.62,-347.88 708.62,-347.88 708.62,-328.62 880.62,-328.62 880.62,-347.88"/>
<text text-anchor="middle" x="794.62" y="-334.38" font-family="Helvetica,sans-Serif" font-size="10.00">sss::WebClient::SetReqParameters</text>
</a>
</g>
</g>
<!-- Node7&#45;&gt;Node17 -->
<g id="edge25" class="edge">
<title>Node7&#45;&gt;Node17</title>
<path fill="none" stroke="#63b8ff" d="M475.25,-371.1C526.83,-366.45 604.22,-359.28 671.5,-352.25 679.95,-351.37 688.73,-350.42 697.52,-349.45"/>
<polygon fill="#63b8ff" stroke="#63b8ff" points="697.69,-352.84 707.24,-348.26 696.91,-345.89 697.69,-352.84"/>
</g>
<!-- Node18 -->
<g id="node18" class="node">
<title>Node18</title>
<g id="a_node18"><a xlink:href="classsss_1_1api_1_1S3Api.html#a25a999d87c121627166fc0a896f536c7" target="_top" xlink:title=" ">
<polygon fill="white" stroke="#666666" points="664,-309.88 537,-309.88 537,-290.62 664,-290.62 664,-309.88"/>
<text text-anchor="middle" x="600.5" y="-296.38" font-family="Helvetica,sans-Serif" font-size="10.00">sss::api::S3Api::Endpoint</text>
</a>
</g>
</g>
<!-- Node7&#45;&gt;Node18 -->
<g id="edge17" class="edge">
<title>Node7&#45;&gt;Node18</title>
<path fill="none" stroke="#63b8ff" d="M437.15,-366.22C459.42,-355.25 496.58,-337.47 529.5,-324.25 538.51,-320.63 548.3,-317.06 557.62,-313.82"/>
<polygon fill="#63b8ff" stroke="#63b8ff" points="558.55,-316.86 566.88,-310.32 556.29,-310.24 558.55,-316.86"/>
</g>
<!-- Node19 -->
<g id="node19" class="node">
<title>Node19</title>
<g id="a_node19"><a xlink:href="classsss_1_1api_1_1S3Api.html#a6f518c16679e99f119966b36ac28463f" target="_top" xlink:title=" ">
<polygon fill="white" stroke="#666666" points="659.12,-572.88 541.88,-572.88 541.88,-553.62 659.12,-553.62 659.12,-572.88"/>
<text text-anchor="middle" x="600.5" y="-559.38" font-family="Helvetica,sans-Serif" font-size="10.00">sss::api::S3Api::Secret</text>
</a>
</g>
</g>
<!-- Node7&#45;&gt;Node19 -->
<g id="edge18" class="edge">
<title>Node7&#45;&gt;Node19</title>
<path fill="none" stroke="#63b8ff" d="M420.7,-386.09C431.85,-415.3 468.9,-502.18 529.5,-545.25 531.19,-546.45 532.95,-547.57 534.77,-548.61"/>
<polygon fill="#63b8ff" stroke="#63b8ff" points="532.73,-552 543.25,-553.24 535.8,-545.71 532.73,-552"/>
</g>
<!-- Node20 -->
<g id="node20" class="node">
<title>Node20</title>
<g id="a_node20"><a xlink:href="classsss_1_1WebClient.html#afc3b7a92568fbb1ea447918920ca266e" target="_top" xlink:title="Set endpoint: &#160;&lt;proto&gt;://&lt;server&gt;:&lt;port&gt;">
<polygon fill="white" stroke="#666666" points="671.5,-461.88 529.5,-461.88 529.5,-442.62 671.5,-442.62 671.5,-461.88"/>
<text text-anchor="middle" x="600.5" y="-448.38" font-family="Helvetica,sans-Serif" font-size="10.00">sss::WebClient::SetEndpoint</text>
</a>
</g>
</g>
<!-- Node7&#45;&gt;Node20 -->
<g id="edge19" class="edge">
<title>Node7&#45;&gt;Node20</title>
<path fill="none" stroke="#63b8ff" d="M437.15,-386.28C459.42,-397.25 496.58,-415.03 529.5,-428.25 538.51,-431.87 548.3,-435.44 557.62,-438.68"/>
<polygon fill="#63b8ff" stroke="#63b8ff" points="556.29,-442.26 566.88,-442.18 558.55,-435.64 556.29,-442.26"/>
</g>
<!-- Node21 -->
<g id="node21" class="node">
<title>Node21</title>
<g id="a_node21"><a xlink:href="classsss_1_1WebClient.html#af6233ffd7b294e1e7e606e838dd44e9e" target="_top" xlink:title=" ">
<polygon fill="white" stroke="#666666" points="668.5,-235.88 532.5,-235.88 532.5,-216.62 668.5,-216.62 668.5,-235.88"/>
<text text-anchor="middle" x="600.5" y="-222.38" font-family="Helvetica,sans-Serif" font-size="10.00">sss::WebClient::SetMethod</text>
</a>
</g>
</g>
<!-- Node7&#45;&gt;Node21 -->
<g id="edge21" class="edge">
<title>Node7&#45;&gt;Node21</title>
<path fill="none" stroke="#63b8ff" d="M429.77,-366.2C445.8,-353.06 473.73,-328.81 493.5,-304.25 513,-280.02 504.58,-262.85 529.5,-244.25 530.95,-243.17 532.46,-242.15 534.02,-241.19"/>
<polygon fill="#63b8ff" stroke="#63b8ff" points="535.11,-244.05 542.39,-236.35 531.9,-237.83 535.11,-244.05"/>
</g>
<!-- Node23 -->
<g id="node23" class="node">
<title>Node23</title>
<g id="a_node23"><a xlink:href="group__Sign.html#ga3ae8e18ef70752b7369fca66c40c526b" target="_top" xlink:title="Sign headers.">
<polygon fill="white" stroke="#666666" points="647.5,-498.88 553.5,-498.88 553.5,-479.62 647.5,-479.62 647.5,-498.88"/>
<text text-anchor="middle" x="600.5" y="-485.38" font-family="Helvetica,sans-Serif" font-size="10.00">sss::SignHeaders</text>
</a>
</g>
</g>
<!-- Node7&#45;&gt;Node23 -->
<g id="edge26" class="edge">
<title>Node7&#45;&gt;Node23</title>
<path fill="none" stroke="#63b8ff" d="M425.96,-386.27C443.64,-405.68 485.47,-448.51 529.5,-471.25 533.75,-473.45 538.29,-475.39 542.94,-477.1"/>
<polygon fill="#63b8ff" stroke="#63b8ff" points="541.63,-480.68 552.22,-480.5 543.82,-474.04 541.63,-480.68"/>
</g>
<!-- Node10 -->
<g id="node10" class="node">
<title>Node10</title>
<g id="a_node10"><a xlink:href="classsss_1_1WebClient.html#a381f5715b7a2f19a0d4414d278874bae" target="_top" xlink:title="Clear internal buffers.">
<polygon fill="white" stroke="#666666" points="866.38,-273.88 722.88,-273.88 722.88,-254.62 866.38,-254.62 866.38,-273.88"/>
<text text-anchor="middle" x="794.62" y="-260.38" font-family="Helvetica,sans-Serif" font-size="10.00">sss::WebClient::ClearBuffers</text>
</a>
</g>
</g>
<!-- Node9&#45;&gt;Node10 -->
<g id="edge9" class="edge">
<title>Node9&#45;&gt;Node10</title>
<path fill="none" stroke="#63b8ff" d="M656.81,-263.54C673.96,-263.63 693.23,-263.73 711.77,-263.82"/>
<polygon fill="#63b8ff" stroke="#63b8ff" points="711.57,-267.33 721.59,-263.88 711.6,-260.33 711.57,-267.33"/>
</g>
<!-- Node11 -->
<g id="node11" class="node">
<title>Node11</title>
<g id="a_node11"><a xlink:href="classsss_1_1WebClient.html#a96837f149bb473853a6523d096a25c56" target="_top" xlink:title="Reset read/write functions to default.">
<polygon fill="white" stroke="#666666" points="881.75,-45.88 707.5,-45.88 707.5,-26.62 881.75,-26.62 881.75,-45.88"/>
<text text-anchor="middle" x="794.62" y="-32.38" font-family="Helvetica,sans-Serif" font-size="10.00">sss::WebClient::ResetRWFunctions</text>
</a>
</g>
</g>
<!-- Node9&#45;&gt;Node11 -->
<g id="edge10" class="edge">
<title>Node9&#45;&gt;Node11</title>
<path fill="none" stroke="#63b8ff" d="M656.73,-254.96C662.15,-252.48 667.22,-249.31 671.5,-245.25 710.07,-208.71 681.05,-177.33 707.5,-131.25 725.19,-100.44 754.28,-71.13 773.7,-53.42"/>
<polygon fill="#63b8ff" stroke="#63b8ff" points="775.73,-56.41 780.86,-47.14 771.07,-51.18 775.73,-56.41"/>
</g>
<!-- Node9&#45;&gt;Node14 -->
<g id="edge13" class="edge">
<title>Node9&#45;&gt;Node14</title>
<path fill="none" stroke="#63b8ff" d="M652.48,-273.33C676.9,-278.16 706.34,-283.99 732,-289.06"/>
<polygon fill="#63b8ff" stroke="#63b8ff" points="731.25,-292.68 741.74,-291.19 732.61,-285.81 731.25,-292.68"/>
</g>
<!-- Node9&#45;&gt;Node15 -->
<g id="edge14" class="edge">
<title>Node9&#45;&gt;Node15</title>
<path fill="none" stroke="#63b8ff" d="M656.9,-272.45C662.16,-274.77 667.15,-277.66 671.5,-281.25 700.32,-305.04 678.14,-334.12 707.5,-357.25 711.89,-360.71 716.78,-363.54 721.94,-365.86"/>
<polygon fill="#63b8ff" stroke="#63b8ff" points="720.54,-369.46 731.14,-369.73 723.02,-362.91 720.54,-369.46"/>
</g>
<!-- Node9&#45;&gt;Node16 -->
<g id="edge15" class="edge">
<title>Node9&#45;&gt;Node16</title>
<path fill="none" stroke="#63b8ff" d="M651.37,-253.13C658.29,-250.95 665.19,-248.35 671.5,-245.25 712.98,-224.88 753.86,-188.99 776.21,-167.64"/>
<polygon fill="#63b8ff" stroke="#63b8ff" points="778.11,-170.71 782.84,-161.23 773.23,-165.69 778.11,-170.71"/>
</g>
<!-- Node9&#45;&gt;Node17 -->
<g id="edge16" class="edge">
<title>Node9&#45;&gt;Node17</title>
<path fill="none" stroke="#63b8ff" d="M654.43,-273.34C660.4,-275.49 666.22,-278.1 671.5,-281.25 691.75,-293.35 686.98,-308.62 707.5,-320.25 710.03,-321.68 712.66,-323 715.36,-324.22"/>
<polygon fill="#63b8ff" stroke="#63b8ff" points="713.81,-327.76 724.39,-328.18 716.38,-321.25 713.81,-327.76"/>
</g>
<!-- Node12 -->
<g id="node12" class="node">
<title>Node12</title>
<g id="a_node12"><a xlink:href="classsss_1_1WebClient.html#a88dbcc61562e84aa9ebf1eabf887ac28" target="_top" xlink:title=" ">
<polygon fill="white" stroke="#666666" points="1085.62,-67.88 921.12,-67.88 921.12,-48.62 1085.62,-48.62 1085.62,-67.88"/>
<text text-anchor="middle" x="1003.38" y="-54.38" font-family="Helvetica,sans-Serif" font-size="10.00">sss::WebClient::SetReadFunction</text>
</a>
</g>
</g>
<!-- Node11&#45;&gt;Node12 -->
<g id="edge11" class="edge">
<title>Node11&#45;&gt;Node12</title>
<path fill="none" stroke="#63b8ff" d="M882.11,-45.45C891.33,-46.43 900.74,-47.44 910.03,-48.42"/>
<polygon fill="#63b8ff" stroke="#63b8ff" points="909.55,-52 919.87,-49.58 910.29,-45.04 909.55,-52"/>
</g>
<!-- Node13 -->
<g id="node13" class="node">
<title>Node13</title>
<g id="a_node13"><a xlink:href="classsss_1_1WebClient.html#a002876073b3869a9b9a9d709d14f1d7e" target="_top" xlink:title=" ">
<polygon fill="white" stroke="#666666" points="1066.5,-30.5 940.25,-30.5 940.25,0 1066.5,0 1066.5,-30.5"/>
<text text-anchor="start" x="948.25" y="-17" font-family="Helvetica,sans-Serif" font-size="10.00">sss::WebClient::SetWrite</text>
<text text-anchor="middle" x="1003.38" y="-5.75" font-family="Helvetica,sans-Serif" font-size="10.00">Function</text>
</a>
</g>
</g>
<!-- Node11&#45;&gt;Node13 -->
<g id="edge12" class="edge">
<title>Node11&#45;&gt;Node13</title>
<path fill="none" stroke="#63b8ff" d="M882.11,-27.47C897.69,-25.88 913.8,-24.25 928.97,-22.71"/>
<polygon fill="#63b8ff" stroke="#63b8ff" points="929.23,-26.1 938.82,-21.6 928.52,-19.13 929.23,-26.1"/>
</g>
<!-- Node22 -->
<g id="node22" class="node">
<title>Node22</title>
<g id="a_node22"><a xlink:href="lib_2include_2utility_8h.html#ae153c064d6f1beda845702f67605b20e" target="_top" xlink:title=" ">
<polygon fill="white" stroke="#666666" points="1040.62,-280.88 966.12,-280.88 966.12,-261.62 1040.62,-261.62 1040.62,-280.88"/>
<text text-anchor="middle" x="1003.38" y="-267.38" font-family="Helvetica,sans-Serif" font-size="10.00">sss::ToUpper</text>
</a>
</g>
</g>
<!-- Node21&#45;&gt;Node22 -->
<g id="edge22" class="edge">
<title>Node21&#45;&gt;Node22</title>
<path fill="none" stroke="#63b8ff" d="M668.88,-228.09C725.83,-230.29 809.44,-235.06 881.75,-245.25 906.18,-248.69 933.04,-254.3 955.2,-259.43"/>
<polygon fill="#63b8ff" stroke="#63b8ff" points="954.13,-263.01 964.67,-261.89 955.74,-256.19 954.13,-263.01"/>
</g>
<!-- Node22&#45;&gt;Node22 -->
<g id="edge23" class="edge">
<title>Node22&#45;&gt;Node22</title>
<path fill="none" stroke="#63b8ff" d="M970.69,-281.16C955.79,-289.77 966.68,-298.88 1003.38,-298.88 1026.88,-298.88 1039.8,-295.14 1042.13,-290.19"/>
<polygon fill="#63b8ff" stroke="#63b8ff" points="1044.54,-288.5 1036.06,-282.16 1038.74,-292.41 1044.54,-288.5"/>
</g>
<!-- Node23&#45;&gt;Node3 -->
<g id="edge27" class="edge">
<title>Node23&#45;&gt;Node3</title>
<path fill="none" stroke="#63b8ff" d="M647.88,-488.9C726.98,-488.31 886.68,-487.12 961.71,-486.55"/>
<polygon fill="#63b8ff" stroke="#63b8ff" points="961.59,-490.05 971.57,-486.47 961.54,-483.05 961.59,-490.05"/>
</g>
<!-- Node23&#45;&gt;Node4 -->
<g id="edge39" class="edge">
<title>Node23&#45;&gt;Node4</title>
<path fill="none" stroke="#63b8ff" d="M647.9,-494.89C666.42,-497.04 687.95,-499.42 707.5,-501.25 800.26,-509.96 909.71,-517.38 965.56,-520.96"/>
<polygon fill="#63b8ff" stroke="#63b8ff" points="965.11,-524.5 975.31,-521.64 965.56,-517.51 965.11,-524.5"/>
</g>
<!-- Node24 -->
<g id="node24" class="node">
<title>Node24</title>
<g id="a_node24"><a xlink:href="group__Sign.html#ga904d511ec786b87644cc90dc96dd8f3f" target="_top" xlink:title="Compute signature.">
<polygon fill="white" stroke="#666666" points="854,-421.88 735.25,-421.88 735.25,-402.62 854,-402.62 854,-421.88"/>
<text text-anchor="middle" x="794.62" y="-408.38" font-family="Helvetica,sans-Serif" font-size="10.00">sss::ComputeSignature</text>
</a>
</g>
</g>
<!-- Node23&#45;&gt;Node24 -->
<g id="edge28" class="edge">
<title>Node23&#45;&gt;Node24</title>
<path fill="none" stroke="#63b8ff" d="M646.34,-479.13C654.79,-476.83 663.49,-474.18 671.5,-471.25 705.17,-458.93 741.98,-440.39 766.3,-427.4"/>
<polygon fill="#63b8ff" stroke="#63b8ff" points="767.77,-430.03 774.9,-422.2 764.44,-423.88 767.77,-430.03"/>
</g>
<!-- Node24&#45;&gt;Node3 -->
<g id="edge29" class="edge">
<title>Node24&#45;&gt;Node3</title>
<path fill="none" stroke="#63b8ff" d="M814.14,-422.31C837.63,-434.69 879.66,-455.64 917.75,-468.25 931.95,-472.95 947.92,-476.72 962.12,-479.57"/>
<polygon fill="#63b8ff" stroke="#63b8ff" points="961.1,-483.13 971.58,-481.57 962.41,-476.25 961.1,-483.13"/>
</g>
<!-- Node24&#45;&gt;Node4 -->
<g id="edge31" class="edge">
<title>Node24&#45;&gt;Node4</title>
<path fill="none" stroke="#63b8ff" d="M805.38,-422.18C824.86,-441.4 870.76,-483.69 917.75,-505.25 932.69,-512.11 950.32,-516.39 965.61,-519.05"/>
<polygon fill="#63b8ff" stroke="#63b8ff" points="964.84,-522.63 975.26,-520.71 965.92,-515.71 964.84,-522.63"/>
</g>
<!-- Node24&#45;&gt;Node22 -->
<g id="edge37" class="edge">
<title>Node24&#45;&gt;Node22</title>
<path fill="none" stroke="#63b8ff" d="M854.41,-407.5C864.25,-404.68 873.81,-400.47 881.75,-394.25 910.85,-371.44 892.51,-346.27 917.75,-319.25 931.12,-304.94 949.73,-293.74 966.1,-285.78"/>
<polygon fill="#63b8ff" stroke="#63b8ff" points="967.32,-288.61 974.94,-281.24 964.39,-282.25 967.32,-288.61"/>
</g>
<!-- Node25 -->
<g id="node25" class="node">
<title>Node25</title>
<g id="a_node25"><a xlink:href="group__Internal.html#ga74c69f25ce04876e114759c0023b2a12" target="_top" xlink:title=" ">
<polygon fill="white" stroke="#666666" points="1066.12,-421.88 940.62,-421.88 940.62,-402.62 1066.12,-402.62 1066.12,-421.88"/>
<text text-anchor="middle" x="1003.38" y="-408.38" font-family="Helvetica,sans-Serif" font-size="10.00">sss::CreateSignatureKey</text>
</a>
</g>
</g>
<!-- Node24&#45;&gt;Node25 -->
<g id="edge30" class="edge">
<title>Node24&#45;&gt;Node25</title>
<path fill="none" stroke="#63b8ff" d="M854.32,-412.25C877.72,-412.25 904.9,-412.25 929.54,-412.25"/>
<polygon fill="#63b8ff" stroke="#63b8ff" points="929.29,-415.75 939.29,-412.25 929.29,-408.75 929.29,-415.75"/>
</g>
<!-- Node26 -->
<g id="node26" class="node">
<title>Node26</title>
<g id="a_node26"><a xlink:href="group__Internal.html#ga50353a351a93b1213dc4e5211c767d85" target="_top" xlink:title=" ">
<polygon fill="white" stroke="#666666" points="1043.25,-384.88 963.5,-384.88 963.5,-365.62 1043.25,-365.62 1043.25,-384.88"/>
<text text-anchor="middle" x="1003.38" y="-371.38" font-family="Helvetica,sans-Serif" font-size="10.00">sss::GetDates</text>
</a>
</g>
</g>
<!-- Node24&#45;&gt;Node26 -->
<g id="edge32" class="edge">
<title>Node24&#45;&gt;Node26</title>
<path fill="none" stroke="#63b8ff" d="M852.12,-402.14C883.53,-396.52 922.27,-389.59 952.55,-384.17"/>
<polygon fill="#63b8ff" stroke="#63b8ff" points="953.06,-387.45 962.29,-382.24 951.83,-380.56 953.06,-387.45"/>
</g>
<!-- Node27 -->
<g id="node27" class="node">
<title>Node27</title>
<g id="a_node27"><a xlink:href="group__Internal.html#ga990dfaae4abc6bf20a28f9772b7bcd16" target="_top" xlink:title="Byte to hex string conversion.">
<polygon fill="white" stroke="#666666" points="1031.25,-347.88 975.5,-347.88 975.5,-328.62 1031.25,-328.62 1031.25,-347.88"/>
<text text-anchor="middle" x="1003.38" y="-334.38" font-family="Helvetica,sans-Serif" font-size="10.00">sss::Hex</text>
</a>
</g>
</g>
<!-- Node24&#45;&gt;Node27 -->
<g id="edge33" class="edge">
<title>Node24&#45;&gt;Node27</title>
<path fill="none" stroke="#63b8ff" d="M854.34,-404.98C863.86,-402.41 873.35,-398.94 881.75,-394.25 902.06,-382.91 897.46,-367.63 917.75,-356.25 931.98,-348.27 949.37,-343.82 964.68,-341.34"/>
<polygon fill="#63b8ff" stroke="#63b8ff" points="964.96,-344.7 974.38,-339.87 964,-337.77 964.96,-344.7"/>
</g>
<!-- Node28 -->
<g id="node28" class="node">
<title>Node28</title>
<g id="a_node28"><a xlink:href="group__Internal.html#ga7160aa316f2c6633467b47588263c690" target="_top" xlink:title=" ">
<polygon fill="white" stroke="#666666" points="1045.12,-458.88 961.62,-458.88 961.62,-439.62 1045.12,-439.62 1045.12,-458.88"/>
<text text-anchor="middle" x="1003.38" y="-445.38" font-family="Helvetica,sans-Serif" font-size="10.00">sss::ParseURL</text>
</a>
</g>
</g>
<!-- Node24&#45;&gt;Node28 -->
<g id="edge34" class="edge">
<title>Node24&#45;&gt;Node28</title>
<path fill="none" stroke="#63b8ff" d="M852.12,-422.36C882.89,-427.87 920.7,-434.63 950.69,-440"/>
<polygon fill="#63b8ff" stroke="#63b8ff" points="949.9,-443.59 960.36,-441.91 951.13,-436.7 949.9,-443.59"/>
</g>
<!-- Node24&#45;&gt;Node29 -->
<g id="edge35" class="edge">
<title>Node24&#45;&gt;Node29</title>
<path fill="none" stroke="#63b8ff" d="M854.16,-409.71C864.49,-406.75 874.31,-401.93 881.75,-394.25 945.55,-328.48 875.25,-272.43 917.75,-191.25 932.34,-163.39 959.42,-139.01 979.03,-123.79"/>
<polygon fill="#63b8ff" stroke="#63b8ff" points="980.81,-126.08 986.7,-117.28 976.6,-120.48 980.81,-126.08"/>
</g>
<!-- Node30 -->
<g id="node30" class="node">
<title>Node30</title>
<g id="a_node30"><a xlink:href="group__Internal.html#ga0f079ace8729714b3949eabe22f228c9" target="_top" xlink:title=" ">
<polygon fill="white" stroke="#666666" points="1045.12,-219.88 961.62,-219.88 961.62,-200.62 1045.12,-200.62 1045.12,-219.88"/>
<text text-anchor="middle" x="1003.38" y="-206.38" font-family="Helvetica,sans-Serif" font-size="10.00">sss::UrlEncode</text>
</a>
</g>
</g>
<!-- Node24&#45;&gt;Node30 -->
<g id="edge38" class="edge">
<title>Node24&#45;&gt;Node30</title>
<path fill="none" stroke="#63b8ff" d="M854.17,-409.14C864.38,-406.21 874.14,-401.54 881.75,-394.25 928.75,-349.19 876.85,-302.91 917.75,-252.25 927.8,-239.81 942.46,-230.75 956.78,-224.3"/>
<polygon fill="#63b8ff" stroke="#63b8ff" points="957.67,-227.31 965.57,-220.25 954.99,-220.84 957.67,-227.31"/>
</g>
<!-- Node29&#45;&gt;Node29 -->
<g id="edge36" class="edge">
<title>Node29&#45;&gt;Node29</title>
<path fill="none" stroke="#63b8ff" d="M970.69,-117.16C955.79,-125.77 966.68,-134.88 1003.38,-134.88 1026.88,-134.88 1039.8,-131.14 1042.13,-126.19"/>
<polygon fill="#63b8ff" stroke="#63b8ff" points="1044.54,-124.5 1036.06,-118.16 1038.74,-128.41 1044.54,-124.5"/>
</g>
<!-- Node34&#45;&gt;Node30 -->
<g id="edge45" class="edge">
<title>Node34&#45;&gt;Node30</title>
<path fill="none" stroke="#63b8ff" d="M465.06,-226.58C492.49,-217.75 522.76,-208.28 529.5,-207.25 681.08,-184.19 863.17,-196.37 950.58,-204.65"/>
<polygon fill="#63b8ff" stroke="#63b8ff" points="949.97,-208.2 960.27,-205.69 950.65,-201.24 949.97,-208.2"/>
</g>
<!-- Node35&#45;&gt;Node21 -->
<g id="edge49" class="edge">
<title>Node35&#45;&gt;Node21</title>
<path fill="none" stroke="#63b8ff" d="M486.85,-205.87C501.99,-208.61 517.95,-211.49 532.96,-214.21"/>
<polygon fill="#63b8ff" stroke="#63b8ff" points="532.22,-217.81 542.69,-216.15 533.47,-210.93 532.22,-217.81"/>
</g>
<!-- Node35&#45;&gt;Node33 -->
<g id="edge48" class="edge">
<title>Node35&#45;&gt;Node33</title>
<path fill="none" stroke="#63b8ff" d="M452.29,-177.63C485.45,-162.91 534.74,-141.01 567,-126.69"/>
<polygon fill="#63b8ff" stroke="#63b8ff" points="568.11,-129.58 575.83,-122.32 565.27,-123.18 568.11,-129.58"/>
</g>
</g>
</svg>
        <g id="navigator" transform="translate(0 0)" fill="#404254">
                <rect fill="#f2f5e9" fill-opacity="0.5" stroke="#606060" stroke-width=".5" x="0" y="0" width="60" height="60"/>
                <use id="zoomplus" xlink:href="#zoomPlus" x="17" y="9" onmousedown="handleZoom(evt,'in')"/>
                <use id="zoomminus" xlink:href="#zoomMin" x="42" y="9" onmousedown="handleZoom(evt,'out')"/>
                <use id="reset" xlink:href="#resetDef" x="30" y="36" onmousedown="handleReset()"/>
                <g id="arrowUp" xlink:href="#dirArrow" transform="translate(30 24)" onmousedown="handlePan(0,-1)">
                  <use xlink:href="#rim" fill="#404040">
                        <set attributeName="fill" to="#808080" begin="arrowUp.mouseover" end="arrowUp.mouseout"/>
                  </use>
                  <path fill="none" stroke="white" stroke-width="1.5" d="M0,-3.0v7 M-2.5,-0.5L0,-3.0L2.5,-0.5"/>
                </g>
                <g id="arrowRight" xlink:href="#dirArrow" transform="rotate(90) translate(36 -43)" onmousedown="handlePan(1,0)">
                  <use xlink:href="#rim" fill="#404040">
                        <set attributeName="fill" to="#808080" begin="arrowRight.mouseover" end="arrowRight.mouseout"/>
                  </use>
                  <path fill="none" stroke="white" stroke-width="1.5" d="M0,-3.0v7 M-2.5,-0.5L0,-3.0L2.5,-0.5"/>
                </g>
                <g id="arrowDown" xlink:href="#dirArrow" transform="rotate(180) translate(-30 -48)" onmousedown="handlePan(0,1)">
                  <use xlink:href="#rim" fill="#404040">
                        <set attributeName="fill" to="#808080" begin="arrowDown.mouseover" end="arrowDown.mouseout"/>
                  </use>
                  <path fill="none" stroke="white" stroke-width="1.5" d="M0,-3.0v7 M-2.5,-0.5L0,-3.0L2.5,-0.5"/>
                </g>
                <g id="arrowLeft" xlink:href="#dirArrow" transform="rotate(270) translate(-36 17)" onmousedown="handlePan(-1,0)">
                  <use xlink:href="#rim" fill="#404040">
                        <set attributeName="fill" to="#808080" begin="arrowLeft.mouseover" end="arrowLeft.mouseout"/>
                  </use>
                  <path fill="none" stroke="white" stroke-width="1.5" d="M0,-3.0v7 M-2.5,-0.5L0,-3.0L2.5,-0.5"/>
                </g>
        </g>
        <svg viewBox="0 0 15 15" width="100%" height="30px" preserveAspectRatio="xMaxYMin meet">
         <g id="arrow_out" transform="scale(0.3 0.3)">
          <a xlink:href="classsss_1_1api_1_1S3Api_a1796fafda3d90a4292a611ce1999433b_cgraph_org.svg" target="_base">
           <rect id="button" ry="5" rx="5" y="6" x="6" height="38" width="38"
                fill="#f2f5e9" fill-opacity="0.5" stroke="#606060" stroke-width="1.0"/>
           <path id="arrow"
             d="M 11.500037,31.436501 C 11.940474,20.09759 22.043105,11.32322 32.158766,21.979434 L 37.068811,17.246167 C 37.068811,17.246167 37.088388,32 37.088388,32 L 22.160133,31.978069 C 22.160133,31.978069 26.997745,27.140456 26.997745,27.140456 C 18.528582,18.264221 13.291696,25.230495 11.500037,31.436501 z"
             style="fill:#404040;"/>
          </a>
         </g>
        </svg>
</svg>
