<?xml version="1.0" encoding="UTF-8" standalone="no"?>
<!DOCTYPE svg PUBLIC "-//W3C//DTD SVG 1.1//EN"
 "http://www.w3.org/Graphics/SVG/1.1/DTD/svg11.dtd">
<!-- Generated by graphviz version 2.43.0 (0)
 -->
<!-- Title: sss::WebClient::SetWriteFunction Pages: 1 -->
<svg width="1187pt" height="671pt"
 viewBox="0.00 0.00 1187.00 670.50" xmlns="http://www.w3.org/2000/svg" xmlns:xlink="http://www.w3.org/1999/xlink">
<g id="graph0" class="graph" transform="scale(1 1) rotate(0) translate(4 666.5)">
<title>sss::WebClient::SetWriteFunction</title>
<!-- Node1 -->
<g id="node1" class="node">
<title>Node1</title>
<g id="a_node1"><a xlink:title=" ">
<polygon fill="#bfbfbf" stroke="black" points="1052,-324 1052,-354 1179,-354 1179,-324 1052,-324"/>
<text text-anchor="start" x="1060" y="-342" font-family="Helvetica,sans-Serif" font-size="10.00">sss::WebClient::SetWrite</text>
<text text-anchor="middle" x="1115.5" y="-331" font-family="Helvetica,sans-Serif" font-size="10.00">Function</text>
</a>
</g>
</g>
<!-- Node2 -->
<g id="node2" class="node">
<title>Node2</title>
<g id="a_node2"><a xlink:href="classsss_1_1api_1_1S3Api.html#a1196f1cb9ce1e5d69336e9b8dbb5d59c" target="_top" xlink:title="Download object into file.">
<polygon fill="none" stroke="black" points="381,-373 381,-403 502,-403 502,-373 381,-373"/>
<text text-anchor="start" x="389" y="-391" font-family="Helvetica,sans-Serif" font-size="10.00">sss::api::S3Api::GetFile</text>
<text text-anchor="middle" x="441.5" y="-380" font-family="Helvetica,sans-Serif" font-size="10.00">Object</text>
</a>
</g>
</g>
<!-- Node1&#45;&gt;Node2 -->
<g id="edge1" class="edge">
<title>Node1&#45;&gt;Node2</title>
<path fill="none" stroke="midnightblue" d="M1041.8,-354.19C1033.13,-355.66 1024.39,-356.98 1016,-358 829.44,-380.76 606.68,-386.27 502.18,-387.59"/>
<polygon fill="midnightblue" stroke="midnightblue" points="1042.67,-357.6 1051.91,-352.42 1041.46,-350.7 1042.67,-357.6"/>
</g>
<!-- Node3 -->
<g id="node3" class="node">
<title>Node3</title>
<g id="a_node3"><a xlink:href="classsss_1_1WebClient.html#a96837f149bb473853a6523d096a25c56" target="_top" xlink:title="Reset read/write functions to default.">
<polygon fill="none" stroke="black" points="841,-329.5 841,-348.5 1016,-348.5 1016,-329.5 841,-329.5"/>
<text text-anchor="middle" x="928.5" y="-336.5" font-family="Helvetica,sans-Serif" font-size="10.00">sss::WebClient::ResetRWFunctions</text>
</a>
</g>
</g>
<!-- Node1&#45;&gt;Node3 -->
<g id="edge2" class="edge">
<title>Node1&#45;&gt;Node3</title>
<path fill="none" stroke="midnightblue" d="M1041.71,-339C1033.28,-339 1024.62,-339 1016.02,-339"/>
<polygon fill="midnightblue" stroke="midnightblue" points="1041.87,-342.5 1051.87,-339 1041.87,-335.5 1041.87,-342.5"/>
</g>
<!-- Node25 -->
<g id="node25" class="node">
<title>Node25</title>
<g id="a_node25"><a xlink:href="classsss_1_1api_1_1S3Api.html#a0473917e4d25a4a6fca40d097e4299d6" target="_top" xlink:title=" ">
<polygon fill="none" stroke="black" points="211,-0.5 211,-19.5 323,-19.5 323,-0.5 211,-0.5"/>
<text text-anchor="middle" x="267" y="-7.5" font-family="Helvetica,sans-Serif" font-size="10.00">sss::api::S3Api::Send</text>
</a>
</g>
</g>
<!-- Node1&#45;&gt;Node25 -->
<g id="edge27" class="edge">
<title>Node1&#45;&gt;Node25</title>
<path fill="none" stroke="midnightblue" d="M1092.45,-316.93C1038.82,-265.69 895.18,-143 749.5,-143 749.5,-143 749.5,-143 596,-143 473.48,-143 460.75,-69.18 345,-29 334.72,-25.43 323.46,-22.26 312.79,-19.57"/>
<polygon fill="midnightblue" stroke="midnightblue" points="1090.09,-319.51 1099.7,-323.95 1094.95,-314.48 1090.09,-319.51"/>
</g>
<!-- Node4 -->
<g id="node4" class="node">
<title>Node4</title>
<g id="a_node4"><a xlink:href="classsss_1_1api_1_1S3Api.html#a3718745d3b940462ae9f3b78f773b3a6" target="_top" xlink:title="Clear data and reset read and write functions.">
<polygon fill="none" stroke="black" points="692,-329.5 692,-348.5 805,-348.5 805,-329.5 692,-329.5"/>
<text text-anchor="middle" x="748.5" y="-336.5" font-family="Helvetica,sans-Serif" font-size="10.00">sss::api::S3Api::Clear</text>
</a>
</g>
</g>
<!-- Node3&#45;&gt;Node4 -->
<g id="edge3" class="edge">
<title>Node3&#45;&gt;Node4</title>
<path fill="none" stroke="midnightblue" d="M830.71,-339C822.09,-339 813.57,-339 805.48,-339"/>
<polygon fill="midnightblue" stroke="midnightblue" points="830.85,-342.5 840.85,-339 830.85,-335.5 830.85,-342.5"/>
</g>
<!-- Node5 -->
<g id="node5" class="node">
<title>Node5</title>
<g id="a_node5"><a xlink:href="classsss_1_1api_1_1S3Api.html#a840772746fbb0a79c161037da7b24a31" target="_top" xlink:title="Configure instance.">
<polygon fill="none" stroke="black" points="538,-329.5 538,-348.5 656,-348.5 656,-329.5 538,-329.5"/>
<text text-anchor="middle" x="597" y="-336.5" font-family="Helvetica,sans-Serif" font-size="10.00">sss::api::S3Api::Config</text>
</a>
</g>
</g>
<!-- Node4&#45;&gt;Node5 -->
<g id="edge4" class="edge">
<title>Node4&#45;&gt;Node5</title>
<path fill="none" stroke="midnightblue" d="M681.62,-339C673.16,-339 664.54,-339 656.22,-339"/>
<polygon fill="midnightblue" stroke="midnightblue" points="681.83,-342.5 691.83,-339 681.83,-335.5 681.83,-342.5"/>
</g>
<!-- Node5&#45;&gt;Node2 -->
<g id="edge5" class="edge">
<title>Node5&#45;&gt;Node2</title>
<path fill="none" stroke="midnightblue" d="M556.43,-351.63C536.03,-358.14 511,-366.13 489.61,-372.96"/>
<polygon fill="midnightblue" stroke="midnightblue" points="557.58,-354.94 566.04,-348.56 555.45,-348.27 557.58,-354.94"/>
</g>
<!-- Node6 -->
<g id="node6" class="node">
<title>Node6</title>
<g id="a_node6"><a xlink:href="classsss_1_1api_1_1S3Api.html#ab7affe0834f5892b393e731783b7ccac" target="_top" xlink:title="Upload file to object.">
<polygon fill="none" stroke="black" points="381.5,-324 381.5,-354 501.5,-354 501.5,-324 381.5,-324"/>
<text text-anchor="start" x="389.5" y="-342" font-family="Helvetica,sans-Serif" font-size="10.00">sss::api::S3Api::PutFile</text>
<text text-anchor="middle" x="441.5" y="-331" font-family="Helvetica,sans-Serif" font-size="10.00">Object</text>
</a>
</g>
</g>
<!-- Node5&#45;&gt;Node6 -->
<g id="edge6" class="edge">
<title>Node5&#45;&gt;Node6</title>
<path fill="none" stroke="midnightblue" d="M527.82,-339C519.09,-339 510.2,-339 501.63,-339"/>
<polygon fill="midnightblue" stroke="midnightblue" points="527.97,-342.5 537.97,-339 527.97,-335.5 527.97,-342.5"/>
</g>
<!-- Node7 -->
<g id="node7" class="node">
<title>Node7</title>
<g id="a_node7"><a xlink:href="classsss_1_1api_1_1S3Api.html#a02b4f0c95255f151beb72f0a6bdf5889" target="_top" xlink:title="Send request.">
<polygon fill="none" stroke="black" points="385.5,-285.5 385.5,-304.5 497.5,-304.5 497.5,-285.5 385.5,-285.5"/>
<text text-anchor="middle" x="441.5" y="-292.5" font-family="Helvetica,sans-Serif" font-size="10.00">sss::api::S3Api::Send</text>
</a>
</g>
</g>
<!-- Node5&#45;&gt;Node7 -->
<g id="edge7" class="edge">
<title>Node5&#45;&gt;Node7</title>
<path fill="none" stroke="midnightblue" d="M552.95,-326.66C528.5,-319.65 498.36,-311.01 475.74,-304.53"/>
<polygon fill="midnightblue" stroke="midnightblue" points="552.12,-330.06 562.69,-329.45 554.04,-323.33 552.12,-330.06"/>
</g>
<!-- Node8 -->
<g id="node8" class="node">
<title>Node8</title>
<g id="a_node8"><a xlink:href="classsss_1_1api_1_1S3Api.html#a4ea265566c3c4335ec01201cdc4410c6" target="_top" xlink:title="Abort multipart upload.">
<polygon fill="none" stroke="black" points="192,-632 192,-662 342,-662 342,-632 192,-632"/>
<text text-anchor="start" x="200" y="-650" font-family="Helvetica,sans-Serif" font-size="10.00">sss::api::S3Api::AbortMultipart</text>
<text text-anchor="middle" x="267" y="-639" font-family="Helvetica,sans-Serif" font-size="10.00">Upload</text>
</a>
</g>
</g>
<!-- Node7&#45;&gt;Node8 -->
<g id="edge8" class="edge">
<title>Node7&#45;&gt;Node8</title>
<path fill="none" stroke="midnightblue" d="M384.19,-310.61C383.06,-311.67 381.99,-312.8 381,-314 293.11,-420.74 433.26,-516.57 345,-623 342.14,-626.45 338.79,-629.41 335.12,-631.95"/>
<polygon fill="midnightblue" stroke="midnightblue" points="386.43,-313.31 392.47,-304.61 382.32,-307.64 386.43,-313.31"/>
</g>
<!-- Node9 -->
<g id="node9" class="node">
<title>Node9</title>
<g id="a_node9"><a xlink:href="classsss_1_1api_1_1S3Api.html#a98f999a216121118dd569c7ef0c28ff3" target="_top" xlink:title="Complete multipart upload.">
<polygon fill="none" stroke="black" points="201.5,-583 201.5,-613 332.5,-613 332.5,-583 201.5,-583"/>
<text text-anchor="start" x="209.5" y="-601" font-family="Helvetica,sans-Serif" font-size="10.00">sss::api::S3Api::Complete</text>
<text text-anchor="middle" x="267" y="-590" font-family="Helvetica,sans-Serif" font-size="10.00">MultipartUpload</text>
</a>
</g>
</g>
<!-- Node7&#45;&gt;Node9 -->
<g id="edge9" class="edge">
<title>Node7&#45;&gt;Node9</title>
<path fill="none" stroke="midnightblue" d="M384.3,-310.57C383.13,-311.64 382.03,-312.78 381,-314 306.14,-402.9 419.65,-483.92 345,-573 341.48,-577.2 337.24,-580.7 332.59,-583.62"/>
<polygon fill="midnightblue" stroke="midnightblue" points="386.71,-313.16 392.84,-304.52 382.66,-307.44 386.71,-313.16"/>
</g>
<!-- Node10 -->
<g id="node10" class="node">
<title>Node10</title>
<g id="a_node10"><a xlink:href="classsss_1_1api_1_1S3Api.html#ad890bd1ecfc978df24b2c3ed641e4081" target="_top" xlink:title="Create bucket.">
<polygon fill="none" stroke="black" points="192.5,-544.5 192.5,-563.5 341.5,-563.5 341.5,-544.5 192.5,-544.5"/>
<text text-anchor="middle" x="267" y="-551.5" font-family="Helvetica,sans-Serif" font-size="10.00">sss::api::S3Api::CreateBucket</text>
</a>
</g>
</g>
<!-- Node7&#45;&gt;Node10 -->
<g id="edge10" class="edge">
<title>Node7&#45;&gt;Node10</title>
<path fill="none" stroke="midnightblue" d="M384.69,-310.29C383.38,-311.44 382.14,-312.67 381,-314 316.01,-389.37 412.48,-461.86 345,-535 341.45,-538.85 337.26,-541.97 332.7,-544.5"/>
<polygon fill="midnightblue" stroke="midnightblue" points="386.7,-313.16 392.94,-304.6 382.72,-307.4 386.7,-313.16"/>
</g>
<!-- Node11 -->
<g id="node11" class="node">
<title>Node11</title>
<g id="a_node11"><a xlink:href="classsss_1_1api_1_1S3Api.html#a1796fafda3d90a4292a611ce1999433b" target="_top" xlink:title="Create multipart upload.">
<polygon fill="none" stroke="black" points="189,-495 189,-525 345,-525 345,-495 189,-495"/>
<text text-anchor="start" x="197" y="-513" font-family="Helvetica,sans-Serif" font-size="10.00">sss::api::S3Api::CreateMultipart</text>
<text text-anchor="middle" x="267" y="-502" font-family="Helvetica,sans-Serif" font-size="10.00">Upload</text>
</a>
</g>
</g>
<!-- Node7&#45;&gt;Node11 -->
<g id="edge11" class="edge">
<title>Node7&#45;&gt;Node11</title>
<path fill="none" stroke="midnightblue" d="M384.86,-310.29C383.49,-311.44 382.2,-312.67 381,-314 328.94,-371.64 396.92,-427.24 345,-485 341.52,-488.87 337.44,-492.14 333.01,-494.91"/>
<polygon fill="midnightblue" stroke="midnightblue" points="387.02,-313.05 393.4,-304.6 383.14,-307.23 387.02,-313.05"/>
</g>
<!-- Node12 -->
<g id="node12" class="node">
<title>Node12</title>
<g id="a_node12"><a xlink:href="classsss_1_1api_1_1S3Api.html#a3d63825d1916e4ba3ca13122c7660603" target="_top" xlink:title="Delete bucket.">
<polygon fill="none" stroke="black" points="192.5,-456.5 192.5,-475.5 341.5,-475.5 341.5,-456.5 192.5,-456.5"/>
<text text-anchor="middle" x="267" y="-463.5" font-family="Helvetica,sans-Serif" font-size="10.00">sss::api::S3Api::DeleteBucket</text>
</a>
</g>
</g>
<!-- Node7&#45;&gt;Node12 -->
<g id="edge12" class="edge">
<title>Node7&#45;&gt;Node12</title>
<path fill="none" stroke="midnightblue" d="M385.44,-310C383.86,-311.23 382.38,-312.56 381,-314 338.68,-358.26 388.78,-404.19 345,-447 341.06,-450.85 336.47,-453.96 331.54,-456.47"/>
<polygon fill="midnightblue" stroke="midnightblue" points="387.32,-312.95 393.91,-304.65 383.58,-307.03 387.32,-312.95"/>
</g>
<!-- Node13 -->
<g id="node13" class="node">
<title>Node13</title>
<g id="a_node13"><a xlink:href="classsss_1_1api_1_1S3Api.html#a14a75f15eb71fbba8639673100768b67" target="_top" xlink:title="Delete object.">
<polygon fill="none" stroke="black" points="194,-418.5 194,-437.5 340,-437.5 340,-418.5 194,-418.5"/>
<text text-anchor="middle" x="267" y="-425.5" font-family="Helvetica,sans-Serif" font-size="10.00">sss::api::S3Api::DeleteObject</text>
</a>
</g>
</g>
<!-- Node7&#45;&gt;Node13 -->
<g id="edge13" class="edge">
<title>Node7&#45;&gt;Node13</title>
<path fill="none" stroke="midnightblue" d="M386.35,-309.65C384.46,-310.98 382.66,-312.42 381,-314 348.24,-345.07 378.79,-379.05 345,-409 340.67,-412.84 335.69,-415.92 330.39,-418.41"/>
<polygon fill="midnightblue" stroke="midnightblue" points="388.24,-312.6 395.16,-304.58 384.75,-306.53 388.24,-312.6"/>
</g>
<!-- Node14 -->
<g id="node14" class="node">
<title>Node14</title>
<g id="a_node14"><a xlink:href="classsss_1_1api_1_1S3Api.html#a3b53152bf39143843a4033aa4a1b3fa0" target="_top" xlink:title=" ">
<polygon fill="none" stroke="black" points="192,-380.5 192,-399.5 342,-399.5 342,-380.5 192,-380.5"/>
<text text-anchor="middle" x="267" y="-387.5" font-family="Helvetica,sans-Serif" font-size="10.00">sss::api::S3Api::GetBucketAcl</text>
</a>
</g>
</g>
<!-- Node7&#45;&gt;Node14 -->
<g id="edge14" class="edge">
<title>Node7&#45;&gt;Node14</title>
<path fill="none" stroke="midnightblue" d="M388.46,-309.08C385.84,-310.56 383.33,-312.2 381,-314 357.3,-332.33 369.3,-353.48 345,-371 339.64,-374.87 333.58,-377.95 327.28,-380.41"/>
<polygon fill="midnightblue" stroke="midnightblue" points="390.23,-312.11 397.71,-304.61 387.18,-305.81 390.23,-312.11"/>
</g>
<!-- Node15 -->
<g id="node15" class="node">
<title>Node15</title>
<g id="a_node15"><a xlink:href="classsss_1_1api_1_1S3Api.html#af61465d92c0a94aa82ae863fc2a776a0" target="_top" xlink:title="Download object data.">
<polygon fill="none" stroke="black" points="200,-342.5 200,-361.5 334,-361.5 334,-342.5 200,-342.5"/>
<text text-anchor="middle" x="267" y="-349.5" font-family="Helvetica,sans-Serif" font-size="10.00">sss::api::S3Api::GetObject</text>
</a>
</g>
</g>
<!-- Node7&#45;&gt;Node15 -->
<g id="edge15" class="edge">
<title>Node7&#45;&gt;Node15</title>
<path fill="none" stroke="midnightblue" d="M397.23,-307.82C391.71,-309.75 386.19,-311.82 381,-314 364.32,-321 361.91,-326.56 345,-333 335.35,-336.67 324.74,-339.83 314.57,-342.45"/>
<polygon fill="midnightblue" stroke="midnightblue" points="398.7,-311.02 407.08,-304.53 396.48,-304.38 398.7,-311.02"/>
</g>
<!-- Node16 -->
<g id="node16" class="node">
<title>Node16</title>
<g id="a_node16"><a xlink:href="classsss_1_1api_1_1S3Api.html#ae548966dc38f328fc45ee1500f5caf5b" target="_top" xlink:title="Return bucket&#39;s Access Control List.">
<polygon fill="none" stroke="black" points="193,-304.5 193,-323.5 341,-323.5 341,-304.5 193,-304.5"/>
<text text-anchor="middle" x="267" y="-311.5" font-family="Helvetica,sans-Serif" font-size="10.00">sss::api::S3Api::GetObjectAcl</text>
</a>
</g>
</g>
<!-- Node7&#45;&gt;Node16 -->
<g id="edge16" class="edge">
<title>Node7&#45;&gt;Node16</title>
<path fill="none" stroke="midnightblue" d="M375.34,-302.18C364.16,-303.41 352.48,-304.7 341.11,-305.95"/>
<polygon fill="midnightblue" stroke="midnightblue" points="375.89,-305.64 385.45,-301.06 375.12,-298.68 375.89,-305.64"/>
</g>
<!-- Node17 -->
<g id="node17" class="node">
<title>Node17</title>
<g id="a_node17"><a xlink:href="classsss_1_1api_1_1S3Api.html#aa4a2b1cc2c89a52d1aa89e571b785db2" target="_top" xlink:title=" ">
<polygon fill="none" stroke="black" points="195.5,-266.5 195.5,-285.5 338.5,-285.5 338.5,-266.5 195.5,-266.5"/>
<text text-anchor="middle" x="267" y="-273.5" font-family="Helvetica,sans-Serif" font-size="10.00">sss::api::S3Api::HeadBucket</text>
</a>
</g>
</g>
<!-- Node7&#45;&gt;Node17 -->
<g id="edge17" class="edge">
<title>Node7&#45;&gt;Node17</title>
<path fill="none" stroke="midnightblue" d="M375.49,-287.84C363.45,-286.51 350.82,-285.12 338.62,-283.78"/>
<polygon fill="midnightblue" stroke="midnightblue" points="375.12,-291.32 385.45,-288.94 375.89,-284.36 375.12,-291.32"/>
</g>
<!-- Node18 -->
<g id="node18" class="node">
<title>Node18</title>
<g id="a_node18"><a xlink:href="classsss_1_1api_1_1S3Api.html#abc84a71b9a88b81afaa353ad17a91d22" target="_top" xlink:title="Send HeadObject request.">
<polygon fill="none" stroke="black" points="196.5,-228.5 196.5,-247.5 337.5,-247.5 337.5,-228.5 196.5,-228.5"/>
<text text-anchor="middle" x="267" y="-235.5" font-family="Helvetica,sans-Serif" font-size="10.00">sss::api::S3Api::HeadObject</text>
</a>
</g>
</g>
<!-- Node7&#45;&gt;Node18 -->
<g id="edge18" class="edge">
<title>Node7&#45;&gt;Node18</title>
<path fill="none" stroke="midnightblue" d="M409.43,-281.38C390.94,-273.6 366.89,-264.02 345,-257 334.12,-253.51 322.2,-250.29 311.06,-247.52"/>
<polygon fill="midnightblue" stroke="midnightblue" points="408.24,-284.68 418.81,-285.38 410.98,-278.24 408.24,-284.68"/>
</g>
<!-- Node21 -->
<g id="node21" class="node">
<title>Node21</title>
<g id="a_node21"><a xlink:href="classsss_1_1api_1_1S3Api.html#a81e30673c06b609a2ee6e6bfd9130ca6" target="_top" xlink:title="List buckets.">
<polygon fill="none" stroke="black" points="196.5,-190.5 196.5,-209.5 337.5,-209.5 337.5,-190.5 196.5,-190.5"/>
<text text-anchor="middle" x="267" y="-197.5" font-family="Helvetica,sans-Serif" font-size="10.00">sss::api::S3Api::ListBuckets</text>
</a>
</g>
</g>
<!-- Node7&#45;&gt;Node21 -->
<g id="edge21" class="edge">
<title>Node7&#45;&gt;Node21</title>
<path fill="none" stroke="midnightblue" d="M424.13,-278.24C406.25,-260.9 376,-234.24 345,-219 337.22,-215.17 328.6,-212.08 320.03,-209.59"/>
<polygon fill="midnightblue" stroke="midnightblue" points="421.87,-280.93 431.43,-285.48 426.79,-275.96 421.87,-280.93"/>
</g>
<!-- Node22 -->
<g id="node22" class="node">
<title>Node22</title>
<g id="a_node22"><a xlink:href="classsss_1_1api_1_1S3Api.html#a3f00f611cd210a58ac6e8c0555984433" target="_top" xlink:title="List objects by sending a ListObjectsV2 request.">
<polygon fill="none" stroke="black" points="191.5,-152.5 191.5,-171.5 342.5,-171.5 342.5,-152.5 191.5,-152.5"/>
<text text-anchor="middle" x="267" y="-159.5" font-family="Helvetica,sans-Serif" font-size="10.00">sss::api::S3Api::ListObjectsV2</text>
</a>
</g>
</g>
<!-- Node7&#45;&gt;Node22 -->
<g id="edge22" class="edge">
<title>Node7&#45;&gt;Node22</title>
<path fill="none" stroke="midnightblue" d="M430.22,-276.57C415.01,-251.05 384.04,-205.35 345,-181 338.81,-177.14 331.88,-174.06 324.79,-171.61"/>
<polygon fill="midnightblue" stroke="midnightblue" points="427.23,-278.38 435.27,-285.28 433.28,-274.87 427.23,-278.38"/>
</g>
<!-- Node23 -->
<g id="node23" class="node">
<title>Node23</title>
<g id="a_node23"><a xlink:href="classsss_1_1api_1_1S3Api.html#aa35e9b1cc7661cd9bb0d5f2de6cbbc7d" target="_top" xlink:title="Set Access Control Policy for bucket.">
<polygon fill="none" stroke="black" points="192.5,-114.5 192.5,-133.5 341.5,-133.5 341.5,-114.5 192.5,-114.5"/>
<text text-anchor="middle" x="267" y="-121.5" font-family="Helvetica,sans-Serif" font-size="10.00">sss::api::S3Api::PutBucketAcl</text>
</a>
</g>
</g>
<!-- Node7&#45;&gt;Node23 -->
<g id="edge23" class="edge">
<title>Node7&#45;&gt;Node23</title>
<path fill="none" stroke="midnightblue" d="M433.87,-275.67C421.66,-243.05 392.43,-177.28 345,-143 339.64,-139.13 333.59,-136.04 327.29,-133.58"/>
<polygon fill="midnightblue" stroke="midnightblue" points="430.68,-277.15 437.36,-285.37 437.27,-274.77 430.68,-277.15"/>
</g>
<!-- Node24 -->
<g id="node24" class="node">
<title>Node24</title>
<g id="a_node24"><a xlink:href="classsss_1_1api_1_1S3Api.html#a2cc08fb777cfc4d24c40bea1cde967e7" target="_top" xlink:title="Set Access Control Policy.">
<polygon fill="none" stroke="black" points="193.5,-76.5 193.5,-95.5 340.5,-95.5 340.5,-76.5 193.5,-76.5"/>
<text text-anchor="middle" x="267" y="-83.5" font-family="Helvetica,sans-Serif" font-size="10.00">sss::api::S3Api::PutObjectAcl</text>
</a>
</g>
</g>
<!-- Node7&#45;&gt;Node24 -->
<g id="edge24" class="edge">
<title>Node7&#45;&gt;Node24</title>
<path fill="none" stroke="midnightblue" d="M433.28,-275.92C416.5,-232.48 374.06,-128.19 345,-105 340.16,-101.14 334.64,-98.04 328.83,-95.57"/>
<polygon fill="midnightblue" stroke="midnightblue" points="430.05,-277.25 436.89,-285.34 436.59,-274.75 430.05,-277.25"/>
</g>
<!-- Node7&#45;&gt;Node25 -->
<g id="edge25" class="edge">
<title>Node7&#45;&gt;Node25</title>
<path fill="none" stroke="midnightblue" d="M431.5,-276.32C419.08,-250.08 396.47,-200.64 381,-157 361.26,-101.3 387.46,-70.11 345,-29 338.87,-23.06 331.19,-18.89 323.07,-15.97"/>
<polygon fill="midnightblue" stroke="midnightblue" points="428.4,-277.95 435.87,-285.47 434.72,-274.94 428.4,-277.95"/>
</g>
<!-- Node26 -->
<g id="node26" class="node">
<title>Node26</title>
<g id="a_node26"><a xlink:href="classsss_1_1api_1_1S3Api.html#a23223ee1fb701c55af2d942dbf261ae2" target="_top" xlink:title="Check if bucket exist.">
<polygon fill="none" stroke="black" points="197.5,-38.5 197.5,-57.5 336.5,-57.5 336.5,-38.5 197.5,-38.5"/>
<text text-anchor="middle" x="267" y="-45.5" font-family="Helvetica,sans-Serif" font-size="10.00">sss::api::S3Api::TestBucket</text>
</a>
</g>
</g>
<!-- Node7&#45;&gt;Node26 -->
<g id="edge26" class="edge">
<title>Node7&#45;&gt;Node26</title>
<path fill="none" stroke="midnightblue" d="M432.15,-276.07C420.49,-249.54 398.76,-199.75 381,-157 364.47,-117.22 377.5,-95.28 345,-67 340.53,-63.11 335.4,-60 329.94,-57.5"/>
<polygon fill="midnightblue" stroke="midnightblue" points="428.99,-277.59 436.23,-285.33 435.4,-274.77 428.99,-277.59"/>
</g>
<!-- Node19 -->
<g id="node19" class="node">
<title>Node19</title>
<g id="a_node19"><a xlink:href="classsss_1_1api_1_1S3Api.html#a872e80e356e8c404a9b0739d95a0af41" target="_top" xlink:title="Return object size.">
<polygon fill="none" stroke="black" points="0,-247.5 0,-266.5 153,-266.5 153,-247.5 0,-247.5"/>
<text text-anchor="middle" x="76.5" y="-254.5" font-family="Helvetica,sans-Serif" font-size="10.00">sss::api::S3Api::GetObjectSize</text>
</a>
</g>
</g>
<!-- Node18&#45;&gt;Node19 -->
<g id="edge19" class="edge">
<title>Node18&#45;&gt;Node19</title>
<path fill="none" stroke="midnightblue" d="M186.35,-246.03C175.37,-247.14 164.11,-248.27 153.2,-249.37"/>
<polygon fill="midnightblue" stroke="midnightblue" points="186.75,-249.51 196.35,-245.02 186.04,-242.54 186.75,-249.51"/>
</g>
<!-- Node20 -->
<g id="node20" class="node">
<title>Node20</title>
<g id="a_node20"><a xlink:href="classsss_1_1api_1_1S3Api.html#aa3f7a3001bdad58c7b0c04cbd0dc3236" target="_top" xlink:title="Check if key exists.">
<polygon fill="none" stroke="black" points="8,-209.5 8,-228.5 145,-228.5 145,-209.5 8,-209.5"/>
<text text-anchor="middle" x="76.5" y="-216.5" font-family="Helvetica,sans-Serif" font-size="10.00">sss::api::S3Api::TestObject</text>
</a>
</g>
</g>
<!-- Node18&#45;&gt;Node20 -->
<g id="edge20" class="edge">
<title>Node18&#45;&gt;Node20</title>
<path fill="none" stroke="midnightblue" d="M186.07,-229.94C172.5,-228.58 158.52,-227.17 145.3,-225.83"/>
<polygon fill="midnightblue" stroke="midnightblue" points="186.04,-233.46 196.35,-230.98 186.75,-226.49 186.04,-233.46"/>
</g>
</g>
</svg>
