<?xml version="1.0" encoding="UTF-8" standalone="no"?>
<!DOCTYPE svg PUBLIC "-//W3C//DTD SVG 1.1//EN"
 "http://www.w3.org/Graphics/SVG/1.1/DTD/svg11.dtd">
<!-- Generated by graphviz version 2.43.0 (0)
 -->
<!-- Title: sss::api::S3Api::Send Pages: 1 -->
<!--zoomable 521 -->
<svg id="main" version="1.1" xmlns="http://www.w3.org/2000/svg" xmlns:xlink="http://www.w3.org/1999/xlink" xml:space="preserve" onload="init(evt)">
<style type="text/css"><![CDATA[
.edge:hover path { stroke: red; }
.edge:hover polygon { stroke: red; fill: red; }
]]></style>
<script type="text/javascript"><![CDATA[
var edges = document.getElementsByTagName('g');
if (edges && edges.length) {
  for (var i=0;i<edges.length;i++) {
    if (edges[i].id.substr(0,4)=='edge') {
      edges[i].setAttribute('class','edge');
    }
  }
}
]]></script>
        <defs>
                <circle id="rim" cx="0" cy="0" r="7"/>
                <circle id="rim2" cx="0" cy="0" r="3.5"/>
                <g id="zoomPlus">
                        <use xlink:href="#rim" fill="#404040">
                                <set attributeName="fill" to="#808080" begin="zoomplus.mouseover" end="zoomplus.mouseout"/>
                        </use>
                        <path d="M-4,0h8M0,-4v8" fill="none" stroke="white" stroke-width="1.5" pointer-events="none"/>
                </g>
                <g id="zoomMin">
                        <use xlink:href="#rim" fill="#404040">
                                <set attributeName="fill" to="#808080" begin="zoomminus.mouseover" end="zoomminus.mouseout"/>
                        </use>
                        <path d="M-4,0h8" fill="none" stroke="white" stroke-width="1.5" pointer-events="none"/>
                </g>
                <g id="dirArrow">
                        <path fill="none" stroke="white" stroke-width="1.5" d="M0,-3.0v7 M-2.5,-0.5L0,-3.0L2.5,-0.5"/>
                </g>
               <g id="resetDef">
                       <use xlink:href="#rim2" fill="#404040">
                               <set attributeName="fill" to="#808080" begin="reset.mouseover" end="reset.mouseout"/>
                       </use>
               </g>
        </defs>

<script type="text/javascript">
var viewWidth = 902;
var viewHeight = 521;
var sectionId = 'dynsection-28';
</script>
<script xlink:href="svgpan.js"/>
<svg id="graph" class="graph">
<g id="viewport">
<title>sss::api::S3Api::Send</title>
<!-- Node1 -->
<g id="node1" class="node">
<title>Node1</title>
<g id="a_node1"><a xlink:title="Send request.">
<polygon fill="#bfbfbf" stroke="black" points="0,-110 0,-129 112,-129 112,-110 0,-110"/>
<text text-anchor="middle" x="56" y="-117" font-family="Helvetica,sans-Serif" font-size="10.00">sss::api::S3Api::Send</text>
</a>
</g>
</g>
<!-- Node2 -->
<g id="node2" class="node">
<title>Node2</title>
<g id="a_node2"><a xlink:href="classsss_1_1api_1_1S3Api.html#a840772746fbb0a79c161037da7b24a31" target="_top" xlink:title="Configure instance.">
<polygon fill="none" stroke="black" points="166.5,-278 166.5,-297 284.5,-297 284.5,-278 166.5,-278"/>
<text text-anchor="middle" x="225.5" y="-285" font-family="Helvetica,sans-Serif" font-size="10.00">sss::api::S3Api::Config</text>
</a>
</g>
</g>
<!-- Node1&#45;&gt;Node2 -->
<g id="edge1" class="edge">
<title>Node1&#45;&gt;Node2</title>
<path fill="none" stroke="midnightblue" d="M66.49,-129.01C93.77,-156.38 172.7,-235.55 207.58,-270.53"/>
<polygon fill="midnightblue" stroke="midnightblue" points="205.16,-273.06 214.7,-277.67 210.12,-268.12 205.16,-273.06"/>
</g>
<!-- Node11 -->
<g id="node11" class="node">
<title>Node11</title>
<g id="a_node11"><a xlink:href="classsss_1_1WebClient.html#a51ce0ecf6487b6a43072643fe4f4cb4e" target="_top" xlink:title=" ">
<polygon fill="none" stroke="black" points="532.5,-468 532.5,-487 678.5,-487 678.5,-468 532.5,-468"/>
<text text-anchor="middle" x="605.5" y="-475" font-family="Helvetica,sans-Serif" font-size="10.00">sss::WebClient::SetPostData</text>
</a>
</g>
</g>
<!-- Node1&#45;&gt;Node11 -->
<g id="edge22" class="edge">
<title>Node1&#45;&gt;Node11</title>
<path fill="none" stroke="midnightblue" d="M60.09,-129.15C77.24,-180.84 166.36,-425.25 339,-496.5 415.65,-528.13 515.29,-506.09 568.03,-490.07"/>
<polygon fill="midnightblue" stroke="midnightblue" points="569.13,-493.39 577.62,-487.06 567.03,-486.71 569.13,-493.39"/>
</g>
<!-- Node18 -->
<g id="node18" class="node">
<title>Node18</title>
<g id="a_node18"><a xlink:href="group__Internal.html#ga2b8b08c2a4994a87377d83ccfa9a6a53" target="_top" xlink:title=" ">
<polygon fill="none" stroke="black" points="176.5,-50 176.5,-69 274.5,-69 274.5,-50 176.5,-50"/>
<text text-anchor="middle" x="225.5" y="-57" font-family="Helvetica,sans-Serif" font-size="10.00">sss::ParseParams</text>
</a>
</g>
</g>
<!-- Node1&#45;&gt;Node18 -->
<g id="edge20" class="edge">
<title>Node1&#45;&gt;Node18</title>
<path fill="none" stroke="midnightblue" d="M80.01,-109.86C98.31,-102.33 124.62,-91.78 148,-83.5 159.16,-79.55 171.36,-75.57 182.66,-72.02"/>
<polygon fill="midnightblue" stroke="midnightblue" points="183.8,-75.33 192.32,-69.03 181.73,-68.65 183.8,-75.33"/>
</g>
<!-- Node19 -->
<g id="node19" class="node">
<title>Node19</title>
<g id="a_node19"><a xlink:href="classsss_1_1WebClient.html#aa1d7484f0e09242ce53b24f9648ce50e" target="_top" xlink:title=" ">
<polygon fill="none" stroke="black" points="354.5,-88 354.5,-107 466.5,-107 466.5,-88 354.5,-88"/>
<text text-anchor="middle" x="410.5" y="-95" font-family="Helvetica,sans-Serif" font-size="10.00">sss::WebClient::Send</text>
</a>
</g>
</g>
<!-- Node1&#45;&gt;Node19 -->
<g id="edge21" class="edge">
<title>Node1&#45;&gt;Node19</title>
<path fill="none" stroke="midnightblue" d="M112.08,-116.06C174.88,-112.14 277.48,-105.74 344.24,-101.57"/>
<polygon fill="midnightblue" stroke="midnightblue" points="344.47,-105.07 354.23,-100.95 344.03,-98.08 344.47,-105.07"/>
</g>
<!-- Node20 -->
<g id="node20" class="node">
<title>Node20</title>
<g id="a_node20"><a xlink:href="classsss_1_1WebClient.html#a7dfd984b33a29686fb0355b65b620e99" target="_top" xlink:title=" ">
<polygon fill="none" stroke="black" points="148,-0.5 148,-30.5 303,-30.5 303,-0.5 148,-0.5"/>
<text text-anchor="start" x="156" y="-18.5" font-family="Helvetica,sans-Serif" font-size="10.00">sss::WebClient::SetUrlEncoded</text>
<text text-anchor="middle" x="225.5" y="-7.5" font-family="Helvetica,sans-Serif" font-size="10.00">PostData</text>
</a>
</g>
</g>
<!-- Node1&#45;&gt;Node20 -->
<g id="edge23" class="edge">
<title>Node1&#45;&gt;Node20</title>
<path fill="none" stroke="midnightblue" d="M65.61,-109.84C80.74,-93.4 113.78,-59.89 148,-40.5 151.87,-38.31 155.95,-36.28 160.14,-34.4"/>
<polygon fill="midnightblue" stroke="midnightblue" points="161.56,-37.6 169.44,-30.53 158.87,-31.14 161.56,-37.6"/>
</g>
<!-- Node22 -->
<g id="node22" class="node">
<title>Node22</title>
<g id="a_node22"><a xlink:href="classsss_1_1WebClient.html#ae7b1f77bd4ae44585f2d49ea493bdcc5" target="_top" xlink:title="Upload data from memory buffer.">
<polygon fill="none" stroke="black" points="155,-126.5 155,-156.5 296,-156.5 296,-126.5 155,-126.5"/>
<text text-anchor="start" x="163" y="-144.5" font-family="Helvetica,sans-Serif" font-size="10.00">sss::WebClient::UploadData</text>
<text text-anchor="middle" x="225.5" y="-133.5" font-family="Helvetica,sans-Serif" font-size="10.00">FromBuffer</text>
</a>
</g>
</g>
<!-- Node1&#45;&gt;Node22 -->
<g id="edge25" class="edge">
<title>Node1&#45;&gt;Node22</title>
<path fill="none" stroke="midnightblue" d="M112.31,-126.76C122.74,-128.13 133.84,-129.59 144.85,-131.04"/>
<polygon fill="midnightblue" stroke="midnightblue" points="144.54,-134.53 154.91,-132.36 145.45,-127.59 144.54,-134.53"/>
</g>
<!-- Node3 -->
<g id="node3" class="node">
<title>Node3</title>
<g id="a_node3"><a xlink:href="classsss_1_1api_1_1S3Api.html#a1a4e05ac14390c7f42feef2c26e22031" target="_top" xlink:title=" ">
<polygon fill="none" stroke="black" points="349.5,-392 349.5,-411 471.5,-411 471.5,-392 349.5,-392"/>
<text text-anchor="middle" x="410.5" y="-399" font-family="Helvetica,sans-Serif" font-size="10.00">sss::api::S3Api::Access</text>
</a>
</g>
</g>
<!-- Node2&#45;&gt;Node3 -->
<g id="edge2" class="edge">
<title>Node2&#45;&gt;Node3</title>
<path fill="none" stroke="midnightblue" d="M236.18,-297.23C254.66,-315.33 296.89,-354.42 339,-377.5 346.83,-381.79 355.56,-385.51 364.14,-388.66"/>
<polygon fill="midnightblue" stroke="midnightblue" points="363.11,-392.01 373.7,-391.97 365.39,-385.39 363.11,-392.01"/>
</g>
<!-- Node4 -->
<g id="node4" class="node">
<title>Node4</title>
<g id="a_node4"><a xlink:href="classsss_1_1api_1_1S3Api.html#a3718745d3b940462ae9f3b78f773b3a6" target="_top" xlink:title="Clear data and reset read and write functions.">
<polygon fill="none" stroke="black" points="354,-316 354,-335 467,-335 467,-316 354,-316"/>
<text text-anchor="middle" x="410.5" y="-323" font-family="Helvetica,sans-Serif" font-size="10.00">sss::api::S3Api::Clear</text>
</a>
</g>
</g>
<!-- Node2&#45;&gt;Node4 -->
<g id="edge3" class="edge">
<title>Node2&#45;&gt;Node4</title>
<path fill="none" stroke="midnightblue" d="M272.68,-297.09C297.26,-302.19 327.69,-308.51 353.6,-313.89"/>
<polygon fill="midnightblue" stroke="midnightblue" points="353.15,-317.37 363.65,-315.98 354.57,-310.52 353.15,-317.37"/>
</g>
<!-- Node9 -->
<g id="node9" class="node">
<title>Node9</title>
<g id="a_node9"><a xlink:href="classsss_1_1WebClient.html#a75890c14fbe4a4bbac61718a4f3c064d" target="_top" xlink:title=" ">
<polygon fill="none" stroke="black" points="535,-373 535,-392 676,-392 676,-373 535,-373"/>
<text text-anchor="middle" x="605.5" y="-380" font-family="Helvetica,sans-Serif" font-size="10.00">sss::WebClient::SetHeaders</text>
</a>
</g>
</g>
<!-- Node2&#45;&gt;Node9 -->
<g id="edge15" class="edge">
<title>Node2&#45;&gt;Node9</title>
<path fill="none" stroke="midnightblue" d="M241.47,-297.1C262.41,-310.06 302.04,-332.84 339,-344.5 399.7,-363.65 471.27,-373.18 524.8,-377.91"/>
<polygon fill="midnightblue" stroke="midnightblue" points="524.66,-381.41 534.92,-378.76 525.25,-374.43 524.66,-381.41"/>
</g>
<!-- Node10 -->
<g id="node10" class="node">
<title>Node10</title>
<g id="a_node10"><a xlink:href="classsss_1_1WebClient.html#a12b5db6b8c667024557ab58059d39994" target="_top" xlink:title=" ">
<polygon fill="none" stroke="black" points="543,-259 543,-278 668,-278 668,-259 543,-259"/>
<text text-anchor="middle" x="605.5" y="-266" font-family="Helvetica,sans-Serif" font-size="10.00">sss::WebClient::SetPath</text>
</a>
</g>
</g>
<!-- Node2&#45;&gt;Node10 -->
<g id="edge17" class="edge">
<title>Node2&#45;&gt;Node10</title>
<path fill="none" stroke="midnightblue" d="M284.73,-284.57C351.35,-281.22 460.48,-275.74 532.41,-272.12"/>
<polygon fill="midnightblue" stroke="midnightblue" points="532.93,-275.6 542.74,-271.6 532.58,-268.61 532.93,-275.6"/>
</g>
<!-- Node12 -->
<g id="node12" class="node">
<title>Node12</title>
<g id="a_node12"><a xlink:href="classsss_1_1WebClient.html#a9bf978d95b79728f6d60fc2bdb4fe546" target="_top" xlink:title=" ">
<polygon fill="none" stroke="black" points="519,-221 519,-240 692,-240 692,-221 519,-221"/>
<text text-anchor="middle" x="605.5" y="-228" font-family="Helvetica,sans-Serif" font-size="10.00">sss::WebClient::SetReqParameters</text>
</a>
</g>
</g>
<!-- Node2&#45;&gt;Node12 -->
<g id="edge18" class="edge">
<title>Node2&#45;&gt;Node12</title>
<path fill="none" stroke="midnightblue" d="M240.22,-277.83C260.62,-264.12 300.67,-239.66 339,-230.5 396.58,-216.75 463.21,-216.79 515.32,-220.25"/>
<polygon fill="midnightblue" stroke="midnightblue" points="515.32,-223.76 525.54,-220.99 515.82,-216.78 515.32,-223.76"/>
</g>
<!-- Node13 -->
<g id="node13" class="node">
<title>Node13</title>
<g id="a_node13"><a xlink:href="classsss_1_1api_1_1S3Api.html#a70f1068d07e1d4c1be164e0cb9328cc0" target="_top" xlink:title=" ">
<polygon fill="none" stroke="black" points="346.5,-164 346.5,-183 474.5,-183 474.5,-164 346.5,-164"/>
<text text-anchor="middle" x="410.5" y="-171" font-family="Helvetica,sans-Serif" font-size="10.00">sss::api::S3Api::Endpoint</text>
</a>
</g>
</g>
<!-- Node2&#45;&gt;Node13 -->
<g id="edge12" class="edge">
<title>Node2&#45;&gt;Node13</title>
<path fill="none" stroke="midnightblue" d="M236.18,-277.77C254.66,-259.67 296.89,-220.58 339,-197.5 346.83,-193.21 355.56,-189.49 364.14,-186.34"/>
<polygon fill="midnightblue" stroke="midnightblue" points="365.39,-189.61 373.7,-183.03 363.11,-182.99 365.39,-189.61"/>
</g>
<!-- Node14 -->
<g id="node14" class="node">
<title>Node14</title>
<g id="a_node14"><a xlink:href="classsss_1_1api_1_1S3Api.html#acfffe29254323fb41231787a0afb7edc" target="_top" xlink:title=" ">
<polygon fill="none" stroke="black" points="351.5,-468 351.5,-487 469.5,-487 469.5,-468 351.5,-468"/>
<text text-anchor="middle" x="410.5" y="-475" font-family="Helvetica,sans-Serif" font-size="10.00">sss::api::S3Api::Secret</text>
</a>
</g>
</g>
<!-- Node2&#45;&gt;Node14 -->
<g id="edge13" class="edge">
<title>Node2&#45;&gt;Node14</title>
<path fill="none" stroke="midnightblue" d="M229.92,-297.01C240.86,-326.06 277.95,-414.36 339,-458.5 341.67,-460.43 344.53,-462.17 347.5,-463.72"/>
<polygon fill="midnightblue" stroke="midnightblue" points="346.17,-466.96 356.72,-467.89 349.05,-460.58 346.17,-466.96"/>
</g>
<!-- Node15 -->
<g id="node15" class="node">
<title>Node15</title>
<g id="a_node15"><a xlink:href="classsss_1_1WebClient.html#afc3b7a92568fbb1ea447918920ca266e" target="_top" xlink:title="Set endpoint: &lt;proto&gt;://&lt;server&gt;:&lt;port&gt;">
<polygon fill="none" stroke="black" points="339,-430 339,-449 482,-449 482,-430 339,-430"/>
<text text-anchor="middle" x="410.5" y="-437" font-family="Helvetica,sans-Serif" font-size="10.00">sss::WebClient::SetEndpoint</text>
</a>
</g>
</g>
<!-- Node2&#45;&gt;Node15 -->
<g id="edge14" class="edge">
<title>Node2&#45;&gt;Node15</title>
<path fill="none" stroke="midnightblue" d="M231.89,-297.27C246.01,-321.97 286.67,-387.25 339,-420.5 342.34,-422.62 345.9,-424.5 349.6,-426.18"/>
<polygon fill="midnightblue" stroke="midnightblue" points="348.4,-429.47 358.98,-429.93 351,-422.97 348.4,-429.47"/>
</g>
<!-- Node16 -->
<g id="node16" class="node">
<title>Node16</title>
<g id="a_node16"><a xlink:href="classsss_1_1WebClient.html#af6233ffd7b294e1e7e606e838dd44e9e" target="_top" xlink:title=" ">
<polygon fill="none" stroke="black" points="342,-126 342,-145 479,-145 479,-126 342,-126"/>
<text text-anchor="middle" x="410.5" y="-133" font-family="Helvetica,sans-Serif" font-size="10.00">sss::WebClient::SetMethod</text>
</a>
</g>
</g>
<!-- Node2&#45;&gt;Node16 -->
<g id="edge16" class="edge">
<title>Node2&#45;&gt;Node16</title>
<path fill="none" stroke="midnightblue" d="M231.89,-277.73C246.01,-253.03 286.67,-187.75 339,-154.5 342.34,-152.38 345.9,-150.5 349.6,-148.82"/>
<polygon fill="midnightblue" stroke="midnightblue" points="351,-152.03 358.98,-145.07 348.4,-145.53 351,-152.03"/>
</g>
<!-- Node17 -->
<g id="node17" class="node">
<title>Node17</title>
<g id="a_node17"><a xlink:href="group__Sign.html#ga3ae8e18ef70752b7369fca66c40c526b" target="_top" xlink:title="Sign headers.">
<polygon fill="none" stroke="black" points="363,-240 363,-259 458,-259 458,-240 363,-240"/>
<text text-anchor="middle" x="410.5" y="-247" font-family="Helvetica,sans-Serif" font-size="10.00">sss::SignHeaders</text>
</a>
</g>
</g>
<!-- Node2&#45;&gt;Node17 -->
<g id="edge19" class="edge">
<title>Node2&#45;&gt;Node17</title>
<path fill="none" stroke="midnightblue" d="M272.68,-277.91C297.26,-272.81 327.69,-266.49 353.6,-261.11"/>
<polygon fill="midnightblue" stroke="midnightblue" points="354.57,-264.48 363.65,-259.02 353.15,-257.63 354.57,-264.48"/>
</g>
<!-- Node5 -->
<g id="node5" class="node">
<title>Node5</title>
<g id="a_node5"><a xlink:href="classsss_1_1WebClient.html#a381f5715b7a2f19a0d4414d278874bae" target="_top" xlink:title="Clear internal buffers.">
<polygon fill="none" stroke="black" points="533.5,-335 533.5,-354 677.5,-354 677.5,-335 533.5,-335"/>
<text text-anchor="middle" x="605.5" y="-342" font-family="Helvetica,sans-Serif" font-size="10.00">sss::WebClient::ClearBuffers</text>
</a>
</g>
</g>
<!-- Node4&#45;&gt;Node5 -->
<g id="edge4" class="edge">
<title>Node4&#45;&gt;Node5</title>
<path fill="none" stroke="midnightblue" d="M467.06,-330.97C484.62,-332.7 504.4,-334.65 523.36,-336.51"/>
<polygon fill="midnightblue" stroke="midnightblue" points="523.2,-340.01 533.49,-337.51 523.88,-333.05 523.2,-340.01"/>
</g>
<!-- Node6 -->
<g id="node6" class="node">
<title>Node6</title>
<g id="a_node6"><a xlink:href="classsss_1_1WebClient.html#a96837f149bb473853a6523d096a25c56" target="_top" xlink:title="Reset read/write functions to default.">
<polygon fill="none" stroke="black" points="518,-297 518,-316 693,-316 693,-297 518,-297"/>
<text text-anchor="middle" x="605.5" y="-304" font-family="Helvetica,sans-Serif" font-size="10.00">sss::WebClient::ResetRWFunctions</text>
</a>
</g>
</g>
<!-- Node4&#45;&gt;Node6 -->
<g id="edge5" class="edge">
<title>Node4&#45;&gt;Node6</title>
<path fill="none" stroke="midnightblue" d="M467.06,-320.03C479.79,-318.78 493.68,-317.41 507.58,-316.04"/>
<polygon fill="midnightblue" stroke="midnightblue" points="508.08,-319.51 517.69,-315.05 507.39,-312.54 508.08,-319.51"/>
</g>
<!-- Node4&#45;&gt;Node9 -->
<g id="edge8" class="edge">
<title>Node4&#45;&gt;Node9</title>
<path fill="none" stroke="midnightblue" d="M440.41,-335.03C453.2,-339.33 468.39,-344.54 482,-349.5 498.13,-355.38 501.57,-358.53 518,-363.5 526.65,-366.11 535.88,-368.53 544.98,-370.7"/>
<polygon fill="midnightblue" stroke="midnightblue" points="544.23,-374.12 554.76,-372.95 545.8,-367.3 544.23,-374.12"/>
</g>
<!-- Node4&#45;&gt;Node10 -->
<g id="edge9" class="edge">
<title>Node4&#45;&gt;Node10</title>
<path fill="none" stroke="midnightblue" d="M440.41,-315.97C453.2,-311.67 468.39,-306.46 482,-301.5 498.13,-295.62 501.57,-292.47 518,-287.5 526.65,-284.89 535.88,-282.47 544.98,-280.3"/>
<polygon fill="midnightblue" stroke="midnightblue" points="545.8,-283.7 554.76,-278.05 544.23,-276.88 545.8,-283.7"/>
</g>
<!-- Node4&#45;&gt;Node11 -->
<g id="edge10" class="edge">
<title>Node4&#45;&gt;Node11</title>
<path fill="none" stroke="midnightblue" d="M423.57,-335.01C455.86,-360.44 544.47,-430.22 584.46,-461.71"/>
<polygon fill="midnightblue" stroke="midnightblue" points="582.41,-464.56 592.43,-468 586.74,-459.06 582.41,-464.56"/>
</g>
<!-- Node4&#45;&gt;Node12 -->
<g id="edge11" class="edge">
<title>Node4&#45;&gt;Node12</title>
<path fill="none" stroke="midnightblue" d="M421.79,-315.93C439.83,-299.7 478.97,-266.84 518,-249.5 523.72,-246.96 529.8,-244.75 535.99,-242.82"/>
<polygon fill="midnightblue" stroke="midnightblue" points="537.12,-246.14 545.77,-240.03 535.2,-239.41 537.12,-246.14"/>
</g>
<!-- Node7 -->
<g id="node7" class="node">
<title>Node7</title>
<g id="a_node7"><a xlink:href="classsss_1_1WebClient.html#a88dbcc61562e84aa9ebf1eabf887ac28" target="_top" xlink:title=" ">
<polygon fill="none" stroke="black" points="729,-319 729,-338 894,-338 894,-319 729,-319"/>
<text text-anchor="middle" x="811.5" y="-326" font-family="Helvetica,sans-Serif" font-size="10.00">sss::WebClient::SetReadFunction</text>
</a>
</g>
</g>
<!-- Node6&#45;&gt;Node7 -->
<g id="edge6" class="edge">
<title>Node6&#45;&gt;Node7</title>
<path fill="none" stroke="midnightblue" d="M693.01,-315.83C701.52,-316.75 710.18,-317.68 718.73,-318.6"/>
<polygon fill="midnightblue" stroke="midnightblue" points="718.4,-322.09 728.72,-319.68 719.15,-315.13 718.4,-322.09"/>
</g>
<!-- Node8 -->
<g id="node8" class="node">
<title>Node8</title>
<g id="a_node8"><a xlink:href="classsss_1_1WebClient.html#a002876073b3869a9b9a9d709d14f1d7e" target="_top" xlink:title=" ">
<polygon fill="none" stroke="black" points="748,-269.5 748,-299.5 875,-299.5 875,-269.5 748,-269.5"/>
<text text-anchor="start" x="756" y="-287.5" font-family="Helvetica,sans-Serif" font-size="10.00">sss::WebClient::SetWrite</text>
<text text-anchor="middle" x="811.5" y="-276.5" font-family="Helvetica,sans-Serif" font-size="10.00">Function</text>
</a>
</g>
</g>
<!-- Node6&#45;&gt;Node8 -->
<g id="edge7" class="edge">
<title>Node6&#45;&gt;Node8</title>
<path fill="none" stroke="midnightblue" d="M693.01,-297.17C707.87,-295.57 723.17,-293.92 737.63,-292.36"/>
<polygon fill="midnightblue" stroke="midnightblue" points="738.41,-295.79 747.98,-291.24 737.66,-288.83 738.41,-295.79"/>
</g>
<!-- Node21 -->
<g id="node21" class="node">
<title>Node21</title>
<g id="a_node21"><a xlink:href="group__Internal.html#ga6e3db8d156313abef7e2c966df1a3d7c" target="_top" xlink:title=" ">
<polygon fill="none" stroke="black" points="368.5,-6 368.5,-25 452.5,-25 452.5,-6 368.5,-6"/>
<text text-anchor="middle" x="410.5" y="-13" font-family="Helvetica,sans-Serif" font-size="10.00">sss::UrlEncode</text>
</a>
</g>
</g>
<!-- Node20&#45;&gt;Node21 -->
<g id="edge24" class="edge">
<title>Node20&#45;&gt;Node21</title>
<path fill="none" stroke="midnightblue" d="M303.05,-15.5C321.62,-15.5 341.04,-15.5 358.13,-15.5"/>
<polygon fill="midnightblue" stroke="midnightblue" points="358.44,-19 368.44,-15.5 358.44,-12 358.44,-19"/>
</g>
<!-- Node22&#45;&gt;Node16 -->
<g id="edge27" class="edge">
<title>Node22&#45;&gt;Node16</title>
<path fill="none" stroke="midnightblue" d="M296.21,-139.21C307.77,-138.84 319.82,-138.44 331.57,-138.05"/>
<polygon fill="midnightblue" stroke="midnightblue" points="331.92,-141.55 341.8,-137.72 331.69,-134.55 331.92,-141.55"/>
</g>
<!-- Node22&#45;&gt;Node19 -->
<g id="edge26" class="edge">
<title>Node22&#45;&gt;Node19</title>
<path fill="none" stroke="midnightblue" d="M288.97,-126.48C312.22,-120.89 338.27,-114.63 360.18,-109.36"/>
<polygon fill="midnightblue" stroke="midnightblue" points="361.03,-112.75 369.94,-107.01 359.4,-105.95 361.03,-112.75"/>
</g>
</g>
</svg>
        <g id="navigator" transform="translate(0 0)" fill="#404254">
                <rect fill="#f2f5e9" fill-opacity="0.5" stroke="#606060" stroke-width=".5" x="0" y="0" width="60" height="60"/>
                <use id="zoomplus" xlink:href="#zoomPlus" x="17" y="9" onmousedown="handleZoom(evt,'in')"/>
                <use id="zoomminus" xlink:href="#zoomMin" x="42" y="9" onmousedown="handleZoom(evt,'out')"/>
                <use id="reset" xlink:href="#resetDef" x="30" y="36" onmousedown="handleReset()"/>
                <g id="arrowUp" xlink:href="#dirArrow" transform="translate(30 24)" onmousedown="handlePan(0,-1)">
                  <use xlink:href="#rim" fill="#404040">
                        <set attributeName="fill" to="#808080" begin="arrowUp.mouseover" end="arrowUp.mouseout"/>
                  </use>
                  <path fill="none" stroke="white" stroke-width="1.5" d="M0,-3.0v7 M-2.5,-0.5L0,-3.0L2.5,-0.5"/>
                </g>
                <g id="arrowRight" xlink:href="#dirArrow" transform="rotate(90) translate(36 -43)" onmousedown="handlePan(1,0)">
                  <use xlink:href="#rim" fill="#404040">
                        <set attributeName="fill" to="#808080" begin="arrowRight.mouseover" end="arrowRight.mouseout"/>
                  </use>
                  <path fill="none" stroke="white" stroke-width="1.5" d="M0,-3.0v7 M-2.5,-0.5L0,-3.0L2.5,-0.5"/>
                </g>
                <g id="arrowDown" xlink:href="#dirArrow" transform="rotate(180) translate(-30 -48)" onmousedown="handlePan(0,1)">
                  <use xlink:href="#rim" fill="#404040">
                        <set attributeName="fill" to="#808080" begin="arrowDown.mouseover" end="arrowDown.mouseout"/>
                  </use>
                  <path fill="none" stroke="white" stroke-width="1.5" d="M0,-3.0v7 M-2.5,-0.5L0,-3.0L2.5,-0.5"/>
                </g>
                <g id="arrowLeft" xlink:href="#dirArrow" transform="rotate(270) translate(-36 17)" onmousedown="handlePan(-1,0)">
                  <use xlink:href="#rim" fill="#404040">
                        <set attributeName="fill" to="#808080" begin="arrowLeft.mouseover" end="arrowLeft.mouseout"/>
                  </use>
                  <path fill="none" stroke="white" stroke-width="1.5" d="M0,-3.0v7 M-2.5,-0.5L0,-3.0L2.5,-0.5"/>
                </g>
        </g>
        <svg viewBox="0 0 15 15" width="100%" height="30px" preserveAspectRatio="xMaxYMin meet">
         <g id="arrow_out" transform="scale(0.3 0.3)">
          <a xlink:href="classsss_1_1api_1_1S3Api_a02b4f0c95255f151beb72f0a6bdf5889_cgraph_org.svg" target="_base">
           <rect id="button" ry="5" rx="5" y="6" x="6" height="38" width="38"
                fill="#f2f5e9" fill-opacity="0.5" stroke="#606060" stroke-width="1.0"/>
           <path id="arrow"
             d="M 11.500037,31.436501 C 11.940474,20.09759 22.043105,11.32322 32.158766,21.979434 L 37.068811,17.246167 C 37.068811,17.246167 37.088388,32 37.088388,32 L 22.160133,31.978069 C 22.160133,31.978069 26.997745,27.140456 26.997745,27.140456 C 18.528582,18.264221 13.291696,25.230495 11.500037,31.436501 z"
             style="fill:#404040;"/>
          </a>
         </g>
        </svg>
</svg>
