<?xml version="1.0" encoding="UTF-8" standalone="no"?>
<!DOCTYPE svg PUBLIC "-//W3C//DTD SVG 1.1//EN"
 "http://www.w3.org/Graphics/SVG/1.1/DTD/svg11.dtd">
<!-- Generated by graphviz version 2.43.0 (0)
 -->
<!-- Title: sss::api::S3Api::CreateBucket Pages: 1 -->
<!--zoomable 545 -->
<svg id="main" version="1.1" xmlns="http://www.w3.org/2000/svg" xmlns:xlink="http://www.w3.org/1999/xlink" xml:space="preserve" onload="init(evt)">
<style type="text/css"><![CDATA[
.edge:hover path { stroke: red; }
.edge:hover polygon { stroke: red; fill: red; }
]]></style>
<script type="text/javascript"><![CDATA[
var edges = document.getElementsByTagName('g');
if (edges && edges.length) {
  for (var i=0;i<edges.length;i++) {
    if (edges[i].id.substr(0,4)=='edge') {
      edges[i].setAttribute('class','edge');
    }
  }
}
]]></script>
        <defs>
                <circle id="rim" cx="0" cy="0" r="7"/>
                <circle id="rim2" cx="0" cy="0" r="3.5"/>
                <g id="zoomPlus">
                        <use xlink:href="#rim" fill="#404040">
                                <set attributeName="fill" to="#808080" begin="zoomplus.mouseover" end="zoomplus.mouseout"/>
                        </use>
                        <path d="M-4,0h8M0,-4v8" fill="none" stroke="white" stroke-width="1.5" pointer-events="none"/>
                </g>
                <g id="zoomMin">
                        <use xlink:href="#rim" fill="#404040">
                                <set attributeName="fill" to="#808080" begin="zoomminus.mouseover" end="zoomminus.mouseout"/>
                        </use>
                        <path d="M-4,0h8" fill="none" stroke="white" stroke-width="1.5" pointer-events="none"/>
                </g>
                <g id="dirArrow">
                        <path fill="none" stroke="white" stroke-width="1.5" d="M0,-3.0v7 M-2.5,-0.5L0,-3.0L2.5,-0.5"/>
                </g>
               <g id="resetDef">
                       <use xlink:href="#rim2" fill="#404040">
                               <set attributeName="fill" to="#808080" begin="reset.mouseover" end="reset.mouseout"/>
                       </use>
               </g>
        </defs>

<script type="text/javascript">
var viewWidth = 1130;
var viewHeight = 545;
var sectionId = 'dynsection-5';
</script>
<script xlink:href="svgpan.js"/>
<svg id="graph" class="graph">
<g id="viewport">
<title>sss::api::S3Api::CreateBucket</title>
<!-- Node1 -->
<g id="node1" class="node">
<title>Node1</title>
<g id="a_node1"><a xlink:title="Create bucket.">
<polygon fill="#bfbfbf" stroke="black" points="0,-369.5 0,-388.5 149,-388.5 149,-369.5 0,-369.5"/>
<text text-anchor="middle" x="74.5" y="-376.5" font-family="Helvetica,sans-Serif" font-size="10.00">sss::api::S3Api::CreateBucket</text>
</a>
</g>
</g>
<!-- Node2 -->
<g id="node2" class="node">
<title>Node2</title>
<g id="a_node2"><a xlink:href="classsss_1_1WebClient.html#a42af351286f1fa68c3385d81f0bc2015" target="_top" xlink:title=" ">
<polygon fill="none" stroke="black" points="185,-468.5 185,-487.5 340,-487.5 340,-468.5 185,-468.5"/>
<text text-anchor="middle" x="262.5" y="-475.5" font-family="Helvetica,sans-Serif" font-size="10.00">sss::WebClient::GetHeaderText</text>
</a>
</g>
</g>
<!-- Node1&#45;&gt;Node2 -->
<g id="edge1" class="edge">
<title>Node1&#45;&gt;Node2</title>
<path fill="none" stroke="midnightblue" d="M93.67,-388.67C126.54,-406.17 196,-443.14 234.46,-463.61"/>
<polygon fill="midnightblue" stroke="midnightblue" points="233.05,-466.82 243.53,-468.43 236.34,-460.65 233.05,-466.82"/>
</g>
<!-- Node4 -->
<g id="node4" class="node">
<title>Node4</title>
<g id="a_node4"><a xlink:href="group__Internal.html#gab5b85dd69c3bfe70d89c96b77b5b46f2" target="_top" xlink:title=" ">
<polygon fill="none" stroke="black" points="212,-369.5 212,-388.5 313,-388.5 313,-369.5 212,-369.5"/>
<text text-anchor="middle" x="262.5" y="-376.5" font-family="Helvetica,sans-Serif" font-size="10.00">sss::ParseHeaders</text>
</a>
</g>
</g>
<!-- Node1&#45;&gt;Node4 -->
<g id="edge3" class="edge">
<title>Node1&#45;&gt;Node4</title>
<path fill="none" stroke="midnightblue" d="M149.01,-379C166.5,-379 184.96,-379 201.75,-379"/>
<polygon fill="midnightblue" stroke="midnightblue" points="201.96,-382.5 211.96,-379 201.96,-375.5 201.96,-382.5"/>
</g>
<!-- Node5 -->
<g id="node5" class="node">
<title>Node5</title>
<g id="a_node5"><a xlink:href="classsss_1_1api_1_1S3Api.html#a02b4f0c95255f151beb72f0a6bdf5889" target="_top" xlink:title="Send request.">
<polygon fill="none" stroke="black" points="206.5,-209.5 206.5,-228.5 318.5,-228.5 318.5,-209.5 206.5,-209.5"/>
<text text-anchor="middle" x="262.5" y="-216.5" font-family="Helvetica,sans-Serif" font-size="10.00">sss::api::S3Api::Send</text>
</a>
</g>
</g>
<!-- Node1&#45;&gt;Node5 -->
<g id="edge4" class="edge">
<title>Node1&#45;&gt;Node5</title>
<path fill="none" stroke="midnightblue" d="M86.58,-369.47C117.26,-343.08 203.63,-268.78 242.33,-235.49"/>
<polygon fill="midnightblue" stroke="midnightblue" points="244.95,-237.86 250.24,-228.68 240.38,-232.55 244.95,-237.86"/>
</g>
<!-- Node3 -->
<g id="node3" class="node">
<title>Node3</title>
<g id="a_node3"><a xlink:href="classsss_1_1WebClient.html#a0b9b001ddc7ce778a613250e27e50731" target="_top" xlink:title=" ">
<polygon fill="none" stroke="black" points="379,-506 379,-536 528,-536 528,-506 379,-506"/>
<text text-anchor="start" x="387" y="-524" font-family="Helvetica,sans-Serif" font-size="10.00">sss::WebClient::GetResponse</text>
<text text-anchor="middle" x="453.5" y="-513" font-family="Helvetica,sans-Serif" font-size="10.00">Header</text>
</a>
</g>
</g>
<!-- Node2&#45;&gt;Node3 -->
<g id="edge2" class="edge">
<title>Node2&#45;&gt;Node3</title>
<path fill="none" stroke="midnightblue" d="M305.45,-487.54C326.38,-492.31 352.35,-498.22 376.63,-503.74"/>
<polygon fill="midnightblue" stroke="midnightblue" points="376.01,-507.19 386.54,-505.99 377.57,-500.36 376.01,-507.19"/>
</g>
<!-- Node6 -->
<g id="node6" class="node">
<title>Node6</title>
<g id="a_node6"><a xlink:href="classsss_1_1api_1_1S3Api.html#a840772746fbb0a79c161037da7b24a31" target="_top" xlink:title="Configure instance.">
<polygon fill="none" stroke="black" points="394.5,-209.5 394.5,-228.5 512.5,-228.5 512.5,-209.5 394.5,-209.5"/>
<text text-anchor="middle" x="453.5" y="-216.5" font-family="Helvetica,sans-Serif" font-size="10.00">sss::api::S3Api::Config</text>
</a>
</g>
</g>
<!-- Node5&#45;&gt;Node6 -->
<g id="edge5" class="edge">
<title>Node5&#45;&gt;Node6</title>
<path fill="none" stroke="midnightblue" d="M318.67,-219C339.18,-219 362.69,-219 384.23,-219"/>
<polygon fill="midnightblue" stroke="midnightblue" points="384.29,-222.5 394.29,-219 384.29,-215.5 384.29,-222.5"/>
</g>
<!-- Node15 -->
<g id="node15" class="node">
<title>Node15</title>
<g id="a_node15"><a xlink:href="classsss_1_1WebClient.html#a51ce0ecf6487b6a43072643fe4f4cb4e" target="_top" xlink:title=" ">
<polygon fill="none" stroke="black" points="760.5,-380.5 760.5,-399.5 906.5,-399.5 906.5,-380.5 760.5,-380.5"/>
<text text-anchor="middle" x="833.5" y="-387.5" font-family="Helvetica,sans-Serif" font-size="10.00">sss::WebClient::SetPostData</text>
</a>
</g>
</g>
<!-- Node5&#45;&gt;Node15 -->
<g id="edge26" class="edge">
<title>Node5&#45;&gt;Node15</title>
<path fill="none" stroke="midnightblue" d="M273.96,-228.75C310.6,-262.15 437.94,-371.93 567,-409 643.15,-430.87 736.39,-414.92 789.67,-402.01"/>
<polygon fill="midnightblue" stroke="midnightblue" points="790.6,-405.38 799.46,-399.56 788.91,-398.59 790.6,-405.38"/>
</g>
<!-- Node22 -->
<g id="node22" class="node">
<title>Node22</title>
<g id="a_node22"><a xlink:href="group__Internal.html#ga2b8b08c2a4994a87377d83ccfa9a6a53" target="_top" xlink:title=" ">
<polygon fill="none" stroke="black" points="404.5,-32.5 404.5,-51.5 502.5,-51.5 502.5,-32.5 404.5,-32.5"/>
<text text-anchor="middle" x="453.5" y="-39.5" font-family="Helvetica,sans-Serif" font-size="10.00">sss::ParseParams</text>
</a>
</g>
</g>
<!-- Node5&#45;&gt;Node22 -->
<g id="edge24" class="edge">
<title>Node5&#45;&gt;Node22</title>
<path fill="none" stroke="midnightblue" d="M267.81,-209.47C280.43,-182.69 319.93,-106.06 376,-66 382.07,-61.66 388.96,-58.09 396.05,-55.15"/>
<polygon fill="midnightblue" stroke="midnightblue" points="397.64,-58.29 405.79,-51.52 395.2,-51.73 397.64,-58.29"/>
</g>
<!-- Node23 -->
<g id="node23" class="node">
<title>Node23</title>
<g id="a_node23"><a xlink:href="classsss_1_1WebClient.html#aa1d7484f0e09242ce53b24f9648ce50e" target="_top" xlink:title=" ">
<polygon fill="none" stroke="black" points="582.5,-0.5 582.5,-19.5 694.5,-19.5 694.5,-0.5 582.5,-0.5"/>
<text text-anchor="middle" x="638.5" y="-7.5" font-family="Helvetica,sans-Serif" font-size="10.00">sss::WebClient::Send</text>
</a>
</g>
</g>
<!-- Node5&#45;&gt;Node23 -->
<g id="edge25" class="edge">
<title>Node5&#45;&gt;Node23</title>
<path fill="none" stroke="midnightblue" d="M269.53,-209.46C284.54,-186.57 325.95,-128.26 376,-99 437.23,-63.2 468.2,-93.98 531,-61 549.95,-51.05 548.16,-39.17 567,-29 571.24,-26.71 575.77,-24.68 580.42,-22.89"/>
<polygon fill="midnightblue" stroke="midnightblue" points="581.77,-26.13 590.06,-19.53 579.47,-19.52 581.77,-26.13"/>
</g>
<!-- Node24 -->
<g id="node24" class="node">
<title>Node24</title>
<g id="a_node24"><a xlink:href="classsss_1_1WebClient.html#a7dfd984b33a29686fb0355b65b620e99" target="_top" xlink:title=" ">
<polygon fill="none" stroke="black" points="376,-457 376,-487 531,-487 531,-457 376,-457"/>
<text text-anchor="start" x="384" y="-475" font-family="Helvetica,sans-Serif" font-size="10.00">sss::WebClient::SetUrlEncoded</text>
<text text-anchor="middle" x="453.5" y="-464" font-family="Helvetica,sans-Serif" font-size="10.00">PostData</text>
</a>
</g>
</g>
<!-- Node5&#45;&gt;Node24 -->
<g id="edge27" class="edge">
<title>Node5&#45;&gt;Node24</title>
<path fill="none" stroke="midnightblue" d="M269.17,-228.77C282.26,-251.48 315.38,-309.73 340,-360 357.51,-395.75 347.3,-414.42 376,-442 379.99,-445.83 384.52,-449.19 389.34,-452.13"/>
<polygon fill="midnightblue" stroke="midnightblue" points="387.82,-455.29 398.28,-456.98 391.16,-449.13 387.82,-455.29"/>
</g>
<!-- Node26 -->
<g id="node26" class="node">
<title>Node26</title>
<g id="a_node26"><a xlink:href="classsss_1_1WebClient.html#ae7b1f77bd4ae44585f2d49ea493bdcc5" target="_top" xlink:title="Upload data from memory buffer.">
<polygon fill="none" stroke="black" points="383,-109 383,-139 524,-139 524,-109 383,-109"/>
<text text-anchor="start" x="391" y="-127" font-family="Helvetica,sans-Serif" font-size="10.00">sss::WebClient::UploadData</text>
<text text-anchor="middle" x="453.5" y="-116" font-family="Helvetica,sans-Serif" font-size="10.00">FromBuffer</text>
</a>
</g>
</g>
<!-- Node5&#45;&gt;Node26 -->
<g id="edge29" class="edge">
<title>Node5&#45;&gt;Node26</title>
<path fill="none" stroke="midnightblue" d="M282.66,-209.37C313.16,-194.04 373.36,-163.78 413.27,-143.72"/>
<polygon fill="midnightblue" stroke="midnightblue" points="415.09,-146.72 422.45,-139.1 411.95,-140.47 415.09,-146.72"/>
</g>
<!-- Node7 -->
<g id="node7" class="node">
<title>Node7</title>
<g id="a_node7"><a xlink:href="classsss_1_1api_1_1S3Api.html#a1a4e05ac14390c7f42feef2c26e22031" target="_top" xlink:title=" ">
<polygon fill="none" stroke="black" points="577.5,-304.5 577.5,-323.5 699.5,-323.5 699.5,-304.5 577.5,-304.5"/>
<text text-anchor="middle" x="638.5" y="-311.5" font-family="Helvetica,sans-Serif" font-size="10.00">sss::api::S3Api::Access</text>
</a>
</g>
</g>
<!-- Node6&#45;&gt;Node7 -->
<g id="edge6" class="edge">
<title>Node6&#45;&gt;Node7</title>
<path fill="none" stroke="midnightblue" d="M467.42,-228.58C487.76,-243.33 528.86,-271.79 567,-290 575.75,-294.18 585.41,-297.97 594.72,-301.23"/>
<polygon fill="midnightblue" stroke="midnightblue" points="593.63,-304.56 604.22,-304.45 595.87,-297.93 593.63,-304.56"/>
</g>
<!-- Node8 -->
<g id="node8" class="node">
<title>Node8</title>
<g id="a_node8"><a xlink:href="classsss_1_1api_1_1S3Api.html#a3718745d3b940462ae9f3b78f773b3a6" target="_top" xlink:title="Clear data and reset read and write functions.">
<polygon fill="none" stroke="black" points="582,-228.5 582,-247.5 695,-247.5 695,-228.5 582,-228.5"/>
<text text-anchor="middle" x="638.5" y="-235.5" font-family="Helvetica,sans-Serif" font-size="10.00">sss::api::S3Api::Clear</text>
</a>
</g>
</g>
<!-- Node6&#45;&gt;Node8 -->
<g id="edge7" class="edge">
<title>Node6&#45;&gt;Node8</title>
<path fill="none" stroke="midnightblue" d="M512.65,-225.04C531.55,-227 552.64,-229.19 572.03,-231.2"/>
<polygon fill="midnightblue" stroke="midnightblue" points="571.69,-234.69 581.99,-232.24 572.41,-227.72 571.69,-234.69"/>
</g>
<!-- Node13 -->
<g id="node13" class="node">
<title>Node13</title>
<g id="a_node13"><a xlink:href="classsss_1_1WebClient.html#a75890c14fbe4a4bbac61718a4f3c064d" target="_top" xlink:title=" ">
<polygon fill="none" stroke="black" points="763,-285.5 763,-304.5 904,-304.5 904,-285.5 763,-285.5"/>
<text text-anchor="middle" x="833.5" y="-292.5" font-family="Helvetica,sans-Serif" font-size="10.00">sss::WebClient::SetHeaders</text>
</a>
</g>
</g>
<!-- Node6&#45;&gt;Node13 -->
<g id="edge19" class="edge">
<title>Node6&#45;&gt;Node13</title>
<path fill="none" stroke="midnightblue" d="M478.7,-228.62C501.23,-237.22 535.92,-249.59 567,-257 628.59,-271.68 699.67,-281.49 752.77,-287.45"/>
<polygon fill="midnightblue" stroke="midnightblue" points="752.48,-290.94 762.8,-288.56 753.25,-283.99 752.48,-290.94"/>
</g>
<!-- Node14 -->
<g id="node14" class="node">
<title>Node14</title>
<g id="a_node14"><a xlink:href="classsss_1_1WebClient.html#a12b5db6b8c667024557ab58059d39994" target="_top" xlink:title=" ">
<polygon fill="none" stroke="black" points="771,-171.5 771,-190.5 896,-190.5 896,-171.5 771,-171.5"/>
<text text-anchor="middle" x="833.5" y="-178.5" font-family="Helvetica,sans-Serif" font-size="10.00">sss::WebClient::SetPath</text>
</a>
</g>
</g>
<!-- Node6&#45;&gt;Node14 -->
<g id="edge21" class="edge">
<title>Node6&#45;&gt;Node14</title>
<path fill="none" stroke="midnightblue" d="M512.73,-213.15C579.35,-206.45 688.48,-195.48 760.41,-188.25"/>
<polygon fill="midnightblue" stroke="midnightblue" points="761.14,-191.69 770.74,-187.21 760.44,-184.73 761.14,-191.69"/>
</g>
<!-- Node16 -->
<g id="node16" class="node">
<title>Node16</title>
<g id="a_node16"><a xlink:href="classsss_1_1WebClient.html#a9bf978d95b79728f6d60fc2bdb4fe546" target="_top" xlink:title=" ">
<polygon fill="none" stroke="black" points="747,-133.5 747,-152.5 920,-152.5 920,-133.5 747,-133.5"/>
<text text-anchor="middle" x="833.5" y="-140.5" font-family="Helvetica,sans-Serif" font-size="10.00">sss::WebClient::SetReqParameters</text>
</a>
</g>
</g>
<!-- Node6&#45;&gt;Node16 -->
<g id="edge22" class="edge">
<title>Node6&#45;&gt;Node16</title>
<path fill="none" stroke="midnightblue" d="M464.25,-209.34C482.52,-192 523.95,-156.18 567,-143 632.01,-123.1 710.24,-126.13 764.88,-132.27"/>
<polygon fill="midnightblue" stroke="midnightblue" points="764.79,-135.79 775.14,-133.5 765.62,-128.84 764.79,-135.79"/>
</g>
<!-- Node17 -->
<g id="node17" class="node">
<title>Node17</title>
<g id="a_node17"><a xlink:href="classsss_1_1api_1_1S3Api.html#a70f1068d07e1d4c1be164e0cb9328cc0" target="_top" xlink:title=" ">
<polygon fill="none" stroke="black" points="574.5,-76.5 574.5,-95.5 702.5,-95.5 702.5,-76.5 574.5,-76.5"/>
<text text-anchor="middle" x="638.5" y="-83.5" font-family="Helvetica,sans-Serif" font-size="10.00">sss::api::S3Api::Endpoint</text>
</a>
</g>
</g>
<!-- Node6&#45;&gt;Node17 -->
<g id="edge16" class="edge">
<title>Node6&#45;&gt;Node17</title>
<path fill="none" stroke="midnightblue" d="M465.6,-209.11C480.68,-195.58 508.33,-170.43 531,-148 547.53,-131.63 547.42,-122.56 567,-110 573.81,-105.63 581.5,-101.97 589.24,-98.92"/>
<polygon fill="midnightblue" stroke="midnightblue" points="590.43,-102.21 598.64,-95.51 588.04,-95.63 590.43,-102.21"/>
</g>
<!-- Node18 -->
<g id="node18" class="node">
<title>Node18</title>
<g id="a_node18"><a xlink:href="classsss_1_1api_1_1S3Api.html#acfffe29254323fb41231787a0afb7edc" target="_top" xlink:title=" ">
<polygon fill="none" stroke="black" points="579.5,-380.5 579.5,-399.5 697.5,-399.5 697.5,-380.5 579.5,-380.5"/>
<text text-anchor="middle" x="638.5" y="-387.5" font-family="Helvetica,sans-Serif" font-size="10.00">sss::api::S3Api::Secret</text>
</a>
</g>
</g>
<!-- Node6&#45;&gt;Node18 -->
<g id="edge17" class="edge">
<title>Node6&#45;&gt;Node18</title>
<path fill="none" stroke="midnightblue" d="M458.75,-228.58C471.2,-255.5 510.31,-332.34 567,-371 569.92,-372.99 573.03,-374.77 576.27,-376.36"/>
<polygon fill="midnightblue" stroke="midnightblue" points="575.08,-379.66 585.65,-380.38 577.84,-373.23 575.08,-379.66"/>
</g>
<!-- Node19 -->
<g id="node19" class="node">
<title>Node19</title>
<g id="a_node19"><a xlink:href="classsss_1_1WebClient.html#afc3b7a92568fbb1ea447918920ca266e" target="_top" xlink:title="Set endpoint: &lt;proto&gt;://&lt;server&gt;:&lt;port&gt;">
<polygon fill="none" stroke="black" points="567,-342.5 567,-361.5 710,-361.5 710,-342.5 567,-342.5"/>
<text text-anchor="middle" x="638.5" y="-349.5" font-family="Helvetica,sans-Serif" font-size="10.00">sss::WebClient::SetEndpoint</text>
</a>
</g>
</g>
<!-- Node6&#45;&gt;Node19 -->
<g id="edge18" class="edge">
<title>Node6&#45;&gt;Node19</title>
<path fill="none" stroke="midnightblue" d="M461.16,-228.63C476.9,-250.63 518.71,-304.86 567,-333 570.86,-335.25 575,-337.24 579.26,-339"/>
<polygon fill="midnightblue" stroke="midnightblue" points="578.14,-342.32 588.73,-342.5 580.56,-335.75 578.14,-342.32"/>
</g>
<!-- Node20 -->
<g id="node20" class="node">
<title>Node20</title>
<g id="a_node20"><a xlink:href="classsss_1_1WebClient.html#af6233ffd7b294e1e7e606e838dd44e9e" target="_top" xlink:title=" ">
<polygon fill="none" stroke="black" points="570,-38.5 570,-57.5 707,-57.5 707,-38.5 570,-38.5"/>
<text text-anchor="middle" x="638.5" y="-45.5" font-family="Helvetica,sans-Serif" font-size="10.00">sss::WebClient::SetMethod</text>
</a>
</g>
</g>
<!-- Node6&#45;&gt;Node20 -->
<g id="edge20" class="edge">
<title>Node6&#45;&gt;Node20</title>
<path fill="none" stroke="midnightblue" d="M467.66,-209.49C484.25,-196.96 512.77,-173.5 531,-148 553.9,-115.95 537.07,-92.62 567,-67 568.98,-65.31 571.1,-63.76 573.32,-62.35"/>
<polygon fill="midnightblue" stroke="midnightblue" points="575.12,-65.35 582.31,-57.57 571.83,-59.17 575.12,-65.35"/>
</g>
<!-- Node21 -->
<g id="node21" class="node">
<title>Node21</title>
<g id="a_node21"><a xlink:href="group__Sign.html#ga3ae8e18ef70752b7369fca66c40c526b" target="_top" xlink:title="Sign headers.">
<polygon fill="none" stroke="black" points="591,-152.5 591,-171.5 686,-171.5 686,-152.5 591,-152.5"/>
<text text-anchor="middle" x="638.5" y="-159.5" font-family="Helvetica,sans-Serif" font-size="10.00">sss::SignHeaders</text>
</a>
</g>
</g>
<!-- Node6&#45;&gt;Node21 -->
<g id="edge23" class="edge">
<title>Node6&#45;&gt;Node21</title>
<path fill="none" stroke="midnightblue" d="M485.13,-209.46C515.88,-199.88 563.4,-185.08 597.19,-174.55"/>
<polygon fill="midnightblue" stroke="midnightblue" points="598.26,-177.89 606.77,-171.57 596.18,-171.2 598.26,-177.89"/>
</g>
<!-- Node9 -->
<g id="node9" class="node">
<title>Node9</title>
<g id="a_node9"><a xlink:href="classsss_1_1WebClient.html#a381f5715b7a2f19a0d4414d278874bae" target="_top" xlink:title="Clear internal buffers.">
<polygon fill="none" stroke="black" points="761.5,-209.5 761.5,-228.5 905.5,-228.5 905.5,-209.5 761.5,-209.5"/>
<text text-anchor="middle" x="833.5" y="-216.5" font-family="Helvetica,sans-Serif" font-size="10.00">sss::WebClient::ClearBuffers</text>
</a>
</g>
</g>
<!-- Node8&#45;&gt;Node9 -->
<g id="edge8" class="edge">
<title>Node8&#45;&gt;Node9</title>
<path fill="none" stroke="midnightblue" d="M695.06,-232.53C712.62,-230.8 732.4,-228.85 751.36,-226.99"/>
<polygon fill="midnightblue" stroke="midnightblue" points="751.88,-230.45 761.49,-225.99 751.2,-223.49 751.88,-230.45"/>
</g>
<!-- Node10 -->
<g id="node10" class="node">
<title>Node10</title>
<g id="a_node10"><a xlink:href="classsss_1_1WebClient.html#a96837f149bb473853a6523d096a25c56" target="_top" xlink:title="Reset read/write functions to default.">
<polygon fill="none" stroke="black" points="746,-247.5 746,-266.5 921,-266.5 921,-247.5 746,-247.5"/>
<text text-anchor="middle" x="833.5" y="-254.5" font-family="Helvetica,sans-Serif" font-size="10.00">sss::WebClient::ResetRWFunctions</text>
</a>
</g>
</g>
<!-- Node8&#45;&gt;Node10 -->
<g id="edge9" class="edge">
<title>Node8&#45;&gt;Node10</title>
<path fill="none" stroke="midnightblue" d="M695.06,-243.47C707.79,-244.72 721.68,-246.09 735.58,-247.46"/>
<polygon fill="midnightblue" stroke="midnightblue" points="735.39,-250.96 745.69,-248.45 736.08,-243.99 735.39,-250.96"/>
</g>
<!-- Node8&#45;&gt;Node13 -->
<g id="edge12" class="edge">
<title>Node8&#45;&gt;Node13</title>
<path fill="none" stroke="midnightblue" d="M668.41,-247.53C681.2,-251.83 696.39,-257.04 710,-262 726.13,-267.88 729.57,-271.03 746,-276 754.65,-278.61 763.88,-281.03 772.98,-283.2"/>
<polygon fill="midnightblue" stroke="midnightblue" points="772.23,-286.62 782.76,-285.45 773.8,-279.8 772.23,-286.62"/>
</g>
<!-- Node8&#45;&gt;Node14 -->
<g id="edge13" class="edge">
<title>Node8&#45;&gt;Node14</title>
<path fill="none" stroke="midnightblue" d="M668.41,-228.47C681.2,-224.17 696.39,-218.96 710,-214 726.13,-208.12 729.57,-204.97 746,-200 754.65,-197.39 763.88,-194.97 772.98,-192.8"/>
<polygon fill="midnightblue" stroke="midnightblue" points="773.8,-196.2 782.76,-190.55 772.23,-189.38 773.8,-196.2"/>
</g>
<!-- Node8&#45;&gt;Node15 -->
<g id="edge14" class="edge">
<title>Node8&#45;&gt;Node15</title>
<path fill="none" stroke="midnightblue" d="M651.57,-247.51C683.86,-272.94 772.47,-342.72 812.46,-374.21"/>
<polygon fill="midnightblue" stroke="midnightblue" points="810.41,-377.06 820.43,-380.5 814.74,-371.56 810.41,-377.06"/>
</g>
<!-- Node8&#45;&gt;Node16 -->
<g id="edge15" class="edge">
<title>Node8&#45;&gt;Node16</title>
<path fill="none" stroke="midnightblue" d="M649.79,-228.43C667.83,-212.2 706.97,-179.34 746,-162 751.72,-159.46 757.8,-157.25 763.99,-155.32"/>
<polygon fill="midnightblue" stroke="midnightblue" points="765.12,-158.64 773.77,-152.53 763.2,-151.91 765.12,-158.64"/>
</g>
<!-- Node11 -->
<g id="node11" class="node">
<title>Node11</title>
<g id="a_node11"><a xlink:href="classsss_1_1WebClient.html#a88dbcc61562e84aa9ebf1eabf887ac28" target="_top" xlink:title=" ">
<polygon fill="none" stroke="black" points="957,-269.5 957,-288.5 1122,-288.5 1122,-269.5 957,-269.5"/>
<text text-anchor="middle" x="1039.5" y="-276.5" font-family="Helvetica,sans-Serif" font-size="10.00">sss::WebClient::SetReadFunction</text>
</a>
</g>
</g>
<!-- Node10&#45;&gt;Node11 -->
<g id="edge10" class="edge">
<title>Node10&#45;&gt;Node11</title>
<path fill="none" stroke="midnightblue" d="M921.01,-266.33C929.52,-267.25 938.18,-268.18 946.73,-269.1"/>
<polygon fill="midnightblue" stroke="midnightblue" points="946.4,-272.59 956.72,-270.18 947.15,-265.63 946.4,-272.59"/>
</g>
<!-- Node12 -->
<g id="node12" class="node">
<title>Node12</title>
<g id="a_node12"><a xlink:href="classsss_1_1WebClient.html#a002876073b3869a9b9a9d709d14f1d7e" target="_top" xlink:title=" ">
<polygon fill="none" stroke="black" points="976,-220 976,-250 1103,-250 1103,-220 976,-220"/>
<text text-anchor="start" x="984" y="-238" font-family="Helvetica,sans-Serif" font-size="10.00">sss::WebClient::SetWrite</text>
<text text-anchor="middle" x="1039.5" y="-227" font-family="Helvetica,sans-Serif" font-size="10.00">Function</text>
</a>
</g>
</g>
<!-- Node10&#45;&gt;Node12 -->
<g id="edge11" class="edge">
<title>Node10&#45;&gt;Node12</title>
<path fill="none" stroke="midnightblue" d="M921.01,-247.67C935.87,-246.07 951.17,-244.42 965.63,-242.86"/>
<polygon fill="midnightblue" stroke="midnightblue" points="966.41,-246.29 975.98,-241.74 965.66,-239.33 966.41,-246.29"/>
</g>
<!-- Node25 -->
<g id="node25" class="node">
<title>Node25</title>
<g id="a_node25"><a xlink:href="group__Internal.html#ga6e3db8d156313abef7e2c966df1a3d7c" target="_top" xlink:title=" ">
<polygon fill="none" stroke="black" points="596.5,-462.5 596.5,-481.5 680.5,-481.5 680.5,-462.5 596.5,-462.5"/>
<text text-anchor="middle" x="638.5" y="-469.5" font-family="Helvetica,sans-Serif" font-size="10.00">sss::UrlEncode</text>
</a>
</g>
</g>
<!-- Node24&#45;&gt;Node25 -->
<g id="edge28" class="edge">
<title>Node24&#45;&gt;Node25</title>
<path fill="none" stroke="midnightblue" d="M531.05,-472C549.62,-472 569.04,-472 586.13,-472"/>
<polygon fill="midnightblue" stroke="midnightblue" points="586.44,-475.5 596.44,-472 586.44,-468.5 586.44,-475.5"/>
</g>
<!-- Node26&#45;&gt;Node20 -->
<g id="edge31" class="edge">
<title>Node26&#45;&gt;Node20</title>
<path fill="none" stroke="midnightblue" d="M498.72,-109C509.54,-104.7 520.91,-99.63 531,-94 548.47,-84.26 549.02,-75.76 567,-67 571.84,-64.64 577.02,-62.54 582.29,-60.68"/>
<polygon fill="midnightblue" stroke="midnightblue" points="583.39,-64 591.82,-57.58 581.23,-57.34 583.39,-64"/>
</g>
<!-- Node26&#45;&gt;Node23 -->
<g id="edge30" class="edge">
<title>Node26&#45;&gt;Node23</title>
<path fill="none" stroke="midnightblue" d="M507.46,-108.84C515.92,-104.9 524.13,-100.02 531,-94 555.84,-72.24 541,-49.35 567,-29 569.34,-27.17 571.84,-25.51 574.46,-24.02"/>
<polygon fill="midnightblue" stroke="midnightblue" points="576.25,-27.04 583.71,-19.52 573.19,-20.74 576.25,-27.04"/>
</g>
</g>
</svg>
        <g id="navigator" transform="translate(0 0)" fill="#404254">
                <rect fill="#f2f5e9" fill-opacity="0.5" stroke="#606060" stroke-width=".5" x="0" y="0" width="60" height="60"/>
                <use id="zoomplus" xlink:href="#zoomPlus" x="17" y="9" onmousedown="handleZoom(evt,'in')"/>
                <use id="zoomminus" xlink:href="#zoomMin" x="42" y="9" onmousedown="handleZoom(evt,'out')"/>
                <use id="reset" xlink:href="#resetDef" x="30" y="36" onmousedown="handleReset()"/>
                <g id="arrowUp" xlink:href="#dirArrow" transform="translate(30 24)" onmousedown="handlePan(0,-1)">
                  <use xlink:href="#rim" fill="#404040">
                        <set attributeName="fill" to="#808080" begin="arrowUp.mouseover" end="arrowUp.mouseout"/>
                  </use>
                  <path fill="none" stroke="white" stroke-width="1.5" d="M0,-3.0v7 M-2.5,-0.5L0,-3.0L2.5,-0.5"/>
                </g>
                <g id="arrowRight" xlink:href="#dirArrow" transform="rotate(90) translate(36 -43)" onmousedown="handlePan(1,0)">
                  <use xlink:href="#rim" fill="#404040">
                        <set attributeName="fill" to="#808080" begin="arrowRight.mouseover" end="arrowRight.mouseout"/>
                  </use>
                  <path fill="none" stroke="white" stroke-width="1.5" d="M0,-3.0v7 M-2.5,-0.5L0,-3.0L2.5,-0.5"/>
                </g>
                <g id="arrowDown" xlink:href="#dirArrow" transform="rotate(180) translate(-30 -48)" onmousedown="handlePan(0,1)">
                  <use xlink:href="#rim" fill="#404040">
                        <set attributeName="fill" to="#808080" begin="arrowDown.mouseover" end="arrowDown.mouseout"/>
                  </use>
                  <path fill="none" stroke="white" stroke-width="1.5" d="M0,-3.0v7 M-2.5,-0.5L0,-3.0L2.5,-0.5"/>
                </g>
                <g id="arrowLeft" xlink:href="#dirArrow" transform="rotate(270) translate(-36 17)" onmousedown="handlePan(-1,0)">
                  <use xlink:href="#rim" fill="#404040">
                        <set attributeName="fill" to="#808080" begin="arrowLeft.mouseover" end="arrowLeft.mouseout"/>
                  </use>
                  <path fill="none" stroke="white" stroke-width="1.5" d="M0,-3.0v7 M-2.5,-0.5L0,-3.0L2.5,-0.5"/>
                </g>
        </g>
        <svg viewBox="0 0 15 15" width="100%" height="30px" preserveAspectRatio="xMaxYMin meet">
         <g id="arrow_out" transform="scale(0.3 0.3)">
          <a xlink:href="classsss_1_1api_1_1S3Api_abea2ccea14a042c7c0d4b2ce5266ea5f_cgraph_org.svg" target="_base">
           <rect id="button" ry="5" rx="5" y="6" x="6" height="38" width="38"
                fill="#f2f5e9" fill-opacity="0.5" stroke="#606060" stroke-width="1.0"/>
           <path id="arrow"
             d="M 11.500037,31.436501 C 11.940474,20.09759 22.043105,11.32322 32.158766,21.979434 L 37.068811,17.246167 C 37.068811,17.246167 37.088388,32 37.088388,32 L 22.160133,31.978069 C 22.160133,31.978069 26.997745,27.140456 26.997745,27.140456 C 18.528582,18.264221 13.291696,25.230495 11.500037,31.436501 z"
             style="fill:#404040;"/>
          </a>
         </g>
        </svg>
</svg>
