<?xml version="1.0" encoding="UTF-8" standalone="no"?>
<!DOCTYPE svg PUBLIC "-//W3C//DTD SVG 1.1//EN"
 "http://www.w3.org/Graphics/SVG/1.1/DTD/svg11.dtd">
<!-- Generated by graphviz version 2.43.0 (0)
 -->
<!-- Title: sss::WebClient::Send Pages: 1 -->
<svg width="866pt" height="671pt"
 viewBox="0.00 0.00 866.00 670.50" xmlns="http://www.w3.org/2000/svg" xmlns:xlink="http://www.w3.org/1999/xlink">
<g id="graph0" class="graph" transform="scale(1 1) rotate(0) translate(4 666.5)">
<title>sss::WebClient::Send</title>
<!-- Node1 -->
<g id="node1" class="node">
<title>Node1</title>
<g id="a_node1"><a xlink:title=" ">
<polygon fill="#bfbfbf" stroke="black" points="746,-263.5 746,-282.5 858,-282.5 858,-263.5 746,-263.5"/>
<text text-anchor="middle" x="802" y="-270.5" font-family="Helvetica,sans-Serif" font-size="10.00">sss::WebClient::Send</text>
</a>
</g>
</g>
<!-- Node2 -->
<g id="node2" class="node">
<title>Node2</title>
<g id="a_node2"><a xlink:href="classsss_1_1api_1_1S3Api.html#a1196f1cb9ce1e5d69336e9b8dbb5d59c" target="_top" xlink:title="Download object into file.">
<polygon fill="none" stroke="black" points="579,-346 579,-376 700,-376 700,-346 579,-346"/>
<text text-anchor="start" x="587" y="-364" font-family="Helvetica,sans-Serif" font-size="10.00">sss::api::S3Api::GetFile</text>
<text text-anchor="middle" x="639.5" y="-353" font-family="Helvetica,sans-Serif" font-size="10.00">Object</text>
</a>
</g>
</g>
<!-- Node1&#45;&gt;Node2 -->
<g id="edge1" class="edge">
<title>Node1&#45;&gt;Node2</title>
<path fill="none" stroke="midnightblue" d="M778.91,-288.49C760.84,-300.82 734.39,-318.07 710,-331 700.01,-336.29 688.89,-341.42 678.53,-345.89"/>
<polygon fill="midnightblue" stroke="midnightblue" points="781.29,-291.11 787.54,-282.55 777.32,-285.34 781.29,-291.11"/>
</g>
<!-- Node3 -->
<g id="node3" class="node">
<title>Node3</title>
<g id="a_node3"><a xlink:href="classsss_1_1api_1_1S3Api.html#a02b4f0c95255f151beb72f0a6bdf5889" target="_top" xlink:title="Send request.">
<polygon fill="none" stroke="black" points="401,-304.5 401,-323.5 513,-323.5 513,-304.5 401,-304.5"/>
<text text-anchor="middle" x="457" y="-311.5" font-family="Helvetica,sans-Serif" font-size="10.00">sss::api::S3Api::Send</text>
</a>
</g>
</g>
<!-- Node1&#45;&gt;Node3 -->
<g id="edge2" class="edge">
<title>Node1&#45;&gt;Node3</title>
<path fill="none" stroke="midnightblue" d="M760.67,-285.4C744.99,-289.76 726.8,-294.24 710,-297 642.93,-308 564.7,-311.91 513.4,-313.29"/>
<polygon fill="midnightblue" stroke="midnightblue" points="761.91,-288.69 770.57,-282.58 759.99,-281.96 761.91,-288.69"/>
</g>
<!-- Node23 -->
<g id="node23" class="node">
<title>Node23</title>
<g id="a_node23"><a xlink:href="classsss_1_1WebClient.html#ae7b1f77bd4ae44585f2d49ea493bdcc5" target="_top" xlink:title="Upload data from memory buffer.">
<polygon fill="none" stroke="black" points="569,-258 569,-288 710,-288 710,-258 569,-258"/>
<text text-anchor="start" x="577" y="-276" font-family="Helvetica,sans-Serif" font-size="10.00">sss::WebClient::UploadData</text>
<text text-anchor="middle" x="639.5" y="-265" font-family="Helvetica,sans-Serif" font-size="10.00">FromBuffer</text>
</a>
</g>
</g>
<!-- Node1&#45;&gt;Node23 -->
<g id="edge22" class="edge">
<title>Node1&#45;&gt;Node23</title>
<path fill="none" stroke="midnightblue" d="M735.61,-273C727.18,-273 718.51,-273 710.01,-273"/>
<polygon fill="midnightblue" stroke="midnightblue" points="735.77,-276.5 745.77,-273 735.76,-269.5 735.77,-276.5"/>
</g>
<!-- Node25 -->
<g id="node25" class="node">
<title>Node25</title>
<g id="a_node25"><a xlink:href="classsss_1_1WebClient.html#ad038e41cfc902f6e49754c52a9a71992" target="_top" xlink:title="Upload file.">
<polygon fill="none" stroke="black" points="571.5,-219.5 571.5,-238.5 707.5,-238.5 707.5,-219.5 571.5,-219.5"/>
<text text-anchor="middle" x="639.5" y="-226.5" font-family="Helvetica,sans-Serif" font-size="10.00">sss::WebClient::UploadFile</text>
</a>
</g>
</g>
<!-- Node1&#45;&gt;Node25 -->
<g id="edge25" class="edge">
<title>Node1&#45;&gt;Node25</title>
<path fill="none" stroke="midnightblue" d="M756.51,-260.77C741.72,-256.7 725.15,-252.15 710,-248 698.78,-244.93 686.54,-241.58 675.5,-238.56"/>
<polygon fill="midnightblue" stroke="midnightblue" points="755.86,-264.22 766.43,-263.49 757.72,-257.47 755.86,-264.22"/>
</g>
<!-- Node26 -->
<g id="node26" class="node">
<title>Node26</title>
<g id="a_node26"><a xlink:href="classsss_1_1WebClient.html#accb4e986d73bb44149918fa0043ec43b" target="_top" xlink:title="Upload file starting from offset using unbuffered I/O read.">
<polygon fill="none" stroke="black" points="571.5,-170 571.5,-200 707.5,-200 707.5,-170 571.5,-170"/>
<text text-anchor="start" x="579.5" y="-188" font-family="Helvetica,sans-Serif" font-size="10.00">sss::WebClient::UploadFile</text>
<text text-anchor="middle" x="639.5" y="-177" font-family="Helvetica,sans-Serif" font-size="10.00">Unbuffered</text>
</a>
</g>
</g>
<!-- Node1&#45;&gt;Node26 -->
<g id="edge26" class="edge">
<title>Node1&#45;&gt;Node26</title>
<path fill="none" stroke="midnightblue" d="M781.34,-257.14C763.53,-243.32 736.13,-223.45 710,-210 702.93,-206.36 695.21,-203.02 687.57,-200.04"/>
<polygon fill="midnightblue" stroke="midnightblue" points="779.25,-259.94 789.27,-263.38 783.58,-254.44 779.25,-259.94"/>
</g>
<!-- Node4 -->
<g id="node4" class="node">
<title>Node4</title>
<g id="a_node4"><a xlink:href="classsss_1_1api_1_1S3Api.html#a4ea265566c3c4335ec01201cdc4410c6" target="_top" xlink:title="Abort multipart upload.">
<polygon fill="none" stroke="black" points="192,-632 192,-662 342,-662 342,-632 192,-632"/>
<text text-anchor="start" x="200" y="-650" font-family="Helvetica,sans-Serif" font-size="10.00">sss::api::S3Api::AbortMultipart</text>
<text text-anchor="middle" x="267" y="-639" font-family="Helvetica,sans-Serif" font-size="10.00">Upload</text>
</a>
</g>
</g>
<!-- Node3&#45;&gt;Node4 -->
<g id="edge3" class="edge">
<title>Node3&#45;&gt;Node4</title>
<path fill="none" stroke="midnightblue" d="M454.8,-333.71C450.42,-387.97 430.69,-540.9 345,-623 341.46,-626.39 337.45,-629.3 333.16,-631.8"/>
<polygon fill="midnightblue" stroke="midnightblue" points="458.29,-333.92 455.52,-323.7 451.31,-333.42 458.29,-333.92"/>
</g>
<!-- Node5 -->
<g id="node5" class="node">
<title>Node5</title>
<g id="a_node5"><a xlink:href="classsss_1_1api_1_1S3Api.html#a98f999a216121118dd569c7ef0c28ff3" target="_top" xlink:title="Complete multipart upload.">
<polygon fill="none" stroke="black" points="201.5,-583 201.5,-613 332.5,-613 332.5,-583 201.5,-583"/>
<text text-anchor="start" x="209.5" y="-601" font-family="Helvetica,sans-Serif" font-size="10.00">sss::api::S3Api::Complete</text>
<text text-anchor="middle" x="267" y="-590" font-family="Helvetica,sans-Serif" font-size="10.00">MultipartUpload</text>
</a>
</g>
</g>
<!-- Node3&#45;&gt;Node5 -->
<g id="edge4" class="edge">
<title>Node3&#45;&gt;Node5</title>
<path fill="none" stroke="midnightblue" d="M453.21,-333.62C445.34,-381.6 418.58,-505.82 345,-573 340.74,-576.89 335.88,-580.17 330.7,-582.94"/>
<polygon fill="midnightblue" stroke="midnightblue" points="456.68,-334.04 454.75,-323.62 449.76,-332.97 456.68,-334.04"/>
</g>
<!-- Node6 -->
<g id="node6" class="node">
<title>Node6</title>
<g id="a_node6"><a xlink:href="classsss_1_1api_1_1S3Api.html#ad890bd1ecfc978df24b2c3ed641e4081" target="_top" xlink:title="Create bucket.">
<polygon fill="none" stroke="black" points="192.5,-544.5 192.5,-563.5 341.5,-563.5 341.5,-544.5 192.5,-544.5"/>
<text text-anchor="middle" x="267" y="-551.5" font-family="Helvetica,sans-Serif" font-size="10.00">sss::api::S3Api::CreateBucket</text>
</a>
</g>
</g>
<!-- Node3&#45;&gt;Node6 -->
<g id="edge5" class="edge">
<title>Node3&#45;&gt;Node6</title>
<path fill="none" stroke="midnightblue" d="M451.97,-333.65C442,-377.07 411.99,-481.53 345,-535 340.16,-538.87 334.64,-541.96 328.83,-544.43"/>
<polygon fill="midnightblue" stroke="midnightblue" points="455.41,-334.29 454.13,-323.78 448.57,-332.8 455.41,-334.29"/>
</g>
<!-- Node7 -->
<g id="node7" class="node">
<title>Node7</title>
<g id="a_node7"><a xlink:href="classsss_1_1api_1_1S3Api.html#a1796fafda3d90a4292a611ce1999433b" target="_top" xlink:title="Create multipart upload.">
<polygon fill="none" stroke="black" points="189,-495 189,-525 345,-525 345,-495 189,-495"/>
<text text-anchor="start" x="197" y="-513" font-family="Helvetica,sans-Serif" font-size="10.00">sss::api::S3Api::CreateMultipart</text>
<text text-anchor="middle" x="267" y="-502" font-family="Helvetica,sans-Serif" font-size="10.00">Upload</text>
</a>
</g>
</g>
<!-- Node3&#45;&gt;Node7 -->
<g id="edge6" class="edge">
<title>Node3&#45;&gt;Node7</title>
<path fill="none" stroke="midnightblue" d="M448.59,-333.39C434.11,-368.74 398.69,-443.8 345,-485 339.98,-488.85 334.35,-492.12 328.47,-494.89"/>
<polygon fill="midnightblue" stroke="midnightblue" points="451.97,-334.37 452.41,-323.78 445.46,-331.78 451.97,-334.37"/>
</g>
<!-- Node8 -->
<g id="node8" class="node">
<title>Node8</title>
<g id="a_node8"><a xlink:href="classsss_1_1api_1_1S3Api.html#a3d63825d1916e4ba3ca13122c7660603" target="_top" xlink:title="Delete bucket.">
<polygon fill="none" stroke="black" points="192.5,-456.5 192.5,-475.5 341.5,-475.5 341.5,-456.5 192.5,-456.5"/>
<text text-anchor="middle" x="267" y="-463.5" font-family="Helvetica,sans-Serif" font-size="10.00">sss::api::S3Api::DeleteBucket</text>
</a>
</g>
</g>
<!-- Node3&#45;&gt;Node8 -->
<g id="edge7" class="edge">
<title>Node3&#45;&gt;Node8</title>
<path fill="none" stroke="midnightblue" d="M445.78,-332.6C428.81,-361.68 391.97,-417.64 345,-447 338.81,-450.87 331.89,-453.95 324.79,-456.4"/>
<polygon fill="midnightblue" stroke="midnightblue" points="448.86,-334.26 450.76,-323.84 442.78,-330.8 448.86,-334.26"/>
</g>
<!-- Node9 -->
<g id="node9" class="node">
<title>Node9</title>
<g id="a_node9"><a xlink:href="classsss_1_1api_1_1S3Api.html#a14a75f15eb71fbba8639673100768b67" target="_top" xlink:title="Delete object.">
<polygon fill="none" stroke="black" points="194,-418.5 194,-437.5 340,-437.5 340,-418.5 194,-418.5"/>
<text text-anchor="middle" x="267" y="-425.5" font-family="Helvetica,sans-Serif" font-size="10.00">sss::api::S3Api::DeleteObject</text>
</a>
</g>
</g>
<!-- Node3&#45;&gt;Node9 -->
<g id="edge8" class="edge">
<title>Node3&#45;&gt;Node9</title>
<path fill="none" stroke="midnightblue" d="M440.84,-331.19C420.96,-352.64 384.01,-388.95 345,-409 337.53,-412.84 329.25,-415.93 320.97,-418.41"/>
<polygon fill="midnightblue" stroke="midnightblue" points="443.45,-333.51 447.59,-323.76 438.27,-328.81 443.45,-333.51"/>
</g>
<!-- Node10 -->
<g id="node10" class="node">
<title>Node10</title>
<g id="a_node10"><a xlink:href="classsss_1_1api_1_1S3Api.html#a3b53152bf39143843a4033aa4a1b3fa0" target="_top" xlink:title=" ">
<polygon fill="none" stroke="black" points="192,-380.5 192,-399.5 342,-399.5 342,-380.5 192,-380.5"/>
<text text-anchor="middle" x="267" y="-387.5" font-family="Helvetica,sans-Serif" font-size="10.00">sss::api::S3Api::GetBucketAcl</text>
</a>
</g>
</g>
<!-- Node3&#45;&gt;Node10 -->
<g id="edge9" class="edge">
<title>Node3&#45;&gt;Node10</title>
<path fill="none" stroke="midnightblue" d="M431.68,-328.58C409.68,-341.26 376.07,-359.37 345,-371 335.2,-374.67 324.43,-377.83 314.13,-380.47"/>
<polygon fill="midnightblue" stroke="midnightblue" points="433.49,-331.58 440.36,-323.52 429.96,-325.54 433.49,-331.58"/>
</g>
<!-- Node11 -->
<g id="node11" class="node">
<title>Node11</title>
<g id="a_node11"><a xlink:href="classsss_1_1api_1_1S3Api.html#af61465d92c0a94aa82ae863fc2a776a0" target="_top" xlink:title="Download object data.">
<polygon fill="none" stroke="black" points="200,-342.5 200,-361.5 334,-361.5 334,-342.5 200,-342.5"/>
<text text-anchor="middle" x="267" y="-349.5" font-family="Helvetica,sans-Serif" font-size="10.00">sss::api::S3Api::GetObject</text>
</a>
</g>
</g>
<!-- Node3&#45;&gt;Node11 -->
<g id="edge10" class="edge">
<title>Node3&#45;&gt;Node11</title>
<path fill="none" stroke="midnightblue" d="M398.56,-325.61C371.83,-331.01 340.41,-337.36 315.1,-342.48"/>
<polygon fill="midnightblue" stroke="midnightblue" points="399.45,-329 408.56,-323.59 398.06,-322.14 399.45,-329"/>
</g>
<!-- Node12 -->
<g id="node12" class="node">
<title>Node12</title>
<g id="a_node12"><a xlink:href="classsss_1_1api_1_1S3Api.html#ae548966dc38f328fc45ee1500f5caf5b" target="_top" xlink:title="Return bucket&#39;s Access Control List.">
<polygon fill="none" stroke="black" points="193,-304.5 193,-323.5 341,-323.5 341,-304.5 193,-304.5"/>
<text text-anchor="middle" x="267" y="-311.5" font-family="Helvetica,sans-Serif" font-size="10.00">sss::api::S3Api::GetObjectAcl</text>
</a>
</g>
</g>
<!-- Node3&#45;&gt;Node12 -->
<g id="edge11" class="edge">
<title>Node3&#45;&gt;Node12</title>
<path fill="none" stroke="midnightblue" d="M390.6,-314C374.68,-314 357.56,-314 341.3,-314"/>
<polygon fill="midnightblue" stroke="midnightblue" points="390.86,-317.5 400.86,-314 390.86,-310.5 390.86,-317.5"/>
</g>
<!-- Node13 -->
<g id="node13" class="node">
<title>Node13</title>
<g id="a_node13"><a xlink:href="classsss_1_1api_1_1S3Api.html#aa4a2b1cc2c89a52d1aa89e571b785db2" target="_top" xlink:title=" ">
<polygon fill="none" stroke="black" points="195.5,-266.5 195.5,-285.5 338.5,-285.5 338.5,-266.5 195.5,-266.5"/>
<text text-anchor="middle" x="267" y="-273.5" font-family="Helvetica,sans-Serif" font-size="10.00">sss::api::S3Api::HeadBucket</text>
</a>
</g>
</g>
<!-- Node3&#45;&gt;Node13 -->
<g id="edge12" class="edge">
<title>Node3&#45;&gt;Node13</title>
<path fill="none" stroke="midnightblue" d="M398.56,-302.39C371.83,-296.99 340.41,-290.64 315.1,-285.52"/>
<polygon fill="midnightblue" stroke="midnightblue" points="398.06,-305.86 408.56,-304.41 399.45,-299 398.06,-305.86"/>
</g>
<!-- Node14 -->
<g id="node14" class="node">
<title>Node14</title>
<g id="a_node14"><a xlink:href="classsss_1_1api_1_1S3Api.html#abc84a71b9a88b81afaa353ad17a91d22" target="_top" xlink:title="Send HeadObject request.">
<polygon fill="none" stroke="black" points="196.5,-228.5 196.5,-247.5 337.5,-247.5 337.5,-228.5 196.5,-228.5"/>
<text text-anchor="middle" x="267" y="-235.5" font-family="Helvetica,sans-Serif" font-size="10.00">sss::api::S3Api::HeadObject</text>
</a>
</g>
</g>
<!-- Node3&#45;&gt;Node14 -->
<g id="edge13" class="edge">
<title>Node3&#45;&gt;Node14</title>
<path fill="none" stroke="midnightblue" d="M401.01,-301.27C394.05,-298.69 387.2,-295.62 381,-292 361.73,-280.75 364.51,-267.83 345,-257 338.02,-253.12 330.25,-250.03 322.4,-247.56"/>
<polygon fill="midnightblue" stroke="midnightblue" points="399.91,-304.59 410.51,-304.5 402.17,-297.97 399.91,-304.59"/>
</g>
<!-- Node17 -->
<g id="node17" class="node">
<title>Node17</title>
<g id="a_node17"><a xlink:href="classsss_1_1api_1_1S3Api.html#a81e30673c06b609a2ee6e6bfd9130ca6" target="_top" xlink:title="List buckets.">
<polygon fill="none" stroke="black" points="196.5,-190.5 196.5,-209.5 337.5,-209.5 337.5,-190.5 196.5,-190.5"/>
<text text-anchor="middle" x="267" y="-197.5" font-family="Helvetica,sans-Serif" font-size="10.00">sss::api::S3Api::ListBuckets</text>
</a>
</g>
</g>
<!-- Node3&#45;&gt;Node17 -->
<g id="edge16" class="edge">
<title>Node3&#45;&gt;Node17</title>
<path fill="none" stroke="midnightblue" d="M393.4,-300.19C388.96,-297.87 384.76,-295.16 381,-292 353.31,-268.72 373.19,-241.67 345,-219 340.17,-215.12 334.66,-212.01 328.86,-209.53"/>
<polygon fill="midnightblue" stroke="midnightblue" points="392.22,-303.5 402.77,-304.42 395.1,-297.12 392.22,-303.5"/>
</g>
<!-- Node18 -->
<g id="node18" class="node">
<title>Node18</title>
<g id="a_node18"><a xlink:href="classsss_1_1api_1_1S3Api.html#a3f00f611cd210a58ac6e8c0555984433" target="_top" xlink:title="List objects by sending a ListObjectsV2 request.">
<polygon fill="none" stroke="black" points="191.5,-152.5 191.5,-171.5 342.5,-171.5 342.5,-152.5 191.5,-152.5"/>
<text text-anchor="middle" x="267" y="-159.5" font-family="Helvetica,sans-Serif" font-size="10.00">sss::api::S3Api::ListObjectsV2</text>
</a>
</g>
</g>
<!-- Node3&#45;&gt;Node18 -->
<g id="edge17" class="edge">
<title>Node3&#45;&gt;Node18</title>
<path fill="none" stroke="midnightblue" d="M391.91,-300.22C387.96,-297.89 384.26,-295.17 381,-292 343.81,-255.85 382.96,-216.33 345,-181 340.87,-177.15 336.08,-174.05 330.96,-171.56"/>
<polygon fill="midnightblue" stroke="midnightblue" points="390.42,-303.39 400.93,-304.72 393.55,-297.12 390.42,-303.39"/>
</g>
<!-- Node19 -->
<g id="node19" class="node">
<title>Node19</title>
<g id="a_node19"><a xlink:href="classsss_1_1api_1_1S3Api.html#aa35e9b1cc7661cd9bb0d5f2de6cbbc7d" target="_top" xlink:title="Set Access Control Policy for bucket.">
<polygon fill="none" stroke="black" points="192.5,-114.5 192.5,-133.5 341.5,-133.5 341.5,-114.5 192.5,-114.5"/>
<text text-anchor="middle" x="267" y="-121.5" font-family="Helvetica,sans-Serif" font-size="10.00">sss::api::S3Api::PutBucketAcl</text>
</a>
</g>
</g>
<!-- Node3&#45;&gt;Node19 -->
<g id="edge18" class="edge">
<title>Node3&#45;&gt;Node19</title>
<path fill="none" stroke="midnightblue" d="M391.84,-300.62C387.87,-298.2 384.19,-295.35 381,-292 334,-242.68 393.06,-191.29 345,-143 341.21,-139.19 336.79,-136.11 332.02,-133.61"/>
<polygon fill="midnightblue" stroke="midnightblue" points="390.43,-303.83 400.93,-305.26 393.61,-297.6 390.43,-303.83"/>
</g>
<!-- Node20 -->
<g id="node20" class="node">
<title>Node20</title>
<g id="a_node20"><a xlink:href="classsss_1_1api_1_1S3Api.html#a2cc08fb777cfc4d24c40bea1cde967e7" target="_top" xlink:title="Set Access Control Policy.">
<polygon fill="none" stroke="black" points="193.5,-76.5 193.5,-95.5 340.5,-95.5 340.5,-76.5 193.5,-76.5"/>
<text text-anchor="middle" x="267" y="-83.5" font-family="Helvetica,sans-Serif" font-size="10.00">sss::api::S3Api::PutObjectAcl</text>
</a>
</g>
</g>
<!-- Node3&#45;&gt;Node20 -->
<g id="edge19" class="edge">
<title>Node3&#45;&gt;Node20</title>
<path fill="none" stroke="midnightblue" d="M391.66,-300.79C387.73,-298.33 384.11,-295.42 381,-292 324.07,-229.37 403.28,-166.38 345,-105 341.4,-101.21 337.17,-98.12 332.58,-95.61"/>
<polygon fill="midnightblue" stroke="midnightblue" points="390.2,-303.97 400.68,-305.49 393.43,-297.76 390.2,-303.97"/>
</g>
<!-- Node21 -->
<g id="node21" class="node">
<title>Node21</title>
<g id="a_node21"><a xlink:href="classsss_1_1api_1_1S3Api.html#a0473917e4d25a4a6fca40d097e4299d6" target="_top" xlink:title=" ">
<polygon fill="none" stroke="black" points="211,-38.5 211,-57.5 323,-57.5 323,-38.5 211,-38.5"/>
<text text-anchor="middle" x="267" y="-45.5" font-family="Helvetica,sans-Serif" font-size="10.00">sss::api::S3Api::Send</text>
</a>
</g>
</g>
<!-- Node3&#45;&gt;Node21 -->
<g id="edge20" class="edge">
<title>Node3&#45;&gt;Node21</title>
<path fill="none" stroke="midnightblue" d="M391.73,-301.02C387.76,-298.51 384.11,-295.53 381,-292 314.07,-216 413.57,-141.53 345,-67 339.13,-60.62 331.48,-56.22 323.29,-53.23"/>
<polygon fill="midnightblue" stroke="midnightblue" points="390.41,-304.28 400.89,-305.8 393.65,-298.07 390.41,-304.28"/>
</g>
<!-- Node22 -->
<g id="node22" class="node">
<title>Node22</title>
<g id="a_node22"><a xlink:href="classsss_1_1api_1_1S3Api.html#a23223ee1fb701c55af2d942dbf261ae2" target="_top" xlink:title="Check if bucket exist.">
<polygon fill="none" stroke="black" points="197.5,-0.5 197.5,-19.5 336.5,-19.5 336.5,-0.5 197.5,-0.5"/>
<text text-anchor="middle" x="267" y="-7.5" font-family="Helvetica,sans-Serif" font-size="10.00">sss::api::S3Api::TestBucket</text>
</a>
</g>
</g>
<!-- Node3&#45;&gt;Node22 -->
<g id="edge21" class="edge">
<title>Node3&#45;&gt;Node22</title>
<path fill="none" stroke="midnightblue" d="M391.64,-301.1C387.69,-298.57 384.07,-295.57 381,-292 304.03,-202.59 423.89,-116.72 345,-29 341.59,-25.21 337.56,-22.12 333.16,-19.61"/>
<polygon fill="midnightblue" stroke="midnightblue" points="390.29,-304.34 400.77,-305.91 393.55,-298.15 390.29,-304.34"/>
</g>
<!-- Node15 -->
<g id="node15" class="node">
<title>Node15</title>
<g id="a_node15"><a xlink:href="classsss_1_1api_1_1S3Api.html#a872e80e356e8c404a9b0739d95a0af41" target="_top" xlink:title="Return object size.">
<polygon fill="none" stroke="black" points="0,-247.5 0,-266.5 153,-266.5 153,-247.5 0,-247.5"/>
<text text-anchor="middle" x="76.5" y="-254.5" font-family="Helvetica,sans-Serif" font-size="10.00">sss::api::S3Api::GetObjectSize</text>
</a>
</g>
</g>
<!-- Node14&#45;&gt;Node15 -->
<g id="edge14" class="edge">
<title>Node14&#45;&gt;Node15</title>
<path fill="none" stroke="midnightblue" d="M186.35,-246.03C175.37,-247.14 164.11,-248.27 153.2,-249.37"/>
<polygon fill="midnightblue" stroke="midnightblue" points="186.75,-249.51 196.35,-245.02 186.04,-242.54 186.75,-249.51"/>
</g>
<!-- Node16 -->
<g id="node16" class="node">
<title>Node16</title>
<g id="a_node16"><a xlink:href="classsss_1_1api_1_1S3Api.html#aa3f7a3001bdad58c7b0c04cbd0dc3236" target="_top" xlink:title="Check if key exists.">
<polygon fill="none" stroke="black" points="8,-209.5 8,-228.5 145,-228.5 145,-209.5 8,-209.5"/>
<text text-anchor="middle" x="76.5" y="-216.5" font-family="Helvetica,sans-Serif" font-size="10.00">sss::api::S3Api::TestObject</text>
</a>
</g>
</g>
<!-- Node14&#45;&gt;Node16 -->
<g id="edge15" class="edge">
<title>Node14&#45;&gt;Node16</title>
<path fill="none" stroke="midnightblue" d="M186.07,-229.94C172.5,-228.58 158.52,-227.17 145.3,-225.83"/>
<polygon fill="midnightblue" stroke="midnightblue" points="186.04,-233.46 196.35,-230.98 186.75,-226.49 186.04,-233.46"/>
</g>
<!-- Node23&#45;&gt;Node3 -->
<g id="edge23" class="edge">
<title>Node23&#45;&gt;Node3</title>
<path fill="none" stroke="midnightblue" d="M562.29,-290.31C540.98,-295.15 518.6,-300.23 500.06,-304.45"/>
<polygon fill="midnightblue" stroke="midnightblue" points="563.34,-293.66 572.31,-288.03 561.79,-286.84 563.34,-293.66"/>
</g>
<!-- Node24 -->
<g id="node24" class="node">
<title>Node24</title>
<g id="a_node24"><a xlink:href="classsss_1_1WebClient.html#ab5af9d8e7c424e49fab04f0d9d59b489" target="_top" xlink:title="Upload file starting from offset using unbuffered memory mapping of file.">
<polygon fill="none" stroke="black" points="381,-263.5 381,-282.5 533,-282.5 533,-263.5 381,-263.5"/>
<text text-anchor="middle" x="457" y="-270.5" font-family="Helvetica,sans-Serif" font-size="10.00">sss::WebClient::UploadFileMM</text>
</a>
</g>
</g>
<!-- Node23&#45;&gt;Node24 -->
<g id="edge24" class="edge">
<title>Node23&#45;&gt;Node24</title>
<path fill="none" stroke="midnightblue" d="M558.71,-273C550.22,-273 541.62,-273 533.19,-273"/>
<polygon fill="midnightblue" stroke="midnightblue" points="558.97,-276.5 568.97,-273 558.97,-269.5 558.97,-276.5"/>
</g>
</g>
</svg>
