<?xml version="1.0" encoding="UTF-8" standalone="no"?>
<!DOCTYPE svg PUBLIC "-//W3C//DTD SVG 1.1//EN"
 "http://www.w3.org/Graphics/SVG/1.1/DTD/svg11.dtd">
<!-- Generated by graphviz version 8.0.5 (20230430.1635)
 -->
<!-- Title: sss::api::S3Api::HeadObject Pages: 1 -->
<svg width="337pt" height="64pt"
 viewBox="0.00 0.00 337.00 64.25" xmlns="http://www.w3.org/2000/svg" xmlns:xlink="http://www.w3.org/1999/xlink">
<g id="graph0" class="graph" transform="scale(1 1) rotate(0) translate(4 60.25)">
<title>sss::api::S3Api::HeadObject</title>
<!-- Node1 -->
<g id="node1" class="node">
<title>Node1</title>
<g id="a_node1"><a xlink:title="Send HeadObject request.">
<polygon fill="#999999" stroke="#666666" points="329,-37.25 188.5,-37.25 188.5,-18 329,-18 329,-37.25"/>
<text text-anchor="middle" x="258.75" y="-23.75" font-family="Helvetica,sans-Serif" font-size="10.00">sss::api::S3Api::HeadObject</text>
</a>
</g>
</g>
<!-- Node2 -->
<g id="node2" class="node">
<title>Node2</title>
<g id="a_node2"><a xlink:href="classsss_1_1api_1_1S3Api.html#a872e80e356e8c404a9b0739d95a0af41" target="_top" xlink:title="Return object size.">
<polygon fill="white" stroke="#666666" points="152.5,-56.25 0,-56.25 0,-37 152.5,-37 152.5,-56.25"/>
<text text-anchor="middle" x="76.25" y="-42.75" font-family="Helvetica,sans-Serif" font-size="10.00">sss::api::S3Api::GetObjectSize</text>
</a>
</g>
</g>
<!-- Node1&#45;&gt;Node2 -->
<g id="edge1" class="edge">
<title>Node1&#45;&gt;Node2</title>
<path fill="none" stroke="#63b8ff" d="M177.49,-36.07C169.26,-36.94 160.92,-37.82 152.74,-38.68"/>
<polygon fill="#63b8ff" stroke="#63b8ff" points="177.64,-39.47 187.22,-34.94 176.91,-32.51 177.64,-39.47"/>
</g>
<!-- Node3 -->
<g id="node3" class="node">
<title>Node3</title>
<g id="a_node3"><a xlink:href="classsss_1_1api_1_1S3Api.html#aa3f7a3001bdad58c7b0c04cbd0dc3236" target="_top" xlink:title="Check if key exists.">
<polygon fill="white" stroke="#666666" points="144.25,-19.25 8.25,-19.25 8.25,0 144.25,0 144.25,-19.25"/>
<text text-anchor="middle" x="76.25" y="-5.75" font-family="Helvetica,sans-Serif" font-size="10.00">sss::api::S3Api::TestObject</text>
</a>
</g>
</g>
<!-- Node1&#45;&gt;Node3 -->
<g id="edge2" class="edge">
<title>Node1&#45;&gt;Node3</title>
<path fill="none" stroke="#63b8ff" d="M177.38,-19.61C166.45,-18.52 155.33,-17.41 144.66,-16.35"/>
<polygon fill="#63b8ff" stroke="#63b8ff" points="176.92,-23.18 187.22,-20.69 177.62,-16.22 176.92,-23.18"/>
</g>
</g>
</svg>
