<?xml version="1.0" encoding="UTF-8" standalone="no"?>
<!DOCTYPE svg PUBLIC "-//W3C//DTD SVG 1.1//EN"
 "http://www.w3.org/Graphics/SVG/1.1/DTD/svg11.dtd">
<!-- Generated by graphviz version 8.0.5 (20230430.1635)
 -->
<!-- Title: sss::WebClient::UploadDataFromBuffer Pages: 1 -->
<!--zoomable 655 -->
<svg id="main" version="1.1" xmlns="http://www.w3.org/2000/svg" xmlns:xlink="http://www.w3.org/1999/xlink" xml:space="preserve" onload="init(evt)">
<style type="text/css"><![CDATA[
.edge:hover path { stroke: red; }
.edge:hover polygon { stroke: red; fill: red; }
]]></style>
<script type="text/javascript"><![CDATA[
var edges = document.getElementsByTagName('g');
if (edges && edges.length) {
  for (var i=0;i<edges.length;i++) {
    if (edges[i].id.substr(0,4)=='edge') {
      edges[i].setAttribute('class','edge');
    }
  }
}
]]></script>
        <defs>
                <circle id="rim" cx="0" cy="0" r="7"/>
                <circle id="rim2" cx="0" cy="0" r="3.5"/>
                <g id="zoomPlus">
                        <use xlink:href="#rim" fill="#404040">
                                <set attributeName="fill" to="#808080" begin="zoomplus.mouseover" end="zoomplus.mouseout"/>
                        </use>
                        <path d="M-4,0h8M0,-4v8" fill="none" stroke="white" stroke-width="1.5" pointer-events="none"/>
                </g>
                <g id="zoomMin">
                        <use xlink:href="#rim" fill="#404040">
                                <set attributeName="fill" to="#808080" begin="zoomminus.mouseover" end="zoomminus.mouseout"/>
                        </use>
                        <path d="M-4,0h8" fill="none" stroke="white" stroke-width="1.5" pointer-events="none"/>
                </g>
                <g id="dirArrow">
                        <path fill="none" stroke="white" stroke-width="1.5" d="M0,-3.0v7 M-2.5,-0.5L0,-3.0L2.5,-0.5"/>
                </g>
               <g id="resetDef">
                       <use xlink:href="#rim2" fill="#404040">
                               <set attributeName="fill" to="#808080" begin="reset.mouseover" end="reset.mouseout"/>
                       </use>
               </g>
        </defs>

<script type="text/javascript">
var viewWidth = 716;
var viewHeight = 655;
var sectionId = 'dynsection-19';
</script>
<script xlink:href="svgpan.js"/>
<svg id="graph" class="graph">
<g id="viewport">
<title>sss::WebClient::UploadDataFromBuffer</title>
<!-- Node1 -->
<g id="node1" class="node">
<title>Node1</title>
<g id="a_node1"><a xlink:title="Upload data from memory buffer.">
<polygon fill="#999999" stroke="#666666" points="708.25,-283.88 567.75,-283.88 567.75,-253.38 708.25,-253.38 708.25,-283.88"/>
<text text-anchor="start" x="575.75" y="-270.38" font-family="Helvetica,sans-Serif" font-size="10.00">sss::WebClient::UploadData</text>
<text text-anchor="middle" x="638" y="-259.12" font-family="Helvetica,sans-Serif" font-size="10.00">FromBuffer</text>
</a>
</g>
</g>
<!-- Node2 -->
<g id="node2" class="node">
<title>Node2</title>
<g id="a_node2"><a xlink:href="classsss_1_1api_1_1S3Api.html#ad09581bf28c4bbbcbb71b329959ec1ae" target="_top" xlink:title="Send request.">
<polygon fill="white" stroke="#666666" points="511.5,-315.25 400.25,-315.25 400.25,-296 511.5,-296 511.5,-315.25"/>
<text text-anchor="middle" x="455.88" y="-301.75" font-family="Helvetica,sans-Serif" font-size="10.00">sss::api::S3Api::Send</text>
</a>
</g>
</g>
<!-- Node1&#45;&gt;Node2 -->
<g id="edge1" class="edge">
<title>Node1&#45;&gt;Node2</title>
<path fill="none" stroke="#63b8ff" d="M556.68,-285.12C539.4,-288.67 521.63,-292.32 505.97,-295.54"/>
<polygon fill="#63b8ff" stroke="#63b8ff" points="557.27,-288.37 566.36,-282.93 555.86,-281.51 557.27,-288.37"/>
</g>
<!-- Node23 -->
<g id="node23" class="node">
<title>Node23</title>
<g id="a_node23"><a xlink:href="group__S3Client.html#gaba88d66bdabd9d5d15bc07a3ce387c50" target="_top" xlink:title="Send S3 request to endpoint.">
<polygon fill="white" stroke="#666666" points="510.38,-278.25 401.38,-278.25 401.38,-259 510.38,-259 510.38,-278.25"/>
<text text-anchor="middle" x="455.88" y="-264.75" font-family="Helvetica,sans-Serif" font-size="10.00">sss::SendS3Request</text>
</a>
</g>
</g>
<!-- Node1&#45;&gt;Node23 -->
<g id="edge26" class="edge">
<title>Node1&#45;&gt;Node23</title>
<path fill="none" stroke="#63b8ff" d="M556.67,-268.62C541.1,-268.62 525.15,-268.62 510.69,-268.62"/>
<polygon fill="#63b8ff" stroke="#63b8ff" points="556.36,-272.13 566.36,-268.62 556.36,-265.13 556.36,-272.13"/>
</g>
<!-- Node24 -->
<g id="node24" class="node">
<title>Node24</title>
<g id="a_node24"><a xlink:href="classsss_1_1WebClient.html#ab5af9d8e7c424e49fab04f0d9d59b489" target="_top" xlink:title="Upload file starting from offset using unbuffered memory mapping of file.">
<polygon fill="white" stroke="#666666" points="531.75,-241.25 380,-241.25 380,-222 531.75,-222 531.75,-241.25"/>
<text text-anchor="middle" x="455.88" y="-227.75" font-family="Helvetica,sans-Serif" font-size="10.00">sss::WebClient::UploadFileMM</text>
</a>
</g>
</g>
<!-- Node1&#45;&gt;Node24 -->
<g id="edge27" class="edge">
<title>Node1&#45;&gt;Node24</title>
<path fill="none" stroke="#63b8ff" d="M556.68,-252.13C539.4,-248.58 521.63,-244.93 505.97,-241.71"/>
<polygon fill="#63b8ff" stroke="#63b8ff" points="555.86,-255.74 566.36,-254.32 557.27,-248.88 555.86,-255.74"/>
</g>
<!-- Node3 -->
<g id="node3" class="node">
<title>Node3</title>
<g id="a_node3"><a xlink:href="classsss_1_1api_1_1S3Api.html#a4ea265566c3c4335ec01201cdc4410c6" target="_top" xlink:title="Abort multipart upload.">
<polygon fill="white" stroke="#666666" points="341,-646.88 191.5,-646.88 191.5,-616.38 341,-616.38 341,-646.88"/>
<text text-anchor="start" x="199.5" y="-633.38" font-family="Helvetica,sans-Serif" font-size="10.00">sss::api::S3Api::AbortMultipart</text>
<text text-anchor="middle" x="266.25" y="-622.12" font-family="Helvetica,sans-Serif" font-size="10.00">Upload</text>
</a>
</g>
</g>
<!-- Node2&#45;&gt;Node3 -->
<g id="edge2" class="edge">
<title>Node2&#45;&gt;Node3</title>
<path fill="none" stroke="#63b8ff" d="M453.29,-326.52C448.07,-380.7 426.63,-527.08 344,-606.62 340.26,-610.22 336.01,-613.3 331.45,-615.94"/>
<polygon fill="#63b8ff" stroke="#63b8ff" points="456.86,-326.87 454.24,-316.61 449.89,-326.27 456.86,-326.87"/>
</g>
<!-- Node4 -->
<g id="node4" class="node">
<title>Node4</title>
<g id="a_node4"><a xlink:href="classsss_1_1api_1_1S3Api.html#a98f999a216121118dd569c7ef0c28ff3" target="_top" xlink:title="Complete multipart upload.">
<polygon fill="white" stroke="#666666" points="331.62,-597.88 200.88,-597.88 200.88,-567.38 331.62,-567.38 331.62,-597.88"/>
<text text-anchor="start" x="208.88" y="-584.38" font-family="Helvetica,sans-Serif" font-size="10.00">sss::api::S3Api::Complete</text>
<text text-anchor="middle" x="266.25" y="-573.12" font-family="Helvetica,sans-Serif" font-size="10.00">MultipartUpload</text>
</a>
</g>
</g>
<!-- Node2&#45;&gt;Node4 -->
<g id="edge3" class="edge">
<title>Node2&#45;&gt;Node4</title>
<path fill="none" stroke="#63b8ff" d="M451.72,-326.4C443.33,-374.47 415.97,-494.17 344,-558.62 340.36,-561.89 336.28,-564.7 331.95,-567.14"/>
<polygon fill="#63b8ff" stroke="#63b8ff" points="455.34,-327 453.5,-316.56 448.43,-325.86 455.34,-327"/>
</g>
<!-- Node5 -->
<g id="node5" class="node">
<title>Node5</title>
<g id="a_node5"><a xlink:href="classsss_1_1api_1_1S3Api.html#ad890bd1ecfc978df24b2c3ed641e4081" target="_top" xlink:title="Create bucket.">
<polygon fill="white" stroke="#666666" points="340.62,-549.25 191.88,-549.25 191.88,-530 340.62,-530 340.62,-549.25"/>
<text text-anchor="middle" x="266.25" y="-535.75" font-family="Helvetica,sans-Serif" font-size="10.00">sss::api::S3Api::CreateBucket</text>
</a>
</g>
</g>
<!-- Node2&#45;&gt;Node5 -->
<g id="edge4" class="edge">
<title>Node2&#45;&gt;Node5</title>
<path fill="none" stroke="#63b8ff" d="M450.34,-326.16C439.72,-369.22 409.06,-469.22 344,-520.62 339.37,-524.28 334.13,-527.25 328.61,-529.65"/>
<polygon fill="#63b8ff" stroke="#63b8ff" points="453.94,-327.15 452.81,-316.61 447.12,-325.55 453.94,-327.15"/>
</g>
<!-- Node7 -->
<g id="node7" class="node">
<title>Node7</title>
<g id="a_node7"><a xlink:href="classsss_1_1api_1_1S3Api.html#a1796fafda3d90a4292a611ce1999433b" target="_top" xlink:title="Create multipart upload.">
<polygon fill="white" stroke="#666666" points="344,-511.88 188.5,-511.88 188.5,-481.38 344,-481.38 344,-511.88"/>
<text text-anchor="start" x="196.5" y="-498.38" font-family="Helvetica,sans-Serif" font-size="10.00">sss::api::S3Api::CreateMultipart</text>
<text text-anchor="middle" x="266.25" y="-487.12" font-family="Helvetica,sans-Serif" font-size="10.00">Upload</text>
</a>
</g>
</g>
<!-- Node2&#45;&gt;Node7 -->
<g id="edge6" class="edge">
<title>Node2&#45;&gt;Node7</title>
<path fill="none" stroke="#63b8ff" d="M446.99,-325.57C432.15,-360.56 396.74,-433.04 344,-472.62 339.76,-475.81 335.08,-478.58 330.2,-480.98"/>
<polygon fill="#63b8ff" stroke="#63b8ff" points="450.52,-327.19 451.08,-316.61 444.04,-324.53 450.52,-327.19"/>
</g>
<!-- Node8 -->
<g id="node8" class="node">
<title>Node8</title>
<g id="a_node8"><a xlink:href="classsss_1_1api_1_1S3Api.html#a3d63825d1916e4ba3ca13122c7660603" target="_top" xlink:title="Delete bucket.">
<polygon fill="white" stroke="#666666" points="340.25,-463.25 192.25,-463.25 192.25,-444 340.25,-444 340.25,-463.25"/>
<text text-anchor="middle" x="266.25" y="-449.75" font-family="Helvetica,sans-Serif" font-size="10.00">sss::api::S3Api::DeleteBucket</text>
</a>
</g>
</g>
<!-- Node2&#45;&gt;Node8 -->
<g id="edge7" class="edge">
<title>Node2&#45;&gt;Node8</title>
<path fill="none" stroke="#63b8ff" d="M443.9,-325.04C426.56,-353.86 390.02,-407.57 344,-435.62 338.74,-438.83 332.96,-441.47 327,-443.63"/>
<polygon fill="#63b8ff" stroke="#63b8ff" points="447.37,-327.04 449.4,-316.64 441.33,-323.5 447.37,-327.04"/>
</g>
<!-- Node9 -->
<g id="node9" class="node">
<title>Node9</title>
<g id="a_node9"><a xlink:href="classsss_1_1api_1_1S3Api.html#a14a75f15eb71fbba8639673100768b67" target="_top" xlink:title="Delete object.">
<polygon fill="white" stroke="#666666" points="339.12,-426.25 193.38,-426.25 193.38,-407 339.12,-407 339.12,-426.25"/>
<text text-anchor="middle" x="266.25" y="-412.75" font-family="Helvetica,sans-Serif" font-size="10.00">sss::api::S3Api::DeleteObject</text>
</a>
</g>
</g>
<!-- Node2&#45;&gt;Node9 -->
<g id="edge9" class="edge">
<title>Node2&#45;&gt;Node9</title>
<path fill="none" stroke="#63b8ff" d="M438.85,-323.4C418.77,-344.56 382.31,-379.45 344,-398.62 337.64,-401.81 330.69,-404.45 323.66,-406.62"/>
<polygon fill="#63b8ff" stroke="#63b8ff" points="440.94,-326.22 445.18,-316.51 435.81,-321.45 440.94,-326.22"/>
</g>
<!-- Node10 -->
<g id="node10" class="node">
<title>Node10</title>
<g id="a_node10"><a xlink:href="classsss_1_1api_1_1S3Api.html#a3b53152bf39143843a4033aa4a1b3fa0" target="_top" xlink:title=" ">
<polygon fill="white" stroke="#666666" points="341,-389.25 191.5,-389.25 191.5,-370 341,-370 341,-389.25"/>
<text text-anchor="middle" x="266.25" y="-375.75" font-family="Helvetica,sans-Serif" font-size="10.00">sss::api::S3Api::GetBucketAcl</text>
</a>
</g>
</g>
<!-- Node2&#45;&gt;Node10 -->
<g id="edge10" class="edge">
<title>Node2&#45;&gt;Node10</title>
<path fill="none" stroke="#63b8ff" d="M428.85,-321C406.87,-333.43 374.23,-350.62 344,-361.62 335.64,-364.67 326.58,-367.33 317.71,-369.6"/>
<polygon fill="#63b8ff" stroke="#63b8ff" points="430.22,-323.67 437.15,-315.66 426.74,-317.6 430.22,-323.67"/>
</g>
<!-- Node11 -->
<g id="node11" class="node">
<title>Node11</title>
<g id="a_node11"><a xlink:href="classsss_1_1api_1_1S3Api.html#af61465d92c0a94aa82ae863fc2a776a0" target="_top" xlink:title="Download object data.">
<polygon fill="white" stroke="#666666" points="332.75,-352.25 199.75,-352.25 199.75,-333 332.75,-333 332.75,-352.25"/>
<text text-anchor="middle" x="266.25" y="-338.75" font-family="Helvetica,sans-Serif" font-size="10.00">sss::api::S3Api::GetObject</text>
</a>
</g>
</g>
<!-- Node2&#45;&gt;Node11 -->
<g id="edge12" class="edge">
<title>Node2&#45;&gt;Node11</title>
<path fill="none" stroke="#63b8ff" d="M393.11,-317.81C368.92,-322.57 341.51,-327.98 318.46,-332.53"/>
<polygon fill="#63b8ff" stroke="#63b8ff" points="393.47,-321.1 402.61,-315.74 392.12,-314.24 393.47,-321.1"/>
</g>
<!-- Node12 -->
<g id="node12" class="node">
<title>Node12</title>
<g id="a_node12"><a xlink:href="classsss_1_1api_1_1S3Api.html#ae548966dc38f328fc45ee1500f5caf5b" target="_top" xlink:title="Return bucket&#39;s Access Control List.">
<polygon fill="white" stroke="#666666" points="339.88,-315.25 192.62,-315.25 192.62,-296 339.88,-296 339.88,-315.25"/>
<text text-anchor="middle" x="266.25" y="-301.75" font-family="Helvetica,sans-Serif" font-size="10.00">sss::api::S3Api::GetObjectAcl</text>
</a>
</g>
</g>
<!-- Node2&#45;&gt;Node12 -->
<g id="edge13" class="edge">
<title>Node2&#45;&gt;Node12</title>
<path fill="none" stroke="#63b8ff" d="M389.09,-305.62C373.24,-305.62 356.21,-305.62 340.06,-305.62"/>
<polygon fill="#63b8ff" stroke="#63b8ff" points="388.85,-309.13 398.85,-305.62 388.85,-302.13 388.85,-309.13"/>
</g>
<!-- Node13 -->
<g id="node13" class="node">
<title>Node13</title>
<g id="a_node13"><a xlink:href="classsss_1_1api_1_1S3Api.html#aa4a2b1cc2c89a52d1aa89e571b785db2" target="_top" xlink:title=" ">
<polygon fill="white" stroke="#666666" points="337.62,-278.25 194.88,-278.25 194.88,-259 337.62,-259 337.62,-278.25"/>
<text text-anchor="middle" x="266.25" y="-264.75" font-family="Helvetica,sans-Serif" font-size="10.00">sss::api::S3Api::HeadBucket</text>
</a>
</g>
</g>
<!-- Node2&#45;&gt;Node13 -->
<g id="edge14" class="edge">
<title>Node2&#45;&gt;Node13</title>
<path fill="none" stroke="#63b8ff" d="M393.11,-293.44C368.92,-288.68 341.51,-283.27 318.46,-278.72"/>
<polygon fill="#63b8ff" stroke="#63b8ff" points="392.12,-297.01 402.61,-295.51 393.47,-290.15 392.12,-297.01"/>
</g>
<!-- Node14 -->
<g id="node14" class="node">
<title>Node14</title>
<g id="a_node14"><a xlink:href="classsss_1_1api_1_1S3Api.html#abc84a71b9a88b81afaa353ad17a91d22" target="_top" xlink:title="Send HeadObject request.">
<polygon fill="white" stroke="#666666" points="336.5,-204.25 196,-204.25 196,-185 336.5,-185 336.5,-204.25"/>
<text text-anchor="middle" x="266.25" y="-190.75" font-family="Helvetica,sans-Serif" font-size="10.00">sss::api::S3Api::HeadObject</text>
</a>
</g>
</g>
<!-- Node2&#45;&gt;Node14 -->
<g id="edge16" class="edge">
<title>Node2&#45;&gt;Node14</title>
<path fill="none" stroke="#63b8ff" d="M390.05,-294.16C386.48,-292.29 383.09,-290.12 380,-287.62 351.24,-264.39 372.82,-235.78 344,-212.62 340.05,-209.45 335.64,-206.82 330.99,-204.64"/>
<polygon fill="#63b8ff" stroke="#63b8ff" points="388.28,-297.64 398.84,-298.45 391.09,-291.23 388.28,-297.64"/>
</g>
<!-- Node17 -->
<g id="node17" class="node">
<title>Node17</title>
<g id="a_node17"><a xlink:href="classsss_1_1api_1_1S3Api.html#a81e30673c06b609a2ee6e6bfd9130ca6" target="_top" xlink:title="List buckets.">
<polygon fill="white" stroke="#666666" points="336.5,-241.25 196,-241.25 196,-222 336.5,-222 336.5,-241.25"/>
<text text-anchor="middle" x="266.25" y="-227.75" font-family="Helvetica,sans-Serif" font-size="10.00">sss::api::S3Api::ListBuckets</text>
</a>
</g>
</g>
<!-- Node2&#45;&gt;Node17 -->
<g id="edge19" class="edge">
<title>Node2&#45;&gt;Node17</title>
<path fill="none" stroke="#63b8ff" d="M389.64,-292.44C386.3,-291 383.07,-289.4 380,-287.62 359.86,-275.98 364.17,-261.21 344,-249.62 338.42,-246.42 332.31,-243.79 326.04,-241.62"/>
<polygon fill="#63b8ff" stroke="#63b8ff" points="388.28,-296.05 398.87,-296.31 390.76,-289.5 388.28,-296.05"/>
</g>
<!-- Node18 -->
<g id="node18" class="node">
<title>Node18</title>
<g id="a_node18"><a xlink:href="classsss_1_1api_1_1S3Api.html#a3f00f611cd210a58ac6e8c0555984433" target="_top" xlink:title="List objects by sending a ListObjectsV2 request.">
<polygon fill="white" stroke="#666666" points="341.38,-167.25 191.12,-167.25 191.12,-148 341.38,-148 341.38,-167.25"/>
<text text-anchor="middle" x="266.25" y="-153.75" font-family="Helvetica,sans-Serif" font-size="10.00">sss::api::S3Api::ListObjectsV2</text>
</a>
</g>
</g>
<!-- Node2&#45;&gt;Node18 -->
<g id="edge21" class="edge">
<title>Node2&#45;&gt;Node18</title>
<path fill="none" stroke="#63b8ff" d="M390,-294.85C386.4,-292.81 383.02,-290.43 380,-287.62 341.67,-252.07 382.43,-211.08 344,-175.62 340.58,-172.47 336.71,-169.84 332.58,-167.64"/>
<polygon fill="#63b8ff" stroke="#63b8ff" points="388.44,-298.44 398.99,-299.44 391.37,-292.08 388.44,-298.44"/>
</g>
<!-- Node19 -->
<g id="node19" class="node">
<title>Node19</title>
<g id="a_node19"><a xlink:href="classsss_1_1api_1_1S3Api.html#aa35e9b1cc7661cd9bb0d5f2de6cbbc7d" target="_top" xlink:title="Set Access Control Policy for bucket.">
<polygon fill="white" stroke="#666666" points="340.62,-130.25 191.88,-130.25 191.88,-111 340.62,-111 340.62,-130.25"/>
<text text-anchor="middle" x="266.25" y="-116.75" font-family="Helvetica,sans-Serif" font-size="10.00">sss::api::S3Api::PutBucketAcl</text>
</a>
</g>
</g>
<!-- Node2&#45;&gt;Node19 -->
<g id="edge22" class="edge">
<title>Node2&#45;&gt;Node19</title>
<path fill="none" stroke="#63b8ff" d="M390.26,-295.4C386.52,-293.24 383.05,-290.67 380,-287.62 331.8,-239.48 392.33,-186.64 344,-138.62 340.8,-135.44 337.14,-132.78 333.21,-130.56"/>
<polygon fill="#63b8ff" stroke="#63b8ff" points="388.47,-298.89 399.01,-299.96 391.44,-292.55 388.47,-298.89"/>
</g>
<!-- Node20 -->
<g id="node20" class="node">
<title>Node20</title>
<g id="a_node20"><a xlink:href="classsss_1_1api_1_1S3Api.html#a2cc08fb777cfc4d24c40bea1cde967e7" target="_top" xlink:title="Set Access Control Policy.">
<polygon fill="white" stroke="#666666" points="339.5,-93.25 193,-93.25 193,-74 339.5,-74 339.5,-93.25"/>
<text text-anchor="middle" x="266.25" y="-79.75" font-family="Helvetica,sans-Serif" font-size="10.00">sss::api::S3Api::PutObjectAcl</text>
</a>
</g>
</g>
<!-- Node2&#45;&gt;Node20 -->
<g id="edge23" class="edge">
<title>Node2&#45;&gt;Node20</title>
<path fill="none" stroke="#63b8ff" d="M390.1,-295.55C386.4,-293.36 382.98,-290.74 380,-287.62 321.81,-226.77 402.36,-162.32 344,-101.62 340.96,-98.47 337.49,-95.82 333.73,-93.6"/>
<polygon fill="#63b8ff" stroke="#63b8ff" points="388.25,-299.03 398.78,-300.18 391.27,-292.71 388.25,-299.03"/>
</g>
<!-- Node21 -->
<g id="node21" class="node">
<title>Node21</title>
<g id="a_node21"><a xlink:href="classsss_1_1api_1_1S3Api.html#a0473917e4d25a4a6fca40d097e4299d6" target="_top" xlink:title=" ">
<polygon fill="white" stroke="#666666" points="321.88,-56.25 210.62,-56.25 210.62,-37 321.88,-37 321.88,-56.25"/>
<text text-anchor="middle" x="266.25" y="-42.75" font-family="Helvetica,sans-Serif" font-size="10.00">sss::api::S3Api::Send</text>
</a>
</g>
</g>
<!-- Node2&#45;&gt;Node21 -->
<g id="edge24" class="edge">
<title>Node2&#45;&gt;Node21</title>
<path fill="none" stroke="#63b8ff" d="M390.17,-295.77C386.43,-293.53 382.98,-290.84 380,-287.62 311.75,-213.99 412.45,-138.07 344,-64.62 338.12,-58.32 330.49,-54.02 322.32,-51.14"/>
<polygon fill="#63b8ff" stroke="#63b8ff" points="388.47,-299.32 399,-300.47 391.49,-293 388.47,-299.32"/>
</g>
<!-- Node22 -->
<g id="node22" class="node">
<title>Node22</title>
<g id="a_node22"><a xlink:href="classsss_1_1api_1_1S3Api.html#a23223ee1fb701c55af2d942dbf261ae2" target="_top" xlink:title="Check if bucket exist.">
<polygon fill="white" stroke="#666666" points="335.38,-19.25 197.12,-19.25 197.12,0 335.38,0 335.38,-19.25"/>
<text text-anchor="middle" x="266.25" y="-5.75" font-family="Helvetica,sans-Serif" font-size="10.00">sss::api::S3Api::TestBucket</text>
</a>
</g>
</g>
<!-- Node2&#45;&gt;Node22 -->
<g id="edge25" class="edge">
<title>Node2&#45;&gt;Node22</title>
<path fill="none" stroke="#63b8ff" d="M390.09,-295.85C386.37,-293.59 382.95,-290.88 380,-287.62 301.66,-201.18 422.58,-113.85 344,-27.62 341.14,-24.49 337.85,-21.85 334.27,-19.63"/>
<polygon fill="#63b8ff" stroke="#63b8ff" points="388.36,-299.38 398.88,-300.58 391.4,-293.08 388.36,-299.38"/>
</g>
<!-- Node6 -->
<g id="node6" class="node">
<title>Node6</title>
<g id="a_node6"><a xlink:href="bucket-test_8cpp.html#a3c04138a5bfe5d72780bb7e82a18e627" target="_top" xlink:title="Bucket tests.">
<polygon fill="white" stroke="#666666" points="94.75,-389.25 57.75,-389.25 57.75,-370 94.75,-370 94.75,-389.25"/>
<text text-anchor="middle" x="76.25" y="-375.75" font-family="Helvetica,sans-Serif" font-size="10.00">main</text>
</a>
</g>
</g>
<!-- Node5&#45;&gt;Node6 -->
<g id="edge5" class="edge">
<title>Node5&#45;&gt;Node6</title>
<path fill="none" stroke="#63b8ff" d="M196.83,-525.3C193.94,-523.89 191.15,-522.33 188.5,-520.62 134.52,-485.81 95.38,-415.73 82.15,-389.68"/>
<polygon fill="#63b8ff" stroke="#63b8ff" points="195.37,-528.91 205.95,-529.6 198.11,-522.47 195.37,-528.91"/>
</g>
<!-- Node8&#45;&gt;Node6 -->
<g id="edge8" class="edge">
<title>Node8&#45;&gt;Node6</title>
<path fill="none" stroke="#63b8ff" d="M204.37,-440.75C198.95,-439.18 193.6,-437.48 188.5,-435.62 153.54,-422.93 115.34,-402.01 94.03,-389.66"/>
<polygon fill="#63b8ff" stroke="#63b8ff" points="203.23,-444.34 213.79,-443.59 205.06,-437.59 203.23,-444.34"/>
</g>
<!-- Node10&#45;&gt;Node6 -->
<g id="edge11" class="edge">
<title>Node10&#45;&gt;Node6</title>
<path fill="none" stroke="#63b8ff" d="M180.41,-379.62C148.32,-379.62 114.79,-379.62 94.98,-379.62"/>
<polygon fill="#63b8ff" stroke="#63b8ff" points="180.22,-383.13 190.22,-379.62 180.22,-376.13 180.22,-383.13"/>
</g>
<!-- Node13&#45;&gt;Node6 -->
<g id="edge15" class="edge">
<title>Node13&#45;&gt;Node6</title>
<path fill="none" stroke="#63b8ff" d="M198.74,-282.13C195.22,-283.49 191.78,-284.98 188.5,-286.62 144.81,-308.45 103.45,-350.61 85.98,-369.74"/>
<polygon fill="#63b8ff" stroke="#63b8ff" points="199.53,-285.21 207.84,-278.64 197.25,-278.6 199.53,-285.21"/>
</g>
<!-- Node15 -->
<g id="node15" class="node">
<title>Node15</title>
<g id="a_node15"><a xlink:href="classsss_1_1api_1_1S3Api.html#a872e80e356e8c404a9b0739d95a0af41" target="_top" xlink:title="Return object size.">
<polygon fill="white" stroke="#666666" points="152.5,-222.25 0,-222.25 0,-203 152.5,-203 152.5,-222.25"/>
<text text-anchor="middle" x="76.25" y="-208.75" font-family="Helvetica,sans-Serif" font-size="10.00">sss::api::S3Api::GetObjectSize</text>
</a>
</g>
</g>
<!-- Node14&#45;&gt;Node15 -->
<g id="edge17" class="edge">
<title>Node14&#45;&gt;Node15</title>
<path fill="none" stroke="#63b8ff" d="M184.63,-202.34C174.09,-203.35 163.33,-204.38 152.87,-205.38"/>
<polygon fill="#63b8ff" stroke="#63b8ff" points="184.89,-205.74 194.51,-201.3 184.22,-198.77 184.89,-205.74"/>
</g>
<!-- Node16 -->
<g id="node16" class="node">
<title>Node16</title>
<g id="a_node16"><a xlink:href="classsss_1_1api_1_1S3Api.html#aa3f7a3001bdad58c7b0c04cbd0dc3236" target="_top" xlink:title="Check if key exists.">
<polygon fill="white" stroke="#666666" points="144.25,-185.25 8.25,-185.25 8.25,-166 144.25,-166 144.25,-185.25"/>
<text text-anchor="middle" x="76.25" y="-171.75" font-family="Helvetica,sans-Serif" font-size="10.00">sss::api::S3Api::TestObject</text>
</a>
</g>
</g>
<!-- Node14&#45;&gt;Node16 -->
<g id="edge18" class="edge">
<title>Node14&#45;&gt;Node16</title>
<path fill="none" stroke="#63b8ff" d="M184.88,-186.5C171.48,-185.15 157.71,-183.76 144.69,-182.44"/>
<polygon fill="#63b8ff" stroke="#63b8ff" points="184.21,-190.05 194.51,-187.58 184.92,-183.09 184.21,-190.05"/>
</g>
<!-- Node17&#45;&gt;Node6 -->
<g id="edge20" class="edge">
<title>Node17&#45;&gt;Node6</title>
<path fill="none" stroke="#63b8ff" d="M195.41,-245.87C193.03,-247.03 190.72,-248.27 188.5,-249.62 136.73,-281.13 96.82,-344.97 82.75,-369.61"/>
<polygon fill="#63b8ff" stroke="#63b8ff" points="196.64,-248.73 204.5,-241.63 193.93,-242.28 196.64,-248.73"/>
</g>
</g>
</svg>
        <g id="navigator" transform="translate(0 0)" fill="#404254">
                <rect fill="#f2f5e9" fill-opacity="0.5" stroke="#606060" stroke-width=".5" x="0" y="0" width="60" height="60"/>
                <use id="zoomplus" xlink:href="#zoomPlus" x="17" y="9" onmousedown="handleZoom(evt,'in')"/>
                <use id="zoomminus" xlink:href="#zoomMin" x="42" y="9" onmousedown="handleZoom(evt,'out')"/>
                <use id="reset" xlink:href="#resetDef" x="30" y="36" onmousedown="handleReset()"/>
                <g id="arrowUp" xlink:href="#dirArrow" transform="translate(30 24)" onmousedown="handlePan(0,-1)">
                  <use xlink:href="#rim" fill="#404040">
                        <set attributeName="fill" to="#808080" begin="arrowUp.mouseover" end="arrowUp.mouseout"/>
                  </use>
                  <path fill="none" stroke="white" stroke-width="1.5" d="M0,-3.0v7 M-2.5,-0.5L0,-3.0L2.5,-0.5"/>
                </g>
                <g id="arrowRight" xlink:href="#dirArrow" transform="rotate(90) translate(36 -43)" onmousedown="handlePan(1,0)">
                  <use xlink:href="#rim" fill="#404040">
                        <set attributeName="fill" to="#808080" begin="arrowRight.mouseover" end="arrowRight.mouseout"/>
                  </use>
                  <path fill="none" stroke="white" stroke-width="1.5" d="M0,-3.0v7 M-2.5,-0.5L0,-3.0L2.5,-0.5"/>
                </g>
                <g id="arrowDown" xlink:href="#dirArrow" transform="rotate(180) translate(-30 -48)" onmousedown="handlePan(0,1)">
                  <use xlink:href="#rim" fill="#404040">
                        <set attributeName="fill" to="#808080" begin="arrowDown.mouseover" end="arrowDown.mouseout"/>
                  </use>
                  <path fill="none" stroke="white" stroke-width="1.5" d="M0,-3.0v7 M-2.5,-0.5L0,-3.0L2.5,-0.5"/>
                </g>
                <g id="arrowLeft" xlink:href="#dirArrow" transform="rotate(270) translate(-36 17)" onmousedown="handlePan(-1,0)">
                  <use xlink:href="#rim" fill="#404040">
                        <set attributeName="fill" to="#808080" begin="arrowLeft.mouseover" end="arrowLeft.mouseout"/>
                  </use>
                  <path fill="none" stroke="white" stroke-width="1.5" d="M0,-3.0v7 M-2.5,-0.5L0,-3.0L2.5,-0.5"/>
                </g>
        </g>
        <svg viewBox="0 0 15 15" width="100%" height="30px" preserveAspectRatio="xMaxYMin meet">
         <g id="arrow_out" transform="scale(0.3 0.3)">
          <a xlink:href="classsss_1_1WebClient_ae7b1f77bd4ae44585f2d49ea493bdcc5_icgraph_org.svg" target="_base">
           <rect id="button" ry="5" rx="5" y="6" x="6" height="38" width="38"
                fill="#f2f5e9" fill-opacity="0.5" stroke="#606060" stroke-width="1.0"/>
           <path id="arrow"
             d="M 11.500037,31.436501 C 11.940474,20.09759 22.043105,11.32322 32.158766,21.979434 L 37.068811,17.246167 C 37.068811,17.246167 37.088388,32 37.088388,32 L 22.160133,31.978069 C 22.160133,31.978069 26.997745,27.140456 26.997745,27.140456 C 18.528582,18.264221 13.291696,25.230495 11.500037,31.436501 z"
             style="fill:#404040;"/>
          </a>
         </g>
        </svg>
</svg>
