<?xml version="1.0" encoding="UTF-8" standalone="no"?>
<!DOCTYPE svg PUBLIC "-//W3C//DTD SVG 1.1//EN"
 "http://www.w3.org/Graphics/SVG/1.1/DTD/svg11.dtd">
<!-- Generated by graphviz version 8.0.5 (20230430.1635)
 -->
<!-- Title: XMLOStream::Down Pages: 1 -->
<svg width="415pt" height="27pt"
 viewBox="0.00 0.00 414.50 27.25" xmlns="http://www.w3.org/2000/svg" xmlns:xlink="http://www.w3.org/1999/xlink">
<g id="graph0" class="graph" transform="scale(1 1) rotate(0) translate(4 23.25)">
<title>XMLOStream::Down</title>
<!-- Node1 -->
<g id="node1" class="node">
<title>Node1</title>
<g id="a_node1"><a xlink:title=" ">
<polygon fill="#999999" stroke="#666666" points="406.5,-19.25 299.75,-19.25 299.75,0 406.5,0 406.5,-19.25"/>
<text text-anchor="middle" x="353.12" y="-5.75" font-family="Helvetica,sans-Serif" font-size="10.00">XMLOStream::Down</text>
</a>
</g>
</g>
<!-- Node2 -->
<g id="node2" class="node">
<title>Node2</title>
<g id="a_node2"><a xlink:href="classXMLOStream.html#a27d978458c31cd4352c9c3e323e7ed77" target="_top" xlink:title=" ">
<polygon fill="white" stroke="#666666" points="263.75,-19.25 158.5,-19.25 158.5,0 263.75,0 263.75,-19.25"/>
<text text-anchor="middle" x="211.12" y="-5.75" font-family="Helvetica,sans-Serif" font-size="10.00">XMLOStream::Move</text>
</a>
</g>
</g>
<!-- Node1&#45;&gt;Node2 -->
<g id="edge1" class="edge">
<title>Node1&#45;&gt;Node2</title>
<path fill="none" stroke="#63b8ff" d="M288.81,-9.62C280.51,-9.62 272.09,-9.62 264.02,-9.62"/>
<polygon fill="#63b8ff" stroke="#63b8ff" points="288.6,-13.13 298.6,-9.62 288.6,-6.13 288.6,-13.13"/>
</g>
<!-- Node3 -->
<g id="node3" class="node">
<title>Node3</title>
<g id="a_node3"><a xlink:href="classXMLOStream.html#a1b52abcd6529538845ea9632bb611fd1" target="_top" xlink:title="Invoke Insert(MoveAction) method.">
<polygon fill="white" stroke="#666666" points="122.5,-19.25 0,-19.25 0,0 122.5,0 122.5,-19.25"/>
<text text-anchor="middle" x="61.25" y="-5.75" font-family="Helvetica,sans-Serif" font-size="10.00">XMLOStream::operator[]</text>
</a>
</g>
</g>
<!-- Node2&#45;&gt;Node3 -->
<g id="edge2" class="edge">
<title>Node2&#45;&gt;Node3</title>
<path fill="none" stroke="#63b8ff" d="M147.44,-9.62C139.28,-9.62 130.94,-9.62 122.82,-9.62"/>
<polygon fill="#63b8ff" stroke="#63b8ff" points="147.41,-13.13 157.41,-9.62 147.41,-6.13 147.41,-13.13"/>
</g>
</g>
</svg>
