<?xml version="1.0" encoding="UTF-8" standalone="no"?>
<!DOCTYPE svg PUBLIC "-//W3C//DTD SVG 1.1//EN"
 "http://www.w3.org/Graphics/SVG/1.1/DTD/svg11.dtd">
<!-- Generated by graphviz version 2.43.0 (0)
 -->
<!-- Title: sss::WebClient::SetReqParameters Pages: 1 -->
<!--zoomable 1081 -->
<svg id="main" version="1.1" xmlns="http://www.w3.org/2000/svg" xmlns:xlink="http://www.w3.org/1999/xlink" xml:space="preserve" onload="init(evt)">
<style type="text/css"><![CDATA[
.edge:hover path { stroke: red; }
.edge:hover polygon { stroke: red; fill: red; }
]]></style>
<script type="text/javascript"><![CDATA[
var edges = document.getElementsByTagName('g');
if (edges && edges.length) {
  for (var i=0;i<edges.length;i++) {
    if (edges[i].id.substr(0,4)=='edge') {
      edges[i].setAttribute('class','edge');
    }
  }
}
]]></script>
        <defs>
                <circle id="rim" cx="0" cy="0" r="7"/>
                <circle id="rim2" cx="0" cy="0" r="3.5"/>
                <g id="zoomPlus">
                        <use xlink:href="#rim" fill="#404040">
                                <set attributeName="fill" to="#808080" begin="zoomplus.mouseover" end="zoomplus.mouseout"/>
                        </use>
                        <path d="M-4,0h8M0,-4v8" fill="none" stroke="white" stroke-width="1.5" pointer-events="none"/>
                </g>
                <g id="zoomMin">
                        <use xlink:href="#rim" fill="#404040">
                                <set attributeName="fill" to="#808080" begin="zoomminus.mouseover" end="zoomminus.mouseout"/>
                        </use>
                        <path d="M-4,0h8" fill="none" stroke="white" stroke-width="1.5" pointer-events="none"/>
                </g>
                <g id="dirArrow">
                        <path fill="none" stroke="white" stroke-width="1.5" d="M0,-3.0v7 M-2.5,-0.5L0,-3.0L2.5,-0.5"/>
                </g>
               <g id="resetDef">
                       <use xlink:href="#rim2" fill="#404040">
                               <set attributeName="fill" to="#808080" begin="reset.mouseover" end="reset.mouseout"/>
                       </use>
               </g>
        </defs>

<script type="text/javascript">
var viewWidth = 1022;
var viewHeight = 1081;
var sectionId = 'dynsection-11';
</script>
<script xlink:href="svgpan.js"/>
<svg id="graph" class="graph">
<g id="viewport">
<title>sss::WebClient::SetReqParameters</title>
<!-- Node1 -->
<g id="node1" class="node">
<title>Node1</title>
<g id="a_node1"><a xlink:title=" ">
<polygon fill="#bfbfbf" stroke="black" points="841,-553.5 841,-572.5 1014,-572.5 1014,-553.5 841,-553.5"/>
<text text-anchor="middle" x="927.5" y="-560.5" font-family="Helvetica,sans-Serif" font-size="10.00">sss::WebClient::SetReqParameters</text>
</a>
</g>
</g>
<!-- Node2 -->
<g id="node2" class="node">
<title>Node2</title>
<g id="a_node2"><a xlink:href="classsss_1_1api_1_1S3Api.html#a3718745d3b940462ae9f3b78f773b3a6" target="_top" xlink:title="Clear data and reset read and write functions.">
<polygon fill="none" stroke="black" points="692,-572.5 692,-591.5 805,-591.5 805,-572.5 692,-572.5"/>
<text text-anchor="middle" x="748.5" y="-579.5" font-family="Helvetica,sans-Serif" font-size="10.00">sss::api::S3Api::Clear</text>
</a>
</g>
</g>
<!-- Node1&#45;&gt;Node2 -->
<g id="edge1" class="edge">
<title>Node1&#45;&gt;Node2</title>
<path fill="none" stroke="midnightblue" d="M830.87,-573.27C822.04,-574.21 813.31,-575.15 805.03,-576.04"/>
<polygon fill="midnightblue" stroke="midnightblue" points="831.28,-576.74 840.85,-572.19 830.54,-569.78 831.28,-576.74"/>
</g>
<!-- Node3 -->
<g id="node3" class="node">
<title>Node3</title>
<g id="a_node3"><a xlink:href="classsss_1_1api_1_1S3Api.html#a840772746fbb0a79c161037da7b24a31" target="_top" xlink:title="Configure instance.">
<polygon fill="none" stroke="black" points="538,-553.5 538,-572.5 656,-572.5 656,-553.5 538,-553.5"/>
<text text-anchor="middle" x="597" y="-560.5" font-family="Helvetica,sans-Serif" font-size="10.00">sss::api::S3Api::Config</text>
</a>
</g>
</g>
<!-- Node1&#45;&gt;Node3 -->
<g id="edge33" class="edge">
<title>Node1&#45;&gt;Node3</title>
<path fill="none" stroke="midnightblue" d="M830.59,-563C774.11,-563 704.5,-563 656.22,-563"/>
<polygon fill="midnightblue" stroke="midnightblue" points="830.62,-566.5 840.62,-563 830.62,-559.5 830.62,-566.5"/>
</g>
<!-- Node2&#45;&gt;Node3 -->
<g id="edge2" class="edge">
<title>Node2&#45;&gt;Node3</title>
<path fill="none" stroke="midnightblue" d="M681.9,-573.66C673.35,-572.58 664.63,-571.47 656.22,-570.4"/>
<polygon fill="midnightblue" stroke="midnightblue" points="681.47,-577.14 691.83,-574.93 682.35,-570.19 681.47,-577.14"/>
</g>
<!-- Node4 -->
<g id="node4" class="node">
<title>Node4</title>
<g id="a_node4"><a xlink:href="classsss_1_1api_1_1S3Api.html#ac2848a787b6656ee031822a1ad698de4" target="_top" xlink:title="Download object into file.">
<polygon fill="none" stroke="black" points="381,-597 381,-627 502,-627 502,-597 381,-597"/>
<text text-anchor="start" x="389" y="-615" font-family="Helvetica,sans-Serif" font-size="10.00">sss::api::S3Api::GetFile</text>
<text text-anchor="middle" x="441.5" y="-604" font-family="Helvetica,sans-Serif" font-size="10.00">Object</text>
</a>
</g>
</g>
<!-- Node3&#45;&gt;Node4 -->
<g id="edge3" class="edge">
<title>Node3&#45;&gt;Node4</title>
<path fill="none" stroke="midnightblue" d="M556.43,-575.63C536.03,-582.14 511,-590.13 489.61,-596.96"/>
<polygon fill="midnightblue" stroke="midnightblue" points="557.58,-578.94 566.04,-572.56 555.45,-572.27 557.58,-578.94"/>
</g>
<!-- Node5 -->
<g id="node5" class="node">
<title>Node5</title>
<g id="a_node5"><a xlink:href="classsss_1_1api_1_1S3Api.html#ab7affe0834f5892b393e731783b7ccac" target="_top" xlink:title="Upload file to object.">
<polygon fill="none" stroke="black" points="381.5,-548 381.5,-578 501.5,-578 501.5,-548 381.5,-548"/>
<text text-anchor="start" x="389.5" y="-566" font-family="Helvetica,sans-Serif" font-size="10.00">sss::api::S3Api::PutFile</text>
<text text-anchor="middle" x="441.5" y="-555" font-family="Helvetica,sans-Serif" font-size="10.00">Object</text>
</a>
</g>
</g>
<!-- Node3&#45;&gt;Node5 -->
<g id="edge4" class="edge">
<title>Node3&#45;&gt;Node5</title>
<path fill="none" stroke="midnightblue" d="M527.82,-563C519.09,-563 510.2,-563 501.63,-563"/>
<polygon fill="midnightblue" stroke="midnightblue" points="527.97,-566.5 537.97,-563 527.97,-559.5 527.97,-566.5"/>
</g>
<!-- Node6 -->
<g id="node6" class="node">
<title>Node6</title>
<g id="a_node6"><a xlink:href="classsss_1_1api_1_1S3Api.html#a02b4f0c95255f151beb72f0a6bdf5889" target="_top" xlink:title="Send request.">
<polygon fill="none" stroke="black" points="385.5,-509.5 385.5,-528.5 497.5,-528.5 497.5,-509.5 385.5,-509.5"/>
<text text-anchor="middle" x="441.5" y="-516.5" font-family="Helvetica,sans-Serif" font-size="10.00">sss::api::S3Api::Send</text>
</a>
</g>
</g>
<!-- Node3&#45;&gt;Node6 -->
<g id="edge5" class="edge">
<title>Node3&#45;&gt;Node6</title>
<path fill="none" stroke="midnightblue" d="M552.95,-550.66C528.5,-543.65 498.36,-535.01 475.74,-528.53"/>
<polygon fill="midnightblue" stroke="midnightblue" points="552.12,-554.06 562.69,-553.45 554.04,-547.33 552.12,-554.06"/>
</g>
<!-- Node7 -->
<g id="node7" class="node">
<title>Node7</title>
<g id="a_node7"><a xlink:href="classsss_1_1api_1_1S3Api.html#a4ea265566c3c4335ec01201cdc4410c6" target="_top" xlink:title="Abort multipart upload.">
<polygon fill="none" stroke="black" points="192,-1042 192,-1072 342,-1072 342,-1042 192,-1042"/>
<text text-anchor="start" x="200" y="-1060" font-family="Helvetica,sans-Serif" font-size="10.00">sss::api::S3Api::AbortMultipart</text>
<text text-anchor="middle" x="267" y="-1049" font-family="Helvetica,sans-Serif" font-size="10.00">Upload</text>
</a>
</g>
</g>
<!-- Node6&#45;&gt;Node7 -->
<g id="edge6" class="edge">
<title>Node6&#45;&gt;Node7</title>
<path fill="none" stroke="midnightblue" d="M383.72,-534.94C382.76,-535.9 381.85,-536.92 381,-538 312.76,-624.64 413.54,-946.59 345,-1033 342.3,-1036.4 339.13,-1039.33 335.63,-1041.85"/>
<polygon fill="midnightblue" stroke="midnightblue" points="386.18,-537.47 392.02,-528.63 381.94,-531.9 386.18,-537.47"/>
</g>
<!-- Node8 -->
<g id="node8" class="node">
<title>Node8</title>
<g id="a_node8"><a xlink:href="classsss_1_1api_1_1S3Api.html#a98f999a216121118dd569c7ef0c28ff3" target="_top" xlink:title="Complete multipart upload.">
<polygon fill="none" stroke="black" points="201.5,-993 201.5,-1023 332.5,-1023 332.5,-993 201.5,-993"/>
<text text-anchor="start" x="209.5" y="-1011" font-family="Helvetica,sans-Serif" font-size="10.00">sss::api::S3Api::Complete</text>
<text text-anchor="middle" x="267" y="-1000" font-family="Helvetica,sans-Serif" font-size="10.00">MultipartUpload</text>
</a>
</g>
</g>
<!-- Node6&#45;&gt;Node8 -->
<g id="edge7" class="edge">
<title>Node6&#45;&gt;Node8</title>
<path fill="none" stroke="midnightblue" d="M383.74,-534.95C382.77,-535.91 381.85,-536.93 381,-538 319.3,-615.69 406.52,-905.16 345,-983 341.51,-987.41 337.24,-991.05 332.5,-994.06"/>
<polygon fill="midnightblue" stroke="midnightblue" points="386.19,-537.48 392.05,-528.66 381.97,-531.9 386.19,-537.48"/>
</g>
<!-- Node9 -->
<g id="node9" class="node">
<title>Node9</title>
<g id="a_node9"><a xlink:href="classsss_1_1api_1_1S3Api.html#abea2ccea14a042c7c0d4b2ce5266ea5f" target="_top" xlink:title="Create bucket.">
<polygon fill="none" stroke="black" points="192.5,-954.5 192.5,-973.5 341.5,-973.5 341.5,-954.5 192.5,-954.5"/>
<text text-anchor="middle" x="267" y="-961.5" font-family="Helvetica,sans-Serif" font-size="10.00">sss::api::S3Api::CreateBucket</text>
</a>
</g>
</g>
<!-- Node6&#45;&gt;Node9 -->
<g id="edge8" class="edge">
<title>Node6&#45;&gt;Node9</title>
<path fill="none" stroke="midnightblue" d="M384.15,-534.57C383.03,-535.64 381.97,-536.78 381,-538 324.39,-608.71 403.53,-874.87 345,-944 341.43,-948.22 337.1,-951.6 332.32,-954.32"/>
<polygon fill="midnightblue" stroke="midnightblue" points="386.39,-537.27 392.37,-528.52 382.24,-531.63 386.39,-537.27"/>
</g>
<!-- Node10 -->
<g id="node10" class="node">
<title>Node10</title>
<g id="a_node10"><a xlink:href="classsss_1_1api_1_1S3Api.html#a1796fafda3d90a4292a611ce1999433b" target="_top" xlink:title="Create multipart upload.">
<polygon fill="none" stroke="black" points="189,-905 189,-935 345,-935 345,-905 189,-905"/>
<text text-anchor="start" x="197" y="-923" font-family="Helvetica,sans-Serif" font-size="10.00">sss::api::S3Api::CreateMultipart</text>
<text text-anchor="middle" x="267" y="-912" font-family="Helvetica,sans-Serif" font-size="10.00">Upload</text>
</a>
</g>
</g>
<!-- Node6&#45;&gt;Node10 -->
<g id="edge9" class="edge">
<title>Node6&#45;&gt;Node10</title>
<path fill="none" stroke="midnightblue" d="M384.16,-534.59C383.04,-535.65 381.98,-536.79 381,-538 280.59,-661.89 445.11,-770.87 345,-895 341.91,-898.83 338.23,-902.08 334.17,-904.84"/>
<polygon fill="midnightblue" stroke="midnightblue" points="386.41,-537.29 392.41,-528.56 382.28,-531.64 386.41,-537.29"/>
</g>
<!-- Node11 -->
<g id="node11" class="node">
<title>Node11</title>
<g id="a_node11"><a xlink:href="classsss_1_1api_1_1S3Api.html#a3d63825d1916e4ba3ca13122c7660603" target="_top" xlink:title="Delete bucket.">
<polygon fill="none" stroke="black" points="192.5,-866.5 192.5,-885.5 341.5,-885.5 341.5,-866.5 192.5,-866.5"/>
<text text-anchor="middle" x="267" y="-873.5" font-family="Helvetica,sans-Serif" font-size="10.00">sss::api::S3Api::DeleteBucket</text>
</a>
</g>
</g>
<!-- Node6&#45;&gt;Node11 -->
<g id="edge10" class="edge">
<title>Node6&#45;&gt;Node11</title>
<path fill="none" stroke="midnightblue" d="M384.18,-534.61C383.05,-535.67 381.99,-536.8 381,-538 290.77,-647.95 438.22,-748.57 345,-856 341.29,-860.28 336.79,-863.7 331.85,-866.42"/>
<polygon fill="midnightblue" stroke="midnightblue" points="386.43,-537.3 392.46,-528.6 382.31,-531.64 386.43,-537.3"/>
</g>
<!-- Node12 -->
<g id="node12" class="node">
<title>Node12</title>
<g id="a_node12"><a xlink:href="classsss_1_1api_1_1S3Api.html#a062a3a07fb8ade39db1e46426ff939d8" target="_top" xlink:title="Remove all tags from bucket.">
<polygon fill="none" stroke="black" points="192.5,-817 192.5,-847 341.5,-847 341.5,-817 192.5,-817"/>
<text text-anchor="start" x="200.5" y="-835" font-family="Helvetica,sans-Serif" font-size="10.00">sss::api::S3Api::DeleteBucket</text>
<text text-anchor="middle" x="267" y="-824" font-family="Helvetica,sans-Serif" font-size="10.00">Tagging</text>
</a>
</g>
</g>
<!-- Node6&#45;&gt;Node12 -->
<g id="edge11" class="edge">
<title>Node6&#45;&gt;Node12</title>
<path fill="none" stroke="midnightblue" d="M384.29,-534.57C383.12,-535.64 382.02,-536.78 381,-538 303.54,-630.46 422.24,-714.35 345,-807 341.76,-810.89 337.91,-814.17 333.68,-816.95"/>
<polygon fill="midnightblue" stroke="midnightblue" points="386.7,-537.15 392.82,-528.5 382.65,-531.44 386.7,-537.15"/>
</g>
<!-- Node13 -->
<g id="node13" class="node">
<title>Node13</title>
<g id="a_node13"><a xlink:href="classsss_1_1api_1_1S3Api.html#ade1a193696061cfc0e6dff4a6975f8b3" target="_top" xlink:title="Delete object.">
<polygon fill="none" stroke="black" points="194,-778.5 194,-797.5 340,-797.5 340,-778.5 194,-778.5"/>
<text text-anchor="middle" x="267" y="-785.5" font-family="Helvetica,sans-Serif" font-size="10.00">sss::api::S3Api::DeleteObject</text>
</a>
</g>
</g>
<!-- Node6&#45;&gt;Node13 -->
<g id="edge12" class="edge">
<title>Node6&#45;&gt;Node13</title>
<path fill="none" stroke="midnightblue" d="M384.68,-534.28C383.37,-535.43 382.14,-536.67 381,-538 313.68,-616.57 414.46,-691.31 345,-768 341.11,-772.3 336.42,-775.73 331.3,-778.45"/>
<polygon fill="midnightblue" stroke="midnightblue" points="386.69,-537.15 392.91,-528.58 382.7,-531.4 386.69,-537.15"/>
</g>
<!-- Node14 -->
<g id="node14" class="node">
<title>Node14</title>
<g id="a_node14"><a xlink:href="classsss_1_1api_1_1S3Api.html#a23419050019b63bc5548181344067f01" target="_top" xlink:title="Remove all tags from object.">
<polygon fill="none" stroke="black" points="194,-729 194,-759 340,-759 340,-729 194,-729"/>
<text text-anchor="start" x="202" y="-747" font-family="Helvetica,sans-Serif" font-size="10.00">sss::api::S3Api::DeleteObject</text>
<text text-anchor="middle" x="267" y="-736" font-family="Helvetica,sans-Serif" font-size="10.00">Tagging</text>
</a>
</g>
</g>
<!-- Node6&#45;&gt;Node14 -->
<g id="edge13" class="edge">
<title>Node6&#45;&gt;Node14</title>
<path fill="none" stroke="midnightblue" d="M384.84,-534.27C383.48,-535.42 382.19,-536.67 381,-538 326.36,-599.17 399.49,-657.69 345,-719 341.55,-722.89 337.48,-726.17 333.05,-728.95"/>
<polygon fill="midnightblue" stroke="midnightblue" points="387,-537.03 393.36,-528.56 383.1,-531.22 387,-537.03"/>
</g>
<!-- Node15 -->
<g id="node15" class="node">
<title>Node15</title>
<g id="a_node15"><a xlink:href="classsss_1_1api_1_1S3Api.html#a3b53152bf39143843a4033aa4a1b3fa0" target="_top" xlink:title=" ">
<polygon fill="none" stroke="black" points="192,-690.5 192,-709.5 342,-709.5 342,-690.5 192,-690.5"/>
<text text-anchor="middle" x="267" y="-697.5" font-family="Helvetica,sans-Serif" font-size="10.00">sss::api::S3Api::GetBucketAcl</text>
</a>
</g>
</g>
<!-- Node6&#45;&gt;Node15 -->
<g id="edge14" class="edge">
<title>Node6&#45;&gt;Node15</title>
<path fill="none" stroke="midnightblue" d="M385.41,-533.97C383.84,-535.21 382.37,-536.55 381,-538 336.38,-585.42 390.9,-633.83 345,-680 340.72,-684.31 335.63,-687.73 330.14,-690.44"/>
<polygon fill="midnightblue" stroke="midnightblue" points="387.3,-536.91 393.85,-528.59 383.53,-531.01 387.3,-536.91"/>
</g>
<!-- Node16 -->
<g id="node16" class="node">
<title>Node16</title>
<g id="a_node16"><a xlink:href="classsss_1_1api_1_1S3Api.html#afdb9997dfbd29512cbfe8da9f0028cf8" target="_top" xlink:title="Return bucket tags.">
<polygon fill="none" stroke="black" points="199,-641 199,-671 335,-671 335,-641 199,-641"/>
<text text-anchor="start" x="207" y="-659" font-family="Helvetica,sans-Serif" font-size="10.00">sss::api::S3Api::GetBucket</text>
<text text-anchor="middle" x="267" y="-648" font-family="Helvetica,sans-Serif" font-size="10.00">Tagging</text>
</a>
</g>
</g>
<!-- Node6&#45;&gt;Node16 -->
<g id="edge15" class="edge">
<title>Node6&#45;&gt;Node16</title>
<path fill="none" stroke="midnightblue" d="M386.36,-533.67C384.47,-534.99 382.67,-536.43 381,-538 348.73,-568.38 377.2,-600.54 345,-631 340.92,-634.86 336.23,-638.13 331.23,-640.89"/>
<polygon fill="midnightblue" stroke="midnightblue" points="388.26,-536.62 395.19,-528.6 384.77,-530.54 388.26,-536.62"/>
</g>
<!-- Node17 -->
<g id="node17" class="node">
<title>Node17</title>
<g id="a_node17"><a xlink:href="classsss_1_1api_1_1S3Api.html#a26387e640fa4d3c0715dc48f932ae410" target="_top" xlink:title="Retrieve versioning status.">
<polygon fill="none" stroke="black" points="199,-592 199,-622 335,-622 335,-592 199,-592"/>
<text text-anchor="start" x="207" y="-610" font-family="Helvetica,sans-Serif" font-size="10.00">sss::api::S3Api::GetBucket</text>
<text text-anchor="middle" x="267" y="-599" font-family="Helvetica,sans-Serif" font-size="10.00">Versioning</text>
</a>
</g>
</g>
<!-- Node6&#45;&gt;Node17 -->
<g id="edge16" class="edge">
<title>Node6&#45;&gt;Node17</title>
<path fill="none" stroke="midnightblue" d="M390.29,-532.63C387.04,-534.24 383.91,-536.02 381,-538 360.1,-552.21 365.86,-567.74 345,-582 339.43,-585.81 333.24,-589.06 326.86,-591.85"/>
<polygon fill="midnightblue" stroke="midnightblue" points="391.89,-535.75 399.67,-528.57 389.1,-529.33 391.89,-535.75"/>
</g>
<!-- Node18 -->
<g id="node18" class="node">
<title>Node18</title>
<g id="a_node18"><a xlink:href="classsss_1_1api_1_1S3Api.html#ae548966dc38f328fc45ee1500f5caf5b" target="_top" xlink:title="Return bucket&#39;s Access Control List.">
<polygon fill="none" stroke="black" points="193,-553.5 193,-572.5 341,-572.5 341,-553.5 193,-553.5"/>
<text text-anchor="middle" x="267" y="-560.5" font-family="Helvetica,sans-Serif" font-size="10.00">sss::api::S3Api::GetObjectAcl</text>
</a>
</g>
</g>
<!-- Node6&#45;&gt;Node18 -->
<g id="edge17" class="edge">
<title>Node6&#45;&gt;Node18</title>
<path fill="none" stroke="midnightblue" d="M393.21,-531.06C365.55,-538.12 331.11,-546.9 305.36,-553.47"/>
<polygon fill="midnightblue" stroke="midnightblue" points="394.25,-534.41 403.07,-528.55 392.52,-527.63 394.25,-534.41"/>
</g>
<!-- Node19 -->
<g id="node19" class="node">
<title>Node19</title>
<g id="a_node19"><a xlink:href="classsss_1_1api_1_1S3Api.html#aceb12e50a72a7b9b3ca460c23671c586" target="_top" xlink:title="Return object tags.">
<polygon fill="none" stroke="black" points="200,-504 200,-534 334,-534 334,-504 200,-504"/>
<text text-anchor="start" x="208" y="-522" font-family="Helvetica,sans-Serif" font-size="10.00">sss::api::S3Api::GetObject</text>
<text text-anchor="middle" x="267" y="-511" font-family="Helvetica,sans-Serif" font-size="10.00">Tagging</text>
</a>
</g>
</g>
<!-- Node6&#45;&gt;Node19 -->
<g id="edge18" class="edge">
<title>Node6&#45;&gt;Node19</title>
<path fill="none" stroke="midnightblue" d="M375.34,-519C361.92,-519 347.76,-519 334.3,-519"/>
<polygon fill="midnightblue" stroke="midnightblue" points="375.45,-522.5 385.45,-519 375.45,-515.5 375.45,-522.5"/>
</g>
<!-- Node20 -->
<g id="node20" class="node">
<title>Node20</title>
<g id="a_node20"><a xlink:href="classsss_1_1api_1_1S3Api.html#aa4a2b1cc2c89a52d1aa89e571b785db2" target="_top" xlink:title=" ">
<polygon fill="none" stroke="black" points="195.5,-465.5 195.5,-484.5 338.5,-484.5 338.5,-465.5 195.5,-465.5"/>
<text text-anchor="middle" x="267" y="-472.5" font-family="Helvetica,sans-Serif" font-size="10.00">sss::api::S3Api::HeadBucket</text>
</a>
</g>
</g>
<!-- Node6&#45;&gt;Node20 -->
<g id="edge19" class="edge">
<title>Node6&#45;&gt;Node20</title>
<path fill="none" stroke="midnightblue" d="M394.29,-506.76C378.65,-502.66 361.08,-498.09 345,-494 332.72,-490.88 319.33,-487.55 307.2,-484.56"/>
<polygon fill="midnightblue" stroke="midnightblue" points="393.69,-510.22 404.25,-509.38 395.47,-503.45 393.69,-510.22"/>
</g>
<!-- Node21 -->
<g id="node21" class="node">
<title>Node21</title>
<g id="a_node21"><a xlink:href="classsss_1_1api_1_1S3Api.html#a0382afb5f4a42d477af76ea322324ddd" target="_top" xlink:title="Send HeadObject request.">
<polygon fill="none" stroke="black" points="196.5,-427.5 196.5,-446.5 337.5,-446.5 337.5,-427.5 196.5,-427.5"/>
<text text-anchor="middle" x="267" y="-434.5" font-family="Helvetica,sans-Serif" font-size="10.00">sss::api::S3Api::HeadObject</text>
</a>
</g>
</g>
<!-- Node6&#45;&gt;Node21 -->
<g id="edge20" class="edge">
<title>Node6&#45;&gt;Node21</title>
<path fill="none" stroke="midnightblue" d="M420.94,-503.19C402.41,-488.94 373.28,-468.37 345,-456 336.3,-452.19 326.69,-449.05 317.3,-446.51"/>
<polygon fill="midnightblue" stroke="midnightblue" points="418.88,-506.02 428.91,-509.43 423.19,-500.51 418.88,-506.02"/>
</g>
<!-- Node24 -->
<g id="node24" class="node">
<title>Node24</title>
<g id="a_node24"><a xlink:href="classsss_1_1api_1_1S3Api.html#a81e30673c06b609a2ee6e6bfd9130ca6" target="_top" xlink:title="List buckets.">
<polygon fill="none" stroke="black" points="196.5,-389.5 196.5,-408.5 337.5,-408.5 337.5,-389.5 196.5,-389.5"/>
<text text-anchor="middle" x="267" y="-396.5" font-family="Helvetica,sans-Serif" font-size="10.00">sss::api::S3Api::ListBuckets</text>
</a>
</g>
</g>
<!-- Node6&#45;&gt;Node24 -->
<g id="edge23" class="edge">
<title>Node6&#45;&gt;Node24</title>
<path fill="none" stroke="midnightblue" d="M428.31,-500.72C412.05,-477.82 381.1,-439.04 345,-418 338.34,-414.12 330.91,-411.02 323.36,-408.56"/>
<polygon fill="midnightblue" stroke="midnightblue" points="425.6,-502.96 434.17,-509.19 431.36,-498.98 425.6,-502.96"/>
</g>
<!-- Node25 -->
<g id="node25" class="node">
<title>Node25</title>
<g id="a_node25"><a xlink:href="classsss_1_1api_1_1S3Api.html#a3f00f611cd210a58ac6e8c0555984433" target="_top" xlink:title="List objects by sending a ListObjectsV2 request.">
<polygon fill="none" stroke="black" points="191.5,-351.5 191.5,-370.5 342.5,-370.5 342.5,-351.5 191.5,-351.5"/>
<text text-anchor="middle" x="267" y="-358.5" font-family="Helvetica,sans-Serif" font-size="10.00">sss::api::S3Api::ListObjectsV2</text>
</a>
</g>
</g>
<!-- Node6&#45;&gt;Node25 -->
<g id="edge24" class="edge">
<title>Node6&#45;&gt;Node25</title>
<path fill="none" stroke="midnightblue" d="M432.85,-500.05C419.63,-469.79 389.58,-410.85 345,-380 339.45,-376.16 333.21,-373.09 326.73,-370.65"/>
<polygon fill="midnightblue" stroke="midnightblue" points="429.71,-501.61 436.82,-509.46 436.16,-498.89 429.71,-501.61"/>
</g>
<!-- Node26 -->
<g id="node26" class="node">
<title>Node26</title>
<g id="a_node26"><a xlink:href="classsss_1_1api_1_1S3Api.html#a9695a76eb84d3e52800d037f1ef391aa" target="_top" xlink:title="Return all versions and delete markers for object.">
<polygon fill="none" stroke="black" points="200,-302 200,-332 334,-332 334,-302 200,-302"/>
<text text-anchor="start" x="208" y="-320" font-family="Helvetica,sans-Serif" font-size="10.00">sss::api::S3Api::ListObject</text>
<text text-anchor="middle" x="267" y="-309" font-family="Helvetica,sans-Serif" font-size="10.00">Versions</text>
</a>
</g>
</g>
<!-- Node6&#45;&gt;Node26 -->
<g id="edge25" class="edge">
<title>Node6&#45;&gt;Node26</title>
<path fill="none" stroke="midnightblue" d="M435.25,-499.46C424.5,-463.13 396.52,-384.96 345,-342 340.36,-338.13 335.1,-334.85 329.57,-332.08"/>
<polygon fill="midnightblue" stroke="midnightblue" points="431.95,-500.65 438.04,-509.31 438.69,-498.74 431.95,-500.65"/>
</g>
<!-- Node27 -->
<g id="node27" class="node">
<title>Node27</title>
<g id="a_node27"><a xlink:href="classsss_1_1api_1_1S3Api.html#aa35e9b1cc7661cd9bb0d5f2de6cbbc7d" target="_top" xlink:title="Set Access Control Policy for bucket.">
<polygon fill="none" stroke="black" points="192.5,-263.5 192.5,-282.5 341.5,-282.5 341.5,-263.5 192.5,-263.5"/>
<text text-anchor="middle" x="267" y="-270.5" font-family="Helvetica,sans-Serif" font-size="10.00">sss::api::S3Api::PutBucketAcl</text>
</a>
</g>
</g>
<!-- Node6&#45;&gt;Node27 -->
<g id="edge26" class="edge">
<title>Node6&#45;&gt;Node27</title>
<path fill="none" stroke="midnightblue" d="M438.17,-499.5C431.84,-455.44 410.18,-347.71 345,-292 340.5,-288.15 335.34,-285.06 329.87,-282.58"/>
<polygon fill="midnightblue" stroke="midnightblue" points="434.71,-500.03 439.5,-509.48 441.65,-499.11 434.71,-500.03"/>
</g>
<!-- Node28 -->
<g id="node28" class="node">
<title>Node28</title>
<g id="a_node28"><a xlink:href="classsss_1_1api_1_1S3Api.html#ae0b480d21933d41f7ca992ca5abe3091" target="_top" xlink:title="Tag bucket.">
<polygon fill="none" stroke="black" points="199.5,-214 199.5,-244 334.5,-244 334.5,-214 199.5,-214"/>
<text text-anchor="start" x="207.5" y="-232" font-family="Helvetica,sans-Serif" font-size="10.00">sss::api::S3Api::PutBucket</text>
<text text-anchor="middle" x="267" y="-221" font-family="Helvetica,sans-Serif" font-size="10.00">Tagging</text>
</a>
</g>
</g>
<!-- Node6&#45;&gt;Node28 -->
<g id="edge27" class="edge">
<title>Node6&#45;&gt;Node28</title>
<path fill="none" stroke="midnightblue" d="M439.16,-499.33C434.78,-450.64 416.71,-323.45 345,-254 340.96,-250.09 336.31,-246.79 331.32,-244.01"/>
<polygon fill="midnightblue" stroke="midnightblue" points="435.68,-499.76 439.97,-509.45 442.66,-499.21 435.68,-499.76"/>
</g>
<!-- Node29 -->
<g id="node29" class="node">
<title>Node29</title>
<g id="a_node29"><a xlink:href="classsss_1_1api_1_1S3Api.html#a11f96e3a1f9487688c824fea1831fe71" target="_top" xlink:title="Enable bucket versioning.">
<polygon fill="none" stroke="black" points="199.5,-165 199.5,-195 334.5,-195 334.5,-165 199.5,-165"/>
<text text-anchor="start" x="207.5" y="-183" font-family="Helvetica,sans-Serif" font-size="10.00">sss::api::S3Api::PutBucket</text>
<text text-anchor="middle" x="267" y="-172" font-family="Helvetica,sans-Serif" font-size="10.00">Versioning</text>
</a>
</g>
</g>
<!-- Node6&#45;&gt;Node29 -->
<g id="edge28" class="edge">
<title>Node6&#45;&gt;Node29</title>
<path fill="none" stroke="midnightblue" d="M440.53,-499.35C439.51,-444.57 428.99,-288.64 345,-204 341.65,-200.62 337.83,-197.72 333.72,-195.22"/>
<polygon fill="midnightblue" stroke="midnightblue" points="437.03,-499.48 440.62,-509.44 444.03,-499.41 437.03,-499.48"/>
</g>
<!-- Node30 -->
<g id="node30" class="node">
<title>Node30</title>
<g id="a_node30"><a xlink:href="classsss_1_1api_1_1S3Api.html#a2cc08fb777cfc4d24c40bea1cde967e7" target="_top" xlink:title="Set Access Control Policy.">
<polygon fill="none" stroke="black" points="193.5,-126.5 193.5,-145.5 340.5,-145.5 340.5,-126.5 193.5,-126.5"/>
<text text-anchor="middle" x="267" y="-133.5" font-family="Helvetica,sans-Serif" font-size="10.00">sss::api::S3Api::PutObjectAcl</text>
</a>
</g>
</g>
<!-- Node6&#45;&gt;Node30 -->
<g id="edge29" class="edge">
<title>Node6&#45;&gt;Node30</title>
<path fill="none" stroke="midnightblue" d="M437.98,-499.2C428.84,-430.61 395.37,-204.64 345,-155 341.18,-151.23 336.73,-148.17 331.94,-145.69"/>
<polygon fill="midnightblue" stroke="midnightblue" points="434.55,-500 439.32,-509.46 441.49,-499.09 434.55,-500"/>
</g>
<!-- Node31 -->
<g id="node31" class="node">
<title>Node31</title>
<g id="a_node31"><a xlink:href="classsss_1_1api_1_1S3Api.html#ac098e2619080dde98a75b71af8f66eef" target="_top" xlink:title="Set object tags.">
<polygon fill="none" stroke="black" points="200.5,-77 200.5,-107 333.5,-107 333.5,-77 200.5,-77"/>
<text text-anchor="start" x="208.5" y="-95" font-family="Helvetica,sans-Serif" font-size="10.00">sss::api::S3Api::PutObject</text>
<text text-anchor="middle" x="267" y="-84" font-family="Helvetica,sans-Serif" font-size="10.00">Tagging</text>
</a>
</g>
</g>
<!-- Node6&#45;&gt;Node31 -->
<g id="edge30" class="edge">
<title>Node6&#45;&gt;Node31</title>
<path fill="none" stroke="midnightblue" d="M438.35,-499.18C430.08,-426.31 398.09,-174.56 345,-117 341.47,-113.18 337.36,-109.94 332.9,-107.19"/>
<polygon fill="midnightblue" stroke="midnightblue" points="434.89,-499.73 439.48,-509.28 441.85,-498.95 434.89,-499.73"/>
</g>
<!-- Node32 -->
<g id="node32" class="node">
<title>Node32</title>
<g id="a_node32"><a xlink:href="classsss_1_1api_1_1S3Api.html#a0473917e4d25a4a6fca40d097e4299d6" target="_top" xlink:title=" ">
<polygon fill="none" stroke="black" points="211,-38.5 211,-57.5 323,-57.5 323,-38.5 211,-38.5"/>
<text text-anchor="middle" x="267" y="-45.5" font-family="Helvetica,sans-Serif" font-size="10.00">sss::api::S3Api::Send</text>
</a>
</g>
</g>
<!-- Node6&#45;&gt;Node32 -->
<g id="edge31" class="edge">
<title>Node6&#45;&gt;Node32</title>
<path fill="none" stroke="midnightblue" d="M439.06,-499.16C432.93,-420.35 406.51,-130.61 345,-67 338.97,-60.76 331.25,-56.45 323.02,-53.48"/>
<polygon fill="midnightblue" stroke="midnightblue" points="435.57,-499.5 439.82,-509.21 442.55,-498.97 435.57,-499.5"/>
</g>
<!-- Node33 -->
<g id="node33" class="node">
<title>Node33</title>
<g id="a_node33"><a xlink:href="classsss_1_1api_1_1S3Api.html#a23223ee1fb701c55af2d942dbf261ae2" target="_top" xlink:title="Check if bucket exist.">
<polygon fill="none" stroke="black" points="197.5,-0.5 197.5,-19.5 336.5,-19.5 336.5,-0.5 197.5,-0.5"/>
<text text-anchor="middle" x="267" y="-7.5" font-family="Helvetica,sans-Serif" font-size="10.00">sss::api::S3Api::TestBucket</text>
</a>
</g>
</g>
<!-- Node6&#45;&gt;Node33 -->
<g id="edge32" class="edge">
<title>Node6&#45;&gt;Node33</title>
<path fill="none" stroke="midnightblue" d="M439.41,-499.12C434.45,-416.16 411.34,-98.7 345,-29 341.39,-25.21 337.16,-22.13 332.57,-19.62"/>
<polygon fill="midnightblue" stroke="midnightblue" points="435.92,-499.43 439.99,-509.22 442.91,-499.03 435.92,-499.43"/>
</g>
<!-- Node22 -->
<g id="node22" class="node">
<title>Node22</title>
<g id="a_node22"><a xlink:href="classsss_1_1api_1_1S3Api.html#ae6a826615a079564b77bb680b6b75a34" target="_top" xlink:title="Return object size.">
<polygon fill="none" stroke="black" points="0,-446.5 0,-465.5 153,-465.5 153,-446.5 0,-446.5"/>
<text text-anchor="middle" x="76.5" y="-453.5" font-family="Helvetica,sans-Serif" font-size="10.00">sss::api::S3Api::GetObjectSize</text>
</a>
</g>
</g>
<!-- Node21&#45;&gt;Node22 -->
<g id="edge21" class="edge">
<title>Node21&#45;&gt;Node22</title>
<path fill="none" stroke="midnightblue" d="M186.35,-445.03C175.37,-446.14 164.11,-447.27 153.2,-448.37"/>
<polygon fill="midnightblue" stroke="midnightblue" points="186.75,-448.51 196.35,-444.02 186.04,-441.54 186.75,-448.51"/>
</g>
<!-- Node23 -->
<g id="node23" class="node">
<title>Node23</title>
<g id="a_node23"><a xlink:href="classsss_1_1api_1_1S3Api.html#aa3f7a3001bdad58c7b0c04cbd0dc3236" target="_top" xlink:title="Check if key exists.">
<polygon fill="none" stroke="black" points="8,-408.5 8,-427.5 145,-427.5 145,-408.5 8,-408.5"/>
<text text-anchor="middle" x="76.5" y="-415.5" font-family="Helvetica,sans-Serif" font-size="10.00">sss::api::S3Api::TestObject</text>
</a>
</g>
</g>
<!-- Node21&#45;&gt;Node23 -->
<g id="edge22" class="edge">
<title>Node21&#45;&gt;Node23</title>
<path fill="none" stroke="midnightblue" d="M186.07,-428.94C172.5,-427.58 158.52,-426.17 145.3,-424.83"/>
<polygon fill="midnightblue" stroke="midnightblue" points="186.04,-432.46 196.35,-429.98 186.75,-425.49 186.04,-432.46"/>
</g>
</g>
</svg>
        <g id="navigator" transform="translate(0 0)" fill="#404254">
                <rect fill="#f2f5e9" fill-opacity="0.5" stroke="#606060" stroke-width=".5" x="0" y="0" width="60" height="60"/>
                <use id="zoomplus" xlink:href="#zoomPlus" x="17" y="9" onmousedown="handleZoom(evt,'in')"/>
                <use id="zoomminus" xlink:href="#zoomMin" x="42" y="9" onmousedown="handleZoom(evt,'out')"/>
                <use id="reset" xlink:href="#resetDef" x="30" y="36" onmousedown="handleReset()"/>
                <g id="arrowUp" xlink:href="#dirArrow" transform="translate(30 24)" onmousedown="handlePan(0,-1)">
                  <use xlink:href="#rim" fill="#404040">
                        <set attributeName="fill" to="#808080" begin="arrowUp.mouseover" end="arrowUp.mouseout"/>
                  </use>
                  <path fill="none" stroke="white" stroke-width="1.5" d="M0,-3.0v7 M-2.5,-0.5L0,-3.0L2.5,-0.5"/>
                </g>
                <g id="arrowRight" xlink:href="#dirArrow" transform="rotate(90) translate(36 -43)" onmousedown="handlePan(1,0)">
                  <use xlink:href="#rim" fill="#404040">
                        <set attributeName="fill" to="#808080" begin="arrowRight.mouseover" end="arrowRight.mouseout"/>
                  </use>
                  <path fill="none" stroke="white" stroke-width="1.5" d="M0,-3.0v7 M-2.5,-0.5L0,-3.0L2.5,-0.5"/>
                </g>
                <g id="arrowDown" xlink:href="#dirArrow" transform="rotate(180) translate(-30 -48)" onmousedown="handlePan(0,1)">
                  <use xlink:href="#rim" fill="#404040">
                        <set attributeName="fill" to="#808080" begin="arrowDown.mouseover" end="arrowDown.mouseout"/>
                  </use>
                  <path fill="none" stroke="white" stroke-width="1.5" d="M0,-3.0v7 M-2.5,-0.5L0,-3.0L2.5,-0.5"/>
                </g>
                <g id="arrowLeft" xlink:href="#dirArrow" transform="rotate(270) translate(-36 17)" onmousedown="handlePan(-1,0)">
                  <use xlink:href="#rim" fill="#404040">
                        <set attributeName="fill" to="#808080" begin="arrowLeft.mouseover" end="arrowLeft.mouseout"/>
                  </use>
                  <path fill="none" stroke="white" stroke-width="1.5" d="M0,-3.0v7 M-2.5,-0.5L0,-3.0L2.5,-0.5"/>
                </g>
        </g>
        <svg viewBox="0 0 15 15" width="100%" height="30px" preserveAspectRatio="xMaxYMin meet">
         <g id="arrow_out" transform="scale(0.3 0.3)">
          <a xlink:href="classsss_1_1WebClient_a9bf978d95b79728f6d60fc2bdb4fe546_icgraph_org.svg" target="_base">
           <rect id="button" ry="5" rx="5" y="6" x="6" height="38" width="38"
                fill="#f2f5e9" fill-opacity="0.5" stroke="#606060" stroke-width="1.0"/>
           <path id="arrow"
             d="M 11.500037,31.436501 C 11.940474,20.09759 22.043105,11.32322 32.158766,21.979434 L 37.068811,17.246167 C 37.068811,17.246167 37.088388,32 37.088388,32 L 22.160133,31.978069 C 22.160133,31.978069 26.997745,27.140456 26.997745,27.140456 C 18.528582,18.264221 13.291696,25.230495 11.500037,31.436501 z"
             style="fill:#404040;"/>
          </a>
         </g>
        </svg>
</svg>
