<?xml version="1.0" encoding="UTF-8" standalone="no"?>
<!DOCTYPE svg PUBLIC "-//W3C//DTD SVG 1.1//EN"
 "http://www.w3.org/Graphics/SVG/1.1/DTD/svg11.dtd">
<!-- Generated by graphviz version 2.43.0 (0)
 -->
<!-- Title: sss::api::S3Api::TestBucket Pages: 1 -->
<!--zoomable 521 -->
<svg id="main" version="1.1" xmlns="http://www.w3.org/2000/svg" xmlns:xlink="http://www.w3.org/1999/xlink" xml:space="preserve" onload="init(evt)">
<style type="text/css"><![CDATA[
.edge:hover path { stroke: red; }
.edge:hover polygon { stroke: red; fill: red; }
]]></style>
<script type="text/javascript"><![CDATA[
var edges = document.getElementsByTagName('g');
if (edges && edges.length) {
  for (var i=0;i<edges.length;i++) {
    if (edges[i].id.substr(0,4)=='edge') {
      edges[i].setAttribute('class','edge');
    }
  }
}
]]></script>
        <defs>
                <circle id="rim" cx="0" cy="0" r="7"/>
                <circle id="rim2" cx="0" cy="0" r="3.5"/>
                <g id="zoomPlus">
                        <use xlink:href="#rim" fill="#404040">
                                <set attributeName="fill" to="#808080" begin="zoomplus.mouseover" end="zoomplus.mouseout"/>
                        </use>
                        <path d="M-4,0h8M0,-4v8" fill="none" stroke="white" stroke-width="1.5" pointer-events="none"/>
                </g>
                <g id="zoomMin">
                        <use xlink:href="#rim" fill="#404040">
                                <set attributeName="fill" to="#808080" begin="zoomminus.mouseover" end="zoomminus.mouseout"/>
                        </use>
                        <path d="M-4,0h8" fill="none" stroke="white" stroke-width="1.5" pointer-events="none"/>
                </g>
                <g id="dirArrow">
                        <path fill="none" stroke="white" stroke-width="1.5" d="M0,-3.0v7 M-2.5,-0.5L0,-3.0L2.5,-0.5"/>
                </g>
               <g id="resetDef">
                       <use xlink:href="#rim2" fill="#404040">
                               <set attributeName="fill" to="#808080" begin="reset.mouseover" end="reset.mouseout"/>
                       </use>
               </g>
        </defs>

<script type="text/javascript">
var viewWidth = 1087;
var viewHeight = 521;
var sectionId = 'dynsection-32';
</script>
<script xlink:href="svgpan.js"/>
<svg id="graph" class="graph">
<g id="viewport">
<title>sss::api::S3Api::TestBucket</title>
<!-- Node1 -->
<g id="node1" class="node">
<title>Node1</title>
<g id="a_node1"><a xlink:title="Check if bucket exist.">
<polygon fill="#bfbfbf" stroke="black" points="0,-88 0,-107 139,-107 139,-88 0,-88"/>
<text text-anchor="middle" x="69.5" y="-95" font-family="Helvetica,sans-Serif" font-size="10.00">sss::api::S3Api::TestBucket</text>
</a>
</g>
</g>
<!-- Node2 -->
<g id="node2" class="node">
<title>Node2</title>
<g id="a_node2"><a xlink:href="classsss_1_1api_1_1S3Api.html#a02b4f0c95255f151beb72f0a6bdf5889" target="_top" xlink:title="Send request.">
<polygon fill="none" stroke="black" points="180,-110 180,-129 292,-129 292,-110 180,-110"/>
<text text-anchor="middle" x="236" y="-117" font-family="Helvetica,sans-Serif" font-size="10.00">sss::api::S3Api::Send</text>
</a>
</g>
</g>
<!-- Node1&#45;&gt;Node2 -->
<g id="edge1" class="edge">
<title>Node1&#45;&gt;Node2</title>
<path fill="none" stroke="midnightblue" d="M139.31,-106.7C149.48,-108.06 159.93,-109.46 170.02,-110.81"/>
<polygon fill="midnightblue" stroke="midnightblue" points="169.58,-114.28 179.96,-112.14 170.51,-107.34 169.58,-114.28"/>
</g>
<!-- Node24 -->
<g id="node24" class="node">
<title>Node24</title>
<g id="a_node24"><a xlink:href="classsss_1_1api_1_1S3Api.html#ac8625078c491207079abda2a7732ecb1" target="_top" xlink:title=" ">
<polygon fill="none" stroke="black" points="175,-60.5 175,-90.5 297,-90.5 297,-60.5 175,-60.5"/>
<text text-anchor="start" x="183" y="-78.5" font-family="Helvetica,sans-Serif" font-size="10.00">sss::api::S3Api::Signing</text>
<text text-anchor="middle" x="236" y="-67.5" font-family="Helvetica,sans-Serif" font-size="10.00">Endpoint</text>
</a>
</g>
</g>
<!-- Node1&#45;&gt;Node24 -->
<g id="edge29" class="edge">
<title>Node1&#45;&gt;Node24</title>
<path fill="none" stroke="midnightblue" d="M139.31,-88.3C147.7,-87.18 156.28,-86.03 164.68,-84.9"/>
<polygon fill="midnightblue" stroke="midnightblue" points="165.39,-88.34 174.83,-83.55 164.46,-81.4 165.39,-88.34"/>
</g>
<!-- Node3 -->
<g id="node3" class="node">
<title>Node3</title>
<g id="a_node3"><a xlink:href="classsss_1_1api_1_1S3Api.html#a840772746fbb0a79c161037da7b24a31" target="_top" xlink:title="Configure instance.">
<polygon fill="none" stroke="black" points="351.5,-278 351.5,-297 469.5,-297 469.5,-278 351.5,-278"/>
<text text-anchor="middle" x="410.5" y="-285" font-family="Helvetica,sans-Serif" font-size="10.00">sss::api::S3Api::Config</text>
</a>
</g>
</g>
<!-- Node2&#45;&gt;Node3 -->
<g id="edge2" class="edge">
<title>Node2&#45;&gt;Node3</title>
<path fill="none" stroke="midnightblue" d="M246.77,-129.01C274.86,-156.38 356.16,-235.55 392.08,-270.53"/>
<polygon fill="midnightblue" stroke="midnightblue" points="389.8,-273.2 399.41,-277.67 394.69,-268.19 389.8,-273.2"/>
</g>
<!-- Node12 -->
<g id="node12" class="node">
<title>Node12</title>
<g id="a_node12"><a xlink:href="classsss_1_1WebClient.html#a51ce0ecf6487b6a43072643fe4f4cb4e" target="_top" xlink:title=" ">
<polygon fill="none" stroke="black" points="717.5,-468 717.5,-487 863.5,-487 863.5,-468 717.5,-468"/>
<text text-anchor="middle" x="790.5" y="-475" font-family="Helvetica,sans-Serif" font-size="10.00">sss::WebClient::SetPostData</text>
</a>
</g>
</g>
<!-- Node2&#45;&gt;Node12 -->
<g id="edge23" class="edge">
<title>Node2&#45;&gt;Node12</title>
<path fill="none" stroke="midnightblue" d="M240.21,-129.13C258.02,-180.74 350.25,-424.8 524,-496.5 600.65,-528.13 700.29,-506.09 753.03,-490.07"/>
<polygon fill="midnightblue" stroke="midnightblue" points="754.13,-493.39 762.62,-487.06 752.03,-486.71 754.13,-493.39"/>
</g>
<!-- Node19 -->
<g id="node19" class="node">
<title>Node19</title>
<g id="a_node19"><a xlink:href="group__Internal.html#ga2b8b08c2a4994a87377d83ccfa9a6a53" target="_top" xlink:title=" ">
<polygon fill="none" stroke="black" points="361.5,-50 361.5,-69 459.5,-69 459.5,-50 361.5,-50"/>
<text text-anchor="middle" x="410.5" y="-57" font-family="Helvetica,sans-Serif" font-size="10.00">sss::ParseParams</text>
</a>
</g>
</g>
<!-- Node2&#45;&gt;Node19 -->
<g id="edge21" class="edge">
<title>Node2&#45;&gt;Node19</title>
<path fill="none" stroke="midnightblue" d="M269.98,-109.93C278.84,-107.13 288.35,-103.89 297,-100.5 313.47,-94.04 316.52,-89.94 333,-83.5 343.52,-79.39 355.06,-75.47 365.91,-72.04"/>
<polygon fill="midnightblue" stroke="midnightblue" points="367.12,-75.33 375.64,-69.03 365.05,-68.64 367.12,-75.33"/>
</g>
<!-- Node20 -->
<g id="node20" class="node">
<title>Node20</title>
<g id="a_node20"><a xlink:href="classsss_1_1WebClient.html#aa1d7484f0e09242ce53b24f9648ce50e" target="_top" xlink:title=" ">
<polygon fill="none" stroke="black" points="539.5,-88 539.5,-107 651.5,-107 651.5,-88 539.5,-88"/>
<text text-anchor="middle" x="595.5" y="-95" font-family="Helvetica,sans-Serif" font-size="10.00">sss::WebClient::Send</text>
</a>
</g>
</g>
<!-- Node2&#45;&gt;Node20 -->
<g id="edge22" class="edge">
<title>Node2&#45;&gt;Node20</title>
<path fill="none" stroke="midnightblue" d="M292.08,-116.11C355.98,-112.18 461.24,-105.7 529.2,-101.52"/>
<polygon fill="midnightblue" stroke="midnightblue" points="529.6,-105 539.36,-100.89 529.17,-98.01 529.6,-105"/>
</g>
<!-- Node21 -->
<g id="node21" class="node">
<title>Node21</title>
<g id="a_node21"><a xlink:href="classsss_1_1WebClient.html#a7dfd984b33a29686fb0355b65b620e99" target="_top" xlink:title=" ">
<polygon fill="none" stroke="black" points="333,-0.5 333,-30.5 488,-30.5 488,-0.5 333,-0.5"/>
<text text-anchor="start" x="341" y="-18.5" font-family="Helvetica,sans-Serif" font-size="10.00">sss::WebClient::SetUrlEncoded</text>
<text text-anchor="middle" x="410.5" y="-7.5" font-family="Helvetica,sans-Serif" font-size="10.00">PostData</text>
</a>
</g>
</g>
<!-- Node2&#45;&gt;Node21 -->
<g id="edge24" class="edge">
<title>Node2&#45;&gt;Node21</title>
<path fill="none" stroke="midnightblue" d="M280.54,-109.9C286.43,-107.44 292.11,-104.36 297,-100.5 321.4,-81.22 308.68,-59.89 333,-40.5 335.25,-38.7 337.64,-37.03 340.12,-35.48"/>
<polygon fill="midnightblue" stroke="midnightblue" points="341.82,-38.54 348.89,-30.65 338.44,-32.41 341.82,-38.54"/>
</g>
<!-- Node23 -->
<g id="node23" class="node">
<title>Node23</title>
<g id="a_node23"><a xlink:href="classsss_1_1WebClient.html#ae7b1f77bd4ae44585f2d49ea493bdcc5" target="_top" xlink:title="Upload data from memory buffer.">
<polygon fill="none" stroke="black" points="340,-126.5 340,-156.5 481,-156.5 481,-126.5 340,-126.5"/>
<text text-anchor="start" x="348" y="-144.5" font-family="Helvetica,sans-Serif" font-size="10.00">sss::WebClient::UploadData</text>
<text text-anchor="middle" x="410.5" y="-133.5" font-family="Helvetica,sans-Serif" font-size="10.00">FromBuffer</text>
</a>
</g>
</g>
<!-- Node2&#45;&gt;Node23 -->
<g id="edge26" class="edge">
<title>Node2&#45;&gt;Node23</title>
<path fill="none" stroke="midnightblue" d="M292.05,-126.52C304.04,-128.05 316.95,-129.7 329.67,-131.32"/>
<polygon fill="midnightblue" stroke="midnightblue" points="329.45,-134.82 339.81,-132.61 330.33,-127.87 329.45,-134.82"/>
</g>
<!-- Node4 -->
<g id="node4" class="node">
<title>Node4</title>
<g id="a_node4"><a xlink:href="classsss_1_1api_1_1S3Api.html#a1a4e05ac14390c7f42feef2c26e22031" target="_top" xlink:title=" ">
<polygon fill="none" stroke="black" points="534.5,-392 534.5,-411 656.5,-411 656.5,-392 534.5,-392"/>
<text text-anchor="middle" x="595.5" y="-399" font-family="Helvetica,sans-Serif" font-size="10.00">sss::api::S3Api::Access</text>
</a>
</g>
</g>
<!-- Node3&#45;&gt;Node4 -->
<g id="edge3" class="edge">
<title>Node3&#45;&gt;Node4</title>
<path fill="none" stroke="midnightblue" d="M421.18,-297.23C439.66,-315.33 481.89,-354.42 524,-377.5 531.83,-381.79 540.56,-385.51 549.14,-388.66"/>
<polygon fill="midnightblue" stroke="midnightblue" points="548.11,-392.01 558.7,-391.97 550.39,-385.39 548.11,-392.01"/>
</g>
<!-- Node5 -->
<g id="node5" class="node">
<title>Node5</title>
<g id="a_node5"><a xlink:href="classsss_1_1api_1_1S3Api.html#a3718745d3b940462ae9f3b78f773b3a6" target="_top" xlink:title="Clear data and reset read and write functions.">
<polygon fill="none" stroke="black" points="539,-316 539,-335 652,-335 652,-316 539,-316"/>
<text text-anchor="middle" x="595.5" y="-323" font-family="Helvetica,sans-Serif" font-size="10.00">sss::api::S3Api::Clear</text>
</a>
</g>
</g>
<!-- Node3&#45;&gt;Node5 -->
<g id="edge4" class="edge">
<title>Node3&#45;&gt;Node5</title>
<path fill="none" stroke="midnightblue" d="M457.68,-297.09C482.26,-302.19 512.69,-308.51 538.6,-313.89"/>
<polygon fill="midnightblue" stroke="midnightblue" points="538.15,-317.37 548.65,-315.98 539.57,-310.52 538.15,-317.37"/>
</g>
<!-- Node10 -->
<g id="node10" class="node">
<title>Node10</title>
<g id="a_node10"><a xlink:href="classsss_1_1WebClient.html#a75890c14fbe4a4bbac61718a4f3c064d" target="_top" xlink:title=" ">
<polygon fill="none" stroke="black" points="720,-373 720,-392 861,-392 861,-373 720,-373"/>
<text text-anchor="middle" x="790.5" y="-380" font-family="Helvetica,sans-Serif" font-size="10.00">sss::WebClient::SetHeaders</text>
</a>
</g>
</g>
<!-- Node3&#45;&gt;Node10 -->
<g id="edge16" class="edge">
<title>Node3&#45;&gt;Node10</title>
<path fill="none" stroke="midnightblue" d="M426.47,-297.1C447.41,-310.06 487.04,-332.84 524,-344.5 584.7,-363.65 656.27,-373.18 709.8,-377.91"/>
<polygon fill="midnightblue" stroke="midnightblue" points="709.66,-381.41 719.92,-378.76 710.25,-374.43 709.66,-381.41"/>
</g>
<!-- Node11 -->
<g id="node11" class="node">
<title>Node11</title>
<g id="a_node11"><a xlink:href="classsss_1_1WebClient.html#a12b5db6b8c667024557ab58059d39994" target="_top" xlink:title=" ">
<polygon fill="none" stroke="black" points="728,-259 728,-278 853,-278 853,-259 728,-259"/>
<text text-anchor="middle" x="790.5" y="-266" font-family="Helvetica,sans-Serif" font-size="10.00">sss::WebClient::SetPath</text>
</a>
</g>
</g>
<!-- Node3&#45;&gt;Node11 -->
<g id="edge18" class="edge">
<title>Node3&#45;&gt;Node11</title>
<path fill="none" stroke="midnightblue" d="M469.73,-284.57C536.35,-281.22 645.48,-275.74 717.41,-272.12"/>
<polygon fill="midnightblue" stroke="midnightblue" points="717.93,-275.6 727.74,-271.6 717.58,-268.61 717.93,-275.6"/>
</g>
<!-- Node13 -->
<g id="node13" class="node">
<title>Node13</title>
<g id="a_node13"><a xlink:href="classsss_1_1WebClient.html#a9bf978d95b79728f6d60fc2bdb4fe546" target="_top" xlink:title=" ">
<polygon fill="none" stroke="black" points="704,-221 704,-240 877,-240 877,-221 704,-221"/>
<text text-anchor="middle" x="790.5" y="-228" font-family="Helvetica,sans-Serif" font-size="10.00">sss::WebClient::SetReqParameters</text>
</a>
</g>
</g>
<!-- Node3&#45;&gt;Node13 -->
<g id="edge19" class="edge">
<title>Node3&#45;&gt;Node13</title>
<path fill="none" stroke="midnightblue" d="M425.22,-277.83C445.62,-264.12 485.67,-239.66 524,-230.5 581.58,-216.75 648.21,-216.79 700.32,-220.25"/>
<polygon fill="midnightblue" stroke="midnightblue" points="700.32,-223.76 710.54,-220.99 700.82,-216.78 700.32,-223.76"/>
</g>
<!-- Node14 -->
<g id="node14" class="node">
<title>Node14</title>
<g id="a_node14"><a xlink:href="classsss_1_1api_1_1S3Api.html#a70f1068d07e1d4c1be164e0cb9328cc0" target="_top" xlink:title=" ">
<polygon fill="none" stroke="black" points="531.5,-164 531.5,-183 659.5,-183 659.5,-164 531.5,-164"/>
<text text-anchor="middle" x="595.5" y="-171" font-family="Helvetica,sans-Serif" font-size="10.00">sss::api::S3Api::Endpoint</text>
</a>
</g>
</g>
<!-- Node3&#45;&gt;Node14 -->
<g id="edge13" class="edge">
<title>Node3&#45;&gt;Node14</title>
<path fill="none" stroke="midnightblue" d="M421.18,-277.77C439.66,-259.67 481.89,-220.58 524,-197.5 531.83,-193.21 540.56,-189.49 549.14,-186.34"/>
<polygon fill="midnightblue" stroke="midnightblue" points="550.39,-189.61 558.7,-183.03 548.11,-182.99 550.39,-189.61"/>
</g>
<!-- Node15 -->
<g id="node15" class="node">
<title>Node15</title>
<g id="a_node15"><a xlink:href="classsss_1_1api_1_1S3Api.html#acfffe29254323fb41231787a0afb7edc" target="_top" xlink:title=" ">
<polygon fill="none" stroke="black" points="536.5,-468 536.5,-487 654.5,-487 654.5,-468 536.5,-468"/>
<text text-anchor="middle" x="595.5" y="-475" font-family="Helvetica,sans-Serif" font-size="10.00">sss::api::S3Api::Secret</text>
</a>
</g>
</g>
<!-- Node3&#45;&gt;Node15 -->
<g id="edge14" class="edge">
<title>Node3&#45;&gt;Node15</title>
<path fill="none" stroke="midnightblue" d="M414.92,-297.01C425.86,-326.06 462.95,-414.36 524,-458.5 526.67,-460.43 529.53,-462.17 532.5,-463.72"/>
<polygon fill="midnightblue" stroke="midnightblue" points="531.17,-466.96 541.72,-467.89 534.05,-460.58 531.17,-466.96"/>
</g>
<!-- Node16 -->
<g id="node16" class="node">
<title>Node16</title>
<g id="a_node16"><a xlink:href="classsss_1_1WebClient.html#afc3b7a92568fbb1ea447918920ca266e" target="_top" xlink:title="Set endpoint: &lt;proto&gt;://&lt;server&gt;:&lt;port&gt;">
<polygon fill="none" stroke="black" points="524,-430 524,-449 667,-449 667,-430 524,-430"/>
<text text-anchor="middle" x="595.5" y="-437" font-family="Helvetica,sans-Serif" font-size="10.00">sss::WebClient::SetEndpoint</text>
</a>
</g>
</g>
<!-- Node3&#45;&gt;Node16 -->
<g id="edge15" class="edge">
<title>Node3&#45;&gt;Node16</title>
<path fill="none" stroke="midnightblue" d="M416.89,-297.27C431.01,-321.97 471.67,-387.25 524,-420.5 527.34,-422.62 530.9,-424.5 534.6,-426.18"/>
<polygon fill="midnightblue" stroke="midnightblue" points="533.4,-429.47 543.98,-429.93 536,-422.97 533.4,-429.47"/>
</g>
<!-- Node17 -->
<g id="node17" class="node">
<title>Node17</title>
<g id="a_node17"><a xlink:href="classsss_1_1WebClient.html#af6233ffd7b294e1e7e606e838dd44e9e" target="_top" xlink:title=" ">
<polygon fill="none" stroke="black" points="527,-126 527,-145 664,-145 664,-126 527,-126"/>
<text text-anchor="middle" x="595.5" y="-133" font-family="Helvetica,sans-Serif" font-size="10.00">sss::WebClient::SetMethod</text>
</a>
</g>
</g>
<!-- Node3&#45;&gt;Node17 -->
<g id="edge17" class="edge">
<title>Node3&#45;&gt;Node17</title>
<path fill="none" stroke="midnightblue" d="M416.89,-277.73C431.01,-253.03 471.67,-187.75 524,-154.5 527.34,-152.38 530.9,-150.5 534.6,-148.82"/>
<polygon fill="midnightblue" stroke="midnightblue" points="536,-152.03 543.98,-145.07 533.4,-145.53 536,-152.03"/>
</g>
<!-- Node18 -->
<g id="node18" class="node">
<title>Node18</title>
<g id="a_node18"><a xlink:href="group__Sign.html#ga3ae8e18ef70752b7369fca66c40c526b" target="_top" xlink:title="Sign headers.">
<polygon fill="none" stroke="black" points="548,-240 548,-259 643,-259 643,-240 548,-240"/>
<text text-anchor="middle" x="595.5" y="-247" font-family="Helvetica,sans-Serif" font-size="10.00">sss::SignHeaders</text>
</a>
</g>
</g>
<!-- Node3&#45;&gt;Node18 -->
<g id="edge20" class="edge">
<title>Node3&#45;&gt;Node18</title>
<path fill="none" stroke="midnightblue" d="M457.68,-277.91C482.26,-272.81 512.69,-266.49 538.6,-261.11"/>
<polygon fill="midnightblue" stroke="midnightblue" points="539.57,-264.48 548.65,-259.02 538.15,-257.63 539.57,-264.48"/>
</g>
<!-- Node6 -->
<g id="node6" class="node">
<title>Node6</title>
<g id="a_node6"><a xlink:href="classsss_1_1WebClient.html#a381f5715b7a2f19a0d4414d278874bae" target="_top" xlink:title="Clear internal buffers.">
<polygon fill="none" stroke="black" points="718.5,-335 718.5,-354 862.5,-354 862.5,-335 718.5,-335"/>
<text text-anchor="middle" x="790.5" y="-342" font-family="Helvetica,sans-Serif" font-size="10.00">sss::WebClient::ClearBuffers</text>
</a>
</g>
</g>
<!-- Node5&#45;&gt;Node6 -->
<g id="edge5" class="edge">
<title>Node5&#45;&gt;Node6</title>
<path fill="none" stroke="midnightblue" d="M652.06,-330.97C669.62,-332.7 689.4,-334.65 708.36,-336.51"/>
<polygon fill="midnightblue" stroke="midnightblue" points="708.2,-340.01 718.49,-337.51 708.88,-333.05 708.2,-340.01"/>
</g>
<!-- Node7 -->
<g id="node7" class="node">
<title>Node7</title>
<g id="a_node7"><a xlink:href="classsss_1_1WebClient.html#a96837f149bb473853a6523d096a25c56" target="_top" xlink:title="Reset read/write functions to default.">
<polygon fill="none" stroke="black" points="703,-297 703,-316 878,-316 878,-297 703,-297"/>
<text text-anchor="middle" x="790.5" y="-304" font-family="Helvetica,sans-Serif" font-size="10.00">sss::WebClient::ResetRWFunctions</text>
</a>
</g>
</g>
<!-- Node5&#45;&gt;Node7 -->
<g id="edge6" class="edge">
<title>Node5&#45;&gt;Node7</title>
<path fill="none" stroke="midnightblue" d="M652.06,-320.03C664.79,-318.78 678.68,-317.41 692.58,-316.04"/>
<polygon fill="midnightblue" stroke="midnightblue" points="693.08,-319.51 702.69,-315.05 692.39,-312.54 693.08,-319.51"/>
</g>
<!-- Node5&#45;&gt;Node10 -->
<g id="edge9" class="edge">
<title>Node5&#45;&gt;Node10</title>
<path fill="none" stroke="midnightblue" d="M625.41,-335.03C638.2,-339.33 653.39,-344.54 667,-349.5 683.13,-355.38 686.57,-358.53 703,-363.5 711.65,-366.11 720.88,-368.53 729.98,-370.7"/>
<polygon fill="midnightblue" stroke="midnightblue" points="729.23,-374.12 739.76,-372.95 730.8,-367.3 729.23,-374.12"/>
</g>
<!-- Node5&#45;&gt;Node11 -->
<g id="edge10" class="edge">
<title>Node5&#45;&gt;Node11</title>
<path fill="none" stroke="midnightblue" d="M625.41,-315.97C638.2,-311.67 653.39,-306.46 667,-301.5 683.13,-295.62 686.57,-292.47 703,-287.5 711.65,-284.89 720.88,-282.47 729.98,-280.3"/>
<polygon fill="midnightblue" stroke="midnightblue" points="730.8,-283.7 739.76,-278.05 729.23,-276.88 730.8,-283.7"/>
</g>
<!-- Node5&#45;&gt;Node12 -->
<g id="edge11" class="edge">
<title>Node5&#45;&gt;Node12</title>
<path fill="none" stroke="midnightblue" d="M608.57,-335.01C640.86,-360.44 729.47,-430.22 769.46,-461.71"/>
<polygon fill="midnightblue" stroke="midnightblue" points="767.41,-464.56 777.43,-468 771.74,-459.06 767.41,-464.56"/>
</g>
<!-- Node5&#45;&gt;Node13 -->
<g id="edge12" class="edge">
<title>Node5&#45;&gt;Node13</title>
<path fill="none" stroke="midnightblue" d="M606.79,-315.93C624.83,-299.7 663.97,-266.84 703,-249.5 708.72,-246.96 714.8,-244.75 720.99,-242.82"/>
<polygon fill="midnightblue" stroke="midnightblue" points="722.12,-246.14 730.77,-240.03 720.2,-239.41 722.12,-246.14"/>
</g>
<!-- Node8 -->
<g id="node8" class="node">
<title>Node8</title>
<g id="a_node8"><a xlink:href="classsss_1_1WebClient.html#a88dbcc61562e84aa9ebf1eabf887ac28" target="_top" xlink:title=" ">
<polygon fill="none" stroke="black" points="914,-319 914,-338 1079,-338 1079,-319 914,-319"/>
<text text-anchor="middle" x="996.5" y="-326" font-family="Helvetica,sans-Serif" font-size="10.00">sss::WebClient::SetReadFunction</text>
</a>
</g>
</g>
<!-- Node7&#45;&gt;Node8 -->
<g id="edge7" class="edge">
<title>Node7&#45;&gt;Node8</title>
<path fill="none" stroke="midnightblue" d="M878.01,-315.83C886.52,-316.75 895.18,-317.68 903.73,-318.6"/>
<polygon fill="midnightblue" stroke="midnightblue" points="903.4,-322.09 913.72,-319.68 904.15,-315.13 903.4,-322.09"/>
</g>
<!-- Node9 -->
<g id="node9" class="node">
<title>Node9</title>
<g id="a_node9"><a xlink:href="classsss_1_1WebClient.html#a002876073b3869a9b9a9d709d14f1d7e" target="_top" xlink:title=" ">
<polygon fill="none" stroke="black" points="933,-269.5 933,-299.5 1060,-299.5 1060,-269.5 933,-269.5"/>
<text text-anchor="start" x="941" y="-287.5" font-family="Helvetica,sans-Serif" font-size="10.00">sss::WebClient::SetWrite</text>
<text text-anchor="middle" x="996.5" y="-276.5" font-family="Helvetica,sans-Serif" font-size="10.00">Function</text>
</a>
</g>
</g>
<!-- Node7&#45;&gt;Node9 -->
<g id="edge8" class="edge">
<title>Node7&#45;&gt;Node9</title>
<path fill="none" stroke="midnightblue" d="M878.01,-297.17C892.87,-295.57 908.17,-293.92 922.63,-292.36"/>
<polygon fill="midnightblue" stroke="midnightblue" points="923.41,-295.79 932.98,-291.24 922.66,-288.83 923.41,-295.79"/>
</g>
<!-- Node22 -->
<g id="node22" class="node">
<title>Node22</title>
<g id="a_node22"><a xlink:href="group__Internal.html#ga6e3db8d156313abef7e2c966df1a3d7c" target="_top" xlink:title=" ">
<polygon fill="none" stroke="black" points="553.5,-6 553.5,-25 637.5,-25 637.5,-6 553.5,-6"/>
<text text-anchor="middle" x="595.5" y="-13" font-family="Helvetica,sans-Serif" font-size="10.00">sss::UrlEncode</text>
</a>
</g>
</g>
<!-- Node21&#45;&gt;Node22 -->
<g id="edge25" class="edge">
<title>Node21&#45;&gt;Node22</title>
<path fill="none" stroke="midnightblue" d="M488.05,-15.5C506.62,-15.5 526.04,-15.5 543.13,-15.5"/>
<polygon fill="midnightblue" stroke="midnightblue" points="543.44,-19 553.44,-15.5 543.44,-12 543.44,-19"/>
</g>
<!-- Node23&#45;&gt;Node17 -->
<g id="edge28" class="edge">
<title>Node23&#45;&gt;Node17</title>
<path fill="none" stroke="midnightblue" d="M481.21,-139.21C492.77,-138.84 504.82,-138.44 516.57,-138.05"/>
<polygon fill="midnightblue" stroke="midnightblue" points="516.92,-141.55 526.8,-137.72 516.69,-134.55 516.92,-141.55"/>
</g>
<!-- Node23&#45;&gt;Node20 -->
<g id="edge27" class="edge">
<title>Node23&#45;&gt;Node20</title>
<path fill="none" stroke="midnightblue" d="M473.97,-126.48C497.22,-120.89 523.27,-114.63 545.18,-109.36"/>
<polygon fill="midnightblue" stroke="midnightblue" points="546.03,-112.75 554.94,-107.01 544.4,-105.95 546.03,-112.75"/>
</g>
</g>
</svg>
        <g id="navigator" transform="translate(0 0)" fill="#404254">
                <rect fill="#f2f5e9" fill-opacity="0.5" stroke="#606060" stroke-width=".5" x="0" y="0" width="60" height="60"/>
                <use id="zoomplus" xlink:href="#zoomPlus" x="17" y="9" onmousedown="handleZoom(evt,'in')"/>
                <use id="zoomminus" xlink:href="#zoomMin" x="42" y="9" onmousedown="handleZoom(evt,'out')"/>
                <use id="reset" xlink:href="#resetDef" x="30" y="36" onmousedown="handleReset()"/>
                <g id="arrowUp" xlink:href="#dirArrow" transform="translate(30 24)" onmousedown="handlePan(0,-1)">
                  <use xlink:href="#rim" fill="#404040">
                        <set attributeName="fill" to="#808080" begin="arrowUp.mouseover" end="arrowUp.mouseout"/>
                  </use>
                  <path fill="none" stroke="white" stroke-width="1.5" d="M0,-3.0v7 M-2.5,-0.5L0,-3.0L2.5,-0.5"/>
                </g>
                <g id="arrowRight" xlink:href="#dirArrow" transform="rotate(90) translate(36 -43)" onmousedown="handlePan(1,0)">
                  <use xlink:href="#rim" fill="#404040">
                        <set attributeName="fill" to="#808080" begin="arrowRight.mouseover" end="arrowRight.mouseout"/>
                  </use>
                  <path fill="none" stroke="white" stroke-width="1.5" d="M0,-3.0v7 M-2.5,-0.5L0,-3.0L2.5,-0.5"/>
                </g>
                <g id="arrowDown" xlink:href="#dirArrow" transform="rotate(180) translate(-30 -48)" onmousedown="handlePan(0,1)">
                  <use xlink:href="#rim" fill="#404040">
                        <set attributeName="fill" to="#808080" begin="arrowDown.mouseover" end="arrowDown.mouseout"/>
                  </use>
                  <path fill="none" stroke="white" stroke-width="1.5" d="M0,-3.0v7 M-2.5,-0.5L0,-3.0L2.5,-0.5"/>
                </g>
                <g id="arrowLeft" xlink:href="#dirArrow" transform="rotate(270) translate(-36 17)" onmousedown="handlePan(-1,0)">
                  <use xlink:href="#rim" fill="#404040">
                        <set attributeName="fill" to="#808080" begin="arrowLeft.mouseover" end="arrowLeft.mouseout"/>
                  </use>
                  <path fill="none" stroke="white" stroke-width="1.5" d="M0,-3.0v7 M-2.5,-0.5L0,-3.0L2.5,-0.5"/>
                </g>
        </g>
        <svg viewBox="0 0 15 15" width="100%" height="30px" preserveAspectRatio="xMaxYMin meet">
         <g id="arrow_out" transform="scale(0.3 0.3)">
          <a xlink:href="classsss_1_1api_1_1S3Api_a23223ee1fb701c55af2d942dbf261ae2_cgraph_org.svg" target="_base">
           <rect id="button" ry="5" rx="5" y="6" x="6" height="38" width="38"
                fill="#f2f5e9" fill-opacity="0.5" stroke="#606060" stroke-width="1.0"/>
           <path id="arrow"
             d="M 11.500037,31.436501 C 11.940474,20.09759 22.043105,11.32322 32.158766,21.979434 L 37.068811,17.246167 C 37.068811,17.246167 37.088388,32 37.088388,32 L 22.160133,31.978069 C 22.160133,31.978069 26.997745,27.140456 26.997745,27.140456 C 18.528582,18.264221 13.291696,25.230495 11.500037,31.436501 z"
             style="fill:#404040;"/>
          </a>
         </g>
        </svg>
</svg>
