<?xml version="1.0" encoding="UTF-8" standalone="no"?>
<!DOCTYPE svg PUBLIC "-//W3C//DTD SVG 1.1//EN"
 "http://www.w3.org/Graphics/SVG/1.1/DTD/svg11.dtd">
<!-- Generated by graphviz version 2.43.0 (0)
 -->
<!-- Title: XMLOStream::operator[] Pages: 1 -->
<svg width="274pt" height="66pt"
 viewBox="0.00 0.00 274.00 66.00" xmlns="http://www.w3.org/2000/svg" xmlns:xlink="http://www.w3.org/1999/xlink">
<g id="graph0" class="graph" transform="scale(1 1) rotate(0) translate(4 62)">
<title>XMLOStream::operator[]</title>
<!-- Node1 -->
<g id="node1" class="node">
<title>Node1</title>
<g id="a_node1"><a xlink:title=" ">
<polygon fill="#bfbfbf" stroke="black" points="0,-19.5 0,-38.5 123,-38.5 123,-19.5 0,-19.5"/>
<text text-anchor="middle" x="61.5" y="-26.5" font-family="Helvetica,sans-Serif" font-size="10.00">XMLOStream::operator[]</text>
</a>
</g>
</g>
<!-- Node2 -->
<g id="node2" class="node">
<title>Node2</title>
<g id="a_node2"><a xlink:href="classXMLOStream.html#ab01547c43ff1fdaa0c3b8dc4bf14e694" target="_top" xlink:title=" ">
<polygon fill="none" stroke="black" points="159,-38.5 159,-57.5 266,-57.5 266,-38.5 159,-38.5"/>
<text text-anchor="middle" x="212.5" y="-45.5" font-family="Helvetica,sans-Serif" font-size="10.00">XMLOStream::Insert</text>
</a>
</g>
</g>
<!-- Node1&#45;&gt;Node2 -->
<g id="edge1" class="edge">
<title>Node1&#45;&gt;Node2</title>
<path fill="none" stroke="midnightblue" d="M123.1,-36.73C131.47,-37.79 140.07,-38.89 148.48,-39.96"/>
<polygon fill="midnightblue" stroke="midnightblue" points="148.24,-43.46 158.6,-41.25 149.12,-36.52 148.24,-43.46"/>
</g>
<!-- Node3 -->
<g id="node3" class="node">
<title>Node3</title>
<g id="a_node3"><a xlink:href="classXMLOStream.html#acd90de3b7bb6abc73df983624a26acb2" target="_top" xlink:title=" ">
<polygon fill="none" stroke="black" points="165,-0.5 165,-19.5 260,-19.5 260,-0.5 165,-0.5"/>
<text text-anchor="middle" x="212.5" y="-7.5" font-family="Helvetica,sans-Serif" font-size="10.00">XMLOStream::Up</text>
</a>
</g>
</g>
<!-- Node1&#45;&gt;Node3 -->
<g id="edge2" class="edge">
<title>Node1&#45;&gt;Node3</title>
<path fill="none" stroke="midnightblue" d="M123.1,-21.27C133.5,-19.95 144.26,-18.57 154.56,-17.26"/>
<polygon fill="midnightblue" stroke="midnightblue" points="155.19,-20.71 164.66,-15.97 154.3,-13.77 155.19,-20.71"/>
</g>
</g>
</svg>
