<?xml version="1.0" encoding="UTF-8" standalone="no"?>
<!DOCTYPE svg PUBLIC "-//W3C//DTD SVG 1.1//EN"
 "http://www.w3.org/Graphics/SVG/1.1/DTD/svg11.dtd">
<!-- Generated by graphviz version 8.0.5 (20230430.1635)
 -->
<!-- Title: sss::api::S3Api::GetObject Pages: 1 -->
<!--zoomable 647 -->
<svg id="main" version="1.1" xmlns="http://www.w3.org/2000/svg" xmlns:xlink="http://www.w3.org/1999/xlink" xml:space="preserve" onload="init(evt)">
<style type="text/css"><![CDATA[
.edge:hover path { stroke: red; }
.edge:hover polygon { stroke: red; fill: red; }
]]></style>
<script type="text/javascript"><![CDATA[
var edges = document.getElementsByTagName('g');
if (edges && edges.length) {
  for (var i=0;i<edges.length;i++) {
    if (edges[i].id.substr(0,4)=='edge') {
      edges[i].setAttribute('class','edge');
    }
  }
}
]]></script>
        <defs>
                <circle id="rim" cx="0" cy="0" r="7"/>
                <circle id="rim2" cx="0" cy="0" r="3.5"/>
                <g id="zoomPlus">
                        <use xlink:href="#rim" fill="#404040">
                                <set attributeName="fill" to="#808080" begin="zoomplus.mouseover" end="zoomplus.mouseout"/>
                        </use>
                        <path d="M-4,0h8M0,-4v8" fill="none" stroke="white" stroke-width="1.5" pointer-events="none"/>
                </g>
                <g id="zoomMin">
                        <use xlink:href="#rim" fill="#404040">
                                <set attributeName="fill" to="#808080" begin="zoomminus.mouseover" end="zoomminus.mouseout"/>
                        </use>
                        <path d="M-4,0h8" fill="none" stroke="white" stroke-width="1.5" pointer-events="none"/>
                </g>
                <g id="dirArrow">
                        <path fill="none" stroke="white" stroke-width="1.5" d="M0,-3.0v7 M-2.5,-0.5L0,-3.0L2.5,-0.5"/>
                </g>
               <g id="resetDef">
                       <use xlink:href="#rim2" fill="#404040">
                               <set attributeName="fill" to="#808080" begin="reset.mouseover" end="reset.mouseout"/>
                       </use>
               </g>
        </defs>

<script type="text/javascript">
var viewWidth = 1128;
var viewHeight = 647;
var sectionId = 'dynsection-16';
</script>
<script xlink:href="svgpan.js"/>
<svg id="graph" class="graph">
<g id="viewport">
<title>sss::api::S3Api::GetObject</title>
<!-- Node1 -->
<g id="node1" class="node">
<title>Node1</title>
<g id="a_node1"><a xlink:title=" ">
<polygon fill="#999999" stroke="#666666" points="133,-257.88 0,-257.88 0,-238.62 133,-238.62 133,-257.88"/>
<text text-anchor="middle" x="66.5" y="-244.38" font-family="Helvetica,sans-Serif" font-size="10.00">sss::api::S3Api::GetObject</text>
</a>
</g>
</g>
<!-- Node2 -->
<g id="node2" class="node">
<title>Node2</title>
<g id="a_node2"><a xlink:href="group__Ranges.html#ga0aa7f3b15d2ebf9b597a1b5ba38ae8ac" target="_top" xlink:title="return iterator at start position">
<polygon fill="white" stroke="#666666" points="1068,-636.88 1007,-636.88 1007,-617.62 1068,-617.62 1068,-636.88"/>
<text text-anchor="middle" x="1037.5" y="-623.38" font-family="Helvetica,sans-Serif" font-size="10.00">sss::begin</text>
</a>
</g>
</g>
<!-- Node1&#45;&gt;Node2 -->
<g id="edge1" class="edge">
<title>Node1&#45;&gt;Node2</title>
<path fill="none" stroke="#63b8ff" d="M71.35,-258.31C95.47,-319.51 232.05,-639.25 452.62,-639.25 452.62,-639.25 452.62,-639.25 639,-639.25 769.42,-639.25 923.79,-632.72 995.76,-629.29"/>
<polygon fill="#63b8ff" stroke="#63b8ff" points="995.77,-632.75 1005.59,-628.77 995.43,-625.76 995.77,-632.75"/>
</g>
<!-- Node3 -->
<g id="node3" class="node">
<title>Node3</title>
<g id="a_node3"><a xlink:href="group__Ranges.html#ga4f73053571587e79eb3db628f5e6ef99" target="_top" xlink:title="return iterator at end position">
<polygon fill="white" stroke="#666666" points="1064.25,-304.88 1010.75,-304.88 1010.75,-285.62 1064.25,-285.62 1064.25,-304.88"/>
<text text-anchor="middle" x="1037.5" y="-291.38" font-family="Helvetica,sans-Serif" font-size="10.00">sss::end</text>
</a>
</g>
</g>
<!-- Node1&#45;&gt;Node3 -->
<g id="edge2" class="edge">
<title>Node1&#45;&gt;Node3</title>
<path fill="none" stroke="#63b8ff" d="M79.55,-238.14C125.1,-201.01 292.31,-74.25 452.62,-74.25 452.62,-74.25 452.62,-74.25 639,-74.25 767.17,-74.25 811.86,-72.28 919.25,-142.25 971.88,-176.54 1010.36,-242.79 1027.15,-275.71"/>
<polygon fill="#63b8ff" stroke="#63b8ff" points="1024.25,-276.74 1031.83,-284.14 1030.52,-273.62 1024.25,-276.74"/>
</g>
<!-- Node4 -->
<g id="node4" class="node">
<title>Node4</title>
<g id="a_node4"><a xlink:href="classsss_1_1WebClient.html#a77a4e0190a4f207b969cb63b6ba38ccc" target="_top" xlink:title=" ">
<polygon fill="white" stroke="#666666" points="340.25,-45.88 169,-45.88 169,-26.62 340.25,-26.62 340.25,-45.88"/>
<text text-anchor="middle" x="254.62" y="-32.38" font-family="Helvetica,sans-Serif" font-size="10.00">sss::WebClient::GetResponseBody</text>
</a>
</g>
</g>
<!-- Node1&#45;&gt;Node4 -->
<g id="edge3" class="edge">
<title>Node1&#45;&gt;Node4</title>
<path fill="none" stroke="#63b8ff" d="M69.91,-238.3C78.03,-207 107.37,-109.69 169,-60.25 173.81,-56.39 179.2,-53.16 184.88,-50.44"/>
<polygon fill="#63b8ff" stroke="#63b8ff" points="185.78,-53.44 193.65,-46.34 183.07,-46.98 185.78,-53.44"/>
</g>
<!-- Node5 -->
<g id="node5" class="node">
<title>Node5</title>
<g id="a_node5"><a xlink:href="classsss_1_1api_1_1S3Api.html#ad09581bf28c4bbbcbb71b329959ec1ae" target="_top" xlink:title=" ">
<polygon fill="white" stroke="#666666" points="310.25,-432.88 199,-432.88 199,-413.62 310.25,-413.62 310.25,-432.88"/>
<text text-anchor="middle" x="254.62" y="-419.38" font-family="Helvetica,sans-Serif" font-size="10.00">sss::api::S3Api::Send</text>
</a>
</g>
</g>
<!-- Node1&#45;&gt;Node5 -->
<g id="edge4" class="edge">
<title>Node1&#45;&gt;Node5</title>
<path fill="none" stroke="#63b8ff" d="M78.04,-258.16C108.5,-286.8 196.9,-369.91 235.37,-406.09"/>
<polygon fill="#63b8ff" stroke="#63b8ff" points="232.52,-408.15 242.2,-412.45 237.31,-403.05 232.52,-408.15"/>
</g>
<!-- Node6 -->
<g id="node6" class="node">
<title>Node6</title>
<g id="a_node6"><a xlink:href="classsss_1_1api_1_1S3Api.html#a840772746fbb0a79c161037da7b24a31" target="_top" xlink:title="[WebClient::Config]">
<polygon fill="white" stroke="#666666" points="512.25,-385.88 395,-385.88 395,-366.62 512.25,-366.62 512.25,-385.88"/>
<text text-anchor="middle" x="453.62" y="-372.38" font-family="Helvetica,sans-Serif" font-size="10.00">sss::api::S3Api::Config</text>
</a>
</g>
</g>
<!-- Node5&#45;&gt;Node6 -->
<g id="edge5" class="edge">
<title>Node5&#45;&gt;Node6</title>
<path fill="none" stroke="#63b8ff" d="M297.89,-413.17C327.75,-406.04 367.98,-396.44 399.94,-388.82"/>
<polygon fill="#63b8ff" stroke="#63b8ff" points="400.52,-392.04 409.43,-386.32 398.89,-385.23 400.52,-392.04"/>
</g>
<!-- Node15 -->
<g id="node15" class="node">
<title>Node15</title>
<g id="a_node15"><a xlink:href="classsss_1_1WebClient.html#a51ce0ecf6487b6a43072643fe4f4cb4e" target="_top" xlink:title=" ">
<polygon fill="white" stroke="#666666" points="904.62,-178.88 759.62,-178.88 759.62,-159.62 904.62,-159.62 904.62,-178.88"/>
<text text-anchor="middle" x="832.12" y="-165.38" font-family="Helvetica,sans-Serif" font-size="10.00">sss::WebClient::SetPostData</text>
</a>
</g>
</g>
<!-- Node5&#45;&gt;Node15 -->
<g id="edge42" class="edge">
<title>Node5&#45;&gt;Node15</title>
<path fill="none" stroke="#63b8ff" d="M263.35,-413.21C295.23,-372.69 421.76,-220.98 567,-169.25 632.5,-145.92 713.08,-150.23 767.89,-157.62"/>
<polygon fill="#63b8ff" stroke="#63b8ff" points="767.1,-161.19 777.5,-159.13 768.09,-154.26 767.1,-161.19"/>
</g>
<!-- Node28 -->
<g id="node28" class="node">
<title>Node28</title>
<g id="a_node28"><a xlink:href="lib_2include_2utility_8h.html#ab314781bb3f053ef5325b50f3a1b74f8" target="_top" xlink:title=" ">
<polygon fill="white" stroke="#666666" points="1074.75,-341.88 1000.25,-341.88 1000.25,-322.62 1074.75,-322.62 1074.75,-341.88"/>
<text text-anchor="middle" x="1037.5" y="-328.38" font-family="Helvetica,sans-Serif" font-size="10.00">sss::ToLower</text>
</a>
</g>
</g>
<!-- Node5&#45;&gt;Node28 -->
<g id="edge45" class="edge">
<title>Node5&#45;&gt;Node28</title>
<path fill="none" stroke="#63b8ff" d="M257.41,-413.3C264.6,-376.25 295.1,-245.3 376.25,-184.25 445.19,-132.38 481.1,-156.28 567,-148.25 615.02,-143.76 915.08,-146.87 919.25,-150.25 977.18,-197.3 902.53,-261.43 955.25,-314.25 964.25,-323.27 976.69,-328.21 989.13,-330.81"/>
<polygon fill="#63b8ff" stroke="#63b8ff" points="988.55,-334.42 998.98,-332.54 989.65,-327.51 988.55,-334.42"/>
</g>
<!-- Node30 -->
<g id="node30" class="node">
<title>Node30</title>
<g id="a_node30"><a xlink:href="group__ErrorHandling.html#ga781648957bfce0bbc86cbdbff94e28a6" target="_top" xlink:title=" ">
<polygon fill="white" stroke="#666666" points="498.38,-550.88 408.88,-550.88 408.88,-531.62 498.38,-531.62 498.38,-550.88"/>
<text text-anchor="middle" x="453.62" y="-537.38" font-family="Helvetica,sans-Serif" font-size="10.00">sss::HandleError</text>
</a>
</g>
</g>
<!-- Node5&#45;&gt;Node30 -->
<g id="edge39" class="edge">
<title>Node5&#45;&gt;Node30</title>
<path fill="none" stroke="#63b8ff" d="M264.53,-433.24C283.17,-453.5 328.52,-499.49 376.25,-523.25 383.05,-526.63 390.5,-529.4 398.01,-531.65"/>
<polygon fill="#63b8ff" stroke="#63b8ff" points="397.03,-535.28 407.6,-534.51 398.86,-528.52 397.03,-535.28"/>
</g>
<!-- Node31 -->
<g id="node31" class="node">
<title>Node31</title>
<g id="a_node31"><a xlink:href="group__Internal.html#ga2b8b08c2a4994a87377d83ccfa9a6a53" target="_top" xlink:title=" ">
<polygon fill="white" stroke="#666666" points="502.12,-513.88 405.12,-513.88 405.12,-494.62 502.12,-494.62 502.12,-513.88"/>
<text text-anchor="middle" x="453.62" y="-500.38" font-family="Helvetica,sans-Serif" font-size="10.00">sss::ParseParams</text>
</a>
</g>
</g>
<!-- Node5&#45;&gt;Node31 -->
<g id="edge40" class="edge">
<title>Node5&#45;&gt;Node31</title>
<path fill="none" stroke="#63b8ff" d="M274.9,-433.37C298.42,-445.47 339.58,-465.9 376.25,-480.25 385.95,-484.05 396.52,-487.68 406.62,-490.91"/>
<polygon fill="#63b8ff" stroke="#63b8ff" points="405.32,-494.49 415.91,-494.13 407.41,-487.81 405.32,-494.49"/>
</g>
<!-- Node32 -->
<g id="node32" class="node">
<title>Node32</title>
<g id="a_node32"><a xlink:href="classsss_1_1WebClient.html#aa1d7484f0e09242ce53b24f9648ce50e" target="_top" xlink:title=" ">
<polygon fill="white" stroke="#666666" points="693.62,-572.88 582.38,-572.88 582.38,-553.62 693.62,-553.62 693.62,-572.88"/>
<text text-anchor="middle" x="638" y="-559.38" font-family="Helvetica,sans-Serif" font-size="10.00">sss::WebClient::Send</text>
</a>
</g>
</g>
<!-- Node5&#45;&gt;Node32 -->
<g id="edge41" class="edge">
<title>Node5&#45;&gt;Node32</title>
<path fill="none" stroke="#63b8ff" d="M304.99,-433.32C381.72,-449.11 521.8,-478.6 531,-485.25 556.2,-503.47 542.08,-526.65 567,-545.25 568.7,-546.52 570.47,-547.69 572.31,-548.79"/>
<polygon fill="#63b8ff" stroke="#63b8ff" points="570.44,-552.27 580.95,-553.61 573.57,-546 570.44,-552.27"/>
</g>
<!-- Node33 -->
<g id="node33" class="node">
<title>Node33</title>
<g id="a_node33"><a xlink:href="classsss_1_1WebClient.html#a7dfd984b33a29686fb0355b65b620e99" target="_top" xlink:title=" ">
<polygon fill="white" stroke="#666666" points="531,-607.5 376.25,-607.5 376.25,-577 531,-577 531,-607.5"/>
<text text-anchor="start" x="384.25" y="-594" font-family="Helvetica,sans-Serif" font-size="10.00">sss::WebClient::SetUrlEncoded</text>
<text text-anchor="middle" x="453.62" y="-582.75" font-family="Helvetica,sans-Serif" font-size="10.00">PostData</text>
</a>
</g>
</g>
<!-- Node5&#45;&gt;Node33 -->
<g id="edge43" class="edge">
<title>Node5&#45;&gt;Node33</title>
<path fill="none" stroke="#63b8ff" d="M262.03,-433.24C278.32,-457.93 323.74,-522.54 376.25,-560.25 382.43,-564.69 389.32,-568.66 396.36,-572.17"/>
<polygon fill="#63b8ff" stroke="#63b8ff" points="394.47,-575.61 405.01,-576.66 397.42,-569.27 394.47,-575.61"/>
</g>
<!-- Node34 -->
<g id="node34" class="node">
<title>Node34</title>
<g id="a_node34"><a xlink:href="classsss_1_1WebClient.html#ae7b1f77bd4ae44585f2d49ea493bdcc5" target="_top" xlink:title="Upload data from memory buffer.">
<polygon fill="white" stroke="#666666" points="523.88,-438.5 383.38,-438.5 383.38,-408 523.88,-408 523.88,-438.5"/>
<text text-anchor="start" x="391.38" y="-425" font-family="Helvetica,sans-Serif" font-size="10.00">sss::WebClient::UploadData</text>
<text text-anchor="middle" x="453.62" y="-413.75" font-family="Helvetica,sans-Serif" font-size="10.00">FromBuffer</text>
</a>
</g>
</g>
<!-- Node5&#45;&gt;Node34 -->
<g id="edge46" class="edge">
<title>Node5&#45;&gt;Node34</title>
<path fill="none" stroke="#63b8ff" d="M310.5,-423.25C329.6,-423.25 351.44,-423.25 372.18,-423.25"/>
<polygon fill="#63b8ff" stroke="#63b8ff" points="371.9,-426.75 381.9,-423.25 371.9,-419.75 371.9,-426.75"/>
</g>
<!-- Node7 -->
<g id="node7" class="node">
<title>Node7</title>
<g id="a_node7"><a xlink:href="classsss_1_1api_1_1S3Api.html#aea9741d60e74775ccd4de1c2c58f64fa" target="_top" xlink:title=" ">
<polygon fill="white" stroke="#666666" points="698.88,-310.88 577.12,-310.88 577.12,-291.62 698.88,-291.62 698.88,-310.88"/>
<text text-anchor="middle" x="638" y="-297.38" font-family="Helvetica,sans-Serif" font-size="10.00">sss::api::S3Api::Access</text>
</a>
</g>
</g>
<!-- Node6&#45;&gt;Node7 -->
<g id="edge6" class="edge">
<title>Node6&#45;&gt;Node7</title>
<path fill="none" stroke="#63b8ff" d="M471.61,-366.15C493.17,-353.69 531.79,-332.52 567,-319.25 571.67,-317.49 576.58,-315.84 581.54,-314.31"/>
<polygon fill="#63b8ff" stroke="#63b8ff" points="582.11,-317.5 590.74,-311.35 580.16,-310.78 582.11,-317.5"/>
</g>
<!-- Node8 -->
<g id="node8" class="node">
<title>Node8</title>
<g id="a_node8"><a xlink:href="classsss_1_1api_1_1S3Api.html#a3718745d3b940462ae9f3b78f773b3a6" target="_top" xlink:title="Clear data and reset read and write functions.">
<polygon fill="white" stroke="#666666" points="694,-234.88 582,-234.88 582,-215.62 694,-215.62 694,-234.88"/>
<text text-anchor="middle" x="638" y="-221.38" font-family="Helvetica,sans-Serif" font-size="10.00">sss::api::S3Api::Clear</text>
</a>
</g>
</g>
<!-- Node6&#45;&gt;Node8 -->
<g id="edge7" class="edge">
<title>Node6&#45;&gt;Node8</title>
<path fill="none" stroke="#63b8ff" d="M460.69,-366.44C475.75,-342.84 517.28,-282.42 567,-249.25 572.89,-245.32 579.48,-241.97 586.21,-239.14"/>
<polygon fill="#63b8ff" stroke="#63b8ff" points="587.01,-242.19 595.09,-235.34 584.5,-235.66 587.01,-242.19"/>
</g>
<!-- Node13 -->
<g id="node13" class="node">
<title>Node13</title>
<g id="a_node13"><a xlink:href="classsss_1_1WebClient.html#a75890c14fbe4a4bbac61718a4f3c064d" target="_top" xlink:title=" ">
<polygon fill="white" stroke="#666666" points="902.38,-272.88 761.88,-272.88 761.88,-253.62 902.38,-253.62 902.38,-272.88"/>
<text text-anchor="middle" x="832.12" y="-259.38" font-family="Helvetica,sans-Serif" font-size="10.00">sss::WebClient::SetHeaders</text>
</a>
</g>
</g>
<!-- Node6&#45;&gt;Node13 -->
<g id="edge19" class="edge">
<title>Node6&#45;&gt;Node13</title>
<path fill="none" stroke="#63b8ff" d="M462.63,-366.26C479.46,-346.11 520.78,-300.94 567,-282.25 625.32,-258.67 696.75,-254.87 750.61,-256.44"/>
<polygon fill="#63b8ff" stroke="#63b8ff" points="750.36,-259.97 760.48,-256.84 750.62,-252.97 750.36,-259.97"/>
</g>
<!-- Node14 -->
<g id="node14" class="node">
<title>Node14</title>
<g id="a_node14"><a xlink:href="classsss_1_1WebClient.html#a12b5db6b8c667024557ab58059d39994" target="_top" xlink:title=" ">
<polygon fill="white" stroke="#666666" points="894.12,-388.88 770.12,-388.88 770.12,-369.62 894.12,-369.62 894.12,-388.88"/>
<text text-anchor="middle" x="832.12" y="-375.38" font-family="Helvetica,sans-Serif" font-size="10.00">sss::WebClient::SetPath</text>
</a>
</g>
</g>
<!-- Node6&#45;&gt;Node14 -->
<g id="edge23" class="edge">
<title>Node6&#45;&gt;Node14</title>
<path fill="none" stroke="#63b8ff" d="M512.53,-384.86C529.99,-387.08 549.24,-389.15 567,-390.25 629.99,-394.16 645.95,-393.08 709,-390.25 725.22,-389.52 742.62,-388.25 759.06,-386.82"/>
<polygon fill="#63b8ff" stroke="#63b8ff" points="759.05,-390.25 768.7,-385.87 758.42,-383.28 759.05,-390.25"/>
</g>
<!-- Node16 -->
<g id="node16" class="node">
<title>Node16</title>
<g id="a_node16"><a xlink:href="classsss_1_1WebClient.html#a9bf978d95b79728f6d60fc2bdb4fe546" target="_top" xlink:title=" ">
<polygon fill="white" stroke="#666666" points="918.12,-314.88 746.12,-314.88 746.12,-295.62 918.12,-295.62 918.12,-314.88"/>
<text text-anchor="middle" x="832.12" y="-301.38" font-family="Helvetica,sans-Serif" font-size="10.00">sss::WebClient::SetReqParameters</text>
</a>
</g>
</g>
<!-- Node6&#45;&gt;Node16 -->
<g id="edge24" class="edge">
<title>Node6&#45;&gt;Node16</title>
<path fill="none" stroke="#63b8ff" d="M512.54,-377.28C564.65,-376.94 642.95,-373.31 709,-357.25 742.7,-349.06 778.98,-332.52 803.17,-320.29"/>
<polygon fill="#63b8ff" stroke="#63b8ff" points="804.47,-323.04 811.75,-315.35 801.26,-316.82 804.47,-323.04"/>
</g>
<!-- Node17 -->
<g id="node17" class="node">
<title>Node17</title>
<g id="a_node17"><a xlink:href="classsss_1_1api_1_1S3Api.html#a25a999d87c121627166fc0a896f536c7" target="_top" xlink:title=" ">
<polygon fill="white" stroke="#666666" points="701.5,-347.88 574.5,-347.88 574.5,-328.62 701.5,-328.62 701.5,-347.88"/>
<text text-anchor="middle" x="638" y="-334.38" font-family="Helvetica,sans-Serif" font-size="10.00">sss::api::S3Api::Endpoint</text>
</a>
</g>
</g>
<!-- Node6&#45;&gt;Node17 -->
<g id="edge16" class="edge">
<title>Node6&#45;&gt;Node17</title>
<path fill="none" stroke="#63b8ff" d="M503.02,-366.17C526.09,-361.36 553.89,-355.57 578.17,-350.51"/>
<polygon fill="#63b8ff" stroke="#63b8ff" points="578.62,-353.78 587.7,-348.31 577.19,-346.93 578.62,-353.78"/>
</g>
<!-- Node18 -->
<g id="node18" class="node">
<title>Node18</title>
<g id="a_node18"><a xlink:href="classsss_1_1api_1_1S3Api.html#a6f518c16679e99f119966b36ac28463f" target="_top" xlink:title=" ">
<polygon fill="white" stroke="#666666" points="696.62,-197.88 579.38,-197.88 579.38,-178.62 696.62,-178.62 696.62,-197.88"/>
<text text-anchor="middle" x="638" y="-184.38" font-family="Helvetica,sans-Serif" font-size="10.00">sss::api::S3Api::Secret</text>
</a>
</g>
</g>
<!-- Node6&#45;&gt;Node18 -->
<g id="edge17" class="edge">
<title>Node6&#45;&gt;Node18</title>
<path fill="none" stroke="#63b8ff" d="M458.19,-366.35C469.29,-336.97 506.21,-249.58 567,-206.25 568.69,-205.05 570.45,-203.93 572.26,-202.88"/>
<polygon fill="#63b8ff" stroke="#63b8ff" points="573.3,-205.78 580.74,-198.24 570.22,-199.49 573.3,-205.78"/>
</g>
<!-- Node19 -->
<g id="node19" class="node">
<title>Node19</title>
<g id="a_node19"><a xlink:href="classsss_1_1WebClient.html#afc3b7a92568fbb1ea447918920ca266e" target="_top" xlink:title="Set endpoint: &#160;&lt;proto&gt;://&lt;server&gt;:&lt;port&gt;">
<polygon fill="white" stroke="#666666" points="709,-461.88 567,-461.88 567,-442.62 709,-442.62 709,-461.88"/>
<text text-anchor="middle" x="638" y="-448.38" font-family="Helvetica,sans-Serif" font-size="10.00">sss::WebClient::SetEndpoint</text>
</a>
</g>
</g>
<!-- Node6&#45;&gt;Node19 -->
<g id="edge18" class="edge">
<title>Node6&#45;&gt;Node19</title>
<path fill="none" stroke="#63b8ff" d="M498.59,-386.34C509.51,-389.69 520.96,-393.95 531,-399.25 549.17,-408.83 549.01,-418.32 567,-428.25 574.12,-432.18 581.99,-435.63 589.82,-438.6"/>
<polygon fill="#63b8ff" stroke="#63b8ff" points="588.41,-442.17 599,-442.23 590.76,-435.58 588.41,-442.17"/>
</g>
<!-- Node20 -->
<g id="node20" class="node">
<title>Node20</title>
<g id="a_node20"><a xlink:href="classsss_1_1WebClient.html#af6233ffd7b294e1e7e606e838dd44e9e" target="_top" xlink:title=" ">
<polygon fill="white" stroke="#666666" points="706,-535.88 570,-535.88 570,-516.62 706,-516.62 706,-535.88"/>
<text text-anchor="middle" x="638" y="-522.38" font-family="Helvetica,sans-Serif" font-size="10.00">sss::WebClient::SetMethod</text>
</a>
</g>
</g>
<!-- Node6&#45;&gt;Node20 -->
<g id="edge20" class="edge">
<title>Node6&#45;&gt;Node20</title>
<path fill="none" stroke="#63b8ff" d="M511.08,-386.35C518.42,-389.55 525.35,-393.74 531,-399.25 567.55,-434.84 529.73,-473.41 567,-508.25 567.74,-508.94 568.51,-509.61 569.29,-510.25"/>
<polygon fill="#63b8ff" stroke="#63b8ff" points="567.13,-513.68 577.41,-516.23 570.97,-507.82 567.13,-513.68"/>
</g>
<!-- Node22 -->
<g id="node22" class="node">
<title>Node22</title>
<g id="a_node22"><a xlink:href="group__Sign.html#ga3ae8e18ef70752b7369fca66c40c526b" target="_top" xlink:title="Sign headers.">
<polygon fill="white" stroke="#666666" points="685,-498.88 591,-498.88 591,-479.62 685,-479.62 685,-498.88"/>
<text text-anchor="middle" x="638" y="-485.38" font-family="Helvetica,sans-Serif" font-size="10.00">sss::SignHeaders</text>
</a>
</g>
</g>
<!-- Node6&#45;&gt;Node22 -->
<g id="edge25" class="edge">
<title>Node6&#45;&gt;Node22</title>
<path fill="none" stroke="#63b8ff" d="M508.42,-386.33C516.57,-389.52 524.43,-393.72 531,-399.25 558.37,-422.29 539.17,-448.77 567,-471.25 571.06,-474.53 575.64,-477.21 580.48,-479.42"/>
<polygon fill="#63b8ff" stroke="#63b8ff" points="579.07,-483.01 589.66,-483.29 581.56,-476.46 579.07,-483.01"/>
</g>
<!-- Node9 -->
<g id="node9" class="node">
<title>Node9</title>
<g id="a_node9"><a xlink:href="classsss_1_1WebClient.html#a381f5715b7a2f19a0d4414d278874bae" target="_top" xlink:title="Clear internal buffers.">
<polygon fill="white" stroke="#666666" points="903.88,-234.88 760.38,-234.88 760.38,-215.62 903.88,-215.62 903.88,-234.88"/>
<text text-anchor="middle" x="832.12" y="-221.38" font-family="Helvetica,sans-Serif" font-size="10.00">sss::WebClient::ClearBuffers</text>
</a>
</g>
</g>
<!-- Node8&#45;&gt;Node9 -->
<g id="edge8" class="edge">
<title>Node8&#45;&gt;Node9</title>
<path fill="none" stroke="#63b8ff" d="M694.31,-225.25C711.46,-225.25 730.73,-225.25 749.27,-225.25"/>
<polygon fill="#63b8ff" stroke="#63b8ff" points="749.09,-228.75 759.09,-225.25 749.09,-221.75 749.09,-228.75"/>
</g>
<!-- Node10 -->
<g id="node10" class="node">
<title>Node10</title>
<g id="a_node10"><a xlink:href="classsss_1_1WebClient.html#a96837f149bb473853a6523d096a25c56" target="_top" xlink:title="Reset read/write functions to default.">
<polygon fill="white" stroke="#666666" points="919.25,-45.88 745,-45.88 745,-26.62 919.25,-26.62 919.25,-45.88"/>
<text text-anchor="middle" x="832.12" y="-32.38" font-family="Helvetica,sans-Serif" font-size="10.00">sss::WebClient::ResetRWFunctions</text>
</a>
</g>
</g>
<!-- Node8&#45;&gt;Node10 -->
<g id="edge9" class="edge">
<title>Node8&#45;&gt;Node10</title>
<path fill="none" stroke="#63b8ff" d="M694.33,-215.35C699.54,-213.17 704.54,-210.5 709,-207.25 733.22,-189.61 727.95,-174.89 745,-150.25 768.95,-115.62 799.01,-76.79 816.54,-54.56"/>
<polygon fill="#63b8ff" stroke="#63b8ff" points="819.77,-57.12 823.23,-47.11 814.28,-52.77 819.77,-57.12"/>
</g>
<!-- Node8&#45;&gt;Node13 -->
<g id="edge12" class="edge">
<title>Node8&#45;&gt;Node13</title>
<path fill="none" stroke="#63b8ff" d="M689.98,-235.33C714.4,-240.16 743.84,-245.99 769.5,-251.06"/>
<polygon fill="#63b8ff" stroke="#63b8ff" points="768.75,-254.68 779.24,-253.19 770.11,-247.81 768.75,-254.68"/>
</g>
<!-- Node8&#45;&gt;Node14 -->
<g id="edge13" class="edge">
<title>Node8&#45;&gt;Node14</title>
<path fill="none" stroke="#63b8ff" d="M652.76,-235.29C667.33,-246.18 690.71,-264.42 709,-282.25 726.6,-299.41 726.44,-308.13 745,-324.25 762.74,-339.66 785.18,-353.85 802.71,-363.96"/>
<polygon fill="#63b8ff" stroke="#63b8ff" points="800.45,-367.26 810.88,-369.13 803.89,-361.17 800.45,-367.26"/>
</g>
<!-- Node8&#45;&gt;Node15 -->
<g id="edge14" class="edge">
<title>Node8&#45;&gt;Node15</title>
<path fill="none" stroke="#63b8ff" d="M679.44,-215.22C689.15,-212.71 699.46,-209.96 709,-207.25 736.04,-199.57 766.21,-190.19 789.79,-182.67"/>
<polygon fill="#63b8ff" stroke="#63b8ff" points="790.68,-185.75 799.13,-179.36 788.54,-179.08 790.68,-185.75"/>
</g>
<!-- Node8&#45;&gt;Node16 -->
<g id="edge15" class="edge">
<title>Node8&#45;&gt;Node16</title>
<path fill="none" stroke="#63b8ff" d="M654.96,-235.36C675.22,-247.83 711.59,-269.01 745,-282.25 754.5,-286.01 764.84,-289.37 774.94,-292.27"/>
<polygon fill="#63b8ff" stroke="#63b8ff" points="773.77,-295.85 784.34,-295.13 775.63,-289.11 773.77,-295.85"/>
</g>
<!-- Node11 -->
<g id="node11" class="node">
<title>Node11</title>
<g id="a_node11"><a xlink:href="classsss_1_1WebClient.html#a88dbcc61562e84aa9ebf1eabf887ac28" target="_top" xlink:title=" ">
<polygon fill="white" stroke="#666666" points="1119.75,-67.88 955.25,-67.88 955.25,-48.62 1119.75,-48.62 1119.75,-67.88"/>
<text text-anchor="middle" x="1037.5" y="-54.38" font-family="Helvetica,sans-Serif" font-size="10.00">sss::WebClient::SetReadFunction</text>
</a>
</g>
</g>
<!-- Node10&#45;&gt;Node11 -->
<g id="edge10" class="edge">
<title>Node10&#45;&gt;Node11</title>
<path fill="none" stroke="#63b8ff" d="M919.67,-45.61C927.79,-46.49 936.04,-47.38 944.21,-48.27"/>
<polygon fill="#63b8ff" stroke="#63b8ff" points="943.56,-51.82 953.88,-49.42 944.32,-44.87 943.56,-51.82"/>
</g>
<!-- Node12 -->
<g id="node12" class="node">
<title>Node12</title>
<g id="a_node12"><a xlink:href="classsss_1_1WebClient.html#a002876073b3869a9b9a9d709d14f1d7e" target="_top" xlink:title=" ">
<polygon fill="white" stroke="#666666" points="1100.62,-30.5 974.38,-30.5 974.38,0 1100.62,0 1100.62,-30.5"/>
<text text-anchor="start" x="982.38" y="-17" font-family="Helvetica,sans-Serif" font-size="10.00">sss::WebClient::SetWrite</text>
<text text-anchor="middle" x="1037.5" y="-5.75" font-family="Helvetica,sans-Serif" font-size="10.00">Function</text>
</a>
</g>
</g>
<!-- Node10&#45;&gt;Node12 -->
<g id="edge11" class="edge">
<title>Node10&#45;&gt;Node12</title>
<path fill="none" stroke="#63b8ff" d="M919.67,-27.31C934.23,-25.81 949.21,-24.26 963.39,-22.8"/>
<polygon fill="#63b8ff" stroke="#63b8ff" points="963.47,-26.21 973.05,-21.7 962.75,-19.24 963.47,-26.21"/>
</g>
<!-- Node21 -->
<g id="node21" class="node">
<title>Node21</title>
<g id="a_node21"><a xlink:href="lib_2include_2utility_8h.html#ae153c064d6f1beda845702f67605b20e" target="_top" xlink:title=" ">
<polygon fill="white" stroke="#666666" points="1074.75,-544.88 1000.25,-544.88 1000.25,-525.62 1074.75,-525.62 1074.75,-544.88"/>
<text text-anchor="middle" x="1037.5" y="-531.38" font-family="Helvetica,sans-Serif" font-size="10.00">sss::ToUpper</text>
</a>
</g>
</g>
<!-- Node20&#45;&gt;Node21 -->
<g id="edge21" class="edge">
<title>Node20&#45;&gt;Node21</title>
<path fill="none" stroke="#63b8ff" d="M706.43,-527.78C786.75,-529.6 918.85,-532.59 989.11,-534.18"/>
<polygon fill="#63b8ff" stroke="#63b8ff" points="988.76,-537.69 998.83,-534.42 988.92,-530.69 988.76,-537.69"/>
</g>
<!-- Node21&#45;&gt;Node21 -->
<g id="edge22" class="edge">
<title>Node21&#45;&gt;Node21</title>
<path fill="none" stroke="#63b8ff" d="M1005.35,-545.16C990.68,-553.77 1001.4,-562.88 1037.5,-562.88 1060.63,-562.88 1073.34,-559.14 1075.63,-554.19"/>
<polygon fill="#63b8ff" stroke="#63b8ff" points="1078.09,-552.57 1069.65,-546.16 1072.26,-556.43 1078.09,-552.57"/>
</g>
<!-- Node22&#45;&gt;Node2 -->
<g id="edge26" class="edge">
<title>Node22&#45;&gt;Node2</title>
<path fill="none" stroke="#63b8ff" d="M682.22,-499.35C691.14,-501.71 700.43,-504.39 709,-507.25 821.37,-544.76 842.27,-573.64 955.25,-609.25 968.38,-613.39 983,-616.94 996.18,-619.77"/>
<polygon fill="#63b8ff" stroke="#63b8ff" points="995.34,-623.38 1005.84,-621.97 996.75,-616.52 995.34,-623.38"/>
</g>
<!-- Node22&#45;&gt;Node3 -->
<g id="edge38" class="edge">
<title>Node22&#45;&gt;Node3</title>
<path fill="none" stroke="#63b8ff" d="M680.61,-479.15C689.99,-476.71 699.87,-474 709,-471.25 803.7,-442.69 847.02,-465.83 919.25,-398.25 949.21,-370.22 923.72,-339.49 955.25,-313.25 967.58,-302.99 984.5,-298.24 999.71,-296.16"/>
<polygon fill="#63b8ff" stroke="#63b8ff" points="999.8,-299.56 1009.39,-295.07 999.09,-292.6 999.8,-299.56"/>
</g>
<!-- Node23 -->
<g id="node23" class="node">
<title>Node23</title>
<g id="a_node23"><a xlink:href="group__Sign.html#ga904d511ec786b87644cc90dc96dd8f3f" target="_top" xlink:title="Compute signature.">
<polygon fill="white" stroke="#666666" points="891.5,-491.88 772.75,-491.88 772.75,-472.62 891.5,-472.62 891.5,-491.88"/>
<text text-anchor="middle" x="832.12" y="-478.38" font-family="Helvetica,sans-Serif" font-size="10.00">sss::ComputeSignature</text>
</a>
</g>
</g>
<!-- Node22&#45;&gt;Node23 -->
<g id="edge27" class="edge">
<title>Node22&#45;&gt;Node23</title>
<path fill="none" stroke="#63b8ff" d="M685.02,-487.57C707.94,-486.74 736.14,-485.71 761.63,-484.78"/>
<polygon fill="#63b8ff" stroke="#63b8ff" points="761.5,-488.25 771.37,-484.39 761.25,-481.26 761.5,-488.25"/>
</g>
<!-- Node23&#45;&gt;Node2 -->
<g id="edge28" class="edge">
<title>Node23&#45;&gt;Node2</title>
<path fill="none" stroke="#63b8ff" d="M849.51,-492.33C868.01,-504.27 898.27,-525.57 919.25,-549.25 939.87,-572.53 930.02,-591.07 955.25,-609.25 967,-617.71 982,-622.31 995.91,-624.77"/>
<polygon fill="#63b8ff" stroke="#63b8ff" points="995.35,-628.36 1005.74,-626.31 996.34,-621.43 995.35,-628.36"/>
</g>
<!-- Node23&#45;&gt;Node3 -->
<g id="edge30" class="edge">
<title>Node23&#45;&gt;Node3</title>
<path fill="none" stroke="#63b8ff" d="M882.65,-472.14C896.12,-467.23 909.62,-459.97 919.25,-449.25 961.03,-402.73 910.15,-356.55 955.25,-313.25 966.99,-301.98 984.13,-297.14 999.65,-295.26"/>
<polygon fill="#63b8ff" stroke="#63b8ff" points="999.88,-298.67 1009.56,-294.36 999.31,-291.69 999.88,-298.67"/>
</g>
<!-- Node23&#45;&gt;Node21 -->
<g id="edge36" class="edge">
<title>Node23&#45;&gt;Node21</title>
<path fill="none" stroke="#63b8ff" d="M866.15,-492.31C890.64,-499.62 924.89,-509.55 955.25,-517.25 966.29,-520.05 978.23,-522.83 989.47,-525.34"/>
<polygon fill="#63b8ff" stroke="#63b8ff" points="988.47,-528.93 998.99,-527.66 989.97,-522.09 988.47,-528.93"/>
</g>
<!-- Node24 -->
<g id="node24" class="node">
<title>Node24</title>
<g id="a_node24"><a xlink:href="group__Internal.html#ga74c69f25ce04876e114759c0023b2a12" target="_top" xlink:title=" ">
<polygon fill="white" stroke="#666666" points="1100.25,-433.88 974.75,-433.88 974.75,-414.62 1100.25,-414.62 1100.25,-433.88"/>
<text text-anchor="middle" x="1037.5" y="-420.38" font-family="Helvetica,sans-Serif" font-size="10.00">sss::CreateSignatureKey</text>
</a>
</g>
</g>
<!-- Node23&#45;&gt;Node24 -->
<g id="edge29" class="edge">
<title>Node23&#45;&gt;Node24</title>
<path fill="none" stroke="#63b8ff" d="M861.02,-472.24C885.62,-463.63 922.54,-451.21 955.25,-442.25 962.18,-440.35 969.48,-438.51 976.75,-436.78"/>
<polygon fill="#63b8ff" stroke="#63b8ff" points="977.38,-440 986.33,-434.33 975.8,-433.18 977.38,-440"/>
</g>
<!-- Node25 -->
<g id="node25" class="node">
<title>Node25</title>
<g id="a_node25"><a xlink:href="group__Internal.html#ga50353a351a93b1213dc4e5211c767d85" target="_top" xlink:title=" ">
<polygon fill="white" stroke="#666666" points="1077.38,-396.88 997.62,-396.88 997.62,-377.62 1077.38,-377.62 1077.38,-396.88"/>
<text text-anchor="middle" x="1037.5" y="-383.38" font-family="Helvetica,sans-Serif" font-size="10.00">sss::GetDates</text>
</a>
</g>
</g>
<!-- Node23&#45;&gt;Node25 -->
<g id="edge31" class="edge">
<title>Node23&#45;&gt;Node25</title>
<path fill="none" stroke="#63b8ff" d="M871.71,-472.21C887.39,-466.97 905.1,-459.47 919.25,-449.25 939.73,-434.46 933.73,-418.49 955.25,-405.25 964.66,-399.46 975.71,-395.52 986.56,-392.85"/>
<polygon fill="#63b8ff" stroke="#63b8ff" points="987.24,-396.07 996.29,-390.57 985.79,-389.22 987.24,-396.07"/>
</g>
<!-- Node26 -->
<g id="node26" class="node">
<title>Node26</title>
<g id="a_node26"><a xlink:href="group__Internal.html#ga990dfaae4abc6bf20a28f9772b7bcd16" target="_top" xlink:title="Byte to hex string conversion.">
<polygon fill="white" stroke="#666666" points="1065.38,-507.88 1009.62,-507.88 1009.62,-488.62 1065.38,-488.62 1065.38,-507.88"/>
<text text-anchor="middle" x="1037.5" y="-494.38" font-family="Helvetica,sans-Serif" font-size="10.00">sss::Hex</text>
</a>
</g>
</g>
<!-- Node23&#45;&gt;Node26 -->
<g id="edge32" class="edge">
<title>Node23&#45;&gt;Node26</title>
<path fill="none" stroke="#63b8ff" d="M891.95,-486.88C926.28,-489.58 968.58,-492.91 998.53,-495.26"/>
<polygon fill="#63b8ff" stroke="#63b8ff" points="998.12,-498.82 1008.37,-496.12 998.67,-491.84 998.12,-498.82"/>
</g>
<!-- Node27 -->
<g id="node27" class="node">
<title>Node27</title>
<g id="a_node27"><a xlink:href="group__Internal.html#ga7160aa316f2c6633467b47588263c690" target="_top" xlink:title=" ">
<polygon fill="white" stroke="#666666" points="1079.25,-470.88 995.75,-470.88 995.75,-451.62 1079.25,-451.62 1079.25,-470.88"/>
<text text-anchor="middle" x="1037.5" y="-457.38" font-family="Helvetica,sans-Serif" font-size="10.00">sss::ParseURL</text>
</a>
</g>
</g>
<!-- Node23&#45;&gt;Node27 -->
<g id="edge33" class="edge">
<title>Node23&#45;&gt;Node27</title>
<path fill="none" stroke="#63b8ff" d="M891.95,-476.18C921.26,-473.15 956.38,-469.52 984.67,-466.6"/>
<polygon fill="#63b8ff" stroke="#63b8ff" points="984.95,-469.99 994.54,-465.48 984.23,-463.03 984.95,-469.99"/>
</g>
<!-- Node23&#45;&gt;Node28 -->
<g id="edge34" class="edge">
<title>Node23&#45;&gt;Node28</title>
<path fill="none" stroke="#63b8ff" d="M878.49,-472.25C892.89,-467.27 907.98,-459.94 919.25,-449.25 947.83,-422.13 927.38,-396.09 955.25,-368.25 964.9,-358.61 977.57,-351.34 990.02,-345.95"/>
<polygon fill="#63b8ff" stroke="#63b8ff" points="990.9,-348.96 998.9,-342.02 988.32,-342.46 990.9,-348.96"/>
</g>
<!-- Node29 -->
<g id="node29" class="node">
<title>Node29</title>
<g id="a_node29"><a xlink:href="group__Internal.html#ga0f079ace8729714b3949eabe22f228c9" target="_top" xlink:title=" ">
<polygon fill="white" stroke="#666666" points="1079.25,-599.88 995.75,-599.88 995.75,-580.62 1079.25,-580.62 1079.25,-599.88"/>
<text text-anchor="middle" x="1037.5" y="-586.38" font-family="Helvetica,sans-Serif" font-size="10.00">sss::UrlEncode</text>
</a>
</g>
</g>
<!-- Node23&#45;&gt;Node29 -->
<g id="edge37" class="edge">
<title>Node23&#45;&gt;Node29</title>
<path fill="none" stroke="#63b8ff" d="M845.95,-492.17C874.79,-514.41 943.2,-566.77 955.25,-572.25 964.43,-576.42 974.64,-579.65 984.63,-582.15"/>
<polygon fill="#63b8ff" stroke="#63b8ff" points="983.81,-585.78 994.34,-584.58 985.36,-578.96 983.81,-585.78"/>
</g>
<!-- Node28&#45;&gt;Node28 -->
<g id="edge35" class="edge">
<title>Node28&#45;&gt;Node28</title>
<path fill="none" stroke="#63b8ff" d="M1005.35,-342.16C990.68,-350.77 1001.4,-359.88 1037.5,-359.88 1060.63,-359.88 1073.34,-356.14 1075.63,-351.19"/>
<polygon fill="#63b8ff" stroke="#63b8ff" points="1078.09,-349.57 1069.65,-343.16 1072.26,-353.43 1078.09,-349.57"/>
</g>
<!-- Node33&#45;&gt;Node29 -->
<g id="edge44" class="edge">
<title>Node33&#45;&gt;Node29</title>
<path fill="none" stroke="#63b8ff" d="M531.29,-591.99C651.73,-591.57 882.11,-590.78 984.84,-590.43"/>
<polygon fill="#63b8ff" stroke="#63b8ff" points="984.56,-593.93 994.55,-590.39 984.54,-586.93 984.56,-593.93"/>
</g>
<!-- Node34&#45;&gt;Node20 -->
<g id="edge48" class="edge">
<title>Node34&#45;&gt;Node20</title>
<path fill="none" stroke="#63b8ff" d="M509.15,-438.98C516.94,-442.6 524.5,-446.98 531,-452.25 553.99,-470.88 543.02,-490.92 567,-508.25 568.5,-509.34 570.07,-510.36 571.68,-511.32"/>
<polygon fill="#63b8ff" stroke="#63b8ff" points="569.84,-514.81 580.35,-516.16 572.98,-508.55 569.84,-514.81"/>
</g>
<!-- Node34&#45;&gt;Node32 -->
<g id="edge47" class="edge">
<title>Node34&#45;&gt;Node32</title>
<path fill="none" stroke="#63b8ff" d="M512.09,-438.84C519.03,-442.44 525.57,-446.85 531,-452.25 562.44,-483.49 533.87,-515.81 567,-545.25 568.79,-546.84 570.7,-548.3 572.71,-549.62"/>
<polygon fill="#63b8ff" stroke="#63b8ff" points="570.57,-552.99 581.03,-554.68 573.91,-546.83 570.57,-552.99"/>
</g>
</g>
</svg>
        <g id="navigator" transform="translate(0 0)" fill="#404254">
                <rect fill="#f2f5e9" fill-opacity="0.5" stroke="#606060" stroke-width=".5" x="0" y="0" width="60" height="60"/>
                <use id="zoomplus" xlink:href="#zoomPlus" x="17" y="9" onmousedown="handleZoom(evt,'in')"/>
                <use id="zoomminus" xlink:href="#zoomMin" x="42" y="9" onmousedown="handleZoom(evt,'out')"/>
                <use id="reset" xlink:href="#resetDef" x="30" y="36" onmousedown="handleReset()"/>
                <g id="arrowUp" xlink:href="#dirArrow" transform="translate(30 24)" onmousedown="handlePan(0,-1)">
                  <use xlink:href="#rim" fill="#404040">
                        <set attributeName="fill" to="#808080" begin="arrowUp.mouseover" end="arrowUp.mouseout"/>
                  </use>
                  <path fill="none" stroke="white" stroke-width="1.5" d="M0,-3.0v7 M-2.5,-0.5L0,-3.0L2.5,-0.5"/>
                </g>
                <g id="arrowRight" xlink:href="#dirArrow" transform="rotate(90) translate(36 -43)" onmousedown="handlePan(1,0)">
                  <use xlink:href="#rim" fill="#404040">
                        <set attributeName="fill" to="#808080" begin="arrowRight.mouseover" end="arrowRight.mouseout"/>
                  </use>
                  <path fill="none" stroke="white" stroke-width="1.5" d="M0,-3.0v7 M-2.5,-0.5L0,-3.0L2.5,-0.5"/>
                </g>
                <g id="arrowDown" xlink:href="#dirArrow" transform="rotate(180) translate(-30 -48)" onmousedown="handlePan(0,1)">
                  <use xlink:href="#rim" fill="#404040">
                        <set attributeName="fill" to="#808080" begin="arrowDown.mouseover" end="arrowDown.mouseout"/>
                  </use>
                  <path fill="none" stroke="white" stroke-width="1.5" d="M0,-3.0v7 M-2.5,-0.5L0,-3.0L2.5,-0.5"/>
                </g>
                <g id="arrowLeft" xlink:href="#dirArrow" transform="rotate(270) translate(-36 17)" onmousedown="handlePan(-1,0)">
                  <use xlink:href="#rim" fill="#404040">
                        <set attributeName="fill" to="#808080" begin="arrowLeft.mouseover" end="arrowLeft.mouseout"/>
                  </use>
                  <path fill="none" stroke="white" stroke-width="1.5" d="M0,-3.0v7 M-2.5,-0.5L0,-3.0L2.5,-0.5"/>
                </g>
        </g>
        <svg viewBox="0 0 15 15" width="100%" height="30px" preserveAspectRatio="xMaxYMin meet">
         <g id="arrow_out" transform="scale(0.3 0.3)">
          <a xlink:href="classsss_1_1api_1_1S3Api_a62695addc7c86b5fa73465d0d80ec1fa_cgraph_org.svg" target="_base">
           <rect id="button" ry="5" rx="5" y="6" x="6" height="38" width="38"
                fill="#f2f5e9" fill-opacity="0.5" stroke="#606060" stroke-width="1.0"/>
           <path id="arrow"
             d="M 11.500037,31.436501 C 11.940474,20.09759 22.043105,11.32322 32.158766,21.979434 L 37.068811,17.246167 C 37.068811,17.246167 37.088388,32 37.088388,32 L 22.160133,31.978069 C 22.160133,31.978069 26.997745,27.140456 26.997745,27.140456 C 18.528582,18.264221 13.291696,25.230495 11.500037,31.436501 z"
             style="fill:#404040;"/>
          </a>
         </g>
        </svg>
</svg>
