<?xml version="1.0" encoding="UTF-8" standalone="no"?>
<!DOCTYPE svg PUBLIC "-//W3C//DTD SVG 1.1//EN"
 "http://www.w3.org/Graphics/SVG/1.1/DTD/svg11.dtd">
<!-- Generated by graphviz version 8.0.5 (20230430.1635)
 -->
<!-- Title: sss::api::S3Api::CompleteMultipartUpload Pages: 1 -->
<!--zoomable 600 -->
<svg id="main" version="1.1" xmlns="http://www.w3.org/2000/svg" xmlns:xlink="http://www.w3.org/1999/xlink" xml:space="preserve" onload="init(evt)">
<style type="text/css"><![CDATA[
.edge:hover path { stroke: red; }
.edge:hover polygon { stroke: red; fill: red; }
]]></style>
<script type="text/javascript"><![CDATA[
var edges = document.getElementsByTagName('g');
if (edges && edges.length) {
  for (var i=0;i<edges.length;i++) {
    if (edges[i].id.substr(0,4)=='edge') {
      edges[i].setAttribute('class','edge');
    }
  }
}
]]></script>
        <defs>
                <circle id="rim" cx="0" cy="0" r="7"/>
                <circle id="rim2" cx="0" cy="0" r="3.5"/>
                <g id="zoomPlus">
                        <use xlink:href="#rim" fill="#404040">
                                <set attributeName="fill" to="#808080" begin="zoomplus.mouseover" end="zoomplus.mouseout"/>
                        </use>
                        <path d="M-4,0h8M0,-4v8" fill="none" stroke="white" stroke-width="1.5" pointer-events="none"/>
                </g>
                <g id="zoomMin">
                        <use xlink:href="#rim" fill="#404040">
                                <set attributeName="fill" to="#808080" begin="zoomminus.mouseover" end="zoomminus.mouseout"/>
                        </use>
                        <path d="M-4,0h8" fill="none" stroke="white" stroke-width="1.5" pointer-events="none"/>
                </g>
                <g id="dirArrow">
                        <path fill="none" stroke="white" stroke-width="1.5" d="M0,-3.0v7 M-2.5,-0.5L0,-3.0L2.5,-0.5"/>
                </g>
               <g id="resetDef">
                       <use xlink:href="#rim2" fill="#404040">
                               <set attributeName="fill" to="#808080" begin="reset.mouseover" end="reset.mouseout"/>
                       </use>
               </g>
        </defs>

<script type="text/javascript">
var viewWidth = 1066;
var viewHeight = 600;
var sectionId = 'dynsection-2';
</script>
<script xlink:href="svgpan.js"/>
<svg id="graph" class="graph">
<g id="viewport">
<title>sss::api::S3Api::CompleteMultipartUpload</title>
<!-- Node1 -->
<g id="node1" class="node">
<title>Node1</title>
<g id="a_node1"><a xlink:title="Complete multipart upload.">
<polygon fill="#999999" stroke="#666666" points="130.75,-147.88 0,-147.88 0,-117.38 130.75,-117.38 130.75,-147.88"/>
<text text-anchor="start" x="8" y="-134.38" font-family="Helvetica,sans-Serif" font-size="10.00">sss::api::S3Api::Complete</text>
<text text-anchor="middle" x="65.38" y="-123.12" font-family="Helvetica,sans-Serif" font-size="10.00">MultipartUpload</text>
</a>
</g>
</g>
<!-- Node2 -->
<g id="node2" class="node">
<title>Node2</title>
<g id="a_node2"><a xlink:href="classsss_1_1api_1_1S3Api.html#ad09581bf28c4bbbcbb71b329959ec1ae" target="_top" xlink:title="Send request.">
<polygon fill="white" stroke="#666666" points="278,-161.25 166.75,-161.25 166.75,-142 278,-142 278,-161.25"/>
<text text-anchor="middle" x="222.38" y="-147.75" font-family="Helvetica,sans-Serif" font-size="10.00">sss::api::S3Api::Send</text>
</a>
</g>
</g>
<!-- Node1&#45;&gt;Node2 -->
<g id="edge1" class="edge">
<title>Node1&#45;&gt;Node2</title>
<path fill="none" stroke="#63b8ff" d="M131.21,-140.57C139.31,-141.57 147.6,-142.58 155.71,-143.58"/>
<polygon fill="#63b8ff" stroke="#63b8ff" points="155.27,-147.17 165.63,-144.91 156.13,-140.22 155.27,-147.17"/>
</g>
<!-- Node34 -->
<g id="node34" class="node">
<title>Node34</title>
<g id="a_node34"><a xlink:href="group__Parsing.html#gacf486071ed8bd3e6f76fe9ee23639bde" target="_top" xlink:title="Extract and return content of XML tag.">
<polygon fill="white" stroke="#666666" points="259.25,-124.25 185.5,-124.25 185.5,-105 259.25,-105 259.25,-124.25"/>
<text text-anchor="middle" x="222.38" y="-110.75" font-family="Helvetica,sans-Serif" font-size="10.00">sss::XMLTag</text>
</a>
</g>
</g>
<!-- Node1&#45;&gt;Node34 -->
<g id="edge46" class="edge">
<title>Node1&#45;&gt;Node34</title>
<path fill="none" stroke="#63b8ff" d="M131.21,-125.1C145.74,-123.41 160.88,-121.65 174.52,-120.07"/>
<polygon fill="#63b8ff" stroke="#63b8ff" points="174.56,-123.47 184.09,-118.84 173.75,-116.52 174.56,-123.47"/>
</g>
<!-- Node3 -->
<g id="node3" class="node">
<title>Node3</title>
<g id="a_node3"><a xlink:href="classsss_1_1api_1_1S3Api.html#a840772746fbb0a79c161037da7b24a31" target="_top" xlink:title="Configure instance.">
<polygon fill="white" stroke="#666666" points="450,-365.25 332.75,-365.25 332.75,-346 450,-346 450,-365.25"/>
<text text-anchor="middle" x="391.38" y="-351.75" font-family="Helvetica,sans-Serif" font-size="10.00">sss::api::S3Api::Config</text>
</a>
</g>
</g>
<!-- Node2&#45;&gt;Node3 -->
<g id="edge2" class="edge">
<title>Node2&#45;&gt;Node3</title>
<path fill="none" stroke="#63b8ff" d="M231.66,-161.74C258.21,-194.18 341.48,-295.9 375.59,-337.56"/>
<polygon fill="#63b8ff" stroke="#63b8ff" points="373.39,-339.41 382.44,-344.93 378.81,-334.97 373.39,-339.41"/>
</g>
<!-- Node12 -->
<g id="node12" class="node">
<title>Node12</title>
<g id="a_node12"><a xlink:href="classsss_1_1WebClient.html#a51ce0ecf6487b6a43072643fe4f4cb4e" target="_top" xlink:title=" ">
<polygon fill="white" stroke="#666666" points="842.38,-591.25 697.38,-591.25 697.38,-572 842.38,-572 842.38,-591.25"/>
<text text-anchor="middle" x="769.88" y="-577.75" font-family="Helvetica,sans-Serif" font-size="10.00">sss::WebClient::SetPostData</text>
</a>
</g>
</g>
<!-- Node2&#45;&gt;Node12 -->
<g id="edge39" class="edge">
<title>Node2&#45;&gt;Node12</title>
<path fill="none" stroke="#63b8ff" d="M225.89,-161.65C234.43,-194.36 264.49,-300.15 314,-374.62 380.24,-474.27 395.68,-515.41 504.75,-564.62 561.47,-590.22 632.09,-593.49 686.03,-590.9"/>
<polygon fill="#63b8ff" stroke="#63b8ff" points="686.15,-594.34 695.94,-590.28 685.75,-587.35 686.15,-594.34"/>
</g>
<!-- Node27 -->
<g id="node27" class="node">
<title>Node27</title>
<g id="a_node27"><a xlink:href="lib_2include_2utility_8h.html#ab314781bb3f053ef5325b50f3a1b74f8" target="_top" xlink:title=" ">
<polygon fill="white" stroke="#666666" points="1012.5,-140.25 938,-140.25 938,-121 1012.5,-121 1012.5,-140.25"/>
<text text-anchor="middle" x="975.25" y="-126.75" font-family="Helvetica,sans-Serif" font-size="10.00">sss::ToLower</text>
</a>
</g>
</g>
<!-- Node2&#45;&gt;Node27 -->
<g id="edge42" class="edge">
<title>Node2&#45;&gt;Node27</title>
<path fill="none" stroke="#63b8ff" d="M278.28,-150.09C419.54,-146.14 793.73,-135.67 926.61,-131.96"/>
<polygon fill="#63b8ff" stroke="#63b8ff" points="926.7,-135.43 936.6,-131.65 926.51,-128.43 926.7,-135.43"/>
</g>
<!-- Node29 -->
<g id="node29" class="node">
<title>Node29</title>
<g id="a_node29"><a xlink:href="group__ErrorHandling.html#ga781648957bfce0bbc86cbdbff94e28a6" target="_top" xlink:title=" ">
<polygon fill="white" stroke="#666666" points="436.12,-56.25 346.62,-56.25 346.62,-37 436.12,-37 436.12,-56.25"/>
<text text-anchor="middle" x="391.38" y="-42.75" font-family="Helvetica,sans-Serif" font-size="10.00">sss::HandleError</text>
</a>
</g>
</g>
<!-- Node2&#45;&gt;Node29 -->
<g id="edge36" class="edge">
<title>Node2&#45;&gt;Node29</title>
<path fill="none" stroke="#63b8ff" d="M265.43,-141.54C269.95,-139.39 274.26,-136.78 278,-133.62 304.13,-111.57 287.07,-86.7 314,-65.62 320.44,-60.59 328.03,-56.87 335.89,-54.13"/>
<polygon fill="#63b8ff" stroke="#63b8ff" points="336.71,-57.24 345.31,-51.05 334.73,-50.53 336.71,-57.24"/>
</g>
<!-- Node30 -->
<g id="node30" class="node">
<title>Node30</title>
<g id="a_node30"><a xlink:href="group__Internal.html#ga2b8b08c2a4994a87377d83ccfa9a6a53" target="_top" xlink:title=" ">
<polygon fill="white" stroke="#666666" points="439.88,-19.25 342.88,-19.25 342.88,0 439.88,0 439.88,-19.25"/>
<text text-anchor="middle" x="391.38" y="-5.75" font-family="Helvetica,sans-Serif" font-size="10.00">sss::ParseParams</text>
</a>
</g>
</g>
<!-- Node2&#45;&gt;Node30 -->
<g id="edge37" class="edge">
<title>Node2&#45;&gt;Node30</title>
<path fill="none" stroke="#63b8ff" d="M267.03,-141.54C271.05,-139.39 274.81,-136.79 278,-133.62 313.34,-98.6 277.17,-61.08 314,-27.62 319.35,-22.76 325.77,-19.14 332.58,-16.46"/>
<polygon fill="#63b8ff" stroke="#63b8ff" points="333.32,-19.57 341.76,-13.16 331.16,-12.92 333.32,-19.57"/>
</g>
<!-- Node31 -->
<g id="node31" class="node">
<title>Node31</title>
<g id="a_node31"><a xlink:href="classsss_1_1WebClient.html#aa1d7484f0e09242ce53b24f9648ce50e" target="_top" xlink:title=" ">
<polygon fill="white" stroke="#666666" points="631.38,-180.25 520.12,-180.25 520.12,-161 631.38,-161 631.38,-180.25"/>
<text text-anchor="middle" x="575.75" y="-166.75" font-family="Helvetica,sans-Serif" font-size="10.00">sss::WebClient::Send</text>
</a>
</g>
</g>
<!-- Node2&#45;&gt;Node31 -->
<g id="edge38" class="edge">
<title>Node2&#45;&gt;Node31</title>
<path fill="none" stroke="#63b8ff" d="M278.28,-154.59C340.62,-157.97 442.31,-163.46 508.88,-167.06"/>
<polygon fill="#63b8ff" stroke="#63b8ff" points="508.48,-170.6 518.65,-167.65 508.86,-163.61 508.48,-170.6"/>
</g>
<!-- Node32 -->
<g id="node32" class="node">
<title>Node32</title>
<g id="a_node32"><a xlink:href="classsss_1_1WebClient.html#a7dfd984b33a29686fb0355b65b620e99" target="_top" xlink:title=" ">
<polygon fill="white" stroke="#666666" points="468.75,-104.88 314,-104.88 314,-74.38 468.75,-74.38 468.75,-104.88"/>
<text text-anchor="start" x="322" y="-91.38" font-family="Helvetica,sans-Serif" font-size="10.00">sss::WebClient::SetUrlEncoded</text>
<text text-anchor="middle" x="391.38" y="-80.12" font-family="Helvetica,sans-Serif" font-size="10.00">PostData</text>
</a>
</g>
</g>
<!-- Node2&#45;&gt;Node32 -->
<g id="edge40" class="edge">
<title>Node2&#45;&gt;Node32</title>
<path fill="none" stroke="#63b8ff" d="M255.29,-141.56C262.78,-139.08 270.7,-136.34 278,-133.62 294.24,-127.57 297.9,-125.04 314,-118.62 321.78,-115.53 330.04,-112.31 338.14,-109.21"/>
<polygon fill="#63b8ff" stroke="#63b8ff" points="339.17,-112.18 347.26,-105.34 336.67,-105.64 339.17,-112.18"/>
</g>
<!-- Node33 -->
<g id="node33" class="node">
<title>Node33</title>
<g id="a_node33"><a xlink:href="classsss_1_1WebClient.html#ae7b1f77bd4ae44585f2d49ea493bdcc5" target="_top" xlink:title="Upload data from memory buffer.">
<polygon fill="white" stroke="#666666" points="461.62,-228.88 321.12,-228.88 321.12,-198.38 461.62,-198.38 461.62,-228.88"/>
<text text-anchor="start" x="329.12" y="-215.38" font-family="Helvetica,sans-Serif" font-size="10.00">sss::WebClient::UploadData</text>
<text text-anchor="middle" x="391.38" y="-204.12" font-family="Helvetica,sans-Serif" font-size="10.00">FromBuffer</text>
</a>
</g>
</g>
<!-- Node2&#45;&gt;Node33 -->
<g id="edge43" class="edge">
<title>Node2&#45;&gt;Node33</title>
<path fill="none" stroke="#63b8ff" d="M250.58,-161.72C274.22,-170.5 309.14,-183.47 338.17,-194.24"/>
<polygon fill="#63b8ff" stroke="#63b8ff" points="336.57,-197.75 347.16,-197.95 339,-191.19 336.57,-197.75"/>
</g>
<!-- Node4 -->
<g id="node4" class="node">
<title>Node4</title>
<g id="a_node4"><a xlink:href="classsss_1_1api_1_1S3Api.html#aea9741d60e74775ccd4de1c2c58f64fa" target="_top" xlink:title=" ">
<polygon fill="white" stroke="#666666" points="636.62,-555.25 514.88,-555.25 514.88,-536 636.62,-536 636.62,-555.25"/>
<text text-anchor="middle" x="575.75" y="-541.75" font-family="Helvetica,sans-Serif" font-size="10.00">sss::api::S3Api::Access</text>
</a>
</g>
</g>
<!-- Node3&#45;&gt;Node4 -->
<g id="edge3" class="edge">
<title>Node3&#45;&gt;Node4</title>
<path fill="none" stroke="#63b8ff" d="M396.33,-365.48C408.27,-393.96 446.7,-477.22 504.75,-521.62 509.72,-525.43 515.33,-528.65 521.16,-531.38"/>
<polygon fill="#63b8ff" stroke="#63b8ff" points="519.52,-534.9 530.1,-535.51 522.21,-528.44 519.52,-534.9"/>
</g>
<!-- Node5 -->
<g id="node5" class="node">
<title>Node5</title>
<g id="a_node5"><a xlink:href="classsss_1_1api_1_1S3Api.html#a3718745d3b940462ae9f3b78f773b3a6" target="_top" xlink:title="Clear data and reset read and write functions.">
<polygon fill="white" stroke="#666666" points="631.75,-479.25 519.75,-479.25 519.75,-460 631.75,-460 631.75,-479.25"/>
<text text-anchor="middle" x="575.75" y="-465.75" font-family="Helvetica,sans-Serif" font-size="10.00">sss::api::S3Api::Clear</text>
</a>
</g>
</g>
<!-- Node3&#45;&gt;Node5 -->
<g id="edge4" class="edge">
<title>Node3&#45;&gt;Node5</title>
<path fill="none" stroke="#63b8ff" d="M402.34,-365.64C420.95,-383.84 462.92,-422.62 504.75,-445.62 511.87,-449.54 519.75,-452.99 527.58,-455.96"/>
<polygon fill="#63b8ff" stroke="#63b8ff" points="526.17,-459.53 536.76,-459.59 528.52,-452.94 526.17,-459.53"/>
</g>
<!-- Node10 -->
<g id="node10" class="node">
<title>Node10</title>
<g id="a_node10"><a xlink:href="classsss_1_1WebClient.html#a75890c14fbe4a4bbac61718a4f3c064d" target="_top" xlink:title=" ">
<polygon fill="white" stroke="#666666" points="840.12,-552.25 699.62,-552.25 699.62,-533 840.12,-533 840.12,-552.25"/>
<text text-anchor="middle" x="769.88" y="-538.75" font-family="Helvetica,sans-Serif" font-size="10.00">sss::WebClient::SetHeaders</text>
</a>
</g>
</g>
<!-- Node3&#45;&gt;Node10 -->
<g id="edge16" class="edge">
<title>Node3&#45;&gt;Node10</title>
<path fill="none" stroke="#63b8ff" d="M397.63,-365.59C411.45,-390.74 451.45,-457.01 504.75,-488.62 535.3,-506.75 622.49,-522.37 688.41,-532.08"/>
<polygon fill="#63b8ff" stroke="#63b8ff" points="687.8,-535.67 698.2,-533.64 688.81,-528.74 687.8,-535.67"/>
</g>
<!-- Node11 -->
<g id="node11" class="node">
<title>Node11</title>
<g id="a_node11"><a xlink:href="classsss_1_1WebClient.html#a12b5db6b8c667024557ab58059d39994" target="_top" xlink:title=" ">
<polygon fill="white" stroke="#666666" points="831.88,-441.25 707.88,-441.25 707.88,-422 831.88,-422 831.88,-441.25"/>
<text text-anchor="middle" x="769.88" y="-427.75" font-family="Helvetica,sans-Serif" font-size="10.00">sss::WebClient::SetPath</text>
</a>
</g>
</g>
<!-- Node3&#45;&gt;Node11 -->
<g id="edge20" class="edge">
<title>Node3&#45;&gt;Node11</title>
<path fill="none" stroke="#63b8ff" d="M416.95,-365.71C439.45,-374.57 473.83,-387.17 504.75,-394.62 568.76,-410.06 643.15,-419.76 696.65,-425.34"/>
<polygon fill="#63b8ff" stroke="#63b8ff" points="696.09,-428.9 706.4,-426.44 696.8,-421.94 696.09,-428.9"/>
</g>
<!-- Node13 -->
<g id="node13" class="node">
<title>Node13</title>
<g id="a_node13"><a xlink:href="classsss_1_1WebClient.html#a9bf978d95b79728f6d60fc2bdb4fe546" target="_top" xlink:title=" ">
<polygon fill="white" stroke="#666666" points="855.88,-404.25 683.88,-404.25 683.88,-385 855.88,-385 855.88,-404.25"/>
<text text-anchor="middle" x="769.88" y="-390.75" font-family="Helvetica,sans-Serif" font-size="10.00">sss::WebClient::SetReqParameters</text>
</a>
</g>
</g>
<!-- Node3&#45;&gt;Node13 -->
<g id="edge21" class="edge">
<title>Node3&#45;&gt;Node13</title>
<path fill="none" stroke="#63b8ff" d="M445.96,-365.72C464.52,-368.94 485.5,-372.27 504.75,-374.62 560.25,-381.4 622.6,-386.25 672.79,-389.48"/>
<polygon fill="#63b8ff" stroke="#63b8ff" points="672.43,-393.03 682.63,-390.16 672.87,-386.04 672.43,-393.03"/>
</g>
<!-- Node14 -->
<g id="node14" class="node">
<title>Node14</title>
<g id="a_node14"><a xlink:href="classsss_1_1api_1_1S3Api.html#a25a999d87c121627166fc0a896f536c7" target="_top" xlink:title=" ">
<polygon fill="white" stroke="#666666" points="639.25,-328.25 512.25,-328.25 512.25,-309 639.25,-309 639.25,-328.25"/>
<text text-anchor="middle" x="575.75" y="-314.75" font-family="Helvetica,sans-Serif" font-size="10.00">sss::api::S3Api::Endpoint</text>
</a>
</g>
</g>
<!-- Node3&#45;&gt;Node14 -->
<g id="edge13" class="edge">
<title>Node3&#45;&gt;Node14</title>
<path fill="none" stroke="#63b8ff" d="M442.21,-345.51C464.53,-340.99 491.03,-335.61 514.46,-330.86"/>
<polygon fill="#63b8ff" stroke="#63b8ff" points="514.87,-334.14 523.98,-328.72 513.48,-327.28 514.87,-334.14"/>
</g>
<!-- Node15 -->
<g id="node15" class="node">
<title>Node15</title>
<g id="a_node15"><a xlink:href="classsss_1_1api_1_1S3Api.html#a6f518c16679e99f119966b36ac28463f" target="_top" xlink:title=" ">
<polygon fill="white" stroke="#666666" points="634.38,-291.25 517.12,-291.25 517.12,-272 634.38,-272 634.38,-291.25"/>
<text text-anchor="middle" x="575.75" y="-277.75" font-family="Helvetica,sans-Serif" font-size="10.00">sss::api::S3Api::Secret</text>
</a>
</g>
</g>
<!-- Node3&#45;&gt;Node15 -->
<g id="edge14" class="edge">
<title>Node3&#45;&gt;Node15</title>
<path fill="none" stroke="#63b8ff" d="M409.76,-345.51C431.42,-333.26 469.83,-312.65 504.75,-299.62 509.5,-297.85 514.49,-296.19 519.53,-294.65"/>
<polygon fill="#63b8ff" stroke="#63b8ff" points="520.24,-297.8 528.88,-291.67 518.3,-291.08 520.24,-297.8"/>
</g>
<!-- Node16 -->
<g id="node16" class="node">
<title>Node16</title>
<g id="a_node16"><a xlink:href="classsss_1_1WebClient.html#afc3b7a92568fbb1ea447918920ca266e" target="_top" xlink:title="Set endpoint: &lt;proto&gt;://&lt;server&gt;:&lt;port&gt;">
<polygon fill="white" stroke="#666666" points="646.75,-254.25 504.75,-254.25 504.75,-235 646.75,-235 646.75,-254.25"/>
<text text-anchor="middle" x="575.75" y="-240.75" font-family="Helvetica,sans-Serif" font-size="10.00">sss::WebClient::SetEndpoint</text>
</a>
</g>
</g>
<!-- Node3&#45;&gt;Node16 -->
<g id="edge15" class="edge">
<title>Node3&#45;&gt;Node16</title>
<path fill="none" stroke="#63b8ff" d="M401.53,-345.53C419.45,-326.41 461.21,-284.83 504.75,-262.62 507.82,-261.06 511.05,-259.62 514.35,-258.3"/>
<polygon fill="#63b8ff" stroke="#63b8ff" points="515.19,-261.36 523.43,-254.69 512.83,-254.77 515.19,-261.36"/>
</g>
<!-- Node17 -->
<g id="node17" class="node">
<title>Node17</title>
<g id="a_node17"><a xlink:href="classsss_1_1WebClient.html#af6233ffd7b294e1e7e606e838dd44e9e" target="_top" xlink:title=" ">
<polygon fill="white" stroke="#666666" points="643.75,-217.25 507.75,-217.25 507.75,-198 643.75,-198 643.75,-217.25"/>
<text text-anchor="middle" x="575.75" y="-203.75" font-family="Helvetica,sans-Serif" font-size="10.00">sss::WebClient::SetMethod</text>
</a>
</g>
</g>
<!-- Node3&#45;&gt;Node17 -->
<g id="edge17" class="edge">
<title>Node3&#45;&gt;Node17</title>
<path fill="none" stroke="#63b8ff" d="M398,-345.68C412.38,-321.2 453.02,-257.69 504.75,-225.62 506.91,-224.29 509.17,-223.05 511.49,-221.9"/>
<polygon fill="#63b8ff" stroke="#63b8ff" points="512.53,-224.83 520.35,-217.68 509.78,-218.4 512.53,-224.83"/>
</g>
<!-- Node19 -->
<g id="node19" class="node">
<title>Node19</title>
<g id="a_node19"><a xlink:href="group__Sign.html#ga3ae8e18ef70752b7369fca66c40c526b" target="_top" xlink:title="Sign headers.">
<polygon fill="white" stroke="#666666" points="622.75,-365.25 528.75,-365.25 528.75,-346 622.75,-346 622.75,-365.25"/>
<text text-anchor="middle" x="575.75" y="-351.75" font-family="Helvetica,sans-Serif" font-size="10.00">sss::SignHeaders</text>
</a>
</g>
</g>
<!-- Node3&#45;&gt;Node19 -->
<g id="edge22" class="edge">
<title>Node3&#45;&gt;Node19</title>
<path fill="none" stroke="#63b8ff" d="M450.33,-355.62C471.82,-355.62 496.17,-355.62 517.59,-355.62"/>
<polygon fill="#63b8ff" stroke="#63b8ff" points="517.5,-359.13 527.5,-355.62 517.5,-352.13 517.5,-359.13"/>
</g>
<!-- Node6 -->
<g id="node6" class="node">
<title>Node6</title>
<g id="a_node6"><a xlink:href="classsss_1_1WebClient.html#a381f5715b7a2f19a0d4414d278874bae" target="_top" xlink:title="Clear internal buffers.">
<polygon fill="white" stroke="#666666" points="841.62,-515.25 698.12,-515.25 698.12,-496 841.62,-496 841.62,-515.25"/>
<text text-anchor="middle" x="769.88" y="-501.75" font-family="Helvetica,sans-Serif" font-size="10.00">sss::WebClient::ClearBuffers</text>
</a>
</g>
</g>
<!-- Node5&#45;&gt;Node6 -->
<g id="edge5" class="edge">
<title>Node5&#45;&gt;Node6</title>
<path fill="none" stroke="#63b8ff" d="M630.78,-479.75C653.59,-484.02 680.34,-489.04 704.19,-493.5"/>
<polygon fill="#63b8ff" stroke="#63b8ff" points="703.45,-497.11 713.92,-495.51 704.73,-490.23 703.45,-497.11"/>
</g>
<!-- Node7 -->
<g id="node7" class="node">
<title>Node7</title>
<g id="a_node7"><a xlink:href="classsss_1_1WebClient.html#a96837f149bb473853a6523d096a25c56" target="_top" xlink:title="Reset read/write functions to default.">
<polygon fill="white" stroke="#666666" points="857,-478.25 682.75,-478.25 682.75,-459 857,-459 857,-478.25"/>
<text text-anchor="middle" x="769.88" y="-464.75" font-family="Helvetica,sans-Serif" font-size="10.00">sss::WebClient::ResetRWFunctions</text>
</a>
</g>
</g>
<!-- Node5&#45;&gt;Node7 -->
<g id="edge6" class="edge">
<title>Node5&#45;&gt;Node7</title>
<path fill="none" stroke="#63b8ff" d="M632.06,-469.34C644.48,-469.27 658.02,-469.2 671.59,-469.13"/>
<polygon fill="#63b8ff" stroke="#63b8ff" points="671.48,-472.63 681.46,-469.07 671.44,-465.63 671.48,-472.63"/>
</g>
<!-- Node5&#45;&gt;Node10 -->
<g id="edge9" class="edge">
<title>Node5&#45;&gt;Node10</title>
<path fill="none" stroke="#63b8ff" d="M614.59,-479.68C625.35,-483.3 636.83,-487.94 646.75,-493.62 665.07,-504.13 663.82,-515.28 682.75,-524.62 686.07,-526.26 689.53,-527.75 693.08,-529.11"/>
<polygon fill="#63b8ff" stroke="#63b8ff" points="691.67,-532.66 702.27,-532.58 693.93,-526.04 691.67,-532.66"/>
</g>
<!-- Node5&#45;&gt;Node11 -->
<g id="edge10" class="edge">
<title>Node5&#45;&gt;Node11</title>
<path fill="none" stroke="#63b8ff" d="M627.73,-459.54C652.15,-454.71 681.59,-448.89 707.25,-443.81"/>
<polygon fill="#63b8ff" stroke="#63b8ff" points="707.86,-447.06 716.99,-441.69 706.5,-440.2 707.86,-447.06"/>
</g>
<!-- Node5&#45;&gt;Node12 -->
<g id="edge11" class="edge">
<title>Node5&#45;&gt;Node12</title>
<path fill="none" stroke="#63b8ff" d="M589.68,-479.59C603.94,-490.72 627.43,-509.43 646.75,-526.62 663.42,-541.46 663.16,-550.93 682.75,-561.62 687.23,-564.07 692,-566.22 696.91,-568.1"/>
<polygon fill="#63b8ff" stroke="#63b8ff" points="695.53,-571.68 706.13,-571.62 697.81,-565.06 695.53,-571.68"/>
</g>
<!-- Node5&#45;&gt;Node13 -->
<g id="edge12" class="edge">
<title>Node5&#45;&gt;Node13</title>
<path fill="none" stroke="#63b8ff" d="M591.9,-459.66C611.9,-446.94 648.59,-425.08 682.75,-412.62 687.91,-410.74 693.32,-409.04 698.81,-407.49"/>
<polygon fill="#63b8ff" stroke="#63b8ff" points="699.62,-410.63 708.41,-404.71 697.85,-403.86 699.62,-410.63"/>
</g>
<!-- Node8 -->
<g id="node8" class="node">
<title>Node8</title>
<g id="a_node8"><a xlink:href="classsss_1_1WebClient.html#a88dbcc61562e84aa9ebf1eabf887ac28" target="_top" xlink:title=" ">
<polygon fill="white" stroke="#666666" points="1057.5,-521.25 893,-521.25 893,-502 1057.5,-502 1057.5,-521.25"/>
<text text-anchor="middle" x="975.25" y="-507.75" font-family="Helvetica,sans-Serif" font-size="10.00">sss::WebClient::SetReadFunction</text>
</a>
</g>
</g>
<!-- Node7&#45;&gt;Node8 -->
<g id="edge7" class="edge">
<title>Node7&#45;&gt;Node8</title>
<path fill="none" stroke="#63b8ff" d="M819.17,-478.68C831.5,-481.26 844.74,-484.04 857,-486.62 876.41,-490.72 897.62,-495.24 916.6,-499.29"/>
<polygon fill="#63b8ff" stroke="#63b8ff" points="915.68,-502.88 926.19,-501.55 917.14,-496.03 915.68,-502.88"/>
</g>
<!-- Node9 -->
<g id="node9" class="node">
<title>Node9</title>
<g id="a_node9"><a xlink:href="classsss_1_1WebClient.html#a002876073b3869a9b9a9d709d14f1d7e" target="_top" xlink:title=" ">
<polygon fill="white" stroke="#666666" points="1038.38,-483.88 912.12,-483.88 912.12,-453.38 1038.38,-453.38 1038.38,-483.88"/>
<text text-anchor="start" x="920.12" y="-470.38" font-family="Helvetica,sans-Serif" font-size="10.00">sss::WebClient::SetWrite</text>
<text text-anchor="middle" x="975.25" y="-459.12" font-family="Helvetica,sans-Serif" font-size="10.00">Function</text>
</a>
</g>
</g>
<!-- Node7&#45;&gt;Node9 -->
<g id="edge8" class="edge">
<title>Node7&#45;&gt;Node9</title>
<path fill="none" stroke="#63b8ff" d="M857.42,-468.62C871.98,-468.62 886.96,-468.62 901.14,-468.62"/>
<polygon fill="#63b8ff" stroke="#63b8ff" points="900.8,-472.13 910.8,-468.62 900.8,-465.13 900.8,-472.13"/>
</g>
<!-- Node18 -->
<g id="node18" class="node">
<title>Node18</title>
<g id="a_node18"><a xlink:href="lib_2include_2utility_8h.html#ae153c064d6f1beda845702f67605b20e" target="_top" xlink:title=" ">
<polygon fill="white" stroke="#666666" points="1012.5,-195.25 938,-195.25 938,-176 1012.5,-176 1012.5,-195.25"/>
<text text-anchor="middle" x="975.25" y="-181.75" font-family="Helvetica,sans-Serif" font-size="10.00">sss::ToUpper</text>
</a>
</g>
</g>
<!-- Node17&#45;&gt;Node18 -->
<g id="edge18" class="edge">
<title>Node17&#45;&gt;Node18</title>
<path fill="none" stroke="#63b8ff" d="M644.18,-203.89C724.5,-199.45 856.6,-192.14 926.86,-188.25"/>
<polygon fill="#63b8ff" stroke="#63b8ff" points="926.79,-191.7 936.58,-187.65 926.41,-184.71 926.79,-191.7"/>
</g>
<!-- Node18&#45;&gt;Node18 -->
<g id="edge19" class="edge">
<title>Node18&#45;&gt;Node18</title>
<path fill="none" stroke="#63b8ff" d="M943.1,-195.54C928.43,-204.15 939.15,-213.25 975.25,-213.25 998.38,-213.25 1011.09,-209.51 1013.38,-204.56"/>
<polygon fill="#63b8ff" stroke="#63b8ff" points="1015.84,-202.94 1007.4,-196.54 1010.01,-206.81 1015.84,-202.94"/>
</g>
<!-- Node20 -->
<g id="node20" class="node">
<title>Node20</title>
<g id="a_node20"><a xlink:href="group__Ranges.html#ga0aa7f3b15d2ebf9b597a1b5ba38ae8ac" target="_top" xlink:title="return iterator at start position">
<polygon fill="white" stroke="#666666" points="1005.75,-435.25 944.75,-435.25 944.75,-416 1005.75,-416 1005.75,-435.25"/>
<text text-anchor="middle" x="975.25" y="-421.75" font-family="Helvetica,sans-Serif" font-size="10.00">sss::begin</text>
</a>
</g>
</g>
<!-- Node19&#45;&gt;Node20 -->
<g id="edge23" class="edge">
<title>Node19&#45;&gt;Node20</title>
<path fill="none" stroke="#63b8ff" d="M623.25,-350.08C680.63,-345.19 780.03,-343.18 857,-375.62 876.73,-383.94 873.94,-397.89 893,-407.62 905.59,-414.06 920.42,-418.2 933.95,-420.87"/>
<polygon fill="#63b8ff" stroke="#63b8ff" points="932.99,-424.43 943.45,-422.7 934.2,-417.53 932.99,-424.43"/>
</g>
<!-- Node21 -->
<g id="node21" class="node">
<title>Node21</title>
<g id="a_node21"><a xlink:href="group__Sign.html#ga532598da479904609d6c02e4c2a1311a" target="_top" xlink:title="Compute signature.">
<polygon fill="white" stroke="#666666" points="829.25,-288.25 710.5,-288.25 710.5,-269 829.25,-269 829.25,-288.25"/>
<text text-anchor="middle" x="769.88" y="-274.75" font-family="Helvetica,sans-Serif" font-size="10.00">sss::ComputeSignature</text>
</a>
</g>
</g>
<!-- Node19&#45;&gt;Node21 -->
<g id="edge24" class="edge">
<title>Node19&#45;&gt;Node21</title>
<path fill="none" stroke="#63b8ff" d="M623.16,-347.12C631.29,-344.68 639.47,-341.57 646.75,-337.62 665.83,-327.28 663.89,-315.36 682.75,-304.62 691.61,-299.58 701.56,-295.41 711.46,-292.01"/>
<polygon fill="#63b8ff" stroke="#63b8ff" points="712.26,-295.11 720.72,-288.73 710.13,-288.44 712.26,-295.11"/>
</g>
<!-- Node23 -->
<g id="node23" class="node">
<title>Node23</title>
<g id="a_node23"><a xlink:href="group__Ranges.html#ga4f73053571587e79eb3db628f5e6ef99" target="_top" xlink:title="return iterator at end position">
<polygon fill="white" stroke="#666666" points="1002,-398.25 948.5,-398.25 948.5,-379 1002,-379 1002,-398.25"/>
<text text-anchor="middle" x="975.25" y="-384.75" font-family="Helvetica,sans-Serif" font-size="10.00">sss::end</text>
</a>
</g>
</g>
<!-- Node19&#45;&gt;Node23 -->
<g id="edge35" class="edge">
<title>Node19&#45;&gt;Node23</title>
<path fill="none" stroke="#63b8ff" d="M613.35,-345.56C668.05,-332.36 773.61,-314.01 857,-342.62 876.17,-349.2 874.66,-362 893,-370.62 906.86,-377.14 923.17,-381.35 937.52,-384.04"/>
<polygon fill="#63b8ff" stroke="#63b8ff" points="936.6,-387.6 947.05,-385.81 937.77,-380.7 936.6,-387.6"/>
</g>
<!-- Node21&#45;&gt;Node18 -->
<g id="edge33" class="edge">
<title>Node21&#45;&gt;Node18</title>
<path fill="none" stroke="#63b8ff" d="M792,-268.61C816.3,-257.13 857.43,-237.8 893,-221.62 908.86,-214.41 926.54,-206.56 941.35,-200.03"/>
<polygon fill="#63b8ff" stroke="#63b8ff" points="942.34,-202.98 950.08,-195.75 939.52,-196.57 942.34,-202.98"/>
</g>
<!-- Node21&#45;&gt;Node20 -->
<g id="edge25" class="edge">
<title>Node21&#45;&gt;Node20</title>
<path fill="none" stroke="#63b8ff" d="M788.46,-288.57C807.2,-299.83 836.88,-319.63 857,-342.62 878.74,-367.48 866.54,-387.86 893,-407.62 904.6,-416.29 919.57,-420.93 933.49,-423.37"/>
<polygon fill="#63b8ff" stroke="#63b8ff" points="932.96,-426.97 943.35,-424.88 933.93,-420.03 932.96,-426.97"/>
</g>
<!-- Node22 -->
<g id="node22" class="node">
<title>Node22</title>
<g id="a_node22"><a xlink:href="group__Internal.html#ga74c69f25ce04876e114759c0023b2a12" target="_top" xlink:title=" ">
<polygon fill="white" stroke="#666666" points="1038,-287.25 912.5,-287.25 912.5,-268 1038,-268 1038,-287.25"/>
<text text-anchor="middle" x="975.25" y="-273.75" font-family="Helvetica,sans-Serif" font-size="10.00">sss::CreateSignatureKey</text>
</a>
</g>
</g>
<!-- Node21&#45;&gt;Node22 -->
<g id="edge26" class="edge">
<title>Node21&#45;&gt;Node22</title>
<path fill="none" stroke="#63b8ff" d="M829.7,-278.34C851.98,-278.23 877.62,-278.1 901.06,-277.98"/>
<polygon fill="#63b8ff" stroke="#63b8ff" points="901.03,-281.48 911.01,-277.93 901,-274.48 901.03,-281.48"/>
</g>
<!-- Node21&#45;&gt;Node23 -->
<g id="edge27" class="edge">
<title>Node21&#45;&gt;Node23</title>
<path fill="none" stroke="#63b8ff" d="M826.87,-288.62C837.64,-292.37 848.27,-297.53 857,-304.62 882.93,-325.7 866.29,-350.54 893,-370.62 905.73,-380.2 922.56,-384.86 937.61,-387.07"/>
<polygon fill="#63b8ff" stroke="#63b8ff" points="936.82,-390.62 947.16,-388.28 937.62,-383.67 936.82,-390.62"/>
</g>
<!-- Node24 -->
<g id="node24" class="node">
<title>Node24</title>
<g id="a_node24"><a xlink:href="group__Internal.html#ga50353a351a93b1213dc4e5211c767d85" target="_top" xlink:title=" ">
<polygon fill="white" stroke="#666666" points="1015.12,-250.25 935.38,-250.25 935.38,-231 1015.12,-231 1015.12,-250.25"/>
<text text-anchor="middle" x="975.25" y="-236.75" font-family="Helvetica,sans-Serif" font-size="10.00">sss::GetDates</text>
</a>
</g>
</g>
<!-- Node21&#45;&gt;Node24 -->
<g id="edge28" class="edge">
<title>Node21&#45;&gt;Node24</title>
<path fill="none" stroke="#63b8ff" d="M824.84,-268.54C855.76,-262.76 894.29,-255.57 924.48,-249.92"/>
<polygon fill="#63b8ff" stroke="#63b8ff" points="925.01,-253.2 934.19,-247.92 923.72,-246.32 925.01,-253.2"/>
</g>
<!-- Node25 -->
<g id="node25" class="node">
<title>Node25</title>
<g id="a_node25"><a xlink:href="group__Internal.html#ga990dfaae4abc6bf20a28f9772b7bcd16" target="_top" xlink:title="Byte to hex string conversion.">
<polygon fill="white" stroke="#666666" points="1003.12,-361.25 947.38,-361.25 947.38,-342 1003.12,-342 1003.12,-361.25"/>
<text text-anchor="middle" x="975.25" y="-347.75" font-family="Helvetica,sans-Serif" font-size="10.00">sss::Hex</text>
</a>
</g>
</g>
<!-- Node21&#45;&gt;Node25 -->
<g id="edge29" class="edge">
<title>Node21&#45;&gt;Node25</title>
<path fill="none" stroke="#63b8ff" d="M815.98,-288.71C829.6,-292.67 844.29,-297.92 857,-304.62 875.17,-314.22 874.48,-324.72 893,-333.62 906.36,-340.05 922.06,-344.21 936.07,-346.9"/>
<polygon fill="#63b8ff" stroke="#63b8ff" points="935.43,-350.51 945.88,-348.75 936.61,-343.61 935.43,-350.51"/>
</g>
<!-- Node26 -->
<g id="node26" class="node">
<title>Node26</title>
<g id="a_node26"><a xlink:href="group__Internal.html#ga7160aa316f2c6633467b47588263c690" target="_top" xlink:title=" ">
<polygon fill="white" stroke="#666666" points="1017,-324.25 933.5,-324.25 933.5,-305 1017,-305 1017,-324.25"/>
<text text-anchor="middle" x="975.25" y="-310.75" font-family="Helvetica,sans-Serif" font-size="10.00">sss::ParseURL</text>
</a>
</g>
</g>
<!-- Node21&#45;&gt;Node26 -->
<g id="edge30" class="edge">
<title>Node21&#45;&gt;Node26</title>
<path fill="none" stroke="#63b8ff" d="M828.07,-288.75C857.76,-294 893.75,-300.38 922.6,-305.48"/>
<polygon fill="#63b8ff" stroke="#63b8ff" points="921.81,-309.07 932.27,-307.37 923.03,-302.18 921.81,-309.07"/>
</g>
<!-- Node21&#45;&gt;Node27 -->
<g id="edge31" class="edge">
<title>Node21&#45;&gt;Node27</title>
<path fill="none" stroke="#63b8ff" d="M779.5,-268.79C798.35,-247.76 845.34,-197.82 893,-166.62 906.19,-157.99 921.8,-150.51 935.79,-144.64"/>
<polygon fill="#63b8ff" stroke="#63b8ff" points="936.68,-147.65 944.64,-140.66 934.05,-141.17 936.68,-147.65"/>
</g>
<!-- Node28 -->
<g id="node28" class="node">
<title>Node28</title>
<g id="a_node28"><a xlink:href="group__Internal.html#ga0f079ace8729714b3949eabe22f228c9" target="_top" xlink:title=" ">
<polygon fill="white" stroke="#666666" points="1017,-102.25 933.5,-102.25 933.5,-83 1017,-83 1017,-102.25"/>
<text text-anchor="middle" x="975.25" y="-88.75" font-family="Helvetica,sans-Serif" font-size="10.00">sss::UrlEncode</text>
</a>
</g>
</g>
<!-- Node21&#45;&gt;Node28 -->
<g id="edge34" class="edge">
<title>Node21&#45;&gt;Node28</title>
<path fill="none" stroke="#63b8ff" d="M775.01,-268.84C787.82,-239.78 829.8,-153.45 893,-111.62 901.79,-105.81 912.14,-101.77 922.46,-98.96"/>
<polygon fill="#63b8ff" stroke="#63b8ff" points="923.2,-102.14 932.13,-96.45 921.6,-95.33 923.2,-102.14"/>
</g>
<!-- Node27&#45;&gt;Node27 -->
<g id="edge32" class="edge">
<title>Node27&#45;&gt;Node27</title>
<path fill="none" stroke="#63b8ff" d="M943.1,-140.54C928.43,-149.15 939.15,-158.25 975.25,-158.25 998.38,-158.25 1011.09,-154.51 1013.38,-149.56"/>
<polygon fill="#63b8ff" stroke="#63b8ff" points="1015.84,-147.94 1007.4,-141.54 1010.01,-151.81 1015.84,-147.94"/>
</g>
<!-- Node32&#45;&gt;Node28 -->
<g id="edge41" class="edge">
<title>Node32&#45;&gt;Node28</title>
<path fill="none" stroke="#63b8ff" d="M469.04,-90.02C589.48,-90.64 819.86,-91.83 922.59,-92.36"/>
<polygon fill="#63b8ff" stroke="#63b8ff" points="922.28,-95.86 932.3,-92.41 922.32,-88.86 922.28,-95.86"/>
</g>
<!-- Node33&#45;&gt;Node17 -->
<g id="edge45" class="edge">
<title>Node33&#45;&gt;Node17</title>
<path fill="none" stroke="#63b8ff" d="M462.1,-211.33C473.38,-210.96 485.12,-210.57 496.59,-210.2"/>
<polygon fill="#63b8ff" stroke="#63b8ff" points="496.59,-213.67 506.47,-209.84 496.36,-206.67 496.59,-213.67"/>
</g>
<!-- Node33&#45;&gt;Node31 -->
<g id="edge44" class="edge">
<title>Node33&#45;&gt;Node31</title>
<path fill="none" stroke="#63b8ff" d="M458.99,-197.92C479.51,-193.08 501.82,-187.82 521.33,-183.22"/>
<polygon fill="#63b8ff" stroke="#63b8ff" points="521.93,-186.44 530.86,-180.74 520.32,-179.63 521.93,-186.44"/>
</g>
</g>
</svg>
        <g id="navigator" transform="translate(0 0)" fill="#404254">
                <rect fill="#f2f5e9" fill-opacity="0.5" stroke="#606060" stroke-width=".5" x="0" y="0" width="60" height="60"/>
                <use id="zoomplus" xlink:href="#zoomPlus" x="17" y="9" onmousedown="handleZoom(evt,'in')"/>
                <use id="zoomminus" xlink:href="#zoomMin" x="42" y="9" onmousedown="handleZoom(evt,'out')"/>
                <use id="reset" xlink:href="#resetDef" x="30" y="36" onmousedown="handleReset()"/>
                <g id="arrowUp" xlink:href="#dirArrow" transform="translate(30 24)" onmousedown="handlePan(0,-1)">
                  <use xlink:href="#rim" fill="#404040">
                        <set attributeName="fill" to="#808080" begin="arrowUp.mouseover" end="arrowUp.mouseout"/>
                  </use>
                  <path fill="none" stroke="white" stroke-width="1.5" d="M0,-3.0v7 M-2.5,-0.5L0,-3.0L2.5,-0.5"/>
                </g>
                <g id="arrowRight" xlink:href="#dirArrow" transform="rotate(90) translate(36 -43)" onmousedown="handlePan(1,0)">
                  <use xlink:href="#rim" fill="#404040">
                        <set attributeName="fill" to="#808080" begin="arrowRight.mouseover" end="arrowRight.mouseout"/>
                  </use>
                  <path fill="none" stroke="white" stroke-width="1.5" d="M0,-3.0v7 M-2.5,-0.5L0,-3.0L2.5,-0.5"/>
                </g>
                <g id="arrowDown" xlink:href="#dirArrow" transform="rotate(180) translate(-30 -48)" onmousedown="handlePan(0,1)">
                  <use xlink:href="#rim" fill="#404040">
                        <set attributeName="fill" to="#808080" begin="arrowDown.mouseover" end="arrowDown.mouseout"/>
                  </use>
                  <path fill="none" stroke="white" stroke-width="1.5" d="M0,-3.0v7 M-2.5,-0.5L0,-3.0L2.5,-0.5"/>
                </g>
                <g id="arrowLeft" xlink:href="#dirArrow" transform="rotate(270) translate(-36 17)" onmousedown="handlePan(-1,0)">
                  <use xlink:href="#rim" fill="#404040">
                        <set attributeName="fill" to="#808080" begin="arrowLeft.mouseover" end="arrowLeft.mouseout"/>
                  </use>
                  <path fill="none" stroke="white" stroke-width="1.5" d="M0,-3.0v7 M-2.5,-0.5L0,-3.0L2.5,-0.5"/>
                </g>
        </g>
        <svg viewBox="0 0 15 15" width="100%" height="30px" preserveAspectRatio="xMaxYMin meet">
         <g id="arrow_out" transform="scale(0.3 0.3)">
          <a xlink:href="classsss_1_1api_1_1S3Api_a98f999a216121118dd569c7ef0c28ff3_cgraph_org.svg" target="_base">
           <rect id="button" ry="5" rx="5" y="6" x="6" height="38" width="38"
                fill="#f2f5e9" fill-opacity="0.5" stroke="#606060" stroke-width="1.0"/>
           <path id="arrow"
             d="M 11.500037,31.436501 C 11.940474,20.09759 22.043105,11.32322 32.158766,21.979434 L 37.068811,17.246167 C 37.068811,17.246167 37.088388,32 37.088388,32 L 22.160133,31.978069 C 22.160133,31.978069 26.997745,27.140456 26.997745,27.140456 C 18.528582,18.264221 13.291696,25.230495 11.500037,31.436501 z"
             style="fill:#404040;"/>
          </a>
         </g>
        </svg>
</svg>
