<?xml version="1.0" encoding="UTF-8" standalone="no"?>
<!DOCTYPE svg PUBLIC "-//W3C//DTD SVG 1.1//EN"
 "http://www.w3.org/Graphics/SVG/1.1/DTD/svg11.dtd">
<!-- Generated by graphviz version 8.0.5 (20230430.1635)
 -->
<!-- Title: sss::WebClient::SetMethod Pages: 1 -->
<!--zoomable 544 -->
<svg id="main" version="1.1" xmlns="http://www.w3.org/2000/svg" xmlns:xlink="http://www.w3.org/1999/xlink" xml:space="preserve" onload="init(evt)">
<style type="text/css"><![CDATA[
.edge:hover path { stroke: red; }
.edge:hover polygon { stroke: red; fill: red; }
]]></style>
<script type="text/javascript"><![CDATA[
var edges = document.getElementsByTagName('g');
if (edges && edges.length) {
  for (var i=0;i<edges.length;i++) {
    if (edges[i].id.substr(0,4)=='edge') {
      edges[i].setAttribute('class','edge');
    }
  }
}
]]></script>
        <defs>
                <circle id="rim" cx="0" cy="0" r="7"/>
                <circle id="rim2" cx="0" cy="0" r="3.5"/>
                <g id="zoomPlus">
                        <use xlink:href="#rim" fill="#404040">
                                <set attributeName="fill" to="#808080" begin="zoomplus.mouseover" end="zoomplus.mouseout"/>
                        </use>
                        <path d="M-4,0h8M0,-4v8" fill="none" stroke="white" stroke-width="1.5" pointer-events="none"/>
                </g>
                <g id="zoomMin">
                        <use xlink:href="#rim" fill="#404040">
                                <set attributeName="fill" to="#808080" begin="zoomminus.mouseover" end="zoomminus.mouseout"/>
                        </use>
                        <path d="M-4,0h8" fill="none" stroke="white" stroke-width="1.5" pointer-events="none"/>
                </g>
                <g id="dirArrow">
                        <path fill="none" stroke="white" stroke-width="1.5" d="M0,-3.0v7 M-2.5,-0.5L0,-3.0L2.5,-0.5"/>
                </g>
               <g id="resetDef">
                       <use xlink:href="#rim2" fill="#404040">
                               <set attributeName="fill" to="#808080" begin="reset.mouseover" end="reset.mouseout"/>
                       </use>
               </g>
        </defs>

<script type="text/javascript">
var viewWidth = 888;
var viewHeight = 544;
var sectionId = 'dynsection-8';
</script>
<script xlink:href="svgpan.js"/>
<svg id="graph" class="graph">
<g id="viewport">
<title>sss::WebClient::SetMethod</title>
<!-- Node1 -->
<g id="node1" class="node">
<title>Node1</title>
<g id="a_node1"><a xlink:title=" ">
<polygon fill="#999999" stroke="#666666" points="880.25,-237.25 744.25,-237.25 744.25,-218 880.25,-218 880.25,-237.25"/>
<text text-anchor="middle" x="812.25" y="-223.75" font-family="Helvetica,sans-Serif" font-size="10.00">sss::WebClient::SetMethod</text>
</a>
</g>
</g>
<!-- Node2 -->
<g id="node2" class="node">
<title>Node2</title>
<g id="a_node2"><a xlink:href="classsss_1_1api_1_1S3Api.html#a840772746fbb0a79c161037da7b24a31" target="_top" xlink:title="[WebClient::Config]">
<polygon fill="white" stroke="#666666" points="696.62,-312.25 579.38,-312.25 579.38,-293 696.62,-293 696.62,-312.25"/>
<text text-anchor="middle" x="638" y="-298.75" font-family="Helvetica,sans-Serif" font-size="10.00">sss::api::S3Api::Config</text>
</a>
</g>
</g>
<!-- Node1&#45;&gt;Node2 -->
<g id="edge1" class="edge">
<title>Node1&#45;&gt;Node2</title>
<path fill="none" stroke="#63b8ff" d="M787,-243.34C766.65,-255.95 736.47,-273.36 708.25,-284.62 700.75,-287.62 692.6,-290.25 684.6,-292.52"/>
<polygon fill="#63b8ff" stroke="#63b8ff" points="788.55,-245.87 795.14,-237.58 784.82,-239.95 788.55,-245.87"/>
</g>
<!-- Node23 -->
<g id="node23" class="node">
<title>Node23</title>
<g id="a_node23"><a xlink:href="group__S3Client.html#ga5a769be8fbc874bad858ea95743e5643" target="_top" xlink:title="Send S3 request to endpoint.">
<polygon fill="white" stroke="#666666" points="510.38,-231.25 401.38,-231.25 401.38,-212 510.38,-212 510.38,-231.25"/>
<text text-anchor="middle" x="455.88" y="-217.75" font-family="Helvetica,sans-Serif" font-size="10.00">sss::SendS3Request</text>
</a>
</g>
</g>
<!-- Node1&#45;&gt;Node23 -->
<g id="edge26" class="edge">
<title>Node1&#45;&gt;Node23</title>
<path fill="none" stroke="#63b8ff" d="M732.77,-226.3C665.35,-225.15 569.92,-223.54 510.79,-222.54"/>
<polygon fill="#63b8ff" stroke="#63b8ff" points="732.7,-229.81 742.76,-226.48 732.82,-222.81 732.7,-229.81"/>
</g>
<!-- Node24 -->
<g id="node24" class="node">
<title>Node24</title>
<g id="a_node24"><a xlink:href="classsss_1_1WebClient.html#ae7b1f77bd4ae44585f2d49ea493bdcc5" target="_top" xlink:title="Upload data from memory buffer.">
<polygon fill="white" stroke="#666666" points="708.25,-199.88 567.75,-199.88 567.75,-169.38 708.25,-169.38 708.25,-199.88"/>
<text text-anchor="start" x="575.75" y="-186.38" font-family="Helvetica,sans-Serif" font-size="10.00">sss::WebClient::UploadData</text>
<text text-anchor="middle" x="638" y="-175.12" font-family="Helvetica,sans-Serif" font-size="10.00">FromBuffer</text>
</a>
</g>
</g>
<!-- Node1&#45;&gt;Node24 -->
<g id="edge27" class="edge">
<title>Node1&#45;&gt;Node24</title>
<path fill="none" stroke="#63b8ff" d="M760.42,-214.94C742.13,-210.37 721.26,-205.16 702.05,-200.37"/>
<polygon fill="#63b8ff" stroke="#63b8ff" points="759.32,-218.52 769.87,-217.54 761.01,-211.73 759.32,-218.52"/>
</g>
<!-- Node26 -->
<g id="node26" class="node">
<title>Node26</title>
<g id="a_node26"><a xlink:href="classsss_1_1WebClient.html#ad038e41cfc902f6e49754c52a9a71992" target="_top" xlink:title="Upload file.">
<polygon fill="white" stroke="#666666" points="705.62,-275.25 570.38,-275.25 570.38,-256 705.62,-256 705.62,-275.25"/>
<text text-anchor="middle" x="638" y="-261.75" font-family="Helvetica,sans-Serif" font-size="10.00">sss::WebClient::UploadFile</text>
</a>
</g>
</g>
<!-- Node1&#45;&gt;Node26 -->
<g id="edge31" class="edge">
<title>Node1&#45;&gt;Node26</title>
<path fill="none" stroke="#63b8ff" d="M754.98,-240.04C732.19,-245.07 706.21,-250.8 684.62,-255.56"/>
<polygon fill="#63b8ff" stroke="#63b8ff" points="755.53,-243.28 764.54,-237.71 754.02,-236.45 755.53,-243.28"/>
</g>
<!-- Node27 -->
<g id="node27" class="node">
<title>Node27</title>
<g id="a_node27"><a xlink:href="classsss_1_1WebClient.html#accb4e986d73bb44149918fa0043ec43b" target="_top" xlink:title="Upload file starting from offset using unbuffered I/O read.">
<polygon fill="white" stroke="#666666" points="705.62,-150.88 570.38,-150.88 570.38,-120.38 705.62,-120.38 705.62,-150.88"/>
<text text-anchor="start" x="578.38" y="-137.38" font-family="Helvetica,sans-Serif" font-size="10.00">sss::WebClient::UploadFile</text>
<text text-anchor="middle" x="638" y="-126.12" font-family="Helvetica,sans-Serif" font-size="10.00">Unbuffered</text>
</a>
</g>
</g>
<!-- Node1&#45;&gt;Node27 -->
<g id="edge34" class="edge">
<title>Node1&#45;&gt;Node27</title>
<path fill="none" stroke="#63b8ff" d="M789.44,-211.31C769.18,-196.68 737.76,-175.31 708.25,-160.62 701.5,-157.27 694.18,-154.13 686.92,-151.29"/>
<polygon fill="#63b8ff" stroke="#63b8ff" points="787.04,-214.62 797.18,-217.7 791.18,-208.97 787.04,-214.62"/>
</g>
<!-- Node3 -->
<g id="node3" class="node">
<title>Node3</title>
<g id="a_node3"><a xlink:href="classsss_1_1api_1_1S3Api.html#a1196f1cb9ce1e5d69336e9b8dbb5d59c" target="_top" xlink:title=" ">
<polygon fill="white" stroke="#666666" points="516,-365.88 395.75,-365.88 395.75,-335.38 516,-335.38 516,-365.88"/>
<text text-anchor="start" x="403.75" y="-352.38" font-family="Helvetica,sans-Serif" font-size="10.00">sss::api::S3Api::GetFile</text>
<text text-anchor="middle" x="455.88" y="-341.12" font-family="Helvetica,sans-Serif" font-size="10.00">Object</text>
</a>
</g>
</g>
<!-- Node2&#45;&gt;Node3 -->
<g id="edge2" class="edge">
<title>Node2&#45;&gt;Node3</title>
<path fill="none" stroke="#63b8ff" d="M588.63,-315.51C566.24,-321.48 539.43,-328.63 515.86,-334.91"/>
<polygon fill="#63b8ff" stroke="#63b8ff" points="589.48,-318.64 598.24,-312.69 587.68,-311.88 589.48,-318.64"/>
</g>
<!-- Node4 -->
<g id="node4" class="node">
<title>Node4</title>
<g id="a_node4"><a xlink:href="classsss_1_1api_1_1S3Api.html#ab7affe0834f5892b393e731783b7ccac" target="_top" xlink:title=" ">
<polygon fill="white" stroke="#666666" points="515.62,-316.88 396.12,-316.88 396.12,-286.38 515.62,-286.38 515.62,-316.88"/>
<text text-anchor="start" x="404.12" y="-303.38" font-family="Helvetica,sans-Serif" font-size="10.00">sss::api::S3Api::PutFile</text>
<text text-anchor="middle" x="455.88" y="-292.12" font-family="Helvetica,sans-Serif" font-size="10.00">Object</text>
</a>
</g>
</g>
<!-- Node2&#45;&gt;Node4 -->
<g id="edge3" class="edge">
<title>Node2&#45;&gt;Node4</title>
<path fill="none" stroke="#63b8ff" d="M568.43,-302.24C551.15,-302.15 532.75,-302.05 515.99,-301.95"/>
<polygon fill="#63b8ff" stroke="#63b8ff" points="568,-305.75 578.02,-302.3 568.04,-298.75 568,-305.75"/>
</g>
<!-- Node5 -->
<g id="node5" class="node">
<title>Node5</title>
<g id="a_node5"><a xlink:href="classsss_1_1api_1_1S3Api.html#ad09581bf28c4bbbcbb71b329959ec1ae" target="_top" xlink:title=" ">
<polygon fill="white" stroke="#666666" points="511.5,-268.25 400.25,-268.25 400.25,-249 511.5,-249 511.5,-268.25"/>
<text text-anchor="middle" x="455.88" y="-254.75" font-family="Helvetica,sans-Serif" font-size="10.00">sss::api::S3Api::Send</text>
</a>
</g>
</g>
<!-- Node2&#45;&gt;Node5 -->
<g id="edge4" class="edge">
<title>Node2&#45;&gt;Node5</title>
<path fill="none" stroke="#63b8ff" d="M585.04,-289.93C557.49,-283.2 524.11,-275.05 498.32,-268.75"/>
<polygon fill="#63b8ff" stroke="#63b8ff" points="584.13,-293.56 594.68,-292.53 585.79,-286.76 584.13,-293.56"/>
</g>
<!-- Node6 -->
<g id="node6" class="node">
<title>Node6</title>
<g id="a_node6"><a xlink:href="classsss_1_1api_1_1S3Api.html#a4ea265566c3c4335ec01201cdc4410c6" target="_top" xlink:title=" ">
<polygon fill="white" stroke="#666666" points="341,-535.88 191.5,-535.88 191.5,-505.38 341,-505.38 341,-535.88"/>
<text text-anchor="start" x="199.5" y="-522.38" font-family="Helvetica,sans-Serif" font-size="10.00">sss::api::S3Api::AbortMultipart</text>
<text text-anchor="middle" x="266.25" y="-511.12" font-family="Helvetica,sans-Serif" font-size="10.00">Upload</text>
</a>
</g>
</g>
<!-- Node5&#45;&gt;Node6 -->
<g id="edge5" class="edge">
<title>Node5&#45;&gt;Node6</title>
<path fill="none" stroke="#63b8ff" d="M390.16,-269.38C386.42,-271.66 382.98,-274.38 380,-277.62 313.57,-349.95 407.99,-421.14 344,-495.62 340.9,-499.24 337.26,-502.33 333.29,-504.98"/>
<polygon fill="#63b8ff" stroke="#63b8ff" points="391.55,-272.11 398.98,-264.56 388.46,-265.82 391.55,-272.11"/>
</g>
<!-- Node7 -->
<g id="node7" class="node">
<title>Node7</title>
<g id="a_node7"><a xlink:href="classsss_1_1api_1_1S3Api.html#a98f999a216121118dd569c7ef0c28ff3" target="_top" xlink:title=" ">
<polygon fill="white" stroke="#666666" points="331.62,-486.88 200.88,-486.88 200.88,-456.38 331.62,-456.38 331.62,-486.88"/>
<text text-anchor="start" x="208.88" y="-473.38" font-family="Helvetica,sans-Serif" font-size="10.00">sss::api::S3Api::Complete</text>
<text text-anchor="middle" x="266.25" y="-462.12" font-family="Helvetica,sans-Serif" font-size="10.00">MultipartUpload</text>
</a>
</g>
</g>
<!-- Node5&#45;&gt;Node7 -->
<g id="edge6" class="edge">
<title>Node5&#45;&gt;Node7</title>
<path fill="none" stroke="#63b8ff" d="M390.14,-269.65C386.43,-271.87 383,-274.5 380,-277.62 326.49,-333.31 395.97,-390.5 344,-447.62 340.52,-451.45 336.45,-454.66 332.02,-457.37"/>
<polygon fill="#63b8ff" stroke="#63b8ff" points="391.38,-272.45 398.84,-264.93 388.31,-266.15 391.38,-272.45"/>
</g>
<!-- Node8 -->
<g id="node8" class="node">
<title>Node8</title>
<g id="a_node8"><a xlink:href="classsss_1_1api_1_1S3Api.html#ad890bd1ecfc978df24b2c3ed641e4081" target="_top" xlink:title=" ">
<polygon fill="white" stroke="#666666" points="340.62,-364.25 191.88,-364.25 191.88,-345 340.62,-345 340.62,-364.25"/>
<text text-anchor="middle" x="266.25" y="-350.75" font-family="Helvetica,sans-Serif" font-size="10.00">sss::api::S3Api::CreateBucket</text>
</a>
</g>
</g>
<!-- Node5&#45;&gt;Node8 -->
<g id="edge7" class="edge">
<title>Node5&#45;&gt;Node8</title>
<path fill="none" stroke="#63b8ff" d="M389.81,-271.62C386.36,-273.38 383.06,-275.37 380,-277.62 355.28,-295.86 368.88,-318.61 344,-336.62 339.57,-339.84 334.64,-342.48 329.49,-344.66"/>
<polygon fill="#63b8ff" stroke="#63b8ff" points="391.07,-274.46 398.86,-267.27 388.29,-268.03 391.07,-274.46"/>
</g>
<!-- Node10 -->
<g id="node10" class="node">
<title>Node10</title>
<g id="a_node10"><a xlink:href="classsss_1_1api_1_1S3Api.html#a1796fafda3d90a4292a611ce1999433b" target="_top" xlink:title=" ">
<polygon fill="white" stroke="#666666" points="344,-252.88 188.5,-252.88 188.5,-222.38 344,-222.38 344,-252.88"/>
<text text-anchor="start" x="196.5" y="-239.38" font-family="Helvetica,sans-Serif" font-size="10.00">sss::api::S3Api::CreateMultipart</text>
<text text-anchor="middle" x="266.25" y="-228.12" font-family="Helvetica,sans-Serif" font-size="10.00">Upload</text>
</a>
</g>
</g>
<!-- Node5&#45;&gt;Node10 -->
<g id="edge9" class="edge">
<title>Node5&#45;&gt;Node10</title>
<path fill="none" stroke="#63b8ff" d="M389,-251.25C374.53,-249.63 359.08,-247.9 344.22,-246.24"/>
<polygon fill="#63b8ff" stroke="#63b8ff" points="388.52,-254.83 398.85,-252.47 389.3,-247.88 388.52,-254.83"/>
</g>
<!-- Node11 -->
<g id="node11" class="node">
<title>Node11</title>
<g id="a_node11"><a xlink:href="classsss_1_1api_1_1S3Api.html#a3d63825d1916e4ba3ca13122c7660603" target="_top" xlink:title=" ">
<polygon fill="white" stroke="#666666" points="340.25,-327.25 192.25,-327.25 192.25,-308 340.25,-308 340.25,-327.25"/>
<text text-anchor="middle" x="266.25" y="-313.75" font-family="Helvetica,sans-Serif" font-size="10.00">sss::api::S3Api::DeleteBucket</text>
</a>
</g>
</g>
<!-- Node5&#45;&gt;Node11 -->
<g id="edge10" class="edge">
<title>Node5&#45;&gt;Node11</title>
<path fill="none" stroke="#63b8ff" d="M395.8,-271.83C390.39,-273.57 385.05,-275.5 380,-277.62 362.72,-284.9 361.35,-292.51 344,-299.62 336.4,-302.74 328.15,-305.39 319.97,-307.61"/>
<polygon fill="#63b8ff" stroke="#63b8ff" points="396.67,-274.92 405.24,-268.7 394.66,-268.22 396.67,-274.92"/>
</g>
<!-- Node12 -->
<g id="node12" class="node">
<title>Node12</title>
<g id="a_node12"><a xlink:href="classsss_1_1api_1_1S3Api.html#a14a75f15eb71fbba8639673100768b67" target="_top" xlink:title=" ">
<polygon fill="white" stroke="#666666" points="339.12,-204.25 193.38,-204.25 193.38,-185 339.12,-185 339.12,-204.25"/>
<text text-anchor="middle" x="266.25" y="-190.75" font-family="Helvetica,sans-Serif" font-size="10.00">sss::api::S3Api::DeleteObject</text>
</a>
</g>
</g>
<!-- Node5&#45;&gt;Node12 -->
<g id="edge12" class="edge">
<title>Node5&#45;&gt;Node12</title>
<path fill="none" stroke="#63b8ff" d="M391.03,-245.19C387.24,-243.81 383.53,-242.29 380,-240.62 361.9,-232.11 362.07,-222.2 344,-213.62 336.44,-210.04 328.12,-207.08 319.84,-204.65"/>
<polygon fill="#63b8ff" stroke="#63b8ff" points="389.6,-248.73 400.19,-248.55 391.79,-242.09 389.6,-248.73"/>
</g>
<!-- Node13 -->
<g id="node13" class="node">
<title>Node13</title>
<g id="a_node13"><a xlink:href="classsss_1_1api_1_1S3Api.html#a3b53152bf39143843a4033aa4a1b3fa0" target="_top" xlink:title=" ">
<polygon fill="white" stroke="#666666" points="341,-290.25 191.5,-290.25 191.5,-271 341,-271 341,-290.25"/>
<text text-anchor="middle" x="266.25" y="-276.75" font-family="Helvetica,sans-Serif" font-size="10.00">sss::api::S3Api::GetBucketAcl</text>
</a>
</g>
</g>
<!-- Node5&#45;&gt;Node13 -->
<g id="edge13" class="edge">
<title>Node5&#45;&gt;Node13</title>
<path fill="none" stroke="#63b8ff" d="M389.34,-266.31C373.87,-268.12 357.27,-270.07 341.44,-271.93"/>
<polygon fill="#63b8ff" stroke="#63b8ff" points="389.32,-269.72 398.85,-265.08 388.51,-262.77 389.32,-269.72"/>
</g>
<!-- Node14 -->
<g id="node14" class="node">
<title>Node14</title>
<g id="a_node14"><a xlink:href="classsss_1_1api_1_1S3Api.html#af61465d92c0a94aa82ae863fc2a776a0" target="_top" xlink:title=" ">
<polygon fill="white" stroke="#666666" points="332.75,-167.25 199.75,-167.25 199.75,-148 332.75,-148 332.75,-167.25"/>
<text text-anchor="middle" x="266.25" y="-153.75" font-family="Helvetica,sans-Serif" font-size="10.00">sss::api::S3Api::GetObject</text>
</a>
</g>
</g>
<!-- Node5&#45;&gt;Node14 -->
<g id="edge15" class="edge">
<title>Node5&#45;&gt;Node14</title>
<path fill="none" stroke="#63b8ff" d="M390.22,-246.94C386.61,-245.13 383.17,-243.03 380,-240.62 353.72,-220.63 370.34,-195.55 344,-175.62 339.85,-172.49 335.25,-169.88 330.41,-167.73"/>
<polygon fill="#63b8ff" stroke="#63b8ff" points="388.52,-250.45 399.09,-251.13 391.25,-244 388.52,-250.45"/>
</g>
<!-- Node15 -->
<g id="node15" class="node">
<title>Node15</title>
<g id="a_node15"><a xlink:href="classsss_1_1api_1_1S3Api.html#aa4a2b1cc2c89a52d1aa89e571b785db2" target="_top" xlink:title=" ">
<polygon fill="white" stroke="#666666" points="337.62,-438.25 194.88,-438.25 194.88,-419 337.62,-419 337.62,-438.25"/>
<text text-anchor="middle" x="266.25" y="-424.75" font-family="Helvetica,sans-Serif" font-size="10.00">sss::api::S3Api::HeadBucket</text>
</a>
</g>
</g>
<!-- Node5&#45;&gt;Node15 -->
<g id="edge16" class="edge">
<title>Node5&#45;&gt;Node15</title>
<path fill="none" stroke="#63b8ff" d="M390.34,-269.84C386.58,-272.02 383.08,-274.59 380,-277.62 336.36,-320.58 388.03,-368.06 344,-410.62 340.75,-413.76 337.07,-416.39 333.11,-418.59"/>
<polygon fill="#63b8ff" stroke="#63b8ff" points="391.58,-272.65 399.12,-265.2 388.58,-266.32 391.58,-272.65"/>
</g>
<!-- Node16 -->
<g id="node16" class="node">
<title>Node16</title>
<g id="a_node16"><a xlink:href="classsss_1_1api_1_1S3Api.html#abc84a71b9a88b81afaa353ad17a91d22" target="_top" xlink:title=" ">
<polygon fill="white" stroke="#666666" points="336.5,-130.25 196,-130.25 196,-111 336.5,-111 336.5,-130.25"/>
<text text-anchor="middle" x="266.25" y="-116.75" font-family="Helvetica,sans-Serif" font-size="10.00">sss::api::S3Api::HeadObject</text>
</a>
</g>
</g>
<!-- Node5&#45;&gt;Node16 -->
<g id="edge18" class="edge">
<title>Node5&#45;&gt;Node16</title>
<path fill="none" stroke="#63b8ff" d="M390.42,-247.92C386.67,-245.88 383.15,-243.46 380,-240.62 344.3,-208.43 379.79,-170.72 344,-138.62 340.54,-135.52 336.64,-132.92 332.48,-130.75"/>
<polygon fill="#63b8ff" stroke="#63b8ff" points="388.57,-251.38 399.12,-252.3 391.44,-245 388.57,-251.38"/>
</g>
<!-- Node19 -->
<g id="node19" class="node">
<title>Node19</title>
<g id="a_node19"><a xlink:href="classsss_1_1api_1_1S3Api.html#a81e30673c06b609a2ee6e6bfd9130ca6" target="_top" xlink:title=" ">
<polygon fill="white" stroke="#666666" points="336.5,-401.25 196,-401.25 196,-382 336.5,-382 336.5,-401.25"/>
<text text-anchor="middle" x="266.25" y="-387.75" font-family="Helvetica,sans-Serif" font-size="10.00">sss::api::S3Api::ListBuckets</text>
</a>
</g>
</g>
<!-- Node5&#45;&gt;Node19 -->
<g id="edge21" class="edge">
<title>Node5&#45;&gt;Node19</title>
<path fill="none" stroke="#63b8ff" d="M389.95,-270.57C386.38,-272.58 383.03,-274.92 380,-277.62 346.05,-308.02 378.22,-343.54 344,-373.62 340.4,-376.79 336.35,-379.42 332.05,-381.61"/>
<polygon fill="#63b8ff" stroke="#63b8ff" points="391.22,-273.37 398.81,-265.97 388.26,-267.03 391.22,-273.37"/>
</g>
<!-- Node20 -->
<g id="node20" class="node">
<title>Node20</title>
<g id="a_node20"><a xlink:href="classsss_1_1api_1_1S3Api.html#a3f00f611cd210a58ac6e8c0555984433" target="_top" xlink:title=" ">
<polygon fill="white" stroke="#666666" points="341.38,-93.25 191.12,-93.25 191.12,-74 341.38,-74 341.38,-93.25"/>
<text text-anchor="middle" x="266.25" y="-79.75" font-family="Helvetica,sans-Serif" font-size="10.00">sss::api::S3Api::ListObjectsV2</text>
</a>
</g>
</g>
<!-- Node5&#45;&gt;Node20 -->
<g id="edge23" class="edge">
<title>Node5&#45;&gt;Node20</title>
<path fill="none" stroke="#63b8ff" d="M390.32,-248.34C386.57,-246.2 383.08,-243.65 380,-240.62 334.48,-195.9 389.64,-146.23 344,-101.62 340.77,-98.47 337.1,-95.83 333.15,-93.62"/>
<polygon fill="#63b8ff" stroke="#63b8ff" points="388.55,-251.84 399.09,-252.87 391.5,-245.49 388.55,-251.84"/>
</g>
<!-- Node21 -->
<g id="node21" class="node">
<title>Node21</title>
<g id="a_node21"><a xlink:href="classsss_1_1api_1_1S3Api.html#a0473917e4d25a4a6fca40d097e4299d6" target="_top" xlink:title=" ">
<polygon fill="white" stroke="#666666" points="321.88,-56.25 210.62,-56.25 210.62,-37 321.88,-37 321.88,-56.25"/>
<text text-anchor="middle" x="266.25" y="-42.75" font-family="Helvetica,sans-Serif" font-size="10.00">sss::api::S3Api::Send</text>
</a>
</g>
</g>
<!-- Node5&#45;&gt;Node21 -->
<g id="edge24" class="edge">
<title>Node5&#45;&gt;Node21</title>
<path fill="none" stroke="#63b8ff" d="M390.14,-248.52C386.43,-246.33 383,-243.73 380,-240.62 324.52,-183.21 399.64,-121.88 344,-64.62 337.99,-58.44 330.29,-54.21 322.1,-51.35"/>
<polygon fill="#63b8ff" stroke="#63b8ff" points="388.3,-252 398.84,-253.13 391.31,-245.67 388.3,-252"/>
</g>
<!-- Node22 -->
<g id="node22" class="node">
<title>Node22</title>
<g id="a_node22"><a xlink:href="classsss_1_1api_1_1S3Api.html#a23223ee1fb701c55af2d942dbf261ae2" target="_top" xlink:title=" ">
<polygon fill="white" stroke="#666666" points="335.38,-19.25 197.12,-19.25 197.12,0 335.38,0 335.38,-19.25"/>
<text text-anchor="middle" x="266.25" y="-5.75" font-family="Helvetica,sans-Serif" font-size="10.00">sss::api::S3Api::TestBucket</text>
</a>
</g>
</g>
<!-- Node5&#45;&gt;Node22 -->
<g id="edge25" class="edge">
<title>Node5&#45;&gt;Node22</title>
<path fill="none" stroke="#63b8ff" d="M390.2,-248.75C386.45,-246.51 382.99,-243.83 380,-240.62 314.48,-170.45 409.72,-97.62 344,-27.62 341.1,-24.53 337.77,-21.92 334.17,-19.73"/>
<polygon fill="#63b8ff" stroke="#63b8ff" points="388.51,-252.29 399.04,-253.44 391.52,-245.97 388.51,-252.29"/>
</g>
<!-- Node9 -->
<g id="node9" class="node">
<title>Node9</title>
<g id="a_node9"><a xlink:href="bucket-test_8cpp.html#a3c04138a5bfe5d72780bb7e82a18e627" target="_top" xlink:title="Bucket tests.">
<polygon fill="white" stroke="#666666" points="94.75,-364.25 57.75,-364.25 57.75,-345 94.75,-345 94.75,-364.25"/>
<text text-anchor="middle" x="76.25" y="-350.75" font-family="Helvetica,sans-Serif" font-size="10.00">main</text>
</a>
</g>
</g>
<!-- Node8&#45;&gt;Node9 -->
<g id="edge8" class="edge">
<title>Node8&#45;&gt;Node9</title>
<path fill="none" stroke="#63b8ff" d="M180.67,-354.62C148.53,-354.62 114.91,-354.62 95.03,-354.62"/>
<polygon fill="#63b8ff" stroke="#63b8ff" points="180.49,-358.13 190.49,-354.62 180.49,-351.13 180.49,-358.13"/>
</g>
<!-- Node11&#45;&gt;Node9 -->
<g id="edge11" class="edge">
<title>Node11&#45;&gt;Node9</title>
<path fill="none" stroke="#63b8ff" d="M203.42,-329.79C165.49,-337.26 119.63,-346.28 94.98,-351.14"/>
<polygon fill="#63b8ff" stroke="#63b8ff" points="203.74,-333.1 212.88,-327.74 202.39,-326.23 203.74,-333.1"/>
</g>
<!-- Node13&#45;&gt;Node9 -->
<g id="edge14" class="edge">
<title>Node13&#45;&gt;Node9</title>
<path fill="none" stroke="#63b8ff" d="M204.37,-293.5C198.95,-295.07 193.6,-296.77 188.5,-298.62 153.54,-311.32 115.34,-332.24 94.03,-344.59"/>
<polygon fill="#63b8ff" stroke="#63b8ff" points="205.06,-296.66 213.79,-290.66 203.23,-289.91 205.06,-296.66"/>
</g>
<!-- Node15&#45;&gt;Node9 -->
<g id="edge17" class="edge">
<title>Node15&#45;&gt;Node9</title>
<path fill="none" stroke="#63b8ff" d="M204.37,-415.75C198.95,-414.18 193.6,-412.48 188.5,-410.62 153.54,-397.93 115.34,-377.01 94.03,-364.66"/>
<polygon fill="#63b8ff" stroke="#63b8ff" points="203.23,-419.34 213.79,-418.59 205.06,-412.59 203.23,-419.34"/>
</g>
<!-- Node17 -->
<g id="node17" class="node">
<title>Node17</title>
<g id="a_node17"><a xlink:href="classsss_1_1api_1_1S3Api.html#a872e80e356e8c404a9b0739d95a0af41" target="_top" xlink:title="[WebClient::Config]">
<polygon fill="white" stroke="#666666" points="152.5,-111.25 0,-111.25 0,-92 152.5,-92 152.5,-111.25"/>
<text text-anchor="middle" x="76.25" y="-97.75" font-family="Helvetica,sans-Serif" font-size="10.00">sss::api::S3Api::GetObjectSize</text>
</a>
</g>
</g>
<!-- Node16&#45;&gt;Node17 -->
<g id="edge19" class="edge">
<title>Node16&#45;&gt;Node17</title>
<path fill="none" stroke="#63b8ff" d="M184.63,-112.48C174.09,-111.41 163.33,-110.32 152.87,-109.27"/>
<polygon fill="#63b8ff" stroke="#63b8ff" points="184.21,-116.05 194.51,-113.58 184.92,-109.09 184.21,-116.05"/>
</g>
<!-- Node18 -->
<g id="node18" class="node">
<title>Node18</title>
<g id="a_node18"><a xlink:href="classsss_1_1api_1_1S3Api.html#aa3f7a3001bdad58c7b0c04cbd0dc3236" target="_top" xlink:title=" ">
<polygon fill="white" stroke="#666666" points="144.25,-148.25 8.25,-148.25 8.25,-129 144.25,-129 144.25,-148.25"/>
<text text-anchor="middle" x="76.25" y="-134.75" font-family="Helvetica,sans-Serif" font-size="10.00">sss::api::S3Api::TestObject</text>
</a>
</g>
</g>
<!-- Node16&#45;&gt;Node18 -->
<g id="edge20" class="edge">
<title>Node16&#45;&gt;Node18</title>
<path fill="none" stroke="#63b8ff" d="M184.88,-128.32C171.48,-129.6 157.71,-130.92 144.69,-132.17"/>
<polygon fill="#63b8ff" stroke="#63b8ff" points="184.89,-131.74 194.51,-127.3 184.22,-124.77 184.89,-131.74"/>
</g>
<!-- Node19&#45;&gt;Node9 -->
<g id="edge22" class="edge">
<title>Node19&#45;&gt;Node9</title>
<path fill="none" stroke="#63b8ff" d="M203.42,-379.46C165.49,-371.99 119.63,-362.97 94.98,-358.11"/>
<polygon fill="#63b8ff" stroke="#63b8ff" points="202.39,-383.02 212.88,-381.51 203.74,-376.15 202.39,-383.02"/>
</g>
<!-- Node24&#45;&gt;Node5 -->
<g id="edge28" class="edge">
<title>Node24&#45;&gt;Node5</title>
<path fill="none" stroke="#63b8ff" d="M602.57,-205.8C582.5,-217.41 556.37,-231.29 531.75,-240.62 523.75,-243.66 515.07,-246.3 506.55,-248.56"/>
<polygon fill="#63b8ff" stroke="#63b8ff" points="604.05,-208.4 610.9,-200.32 600.51,-202.37 604.05,-208.4"/>
</g>
<!-- Node24&#45;&gt;Node23 -->
<g id="edge29" class="edge">
<title>Node24&#45;&gt;Node23</title>
<path fill="none" stroke="#63b8ff" d="M556.68,-201.12C539.4,-204.67 521.63,-208.32 505.97,-211.54"/>
<polygon fill="#63b8ff" stroke="#63b8ff" points="557.27,-204.37 566.36,-198.93 555.86,-197.51 557.27,-204.37"/>
</g>
<!-- Node25 -->
<g id="node25" class="node">
<title>Node25</title>
<g id="a_node25"><a xlink:href="classsss_1_1WebClient.html#ab5af9d8e7c424e49fab04f0d9d59b489" target="_top" xlink:title="Upload file starting from offset using unbuffered memory mapping of file.">
<polygon fill="white" stroke="#666666" points="531.75,-194.25 380,-194.25 380,-175 531.75,-175 531.75,-194.25"/>
<text text-anchor="middle" x="455.88" y="-180.75" font-family="Helvetica,sans-Serif" font-size="10.00">sss::WebClient::UploadFileMM</text>
</a>
</g>
</g>
<!-- Node24&#45;&gt;Node25 -->
<g id="edge30" class="edge">
<title>Node24&#45;&gt;Node25</title>
<path fill="none" stroke="#63b8ff" d="M556.39,-184.62C548.27,-184.62 540.06,-184.62 532.01,-184.62"/>
<polygon fill="#63b8ff" stroke="#63b8ff" points="556.36,-188.13 566.36,-184.62 556.36,-181.13 556.36,-188.13"/>
</g>
<!-- Node26&#45;&gt;Node4 -->
<g id="edge32" class="edge">
<title>Node26&#45;&gt;Node4</title>
<path fill="none" stroke="#63b8ff" d="M575.58,-277.9C556.34,-281.75 535.15,-285.98 516.06,-289.8"/>
<polygon fill="#63b8ff" stroke="#63b8ff" points="576.23,-281.14 585.35,-275.75 574.85,-274.28 576.23,-281.14"/>
</g>
<!-- Node26&#45;&gt;Node23 -->
<g id="edge33" class="edge">
<title>Node26&#45;&gt;Node23</title>
<path fill="none" stroke="#63b8ff" d="M585.88,-252.93C568.69,-248.68 549.39,-243.92 531.75,-239.62 521.1,-237.03 509.59,-234.25 498.86,-231.67"/>
<polygon fill="#63b8ff" stroke="#63b8ff" points="584.73,-256.5 595.28,-255.5 586.41,-249.7 584.73,-256.5"/>
</g>
</g>
</svg>
        <g id="navigator" transform="translate(0 0)" fill="#404254">
                <rect fill="#f2f5e9" fill-opacity="0.5" stroke="#606060" stroke-width=".5" x="0" y="0" width="60" height="60"/>
                <use id="zoomplus" xlink:href="#zoomPlus" x="17" y="9" onmousedown="handleZoom(evt,'in')"/>
                <use id="zoomminus" xlink:href="#zoomMin" x="42" y="9" onmousedown="handleZoom(evt,'out')"/>
                <use id="reset" xlink:href="#resetDef" x="30" y="36" onmousedown="handleReset()"/>
                <g id="arrowUp" xlink:href="#dirArrow" transform="translate(30 24)" onmousedown="handlePan(0,-1)">
                  <use xlink:href="#rim" fill="#404040">
                        <set attributeName="fill" to="#808080" begin="arrowUp.mouseover" end="arrowUp.mouseout"/>
                  </use>
                  <path fill="none" stroke="white" stroke-width="1.5" d="M0,-3.0v7 M-2.5,-0.5L0,-3.0L2.5,-0.5"/>
                </g>
                <g id="arrowRight" xlink:href="#dirArrow" transform="rotate(90) translate(36 -43)" onmousedown="handlePan(1,0)">
                  <use xlink:href="#rim" fill="#404040">
                        <set attributeName="fill" to="#808080" begin="arrowRight.mouseover" end="arrowRight.mouseout"/>
                  </use>
                  <path fill="none" stroke="white" stroke-width="1.5" d="M0,-3.0v7 M-2.5,-0.5L0,-3.0L2.5,-0.5"/>
                </g>
                <g id="arrowDown" xlink:href="#dirArrow" transform="rotate(180) translate(-30 -48)" onmousedown="handlePan(0,1)">
                  <use xlink:href="#rim" fill="#404040">
                        <set attributeName="fill" to="#808080" begin="arrowDown.mouseover" end="arrowDown.mouseout"/>
                  </use>
                  <path fill="none" stroke="white" stroke-width="1.5" d="M0,-3.0v7 M-2.5,-0.5L0,-3.0L2.5,-0.5"/>
                </g>
                <g id="arrowLeft" xlink:href="#dirArrow" transform="rotate(270) translate(-36 17)" onmousedown="handlePan(-1,0)">
                  <use xlink:href="#rim" fill="#404040">
                        <set attributeName="fill" to="#808080" begin="arrowLeft.mouseover" end="arrowLeft.mouseout"/>
                  </use>
                  <path fill="none" stroke="white" stroke-width="1.5" d="M0,-3.0v7 M-2.5,-0.5L0,-3.0L2.5,-0.5"/>
                </g>
        </g>
        <svg viewBox="0 0 15 15" width="100%" height="30px" preserveAspectRatio="xMaxYMin meet">
         <g id="arrow_out" transform="scale(0.3 0.3)">
          <a xlink:href="classsss_1_1WebClient_af6233ffd7b294e1e7e606e838dd44e9e_icgraph_org.svg" target="_base">
           <rect id="button" ry="5" rx="5" y="6" x="6" height="38" width="38"
                fill="#f2f5e9" fill-opacity="0.5" stroke="#606060" stroke-width="1.0"/>
           <path id="arrow"
             d="M 11.500037,31.436501 C 11.940474,20.09759 22.043105,11.32322 32.158766,21.979434 L 37.068811,17.246167 C 37.068811,17.246167 37.088388,32 37.088388,32 L 22.160133,31.978069 C 22.160133,31.978069 26.997745,27.140456 26.997745,27.140456 C 18.528582,18.264221 13.291696,25.230495 11.500037,31.436501 z"
             style="fill:#404040;"/>
          </a>
         </g>
        </svg>
</svg>
