<?xml version="1.0" encoding="UTF-8" standalone="no"?>
<!DOCTYPE svg PUBLIC "-//W3C//DTD SVG 1.1//EN"
 "http://www.w3.org/Graphics/SVG/1.1/DTD/svg11.dtd">
<!-- Generated by graphviz version 2.43.0 (0)
 -->
<!-- Title: sss::WebClient::SetMethod Pages: 1 -->
<svg width="891pt" height="871pt"
 viewBox="0.00 0.00 891.00 870.50" xmlns="http://www.w3.org/2000/svg" xmlns:xlink="http://www.w3.org/1999/xlink">
<g id="graph0" class="graph" transform="scale(1 1) rotate(0) translate(4 866.5)">
<title>sss::WebClient::SetMethod</title>
<!-- Node1 -->
<g id="node1" class="node">
<title>Node1</title>
<g id="a_node1"><a xlink:title=" ">
<polygon fill="#bfbfbf" stroke="black" points="746,-388.5 746,-407.5 883,-407.5 883,-388.5 746,-388.5"/>
<text text-anchor="middle" x="814.5" y="-395.5" font-family="Helvetica,sans-Serif" font-size="10.00">sss::WebClient::SetMethod</text>
</a>
</g>
</g>
<!-- Node2 -->
<g id="node2" class="node">
<title>Node2</title>
<g id="a_node2"><a xlink:href="classsss_1_1api_1_1S3Api.html#a840772746fbb0a79c161037da7b24a31" target="_top" xlink:title="Configure instance.">
<polygon fill="none" stroke="black" points="580.5,-454.5 580.5,-473.5 698.5,-473.5 698.5,-454.5 580.5,-454.5"/>
<text text-anchor="middle" x="639.5" y="-461.5" font-family="Helvetica,sans-Serif" font-size="10.00">sss::api::S3Api::Config</text>
</a>
</g>
</g>
<!-- Node1&#45;&gt;Node2 -->
<g id="edge1" class="edge">
<title>Node1&#45;&gt;Node2</title>
<path fill="none" stroke="midnightblue" d="M785.7,-412.09C765.15,-422.14 736.28,-435.51 710,-445 700.35,-448.48 689.75,-451.69 679.81,-454.43"/>
<polygon fill="midnightblue" stroke="midnightblue" points="787.39,-415.16 794.8,-407.59 784.29,-408.88 787.39,-415.16"/>
</g>
<!-- Node29 -->
<g id="node29" class="node">
<title>Node29</title>
<g id="a_node29"><a xlink:href="classsss_1_1WebClient.html#ae7b1f77bd4ae44585f2d49ea493bdcc5" target="_top" xlink:title="Upload data from memory buffer.">
<polygon fill="none" stroke="black" points="569,-405 569,-435 710,-435 710,-405 569,-405"/>
<text text-anchor="start" x="577" y="-423" font-family="Helvetica,sans-Serif" font-size="10.00">sss::WebClient::UploadData</text>
<text text-anchor="middle" x="639.5" y="-412" font-family="Helvetica,sans-Serif" font-size="10.00">FromBuffer</text>
</a>
</g>
</g>
<!-- Node1&#45;&gt;Node29 -->
<g id="edge28" class="edge">
<title>Node1&#45;&gt;Node29</title>
<path fill="none" stroke="midnightblue" d="M735.43,-407.93C727.01,-409 718.48,-410.08 710.17,-411.14"/>
<polygon fill="midnightblue" stroke="midnightblue" points="736.14,-411.37 745.62,-406.63 735.26,-404.42 736.14,-411.37"/>
</g>
<!-- Node31 -->
<g id="node31" class="node">
<title>Node31</title>
<g id="a_node31"><a xlink:href="classsss_1_1WebClient.html#ad038e41cfc902f6e49754c52a9a71992" target="_top" xlink:title="Upload file.">
<polygon fill="none" stroke="black" points="571.5,-366.5 571.5,-385.5 707.5,-385.5 707.5,-366.5 571.5,-366.5"/>
<text text-anchor="middle" x="639.5" y="-373.5" font-family="Helvetica,sans-Serif" font-size="10.00">sss::WebClient::UploadFile</text>
</a>
</g>
</g>
<!-- Node1&#45;&gt;Node31 -->
<g id="edge31" class="edge">
<title>Node1&#45;&gt;Node31</title>
<path fill="none" stroke="midnightblue" d="M735.57,-388.09C726.24,-386.9 716.77,-385.7 707.61,-384.53"/>
<polygon fill="midnightblue" stroke="midnightblue" points="735.26,-391.58 745.62,-389.37 736.14,-384.63 735.26,-391.58"/>
</g>
<!-- Node32 -->
<g id="node32" class="node">
<title>Node32</title>
<g id="a_node32"><a xlink:href="classsss_1_1WebClient.html#accb4e986d73bb44149918fa0043ec43b" target="_top" xlink:title="Upload file starting from offset using unbuffered I/O read.">
<polygon fill="none" stroke="black" points="571.5,-317 571.5,-347 707.5,-347 707.5,-317 571.5,-317"/>
<text text-anchor="start" x="579.5" y="-335" font-family="Helvetica,sans-Serif" font-size="10.00">sss::WebClient::UploadFile</text>
<text text-anchor="middle" x="639.5" y="-324" font-family="Helvetica,sans-Serif" font-size="10.00">Unbuffered</text>
</a>
</g>
</g>
<!-- Node1&#45;&gt;Node32 -->
<g id="edge32" class="edge">
<title>Node1&#45;&gt;Node32</title>
<path fill="none" stroke="midnightblue" d="M780.34,-384.55C760.08,-376.41 733.62,-365.92 710,-357 701.36,-353.74 692.09,-350.33 683.21,-347.12"/>
<polygon fill="midnightblue" stroke="midnightblue" points="779.16,-387.85 789.74,-388.34 781.77,-381.36 779.16,-387.85"/>
</g>
<!-- Node3 -->
<g id="node3" class="node">
<title>Node3</title>
<g id="a_node3"><a xlink:href="classsss_1_1api_1_1S3Api.html#a1196f1cb9ce1e5d69336e9b8dbb5d59c" target="_top" xlink:title="Download object into file.">
<polygon fill="none" stroke="black" points="396.5,-498 396.5,-528 517.5,-528 517.5,-498 396.5,-498"/>
<text text-anchor="start" x="404.5" y="-516" font-family="Helvetica,sans-Serif" font-size="10.00">sss::api::S3Api::GetFile</text>
<text text-anchor="middle" x="457" y="-505" font-family="Helvetica,sans-Serif" font-size="10.00">Object</text>
</a>
</g>
</g>
<!-- Node2&#45;&gt;Node3 -->
<g id="edge2" class="edge">
<title>Node2&#45;&gt;Node3</title>
<path fill="none" stroke="midnightblue" d="M593.6,-476.19C569.32,-482.78 539.12,-490.98 513.39,-497.96"/>
<polygon fill="midnightblue" stroke="midnightblue" points="594.54,-479.56 603.27,-473.56 592.7,-472.81 594.54,-479.56"/>
</g>
<!-- Node4 -->
<g id="node4" class="node">
<title>Node4</title>
<g id="a_node4"><a xlink:href="classsss_1_1api_1_1S3Api.html#ab7affe0834f5892b393e731783b7ccac" target="_top" xlink:title="Upload file to object.">
<polygon fill="none" stroke="black" points="397,-449 397,-479 517,-479 517,-449 397,-449"/>
<text text-anchor="start" x="405" y="-467" font-family="Helvetica,sans-Serif" font-size="10.00">sss::api::S3Api::PutFile</text>
<text text-anchor="middle" x="457" y="-456" font-family="Helvetica,sans-Serif" font-size="10.00">Object</text>
</a>
</g>
</g>
<!-- Node2&#45;&gt;Node4 -->
<g id="edge3" class="edge">
<title>Node2&#45;&gt;Node4</title>
<path fill="none" stroke="midnightblue" d="M570.28,-464C552.82,-464 534.2,-464 517.24,-464"/>
<polygon fill="midnightblue" stroke="midnightblue" points="570.4,-467.5 580.4,-464 570.4,-460.5 570.4,-467.5"/>
</g>
<!-- Node5 -->
<g id="node5" class="node">
<title>Node5</title>
<g id="a_node5"><a xlink:href="classsss_1_1api_1_1S3Api.html#a02b4f0c95255f151beb72f0a6bdf5889" target="_top" xlink:title="Send request.">
<polygon fill="none" stroke="black" points="401,-410.5 401,-429.5 513,-429.5 513,-410.5 401,-410.5"/>
<text text-anchor="middle" x="457" y="-417.5" font-family="Helvetica,sans-Serif" font-size="10.00">sss::api::S3Api::Send</text>
</a>
</g>
</g>
<!-- Node2&#45;&gt;Node5 -->
<g id="edge4" class="edge">
<title>Node2&#45;&gt;Node5</title>
<path fill="none" stroke="midnightblue" d="M589.4,-452.03C560.39,-444.96 524.15,-436.13 497.09,-429.53"/>
<polygon fill="midnightblue" stroke="midnightblue" points="588.79,-455.48 599.33,-454.45 590.45,-448.68 588.79,-455.48"/>
</g>
<!-- Node6 -->
<g id="node6" class="node">
<title>Node6</title>
<g id="a_node6"><a xlink:href="classsss_1_1api_1_1S3Api.html#a4ea265566c3c4335ec01201cdc4410c6" target="_top" xlink:title="Abort multipart upload.">
<polygon fill="none" stroke="black" points="192,-832 192,-862 342,-862 342,-832 192,-832"/>
<text text-anchor="start" x="200" y="-850" font-family="Helvetica,sans-Serif" font-size="10.00">sss::api::S3Api::AbortMultipart</text>
<text text-anchor="middle" x="267" y="-839" font-family="Helvetica,sans-Serif" font-size="10.00">Upload</text>
</a>
</g>
</g>
<!-- Node5&#45;&gt;Node6 -->
<g id="edge5" class="edge">
<title>Node5&#45;&gt;Node6</title>
<path fill="none" stroke="midnightblue" d="M391.72,-430.87C387.72,-433.36 384.07,-436.37 381,-440 325.8,-505.28 398.83,-756.59 345,-823 342.27,-826.37 339.07,-829.28 335.55,-831.78"/>
<polygon fill="midnightblue" stroke="midnightblue" points="393.63,-433.83 400.98,-426.21 390.48,-427.58 393.63,-433.83"/>
</g>
<!-- Node7 -->
<g id="node7" class="node">
<title>Node7</title>
<g id="a_node7"><a xlink:href="classsss_1_1api_1_1S3Api.html#a98f999a216121118dd569c7ef0c28ff3" target="_top" xlink:title="Complete multipart upload.">
<polygon fill="none" stroke="black" points="201.5,-783 201.5,-813 332.5,-813 332.5,-783 201.5,-783"/>
<text text-anchor="start" x="209.5" y="-801" font-family="Helvetica,sans-Serif" font-size="10.00">sss::api::S3Api::Complete</text>
<text text-anchor="middle" x="267" y="-790" font-family="Helvetica,sans-Serif" font-size="10.00">MultipartUpload</text>
</a>
</g>
</g>
<!-- Node5&#45;&gt;Node7 -->
<g id="edge6" class="edge">
<title>Node5&#45;&gt;Node7</title>
<path fill="none" stroke="midnightblue" d="M391.58,-431.04C387.64,-433.5 384.04,-436.45 381,-440 284.09,-552.99 438.87,-657.46 345,-773 341.54,-777.25 337.35,-780.79 332.73,-783.73"/>
<polygon fill="midnightblue" stroke="midnightblue" points="393.35,-434.07 400.69,-426.43 390.18,-427.83 393.35,-434.07"/>
</g>
<!-- Node8 -->
<g id="node8" class="node">
<title>Node8</title>
<g id="a_node8"><a xlink:href="classsss_1_1api_1_1S3Api.html#ad890bd1ecfc978df24b2c3ed641e4081" target="_top" xlink:title="Create bucket.">
<polygon fill="none" stroke="black" points="192.5,-744.5 192.5,-763.5 341.5,-763.5 341.5,-744.5 192.5,-744.5"/>
<text text-anchor="middle" x="267" y="-751.5" font-family="Helvetica,sans-Serif" font-size="10.00">sss::api::S3Api::CreateBucket</text>
</a>
</g>
</g>
<!-- Node5&#45;&gt;Node8 -->
<g id="edge7" class="edge">
<title>Node5&#45;&gt;Node8</title>
<path fill="none" stroke="midnightblue" d="M391.64,-431.09C387.68,-433.53 384.07,-436.47 381,-440 294.32,-539.67 432.6,-636.15 345,-735 341.62,-738.81 337.61,-741.92 333.22,-744.45"/>
<polygon fill="midnightblue" stroke="midnightblue" points="393.41,-434.12 400.76,-426.49 390.25,-427.87 393.41,-434.12"/>
</g>
<!-- Node9 -->
<g id="node9" class="node">
<title>Node9</title>
<g id="a_node9"><a xlink:href="classsss_1_1api_1_1S3Api.html#a1796fafda3d90a4292a611ce1999433b" target="_top" xlink:title="Create multipart upload.">
<polygon fill="none" stroke="black" points="189,-695 189,-725 345,-725 345,-695 189,-695"/>
<text text-anchor="start" x="197" y="-713" font-family="Helvetica,sans-Serif" font-size="10.00">sss::api::S3Api::CreateMultipart</text>
<text text-anchor="middle" x="267" y="-702" font-family="Helvetica,sans-Serif" font-size="10.00">Upload</text>
</a>
</g>
</g>
<!-- Node5&#45;&gt;Node9 -->
<g id="edge8" class="edge">
<title>Node5&#45;&gt;Node9</title>
<path fill="none" stroke="midnightblue" d="M391.73,-431.17C387.75,-433.6 384.11,-436.51 381,-440 307.77,-522.16 416.02,-600.92 345,-685 341.74,-688.87 337.87,-692.14 333.63,-694.91"/>
<polygon fill="midnightblue" stroke="midnightblue" points="393.5,-434.2 400.89,-426.61 390.38,-427.94 393.5,-434.2"/>
</g>
<!-- Node10 -->
<g id="node10" class="node">
<title>Node10</title>
<g id="a_node10"><a xlink:href="classsss_1_1api_1_1S3Api.html#a3d63825d1916e4ba3ca13122c7660603" target="_top" xlink:title="Delete bucket.">
<polygon fill="none" stroke="black" points="192.5,-656.5 192.5,-675.5 341.5,-675.5 341.5,-656.5 192.5,-656.5"/>
<text text-anchor="middle" x="267" y="-663.5" font-family="Helvetica,sans-Serif" font-size="10.00">sss::api::S3Api::DeleteBucket</text>
</a>
</g>
</g>
<!-- Node5&#45;&gt;Node10 -->
<g id="edge9" class="edge">
<title>Node5&#45;&gt;Node10</title>
<path fill="none" stroke="midnightblue" d="M391.63,-431.39C387.71,-433.77 384.1,-436.61 381,-440 317.95,-508.88 408.69,-578.71 345,-647 341.43,-650.83 337.23,-653.94 332.65,-656.46"/>
<polygon fill="midnightblue" stroke="midnightblue" points="393.27,-434.48 400.65,-426.88 390.14,-428.22 393.27,-434.48"/>
</g>
<!-- Node11 -->
<g id="node11" class="node">
<title>Node11</title>
<g id="a_node11"><a xlink:href="classsss_1_1api_1_1S3Api.html#a14a75f15eb71fbba8639673100768b67" target="_top" xlink:title="Delete object.">
<polygon fill="none" stroke="black" points="194,-618.5 194,-637.5 340,-637.5 340,-618.5 194,-618.5"/>
<text text-anchor="middle" x="267" y="-625.5" font-family="Helvetica,sans-Serif" font-size="10.00">sss::api::S3Api::DeleteObject</text>
</a>
</g>
</g>
<!-- Node5&#45;&gt;Node11 -->
<g id="edge10" class="edge">
<title>Node5&#45;&gt;Node11</title>
<path fill="none" stroke="midnightblue" d="M391.78,-431.52C387.82,-433.87 384.17,-436.67 381,-440 328.09,-495.66 398.43,-553.83 345,-609 341.36,-612.76 337.1,-615.82 332.5,-618.31"/>
<polygon fill="midnightblue" stroke="midnightblue" points="393.41,-434.62 400.85,-427.06 390.33,-428.33 393.41,-434.62"/>
</g>
<!-- Node12 -->
<g id="node12" class="node">
<title>Node12</title>
<g id="a_node12"><a xlink:href="classsss_1_1api_1_1S3Api.html#a3b53152bf39143843a4033aa4a1b3fa0" target="_top" xlink:title=" ">
<polygon fill="none" stroke="black" points="192,-580.5 192,-599.5 342,-599.5 342,-580.5 192,-580.5"/>
<text text-anchor="middle" x="267" y="-587.5" font-family="Helvetica,sans-Serif" font-size="10.00">sss::api::S3Api::GetBucketAcl</text>
</a>
</g>
</g>
<!-- Node5&#45;&gt;Node12 -->
<g id="edge11" class="edge">
<title>Node5&#45;&gt;Node12</title>
<path fill="none" stroke="midnightblue" d="M391.47,-432.03C387.66,-434.27 384.12,-436.9 381,-440 338.14,-482.53 388.25,-528.87 345,-571 341.05,-574.84 336.46,-577.95 331.52,-580.45"/>
<polygon fill="midnightblue" stroke="midnightblue" points="393.31,-435.03 400.76,-427.5 390.24,-428.74 393.31,-435.03"/>
</g>
<!-- Node13 -->
<g id="node13" class="node">
<title>Node13</title>
<g id="a_node13"><a xlink:href="classsss_1_1api_1_1S3Api.html#afdb9997dfbd29512cbfe8da9f0028cf8" target="_top" xlink:title="Return bucket tags.">
<polygon fill="none" stroke="black" points="199,-531 199,-561 335,-561 335,-531 199,-531"/>
<text text-anchor="start" x="207" y="-549" font-family="Helvetica,sans-Serif" font-size="10.00">sss::api::S3Api::GetBucket</text>
<text text-anchor="middle" x="267" y="-538" font-family="Helvetica,sans-Serif" font-size="10.00">Tagging</text>
</a>
</g>
</g>
<!-- Node5&#45;&gt;Node13 -->
<g id="edge12" class="edge">
<title>Node5&#45;&gt;Node13</title>
<path fill="none" stroke="midnightblue" d="M391.58,-432.81C387.8,-434.86 384.23,-437.24 381,-440 351.04,-465.58 374.27,-494.63 345,-521 340.72,-524.86 335.83,-528.12 330.65,-530.88"/>
<polygon fill="midnightblue" stroke="midnightblue" points="393.1,-435.96 400.71,-428.58 390.16,-429.61 393.1,-435.96"/>
</g>
<!-- Node14 -->
<g id="node14" class="node">
<title>Node14</title>
<g id="a_node14"><a xlink:href="classsss_1_1api_1_1S3Api.html#af61465d92c0a94aa82ae863fc2a776a0" target="_top" xlink:title="Download object data.">
<polygon fill="none" stroke="black" points="200,-492.5 200,-511.5 334,-511.5 334,-492.5 200,-492.5"/>
<text text-anchor="middle" x="267" y="-499.5" font-family="Helvetica,sans-Serif" font-size="10.00">sss::api::S3Api::GetObject</text>
</a>
</g>
</g>
<!-- Node5&#45;&gt;Node14 -->
<g id="edge13" class="edge">
<title>Node5&#45;&gt;Node14</title>
<path fill="none" stroke="midnightblue" d="M393.95,-433.21C389.42,-435.17 385.05,-437.42 381,-440 359.98,-453.39 366.15,-469.81 345,-483 338.81,-486.86 331.88,-489.94 324.79,-492.39"/>
<polygon fill="midnightblue" stroke="midnightblue" points="395.34,-436.43 403.42,-429.58 392.83,-429.89 395.34,-436.43"/>
</g>
<!-- Node15 -->
<g id="node15" class="node">
<title>Node15</title>
<g id="a_node15"><a xlink:href="classsss_1_1api_1_1S3Api.html#ae548966dc38f328fc45ee1500f5caf5b" target="_top" xlink:title="Return bucket&#39;s Access Control List.">
<polygon fill="none" stroke="black" points="193,-454.5 193,-473.5 341,-473.5 341,-454.5 193,-454.5"/>
<text text-anchor="middle" x="267" y="-461.5" font-family="Helvetica,sans-Serif" font-size="10.00">sss::api::S3Api::GetObjectAcl</text>
</a>
</g>
</g>
<!-- Node5&#45;&gt;Node15 -->
<g id="edge14" class="edge">
<title>Node5&#45;&gt;Node15</title>
<path fill="none" stroke="midnightblue" d="M405.26,-431.88C374.97,-438.96 337.03,-447.84 308.71,-454.47"/>
<polygon fill="midnightblue" stroke="midnightblue" points="406.27,-435.23 415.21,-429.55 404.67,-428.42 406.27,-435.23"/>
</g>
<!-- Node16 -->
<g id="node16" class="node">
<title>Node16</title>
<g id="a_node16"><a xlink:href="classsss_1_1api_1_1S3Api.html#aceb12e50a72a7b9b3ca460c23671c586" target="_top" xlink:title="Return object tags.">
<polygon fill="none" stroke="black" points="200,-405 200,-435 334,-435 334,-405 200,-405"/>
<text text-anchor="start" x="208" y="-423" font-family="Helvetica,sans-Serif" font-size="10.00">sss::api::S3Api::GetObject</text>
<text text-anchor="middle" x="267" y="-412" font-family="Helvetica,sans-Serif" font-size="10.00">Tagging</text>
</a>
</g>
</g>
<!-- Node5&#45;&gt;Node16 -->
<g id="edge15" class="edge">
<title>Node5&#45;&gt;Node16</title>
<path fill="none" stroke="midnightblue" d="M390.85,-420C372.5,-420 352.52,-420 334.11,-420"/>
<polygon fill="midnightblue" stroke="midnightblue" points="390.86,-423.5 400.86,-420 390.86,-416.5 390.86,-423.5"/>
</g>
<!-- Node17 -->
<g id="node17" class="node">
<title>Node17</title>
<g id="a_node17"><a xlink:href="classsss_1_1api_1_1S3Api.html#aa4a2b1cc2c89a52d1aa89e571b785db2" target="_top" xlink:title=" ">
<polygon fill="none" stroke="black" points="195.5,-366.5 195.5,-385.5 338.5,-385.5 338.5,-366.5 195.5,-366.5"/>
<text text-anchor="middle" x="267" y="-373.5" font-family="Helvetica,sans-Serif" font-size="10.00">sss::api::S3Api::HeadBucket</text>
</a>
</g>
</g>
<!-- Node5&#45;&gt;Node17 -->
<g id="edge16" class="edge">
<title>Node5&#45;&gt;Node17</title>
<path fill="none" stroke="midnightblue" d="M405.26,-408.12C374.97,-401.04 337.03,-392.16 308.71,-385.53"/>
<polygon fill="midnightblue" stroke="midnightblue" points="404.67,-411.58 415.21,-410.45 406.27,-404.77 404.67,-411.58"/>
</g>
<!-- Node18 -->
<g id="node18" class="node">
<title>Node18</title>
<g id="a_node18"><a xlink:href="classsss_1_1api_1_1S3Api.html#abc84a71b9a88b81afaa353ad17a91d22" target="_top" xlink:title="Send HeadObject request.">
<polygon fill="none" stroke="black" points="196.5,-328.5 196.5,-347.5 337.5,-347.5 337.5,-328.5 196.5,-328.5"/>
<text text-anchor="middle" x="267" y="-335.5" font-family="Helvetica,sans-Serif" font-size="10.00">sss::api::S3Api::HeadObject</text>
</a>
</g>
</g>
<!-- Node5&#45;&gt;Node18 -->
<g id="edge17" class="edge">
<title>Node5&#45;&gt;Node18</title>
<path fill="none" stroke="midnightblue" d="M391.62,-406.7C387.92,-405.02 384.35,-403.13 381,-401 359.68,-387.44 366.36,-370.5 345,-357 338.83,-353.1 331.92,-350 324.83,-347.54"/>
<polygon fill="midnightblue" stroke="midnightblue" points="390.45,-410 401.03,-410.45 393.04,-403.5 390.45,-410"/>
</g>
<!-- Node21 -->
<g id="node21" class="node">
<title>Node21</title>
<g id="a_node21"><a xlink:href="classsss_1_1api_1_1S3Api.html#a81e30673c06b609a2ee6e6bfd9130ca6" target="_top" xlink:title="List buckets.">
<polygon fill="none" stroke="black" points="196.5,-290.5 196.5,-309.5 337.5,-309.5 337.5,-290.5 196.5,-290.5"/>
<text text-anchor="middle" x="267" y="-297.5" font-family="Helvetica,sans-Serif" font-size="10.00">sss::api::S3Api::ListBuckets</text>
</a>
</g>
</g>
<!-- Node5&#45;&gt;Node21 -->
<g id="edge20" class="edge">
<title>Node5&#45;&gt;Node21</title>
<path fill="none" stroke="midnightblue" d="M391.58,-408.1C387.8,-406.08 384.23,-403.73 381,-401 350.62,-375.28 375.45,-344.63 345,-319 340.47,-315.19 335.29,-312.12 329.8,-309.66"/>
<polygon fill="midnightblue" stroke="midnightblue" points="390.15,-411.3 400.71,-412.23 393.04,-404.92 390.15,-411.3"/>
</g>
<!-- Node22 -->
<g id="node22" class="node">
<title>Node22</title>
<g id="a_node22"><a xlink:href="classsss_1_1api_1_1S3Api.html#a3f00f611cd210a58ac6e8c0555984433" target="_top" xlink:title="List objects by sending a ListObjectsV2 request.">
<polygon fill="none" stroke="black" points="191.5,-252.5 191.5,-271.5 342.5,-271.5 342.5,-252.5 191.5,-252.5"/>
<text text-anchor="middle" x="267" y="-259.5" font-family="Helvetica,sans-Serif" font-size="10.00">sss::api::S3Api::ListObjectsV2</text>
</a>
</g>
</g>
<!-- Node5&#45;&gt;Node22 -->
<g id="edge21" class="edge">
<title>Node5&#45;&gt;Node22</title>
<path fill="none" stroke="midnightblue" d="M391.57,-408.77C387.74,-406.6 384.17,-404.03 381,-401 340.78,-362.49 385.34,-319.39 345,-281 341.01,-277.2 336.39,-274.13 331.43,-271.64"/>
<polygon fill="midnightblue" stroke="midnightblue" points="390.36,-412.07 400.9,-413.15 393.34,-405.73 390.36,-412.07"/>
</g>
<!-- Node23 -->
<g id="node23" class="node">
<title>Node23</title>
<g id="a_node23"><a xlink:href="classsss_1_1api_1_1S3Api.html#aa35e9b1cc7661cd9bb0d5f2de6cbbc7d" target="_top" xlink:title="Set Access Control Policy for bucket.">
<polygon fill="none" stroke="black" points="192.5,-214.5 192.5,-233.5 341.5,-233.5 341.5,-214.5 192.5,-214.5"/>
<text text-anchor="middle" x="267" y="-221.5" font-family="Helvetica,sans-Serif" font-size="10.00">sss::api::S3Api::PutBucketAcl</text>
</a>
</g>
</g>
<!-- Node5&#45;&gt;Node23 -->
<g id="edge22" class="edge">
<title>Node5&#45;&gt;Node23</title>
<path fill="none" stroke="midnightblue" d="M391.85,-409.31C387.88,-407.02 384.2,-404.28 381,-401 330.69,-349.46 395.47,-294.38 345,-243 341.24,-239.17 336.83,-236.06 332.07,-233.55"/>
<polygon fill="midnightblue" stroke="midnightblue" points="390.42,-412.5 400.95,-413.64 393.42,-406.18 390.42,-412.5"/>
</g>
<!-- Node24 -->
<g id="node24" class="node">
<title>Node24</title>
<g id="a_node24"><a xlink:href="classsss_1_1api_1_1S3Api.html#ae0b480d21933d41f7ca992ca5abe3091" target="_top" xlink:title=" ">
<polygon fill="none" stroke="black" points="199.5,-165 199.5,-195 334.5,-195 334.5,-165 199.5,-165"/>
<text text-anchor="start" x="207.5" y="-183" font-family="Helvetica,sans-Serif" font-size="10.00">sss::api::S3Api::PutBucket</text>
<text text-anchor="middle" x="267" y="-172" font-family="Helvetica,sans-Serif" font-size="10.00">Tagging</text>
</a>
</g>
</g>
<!-- Node5&#45;&gt;Node24 -->
<g id="edge23" class="edge">
<title>Node5&#45;&gt;Node24</title>
<path fill="none" stroke="midnightblue" d="M391.69,-409.46C387.76,-407.14 384.13,-404.35 381,-401 320.49,-336.33 403.35,-271.63 345,-205 341.67,-201.19 337.75,-197.96 333.47,-195.22"/>
<polygon fill="midnightblue" stroke="midnightblue" points="390.21,-412.63 400.73,-413.84 393.26,-406.33 390.21,-412.63"/>
</g>
<!-- Node25 -->
<g id="node25" class="node">
<title>Node25</title>
<g id="a_node25"><a xlink:href="classsss_1_1api_1_1S3Api.html#a2cc08fb777cfc4d24c40bea1cde967e7" target="_top" xlink:title="Set Access Control Policy.">
<polygon fill="none" stroke="black" points="193.5,-126.5 193.5,-145.5 340.5,-145.5 340.5,-126.5 193.5,-126.5"/>
<text text-anchor="middle" x="267" y="-133.5" font-family="Helvetica,sans-Serif" font-size="10.00">sss::api::S3Api::PutObjectAcl</text>
</a>
</g>
</g>
<!-- Node5&#45;&gt;Node25 -->
<g id="edge24" class="edge">
<title>Node5&#45;&gt;Node25</title>
<path fill="none" stroke="midnightblue" d="M391.76,-409.71C387.77,-407.33 384.12,-404.46 381,-401 306.98,-318.95 419.27,-236.82 345,-155 341.58,-151.23 337.53,-148.15 333.12,-145.64"/>
<polygon fill="midnightblue" stroke="midnightblue" points="390.4,-412.94 400.92,-414.17 393.46,-406.64 390.4,-412.94"/>
</g>
<!-- Node26 -->
<g id="node26" class="node">
<title>Node26</title>
<g id="a_node26"><a xlink:href="classsss_1_1api_1_1S3Api.html#ac098e2619080dde98a75b71af8f66eef" target="_top" xlink:title="Set object tags.">
<polygon fill="none" stroke="black" points="200.5,-77 200.5,-107 333.5,-107 333.5,-77 200.5,-77"/>
<text text-anchor="start" x="208.5" y="-95" font-family="Helvetica,sans-Serif" font-size="10.00">sss::api::S3Api::PutObject</text>
<text text-anchor="middle" x="267" y="-84" font-family="Helvetica,sans-Serif" font-size="10.00">Tagging</text>
</a>
</g>
</g>
<!-- Node5&#45;&gt;Node26 -->
<g id="edge25" class="edge">
<title>Node5&#45;&gt;Node26</title>
<path fill="none" stroke="midnightblue" d="M391.68,-409.78C387.72,-407.38 384.09,-404.49 381,-401 296.69,-305.71 426.13,-215.01 345,-117 341.77,-113.1 337.93,-109.81 333.71,-107.02"/>
<polygon fill="midnightblue" stroke="midnightblue" points="390.3,-413 400.82,-414.26 393.38,-406.71 390.3,-413"/>
</g>
<!-- Node27 -->
<g id="node27" class="node">
<title>Node27</title>
<g id="a_node27"><a xlink:href="classsss_1_1api_1_1S3Api.html#a0473917e4d25a4a6fca40d097e4299d6" target="_top" xlink:title=" ">
<polygon fill="none" stroke="black" points="211,-38.5 211,-57.5 323,-57.5 323,-38.5 211,-38.5"/>
<text text-anchor="middle" x="267" y="-45.5" font-family="Helvetica,sans-Serif" font-size="10.00">sss::api::S3Api::Send</text>
</a>
</g>
</g>
<!-- Node5&#45;&gt;Node27 -->
<g id="edge26" class="edge">
<title>Node5&#45;&gt;Node27</title>
<path fill="none" stroke="midnightblue" d="M391.61,-409.84C387.66,-407.43 384.05,-404.52 381,-401 283.11,-288.26 443.24,-179.43 345,-67 339.2,-60.36 331.49,-55.86 323.18,-52.83"/>
<polygon fill="midnightblue" stroke="midnightblue" points="390.2,-413.05 400.72,-414.34 393.31,-406.78 390.2,-413.05"/>
</g>
<!-- Node28 -->
<g id="node28" class="node">
<title>Node28</title>
<g id="a_node28"><a xlink:href="classsss_1_1api_1_1S3Api.html#a23223ee1fb701c55af2d942dbf261ae2" target="_top" xlink:title="Check if bucket exist.">
<polygon fill="none" stroke="black" points="197.5,-0.5 197.5,-19.5 336.5,-19.5 336.5,-0.5 197.5,-0.5"/>
<text text-anchor="middle" x="267" y="-7.5" font-family="Helvetica,sans-Serif" font-size="10.00">sss::api::S3Api::TestBucket</text>
</a>
</g>
</g>
<!-- Node5&#45;&gt;Node28 -->
<g id="edge27" class="edge">
<title>Node5&#45;&gt;Node28</title>
<path fill="none" stroke="midnightblue" d="M391.56,-409.88C387.63,-407.46 384.04,-404.53 381,-401 326.89,-337.99 399.3,-91.84 345,-29 341.76,-25.25 337.91,-22.18 333.68,-19.67"/>
<polygon fill="midnightblue" stroke="midnightblue" points="390.15,-413.08 400.66,-414.39 393.26,-406.81 390.15,-413.08"/>
</g>
<!-- Node19 -->
<g id="node19" class="node">
<title>Node19</title>
<g id="a_node19"><a xlink:href="classsss_1_1api_1_1S3Api.html#a872e80e356e8c404a9b0739d95a0af41" target="_top" xlink:title="Return object size.">
<polygon fill="none" stroke="black" points="0,-347.5 0,-366.5 153,-366.5 153,-347.5 0,-347.5"/>
<text text-anchor="middle" x="76.5" y="-354.5" font-family="Helvetica,sans-Serif" font-size="10.00">sss::api::S3Api::GetObjectSize</text>
</a>
</g>
</g>
<!-- Node18&#45;&gt;Node19 -->
<g id="edge18" class="edge">
<title>Node18&#45;&gt;Node19</title>
<path fill="none" stroke="midnightblue" d="M186.35,-346.03C175.37,-347.14 164.11,-348.27 153.2,-349.37"/>
<polygon fill="midnightblue" stroke="midnightblue" points="186.75,-349.51 196.35,-345.02 186.04,-342.54 186.75,-349.51"/>
</g>
<!-- Node20 -->
<g id="node20" class="node">
<title>Node20</title>
<g id="a_node20"><a xlink:href="classsss_1_1api_1_1S3Api.html#aa3f7a3001bdad58c7b0c04cbd0dc3236" target="_top" xlink:title="Check if key exists.">
<polygon fill="none" stroke="black" points="8,-309.5 8,-328.5 145,-328.5 145,-309.5 8,-309.5"/>
<text text-anchor="middle" x="76.5" y="-316.5" font-family="Helvetica,sans-Serif" font-size="10.00">sss::api::S3Api::TestObject</text>
</a>
</g>
</g>
<!-- Node18&#45;&gt;Node20 -->
<g id="edge19" class="edge">
<title>Node18&#45;&gt;Node20</title>
<path fill="none" stroke="midnightblue" d="M186.07,-329.94C172.5,-328.58 158.52,-327.17 145.3,-325.83"/>
<polygon fill="midnightblue" stroke="midnightblue" points="186.04,-333.46 196.35,-330.98 186.75,-326.49 186.04,-333.46"/>
</g>
<!-- Node29&#45;&gt;Node5 -->
<g id="edge29" class="edge">
<title>Node29&#45;&gt;Node5</title>
<path fill="none" stroke="midnightblue" d="M558.92,-420C543.49,-420 527.64,-420 513.21,-420"/>
<polygon fill="midnightblue" stroke="midnightblue" points="558.97,-423.5 568.97,-420 558.97,-416.5 558.97,-423.5"/>
</g>
<!-- Node30 -->
<g id="node30" class="node">
<title>Node30</title>
<g id="a_node30"><a xlink:href="classsss_1_1WebClient.html#ab5af9d8e7c424e49fab04f0d9d59b489" target="_top" xlink:title="Upload file starting from offset using unbuffered memory mapping of file.">
<polygon fill="none" stroke="black" points="381,-372.5 381,-391.5 533,-391.5 533,-372.5 381,-372.5"/>
<text text-anchor="middle" x="457" y="-379.5" font-family="Helvetica,sans-Serif" font-size="10.00">sss::WebClient::UploadFileMM</text>
</a>
</g>
</g>
<!-- Node29&#45;&gt;Node30 -->
<g id="edge30" class="edge">
<title>Node29&#45;&gt;Node30</title>
<path fill="none" stroke="midnightblue" d="M559.06,-403.28C539.95,-399.25 520.18,-395.09 503.26,-391.53"/>
<polygon fill="midnightblue" stroke="midnightblue" points="558.47,-406.73 568.97,-405.36 559.91,-399.88 558.47,-406.73"/>
</g>
</g>
</svg>
