<?xml version="1.0" encoding="UTF-8" standalone="no"?>
<!DOCTYPE svg PUBLIC "-//W3C//DTD SVG 1.1//EN"
 "http://www.w3.org/Graphics/SVG/1.1/DTD/svg11.dtd">
<!-- Generated by graphviz version 2.43.0 (0)
 -->
<!-- Title: sss::api::S3Api::PutBucketAcl Pages: 1 -->
<!--zoomable 534 -->
<svg id="main" version="1.1" xmlns="http://www.w3.org/2000/svg" xmlns:xlink="http://www.w3.org/1999/xlink" xml:space="preserve" onload="init(evt)">
<style type="text/css"><![CDATA[
.edge:hover path { stroke: red; }
.edge:hover polygon { stroke: red; fill: red; }
]]></style>
<script type="text/javascript"><![CDATA[
var edges = document.getElementsByTagName('g');
if (edges && edges.length) {
  for (var i=0;i<edges.length;i++) {
    if (edges[i].id.substr(0,4)=='edge') {
      edges[i].setAttribute('class','edge');
    }
  }
}
]]></script>
        <defs>
                <circle id="rim" cx="0" cy="0" r="7"/>
                <circle id="rim2" cx="0" cy="0" r="3.5"/>
                <g id="zoomPlus">
                        <use xlink:href="#rim" fill="#404040">
                                <set attributeName="fill" to="#808080" begin="zoomplus.mouseover" end="zoomplus.mouseout"/>
                        </use>
                        <path d="M-4,0h8M0,-4v8" fill="none" stroke="white" stroke-width="1.5" pointer-events="none"/>
                </g>
                <g id="zoomMin">
                        <use xlink:href="#rim" fill="#404040">
                                <set attributeName="fill" to="#808080" begin="zoomminus.mouseover" end="zoomminus.mouseout"/>
                        </use>
                        <path d="M-4,0h8" fill="none" stroke="white" stroke-width="1.5" pointer-events="none"/>
                </g>
                <g id="dirArrow">
                        <path fill="none" stroke="white" stroke-width="1.5" d="M0,-3.0v7 M-2.5,-0.5L0,-3.0L2.5,-0.5"/>
                </g>
               <g id="resetDef">
                       <use xlink:href="#rim2" fill="#404040">
                               <set attributeName="fill" to="#808080" begin="reset.mouseover" end="reset.mouseout"/>
                       </use>
               </g>
        </defs>

<script type="text/javascript">
var viewWidth = 1150;
var viewHeight = 534;
var sectionId = 'dynsection-24';
</script>
<script xlink:href="svgpan.js"/>
<svg id="graph" class="graph">
<g id="viewport">
<title>sss::api::S3Api::PutBucketAcl</title>
<!-- Node1 -->
<g id="node1" class="node">
<title>Node1</title>
<g id="a_node1"><a xlink:title="Set Access Control Policy for bucket.">
<polygon fill="#bfbfbf" stroke="black" points="0,-228.5 0,-247.5 149,-247.5 149,-228.5 0,-228.5"/>
<text text-anchor="middle" x="74.5" y="-235.5" font-family="Helvetica,sans-Serif" font-size="10.00">sss::api::S3Api::PutBucketAcl</text>
</a>
</g>
</g>
<!-- Node2 -->
<g id="node2" class="node">
<title>Node2</title>
<g id="a_node2"><a xlink:href="classsss_1_1WebClient.html#ac9e82fc4b56b142d91f9b104f5266f91" target="_top" xlink:title="Get response body as text.">
<polygon fill="none" stroke="black" points="185,-386.5 185,-405.5 343,-405.5 343,-386.5 185,-386.5"/>
<text text-anchor="middle" x="264" y="-393.5" font-family="Helvetica,sans-Serif" font-size="10.00">sss::WebClient::GetContentText</text>
</a>
</g>
</g>
<!-- Node1&#45;&gt;Node2 -->
<g id="edge1" class="edge">
<title>Node1&#45;&gt;Node2</title>
<path fill="none" stroke="midnightblue" d="M86.95,-247.65C118.14,-273.93 204.9,-347.04 243.75,-379.78"/>
<polygon fill="midnightblue" stroke="midnightblue" points="241.8,-382.71 251.7,-386.48 246.31,-377.36 241.8,-382.71"/>
</g>
<!-- Node4 -->
<g id="node4" class="node">
<title>Node4</title>
<g id="a_node4"><a xlink:href="classsss_1_1api_1_1S3Api.html#a02b4f0c95255f151beb72f0a6bdf5889" target="_top" xlink:title="Send request.">
<polygon fill="none" stroke="black" points="208,-209.5 208,-228.5 320,-228.5 320,-209.5 208,-209.5"/>
<text text-anchor="middle" x="264" y="-216.5" font-family="Helvetica,sans-Serif" font-size="10.00">sss::api::S3Api::Send</text>
</a>
</g>
</g>
<!-- Node1&#45;&gt;Node4 -->
<g id="edge3" class="edge">
<title>Node1&#45;&gt;Node4</title>
<path fill="none" stroke="midnightblue" d="M149.07,-230.55C165.14,-228.92 182.05,-227.2 197.77,-225.61"/>
<polygon fill="midnightblue" stroke="midnightblue" points="198.31,-229.07 207.91,-224.58 197.61,-222.11 198.31,-229.07"/>
</g>
<!-- Node3 -->
<g id="node3" class="node">
<title>Node3</title>
<g id="a_node3"><a xlink:href="classsss_1_1WebClient.html#a77a4e0190a4f207b969cb63b6ba38ccc" target="_top" xlink:title=" ">
<polygon fill="none" stroke="black" points="379,-506.5 379,-525.5 551,-525.5 551,-506.5 379,-506.5"/>
<text text-anchor="middle" x="465" y="-513.5" font-family="Helvetica,sans-Serif" font-size="10.00">sss::WebClient::GetResponseBody</text>
</a>
</g>
</g>
<!-- Node2&#45;&gt;Node3 -->
<g id="edge2" class="edge">
<title>Node2&#45;&gt;Node3</title>
<path fill="none" stroke="midnightblue" d="M272.72,-405.54C289.68,-425.79 332.38,-473.17 379,-497 383.59,-499.35 388.47,-501.41 393.48,-503.21"/>
<polygon fill="midnightblue" stroke="midnightblue" points="392.64,-506.62 403.23,-506.39 394.8,-499.96 392.64,-506.62"/>
</g>
<!-- Node5 -->
<g id="node5" class="node">
<title>Node5</title>
<g id="a_node5"><a xlink:href="classsss_1_1api_1_1S3Api.html#a840772746fbb0a79c161037da7b24a31" target="_top" xlink:title="Configure instance.">
<polygon fill="none" stroke="black" points="406,-209.5 406,-228.5 524,-228.5 524,-209.5 406,-209.5"/>
<text text-anchor="middle" x="465" y="-216.5" font-family="Helvetica,sans-Serif" font-size="10.00">sss::api::S3Api::Config</text>
</a>
</g>
</g>
<!-- Node4&#45;&gt;Node5 -->
<g id="edge4" class="edge">
<title>Node4&#45;&gt;Node5</title>
<path fill="none" stroke="midnightblue" d="M320.17,-219C343.62,-219 371.21,-219 395.91,-219"/>
<polygon fill="midnightblue" stroke="midnightblue" points="395.94,-222.5 405.94,-219 395.94,-215.5 395.94,-222.5"/>
</g>
<!-- Node14 -->
<g id="node14" class="node">
<title>Node14</title>
<g id="a_node14"><a xlink:href="classsss_1_1WebClient.html#a51ce0ecf6487b6a43072643fe4f4cb4e" target="_top" xlink:title=" ">
<polygon fill="none" stroke="black" points="780.5,-380.5 780.5,-399.5 926.5,-399.5 926.5,-380.5 780.5,-380.5"/>
<text text-anchor="middle" x="853.5" y="-387.5" font-family="Helvetica,sans-Serif" font-size="10.00">sss::WebClient::SetPostData</text>
</a>
</g>
</g>
<!-- Node4&#45;&gt;Node14 -->
<g id="edge25" class="edge">
<title>Node4&#45;&gt;Node14</title>
<path fill="none" stroke="midnightblue" d="M275.95,-228.53C314.87,-261.69 451.43,-371.99 587,-409 663.01,-429.75 755.55,-414.43 808.88,-401.88"/>
<polygon fill="midnightblue" stroke="midnightblue" points="809.8,-405.26 818.69,-399.5 808.15,-398.46 809.8,-405.26"/>
</g>
<!-- Node21 -->
<g id="node21" class="node">
<title>Node21</title>
<g id="a_node21"><a xlink:href="group__Internal.html#ga2b8b08c2a4994a87377d83ccfa9a6a53" target="_top" xlink:title=" ">
<polygon fill="none" stroke="black" points="416,-32.5 416,-51.5 514,-51.5 514,-32.5 416,-32.5"/>
<text text-anchor="middle" x="465" y="-39.5" font-family="Helvetica,sans-Serif" font-size="10.00">sss::ParseParams</text>
</a>
</g>
</g>
<!-- Node4&#45;&gt;Node21 -->
<g id="edge23" class="edge">
<title>Node4&#45;&gt;Node21</title>
<path fill="none" stroke="midnightblue" d="M269.35,-209.39C282.08,-182.39 321.97,-105.25 379,-66 387.15,-60.39 396.58,-56.09 406.15,-52.78"/>
<polygon fill="midnightblue" stroke="midnightblue" points="407.2,-56.12 415.7,-49.8 405.12,-49.44 407.2,-56.12"/>
</g>
<!-- Node22 -->
<g id="node22" class="node">
<title>Node22</title>
<g id="a_node22"><a xlink:href="classsss_1_1WebClient.html#aa1d7484f0e09242ce53b24f9648ce50e" target="_top" xlink:title=" ">
<polygon fill="none" stroke="black" points="602.5,-0.5 602.5,-19.5 714.5,-19.5 714.5,-0.5 602.5,-0.5"/>
<text text-anchor="middle" x="658.5" y="-7.5" font-family="Helvetica,sans-Serif" font-size="10.00">sss::WebClient::Send</text>
</a>
</g>
</g>
<!-- Node4&#45;&gt;Node22 -->
<g id="edge24" class="edge">
<title>Node4&#45;&gt;Node22</title>
<path fill="none" stroke="midnightblue" d="M271.1,-209.39C286.29,-186.34 328.21,-127.69 379,-99 447.16,-60.49 481.27,-96.6 551,-61 570.07,-51.27 568.16,-39.17 587,-29 591.24,-26.71 595.77,-24.68 600.42,-22.89"/>
<polygon fill="midnightblue" stroke="midnightblue" points="601.77,-26.13 610.06,-19.53 599.47,-19.52 601.77,-26.13"/>
</g>
<!-- Node23 -->
<g id="node23" class="node">
<title>Node23</title>
<g id="a_node23"><a xlink:href="classsss_1_1WebClient.html#a7dfd984b33a29686fb0355b65b620e99" target="_top" xlink:title=" ">
<polygon fill="none" stroke="black" points="387.5,-457 387.5,-487 542.5,-487 542.5,-457 387.5,-457"/>
<text text-anchor="start" x="395.5" y="-475" font-family="Helvetica,sans-Serif" font-size="10.00">sss::WebClient::SetUrlEncoded</text>
<text text-anchor="middle" x="465" y="-464" font-family="Helvetica,sans-Serif" font-size="10.00">PostData</text>
</a>
</g>
</g>
<!-- Node4&#45;&gt;Node23 -->
<g id="edge26" class="edge">
<title>Node4&#45;&gt;Node23</title>
<path fill="none" stroke="midnightblue" d="M269.74,-228.76C290.14,-270.73 369.88,-434.02 379,-442 383.45,-445.89 388.44,-449.29 393.71,-452.26"/>
<polygon fill="midnightblue" stroke="midnightblue" points="392.3,-455.47 402.81,-456.85 395.46,-449.22 392.3,-455.47"/>
</g>
<!-- Node25 -->
<g id="node25" class="node">
<title>Node25</title>
<g id="a_node25"><a xlink:href="classsss_1_1WebClient.html#ae7b1f77bd4ae44585f2d49ea493bdcc5" target="_top" xlink:title="Upload data from memory buffer.">
<polygon fill="none" stroke="black" points="394.5,-109 394.5,-139 535.5,-139 535.5,-109 394.5,-109"/>
<text text-anchor="start" x="402.5" y="-127" font-family="Helvetica,sans-Serif" font-size="10.00">sss::WebClient::UploadData</text>
<text text-anchor="middle" x="465" y="-116" font-family="Helvetica,sans-Serif" font-size="10.00">FromBuffer</text>
</a>
</g>
</g>
<!-- Node4&#45;&gt;Node25 -->
<g id="edge28" class="edge">
<title>Node4&#45;&gt;Node25</title>
<path fill="none" stroke="midnightblue" d="M285.18,-209.37C317.42,-193.98 381.2,-163.53 423.22,-143.47"/>
<polygon fill="midnightblue" stroke="midnightblue" points="424.85,-146.57 432.36,-139.1 421.83,-140.25 424.85,-146.57"/>
</g>
<!-- Node6 -->
<g id="node6" class="node">
<title>Node6</title>
<g id="a_node6"><a xlink:href="classsss_1_1api_1_1S3Api.html#a1a4e05ac14390c7f42feef2c26e22031" target="_top" xlink:title=" ">
<polygon fill="none" stroke="black" points="597.5,-304.5 597.5,-323.5 719.5,-323.5 719.5,-304.5 597.5,-304.5"/>
<text text-anchor="middle" x="658.5" y="-311.5" font-family="Helvetica,sans-Serif" font-size="10.00">sss::api::S3Api::Access</text>
</a>
</g>
</g>
<!-- Node5&#45;&gt;Node6 -->
<g id="edge5" class="edge">
<title>Node5&#45;&gt;Node6</title>
<path fill="none" stroke="midnightblue" d="M480.02,-228.5C502.06,-243.14 546.47,-271.44 587,-290 595.99,-294.11 605.89,-297.91 615.37,-301.21"/>
<polygon fill="midnightblue" stroke="midnightblue" points="614.44,-304.59 625.03,-304.47 616.67,-297.96 614.44,-304.59"/>
</g>
<!-- Node7 -->
<g id="node7" class="node">
<title>Node7</title>
<g id="a_node7"><a xlink:href="classsss_1_1api_1_1S3Api.html#a3718745d3b940462ae9f3b78f773b3a6" target="_top" xlink:title="Clear data and reset read and write functions.">
<polygon fill="none" stroke="black" points="602,-228.5 602,-247.5 715,-247.5 715,-228.5 602,-228.5"/>
<text text-anchor="middle" x="658.5" y="-235.5" font-family="Helvetica,sans-Serif" font-size="10.00">sss::api::S3Api::Clear</text>
</a>
</g>
</g>
<!-- Node5&#45;&gt;Node7 -->
<g id="edge6" class="edge">
<title>Node5&#45;&gt;Node7</title>
<path fill="none" stroke="midnightblue" d="M524.24,-224.78C545.52,-226.89 569.73,-229.29 591.63,-231.46"/>
<polygon fill="midnightblue" stroke="midnightblue" points="591.54,-234.97 601.84,-232.48 592.23,-228.01 591.54,-234.97"/>
</g>
<!-- Node12 -->
<g id="node12" class="node">
<title>Node12</title>
<g id="a_node12"><a xlink:href="classsss_1_1WebClient.html#a75890c14fbe4a4bbac61718a4f3c064d" target="_top" xlink:title=" ">
<polygon fill="none" stroke="black" points="783,-285.5 783,-304.5 924,-304.5 924,-285.5 783,-285.5"/>
<text text-anchor="middle" x="853.5" y="-292.5" font-family="Helvetica,sans-Serif" font-size="10.00">sss::WebClient::SetHeaders</text>
</a>
</g>
</g>
<!-- Node5&#45;&gt;Node12 -->
<g id="edge18" class="edge">
<title>Node5&#45;&gt;Node12</title>
<path fill="none" stroke="midnightblue" d="M492.1,-228.55C516.38,-237.11 553.72,-249.44 587,-257 648.75,-271.02 719.81,-280.87 772.87,-287.02"/>
<polygon fill="midnightblue" stroke="midnightblue" points="772.57,-290.51 782.9,-288.16 773.36,-283.55 772.57,-290.51"/>
</g>
<!-- Node13 -->
<g id="node13" class="node">
<title>Node13</title>
<g id="a_node13"><a xlink:href="classsss_1_1WebClient.html#a12b5db6b8c667024557ab58059d39994" target="_top" xlink:title=" ">
<polygon fill="none" stroke="black" points="791,-171.5 791,-190.5 916,-190.5 916,-171.5 791,-171.5"/>
<text text-anchor="middle" x="853.5" y="-178.5" font-family="Helvetica,sans-Serif" font-size="10.00">sss::WebClient::SetPath</text>
</a>
</g>
</g>
<!-- Node5&#45;&gt;Node13 -->
<g id="edge20" class="edge">
<title>Node5&#45;&gt;Node13</title>
<path fill="none" stroke="midnightblue" d="M524.28,-213.27C592.86,-206.53 706.74,-195.33 780.7,-188.06"/>
<polygon fill="midnightblue" stroke="midnightblue" points="781.25,-191.52 790.86,-187.06 780.57,-184.56 781.25,-191.52"/>
</g>
<!-- Node15 -->
<g id="node15" class="node">
<title>Node15</title>
<g id="a_node15"><a xlink:href="classsss_1_1WebClient.html#a9bf978d95b79728f6d60fc2bdb4fe546" target="_top" xlink:title=" ">
<polygon fill="none" stroke="black" points="767,-133.5 767,-152.5 940,-152.5 940,-133.5 767,-133.5"/>
<text text-anchor="middle" x="853.5" y="-140.5" font-family="Helvetica,sans-Serif" font-size="10.00">sss::WebClient::SetReqParameters</text>
</a>
</g>
</g>
<!-- Node5&#45;&gt;Node15 -->
<g id="edge21" class="edge">
<title>Node5&#45;&gt;Node15</title>
<path fill="none" stroke="midnightblue" d="M476.63,-209.33C496.52,-191.96 541.47,-156.11 587,-143 650.56,-124.69 726.29,-126.91 780.57,-132.39"/>
<polygon fill="midnightblue" stroke="midnightblue" points="780.47,-135.9 790.79,-133.49 781.22,-128.94 780.47,-135.9"/>
</g>
<!-- Node16 -->
<g id="node16" class="node">
<title>Node16</title>
<g id="a_node16"><a xlink:href="classsss_1_1api_1_1S3Api.html#a70f1068d07e1d4c1be164e0cb9328cc0" target="_top" xlink:title=" ">
<polygon fill="none" stroke="black" points="594.5,-76.5 594.5,-95.5 722.5,-95.5 722.5,-76.5 594.5,-76.5"/>
<text text-anchor="middle" x="658.5" y="-83.5" font-family="Helvetica,sans-Serif" font-size="10.00">sss::api::S3Api::Endpoint</text>
</a>
</g>
</g>
<!-- Node5&#45;&gt;Node16 -->
<g id="edge15" class="edge">
<title>Node5&#45;&gt;Node16</title>
<path fill="none" stroke="midnightblue" d="M478.49,-209.32C495.41,-196.04 526.34,-171.17 551,-148 567.96,-132.07 567.42,-122.56 587,-110 593.81,-105.63 601.5,-101.97 609.24,-98.92"/>
<polygon fill="midnightblue" stroke="midnightblue" points="610.43,-102.21 618.64,-95.51 608.04,-95.63 610.43,-102.21"/>
</g>
<!-- Node17 -->
<g id="node17" class="node">
<title>Node17</title>
<g id="a_node17"><a xlink:href="classsss_1_1api_1_1S3Api.html#acfffe29254323fb41231787a0afb7edc" target="_top" xlink:title=" ">
<polygon fill="none" stroke="black" points="599.5,-380.5 599.5,-399.5 717.5,-399.5 717.5,-380.5 599.5,-380.5"/>
<text text-anchor="middle" x="658.5" y="-387.5" font-family="Helvetica,sans-Serif" font-size="10.00">sss::api::S3Api::Secret</text>
</a>
</g>
</g>
<!-- Node5&#45;&gt;Node17 -->
<g id="edge16" class="edge">
<title>Node5&#45;&gt;Node17</title>
<path fill="none" stroke="midnightblue" d="M470.78,-228.58C484.71,-255.49 528.07,-332.32 587,-371 590.15,-373.07 593.52,-374.91 597.02,-376.56"/>
<polygon fill="midnightblue" stroke="midnightblue" points="595.93,-379.89 606.51,-380.46 598.59,-373.42 595.93,-379.89"/>
</g>
<!-- Node18 -->
<g id="node18" class="node">
<title>Node18</title>
<g id="a_node18"><a xlink:href="classsss_1_1WebClient.html#afc3b7a92568fbb1ea447918920ca266e" target="_top" xlink:title="Set endpoint: &lt;proto&gt;://&lt;server&gt;:&lt;port&gt;">
<polygon fill="none" stroke="black" points="587,-342.5 587,-361.5 730,-361.5 730,-342.5 587,-342.5"/>
<text text-anchor="middle" x="658.5" y="-349.5" font-family="Helvetica,sans-Serif" font-size="10.00">sss::WebClient::SetEndpoint</text>
</a>
</g>
</g>
<!-- Node5&#45;&gt;Node18 -->
<g id="edge17" class="edge">
<title>Node5&#45;&gt;Node18</title>
<path fill="none" stroke="midnightblue" d="M473.34,-228.61C490.65,-250.57 536.35,-304.71 587,-333 590.97,-335.22 595.2,-337.18 599.56,-338.93"/>
<polygon fill="midnightblue" stroke="midnightblue" points="598.63,-342.31 609.22,-342.41 601,-335.73 598.63,-342.31"/>
</g>
<!-- Node19 -->
<g id="node19" class="node">
<title>Node19</title>
<g id="a_node19"><a xlink:href="classsss_1_1WebClient.html#af6233ffd7b294e1e7e606e838dd44e9e" target="_top" xlink:title=" ">
<polygon fill="none" stroke="black" points="590,-38.5 590,-57.5 727,-57.5 727,-38.5 590,-38.5"/>
<text text-anchor="middle" x="658.5" y="-45.5" font-family="Helvetica,sans-Serif" font-size="10.00">sss::WebClient::SetMethod</text>
</a>
</g>
</g>
<!-- Node5&#45;&gt;Node19 -->
<g id="edge19" class="edge">
<title>Node5&#45;&gt;Node19</title>
<path fill="none" stroke="midnightblue" d="M481.34,-209.4C499.92,-197.11 531.19,-174.24 551,-148 574.73,-116.56 557.07,-92.62 587,-67 588.98,-65.31 591.1,-63.76 593.32,-62.35"/>
<polygon fill="midnightblue" stroke="midnightblue" points="595.12,-65.35 602.31,-57.57 591.83,-59.17 595.12,-65.35"/>
</g>
<!-- Node20 -->
<g id="node20" class="node">
<title>Node20</title>
<g id="a_node20"><a xlink:href="group__Sign.html#ga3ae8e18ef70752b7369fca66c40c526b" target="_top" xlink:title="Sign headers.">
<polygon fill="none" stroke="black" points="611,-152.5 611,-171.5 706,-171.5 706,-152.5 611,-152.5"/>
<text text-anchor="middle" x="658.5" y="-159.5" font-family="Helvetica,sans-Serif" font-size="10.00">sss::SignHeaders</text>
</a>
</g>
</g>
<!-- Node5&#45;&gt;Node20 -->
<g id="edge22" class="edge">
<title>Node5&#45;&gt;Node20</title>
<path fill="none" stroke="midnightblue" d="M498.05,-209.46C530.23,-199.88 579.96,-185.08 615.32,-174.55"/>
<polygon fill="midnightblue" stroke="midnightblue" points="616.76,-177.78 625.34,-171.57 614.76,-171.07 616.76,-177.78"/>
</g>
<!-- Node8 -->
<g id="node8" class="node">
<title>Node8</title>
<g id="a_node8"><a xlink:href="classsss_1_1WebClient.html#a381f5715b7a2f19a0d4414d278874bae" target="_top" xlink:title="Clear internal buffers.">
<polygon fill="none" stroke="black" points="781.5,-209.5 781.5,-228.5 925.5,-228.5 925.5,-209.5 781.5,-209.5"/>
<text text-anchor="middle" x="853.5" y="-216.5" font-family="Helvetica,sans-Serif" font-size="10.00">sss::WebClient::ClearBuffers</text>
</a>
</g>
</g>
<!-- Node7&#45;&gt;Node8 -->
<g id="edge7" class="edge">
<title>Node7&#45;&gt;Node8</title>
<path fill="none" stroke="midnightblue" d="M715.06,-232.53C732.62,-230.8 752.4,-228.85 771.36,-226.99"/>
<polygon fill="midnightblue" stroke="midnightblue" points="771.88,-230.45 781.49,-225.99 771.2,-223.49 771.88,-230.45"/>
</g>
<!-- Node9 -->
<g id="node9" class="node">
<title>Node9</title>
<g id="a_node9"><a xlink:href="classsss_1_1WebClient.html#a96837f149bb473853a6523d096a25c56" target="_top" xlink:title="Reset read/write functions to default.">
<polygon fill="none" stroke="black" points="766,-247.5 766,-266.5 941,-266.5 941,-247.5 766,-247.5"/>
<text text-anchor="middle" x="853.5" y="-254.5" font-family="Helvetica,sans-Serif" font-size="10.00">sss::WebClient::ResetRWFunctions</text>
</a>
</g>
</g>
<!-- Node7&#45;&gt;Node9 -->
<g id="edge8" class="edge">
<title>Node7&#45;&gt;Node9</title>
<path fill="none" stroke="midnightblue" d="M715.06,-243.47C727.79,-244.72 741.68,-246.09 755.58,-247.46"/>
<polygon fill="midnightblue" stroke="midnightblue" points="755.39,-250.96 765.69,-248.45 756.08,-243.99 755.39,-250.96"/>
</g>
<!-- Node7&#45;&gt;Node12 -->
<g id="edge11" class="edge">
<title>Node7&#45;&gt;Node12</title>
<path fill="none" stroke="midnightblue" d="M688.41,-247.53C701.2,-251.83 716.39,-257.04 730,-262 746.13,-267.88 749.57,-271.03 766,-276 774.65,-278.61 783.88,-281.03 792.98,-283.2"/>
<polygon fill="midnightblue" stroke="midnightblue" points="792.23,-286.62 802.76,-285.45 793.8,-279.8 792.23,-286.62"/>
</g>
<!-- Node7&#45;&gt;Node13 -->
<g id="edge12" class="edge">
<title>Node7&#45;&gt;Node13</title>
<path fill="none" stroke="midnightblue" d="M688.41,-228.47C701.2,-224.17 716.39,-218.96 730,-214 746.13,-208.12 749.57,-204.97 766,-200 774.65,-197.39 783.88,-194.97 792.98,-192.8"/>
<polygon fill="midnightblue" stroke="midnightblue" points="793.8,-196.2 802.76,-190.55 792.23,-189.38 793.8,-196.2"/>
</g>
<!-- Node7&#45;&gt;Node14 -->
<g id="edge13" class="edge">
<title>Node7&#45;&gt;Node14</title>
<path fill="none" stroke="midnightblue" d="M671.57,-247.51C703.86,-272.94 792.47,-342.72 832.46,-374.21"/>
<polygon fill="midnightblue" stroke="midnightblue" points="830.41,-377.06 840.43,-380.5 834.74,-371.56 830.41,-377.06"/>
</g>
<!-- Node7&#45;&gt;Node15 -->
<g id="edge14" class="edge">
<title>Node7&#45;&gt;Node15</title>
<path fill="none" stroke="midnightblue" d="M669.79,-228.43C687.83,-212.2 726.97,-179.34 766,-162 771.72,-159.46 777.8,-157.25 783.99,-155.32"/>
<polygon fill="midnightblue" stroke="midnightblue" points="785.12,-158.64 793.77,-152.53 783.2,-151.91 785.12,-158.64"/>
</g>
<!-- Node10 -->
<g id="node10" class="node">
<title>Node10</title>
<g id="a_node10"><a xlink:href="classsss_1_1WebClient.html#a88dbcc61562e84aa9ebf1eabf887ac28" target="_top" xlink:title=" ">
<polygon fill="none" stroke="black" points="977,-269.5 977,-288.5 1142,-288.5 1142,-269.5 977,-269.5"/>
<text text-anchor="middle" x="1059.5" y="-276.5" font-family="Helvetica,sans-Serif" font-size="10.00">sss::WebClient::SetReadFunction</text>
</a>
</g>
</g>
<!-- Node9&#45;&gt;Node10 -->
<g id="edge9" class="edge">
<title>Node9&#45;&gt;Node10</title>
<path fill="none" stroke="midnightblue" d="M941.01,-266.33C949.52,-267.25 958.18,-268.18 966.73,-269.1"/>
<polygon fill="midnightblue" stroke="midnightblue" points="966.4,-272.59 976.72,-270.18 967.15,-265.63 966.4,-272.59"/>
</g>
<!-- Node11 -->
<g id="node11" class="node">
<title>Node11</title>
<g id="a_node11"><a xlink:href="classsss_1_1WebClient.html#a002876073b3869a9b9a9d709d14f1d7e" target="_top" xlink:title=" ">
<polygon fill="none" stroke="black" points="996,-220 996,-250 1123,-250 1123,-220 996,-220"/>
<text text-anchor="start" x="1004" y="-238" font-family="Helvetica,sans-Serif" font-size="10.00">sss::WebClient::SetWrite</text>
<text text-anchor="middle" x="1059.5" y="-227" font-family="Helvetica,sans-Serif" font-size="10.00">Function</text>
</a>
</g>
</g>
<!-- Node9&#45;&gt;Node11 -->
<g id="edge10" class="edge">
<title>Node9&#45;&gt;Node11</title>
<path fill="none" stroke="midnightblue" d="M941.01,-247.67C955.87,-246.07 971.17,-244.42 985.63,-242.86"/>
<polygon fill="midnightblue" stroke="midnightblue" points="986.41,-246.29 995.98,-241.74 985.66,-239.33 986.41,-246.29"/>
</g>
<!-- Node24 -->
<g id="node24" class="node">
<title>Node24</title>
<g id="a_node24"><a xlink:href="group__Internal.html#ga6e3db8d156313abef7e2c966df1a3d7c" target="_top" xlink:title=" ">
<polygon fill="none" stroke="black" points="616.5,-462.5 616.5,-481.5 700.5,-481.5 700.5,-462.5 616.5,-462.5"/>
<text text-anchor="middle" x="658.5" y="-469.5" font-family="Helvetica,sans-Serif" font-size="10.00">sss::UrlEncode</text>
</a>
</g>
</g>
<!-- Node23&#45;&gt;Node24 -->
<g id="edge27" class="edge">
<title>Node23&#45;&gt;Node24</title>
<path fill="none" stroke="midnightblue" d="M542.51,-472C563.88,-472 586.59,-472 606.13,-472"/>
<polygon fill="midnightblue" stroke="midnightblue" points="606.33,-475.5 616.33,-472 606.33,-468.5 606.33,-475.5"/>
</g>
<!-- Node25&#45;&gt;Node19 -->
<g id="edge30" class="edge">
<title>Node25&#45;&gt;Node19</title>
<path fill="none" stroke="midnightblue" d="M516.97,-108.85C528.45,-104.67 540.38,-99.69 551,-94 568.63,-84.56 569.02,-75.76 587,-67 591.84,-64.64 597.02,-62.54 602.29,-60.68"/>
<polygon fill="midnightblue" stroke="midnightblue" points="603.39,-64 611.82,-57.58 601.23,-57.34 603.39,-64"/>
</g>
<!-- Node25&#45;&gt;Node22 -->
<g id="edge29" class="edge">
<title>Node25&#45;&gt;Node22</title>
<path fill="none" stroke="midnightblue" d="M526.58,-108.84C535.35,-104.93 543.83,-100.06 551,-94 576.21,-72.67 561,-49.35 587,-29 589.34,-27.17 591.84,-25.51 594.46,-24.02"/>
<polygon fill="midnightblue" stroke="midnightblue" points="596.25,-27.04 603.71,-19.52 593.19,-20.74 596.25,-27.04"/>
</g>
</g>
</svg>
        <g id="navigator" transform="translate(0 0)" fill="#404254">
                <rect fill="#f2f5e9" fill-opacity="0.5" stroke="#606060" stroke-width=".5" x="0" y="0" width="60" height="60"/>
                <use id="zoomplus" xlink:href="#zoomPlus" x="17" y="9" onmousedown="handleZoom(evt,'in')"/>
                <use id="zoomminus" xlink:href="#zoomMin" x="42" y="9" onmousedown="handleZoom(evt,'out')"/>
                <use id="reset" xlink:href="#resetDef" x="30" y="36" onmousedown="handleReset()"/>
                <g id="arrowUp" xlink:href="#dirArrow" transform="translate(30 24)" onmousedown="handlePan(0,-1)">
                  <use xlink:href="#rim" fill="#404040">
                        <set attributeName="fill" to="#808080" begin="arrowUp.mouseover" end="arrowUp.mouseout"/>
                  </use>
                  <path fill="none" stroke="white" stroke-width="1.5" d="M0,-3.0v7 M-2.5,-0.5L0,-3.0L2.5,-0.5"/>
                </g>
                <g id="arrowRight" xlink:href="#dirArrow" transform="rotate(90) translate(36 -43)" onmousedown="handlePan(1,0)">
                  <use xlink:href="#rim" fill="#404040">
                        <set attributeName="fill" to="#808080" begin="arrowRight.mouseover" end="arrowRight.mouseout"/>
                  </use>
                  <path fill="none" stroke="white" stroke-width="1.5" d="M0,-3.0v7 M-2.5,-0.5L0,-3.0L2.5,-0.5"/>
                </g>
                <g id="arrowDown" xlink:href="#dirArrow" transform="rotate(180) translate(-30 -48)" onmousedown="handlePan(0,1)">
                  <use xlink:href="#rim" fill="#404040">
                        <set attributeName="fill" to="#808080" begin="arrowDown.mouseover" end="arrowDown.mouseout"/>
                  </use>
                  <path fill="none" stroke="white" stroke-width="1.5" d="M0,-3.0v7 M-2.5,-0.5L0,-3.0L2.5,-0.5"/>
                </g>
                <g id="arrowLeft" xlink:href="#dirArrow" transform="rotate(270) translate(-36 17)" onmousedown="handlePan(-1,0)">
                  <use xlink:href="#rim" fill="#404040">
                        <set attributeName="fill" to="#808080" begin="arrowLeft.mouseover" end="arrowLeft.mouseout"/>
                  </use>
                  <path fill="none" stroke="white" stroke-width="1.5" d="M0,-3.0v7 M-2.5,-0.5L0,-3.0L2.5,-0.5"/>
                </g>
        </g>
        <svg viewBox="0 0 15 15" width="100%" height="30px" preserveAspectRatio="xMaxYMin meet">
         <g id="arrow_out" transform="scale(0.3 0.3)">
          <a xlink:href="classsss_1_1api_1_1S3Api_aa35e9b1cc7661cd9bb0d5f2de6cbbc7d_cgraph_org.svg" target="_base">
           <rect id="button" ry="5" rx="5" y="6" x="6" height="38" width="38"
                fill="#f2f5e9" fill-opacity="0.5" stroke="#606060" stroke-width="1.0"/>
           <path id="arrow"
             d="M 11.500037,31.436501 C 11.940474,20.09759 22.043105,11.32322 32.158766,21.979434 L 37.068811,17.246167 C 37.068811,17.246167 37.088388,32 37.088388,32 L 22.160133,31.978069 C 22.160133,31.978069 26.997745,27.140456 26.997745,27.140456 C 18.528582,18.264221 13.291696,25.230495 11.500037,31.436501 z"
             style="fill:#404040;"/>
          </a>
         </g>
        </svg>
</svg>
