<?xml version="1.0" encoding="UTF-8" standalone="no"?>
<!DOCTYPE svg PUBLIC "-//W3C//DTD SVG 1.1//EN"
 "http://www.w3.org/Graphics/SVG/1.1/DTD/svg11.dtd">
<!-- Generated by graphviz version 8.0.5 (20230430.1635)
 -->
<!-- Title: sss::WebClient::SetReadFunction Pages: 1 -->
<!--zoomable 544 -->
<svg id="main" version="1.1" xmlns="http://www.w3.org/2000/svg" xmlns:xlink="http://www.w3.org/1999/xlink" xml:space="preserve" onload="init(evt)">
<style type="text/css"><![CDATA[
.edge:hover path { stroke: red; }
.edge:hover polygon { stroke: red; fill: red; }
]]></style>
<script type="text/javascript"><![CDATA[
var edges = document.getElementsByTagName('g');
if (edges && edges.length) {
  for (var i=0;i<edges.length;i++) {
    if (edges[i].id.substr(0,4)=='edge') {
      edges[i].setAttribute('class','edge');
    }
  }
}
]]></script>
        <defs>
                <circle id="rim" cx="0" cy="0" r="7"/>
                <circle id="rim2" cx="0" cy="0" r="3.5"/>
                <g id="zoomPlus">
                        <use xlink:href="#rim" fill="#404040">
                                <set attributeName="fill" to="#808080" begin="zoomplus.mouseover" end="zoomplus.mouseout"/>
                        </use>
                        <path d="M-4,0h8M0,-4v8" fill="none" stroke="white" stroke-width="1.5" pointer-events="none"/>
                </g>
                <g id="zoomMin">
                        <use xlink:href="#rim" fill="#404040">
                                <set attributeName="fill" to="#808080" begin="zoomminus.mouseover" end="zoomminus.mouseout"/>
                        </use>
                        <path d="M-4,0h8" fill="none" stroke="white" stroke-width="1.5" pointer-events="none"/>
                </g>
                <g id="dirArrow">
                        <path fill="none" stroke="white" stroke-width="1.5" d="M0,-3.0v7 M-2.5,-0.5L0,-3.0L2.5,-0.5"/>
                </g>
               <g id="resetDef">
                       <use xlink:href="#rim2" fill="#404040">
                               <set attributeName="fill" to="#808080" begin="reset.mouseover" end="reset.mouseout"/>
                       </use>
               </g>
        </defs>

<script type="text/javascript">
var viewWidth = 1220;
var viewHeight = 544;
var sectionId = 'dynsection-11';
</script>
<script xlink:href="svgpan.js"/>
<svg id="graph" class="graph">
<g id="viewport">
<title>sss::WebClient::SetReadFunction</title>
<!-- Node1 -->
<g id="node1" class="node">
<title>Node1</title>
<g id="a_node1"><a xlink:title=" ">
<polygon fill="#999999" stroke="#666666" points="1212.25,-141.25 1047.75,-141.25 1047.75,-122 1212.25,-122 1212.25,-141.25"/>
<text text-anchor="middle" x="1130" y="-127.75" font-family="Helvetica,sans-Serif" font-size="10.00">sss::WebClient::SetReadFunction</text>
</a>
</g>
</g>
<!-- Node2 -->
<g id="node2" class="node">
<title>Node2</title>
<g id="a_node2"><a xlink:href="classsss_1_1WebClient.html#a96837f149bb473853a6523d096a25c56" target="_top" xlink:title="Reset read/write functions to default.">
<polygon fill="white" stroke="#666666" points="1011.75,-217.25 837.5,-217.25 837.5,-198 1011.75,-198 1011.75,-217.25"/>
<text text-anchor="middle" x="924.62" y="-203.75" font-family="Helvetica,sans-Serif" font-size="10.00">sss::WebClient::ResetRWFunctions</text>
</a>
</g>
</g>
<!-- Node1&#45;&gt;Node2 -->
<g id="edge1" class="edge">
<title>Node1&#45;&gt;Node2</title>
<path fill="none" stroke="#63b8ff" d="M1091.77,-145.54C1051.45,-160.61 988.12,-184.27 952.42,-197.61"/>
<polygon fill="#63b8ff" stroke="#63b8ff" points="1092.85,-148.5 1100.99,-141.72 1090.4,-141.94 1092.85,-148.5"/>
</g>
<!-- Node23 -->
<g id="node23" class="node">
<title>Node23</title>
<g id="a_node23"><a xlink:href="classsss_1_1api_1_1S3Api.html#a0473917e4d25a4a6fca40d097e4299d6" target="_top" xlink:title=" ">
<polygon fill="white" stroke="#666666" points="321.88,-19.25 210.62,-19.25 210.62,0 321.88,0 321.88,-19.25"/>
<text text-anchor="middle" x="266.25" y="-5.75" font-family="Helvetica,sans-Serif" font-size="10.00">sss::api::S3Api::Send</text>
</a>
</g>
</g>
<!-- Node1&#45;&gt;Node23 -->
<g id="edge28" class="edge">
<title>Node1&#45;&gt;Node23</title>
<path fill="none" stroke="#63b8ff" d="M1036.67,-124.47C959.24,-119.08 845.72,-112.62 746.5,-112.62 746.5,-112.62 746.5,-112.62 593.88,-112.62 476.57,-112.63 456.76,-59.94 344,-27.62 334.13,-24.8 323.46,-22.08 313.3,-19.65"/>
<polygon fill="#63b8ff" stroke="#63b8ff" points="1036.13,-128.01 1046.35,-125.22 1036.63,-121.03 1036.13,-128.01"/>
</g>
<!-- Node25 -->
<g id="node25" class="node">
<title>Node25</title>
<g id="a_node25"><a xlink:href="classsss_1_1WebClient.html#ad038e41cfc902f6e49754c52a9a71992" target="_top" xlink:title="Upload file.">
<polygon fill="white" stroke="#666666" points="992.25,-160.25 857,-160.25 857,-141 992.25,-141 992.25,-160.25"/>
<text text-anchor="middle" x="924.62" y="-146.75" font-family="Helvetica,sans-Serif" font-size="10.00">sss::WebClient::UploadFile</text>
</a>
</g>
</g>
<!-- Node1&#45;&gt;Node25 -->
<g id="edge29" class="edge">
<title>Node1&#45;&gt;Node25</title>
<path fill="none" stroke="#63b8ff" d="M1036.68,-140.25C1021.8,-141.64 1006.65,-143.05 992.52,-144.38"/>
<polygon fill="#63b8ff" stroke="#63b8ff" points="1036.82,-143.66 1046.45,-139.24 1036.17,-136.69 1036.82,-143.66"/>
</g>
<!-- Node27 -->
<g id="node27" class="node">
<title>Node27</title>
<g id="a_node27"><a xlink:href="classsss_1_1WebClient.html#accb4e986d73bb44149918fa0043ec43b" target="_top" xlink:title="Upload file starting from offset using unbuffered I/O read.">
<polygon fill="white" stroke="#666666" points="992.25,-84.88 857,-84.88 857,-54.38 992.25,-54.38 992.25,-84.88"/>
<text text-anchor="start" x="865" y="-71.38" font-family="Helvetica,sans-Serif" font-size="10.00">sss::WebClient::UploadFile</text>
<text text-anchor="middle" x="924.62" y="-60.12" font-family="Helvetica,sans-Serif" font-size="10.00">Unbuffered</text>
</a>
</g>
</g>
<!-- Node1&#45;&gt;Node27 -->
<g id="edge32" class="edge">
<title>Node1&#45;&gt;Node27</title>
<path fill="none" stroke="#63b8ff" d="M1085.56,-118.38C1053.78,-108.69 1010.54,-95.51 977.04,-85.3"/>
<polygon fill="#63b8ff" stroke="#63b8ff" points="1084.29,-121.96 1094.87,-121.53 1086.33,-115.26 1084.29,-121.96"/>
</g>
<!-- Node3 -->
<g id="node3" class="node">
<title>Node3</title>
<g id="a_node3"><a xlink:href="classsss_1_1api_1_1S3Api.html#a3718745d3b940462ae9f3b78f773b3a6" target="_top" xlink:title="Clear data and reset read and write functions.">
<polygon fill="white" stroke="#666666" points="801.5,-237.25 689.5,-237.25 689.5,-218 801.5,-218 801.5,-237.25"/>
<text text-anchor="middle" x="745.5" y="-223.75" font-family="Helvetica,sans-Serif" font-size="10.00">sss::api::S3Api::Clear</text>
</a>
</g>
</g>
<!-- Node2&#45;&gt;Node3 -->
<g id="edge2" class="edge">
<title>Node2&#45;&gt;Node3</title>
<path fill="none" stroke="#63b8ff" d="M826.35,-218.61C817.87,-219.57 809.49,-220.51 801.53,-221.41"/>
<polygon fill="#63b8ff" stroke="#63b8ff" points="826.59,-221.99 836.14,-217.39 825.81,-215.03 826.59,-221.99"/>
</g>
<!-- Node4 -->
<g id="node4" class="node">
<title>Node4</title>
<g id="a_node4"><a xlink:href="classsss_1_1api_1_1S3Api.html#a840772746fbb0a79c161037da7b24a31" target="_top" xlink:title="[WebClient::Config]">
<polygon fill="white" stroke="#666666" points="653.5,-238.25 536.25,-238.25 536.25,-219 653.5,-219 653.5,-238.25"/>
<text text-anchor="middle" x="594.88" y="-224.75" font-family="Helvetica,sans-Serif" font-size="10.00">sss::api::S3Api::Config</text>
</a>
</g>
</g>
<!-- Node3&#45;&gt;Node4 -->
<g id="edge3" class="edge">
<title>Node3&#45;&gt;Node4</title>
<path fill="none" stroke="#63b8ff" d="M678.17,-228.07C670.03,-228.13 661.75,-228.18 653.75,-228.24"/>
<polygon fill="#63b8ff" stroke="#63b8ff" points="678.18,-231.56 688.16,-228 678.13,-224.56 678.18,-231.56"/>
</g>
<!-- Node5 -->
<g id="node5" class="node">
<title>Node5</title>
<g id="a_node5"><a xlink:href="classsss_1_1api_1_1S3Api.html#a1196f1cb9ce1e5d69336e9b8dbb5d59c" target="_top" xlink:title=" ">
<polygon fill="white" stroke="#666666" points="500.25,-289.88 380,-289.88 380,-259.38 500.25,-259.38 500.25,-289.88"/>
<text text-anchor="start" x="388" y="-276.38" font-family="Helvetica,sans-Serif" font-size="10.00">sss::api::S3Api::GetFile</text>
<text text-anchor="middle" x="440.12" y="-265.12" font-family="Helvetica,sans-Serif" font-size="10.00">Object</text>
</a>
</g>
</g>
<!-- Node4&#45;&gt;Node5 -->
<g id="edge4" class="edge">
<title>Node4&#45;&gt;Node5</title>
<path fill="none" stroke="#63b8ff" d="M550.26,-241.76C532.47,-247.12 511.76,-253.35 493.19,-258.95"/>
<polygon fill="#63b8ff" stroke="#63b8ff" points="550.79,-244.95 559.35,-238.72 548.77,-238.25 550.79,-244.95"/>
</g>
<!-- Node6 -->
<g id="node6" class="node">
<title>Node6</title>
<g id="a_node6"><a xlink:href="classsss_1_1api_1_1S3Api.html#ab7affe0834f5892b393e731783b7ccac" target="_top" xlink:title=" ">
<polygon fill="white" stroke="#666666" points="499.88,-203.88 380.38,-203.88 380.38,-173.38 499.88,-173.38 499.88,-203.88"/>
<text text-anchor="start" x="388.38" y="-190.38" font-family="Helvetica,sans-Serif" font-size="10.00">sss::api::S3Api::PutFile</text>
<text text-anchor="middle" x="440.12" y="-179.12" font-family="Helvetica,sans-Serif" font-size="10.00">Object</text>
</a>
</g>
</g>
<!-- Node4&#45;&gt;Node6 -->
<g id="edge5" class="edge">
<title>Node4&#45;&gt;Node6</title>
<path fill="none" stroke="#63b8ff" d="M544.79,-215.77C530.59,-212.05 514.93,-207.95 500.19,-204.09"/>
<polygon fill="#63b8ff" stroke="#63b8ff" points="543.77,-219.38 554.33,-218.53 545.54,-212.61 543.77,-219.38"/>
</g>
<!-- Node7 -->
<g id="node7" class="node">
<title>Node7</title>
<g id="a_node7"><a xlink:href="classsss_1_1api_1_1S3Api.html#ad09581bf28c4bbbcbb71b329959ec1ae" target="_top" xlink:title=" ">
<polygon fill="white" stroke="#666666" points="495.75,-241.25 384.5,-241.25 384.5,-222 495.75,-222 495.75,-241.25"/>
<text text-anchor="middle" x="440.12" y="-227.75" font-family="Helvetica,sans-Serif" font-size="10.00">sss::api::S3Api::Send</text>
</a>
</g>
</g>
<!-- Node4&#45;&gt;Node7 -->
<g id="edge6" class="edge">
<title>Node4&#45;&gt;Node7</title>
<path fill="none" stroke="#63b8ff" d="M525.24,-229.97C515.51,-230.16 505.61,-230.36 496.18,-230.54"/>
<polygon fill="#63b8ff" stroke="#63b8ff" points="525.2,-233.45 535.13,-229.76 525.06,-226.46 525.2,-233.45"/>
</g>
<!-- Node8 -->
<g id="node8" class="node">
<title>Node8</title>
<g id="a_node8"><a xlink:href="classsss_1_1api_1_1S3Api.html#a4ea265566c3c4335ec01201cdc4410c6" target="_top" xlink:title=" ">
<polygon fill="white" stroke="#666666" points="341,-498.88 191.5,-498.88 191.5,-468.38 341,-468.38 341,-498.88"/>
<text text-anchor="start" x="199.5" y="-485.38" font-family="Helvetica,sans-Serif" font-size="10.00">sss::api::S3Api::AbortMultipart</text>
<text text-anchor="middle" x="266.25" y="-474.12" font-family="Helvetica,sans-Serif" font-size="10.00">Upload</text>
</a>
</g>
</g>
<!-- Node7&#45;&gt;Node8 -->
<g id="edge7" class="edge">
<title>Node7&#45;&gt;Node8</title>
<path fill="none" stroke="#63b8ff" d="M382.51,-248.01C381.64,-248.84 380.8,-249.71 380,-250.62 318.45,-321.43 405.41,-387.7 344,-458.62 340.88,-462.23 337.24,-465.31 333.26,-467.96"/>
<polygon fill="#63b8ff" stroke="#63b8ff" points="384.29,-250.32 390.33,-241.61 380.18,-244.65 384.29,-250.32"/>
</g>
<!-- Node9 -->
<g id="node9" class="node">
<title>Node9</title>
<g id="a_node9"><a xlink:href="classsss_1_1api_1_1S3Api.html#a98f999a216121118dd569c7ef0c28ff3" target="_top" xlink:title=" ">
<polygon fill="white" stroke="#666666" points="331.62,-449.88 200.88,-449.88 200.88,-419.38 331.62,-419.38 331.62,-449.88"/>
<text text-anchor="start" x="208.88" y="-436.38" font-family="Helvetica,sans-Serif" font-size="10.00">sss::api::S3Api::Complete</text>
<text text-anchor="middle" x="266.25" y="-425.12" font-family="Helvetica,sans-Serif" font-size="10.00">MultipartUpload</text>
</a>
</g>
</g>
<!-- Node7&#45;&gt;Node9 -->
<g id="edge8" class="edge">
<title>Node7&#45;&gt;Node9</title>
<path fill="none" stroke="#63b8ff" d="M382.98,-247.7C381.94,-248.62 380.94,-249.6 380,-250.62 330.82,-304.42 393.39,-357.02 344,-410.62 340.5,-414.42 336.41,-417.63 331.97,-420.32"/>
<polygon fill="#63b8ff" stroke="#63b8ff" points="384.56,-250.18 390.8,-241.62 380.58,-244.42 384.56,-250.18"/>
</g>
<!-- Node10 -->
<g id="node10" class="node">
<title>Node10</title>
<g id="a_node10"><a xlink:href="classsss_1_1api_1_1S3Api.html#ad890bd1ecfc978df24b2c3ed641e4081" target="_top" xlink:title=" ">
<polygon fill="white" stroke="#666666" points="340.62,-130.25 191.88,-130.25 191.88,-111 340.62,-111 340.62,-130.25"/>
<text text-anchor="middle" x="266.25" y="-116.75" font-family="Helvetica,sans-Serif" font-size="10.00">sss::api::S3Api::CreateBucket</text>
</a>
</g>
</g>
<!-- Node7&#45;&gt;Node10 -->
<g id="edge9" class="edge">
<title>Node7&#45;&gt;Node10</title>
<path fill="none" stroke="#63b8ff" d="M384.94,-216.4C383.21,-215.23 381.56,-213.98 380,-212.62 352.37,-188.66 372.57,-161.46 344,-138.62 340.04,-135.46 335.63,-132.84 330.97,-130.67"/>
<polygon fill="#63b8ff" stroke="#63b8ff" points="382.66,-219.69 393.1,-221.52 386.08,-213.58 382.66,-219.69"/>
</g>
<!-- Node12 -->
<g id="node12" class="node">
<title>Node12</title>
<g id="a_node12"><a xlink:href="classsss_1_1api_1_1S3Api.html#a1796fafda3d90a4292a611ce1999433b" target="_top" xlink:title=" ">
<polygon fill="white" stroke="#666666" points="344,-363.88 188.5,-363.88 188.5,-333.38 344,-333.38 344,-363.88"/>
<text text-anchor="start" x="196.5" y="-350.38" font-family="Helvetica,sans-Serif" font-size="10.00">sss::api::S3Api::CreateMultipart</text>
<text text-anchor="middle" x="266.25" y="-339.12" font-family="Helvetica,sans-Serif" font-size="10.00">Upload</text>
</a>
</g>
</g>
<!-- Node7&#45;&gt;Node12 -->
<g id="edge11" class="edge">
<title>Node7&#45;&gt;Node12</title>
<path fill="none" stroke="#63b8ff" d="M384.94,-246.85C383.21,-248.02 381.56,-249.27 380,-250.62 352.37,-274.59 371.72,-300.77 344,-324.62 340.3,-327.81 336.17,-330.58 331.81,-332.97"/>
<polygon fill="#63b8ff" stroke="#63b8ff" points="386.08,-249.67 393.1,-241.73 382.66,-243.56 386.08,-249.67"/>
</g>
<!-- Node13 -->
<g id="node13" class="node">
<title>Node13</title>
<g id="a_node13"><a xlink:href="classsss_1_1api_1_1S3Api.html#a3d63825d1916e4ba3ca13122c7660603" target="_top" xlink:title=" ">
<polygon fill="white" stroke="#666666" points="340.25,-401.25 192.25,-401.25 192.25,-382 340.25,-382 340.25,-401.25"/>
<text text-anchor="middle" x="266.25" y="-387.75" font-family="Helvetica,sans-Serif" font-size="10.00">sss::api::S3Api::DeleteBucket</text>
</a>
</g>
</g>
<!-- Node7&#45;&gt;Node13 -->
<g id="edge12" class="edge">
<title>Node7&#45;&gt;Node13</title>
<path fill="none" stroke="#63b8ff" d="M383.14,-247.73C382.05,-248.64 381,-249.61 380,-250.62 340.51,-291.08 384.85,-333.54 344,-372.62 340.23,-376.23 335.89,-379.18 331.23,-381.6"/>
<polygon fill="#63b8ff" stroke="#63b8ff" points="384.89,-250.11 391.33,-241.69 381.05,-244.26 384.89,-250.11"/>
</g>
<!-- Node14 -->
<g id="node14" class="node">
<title>Node14</title>
<g id="a_node14"><a xlink:href="classsss_1_1api_1_1S3Api.html#a14a75f15eb71fbba8639673100768b67" target="_top" xlink:title=" ">
<polygon fill="white" stroke="#666666" points="339.12,-278.25 193.38,-278.25 193.38,-259 339.12,-259 339.12,-278.25"/>
<text text-anchor="middle" x="266.25" y="-264.75" font-family="Helvetica,sans-Serif" font-size="10.00">sss::api::S3Api::DeleteObject</text>
</a>
</g>
</g>
<!-- Node7&#45;&gt;Node14 -->
<g id="edge14" class="edge">
<title>Node7&#45;&gt;Node14</title>
<path fill="none" stroke="#63b8ff" d="M381.65,-244C359.71,-248.72 334.99,-254.04 314.16,-258.53"/>
<polygon fill="#63b8ff" stroke="#63b8ff" points="382.12,-247.26 391.16,-241.74 380.65,-240.42 382.12,-247.26"/>
</g>
<!-- Node15 -->
<g id="node15" class="node">
<title>Node15</title>
<g id="a_node15"><a xlink:href="classsss_1_1api_1_1S3Api.html#a3b53152bf39143843a4033aa4a1b3fa0" target="_top" xlink:title=" ">
<polygon fill="white" stroke="#666666" points="341,-315.25 191.5,-315.25 191.5,-296 341,-296 341,-315.25"/>
<text text-anchor="middle" x="266.25" y="-301.75" font-family="Helvetica,sans-Serif" font-size="10.00">sss::api::S3Api::GetBucketAcl</text>
</a>
</g>
</g>
<!-- Node7&#45;&gt;Node15 -->
<g id="edge15" class="edge">
<title>Node7&#45;&gt;Node15</title>
<path fill="none" stroke="#63b8ff" d="M388.83,-245.84C385.77,-247.3 382.8,-248.89 380,-250.62 360.5,-262.72 363.97,-276.33 344,-287.62 338.4,-290.79 332.27,-293.4 325.99,-295.55"/>
<polygon fill="#63b8ff" stroke="#63b8ff" points="389.96,-248.74 397.82,-241.64 387.25,-242.29 389.96,-248.74"/>
</g>
<!-- Node16 -->
<g id="node16" class="node">
<title>Node16</title>
<g id="a_node16"><a xlink:href="classsss_1_1api_1_1S3Api.html#af61465d92c0a94aa82ae863fc2a776a0" target="_top" xlink:title=" ">
<polygon fill="white" stroke="#666666" points="332.75,-204.25 199.75,-204.25 199.75,-185 332.75,-185 332.75,-204.25"/>
<text text-anchor="middle" x="266.25" y="-190.75" font-family="Helvetica,sans-Serif" font-size="10.00">sss::api::S3Api::GetObject</text>
</a>
</g>
</g>
<!-- Node7&#45;&gt;Node16 -->
<g id="edge17" class="edge">
<title>Node7&#45;&gt;Node16</title>
<path fill="none" stroke="#63b8ff" d="M381.65,-219.25C359.71,-214.53 334.99,-209.21 314.16,-204.72"/>
<polygon fill="#63b8ff" stroke="#63b8ff" points="380.65,-222.83 391.16,-221.51 382.12,-215.99 380.65,-222.83"/>
</g>
<!-- Node17 -->
<g id="node17" class="node">
<title>Node17</title>
<g id="a_node17"><a xlink:href="classsss_1_1api_1_1S3Api.html#aa4a2b1cc2c89a52d1aa89e571b785db2" target="_top" xlink:title=" ">
<polygon fill="white" stroke="#666666" points="337.62,-241.25 194.88,-241.25 194.88,-222 337.62,-222 337.62,-241.25"/>
<text text-anchor="middle" x="266.25" y="-227.75" font-family="Helvetica,sans-Serif" font-size="10.00">sss::api::S3Api::HeadBucket</text>
</a>
</g>
</g>
<!-- Node7&#45;&gt;Node17 -->
<g id="edge18" class="edge">
<title>Node7&#45;&gt;Node17</title>
<path fill="none" stroke="#63b8ff" d="M373.34,-231.62C361.75,-231.62 349.64,-231.62 337.92,-231.62"/>
<polygon fill="#63b8ff" stroke="#63b8ff" points="373.27,-235.13 383.27,-231.62 373.27,-228.13 373.27,-235.13"/>
</g>
<!-- Node18 -->
<g id="node18" class="node">
<title>Node18</title>
<g id="a_node18"><a xlink:href="classsss_1_1api_1_1S3Api.html#abc84a71b9a88b81afaa353ad17a91d22" target="_top" xlink:title=" ">
<polygon fill="white" stroke="#666666" points="336.5,-93.25 196,-93.25 196,-74 336.5,-74 336.5,-93.25"/>
<text text-anchor="middle" x="266.25" y="-79.75" font-family="Helvetica,sans-Serif" font-size="10.00">sss::api::S3Api::HeadObject</text>
</a>
</g>
</g>
<!-- Node7&#45;&gt;Node18 -->
<g id="edge20" class="edge">
<title>Node7&#45;&gt;Node18</title>
<path fill="none" stroke="#63b8ff" d="M383.63,-215.85C382.36,-214.84 381.15,-213.77 380,-212.62 343.28,-176 382.17,-136.74 344,-101.62 340.58,-98.47 336.71,-95.84 332.57,-93.65"/>
<polygon fill="#63b8ff" stroke="#63b8ff" points="381.4,-219.21 391.71,-221.62 385.15,-213.3 381.4,-219.21"/>
</g>
<!-- Node21 -->
<g id="node21" class="node">
<title>Node21</title>
<g id="a_node21"><a xlink:href="classsss_1_1api_1_1S3Api.html#a81e30673c06b609a2ee6e6bfd9130ca6" target="_top" xlink:title=" ">
<polygon fill="white" stroke="#666666" points="336.5,-167.25 196,-167.25 196,-148 336.5,-148 336.5,-167.25"/>
<text text-anchor="middle" x="266.25" y="-153.75" font-family="Helvetica,sans-Serif" font-size="10.00">sss::api::S3Api::ListBuckets</text>
</a>
</g>
</g>
<!-- Node7&#45;&gt;Node21 -->
<g id="edge23" class="edge">
<title>Node7&#45;&gt;Node21</title>
<path fill="none" stroke="#63b8ff" d="M388.83,-217.41C385.77,-215.95 382.8,-214.36 380,-212.62 360.5,-200.53 363.97,-186.92 344,-175.62 338.4,-172.46 332.27,-169.85 325.99,-167.7"/>
<polygon fill="#63b8ff" stroke="#63b8ff" points="387.25,-220.96 397.82,-221.61 389.96,-214.51 387.25,-220.96"/>
</g>
<!-- Node22 -->
<g id="node22" class="node">
<title>Node22</title>
<g id="a_node22"><a xlink:href="classsss_1_1api_1_1S3Api.html#a3f00f611cd210a58ac6e8c0555984433" target="_top" xlink:title=" ">
<polygon fill="white" stroke="#666666" points="341.38,-56.25 191.12,-56.25 191.12,-37 341.38,-37 341.38,-56.25"/>
<text text-anchor="middle" x="266.25" y="-42.75" font-family="Helvetica,sans-Serif" font-size="10.00">sss::api::S3Api::ListObjectsV2</text>
</a>
</g>
</g>
<!-- Node7&#45;&gt;Node22 -->
<g id="edge25" class="edge">
<title>Node7&#45;&gt;Node22</title>
<path fill="none" stroke="#63b8ff" d="M383.01,-215.53C381.96,-214.61 380.95,-213.65 380,-212.62 333.89,-163.06 392.07,-112.3 344,-64.62 340.79,-61.44 337.14,-58.79 333.2,-56.56"/>
<polygon fill="#63b8ff" stroke="#63b8ff" points="380.63,-218.82 390.86,-221.58 384.58,-213.04 380.63,-218.82"/>
</g>
<!-- Node7&#45;&gt;Node23 -->
<g id="edge26" class="edge">
<title>Node7&#45;&gt;Node23</title>
<path fill="none" stroke="#63b8ff" d="M382.54,-215.22C381.65,-214.4 380.81,-213.53 380,-212.62 324.39,-149.98 402.09,-87.98 344,-27.62 338.02,-21.41 330.34,-17.17 322.15,-14.3"/>
<polygon fill="#63b8ff" stroke="#63b8ff" points="380.24,-218.59 390.4,-221.57 384.32,-212.9 380.24,-218.59"/>
</g>
<!-- Node24 -->
<g id="node24" class="node">
<title>Node24</title>
<g id="a_node24"><a xlink:href="classsss_1_1api_1_1S3Api.html#a23223ee1fb701c55af2d942dbf261ae2" target="_top" xlink:title=" ">
<polygon fill="white" stroke="#666666" points="335.38,-536.25 197.12,-536.25 197.12,-517 335.38,-517 335.38,-536.25"/>
<text text-anchor="middle" x="266.25" y="-522.75" font-family="Helvetica,sans-Serif" font-size="10.00">sss::api::S3Api::TestBucket</text>
</a>
</g>
</g>
<!-- Node7&#45;&gt;Node24 -->
<g id="edge27" class="edge">
<title>Node7&#45;&gt;Node24</title>
<path fill="none" stroke="#63b8ff" d="M382.42,-248.03C381.57,-248.85 380.76,-249.72 380,-250.62 305.74,-338.88 421.23,-421.96 344,-507.62 340.78,-511.19 337.01,-514.14 332.9,-516.57"/>
<polygon fill="#63b8ff" stroke="#63b8ff" points="384.01,-250.46 389.92,-241.67 379.82,-244.85 384.01,-250.46"/>
</g>
<!-- Node11 -->
<g id="node11" class="node">
<title>Node11</title>
<g id="a_node11"><a xlink:href="bucket-test_8cpp.html#a3c04138a5bfe5d72780bb7e82a18e627" target="_top" xlink:title="Bucket tests.">
<polygon fill="white" stroke="#666666" points="94.75,-241.25 57.75,-241.25 57.75,-222 94.75,-222 94.75,-241.25"/>
<text text-anchor="middle" x="76.25" y="-227.75" font-family="Helvetica,sans-Serif" font-size="10.00">main</text>
</a>
</g>
</g>
<!-- Node10&#45;&gt;Node11 -->
<g id="edge10" class="edge">
<title>Node10&#45;&gt;Node11</title>
<path fill="none" stroke="#63b8ff" d="M198.74,-134.13C195.22,-135.49 191.78,-136.98 188.5,-138.62 144.81,-160.45 103.45,-202.61 85.98,-221.74"/>
<polygon fill="#63b8ff" stroke="#63b8ff" points="199.53,-137.21 207.84,-130.64 197.25,-130.6 199.53,-137.21"/>
</g>
<!-- Node13&#45;&gt;Node11 -->
<g id="edge13" class="edge">
<title>Node13&#45;&gt;Node11</title>
<path fill="none" stroke="#63b8ff" d="M196.83,-377.3C193.94,-375.89 191.15,-374.33 188.5,-372.62 134.52,-337.81 95.38,-267.73 82.15,-241.68"/>
<polygon fill="#63b8ff" stroke="#63b8ff" points="195.37,-380.91 205.95,-381.6 198.11,-374.47 195.37,-380.91"/>
</g>
<!-- Node15&#45;&gt;Node11 -->
<g id="edge16" class="edge">
<title>Node15&#45;&gt;Node11</title>
<path fill="none" stroke="#63b8ff" d="M204.37,-292.75C198.95,-291.18 193.6,-289.48 188.5,-287.62 153.54,-274.93 115.34,-254.01 94.03,-241.66"/>
<polygon fill="#63b8ff" stroke="#63b8ff" points="203.23,-296.34 213.79,-295.59 205.06,-289.59 203.23,-296.34"/>
</g>
<!-- Node17&#45;&gt;Node11 -->
<g id="edge19" class="edge">
<title>Node17&#45;&gt;Node11</title>
<path fill="none" stroke="#63b8ff" d="M183.77,-231.62C150.62,-231.62 115.35,-231.62 94.86,-231.62"/>
<polygon fill="#63b8ff" stroke="#63b8ff" points="183.44,-235.13 193.44,-231.62 183.44,-228.13 183.44,-235.13"/>
</g>
<!-- Node19 -->
<g id="node19" class="node">
<title>Node19</title>
<g id="a_node19"><a xlink:href="classsss_1_1api_1_1S3Api.html#a872e80e356e8c404a9b0739d95a0af41" target="_top" xlink:title="[WebClient::Config]">
<polygon fill="white" stroke="#666666" points="152.5,-75.25 0,-75.25 0,-56 152.5,-56 152.5,-75.25"/>
<text text-anchor="middle" x="76.25" y="-61.75" font-family="Helvetica,sans-Serif" font-size="10.00">sss::api::S3Api::GetObjectSize</text>
</a>
</g>
</g>
<!-- Node18&#45;&gt;Node19 -->
<g id="edge21" class="edge">
<title>Node18&#45;&gt;Node19</title>
<path fill="none" stroke="#63b8ff" d="M184.63,-75.91C174.09,-74.9 163.33,-73.87 152.87,-72.87"/>
<polygon fill="#63b8ff" stroke="#63b8ff" points="184.22,-79.48 194.51,-76.95 184.89,-72.51 184.22,-79.48"/>
</g>
<!-- Node20 -->
<g id="node20" class="node">
<title>Node20</title>
<g id="a_node20"><a xlink:href="classsss_1_1api_1_1S3Api.html#aa3f7a3001bdad58c7b0c04cbd0dc3236" target="_top" xlink:title=" ">
<polygon fill="white" stroke="#666666" points="144.25,-112.25 8.25,-112.25 8.25,-93 144.25,-93 144.25,-112.25"/>
<text text-anchor="middle" x="76.25" y="-98.75" font-family="Helvetica,sans-Serif" font-size="10.00">sss::api::S3Api::TestObject</text>
</a>
</g>
</g>
<!-- Node18&#45;&gt;Node20 -->
<g id="edge22" class="edge">
<title>Node18&#45;&gt;Node20</title>
<path fill="none" stroke="#63b8ff" d="M184.88,-91.75C171.48,-93.1 157.71,-94.49 144.69,-95.81"/>
<polygon fill="#63b8ff" stroke="#63b8ff" points="184.92,-95.16 194.51,-90.67 184.21,-88.2 184.92,-95.16"/>
</g>
<!-- Node21&#45;&gt;Node11 -->
<g id="edge24" class="edge">
<title>Node21&#45;&gt;Node11</title>
<path fill="none" stroke="#63b8ff" d="M204.37,-170.5C198.95,-172.07 193.6,-173.77 188.5,-175.62 153.54,-188.32 115.34,-209.24 94.03,-221.59"/>
<polygon fill="#63b8ff" stroke="#63b8ff" points="205.06,-173.66 213.79,-167.66 203.23,-166.91 205.06,-173.66"/>
</g>
<!-- Node25&#45;&gt;Node6 -->
<g id="edge30" class="edge">
<title>Node25&#45;&gt;Node6</title>
<path fill="none" stroke="#63b8ff" d="M855.84,-162.43C838.19,-165.15 819.17,-167.79 801.5,-169.62 695.72,-180.61 571.77,-185.38 500.26,-187.35"/>
<polygon fill="#63b8ff" stroke="#63b8ff" points="856.29,-165.74 865.62,-160.72 855.2,-158.83 856.29,-165.74"/>
</g>
<!-- Node26 -->
<g id="node26" class="node">
<title>Node26</title>
<g id="a_node26"><a xlink:href="group__S3Client.html#ga5a769be8fbc874bad858ea95743e5643" target="_top" xlink:title="Send S3 request to endpoint.">
<polygon fill="white" stroke="#666666" points="800,-160.25 691,-160.25 691,-141 800,-141 800,-160.25"/>
<text text-anchor="middle" x="745.5" y="-146.75" font-family="Helvetica,sans-Serif" font-size="10.00">sss::SendS3Request</text>
</a>
</g>
</g>
<!-- Node25&#45;&gt;Node26 -->
<g id="edge31" class="edge">
<title>Node25&#45;&gt;Node26</title>
<path fill="none" stroke="#63b8ff" d="M846.07,-150.62C830.64,-150.62 814.75,-150.62 800.32,-150.62"/>
<polygon fill="#63b8ff" stroke="#63b8ff" points="845.66,-154.13 855.66,-150.62 845.66,-147.13 845.66,-154.13"/>
</g>
</g>
</svg>
        <g id="navigator" transform="translate(0 0)" fill="#404254">
                <rect fill="#f2f5e9" fill-opacity="0.5" stroke="#606060" stroke-width=".5" x="0" y="0" width="60" height="60"/>
                <use id="zoomplus" xlink:href="#zoomPlus" x="17" y="9" onmousedown="handleZoom(evt,'in')"/>
                <use id="zoomminus" xlink:href="#zoomMin" x="42" y="9" onmousedown="handleZoom(evt,'out')"/>
                <use id="reset" xlink:href="#resetDef" x="30" y="36" onmousedown="handleReset()"/>
                <g id="arrowUp" xlink:href="#dirArrow" transform="translate(30 24)" onmousedown="handlePan(0,-1)">
                  <use xlink:href="#rim" fill="#404040">
                        <set attributeName="fill" to="#808080" begin="arrowUp.mouseover" end="arrowUp.mouseout"/>
                  </use>
                  <path fill="none" stroke="white" stroke-width="1.5" d="M0,-3.0v7 M-2.5,-0.5L0,-3.0L2.5,-0.5"/>
                </g>
                <g id="arrowRight" xlink:href="#dirArrow" transform="rotate(90) translate(36 -43)" onmousedown="handlePan(1,0)">
                  <use xlink:href="#rim" fill="#404040">
                        <set attributeName="fill" to="#808080" begin="arrowRight.mouseover" end="arrowRight.mouseout"/>
                  </use>
                  <path fill="none" stroke="white" stroke-width="1.5" d="M0,-3.0v7 M-2.5,-0.5L0,-3.0L2.5,-0.5"/>
                </g>
                <g id="arrowDown" xlink:href="#dirArrow" transform="rotate(180) translate(-30 -48)" onmousedown="handlePan(0,1)">
                  <use xlink:href="#rim" fill="#404040">
                        <set attributeName="fill" to="#808080" begin="arrowDown.mouseover" end="arrowDown.mouseout"/>
                  </use>
                  <path fill="none" stroke="white" stroke-width="1.5" d="M0,-3.0v7 M-2.5,-0.5L0,-3.0L2.5,-0.5"/>
                </g>
                <g id="arrowLeft" xlink:href="#dirArrow" transform="rotate(270) translate(-36 17)" onmousedown="handlePan(-1,0)">
                  <use xlink:href="#rim" fill="#404040">
                        <set attributeName="fill" to="#808080" begin="arrowLeft.mouseover" end="arrowLeft.mouseout"/>
                  </use>
                  <path fill="none" stroke="white" stroke-width="1.5" d="M0,-3.0v7 M-2.5,-0.5L0,-3.0L2.5,-0.5"/>
                </g>
        </g>
        <svg viewBox="0 0 15 15" width="100%" height="30px" preserveAspectRatio="xMaxYMin meet">
         <g id="arrow_out" transform="scale(0.3 0.3)">
          <a xlink:href="classsss_1_1WebClient_a88dbcc61562e84aa9ebf1eabf887ac28_icgraph_org.svg" target="_base">
           <rect id="button" ry="5" rx="5" y="6" x="6" height="38" width="38"
                fill="#f2f5e9" fill-opacity="0.5" stroke="#606060" stroke-width="1.0"/>
           <path id="arrow"
             d="M 11.500037,31.436501 C 11.940474,20.09759 22.043105,11.32322 32.158766,21.979434 L 37.068811,17.246167 C 37.068811,17.246167 37.088388,32 37.088388,32 L 22.160133,31.978069 C 22.160133,31.978069 26.997745,27.140456 26.997745,27.140456 C 18.528582,18.264221 13.291696,25.230495 11.500037,31.436501 z"
             style="fill:#404040;"/>
          </a>
         </g>
        </svg>
</svg>
