<?xml version="1.0" encoding="UTF-8" standalone="no"?>
<!DOCTYPE svg PUBLIC "-//W3C//DTD SVG 1.1//EN"
 "http://www.w3.org/Graphics/SVG/1.1/DTD/svg11.dtd">
<!-- Generated by graphviz version 2.43.0 (0)
 -->
<!-- Title: sss::api::S3Api::Send Pages: 1 -->
<!--zoomable 540 -->
<svg id="main" version="1.1" xmlns="http://www.w3.org/2000/svg" xmlns:xlink="http://www.w3.org/1999/xlink" xml:space="preserve" onload="init(evt)">
<style type="text/css"><![CDATA[
.edge:hover path { stroke: red; }
.edge:hover polygon { stroke: red; fill: red; }
]]></style>
<script type="text/javascript"><![CDATA[
var edges = document.getElementsByTagName('g');
if (edges && edges.length) {
  for (var i=0;i<edges.length;i++) {
    if (edges[i].id.substr(0,4)=='edge') {
      edges[i].setAttribute('class','edge');
    }
  }
}
]]></script>
        <defs>
                <circle id="rim" cx="0" cy="0" r="7"/>
                <circle id="rim2" cx="0" cy="0" r="3.5"/>
                <g id="zoomPlus">
                        <use xlink:href="#rim" fill="#404040">
                                <set attributeName="fill" to="#808080" begin="zoomplus.mouseover" end="zoomplus.mouseout"/>
                        </use>
                        <path d="M-4,0h8M0,-4v8" fill="none" stroke="white" stroke-width="1.5" pointer-events="none"/>
                </g>
                <g id="zoomMin">
                        <use xlink:href="#rim" fill="#404040">
                                <set attributeName="fill" to="#808080" begin="zoomminus.mouseover" end="zoomminus.mouseout"/>
                        </use>
                        <path d="M-4,0h8" fill="none" stroke="white" stroke-width="1.5" pointer-events="none"/>
                </g>
                <g id="dirArrow">
                        <path fill="none" stroke="white" stroke-width="1.5" d="M0,-3.0v7 M-2.5,-0.5L0,-3.0L2.5,-0.5"/>
                </g>
               <g id="resetDef">
                       <use xlink:href="#rim2" fill="#404040">
                               <set attributeName="fill" to="#808080" begin="reset.mouseover" end="reset.mouseout"/>
                       </use>
               </g>
        </defs>

<script type="text/javascript">
var viewWidth = 1050;
var viewHeight = 540;
var sectionId = 'dynsection-35';
</script>
<script xlink:href="svgpan.js"/>
<svg id="graph" class="graph">
<g id="viewport">
<title>sss::api::S3Api::Send</title>
<!-- Node1 -->
<g id="node1" class="node">
<title>Node1</title>
<g id="a_node1"><a xlink:title=" ">
<polygon fill="#bfbfbf" stroke="black" points="0,-259.5 0,-278.5 112,-278.5 112,-259.5 0,-259.5"/>
<text text-anchor="middle" x="56" y="-266.5" font-family="Helvetica,sans-Serif" font-size="10.00">sss::api::S3Api::Send</text>
</a>
</g>
</g>
<!-- Node2 -->
<g id="node2" class="node">
<title>Node2</title>
<g id="a_node2"><a xlink:href="classsss_1_1api_1_1S3Api.html#a02b4f0c95255f151beb72f0a6bdf5889" target="_top" xlink:title="Send request.">
<polygon fill="none" stroke="black" points="148,-259.5 148,-278.5 260,-278.5 260,-259.5 148,-259.5"/>
<text text-anchor="middle" x="204" y="-266.5" font-family="Helvetica,sans-Serif" font-size="10.00">sss::api::S3Api::Send</text>
</a>
</g>
</g>
<!-- Node1&#45;&gt;Node2 -->
<g id="edge1" class="edge">
<title>Node1&#45;&gt;Node2</title>
<path fill="none" stroke="midnightblue" d="M112.2,-269C120.46,-269 129.05,-269 137.51,-269"/>
<polygon fill="midnightblue" stroke="midnightblue" points="137.73,-272.5 147.73,-269 137.73,-265.5 137.73,-272.5"/>
</g>
<!-- Node8 -->
<g id="node8" class="node">
<title>Node8</title>
<g id="a_node8"><a xlink:href="classsss_1_1WebClient.html#a88dbcc61562e84aa9ebf1eabf887ac28" target="_top" xlink:title=" ">
<polygon fill="none" stroke="black" points="877,-446.5 877,-465.5 1042,-465.5 1042,-446.5 877,-446.5"/>
<text text-anchor="middle" x="959.5" y="-453.5" font-family="Helvetica,sans-Serif" font-size="10.00">sss::WebClient::SetReadFunction</text>
</a>
</g>
</g>
<!-- Node1&#45;&gt;Node8 -->
<g id="edge29" class="edge">
<title>Node1&#45;&gt;Node8</title>
<path fill="none" stroke="midnightblue" d="M62.17,-278.67C88.3,-326.12 210.98,-532 372.5,-532 372.5,-532 372.5,-532 559.5,-532 685.75,-532 717.89,-521.98 841,-494 869.23,-487.58 900.36,-477.37 923.49,-469.14"/>
<polygon fill="midnightblue" stroke="midnightblue" points="924.98,-472.32 933.2,-465.64 922.6,-465.74 924.98,-472.32"/>
</g>
<!-- Node9 -->
<g id="node9" class="node">
<title>Node9</title>
<g id="a_node9"><a xlink:href="classsss_1_1WebClient.html#a002876073b3869a9b9a9d709d14f1d7e" target="_top" xlink:title=" ">
<polygon fill="none" stroke="black" points="896,-229 896,-259 1023,-259 1023,-229 896,-229"/>
<text text-anchor="start" x="904" y="-247" font-family="Helvetica,sans-Serif" font-size="10.00">sss::WebClient::SetWrite</text>
<text text-anchor="middle" x="959.5" y="-236" font-family="Helvetica,sans-Serif" font-size="10.00">Function</text>
</a>
</g>
</g>
<!-- Node1&#45;&gt;Node9 -->
<g id="edge30" class="edge">
<title>Node1&#45;&gt;Node9</title>
<path fill="none" stroke="midnightblue" d="M61.94,-259.43C87.41,-211.51 209.1,0 372.5,0 372.5,0 372.5,0 559.5,0 727.78,0 885.1,-159.92 938.91,-220.83"/>
<polygon fill="midnightblue" stroke="midnightblue" points="936.6,-223.5 945.81,-228.74 941.87,-218.9 936.6,-223.5"/>
</g>
<!-- Node3 -->
<g id="node3" class="node">
<title>Node3</title>
<g id="a_node3"><a xlink:href="classsss_1_1api_1_1S3Api.html#a840772746fbb0a79c161037da7b24a31" target="_top" xlink:title="Configure instance.">
<polygon fill="none" stroke="black" points="314.5,-237.5 314.5,-256.5 432.5,-256.5 432.5,-237.5 314.5,-237.5"/>
<text text-anchor="middle" x="373.5" y="-244.5" font-family="Helvetica,sans-Serif" font-size="10.00">sss::api::S3Api::Config</text>
</a>
</g>
</g>
<!-- Node2&#45;&gt;Node3 -->
<g id="edge2" class="edge">
<title>Node2&#45;&gt;Node3</title>
<path fill="none" stroke="midnightblue" d="M260.31,-261.74C274.4,-259.88 289.71,-257.87 304.36,-255.95"/>
<polygon fill="midnightblue" stroke="midnightblue" points="304.91,-259.41 314.37,-254.63 304,-252.47 304.91,-259.41"/>
</g>
<!-- Node12 -->
<g id="node12" class="node">
<title>Node12</title>
<g id="a_node12"><a xlink:href="classsss_1_1WebClient.html#a51ce0ecf6487b6a43072643fe4f4cb4e" target="_top" xlink:title=" ">
<polygon fill="none" stroke="black" points="680.5,-465.5 680.5,-484.5 826.5,-484.5 826.5,-465.5 680.5,-465.5"/>
<text text-anchor="middle" x="753.5" y="-472.5" font-family="Helvetica,sans-Serif" font-size="10.00">sss::WebClient::SetPostData</text>
</a>
</g>
</g>
<!-- Node2&#45;&gt;Node12 -->
<g id="edge23" class="edge">
<title>Node2&#45;&gt;Node12</title>
<path fill="none" stroke="midnightblue" d="M213.41,-278.84C244.82,-314.68 360.06,-438.18 487,-475 550.73,-493.49 626.75,-491.18 681.08,-485.62"/>
<polygon fill="midnightblue" stroke="midnightblue" points="681.74,-489.07 691.31,-484.51 680.99,-482.11 681.74,-489.07"/>
</g>
<!-- Node19 -->
<g id="node19" class="node">
<title>Node19</title>
<g id="a_node19"><a xlink:href="group__Internal.html#ga2b8b08c2a4994a87377d83ccfa9a6a53" target="_top" xlink:title=" ">
<polygon fill="none" stroke="black" points="324.5,-325.5 324.5,-344.5 422.5,-344.5 422.5,-325.5 324.5,-325.5"/>
<text text-anchor="middle" x="373.5" y="-332.5" font-family="Helvetica,sans-Serif" font-size="10.00">sss::ParseParams</text>
</a>
</g>
</g>
<!-- Node2&#45;&gt;Node19 -->
<g id="edge21" class="edge">
<title>Node2&#45;&gt;Node19</title>
<path fill="none" stroke="midnightblue" d="M220.91,-278.68C238.68,-289.13 268.54,-305.66 296,-316 302.69,-318.52 309.84,-320.8 316.98,-322.84"/>
<polygon fill="midnightblue" stroke="midnightblue" points="316.09,-326.23 326.66,-325.46 317.92,-319.47 316.09,-326.23"/>
</g>
<!-- Node20 -->
<g id="node20" class="node">
<title>Node20</title>
<g id="a_node20"><a xlink:href="classsss_1_1WebClient.html#aa1d7484f0e09242ce53b24f9648ce50e" target="_top" xlink:title=" ">
<polygon fill="none" stroke="black" points="502.5,-28.5 502.5,-47.5 614.5,-47.5 614.5,-28.5 502.5,-28.5"/>
<text text-anchor="middle" x="558.5" y="-35.5" font-family="Helvetica,sans-Serif" font-size="10.00">sss::WebClient::Send</text>
</a>
</g>
</g>
<!-- Node2&#45;&gt;Node20 -->
<g id="edge22" class="edge">
<title>Node2&#45;&gt;Node20</title>
<path fill="none" stroke="midnightblue" d="M205.76,-259.25C209.05,-224.69 225.21,-107.43 296,-57 356.86,-13.65 447.18,-18.08 504.16,-26.84"/>
<polygon fill="midnightblue" stroke="midnightblue" points="503.62,-30.3 514.05,-28.46 504.75,-23.39 503.62,-30.3"/>
</g>
<!-- Node21 -->
<g id="node21" class="node">
<title>Node21</title>
<g id="a_node21"><a xlink:href="classsss_1_1WebClient.html#a7dfd984b33a29686fb0355b65b620e99" target="_top" xlink:title=" ">
<polygon fill="none" stroke="black" points="296,-276 296,-306 451,-306 451,-276 296,-276"/>
<text text-anchor="start" x="304" y="-294" font-family="Helvetica,sans-Serif" font-size="10.00">sss::WebClient::SetUrlEncoded</text>
<text text-anchor="middle" x="373.5" y="-283" font-family="Helvetica,sans-Serif" font-size="10.00">PostData</text>
</a>
</g>
</g>
<!-- Node2&#45;&gt;Node21 -->
<g id="edge24" class="edge">
<title>Node2&#45;&gt;Node21</title>
<path fill="none" stroke="midnightblue" d="M260.31,-276.26C268.46,-277.34 277.02,-278.46 285.62,-279.59"/>
<polygon fill="midnightblue" stroke="midnightblue" points="285.35,-283.08 295.72,-280.92 286.26,-276.14 285.35,-283.08"/>
</g>
<!-- Node23 -->
<g id="node23" class="node">
<title>Node23</title>
<g id="a_node23"><a xlink:href="classsss_1_1WebClient.html#ae7b1f77bd4ae44585f2d49ea493bdcc5" target="_top" xlink:title="Upload data from memory buffer.">
<polygon fill="none" stroke="black" points="303,-67 303,-97 444,-97 444,-67 303,-67"/>
<text text-anchor="start" x="311" y="-85" font-family="Helvetica,sans-Serif" font-size="10.00">sss::WebClient::UploadData</text>
<text text-anchor="middle" x="373.5" y="-74" font-family="Helvetica,sans-Serif" font-size="10.00">FromBuffer</text>
</a>
</g>
</g>
<!-- Node2&#45;&gt;Node23 -->
<g id="edge26" class="edge">
<title>Node2&#45;&gt;Node23</title>
<path fill="none" stroke="midnightblue" d="M213.54,-259.47C239.04,-231 315.16,-146.02 352.03,-104.85"/>
<polygon fill="midnightblue" stroke="midnightblue" points="354.79,-107.02 358.85,-97.23 349.58,-102.35 354.79,-107.02"/>
</g>
<!-- Node4 -->
<g id="node4" class="node">
<title>Node4</title>
<g id="a_node4"><a xlink:href="classsss_1_1api_1_1S3Api.html#a1a4e05ac14390c7f42feef2c26e22031" target="_top" xlink:title=" ">
<polygon fill="none" stroke="black" points="497.5,-218.5 497.5,-237.5 619.5,-237.5 619.5,-218.5 497.5,-218.5"/>
<text text-anchor="middle" x="558.5" y="-225.5" font-family="Helvetica,sans-Serif" font-size="10.00">sss::api::S3Api::Access</text>
</a>
</g>
</g>
<!-- Node3&#45;&gt;Node4 -->
<g id="edge3" class="edge">
<title>Node3&#45;&gt;Node4</title>
<path fill="none" stroke="midnightblue" d="M432.65,-240.96C449.97,-239.16 469.13,-237.17 487.14,-235.31"/>
<polygon fill="midnightblue" stroke="midnightblue" points="487.71,-238.77 497.29,-234.25 486.98,-231.8 487.71,-238.77"/>
</g>
<!-- Node5 -->
<g id="node5" class="node">
<title>Node5</title>
<g id="a_node5"><a xlink:href="classsss_1_1api_1_1S3Api.html#a3718745d3b940462ae9f3b78f773b3a6" target="_top" xlink:title="Clear data and reset read and write functions.">
<polygon fill="none" stroke="black" points="502,-370.5 502,-389.5 615,-389.5 615,-370.5 502,-370.5"/>
<text text-anchor="middle" x="558.5" y="-377.5" font-family="Helvetica,sans-Serif" font-size="10.00">sss::api::S3Api::Clear</text>
</a>
</g>
</g>
<!-- Node3&#45;&gt;Node5 -->
<g id="edge4" class="edge">
<title>Node3&#45;&gt;Node5</title>
<path fill="none" stroke="midnightblue" d="M432.68,-255.79C439.37,-258.58 445.68,-262.24 451,-267 484.33,-296.85 453.79,-331.03 487,-361 488.76,-362.59 490.64,-364.04 492.61,-365.38"/>
<polygon fill="midnightblue" stroke="midnightblue" points="491.32,-368.67 501.75,-370.51 494.74,-362.56 491.32,-368.67"/>
</g>
<!-- Node10 -->
<g id="node10" class="node">
<title>Node10</title>
<g id="a_node10"><a xlink:href="classsss_1_1WebClient.html#a75890c14fbe4a4bbac61718a4f3c064d" target="_top" xlink:title=" ">
<polygon fill="none" stroke="black" points="683,-237.5 683,-256.5 824,-256.5 824,-237.5 683,-237.5"/>
<text text-anchor="middle" x="753.5" y="-244.5" font-family="Helvetica,sans-Serif" font-size="10.00">sss::WebClient::SetHeaders</text>
</a>
</g>
</g>
<!-- Node3&#45;&gt;Node10 -->
<g id="edge16" class="edge">
<title>Node3&#45;&gt;Node10</title>
<path fill="none" stroke="midnightblue" d="M395.95,-237.41C418.2,-228.02 454.25,-214.38 487,-209 549.71,-198.69 567.16,-199.48 630,-209 661.15,-213.72 695.29,-224.83 719.6,-233.83"/>
<polygon fill="midnightblue" stroke="midnightblue" points="718.46,-237.14 729.06,-237.4 720.94,-230.59 718.46,-237.14"/>
</g>
<!-- Node11 -->
<g id="node11" class="node">
<title>Node11</title>
<g id="a_node11"><a xlink:href="classsss_1_1WebClient.html#a12b5db6b8c667024557ab58059d39994" target="_top" xlink:title=" ">
<polygon fill="none" stroke="black" points="691,-170.5 691,-189.5 816,-189.5 816,-170.5 691,-170.5"/>
<text text-anchor="middle" x="753.5" y="-177.5" font-family="Helvetica,sans-Serif" font-size="10.00">sss::WebClient::SetPath</text>
</a>
</g>
</g>
<!-- Node3&#45;&gt;Node11 -->
<g id="edge18" class="edge">
<title>Node3&#45;&gt;Node11</title>
<path fill="none" stroke="midnightblue" d="M390.99,-237.42C412.34,-225.56 451.09,-205.83 487,-197 551.26,-181.2 626.75,-177.76 680.77,-177.8"/>
<polygon fill="midnightblue" stroke="midnightblue" points="680.92,-181.3 690.94,-177.84 680.96,-174.3 680.92,-181.3"/>
</g>
<!-- Node13 -->
<g id="node13" class="node">
<title>Node13</title>
<g id="a_node13"><a xlink:href="classsss_1_1WebClient.html#a9bf978d95b79728f6d60fc2bdb4fe546" target="_top" xlink:title=" ">
<polygon fill="none" stroke="black" points="667,-408.5 667,-427.5 840,-427.5 840,-408.5 667,-408.5"/>
<text text-anchor="middle" x="753.5" y="-415.5" font-family="Helvetica,sans-Serif" font-size="10.00">sss::WebClient::SetReqParameters</text>
</a>
</g>
</g>
<!-- Node3&#45;&gt;Node13 -->
<g id="edge19" class="edge">
<title>Node3&#45;&gt;Node13</title>
<path fill="none" stroke="midnightblue" d="M432.76,-255.13C439.52,-258.03 445.83,-261.88 451,-267 494.22,-309.77 440.02,-360.39 487,-399 512.33,-419.82 591.16,-423.4 656.39,-422.45"/>
<polygon fill="midnightblue" stroke="midnightblue" points="656.8,-425.94 666.74,-422.26 656.68,-418.94 656.8,-425.94"/>
</g>
<!-- Node14 -->
<g id="node14" class="node">
<title>Node14</title>
<g id="a_node14"><a xlink:href="classsss_1_1api_1_1S3Api.html#a70f1068d07e1d4c1be164e0cb9328cc0" target="_top" xlink:title=" ">
<polygon fill="none" stroke="black" points="494.5,-332.5 494.5,-351.5 622.5,-351.5 622.5,-332.5 494.5,-332.5"/>
<text text-anchor="middle" x="558.5" y="-339.5" font-family="Helvetica,sans-Serif" font-size="10.00">sss::api::S3Api::Endpoint</text>
</a>
</g>
</g>
<!-- Node3&#45;&gt;Node14 -->
<g id="edge13" class="edge">
<title>Node3&#45;&gt;Node14</title>
<path fill="none" stroke="midnightblue" d="M431.02,-256.58C438.13,-259.24 445,-262.65 451,-267 474.95,-284.37 463.12,-305.54 487,-323 489.66,-324.95 492.51,-326.69 495.48,-328.26"/>
<polygon fill="midnightblue" stroke="midnightblue" points="494.13,-331.49 504.68,-332.45 497.03,-325.12 494.13,-331.49"/>
</g>
<!-- Node15 -->
<g id="node15" class="node">
<title>Node15</title>
<g id="a_node15"><a xlink:href="classsss_1_1api_1_1S3Api.html#acfffe29254323fb41231787a0afb7edc" target="_top" xlink:title=" ">
<polygon fill="none" stroke="black" points="499.5,-294.5 499.5,-313.5 617.5,-313.5 617.5,-294.5 499.5,-294.5"/>
<text text-anchor="middle" x="558.5" y="-301.5" font-family="Helvetica,sans-Serif" font-size="10.00">sss::api::S3Api::Secret</text>
</a>
</g>
</g>
<!-- Node3&#45;&gt;Node15 -->
<g id="edge14" class="edge">
<title>Node3&#45;&gt;Node15</title>
<path fill="none" stroke="midnightblue" d="M417.48,-256.56C428.54,-259.48 440.34,-262.99 451,-267 467.74,-273.3 470.28,-278.64 487,-285 493.29,-287.39 500,-289.61 506.69,-291.62"/>
<polygon fill="midnightblue" stroke="midnightblue" points="505.84,-295.02 516.42,-294.42 507.78,-288.29 505.84,-295.02"/>
</g>
<!-- Node16 -->
<g id="node16" class="node">
<title>Node16</title>
<g id="a_node16"><a xlink:href="classsss_1_1WebClient.html#afc3b7a92568fbb1ea447918920ca266e" target="_top" xlink:title="Set endpoint: &lt;proto&gt;://&lt;server&gt;:&lt;port&gt;">
<polygon fill="none" stroke="black" points="487,-256.5 487,-275.5 630,-275.5 630,-256.5 487,-256.5"/>
<text text-anchor="middle" x="558.5" y="-263.5" font-family="Helvetica,sans-Serif" font-size="10.00">sss::WebClient::SetEndpoint</text>
</a>
</g>
</g>
<!-- Node3&#45;&gt;Node16 -->
<g id="edge15" class="edge">
<title>Node3&#45;&gt;Node16</title>
<path fill="none" stroke="midnightblue" d="M432.65,-253.04C446.68,-254.49 461.93,-256.08 476.79,-257.62"/>
<polygon fill="midnightblue" stroke="midnightblue" points="476.68,-261.13 486.99,-258.68 477.41,-254.17 476.68,-261.13"/>
</g>
<!-- Node17 -->
<g id="node17" class="node">
<title>Node17</title>
<g id="a_node17"><a xlink:href="classsss_1_1WebClient.html#af6233ffd7b294e1e7e606e838dd44e9e" target="_top" xlink:title=" ">
<polygon fill="none" stroke="black" points="490,-66.5 490,-85.5 627,-85.5 627,-66.5 490,-66.5"/>
<text text-anchor="middle" x="558.5" y="-73.5" font-family="Helvetica,sans-Serif" font-size="10.00">sss::WebClient::SetMethod</text>
</a>
</g>
</g>
<!-- Node3&#45;&gt;Node17 -->
<g id="edge17" class="edge">
<title>Node3&#45;&gt;Node17</title>
<path fill="none" stroke="midnightblue" d="M378.75,-237.42C391.2,-210.5 430.31,-133.66 487,-95 489.92,-93.01 493.03,-91.23 496.27,-89.64"/>
<polygon fill="midnightblue" stroke="midnightblue" points="497.84,-92.77 505.65,-85.62 495.08,-86.34 497.84,-92.77"/>
</g>
<!-- Node18 -->
<g id="node18" class="node">
<title>Node18</title>
<g id="a_node18"><a xlink:href="group__Sign.html#ga3ae8e18ef70752b7369fca66c40c526b" target="_top" xlink:title="Sign headers.">
<polygon fill="none" stroke="black" points="511,-104.5 511,-123.5 606,-123.5 606,-104.5 511,-104.5"/>
<text text-anchor="middle" x="558.5" y="-111.5" font-family="Helvetica,sans-Serif" font-size="10.00">sss::SignHeaders</text>
</a>
</g>
</g>
<!-- Node3&#45;&gt;Node18 -->
<g id="edge20" class="edge">
<title>Node3&#45;&gt;Node18</title>
<path fill="none" stroke="midnightblue" d="M381.88,-237.39C398.46,-216.44 440.83,-166.23 487,-138 494.06,-133.68 501.99,-130.03 509.92,-126.97"/>
<polygon fill="midnightblue" stroke="midnightblue" points="511.3,-130.19 519.54,-123.53 508.94,-123.6 511.3,-130.19"/>
</g>
<!-- Node6 -->
<g id="node6" class="node">
<title>Node6</title>
<g id="a_node6"><a xlink:href="classsss_1_1WebClient.html#a381f5715b7a2f19a0d4414d278874bae" target="_top" xlink:title="Clear internal buffers.">
<polygon fill="none" stroke="black" points="681.5,-332.5 681.5,-351.5 825.5,-351.5 825.5,-332.5 681.5,-332.5"/>
<text text-anchor="middle" x="753.5" y="-339.5" font-family="Helvetica,sans-Serif" font-size="10.00">sss::WebClient::ClearBuffers</text>
</a>
</g>
</g>
<!-- Node5&#45;&gt;Node6 -->
<g id="edge5" class="edge">
<title>Node5&#45;&gt;Node6</title>
<path fill="none" stroke="midnightblue" d="M608.2,-370.41C634.36,-365.26 666.78,-358.88 694.27,-353.47"/>
<polygon fill="midnightblue" stroke="midnightblue" points="695.01,-356.89 704.15,-351.52 693.66,-350.02 695.01,-356.89"/>
</g>
<!-- Node7 -->
<g id="node7" class="node">
<title>Node7</title>
<g id="a_node7"><a xlink:href="classsss_1_1WebClient.html#a96837f149bb473853a6523d096a25c56" target="_top" xlink:title="Reset read/write functions to default.">
<polygon fill="none" stroke="black" points="666,-370.5 666,-389.5 841,-389.5 841,-370.5 666,-370.5"/>
<text text-anchor="middle" x="753.5" y="-377.5" font-family="Helvetica,sans-Serif" font-size="10.00">sss::WebClient::ResetRWFunctions</text>
</a>
</g>
</g>
<!-- Node5&#45;&gt;Node7 -->
<g id="edge6" class="edge">
<title>Node5&#45;&gt;Node7</title>
<path fill="none" stroke="midnightblue" d="M615.06,-380C627.79,-380 641.68,-380 655.58,-380"/>
<polygon fill="midnightblue" stroke="midnightblue" points="655.69,-383.5 665.69,-380 655.69,-376.5 655.69,-383.5"/>
</g>
<!-- Node5&#45;&gt;Node10 -->
<g id="edge9" class="edge">
<title>Node5&#45;&gt;Node10</title>
<path fill="none" stroke="midnightblue" d="M608.71,-370.49C616.13,-368.01 623.47,-364.9 630,-361 649.98,-349.08 649.24,-339.14 666,-323 688.27,-301.55 715.21,-278.27 733.04,-263.21"/>
<polygon fill="midnightblue" stroke="midnightblue" points="735.6,-265.63 741.01,-256.52 731.1,-260.27 735.6,-265.63"/>
</g>
<!-- Node5&#45;&gt;Node11 -->
<g id="edge10" class="edge">
<title>Node5&#45;&gt;Node11</title>
<path fill="none" stroke="midnightblue" d="M615.32,-371.11C620.74,-368.52 625.78,-365.21 630,-361 673.33,-317.72 628.25,-276.22 666,-228 678.04,-212.63 696.44,-201.44 713.19,-193.76"/>
<polygon fill="midnightblue" stroke="midnightblue" points="714.98,-196.79 722.79,-189.63 712.22,-190.36 714.98,-196.79"/>
</g>
<!-- Node5&#45;&gt;Node12 -->
<g id="edge11" class="edge">
<title>Node5&#45;&gt;Node12</title>
<path fill="none" stroke="midnightblue" d="M576.63,-389.7C597.5,-401.39 633.94,-421.41 666,-437 683.59,-445.55 703.56,-454.39 719.88,-461.38"/>
<polygon fill="midnightblue" stroke="midnightblue" points="718.94,-464.78 729.51,-465.48 721.68,-458.34 718.94,-464.78"/>
</g>
<!-- Node5&#45;&gt;Node13 -->
<g id="edge12" class="edge">
<title>Node5&#45;&gt;Node13</title>
<path fill="none" stroke="midnightblue" d="M608.2,-389.59C634.36,-394.74 666.78,-401.12 694.27,-406.53"/>
<polygon fill="midnightblue" stroke="midnightblue" points="693.66,-409.98 704.15,-408.48 695.01,-403.11 693.66,-409.98"/>
</g>
<!-- Node7&#45;&gt;Node8 -->
<g id="edge7" class="edge">
<title>Node7&#45;&gt;Node8</title>
<path fill="none" stroke="midnightblue" d="M807.2,-389.5C818.49,-392.11 830.25,-395.27 841,-399 873.95,-410.43 909.72,-428.7 933.03,-441.47"/>
<polygon fill="midnightblue" stroke="midnightblue" points="931.47,-444.61 941.91,-446.4 934.87,-438.48 931.47,-444.61"/>
</g>
<!-- Node7&#45;&gt;Node9 -->
<g id="edge8" class="edge">
<title>Node7&#45;&gt;Node9</title>
<path fill="none" stroke="midnightblue" d="M817.92,-370.47C825.95,-368.01 833.85,-364.9 841,-361 883.64,-337.72 921.11,-294.3 941.71,-267.4"/>
<polygon fill="midnightblue" stroke="midnightblue" points="944.59,-269.4 947.79,-259.3 938.99,-265.2 944.59,-269.4"/>
</g>
<!-- Node22 -->
<g id="node22" class="node">
<title>Node22</title>
<g id="a_node22"><a xlink:href="group__Internal.html#ga6e3db8d156313abef7e2c966df1a3d7c" target="_top" xlink:title=" ">
<polygon fill="none" stroke="black" points="516.5,-446.5 516.5,-465.5 600.5,-465.5 600.5,-446.5 516.5,-446.5"/>
<text text-anchor="middle" x="558.5" y="-453.5" font-family="Helvetica,sans-Serif" font-size="10.00">sss::UrlEncode</text>
</a>
</g>
</g>
<!-- Node21&#45;&gt;Node22 -->
<g id="edge25" class="edge">
<title>Node21&#45;&gt;Node22</title>
<path fill="none" stroke="midnightblue" d="M437.97,-306.07C442.74,-308.84 447.18,-312.12 451,-316 488.88,-354.45 449.35,-393.31 487,-432 492.52,-437.67 499.42,-442 506.74,-445.31"/>
<polygon fill="midnightblue" stroke="midnightblue" points="505.56,-448.6 516.15,-448.97 508.1,-442.08 505.56,-448.6"/>
</g>
<!-- Node23&#45;&gt;Node17 -->
<g id="edge28" class="edge">
<title>Node23&#45;&gt;Node17</title>
<path fill="none" stroke="midnightblue" d="M444.21,-79.71C455.77,-79.34 467.82,-78.94 479.57,-78.55"/>
<polygon fill="midnightblue" stroke="midnightblue" points="479.92,-82.05 489.8,-78.22 479.69,-75.05 479.92,-82.05"/>
</g>
<!-- Node23&#45;&gt;Node20 -->
<g id="edge27" class="edge">
<title>Node23&#45;&gt;Node20</title>
<path fill="none" stroke="midnightblue" d="M436.97,-66.98C460.22,-61.39 486.27,-55.13 508.18,-49.86"/>
<polygon fill="midnightblue" stroke="midnightblue" points="509.03,-53.25 517.94,-47.51 507.4,-46.45 509.03,-53.25"/>
</g>
</g>
</svg>
        <g id="navigator" transform="translate(0 0)" fill="#404254">
                <rect fill="#f2f5e9" fill-opacity="0.5" stroke="#606060" stroke-width=".5" x="0" y="0" width="60" height="60"/>
                <use id="zoomplus" xlink:href="#zoomPlus" x="17" y="9" onmousedown="handleZoom(evt,'in')"/>
                <use id="zoomminus" xlink:href="#zoomMin" x="42" y="9" onmousedown="handleZoom(evt,'out')"/>
                <use id="reset" xlink:href="#resetDef" x="30" y="36" onmousedown="handleReset()"/>
                <g id="arrowUp" xlink:href="#dirArrow" transform="translate(30 24)" onmousedown="handlePan(0,-1)">
                  <use xlink:href="#rim" fill="#404040">
                        <set attributeName="fill" to="#808080" begin="arrowUp.mouseover" end="arrowUp.mouseout"/>
                  </use>
                  <path fill="none" stroke="white" stroke-width="1.5" d="M0,-3.0v7 M-2.5,-0.5L0,-3.0L2.5,-0.5"/>
                </g>
                <g id="arrowRight" xlink:href="#dirArrow" transform="rotate(90) translate(36 -43)" onmousedown="handlePan(1,0)">
                  <use xlink:href="#rim" fill="#404040">
                        <set attributeName="fill" to="#808080" begin="arrowRight.mouseover" end="arrowRight.mouseout"/>
                  </use>
                  <path fill="none" stroke="white" stroke-width="1.5" d="M0,-3.0v7 M-2.5,-0.5L0,-3.0L2.5,-0.5"/>
                </g>
                <g id="arrowDown" xlink:href="#dirArrow" transform="rotate(180) translate(-30 -48)" onmousedown="handlePan(0,1)">
                  <use xlink:href="#rim" fill="#404040">
                        <set attributeName="fill" to="#808080" begin="arrowDown.mouseover" end="arrowDown.mouseout"/>
                  </use>
                  <path fill="none" stroke="white" stroke-width="1.5" d="M0,-3.0v7 M-2.5,-0.5L0,-3.0L2.5,-0.5"/>
                </g>
                <g id="arrowLeft" xlink:href="#dirArrow" transform="rotate(270) translate(-36 17)" onmousedown="handlePan(-1,0)">
                  <use xlink:href="#rim" fill="#404040">
                        <set attributeName="fill" to="#808080" begin="arrowLeft.mouseover" end="arrowLeft.mouseout"/>
                  </use>
                  <path fill="none" stroke="white" stroke-width="1.5" d="M0,-3.0v7 M-2.5,-0.5L0,-3.0L2.5,-0.5"/>
                </g>
        </g>
        <svg viewBox="0 0 15 15" width="100%" height="30px" preserveAspectRatio="xMaxYMin meet">
         <g id="arrow_out" transform="scale(0.3 0.3)">
          <a xlink:href="classsss_1_1api_1_1S3Api_a0473917e4d25a4a6fca40d097e4299d6_cgraph_org.svg" target="_base">
           <rect id="button" ry="5" rx="5" y="6" x="6" height="38" width="38"
                fill="#f2f5e9" fill-opacity="0.5" stroke="#606060" stroke-width="1.0"/>
           <path id="arrow"
             d="M 11.500037,31.436501 C 11.940474,20.09759 22.043105,11.32322 32.158766,21.979434 L 37.068811,17.246167 C 37.068811,17.246167 37.088388,32 37.088388,32 L 22.160133,31.978069 C 22.160133,31.978069 26.997745,27.140456 26.997745,27.140456 C 18.528582,18.264221 13.291696,25.230495 11.500037,31.436501 z"
             style="fill:#404040;"/>
          </a>
         </g>
        </svg>
</svg>
