<?xml version="1.0" encoding="UTF-8" standalone="no"?>
<!DOCTYPE svg PUBLIC "-//W3C//DTD SVG 1.1//EN"
 "http://www.w3.org/Graphics/SVG/1.1/DTD/svg11.dtd">
<!-- Generated by graphviz version 2.43.0 (0)
 -->
<!-- Title: sss::WebClient::GetResponseBody Pages: 1 -->
<svg width="580pt" height="241pt"
 viewBox="0.00 0.00 580.00 240.50" xmlns="http://www.w3.org/2000/svg" xmlns:xlink="http://www.w3.org/1999/xlink">
<g id="graph0" class="graph" transform="scale(1 1) rotate(0) translate(4 236.5)">
<title>sss::WebClient::GetResponseBody</title>
<!-- Node1 -->
<g id="node1" class="node">
<title>Node1</title>
<g id="a_node1"><a xlink:title=" ">
<polygon fill="#bfbfbf" stroke="black" points="400,-57.5 400,-76.5 572,-76.5 572,-57.5 400,-57.5"/>
<text text-anchor="middle" x="486" y="-64.5" font-family="Helvetica,sans-Serif" font-size="10.00">sss::WebClient::GetResponseBody</text>
</a>
</g>
</g>
<!-- Node2 -->
<g id="node2" class="node">
<title>Node2</title>
<g id="a_node2"><a xlink:href="classsss_1_1WebClient.html#ac9e82fc4b56b142d91f9b104f5266f91" target="_top" xlink:title="Get response body as text.">
<polygon fill="none" stroke="black" points="199,-95.5 199,-114.5 357,-114.5 357,-95.5 199,-95.5"/>
<text text-anchor="middle" x="278" y="-102.5" font-family="Helvetica,sans-Serif" font-size="10.00">sss::WebClient::GetContentText</text>
</a>
</g>
</g>
<!-- Node1&#45;&gt;Node2 -->
<g id="edge1" class="edge">
<title>Node1&#45;&gt;Node2</title>
<path fill="none" stroke="midnightblue" d="M423.1,-78.42C393.63,-83.86 358.78,-90.28 330.74,-95.46"/>
<polygon fill="midnightblue" stroke="midnightblue" points="424.08,-81.8 433.28,-76.54 422.81,-74.91 424.08,-81.8"/>
</g>
<!-- Node9 -->
<g id="node9" class="node">
<title>Node9</title>
<g id="a_node9"><a xlink:href="classsss_1_1api_1_1S3Api.html#af61465d92c0a94aa82ae863fc2a776a0" target="_top" xlink:title=" ">
<polygon fill="none" stroke="black" points="211,-57.5 211,-76.5 345,-76.5 345,-57.5 211,-57.5"/>
<text text-anchor="middle" x="278" y="-64.5" font-family="Helvetica,sans-Serif" font-size="10.00">sss::api::S3Api::GetObject</text>
</a>
</g>
</g>
<!-- Node1&#45;&gt;Node9 -->
<g id="edge8" class="edge">
<title>Node1&#45;&gt;Node9</title>
<path fill="none" stroke="midnightblue" d="M389.39,-67C374.38,-67 359.17,-67 345.03,-67"/>
<polygon fill="midnightblue" stroke="midnightblue" points="389.72,-70.5 399.72,-67 389.72,-63.5 389.72,-70.5"/>
</g>
<!-- Node10 -->
<g id="node10" class="node">
<title>Node10</title>
<g id="a_node10"><a xlink:href="classsss_1_1api_1_1S3Api.html#a83364bc622245c0396a3bbc46399baf4" target="_top" xlink:title=" ">
<polygon fill="none" stroke="black" points="192,-19.5 192,-38.5 364,-38.5 364,-19.5 192,-19.5"/>
<text text-anchor="middle" x="278" y="-26.5" font-family="Helvetica,sans-Serif" font-size="10.00">sss::api::S3Api::GetResponseBody</text>
</a>
</g>
</g>
<!-- Node1&#45;&gt;Node10 -->
<g id="edge9" class="edge">
<title>Node1&#45;&gt;Node10</title>
<path fill="none" stroke="midnightblue" d="M423.1,-55.58C393.63,-50.14 358.78,-43.72 330.74,-38.54"/>
<polygon fill="midnightblue" stroke="midnightblue" points="422.81,-59.09 433.28,-57.46 424.08,-52.2 422.81,-59.09"/>
</g>
<!-- Node3 -->
<g id="node3" class="node">
<title>Node3</title>
<g id="a_node3"><a xlink:href="classsss_1_1api_1_1S3Api.html#a98f999a216121118dd569c7ef0c28ff3" target="_top" xlink:title=" ">
<polygon fill="none" stroke="black" points="12.5,-202 12.5,-232 143.5,-232 143.5,-202 12.5,-202"/>
<text text-anchor="start" x="20.5" y="-220" font-family="Helvetica,sans-Serif" font-size="10.00">sss::api::S3Api::Complete</text>
<text text-anchor="middle" x="78" y="-209" font-family="Helvetica,sans-Serif" font-size="10.00">MultipartUpload</text>
</a>
</g>
</g>
<!-- Node2&#45;&gt;Node3 -->
<g id="edge2" class="edge">
<title>Node2&#45;&gt;Node3</title>
<path fill="none" stroke="midnightblue" d="M258.67,-121.32C235.99,-140.78 195.52,-173.15 156,-193 149.37,-196.33 142.18,-199.31 134.96,-201.94"/>
<polygon fill="midnightblue" stroke="midnightblue" points="261.2,-123.76 266.45,-114.55 256.61,-118.48 261.2,-123.76"/>
</g>
<!-- Node4 -->
<g id="node4" class="node">
<title>Node4</title>
<g id="a_node4"><a xlink:href="classsss_1_1api_1_1S3Api.html#a1796fafda3d90a4292a611ce1999433b" target="_top" xlink:title=" ">
<polygon fill="none" stroke="black" points="0,-153 0,-183 156,-183 156,-153 0,-153"/>
<text text-anchor="start" x="8" y="-171" font-family="Helvetica,sans-Serif" font-size="10.00">sss::api::S3Api::CreateMultipart</text>
<text text-anchor="middle" x="78" y="-160" font-family="Helvetica,sans-Serif" font-size="10.00">Upload</text>
</a>
</g>
</g>
<!-- Node2&#45;&gt;Node4 -->
<g id="edge3" class="edge">
<title>Node2&#45;&gt;Node4</title>
<path fill="none" stroke="midnightblue" d="M237.03,-117.72C205.05,-127.89 160.13,-142.19 126.35,-152.93"/>
<polygon fill="midnightblue" stroke="midnightblue" points="238.46,-120.94 246.93,-114.57 236.34,-114.27 238.46,-120.94"/>
</g>
<!-- Node5 -->
<g id="node5" class="node">
<title>Node5</title>
<g id="a_node5"><a xlink:href="classsss_1_1api_1_1S3Api.html#a3b53152bf39143843a4033aa4a1b3fa0" target="_top" xlink:title=" ">
<polygon fill="none" stroke="black" points="3,-114.5 3,-133.5 153,-133.5 153,-114.5 3,-114.5"/>
<text text-anchor="middle" x="78" y="-121.5" font-family="Helvetica,sans-Serif" font-size="10.00">sss::api::S3Api::GetBucketAcl</text>
</a>
</g>
</g>
<!-- Node2&#45;&gt;Node5 -->
<g id="edge4" class="edge">
<title>Node2&#45;&gt;Node5</title>
<path fill="none" stroke="midnightblue" d="M188.45,-113.5C176.65,-114.63 164.65,-115.78 153.14,-116.89"/>
<polygon fill="midnightblue" stroke="midnightblue" points="189.13,-116.95 198.75,-112.51 188.46,-109.98 189.13,-116.95"/>
</g>
<!-- Node6 -->
<g id="node6" class="node">
<title>Node6</title>
<g id="a_node6"><a xlink:href="classsss_1_1api_1_1S3Api.html#aa4a2b1cc2c89a52d1aa89e571b785db2" target="_top" xlink:title=" ">
<polygon fill="none" stroke="black" points="6.5,-76.5 6.5,-95.5 149.5,-95.5 149.5,-76.5 6.5,-76.5"/>
<text text-anchor="middle" x="78" y="-83.5" font-family="Helvetica,sans-Serif" font-size="10.00">sss::api::S3Api::HeadBucket</text>
</a>
</g>
</g>
<!-- Node2&#45;&gt;Node6 -->
<g id="edge5" class="edge">
<title>Node2&#45;&gt;Node6</title>
<path fill="none" stroke="midnightblue" d="M188.78,-96.53C175.67,-95.28 162.31,-93.99 149.62,-92.78"/>
<polygon fill="midnightblue" stroke="midnightblue" points="188.46,-100.02 198.75,-97.49 189.13,-93.05 188.46,-100.02"/>
</g>
<!-- Node7 -->
<g id="node7" class="node">
<title>Node7</title>
<g id="a_node7"><a xlink:href="classsss_1_1api_1_1S3Api.html#a81e30673c06b609a2ee6e6bfd9130ca6" target="_top" xlink:title=" ">
<polygon fill="none" stroke="black" points="7.5,-38.5 7.5,-57.5 148.5,-57.5 148.5,-38.5 7.5,-38.5"/>
<text text-anchor="middle" x="78" y="-45.5" font-family="Helvetica,sans-Serif" font-size="10.00">sss::api::S3Api::ListBuckets</text>
</a>
</g>
</g>
<!-- Node2&#45;&gt;Node7 -->
<g id="edge6" class="edge">
<title>Node2&#45;&gt;Node7</title>
<path fill="none" stroke="midnightblue" d="M214.53,-93.04C206.85,-90.99 199.18,-88.64 192,-86 175.02,-79.75 172.91,-73.44 156,-67 146.35,-63.33 135.74,-60.17 125.57,-57.55"/>
<polygon fill="midnightblue" stroke="midnightblue" points="213.67,-96.43 224.22,-95.49 215.39,-89.65 213.67,-96.43"/>
</g>
<!-- Node8 -->
<g id="node8" class="node">
<title>Node8</title>
<g id="a_node8"><a xlink:href="classsss_1_1api_1_1S3Api.html#a3f00f611cd210a58ac6e8c0555984433" target="_top" xlink:title=" ">
<polygon fill="none" stroke="black" points="2.5,-0.5 2.5,-19.5 153.5,-19.5 153.5,-0.5 2.5,-0.5"/>
<text text-anchor="middle" x="78" y="-7.5" font-family="Helvetica,sans-Serif" font-size="10.00">sss::api::S3Api::ListObjectsV2</text>
</a>
</g>
</g>
<!-- Node2&#45;&gt;Node8 -->
<g id="edge7" class="edge">
<title>Node2&#45;&gt;Node8</title>
<path fill="none" stroke="midnightblue" d="M200.59,-91.2C197.6,-89.64 194.72,-87.92 192,-86 167.5,-68.74 180.3,-46.52 156,-29 150.64,-25.13 144.58,-22.05 138.28,-19.59"/>
<polygon fill="midnightblue" stroke="midnightblue" points="199.31,-94.46 209.86,-95.37 202.18,-88.08 199.31,-94.46"/>
</g>
</g>
</svg>
