<?xml version="1.0" encoding="UTF-8" standalone="no"?>
<!DOCTYPE svg PUBLIC "-//W3C//DTD SVG 1.1//EN"
 "http://www.w3.org/Graphics/SVG/1.1/DTD/svg11.dtd">
<!-- Generated by graphviz version 2.43.0 (0)
 -->
<!-- Title: sss::WebClient::GetResponseHeader Pages: 1 -->
<svg width="722pt" height="166pt"
 viewBox="0.00 0.00 722.00 165.50" xmlns="http://www.w3.org/2000/svg" xmlns:xlink="http://www.w3.org/1999/xlink">
<g id="graph0" class="graph" transform="scale(1 1) rotate(0) translate(4 161.5)">
<title>sss::WebClient::GetResponseHeader</title>
<!-- Node1 -->
<g id="node1" class="node">
<title>Node1</title>
<g id="a_node1"><a xlink:title=" ">
<polygon fill="#bfbfbf" stroke="black" points="565,-66.5 565,-96.5 714,-96.5 714,-66.5 565,-66.5"/>
<text text-anchor="start" x="573" y="-84.5" font-family="Helvetica,sans-Serif" font-size="10.00">sss::WebClient::GetResponse</text>
<text text-anchor="middle" x="639.5" y="-73.5" font-family="Helvetica,sans-Serif" font-size="10.00">Header</text>
</a>
</g>
</g>
<!-- Node2 -->
<g id="node2" class="node">
<title>Node2</title>
<g id="a_node2"><a xlink:href="classsss_1_1WebClient.html#a42af351286f1fa68c3385d81f0bc2015" target="_top" xlink:title=" ">
<polygon fill="none" stroke="black" points="374,-72 374,-91 529,-91 529,-72 374,-72"/>
<text text-anchor="middle" x="451.5" y="-79" font-family="Helvetica,sans-Serif" font-size="10.00">sss::WebClient::GetHeaderText</text>
</a>
</g>
</g>
<!-- Node1&#45;&gt;Node2 -->
<g id="edge1" class="edge">
<title>Node1&#45;&gt;Node2</title>
<path fill="none" stroke="midnightblue" d="M554.96,-81.5C546.37,-81.5 537.66,-81.5 529.14,-81.5"/>
<polygon fill="midnightblue" stroke="midnightblue" points="554.99,-85 564.99,-81.5 554.99,-78 554.99,-85"/>
</g>
<!-- Node3 -->
<g id="node3" class="node">
<title>Node3</title>
<g id="a_node3"><a xlink:href="classsss_1_1api_1_1S3Api.html#abea2ccea14a042c7c0d4b2ce5266ea5f" target="_top" xlink:title="Create bucket.">
<polygon fill="none" stroke="black" points="189,-138 189,-157 338,-157 338,-138 189,-138"/>
<text text-anchor="middle" x="263.5" y="-145" font-family="Helvetica,sans-Serif" font-size="10.00">sss::api::S3Api::CreateBucket</text>
</a>
</g>
</g>
<!-- Node2&#45;&gt;Node3 -->
<g id="edge2" class="edge">
<title>Node2&#45;&gt;Node3</title>
<path fill="none" stroke="midnightblue" d="M420.8,-95.28C398.37,-105.35 366.66,-118.86 338,-128.5 327.63,-131.99 316.26,-135.21 305.63,-137.97"/>
<polygon fill="midnightblue" stroke="midnightblue" points="422.44,-98.38 430.1,-91.06 419.55,-92 422.44,-98.38"/>
</g>
<!-- Node4 -->
<g id="node4" class="node">
<title>Node4</title>
<g id="a_node4"><a xlink:href="classsss_1_1api_1_1S3Api.html#a834e046a52178dcf540509df828b024f" target="_top" xlink:title="Get returned HTTP headers. Use this method to retrieve additional information e.g....">
<polygon fill="none" stroke="black" points="189,-88.5 189,-118.5 338,-118.5 338,-88.5 189,-88.5"/>
<text text-anchor="start" x="197" y="-106.5" font-family="Helvetica,sans-Serif" font-size="10.00">sss::api::S3Api::GetResponse</text>
<text text-anchor="middle" x="263.5" y="-95.5" font-family="Helvetica,sans-Serif" font-size="10.00">Headers</text>
</a>
</g>
</g>
<!-- Node2&#45;&gt;Node4 -->
<g id="edge3" class="edge">
<title>Node2&#45;&gt;Node4</title>
<path fill="none" stroke="midnightblue" d="M363.74,-91.76C355.15,-92.78 346.49,-93.8 338.06,-94.8"/>
<polygon fill="midnightblue" stroke="midnightblue" points="364.25,-95.23 373.77,-90.58 363.43,-88.27 364.25,-95.23"/>
</g>
<!-- Node5 -->
<g id="node5" class="node">
<title>Node5</title>
<g id="a_node5"><a xlink:href="classsss_1_1api_1_1S3Api.html#a0382afb5f4a42d477af76ea322324ddd" target="_top" xlink:title="Send HeadObject request.">
<polygon fill="none" stroke="black" points="193,-50 193,-69 334,-69 334,-50 193,-50"/>
<text text-anchor="middle" x="263.5" y="-57" font-family="Helvetica,sans-Serif" font-size="10.00">sss::api::S3Api::HeadObject</text>
</a>
</g>
</g>
<!-- Node2&#45;&gt;Node5 -->
<g id="edge4" class="edge">
<title>Node2&#45;&gt;Node5</title>
<path fill="none" stroke="midnightblue" d="M363.56,-71.22C353.72,-70.05 343.78,-68.88 334.2,-67.74"/>
<polygon fill="midnightblue" stroke="midnightblue" points="363.43,-74.73 373.77,-72.42 364.25,-67.77 363.43,-74.73"/>
</g>
<!-- Node8 -->
<g id="node8" class="node">
<title>Node8</title>
<g id="a_node8"><a xlink:href="classsss_1_1api_1_1S3Api.html#ab7affe0834f5892b393e731783b7ccac" target="_top" xlink:title="Upload file to object.">
<polygon fill="none" stroke="black" points="203.5,-0.5 203.5,-30.5 323.5,-30.5 323.5,-0.5 203.5,-0.5"/>
<text text-anchor="start" x="211.5" y="-18.5" font-family="Helvetica,sans-Serif" font-size="10.00">sss::api::S3Api::PutFile</text>
<text text-anchor="middle" x="263.5" y="-7.5" font-family="Helvetica,sans-Serif" font-size="10.00">Object</text>
</a>
</g>
</g>
<!-- Node2&#45;&gt;Node8 -->
<g id="edge7" class="edge">
<title>Node2&#45;&gt;Node8</title>
<path fill="none" stroke="midnightblue" d="M415.01,-68.34C392.9,-60.2 363.84,-49.6 338,-40.5 328.72,-37.23 318.76,-33.79 309.25,-30.55"/>
<polygon fill="midnightblue" stroke="midnightblue" points="414.05,-71.72 424.64,-71.9 416.47,-65.15 414.05,-71.72"/>
</g>
<!-- Node6 -->
<g id="node6" class="node">
<title>Node6</title>
<g id="a_node6"><a xlink:href="classsss_1_1api_1_1S3Api.html#ae6a826615a079564b77bb680b6b75a34" target="_top" xlink:title="Return object size.">
<polygon fill="none" stroke="black" points="0,-69 0,-88 153,-88 153,-69 0,-69"/>
<text text-anchor="middle" x="76.5" y="-76" font-family="Helvetica,sans-Serif" font-size="10.00">sss::api::S3Api::GetObjectSize</text>
</a>
</g>
</g>
<!-- Node5&#45;&gt;Node6 -->
<g id="edge5" class="edge">
<title>Node5&#45;&gt;Node6</title>
<path fill="none" stroke="midnightblue" d="M182.73,-67.69C172.97,-68.7 163.01,-69.72 153.3,-70.71"/>
<polygon fill="midnightblue" stroke="midnightblue" points="183.23,-71.16 192.82,-66.66 182.52,-64.2 183.23,-71.16"/>
</g>
<!-- Node7 -->
<g id="node7" class="node">
<title>Node7</title>
<g id="a_node7"><a xlink:href="classsss_1_1api_1_1S3Api.html#aa3f7a3001bdad58c7b0c04cbd0dc3236" target="_top" xlink:title="Check if key exists.">
<polygon fill="none" stroke="black" points="8,-31 8,-50 145,-50 145,-31 8,-31"/>
<text text-anchor="middle" x="76.5" y="-38" font-family="Helvetica,sans-Serif" font-size="10.00">sss::api::S3Api::TestObject</text>
</a>
</g>
</g>
<!-- Node5&#45;&gt;Node7 -->
<g id="edge6" class="edge">
<title>Node5&#45;&gt;Node7</title>
<path fill="none" stroke="midnightblue" d="M182.87,-51.32C170.34,-50.04 157.5,-48.72 145.28,-47.46"/>
<polygon fill="midnightblue" stroke="midnightblue" points="182.52,-54.8 192.82,-52.34 183.23,-47.84 182.52,-54.8"/>
</g>
</g>
</svg>
