<?xml version="1.0" encoding="UTF-8" standalone="no"?>
<!DOCTYPE svg PUBLIC "-//W3C//DTD SVG 1.1//EN"
 "http://www.w3.org/Graphics/SVG/1.1/DTD/svg11.dtd">
<!-- Generated by graphviz version 8.0.5 (20230430.1635)
 -->
<!-- Title: XMLOStream::Up Pages: 1 -->
<svg width="419pt" height="101pt"
 viewBox="0.00 0.00 419.00 101.25" xmlns="http://www.w3.org/2000/svg" xmlns:xlink="http://www.w3.org/1999/xlink">
<g id="graph0" class="graph" transform="scale(1 1) rotate(0) translate(4 97.25)">
<title>XMLOStream::Up</title>
<!-- Node1 -->
<g id="node1" class="node">
<title>Node1</title>
<g id="a_node1"><a xlink:title=" ">
<polygon fill="#999999" stroke="#666666" points="411,-56.25 317,-56.25 317,-37 411,-37 411,-56.25"/>
<text text-anchor="middle" x="364" y="-42.75" font-family="Helvetica,sans-Serif" font-size="10.00">XMLOStream::Up</text>
</a>
</g>
</g>
<!-- Node2 -->
<g id="node2" class="node">
<title>Node2</title>
<g id="a_node2"><a xlink:href="classXMLOStream.html#a27d978458c31cd4352c9c3e323e7ed77" target="_top" xlink:title=" ">
<polygon fill="white" stroke="#666666" points="272.38,-93.25 167.12,-93.25 167.12,-74 272.38,-74 272.38,-93.25"/>
<text text-anchor="middle" x="219.75" y="-79.75" font-family="Helvetica,sans-Serif" font-size="10.00">XMLOStream::Move</text>
</a>
</g>
</g>
<!-- Node1&#45;&gt;Node2 -->
<g id="edge1" class="edge">
<title>Node1&#45;&gt;Node2</title>
<path fill="none" stroke="#63b8ff" d="M313.94,-59.39C296.16,-64.01 276.35,-69.16 259.57,-73.53"/>
<polygon fill="#63b8ff" stroke="#63b8ff" points="314.33,-62.64 323.13,-56.74 312.57,-55.87 314.33,-62.64"/>
</g>
<!-- Node4 -->
<g id="node4" class="node">
<title>Node4</title>
<g id="a_node4"><a xlink:href="classXMLOStream.html#aef908509b30a9a5f074f55fb8eab2227" target="_top" xlink:title=" ">
<polygon fill="white" stroke="#666666" points="281,-56.25 158.5,-56.25 158.5,-37 281,-37 281,-56.25"/>
<text text-anchor="middle" x="219.75" y="-42.75" font-family="Helvetica,sans-Serif" font-size="10.00">XMLOStream::operator=</text>
</a>
</g>
</g>
<!-- Node1&#45;&gt;Node4 -->
<g id="edge3" class="edge">
<title>Node1&#45;&gt;Node4</title>
<path fill="none" stroke="#63b8ff" d="M306,-46.62C297.93,-46.62 289.6,-46.62 281.46,-46.62"/>
<polygon fill="#63b8ff" stroke="#63b8ff" points="305.82,-50.13 315.82,-46.62 305.82,-43.13 305.82,-50.13"/>
</g>
<!-- Node5 -->
<g id="node5" class="node">
<title>Node5</title>
<g id="a_node5"><a xlink:href="classXMLOStream.html#a72f55ffefe31581af241c18faea75da4" target="_top" xlink:title=" ">
<polygon fill="white" stroke="#666666" points="281,-19.25 158.5,-19.25 158.5,0 281,0 281,-19.25"/>
<text text-anchor="middle" x="219.75" y="-5.75" font-family="Helvetica,sans-Serif" font-size="10.00">XMLOStream::operator[]</text>
</a>
</g>
</g>
<!-- Node1&#45;&gt;Node5 -->
<g id="edge4" class="edge">
<title>Node1&#45;&gt;Node5</title>
<path fill="none" stroke="#63b8ff" d="M313.94,-33.86C296.16,-29.24 276.35,-24.09 259.57,-19.72"/>
<polygon fill="#63b8ff" stroke="#63b8ff" points="312.57,-37.38 323.13,-36.51 314.33,-30.61 312.57,-37.38"/>
</g>
<!-- Node3 -->
<g id="node3" class="node">
<title>Node3</title>
<g id="a_node3"><a xlink:href="classXMLOStream.html#a1b52abcd6529538845ea9632bb611fd1" target="_top" xlink:title="Invoke Insert(MoveAction) method.">
<polygon fill="white" stroke="#666666" points="122.5,-93.25 0,-93.25 0,-74 122.5,-74 122.5,-93.25"/>
<text text-anchor="middle" x="61.25" y="-79.75" font-family="Helvetica,sans-Serif" font-size="10.00">XMLOStream::operator[]</text>
</a>
</g>
</g>
<!-- Node2&#45;&gt;Node3 -->
<g id="edge2" class="edge">
<title>Node2&#45;&gt;Node3</title>
<path fill="none" stroke="#63b8ff" d="M155.9,-83.62C144.98,-83.62 133.65,-83.62 122.8,-83.62"/>
<polygon fill="#63b8ff" stroke="#63b8ff" points="155.64,-87.13 165.64,-83.62 155.64,-80.13 155.64,-87.13"/>
</g>
</g>
</svg>
