<?xml version="1.0" encoding="UTF-8" standalone="no"?>
<!DOCTYPE svg PUBLIC "-//W3C//DTD SVG 1.1//EN"
 "http://www.w3.org/Graphics/SVG/1.1/DTD/svg11.dtd">
<!-- Generated by graphviz version 2.43.0 (0)
 -->
<!-- Title: sss::api::S3Api::Endpoint Pages: 1 -->
<svg width="828pt" height="671pt"
 viewBox="0.00 0.00 828.00 670.50" xmlns="http://www.w3.org/2000/svg" xmlns:xlink="http://www.w3.org/1999/xlink">
<g id="graph0" class="graph" transform="scale(1 1) rotate(0) translate(4 666.5)">
<title>sss::api::S3Api::Endpoint</title>
<!-- Node1 -->
<g id="node1" class="node">
<title>Node1</title>
<g id="a_node1"><a xlink:title=" ">
<polygon fill="#bfbfbf" stroke="black" points="692,-348.5 692,-367.5 820,-367.5 820,-348.5 692,-348.5"/>
<text text-anchor="middle" x="756" y="-355.5" font-family="Helvetica,sans-Serif" font-size="10.00">sss::api::S3Api::Endpoint</text>
</a>
</g>
</g>
<!-- Node2 -->
<g id="node2" class="node">
<title>Node2</title>
<g id="a_node2"><a xlink:href="classsss_1_1api_1_1S3Api.html#a840772746fbb0a79c161037da7b24a31" target="_top" xlink:title="Configure instance.">
<polygon fill="none" stroke="black" points="538,-348.5 538,-367.5 656,-367.5 656,-348.5 538,-348.5"/>
<text text-anchor="middle" x="597" y="-355.5" font-family="Helvetica,sans-Serif" font-size="10.00">sss::api::S3Api::Config</text>
</a>
</g>
</g>
<!-- Node1&#45;&gt;Node2 -->
<g id="edge1" class="edge">
<title>Node1&#45;&gt;Node2</title>
<path fill="none" stroke="midnightblue" d="M681.32,-358C672.84,-358 664.29,-358 656.06,-358"/>
<polygon fill="midnightblue" stroke="midnightblue" points="681.59,-361.5 691.59,-358 681.59,-354.5 681.59,-361.5"/>
</g>
<!-- Node3 -->
<g id="node3" class="node">
<title>Node3</title>
<g id="a_node3"><a xlink:href="classsss_1_1api_1_1S3Api.html#a1196f1cb9ce1e5d69336e9b8dbb5d59c" target="_top" xlink:title="Download object into file.">
<polygon fill="none" stroke="black" points="381,-392 381,-422 502,-422 502,-392 381,-392"/>
<text text-anchor="start" x="389" y="-410" font-family="Helvetica,sans-Serif" font-size="10.00">sss::api::S3Api::GetFile</text>
<text text-anchor="middle" x="441.5" y="-399" font-family="Helvetica,sans-Serif" font-size="10.00">Object</text>
</a>
</g>
</g>
<!-- Node2&#45;&gt;Node3 -->
<g id="edge2" class="edge">
<title>Node2&#45;&gt;Node3</title>
<path fill="none" stroke="midnightblue" d="M556.43,-370.63C536.03,-377.14 511,-385.13 489.61,-391.96"/>
<polygon fill="midnightblue" stroke="midnightblue" points="557.58,-373.94 566.04,-367.56 555.45,-367.27 557.58,-373.94"/>
</g>
<!-- Node4 -->
<g id="node4" class="node">
<title>Node4</title>
<g id="a_node4"><a xlink:href="classsss_1_1api_1_1S3Api.html#ab7affe0834f5892b393e731783b7ccac" target="_top" xlink:title="Upload file to object.">
<polygon fill="none" stroke="black" points="381.5,-343 381.5,-373 501.5,-373 501.5,-343 381.5,-343"/>
<text text-anchor="start" x="389.5" y="-361" font-family="Helvetica,sans-Serif" font-size="10.00">sss::api::S3Api::PutFile</text>
<text text-anchor="middle" x="441.5" y="-350" font-family="Helvetica,sans-Serif" font-size="10.00">Object</text>
</a>
</g>
</g>
<!-- Node2&#45;&gt;Node4 -->
<g id="edge3" class="edge">
<title>Node2&#45;&gt;Node4</title>
<path fill="none" stroke="midnightblue" d="M527.82,-358C519.09,-358 510.2,-358 501.63,-358"/>
<polygon fill="midnightblue" stroke="midnightblue" points="527.97,-361.5 537.97,-358 527.97,-354.5 527.97,-361.5"/>
</g>
<!-- Node5 -->
<g id="node5" class="node">
<title>Node5</title>
<g id="a_node5"><a xlink:href="classsss_1_1api_1_1S3Api.html#a02b4f0c95255f151beb72f0a6bdf5889" target="_top" xlink:title="Send request.">
<polygon fill="none" stroke="black" points="385.5,-304.5 385.5,-323.5 497.5,-323.5 497.5,-304.5 385.5,-304.5"/>
<text text-anchor="middle" x="441.5" y="-311.5" font-family="Helvetica,sans-Serif" font-size="10.00">sss::api::S3Api::Send</text>
</a>
</g>
</g>
<!-- Node2&#45;&gt;Node5 -->
<g id="edge4" class="edge">
<title>Node2&#45;&gt;Node5</title>
<path fill="none" stroke="midnightblue" d="M552.95,-345.66C528.5,-338.65 498.36,-330.01 475.74,-323.53"/>
<polygon fill="midnightblue" stroke="midnightblue" points="552.12,-349.06 562.69,-348.45 554.04,-342.33 552.12,-349.06"/>
</g>
<!-- Node6 -->
<g id="node6" class="node">
<title>Node6</title>
<g id="a_node6"><a xlink:href="classsss_1_1api_1_1S3Api.html#a4ea265566c3c4335ec01201cdc4410c6" target="_top" xlink:title="Abort multipart upload.">
<polygon fill="none" stroke="black" points="192,-632 192,-662 342,-662 342,-632 192,-632"/>
<text text-anchor="start" x="200" y="-650" font-family="Helvetica,sans-Serif" font-size="10.00">sss::api::S3Api::AbortMultipart</text>
<text text-anchor="middle" x="267" y="-639" font-family="Helvetica,sans-Serif" font-size="10.00">Upload</text>
</a>
</g>
</g>
<!-- Node5&#45;&gt;Node6 -->
<g id="edge5" class="edge">
<title>Node5&#45;&gt;Node6</title>
<path fill="none" stroke="midnightblue" d="M385.83,-329.11C384.08,-330.59 382.46,-332.22 381,-334 299.09,-434.22 428.02,-523.69 345,-623 342.13,-626.44 338.77,-629.39 335.09,-631.93"/>
<polygon fill="midnightblue" stroke="midnightblue" points="387.84,-331.98 394.2,-323.5 383.94,-326.16 387.84,-331.98"/>
</g>
<!-- Node7 -->
<g id="node7" class="node">
<title>Node7</title>
<g id="a_node7"><a xlink:href="classsss_1_1api_1_1S3Api.html#a98f999a216121118dd569c7ef0c28ff3" target="_top" xlink:title="Complete multipart upload.">
<polygon fill="none" stroke="black" points="201.5,-583 201.5,-613 332.5,-613 332.5,-583 201.5,-583"/>
<text text-anchor="start" x="209.5" y="-601" font-family="Helvetica,sans-Serif" font-size="10.00">sss::api::S3Api::Complete</text>
<text text-anchor="middle" x="267" y="-590" font-family="Helvetica,sans-Serif" font-size="10.00">MultipartUpload</text>
</a>
</g>
</g>
<!-- Node5&#45;&gt;Node7 -->
<g id="edge6" class="edge">
<title>Node5&#45;&gt;Node7</title>
<path fill="none" stroke="midnightblue" d="M385.89,-329.16C384.12,-330.63 382.48,-332.24 381,-334 311.96,-416.3 414.46,-491.06 345,-573 341.46,-577.18 337.2,-580.67 332.54,-583.58"/>
<polygon fill="midnightblue" stroke="midnightblue" points="387.9,-332.03 394.31,-323.59 384.03,-326.19 387.9,-332.03"/>
</g>
<!-- Node8 -->
<g id="node8" class="node">
<title>Node8</title>
<g id="a_node8"><a xlink:href="classsss_1_1api_1_1S3Api.html#ad890bd1ecfc978df24b2c3ed641e4081" target="_top" xlink:title="Create bucket.">
<polygon fill="none" stroke="black" points="192.5,-544.5 192.5,-563.5 341.5,-563.5 341.5,-544.5 192.5,-544.5"/>
<text text-anchor="middle" x="267" y="-551.5" font-family="Helvetica,sans-Serif" font-size="10.00">sss::api::S3Api::CreateBucket</text>
</a>
</g>
</g>
<!-- Node5&#45;&gt;Node8 -->
<g id="edge7" class="edge">
<title>Node5&#45;&gt;Node8</title>
<path fill="none" stroke="midnightblue" d="M386.05,-329.13C384.23,-330.6 382.53,-332.22 381,-334 321.71,-402.71 407.06,-468.78 345,-535 341.42,-538.82 337.21,-541.92 332.63,-544.44"/>
<polygon fill="midnightblue" stroke="midnightblue" points="388.21,-331.9 394.71,-323.53 384.41,-326.02 388.21,-331.9"/>
</g>
<!-- Node9 -->
<g id="node9" class="node">
<title>Node9</title>
<g id="a_node9"><a xlink:href="classsss_1_1api_1_1S3Api.html#a1796fafda3d90a4292a611ce1999433b" target="_top" xlink:title="Create multipart upload.">
<polygon fill="none" stroke="black" points="189,-495 189,-525 345,-525 345,-495 189,-495"/>
<text text-anchor="start" x="197" y="-513" font-family="Helvetica,sans-Serif" font-size="10.00">sss::api::S3Api::CreateMultipart</text>
<text text-anchor="middle" x="267" y="-502" font-family="Helvetica,sans-Serif" font-size="10.00">Upload</text>
</a>
</g>
</g>
<!-- Node5&#45;&gt;Node9 -->
<g id="edge8" class="edge">
<title>Node5&#45;&gt;Node9</title>
<path fill="none" stroke="midnightblue" d="M386.28,-329.16C384.39,-330.63 382.61,-332.23 381,-334 334.47,-384.94 391.8,-434.31 345,-485 341.47,-488.82 337.36,-492.06 332.9,-494.8"/>
<polygon fill="midnightblue" stroke="midnightblue" points="388.59,-331.84 395.24,-323.59 384.9,-325.9 388.59,-331.84"/>
</g>
<!-- Node10 -->
<g id="node10" class="node">
<title>Node10</title>
<g id="a_node10"><a xlink:href="classsss_1_1api_1_1S3Api.html#a3d63825d1916e4ba3ca13122c7660603" target="_top" xlink:title="Delete bucket.">
<polygon fill="none" stroke="black" points="192.5,-456.5 192.5,-475.5 341.5,-475.5 341.5,-456.5 192.5,-456.5"/>
<text text-anchor="middle" x="267" y="-463.5" font-family="Helvetica,sans-Serif" font-size="10.00">sss::api::S3Api::DeleteBucket</text>
</a>
</g>
</g>
<!-- Node5&#45;&gt;Node10 -->
<g id="edge9" class="edge">
<title>Node5&#45;&gt;Node10</title>
<path fill="none" stroke="midnightblue" d="M387.13,-328.82C384.93,-330.38 382.87,-332.1 381,-334 344.03,-371.57 383.49,-410.99 345,-447 340.88,-450.86 336.1,-453.97 330.98,-456.47"/>
<polygon fill="midnightblue" stroke="midnightblue" points="389.25,-331.63 396.13,-323.58 385.73,-325.58 389.25,-331.63"/>
</g>
<!-- Node11 -->
<g id="node11" class="node">
<title>Node11</title>
<g id="a_node11"><a xlink:href="classsss_1_1api_1_1S3Api.html#a14a75f15eb71fbba8639673100768b67" target="_top" xlink:title="Delete object.">
<polygon fill="none" stroke="black" points="194,-418.5 194,-437.5 340,-437.5 340,-418.5 194,-418.5"/>
<text text-anchor="middle" x="267" y="-425.5" font-family="Helvetica,sans-Serif" font-size="10.00">sss::api::S3Api::DeleteObject</text>
</a>
</g>
</g>
<!-- Node5&#45;&gt;Node11 -->
<g id="edge10" class="edge">
<title>Node5&#45;&gt;Node11</title>
<path fill="none" stroke="midnightblue" d="M388.99,-328.18C386.14,-329.9 383.45,-331.83 381,-334 353.29,-358.49 373.69,-385.68 345,-409 340.3,-412.82 334.94,-415.89 329.29,-418.35"/>
<polygon fill="midnightblue" stroke="midnightblue" points="390.59,-331.29 397.89,-323.6 387.4,-325.06 390.59,-331.29"/>
</g>
<!-- Node12 -->
<g id="node12" class="node">
<title>Node12</title>
<g id="a_node12"><a xlink:href="classsss_1_1api_1_1S3Api.html#a3b53152bf39143843a4033aa4a1b3fa0" target="_top" xlink:title=" ">
<polygon fill="none" stroke="black" points="192,-380.5 192,-399.5 342,-399.5 342,-380.5 192,-380.5"/>
<text text-anchor="middle" x="267" y="-387.5" font-family="Helvetica,sans-Serif" font-size="10.00">sss::api::S3Api::GetBucketAcl</text>
</a>
</g>
</g>
<!-- Node5&#45;&gt;Node12 -->
<g id="edge11" class="edge">
<title>Node5&#45;&gt;Node12</title>
<path fill="none" stroke="midnightblue" d="M393.46,-327.42C389.12,-329.36 384.89,-331.55 381,-334 361.58,-346.22 364.91,-359.59 345,-371 338.19,-374.9 330.6,-378.01 322.9,-380.48"/>
<polygon fill="midnightblue" stroke="midnightblue" points="395.11,-330.53 403.08,-323.55 392.49,-324.04 395.11,-330.53"/>
</g>
<!-- Node13 -->
<g id="node13" class="node">
<title>Node13</title>
<g id="a_node13"><a xlink:href="classsss_1_1api_1_1S3Api.html#af61465d92c0a94aa82ae863fc2a776a0" target="_top" xlink:title="Download object data.">
<polygon fill="none" stroke="black" points="200,-342.5 200,-361.5 334,-361.5 334,-342.5 200,-342.5"/>
<text text-anchor="middle" x="267" y="-349.5" font-family="Helvetica,sans-Serif" font-size="10.00">sss::api::S3Api::GetObject</text>
</a>
</g>
</g>
<!-- Node5&#45;&gt;Node13 -->
<g id="edge12" class="edge">
<title>Node5&#45;&gt;Node13</title>
<path fill="none" stroke="midnightblue" d="M387.15,-325.75C362.76,-331.13 334.24,-337.41 311.22,-342.48"/>
<polygon fill="midnightblue" stroke="midnightblue" points="387.96,-329.16 396.97,-323.59 386.45,-322.32 387.96,-329.16"/>
</g>
<!-- Node14 -->
<g id="node14" class="node">
<title>Node14</title>
<g id="a_node14"><a xlink:href="classsss_1_1api_1_1S3Api.html#ae548966dc38f328fc45ee1500f5caf5b" target="_top" xlink:title="Return bucket&#39;s Access Control List.">
<polygon fill="none" stroke="black" points="193,-304.5 193,-323.5 341,-323.5 341,-304.5 193,-304.5"/>
<text text-anchor="middle" x="267" y="-311.5" font-family="Helvetica,sans-Serif" font-size="10.00">sss::api::S3Api::GetObjectAcl</text>
</a>
</g>
</g>
<!-- Node5&#45;&gt;Node14 -->
<g id="edge13" class="edge">
<title>Node5&#45;&gt;Node14</title>
<path fill="none" stroke="midnightblue" d="M375.34,-314C364.16,-314 352.48,-314 341.11,-314"/>
<polygon fill="midnightblue" stroke="midnightblue" points="375.45,-317.5 385.45,-314 375.45,-310.5 375.45,-317.5"/>
</g>
<!-- Node15 -->
<g id="node15" class="node">
<title>Node15</title>
<g id="a_node15"><a xlink:href="classsss_1_1api_1_1S3Api.html#aa4a2b1cc2c89a52d1aa89e571b785db2" target="_top" xlink:title=" ">
<polygon fill="none" stroke="black" points="195.5,-266.5 195.5,-285.5 338.5,-285.5 338.5,-266.5 195.5,-266.5"/>
<text text-anchor="middle" x="267" y="-273.5" font-family="Helvetica,sans-Serif" font-size="10.00">sss::api::S3Api::HeadBucket</text>
</a>
</g>
</g>
<!-- Node5&#45;&gt;Node15 -->
<g id="edge14" class="edge">
<title>Node5&#45;&gt;Node15</title>
<path fill="none" stroke="midnightblue" d="M387.15,-302.25C362.76,-296.87 334.24,-290.59 311.22,-285.52"/>
<polygon fill="midnightblue" stroke="midnightblue" points="386.45,-305.68 396.97,-304.41 387.96,-298.84 386.45,-305.68"/>
</g>
<!-- Node16 -->
<g id="node16" class="node">
<title>Node16</title>
<g id="a_node16"><a xlink:href="classsss_1_1api_1_1S3Api.html#abc84a71b9a88b81afaa353ad17a91d22" target="_top" xlink:title="Send HeadObject request.">
<polygon fill="none" stroke="black" points="196.5,-228.5 196.5,-247.5 337.5,-247.5 337.5,-228.5 196.5,-228.5"/>
<text text-anchor="middle" x="267" y="-235.5" font-family="Helvetica,sans-Serif" font-size="10.00">sss::api::S3Api::HeadObject</text>
</a>
</g>
</g>
<!-- Node5&#45;&gt;Node16 -->
<g id="edge15" class="edge">
<title>Node5&#45;&gt;Node16</title>
<path fill="none" stroke="midnightblue" d="M418.86,-298.54C400.12,-285.78 371.86,-268.04 345,-257 335.96,-253.28 326.01,-250.17 316.35,-247.6"/>
<polygon fill="midnightblue" stroke="midnightblue" points="417.04,-301.53 427.25,-304.35 421.03,-295.78 417.04,-301.53"/>
</g>
<!-- Node19 -->
<g id="node19" class="node">
<title>Node19</title>
<g id="a_node19"><a xlink:href="classsss_1_1api_1_1S3Api.html#a81e30673c06b609a2ee6e6bfd9130ca6" target="_top" xlink:title="List buckets.">
<polygon fill="none" stroke="black" points="196.5,-190.5 196.5,-209.5 337.5,-209.5 337.5,-190.5 196.5,-190.5"/>
<text text-anchor="middle" x="267" y="-197.5" font-family="Helvetica,sans-Serif" font-size="10.00">sss::api::S3Api::ListBuckets</text>
</a>
</g>
</g>
<!-- Node5&#45;&gt;Node19 -->
<g id="edge18" class="edge">
<title>Node5&#45;&gt;Node19</title>
<path fill="none" stroke="midnightblue" d="M427.58,-296.21C410.94,-274.62 379.96,-238.66 345,-219 338.16,-215.15 330.55,-212.08 322.85,-209.62"/>
<polygon fill="midnightblue" stroke="midnightblue" points="425,-298.6 433.8,-304.49 430.6,-294.4 425,-298.6"/>
</g>
<!-- Node20 -->
<g id="node20" class="node">
<title>Node20</title>
<g id="a_node20"><a xlink:href="classsss_1_1api_1_1S3Api.html#a3f00f611cd210a58ac6e8c0555984433" target="_top" xlink:title="List objects by sending a ListObjectsV2 request.">
<polygon fill="none" stroke="black" points="191.5,-152.5 191.5,-171.5 342.5,-171.5 342.5,-152.5 191.5,-152.5"/>
<text text-anchor="middle" x="267" y="-159.5" font-family="Helvetica,sans-Serif" font-size="10.00">sss::api::S3Api::ListObjectsV2</text>
</a>
</g>
</g>
<!-- Node5&#45;&gt;Node20 -->
<g id="edge19" class="edge">
<title>Node5&#45;&gt;Node20</title>
<path fill="none" stroke="midnightblue" d="M432.23,-295.02C418.5,-265.82 388.17,-210.22 345,-181 339.3,-177.14 332.89,-174.06 326.26,-171.61"/>
<polygon fill="midnightblue" stroke="midnightblue" points="429.06,-296.5 436.39,-304.16 435.43,-293.6 429.06,-296.5"/>
</g>
<!-- Node21 -->
<g id="node21" class="node">
<title>Node21</title>
<g id="a_node21"><a xlink:href="classsss_1_1api_1_1S3Api.html#aa35e9b1cc7661cd9bb0d5f2de6cbbc7d" target="_top" xlink:title="Set Access Control Policy for bucket.">
<polygon fill="none" stroke="black" points="192.5,-114.5 192.5,-133.5 341.5,-133.5 341.5,-114.5 192.5,-114.5"/>
<text text-anchor="middle" x="267" y="-121.5" font-family="Helvetica,sans-Serif" font-size="10.00">sss::api::S3Api::PutBucketAcl</text>
</a>
</g>
</g>
<!-- Node5&#45;&gt;Node21 -->
<g id="edge20" class="edge">
<title>Node5&#45;&gt;Node21</title>
<path fill="none" stroke="midnightblue" d="M435.33,-294.78C424.71,-259.09 396.94,-182.62 345,-143 339.96,-139.16 334.25,-136.08 328.27,-133.62"/>
<polygon fill="midnightblue" stroke="midnightblue" points="431.98,-295.8 438.09,-304.46 438.72,-293.88 431.98,-295.8"/>
</g>
<!-- Node22 -->
<g id="node22" class="node">
<title>Node22</title>
<g id="a_node22"><a xlink:href="classsss_1_1api_1_1S3Api.html#a2cc08fb777cfc4d24c40bea1cde967e7" target="_top" xlink:title="Set Access Control Policy.">
<polygon fill="none" stroke="black" points="193.5,-76.5 193.5,-95.5 340.5,-95.5 340.5,-76.5 193.5,-76.5"/>
<text text-anchor="middle" x="267" y="-83.5" font-family="Helvetica,sans-Serif" font-size="10.00">sss::api::S3Api::PutObjectAcl</text>
</a>
</g>
</g>
<!-- Node5&#45;&gt;Node22 -->
<g id="edge21" class="edge">
<title>Node5&#45;&gt;Node22</title>
<path fill="none" stroke="midnightblue" d="M437.36,-294.35C429.65,-252.73 405.77,-155.37 345,-105 340.34,-101.13 335,-98.04 329.36,-95.56"/>
<polygon fill="midnightblue" stroke="midnightblue" points="433.93,-295.06 439.09,-304.31 440.83,-293.86 433.93,-295.06"/>
</g>
<!-- Node23 -->
<g id="node23" class="node">
<title>Node23</title>
<g id="a_node23"><a xlink:href="classsss_1_1api_1_1S3Api.html#a0473917e4d25a4a6fca40d097e4299d6" target="_top" xlink:title=" ">
<polygon fill="none" stroke="black" points="211,-38.5 211,-57.5 323,-57.5 323,-38.5 211,-38.5"/>
<text text-anchor="middle" x="267" y="-45.5" font-family="Helvetica,sans-Serif" font-size="10.00">sss::api::S3Api::Send</text>
</a>
</g>
</g>
<!-- Node5&#45;&gt;Node23 -->
<g id="edge22" class="edge">
<title>Node5&#45;&gt;Node23</title>
<path fill="none" stroke="midnightblue" d="M438.91,-294.4C434.01,-247.59 414.97,-128.61 345,-67 338.8,-61.54 331.28,-57.6 323.39,-54.76"/>
<polygon fill="midnightblue" stroke="midnightblue" points="435.43,-294.81 439.85,-304.44 442.4,-294.15 435.43,-294.81"/>
</g>
<!-- Node24 -->
<g id="node24" class="node">
<title>Node24</title>
<g id="a_node24"><a xlink:href="classsss_1_1api_1_1S3Api.html#a23223ee1fb701c55af2d942dbf261ae2" target="_top" xlink:title="Check if bucket exist.">
<polygon fill="none" stroke="black" points="197.5,-0.5 197.5,-19.5 336.5,-19.5 336.5,-0.5 197.5,-0.5"/>
<text text-anchor="middle" x="267" y="-7.5" font-family="Helvetica,sans-Serif" font-size="10.00">sss::api::S3Api::TestBucket</text>
</a>
</g>
</g>
<!-- Node5&#45;&gt;Node24 -->
<g id="edge23" class="edge">
<title>Node5&#45;&gt;Node24</title>
<path fill="none" stroke="midnightblue" d="M440.05,-294.26C437.77,-242.53 424.19,-101.99 345,-29 340.85,-25.17 336.05,-22.09 330.92,-19.6"/>
<polygon fill="midnightblue" stroke="midnightblue" points="436.56,-294.53 440.4,-304.41 443.56,-294.29 436.56,-294.53"/>
</g>
<!-- Node17 -->
<g id="node17" class="node">
<title>Node17</title>
<g id="a_node17"><a xlink:href="classsss_1_1api_1_1S3Api.html#a872e80e356e8c404a9b0739d95a0af41" target="_top" xlink:title="Return object size.">
<polygon fill="none" stroke="black" points="0,-247.5 0,-266.5 153,-266.5 153,-247.5 0,-247.5"/>
<text text-anchor="middle" x="76.5" y="-254.5" font-family="Helvetica,sans-Serif" font-size="10.00">sss::api::S3Api::GetObjectSize</text>
</a>
</g>
</g>
<!-- Node16&#45;&gt;Node17 -->
<g id="edge16" class="edge">
<title>Node16&#45;&gt;Node17</title>
<path fill="none" stroke="midnightblue" d="M186.35,-246.03C175.37,-247.14 164.11,-248.27 153.2,-249.37"/>
<polygon fill="midnightblue" stroke="midnightblue" points="186.75,-249.51 196.35,-245.02 186.04,-242.54 186.75,-249.51"/>
</g>
<!-- Node18 -->
<g id="node18" class="node">
<title>Node18</title>
<g id="a_node18"><a xlink:href="classsss_1_1api_1_1S3Api.html#aa3f7a3001bdad58c7b0c04cbd0dc3236" target="_top" xlink:title="Check if key exists.">
<polygon fill="none" stroke="black" points="8,-209.5 8,-228.5 145,-228.5 145,-209.5 8,-209.5"/>
<text text-anchor="middle" x="76.5" y="-216.5" font-family="Helvetica,sans-Serif" font-size="10.00">sss::api::S3Api::TestObject</text>
</a>
</g>
</g>
<!-- Node16&#45;&gt;Node18 -->
<g id="edge17" class="edge">
<title>Node16&#45;&gt;Node18</title>
<path fill="none" stroke="midnightblue" d="M186.07,-229.94C172.5,-228.58 158.52,-227.17 145.3,-225.83"/>
<polygon fill="midnightblue" stroke="midnightblue" points="186.04,-233.46 196.35,-230.98 186.75,-226.49 186.04,-233.46"/>
</g>
</g>
</svg>
