<?xml version="1.0" encoding="UTF-8" standalone="no"?>
<!DOCTYPE svg PUBLIC "-//W3C//DTD SVG 1.1//EN"
 "http://www.w3.org/Graphics/SVG/1.1/DTD/svg11.dtd">
<!-- Generated by graphviz version 2.43.0 (0)
 -->
<!-- Title: sss::WebClient::SetMethod Pages: 1 -->
<svg width="891pt" height="671pt"
 viewBox="0.00 0.00 891.00 670.50" xmlns="http://www.w3.org/2000/svg" xmlns:xlink="http://www.w3.org/1999/xlink">
<g id="graph0" class="graph" transform="scale(1 1) rotate(0) translate(4 666.5)">
<title>sss::WebClient::SetMethod</title>
<!-- Node1 -->
<g id="node1" class="node">
<title>Node1</title>
<g id="a_node1"><a xlink:title=" ">
<polygon fill="#bfbfbf" stroke="black" points="746,-282.5 746,-301.5 883,-301.5 883,-282.5 746,-282.5"/>
<text text-anchor="middle" x="814.5" y="-289.5" font-family="Helvetica,sans-Serif" font-size="10.00">sss::WebClient::SetMethod</text>
</a>
</g>
</g>
<!-- Node2 -->
<g id="node2" class="node">
<title>Node2</title>
<g id="a_node2"><a xlink:href="classsss_1_1api_1_1S3Api.html#a840772746fbb0a79c161037da7b24a31" target="_top" xlink:title="Configure instance.">
<polygon fill="none" stroke="black" points="580.5,-348.5 580.5,-367.5 698.5,-367.5 698.5,-348.5 580.5,-348.5"/>
<text text-anchor="middle" x="639.5" y="-355.5" font-family="Helvetica,sans-Serif" font-size="10.00">sss::api::S3Api::Config</text>
</a>
</g>
</g>
<!-- Node1&#45;&gt;Node2 -->
<g id="edge1" class="edge">
<title>Node1&#45;&gt;Node2</title>
<path fill="none" stroke="midnightblue" d="M785.7,-306.09C765.15,-316.14 736.28,-329.51 710,-339 700.35,-342.48 689.75,-345.69 679.81,-348.43"/>
<polygon fill="midnightblue" stroke="midnightblue" points="787.39,-309.16 794.8,-301.59 784.29,-302.88 787.39,-309.16"/>
</g>
<!-- Node25 -->
<g id="node25" class="node">
<title>Node25</title>
<g id="a_node25"><a xlink:href="classsss_1_1WebClient.html#ae7b1f77bd4ae44585f2d49ea493bdcc5" target="_top" xlink:title="Upload data from memory buffer.">
<polygon fill="none" stroke="black" points="569,-299 569,-329 710,-329 710,-299 569,-299"/>
<text text-anchor="start" x="577" y="-317" font-family="Helvetica,sans-Serif" font-size="10.00">sss::WebClient::UploadData</text>
<text text-anchor="middle" x="639.5" y="-306" font-family="Helvetica,sans-Serif" font-size="10.00">FromBuffer</text>
</a>
</g>
</g>
<!-- Node1&#45;&gt;Node25 -->
<g id="edge24" class="edge">
<title>Node1&#45;&gt;Node25</title>
<path fill="none" stroke="midnightblue" d="M735.43,-301.93C727.01,-303 718.48,-304.08 710.17,-305.14"/>
<polygon fill="midnightblue" stroke="midnightblue" points="736.14,-305.37 745.62,-300.63 735.26,-298.42 736.14,-305.37"/>
</g>
<!-- Node27 -->
<g id="node27" class="node">
<title>Node27</title>
<g id="a_node27"><a xlink:href="classsss_1_1WebClient.html#ad038e41cfc902f6e49754c52a9a71992" target="_top" xlink:title="Upload file.">
<polygon fill="none" stroke="black" points="571.5,-260.5 571.5,-279.5 707.5,-279.5 707.5,-260.5 571.5,-260.5"/>
<text text-anchor="middle" x="639.5" y="-267.5" font-family="Helvetica,sans-Serif" font-size="10.00">sss::WebClient::UploadFile</text>
</a>
</g>
</g>
<!-- Node1&#45;&gt;Node27 -->
<g id="edge27" class="edge">
<title>Node1&#45;&gt;Node27</title>
<path fill="none" stroke="midnightblue" d="M735.57,-282.09C726.24,-280.9 716.77,-279.7 707.61,-278.53"/>
<polygon fill="midnightblue" stroke="midnightblue" points="735.26,-285.58 745.62,-283.37 736.14,-278.63 735.26,-285.58"/>
</g>
<!-- Node28 -->
<g id="node28" class="node">
<title>Node28</title>
<g id="a_node28"><a xlink:href="classsss_1_1WebClient.html#accb4e986d73bb44149918fa0043ec43b" target="_top" xlink:title="Upload file starting from offset using unbuffered I/O read.">
<polygon fill="none" stroke="black" points="571.5,-211 571.5,-241 707.5,-241 707.5,-211 571.5,-211"/>
<text text-anchor="start" x="579.5" y="-229" font-family="Helvetica,sans-Serif" font-size="10.00">sss::WebClient::UploadFile</text>
<text text-anchor="middle" x="639.5" y="-218" font-family="Helvetica,sans-Serif" font-size="10.00">Unbuffered</text>
</a>
</g>
</g>
<!-- Node1&#45;&gt;Node28 -->
<g id="edge28" class="edge">
<title>Node1&#45;&gt;Node28</title>
<path fill="none" stroke="midnightblue" d="M780.34,-278.55C760.08,-270.41 733.62,-259.92 710,-251 701.36,-247.74 692.09,-244.33 683.21,-241.12"/>
<polygon fill="midnightblue" stroke="midnightblue" points="779.16,-281.85 789.74,-282.34 781.77,-275.36 779.16,-281.85"/>
</g>
<!-- Node3 -->
<g id="node3" class="node">
<title>Node3</title>
<g id="a_node3"><a xlink:href="classsss_1_1api_1_1S3Api.html#a1196f1cb9ce1e5d69336e9b8dbb5d59c" target="_top" xlink:title="Download object into file.">
<polygon fill="none" stroke="black" points="396.5,-392 396.5,-422 517.5,-422 517.5,-392 396.5,-392"/>
<text text-anchor="start" x="404.5" y="-410" font-family="Helvetica,sans-Serif" font-size="10.00">sss::api::S3Api::GetFile</text>
<text text-anchor="middle" x="457" y="-399" font-family="Helvetica,sans-Serif" font-size="10.00">Object</text>
</a>
</g>
</g>
<!-- Node2&#45;&gt;Node3 -->
<g id="edge2" class="edge">
<title>Node2&#45;&gt;Node3</title>
<path fill="none" stroke="midnightblue" d="M593.6,-370.19C569.32,-376.78 539.12,-384.98 513.39,-391.96"/>
<polygon fill="midnightblue" stroke="midnightblue" points="594.54,-373.56 603.27,-367.56 592.7,-366.81 594.54,-373.56"/>
</g>
<!-- Node4 -->
<g id="node4" class="node">
<title>Node4</title>
<g id="a_node4"><a xlink:href="classsss_1_1api_1_1S3Api.html#ab7affe0834f5892b393e731783b7ccac" target="_top" xlink:title="Upload file to object.">
<polygon fill="none" stroke="black" points="397,-343 397,-373 517,-373 517,-343 397,-343"/>
<text text-anchor="start" x="405" y="-361" font-family="Helvetica,sans-Serif" font-size="10.00">sss::api::S3Api::PutFile</text>
<text text-anchor="middle" x="457" y="-350" font-family="Helvetica,sans-Serif" font-size="10.00">Object</text>
</a>
</g>
</g>
<!-- Node2&#45;&gt;Node4 -->
<g id="edge3" class="edge">
<title>Node2&#45;&gt;Node4</title>
<path fill="none" stroke="midnightblue" d="M570.28,-358C552.82,-358 534.2,-358 517.24,-358"/>
<polygon fill="midnightblue" stroke="midnightblue" points="570.4,-361.5 580.4,-358 570.4,-354.5 570.4,-361.5"/>
</g>
<!-- Node5 -->
<g id="node5" class="node">
<title>Node5</title>
<g id="a_node5"><a xlink:href="classsss_1_1api_1_1S3Api.html#a02b4f0c95255f151beb72f0a6bdf5889" target="_top" xlink:title="Send request.">
<polygon fill="none" stroke="black" points="401,-304.5 401,-323.5 513,-323.5 513,-304.5 401,-304.5"/>
<text text-anchor="middle" x="457" y="-311.5" font-family="Helvetica,sans-Serif" font-size="10.00">sss::api::S3Api::Send</text>
</a>
</g>
</g>
<!-- Node2&#45;&gt;Node5 -->
<g id="edge4" class="edge">
<title>Node2&#45;&gt;Node5</title>
<path fill="none" stroke="midnightblue" d="M589.4,-346.03C560.39,-338.96 524.15,-330.13 497.09,-323.53"/>
<polygon fill="midnightblue" stroke="midnightblue" points="588.79,-349.48 599.33,-348.45 590.45,-342.68 588.79,-349.48"/>
</g>
<!-- Node6 -->
<g id="node6" class="node">
<title>Node6</title>
<g id="a_node6"><a xlink:href="classsss_1_1api_1_1S3Api.html#a4ea265566c3c4335ec01201cdc4410c6" target="_top" xlink:title="Abort multipart upload.">
<polygon fill="none" stroke="black" points="192,-632 192,-662 342,-662 342,-632 192,-632"/>
<text text-anchor="start" x="200" y="-650" font-family="Helvetica,sans-Serif" font-size="10.00">sss::api::S3Api::AbortMultipart</text>
<text text-anchor="middle" x="267" y="-639" font-family="Helvetica,sans-Serif" font-size="10.00">Upload</text>
</a>
</g>
</g>
<!-- Node5&#45;&gt;Node6 -->
<g id="edge5" class="edge">
<title>Node5&#45;&gt;Node6</title>
<path fill="none" stroke="midnightblue" d="M391.65,-325.1C387.69,-327.54 384.07,-330.48 381,-334 295.94,-431.56 428.02,-523.69 345,-623 342.13,-626.44 338.77,-629.39 335.09,-631.93"/>
<polygon fill="midnightblue" stroke="midnightblue" points="393.42,-328.13 400.77,-320.5 390.27,-321.87 393.42,-328.13"/>
</g>
<!-- Node7 -->
<g id="node7" class="node">
<title>Node7</title>
<g id="a_node7"><a xlink:href="classsss_1_1api_1_1S3Api.html#a98f999a216121118dd569c7ef0c28ff3" target="_top" xlink:title="Complete multipart upload.">
<polygon fill="none" stroke="black" points="201.5,-583 201.5,-613 332.5,-613 332.5,-583 201.5,-583"/>
<text text-anchor="start" x="209.5" y="-601" font-family="Helvetica,sans-Serif" font-size="10.00">sss::api::S3Api::Complete</text>
<text text-anchor="middle" x="267" y="-590" font-family="Helvetica,sans-Serif" font-size="10.00">MultipartUpload</text>
</a>
</g>
</g>
<!-- Node5&#45;&gt;Node7 -->
<g id="edge6" class="edge">
<title>Node5&#45;&gt;Node7</title>
<path fill="none" stroke="midnightblue" d="M391.75,-325.19C387.77,-327.61 384.12,-330.52 381,-334 309.38,-414.06 414.46,-491.06 345,-573 341.46,-577.18 337.2,-580.67 332.54,-583.58"/>
<polygon fill="midnightblue" stroke="midnightblue" points="393.52,-328.21 400.91,-320.62 390.4,-321.95 393.52,-328.21"/>
</g>
<!-- Node8 -->
<g id="node8" class="node">
<title>Node8</title>
<g id="a_node8"><a xlink:href="classsss_1_1api_1_1S3Api.html#ad890bd1ecfc978df24b2c3ed641e4081" target="_top" xlink:title="Create bucket.">
<polygon fill="none" stroke="black" points="192.5,-544.5 192.5,-563.5 341.5,-563.5 341.5,-544.5 192.5,-544.5"/>
<text text-anchor="middle" x="267" y="-551.5" font-family="Helvetica,sans-Serif" font-size="10.00">sss::api::S3Api::CreateBucket</text>
</a>
</g>
</g>
<!-- Node5&#45;&gt;Node8 -->
<g id="edge7" class="edge">
<title>Node5&#45;&gt;Node8</title>
<path fill="none" stroke="midnightblue" d="M391.65,-325.41C387.73,-327.78 384.11,-330.62 381,-334 319.56,-400.79 407.06,-468.78 345,-535 341.42,-538.82 337.21,-541.92 332.63,-544.44"/>
<polygon fill="midnightblue" stroke="midnightblue" points="393.29,-328.5 400.68,-320.91 390.17,-322.24 393.29,-328.5"/>
</g>
<!-- Node9 -->
<g id="node9" class="node">
<title>Node9</title>
<g id="a_node9"><a xlink:href="classsss_1_1api_1_1S3Api.html#a1796fafda3d90a4292a611ce1999433b" target="_top" xlink:title="Create multipart upload.">
<polygon fill="none" stroke="black" points="189,-495 189,-525 345,-525 345,-495 189,-495"/>
<text text-anchor="start" x="197" y="-513" font-family="Helvetica,sans-Serif" font-size="10.00">sss::api::S3Api::CreateMultipart</text>
<text text-anchor="middle" x="267" y="-502" font-family="Helvetica,sans-Serif" font-size="10.00">Upload</text>
</a>
</g>
</g>
<!-- Node5&#45;&gt;Node9 -->
<g id="edge8" class="edge">
<title>Node5&#45;&gt;Node9</title>
<path fill="none" stroke="midnightblue" d="M391.87,-325.61C387.89,-327.94 384.21,-330.71 381,-334 332.87,-383.43 391.8,-434.31 345,-485 341.47,-488.82 337.36,-492.06 332.9,-494.8"/>
<polygon fill="midnightblue" stroke="midnightblue" points="393.51,-328.7 400.97,-321.18 390.45,-322.41 393.51,-328.7"/>
</g>
<!-- Node10 -->
<g id="node10" class="node">
<title>Node10</title>
<g id="a_node10"><a xlink:href="classsss_1_1api_1_1S3Api.html#a3d63825d1916e4ba3ca13122c7660603" target="_top" xlink:title="Delete bucket.">
<polygon fill="none" stroke="black" points="192.5,-456.5 192.5,-475.5 341.5,-475.5 341.5,-456.5 192.5,-456.5"/>
<text text-anchor="middle" x="267" y="-463.5" font-family="Helvetica,sans-Serif" font-size="10.00">sss::api::S3Api::DeleteBucket</text>
</a>
</g>
</g>
<!-- Node5&#45;&gt;Node10 -->
<g id="edge9" class="edge">
<title>Node5&#45;&gt;Node10</title>
<path fill="none" stroke="midnightblue" d="M391.61,-326.18C387.77,-328.38 384.18,-330.97 381,-334 342.85,-370.37 383.49,-410.99 345,-447 340.88,-450.86 336.1,-453.97 330.98,-456.47"/>
<polygon fill="midnightblue" stroke="midnightblue" points="393.45,-329.18 400.96,-321.71 390.43,-322.87 393.45,-329.18"/>
</g>
<!-- Node11 -->
<g id="node11" class="node">
<title>Node11</title>
<g id="a_node11"><a xlink:href="classsss_1_1api_1_1S3Api.html#a14a75f15eb71fbba8639673100768b67" target="_top" xlink:title="Delete object.">
<polygon fill="none" stroke="black" points="194,-418.5 194,-437.5 340,-437.5 340,-418.5 194,-418.5"/>
<text text-anchor="middle" x="267" y="-425.5" font-family="Helvetica,sans-Serif" font-size="10.00">sss::api::S3Api::DeleteObject</text>
</a>
</g>
</g>
<!-- Node5&#45;&gt;Node11 -->
<g id="edge10" class="edge">
<title>Node5&#45;&gt;Node11</title>
<path fill="none" stroke="midnightblue" d="M391.67,-326.92C387.87,-328.95 384.27,-331.29 381,-334 352.53,-357.59 373.69,-385.68 345,-409 340.3,-412.82 334.94,-415.89 329.29,-418.35"/>
<polygon fill="midnightblue" stroke="midnightblue" points="393.19,-330.07 400.84,-322.73 390.29,-323.7 393.19,-330.07"/>
</g>
<!-- Node12 -->
<g id="node12" class="node">
<title>Node12</title>
<g id="a_node12"><a xlink:href="classsss_1_1api_1_1S3Api.html#a3b53152bf39143843a4033aa4a1b3fa0" target="_top" xlink:title=" ">
<polygon fill="none" stroke="black" points="192,-380.5 192,-399.5 342,-399.5 342,-380.5 192,-380.5"/>
<text text-anchor="middle" x="267" y="-387.5" font-family="Helvetica,sans-Serif" font-size="10.00">sss::api::S3Api::GetBucketAcl</text>
</a>
</g>
</g>
<!-- Node5&#45;&gt;Node12 -->
<g id="edge11" class="edge">
<title>Node5&#45;&gt;Node12</title>
<path fill="none" stroke="midnightblue" d="M395.85,-326.87C390.68,-328.91 385.65,-331.28 381,-334 361.2,-345.6 364.91,-359.59 345,-371 338.19,-374.9 330.6,-378.01 322.9,-380.48"/>
<polygon fill="midnightblue" stroke="midnightblue" points="397.03,-330.17 405.28,-323.52 394.68,-323.57 397.03,-330.17"/>
</g>
<!-- Node13 -->
<g id="node13" class="node">
<title>Node13</title>
<g id="a_node13"><a xlink:href="classsss_1_1api_1_1S3Api.html#af61465d92c0a94aa82ae863fc2a776a0" target="_top" xlink:title="Download object data.">
<polygon fill="none" stroke="black" points="200,-342.5 200,-361.5 334,-361.5 334,-342.5 200,-342.5"/>
<text text-anchor="middle" x="267" y="-349.5" font-family="Helvetica,sans-Serif" font-size="10.00">sss::api::S3Api::GetObject</text>
</a>
</g>
</g>
<!-- Node5&#45;&gt;Node13 -->
<g id="edge12" class="edge">
<title>Node5&#45;&gt;Node13</title>
<path fill="none" stroke="midnightblue" d="M398.56,-325.61C371.83,-331.01 340.41,-337.36 315.1,-342.48"/>
<polygon fill="midnightblue" stroke="midnightblue" points="399.45,-329 408.56,-323.59 398.06,-322.14 399.45,-329"/>
</g>
<!-- Node14 -->
<g id="node14" class="node">
<title>Node14</title>
<g id="a_node14"><a xlink:href="classsss_1_1api_1_1S3Api.html#ae548966dc38f328fc45ee1500f5caf5b" target="_top" xlink:title="Return bucket&#39;s Access Control List.">
<polygon fill="none" stroke="black" points="193,-304.5 193,-323.5 341,-323.5 341,-304.5 193,-304.5"/>
<text text-anchor="middle" x="267" y="-311.5" font-family="Helvetica,sans-Serif" font-size="10.00">sss::api::S3Api::GetObjectAcl</text>
</a>
</g>
</g>
<!-- Node5&#45;&gt;Node14 -->
<g id="edge13" class="edge">
<title>Node5&#45;&gt;Node14</title>
<path fill="none" stroke="midnightblue" d="M390.6,-314C374.68,-314 357.56,-314 341.3,-314"/>
<polygon fill="midnightblue" stroke="midnightblue" points="390.86,-317.5 400.86,-314 390.86,-310.5 390.86,-317.5"/>
</g>
<!-- Node15 -->
<g id="node15" class="node">
<title>Node15</title>
<g id="a_node15"><a xlink:href="classsss_1_1api_1_1S3Api.html#aa4a2b1cc2c89a52d1aa89e571b785db2" target="_top" xlink:title=" ">
<polygon fill="none" stroke="black" points="195.5,-266.5 195.5,-285.5 338.5,-285.5 338.5,-266.5 195.5,-266.5"/>
<text text-anchor="middle" x="267" y="-273.5" font-family="Helvetica,sans-Serif" font-size="10.00">sss::api::S3Api::HeadBucket</text>
</a>
</g>
</g>
<!-- Node5&#45;&gt;Node15 -->
<g id="edge14" class="edge">
<title>Node5&#45;&gt;Node15</title>
<path fill="none" stroke="midnightblue" d="M398.56,-302.39C371.83,-296.99 340.41,-290.64 315.1,-285.52"/>
<polygon fill="midnightblue" stroke="midnightblue" points="398.06,-305.86 408.56,-304.41 399.45,-299 398.06,-305.86"/>
</g>
<!-- Node16 -->
<g id="node16" class="node">
<title>Node16</title>
<g id="a_node16"><a xlink:href="classsss_1_1api_1_1S3Api.html#abc84a71b9a88b81afaa353ad17a91d22" target="_top" xlink:title="Send HeadObject request.">
<polygon fill="none" stroke="black" points="196.5,-228.5 196.5,-247.5 337.5,-247.5 337.5,-228.5 196.5,-228.5"/>
<text text-anchor="middle" x="267" y="-235.5" font-family="Helvetica,sans-Serif" font-size="10.00">sss::api::S3Api::HeadObject</text>
</a>
</g>
</g>
<!-- Node5&#45;&gt;Node16 -->
<g id="edge15" class="edge">
<title>Node5&#45;&gt;Node16</title>
<path fill="none" stroke="midnightblue" d="M392.76,-300.82C388.68,-299.11 384.72,-297.18 381,-295 360.93,-283.23 365.11,-268.7 345,-257 338.34,-253.12 330.9,-250.03 323.36,-247.57"/>
<polygon fill="midnightblue" stroke="midnightblue" points="391.88,-304.22 402.47,-304.43 394.32,-297.66 391.88,-304.22"/>
</g>
<!-- Node19 -->
<g id="node19" class="node">
<title>Node19</title>
<g id="a_node19"><a xlink:href="classsss_1_1api_1_1S3Api.html#a81e30673c06b609a2ee6e6bfd9130ca6" target="_top" xlink:title="List buckets.">
<polygon fill="none" stroke="black" points="196.5,-190.5 196.5,-209.5 337.5,-209.5 337.5,-190.5 196.5,-190.5"/>
<text text-anchor="middle" x="267" y="-197.5" font-family="Helvetica,sans-Serif" font-size="10.00">sss::api::S3Api::ListBuckets</text>
</a>
</g>
</g>
<!-- Node5&#45;&gt;Node19 -->
<g id="edge18" class="edge">
<title>Node5&#45;&gt;Node19</title>
<path fill="none" stroke="midnightblue" d="M391.67,-301.99C387.87,-300 384.27,-297.69 381,-295 352.13,-271.26 373.94,-242.65 345,-219 340.31,-215.17 334.96,-212.09 329.31,-209.62"/>
<polygon fill="midnightblue" stroke="midnightblue" points="390.28,-305.2 400.83,-306.08 393.12,-298.81 390.28,-305.2"/>
</g>
<!-- Node20 -->
<g id="node20" class="node">
<title>Node20</title>
<g id="a_node20"><a xlink:href="classsss_1_1api_1_1S3Api.html#a3f00f611cd210a58ac6e8c0555984433" target="_top" xlink:title="List objects by sending a ListObjectsV2 request.">
<polygon fill="none" stroke="black" points="191.5,-152.5 191.5,-171.5 342.5,-171.5 342.5,-152.5 191.5,-152.5"/>
<text text-anchor="middle" x="267" y="-159.5" font-family="Helvetica,sans-Serif" font-size="10.00">sss::api::S3Api::ListObjectsV2</text>
</a>
</g>
</g>
<!-- Node5&#45;&gt;Node20 -->
<g id="edge19" class="edge">
<title>Node5&#45;&gt;Node20</title>
<path fill="none" stroke="midnightblue" d="M391.62,-302.72C387.78,-300.56 384.19,-298.01 381,-295 342.36,-258.53 383.75,-217.35 345,-181 340.88,-177.14 336.11,-174.03 330.99,-171.52"/>
<polygon fill="midnightblue" stroke="midnightblue" points="390.43,-306.02 400.97,-307.08 393.39,-299.68 390.43,-306.02"/>
</g>
<!-- Node21 -->
<g id="node21" class="node">
<title>Node21</title>
<g id="a_node21"><a xlink:href="classsss_1_1api_1_1S3Api.html#aa35e9b1cc7661cd9bb0d5f2de6cbbc7d" target="_top" xlink:title="Set Access Control Policy for bucket.">
<polygon fill="none" stroke="black" points="192.5,-114.5 192.5,-133.5 341.5,-133.5 341.5,-114.5 192.5,-114.5"/>
<text text-anchor="middle" x="267" y="-121.5" font-family="Helvetica,sans-Serif" font-size="10.00">sss::api::S3Api::PutBucketAcl</text>
</a>
</g>
</g>
<!-- Node5&#45;&gt;Node21 -->
<g id="edge20" class="edge">
<title>Node5&#45;&gt;Node21</title>
<path fill="none" stroke="midnightblue" d="M391.88,-303.28C387.9,-301 384.21,-298.26 381,-295 332.29,-245.53 393.86,-192.32 345,-143 341.22,-139.19 336.81,-136.09 332.04,-133.59"/>
<polygon fill="midnightblue" stroke="midnightblue" points="390.46,-306.48 400.99,-307.59 393.45,-300.15 390.46,-306.48"/>
</g>
<!-- Node22 -->
<g id="node22" class="node">
<title>Node22</title>
<g id="a_node22"><a xlink:href="classsss_1_1api_1_1S3Api.html#a2cc08fb777cfc4d24c40bea1cde967e7" target="_top" xlink:title="Set Access Control Policy.">
<polygon fill="none" stroke="black" points="193.5,-76.5 193.5,-95.5 340.5,-95.5 340.5,-76.5 193.5,-76.5"/>
<text text-anchor="middle" x="267" y="-83.5" font-family="Helvetica,sans-Serif" font-size="10.00">sss::api::S3Api::PutObjectAcl</text>
</a>
</g>
</g>
<!-- Node5&#45;&gt;Node22 -->
<g id="edge21" class="edge">
<title>Node5&#45;&gt;Node22</title>
<path fill="none" stroke="midnightblue" d="M391.72,-303.44C387.77,-301.12 384.14,-298.34 381,-295 322.1,-232.41 404.09,-167.41 345,-105 341.4,-101.2 337.18,-98.11 332.59,-95.6"/>
<polygon fill="midnightblue" stroke="midnightblue" points="390.24,-306.61 400.76,-307.82 393.28,-300.31 390.24,-306.61"/>
</g>
<!-- Node23 -->
<g id="node23" class="node">
<title>Node23</title>
<g id="a_node23"><a xlink:href="classsss_1_1api_1_1S3Api.html#a0473917e4d25a4a6fca40d097e4299d6" target="_top" xlink:title=" ">
<polygon fill="none" stroke="black" points="211,-38.5 211,-57.5 323,-57.5 323,-38.5 211,-38.5"/>
<text text-anchor="middle" x="267" y="-45.5" font-family="Helvetica,sans-Serif" font-size="10.00">sss::api::S3Api::Send</text>
</a>
</g>
</g>
<!-- Node5&#45;&gt;Node23 -->
<g id="edge22" class="edge">
<title>Node5&#45;&gt;Node23</title>
<path fill="none" stroke="midnightblue" d="M391.8,-303.67C387.81,-301.3 384.14,-298.44 381,-295 311.85,-219.22 414.38,-142.57 345,-67 339.13,-60.61 331.49,-56.21 323.3,-53.22"/>
<polygon fill="midnightblue" stroke="midnightblue" points="390.45,-306.91 400.98,-308.11 393.5,-300.61 390.45,-306.91"/>
</g>
<!-- Node24 -->
<g id="node24" class="node">
<title>Node24</title>
<g id="a_node24"><a xlink:href="classsss_1_1api_1_1S3Api.html#a23223ee1fb701c55af2d942dbf261ae2" target="_top" xlink:title="Check if bucket exist.">
<polygon fill="none" stroke="black" points="197.5,-0.5 197.5,-19.5 336.5,-19.5 336.5,-0.5 197.5,-0.5"/>
<text text-anchor="middle" x="267" y="-7.5" font-family="Helvetica,sans-Serif" font-size="10.00">sss::api::S3Api::TestBucket</text>
</a>
</g>
</g>
<!-- Node5&#45;&gt;Node24 -->
<g id="edge23" class="edge">
<title>Node5&#45;&gt;Node24</title>
<path fill="none" stroke="midnightblue" d="M391.71,-303.75C387.74,-301.36 384.1,-298.48 381,-295 301.57,-205.99 424.71,-117.76 345,-29 341.6,-25.21 337.57,-22.12 333.17,-19.6"/>
<polygon fill="midnightblue" stroke="midnightblue" points="390.34,-306.97 400.86,-308.22 393.42,-300.68 390.34,-306.97"/>
</g>
<!-- Node17 -->
<g id="node17" class="node">
<title>Node17</title>
<g id="a_node17"><a xlink:href="classsss_1_1api_1_1S3Api.html#a872e80e356e8c404a9b0739d95a0af41" target="_top" xlink:title="Return object size.">
<polygon fill="none" stroke="black" points="0,-247.5 0,-266.5 153,-266.5 153,-247.5 0,-247.5"/>
<text text-anchor="middle" x="76.5" y="-254.5" font-family="Helvetica,sans-Serif" font-size="10.00">sss::api::S3Api::GetObjectSize</text>
</a>
</g>
</g>
<!-- Node16&#45;&gt;Node17 -->
<g id="edge16" class="edge">
<title>Node16&#45;&gt;Node17</title>
<path fill="none" stroke="midnightblue" d="M186.35,-246.03C175.37,-247.14 164.11,-248.27 153.2,-249.37"/>
<polygon fill="midnightblue" stroke="midnightblue" points="186.75,-249.51 196.35,-245.02 186.04,-242.54 186.75,-249.51"/>
</g>
<!-- Node18 -->
<g id="node18" class="node">
<title>Node18</title>
<g id="a_node18"><a xlink:href="classsss_1_1api_1_1S3Api.html#aa3f7a3001bdad58c7b0c04cbd0dc3236" target="_top" xlink:title="Check if key exists.">
<polygon fill="none" stroke="black" points="8,-209.5 8,-228.5 145,-228.5 145,-209.5 8,-209.5"/>
<text text-anchor="middle" x="76.5" y="-216.5" font-family="Helvetica,sans-Serif" font-size="10.00">sss::api::S3Api::TestObject</text>
</a>
</g>
</g>
<!-- Node16&#45;&gt;Node18 -->
<g id="edge17" class="edge">
<title>Node16&#45;&gt;Node18</title>
<path fill="none" stroke="midnightblue" d="M186.07,-229.94C172.5,-228.58 158.52,-227.17 145.3,-225.83"/>
<polygon fill="midnightblue" stroke="midnightblue" points="186.04,-233.46 196.35,-230.98 186.75,-226.49 186.04,-233.46"/>
</g>
<!-- Node25&#45;&gt;Node5 -->
<g id="edge25" class="edge">
<title>Node25&#45;&gt;Node5</title>
<path fill="none" stroke="midnightblue" d="M558.92,-314C543.49,-314 527.64,-314 513.21,-314"/>
<polygon fill="midnightblue" stroke="midnightblue" points="558.97,-317.5 568.97,-314 558.97,-310.5 558.97,-317.5"/>
</g>
<!-- Node26 -->
<g id="node26" class="node">
<title>Node26</title>
<g id="a_node26"><a xlink:href="classsss_1_1WebClient.html#ab5af9d8e7c424e49fab04f0d9d59b489" target="_top" xlink:title="Upload file starting from offset using unbuffered memory mapping of file.">
<polygon fill="none" stroke="black" points="381,-266.5 381,-285.5 533,-285.5 533,-266.5 381,-266.5"/>
<text text-anchor="middle" x="457" y="-273.5" font-family="Helvetica,sans-Serif" font-size="10.00">sss::WebClient::UploadFileMM</text>
</a>
</g>
</g>
<!-- Node25&#45;&gt;Node26 -->
<g id="edge26" class="edge">
<title>Node25&#45;&gt;Node26</title>
<path fill="none" stroke="midnightblue" d="M559.06,-297.28C539.95,-293.25 520.18,-289.09 503.26,-285.53"/>
<polygon fill="midnightblue" stroke="midnightblue" points="558.47,-300.73 568.97,-299.36 559.91,-293.88 558.47,-300.73"/>
</g>
</g>
</svg>
