<?xml version="1.0" encoding="UTF-8" standalone="no"?>
<!DOCTYPE svg PUBLIC "-//W3C//DTD SVG 1.1//EN"
 "http://www.w3.org/Graphics/SVG/1.1/DTD/svg11.dtd">
<!-- Generated by graphviz version 8.0.5 (20230430.1635)
 -->
<!-- Title: sss::WebClient::SetWriteFunction Pages: 1 -->
<!--zoomable 655 -->
<svg id="main" version="1.1" xmlns="http://www.w3.org/2000/svg" xmlns:xlink="http://www.w3.org/1999/xlink" xml:space="preserve" onload="init(evt)">
<style type="text/css"><![CDATA[
.edge:hover path { stroke: red; }
.edge:hover polygon { stroke: red; fill: red; }
]]></style>
<script type="text/javascript"><![CDATA[
var edges = document.getElementsByTagName('g');
if (edges && edges.length) {
  for (var i=0;i<edges.length;i++) {
    if (edges[i].id.substr(0,4)=='edge') {
      edges[i].setAttribute('class','edge');
    }
  }
}
]]></script>
        <defs>
                <circle id="rim" cx="0" cy="0" r="7"/>
                <circle id="rim2" cx="0" cy="0" r="3.5"/>
                <g id="zoomPlus">
                        <use xlink:href="#rim" fill="#404040">
                                <set attributeName="fill" to="#808080" begin="zoomplus.mouseover" end="zoomplus.mouseout"/>
                        </use>
                        <path d="M-4,0h8M0,-4v8" fill="none" stroke="white" stroke-width="1.5" pointer-events="none"/>
                </g>
                <g id="zoomMin">
                        <use xlink:href="#rim" fill="#404040">
                                <set attributeName="fill" to="#808080" begin="zoomminus.mouseover" end="zoomminus.mouseout"/>
                        </use>
                        <path d="M-4,0h8" fill="none" stroke="white" stroke-width="1.5" pointer-events="none"/>
                </g>
                <g id="dirArrow">
                        <path fill="none" stroke="white" stroke-width="1.5" d="M0,-3.0v7 M-2.5,-0.5L0,-3.0L2.5,-0.5"/>
                </g>
               <g id="resetDef">
                       <use xlink:href="#rim2" fill="#404040">
                               <set attributeName="fill" to="#808080" begin="reset.mouseover" end="reset.mouseout"/>
                       </use>
               </g>
        </defs>

<script type="text/javascript">
var viewWidth = 1182;
var viewHeight = 655;
var sectionId = 'dynsection-16';
</script>
<script xlink:href="svgpan.js"/>
<svg id="graph" class="graph">
<g id="viewport">
<title>sss::WebClient::SetWriteFunction</title>
<!-- Node1 -->
<g id="node1" class="node">
<title>Node1</title>
<g id="a_node1"><a xlink:title=" ">
<polygon fill="#999999" stroke="#666666" points="1174,-282.88 1047.75,-282.88 1047.75,-252.38 1174,-252.38 1174,-282.88"/>
<text text-anchor="start" x="1055.75" y="-269.38" font-family="Helvetica,sans-Serif" font-size="10.00">sss::WebClient::SetWrite</text>
<text text-anchor="middle" x="1110.88" y="-258.12" font-family="Helvetica,sans-Serif" font-size="10.00">Function</text>
</a>
</g>
</g>
<!-- Node2 -->
<g id="node2" class="node">
<title>Node2</title>
<g id="a_node2"><a xlink:href="classsss_1_1api_1_1S3Api.html#a1196f1cb9ce1e5d69336e9b8dbb5d59c" target="_top" xlink:title="Download object into file.">
<polygon fill="white" stroke="#666666" points="500.25,-393.88 380,-393.88 380,-363.38 500.25,-363.38 500.25,-393.88"/>
<text text-anchor="start" x="388" y="-380.38" font-family="Helvetica,sans-Serif" font-size="10.00">sss::api::S3Api::GetFile</text>
<text text-anchor="middle" x="440.12" y="-369.12" font-family="Helvetica,sans-Serif" font-size="10.00">Object</text>
</a>
</g>
</g>
<!-- Node1&#45;&gt;Node2 -->
<g id="edge1" class="edge">
<title>Node1&#45;&gt;Node2</title>
<path fill="none" stroke="#63b8ff" d="M1065.61,-287.39C1049.01,-294.1 1029.79,-301.05 1011.75,-305.62 829.02,-351.96 605.54,-369.66 500.74,-375.75"/>
<polygon fill="#63b8ff" stroke="#63b8ff" points="1066.67,-290.32 1074.58,-283.27 1064,-283.85 1066.67,-290.32"/>
</g>
<!-- Node3 -->
<g id="node3" class="node">
<title>Node3</title>
<g id="a_node3"><a xlink:href="classsss_1_1WebClient.html#a96837f149bb473853a6523d096a25c56" target="_top" xlink:title="Reset read/write functions to default.">
<polygon fill="white" stroke="#666666" points="1011.75,-296.25 837.5,-296.25 837.5,-277 1011.75,-277 1011.75,-296.25"/>
<text text-anchor="middle" x="924.62" y="-282.75" font-family="Helvetica,sans-Serif" font-size="10.00">sss::WebClient::ResetRWFunctions</text>
</a>
</g>
</g>
<!-- Node1&#45;&gt;Node3 -->
<g id="edge2" class="edge">
<title>Node1&#45;&gt;Node3</title>
<path fill="none" stroke="#63b8ff" d="M1036.65,-275.18C1028.59,-276.01 1020.33,-276.86 1012.13,-277.7"/>
<polygon fill="#63b8ff" stroke="#63b8ff" points="1036.91,-278.56 1046.5,-274.06 1036.19,-271.6 1036.91,-278.56"/>
</g>
<!-- Node26 -->
<g id="node26" class="node">
<title>Node26</title>
<g id="a_node26"><a xlink:href="classsss_1_1api_1_1S3Api.html#a0473917e4d25a4a6fca40d097e4299d6" target="_top" xlink:title=" ">
<polygon fill="white" stroke="#666666" points="321.88,-19.25 210.62,-19.25 210.62,0 321.88,0 321.88,-19.25"/>
<text text-anchor="middle" x="266.25" y="-5.75" font-family="Helvetica,sans-Serif" font-size="10.00">sss::api::S3Api::Send</text>
</a>
</g>
</g>
<!-- Node1&#45;&gt;Node26 -->
<g id="edge32" class="edge">
<title>Node1&#45;&gt;Node26</title>
<path fill="none" stroke="#63b8ff" d="M1036.61,-261.54C963.26,-255.98 847.15,-248.62 746.5,-248.62 746.5,-248.62 746.5,-248.62 593.88,-248.62 445.62,-248.62 475.69,-95.73 344,-27.62 337.19,-24.1 329.69,-21.26 322.12,-18.97"/>
<polygon fill="#63b8ff" stroke="#63b8ff" points="1036.32,-265.11 1046.56,-262.38 1036.85,-258.13 1036.32,-265.11"/>
</g>
<!-- Node28 -->
<g id="node28" class="node">
<title>Node28</title>
<g id="a_node28"><a xlink:href="group__S3Client.html#gaba88d66bdabd9d5d15bc07a3ce387c50" target="_top" xlink:title="Send S3 request to endpoint.">
<polygon fill="white" stroke="#666666" points="979.12,-220.25 870.12,-220.25 870.12,-201 979.12,-201 979.12,-220.25"/>
<text text-anchor="middle" x="924.62" y="-206.75" font-family="Helvetica,sans-Serif" font-size="10.00">sss::SendS3Request</text>
</a>
</g>
</g>
<!-- Node1&#45;&gt;Node28 -->
<g id="edge33" class="edge">
<title>Node1&#45;&gt;Node28</title>
<path fill="none" stroke="#63b8ff" d="M1055.07,-248.63C1041,-243.9 1025.85,-238.96 1011.75,-234.62 996.02,-229.79 978.55,-224.85 963.48,-220.71"/>
<polygon fill="#63b8ff" stroke="#63b8ff" points="1053.5,-252.13 1064.09,-252.01 1055.74,-245.5 1053.5,-252.13"/>
</g>
<!-- Node4 -->
<g id="node4" class="node">
<title>Node4</title>
<g id="a_node4"><a xlink:href="classsss_1_1api_1_1S3Api.html#a3718745d3b940462ae9f3b78f773b3a6" target="_top" xlink:title="Clear data and reset read and write functions.">
<polygon fill="white" stroke="#666666" points="801.5,-296.25 689.5,-296.25 689.5,-277 801.5,-277 801.5,-296.25"/>
<text text-anchor="middle" x="745.5" y="-282.75" font-family="Helvetica,sans-Serif" font-size="10.00">sss::api::S3Api::Clear</text>
</a>
</g>
</g>
<!-- Node3&#45;&gt;Node4 -->
<g id="edge3" class="edge">
<title>Node3&#45;&gt;Node4</title>
<path fill="none" stroke="#63b8ff" d="M826.35,-286.62C817.87,-286.62 809.49,-286.62 801.53,-286.62"/>
<polygon fill="#63b8ff" stroke="#63b8ff" points="826.14,-290.13 836.14,-286.62 826.14,-283.13 826.14,-290.13"/>
</g>
<!-- Node5 -->
<g id="node5" class="node">
<title>Node5</title>
<g id="a_node5"><a xlink:href="classsss_1_1api_1_1S3Api.html#a840772746fbb0a79c161037da7b24a31" target="_top" xlink:title="Configure instance.">
<polygon fill="white" stroke="#666666" points="653.5,-309.25 536.25,-309.25 536.25,-290 653.5,-290 653.5,-309.25"/>
<text text-anchor="middle" x="594.88" y="-295.75" font-family="Helvetica,sans-Serif" font-size="10.00">sss::api::S3Api::Config</text>
</a>
</g>
</g>
<!-- Node4&#45;&gt;Node5 -->
<g id="edge4" class="edge">
<title>Node4&#45;&gt;Node5</title>
<path fill="none" stroke="#63b8ff" d="M678.45,-292.4C670.22,-293.12 661.85,-293.85 653.75,-294.56"/>
<polygon fill="#63b8ff" stroke="#63b8ff" points="678.5,-295.82 688.16,-291.47 677.89,-288.85 678.5,-295.82"/>
</g>
<!-- Node5&#45;&gt;Node2 -->
<g id="edge5" class="edge">
<title>Node5&#45;&gt;Node2</title>
<path fill="none" stroke="#63b8ff" d="M568.73,-315.26C550.14,-326.54 524.03,-341.79 500.25,-353.62 493.86,-356.8 486.98,-359.95 480.24,-362.89"/>
<polygon fill="#63b8ff" stroke="#63b8ff" points="570.27,-317.81 576.97,-309.61 566.61,-311.84 570.27,-317.81"/>
</g>
<!-- Node6 -->
<g id="node6" class="node">
<title>Node6</title>
<g id="a_node6"><a xlink:href="classsss_1_1api_1_1S3Api.html#ab7affe0834f5892b393e731783b7ccac" target="_top" xlink:title="Upload file to object.">
<polygon fill="white" stroke="#666666" points="499.88,-344.88 380.38,-344.88 380.38,-314.38 499.88,-314.38 499.88,-344.88"/>
<text text-anchor="start" x="388.38" y="-331.38" font-family="Helvetica,sans-Serif" font-size="10.00">sss::api::S3Api::PutFile</text>
<text text-anchor="middle" x="440.12" y="-320.12" font-family="Helvetica,sans-Serif" font-size="10.00">Object</text>
</a>
</g>
</g>
<!-- Node5&#45;&gt;Node6 -->
<g id="edge6" class="edge">
<title>Node5&#45;&gt;Node6</title>
<path fill="none" stroke="#63b8ff" d="M531.86,-311.81C521.4,-313.86 510.57,-315.99 500.19,-318.02"/>
<polygon fill="#63b8ff" stroke="#63b8ff" points="532.45,-315.06 541.59,-309.7 531.1,-308.19 532.45,-315.06"/>
</g>
<!-- Node7 -->
<g id="node7" class="node">
<title>Node7</title>
<g id="a_node7"><a xlink:href="classsss_1_1api_1_1S3Api.html#ad09581bf28c4bbbcbb71b329959ec1ae" target="_top" xlink:title="Send request.">
<polygon fill="white" stroke="#666666" points="495.75,-296.25 384.5,-296.25 384.5,-277 495.75,-277 495.75,-296.25"/>
<text text-anchor="middle" x="440.12" y="-282.75" font-family="Helvetica,sans-Serif" font-size="10.00">sss::api::S3Api::Send</text>
</a>
</g>
</g>
<!-- Node5&#45;&gt;Node7 -->
<g id="edge7" class="edge">
<title>Node5&#45;&gt;Node7</title>
<path fill="none" stroke="#63b8ff" d="M525.24,-293.78C515.51,-292.96 505.61,-292.11 496.18,-291.31"/>
<polygon fill="#63b8ff" stroke="#63b8ff" points="524.87,-297.35 535.13,-294.71 525.46,-290.37 524.87,-297.35"/>
</g>
<!-- Node8 -->
<g id="node8" class="node">
<title>Node8</title>
<g id="a_node8"><a xlink:href="classsss_1_1api_1_1S3Api.html#a4ea265566c3c4335ec01201cdc4410c6" target="_top" xlink:title="Abort multipart upload.">
<polygon fill="white" stroke="#666666" points="341,-646.88 191.5,-646.88 191.5,-616.38 341,-616.38 341,-646.88"/>
<text text-anchor="start" x="199.5" y="-633.38" font-family="Helvetica,sans-Serif" font-size="10.00">sss::api::S3Api::AbortMultipart</text>
<text text-anchor="middle" x="266.25" y="-622.12" font-family="Helvetica,sans-Serif" font-size="10.00">Upload</text>
</a>
</g>
</g>
<!-- Node7&#45;&gt;Node8 -->
<g id="edge8" class="edge">
<title>Node7&#45;&gt;Node8</title>
<path fill="none" stroke="#63b8ff" d="M382.39,-303.01C381.55,-303.84 380.75,-304.71 380,-305.62 294.3,-409.58 429.5,-502.5 344,-606.62 341.07,-610.2 337.61,-613.27 333.82,-615.9"/>
<polygon fill="#63b8ff" stroke="#63b8ff" points="383.99,-305.43 389.85,-296.6 379.76,-299.85 383.99,-305.43"/>
</g>
<!-- Node9 -->
<g id="node9" class="node">
<title>Node9</title>
<g id="a_node9"><a xlink:href="classsss_1_1api_1_1S3Api.html#a98f999a216121118dd569c7ef0c28ff3" target="_top" xlink:title="Complete multipart upload.">
<polygon fill="white" stroke="#666666" points="331.62,-597.88 200.88,-597.88 200.88,-567.38 331.62,-567.38 331.62,-597.88"/>
<text text-anchor="start" x="208.88" y="-584.38" font-family="Helvetica,sans-Serif" font-size="10.00">sss::api::S3Api::Complete</text>
<text text-anchor="middle" x="266.25" y="-573.12" font-family="Helvetica,sans-Serif" font-size="10.00">MultipartUpload</text>
</a>
</g>
</g>
<!-- Node7&#45;&gt;Node9 -->
<g id="edge9" class="edge">
<title>Node7&#45;&gt;Node9</title>
<path fill="none" stroke="#63b8ff" d="M382.42,-303.03C381.57,-303.85 380.76,-304.72 380,-305.62 306.78,-392.45 417.56,-472.09 344,-558.62 340.56,-562.67 336.46,-566.04 331.95,-568.85"/>
<polygon fill="#63b8ff" stroke="#63b8ff" points="384.01,-305.46 389.93,-296.67 379.83,-299.85 384.01,-305.46"/>
</g>
<!-- Node10 -->
<g id="node10" class="node">
<title>Node10</title>
<g id="a_node10"><a xlink:href="classsss_1_1api_1_1S3Api.html#ad890bd1ecfc978df24b2c3ed641e4081" target="_top" xlink:title="Create bucket.">
<polygon fill="white" stroke="#666666" points="340.62,-549.25 191.88,-549.25 191.88,-530 340.62,-530 340.62,-549.25"/>
<text text-anchor="middle" x="266.25" y="-535.75" font-family="Helvetica,sans-Serif" font-size="10.00">sss::api::S3Api::CreateBucket</text>
</a>
</g>
</g>
<!-- Node7&#45;&gt;Node10 -->
<g id="edge10" class="edge">
<title>Node7&#45;&gt;Node10</title>
<path fill="none" stroke="#63b8ff" d="M382.51,-303C381.63,-303.83 380.79,-304.71 380,-305.62 316.63,-378.92 409.83,-449.54 344,-520.62 340.64,-524.25 336.71,-527.23 332.43,-529.68"/>
<polygon fill="#63b8ff" stroke="#63b8ff" points="384.29,-305.31 390.31,-296.59 380.16,-299.65 384.29,-305.31"/>
</g>
<!-- Node12 -->
<g id="node12" class="node">
<title>Node12</title>
<g id="a_node12"><a xlink:href="classsss_1_1api_1_1S3Api.html#a1796fafda3d90a4292a611ce1999433b" target="_top" xlink:title="Create multipart upload.">
<polygon fill="white" stroke="#666666" points="344,-511.88 188.5,-511.88 188.5,-481.38 344,-481.38 344,-511.88"/>
<text text-anchor="start" x="196.5" y="-498.38" font-family="Helvetica,sans-Serif" font-size="10.00">sss::api::S3Api::CreateMultipart</text>
<text text-anchor="middle" x="266.25" y="-487.12" font-family="Helvetica,sans-Serif" font-size="10.00">Upload</text>
</a>
</g>
</g>
<!-- Node7&#45;&gt;Node12 -->
<g id="edge12" class="edge">
<title>Node7&#45;&gt;Node12</title>
<path fill="none" stroke="#63b8ff" d="M382.57,-303.05C381.67,-303.87 380.81,-304.73 380,-305.62 329.02,-361.89 395.2,-416.56 344,-472.62 341.08,-475.82 337.74,-478.59 334.13,-481"/>
<polygon fill="#63b8ff" stroke="#63b8ff" points="384.34,-305.38 390.48,-296.74 380.29,-299.67 384.34,-305.38"/>
</g>
<!-- Node13 -->
<g id="node13" class="node">
<title>Node13</title>
<g id="a_node13"><a xlink:href="classsss_1_1api_1_1S3Api.html#a3d63825d1916e4ba3ca13122c7660603" target="_top" xlink:title="Delete bucket.">
<polygon fill="white" stroke="#666666" points="340.25,-463.25 192.25,-463.25 192.25,-444 340.25,-444 340.25,-463.25"/>
<text text-anchor="middle" x="266.25" y="-449.75" font-family="Helvetica,sans-Serif" font-size="10.00">sss::api::S3Api::DeleteBucket</text>
</a>
</g>
</g>
<!-- Node7&#45;&gt;Node13 -->
<g id="edge13" class="edge">
<title>Node7&#45;&gt;Node13</title>
<path fill="none" stroke="#63b8ff" d="M383.12,-302.7C382.03,-303.62 380.99,-304.6 380,-305.62 338.48,-348.87 387.23,-394.08 344,-435.62 340.74,-438.75 337.05,-441.38 333.09,-443.57"/>
<polygon fill="#63b8ff" stroke="#63b8ff" points="384.87,-305.08 391.26,-296.63 381,-299.25 384.87,-305.08"/>
</g>
<!-- Node14 -->
<g id="node14" class="node">
<title>Node14</title>
<g id="a_node14"><a xlink:href="classsss_1_1api_1_1S3Api.html#a14a75f15eb71fbba8639673100768b67" target="_top" xlink:title="Delete object.">
<polygon fill="white" stroke="#666666" points="339.12,-426.25 193.38,-426.25 193.38,-407 339.12,-407 339.12,-426.25"/>
<text text-anchor="middle" x="266.25" y="-412.75" font-family="Helvetica,sans-Serif" font-size="10.00">sss::api::S3Api::DeleteObject</text>
</a>
</g>
</g>
<!-- Node7&#45;&gt;Node14 -->
<g id="edge15" class="edge">
<title>Node7&#45;&gt;Node14</title>
<path fill="none" stroke="#63b8ff" d="M384.19,-302.13C382.72,-303.21 381.32,-304.38 380,-305.62 347.76,-336.04 377.44,-369.54 344,-398.62 340.39,-401.77 336.33,-404.39 332.01,-406.57"/>
<polygon fill="#63b8ff" stroke="#63b8ff" points="385.45,-304.85 392.21,-296.69 381.84,-298.86 385.45,-304.85"/>
</g>
<!-- Node15 -->
<g id="node15" class="node">
<title>Node15</title>
<g id="a_node15"><a xlink:href="classsss_1_1api_1_1S3Api.html#a3b53152bf39143843a4033aa4a1b3fa0" target="_top" xlink:title=" ">
<polygon fill="white" stroke="#666666" points="341,-389.25 191.5,-389.25 191.5,-370 341,-370 341,-389.25"/>
<text text-anchor="middle" x="266.25" y="-375.75" font-family="Helvetica,sans-Serif" font-size="10.00">sss::api::S3Api::GetBucketAcl</text>
</a>
</g>
</g>
<!-- Node7&#45;&gt;Node15 -->
<g id="edge16" class="edge">
<title>Node7&#45;&gt;Node15</title>
<path fill="none" stroke="#63b8ff" d="M386.05,-301.55C383.94,-302.8 381.91,-304.16 380,-305.62 356.54,-323.65 368.17,-344.56 344,-361.62 339.53,-364.78 334.58,-367.39 329.41,-369.55"/>
<polygon fill="#63b8ff" stroke="#63b8ff" points="387.35,-304.31 394.71,-296.69 384.2,-298.05 387.35,-304.31"/>
</g>
<!-- Node16 -->
<g id="node16" class="node">
<title>Node16</title>
<g id="a_node16"><a xlink:href="classsss_1_1api_1_1S3Api.html#af61465d92c0a94aa82ae863fc2a776a0" target="_top" xlink:title="Download object data.">
<polygon fill="white" stroke="#666666" points="332.75,-352.25 199.75,-352.25 199.75,-333 332.75,-333 332.75,-352.25"/>
<text text-anchor="middle" x="266.25" y="-338.75" font-family="Helvetica,sans-Serif" font-size="10.00">sss::api::S3Api::GetObject</text>
</a>
</g>
</g>
<!-- Node7&#45;&gt;Node16 -->
<g id="edge18" class="edge">
<title>Node7&#45;&gt;Node16</title>
<path fill="none" stroke="#63b8ff" d="M393.98,-300.22C389.22,-301.93 384.48,-303.74 380,-305.62 363.32,-312.64 360.94,-318.29 344,-324.62 335.92,-327.65 327.18,-330.27 318.57,-332.51"/>
<polygon fill="#63b8ff" stroke="#63b8ff" points="395.03,-303.22 403.36,-296.68 392.77,-296.6 395.03,-303.22"/>
</g>
<!-- Node17 -->
<g id="node17" class="node">
<title>Node17</title>
<g id="a_node17"><a xlink:href="classsss_1_1api_1_1S3Api.html#ae548966dc38f328fc45ee1500f5caf5b" target="_top" xlink:title="Return bucket&#39;s Access Control List.">
<polygon fill="white" stroke="#666666" points="339.88,-315.25 192.62,-315.25 192.62,-296 339.88,-296 339.88,-315.25"/>
<text text-anchor="middle" x="266.25" y="-301.75" font-family="Helvetica,sans-Serif" font-size="10.00">sss::api::S3Api::GetObjectAcl</text>
</a>
</g>
</g>
<!-- Node7&#45;&gt;Node17 -->
<g id="edge19" class="edge">
<title>Node7&#45;&gt;Node17</title>
<path fill="none" stroke="#63b8ff" d="M373.52,-293.88C362.59,-295.09 351.19,-296.35 340.09,-297.57"/>
<polygon fill="#63b8ff" stroke="#63b8ff" points="373.72,-297.27 383.27,-292.69 372.95,-290.31 373.72,-297.27"/>
</g>
<!-- Node18 -->
<g id="node18" class="node">
<title>Node18</title>
<g id="a_node18"><a xlink:href="classsss_1_1api_1_1S3Api.html#aa4a2b1cc2c89a52d1aa89e571b785db2" target="_top" xlink:title=" ">
<polygon fill="white" stroke="#666666" points="337.62,-278.25 194.88,-278.25 194.88,-259 337.62,-259 337.62,-278.25"/>
<text text-anchor="middle" x="266.25" y="-264.75" font-family="Helvetica,sans-Serif" font-size="10.00">sss::api::S3Api::HeadBucket</text>
</a>
</g>
</g>
<!-- Node7&#45;&gt;Node18 -->
<g id="edge20" class="edge">
<title>Node7&#45;&gt;Node18</title>
<path fill="none" stroke="#63b8ff" d="M373.34,-279.74C361.75,-278.52 349.64,-277.25 337.92,-276.03"/>
<polygon fill="#63b8ff" stroke="#63b8ff" points="372.96,-283.32 383.27,-280.88 373.69,-276.36 372.96,-283.32"/>
</g>
<!-- Node19 -->
<g id="node19" class="node">
<title>Node19</title>
<g id="a_node19"><a xlink:href="classsss_1_1api_1_1S3Api.html#abc84a71b9a88b81afaa353ad17a91d22" target="_top" xlink:title="Send HeadObject request.">
<polygon fill="white" stroke="#666666" points="336.5,-204.25 196,-204.25 196,-185 336.5,-185 336.5,-204.25"/>
<text text-anchor="middle" x="266.25" y="-190.75" font-family="Helvetica,sans-Serif" font-size="10.00">sss::api::S3Api::HeadObject</text>
</a>
</g>
</g>
<!-- Node7&#45;&gt;Node19 -->
<g id="edge22" class="edge">
<title>Node7&#45;&gt;Node19</title>
<path fill="none" stroke="#63b8ff" d="M395.3,-272.15C389.88,-269.42 384.63,-266.26 380,-262.62 358.47,-245.7 366.78,-227.83 344,-212.62 339.22,-209.43 333.94,-206.81 328.46,-204.64"/>
<polygon fill="#63b8ff" stroke="#63b8ff" points="393.58,-275.67 404.14,-276.6 396.46,-269.29 393.58,-275.67"/>
</g>
<!-- Node22 -->
<g id="node22" class="node">
<title>Node22</title>
<g id="a_node22"><a xlink:href="classsss_1_1api_1_1S3Api.html#a81e30673c06b609a2ee6e6bfd9130ca6" target="_top" xlink:title="List buckets.">
<polygon fill="white" stroke="#666666" points="336.5,-241.25 196,-241.25 196,-222 336.5,-222 336.5,-241.25"/>
<text text-anchor="middle" x="266.25" y="-227.75" font-family="Helvetica,sans-Serif" font-size="10.00">sss::api::S3Api::ListBuckets</text>
</a>
</g>
</g>
<!-- Node7&#45;&gt;Node22 -->
<g id="edge25" class="edge">
<title>Node7&#45;&gt;Node22</title>
<path fill="none" stroke="#63b8ff" d="M404.21,-272.45C382.12,-263.6 355.62,-253.23 344,-249.62 334.72,-246.75 324.68,-244.08 315.02,-241.73"/>
<polygon fill="#63b8ff" stroke="#63b8ff" points="402.71,-276.03 413.3,-276.51 405.33,-269.53 402.71,-276.03"/>
</g>
<!-- Node23 -->
<g id="node23" class="node">
<title>Node23</title>
<g id="a_node23"><a xlink:href="classsss_1_1api_1_1S3Api.html#a3f00f611cd210a58ac6e8c0555984433" target="_top" xlink:title="List objects by sending a ListObjectsV2 request.">
<polygon fill="white" stroke="#666666" points="341.38,-167.25 191.12,-167.25 191.12,-148 341.38,-148 341.38,-167.25"/>
<text text-anchor="middle" x="266.25" y="-153.75" font-family="Helvetica,sans-Serif" font-size="10.00">sss::api::S3Api::ListObjectsV2</text>
</a>
</g>
</g>
<!-- Node7&#45;&gt;Node23 -->
<g id="edge27" class="edge">
<title>Node7&#45;&gt;Node23</title>
<path fill="none" stroke="#63b8ff" d="M391.74,-271.56C387.46,-269.01 383.45,-266.06 380,-262.62 350.31,-233.14 375.89,-202.72 344,-175.62 340.25,-172.43 336.03,-169.79 331.56,-167.59"/>
<polygon fill="#63b8ff" stroke="#63b8ff" points="389.9,-275.07 400.4,-276.51 393.09,-268.84 389.9,-275.07"/>
</g>
<!-- Node24 -->
<g id="node24" class="node">
<title>Node24</title>
<g id="a_node24"><a xlink:href="classsss_1_1api_1_1S3Api.html#aa35e9b1cc7661cd9bb0d5f2de6cbbc7d" target="_top" xlink:title="Set Access Control Policy for bucket.">
<polygon fill="white" stroke="#666666" points="340.62,-130.25 191.88,-130.25 191.88,-111 340.62,-111 340.62,-130.25"/>
<text text-anchor="middle" x="266.25" y="-116.75" font-family="Helvetica,sans-Serif" font-size="10.00">sss::api::S3Api::PutBucketAcl</text>
</a>
</g>
</g>
<!-- Node7&#45;&gt;Node24 -->
<g id="edge28" class="edge">
<title>Node7&#45;&gt;Node24</title>
<path fill="none" stroke="#63b8ff" d="M390.52,-271.42C386.64,-268.91 383.05,-266 380,-262.62 341.57,-220.01 385.62,-178.13 344,-138.62 340.72,-135.52 337.02,-132.91 333.05,-130.73"/>
<polygon fill="#63b8ff" stroke="#63b8ff" points="388.53,-274.87 398.98,-276.57 391.87,-268.72 388.53,-274.87"/>
</g>
<!-- Node25 -->
<g id="node25" class="node">
<title>Node25</title>
<g id="a_node25"><a xlink:href="classsss_1_1api_1_1S3Api.html#a2cc08fb777cfc4d24c40bea1cde967e7" target="_top" xlink:title="Set Access Control Policy.">
<polygon fill="white" stroke="#666666" points="339.5,-93.25 193,-93.25 193,-74 339.5,-74 339.5,-93.25"/>
<text text-anchor="middle" x="266.25" y="-79.75" font-family="Helvetica,sans-Serif" font-size="10.00">sss::api::S3Api::PutObjectAcl</text>
</a>
</g>
</g>
<!-- Node7&#45;&gt;Node25 -->
<g id="edge29" class="edge">
<title>Node7&#45;&gt;Node25</title>
<path fill="none" stroke="#63b8ff" d="M389.67,-271.2C386.08,-268.75 382.78,-265.91 380,-262.62 332.62,-206.67 395.58,-153.74 344,-101.62 340.92,-98.51 337.41,-95.9 333.63,-93.7"/>
<polygon fill="#63b8ff" stroke="#63b8ff" points="387.66,-274.65 398.08,-276.54 391.11,-268.56 387.66,-274.65"/>
</g>
<!-- Node7&#45;&gt;Node26 -->
<g id="edge30" class="edge">
<title>Node7&#45;&gt;Node26</title>
<path fill="none" stroke="#63b8ff" d="M388.83,-270.98C385.53,-268.58 382.52,-265.81 380,-262.62 314.5,-179.71 415.73,-105.21 344,-27.62 338.15,-21.29 330.53,-16.99 322.36,-14.1"/>
<polygon fill="#63b8ff" stroke="#63b8ff" points="386.77,-274.42 397.16,-276.52 390.35,-268.4 386.77,-274.42"/>
</g>
<!-- Node27 -->
<g id="node27" class="node">
<title>Node27</title>
<g id="a_node27"><a xlink:href="classsss_1_1api_1_1S3Api.html#a23223ee1fb701c55af2d942dbf261ae2" target="_top" xlink:title="Check if bucket exist.">
<polygon fill="white" stroke="#666666" points="335.38,-56.25 197.12,-56.25 197.12,-37 335.38,-37 335.38,-56.25"/>
<text text-anchor="middle" x="266.25" y="-42.75" font-family="Helvetica,sans-Serif" font-size="10.00">sss::api::S3Api::TestBucket</text>
</a>
</g>
</g>
<!-- Node7&#45;&gt;Node27 -->
<g id="edge31" class="edge">
<title>Node7&#45;&gt;Node27</title>
<path fill="none" stroke="#63b8ff" d="M389.38,-271.22C385.87,-268.76 382.67,-265.92 380,-262.62 323.58,-193.22 405.63,-129.45 344,-64.62 340.98,-61.45 337.52,-58.79 333.77,-56.56"/>
<polygon fill="#63b8ff" stroke="#63b8ff" points="387.18,-274.57 397.59,-276.56 390.69,-268.51 387.18,-274.57"/>
</g>
<!-- Node11 -->
<g id="node11" class="node">
<title>Node11</title>
<g id="a_node11"><a xlink:href="bucket-test_8cpp.html#a3c04138a5bfe5d72780bb7e82a18e627" target="_top" xlink:title="Bucket tests.">
<polygon fill="white" stroke="#666666" points="94.75,-389.25 57.75,-389.25 57.75,-370 94.75,-370 94.75,-389.25"/>
<text text-anchor="middle" x="76.25" y="-375.75" font-family="Helvetica,sans-Serif" font-size="10.00">main</text>
</a>
</g>
</g>
<!-- Node10&#45;&gt;Node11 -->
<g id="edge11" class="edge">
<title>Node10&#45;&gt;Node11</title>
<path fill="none" stroke="#63b8ff" d="M196.83,-525.3C193.94,-523.89 191.15,-522.33 188.5,-520.62 134.52,-485.81 95.38,-415.73 82.15,-389.68"/>
<polygon fill="#63b8ff" stroke="#63b8ff" points="195.37,-528.91 205.95,-529.6 198.11,-522.47 195.37,-528.91"/>
</g>
<!-- Node13&#45;&gt;Node11 -->
<g id="edge14" class="edge">
<title>Node13&#45;&gt;Node11</title>
<path fill="none" stroke="#63b8ff" d="M204.37,-440.75C198.95,-439.18 193.6,-437.48 188.5,-435.62 153.54,-422.93 115.34,-402.01 94.03,-389.66"/>
<polygon fill="#63b8ff" stroke="#63b8ff" points="203.23,-444.34 213.79,-443.59 205.06,-437.59 203.23,-444.34"/>
</g>
<!-- Node15&#45;&gt;Node11 -->
<g id="edge17" class="edge">
<title>Node15&#45;&gt;Node11</title>
<path fill="none" stroke="#63b8ff" d="M180.41,-379.62C148.32,-379.62 114.79,-379.62 94.98,-379.62"/>
<polygon fill="#63b8ff" stroke="#63b8ff" points="180.22,-383.13 190.22,-379.62 180.22,-376.13 180.22,-383.13"/>
</g>
<!-- Node18&#45;&gt;Node11 -->
<g id="edge21" class="edge">
<title>Node18&#45;&gt;Node11</title>
<path fill="none" stroke="#63b8ff" d="M198.74,-282.13C195.22,-283.49 191.78,-284.98 188.5,-286.62 144.81,-308.45 103.45,-350.61 85.98,-369.74"/>
<polygon fill="#63b8ff" stroke="#63b8ff" points="199.53,-285.21 207.84,-278.64 197.25,-278.6 199.53,-285.21"/>
</g>
<!-- Node20 -->
<g id="node20" class="node">
<title>Node20</title>
<g id="a_node20"><a xlink:href="classsss_1_1api_1_1S3Api.html#a872e80e356e8c404a9b0739d95a0af41" target="_top" xlink:title="Return object size.">
<polygon fill="white" stroke="#666666" points="152.5,-222.25 0,-222.25 0,-203 152.5,-203 152.5,-222.25"/>
<text text-anchor="middle" x="76.25" y="-208.75" font-family="Helvetica,sans-Serif" font-size="10.00">sss::api::S3Api::GetObjectSize</text>
</a>
</g>
</g>
<!-- Node19&#45;&gt;Node20 -->
<g id="edge23" class="edge">
<title>Node19&#45;&gt;Node20</title>
<path fill="none" stroke="#63b8ff" d="M184.63,-202.34C174.09,-203.35 163.33,-204.38 152.87,-205.38"/>
<polygon fill="#63b8ff" stroke="#63b8ff" points="184.89,-205.74 194.51,-201.3 184.22,-198.77 184.89,-205.74"/>
</g>
<!-- Node21 -->
<g id="node21" class="node">
<title>Node21</title>
<g id="a_node21"><a xlink:href="classsss_1_1api_1_1S3Api.html#aa3f7a3001bdad58c7b0c04cbd0dc3236" target="_top" xlink:title="Check if key exists.">
<polygon fill="white" stroke="#666666" points="144.25,-185.25 8.25,-185.25 8.25,-166 144.25,-166 144.25,-185.25"/>
<text text-anchor="middle" x="76.25" y="-171.75" font-family="Helvetica,sans-Serif" font-size="10.00">sss::api::S3Api::TestObject</text>
</a>
</g>
</g>
<!-- Node19&#45;&gt;Node21 -->
<g id="edge24" class="edge">
<title>Node19&#45;&gt;Node21</title>
<path fill="none" stroke="#63b8ff" d="M184.88,-186.5C171.48,-185.15 157.71,-183.76 144.69,-182.44"/>
<polygon fill="#63b8ff" stroke="#63b8ff" points="184.21,-190.05 194.51,-187.58 184.92,-183.09 184.21,-190.05"/>
</g>
<!-- Node22&#45;&gt;Node11 -->
<g id="edge26" class="edge">
<title>Node22&#45;&gt;Node11</title>
<path fill="none" stroke="#63b8ff" d="M195.41,-245.87C193.03,-247.03 190.72,-248.27 188.5,-249.62 136.73,-281.13 96.82,-344.97 82.75,-369.61"/>
<polygon fill="#63b8ff" stroke="#63b8ff" points="196.64,-248.73 204.5,-241.63 193.93,-242.28 196.64,-248.73"/>
</g>
</g>
</svg>
        <g id="navigator" transform="translate(0 0)" fill="#404254">
                <rect fill="#f2f5e9" fill-opacity="0.5" stroke="#606060" stroke-width=".5" x="0" y="0" width="60" height="60"/>
                <use id="zoomplus" xlink:href="#zoomPlus" x="17" y="9" onmousedown="handleZoom(evt,'in')"/>
                <use id="zoomminus" xlink:href="#zoomMin" x="42" y="9" onmousedown="handleZoom(evt,'out')"/>
                <use id="reset" xlink:href="#resetDef" x="30" y="36" onmousedown="handleReset()"/>
                <g id="arrowUp" xlink:href="#dirArrow" transform="translate(30 24)" onmousedown="handlePan(0,-1)">
                  <use xlink:href="#rim" fill="#404040">
                        <set attributeName="fill" to="#808080" begin="arrowUp.mouseover" end="arrowUp.mouseout"/>
                  </use>
                  <path fill="none" stroke="white" stroke-width="1.5" d="M0,-3.0v7 M-2.5,-0.5L0,-3.0L2.5,-0.5"/>
                </g>
                <g id="arrowRight" xlink:href="#dirArrow" transform="rotate(90) translate(36 -43)" onmousedown="handlePan(1,0)">
                  <use xlink:href="#rim" fill="#404040">
                        <set attributeName="fill" to="#808080" begin="arrowRight.mouseover" end="arrowRight.mouseout"/>
                  </use>
                  <path fill="none" stroke="white" stroke-width="1.5" d="M0,-3.0v7 M-2.5,-0.5L0,-3.0L2.5,-0.5"/>
                </g>
                <g id="arrowDown" xlink:href="#dirArrow" transform="rotate(180) translate(-30 -48)" onmousedown="handlePan(0,1)">
                  <use xlink:href="#rim" fill="#404040">
                        <set attributeName="fill" to="#808080" begin="arrowDown.mouseover" end="arrowDown.mouseout"/>
                  </use>
                  <path fill="none" stroke="white" stroke-width="1.5" d="M0,-3.0v7 M-2.5,-0.5L0,-3.0L2.5,-0.5"/>
                </g>
                <g id="arrowLeft" xlink:href="#dirArrow" transform="rotate(270) translate(-36 17)" onmousedown="handlePan(-1,0)">
                  <use xlink:href="#rim" fill="#404040">
                        <set attributeName="fill" to="#808080" begin="arrowLeft.mouseover" end="arrowLeft.mouseout"/>
                  </use>
                  <path fill="none" stroke="white" stroke-width="1.5" d="M0,-3.0v7 M-2.5,-0.5L0,-3.0L2.5,-0.5"/>
                </g>
        </g>
        <svg viewBox="0 0 15 15" width="100%" height="30px" preserveAspectRatio="xMaxYMin meet">
         <g id="arrow_out" transform="scale(0.3 0.3)">
          <a xlink:href="classsss_1_1WebClient_a002876073b3869a9b9a9d709d14f1d7e_icgraph_org.svg" target="_base">
           <rect id="button" ry="5" rx="5" y="6" x="6" height="38" width="38"
                fill="#f2f5e9" fill-opacity="0.5" stroke="#606060" stroke-width="1.0"/>
           <path id="arrow"
             d="M 11.500037,31.436501 C 11.940474,20.09759 22.043105,11.32322 32.158766,21.979434 L 37.068811,17.246167 C 37.068811,17.246167 37.088388,32 37.088388,32 L 22.160133,31.978069 C 22.160133,31.978069 26.997745,27.140456 26.997745,27.140456 C 18.528582,18.264221 13.291696,25.230495 11.500037,31.436501 z"
             style="fill:#404040;"/>
          </a>
         </g>
        </svg>
</svg>
