<?xml version="1.0" encoding="UTF-8" standalone="no"?>
<!DOCTYPE svg PUBLIC "-//W3C//DTD SVG 1.1//EN"
 "http://www.w3.org/Graphics/SVG/1.1/DTD/svg11.dtd">
<!-- Generated by graphviz version 2.43.0 (0)
 -->
<!-- Title: sss::api::S3Api::DeleteObject Pages: 1 -->
<!--zoomable 521 -->
<svg id="main" version="1.1" xmlns="http://www.w3.org/2000/svg" xmlns:xlink="http://www.w3.org/1999/xlink" xml:space="preserve" onload="init(evt)">
<style type="text/css"><![CDATA[
.edge:hover path { stroke: red; }
.edge:hover polygon { stroke: red; fill: red; }
]]></style>
<script type="text/javascript"><![CDATA[
var edges = document.getElementsByTagName('g');
if (edges && edges.length) {
  for (var i=0;i<edges.length;i++) {
    if (edges[i].id.substr(0,4)=='edge') {
      edges[i].setAttribute('class','edge');
    }
  }
}
]]></script>
        <defs>
                <circle id="rim" cx="0" cy="0" r="7"/>
                <circle id="rim2" cx="0" cy="0" r="3.5"/>
                <g id="zoomPlus">
                        <use xlink:href="#rim" fill="#404040">
                                <set attributeName="fill" to="#808080" begin="zoomplus.mouseover" end="zoomplus.mouseout"/>
                        </use>
                        <path d="M-4,0h8M0,-4v8" fill="none" stroke="white" stroke-width="1.5" pointer-events="none"/>
                </g>
                <g id="zoomMin">
                        <use xlink:href="#rim" fill="#404040">
                                <set attributeName="fill" to="#808080" begin="zoomminus.mouseover" end="zoomminus.mouseout"/>
                        </use>
                        <path d="M-4,0h8" fill="none" stroke="white" stroke-width="1.5" pointer-events="none"/>
                </g>
                <g id="dirArrow">
                        <path fill="none" stroke="white" stroke-width="1.5" d="M0,-3.0v7 M-2.5,-0.5L0,-3.0L2.5,-0.5"/>
                </g>
               <g id="resetDef">
                       <use xlink:href="#rim2" fill="#404040">
                               <set attributeName="fill" to="#808080" begin="reset.mouseover" end="reset.mouseout"/>
                       </use>
               </g>
        </defs>

<script type="text/javascript">
var viewWidth = 1084;
var viewHeight = 521;
var sectionId = 'dynsection-8';
</script>
<script xlink:href="svgpan.js"/>
<svg id="graph" class="graph">
<g id="viewport">
<title>sss::api::S3Api::DeleteObject</title>
<!-- Node1 -->
<g id="node1" class="node">
<title>Node1</title>
<g id="a_node1"><a xlink:title="Delete object.">
<polygon fill="#bfbfbf" stroke="black" points="0,-110 0,-129 146,-129 146,-110 0,-110"/>
<text text-anchor="middle" x="73" y="-117" font-family="Helvetica,sans-Serif" font-size="10.00">sss::api::S3Api::DeleteObject</text>
</a>
</g>
</g>
<!-- Node2 -->
<g id="node2" class="node">
<title>Node2</title>
<g id="a_node2"><a xlink:href="classsss_1_1api_1_1S3Api.html#a02b4f0c95255f151beb72f0a6bdf5889" target="_top" xlink:title="Send request.">
<polygon fill="none" stroke="black" points="182,-110 182,-129 294,-129 294,-110 182,-110"/>
<text text-anchor="middle" x="238" y="-117" font-family="Helvetica,sans-Serif" font-size="10.00">sss::api::S3Api::Send</text>
</a>
</g>
</g>
<!-- Node1&#45;&gt;Node2 -->
<g id="edge1" class="edge">
<title>Node1&#45;&gt;Node2</title>
<path fill="none" stroke="midnightblue" d="M146.44,-119.5C154.91,-119.5 163.5,-119.5 171.86,-119.5"/>
<polygon fill="midnightblue" stroke="midnightblue" points="171.9,-123 181.9,-119.5 171.9,-116 171.9,-123"/>
</g>
<!-- Node3 -->
<g id="node3" class="node">
<title>Node3</title>
<g id="a_node3"><a xlink:href="classsss_1_1api_1_1S3Api.html#a840772746fbb0a79c161037da7b24a31" target="_top" xlink:title="Configure instance.">
<polygon fill="none" stroke="black" points="348.5,-278 348.5,-297 466.5,-297 466.5,-278 348.5,-278"/>
<text text-anchor="middle" x="407.5" y="-285" font-family="Helvetica,sans-Serif" font-size="10.00">sss::api::S3Api::Config</text>
</a>
</g>
</g>
<!-- Node2&#45;&gt;Node3 -->
<g id="edge2" class="edge">
<title>Node2&#45;&gt;Node3</title>
<path fill="none" stroke="midnightblue" d="M248.49,-129.01C275.77,-156.38 354.7,-235.55 389.58,-270.53"/>
<polygon fill="midnightblue" stroke="midnightblue" points="387.16,-273.06 396.7,-277.67 392.12,-268.12 387.16,-273.06"/>
</g>
<!-- Node12 -->
<g id="node12" class="node">
<title>Node12</title>
<g id="a_node12"><a xlink:href="classsss_1_1WebClient.html#a51ce0ecf6487b6a43072643fe4f4cb4e" target="_top" xlink:title=" ">
<polygon fill="none" stroke="black" points="714.5,-468 714.5,-487 860.5,-487 860.5,-468 714.5,-468"/>
<text text-anchor="middle" x="787.5" y="-475" font-family="Helvetica,sans-Serif" font-size="10.00">sss::WebClient::SetPostData</text>
</a>
</g>
</g>
<!-- Node2&#45;&gt;Node12 -->
<g id="edge23" class="edge">
<title>Node2&#45;&gt;Node12</title>
<path fill="none" stroke="midnightblue" d="M242.09,-129.15C259.24,-180.84 348.36,-425.25 521,-496.5 597.65,-528.13 697.29,-506.09 750.03,-490.07"/>
<polygon fill="midnightblue" stroke="midnightblue" points="751.13,-493.39 759.62,-487.06 749.03,-486.71 751.13,-493.39"/>
</g>
<!-- Node19 -->
<g id="node19" class="node">
<title>Node19</title>
<g id="a_node19"><a xlink:href="group__Internal.html#ga2b8b08c2a4994a87377d83ccfa9a6a53" target="_top" xlink:title=" ">
<polygon fill="none" stroke="black" points="358.5,-50 358.5,-69 456.5,-69 456.5,-50 358.5,-50"/>
<text text-anchor="middle" x="407.5" y="-57" font-family="Helvetica,sans-Serif" font-size="10.00">sss::ParseParams</text>
</a>
</g>
</g>
<!-- Node2&#45;&gt;Node19 -->
<g id="edge21" class="edge">
<title>Node2&#45;&gt;Node19</title>
<path fill="none" stroke="midnightblue" d="M262.01,-109.86C280.31,-102.33 306.62,-91.78 330,-83.5 341.16,-79.55 353.36,-75.57 364.66,-72.02"/>
<polygon fill="midnightblue" stroke="midnightblue" points="365.8,-75.33 374.32,-69.03 363.73,-68.65 365.8,-75.33"/>
</g>
<!-- Node20 -->
<g id="node20" class="node">
<title>Node20</title>
<g id="a_node20"><a xlink:href="classsss_1_1WebClient.html#aa1d7484f0e09242ce53b24f9648ce50e" target="_top" xlink:title=" ">
<polygon fill="none" stroke="black" points="536.5,-88 536.5,-107 648.5,-107 648.5,-88 536.5,-88"/>
<text text-anchor="middle" x="592.5" y="-95" font-family="Helvetica,sans-Serif" font-size="10.00">sss::WebClient::Send</text>
</a>
</g>
</g>
<!-- Node2&#45;&gt;Node20 -->
<g id="edge22" class="edge">
<title>Node2&#45;&gt;Node20</title>
<path fill="none" stroke="midnightblue" d="M294.08,-116.06C356.88,-112.14 459.48,-105.74 526.24,-101.57"/>
<polygon fill="midnightblue" stroke="midnightblue" points="526.47,-105.07 536.23,-100.95 526.03,-98.08 526.47,-105.07"/>
</g>
<!-- Node21 -->
<g id="node21" class="node">
<title>Node21</title>
<g id="a_node21"><a xlink:href="classsss_1_1WebClient.html#a7dfd984b33a29686fb0355b65b620e99" target="_top" xlink:title=" ">
<polygon fill="none" stroke="black" points="330,-0.5 330,-30.5 485,-30.5 485,-0.5 330,-0.5"/>
<text text-anchor="start" x="338" y="-18.5" font-family="Helvetica,sans-Serif" font-size="10.00">sss::WebClient::SetUrlEncoded</text>
<text text-anchor="middle" x="407.5" y="-7.5" font-family="Helvetica,sans-Serif" font-size="10.00">PostData</text>
</a>
</g>
</g>
<!-- Node2&#45;&gt;Node21 -->
<g id="edge24" class="edge">
<title>Node2&#45;&gt;Node21</title>
<path fill="none" stroke="midnightblue" d="M247.61,-109.84C262.74,-93.4 295.78,-59.89 330,-40.5 333.87,-38.31 337.95,-36.28 342.14,-34.4"/>
<polygon fill="midnightblue" stroke="midnightblue" points="343.56,-37.6 351.44,-30.53 340.87,-31.14 343.56,-37.6"/>
</g>
<!-- Node23 -->
<g id="node23" class="node">
<title>Node23</title>
<g id="a_node23"><a xlink:href="classsss_1_1WebClient.html#ae7b1f77bd4ae44585f2d49ea493bdcc5" target="_top" xlink:title="Upload data from memory buffer.">
<polygon fill="none" stroke="black" points="337,-126.5 337,-156.5 478,-156.5 478,-126.5 337,-126.5"/>
<text text-anchor="start" x="345" y="-144.5" font-family="Helvetica,sans-Serif" font-size="10.00">sss::WebClient::UploadData</text>
<text text-anchor="middle" x="407.5" y="-133.5" font-family="Helvetica,sans-Serif" font-size="10.00">FromBuffer</text>
</a>
</g>
</g>
<!-- Node2&#45;&gt;Node23 -->
<g id="edge26" class="edge">
<title>Node2&#45;&gt;Node23</title>
<path fill="none" stroke="midnightblue" d="M294.31,-126.76C304.74,-128.13 315.84,-129.59 326.85,-131.04"/>
<polygon fill="midnightblue" stroke="midnightblue" points="326.54,-134.53 336.91,-132.36 327.45,-127.59 326.54,-134.53"/>
</g>
<!-- Node4 -->
<g id="node4" class="node">
<title>Node4</title>
<g id="a_node4"><a xlink:href="classsss_1_1api_1_1S3Api.html#a1a4e05ac14390c7f42feef2c26e22031" target="_top" xlink:title=" ">
<polygon fill="none" stroke="black" points="531.5,-392 531.5,-411 653.5,-411 653.5,-392 531.5,-392"/>
<text text-anchor="middle" x="592.5" y="-399" font-family="Helvetica,sans-Serif" font-size="10.00">sss::api::S3Api::Access</text>
</a>
</g>
</g>
<!-- Node3&#45;&gt;Node4 -->
<g id="edge3" class="edge">
<title>Node3&#45;&gt;Node4</title>
<path fill="none" stroke="midnightblue" d="M418.18,-297.23C436.66,-315.33 478.89,-354.42 521,-377.5 528.83,-381.79 537.56,-385.51 546.14,-388.66"/>
<polygon fill="midnightblue" stroke="midnightblue" points="545.11,-392.01 555.7,-391.97 547.39,-385.39 545.11,-392.01"/>
</g>
<!-- Node5 -->
<g id="node5" class="node">
<title>Node5</title>
<g id="a_node5"><a xlink:href="classsss_1_1api_1_1S3Api.html#a3718745d3b940462ae9f3b78f773b3a6" target="_top" xlink:title="Clear data and reset read and write functions.">
<polygon fill="none" stroke="black" points="536,-316 536,-335 649,-335 649,-316 536,-316"/>
<text text-anchor="middle" x="592.5" y="-323" font-family="Helvetica,sans-Serif" font-size="10.00">sss::api::S3Api::Clear</text>
</a>
</g>
</g>
<!-- Node3&#45;&gt;Node5 -->
<g id="edge4" class="edge">
<title>Node3&#45;&gt;Node5</title>
<path fill="none" stroke="midnightblue" d="M454.68,-297.09C479.26,-302.19 509.69,-308.51 535.6,-313.89"/>
<polygon fill="midnightblue" stroke="midnightblue" points="535.15,-317.37 545.65,-315.98 536.57,-310.52 535.15,-317.37"/>
</g>
<!-- Node10 -->
<g id="node10" class="node">
<title>Node10</title>
<g id="a_node10"><a xlink:href="classsss_1_1WebClient.html#a75890c14fbe4a4bbac61718a4f3c064d" target="_top" xlink:title=" ">
<polygon fill="none" stroke="black" points="717,-373 717,-392 858,-392 858,-373 717,-373"/>
<text text-anchor="middle" x="787.5" y="-380" font-family="Helvetica,sans-Serif" font-size="10.00">sss::WebClient::SetHeaders</text>
</a>
</g>
</g>
<!-- Node3&#45;&gt;Node10 -->
<g id="edge16" class="edge">
<title>Node3&#45;&gt;Node10</title>
<path fill="none" stroke="midnightblue" d="M423.47,-297.1C444.41,-310.06 484.04,-332.84 521,-344.5 581.7,-363.65 653.27,-373.18 706.8,-377.91"/>
<polygon fill="midnightblue" stroke="midnightblue" points="706.66,-381.41 716.92,-378.76 707.25,-374.43 706.66,-381.41"/>
</g>
<!-- Node11 -->
<g id="node11" class="node">
<title>Node11</title>
<g id="a_node11"><a xlink:href="classsss_1_1WebClient.html#a12b5db6b8c667024557ab58059d39994" target="_top" xlink:title=" ">
<polygon fill="none" stroke="black" points="725,-259 725,-278 850,-278 850,-259 725,-259"/>
<text text-anchor="middle" x="787.5" y="-266" font-family="Helvetica,sans-Serif" font-size="10.00">sss::WebClient::SetPath</text>
</a>
</g>
</g>
<!-- Node3&#45;&gt;Node11 -->
<g id="edge18" class="edge">
<title>Node3&#45;&gt;Node11</title>
<path fill="none" stroke="midnightblue" d="M466.73,-284.57C533.35,-281.22 642.48,-275.74 714.41,-272.12"/>
<polygon fill="midnightblue" stroke="midnightblue" points="714.93,-275.6 724.74,-271.6 714.58,-268.61 714.93,-275.6"/>
</g>
<!-- Node13 -->
<g id="node13" class="node">
<title>Node13</title>
<g id="a_node13"><a xlink:href="classsss_1_1WebClient.html#a9bf978d95b79728f6d60fc2bdb4fe546" target="_top" xlink:title=" ">
<polygon fill="none" stroke="black" points="701,-221 701,-240 874,-240 874,-221 701,-221"/>
<text text-anchor="middle" x="787.5" y="-228" font-family="Helvetica,sans-Serif" font-size="10.00">sss::WebClient::SetReqParameters</text>
</a>
</g>
</g>
<!-- Node3&#45;&gt;Node13 -->
<g id="edge19" class="edge">
<title>Node3&#45;&gt;Node13</title>
<path fill="none" stroke="midnightblue" d="M422.22,-277.83C442.62,-264.12 482.67,-239.66 521,-230.5 578.58,-216.75 645.21,-216.79 697.32,-220.25"/>
<polygon fill="midnightblue" stroke="midnightblue" points="697.32,-223.76 707.54,-220.99 697.82,-216.78 697.32,-223.76"/>
</g>
<!-- Node14 -->
<g id="node14" class="node">
<title>Node14</title>
<g id="a_node14"><a xlink:href="classsss_1_1api_1_1S3Api.html#a70f1068d07e1d4c1be164e0cb9328cc0" target="_top" xlink:title=" ">
<polygon fill="none" stroke="black" points="528.5,-164 528.5,-183 656.5,-183 656.5,-164 528.5,-164"/>
<text text-anchor="middle" x="592.5" y="-171" font-family="Helvetica,sans-Serif" font-size="10.00">sss::api::S3Api::Endpoint</text>
</a>
</g>
</g>
<!-- Node3&#45;&gt;Node14 -->
<g id="edge13" class="edge">
<title>Node3&#45;&gt;Node14</title>
<path fill="none" stroke="midnightblue" d="M418.18,-277.77C436.66,-259.67 478.89,-220.58 521,-197.5 528.83,-193.21 537.56,-189.49 546.14,-186.34"/>
<polygon fill="midnightblue" stroke="midnightblue" points="547.39,-189.61 555.7,-183.03 545.11,-182.99 547.39,-189.61"/>
</g>
<!-- Node15 -->
<g id="node15" class="node">
<title>Node15</title>
<g id="a_node15"><a xlink:href="classsss_1_1api_1_1S3Api.html#acfffe29254323fb41231787a0afb7edc" target="_top" xlink:title=" ">
<polygon fill="none" stroke="black" points="533.5,-468 533.5,-487 651.5,-487 651.5,-468 533.5,-468"/>
<text text-anchor="middle" x="592.5" y="-475" font-family="Helvetica,sans-Serif" font-size="10.00">sss::api::S3Api::Secret</text>
</a>
</g>
</g>
<!-- Node3&#45;&gt;Node15 -->
<g id="edge14" class="edge">
<title>Node3&#45;&gt;Node15</title>
<path fill="none" stroke="midnightblue" d="M411.92,-297.01C422.86,-326.06 459.95,-414.36 521,-458.5 523.67,-460.43 526.53,-462.17 529.5,-463.72"/>
<polygon fill="midnightblue" stroke="midnightblue" points="528.17,-466.96 538.72,-467.89 531.05,-460.58 528.17,-466.96"/>
</g>
<!-- Node16 -->
<g id="node16" class="node">
<title>Node16</title>
<g id="a_node16"><a xlink:href="classsss_1_1WebClient.html#afc3b7a92568fbb1ea447918920ca266e" target="_top" xlink:title="Set endpoint: &lt;proto&gt;://&lt;server&gt;:&lt;port&gt;">
<polygon fill="none" stroke="black" points="521,-430 521,-449 664,-449 664,-430 521,-430"/>
<text text-anchor="middle" x="592.5" y="-437" font-family="Helvetica,sans-Serif" font-size="10.00">sss::WebClient::SetEndpoint</text>
</a>
</g>
</g>
<!-- Node3&#45;&gt;Node16 -->
<g id="edge15" class="edge">
<title>Node3&#45;&gt;Node16</title>
<path fill="none" stroke="midnightblue" d="M413.89,-297.27C428.01,-321.97 468.67,-387.25 521,-420.5 524.34,-422.62 527.9,-424.5 531.6,-426.18"/>
<polygon fill="midnightblue" stroke="midnightblue" points="530.4,-429.47 540.98,-429.93 533,-422.97 530.4,-429.47"/>
</g>
<!-- Node17 -->
<g id="node17" class="node">
<title>Node17</title>
<g id="a_node17"><a xlink:href="classsss_1_1WebClient.html#af6233ffd7b294e1e7e606e838dd44e9e" target="_top" xlink:title=" ">
<polygon fill="none" stroke="black" points="524,-126 524,-145 661,-145 661,-126 524,-126"/>
<text text-anchor="middle" x="592.5" y="-133" font-family="Helvetica,sans-Serif" font-size="10.00">sss::WebClient::SetMethod</text>
</a>
</g>
</g>
<!-- Node3&#45;&gt;Node17 -->
<g id="edge17" class="edge">
<title>Node3&#45;&gt;Node17</title>
<path fill="none" stroke="midnightblue" d="M413.89,-277.73C428.01,-253.03 468.67,-187.75 521,-154.5 524.34,-152.38 527.9,-150.5 531.6,-148.82"/>
<polygon fill="midnightblue" stroke="midnightblue" points="533,-152.03 540.98,-145.07 530.4,-145.53 533,-152.03"/>
</g>
<!-- Node18 -->
<g id="node18" class="node">
<title>Node18</title>
<g id="a_node18"><a xlink:href="group__Sign.html#ga3ae8e18ef70752b7369fca66c40c526b" target="_top" xlink:title="Sign headers.">
<polygon fill="none" stroke="black" points="545,-240 545,-259 640,-259 640,-240 545,-240"/>
<text text-anchor="middle" x="592.5" y="-247" font-family="Helvetica,sans-Serif" font-size="10.00">sss::SignHeaders</text>
</a>
</g>
</g>
<!-- Node3&#45;&gt;Node18 -->
<g id="edge20" class="edge">
<title>Node3&#45;&gt;Node18</title>
<path fill="none" stroke="midnightblue" d="M454.68,-277.91C479.26,-272.81 509.69,-266.49 535.6,-261.11"/>
<polygon fill="midnightblue" stroke="midnightblue" points="536.57,-264.48 545.65,-259.02 535.15,-257.63 536.57,-264.48"/>
</g>
<!-- Node6 -->
<g id="node6" class="node">
<title>Node6</title>
<g id="a_node6"><a xlink:href="classsss_1_1WebClient.html#a381f5715b7a2f19a0d4414d278874bae" target="_top" xlink:title="Clear internal buffers.">
<polygon fill="none" stroke="black" points="715.5,-335 715.5,-354 859.5,-354 859.5,-335 715.5,-335"/>
<text text-anchor="middle" x="787.5" y="-342" font-family="Helvetica,sans-Serif" font-size="10.00">sss::WebClient::ClearBuffers</text>
</a>
</g>
</g>
<!-- Node5&#45;&gt;Node6 -->
<g id="edge5" class="edge">
<title>Node5&#45;&gt;Node6</title>
<path fill="none" stroke="midnightblue" d="M649.06,-330.97C666.62,-332.7 686.4,-334.65 705.36,-336.51"/>
<polygon fill="midnightblue" stroke="midnightblue" points="705.2,-340.01 715.49,-337.51 705.88,-333.05 705.2,-340.01"/>
</g>
<!-- Node7 -->
<g id="node7" class="node">
<title>Node7</title>
<g id="a_node7"><a xlink:href="classsss_1_1WebClient.html#a96837f149bb473853a6523d096a25c56" target="_top" xlink:title="Reset read/write functions to default.">
<polygon fill="none" stroke="black" points="700,-297 700,-316 875,-316 875,-297 700,-297"/>
<text text-anchor="middle" x="787.5" y="-304" font-family="Helvetica,sans-Serif" font-size="10.00">sss::WebClient::ResetRWFunctions</text>
</a>
</g>
</g>
<!-- Node5&#45;&gt;Node7 -->
<g id="edge6" class="edge">
<title>Node5&#45;&gt;Node7</title>
<path fill="none" stroke="midnightblue" d="M649.06,-320.03C661.79,-318.78 675.68,-317.41 689.58,-316.04"/>
<polygon fill="midnightblue" stroke="midnightblue" points="690.08,-319.51 699.69,-315.05 689.39,-312.54 690.08,-319.51"/>
</g>
<!-- Node5&#45;&gt;Node10 -->
<g id="edge9" class="edge">
<title>Node5&#45;&gt;Node10</title>
<path fill="none" stroke="midnightblue" d="M622.41,-335.03C635.2,-339.33 650.39,-344.54 664,-349.5 680.13,-355.38 683.57,-358.53 700,-363.5 708.65,-366.11 717.88,-368.53 726.98,-370.7"/>
<polygon fill="midnightblue" stroke="midnightblue" points="726.23,-374.12 736.76,-372.95 727.8,-367.3 726.23,-374.12"/>
</g>
<!-- Node5&#45;&gt;Node11 -->
<g id="edge10" class="edge">
<title>Node5&#45;&gt;Node11</title>
<path fill="none" stroke="midnightblue" d="M622.41,-315.97C635.2,-311.67 650.39,-306.46 664,-301.5 680.13,-295.62 683.57,-292.47 700,-287.5 708.65,-284.89 717.88,-282.47 726.98,-280.3"/>
<polygon fill="midnightblue" stroke="midnightblue" points="727.8,-283.7 736.76,-278.05 726.23,-276.88 727.8,-283.7"/>
</g>
<!-- Node5&#45;&gt;Node12 -->
<g id="edge11" class="edge">
<title>Node5&#45;&gt;Node12</title>
<path fill="none" stroke="midnightblue" d="M605.57,-335.01C637.86,-360.44 726.47,-430.22 766.46,-461.71"/>
<polygon fill="midnightblue" stroke="midnightblue" points="764.41,-464.56 774.43,-468 768.74,-459.06 764.41,-464.56"/>
</g>
<!-- Node5&#45;&gt;Node13 -->
<g id="edge12" class="edge">
<title>Node5&#45;&gt;Node13</title>
<path fill="none" stroke="midnightblue" d="M603.79,-315.93C621.83,-299.7 660.97,-266.84 700,-249.5 705.72,-246.96 711.8,-244.75 717.99,-242.82"/>
<polygon fill="midnightblue" stroke="midnightblue" points="719.12,-246.14 727.77,-240.03 717.2,-239.41 719.12,-246.14"/>
</g>
<!-- Node8 -->
<g id="node8" class="node">
<title>Node8</title>
<g id="a_node8"><a xlink:href="classsss_1_1WebClient.html#a88dbcc61562e84aa9ebf1eabf887ac28" target="_top" xlink:title=" ">
<polygon fill="none" stroke="black" points="911,-319 911,-338 1076,-338 1076,-319 911,-319"/>
<text text-anchor="middle" x="993.5" y="-326" font-family="Helvetica,sans-Serif" font-size="10.00">sss::WebClient::SetReadFunction</text>
</a>
</g>
</g>
<!-- Node7&#45;&gt;Node8 -->
<g id="edge7" class="edge">
<title>Node7&#45;&gt;Node8</title>
<path fill="none" stroke="midnightblue" d="M875.01,-315.83C883.52,-316.75 892.18,-317.68 900.73,-318.6"/>
<polygon fill="midnightblue" stroke="midnightblue" points="900.4,-322.09 910.72,-319.68 901.15,-315.13 900.4,-322.09"/>
</g>
<!-- Node9 -->
<g id="node9" class="node">
<title>Node9</title>
<g id="a_node9"><a xlink:href="classsss_1_1WebClient.html#a002876073b3869a9b9a9d709d14f1d7e" target="_top" xlink:title=" ">
<polygon fill="none" stroke="black" points="930,-269.5 930,-299.5 1057,-299.5 1057,-269.5 930,-269.5"/>
<text text-anchor="start" x="938" y="-287.5" font-family="Helvetica,sans-Serif" font-size="10.00">sss::WebClient::SetWrite</text>
<text text-anchor="middle" x="993.5" y="-276.5" font-family="Helvetica,sans-Serif" font-size="10.00">Function</text>
</a>
</g>
</g>
<!-- Node7&#45;&gt;Node9 -->
<g id="edge8" class="edge">
<title>Node7&#45;&gt;Node9</title>
<path fill="none" stroke="midnightblue" d="M875.01,-297.17C889.87,-295.57 905.17,-293.92 919.63,-292.36"/>
<polygon fill="midnightblue" stroke="midnightblue" points="920.41,-295.79 929.98,-291.24 919.66,-288.83 920.41,-295.79"/>
</g>
<!-- Node22 -->
<g id="node22" class="node">
<title>Node22</title>
<g id="a_node22"><a xlink:href="group__Internal.html#ga6e3db8d156313abef7e2c966df1a3d7c" target="_top" xlink:title=" ">
<polygon fill="none" stroke="black" points="550.5,-6 550.5,-25 634.5,-25 634.5,-6 550.5,-6"/>
<text text-anchor="middle" x="592.5" y="-13" font-family="Helvetica,sans-Serif" font-size="10.00">sss::UrlEncode</text>
</a>
</g>
</g>
<!-- Node21&#45;&gt;Node22 -->
<g id="edge25" class="edge">
<title>Node21&#45;&gt;Node22</title>
<path fill="none" stroke="midnightblue" d="M485.05,-15.5C503.62,-15.5 523.04,-15.5 540.13,-15.5"/>
<polygon fill="midnightblue" stroke="midnightblue" points="540.44,-19 550.44,-15.5 540.44,-12 540.44,-19"/>
</g>
<!-- Node23&#45;&gt;Node17 -->
<g id="edge28" class="edge">
<title>Node23&#45;&gt;Node17</title>
<path fill="none" stroke="midnightblue" d="M478.21,-139.21C489.77,-138.84 501.82,-138.44 513.57,-138.05"/>
<polygon fill="midnightblue" stroke="midnightblue" points="513.92,-141.55 523.8,-137.72 513.69,-134.55 513.92,-141.55"/>
</g>
<!-- Node23&#45;&gt;Node20 -->
<g id="edge27" class="edge">
<title>Node23&#45;&gt;Node20</title>
<path fill="none" stroke="midnightblue" d="M470.97,-126.48C494.22,-120.89 520.27,-114.63 542.18,-109.36"/>
<polygon fill="midnightblue" stroke="midnightblue" points="543.03,-112.75 551.94,-107.01 541.4,-105.95 543.03,-112.75"/>
</g>
</g>
</svg>
        <g id="navigator" transform="translate(0 0)" fill="#404254">
                <rect fill="#f2f5e9" fill-opacity="0.5" stroke="#606060" stroke-width=".5" x="0" y="0" width="60" height="60"/>
                <use id="zoomplus" xlink:href="#zoomPlus" x="17" y="9" onmousedown="handleZoom(evt,'in')"/>
                <use id="zoomminus" xlink:href="#zoomMin" x="42" y="9" onmousedown="handleZoom(evt,'out')"/>
                <use id="reset" xlink:href="#resetDef" x="30" y="36" onmousedown="handleReset()"/>
                <g id="arrowUp" xlink:href="#dirArrow" transform="translate(30 24)" onmousedown="handlePan(0,-1)">
                  <use xlink:href="#rim" fill="#404040">
                        <set attributeName="fill" to="#808080" begin="arrowUp.mouseover" end="arrowUp.mouseout"/>
                  </use>
                  <path fill="none" stroke="white" stroke-width="1.5" d="M0,-3.0v7 M-2.5,-0.5L0,-3.0L2.5,-0.5"/>
                </g>
                <g id="arrowRight" xlink:href="#dirArrow" transform="rotate(90) translate(36 -43)" onmousedown="handlePan(1,0)">
                  <use xlink:href="#rim" fill="#404040">
                        <set attributeName="fill" to="#808080" begin="arrowRight.mouseover" end="arrowRight.mouseout"/>
                  </use>
                  <path fill="none" stroke="white" stroke-width="1.5" d="M0,-3.0v7 M-2.5,-0.5L0,-3.0L2.5,-0.5"/>
                </g>
                <g id="arrowDown" xlink:href="#dirArrow" transform="rotate(180) translate(-30 -48)" onmousedown="handlePan(0,1)">
                  <use xlink:href="#rim" fill="#404040">
                        <set attributeName="fill" to="#808080" begin="arrowDown.mouseover" end="arrowDown.mouseout"/>
                  </use>
                  <path fill="none" stroke="white" stroke-width="1.5" d="M0,-3.0v7 M-2.5,-0.5L0,-3.0L2.5,-0.5"/>
                </g>
                <g id="arrowLeft" xlink:href="#dirArrow" transform="rotate(270) translate(-36 17)" onmousedown="handlePan(-1,0)">
                  <use xlink:href="#rim" fill="#404040">
                        <set attributeName="fill" to="#808080" begin="arrowLeft.mouseover" end="arrowLeft.mouseout"/>
                  </use>
                  <path fill="none" stroke="white" stroke-width="1.5" d="M0,-3.0v7 M-2.5,-0.5L0,-3.0L2.5,-0.5"/>
                </g>
        </g>
        <svg viewBox="0 0 15 15" width="100%" height="30px" preserveAspectRatio="xMaxYMin meet">
         <g id="arrow_out" transform="scale(0.3 0.3)">
          <a xlink:href="classsss_1_1api_1_1S3Api_a14a75f15eb71fbba8639673100768b67_cgraph_org.svg" target="_base">
           <rect id="button" ry="5" rx="5" y="6" x="6" height="38" width="38"
                fill="#f2f5e9" fill-opacity="0.5" stroke="#606060" stroke-width="1.0"/>
           <path id="arrow"
             d="M 11.500037,31.436501 C 11.940474,20.09759 22.043105,11.32322 32.158766,21.979434 L 37.068811,17.246167 C 37.068811,17.246167 37.088388,32 37.088388,32 L 22.160133,31.978069 C 22.160133,31.978069 26.997745,27.140456 26.997745,27.140456 C 18.528582,18.264221 13.291696,25.230495 11.500037,31.436501 z"
             style="fill:#404040;"/>
          </a>
         </g>
        </svg>
</svg>
