<?xml version="1.0" encoding="UTF-8" standalone="no"?>
<!DOCTYPE svg PUBLIC "-//W3C//DTD SVG 1.1//EN"
 "http://www.w3.org/Graphics/SVG/1.1/DTD/svg11.dtd">
<!-- Generated by graphviz version 8.0.5 (20230430.1635)
 -->
<!-- Title: sss::api::S3Api::Config Pages: 1 -->
<!--zoomable 577 -->
<svg id="main" version="1.1" xmlns="http://www.w3.org/2000/svg" xmlns:xlink="http://www.w3.org/1999/xlink" xml:space="preserve" onload="init(evt)">
<style type="text/css"><![CDATA[
.edge:hover path { stroke: red; }
.edge:hover polygon { stroke: red; fill: red; }
]]></style>
<script type="text/javascript"><![CDATA[
var edges = document.getElementsByTagName('g');
if (edges && edges.length) {
  for (var i=0;i<edges.length;i++) {
    if (edges[i].id.substr(0,4)=='edge') {
      edges[i].setAttribute('class','edge');
    }
  }
}
]]></script>
        <defs>
                <circle id="rim" cx="0" cy="0" r="7"/>
                <circle id="rim2" cx="0" cy="0" r="3.5"/>
                <g id="zoomPlus">
                        <use xlink:href="#rim" fill="#404040">
                                <set attributeName="fill" to="#808080" begin="zoomplus.mouseover" end="zoomplus.mouseout"/>
                        </use>
                        <path d="M-4,0h8M0,-4v8" fill="none" stroke="white" stroke-width="1.5" pointer-events="none"/>
                </g>
                <g id="zoomMin">
                        <use xlink:href="#rim" fill="#404040">
                                <set attributeName="fill" to="#808080" begin="zoomminus.mouseover" end="zoomminus.mouseout"/>
                        </use>
                        <path d="M-4,0h8" fill="none" stroke="white" stroke-width="1.5" pointer-events="none"/>
                </g>
                <g id="dirArrow">
                        <path fill="none" stroke="white" stroke-width="1.5" d="M0,-3.0v7 M-2.5,-0.5L0,-3.0L2.5,-0.5"/>
                </g>
               <g id="resetDef">
                       <use xlink:href="#rim2" fill="#404040">
                               <set attributeName="fill" to="#808080" begin="reset.mouseover" end="reset.mouseout"/>
                       </use>
               </g>
        </defs>

<script type="text/javascript">
var viewWidth = 714;
var viewHeight = 577;
var sectionId = 'dynsection-3';
</script>
<script xlink:href="svgpan.js"/>
<svg id="graph" class="graph">
<g id="viewport">
<title>sss::api::S3Api::Config</title>
<!-- Node1 -->
<g id="node1" class="node">
<title>Node1</title>
<g id="a_node1"><a xlink:title="[WebClient::Config]">
<polygon fill="#999999" stroke="#666666" points="117.25,-365.25 0,-365.25 0,-346 117.25,-346 117.25,-365.25"/>
<text text-anchor="middle" x="58.62" y="-351.75" font-family="Helvetica,sans-Serif" font-size="10.00">sss::api::S3Api::Config</text>
</a>
</g>
</g>
<!-- Node2 -->
<g id="node2" class="node">
<title>Node2</title>
<g id="a_node2"><a xlink:href="classsss_1_1api_1_1S3Api.html#aea9741d60e74775ccd4de1c2c58f64fa" target="_top" xlink:title=" ">
<polygon fill="white" stroke="#666666" points="285.12,-536.25 163.38,-536.25 163.38,-517 285.12,-517 285.12,-536.25"/>
<text text-anchor="middle" x="224.25" y="-522.75" font-family="Helvetica,sans-Serif" font-size="10.00">sss::api::S3Api::Access</text>
</a>
</g>
</g>
<!-- Node1&#45;&gt;Node2 -->
<g id="edge1" class="edge">
<title>Node1&#45;&gt;Node2</title>
<path fill="none" stroke="#63b8ff" d="M63.19,-365.46C73.2,-391.68 104.04,-463.88 153.25,-502.62 158.1,-506.44 163.59,-509.67 169.32,-512.4"/>
<polygon fill="#63b8ff" stroke="#63b8ff" points="167.53,-515.87 178.11,-516.54 170.26,-509.42 167.53,-515.87"/>
</g>
<!-- Node3 -->
<g id="node3" class="node">
<title>Node3</title>
<g id="a_node3"><a xlink:href="classsss_1_1api_1_1S3Api.html#a3718745d3b940462ae9f3b78f773b3a6" target="_top" xlink:title="Clear data and reset read and write functions.">
<polygon fill="white" stroke="#666666" points="280.25,-460.25 168.25,-460.25 168.25,-441 280.25,-441 280.25,-460.25"/>
<text text-anchor="middle" x="224.25" y="-446.75" font-family="Helvetica,sans-Serif" font-size="10.00">sss::api::S3Api::Clear</text>
</a>
</g>
</g>
<!-- Node1&#45;&gt;Node3 -->
<g id="edge2" class="edge">
<title>Node1&#45;&gt;Node3</title>
<path fill="none" stroke="#63b8ff" d="M70.36,-365.62C86.99,-380.65 120.48,-409.17 153.25,-426.62 160.5,-430.49 168.5,-433.92 176.42,-436.9"/>
<polygon fill="#63b8ff" stroke="#63b8ff" points="175.12,-440.5 185.72,-440.54 177.46,-433.9 175.12,-440.5"/>
</g>
<!-- Node8 -->
<g id="node8" class="node">
<title>Node8</title>
<g id="a_node8"><a xlink:href="classsss_1_1WebClient.html#a75890c14fbe4a4bbac61718a4f3c064d" target="_top" xlink:title=" ">
<polygon fill="white" stroke="#666666" points="488.62,-569.25 348.12,-569.25 348.12,-550 488.62,-550 488.62,-569.25"/>
<text text-anchor="middle" x="418.38" y="-555.75" font-family="Helvetica,sans-Serif" font-size="10.00">sss::WebClient::SetHeaders</text>
</a>
</g>
</g>
<!-- Node1&#45;&gt;Node8 -->
<g id="edge14" class="edge">
<title>Node1&#45;&gt;Node8</title>
<path fill="none" stroke="#63b8ff" d="M64.92,-365.62C77.27,-387.91 110.19,-441.88 153.25,-469.62 208.17,-505.01 238.21,-475.78 295.25,-507.62 314.47,-518.35 311.74,-531.43 331.25,-541.62 334.2,-543.17 337.27,-544.58 340.43,-545.87"/>
<polygon fill="#63b8ff" stroke="#63b8ff" points="339.12,-549.48 349.71,-549.58 341.5,-542.89 339.12,-549.48"/>
</g>
<!-- Node9 -->
<g id="node9" class="node">
<title>Node9</title>
<g id="a_node9"><a xlink:href="classsss_1_1WebClient.html#a12b5db6b8c667024557ab58059d39994" target="_top" xlink:title=" ">
<polygon fill="white" stroke="#666666" points="480.38,-421.25 356.38,-421.25 356.38,-402 480.38,-402 480.38,-421.25"/>
<text text-anchor="middle" x="418.38" y="-407.75" font-family="Helvetica,sans-Serif" font-size="10.00">sss::WebClient::SetPath</text>
</a>
</g>
</g>
<!-- Node1&#45;&gt;Node9 -->
<g id="edge18" class="edge">
<title>Node1&#45;&gt;Node9</title>
<path fill="none" stroke="#63b8ff" d="M98.61,-365.73C115.35,-369.82 135.18,-374.35 153.25,-377.62 217.83,-389.34 292.02,-398.52 345.29,-404.37"/>
<polygon fill="#63b8ff" stroke="#63b8ff" points="344.67,-407.93 354.99,-405.53 345.43,-400.97 344.67,-407.93"/>
</g>
<!-- Node11 -->
<g id="node11" class="node">
<title>Node11</title>
<g id="a_node11"><a xlink:href="classsss_1_1WebClient.html#a9bf978d95b79728f6d60fc2bdb4fe546" target="_top" xlink:title=" ">
<polygon fill="white" stroke="#666666" points="504.38,-384.25 332.38,-384.25 332.38,-365 504.38,-365 504.38,-384.25"/>
<text text-anchor="middle" x="418.38" y="-370.75" font-family="Helvetica,sans-Serif" font-size="10.00">sss::WebClient::SetReqParameters</text>
</a>
</g>
</g>
<!-- Node1&#45;&gt;Node11 -->
<g id="edge19" class="edge">
<title>Node1&#45;&gt;Node11</title>
<path fill="none" stroke="#63b8ff" d="M117.5,-358.7C172.58,-361.62 256.46,-366.08 321.52,-369.53"/>
<polygon fill="#63b8ff" stroke="#63b8ff" points="321.03,-373.07 331.2,-370.1 321.4,-366.08 321.03,-373.07"/>
</g>
<!-- Node12 -->
<g id="node12" class="node">
<title>Node12</title>
<g id="a_node12"><a xlink:href="classsss_1_1api_1_1S3Api.html#a25a999d87c121627166fc0a896f536c7" target="_top" xlink:title=" ">
<polygon fill="white" stroke="#666666" points="287.75,-346.25 160.75,-346.25 160.75,-327 287.75,-327 287.75,-346.25"/>
<text text-anchor="middle" x="224.25" y="-332.75" font-family="Helvetica,sans-Serif" font-size="10.00">sss::api::S3Api::Endpoint</text>
</a>
</g>
</g>
<!-- Node1&#45;&gt;Node12 -->
<g id="edge11" class="edge">
<title>Node1&#45;&gt;Node12</title>
<path fill="none" stroke="#63b8ff" d="M117.31,-348.93C127.8,-347.71 138.87,-346.42 149.74,-345.16"/>
<polygon fill="#63b8ff" stroke="#63b8ff" points="149.99,-348.54 159.52,-343.91 149.19,-341.59 149.99,-348.54"/>
</g>
<!-- Node13 -->
<g id="node13" class="node">
<title>Node13</title>
<g id="a_node13"><a xlink:href="classsss_1_1api_1_1S3Api.html#a6f518c16679e99f119966b36ac28463f" target="_top" xlink:title=" ">
<polygon fill="white" stroke="#666666" points="282.88,-309.25 165.62,-309.25 165.62,-290 282.88,-290 282.88,-309.25"/>
<text text-anchor="middle" x="224.25" y="-295.75" font-family="Helvetica,sans-Serif" font-size="10.00">sss::api::S3Api::Secret</text>
</a>
</g>
</g>
<!-- Node1&#45;&gt;Node13 -->
<g id="edge12" class="edge">
<title>Node1&#45;&gt;Node13</title>
<path fill="none" stroke="#63b8ff" d="M82.01,-345.55C100.78,-337.34 128.43,-325.81 153.25,-317.62 158.69,-315.83 164.41,-314.11 170.14,-312.48"/>
<polygon fill="#63b8ff" stroke="#63b8ff" points="170.69,-315.68 179.42,-309.67 168.85,-308.93 170.69,-315.68"/>
</g>
<!-- Node14 -->
<g id="node14" class="node">
<title>Node14</title>
<g id="a_node14"><a xlink:href="classsss_1_1WebClient.html#afc3b7a92568fbb1ea447918920ca266e" target="_top" xlink:title="Set endpoint: &#160;&lt;proto&gt;://&lt;server&gt;:&lt;port&gt;">
<polygon fill="white" stroke="#666666" points="295.25,-272.25 153.25,-272.25 153.25,-253 295.25,-253 295.25,-272.25"/>
<text text-anchor="middle" x="224.25" y="-258.75" font-family="Helvetica,sans-Serif" font-size="10.00">sss::WebClient::SetEndpoint</text>
</a>
</g>
</g>
<!-- Node1&#45;&gt;Node14 -->
<g id="edge13" class="edge">
<title>Node1&#45;&gt;Node14</title>
<path fill="none" stroke="#63b8ff" d="M69.03,-345.75C84.88,-329.69 118.6,-297.95 153.25,-280.62 156.39,-279.05 159.69,-277.61 163.06,-276.29"/>
<polygon fill="#63b8ff" stroke="#63b8ff" points="164.07,-279.29 172.34,-272.66 161.75,-272.69 164.07,-279.29"/>
</g>
<!-- Node15 -->
<g id="node15" class="node">
<title>Node15</title>
<g id="a_node15"><a xlink:href="classsss_1_1WebClient.html#af6233ffd7b294e1e7e606e838dd44e9e" target="_top" xlink:title=" ">
<polygon fill="white" stroke="#666666" points="292.25,-235.25 156.25,-235.25 156.25,-216 292.25,-216 292.25,-235.25"/>
<text text-anchor="middle" x="224.25" y="-221.75" font-family="Helvetica,sans-Serif" font-size="10.00">sss::WebClient::SetMethod</text>
</a>
</g>
</g>
<!-- Node1&#45;&gt;Node15 -->
<g id="edge15" class="edge">
<title>Node1&#45;&gt;Node15</title>
<path fill="none" stroke="#63b8ff" d="M64.95,-345.78C77.35,-323.82 110.39,-270.68 153.25,-243.62 155.28,-242.35 157.39,-241.16 159.57,-240.05"/>
<polygon fill="#63b8ff" stroke="#63b8ff" points="160.68,-242.95 168.43,-235.73 157.87,-236.54 160.68,-242.95"/>
</g>
<!-- Node17 -->
<g id="node17" class="node">
<title>Node17</title>
<g id="a_node17"><a xlink:href="group__Sign.html#ga3ae8e18ef70752b7369fca66c40c526b" target="_top" xlink:title="Sign headers.">
<polygon fill="white" stroke="#666666" points="271.25,-189.25 177.25,-189.25 177.25,-170 271.25,-170 271.25,-189.25"/>
<text text-anchor="middle" x="224.25" y="-175.75" font-family="Helvetica,sans-Serif" font-size="10.00">sss::SignHeaders</text>
</a>
</g>
</g>
<!-- Node1&#45;&gt;Node17 -->
<g id="edge20" class="edge">
<title>Node1&#45;&gt;Node17</title>
<path fill="none" stroke="#63b8ff" d="M63.24,-345.76C73.35,-319.44 104.43,-246.83 153.25,-206.62 159.4,-201.56 166.61,-197.37 174.02,-193.93"/>
<polygon fill="#63b8ff" stroke="#63b8ff" points="175.29,-196.78 183.17,-189.7 172.6,-190.32 175.29,-196.78"/>
</g>
<!-- Node4 -->
<g id="node4" class="node">
<title>Node4</title>
<g id="a_node4"><a xlink:href="classsss_1_1WebClient.html#a381f5715b7a2f19a0d4414d278874bae" target="_top" xlink:title="Clear internal buffers.">
<polygon fill="white" stroke="#666666" points="490.12,-458.25 346.62,-458.25 346.62,-439 490.12,-439 490.12,-458.25"/>
<text text-anchor="middle" x="418.38" y="-444.75" font-family="Helvetica,sans-Serif" font-size="10.00">sss::WebClient::ClearBuffers</text>
</a>
</g>
</g>
<!-- Node3&#45;&gt;Node4 -->
<g id="edge3" class="edge">
<title>Node3&#45;&gt;Node4</title>
<path fill="none" stroke="#63b8ff" d="M280.56,-450.05C297.71,-449.87 316.98,-449.67 335.52,-449.48"/>
<polygon fill="#63b8ff" stroke="#63b8ff" points="335.37,-452.97 345.34,-449.36 335.3,-445.97 335.37,-452.97"/>
</g>
<!-- Node5 -->
<g id="node5" class="node">
<title>Node5</title>
<g id="a_node5"><a xlink:href="classsss_1_1WebClient.html#a96837f149bb473853a6523d096a25c56" target="_top" xlink:title="Reset read/write functions to default.">
<polygon fill="white" stroke="#666666" points="505.5,-532.25 331.25,-532.25 331.25,-513 505.5,-513 505.5,-532.25"/>
<text text-anchor="middle" x="418.38" y="-518.75" font-family="Helvetica,sans-Serif" font-size="10.00">sss::WebClient::ResetRWFunctions</text>
</a>
</g>
</g>
<!-- Node3&#45;&gt;Node5 -->
<g id="edge4" class="edge">
<title>Node3&#45;&gt;Node5</title>
<path fill="none" stroke="#63b8ff" d="M262.67,-460.66C273.53,-464.31 285.17,-468.96 295.25,-474.62 313.4,-484.84 312.5,-495.56 331.25,-504.62 334.65,-506.27 338.2,-507.77 341.84,-509.13"/>
<polygon fill="#63b8ff" stroke="#63b8ff" points="340.68,-512.76 351.27,-512.61 342.89,-506.12 340.68,-512.76"/>
</g>
<!-- Node3&#45;&gt;Node8 -->
<g id="edge7" class="edge">
<title>Node3&#45;&gt;Node8</title>
<path fill="none" stroke="#63b8ff" d="M270.83,-460.72C279.58,-464.12 288.2,-468.64 295.25,-474.62 321.02,-496.51 304.17,-521.39 331.25,-541.62 333.37,-543.21 335.59,-544.66 337.9,-545.99"/>
<polygon fill="#63b8ff" stroke="#63b8ff" points="336.26,-549.57 346.78,-550.8 339.32,-543.27 336.26,-549.57"/>
</g>
<!-- Node3&#45;&gt;Node9 -->
<g id="edge8" class="edge">
<title>Node3&#45;&gt;Node9</title>
<path fill="none" stroke="#63b8ff" d="M274.98,-440.53C299.99,-435.45 330.52,-429.26 356.89,-423.9"/>
<polygon fill="#63b8ff" stroke="#63b8ff" points="357.42,-427.16 366.52,-421.74 356.03,-420.3 357.42,-427.16"/>
</g>
<!-- Node10 -->
<g id="node10" class="node">
<title>Node10</title>
<g id="a_node10"><a xlink:href="classsss_1_1WebClient.html#a51ce0ecf6487b6a43072643fe4f4cb4e" target="_top" xlink:title=" ">
<polygon fill="white" stroke="#666666" points="490.88,-495.25 345.88,-495.25 345.88,-476 490.88,-476 490.88,-495.25"/>
<text text-anchor="middle" x="418.38" y="-481.75" font-family="Helvetica,sans-Serif" font-size="10.00">sss::WebClient::SetPostData</text>
</a>
</g>
</g>
<!-- Node3&#45;&gt;Node10 -->
<g id="edge9" class="edge">
<title>Node3&#45;&gt;Node10</title>
<path fill="none" stroke="#63b8ff" d="M280.56,-460.7C302.67,-464.73 328.31,-469.4 351.38,-473.6"/>
<polygon fill="#63b8ff" stroke="#63b8ff" points="350.65,-477.21 361.12,-475.56 351.91,-470.32 350.65,-477.21"/>
</g>
<!-- Node3&#45;&gt;Node11 -->
<g id="edge10" class="edge">
<title>Node3&#45;&gt;Node11</title>
<path fill="none" stroke="#63b8ff" d="M240.03,-440.7C259.92,-427.77 296.81,-405.33 331.25,-392.62 336.4,-390.72 341.81,-389 347.29,-387.45"/>
<polygon fill="#63b8ff" stroke="#63b8ff" points="348.11,-390.59 356.89,-384.66 346.33,-383.82 348.11,-390.59"/>
</g>
<!-- Node6 -->
<g id="node6" class="node">
<title>Node6</title>
<g id="a_node6"><a xlink:href="classsss_1_1WebClient.html#a88dbcc61562e84aa9ebf1eabf887ac28" target="_top" xlink:title=" ">
<polygon fill="white" stroke="#666666" points="706,-554.25 541.5,-554.25 541.5,-535 706,-535 706,-554.25"/>
<text text-anchor="middle" x="623.75" y="-540.75" font-family="Helvetica,sans-Serif" font-size="10.00">sss::WebClient::SetReadFunction</text>
</a>
</g>
</g>
<!-- Node5&#45;&gt;Node6 -->
<g id="edge5" class="edge">
<title>Node5&#45;&gt;Node6</title>
<path fill="none" stroke="#63b8ff" d="M505.92,-531.99C514.04,-532.87 522.29,-533.76 530.46,-534.64"/>
<polygon fill="#63b8ff" stroke="#63b8ff" points="529.81,-538.2 540.13,-535.8 530.57,-531.24 529.81,-538.2"/>
</g>
<!-- Node7 -->
<g id="node7" class="node">
<title>Node7</title>
<g id="a_node7"><a xlink:href="classsss_1_1WebClient.html#a002876073b3869a9b9a9d709d14f1d7e" target="_top" xlink:title=" ">
<polygon fill="white" stroke="#666666" points="686.88,-516.88 560.62,-516.88 560.62,-486.38 686.88,-486.38 686.88,-516.88"/>
<text text-anchor="start" x="568.62" y="-503.38" font-family="Helvetica,sans-Serif" font-size="10.00">sss::WebClient::SetWrite</text>
<text text-anchor="middle" x="623.75" y="-492.12" font-family="Helvetica,sans-Serif" font-size="10.00">Function</text>
</a>
</g>
</g>
<!-- Node5&#45;&gt;Node7 -->
<g id="edge6" class="edge">
<title>Node5&#45;&gt;Node7</title>
<path fill="none" stroke="#63b8ff" d="M505.92,-513.69C520.48,-512.19 535.46,-510.64 549.64,-509.17"/>
<polygon fill="#63b8ff" stroke="#63b8ff" points="549.72,-512.58 559.3,-508.07 549,-505.62 549.72,-512.58"/>
</g>
<!-- Node16 -->
<g id="node16" class="node">
<title>Node16</title>
<g id="a_node16"><a xlink:href="lib_2include_2utility_8h.html#ae153c064d6f1beda845702f67605b20e" target="_top" xlink:title=" ">
<polygon fill="white" stroke="#666666" points="661,-333.25 586.5,-333.25 586.5,-314 661,-314 661,-333.25"/>
<text text-anchor="middle" x="623.75" y="-319.75" font-family="Helvetica,sans-Serif" font-size="10.00">sss::ToUpper</text>
</a>
</g>
</g>
<!-- Node15&#45;&gt;Node16 -->
<g id="edge16" class="edge">
<title>Node15&#45;&gt;Node16</title>
<path fill="none" stroke="#63b8ff" d="M268.48,-235.71C277.4,-238.08 286.68,-240.76 295.25,-243.62 311.69,-249.13 314.73,-253.38 331.25,-258.62 422.51,-287.59 448.04,-284.83 541.5,-305.62 552.61,-308.1 564.59,-310.76 575.83,-313.25"/>
<polygon fill="#63b8ff" stroke="#63b8ff" points="574.82,-316.83 585.35,-315.58 576.34,-310 574.82,-316.83"/>
</g>
<!-- Node16&#45;&gt;Node16 -->
<g id="edge17" class="edge">
<title>Node16&#45;&gt;Node16</title>
<path fill="none" stroke="#63b8ff" d="M591.6,-333.54C576.93,-342.15 587.65,-351.25 623.75,-351.25 646.88,-351.25 659.59,-347.51 661.88,-342.56"/>
<polygon fill="#63b8ff" stroke="#63b8ff" points="664.34,-340.94 655.9,-334.54 658.51,-344.81 664.34,-340.94"/>
</g>
<!-- Node18 -->
<g id="node18" class="node">
<title>Node18</title>
<g id="a_node18"><a xlink:href="group__Ranges.html#ga0aa7f3b15d2ebf9b597a1b5ba38ae8ac" target="_top" xlink:title="return iterator at start position">
<polygon fill="white" stroke="#666666" points="654.25,-19.25 593.25,-19.25 593.25,0 654.25,0 654.25,-19.25"/>
<text text-anchor="middle" x="623.75" y="-5.75" font-family="Helvetica,sans-Serif" font-size="10.00">sss::begin</text>
</a>
</g>
</g>
<!-- Node17&#45;&gt;Node18 -->
<g id="edge21" class="edge">
<title>Node17&#45;&gt;Node18</title>
<path fill="none" stroke="#63b8ff" d="M242.48,-169.58C289.11,-142.79 422.33,-68.85 541.5,-27.62 554.51,-23.12 569.1,-19.48 582.28,-16.68"/>
<polygon fill="#63b8ff" stroke="#63b8ff" points="582.85,-19.93 591.96,-14.52 581.47,-13.07 582.85,-19.93"/>
</g>
<!-- Node19 -->
<g id="node19" class="node">
<title>Node19</title>
<g id="a_node19"><a xlink:href="group__Sign.html#ga904d511ec786b87644cc90dc96dd8f3f" target="_top" xlink:title="Compute signature.">
<polygon fill="white" stroke="#666666" points="477.75,-171.25 359,-171.25 359,-152 477.75,-152 477.75,-171.25"/>
<text text-anchor="middle" x="418.38" y="-157.75" font-family="Helvetica,sans-Serif" font-size="10.00">sss::ComputeSignature</text>
</a>
</g>
</g>
<!-- Node17&#45;&gt;Node19 -->
<g id="edge22" class="edge">
<title>Node17&#45;&gt;Node19</title>
<path fill="none" stroke="#63b8ff" d="M271.27,-175.31C294.19,-173.17 322.39,-170.52 347.88,-168.14"/>
<polygon fill="#63b8ff" stroke="#63b8ff" points="347.99,-171.55 357.62,-167.13 347.33,-164.58 347.99,-171.55"/>
</g>
<!-- Node21 -->
<g id="node21" class="node">
<title>Node21</title>
<g id="a_node21"><a xlink:href="group__Ranges.html#ga4f73053571587e79eb3db628f5e6ef99" target="_top" xlink:title="return iterator at end position">
<polygon fill="white" stroke="#666666" points="650.5,-296.25 597,-296.25 597,-277 650.5,-277 650.5,-296.25"/>
<text text-anchor="middle" x="623.75" y="-282.75" font-family="Helvetica,sans-Serif" font-size="10.00">sss::end</text>
</a>
</g>
</g>
<!-- Node17&#45;&gt;Node21 -->
<g id="edge33" class="edge">
<title>Node17&#45;&gt;Node21</title>
<path fill="none" stroke="#63b8ff" d="M260.9,-189.69C342.13,-212.61 534.52,-266.87 541.5,-268.62 555.98,-272.26 572.02,-275.9 585.99,-278.94"/>
<polygon fill="#63b8ff" stroke="#63b8ff" points="585.17,-282.56 595.68,-281.24 586.64,-275.72 585.17,-282.56"/>
</g>
<!-- Node19&#45;&gt;Node16 -->
<g id="edge31" class="edge">
<title>Node19&#45;&gt;Node16</title>
<path fill="none" stroke="#63b8ff" d="M424.7,-171.58C439.41,-198.06 483.4,-270.58 541.5,-305.62 551.73,-311.79 563.83,-315.86 575.52,-318.53"/>
<polygon fill="#63b8ff" stroke="#63b8ff" points="574.59,-322.11 585.08,-320.61 575.95,-315.24 574.59,-322.11"/>
</g>
<!-- Node19&#45;&gt;Node18 -->
<g id="edge23" class="edge">
<title>Node19&#45;&gt;Node18</title>
<path fill="none" stroke="#63b8ff" d="M432.28,-151.52C449.98,-137.29 482.25,-110 505.5,-82.62 524.41,-60.36 517.46,-44.23 541.5,-27.62 553.32,-19.46 568.21,-14.92 582.01,-12.43"/>
<polygon fill="#63b8ff" stroke="#63b8ff" points="582.38,-15.76 591.76,-10.83 581.35,-8.84 582.38,-15.76"/>
</g>
<!-- Node20 -->
<g id="node20" class="node">
<title>Node20</title>
<g id="a_node20"><a xlink:href="group__Internal.html#ga74c69f25ce04876e114759c0023b2a12" target="_top" xlink:title=" ">
<polygon fill="white" stroke="#666666" points="686.5,-130.25 561,-130.25 561,-111 686.5,-111 686.5,-130.25"/>
<text text-anchor="middle" x="623.75" y="-116.75" font-family="Helvetica,sans-Serif" font-size="10.00">sss::CreateSignatureKey</text>
</a>
</g>
</g>
<!-- Node19&#45;&gt;Node20 -->
<g id="edge24" class="edge">
<title>Node19&#45;&gt;Node20</title>
<path fill="none" stroke="#63b8ff" d="M469.39,-151.54C497.35,-145.9 532.43,-138.83 561.97,-132.88"/>
<polygon fill="#63b8ff" stroke="#63b8ff" points="562.47,-136.15 571.58,-130.74 561.08,-129.28 562.47,-136.15"/>
</g>
<!-- Node19&#45;&gt;Node21 -->
<g id="edge25" class="edge">
<title>Node19&#45;&gt;Node21</title>
<path fill="none" stroke="#63b8ff" d="M432.97,-171.6C450.35,-184.56 481.11,-208.18 505.5,-230.62 522.62,-246.38 521.26,-257.16 541.5,-268.62 555.03,-276.28 571.53,-280.68 586.12,-283.21"/>
<polygon fill="#63b8ff" stroke="#63b8ff" points="585.42,-286.8 595.83,-284.8 586.45,-279.87 585.42,-286.8"/>
</g>
<!-- Node22 -->
<g id="node22" class="node">
<title>Node22</title>
<g id="a_node22"><a xlink:href="group__Internal.html#ga50353a351a93b1213dc4e5211c767d85" target="_top" xlink:title=" ">
<polygon fill="white" stroke="#666666" points="663.62,-93.25 583.88,-93.25 583.88,-74 663.62,-74 663.62,-93.25"/>
<text text-anchor="middle" x="623.75" y="-79.75" font-family="Helvetica,sans-Serif" font-size="10.00">sss::GetDates</text>
</a>
</g>
</g>
<!-- Node19&#45;&gt;Node22 -->
<g id="edge26" class="edge">
<title>Node19&#45;&gt;Node22</title>
<path fill="none" stroke="#63b8ff" d="M436.6,-151.52C459.74,-138.32 502.49,-115.31 541.5,-101.62 551.62,-98.07 562.71,-95.07 573.35,-92.59"/>
<polygon fill="#63b8ff" stroke="#63b8ff" points="573.77,-95.86 582.78,-90.29 572.27,-89.03 573.77,-95.86"/>
</g>
<!-- Node23 -->
<g id="node23" class="node">
<title>Node23</title>
<g id="a_node23"><a xlink:href="group__Internal.html#ga990dfaae4abc6bf20a28f9772b7bcd16" target="_top" xlink:title="Byte to hex string conversion.">
<polygon fill="white" stroke="#666666" points="651.62,-56.25 595.88,-56.25 595.88,-37 651.62,-37 651.62,-56.25"/>
<text text-anchor="middle" x="623.75" y="-42.75" font-family="Helvetica,sans-Serif" font-size="10.00">sss::Hex</text>
</a>
</g>
</g>
<!-- Node19&#45;&gt;Node23 -->
<g id="edge27" class="edge">
<title>Node19&#45;&gt;Node23</title>
<path fill="none" stroke="#63b8ff" d="M428.75,-151.6C447.93,-131.73 493.83,-87.33 541.5,-64.62 554.88,-58.25 570.58,-54.09 584.6,-51.4"/>
<polygon fill="#63b8ff" stroke="#63b8ff" points="585.14,-54.69 594.4,-49.54 583.95,-47.79 585.14,-54.69"/>
</g>
<!-- Node24 -->
<g id="node24" class="node">
<title>Node24</title>
<g id="a_node24"><a xlink:href="group__Internal.html#ga7160aa316f2c6633467b47588263c690" target="_top" xlink:title=" ">
<polygon fill="white" stroke="#666666" points="665.5,-259.25 582,-259.25 582,-240 665.5,-240 665.5,-259.25"/>
<text text-anchor="middle" x="623.75" y="-245.75" font-family="Helvetica,sans-Serif" font-size="10.00">sss::ParseURL</text>
</a>
</g>
</g>
<!-- Node19&#45;&gt;Node24 -->
<g id="edge28" class="edge">
<title>Node19&#45;&gt;Node24</title>
<path fill="none" stroke="#63b8ff" d="M433.33,-171.52C455.31,-186.65 499.79,-215.48 541.5,-231.62 550.8,-235.22 560.99,-238.19 570.92,-240.61"/>
<polygon fill="#63b8ff" stroke="#63b8ff" points="570.01,-244.21 580.54,-243.01 571.56,-237.39 570.01,-244.21"/>
</g>
<!-- Node25 -->
<g id="node25" class="node">
<title>Node25</title>
<g id="a_node25"><a xlink:href="lib_2include_2utility_8h.html#ab314781bb3f053ef5325b50f3a1b74f8" target="_top" xlink:title=" ">
<polygon fill="white" stroke="#666666" points="661,-204.25 586.5,-204.25 586.5,-185 661,-185 661,-204.25"/>
<text text-anchor="middle" x="623.75" y="-190.75" font-family="Helvetica,sans-Serif" font-size="10.00">sss::ToLower</text>
</a>
</g>
</g>
<!-- Node19&#45;&gt;Node25 -->
<g id="edge29" class="edge">
<title>Node19&#45;&gt;Node25</title>
<path fill="none" stroke="#63b8ff" d="M478.2,-171.17C509.09,-176.18 546.45,-182.24 575.45,-186.95"/>
<polygon fill="#63b8ff" stroke="#63b8ff" points="574.69,-190.53 585.12,-188.68 575.81,-183.62 574.69,-190.53"/>
</g>
<!-- Node26 -->
<g id="node26" class="node">
<title>Node26</title>
<g id="a_node26"><a xlink:href="group__Internal.html#ga0f079ace8729714b3949eabe22f228c9" target="_top" xlink:title=" ">
<polygon fill="white" stroke="#666666" points="665.5,-167.25 582,-167.25 582,-148 665.5,-148 665.5,-167.25"/>
<text text-anchor="middle" x="623.75" y="-153.75" font-family="Helvetica,sans-Serif" font-size="10.00">sss::UrlEncode</text>
</a>
</g>
</g>
<!-- Node19&#45;&gt;Node26 -->
<g id="edge32" class="edge">
<title>Node19&#45;&gt;Node26</title>
<path fill="none" stroke="#63b8ff" d="M478.2,-160.47C507.51,-159.89 542.63,-159.2 570.92,-158.64"/>
<polygon fill="#63b8ff" stroke="#63b8ff" points="570.86,-162.13 580.79,-158.43 570.72,-155.13 570.86,-162.13"/>
</g>
<!-- Node25&#45;&gt;Node25 -->
<g id="edge30" class="edge">
<title>Node25&#45;&gt;Node25</title>
<path fill="none" stroke="#63b8ff" d="M591.6,-204.54C576.93,-213.15 587.65,-222.25 623.75,-222.25 646.88,-222.25 659.59,-218.51 661.88,-213.56"/>
<polygon fill="#63b8ff" stroke="#63b8ff" points="664.34,-211.94 655.9,-205.54 658.51,-215.81 664.34,-211.94"/>
</g>
</g>
</svg>
        <g id="navigator" transform="translate(0 0)" fill="#404254">
                <rect fill="#f2f5e9" fill-opacity="0.5" stroke="#606060" stroke-width=".5" x="0" y="0" width="60" height="60"/>
                <use id="zoomplus" xlink:href="#zoomPlus" x="17" y="9" onmousedown="handleZoom(evt,'in')"/>
                <use id="zoomminus" xlink:href="#zoomMin" x="42" y="9" onmousedown="handleZoom(evt,'out')"/>
                <use id="reset" xlink:href="#resetDef" x="30" y="36" onmousedown="handleReset()"/>
                <g id="arrowUp" xlink:href="#dirArrow" transform="translate(30 24)" onmousedown="handlePan(0,-1)">
                  <use xlink:href="#rim" fill="#404040">
                        <set attributeName="fill" to="#808080" begin="arrowUp.mouseover" end="arrowUp.mouseout"/>
                  </use>
                  <path fill="none" stroke="white" stroke-width="1.5" d="M0,-3.0v7 M-2.5,-0.5L0,-3.0L2.5,-0.5"/>
                </g>
                <g id="arrowRight" xlink:href="#dirArrow" transform="rotate(90) translate(36 -43)" onmousedown="handlePan(1,0)">
                  <use xlink:href="#rim" fill="#404040">
                        <set attributeName="fill" to="#808080" begin="arrowRight.mouseover" end="arrowRight.mouseout"/>
                  </use>
                  <path fill="none" stroke="white" stroke-width="1.5" d="M0,-3.0v7 M-2.5,-0.5L0,-3.0L2.5,-0.5"/>
                </g>
                <g id="arrowDown" xlink:href="#dirArrow" transform="rotate(180) translate(-30 -48)" onmousedown="handlePan(0,1)">
                  <use xlink:href="#rim" fill="#404040">
                        <set attributeName="fill" to="#808080" begin="arrowDown.mouseover" end="arrowDown.mouseout"/>
                  </use>
                  <path fill="none" stroke="white" stroke-width="1.5" d="M0,-3.0v7 M-2.5,-0.5L0,-3.0L2.5,-0.5"/>
                </g>
                <g id="arrowLeft" xlink:href="#dirArrow" transform="rotate(270) translate(-36 17)" onmousedown="handlePan(-1,0)">
                  <use xlink:href="#rim" fill="#404040">
                        <set attributeName="fill" to="#808080" begin="arrowLeft.mouseover" end="arrowLeft.mouseout"/>
                  </use>
                  <path fill="none" stroke="white" stroke-width="1.5" d="M0,-3.0v7 M-2.5,-0.5L0,-3.0L2.5,-0.5"/>
                </g>
        </g>
        <svg viewBox="0 0 15 15" width="100%" height="30px" preserveAspectRatio="xMaxYMin meet">
         <g id="arrow_out" transform="scale(0.3 0.3)">
          <a xlink:href="classsss_1_1api_1_1S3Api_a840772746fbb0a79c161037da7b24a31_cgraph_org.svg" target="_base">
           <rect id="button" ry="5" rx="5" y="6" x="6" height="38" width="38"
                fill="#f2f5e9" fill-opacity="0.5" stroke="#606060" stroke-width="1.0"/>
           <path id="arrow"
             d="M 11.500037,31.436501 C 11.940474,20.09759 22.043105,11.32322 32.158766,21.979434 L 37.068811,17.246167 C 37.068811,17.246167 37.088388,32 37.088388,32 L 22.160133,31.978069 C 22.160133,31.978069 26.997745,27.140456 26.997745,27.140456 C 18.528582,18.264221 13.291696,25.230495 11.500037,31.436501 z"
             style="fill:#404040;"/>
          </a>
         </g>
        </svg>
</svg>
