<?xml version="1.0" encoding="UTF-8" standalone="no"?>
<!DOCTYPE svg PUBLIC "-//W3C//DTD SVG 1.1//EN"
 "http://www.w3.org/Graphics/SVG/1.1/DTD/svg11.dtd">
<!-- Generated by graphviz version 8.0.5 (20230430.1635)
 -->
<!-- Title: XMLOStream::Move Pages: 1 -->
<svg width="264pt" height="101pt"
 viewBox="0.00 0.00 263.50 101.25" xmlns="http://www.w3.org/2000/svg" xmlns:xlink="http://www.w3.org/1999/xlink">
<g id="graph0" class="graph" transform="scale(1 1) rotate(0) translate(4 97.25)">
<title>XMLOStream::Move</title>
<!-- Node1 -->
<g id="node1" class="node">
<title>Node1</title>
<g id="a_node1"><a xlink:title=" ">
<polygon fill="#999999" stroke="#666666" points="105.25,-56.25 0,-56.25 0,-37 105.25,-37 105.25,-56.25"/>
<text text-anchor="middle" x="52.62" y="-42.75" font-family="Helvetica,sans-Serif" font-size="10.00">XMLOStream::Move</text>
</a>
</g>
</g>
<!-- Node2 -->
<g id="node2" class="node">
<title>Node2</title>
<g id="a_node2"><a xlink:href="classXMLOStream.html#a6fbcc3e20dbd9f8a6c7043d1f60f4d6b" target="_top" xlink:title=" ">
<polygon fill="white" stroke="#666666" points="251.75,-93.25 145,-93.25 145,-74 251.75,-74 251.75,-93.25"/>
<text text-anchor="middle" x="198.38" y="-79.75" font-family="Helvetica,sans-Serif" font-size="10.00">XMLOStream::Down</text>
</a>
</g>
</g>
<!-- Node1&#45;&gt;Node2 -->
<g id="edge1" class="edge">
<title>Node1&#45;&gt;Node2</title>
<path fill="none" stroke="#63b8ff" d="M92.91,-56.74C109.78,-61.08 129.7,-66.21 147.59,-70.81"/>
<polygon fill="#63b8ff" stroke="#63b8ff" points="146.59,-74.42 157.14,-73.53 148.33,-67.64 146.59,-74.42"/>
</g>
<!-- Node3 -->
<g id="node3" class="node">
<title>Node3</title>
<g id="a_node3"><a xlink:href="classXMLOStream.html#a88a87268938a7919f2c27ea3f2af6b88" target="_top" xlink:title="Move pointer to current node to root.">
<polygon fill="white" stroke="#666666" points="255.5,-56.25 141.25,-56.25 141.25,-37 255.5,-37 255.5,-56.25"/>
<text text-anchor="middle" x="198.38" y="-42.75" font-family="Helvetica,sans-Serif" font-size="10.00">XMLOStream::Rewind</text>
</a>
</g>
</g>
<!-- Node1&#45;&gt;Node3 -->
<g id="edge2" class="edge">
<title>Node1&#45;&gt;Node3</title>
<path fill="none" stroke="#63b8ff" d="M105.52,-46.62C113.57,-46.62 121.99,-46.62 130.32,-46.62"/>
<polygon fill="#63b8ff" stroke="#63b8ff" points="130.18,-50.13 140.18,-46.62 130.18,-43.13 130.18,-50.13"/>
</g>
<!-- Node4 -->
<g id="node4" class="node">
<title>Node4</title>
<g id="a_node4"><a xlink:href="classXMLOStream.html#acd90de3b7bb6abc73df983624a26acb2" target="_top" xlink:title=" ">
<polygon fill="white" stroke="#666666" points="245.38,-19.25 151.38,-19.25 151.38,0 245.38,0 245.38,-19.25"/>
<text text-anchor="middle" x="198.38" y="-5.75" font-family="Helvetica,sans-Serif" font-size="10.00">XMLOStream::Up</text>
</a>
</g>
</g>
<!-- Node1&#45;&gt;Node4 -->
<g id="edge3" class="edge">
<title>Node1&#45;&gt;Node4</title>
<path fill="none" stroke="#63b8ff" d="M92.91,-36.51C109.78,-32.17 129.7,-27.04 147.59,-22.44"/>
<polygon fill="#63b8ff" stroke="#63b8ff" points="148.33,-25.61 157.14,-19.72 146.59,-18.83 148.33,-25.61"/>
</g>
</g>
</svg>
