<?xml version="1.0" encoding="UTF-8" standalone="no"?>
<!DOCTYPE svg PUBLIC "-//W3C//DTD SVG 1.1//EN"
 "http://www.w3.org/Graphics/SVG/1.1/DTD/svg11.dtd">
<!-- Generated by graphviz version 8.0.5 (20230430.1635)
 -->
<!-- Title: sss::api::S3Api::GetResponseHeaders Pages: 1 -->
<svg width="532pt" height="113pt"
 viewBox="0.00 0.00 532.25 112.88" xmlns="http://www.w3.org/2000/svg" xmlns:xlink="http://www.w3.org/1999/xlink">
<g id="graph0" class="graph" transform="scale(1 1) rotate(0) translate(4 108.88)">
<title>sss::api::S3Api::GetResponseHeaders</title>
<!-- Node1 -->
<g id="node1" class="node">
<title>Node1</title>
<g id="a_node1"><a xlink:title=" ">
<polygon fill="#999999" stroke="#666666" points="148.75,-54.5 0,-54.5 0,-24 148.75,-24 148.75,-54.5"/>
<text text-anchor="start" x="8" y="-41" font-family="Helvetica,sans-Serif" font-size="10.00">sss::api::S3Api::GetResponse</text>
<text text-anchor="middle" x="74.38" y="-29.75" font-family="Helvetica,sans-Serif" font-size="10.00">Headers</text>
</a>
</g>
</g>
<!-- Node2 -->
<g id="node2" class="node">
<title>Node2</title>
<g id="a_node2"><a xlink:href="classsss_1_1WebClient.html#a42af351286f1fa68c3385d81f0bc2015" target="_top" xlink:title=" ">
<polygon fill="white" stroke="#666666" points="339.5,-67.88 184.75,-67.88 184.75,-48.62 339.5,-48.62 339.5,-67.88"/>
<text text-anchor="middle" x="262.12" y="-54.38" font-family="Helvetica,sans-Serif" font-size="10.00">sss::WebClient::GetHeaderText</text>
</a>
</g>
</g>
<!-- Node1&#45;&gt;Node2 -->
<g id="edge1" class="edge">
<title>Node1&#45;&gt;Node2</title>
<path fill="none" stroke="#63b8ff" d="M149.06,-46.79C157.15,-47.62 165.46,-48.46 173.7,-49.31"/>
<polygon fill="#63b8ff" stroke="#63b8ff" points="173.18,-52.88 183.49,-50.41 173.89,-45.91 173.18,-52.88"/>
</g>
<!-- Node6 -->
<g id="node6" class="node">
<title>Node6</title>
<g id="a_node6"><a xlink:href="group__Parsing.html#gaca9233a3e8a097605d9168bf860e93e5" target="_top" xlink:title=" ">
<polygon fill="white" stroke="#666666" points="312.5,-30.88 211.75,-30.88 211.75,-11.62 312.5,-11.62 312.5,-30.88"/>
<text text-anchor="middle" x="262.12" y="-17.38" font-family="Helvetica,sans-Serif" font-size="10.00">sss::HTTPHeaders</text>
</a>
</g>
</g>
<!-- Node1&#45;&gt;Node6 -->
<g id="edge5" class="edge">
<title>Node1&#45;&gt;Node6</title>
<path fill="none" stroke="#63b8ff" d="M149.06,-32.11C166.25,-30.44 184.37,-28.69 200.91,-27.09"/>
<polygon fill="#63b8ff" stroke="#63b8ff" points="200.9,-30.51 210.52,-26.06 200.23,-23.54 200.9,-30.51"/>
</g>
<!-- Node3 -->
<g id="node3" class="node">
<title>Node3</title>
<g id="a_node3"><a xlink:href="group__Ranges.html#ga0aa7f3b15d2ebf9b597a1b5ba38ae8ac" target="_top" xlink:title="return iterator at start position">
<polygon fill="white" stroke="#666666" points="480.38,-104.88 419.38,-104.88 419.38,-85.62 480.38,-85.62 480.38,-104.88"/>
<text text-anchor="middle" x="449.88" y="-91.38" font-family="Helvetica,sans-Serif" font-size="10.00">sss::begin</text>
</a>
</g>
</g>
<!-- Node2&#45;&gt;Node3 -->
<g id="edge2" class="edge">
<title>Node2&#45;&gt;Node3</title>
<path fill="none" stroke="#63b8ff" d="M313.88,-68.36C343.66,-74.29 380.76,-81.68 408.53,-87.21"/>
<polygon fill="#63b8ff" stroke="#63b8ff" points="407.57,-90.79 418.06,-89.31 408.93,-83.92 407.57,-90.79"/>
</g>
<!-- Node4 -->
<g id="node4" class="node">
<title>Node4</title>
<g id="a_node4"><a xlink:href="group__Ranges.html#ga4f73053571587e79eb3db628f5e6ef99" target="_top" xlink:title="return iterator at end position">
<polygon fill="white" stroke="#666666" points="476.62,-67.88 423.12,-67.88 423.12,-48.62 476.62,-48.62 476.62,-67.88"/>
<text text-anchor="middle" x="449.88" y="-54.38" font-family="Helvetica,sans-Serif" font-size="10.00">sss::end</text>
</a>
</g>
</g>
<!-- Node2&#45;&gt;Node4 -->
<g id="edge3" class="edge">
<title>Node2&#45;&gt;Node4</title>
<path fill="none" stroke="#63b8ff" d="M339.75,-58.25C364.71,-58.25 391.28,-58.25 411.96,-58.25"/>
<polygon fill="#63b8ff" stroke="#63b8ff" points="411.79,-61.75 421.79,-58.25 411.79,-54.75 411.79,-61.75"/>
</g>
<!-- Node5 -->
<g id="node5" class="node">
<title>Node5</title>
<g id="a_node5"><a xlink:href="classsss_1_1WebClient.html#a0b9b001ddc7ce778a613250e27e50731" target="_top" xlink:title=" ">
<polygon fill="white" stroke="#666666" points="524.25,-30.5 375.5,-30.5 375.5,0 524.25,0 524.25,-30.5"/>
<text text-anchor="start" x="383.5" y="-17" font-family="Helvetica,sans-Serif" font-size="10.00">sss::WebClient::GetResponse</text>
<text text-anchor="middle" x="449.88" y="-5.75" font-family="Helvetica,sans-Serif" font-size="10.00">Header</text>
</a>
</g>
</g>
<!-- Node2&#45;&gt;Node5 -->
<g id="edge4" class="edge">
<title>Node2&#45;&gt;Node5</title>
<path fill="none" stroke="#63b8ff" d="M306.68,-48.17C325.66,-43.77 348.51,-38.48 370.3,-33.44"/>
<polygon fill="#63b8ff" stroke="#63b8ff" points="370.93,-36.66 379.88,-30.99 369.35,-29.84 370.93,-36.66"/>
</g>
</g>
</svg>
