<?xml version="1.0" encoding="UTF-8" standalone="no"?>
<!DOCTYPE svg PUBLIC "-//W3C//DTD SVG 1.1//EN"
 "http://www.w3.org/Graphics/SVG/1.1/DTD/svg11.dtd">
<!-- Generated by graphviz version 2.43.0 (0)
 -->
<!-- Title: sss::api::S3Api::PutObjectTagging Pages: 1 -->
<!--zoomable 521 -->
<svg id="main" version="1.1" xmlns="http://www.w3.org/2000/svg" xmlns:xlink="http://www.w3.org/1999/xlink" xml:space="preserve" onload="init(evt)">
<style type="text/css"><![CDATA[
.edge:hover path { stroke: red; }
.edge:hover polygon { stroke: red; fill: red; }
]]></style>
<script type="text/javascript"><![CDATA[
var edges = document.getElementsByTagName('g');
if (edges && edges.length) {
  for (var i=0;i<edges.length;i++) {
    if (edges[i].id.substr(0,4)=='edge') {
      edges[i].setAttribute('class','edge');
    }
  }
}
]]></script>
        <defs>
                <circle id="rim" cx="0" cy="0" r="7"/>
                <circle id="rim2" cx="0" cy="0" r="3.5"/>
                <g id="zoomPlus">
                        <use xlink:href="#rim" fill="#404040">
                                <set attributeName="fill" to="#808080" begin="zoomplus.mouseover" end="zoomplus.mouseout"/>
                        </use>
                        <path d="M-4,0h8M0,-4v8" fill="none" stroke="white" stroke-width="1.5" pointer-events="none"/>
                </g>
                <g id="zoomMin">
                        <use xlink:href="#rim" fill="#404040">
                                <set attributeName="fill" to="#808080" begin="zoomminus.mouseover" end="zoomminus.mouseout"/>
                        </use>
                        <path d="M-4,0h8" fill="none" stroke="white" stroke-width="1.5" pointer-events="none"/>
                </g>
                <g id="dirArrow">
                        <path fill="none" stroke="white" stroke-width="1.5" d="M0,-3.0v7 M-2.5,-0.5L0,-3.0L2.5,-0.5"/>
                </g>
               <g id="resetDef">
                       <use xlink:href="#rim2" fill="#404040">
                               <set attributeName="fill" to="#808080" begin="reset.mouseover" end="reset.mouseout"/>
                       </use>
               </g>
        </defs>

<script type="text/javascript">
var viewWidth = 1071;
var viewHeight = 521;
var sectionId = 'dynsection-34';
</script>
<script xlink:href="svgpan.js"/>
<svg id="graph" class="graph">
<g id="viewport">
<title>sss::api::S3Api::PutObjectTagging</title>
<!-- Node1 -->
<g id="node1" class="node">
<title>Node1</title>
<g id="a_node1"><a xlink:title="Set object tags.">
<polygon fill="#bfbfbf" stroke="black" points="0,-104.5 0,-134.5 133,-134.5 133,-104.5 0,-104.5"/>
<text text-anchor="start" x="8" y="-122.5" font-family="Helvetica,sans-Serif" font-size="10.00">sss::api::S3Api::PutObject</text>
<text text-anchor="middle" x="66.5" y="-111.5" font-family="Helvetica,sans-Serif" font-size="10.00">Tagging</text>
</a>
</g>
</g>
<!-- Node2 -->
<g id="node2" class="node">
<title>Node2</title>
<g id="a_node2"><a xlink:href="classsss_1_1api_1_1S3Api.html#a02b4f0c95255f151beb72f0a6bdf5889" target="_top" xlink:title="Send request.">
<polygon fill="none" stroke="black" points="169,-110 169,-129 281,-129 281,-110 169,-110"/>
<text text-anchor="middle" x="225" y="-117" font-family="Helvetica,sans-Serif" font-size="10.00">sss::api::S3Api::Send</text>
</a>
</g>
</g>
<!-- Node1&#45;&gt;Node2 -->
<g id="edge1" class="edge">
<title>Node1&#45;&gt;Node2</title>
<path fill="none" stroke="midnightblue" d="M133.42,-119.5C141.73,-119.5 150.24,-119.5 158.54,-119.5"/>
<polygon fill="midnightblue" stroke="midnightblue" points="158.55,-123 168.55,-119.5 158.55,-116 158.55,-123"/>
</g>
<!-- Node3 -->
<g id="node3" class="node">
<title>Node3</title>
<g id="a_node3"><a xlink:href="classsss_1_1api_1_1S3Api.html#a840772746fbb0a79c161037da7b24a31" target="_top" xlink:title="Configure instance.">
<polygon fill="none" stroke="black" points="335.5,-278 335.5,-297 453.5,-297 453.5,-278 335.5,-278"/>
<text text-anchor="middle" x="394.5" y="-285" font-family="Helvetica,sans-Serif" font-size="10.00">sss::api::S3Api::Config</text>
</a>
</g>
</g>
<!-- Node2&#45;&gt;Node3 -->
<g id="edge2" class="edge">
<title>Node2&#45;&gt;Node3</title>
<path fill="none" stroke="midnightblue" d="M235.49,-129.01C262.77,-156.38 341.7,-235.55 376.58,-270.53"/>
<polygon fill="midnightblue" stroke="midnightblue" points="374.16,-273.06 383.7,-277.67 379.12,-268.12 374.16,-273.06"/>
</g>
<!-- Node12 -->
<g id="node12" class="node">
<title>Node12</title>
<g id="a_node12"><a xlink:href="classsss_1_1WebClient.html#a51ce0ecf6487b6a43072643fe4f4cb4e" target="_top" xlink:title=" ">
<polygon fill="none" stroke="black" points="701.5,-468 701.5,-487 847.5,-487 847.5,-468 701.5,-468"/>
<text text-anchor="middle" x="774.5" y="-475" font-family="Helvetica,sans-Serif" font-size="10.00">sss::WebClient::SetPostData</text>
</a>
</g>
</g>
<!-- Node2&#45;&gt;Node12 -->
<g id="edge23" class="edge">
<title>Node2&#45;&gt;Node12</title>
<path fill="none" stroke="midnightblue" d="M229.09,-129.15C246.24,-180.84 335.36,-425.25 508,-496.5 584.65,-528.13 684.29,-506.09 737.03,-490.07"/>
<polygon fill="midnightblue" stroke="midnightblue" points="738.13,-493.39 746.62,-487.06 736.03,-486.71 738.13,-493.39"/>
</g>
<!-- Node19 -->
<g id="node19" class="node">
<title>Node19</title>
<g id="a_node19"><a xlink:href="group__Internal.html#ga2b8b08c2a4994a87377d83ccfa9a6a53" target="_top" xlink:title=" ">
<polygon fill="none" stroke="black" points="345.5,-50 345.5,-69 443.5,-69 443.5,-50 345.5,-50"/>
<text text-anchor="middle" x="394.5" y="-57" font-family="Helvetica,sans-Serif" font-size="10.00">sss::ParseParams</text>
</a>
</g>
</g>
<!-- Node2&#45;&gt;Node19 -->
<g id="edge21" class="edge">
<title>Node2&#45;&gt;Node19</title>
<path fill="none" stroke="midnightblue" d="M249.01,-109.86C267.31,-102.33 293.62,-91.78 317,-83.5 328.16,-79.55 340.36,-75.57 351.66,-72.02"/>
<polygon fill="midnightblue" stroke="midnightblue" points="352.8,-75.33 361.32,-69.03 350.73,-68.65 352.8,-75.33"/>
</g>
<!-- Node20 -->
<g id="node20" class="node">
<title>Node20</title>
<g id="a_node20"><a xlink:href="classsss_1_1WebClient.html#aa1d7484f0e09242ce53b24f9648ce50e" target="_top" xlink:title=" ">
<polygon fill="none" stroke="black" points="523.5,-88 523.5,-107 635.5,-107 635.5,-88 523.5,-88"/>
<text text-anchor="middle" x="579.5" y="-95" font-family="Helvetica,sans-Serif" font-size="10.00">sss::WebClient::Send</text>
</a>
</g>
</g>
<!-- Node2&#45;&gt;Node20 -->
<g id="edge22" class="edge">
<title>Node2&#45;&gt;Node20</title>
<path fill="none" stroke="midnightblue" d="M281.08,-116.06C343.88,-112.14 446.48,-105.74 513.24,-101.57"/>
<polygon fill="midnightblue" stroke="midnightblue" points="513.47,-105.07 523.23,-100.95 513.03,-98.08 513.47,-105.07"/>
</g>
<!-- Node21 -->
<g id="node21" class="node">
<title>Node21</title>
<g id="a_node21"><a xlink:href="classsss_1_1WebClient.html#a7dfd984b33a29686fb0355b65b620e99" target="_top" xlink:title=" ">
<polygon fill="none" stroke="black" points="317,-0.5 317,-30.5 472,-30.5 472,-0.5 317,-0.5"/>
<text text-anchor="start" x="325" y="-18.5" font-family="Helvetica,sans-Serif" font-size="10.00">sss::WebClient::SetUrlEncoded</text>
<text text-anchor="middle" x="394.5" y="-7.5" font-family="Helvetica,sans-Serif" font-size="10.00">PostData</text>
</a>
</g>
</g>
<!-- Node2&#45;&gt;Node21 -->
<g id="edge24" class="edge">
<title>Node2&#45;&gt;Node21</title>
<path fill="none" stroke="midnightblue" d="M234.61,-109.84C249.74,-93.4 282.78,-59.89 317,-40.5 320.87,-38.31 324.95,-36.28 329.14,-34.4"/>
<polygon fill="midnightblue" stroke="midnightblue" points="330.56,-37.6 338.44,-30.53 327.87,-31.14 330.56,-37.6"/>
</g>
<!-- Node23 -->
<g id="node23" class="node">
<title>Node23</title>
<g id="a_node23"><a xlink:href="classsss_1_1WebClient.html#ae7b1f77bd4ae44585f2d49ea493bdcc5" target="_top" xlink:title="Upload data from memory buffer.">
<polygon fill="none" stroke="black" points="324,-126.5 324,-156.5 465,-156.5 465,-126.5 324,-126.5"/>
<text text-anchor="start" x="332" y="-144.5" font-family="Helvetica,sans-Serif" font-size="10.00">sss::WebClient::UploadData</text>
<text text-anchor="middle" x="394.5" y="-133.5" font-family="Helvetica,sans-Serif" font-size="10.00">FromBuffer</text>
</a>
</g>
</g>
<!-- Node2&#45;&gt;Node23 -->
<g id="edge26" class="edge">
<title>Node2&#45;&gt;Node23</title>
<path fill="none" stroke="midnightblue" d="M281.31,-126.76C291.74,-128.13 302.84,-129.59 313.85,-131.04"/>
<polygon fill="midnightblue" stroke="midnightblue" points="313.54,-134.53 323.91,-132.36 314.45,-127.59 313.54,-134.53"/>
</g>
<!-- Node4 -->
<g id="node4" class="node">
<title>Node4</title>
<g id="a_node4"><a xlink:href="classsss_1_1api_1_1S3Api.html#a1a4e05ac14390c7f42feef2c26e22031" target="_top" xlink:title=" ">
<polygon fill="none" stroke="black" points="518.5,-392 518.5,-411 640.5,-411 640.5,-392 518.5,-392"/>
<text text-anchor="middle" x="579.5" y="-399" font-family="Helvetica,sans-Serif" font-size="10.00">sss::api::S3Api::Access</text>
</a>
</g>
</g>
<!-- Node3&#45;&gt;Node4 -->
<g id="edge3" class="edge">
<title>Node3&#45;&gt;Node4</title>
<path fill="none" stroke="midnightblue" d="M405.18,-297.23C423.66,-315.33 465.89,-354.42 508,-377.5 515.83,-381.79 524.56,-385.51 533.14,-388.66"/>
<polygon fill="midnightblue" stroke="midnightblue" points="532.11,-392.01 542.7,-391.97 534.39,-385.39 532.11,-392.01"/>
</g>
<!-- Node5 -->
<g id="node5" class="node">
<title>Node5</title>
<g id="a_node5"><a xlink:href="classsss_1_1api_1_1S3Api.html#a3718745d3b940462ae9f3b78f773b3a6" target="_top" xlink:title="Clear data and reset read and write functions.">
<polygon fill="none" stroke="black" points="523,-316 523,-335 636,-335 636,-316 523,-316"/>
<text text-anchor="middle" x="579.5" y="-323" font-family="Helvetica,sans-Serif" font-size="10.00">sss::api::S3Api::Clear</text>
</a>
</g>
</g>
<!-- Node3&#45;&gt;Node5 -->
<g id="edge4" class="edge">
<title>Node3&#45;&gt;Node5</title>
<path fill="none" stroke="midnightblue" d="M441.68,-297.09C466.26,-302.19 496.69,-308.51 522.6,-313.89"/>
<polygon fill="midnightblue" stroke="midnightblue" points="522.15,-317.37 532.65,-315.98 523.57,-310.52 522.15,-317.37"/>
</g>
<!-- Node10 -->
<g id="node10" class="node">
<title>Node10</title>
<g id="a_node10"><a xlink:href="classsss_1_1WebClient.html#a75890c14fbe4a4bbac61718a4f3c064d" target="_top" xlink:title=" ">
<polygon fill="none" stroke="black" points="704,-373 704,-392 845,-392 845,-373 704,-373"/>
<text text-anchor="middle" x="774.5" y="-380" font-family="Helvetica,sans-Serif" font-size="10.00">sss::WebClient::SetHeaders</text>
</a>
</g>
</g>
<!-- Node3&#45;&gt;Node10 -->
<g id="edge16" class="edge">
<title>Node3&#45;&gt;Node10</title>
<path fill="none" stroke="midnightblue" d="M410.47,-297.1C431.41,-310.06 471.04,-332.84 508,-344.5 568.7,-363.65 640.27,-373.18 693.8,-377.91"/>
<polygon fill="midnightblue" stroke="midnightblue" points="693.66,-381.41 703.92,-378.76 694.25,-374.43 693.66,-381.41"/>
</g>
<!-- Node11 -->
<g id="node11" class="node">
<title>Node11</title>
<g id="a_node11"><a xlink:href="classsss_1_1WebClient.html#a12b5db6b8c667024557ab58059d39994" target="_top" xlink:title=" ">
<polygon fill="none" stroke="black" points="712,-259 712,-278 837,-278 837,-259 712,-259"/>
<text text-anchor="middle" x="774.5" y="-266" font-family="Helvetica,sans-Serif" font-size="10.00">sss::WebClient::SetPath</text>
</a>
</g>
</g>
<!-- Node3&#45;&gt;Node11 -->
<g id="edge18" class="edge">
<title>Node3&#45;&gt;Node11</title>
<path fill="none" stroke="midnightblue" d="M453.73,-284.57C520.35,-281.22 629.48,-275.74 701.41,-272.12"/>
<polygon fill="midnightblue" stroke="midnightblue" points="701.93,-275.6 711.74,-271.6 701.58,-268.61 701.93,-275.6"/>
</g>
<!-- Node13 -->
<g id="node13" class="node">
<title>Node13</title>
<g id="a_node13"><a xlink:href="classsss_1_1WebClient.html#a9bf978d95b79728f6d60fc2bdb4fe546" target="_top" xlink:title=" ">
<polygon fill="none" stroke="black" points="688,-221 688,-240 861,-240 861,-221 688,-221"/>
<text text-anchor="middle" x="774.5" y="-228" font-family="Helvetica,sans-Serif" font-size="10.00">sss::WebClient::SetReqParameters</text>
</a>
</g>
</g>
<!-- Node3&#45;&gt;Node13 -->
<g id="edge19" class="edge">
<title>Node3&#45;&gt;Node13</title>
<path fill="none" stroke="midnightblue" d="M409.22,-277.83C429.62,-264.12 469.67,-239.66 508,-230.5 565.58,-216.75 632.21,-216.79 684.32,-220.25"/>
<polygon fill="midnightblue" stroke="midnightblue" points="684.32,-223.76 694.54,-220.99 684.82,-216.78 684.32,-223.76"/>
</g>
<!-- Node14 -->
<g id="node14" class="node">
<title>Node14</title>
<g id="a_node14"><a xlink:href="classsss_1_1api_1_1S3Api.html#a70f1068d07e1d4c1be164e0cb9328cc0" target="_top" xlink:title=" ">
<polygon fill="none" stroke="black" points="515.5,-164 515.5,-183 643.5,-183 643.5,-164 515.5,-164"/>
<text text-anchor="middle" x="579.5" y="-171" font-family="Helvetica,sans-Serif" font-size="10.00">sss::api::S3Api::Endpoint</text>
</a>
</g>
</g>
<!-- Node3&#45;&gt;Node14 -->
<g id="edge13" class="edge">
<title>Node3&#45;&gt;Node14</title>
<path fill="none" stroke="midnightblue" d="M405.18,-277.77C423.66,-259.67 465.89,-220.58 508,-197.5 515.83,-193.21 524.56,-189.49 533.14,-186.34"/>
<polygon fill="midnightblue" stroke="midnightblue" points="534.39,-189.61 542.7,-183.03 532.11,-182.99 534.39,-189.61"/>
</g>
<!-- Node15 -->
<g id="node15" class="node">
<title>Node15</title>
<g id="a_node15"><a xlink:href="classsss_1_1api_1_1S3Api.html#acfffe29254323fb41231787a0afb7edc" target="_top" xlink:title=" ">
<polygon fill="none" stroke="black" points="520.5,-468 520.5,-487 638.5,-487 638.5,-468 520.5,-468"/>
<text text-anchor="middle" x="579.5" y="-475" font-family="Helvetica,sans-Serif" font-size="10.00">sss::api::S3Api::Secret</text>
</a>
</g>
</g>
<!-- Node3&#45;&gt;Node15 -->
<g id="edge14" class="edge">
<title>Node3&#45;&gt;Node15</title>
<path fill="none" stroke="midnightblue" d="M398.92,-297.01C409.86,-326.06 446.95,-414.36 508,-458.5 510.67,-460.43 513.53,-462.17 516.5,-463.72"/>
<polygon fill="midnightblue" stroke="midnightblue" points="515.17,-466.96 525.72,-467.89 518.05,-460.58 515.17,-466.96"/>
</g>
<!-- Node16 -->
<g id="node16" class="node">
<title>Node16</title>
<g id="a_node16"><a xlink:href="classsss_1_1WebClient.html#afc3b7a92568fbb1ea447918920ca266e" target="_top" xlink:title="Set endpoint: &lt;proto&gt;://&lt;server&gt;:&lt;port&gt;">
<polygon fill="none" stroke="black" points="508,-430 508,-449 651,-449 651,-430 508,-430"/>
<text text-anchor="middle" x="579.5" y="-437" font-family="Helvetica,sans-Serif" font-size="10.00">sss::WebClient::SetEndpoint</text>
</a>
</g>
</g>
<!-- Node3&#45;&gt;Node16 -->
<g id="edge15" class="edge">
<title>Node3&#45;&gt;Node16</title>
<path fill="none" stroke="midnightblue" d="M400.89,-297.27C415.01,-321.97 455.67,-387.25 508,-420.5 511.34,-422.62 514.9,-424.5 518.6,-426.18"/>
<polygon fill="midnightblue" stroke="midnightblue" points="517.4,-429.47 527.98,-429.93 520,-422.97 517.4,-429.47"/>
</g>
<!-- Node17 -->
<g id="node17" class="node">
<title>Node17</title>
<g id="a_node17"><a xlink:href="classsss_1_1WebClient.html#af6233ffd7b294e1e7e606e838dd44e9e" target="_top" xlink:title=" ">
<polygon fill="none" stroke="black" points="511,-126 511,-145 648,-145 648,-126 511,-126"/>
<text text-anchor="middle" x="579.5" y="-133" font-family="Helvetica,sans-Serif" font-size="10.00">sss::WebClient::SetMethod</text>
</a>
</g>
</g>
<!-- Node3&#45;&gt;Node17 -->
<g id="edge17" class="edge">
<title>Node3&#45;&gt;Node17</title>
<path fill="none" stroke="midnightblue" d="M400.89,-277.73C415.01,-253.03 455.67,-187.75 508,-154.5 511.34,-152.38 514.9,-150.5 518.6,-148.82"/>
<polygon fill="midnightblue" stroke="midnightblue" points="520,-152.03 527.98,-145.07 517.4,-145.53 520,-152.03"/>
</g>
<!-- Node18 -->
<g id="node18" class="node">
<title>Node18</title>
<g id="a_node18"><a xlink:href="group__Sign.html#ga3ae8e18ef70752b7369fca66c40c526b" target="_top" xlink:title="Sign headers.">
<polygon fill="none" stroke="black" points="532,-240 532,-259 627,-259 627,-240 532,-240"/>
<text text-anchor="middle" x="579.5" y="-247" font-family="Helvetica,sans-Serif" font-size="10.00">sss::SignHeaders</text>
</a>
</g>
</g>
<!-- Node3&#45;&gt;Node18 -->
<g id="edge20" class="edge">
<title>Node3&#45;&gt;Node18</title>
<path fill="none" stroke="midnightblue" d="M441.68,-277.91C466.26,-272.81 496.69,-266.49 522.6,-261.11"/>
<polygon fill="midnightblue" stroke="midnightblue" points="523.57,-264.48 532.65,-259.02 522.15,-257.63 523.57,-264.48"/>
</g>
<!-- Node6 -->
<g id="node6" class="node">
<title>Node6</title>
<g id="a_node6"><a xlink:href="classsss_1_1WebClient.html#a381f5715b7a2f19a0d4414d278874bae" target="_top" xlink:title="Clear internal buffers.">
<polygon fill="none" stroke="black" points="702.5,-335 702.5,-354 846.5,-354 846.5,-335 702.5,-335"/>
<text text-anchor="middle" x="774.5" y="-342" font-family="Helvetica,sans-Serif" font-size="10.00">sss::WebClient::ClearBuffers</text>
</a>
</g>
</g>
<!-- Node5&#45;&gt;Node6 -->
<g id="edge5" class="edge">
<title>Node5&#45;&gt;Node6</title>
<path fill="none" stroke="midnightblue" d="M636.06,-330.97C653.62,-332.7 673.4,-334.65 692.36,-336.51"/>
<polygon fill="midnightblue" stroke="midnightblue" points="692.2,-340.01 702.49,-337.51 692.88,-333.05 692.2,-340.01"/>
</g>
<!-- Node7 -->
<g id="node7" class="node">
<title>Node7</title>
<g id="a_node7"><a xlink:href="classsss_1_1WebClient.html#a96837f149bb473853a6523d096a25c56" target="_top" xlink:title="Reset read/write functions to default.">
<polygon fill="none" stroke="black" points="687,-297 687,-316 862,-316 862,-297 687,-297"/>
<text text-anchor="middle" x="774.5" y="-304" font-family="Helvetica,sans-Serif" font-size="10.00">sss::WebClient::ResetRWFunctions</text>
</a>
</g>
</g>
<!-- Node5&#45;&gt;Node7 -->
<g id="edge6" class="edge">
<title>Node5&#45;&gt;Node7</title>
<path fill="none" stroke="midnightblue" d="M636.06,-320.03C648.79,-318.78 662.68,-317.41 676.58,-316.04"/>
<polygon fill="midnightblue" stroke="midnightblue" points="677.08,-319.51 686.69,-315.05 676.39,-312.54 677.08,-319.51"/>
</g>
<!-- Node5&#45;&gt;Node10 -->
<g id="edge9" class="edge">
<title>Node5&#45;&gt;Node10</title>
<path fill="none" stroke="midnightblue" d="M609.41,-335.03C622.2,-339.33 637.39,-344.54 651,-349.5 667.13,-355.38 670.57,-358.53 687,-363.5 695.65,-366.11 704.88,-368.53 713.98,-370.7"/>
<polygon fill="midnightblue" stroke="midnightblue" points="713.23,-374.12 723.76,-372.95 714.8,-367.3 713.23,-374.12"/>
</g>
<!-- Node5&#45;&gt;Node11 -->
<g id="edge10" class="edge">
<title>Node5&#45;&gt;Node11</title>
<path fill="none" stroke="midnightblue" d="M609.41,-315.97C622.2,-311.67 637.39,-306.46 651,-301.5 667.13,-295.62 670.57,-292.47 687,-287.5 695.65,-284.89 704.88,-282.47 713.98,-280.3"/>
<polygon fill="midnightblue" stroke="midnightblue" points="714.8,-283.7 723.76,-278.05 713.23,-276.88 714.8,-283.7"/>
</g>
<!-- Node5&#45;&gt;Node12 -->
<g id="edge11" class="edge">
<title>Node5&#45;&gt;Node12</title>
<path fill="none" stroke="midnightblue" d="M592.57,-335.01C624.86,-360.44 713.47,-430.22 753.46,-461.71"/>
<polygon fill="midnightblue" stroke="midnightblue" points="751.41,-464.56 761.43,-468 755.74,-459.06 751.41,-464.56"/>
</g>
<!-- Node5&#45;&gt;Node13 -->
<g id="edge12" class="edge">
<title>Node5&#45;&gt;Node13</title>
<path fill="none" stroke="midnightblue" d="M590.79,-315.93C608.83,-299.7 647.97,-266.84 687,-249.5 692.72,-246.96 698.8,-244.75 704.99,-242.82"/>
<polygon fill="midnightblue" stroke="midnightblue" points="706.12,-246.14 714.77,-240.03 704.2,-239.41 706.12,-246.14"/>
</g>
<!-- Node8 -->
<g id="node8" class="node">
<title>Node8</title>
<g id="a_node8"><a xlink:href="classsss_1_1WebClient.html#a88dbcc61562e84aa9ebf1eabf887ac28" target="_top" xlink:title=" ">
<polygon fill="none" stroke="black" points="898,-319 898,-338 1063,-338 1063,-319 898,-319"/>
<text text-anchor="middle" x="980.5" y="-326" font-family="Helvetica,sans-Serif" font-size="10.00">sss::WebClient::SetReadFunction</text>
</a>
</g>
</g>
<!-- Node7&#45;&gt;Node8 -->
<g id="edge7" class="edge">
<title>Node7&#45;&gt;Node8</title>
<path fill="none" stroke="midnightblue" d="M862.01,-315.83C870.52,-316.75 879.18,-317.68 887.73,-318.6"/>
<polygon fill="midnightblue" stroke="midnightblue" points="887.4,-322.09 897.72,-319.68 888.15,-315.13 887.4,-322.09"/>
</g>
<!-- Node9 -->
<g id="node9" class="node">
<title>Node9</title>
<g id="a_node9"><a xlink:href="classsss_1_1WebClient.html#a002876073b3869a9b9a9d709d14f1d7e" target="_top" xlink:title=" ">
<polygon fill="none" stroke="black" points="917,-269.5 917,-299.5 1044,-299.5 1044,-269.5 917,-269.5"/>
<text text-anchor="start" x="925" y="-287.5" font-family="Helvetica,sans-Serif" font-size="10.00">sss::WebClient::SetWrite</text>
<text text-anchor="middle" x="980.5" y="-276.5" font-family="Helvetica,sans-Serif" font-size="10.00">Function</text>
</a>
</g>
</g>
<!-- Node7&#45;&gt;Node9 -->
<g id="edge8" class="edge">
<title>Node7&#45;&gt;Node9</title>
<path fill="none" stroke="midnightblue" d="M862.01,-297.17C876.87,-295.57 892.17,-293.92 906.63,-292.36"/>
<polygon fill="midnightblue" stroke="midnightblue" points="907.41,-295.79 916.98,-291.24 906.66,-288.83 907.41,-295.79"/>
</g>
<!-- Node22 -->
<g id="node22" class="node">
<title>Node22</title>
<g id="a_node22"><a xlink:href="group__Internal.html#ga6e3db8d156313abef7e2c966df1a3d7c" target="_top" xlink:title=" ">
<polygon fill="none" stroke="black" points="537.5,-6 537.5,-25 621.5,-25 621.5,-6 537.5,-6"/>
<text text-anchor="middle" x="579.5" y="-13" font-family="Helvetica,sans-Serif" font-size="10.00">sss::UrlEncode</text>
</a>
</g>
</g>
<!-- Node21&#45;&gt;Node22 -->
<g id="edge25" class="edge">
<title>Node21&#45;&gt;Node22</title>
<path fill="none" stroke="midnightblue" d="M472.05,-15.5C490.62,-15.5 510.04,-15.5 527.13,-15.5"/>
<polygon fill="midnightblue" stroke="midnightblue" points="527.44,-19 537.44,-15.5 527.44,-12 527.44,-19"/>
</g>
<!-- Node23&#45;&gt;Node17 -->
<g id="edge28" class="edge">
<title>Node23&#45;&gt;Node17</title>
<path fill="none" stroke="midnightblue" d="M465.21,-139.21C476.77,-138.84 488.82,-138.44 500.57,-138.05"/>
<polygon fill="midnightblue" stroke="midnightblue" points="500.92,-141.55 510.8,-137.72 500.69,-134.55 500.92,-141.55"/>
</g>
<!-- Node23&#45;&gt;Node20 -->
<g id="edge27" class="edge">
<title>Node23&#45;&gt;Node20</title>
<path fill="none" stroke="midnightblue" d="M457.97,-126.48C481.22,-120.89 507.27,-114.63 529.18,-109.36"/>
<polygon fill="midnightblue" stroke="midnightblue" points="530.03,-112.75 538.94,-107.01 528.4,-105.95 530.03,-112.75"/>
</g>
</g>
</svg>
        <g id="navigator" transform="translate(0 0)" fill="#404254">
                <rect fill="#f2f5e9" fill-opacity="0.5" stroke="#606060" stroke-width=".5" x="0" y="0" width="60" height="60"/>
                <use id="zoomplus" xlink:href="#zoomPlus" x="17" y="9" onmousedown="handleZoom(evt,'in')"/>
                <use id="zoomminus" xlink:href="#zoomMin" x="42" y="9" onmousedown="handleZoom(evt,'out')"/>
                <use id="reset" xlink:href="#resetDef" x="30" y="36" onmousedown="handleReset()"/>
                <g id="arrowUp" xlink:href="#dirArrow" transform="translate(30 24)" onmousedown="handlePan(0,-1)">
                  <use xlink:href="#rim" fill="#404040">
                        <set attributeName="fill" to="#808080" begin="arrowUp.mouseover" end="arrowUp.mouseout"/>
                  </use>
                  <path fill="none" stroke="white" stroke-width="1.5" d="M0,-3.0v7 M-2.5,-0.5L0,-3.0L2.5,-0.5"/>
                </g>
                <g id="arrowRight" xlink:href="#dirArrow" transform="rotate(90) translate(36 -43)" onmousedown="handlePan(1,0)">
                  <use xlink:href="#rim" fill="#404040">
                        <set attributeName="fill" to="#808080" begin="arrowRight.mouseover" end="arrowRight.mouseout"/>
                  </use>
                  <path fill="none" stroke="white" stroke-width="1.5" d="M0,-3.0v7 M-2.5,-0.5L0,-3.0L2.5,-0.5"/>
                </g>
                <g id="arrowDown" xlink:href="#dirArrow" transform="rotate(180) translate(-30 -48)" onmousedown="handlePan(0,1)">
                  <use xlink:href="#rim" fill="#404040">
                        <set attributeName="fill" to="#808080" begin="arrowDown.mouseover" end="arrowDown.mouseout"/>
                  </use>
                  <path fill="none" stroke="white" stroke-width="1.5" d="M0,-3.0v7 M-2.5,-0.5L0,-3.0L2.5,-0.5"/>
                </g>
                <g id="arrowLeft" xlink:href="#dirArrow" transform="rotate(270) translate(-36 17)" onmousedown="handlePan(-1,0)">
                  <use xlink:href="#rim" fill="#404040">
                        <set attributeName="fill" to="#808080" begin="arrowLeft.mouseover" end="arrowLeft.mouseout"/>
                  </use>
                  <path fill="none" stroke="white" stroke-width="1.5" d="M0,-3.0v7 M-2.5,-0.5L0,-3.0L2.5,-0.5"/>
                </g>
        </g>
        <svg viewBox="0 0 15 15" width="100%" height="30px" preserveAspectRatio="xMaxYMin meet">
         <g id="arrow_out" transform="scale(0.3 0.3)">
          <a xlink:href="classsss_1_1api_1_1S3Api_ac098e2619080dde98a75b71af8f66eef_cgraph_org.svg" target="_base">
           <rect id="button" ry="5" rx="5" y="6" x="6" height="38" width="38"
                fill="#f2f5e9" fill-opacity="0.5" stroke="#606060" stroke-width="1.0"/>
           <path id="arrow"
             d="M 11.500037,31.436501 C 11.940474,20.09759 22.043105,11.32322 32.158766,21.979434 L 37.068811,17.246167 C 37.068811,17.246167 37.088388,32 37.088388,32 L 22.160133,31.978069 C 22.160133,31.978069 26.997745,27.140456 26.997745,27.140456 C 18.528582,18.264221 13.291696,25.230495 11.500037,31.436501 z"
             style="fill:#404040;"/>
          </a>
         </g>
        </svg>
</svg>
