<?xml version="1.0" encoding="UTF-8" standalone="no"?>
<!DOCTYPE svg PUBLIC "-//W3C//DTD SVG 1.1//EN"
 "http://www.w3.org/Graphics/SVG/1.1/DTD/svg11.dtd">
<!-- Generated by graphviz version 2.43.0 (0)
 -->
<!-- Title: sss::api::S3Api::GetObjectSize Pages: 1 -->
<svg width="1311pt" height="545pt"
 viewBox="0.00 0.00 1311.00 544.50" xmlns="http://www.w3.org/2000/svg" xmlns:xlink="http://www.w3.org/1999/xlink">
<g id="graph0" class="graph" transform="scale(1 1) rotate(0) translate(4 540.5)">
<title>sss::api::S3Api::GetObjectSize</title>
<!-- Node1 -->
<g id="node1" class="node">
<title>Node1</title>
<g id="a_node1"><a xlink:title="[WebClient::Config]">
<polygon fill="#bfbfbf" stroke="black" points="0,-388.5 0,-407.5 153,-407.5 153,-388.5 0,-388.5"/>
<text text-anchor="middle" x="76.5" y="-395.5" font-family="Helvetica,sans-Serif" font-size="10.00">sss::api::S3Api::GetObjectSize</text>
</a>
</g>
</g>
<!-- Node2 -->
<g id="node2" class="node">
<title>Node2</title>
<g id="a_node2"><a xlink:href="group__Internal.html#gad39402e23f6ef63de04e903825a7271a" target="_top" xlink:title="Map key to value using regular expression.">
<polygon fill="none" stroke="black" points="220.5,-407.5 220.5,-426.5 298.5,-426.5 298.5,-407.5 220.5,-407.5"/>
<text text-anchor="middle" x="259.5" y="-414.5" font-family="Helvetica,sans-Serif" font-size="10.00">sss::GetValue</text>
</a>
</g>
</g>
<!-- Node1&#45;&gt;Node2 -->
<g id="edge1" class="edge">
<title>Node1&#45;&gt;Node2</title>
<path fill="none" stroke="midnightblue" d="M153.21,-405.95C172.48,-407.97 192.68,-410.09 210.17,-411.93"/>
<polygon fill="midnightblue" stroke="midnightblue" points="209.81,-415.41 220.12,-412.97 210.54,-408.45 209.81,-415.41"/>
</g>
<!-- Node3 -->
<g id="node3" class="node">
<title>Node3</title>
<g id="a_node3"><a xlink:href="classsss_1_1api_1_1S3Api.html#abc84a71b9a88b81afaa353ad17a91d22" target="_top" xlink:title=" ">
<polygon fill="none" stroke="black" points="189,-369.5 189,-388.5 330,-388.5 330,-369.5 189,-369.5"/>
<text text-anchor="middle" x="259.5" y="-376.5" font-family="Helvetica,sans-Serif" font-size="10.00">sss::api::S3Api::HeadObject</text>
</a>
</g>
</g>
<!-- Node1&#45;&gt;Node3 -->
<g id="edge2" class="edge">
<title>Node1&#45;&gt;Node3</title>
<path fill="none" stroke="midnightblue" d="M153.21,-390.05C161.71,-389.16 170.38,-388.25 178.92,-387.35"/>
<polygon fill="midnightblue" stroke="midnightblue" points="179.29,-390.83 188.87,-386.31 178.56,-383.87 179.29,-390.83"/>
</g>
<!-- Node4 -->
<g id="node4" class="node">
<title>Node4</title>
<g id="a_node4"><a xlink:href="classsss_1_1WebClient.html#a42af351286f1fa68c3385d81f0bc2015" target="_top" xlink:title=" ">
<polygon fill="none" stroke="black" points="366,-468.5 366,-487.5 521,-487.5 521,-468.5 366,-468.5"/>
<text text-anchor="middle" x="443.5" y="-475.5" font-family="Helvetica,sans-Serif" font-size="10.00">sss::WebClient::GetHeaderText</text>
</a>
</g>
</g>
<!-- Node3&#45;&gt;Node4 -->
<g id="edge3" class="edge">
<title>Node3&#45;&gt;Node4</title>
<path fill="none" stroke="midnightblue" d="M304.72,-388.58C313.31,-391.13 322.09,-394.25 330,-398 366.14,-415.12 402.96,-443.91 424.22,-461.88"/>
<polygon fill="midnightblue" stroke="midnightblue" points="421.96,-464.55 431.83,-468.41 426.52,-459.24 421.96,-464.55"/>
</g>
<!-- Node6 -->
<g id="node6" class="node">
<title>Node6</title>
<g id="a_node6"><a xlink:href="group__Parsing.html#gaca9233a3e8a097605d9168bf860e93e5" target="_top" xlink:title=" ">
<polygon fill="none" stroke="black" points="393,-369.5 393,-388.5 494,-388.5 494,-369.5 393,-369.5"/>
<text text-anchor="middle" x="443.5" y="-376.5" font-family="Helvetica,sans-Serif" font-size="10.00">sss::HTTPHeaders</text>
</a>
</g>
</g>
<!-- Node3&#45;&gt;Node6 -->
<g id="edge5" class="edge">
<title>Node3&#45;&gt;Node6</title>
<path fill="none" stroke="midnightblue" d="M330.09,-379C347.37,-379 365.75,-379 382.53,-379"/>
<polygon fill="midnightblue" stroke="midnightblue" points="382.75,-382.5 392.75,-379 382.75,-375.5 382.75,-382.5"/>
</g>
<!-- Node7 -->
<g id="node7" class="node">
<title>Node7</title>
<g id="a_node7"><a xlink:href="classsss_1_1api_1_1S3Api.html#a02b4f0c95255f151beb72f0a6bdf5889" target="_top" xlink:title=" ">
<polygon fill="none" stroke="black" points="387.5,-209.5 387.5,-228.5 499.5,-228.5 499.5,-209.5 387.5,-209.5"/>
<text text-anchor="middle" x="443.5" y="-216.5" font-family="Helvetica,sans-Serif" font-size="10.00">sss::api::S3Api::Send</text>
</a>
</g>
</g>
<!-- Node3&#45;&gt;Node7 -->
<g id="edge6" class="edge">
<title>Node3&#45;&gt;Node7</title>
<path fill="none" stroke="midnightblue" d="M271.34,-369.47C301.36,-343.08 385.87,-268.78 423.74,-235.49"/>
<polygon fill="midnightblue" stroke="midnightblue" points="426.29,-237.91 431.49,-228.68 421.67,-232.66 426.29,-237.91"/>
</g>
<!-- Node5 -->
<g id="node5" class="node">
<title>Node5</title>
<g id="a_node5"><a xlink:href="classsss_1_1WebClient.html#a0b9b001ddc7ce778a613250e27e50731" target="_top" xlink:title=" ">
<polygon fill="none" stroke="black" points="560,-506 560,-536 709,-536 709,-506 560,-506"/>
<text text-anchor="start" x="568" y="-524" font-family="Helvetica,sans-Serif" font-size="10.00">sss::WebClient::GetResponse</text>
<text text-anchor="middle" x="634.5" y="-513" font-family="Helvetica,sans-Serif" font-size="10.00">Header</text>
</a>
</g>
</g>
<!-- Node4&#45;&gt;Node5 -->
<g id="edge4" class="edge">
<title>Node4&#45;&gt;Node5</title>
<path fill="none" stroke="midnightblue" d="M486.45,-487.54C507.38,-492.31 533.35,-498.22 557.63,-503.74"/>
<polygon fill="midnightblue" stroke="midnightblue" points="557.01,-507.19 567.54,-505.99 558.57,-500.36 557.01,-507.19"/>
</g>
<!-- Node8 -->
<g id="node8" class="node">
<title>Node8</title>
<g id="a_node8"><a xlink:href="classsss_1_1api_1_1S3Api.html#a840772746fbb0a79c161037da7b24a31" target="_top" xlink:title="[WebClient::Config]">
<polygon fill="none" stroke="black" points="575.5,-209.5 575.5,-228.5 693.5,-228.5 693.5,-209.5 575.5,-209.5"/>
<text text-anchor="middle" x="634.5" y="-216.5" font-family="Helvetica,sans-Serif" font-size="10.00">sss::api::S3Api::Config</text>
</a>
</g>
</g>
<!-- Node7&#45;&gt;Node8 -->
<g id="edge7" class="edge">
<title>Node7&#45;&gt;Node8</title>
<path fill="none" stroke="midnightblue" d="M499.67,-219C520.18,-219 543.69,-219 565.23,-219"/>
<polygon fill="midnightblue" stroke="midnightblue" points="565.29,-222.5 575.29,-219 565.29,-215.5 565.29,-222.5"/>
</g>
<!-- Node17 -->
<g id="node17" class="node">
<title>Node17</title>
<g id="a_node17"><a xlink:href="classsss_1_1WebClient.html#a51ce0ecf6487b6a43072643fe4f4cb4e" target="_top" xlink:title=" ">
<polygon fill="none" stroke="black" points="941.5,-380.5 941.5,-399.5 1087.5,-399.5 1087.5,-380.5 941.5,-380.5"/>
<text text-anchor="middle" x="1014.5" y="-387.5" font-family="Helvetica,sans-Serif" font-size="10.00">sss::WebClient::SetPostData</text>
</a>
</g>
</g>
<!-- Node7&#45;&gt;Node17 -->
<g id="edge28" class="edge">
<title>Node7&#45;&gt;Node17</title>
<path fill="none" stroke="midnightblue" d="M454.96,-228.75C491.6,-262.15 618.94,-371.93 748,-409 824.15,-430.87 917.39,-414.92 970.67,-402.01"/>
<polygon fill="midnightblue" stroke="midnightblue" points="971.6,-405.38 980.46,-399.56 969.91,-398.59 971.6,-405.38"/>
</g>
<!-- Node24 -->
<g id="node24" class="node">
<title>Node24</title>
<g id="a_node24"><a xlink:href="group__Internal.html#ga2b8b08c2a4994a87377d83ccfa9a6a53" target="_top" xlink:title=" ">
<polygon fill="none" stroke="black" points="585.5,-32.5 585.5,-51.5 683.5,-51.5 683.5,-32.5 585.5,-32.5"/>
<text text-anchor="middle" x="634.5" y="-39.5" font-family="Helvetica,sans-Serif" font-size="10.00">sss::ParseParams</text>
</a>
</g>
</g>
<!-- Node7&#45;&gt;Node24 -->
<g id="edge26" class="edge">
<title>Node7&#45;&gt;Node24</title>
<path fill="none" stroke="midnightblue" d="M448.81,-209.47C461.43,-182.69 500.93,-106.06 557,-66 563.07,-61.66 569.96,-58.09 577.05,-55.15"/>
<polygon fill="midnightblue" stroke="midnightblue" points="578.64,-58.29 586.79,-51.52 576.2,-51.73 578.64,-58.29"/>
</g>
<!-- Node25 -->
<g id="node25" class="node">
<title>Node25</title>
<g id="a_node25"><a xlink:href="classsss_1_1WebClient.html#aa1d7484f0e09242ce53b24f9648ce50e" target="_top" xlink:title=" ">
<polygon fill="none" stroke="black" points="763.5,-0.5 763.5,-19.5 875.5,-19.5 875.5,-0.5 763.5,-0.5"/>
<text text-anchor="middle" x="819.5" y="-7.5" font-family="Helvetica,sans-Serif" font-size="10.00">sss::WebClient::Send</text>
</a>
</g>
</g>
<!-- Node7&#45;&gt;Node25 -->
<g id="edge27" class="edge">
<title>Node7&#45;&gt;Node25</title>
<path fill="none" stroke="midnightblue" d="M450.53,-209.46C465.54,-186.57 506.95,-128.26 557,-99 618.23,-63.2 649.2,-93.98 712,-61 730.95,-51.05 729.16,-39.17 748,-29 752.24,-26.71 756.77,-24.68 761.42,-22.89"/>
<polygon fill="midnightblue" stroke="midnightblue" points="762.77,-26.13 771.06,-19.53 760.47,-19.52 762.77,-26.13"/>
</g>
<!-- Node26 -->
<g id="node26" class="node">
<title>Node26</title>
<g id="a_node26"><a xlink:href="classsss_1_1WebClient.html#a7dfd984b33a29686fb0355b65b620e99" target="_top" xlink:title=" ">
<polygon fill="none" stroke="black" points="557,-457 557,-487 712,-487 712,-457 557,-457"/>
<text text-anchor="start" x="565" y="-475" font-family="Helvetica,sans-Serif" font-size="10.00">sss::WebClient::SetUrlEncoded</text>
<text text-anchor="middle" x="634.5" y="-464" font-family="Helvetica,sans-Serif" font-size="10.00">PostData</text>
</a>
</g>
</g>
<!-- Node7&#45;&gt;Node26 -->
<g id="edge29" class="edge">
<title>Node7&#45;&gt;Node26</title>
<path fill="none" stroke="midnightblue" d="M450.17,-228.77C463.26,-251.48 496.38,-309.73 521,-360 538.51,-395.75 528.3,-414.42 557,-442 560.99,-445.83 565.52,-449.19 570.34,-452.13"/>
<polygon fill="midnightblue" stroke="midnightblue" points="568.82,-455.29 579.28,-456.98 572.16,-449.13 568.82,-455.29"/>
</g>
<!-- Node28 -->
<g id="node28" class="node">
<title>Node28</title>
<g id="a_node28"><a xlink:href="classsss_1_1WebClient.html#ae7b1f77bd4ae44585f2d49ea493bdcc5" target="_top" xlink:title="Upload data from memory buffer.">
<polygon fill="none" stroke="black" points="564,-109 564,-139 705,-139 705,-109 564,-109"/>
<text text-anchor="start" x="572" y="-127" font-family="Helvetica,sans-Serif" font-size="10.00">sss::WebClient::UploadData</text>
<text text-anchor="middle" x="634.5" y="-116" font-family="Helvetica,sans-Serif" font-size="10.00">FromBuffer</text>
</a>
</g>
</g>
<!-- Node7&#45;&gt;Node28 -->
<g id="edge31" class="edge">
<title>Node7&#45;&gt;Node28</title>
<path fill="none" stroke="midnightblue" d="M463.66,-209.37C494.16,-194.04 554.36,-163.78 594.27,-143.72"/>
<polygon fill="midnightblue" stroke="midnightblue" points="596.09,-146.72 603.45,-139.1 592.95,-140.47 596.09,-146.72"/>
</g>
<!-- Node9 -->
<g id="node9" class="node">
<title>Node9</title>
<g id="a_node9"><a xlink:href="classsss_1_1api_1_1S3Api.html#a1a4e05ac14390c7f42feef2c26e22031" target="_top" xlink:title=" ">
<polygon fill="none" stroke="black" points="758.5,-304.5 758.5,-323.5 880.5,-323.5 880.5,-304.5 758.5,-304.5"/>
<text text-anchor="middle" x="819.5" y="-311.5" font-family="Helvetica,sans-Serif" font-size="10.00">sss::api::S3Api::Access</text>
</a>
</g>
</g>
<!-- Node8&#45;&gt;Node9 -->
<g id="edge8" class="edge">
<title>Node8&#45;&gt;Node9</title>
<path fill="none" stroke="midnightblue" d="M648.42,-228.58C668.76,-243.33 709.86,-271.79 748,-290 756.75,-294.18 766.41,-297.97 775.72,-301.23"/>
<polygon fill="midnightblue" stroke="midnightblue" points="774.63,-304.56 785.22,-304.45 776.87,-297.93 774.63,-304.56"/>
</g>
<!-- Node10 -->
<g id="node10" class="node">
<title>Node10</title>
<g id="a_node10"><a xlink:href="classsss_1_1api_1_1S3Api.html#a3718745d3b940462ae9f3b78f773b3a6" target="_top" xlink:title="Clear data and reset read and write functions.">
<polygon fill="none" stroke="black" points="763,-228.5 763,-247.5 876,-247.5 876,-228.5 763,-228.5"/>
<text text-anchor="middle" x="819.5" y="-235.5" font-family="Helvetica,sans-Serif" font-size="10.00">sss::api::S3Api::Clear</text>
</a>
</g>
</g>
<!-- Node8&#45;&gt;Node10 -->
<g id="edge9" class="edge">
<title>Node8&#45;&gt;Node10</title>
<path fill="none" stroke="midnightblue" d="M693.65,-225.04C712.55,-227 733.64,-229.19 753.03,-231.2"/>
<polygon fill="midnightblue" stroke="midnightblue" points="752.69,-234.69 762.99,-232.24 753.41,-227.72 752.69,-234.69"/>
</g>
<!-- Node15 -->
<g id="node15" class="node">
<title>Node15</title>
<g id="a_node15"><a xlink:href="classsss_1_1WebClient.html#a75890c14fbe4a4bbac61718a4f3c064d" target="_top" xlink:title=" ">
<polygon fill="none" stroke="black" points="944,-285.5 944,-304.5 1085,-304.5 1085,-285.5 944,-285.5"/>
<text text-anchor="middle" x="1014.5" y="-292.5" font-family="Helvetica,sans-Serif" font-size="10.00">sss::WebClient::SetHeaders</text>
</a>
</g>
</g>
<!-- Node8&#45;&gt;Node15 -->
<g id="edge21" class="edge">
<title>Node8&#45;&gt;Node15</title>
<path fill="none" stroke="midnightblue" d="M659.7,-228.62C682.23,-237.22 716.92,-249.59 748,-257 809.59,-271.68 880.67,-281.49 933.77,-287.45"/>
<polygon fill="midnightblue" stroke="midnightblue" points="933.48,-290.94 943.8,-288.56 934.25,-283.99 933.48,-290.94"/>
</g>
<!-- Node16 -->
<g id="node16" class="node">
<title>Node16</title>
<g id="a_node16"><a xlink:href="classsss_1_1WebClient.html#a12b5db6b8c667024557ab58059d39994" target="_top" xlink:title=" ">
<polygon fill="none" stroke="black" points="952,-171.5 952,-190.5 1077,-190.5 1077,-171.5 952,-171.5"/>
<text text-anchor="middle" x="1014.5" y="-178.5" font-family="Helvetica,sans-Serif" font-size="10.00">sss::WebClient::SetPath</text>
</a>
</g>
</g>
<!-- Node8&#45;&gt;Node16 -->
<g id="edge23" class="edge">
<title>Node8&#45;&gt;Node16</title>
<path fill="none" stroke="midnightblue" d="M693.73,-213.15C760.35,-206.45 869.48,-195.48 941.41,-188.25"/>
<polygon fill="midnightblue" stroke="midnightblue" points="942.14,-191.69 951.74,-187.21 941.44,-184.73 942.14,-191.69"/>
</g>
<!-- Node18 -->
<g id="node18" class="node">
<title>Node18</title>
<g id="a_node18"><a xlink:href="classsss_1_1WebClient.html#a9bf978d95b79728f6d60fc2bdb4fe546" target="_top" xlink:title=" ">
<polygon fill="none" stroke="black" points="928,-133.5 928,-152.5 1101,-152.5 1101,-133.5 928,-133.5"/>
<text text-anchor="middle" x="1014.5" y="-140.5" font-family="Helvetica,sans-Serif" font-size="10.00">sss::WebClient::SetReqParameters</text>
</a>
</g>
</g>
<!-- Node8&#45;&gt;Node18 -->
<g id="edge24" class="edge">
<title>Node8&#45;&gt;Node18</title>
<path fill="none" stroke="midnightblue" d="M645.25,-209.34C663.52,-192 704.95,-156.18 748,-143 813.01,-123.1 891.24,-126.13 945.88,-132.27"/>
<polygon fill="midnightblue" stroke="midnightblue" points="945.79,-135.79 956.14,-133.5 946.62,-128.84 945.79,-135.79"/>
</g>
<!-- Node19 -->
<g id="node19" class="node">
<title>Node19</title>
<g id="a_node19"><a xlink:href="classsss_1_1api_1_1S3Api.html#a70f1068d07e1d4c1be164e0cb9328cc0" target="_top" xlink:title=" ">
<polygon fill="none" stroke="black" points="755.5,-76.5 755.5,-95.5 883.5,-95.5 883.5,-76.5 755.5,-76.5"/>
<text text-anchor="middle" x="819.5" y="-83.5" font-family="Helvetica,sans-Serif" font-size="10.00">sss::api::S3Api::Endpoint</text>
</a>
</g>
</g>
<!-- Node8&#45;&gt;Node19 -->
<g id="edge18" class="edge">
<title>Node8&#45;&gt;Node19</title>
<path fill="none" stroke="midnightblue" d="M646.6,-209.11C661.68,-195.58 689.33,-170.43 712,-148 728.53,-131.63 728.42,-122.56 748,-110 754.81,-105.63 762.5,-101.97 770.24,-98.92"/>
<polygon fill="midnightblue" stroke="midnightblue" points="771.43,-102.21 779.64,-95.51 769.04,-95.63 771.43,-102.21"/>
</g>
<!-- Node20 -->
<g id="node20" class="node">
<title>Node20</title>
<g id="a_node20"><a xlink:href="classsss_1_1api_1_1S3Api.html#acfffe29254323fb41231787a0afb7edc" target="_top" xlink:title=" ">
<polygon fill="none" stroke="black" points="760.5,-380.5 760.5,-399.5 878.5,-399.5 878.5,-380.5 760.5,-380.5"/>
<text text-anchor="middle" x="819.5" y="-387.5" font-family="Helvetica,sans-Serif" font-size="10.00">sss::api::S3Api::Secret</text>
</a>
</g>
</g>
<!-- Node8&#45;&gt;Node20 -->
<g id="edge19" class="edge">
<title>Node8&#45;&gt;Node20</title>
<path fill="none" stroke="midnightblue" d="M639.75,-228.58C652.2,-255.5 691.31,-332.34 748,-371 750.92,-372.99 754.03,-374.77 757.27,-376.36"/>
<polygon fill="midnightblue" stroke="midnightblue" points="756.08,-379.66 766.65,-380.38 758.84,-373.23 756.08,-379.66"/>
</g>
<!-- Node21 -->
<g id="node21" class="node">
<title>Node21</title>
<g id="a_node21"><a xlink:href="classsss_1_1WebClient.html#afc3b7a92568fbb1ea447918920ca266e" target="_top" xlink:title="Set endpoint: &#160;&lt;proto&gt;://&lt;server&gt;:&lt;port&gt;">
<polygon fill="none" stroke="black" points="748,-342.5 748,-361.5 891,-361.5 891,-342.5 748,-342.5"/>
<text text-anchor="middle" x="819.5" y="-349.5" font-family="Helvetica,sans-Serif" font-size="10.00">sss::WebClient::SetEndpoint</text>
</a>
</g>
</g>
<!-- Node8&#45;&gt;Node21 -->
<g id="edge20" class="edge">
<title>Node8&#45;&gt;Node21</title>
<path fill="none" stroke="midnightblue" d="M642.16,-228.63C657.9,-250.63 699.71,-304.86 748,-333 751.86,-335.25 756,-337.24 760.26,-339"/>
<polygon fill="midnightblue" stroke="midnightblue" points="759.14,-342.32 769.73,-342.5 761.56,-335.75 759.14,-342.32"/>
</g>
<!-- Node22 -->
<g id="node22" class="node">
<title>Node22</title>
<g id="a_node22"><a xlink:href="classsss_1_1WebClient.html#af6233ffd7b294e1e7e606e838dd44e9e" target="_top" xlink:title=" ">
<polygon fill="none" stroke="black" points="751,-38.5 751,-57.5 888,-57.5 888,-38.5 751,-38.5"/>
<text text-anchor="middle" x="819.5" y="-45.5" font-family="Helvetica,sans-Serif" font-size="10.00">sss::WebClient::SetMethod</text>
</a>
</g>
</g>
<!-- Node8&#45;&gt;Node22 -->
<g id="edge22" class="edge">
<title>Node8&#45;&gt;Node22</title>
<path fill="none" stroke="midnightblue" d="M648.66,-209.49C665.25,-196.96 693.77,-173.5 712,-148 734.9,-115.95 718.07,-92.62 748,-67 749.98,-65.31 752.1,-63.76 754.32,-62.35"/>
<polygon fill="midnightblue" stroke="midnightblue" points="756.12,-65.35 763.31,-57.57 752.83,-59.17 756.12,-65.35"/>
</g>
<!-- Node23 -->
<g id="node23" class="node">
<title>Node23</title>
<g id="a_node23"><a xlink:href="group__Sign.html#ga3ae8e18ef70752b7369fca66c40c526b" target="_top" xlink:title="Sign headers.">
<polygon fill="none" stroke="black" points="772,-152.5 772,-171.5 867,-171.5 867,-152.5 772,-152.5"/>
<text text-anchor="middle" x="819.5" y="-159.5" font-family="Helvetica,sans-Serif" font-size="10.00">sss::SignHeaders</text>
</a>
</g>
</g>
<!-- Node8&#45;&gt;Node23 -->
<g id="edge25" class="edge">
<title>Node8&#45;&gt;Node23</title>
<path fill="none" stroke="midnightblue" d="M666.13,-209.46C696.88,-199.88 744.4,-185.08 778.19,-174.55"/>
<polygon fill="midnightblue" stroke="midnightblue" points="779.26,-177.89 787.77,-171.57 777.18,-171.2 779.26,-177.89"/>
</g>
<!-- Node11 -->
<g id="node11" class="node">
<title>Node11</title>
<g id="a_node11"><a xlink:href="classsss_1_1WebClient.html#a381f5715b7a2f19a0d4414d278874bae" target="_top" xlink:title="Clear internal buffers.">
<polygon fill="none" stroke="black" points="942.5,-209.5 942.5,-228.5 1086.5,-228.5 1086.5,-209.5 942.5,-209.5"/>
<text text-anchor="middle" x="1014.5" y="-216.5" font-family="Helvetica,sans-Serif" font-size="10.00">sss::WebClient::ClearBuffers</text>
</a>
</g>
</g>
<!-- Node10&#45;&gt;Node11 -->
<g id="edge10" class="edge">
<title>Node10&#45;&gt;Node11</title>
<path fill="none" stroke="midnightblue" d="M876.06,-232.53C893.62,-230.8 913.4,-228.85 932.36,-226.99"/>
<polygon fill="midnightblue" stroke="midnightblue" points="932.88,-230.45 942.49,-225.99 932.2,-223.49 932.88,-230.45"/>
</g>
<!-- Node12 -->
<g id="node12" class="node">
<title>Node12</title>
<g id="a_node12"><a xlink:href="classsss_1_1WebClient.html#a96837f149bb473853a6523d096a25c56" target="_top" xlink:title="Reset read/write functions to default.">
<polygon fill="none" stroke="black" points="927,-247.5 927,-266.5 1102,-266.5 1102,-247.5 927,-247.5"/>
<text text-anchor="middle" x="1014.5" y="-254.5" font-family="Helvetica,sans-Serif" font-size="10.00">sss::WebClient::ResetRWFunctions</text>
</a>
</g>
</g>
<!-- Node10&#45;&gt;Node12 -->
<g id="edge11" class="edge">
<title>Node10&#45;&gt;Node12</title>
<path fill="none" stroke="midnightblue" d="M876.06,-243.47C888.79,-244.72 902.68,-246.09 916.58,-247.46"/>
<polygon fill="midnightblue" stroke="midnightblue" points="916.39,-250.96 926.69,-248.45 917.08,-243.99 916.39,-250.96"/>
</g>
<!-- Node10&#45;&gt;Node15 -->
<g id="edge14" class="edge">
<title>Node10&#45;&gt;Node15</title>
<path fill="none" stroke="midnightblue" d="M849.41,-247.53C862.2,-251.83 877.39,-257.04 891,-262 907.13,-267.88 910.57,-271.03 927,-276 935.65,-278.61 944.88,-281.03 953.98,-283.2"/>
<polygon fill="midnightblue" stroke="midnightblue" points="953.23,-286.62 963.76,-285.45 954.8,-279.8 953.23,-286.62"/>
</g>
<!-- Node10&#45;&gt;Node16 -->
<g id="edge15" class="edge">
<title>Node10&#45;&gt;Node16</title>
<path fill="none" stroke="midnightblue" d="M849.41,-228.47C862.2,-224.17 877.39,-218.96 891,-214 907.13,-208.12 910.57,-204.97 927,-200 935.65,-197.39 944.88,-194.97 953.98,-192.8"/>
<polygon fill="midnightblue" stroke="midnightblue" points="954.8,-196.2 963.76,-190.55 953.23,-189.38 954.8,-196.2"/>
</g>
<!-- Node10&#45;&gt;Node17 -->
<g id="edge16" class="edge">
<title>Node10&#45;&gt;Node17</title>
<path fill="none" stroke="midnightblue" d="M832.57,-247.51C864.86,-272.94 953.47,-342.72 993.46,-374.21"/>
<polygon fill="midnightblue" stroke="midnightblue" points="991.41,-377.06 1001.43,-380.5 995.74,-371.56 991.41,-377.06"/>
</g>
<!-- Node10&#45;&gt;Node18 -->
<g id="edge17" class="edge">
<title>Node10&#45;&gt;Node18</title>
<path fill="none" stroke="midnightblue" d="M830.79,-228.43C848.83,-212.2 887.97,-179.34 927,-162 932.72,-159.46 938.8,-157.25 944.99,-155.32"/>
<polygon fill="midnightblue" stroke="midnightblue" points="946.12,-158.64 954.77,-152.53 944.2,-151.91 946.12,-158.64"/>
</g>
<!-- Node13 -->
<g id="node13" class="node">
<title>Node13</title>
<g id="a_node13"><a xlink:href="classsss_1_1WebClient.html#a88dbcc61562e84aa9ebf1eabf887ac28" target="_top" xlink:title=" ">
<polygon fill="none" stroke="black" points="1138,-269.5 1138,-288.5 1303,-288.5 1303,-269.5 1138,-269.5"/>
<text text-anchor="middle" x="1220.5" y="-276.5" font-family="Helvetica,sans-Serif" font-size="10.00">sss::WebClient::SetReadFunction</text>
</a>
</g>
</g>
<!-- Node12&#45;&gt;Node13 -->
<g id="edge12" class="edge">
<title>Node12&#45;&gt;Node13</title>
<path fill="none" stroke="midnightblue" d="M1102.01,-266.33C1110.52,-267.25 1119.18,-268.18 1127.73,-269.1"/>
<polygon fill="midnightblue" stroke="midnightblue" points="1127.4,-272.59 1137.72,-270.18 1128.15,-265.63 1127.4,-272.59"/>
</g>
<!-- Node14 -->
<g id="node14" class="node">
<title>Node14</title>
<g id="a_node14"><a xlink:href="classsss_1_1WebClient.html#a002876073b3869a9b9a9d709d14f1d7e" target="_top" xlink:title=" ">
<polygon fill="none" stroke="black" points="1157,-220 1157,-250 1284,-250 1284,-220 1157,-220"/>
<text text-anchor="start" x="1165" y="-238" font-family="Helvetica,sans-Serif" font-size="10.00">sss::WebClient::SetWrite</text>
<text text-anchor="middle" x="1220.5" y="-227" font-family="Helvetica,sans-Serif" font-size="10.00">Function</text>
</a>
</g>
</g>
<!-- Node12&#45;&gt;Node14 -->
<g id="edge13" class="edge">
<title>Node12&#45;&gt;Node14</title>
<path fill="none" stroke="midnightblue" d="M1102.01,-247.67C1116.87,-246.07 1132.17,-244.42 1146.63,-242.86"/>
<polygon fill="midnightblue" stroke="midnightblue" points="1147.41,-246.29 1156.98,-241.74 1146.66,-239.33 1147.41,-246.29"/>
</g>
<!-- Node27 -->
<g id="node27" class="node">
<title>Node27</title>
<g id="a_node27"><a xlink:href="group__Internal.html#ga6e3db8d156313abef7e2c966df1a3d7c" target="_top" xlink:title=" ">
<polygon fill="none" stroke="black" points="777.5,-462.5 777.5,-481.5 861.5,-481.5 861.5,-462.5 777.5,-462.5"/>
<text text-anchor="middle" x="819.5" y="-469.5" font-family="Helvetica,sans-Serif" font-size="10.00">sss::UrlEncode</text>
</a>
</g>
</g>
<!-- Node26&#45;&gt;Node27 -->
<g id="edge30" class="edge">
<title>Node26&#45;&gt;Node27</title>
<path fill="none" stroke="midnightblue" d="M712.05,-472C730.62,-472 750.04,-472 767.13,-472"/>
<polygon fill="midnightblue" stroke="midnightblue" points="767.44,-475.5 777.44,-472 767.44,-468.5 767.44,-475.5"/>
</g>
<!-- Node28&#45;&gt;Node22 -->
<g id="edge33" class="edge">
<title>Node28&#45;&gt;Node22</title>
<path fill="none" stroke="midnightblue" d="M679.72,-109C690.54,-104.7 701.91,-99.63 712,-94 729.47,-84.26 730.02,-75.76 748,-67 752.84,-64.64 758.02,-62.54 763.29,-60.68"/>
<polygon fill="midnightblue" stroke="midnightblue" points="764.39,-64 772.82,-57.58 762.23,-57.34 764.39,-64"/>
</g>
<!-- Node28&#45;&gt;Node25 -->
<g id="edge32" class="edge">
<title>Node28&#45;&gt;Node25</title>
<path fill="none" stroke="midnightblue" d="M688.46,-108.84C696.92,-104.9 705.13,-100.02 712,-94 736.84,-72.24 722,-49.35 748,-29 750.34,-27.17 752.84,-25.51 755.46,-24.02"/>
<polygon fill="midnightblue" stroke="midnightblue" points="757.25,-27.04 764.71,-19.52 754.19,-20.74 757.25,-27.04"/>
</g>
</g>
</svg>
