<?xml version="1.0" encoding="UTF-8" standalone="no"?>
<!DOCTYPE svg PUBLIC "-//W3C//DTD SVG 1.1//EN"
 "http://www.w3.org/Graphics/SVG/1.1/DTD/svg11.dtd">
<!-- Generated by graphviz version 2.43.0 (0)
 -->
<!-- Title: XMLOStream::Up Pages: 1 -->
<svg width="421pt" height="104pt"
 viewBox="0.00 0.00 421.00 104.00" xmlns="http://www.w3.org/2000/svg" xmlns:xlink="http://www.w3.org/1999/xlink">
<g id="graph0" class="graph" transform="scale(1 1) rotate(0) translate(4 100)">
<title>XMLOStream::Up</title>
<!-- Node1 -->
<g id="node1" class="node">
<title>Node1</title>
<g id="a_node1"><a xlink:title=" ">
<polygon fill="#bfbfbf" stroke="black" points="318,-38.5 318,-57.5 413,-57.5 413,-38.5 318,-38.5"/>
<text text-anchor="middle" x="365.5" y="-45.5" font-family="Helvetica,sans-Serif" font-size="10.00">XMLOStream::Up</text>
</a>
</g>
</g>
<!-- Node2 -->
<g id="node2" class="node">
<title>Node2</title>
<g id="a_node2"><a xlink:href="classXMLOStream.html#ab4ce9a6e5e849e36fc01373013c3c776" target="_top" xlink:title=" ">
<polygon fill="none" stroke="black" points="167.5,-76.5 167.5,-95.5 273.5,-95.5 273.5,-76.5 167.5,-76.5"/>
<text text-anchor="middle" x="220.5" y="-83.5" font-family="Helvetica,sans-Serif" font-size="10.00">XMLOStream::Move</text>
</a>
</g>
</g>
<!-- Node1&#45;&gt;Node2 -->
<g id="edge1" class="edge">
<title>Node1&#45;&gt;Node2</title>
<path fill="none" stroke="midnightblue" d="M318.69,-60.17C298.91,-65.43 276.12,-71.49 257.57,-76.41"/>
<polygon fill="midnightblue" stroke="midnightblue" points="319.65,-63.54 328.42,-57.59 317.85,-56.77 319.65,-63.54"/>
</g>
<!-- Node4 -->
<g id="node4" class="node">
<title>Node4</title>
<g id="a_node4"><a xlink:href="classXMLOStream.html#a3bee23b15734c25bd10933778d16a4c3" target="_top" xlink:title=" ">
<polygon fill="none" stroke="black" points="159,-38.5 159,-57.5 282,-57.5 282,-38.5 159,-38.5"/>
<text text-anchor="middle" x="220.5" y="-45.5" font-family="Helvetica,sans-Serif" font-size="10.00">XMLOStream::operator=</text>
</a>
</g>
</g>
<!-- Node1&#45;&gt;Node4 -->
<g id="edge3" class="edge">
<title>Node1&#45;&gt;Node4</title>
<path fill="none" stroke="midnightblue" d="M307.65,-48C299.3,-48 290.66,-48 282.23,-48"/>
<polygon fill="midnightblue" stroke="midnightblue" points="307.68,-51.5 317.68,-48 307.68,-44.5 307.68,-51.5"/>
</g>
<!-- Node5 -->
<g id="node5" class="node">
<title>Node5</title>
<g id="a_node5"><a xlink:href="classXMLOStream.html#aea809d5f60ee1220d74650ac34618fbc" target="_top" xlink:title=" ">
<polygon fill="none" stroke="black" points="159,-0.5 159,-19.5 282,-19.5 282,-0.5 159,-0.5"/>
<text text-anchor="middle" x="220.5" y="-7.5" font-family="Helvetica,sans-Serif" font-size="10.00">XMLOStream::operator[]</text>
</a>
</g>
</g>
<!-- Node1&#45;&gt;Node5 -->
<g id="edge4" class="edge">
<title>Node1&#45;&gt;Node5</title>
<path fill="none" stroke="midnightblue" d="M318.69,-35.83C298.91,-30.57 276.12,-24.51 257.57,-19.59"/>
<polygon fill="midnightblue" stroke="midnightblue" points="317.85,-39.23 328.42,-38.41 319.65,-32.46 317.85,-39.23"/>
</g>
<!-- Node3 -->
<g id="node3" class="node">
<title>Node3</title>
<g id="a_node3"><a xlink:href="classXMLOStream.html#a84c138883600333866311130be6a1fa1" target="_top" xlink:title="Invoke Insert(MoveAction) method.">
<polygon fill="none" stroke="black" points="0,-76.5 0,-95.5 123,-95.5 123,-76.5 0,-76.5"/>
<text text-anchor="middle" x="61.5" y="-83.5" font-family="Helvetica,sans-Serif" font-size="10.00">XMLOStream::operator[]</text>
</a>
</g>
</g>
<!-- Node2&#45;&gt;Node3 -->
<g id="edge2" class="edge">
<title>Node2&#45;&gt;Node3</title>
<path fill="none" stroke="midnightblue" d="M157.13,-86C145.97,-86 134.36,-86 123.25,-86"/>
<polygon fill="midnightblue" stroke="midnightblue" points="157.22,-89.5 167.22,-86 157.22,-82.5 157.22,-89.5"/>
</g>
</g>
</svg>
