<?xml version="1.0" encoding="UTF-8" standalone="no"?>
<!DOCTYPE svg PUBLIC "-//W3C//DTD SVG 1.1//EN"
 "http://www.w3.org/Graphics/SVG/1.1/DTD/svg11.dtd">
<!-- Generated by graphviz version 2.43.0 (0)
 -->
<!-- Title: sss::api::S3Api::ListObjectsV2 Pages: 1 -->
<!--zoomable 534 -->
<svg id="main" version="1.1" xmlns="http://www.w3.org/2000/svg" xmlns:xlink="http://www.w3.org/1999/xlink" xml:space="preserve" onload="init(evt)">
<style type="text/css"><![CDATA[
.edge:hover path { stroke: red; }
.edge:hover polygon { stroke: red; fill: red; }
]]></style>
<script type="text/javascript"><![CDATA[
var edges = document.getElementsByTagName('g');
if (edges && edges.length) {
  for (var i=0;i<edges.length;i++) {
    if (edges[i].id.substr(0,4)=='edge') {
      edges[i].setAttribute('class','edge');
    }
  }
}
]]></script>
        <defs>
                <circle id="rim" cx="0" cy="0" r="7"/>
                <circle id="rim2" cx="0" cy="0" r="3.5"/>
                <g id="zoomPlus">
                        <use xlink:href="#rim" fill="#404040">
                                <set attributeName="fill" to="#808080" begin="zoomplus.mouseover" end="zoomplus.mouseout"/>
                        </use>
                        <path d="M-4,0h8M0,-4v8" fill="none" stroke="white" stroke-width="1.5" pointer-events="none"/>
                </g>
                <g id="zoomMin">
                        <use xlink:href="#rim" fill="#404040">
                                <set attributeName="fill" to="#808080" begin="zoomminus.mouseover" end="zoomminus.mouseout"/>
                        </use>
                        <path d="M-4,0h8" fill="none" stroke="white" stroke-width="1.5" pointer-events="none"/>
                </g>
                <g id="dirArrow">
                        <path fill="none" stroke="white" stroke-width="1.5" d="M0,-3.0v7 M-2.5,-0.5L0,-3.0L2.5,-0.5"/>
                </g>
               <g id="resetDef">
                       <use xlink:href="#rim2" fill="#404040">
                               <set attributeName="fill" to="#808080" begin="reset.mouseover" end="reset.mouseout"/>
                       </use>
               </g>
        </defs>

<script type="text/javascript">
var viewWidth = 1152;
var viewHeight = 534;
var sectionId = 'dynsection-23';
</script>
<script xlink:href="svgpan.js"/>
<svg id="graph" class="graph">
<g id="viewport">
<title>sss::api::S3Api::ListObjectsV2</title>
<!-- Node1 -->
<g id="node1" class="node">
<title>Node1</title>
<g id="a_node1"><a xlink:title="List objects by sending a ListObjectsV2 request.">
<polygon fill="#bfbfbf" stroke="black" points="0,-228.5 0,-247.5 151,-247.5 151,-228.5 0,-228.5"/>
<text text-anchor="middle" x="75.5" y="-235.5" font-family="Helvetica,sans-Serif" font-size="10.00">sss::api::S3Api::ListObjectsV2</text>
</a>
</g>
</g>
<!-- Node2 -->
<g id="node2" class="node">
<title>Node2</title>
<g id="a_node2"><a xlink:href="classsss_1_1WebClient.html#ac9e82fc4b56b142d91f9b104f5266f91" target="_top" xlink:title="Get response body as text.">
<polygon fill="none" stroke="black" points="187,-386.5 187,-405.5 345,-405.5 345,-386.5 187,-386.5"/>
<text text-anchor="middle" x="266" y="-393.5" font-family="Helvetica,sans-Serif" font-size="10.00">sss::WebClient::GetContentText</text>
</a>
</g>
</g>
<!-- Node1&#45;&gt;Node2 -->
<g id="edge1" class="edge">
<title>Node1&#45;&gt;Node2</title>
<path fill="none" stroke="midnightblue" d="M88.01,-247.65C119.37,-273.93 206.59,-347.04 245.65,-379.78"/>
<polygon fill="midnightblue" stroke="midnightblue" points="243.73,-382.74 253.64,-386.48 248.23,-377.37 243.73,-382.74"/>
</g>
<!-- Node4 -->
<g id="node4" class="node">
<title>Node4</title>
<g id="a_node4"><a xlink:href="classsss_1_1api_1_1S3Api.html#a02b4f0c95255f151beb72f0a6bdf5889" target="_top" xlink:title="Send request.">
<polygon fill="none" stroke="black" points="210,-209.5 210,-228.5 322,-228.5 322,-209.5 210,-209.5"/>
<text text-anchor="middle" x="266" y="-216.5" font-family="Helvetica,sans-Serif" font-size="10.00">sss::api::S3Api::Send</text>
</a>
</g>
</g>
<!-- Node1&#45;&gt;Node4 -->
<g id="edge3" class="edge">
<title>Node1&#45;&gt;Node4</title>
<path fill="none" stroke="midnightblue" d="M151,-230.49C167.12,-228.87 184.05,-227.16 199.79,-225.57"/>
<polygon fill="midnightblue" stroke="midnightblue" points="200.34,-229.04 209.94,-224.55 199.63,-222.07 200.34,-229.04"/>
</g>
<!-- Node3 -->
<g id="node3" class="node">
<title>Node3</title>
<g id="a_node3"><a xlink:href="classsss_1_1WebClient.html#a77a4e0190a4f207b969cb63b6ba38ccc" target="_top" xlink:title=" ">
<polygon fill="none" stroke="black" points="381,-506.5 381,-525.5 553,-525.5 553,-506.5 381,-506.5"/>
<text text-anchor="middle" x="467" y="-513.5" font-family="Helvetica,sans-Serif" font-size="10.00">sss::WebClient::GetResponseBody</text>
</a>
</g>
</g>
<!-- Node2&#45;&gt;Node3 -->
<g id="edge2" class="edge">
<title>Node2&#45;&gt;Node3</title>
<path fill="none" stroke="midnightblue" d="M274.72,-405.54C291.68,-425.79 334.38,-473.17 381,-497 385.59,-499.35 390.47,-501.41 395.48,-503.21"/>
<polygon fill="midnightblue" stroke="midnightblue" points="394.64,-506.62 405.23,-506.39 396.8,-499.96 394.64,-506.62"/>
</g>
<!-- Node5 -->
<g id="node5" class="node">
<title>Node5</title>
<g id="a_node5"><a xlink:href="classsss_1_1api_1_1S3Api.html#a840772746fbb0a79c161037da7b24a31" target="_top" xlink:title="Configure instance.">
<polygon fill="none" stroke="black" points="408,-209.5 408,-228.5 526,-228.5 526,-209.5 408,-209.5"/>
<text text-anchor="middle" x="467" y="-216.5" font-family="Helvetica,sans-Serif" font-size="10.00">sss::api::S3Api::Config</text>
</a>
</g>
</g>
<!-- Node4&#45;&gt;Node5 -->
<g id="edge4" class="edge">
<title>Node4&#45;&gt;Node5</title>
<path fill="none" stroke="midnightblue" d="M322.17,-219C345.62,-219 373.21,-219 397.91,-219"/>
<polygon fill="midnightblue" stroke="midnightblue" points="397.94,-222.5 407.94,-219 397.94,-215.5 397.94,-222.5"/>
</g>
<!-- Node14 -->
<g id="node14" class="node">
<title>Node14</title>
<g id="a_node14"><a xlink:href="classsss_1_1WebClient.html#a51ce0ecf6487b6a43072643fe4f4cb4e" target="_top" xlink:title=" ">
<polygon fill="none" stroke="black" points="782.5,-380.5 782.5,-399.5 928.5,-399.5 928.5,-380.5 782.5,-380.5"/>
<text text-anchor="middle" x="855.5" y="-387.5" font-family="Helvetica,sans-Serif" font-size="10.00">sss::WebClient::SetPostData</text>
</a>
</g>
</g>
<!-- Node4&#45;&gt;Node14 -->
<g id="edge25" class="edge">
<title>Node4&#45;&gt;Node14</title>
<path fill="none" stroke="midnightblue" d="M277.95,-228.53C316.87,-261.69 453.43,-371.99 589,-409 665.01,-429.75 757.55,-414.43 810.88,-401.88"/>
<polygon fill="midnightblue" stroke="midnightblue" points="811.8,-405.26 820.69,-399.5 810.15,-398.46 811.8,-405.26"/>
</g>
<!-- Node21 -->
<g id="node21" class="node">
<title>Node21</title>
<g id="a_node21"><a xlink:href="group__Internal.html#ga2b8b08c2a4994a87377d83ccfa9a6a53" target="_top" xlink:title=" ">
<polygon fill="none" stroke="black" points="418,-32.5 418,-51.5 516,-51.5 516,-32.5 418,-32.5"/>
<text text-anchor="middle" x="467" y="-39.5" font-family="Helvetica,sans-Serif" font-size="10.00">sss::ParseParams</text>
</a>
</g>
</g>
<!-- Node4&#45;&gt;Node21 -->
<g id="edge23" class="edge">
<title>Node4&#45;&gt;Node21</title>
<path fill="none" stroke="midnightblue" d="M271.35,-209.39C284.08,-182.39 323.97,-105.25 381,-66 389.15,-60.39 398.58,-56.09 408.15,-52.78"/>
<polygon fill="midnightblue" stroke="midnightblue" points="409.2,-56.12 417.7,-49.8 407.12,-49.44 409.2,-56.12"/>
</g>
<!-- Node22 -->
<g id="node22" class="node">
<title>Node22</title>
<g id="a_node22"><a xlink:href="classsss_1_1WebClient.html#aa1d7484f0e09242ce53b24f9648ce50e" target="_top" xlink:title=" ">
<polygon fill="none" stroke="black" points="604.5,-0.5 604.5,-19.5 716.5,-19.5 716.5,-0.5 604.5,-0.5"/>
<text text-anchor="middle" x="660.5" y="-7.5" font-family="Helvetica,sans-Serif" font-size="10.00">sss::WebClient::Send</text>
</a>
</g>
</g>
<!-- Node4&#45;&gt;Node22 -->
<g id="edge24" class="edge">
<title>Node4&#45;&gt;Node22</title>
<path fill="none" stroke="midnightblue" d="M273.1,-209.39C288.29,-186.34 330.21,-127.69 381,-99 449.16,-60.49 483.27,-96.6 553,-61 572.07,-51.27 570.16,-39.17 589,-29 593.24,-26.71 597.77,-24.68 602.42,-22.89"/>
<polygon fill="midnightblue" stroke="midnightblue" points="603.77,-26.13 612.06,-19.53 601.47,-19.52 603.77,-26.13"/>
</g>
<!-- Node23 -->
<g id="node23" class="node">
<title>Node23</title>
<g id="a_node23"><a xlink:href="classsss_1_1WebClient.html#a7dfd984b33a29686fb0355b65b620e99" target="_top" xlink:title=" ">
<polygon fill="none" stroke="black" points="389.5,-457 389.5,-487 544.5,-487 544.5,-457 389.5,-457"/>
<text text-anchor="start" x="397.5" y="-475" font-family="Helvetica,sans-Serif" font-size="10.00">sss::WebClient::SetUrlEncoded</text>
<text text-anchor="middle" x="467" y="-464" font-family="Helvetica,sans-Serif" font-size="10.00">PostData</text>
</a>
</g>
</g>
<!-- Node4&#45;&gt;Node23 -->
<g id="edge26" class="edge">
<title>Node4&#45;&gt;Node23</title>
<path fill="none" stroke="midnightblue" d="M271.74,-228.76C292.14,-270.73 371.88,-434.02 381,-442 385.45,-445.89 390.44,-449.29 395.71,-452.26"/>
<polygon fill="midnightblue" stroke="midnightblue" points="394.3,-455.47 404.81,-456.85 397.46,-449.22 394.3,-455.47"/>
</g>
<!-- Node25 -->
<g id="node25" class="node">
<title>Node25</title>
<g id="a_node25"><a xlink:href="classsss_1_1WebClient.html#ae7b1f77bd4ae44585f2d49ea493bdcc5" target="_top" xlink:title="Upload data from memory buffer.">
<polygon fill="none" stroke="black" points="396.5,-109 396.5,-139 537.5,-139 537.5,-109 396.5,-109"/>
<text text-anchor="start" x="404.5" y="-127" font-family="Helvetica,sans-Serif" font-size="10.00">sss::WebClient::UploadData</text>
<text text-anchor="middle" x="467" y="-116" font-family="Helvetica,sans-Serif" font-size="10.00">FromBuffer</text>
</a>
</g>
</g>
<!-- Node4&#45;&gt;Node25 -->
<g id="edge28" class="edge">
<title>Node4&#45;&gt;Node25</title>
<path fill="none" stroke="midnightblue" d="M287.18,-209.37C319.42,-193.98 383.2,-163.53 425.22,-143.47"/>
<polygon fill="midnightblue" stroke="midnightblue" points="426.85,-146.57 434.36,-139.1 423.83,-140.25 426.85,-146.57"/>
</g>
<!-- Node6 -->
<g id="node6" class="node">
<title>Node6</title>
<g id="a_node6"><a xlink:href="classsss_1_1api_1_1S3Api.html#a1a4e05ac14390c7f42feef2c26e22031" target="_top" xlink:title=" ">
<polygon fill="none" stroke="black" points="599.5,-304.5 599.5,-323.5 721.5,-323.5 721.5,-304.5 599.5,-304.5"/>
<text text-anchor="middle" x="660.5" y="-311.5" font-family="Helvetica,sans-Serif" font-size="10.00">sss::api::S3Api::Access</text>
</a>
</g>
</g>
<!-- Node5&#45;&gt;Node6 -->
<g id="edge5" class="edge">
<title>Node5&#45;&gt;Node6</title>
<path fill="none" stroke="midnightblue" d="M482.02,-228.5C504.06,-243.14 548.47,-271.44 589,-290 597.99,-294.11 607.89,-297.91 617.37,-301.21"/>
<polygon fill="midnightblue" stroke="midnightblue" points="616.44,-304.59 627.03,-304.47 618.67,-297.96 616.44,-304.59"/>
</g>
<!-- Node7 -->
<g id="node7" class="node">
<title>Node7</title>
<g id="a_node7"><a xlink:href="classsss_1_1api_1_1S3Api.html#a3718745d3b940462ae9f3b78f773b3a6" target="_top" xlink:title="Clear data and reset read and write functions.">
<polygon fill="none" stroke="black" points="604,-228.5 604,-247.5 717,-247.5 717,-228.5 604,-228.5"/>
<text text-anchor="middle" x="660.5" y="-235.5" font-family="Helvetica,sans-Serif" font-size="10.00">sss::api::S3Api::Clear</text>
</a>
</g>
</g>
<!-- Node5&#45;&gt;Node7 -->
<g id="edge6" class="edge">
<title>Node5&#45;&gt;Node7</title>
<path fill="none" stroke="midnightblue" d="M526.24,-224.78C547.52,-226.89 571.73,-229.29 593.63,-231.46"/>
<polygon fill="midnightblue" stroke="midnightblue" points="593.54,-234.97 603.84,-232.48 594.23,-228.01 593.54,-234.97"/>
</g>
<!-- Node12 -->
<g id="node12" class="node">
<title>Node12</title>
<g id="a_node12"><a xlink:href="classsss_1_1WebClient.html#a75890c14fbe4a4bbac61718a4f3c064d" target="_top" xlink:title=" ">
<polygon fill="none" stroke="black" points="785,-285.5 785,-304.5 926,-304.5 926,-285.5 785,-285.5"/>
<text text-anchor="middle" x="855.5" y="-292.5" font-family="Helvetica,sans-Serif" font-size="10.00">sss::WebClient::SetHeaders</text>
</a>
</g>
</g>
<!-- Node5&#45;&gt;Node12 -->
<g id="edge18" class="edge">
<title>Node5&#45;&gt;Node12</title>
<path fill="none" stroke="midnightblue" d="M494.1,-228.55C518.38,-237.11 555.72,-249.44 589,-257 650.75,-271.02 721.81,-280.87 774.87,-287.02"/>
<polygon fill="midnightblue" stroke="midnightblue" points="774.57,-290.51 784.9,-288.16 775.36,-283.55 774.57,-290.51"/>
</g>
<!-- Node13 -->
<g id="node13" class="node">
<title>Node13</title>
<g id="a_node13"><a xlink:href="classsss_1_1WebClient.html#a12b5db6b8c667024557ab58059d39994" target="_top" xlink:title=" ">
<polygon fill="none" stroke="black" points="793,-171.5 793,-190.5 918,-190.5 918,-171.5 793,-171.5"/>
<text text-anchor="middle" x="855.5" y="-178.5" font-family="Helvetica,sans-Serif" font-size="10.00">sss::WebClient::SetPath</text>
</a>
</g>
</g>
<!-- Node5&#45;&gt;Node13 -->
<g id="edge20" class="edge">
<title>Node5&#45;&gt;Node13</title>
<path fill="none" stroke="midnightblue" d="M526.28,-213.27C594.86,-206.53 708.74,-195.33 782.7,-188.06"/>
<polygon fill="midnightblue" stroke="midnightblue" points="783.25,-191.52 792.86,-187.06 782.57,-184.56 783.25,-191.52"/>
</g>
<!-- Node15 -->
<g id="node15" class="node">
<title>Node15</title>
<g id="a_node15"><a xlink:href="classsss_1_1WebClient.html#a9bf978d95b79728f6d60fc2bdb4fe546" target="_top" xlink:title=" ">
<polygon fill="none" stroke="black" points="769,-133.5 769,-152.5 942,-152.5 942,-133.5 769,-133.5"/>
<text text-anchor="middle" x="855.5" y="-140.5" font-family="Helvetica,sans-Serif" font-size="10.00">sss::WebClient::SetReqParameters</text>
</a>
</g>
</g>
<!-- Node5&#45;&gt;Node15 -->
<g id="edge21" class="edge">
<title>Node5&#45;&gt;Node15</title>
<path fill="none" stroke="midnightblue" d="M478.63,-209.33C498.52,-191.96 543.47,-156.11 589,-143 652.56,-124.69 728.29,-126.91 782.57,-132.39"/>
<polygon fill="midnightblue" stroke="midnightblue" points="782.47,-135.9 792.79,-133.49 783.22,-128.94 782.47,-135.9"/>
</g>
<!-- Node16 -->
<g id="node16" class="node">
<title>Node16</title>
<g id="a_node16"><a xlink:href="classsss_1_1api_1_1S3Api.html#a70f1068d07e1d4c1be164e0cb9328cc0" target="_top" xlink:title=" ">
<polygon fill="none" stroke="black" points="596.5,-76.5 596.5,-95.5 724.5,-95.5 724.5,-76.5 596.5,-76.5"/>
<text text-anchor="middle" x="660.5" y="-83.5" font-family="Helvetica,sans-Serif" font-size="10.00">sss::api::S3Api::Endpoint</text>
</a>
</g>
</g>
<!-- Node5&#45;&gt;Node16 -->
<g id="edge15" class="edge">
<title>Node5&#45;&gt;Node16</title>
<path fill="none" stroke="midnightblue" d="M480.49,-209.32C497.41,-196.04 528.34,-171.17 553,-148 569.96,-132.07 569.42,-122.56 589,-110 595.81,-105.63 603.5,-101.97 611.24,-98.92"/>
<polygon fill="midnightblue" stroke="midnightblue" points="612.43,-102.21 620.64,-95.51 610.04,-95.63 612.43,-102.21"/>
</g>
<!-- Node17 -->
<g id="node17" class="node">
<title>Node17</title>
<g id="a_node17"><a xlink:href="classsss_1_1api_1_1S3Api.html#acfffe29254323fb41231787a0afb7edc" target="_top" xlink:title=" ">
<polygon fill="none" stroke="black" points="601.5,-380.5 601.5,-399.5 719.5,-399.5 719.5,-380.5 601.5,-380.5"/>
<text text-anchor="middle" x="660.5" y="-387.5" font-family="Helvetica,sans-Serif" font-size="10.00">sss::api::S3Api::Secret</text>
</a>
</g>
</g>
<!-- Node5&#45;&gt;Node17 -->
<g id="edge16" class="edge">
<title>Node5&#45;&gt;Node17</title>
<path fill="none" stroke="midnightblue" d="M472.78,-228.58C486.71,-255.49 530.07,-332.32 589,-371 592.15,-373.07 595.52,-374.91 599.02,-376.56"/>
<polygon fill="midnightblue" stroke="midnightblue" points="597.93,-379.89 608.51,-380.46 600.59,-373.42 597.93,-379.89"/>
</g>
<!-- Node18 -->
<g id="node18" class="node">
<title>Node18</title>
<g id="a_node18"><a xlink:href="classsss_1_1WebClient.html#afc3b7a92568fbb1ea447918920ca266e" target="_top" xlink:title="Set endpoint: &lt;proto&gt;://&lt;server&gt;:&lt;port&gt;">
<polygon fill="none" stroke="black" points="589,-342.5 589,-361.5 732,-361.5 732,-342.5 589,-342.5"/>
<text text-anchor="middle" x="660.5" y="-349.5" font-family="Helvetica,sans-Serif" font-size="10.00">sss::WebClient::SetEndpoint</text>
</a>
</g>
</g>
<!-- Node5&#45;&gt;Node18 -->
<g id="edge17" class="edge">
<title>Node5&#45;&gt;Node18</title>
<path fill="none" stroke="midnightblue" d="M475.34,-228.61C492.65,-250.57 538.35,-304.71 589,-333 592.97,-335.22 597.2,-337.18 601.56,-338.93"/>
<polygon fill="midnightblue" stroke="midnightblue" points="600.63,-342.31 611.22,-342.41 603,-335.73 600.63,-342.31"/>
</g>
<!-- Node19 -->
<g id="node19" class="node">
<title>Node19</title>
<g id="a_node19"><a xlink:href="classsss_1_1WebClient.html#af6233ffd7b294e1e7e606e838dd44e9e" target="_top" xlink:title=" ">
<polygon fill="none" stroke="black" points="592,-38.5 592,-57.5 729,-57.5 729,-38.5 592,-38.5"/>
<text text-anchor="middle" x="660.5" y="-45.5" font-family="Helvetica,sans-Serif" font-size="10.00">sss::WebClient::SetMethod</text>
</a>
</g>
</g>
<!-- Node5&#45;&gt;Node19 -->
<g id="edge19" class="edge">
<title>Node5&#45;&gt;Node19</title>
<path fill="none" stroke="midnightblue" d="M483.34,-209.4C501.92,-197.11 533.19,-174.24 553,-148 576.73,-116.56 559.07,-92.62 589,-67 590.98,-65.31 593.1,-63.76 595.32,-62.35"/>
<polygon fill="midnightblue" stroke="midnightblue" points="597.12,-65.35 604.31,-57.57 593.83,-59.17 597.12,-65.35"/>
</g>
<!-- Node20 -->
<g id="node20" class="node">
<title>Node20</title>
<g id="a_node20"><a xlink:href="group__Sign.html#ga3ae8e18ef70752b7369fca66c40c526b" target="_top" xlink:title="Sign headers.">
<polygon fill="none" stroke="black" points="613,-152.5 613,-171.5 708,-171.5 708,-152.5 613,-152.5"/>
<text text-anchor="middle" x="660.5" y="-159.5" font-family="Helvetica,sans-Serif" font-size="10.00">sss::SignHeaders</text>
</a>
</g>
</g>
<!-- Node5&#45;&gt;Node20 -->
<g id="edge22" class="edge">
<title>Node5&#45;&gt;Node20</title>
<path fill="none" stroke="midnightblue" d="M500.05,-209.46C532.23,-199.88 581.96,-185.08 617.32,-174.55"/>
<polygon fill="midnightblue" stroke="midnightblue" points="618.76,-177.78 627.34,-171.57 616.76,-171.07 618.76,-177.78"/>
</g>
<!-- Node8 -->
<g id="node8" class="node">
<title>Node8</title>
<g id="a_node8"><a xlink:href="classsss_1_1WebClient.html#a381f5715b7a2f19a0d4414d278874bae" target="_top" xlink:title="Clear internal buffers.">
<polygon fill="none" stroke="black" points="783.5,-209.5 783.5,-228.5 927.5,-228.5 927.5,-209.5 783.5,-209.5"/>
<text text-anchor="middle" x="855.5" y="-216.5" font-family="Helvetica,sans-Serif" font-size="10.00">sss::WebClient::ClearBuffers</text>
</a>
</g>
</g>
<!-- Node7&#45;&gt;Node8 -->
<g id="edge7" class="edge">
<title>Node7&#45;&gt;Node8</title>
<path fill="none" stroke="midnightblue" d="M717.06,-232.53C734.62,-230.8 754.4,-228.85 773.36,-226.99"/>
<polygon fill="midnightblue" stroke="midnightblue" points="773.88,-230.45 783.49,-225.99 773.2,-223.49 773.88,-230.45"/>
</g>
<!-- Node9 -->
<g id="node9" class="node">
<title>Node9</title>
<g id="a_node9"><a xlink:href="classsss_1_1WebClient.html#a96837f149bb473853a6523d096a25c56" target="_top" xlink:title="Reset read/write functions to default.">
<polygon fill="none" stroke="black" points="768,-247.5 768,-266.5 943,-266.5 943,-247.5 768,-247.5"/>
<text text-anchor="middle" x="855.5" y="-254.5" font-family="Helvetica,sans-Serif" font-size="10.00">sss::WebClient::ResetRWFunctions</text>
</a>
</g>
</g>
<!-- Node7&#45;&gt;Node9 -->
<g id="edge8" class="edge">
<title>Node7&#45;&gt;Node9</title>
<path fill="none" stroke="midnightblue" d="M717.06,-243.47C729.79,-244.72 743.68,-246.09 757.58,-247.46"/>
<polygon fill="midnightblue" stroke="midnightblue" points="757.39,-250.96 767.69,-248.45 758.08,-243.99 757.39,-250.96"/>
</g>
<!-- Node7&#45;&gt;Node12 -->
<g id="edge11" class="edge">
<title>Node7&#45;&gt;Node12</title>
<path fill="none" stroke="midnightblue" d="M690.41,-247.53C703.2,-251.83 718.39,-257.04 732,-262 748.13,-267.88 751.57,-271.03 768,-276 776.65,-278.61 785.88,-281.03 794.98,-283.2"/>
<polygon fill="midnightblue" stroke="midnightblue" points="794.23,-286.62 804.76,-285.45 795.8,-279.8 794.23,-286.62"/>
</g>
<!-- Node7&#45;&gt;Node13 -->
<g id="edge12" class="edge">
<title>Node7&#45;&gt;Node13</title>
<path fill="none" stroke="midnightblue" d="M690.41,-228.47C703.2,-224.17 718.39,-218.96 732,-214 748.13,-208.12 751.57,-204.97 768,-200 776.65,-197.39 785.88,-194.97 794.98,-192.8"/>
<polygon fill="midnightblue" stroke="midnightblue" points="795.8,-196.2 804.76,-190.55 794.23,-189.38 795.8,-196.2"/>
</g>
<!-- Node7&#45;&gt;Node14 -->
<g id="edge13" class="edge">
<title>Node7&#45;&gt;Node14</title>
<path fill="none" stroke="midnightblue" d="M673.57,-247.51C705.86,-272.94 794.47,-342.72 834.46,-374.21"/>
<polygon fill="midnightblue" stroke="midnightblue" points="832.41,-377.06 842.43,-380.5 836.74,-371.56 832.41,-377.06"/>
</g>
<!-- Node7&#45;&gt;Node15 -->
<g id="edge14" class="edge">
<title>Node7&#45;&gt;Node15</title>
<path fill="none" stroke="midnightblue" d="M671.79,-228.43C689.83,-212.2 728.97,-179.34 768,-162 773.72,-159.46 779.8,-157.25 785.99,-155.32"/>
<polygon fill="midnightblue" stroke="midnightblue" points="787.12,-158.64 795.77,-152.53 785.2,-151.91 787.12,-158.64"/>
</g>
<!-- Node10 -->
<g id="node10" class="node">
<title>Node10</title>
<g id="a_node10"><a xlink:href="classsss_1_1WebClient.html#a88dbcc61562e84aa9ebf1eabf887ac28" target="_top" xlink:title=" ">
<polygon fill="none" stroke="black" points="979,-269.5 979,-288.5 1144,-288.5 1144,-269.5 979,-269.5"/>
<text text-anchor="middle" x="1061.5" y="-276.5" font-family="Helvetica,sans-Serif" font-size="10.00">sss::WebClient::SetReadFunction</text>
</a>
</g>
</g>
<!-- Node9&#45;&gt;Node10 -->
<g id="edge9" class="edge">
<title>Node9&#45;&gt;Node10</title>
<path fill="none" stroke="midnightblue" d="M943.01,-266.33C951.52,-267.25 960.18,-268.18 968.73,-269.1"/>
<polygon fill="midnightblue" stroke="midnightblue" points="968.4,-272.59 978.72,-270.18 969.15,-265.63 968.4,-272.59"/>
</g>
<!-- Node11 -->
<g id="node11" class="node">
<title>Node11</title>
<g id="a_node11"><a xlink:href="classsss_1_1WebClient.html#a002876073b3869a9b9a9d709d14f1d7e" target="_top" xlink:title=" ">
<polygon fill="none" stroke="black" points="998,-220 998,-250 1125,-250 1125,-220 998,-220"/>
<text text-anchor="start" x="1006" y="-238" font-family="Helvetica,sans-Serif" font-size="10.00">sss::WebClient::SetWrite</text>
<text text-anchor="middle" x="1061.5" y="-227" font-family="Helvetica,sans-Serif" font-size="10.00">Function</text>
</a>
</g>
</g>
<!-- Node9&#45;&gt;Node11 -->
<g id="edge10" class="edge">
<title>Node9&#45;&gt;Node11</title>
<path fill="none" stroke="midnightblue" d="M943.01,-247.67C957.87,-246.07 973.17,-244.42 987.63,-242.86"/>
<polygon fill="midnightblue" stroke="midnightblue" points="988.41,-246.29 997.98,-241.74 987.66,-239.33 988.41,-246.29"/>
</g>
<!-- Node24 -->
<g id="node24" class="node">
<title>Node24</title>
<g id="a_node24"><a xlink:href="group__Internal.html#ga6e3db8d156313abef7e2c966df1a3d7c" target="_top" xlink:title=" ">
<polygon fill="none" stroke="black" points="618.5,-462.5 618.5,-481.5 702.5,-481.5 702.5,-462.5 618.5,-462.5"/>
<text text-anchor="middle" x="660.5" y="-469.5" font-family="Helvetica,sans-Serif" font-size="10.00">sss::UrlEncode</text>
</a>
</g>
</g>
<!-- Node23&#45;&gt;Node24 -->
<g id="edge27" class="edge">
<title>Node23&#45;&gt;Node24</title>
<path fill="none" stroke="midnightblue" d="M544.51,-472C565.88,-472 588.59,-472 608.13,-472"/>
<polygon fill="midnightblue" stroke="midnightblue" points="608.33,-475.5 618.33,-472 608.33,-468.5 608.33,-475.5"/>
</g>
<!-- Node25&#45;&gt;Node19 -->
<g id="edge30" class="edge">
<title>Node25&#45;&gt;Node19</title>
<path fill="none" stroke="midnightblue" d="M518.97,-108.85C530.45,-104.67 542.38,-99.69 553,-94 570.63,-84.56 571.02,-75.76 589,-67 593.84,-64.64 599.02,-62.54 604.29,-60.68"/>
<polygon fill="midnightblue" stroke="midnightblue" points="605.39,-64 613.82,-57.58 603.23,-57.34 605.39,-64"/>
</g>
<!-- Node25&#45;&gt;Node22 -->
<g id="edge29" class="edge">
<title>Node25&#45;&gt;Node22</title>
<path fill="none" stroke="midnightblue" d="M528.58,-108.84C537.35,-104.93 545.83,-100.06 553,-94 578.21,-72.67 563,-49.35 589,-29 591.34,-27.17 593.84,-25.51 596.46,-24.02"/>
<polygon fill="midnightblue" stroke="midnightblue" points="598.25,-27.04 605.71,-19.52 595.19,-20.74 598.25,-27.04"/>
</g>
</g>
</svg>
        <g id="navigator" transform="translate(0 0)" fill="#404254">
                <rect fill="#f2f5e9" fill-opacity="0.5" stroke="#606060" stroke-width=".5" x="0" y="0" width="60" height="60"/>
                <use id="zoomplus" xlink:href="#zoomPlus" x="17" y="9" onmousedown="handleZoom(evt,'in')"/>
                <use id="zoomminus" xlink:href="#zoomMin" x="42" y="9" onmousedown="handleZoom(evt,'out')"/>
                <use id="reset" xlink:href="#resetDef" x="30" y="36" onmousedown="handleReset()"/>
                <g id="arrowUp" xlink:href="#dirArrow" transform="translate(30 24)" onmousedown="handlePan(0,-1)">
                  <use xlink:href="#rim" fill="#404040">
                        <set attributeName="fill" to="#808080" begin="arrowUp.mouseover" end="arrowUp.mouseout"/>
                  </use>
                  <path fill="none" stroke="white" stroke-width="1.5" d="M0,-3.0v7 M-2.5,-0.5L0,-3.0L2.5,-0.5"/>
                </g>
                <g id="arrowRight" xlink:href="#dirArrow" transform="rotate(90) translate(36 -43)" onmousedown="handlePan(1,0)">
                  <use xlink:href="#rim" fill="#404040">
                        <set attributeName="fill" to="#808080" begin="arrowRight.mouseover" end="arrowRight.mouseout"/>
                  </use>
                  <path fill="none" stroke="white" stroke-width="1.5" d="M0,-3.0v7 M-2.5,-0.5L0,-3.0L2.5,-0.5"/>
                </g>
                <g id="arrowDown" xlink:href="#dirArrow" transform="rotate(180) translate(-30 -48)" onmousedown="handlePan(0,1)">
                  <use xlink:href="#rim" fill="#404040">
                        <set attributeName="fill" to="#808080" begin="arrowDown.mouseover" end="arrowDown.mouseout"/>
                  </use>
                  <path fill="none" stroke="white" stroke-width="1.5" d="M0,-3.0v7 M-2.5,-0.5L0,-3.0L2.5,-0.5"/>
                </g>
                <g id="arrowLeft" xlink:href="#dirArrow" transform="rotate(270) translate(-36 17)" onmousedown="handlePan(-1,0)">
                  <use xlink:href="#rim" fill="#404040">
                        <set attributeName="fill" to="#808080" begin="arrowLeft.mouseover" end="arrowLeft.mouseout"/>
                  </use>
                  <path fill="none" stroke="white" stroke-width="1.5" d="M0,-3.0v7 M-2.5,-0.5L0,-3.0L2.5,-0.5"/>
                </g>
        </g>
        <svg viewBox="0 0 15 15" width="100%" height="30px" preserveAspectRatio="xMaxYMin meet">
         <g id="arrow_out" transform="scale(0.3 0.3)">
          <a xlink:href="classsss_1_1api_1_1S3Api_a3f00f611cd210a58ac6e8c0555984433_cgraph_org.svg" target="_base">
           <rect id="button" ry="5" rx="5" y="6" x="6" height="38" width="38"
                fill="#f2f5e9" fill-opacity="0.5" stroke="#606060" stroke-width="1.0"/>
           <path id="arrow"
             d="M 11.500037,31.436501 C 11.940474,20.09759 22.043105,11.32322 32.158766,21.979434 L 37.068811,17.246167 C 37.068811,17.246167 37.088388,32 37.088388,32 L 22.160133,31.978069 C 22.160133,31.978069 26.997745,27.140456 26.997745,27.140456 C 18.528582,18.264221 13.291696,25.230495 11.500037,31.436501 z"
             style="fill:#404040;"/>
          </a>
         </g>
        </svg>
</svg>
