<?xml version="1.0" encoding="UTF-8" standalone="no"?>
<!DOCTYPE svg PUBLIC "-//W3C//DTD SVG 1.1//EN"
 "http://www.w3.org/Graphics/SVG/1.1/DTD/svg11.dtd">
<!-- Generated by graphviz version 8.0.5 (20230430.1635)
 -->
<!-- Title: sss::api::S3Api::TestObject Pages: 1 -->
<svg width="1247pt" height="600pt"
 viewBox="0.00 0.00 1247.25 599.83" xmlns="http://www.w3.org/2000/svg" xmlns:xlink="http://www.w3.org/1999/xlink">
<g id="graph0" class="graph" transform="scale(1 1) rotate(0) translate(4 595.83)">
<title>sss::api::S3Api::TestObject</title>
<!-- Node1 -->
<g id="node1" class="node">
<title>Node1</title>
<g id="a_node1"><a xlink:title=" ">
<polygon fill="#999999" stroke="#666666" points="136,-179.25 0,-179.25 0,-160 136,-160 136,-179.25"/>
<text text-anchor="middle" x="68" y="-165.75" font-family="Helvetica,sans-Serif" font-size="10.00">sss::api::S3Api::TestObject</text>
</a>
</g>
</g>
<!-- Node2 -->
<g id="node2" class="node">
<title>Node2</title>
<g id="a_node2"><a xlink:href="classsss_1_1api_1_1S3Api.html#abc84a71b9a88b81afaa353ad17a91d22" target="_top" xlink:title=" ">
<polygon fill="white" stroke="#666666" points="312.5,-179.25 172,-179.25 172,-160 312.5,-160 312.5,-179.25"/>
<text text-anchor="middle" x="242.25" y="-165.75" font-family="Helvetica,sans-Serif" font-size="10.00">sss::api::S3Api::HeadObject</text>
</a>
</g>
</g>
<!-- Node1&#45;&gt;Node2 -->
<g id="edge1" class="edge">
<title>Node1&#45;&gt;Node2</title>
<path fill="none" stroke="#63b8ff" d="M136.09,-169.62C144.17,-169.62 152.48,-169.62 160.73,-169.62"/>
<polygon fill="#63b8ff" stroke="#63b8ff" points="160.5,-173.13 170.5,-169.62 160.5,-166.13 160.5,-173.13"/>
</g>
<!-- Node3 -->
<g id="node3" class="node">
<title>Node3</title>
<g id="a_node3"><a xlink:href="group__Parsing.html#gaca9233a3e8a097605d9168bf860e93e5" target="_top" xlink:title=" ">
<polygon fill="white" stroke="#666666" points="454.5,-198.25 353.75,-198.25 353.75,-179 454.5,-179 454.5,-198.25"/>
<text text-anchor="middle" x="404.12" y="-184.75" font-family="Helvetica,sans-Serif" font-size="10.00">sss::HTTPHeaders</text>
</a>
</g>
</g>
<!-- Node2&#45;&gt;Node3 -->
<g id="edge2" class="edge">
<title>Node2&#45;&gt;Node3</title>
<path fill="none" stroke="#63b8ff" d="M312.91,-177.9C322.81,-179.08 332.93,-180.28 342.64,-181.44"/>
<polygon fill="#63b8ff" stroke="#63b8ff" points="342.06,-185.01 352.4,-182.72 342.88,-178.06 342.06,-185.01"/>
</g>
<!-- Node4 -->
<g id="node4" class="node">
<title>Node4</title>
<g id="a_node4"><a xlink:href="classsss_1_1api_1_1S3Api.html#ad09581bf28c4bbbcbb71b329959ec1ae" target="_top" xlink:title=" ">
<polygon fill="white" stroke="#666666" points="459.75,-161.25 348.5,-161.25 348.5,-142 459.75,-142 459.75,-161.25"/>
<text text-anchor="middle" x="404.12" y="-147.75" font-family="Helvetica,sans-Serif" font-size="10.00">sss::api::S3Api::Send</text>
</a>
</g>
</g>
<!-- Node2&#45;&gt;Node4 -->
<g id="edge3" class="edge">
<title>Node2&#45;&gt;Node4</title>
<path fill="none" stroke="#63b8ff" d="M312.91,-161.78C321.01,-160.87 329.25,-159.94 337.3,-159.04"/>
<polygon fill="#63b8ff" stroke="#63b8ff" points="337.57,-162.42 347.11,-157.82 336.78,-155.46 337.57,-162.42"/>
</g>
<!-- Node5 -->
<g id="node5" class="node">
<title>Node5</title>
<g id="a_node5"><a xlink:href="classsss_1_1api_1_1S3Api.html#a840772746fbb0a79c161037da7b24a31" target="_top" xlink:title="[WebClient::Config]">
<polygon fill="white" stroke="#666666" points="631.75,-365.25 514.5,-365.25 514.5,-346 631.75,-346 631.75,-365.25"/>
<text text-anchor="middle" x="573.12" y="-351.75" font-family="Helvetica,sans-Serif" font-size="10.00">sss::api::S3Api::Config</text>
</a>
</g>
</g>
<!-- Node4&#45;&gt;Node5 -->
<g id="edge4" class="edge">
<title>Node4&#45;&gt;Node5</title>
<path fill="none" stroke="#63b8ff" d="M447.18,-161.71C451.7,-163.86 456.01,-166.47 459.75,-169.62 485.88,-191.68 478.44,-208.13 495.75,-237.62 516.73,-273.38 543.49,-313.63 559.13,-336.68"/>
<polygon fill="#63b8ff" stroke="#63b8ff" points="556.76,-338.42 565.28,-344.71 562.54,-334.47 556.76,-338.42"/>
</g>
<!-- Node14 -->
<g id="node14" class="node">
<title>Node14</title>
<g id="a_node14"><a xlink:href="classsss_1_1WebClient.html#a51ce0ecf6487b6a43072643fe4f4cb4e" target="_top" xlink:title=" ">
<polygon fill="white" stroke="#666666" points="1024.12,-591.25 879.12,-591.25 879.12,-572 1024.12,-572 1024.12,-591.25"/>
<text text-anchor="middle" x="951.62" y="-577.75" font-family="Helvetica,sans-Serif" font-size="10.00">sss::WebClient::SetPostData</text>
</a>
</g>
</g>
<!-- Node4&#45;&gt;Node14 -->
<g id="edge41" class="edge">
<title>Node4&#45;&gt;Node14</title>
<path fill="none" stroke="#63b8ff" d="M450.07,-161.68C453.69,-163.84 457.01,-166.45 459.75,-169.62 520.27,-239.59 452.98,-292.6 495.75,-374.62 551.07,-480.73 577.43,-515.41 686.5,-564.62 743.22,-590.22 813.84,-593.49 867.78,-590.9"/>
<polygon fill="#63b8ff" stroke="#63b8ff" points="867.9,-594.34 877.69,-590.28 867.5,-587.35 867.9,-594.34"/>
</g>
<!-- Node29 -->
<g id="node29" class="node">
<title>Node29</title>
<g id="a_node29"><a xlink:href="lib_2include_2utility_8h.html#ab314781bb3f053ef5325b50f3a1b74f8" target="_top" xlink:title=" ">
<polygon fill="white" stroke="#666666" points="1194.25,-140.25 1119.75,-140.25 1119.75,-121 1194.25,-121 1194.25,-140.25"/>
<text text-anchor="middle" x="1157" y="-126.75" font-family="Helvetica,sans-Serif" font-size="10.00">sss::ToLower</text>
</a>
</g>
</g>
<!-- Node4&#45;&gt;Node29 -->
<g id="edge44" class="edge">
<title>Node4&#45;&gt;Node29</title>
<path fill="none" stroke="#63b8ff" d="M460.03,-150.09C601.29,-146.14 975.48,-135.67 1108.36,-131.96"/>
<polygon fill="#63b8ff" stroke="#63b8ff" points="1108.45,-135.43 1118.35,-131.65 1108.26,-128.43 1108.45,-135.43"/>
</g>
<!-- Node31 -->
<g id="node31" class="node">
<title>Node31</title>
<g id="a_node31"><a xlink:href="group__ErrorHandling.html#ga781648957bfce0bbc86cbdbff94e28a6" target="_top" xlink:title=" ">
<polygon fill="white" stroke="#666666" points="617.88,-56.25 528.38,-56.25 528.38,-37 617.88,-37 617.88,-56.25"/>
<text text-anchor="middle" x="573.12" y="-42.75" font-family="Helvetica,sans-Serif" font-size="10.00">sss::HandleError</text>
</a>
</g>
</g>
<!-- Node4&#45;&gt;Node31 -->
<g id="edge38" class="edge">
<title>Node4&#45;&gt;Node31</title>
<path fill="none" stroke="#63b8ff" d="M412.66,-141.66C426.86,-123.61 459.42,-85.54 495.75,-65.62 502.59,-61.88 510.17,-58.86 517.83,-56.42"/>
<polygon fill="#63b8ff" stroke="#63b8ff" points="518.59,-59.56 527.25,-53.46 516.68,-52.83 518.59,-59.56"/>
</g>
<!-- Node32 -->
<g id="node32" class="node">
<title>Node32</title>
<g id="a_node32"><a xlink:href="group__Internal.html#ga2b8b08c2a4994a87377d83ccfa9a6a53" target="_top" xlink:title=" ">
<polygon fill="white" stroke="#666666" points="621.62,-19.25 524.62,-19.25 524.62,0 621.62,0 621.62,-19.25"/>
<text text-anchor="middle" x="573.12" y="-5.75" font-family="Helvetica,sans-Serif" font-size="10.00">sss::ParseParams</text>
</a>
</g>
</g>
<!-- Node4&#45;&gt;Node32 -->
<g id="edge39" class="edge">
<title>Node4&#45;&gt;Node32</title>
<path fill="none" stroke="#63b8ff" d="M409.37,-141.73C420.09,-117.98 450.64,-57.54 495.75,-27.62 501.34,-23.92 507.6,-20.97 514.07,-18.63"/>
<polygon fill="#63b8ff" stroke="#63b8ff" points="514.84,-21.75 523.34,-15.43 512.76,-15.06 514.84,-21.75"/>
</g>
<!-- Node33 -->
<g id="node33" class="node">
<title>Node33</title>
<g id="a_node33"><a xlink:href="classsss_1_1WebClient.html#aa1d7484f0e09242ce53b24f9648ce50e" target="_top" xlink:title=" ">
<polygon fill="white" stroke="#666666" points="813.12,-180.25 701.88,-180.25 701.88,-161 813.12,-161 813.12,-180.25"/>
<text text-anchor="middle" x="757.5" y="-166.75" font-family="Helvetica,sans-Serif" font-size="10.00">sss::WebClient::Send</text>
</a>
</g>
</g>
<!-- Node4&#45;&gt;Node33 -->
<g id="edge40" class="edge">
<title>Node4&#45;&gt;Node33</title>
<path fill="none" stroke="#63b8ff" d="M460.03,-154.59C522.37,-157.97 624.06,-163.46 690.63,-167.06"/>
<polygon fill="#63b8ff" stroke="#63b8ff" points="690.23,-170.6 700.4,-167.65 690.61,-163.61 690.23,-170.6"/>
</g>
<!-- Node34 -->
<g id="node34" class="node">
<title>Node34</title>
<g id="a_node34"><a xlink:href="classsss_1_1WebClient.html#a7dfd984b33a29686fb0355b65b620e99" target="_top" xlink:title=" ">
<polygon fill="white" stroke="#666666" points="650.5,-104.88 495.75,-104.88 495.75,-74.38 650.5,-74.38 650.5,-104.88"/>
<text text-anchor="start" x="503.75" y="-91.38" font-family="Helvetica,sans-Serif" font-size="10.00">sss::WebClient::SetUrlEncoded</text>
<text text-anchor="middle" x="573.12" y="-80.12" font-family="Helvetica,sans-Serif" font-size="10.00">PostData</text>
</a>
</g>
</g>
<!-- Node4&#45;&gt;Node34 -->
<g id="edge42" class="edge">
<title>Node4&#45;&gt;Node34</title>
<path fill="none" stroke="#63b8ff" d="M432.33,-141.53C455.97,-132.75 490.89,-119.78 519.92,-109.01"/>
<polygon fill="#63b8ff" stroke="#63b8ff" points="520.75,-112.06 528.91,-105.3 518.32,-105.5 520.75,-112.06"/>
</g>
<!-- Node35 -->
<g id="node35" class="node">
<title>Node35</title>
<g id="a_node35"><a xlink:href="classsss_1_1WebClient.html#ae7b1f77bd4ae44585f2d49ea493bdcc5" target="_top" xlink:title="Upload data from memory buffer.">
<polygon fill="white" stroke="#666666" points="643.38,-228.88 502.88,-228.88 502.88,-198.38 643.38,-198.38 643.38,-228.88"/>
<text text-anchor="start" x="510.88" y="-215.38" font-family="Helvetica,sans-Serif" font-size="10.00">sss::WebClient::UploadData</text>
<text text-anchor="middle" x="573.12" y="-204.12" font-family="Helvetica,sans-Serif" font-size="10.00">FromBuffer</text>
</a>
</g>
</g>
<!-- Node4&#45;&gt;Node35 -->
<g id="edge45" class="edge">
<title>Node4&#45;&gt;Node35</title>
<path fill="none" stroke="#63b8ff" d="M437.04,-161.69C444.53,-164.17 452.45,-166.91 459.75,-169.62 475.99,-175.68 479.65,-178.21 495.75,-184.62 503.53,-187.72 511.79,-190.94 519.89,-194.04"/>
<polygon fill="#63b8ff" stroke="#63b8ff" points="518.42,-197.61 529.01,-197.91 520.92,-191.07 518.42,-197.61"/>
</g>
<!-- Node6 -->
<g id="node6" class="node">
<title>Node6</title>
<g id="a_node6"><a xlink:href="classsss_1_1api_1_1S3Api.html#aea9741d60e74775ccd4de1c2c58f64fa" target="_top" xlink:title=" ">
<polygon fill="white" stroke="#666666" points="818.38,-555.25 696.62,-555.25 696.62,-536 818.38,-536 818.38,-555.25"/>
<text text-anchor="middle" x="757.5" y="-541.75" font-family="Helvetica,sans-Serif" font-size="10.00">sss::api::S3Api::Access</text>
</a>
</g>
</g>
<!-- Node5&#45;&gt;Node6 -->
<g id="edge5" class="edge">
<title>Node5&#45;&gt;Node6</title>
<path fill="none" stroke="#63b8ff" d="M578.08,-365.48C590.02,-393.96 628.45,-477.22 686.5,-521.62 691.47,-525.43 697.08,-528.65 702.91,-531.38"/>
<polygon fill="#63b8ff" stroke="#63b8ff" points="701.27,-534.9 711.85,-535.51 703.96,-528.44 701.27,-534.9"/>
</g>
<!-- Node7 -->
<g id="node7" class="node">
<title>Node7</title>
<g id="a_node7"><a xlink:href="classsss_1_1api_1_1S3Api.html#a3718745d3b940462ae9f3b78f773b3a6" target="_top" xlink:title="Clear data and reset read and write functions.">
<polygon fill="white" stroke="#666666" points="813.5,-479.25 701.5,-479.25 701.5,-460 813.5,-460 813.5,-479.25"/>
<text text-anchor="middle" x="757.5" y="-465.75" font-family="Helvetica,sans-Serif" font-size="10.00">sss::api::S3Api::Clear</text>
</a>
</g>
</g>
<!-- Node5&#45;&gt;Node7 -->
<g id="edge6" class="edge">
<title>Node5&#45;&gt;Node7</title>
<path fill="none" stroke="#63b8ff" d="M584.09,-365.64C602.7,-383.84 644.67,-422.62 686.5,-445.62 693.62,-449.54 701.5,-452.99 709.33,-455.96"/>
<polygon fill="#63b8ff" stroke="#63b8ff" points="707.92,-459.53 718.51,-459.59 710.27,-452.94 707.92,-459.53"/>
</g>
<!-- Node12 -->
<g id="node12" class="node">
<title>Node12</title>
<g id="a_node12"><a xlink:href="classsss_1_1WebClient.html#a75890c14fbe4a4bbac61718a4f3c064d" target="_top" xlink:title=" ">
<polygon fill="white" stroke="#666666" points="1021.88,-552.25 881.38,-552.25 881.38,-533 1021.88,-533 1021.88,-552.25"/>
<text text-anchor="middle" x="951.62" y="-538.75" font-family="Helvetica,sans-Serif" font-size="10.00">sss::WebClient::SetHeaders</text>
</a>
</g>
</g>
<!-- Node5&#45;&gt;Node12 -->
<g id="edge18" class="edge">
<title>Node5&#45;&gt;Node12</title>
<path fill="none" stroke="#63b8ff" d="M579.38,-365.59C593.2,-390.74 633.2,-457.01 686.5,-488.62 717.05,-506.75 804.24,-522.37 870.16,-532.08"/>
<polygon fill="#63b8ff" stroke="#63b8ff" points="869.55,-535.67 879.95,-533.64 870.56,-528.74 869.55,-535.67"/>
</g>
<!-- Node13 -->
<g id="node13" class="node">
<title>Node13</title>
<g id="a_node13"><a xlink:href="classsss_1_1WebClient.html#a12b5db6b8c667024557ab58059d39994" target="_top" xlink:title=" ">
<polygon fill="white" stroke="#666666" points="1013.62,-441.25 889.62,-441.25 889.62,-422 1013.62,-422 1013.62,-441.25"/>
<text text-anchor="middle" x="951.62" y="-427.75" font-family="Helvetica,sans-Serif" font-size="10.00">sss::WebClient::SetPath</text>
</a>
</g>
</g>
<!-- Node5&#45;&gt;Node13 -->
<g id="edge22" class="edge">
<title>Node5&#45;&gt;Node13</title>
<path fill="none" stroke="#63b8ff" d="M598.7,-365.71C621.2,-374.57 655.58,-387.17 686.5,-394.62 750.51,-410.06 824.9,-419.76 878.4,-425.34"/>
<polygon fill="#63b8ff" stroke="#63b8ff" points="877.84,-428.9 888.15,-426.44 878.55,-421.94 877.84,-428.9"/>
</g>
<!-- Node15 -->
<g id="node15" class="node">
<title>Node15</title>
<g id="a_node15"><a xlink:href="classsss_1_1WebClient.html#a9bf978d95b79728f6d60fc2bdb4fe546" target="_top" xlink:title=" ">
<polygon fill="white" stroke="#666666" points="1037.62,-404.25 865.62,-404.25 865.62,-385 1037.62,-385 1037.62,-404.25"/>
<text text-anchor="middle" x="951.62" y="-390.75" font-family="Helvetica,sans-Serif" font-size="10.00">sss::WebClient::SetReqParameters</text>
</a>
</g>
</g>
<!-- Node5&#45;&gt;Node15 -->
<g id="edge23" class="edge">
<title>Node5&#45;&gt;Node15</title>
<path fill="none" stroke="#63b8ff" d="M627.71,-365.72C646.27,-368.94 667.25,-372.27 686.5,-374.62 742,-381.4 804.35,-386.25 854.54,-389.48"/>
<polygon fill="#63b8ff" stroke="#63b8ff" points="854.18,-393.03 864.38,-390.16 854.62,-386.04 854.18,-393.03"/>
</g>
<!-- Node16 -->
<g id="node16" class="node">
<title>Node16</title>
<g id="a_node16"><a xlink:href="classsss_1_1api_1_1S3Api.html#a25a999d87c121627166fc0a896f536c7" target="_top" xlink:title=" ">
<polygon fill="white" stroke="#666666" points="821,-328.25 694,-328.25 694,-309 821,-309 821,-328.25"/>
<text text-anchor="middle" x="757.5" y="-314.75" font-family="Helvetica,sans-Serif" font-size="10.00">sss::api::S3Api::Endpoint</text>
</a>
</g>
</g>
<!-- Node5&#45;&gt;Node16 -->
<g id="edge15" class="edge">
<title>Node5&#45;&gt;Node16</title>
<path fill="none" stroke="#63b8ff" d="M623.96,-345.51C646.28,-340.99 672.78,-335.61 696.21,-330.86"/>
<polygon fill="#63b8ff" stroke="#63b8ff" points="696.62,-334.14 705.73,-328.72 695.23,-327.28 696.62,-334.14"/>
</g>
<!-- Node17 -->
<g id="node17" class="node">
<title>Node17</title>
<g id="a_node17"><a xlink:href="classsss_1_1api_1_1S3Api.html#a6f518c16679e99f119966b36ac28463f" target="_top" xlink:title=" ">
<polygon fill="white" stroke="#666666" points="816.12,-291.25 698.88,-291.25 698.88,-272 816.12,-272 816.12,-291.25"/>
<text text-anchor="middle" x="757.5" y="-277.75" font-family="Helvetica,sans-Serif" font-size="10.00">sss::api::S3Api::Secret</text>
</a>
</g>
</g>
<!-- Node5&#45;&gt;Node17 -->
<g id="edge16" class="edge">
<title>Node5&#45;&gt;Node17</title>
<path fill="none" stroke="#63b8ff" d="M591.51,-345.51C613.17,-333.26 651.58,-312.65 686.5,-299.62 691.25,-297.85 696.24,-296.19 701.28,-294.65"/>
<polygon fill="#63b8ff" stroke="#63b8ff" points="701.99,-297.8 710.63,-291.67 700.05,-291.08 701.99,-297.8"/>
</g>
<!-- Node18 -->
<g id="node18" class="node">
<title>Node18</title>
<g id="a_node18"><a xlink:href="classsss_1_1WebClient.html#afc3b7a92568fbb1ea447918920ca266e" target="_top" xlink:title="Set endpoint: &#160;&lt;proto&gt;://&lt;server&gt;:&lt;port&gt;">
<polygon fill="white" stroke="#666666" points="828.5,-254.25 686.5,-254.25 686.5,-235 828.5,-235 828.5,-254.25"/>
<text text-anchor="middle" x="757.5" y="-240.75" font-family="Helvetica,sans-Serif" font-size="10.00">sss::WebClient::SetEndpoint</text>
</a>
</g>
</g>
<!-- Node5&#45;&gt;Node18 -->
<g id="edge17" class="edge">
<title>Node5&#45;&gt;Node18</title>
<path fill="none" stroke="#63b8ff" d="M583.28,-345.53C601.2,-326.41 642.96,-284.83 686.5,-262.62 689.57,-261.06 692.8,-259.62 696.1,-258.3"/>
<polygon fill="#63b8ff" stroke="#63b8ff" points="696.94,-261.36 705.18,-254.69 694.58,-254.77 696.94,-261.36"/>
</g>
<!-- Node19 -->
<g id="node19" class="node">
<title>Node19</title>
<g id="a_node19"><a xlink:href="classsss_1_1WebClient.html#af6233ffd7b294e1e7e606e838dd44e9e" target="_top" xlink:title=" ">
<polygon fill="white" stroke="#666666" points="825.5,-217.25 689.5,-217.25 689.5,-198 825.5,-198 825.5,-217.25"/>
<text text-anchor="middle" x="757.5" y="-203.75" font-family="Helvetica,sans-Serif" font-size="10.00">sss::WebClient::SetMethod</text>
</a>
</g>
</g>
<!-- Node5&#45;&gt;Node19 -->
<g id="edge19" class="edge">
<title>Node5&#45;&gt;Node19</title>
<path fill="none" stroke="#63b8ff" d="M579.75,-345.68C594.13,-321.2 634.77,-257.69 686.5,-225.62 688.66,-224.29 690.92,-223.05 693.24,-221.9"/>
<polygon fill="#63b8ff" stroke="#63b8ff" points="694.28,-224.83 702.1,-217.68 691.53,-218.4 694.28,-224.83"/>
</g>
<!-- Node21 -->
<g id="node21" class="node">
<title>Node21</title>
<g id="a_node21"><a xlink:href="group__Sign.html#ga3ae8e18ef70752b7369fca66c40c526b" target="_top" xlink:title="Sign headers.">
<polygon fill="white" stroke="#666666" points="804.5,-365.25 710.5,-365.25 710.5,-346 804.5,-346 804.5,-365.25"/>
<text text-anchor="middle" x="757.5" y="-351.75" font-family="Helvetica,sans-Serif" font-size="10.00">sss::SignHeaders</text>
</a>
</g>
</g>
<!-- Node5&#45;&gt;Node21 -->
<g id="edge24" class="edge">
<title>Node5&#45;&gt;Node21</title>
<path fill="none" stroke="#63b8ff" d="M632.08,-355.62C653.57,-355.62 677.92,-355.62 699.34,-355.62"/>
<polygon fill="#63b8ff" stroke="#63b8ff" points="699.25,-359.13 709.25,-355.62 699.25,-352.13 699.25,-359.13"/>
</g>
<!-- Node8 -->
<g id="node8" class="node">
<title>Node8</title>
<g id="a_node8"><a xlink:href="classsss_1_1WebClient.html#a381f5715b7a2f19a0d4414d278874bae" target="_top" xlink:title="Clear internal buffers.">
<polygon fill="white" stroke="#666666" points="1023.38,-515.25 879.88,-515.25 879.88,-496 1023.38,-496 1023.38,-515.25"/>
<text text-anchor="middle" x="951.62" y="-501.75" font-family="Helvetica,sans-Serif" font-size="10.00">sss::WebClient::ClearBuffers</text>
</a>
</g>
</g>
<!-- Node7&#45;&gt;Node8 -->
<g id="edge7" class="edge">
<title>Node7&#45;&gt;Node8</title>
<path fill="none" stroke="#63b8ff" d="M812.53,-479.75C835.34,-484.02 862.09,-489.04 885.94,-493.5"/>
<polygon fill="#63b8ff" stroke="#63b8ff" points="885.2,-497.11 895.67,-495.51 886.48,-490.23 885.2,-497.11"/>
</g>
<!-- Node9 -->
<g id="node9" class="node">
<title>Node9</title>
<g id="a_node9"><a xlink:href="classsss_1_1WebClient.html#a96837f149bb473853a6523d096a25c56" target="_top" xlink:title="Reset read/write functions to default.">
<polygon fill="white" stroke="#666666" points="1038.75,-478.25 864.5,-478.25 864.5,-459 1038.75,-459 1038.75,-478.25"/>
<text text-anchor="middle" x="951.62" y="-464.75" font-family="Helvetica,sans-Serif" font-size="10.00">sss::WebClient::ResetRWFunctions</text>
</a>
</g>
</g>
<!-- Node7&#45;&gt;Node9 -->
<g id="edge8" class="edge">
<title>Node7&#45;&gt;Node9</title>
<path fill="none" stroke="#63b8ff" d="M813.81,-469.34C826.23,-469.27 839.77,-469.2 853.34,-469.13"/>
<polygon fill="#63b8ff" stroke="#63b8ff" points="853.23,-472.63 863.21,-469.07 853.19,-465.63 853.23,-472.63"/>
</g>
<!-- Node7&#45;&gt;Node12 -->
<g id="edge11" class="edge">
<title>Node7&#45;&gt;Node12</title>
<path fill="none" stroke="#63b8ff" d="M796.34,-479.68C807.1,-483.3 818.58,-487.94 828.5,-493.62 846.82,-504.13 845.57,-515.28 864.5,-524.62 867.82,-526.26 871.28,-527.75 874.83,-529.11"/>
<polygon fill="#63b8ff" stroke="#63b8ff" points="873.42,-532.66 884.02,-532.58 875.68,-526.04 873.42,-532.66"/>
</g>
<!-- Node7&#45;&gt;Node13 -->
<g id="edge12" class="edge">
<title>Node7&#45;&gt;Node13</title>
<path fill="none" stroke="#63b8ff" d="M809.48,-459.54C833.9,-454.71 863.34,-448.89 889,-443.81"/>
<polygon fill="#63b8ff" stroke="#63b8ff" points="889.61,-447.06 898.74,-441.69 888.25,-440.2 889.61,-447.06"/>
</g>
<!-- Node7&#45;&gt;Node14 -->
<g id="edge13" class="edge">
<title>Node7&#45;&gt;Node14</title>
<path fill="none" stroke="#63b8ff" d="M771.43,-479.59C785.69,-490.72 809.18,-509.43 828.5,-526.62 845.17,-541.46 844.91,-550.93 864.5,-561.62 868.98,-564.07 873.75,-566.22 878.66,-568.1"/>
<polygon fill="#63b8ff" stroke="#63b8ff" points="877.28,-571.68 887.88,-571.62 879.56,-565.06 877.28,-571.68"/>
</g>
<!-- Node7&#45;&gt;Node15 -->
<g id="edge14" class="edge">
<title>Node7&#45;&gt;Node15</title>
<path fill="none" stroke="#63b8ff" d="M773.65,-459.66C793.65,-446.94 830.34,-425.08 864.5,-412.62 869.66,-410.74 875.07,-409.04 880.56,-407.49"/>
<polygon fill="#63b8ff" stroke="#63b8ff" points="881.37,-410.63 890.16,-404.71 879.6,-403.86 881.37,-410.63"/>
</g>
<!-- Node10 -->
<g id="node10" class="node">
<title>Node10</title>
<g id="a_node10"><a xlink:href="classsss_1_1WebClient.html#a88dbcc61562e84aa9ebf1eabf887ac28" target="_top" xlink:title=" ">
<polygon fill="white" stroke="#666666" points="1239.25,-521.25 1074.75,-521.25 1074.75,-502 1239.25,-502 1239.25,-521.25"/>
<text text-anchor="middle" x="1157" y="-507.75" font-family="Helvetica,sans-Serif" font-size="10.00">sss::WebClient::SetReadFunction</text>
</a>
</g>
</g>
<!-- Node9&#45;&gt;Node10 -->
<g id="edge9" class="edge">
<title>Node9&#45;&gt;Node10</title>
<path fill="none" stroke="#63b8ff" d="M1000.92,-478.68C1013.25,-481.26 1026.49,-484.04 1038.75,-486.62 1058.16,-490.72 1079.37,-495.24 1098.35,-499.29"/>
<polygon fill="#63b8ff" stroke="#63b8ff" points="1097.43,-502.88 1107.94,-501.55 1098.89,-496.03 1097.43,-502.88"/>
</g>
<!-- Node11 -->
<g id="node11" class="node">
<title>Node11</title>
<g id="a_node11"><a xlink:href="classsss_1_1WebClient.html#a002876073b3869a9b9a9d709d14f1d7e" target="_top" xlink:title=" ">
<polygon fill="white" stroke="#666666" points="1220.12,-483.88 1093.88,-483.88 1093.88,-453.38 1220.12,-453.38 1220.12,-483.88"/>
<text text-anchor="start" x="1101.88" y="-470.38" font-family="Helvetica,sans-Serif" font-size="10.00">sss::WebClient::SetWrite</text>
<text text-anchor="middle" x="1157" y="-459.12" font-family="Helvetica,sans-Serif" font-size="10.00">Function</text>
</a>
</g>
</g>
<!-- Node9&#45;&gt;Node11 -->
<g id="edge10" class="edge">
<title>Node9&#45;&gt;Node11</title>
<path fill="none" stroke="#63b8ff" d="M1039.17,-468.62C1053.73,-468.62 1068.71,-468.62 1082.89,-468.62"/>
<polygon fill="#63b8ff" stroke="#63b8ff" points="1082.55,-472.13 1092.55,-468.62 1082.55,-465.13 1082.55,-472.13"/>
</g>
<!-- Node20 -->
<g id="node20" class="node">
<title>Node20</title>
<g id="a_node20"><a xlink:href="lib_2include_2utility_8h.html#ae153c064d6f1beda845702f67605b20e" target="_top" xlink:title=" ">
<polygon fill="white" stroke="#666666" points="1194.25,-195.25 1119.75,-195.25 1119.75,-176 1194.25,-176 1194.25,-195.25"/>
<text text-anchor="middle" x="1157" y="-181.75" font-family="Helvetica,sans-Serif" font-size="10.00">sss::ToUpper</text>
</a>
</g>
</g>
<!-- Node19&#45;&gt;Node20 -->
<g id="edge20" class="edge">
<title>Node19&#45;&gt;Node20</title>
<path fill="none" stroke="#63b8ff" d="M825.93,-203.89C906.25,-199.45 1038.35,-192.14 1108.61,-188.25"/>
<polygon fill="#63b8ff" stroke="#63b8ff" points="1108.54,-191.7 1118.33,-187.65 1108.16,-184.71 1108.54,-191.7"/>
</g>
<!-- Node20&#45;&gt;Node20 -->
<g id="edge21" class="edge">
<title>Node20&#45;&gt;Node20</title>
<path fill="none" stroke="#63b8ff" d="M1124.85,-195.54C1110.18,-204.15 1120.9,-213.25 1157,-213.25 1180.13,-213.25 1192.84,-209.51 1195.13,-204.56"/>
<polygon fill="#63b8ff" stroke="#63b8ff" points="1197.59,-202.94 1189.15,-196.54 1191.76,-206.81 1197.59,-202.94"/>
</g>
<!-- Node22 -->
<g id="node22" class="node">
<title>Node22</title>
<g id="a_node22"><a xlink:href="group__Ranges.html#ga0aa7f3b15d2ebf9b597a1b5ba38ae8ac" target="_top" xlink:title="return iterator at start position">
<polygon fill="white" stroke="#666666" points="1187.5,-435.25 1126.5,-435.25 1126.5,-416 1187.5,-416 1187.5,-435.25"/>
<text text-anchor="middle" x="1157" y="-421.75" font-family="Helvetica,sans-Serif" font-size="10.00">sss::begin</text>
</a>
</g>
</g>
<!-- Node21&#45;&gt;Node22 -->
<g id="edge25" class="edge">
<title>Node21&#45;&gt;Node22</title>
<path fill="none" stroke="#63b8ff" d="M805,-350.08C862.38,-345.19 961.78,-343.18 1038.75,-375.62 1058.48,-383.94 1055.69,-397.89 1074.75,-407.62 1087.34,-414.06 1102.17,-418.2 1115.7,-420.87"/>
<polygon fill="#63b8ff" stroke="#63b8ff" points="1114.74,-424.43 1125.2,-422.7 1115.95,-417.53 1114.74,-424.43"/>
</g>
<!-- Node23 -->
<g id="node23" class="node">
<title>Node23</title>
<g id="a_node23"><a xlink:href="group__Sign.html#ga904d511ec786b87644cc90dc96dd8f3f" target="_top" xlink:title="Compute signature.">
<polygon fill="white" stroke="#666666" points="1011,-288.25 892.25,-288.25 892.25,-269 1011,-269 1011,-288.25"/>
<text text-anchor="middle" x="951.62" y="-274.75" font-family="Helvetica,sans-Serif" font-size="10.00">sss::ComputeSignature</text>
</a>
</g>
</g>
<!-- Node21&#45;&gt;Node23 -->
<g id="edge26" class="edge">
<title>Node21&#45;&gt;Node23</title>
<path fill="none" stroke="#63b8ff" d="M804.91,-347.12C813.04,-344.68 821.22,-341.57 828.5,-337.62 847.58,-327.28 845.64,-315.36 864.5,-304.62 873.36,-299.58 883.31,-295.41 893.21,-292.01"/>
<polygon fill="#63b8ff" stroke="#63b8ff" points="894.01,-295.11 902.47,-288.73 891.88,-288.44 894.01,-295.11"/>
</g>
<!-- Node25 -->
<g id="node25" class="node">
<title>Node25</title>
<g id="a_node25"><a xlink:href="group__Ranges.html#ga4f73053571587e79eb3db628f5e6ef99" target="_top" xlink:title="return iterator at end position">
<polygon fill="white" stroke="#666666" points="1183.75,-398.25 1130.25,-398.25 1130.25,-379 1183.75,-379 1183.75,-398.25"/>
<text text-anchor="middle" x="1157" y="-384.75" font-family="Helvetica,sans-Serif" font-size="10.00">sss::end</text>
</a>
</g>
</g>
<!-- Node21&#45;&gt;Node25 -->
<g id="edge37" class="edge">
<title>Node21&#45;&gt;Node25</title>
<path fill="none" stroke="#63b8ff" d="M795.1,-345.56C849.8,-332.36 955.36,-314.01 1038.75,-342.62 1057.92,-349.2 1056.41,-362 1074.75,-370.62 1088.61,-377.14 1104.92,-381.35 1119.27,-384.04"/>
<polygon fill="#63b8ff" stroke="#63b8ff" points="1118.35,-387.6 1128.8,-385.81 1119.52,-380.7 1118.35,-387.6"/>
</g>
<!-- Node23&#45;&gt;Node20 -->
<g id="edge35" class="edge">
<title>Node23&#45;&gt;Node20</title>
<path fill="none" stroke="#63b8ff" d="M973.75,-268.61C998.05,-257.13 1039.18,-237.8 1074.75,-221.62 1090.61,-214.41 1108.29,-206.56 1123.1,-200.03"/>
<polygon fill="#63b8ff" stroke="#63b8ff" points="1124.09,-202.98 1131.83,-195.75 1121.27,-196.57 1124.09,-202.98"/>
</g>
<!-- Node23&#45;&gt;Node22 -->
<g id="edge27" class="edge">
<title>Node23&#45;&gt;Node22</title>
<path fill="none" stroke="#63b8ff" d="M970.21,-288.57C988.95,-299.83 1018.63,-319.63 1038.75,-342.62 1060.49,-367.48 1048.29,-387.86 1074.75,-407.62 1086.35,-416.29 1101.32,-420.93 1115.24,-423.37"/>
<polygon fill="#63b8ff" stroke="#63b8ff" points="1114.71,-426.97 1125.1,-424.88 1115.68,-420.03 1114.71,-426.97"/>
</g>
<!-- Node24 -->
<g id="node24" class="node">
<title>Node24</title>
<g id="a_node24"><a xlink:href="group__Internal.html#ga74c69f25ce04876e114759c0023b2a12" target="_top" xlink:title=" ">
<polygon fill="white" stroke="#666666" points="1219.75,-287.25 1094.25,-287.25 1094.25,-268 1219.75,-268 1219.75,-287.25"/>
<text text-anchor="middle" x="1157" y="-273.75" font-family="Helvetica,sans-Serif" font-size="10.00">sss::CreateSignatureKey</text>
</a>
</g>
</g>
<!-- Node23&#45;&gt;Node24 -->
<g id="edge28" class="edge">
<title>Node23&#45;&gt;Node24</title>
<path fill="none" stroke="#63b8ff" d="M1011.45,-278.34C1033.73,-278.23 1059.37,-278.1 1082.81,-277.98"/>
<polygon fill="#63b8ff" stroke="#63b8ff" points="1082.78,-281.48 1092.76,-277.93 1082.75,-274.48 1082.78,-281.48"/>
</g>
<!-- Node23&#45;&gt;Node25 -->
<g id="edge29" class="edge">
<title>Node23&#45;&gt;Node25</title>
<path fill="none" stroke="#63b8ff" d="M1008.62,-288.62C1019.39,-292.37 1030.02,-297.53 1038.75,-304.62 1064.68,-325.7 1048.04,-350.54 1074.75,-370.62 1087.48,-380.2 1104.31,-384.86 1119.36,-387.07"/>
<polygon fill="#63b8ff" stroke="#63b8ff" points="1118.57,-390.62 1128.91,-388.28 1119.37,-383.67 1118.57,-390.62"/>
</g>
<!-- Node26 -->
<g id="node26" class="node">
<title>Node26</title>
<g id="a_node26"><a xlink:href="group__Internal.html#ga50353a351a93b1213dc4e5211c767d85" target="_top" xlink:title=" ">
<polygon fill="white" stroke="#666666" points="1196.88,-250.25 1117.12,-250.25 1117.12,-231 1196.88,-231 1196.88,-250.25"/>
<text text-anchor="middle" x="1157" y="-236.75" font-family="Helvetica,sans-Serif" font-size="10.00">sss::GetDates</text>
</a>
</g>
</g>
<!-- Node23&#45;&gt;Node26 -->
<g id="edge30" class="edge">
<title>Node23&#45;&gt;Node26</title>
<path fill="none" stroke="#63b8ff" d="M1006.59,-268.54C1037.51,-262.76 1076.04,-255.57 1106.23,-249.92"/>
<polygon fill="#63b8ff" stroke="#63b8ff" points="1106.76,-253.2 1115.94,-247.92 1105.47,-246.32 1106.76,-253.2"/>
</g>
<!-- Node27 -->
<g id="node27" class="node">
<title>Node27</title>
<g id="a_node27"><a xlink:href="group__Internal.html#ga990dfaae4abc6bf20a28f9772b7bcd16" target="_top" xlink:title="Byte to hex string conversion.">
<polygon fill="white" stroke="#666666" points="1184.88,-361.25 1129.12,-361.25 1129.12,-342 1184.88,-342 1184.88,-361.25"/>
<text text-anchor="middle" x="1157" y="-347.75" font-family="Helvetica,sans-Serif" font-size="10.00">sss::Hex</text>
</a>
</g>
</g>
<!-- Node23&#45;&gt;Node27 -->
<g id="edge31" class="edge">
<title>Node23&#45;&gt;Node27</title>
<path fill="none" stroke="#63b8ff" d="M997.73,-288.71C1011.35,-292.67 1026.04,-297.92 1038.75,-304.62 1056.92,-314.22 1056.23,-324.72 1074.75,-333.62 1088.11,-340.05 1103.81,-344.21 1117.82,-346.9"/>
<polygon fill="#63b8ff" stroke="#63b8ff" points="1117.18,-350.51 1127.63,-348.75 1118.36,-343.61 1117.18,-350.51"/>
</g>
<!-- Node28 -->
<g id="node28" class="node">
<title>Node28</title>
<g id="a_node28"><a xlink:href="group__Internal.html#ga7160aa316f2c6633467b47588263c690" target="_top" xlink:title=" ">
<polygon fill="white" stroke="#666666" points="1198.75,-324.25 1115.25,-324.25 1115.25,-305 1198.75,-305 1198.75,-324.25"/>
<text text-anchor="middle" x="1157" y="-310.75" font-family="Helvetica,sans-Serif" font-size="10.00">sss::ParseURL</text>
</a>
</g>
</g>
<!-- Node23&#45;&gt;Node28 -->
<g id="edge32" class="edge">
<title>Node23&#45;&gt;Node28</title>
<path fill="none" stroke="#63b8ff" d="M1009.82,-288.75C1039.51,-294 1075.5,-300.38 1104.35,-305.48"/>
<polygon fill="#63b8ff" stroke="#63b8ff" points="1103.56,-309.07 1114.02,-307.37 1104.78,-302.18 1103.56,-309.07"/>
</g>
<!-- Node23&#45;&gt;Node29 -->
<g id="edge33" class="edge">
<title>Node23&#45;&gt;Node29</title>
<path fill="none" stroke="#63b8ff" d="M961.25,-268.79C980.1,-247.76 1027.09,-197.82 1074.75,-166.62 1087.94,-157.99 1103.55,-150.51 1117.54,-144.64"/>
<polygon fill="#63b8ff" stroke="#63b8ff" points="1118.43,-147.65 1126.39,-140.66 1115.8,-141.17 1118.43,-147.65"/>
</g>
<!-- Node30 -->
<g id="node30" class="node">
<title>Node30</title>
<g id="a_node30"><a xlink:href="group__Internal.html#ga0f079ace8729714b3949eabe22f228c9" target="_top" xlink:title=" ">
<polygon fill="white" stroke="#666666" points="1198.75,-102.25 1115.25,-102.25 1115.25,-83 1198.75,-83 1198.75,-102.25"/>
<text text-anchor="middle" x="1157" y="-88.75" font-family="Helvetica,sans-Serif" font-size="10.00">sss::UrlEncode</text>
</a>
</g>
</g>
<!-- Node23&#45;&gt;Node30 -->
<g id="edge36" class="edge">
<title>Node23&#45;&gt;Node30</title>
<path fill="none" stroke="#63b8ff" d="M956.76,-268.84C969.57,-239.78 1011.55,-153.45 1074.75,-111.62 1083.54,-105.81 1093.89,-101.77 1104.21,-98.96"/>
<polygon fill="#63b8ff" stroke="#63b8ff" points="1104.95,-102.14 1113.88,-96.45 1103.35,-95.33 1104.95,-102.14"/>
</g>
<!-- Node29&#45;&gt;Node29 -->
<g id="edge34" class="edge">
<title>Node29&#45;&gt;Node29</title>
<path fill="none" stroke="#63b8ff" d="M1124.85,-140.54C1110.18,-149.15 1120.9,-158.25 1157,-158.25 1180.13,-158.25 1192.84,-154.51 1195.13,-149.56"/>
<polygon fill="#63b8ff" stroke="#63b8ff" points="1197.59,-147.94 1189.15,-141.54 1191.76,-151.81 1197.59,-147.94"/>
</g>
<!-- Node34&#45;&gt;Node30 -->
<g id="edge43" class="edge">
<title>Node34&#45;&gt;Node30</title>
<path fill="none" stroke="#63b8ff" d="M650.79,-90.02C771.23,-90.64 1001.61,-91.83 1104.34,-92.36"/>
<polygon fill="#63b8ff" stroke="#63b8ff" points="1104.03,-95.86 1114.05,-92.41 1104.07,-88.86 1104.03,-95.86"/>
</g>
<!-- Node35&#45;&gt;Node19 -->
<g id="edge47" class="edge">
<title>Node35&#45;&gt;Node19</title>
<path fill="none" stroke="#63b8ff" d="M643.85,-211.33C655.13,-210.96 666.87,-210.57 678.34,-210.2"/>
<polygon fill="#63b8ff" stroke="#63b8ff" points="678.34,-213.67 688.22,-209.84 678.11,-206.67 678.34,-213.67"/>
</g>
<!-- Node35&#45;&gt;Node33 -->
<g id="edge46" class="edge">
<title>Node35&#45;&gt;Node33</title>
<path fill="none" stroke="#63b8ff" d="M640.74,-197.92C661.26,-193.08 683.57,-187.82 703.08,-183.22"/>
<polygon fill="#63b8ff" stroke="#63b8ff" points="703.68,-186.44 712.61,-180.74 702.07,-179.63 703.68,-186.44"/>
</g>
</g>
</svg>
