<?xml version="1.0" encoding="UTF-8" standalone="no"?>
<!DOCTYPE svg PUBLIC "-//W3C//DTD SVG 1.1//EN"
 "http://www.w3.org/Graphics/SVG/1.1/DTD/svg11.dtd">
<!-- Generated by graphviz version 2.43.0 (0)
 -->
<!-- Title: sss::api::S3Api::GetBucketVersioning Pages: 1 -->
<!--zoomable 534 -->
<svg id="main" version="1.1" xmlns="http://www.w3.org/2000/svg" xmlns:xlink="http://www.w3.org/1999/xlink" xml:space="preserve" onload="init(evt)">
<style type="text/css"><![CDATA[
.edge:hover path { stroke: red; }
.edge:hover polygon { stroke: red; fill: red; }
]]></style>
<script type="text/javascript"><![CDATA[
var edges = document.getElementsByTagName('g');
if (edges && edges.length) {
  for (var i=0;i<edges.length;i++) {
    if (edges[i].id.substr(0,4)=='edge') {
      edges[i].setAttribute('class','edge');
    }
  }
}
]]></script>
        <defs>
                <circle id="rim" cx="0" cy="0" r="7"/>
                <circle id="rim2" cx="0" cy="0" r="3.5"/>
                <g id="zoomPlus">
                        <use xlink:href="#rim" fill="#404040">
                                <set attributeName="fill" to="#808080" begin="zoomplus.mouseover" end="zoomplus.mouseout"/>
                        </use>
                        <path d="M-4,0h8M0,-4v8" fill="none" stroke="white" stroke-width="1.5" pointer-events="none"/>
                </g>
                <g id="zoomMin">
                        <use xlink:href="#rim" fill="#404040">
                                <set attributeName="fill" to="#808080" begin="zoomminus.mouseover" end="zoomminus.mouseout"/>
                        </use>
                        <path d="M-4,0h8" fill="none" stroke="white" stroke-width="1.5" pointer-events="none"/>
                </g>
                <g id="dirArrow">
                        <path fill="none" stroke="white" stroke-width="1.5" d="M0,-3.0v7 M-2.5,-0.5L0,-3.0L2.5,-0.5"/>
                </g>
               <g id="resetDef">
                       <use xlink:href="#rim2" fill="#404040">
                               <set attributeName="fill" to="#808080" begin="reset.mouseover" end="reset.mouseout"/>
                       </use>
               </g>
        </defs>

<script type="text/javascript">
var viewWidth = 1137;
var viewHeight = 534;
var sectionId = 'dynsection-14';
</script>
<script xlink:href="svgpan.js"/>
<svg id="graph" class="graph">
<g id="viewport">
<title>sss::api::S3Api::GetBucketVersioning</title>
<!-- Node1 -->
<g id="node1" class="node">
<title>Node1</title>
<g id="a_node1"><a xlink:title="Retrieve versioning status.">
<polygon fill="#bfbfbf" stroke="black" points="0,-204 0,-234 136,-234 136,-204 0,-204"/>
<text text-anchor="start" x="8" y="-222" font-family="Helvetica,sans-Serif" font-size="10.00">sss::api::S3Api::GetBucket</text>
<text text-anchor="middle" x="68" y="-211" font-family="Helvetica,sans-Serif" font-size="10.00">Versioning</text>
</a>
</g>
</g>
<!-- Node2 -->
<g id="node2" class="node">
<title>Node2</title>
<g id="a_node2"><a xlink:href="classsss_1_1WebClient.html#ac9e82fc4b56b142d91f9b104f5266f91" target="_top" xlink:title="Get response body as text.">
<polygon fill="none" stroke="black" points="172,-386.5 172,-405.5 330,-405.5 330,-386.5 172,-386.5"/>
<text text-anchor="middle" x="251" y="-393.5" font-family="Helvetica,sans-Serif" font-size="10.00">sss::WebClient::GetContentText</text>
</a>
</g>
</g>
<!-- Node1&#45;&gt;Node2 -->
<g id="edge1" class="edge">
<title>Node1&#45;&gt;Node2</title>
<path fill="none" stroke="midnightblue" d="M84.43,-234.09C117.99,-266.91 197.41,-344.57 232.64,-379.03"/>
<polygon fill="midnightblue" stroke="midnightblue" points="230.62,-381.95 240.22,-386.44 235.52,-376.94 230.62,-381.95"/>
</g>
<!-- Node4 -->
<g id="node4" class="node">
<title>Node4</title>
<g id="a_node4"><a xlink:href="classsss_1_1api_1_1S3Api.html#a02b4f0c95255f151beb72f0a6bdf5889" target="_top" xlink:title="Send request.">
<polygon fill="none" stroke="black" points="195,-209.5 195,-228.5 307,-228.5 307,-209.5 195,-209.5"/>
<text text-anchor="middle" x="251" y="-216.5" font-family="Helvetica,sans-Serif" font-size="10.00">sss::api::S3Api::Send</text>
</a>
</g>
</g>
<!-- Node1&#45;&gt;Node4 -->
<g id="edge3" class="edge">
<title>Node1&#45;&gt;Node4</title>
<path fill="none" stroke="midnightblue" d="M136.14,-219C151.99,-219 168.86,-219 184.62,-219"/>
<polygon fill="midnightblue" stroke="midnightblue" points="184.8,-222.5 194.8,-219 184.8,-215.5 184.8,-222.5"/>
</g>
<!-- Node26 -->
<g id="node26" class="node">
<title>Node26</title>
<g id="a_node26"><a xlink:href="group__Parsing.html#gacf486071ed8bd3e6f76fe9ee23639bde" target="_top" xlink:title="Extract and return content of XML tag.">
<polygon fill="none" stroke="black" points="214,-171.5 214,-190.5 288,-190.5 288,-171.5 214,-171.5"/>
<text text-anchor="middle" x="251" y="-178.5" font-family="Helvetica,sans-Serif" font-size="10.00">sss::XMLTag</text>
</a>
</g>
</g>
<!-- Node1&#45;&gt;Node26 -->
<g id="edge31" class="edge">
<title>Node1&#45;&gt;Node26</title>
<path fill="none" stroke="midnightblue" d="M136.14,-204.9C158.69,-200.17 183.32,-195 203.88,-190.68"/>
<polygon fill="midnightblue" stroke="midnightblue" points="204.86,-194.05 213.92,-188.57 203.42,-187.2 204.86,-194.05"/>
</g>
<!-- Node3 -->
<g id="node3" class="node">
<title>Node3</title>
<g id="a_node3"><a xlink:href="classsss_1_1WebClient.html#a77a4e0190a4f207b969cb63b6ba38ccc" target="_top" xlink:title=" ">
<polygon fill="none" stroke="black" points="366,-506.5 366,-525.5 538,-525.5 538,-506.5 366,-506.5"/>
<text text-anchor="middle" x="452" y="-513.5" font-family="Helvetica,sans-Serif" font-size="10.00">sss::WebClient::GetResponseBody</text>
</a>
</g>
</g>
<!-- Node2&#45;&gt;Node3 -->
<g id="edge2" class="edge">
<title>Node2&#45;&gt;Node3</title>
<path fill="none" stroke="midnightblue" d="M259.72,-405.54C276.68,-425.79 319.38,-473.17 366,-497 370.59,-499.35 375.47,-501.41 380.48,-503.21"/>
<polygon fill="midnightblue" stroke="midnightblue" points="379.64,-506.62 390.23,-506.39 381.8,-499.96 379.64,-506.62"/>
</g>
<!-- Node5 -->
<g id="node5" class="node">
<title>Node5</title>
<g id="a_node5"><a xlink:href="classsss_1_1api_1_1S3Api.html#a840772746fbb0a79c161037da7b24a31" target="_top" xlink:title="Configure instance.">
<polygon fill="none" stroke="black" points="393,-209.5 393,-228.5 511,-228.5 511,-209.5 393,-209.5"/>
<text text-anchor="middle" x="452" y="-216.5" font-family="Helvetica,sans-Serif" font-size="10.00">sss::api::S3Api::Config</text>
</a>
</g>
</g>
<!-- Node4&#45;&gt;Node5 -->
<g id="edge4" class="edge">
<title>Node4&#45;&gt;Node5</title>
<path fill="none" stroke="midnightblue" d="M307.17,-219C330.62,-219 358.21,-219 382.91,-219"/>
<polygon fill="midnightblue" stroke="midnightblue" points="382.94,-222.5 392.94,-219 382.94,-215.5 382.94,-222.5"/>
</g>
<!-- Node14 -->
<g id="node14" class="node">
<title>Node14</title>
<g id="a_node14"><a xlink:href="classsss_1_1WebClient.html#a51ce0ecf6487b6a43072643fe4f4cb4e" target="_top" xlink:title=" ">
<polygon fill="none" stroke="black" points="767.5,-380.5 767.5,-399.5 913.5,-399.5 913.5,-380.5 767.5,-380.5"/>
<text text-anchor="middle" x="840.5" y="-387.5" font-family="Helvetica,sans-Serif" font-size="10.00">sss::WebClient::SetPostData</text>
</a>
</g>
</g>
<!-- Node4&#45;&gt;Node14 -->
<g id="edge25" class="edge">
<title>Node4&#45;&gt;Node14</title>
<path fill="none" stroke="midnightblue" d="M262.95,-228.53C301.87,-261.69 438.43,-371.99 574,-409 650.01,-429.75 742.55,-414.43 795.88,-401.88"/>
<polygon fill="midnightblue" stroke="midnightblue" points="796.8,-405.26 805.69,-399.5 795.15,-398.46 796.8,-405.26"/>
</g>
<!-- Node21 -->
<g id="node21" class="node">
<title>Node21</title>
<g id="a_node21"><a xlink:href="group__Internal.html#ga2b8b08c2a4994a87377d83ccfa9a6a53" target="_top" xlink:title=" ">
<polygon fill="none" stroke="black" points="403,-32.5 403,-51.5 501,-51.5 501,-32.5 403,-32.5"/>
<text text-anchor="middle" x="452" y="-39.5" font-family="Helvetica,sans-Serif" font-size="10.00">sss::ParseParams</text>
</a>
</g>
</g>
<!-- Node4&#45;&gt;Node21 -->
<g id="edge23" class="edge">
<title>Node4&#45;&gt;Node21</title>
<path fill="none" stroke="midnightblue" d="M307.04,-213.49C315.55,-210.54 323.62,-206.23 330,-200 374.12,-156.91 322.67,-109.88 366,-66 373.43,-58.48 383.02,-53.26 393.08,-49.66"/>
<polygon fill="midnightblue" stroke="midnightblue" points="394.27,-52.96 402.8,-46.68 392.22,-46.27 394.27,-52.96"/>
</g>
<!-- Node22 -->
<g id="node22" class="node">
<title>Node22</title>
<g id="a_node22"><a xlink:href="classsss_1_1WebClient.html#aa1d7484f0e09242ce53b24f9648ce50e" target="_top" xlink:title=" ">
<polygon fill="none" stroke="black" points="589.5,-0.5 589.5,-19.5 701.5,-19.5 701.5,-0.5 589.5,-0.5"/>
<text text-anchor="middle" x="645.5" y="-7.5" font-family="Helvetica,sans-Serif" font-size="10.00">sss::WebClient::Send</text>
</a>
</g>
</g>
<!-- Node4&#45;&gt;Node22 -->
<g id="edge24" class="edge">
<title>Node4&#45;&gt;Node22</title>
<path fill="none" stroke="midnightblue" d="M307.03,-212.91C315.44,-210.02 323.48,-205.88 330,-200 365.39,-168.09 330.26,-130.53 366,-99 424.71,-47.21 468.27,-96.6 538,-61 557.07,-51.27 555.16,-39.17 574,-29 578.24,-26.71 582.77,-24.68 587.42,-22.89"/>
<polygon fill="midnightblue" stroke="midnightblue" points="588.77,-26.13 597.06,-19.53 586.47,-19.52 588.77,-26.13"/>
</g>
<!-- Node23 -->
<g id="node23" class="node">
<title>Node23</title>
<g id="a_node23"><a xlink:href="classsss_1_1WebClient.html#a7dfd984b33a29686fb0355b65b620e99" target="_top" xlink:title=" ">
<polygon fill="none" stroke="black" points="374.5,-457 374.5,-487 529.5,-487 529.5,-457 374.5,-457"/>
<text text-anchor="start" x="382.5" y="-475" font-family="Helvetica,sans-Serif" font-size="10.00">sss::WebClient::SetUrlEncoded</text>
<text text-anchor="middle" x="452" y="-464" font-family="Helvetica,sans-Serif" font-size="10.00">PostData</text>
</a>
</g>
</g>
<!-- Node4&#45;&gt;Node23 -->
<g id="edge26" class="edge">
<title>Node4&#45;&gt;Node23</title>
<path fill="none" stroke="midnightblue" d="M256.74,-228.76C277.14,-270.73 356.88,-434.02 366,-442 370.45,-445.89 375.44,-449.29 380.71,-452.26"/>
<polygon fill="midnightblue" stroke="midnightblue" points="379.3,-455.47 389.81,-456.85 382.46,-449.22 379.3,-455.47"/>
</g>
<!-- Node25 -->
<g id="node25" class="node">
<title>Node25</title>
<g id="a_node25"><a xlink:href="classsss_1_1WebClient.html#ae7b1f77bd4ae44585f2d49ea493bdcc5" target="_top" xlink:title="Upload data from memory buffer.">
<polygon fill="none" stroke="black" points="381.5,-109 381.5,-139 522.5,-139 522.5,-109 381.5,-109"/>
<text text-anchor="start" x="389.5" y="-127" font-family="Helvetica,sans-Serif" font-size="10.00">sss::WebClient::UploadData</text>
<text text-anchor="middle" x="452" y="-116" font-family="Helvetica,sans-Serif" font-size="10.00">FromBuffer</text>
</a>
</g>
</g>
<!-- Node4&#45;&gt;Node25 -->
<g id="edge28" class="edge">
<title>Node4&#45;&gt;Node25</title>
<path fill="none" stroke="midnightblue" d="M301.88,-209.39C311.39,-206.85 321.14,-203.74 330,-200 364.19,-185.55 399.75,-162.03 423.4,-144.98"/>
<polygon fill="midnightblue" stroke="midnightblue" points="425.54,-147.74 431.54,-139.02 421.41,-142.09 425.54,-147.74"/>
</g>
<!-- Node6 -->
<g id="node6" class="node">
<title>Node6</title>
<g id="a_node6"><a xlink:href="classsss_1_1api_1_1S3Api.html#a1a4e05ac14390c7f42feef2c26e22031" target="_top" xlink:title=" ">
<polygon fill="none" stroke="black" points="584.5,-304.5 584.5,-323.5 706.5,-323.5 706.5,-304.5 584.5,-304.5"/>
<text text-anchor="middle" x="645.5" y="-311.5" font-family="Helvetica,sans-Serif" font-size="10.00">sss::api::S3Api::Access</text>
</a>
</g>
</g>
<!-- Node5&#45;&gt;Node6 -->
<g id="edge5" class="edge">
<title>Node5&#45;&gt;Node6</title>
<path fill="none" stroke="midnightblue" d="M467.02,-228.5C489.06,-243.14 533.47,-271.44 574,-290 582.99,-294.11 592.89,-297.91 602.37,-301.21"/>
<polygon fill="midnightblue" stroke="midnightblue" points="601.44,-304.59 612.03,-304.47 603.67,-297.96 601.44,-304.59"/>
</g>
<!-- Node7 -->
<g id="node7" class="node">
<title>Node7</title>
<g id="a_node7"><a xlink:href="classsss_1_1api_1_1S3Api.html#a3718745d3b940462ae9f3b78f773b3a6" target="_top" xlink:title="Clear data and reset read and write functions.">
<polygon fill="none" stroke="black" points="589,-228.5 589,-247.5 702,-247.5 702,-228.5 589,-228.5"/>
<text text-anchor="middle" x="645.5" y="-235.5" font-family="Helvetica,sans-Serif" font-size="10.00">sss::api::S3Api::Clear</text>
</a>
</g>
</g>
<!-- Node5&#45;&gt;Node7 -->
<g id="edge6" class="edge">
<title>Node5&#45;&gt;Node7</title>
<path fill="none" stroke="midnightblue" d="M511.24,-224.78C532.52,-226.89 556.73,-229.29 578.63,-231.46"/>
<polygon fill="midnightblue" stroke="midnightblue" points="578.54,-234.97 588.84,-232.48 579.23,-228.01 578.54,-234.97"/>
</g>
<!-- Node12 -->
<g id="node12" class="node">
<title>Node12</title>
<g id="a_node12"><a xlink:href="classsss_1_1WebClient.html#a75890c14fbe4a4bbac61718a4f3c064d" target="_top" xlink:title=" ">
<polygon fill="none" stroke="black" points="770,-285.5 770,-304.5 911,-304.5 911,-285.5 770,-285.5"/>
<text text-anchor="middle" x="840.5" y="-292.5" font-family="Helvetica,sans-Serif" font-size="10.00">sss::WebClient::SetHeaders</text>
</a>
</g>
</g>
<!-- Node5&#45;&gt;Node12 -->
<g id="edge18" class="edge">
<title>Node5&#45;&gt;Node12</title>
<path fill="none" stroke="midnightblue" d="M479.1,-228.55C503.38,-237.11 540.72,-249.44 574,-257 635.75,-271.02 706.81,-280.87 759.87,-287.02"/>
<polygon fill="midnightblue" stroke="midnightblue" points="759.57,-290.51 769.9,-288.16 760.36,-283.55 759.57,-290.51"/>
</g>
<!-- Node13 -->
<g id="node13" class="node">
<title>Node13</title>
<g id="a_node13"><a xlink:href="classsss_1_1WebClient.html#a12b5db6b8c667024557ab58059d39994" target="_top" xlink:title=" ">
<polygon fill="none" stroke="black" points="778,-171.5 778,-190.5 903,-190.5 903,-171.5 778,-171.5"/>
<text text-anchor="middle" x="840.5" y="-178.5" font-family="Helvetica,sans-Serif" font-size="10.00">sss::WebClient::SetPath</text>
</a>
</g>
</g>
<!-- Node5&#45;&gt;Node13 -->
<g id="edge20" class="edge">
<title>Node5&#45;&gt;Node13</title>
<path fill="none" stroke="midnightblue" d="M511.28,-213.27C579.86,-206.53 693.74,-195.33 767.7,-188.06"/>
<polygon fill="midnightblue" stroke="midnightblue" points="768.25,-191.52 777.86,-187.06 767.57,-184.56 768.25,-191.52"/>
</g>
<!-- Node15 -->
<g id="node15" class="node">
<title>Node15</title>
<g id="a_node15"><a xlink:href="classsss_1_1WebClient.html#a9bf978d95b79728f6d60fc2bdb4fe546" target="_top" xlink:title=" ">
<polygon fill="none" stroke="black" points="754,-133.5 754,-152.5 927,-152.5 927,-133.5 754,-133.5"/>
<text text-anchor="middle" x="840.5" y="-140.5" font-family="Helvetica,sans-Serif" font-size="10.00">sss::WebClient::SetReqParameters</text>
</a>
</g>
</g>
<!-- Node5&#45;&gt;Node15 -->
<g id="edge21" class="edge">
<title>Node5&#45;&gt;Node15</title>
<path fill="none" stroke="midnightblue" d="M463.63,-209.33C483.52,-191.96 528.47,-156.11 574,-143 637.56,-124.69 713.29,-126.91 767.57,-132.39"/>
<polygon fill="midnightblue" stroke="midnightblue" points="767.47,-135.9 777.79,-133.49 768.22,-128.94 767.47,-135.9"/>
</g>
<!-- Node16 -->
<g id="node16" class="node">
<title>Node16</title>
<g id="a_node16"><a xlink:href="classsss_1_1api_1_1S3Api.html#a70f1068d07e1d4c1be164e0cb9328cc0" target="_top" xlink:title=" ">
<polygon fill="none" stroke="black" points="581.5,-76.5 581.5,-95.5 709.5,-95.5 709.5,-76.5 581.5,-76.5"/>
<text text-anchor="middle" x="645.5" y="-83.5" font-family="Helvetica,sans-Serif" font-size="10.00">sss::api::S3Api::Endpoint</text>
</a>
</g>
</g>
<!-- Node5&#45;&gt;Node16 -->
<g id="edge15" class="edge">
<title>Node5&#45;&gt;Node16</title>
<path fill="none" stroke="midnightblue" d="M465.49,-209.32C482.41,-196.04 513.34,-171.17 538,-148 554.96,-132.07 554.42,-122.56 574,-110 580.81,-105.63 588.5,-101.97 596.24,-98.92"/>
<polygon fill="midnightblue" stroke="midnightblue" points="597.43,-102.21 605.64,-95.51 595.04,-95.63 597.43,-102.21"/>
</g>
<!-- Node17 -->
<g id="node17" class="node">
<title>Node17</title>
<g id="a_node17"><a xlink:href="classsss_1_1api_1_1S3Api.html#acfffe29254323fb41231787a0afb7edc" target="_top" xlink:title=" ">
<polygon fill="none" stroke="black" points="586.5,-380.5 586.5,-399.5 704.5,-399.5 704.5,-380.5 586.5,-380.5"/>
<text text-anchor="middle" x="645.5" y="-387.5" font-family="Helvetica,sans-Serif" font-size="10.00">sss::api::S3Api::Secret</text>
</a>
</g>
</g>
<!-- Node5&#45;&gt;Node17 -->
<g id="edge16" class="edge">
<title>Node5&#45;&gt;Node17</title>
<path fill="none" stroke="midnightblue" d="M457.78,-228.58C471.71,-255.49 515.07,-332.32 574,-371 577.15,-373.07 580.52,-374.91 584.02,-376.56"/>
<polygon fill="midnightblue" stroke="midnightblue" points="582.93,-379.89 593.51,-380.46 585.59,-373.42 582.93,-379.89"/>
</g>
<!-- Node18 -->
<g id="node18" class="node">
<title>Node18</title>
<g id="a_node18"><a xlink:href="classsss_1_1WebClient.html#afc3b7a92568fbb1ea447918920ca266e" target="_top" xlink:title="Set endpoint: &lt;proto&gt;://&lt;server&gt;:&lt;port&gt;">
<polygon fill="none" stroke="black" points="574,-342.5 574,-361.5 717,-361.5 717,-342.5 574,-342.5"/>
<text text-anchor="middle" x="645.5" y="-349.5" font-family="Helvetica,sans-Serif" font-size="10.00">sss::WebClient::SetEndpoint</text>
</a>
</g>
</g>
<!-- Node5&#45;&gt;Node18 -->
<g id="edge17" class="edge">
<title>Node5&#45;&gt;Node18</title>
<path fill="none" stroke="midnightblue" d="M460.34,-228.61C477.65,-250.57 523.35,-304.71 574,-333 577.97,-335.22 582.2,-337.18 586.56,-338.93"/>
<polygon fill="midnightblue" stroke="midnightblue" points="585.63,-342.31 596.22,-342.41 588,-335.73 585.63,-342.31"/>
</g>
<!-- Node19 -->
<g id="node19" class="node">
<title>Node19</title>
<g id="a_node19"><a xlink:href="classsss_1_1WebClient.html#af6233ffd7b294e1e7e606e838dd44e9e" target="_top" xlink:title=" ">
<polygon fill="none" stroke="black" points="577,-38.5 577,-57.5 714,-57.5 714,-38.5 577,-38.5"/>
<text text-anchor="middle" x="645.5" y="-45.5" font-family="Helvetica,sans-Serif" font-size="10.00">sss::WebClient::SetMethod</text>
</a>
</g>
</g>
<!-- Node5&#45;&gt;Node19 -->
<g id="edge19" class="edge">
<title>Node5&#45;&gt;Node19</title>
<path fill="none" stroke="midnightblue" d="M468.34,-209.4C486.92,-197.11 518.19,-174.24 538,-148 561.73,-116.56 544.07,-92.62 574,-67 575.98,-65.31 578.1,-63.76 580.32,-62.35"/>
<polygon fill="midnightblue" stroke="midnightblue" points="582.12,-65.35 589.31,-57.57 578.83,-59.17 582.12,-65.35"/>
</g>
<!-- Node20 -->
<g id="node20" class="node">
<title>Node20</title>
<g id="a_node20"><a xlink:href="group__Sign.html#ga3ae8e18ef70752b7369fca66c40c526b" target="_top" xlink:title="Sign headers.">
<polygon fill="none" stroke="black" points="598,-152.5 598,-171.5 693,-171.5 693,-152.5 598,-152.5"/>
<text text-anchor="middle" x="645.5" y="-159.5" font-family="Helvetica,sans-Serif" font-size="10.00">sss::SignHeaders</text>
</a>
</g>
</g>
<!-- Node5&#45;&gt;Node20 -->
<g id="edge22" class="edge">
<title>Node5&#45;&gt;Node20</title>
<path fill="none" stroke="midnightblue" d="M485.05,-209.46C517.23,-199.88 566.96,-185.08 602.32,-174.55"/>
<polygon fill="midnightblue" stroke="midnightblue" points="603.76,-177.78 612.34,-171.57 601.76,-171.07 603.76,-177.78"/>
</g>
<!-- Node8 -->
<g id="node8" class="node">
<title>Node8</title>
<g id="a_node8"><a xlink:href="classsss_1_1WebClient.html#a381f5715b7a2f19a0d4414d278874bae" target="_top" xlink:title="Clear internal buffers.">
<polygon fill="none" stroke="black" points="768.5,-209.5 768.5,-228.5 912.5,-228.5 912.5,-209.5 768.5,-209.5"/>
<text text-anchor="middle" x="840.5" y="-216.5" font-family="Helvetica,sans-Serif" font-size="10.00">sss::WebClient::ClearBuffers</text>
</a>
</g>
</g>
<!-- Node7&#45;&gt;Node8 -->
<g id="edge7" class="edge">
<title>Node7&#45;&gt;Node8</title>
<path fill="none" stroke="midnightblue" d="M702.06,-232.53C719.62,-230.8 739.4,-228.85 758.36,-226.99"/>
<polygon fill="midnightblue" stroke="midnightblue" points="758.88,-230.45 768.49,-225.99 758.2,-223.49 758.88,-230.45"/>
</g>
<!-- Node9 -->
<g id="node9" class="node">
<title>Node9</title>
<g id="a_node9"><a xlink:href="classsss_1_1WebClient.html#a96837f149bb473853a6523d096a25c56" target="_top" xlink:title="Reset read/write functions to default.">
<polygon fill="none" stroke="black" points="753,-247.5 753,-266.5 928,-266.5 928,-247.5 753,-247.5"/>
<text text-anchor="middle" x="840.5" y="-254.5" font-family="Helvetica,sans-Serif" font-size="10.00">sss::WebClient::ResetRWFunctions</text>
</a>
</g>
</g>
<!-- Node7&#45;&gt;Node9 -->
<g id="edge8" class="edge">
<title>Node7&#45;&gt;Node9</title>
<path fill="none" stroke="midnightblue" d="M702.06,-243.47C714.79,-244.72 728.68,-246.09 742.58,-247.46"/>
<polygon fill="midnightblue" stroke="midnightblue" points="742.39,-250.96 752.69,-248.45 743.08,-243.99 742.39,-250.96"/>
</g>
<!-- Node7&#45;&gt;Node12 -->
<g id="edge11" class="edge">
<title>Node7&#45;&gt;Node12</title>
<path fill="none" stroke="midnightblue" d="M675.41,-247.53C688.2,-251.83 703.39,-257.04 717,-262 733.13,-267.88 736.57,-271.03 753,-276 761.65,-278.61 770.88,-281.03 779.98,-283.2"/>
<polygon fill="midnightblue" stroke="midnightblue" points="779.23,-286.62 789.76,-285.45 780.8,-279.8 779.23,-286.62"/>
</g>
<!-- Node7&#45;&gt;Node13 -->
<g id="edge12" class="edge">
<title>Node7&#45;&gt;Node13</title>
<path fill="none" stroke="midnightblue" d="M675.41,-228.47C688.2,-224.17 703.39,-218.96 717,-214 733.13,-208.12 736.57,-204.97 753,-200 761.65,-197.39 770.88,-194.97 779.98,-192.8"/>
<polygon fill="midnightblue" stroke="midnightblue" points="780.8,-196.2 789.76,-190.55 779.23,-189.38 780.8,-196.2"/>
</g>
<!-- Node7&#45;&gt;Node14 -->
<g id="edge13" class="edge">
<title>Node7&#45;&gt;Node14</title>
<path fill="none" stroke="midnightblue" d="M658.57,-247.51C690.86,-272.94 779.47,-342.72 819.46,-374.21"/>
<polygon fill="midnightblue" stroke="midnightblue" points="817.41,-377.06 827.43,-380.5 821.74,-371.56 817.41,-377.06"/>
</g>
<!-- Node7&#45;&gt;Node15 -->
<g id="edge14" class="edge">
<title>Node7&#45;&gt;Node15</title>
<path fill="none" stroke="midnightblue" d="M656.79,-228.43C674.83,-212.2 713.97,-179.34 753,-162 758.72,-159.46 764.8,-157.25 770.99,-155.32"/>
<polygon fill="midnightblue" stroke="midnightblue" points="772.12,-158.64 780.77,-152.53 770.2,-151.91 772.12,-158.64"/>
</g>
<!-- Node10 -->
<g id="node10" class="node">
<title>Node10</title>
<g id="a_node10"><a xlink:href="classsss_1_1WebClient.html#a88dbcc61562e84aa9ebf1eabf887ac28" target="_top" xlink:title=" ">
<polygon fill="none" stroke="black" points="964,-269.5 964,-288.5 1129,-288.5 1129,-269.5 964,-269.5"/>
<text text-anchor="middle" x="1046.5" y="-276.5" font-family="Helvetica,sans-Serif" font-size="10.00">sss::WebClient::SetReadFunction</text>
</a>
</g>
</g>
<!-- Node9&#45;&gt;Node10 -->
<g id="edge9" class="edge">
<title>Node9&#45;&gt;Node10</title>
<path fill="none" stroke="midnightblue" d="M928.01,-266.33C936.52,-267.25 945.18,-268.18 953.73,-269.1"/>
<polygon fill="midnightblue" stroke="midnightblue" points="953.4,-272.59 963.72,-270.18 954.15,-265.63 953.4,-272.59"/>
</g>
<!-- Node11 -->
<g id="node11" class="node">
<title>Node11</title>
<g id="a_node11"><a xlink:href="classsss_1_1WebClient.html#a002876073b3869a9b9a9d709d14f1d7e" target="_top" xlink:title=" ">
<polygon fill="none" stroke="black" points="983,-220 983,-250 1110,-250 1110,-220 983,-220"/>
<text text-anchor="start" x="991" y="-238" font-family="Helvetica,sans-Serif" font-size="10.00">sss::WebClient::SetWrite</text>
<text text-anchor="middle" x="1046.5" y="-227" font-family="Helvetica,sans-Serif" font-size="10.00">Function</text>
</a>
</g>
</g>
<!-- Node9&#45;&gt;Node11 -->
<g id="edge10" class="edge">
<title>Node9&#45;&gt;Node11</title>
<path fill="none" stroke="midnightblue" d="M928.01,-247.67C942.87,-246.07 958.17,-244.42 972.63,-242.86"/>
<polygon fill="midnightblue" stroke="midnightblue" points="973.41,-246.29 982.98,-241.74 972.66,-239.33 973.41,-246.29"/>
</g>
<!-- Node24 -->
<g id="node24" class="node">
<title>Node24</title>
<g id="a_node24"><a xlink:href="group__Internal.html#ga6e3db8d156313abef7e2c966df1a3d7c" target="_top" xlink:title=" ">
<polygon fill="none" stroke="black" points="603.5,-462.5 603.5,-481.5 687.5,-481.5 687.5,-462.5 603.5,-462.5"/>
<text text-anchor="middle" x="645.5" y="-469.5" font-family="Helvetica,sans-Serif" font-size="10.00">sss::UrlEncode</text>
</a>
</g>
</g>
<!-- Node23&#45;&gt;Node24 -->
<g id="edge27" class="edge">
<title>Node23&#45;&gt;Node24</title>
<path fill="none" stroke="midnightblue" d="M529.51,-472C550.88,-472 573.59,-472 593.13,-472"/>
<polygon fill="midnightblue" stroke="midnightblue" points="593.33,-475.5 603.33,-472 593.33,-468.5 593.33,-475.5"/>
</g>
<!-- Node25&#45;&gt;Node19 -->
<g id="edge30" class="edge">
<title>Node25&#45;&gt;Node19</title>
<path fill="none" stroke="midnightblue" d="M503.97,-108.85C515.45,-104.67 527.38,-99.69 538,-94 555.63,-84.56 556.02,-75.76 574,-67 578.84,-64.64 584.02,-62.54 589.29,-60.68"/>
<polygon fill="midnightblue" stroke="midnightblue" points="590.39,-64 598.82,-57.58 588.23,-57.34 590.39,-64"/>
</g>
<!-- Node25&#45;&gt;Node22 -->
<g id="edge29" class="edge">
<title>Node25&#45;&gt;Node22</title>
<path fill="none" stroke="midnightblue" d="M513.58,-108.84C522.35,-104.93 530.83,-100.06 538,-94 563.21,-72.67 548,-49.35 574,-29 576.34,-27.17 578.84,-25.51 581.46,-24.02"/>
<polygon fill="midnightblue" stroke="midnightblue" points="583.25,-27.04 590.71,-19.52 580.19,-20.74 583.25,-27.04"/>
</g>
</g>
</svg>
        <g id="navigator" transform="translate(0 0)" fill="#404254">
                <rect fill="#f2f5e9" fill-opacity="0.5" stroke="#606060" stroke-width=".5" x="0" y="0" width="60" height="60"/>
                <use id="zoomplus" xlink:href="#zoomPlus" x="17" y="9" onmousedown="handleZoom(evt,'in')"/>
                <use id="zoomminus" xlink:href="#zoomMin" x="42" y="9" onmousedown="handleZoom(evt,'out')"/>
                <use id="reset" xlink:href="#resetDef" x="30" y="36" onmousedown="handleReset()"/>
                <g id="arrowUp" xlink:href="#dirArrow" transform="translate(30 24)" onmousedown="handlePan(0,-1)">
                  <use xlink:href="#rim" fill="#404040">
                        <set attributeName="fill" to="#808080" begin="arrowUp.mouseover" end="arrowUp.mouseout"/>
                  </use>
                  <path fill="none" stroke="white" stroke-width="1.5" d="M0,-3.0v7 M-2.5,-0.5L0,-3.0L2.5,-0.5"/>
                </g>
                <g id="arrowRight" xlink:href="#dirArrow" transform="rotate(90) translate(36 -43)" onmousedown="handlePan(1,0)">
                  <use xlink:href="#rim" fill="#404040">
                        <set attributeName="fill" to="#808080" begin="arrowRight.mouseover" end="arrowRight.mouseout"/>
                  </use>
                  <path fill="none" stroke="white" stroke-width="1.5" d="M0,-3.0v7 M-2.5,-0.5L0,-3.0L2.5,-0.5"/>
                </g>
                <g id="arrowDown" xlink:href="#dirArrow" transform="rotate(180) translate(-30 -48)" onmousedown="handlePan(0,1)">
                  <use xlink:href="#rim" fill="#404040">
                        <set attributeName="fill" to="#808080" begin="arrowDown.mouseover" end="arrowDown.mouseout"/>
                  </use>
                  <path fill="none" stroke="white" stroke-width="1.5" d="M0,-3.0v7 M-2.5,-0.5L0,-3.0L2.5,-0.5"/>
                </g>
                <g id="arrowLeft" xlink:href="#dirArrow" transform="rotate(270) translate(-36 17)" onmousedown="handlePan(-1,0)">
                  <use xlink:href="#rim" fill="#404040">
                        <set attributeName="fill" to="#808080" begin="arrowLeft.mouseover" end="arrowLeft.mouseout"/>
                  </use>
                  <path fill="none" stroke="white" stroke-width="1.5" d="M0,-3.0v7 M-2.5,-0.5L0,-3.0L2.5,-0.5"/>
                </g>
        </g>
        <svg viewBox="0 0 15 15" width="100%" height="30px" preserveAspectRatio="xMaxYMin meet">
         <g id="arrow_out" transform="scale(0.3 0.3)">
          <a xlink:href="classsss_1_1api_1_1S3Api_a26387e640fa4d3c0715dc48f932ae410_cgraph_org.svg" target="_base">
           <rect id="button" ry="5" rx="5" y="6" x="6" height="38" width="38"
                fill="#f2f5e9" fill-opacity="0.5" stroke="#606060" stroke-width="1.0"/>
           <path id="arrow"
             d="M 11.500037,31.436501 C 11.940474,20.09759 22.043105,11.32322 32.158766,21.979434 L 37.068811,17.246167 C 37.068811,17.246167 37.088388,32 37.088388,32 L 22.160133,31.978069 C 22.160133,31.978069 26.997745,27.140456 26.997745,27.140456 C 18.528582,18.264221 13.291696,25.230495 11.500037,31.436501 z"
             style="fill:#404040;"/>
          </a>
         </g>
        </svg>
</svg>
