<?xml version="1.0" encoding="UTF-8" standalone="no"?>
<!DOCTYPE svg PUBLIC "-//W3C//DTD SVG 1.1//EN"
 "http://www.w3.org/Graphics/SVG/1.1/DTD/svg11.dtd">
<!-- Generated by graphviz version 8.0.5 (20230430.1635)
 -->
<!-- Title: sss::api::S3Api::GetBucketAcl Pages: 1 -->
<svg width="1084pt" height="600pt"
 viewBox="0.00 0.00 1084.25 599.83" xmlns="http://www.w3.org/2000/svg" xmlns:xlink="http://www.w3.org/1999/xlink">
<g id="graph0" class="graph" transform="scale(1 1) rotate(0) translate(4 595.83)">
<title>sss::api::S3Api::GetBucketAcl</title>
<!-- Node1 -->
<g id="node1" class="node">
<title>Node1</title>
<g id="a_node1"><a xlink:title=" ">
<polygon fill="#999999" stroke="#666666" points="149.5,-161.25 0,-161.25 0,-142 149.5,-142 149.5,-161.25"/>
<text text-anchor="middle" x="74.75" y="-147.75" font-family="Helvetica,sans-Serif" font-size="10.00">sss::api::S3Api::GetBucketAcl</text>
</a>
</g>
</g>
<!-- Node2 -->
<g id="node2" class="node">
<title>Node2</title>
<g id="a_node2"><a xlink:href="classsss_1_1api_1_1S3Api.html#ad09581bf28c4bbbcbb71b329959ec1ae" target="_top" xlink:title=" ">
<polygon fill="white" stroke="#666666" points="296.75,-161.25 185.5,-161.25 185.5,-142 296.75,-142 296.75,-161.25"/>
<text text-anchor="middle" x="241.12" y="-147.75" font-family="Helvetica,sans-Serif" font-size="10.00">sss::api::S3Api::Send</text>
</a>
</g>
</g>
<!-- Node1&#45;&gt;Node2 -->
<g id="edge1" class="edge">
<title>Node1&#45;&gt;Node2</title>
<path fill="none" stroke="#63b8ff" d="M149.76,-151.62C157.96,-151.62 166.28,-151.62 174.37,-151.62"/>
<polygon fill="#63b8ff" stroke="#63b8ff" points="174.23,-155.13 184.23,-151.62 174.23,-148.13 174.23,-155.13"/>
</g>
<!-- Node3 -->
<g id="node3" class="node">
<title>Node3</title>
<g id="a_node3"><a xlink:href="classsss_1_1api_1_1S3Api.html#a840772746fbb0a79c161037da7b24a31" target="_top" xlink:title="[WebClient::Config]">
<polygon fill="white" stroke="#666666" points="468.75,-365.25 351.5,-365.25 351.5,-346 468.75,-346 468.75,-365.25"/>
<text text-anchor="middle" x="410.12" y="-351.75" font-family="Helvetica,sans-Serif" font-size="10.00">sss::api::S3Api::Config</text>
</a>
</g>
</g>
<!-- Node2&#45;&gt;Node3 -->
<g id="edge2" class="edge">
<title>Node2&#45;&gt;Node3</title>
<path fill="none" stroke="#63b8ff" d="M250.41,-161.74C276.96,-194.18 360.23,-295.9 394.34,-337.56"/>
<polygon fill="#63b8ff" stroke="#63b8ff" points="392.14,-339.41 401.19,-344.93 397.56,-334.97 392.14,-339.41"/>
</g>
<!-- Node12 -->
<g id="node12" class="node">
<title>Node12</title>
<g id="a_node12"><a xlink:href="classsss_1_1WebClient.html#a51ce0ecf6487b6a43072643fe4f4cb4e" target="_top" xlink:title=" ">
<polygon fill="white" stroke="#666666" points="861.12,-591.25 716.12,-591.25 716.12,-572 861.12,-572 861.12,-591.25"/>
<text text-anchor="middle" x="788.62" y="-577.75" font-family="Helvetica,sans-Serif" font-size="10.00">sss::WebClient::SetPostData</text>
</a>
</g>
</g>
<!-- Node2&#45;&gt;Node12 -->
<g id="edge39" class="edge">
<title>Node2&#45;&gt;Node12</title>
<path fill="none" stroke="#63b8ff" d="M244.64,-161.65C253.18,-194.36 283.24,-300.15 332.75,-374.62 398.99,-474.27 414.43,-515.41 523.5,-564.62 580.22,-590.22 650.84,-593.49 704.78,-590.9"/>
<polygon fill="#63b8ff" stroke="#63b8ff" points="704.9,-594.34 714.69,-590.28 704.5,-587.35 704.9,-594.34"/>
</g>
<!-- Node27 -->
<g id="node27" class="node">
<title>Node27</title>
<g id="a_node27"><a xlink:href="lib_2include_2utility_8h.html#ab314781bb3f053ef5325b50f3a1b74f8" target="_top" xlink:title=" ">
<polygon fill="white" stroke="#666666" points="1031.25,-140.25 956.75,-140.25 956.75,-121 1031.25,-121 1031.25,-140.25"/>
<text text-anchor="middle" x="994" y="-126.75" font-family="Helvetica,sans-Serif" font-size="10.00">sss::ToLower</text>
</a>
</g>
</g>
<!-- Node2&#45;&gt;Node27 -->
<g id="edge42" class="edge">
<title>Node2&#45;&gt;Node27</title>
<path fill="none" stroke="#63b8ff" d="M297.03,-150.09C438.29,-146.14 812.48,-135.67 945.36,-131.96"/>
<polygon fill="#63b8ff" stroke="#63b8ff" points="945.45,-135.43 955.35,-131.65 945.26,-128.43 945.45,-135.43"/>
</g>
<!-- Node29 -->
<g id="node29" class="node">
<title>Node29</title>
<g id="a_node29"><a xlink:href="group__ErrorHandling.html#ga781648957bfce0bbc86cbdbff94e28a6" target="_top" xlink:title=" ">
<polygon fill="white" stroke="#666666" points="454.88,-56.25 365.38,-56.25 365.38,-37 454.88,-37 454.88,-56.25"/>
<text text-anchor="middle" x="410.12" y="-42.75" font-family="Helvetica,sans-Serif" font-size="10.00">sss::HandleError</text>
</a>
</g>
</g>
<!-- Node2&#45;&gt;Node29 -->
<g id="edge36" class="edge">
<title>Node2&#45;&gt;Node29</title>
<path fill="none" stroke="#63b8ff" d="M249.66,-141.66C263.86,-123.61 296.42,-85.54 332.75,-65.62 339.59,-61.88 347.17,-58.86 354.83,-56.42"/>
<polygon fill="#63b8ff" stroke="#63b8ff" points="355.59,-59.56 364.25,-53.46 353.68,-52.83 355.59,-59.56"/>
</g>
<!-- Node30 -->
<g id="node30" class="node">
<title>Node30</title>
<g id="a_node30"><a xlink:href="group__Internal.html#ga2b8b08c2a4994a87377d83ccfa9a6a53" target="_top" xlink:title=" ">
<polygon fill="white" stroke="#666666" points="458.62,-19.25 361.62,-19.25 361.62,0 458.62,0 458.62,-19.25"/>
<text text-anchor="middle" x="410.12" y="-5.75" font-family="Helvetica,sans-Serif" font-size="10.00">sss::ParseParams</text>
</a>
</g>
</g>
<!-- Node2&#45;&gt;Node30 -->
<g id="edge37" class="edge">
<title>Node2&#45;&gt;Node30</title>
<path fill="none" stroke="#63b8ff" d="M246.37,-141.73C257.09,-117.98 287.64,-57.54 332.75,-27.62 338.34,-23.92 344.6,-20.97 351.07,-18.63"/>
<polygon fill="#63b8ff" stroke="#63b8ff" points="351.84,-21.75 360.34,-15.43 349.76,-15.06 351.84,-21.75"/>
</g>
<!-- Node31 -->
<g id="node31" class="node">
<title>Node31</title>
<g id="a_node31"><a xlink:href="classsss_1_1WebClient.html#aa1d7484f0e09242ce53b24f9648ce50e" target="_top" xlink:title=" ">
<polygon fill="white" stroke="#666666" points="650.12,-180.25 538.88,-180.25 538.88,-161 650.12,-161 650.12,-180.25"/>
<text text-anchor="middle" x="594.5" y="-166.75" font-family="Helvetica,sans-Serif" font-size="10.00">sss::WebClient::Send</text>
</a>
</g>
</g>
<!-- Node2&#45;&gt;Node31 -->
<g id="edge38" class="edge">
<title>Node2&#45;&gt;Node31</title>
<path fill="none" stroke="#63b8ff" d="M297.03,-154.59C359.37,-157.97 461.06,-163.46 527.63,-167.06"/>
<polygon fill="#63b8ff" stroke="#63b8ff" points="527.23,-170.6 537.4,-167.65 527.61,-163.61 527.23,-170.6"/>
</g>
<!-- Node32 -->
<g id="node32" class="node">
<title>Node32</title>
<g id="a_node32"><a xlink:href="classsss_1_1WebClient.html#a7dfd984b33a29686fb0355b65b620e99" target="_top" xlink:title=" ">
<polygon fill="white" stroke="#666666" points="487.5,-104.88 332.75,-104.88 332.75,-74.38 487.5,-74.38 487.5,-104.88"/>
<text text-anchor="start" x="340.75" y="-91.38" font-family="Helvetica,sans-Serif" font-size="10.00">sss::WebClient::SetUrlEncoded</text>
<text text-anchor="middle" x="410.12" y="-80.12" font-family="Helvetica,sans-Serif" font-size="10.00">PostData</text>
</a>
</g>
</g>
<!-- Node2&#45;&gt;Node32 -->
<g id="edge40" class="edge">
<title>Node2&#45;&gt;Node32</title>
<path fill="none" stroke="#63b8ff" d="M269.33,-141.53C292.97,-132.75 327.89,-119.78 356.92,-109.01"/>
<polygon fill="#63b8ff" stroke="#63b8ff" points="357.75,-112.06 365.91,-105.3 355.32,-105.5 357.75,-112.06"/>
</g>
<!-- Node33 -->
<g id="node33" class="node">
<title>Node33</title>
<g id="a_node33"><a xlink:href="classsss_1_1WebClient.html#ae7b1f77bd4ae44585f2d49ea493bdcc5" target="_top" xlink:title="Upload data from memory buffer.">
<polygon fill="white" stroke="#666666" points="480.38,-228.88 339.88,-228.88 339.88,-198.38 480.38,-198.38 480.38,-228.88"/>
<text text-anchor="start" x="347.88" y="-215.38" font-family="Helvetica,sans-Serif" font-size="10.00">sss::WebClient::UploadData</text>
<text text-anchor="middle" x="410.12" y="-204.12" font-family="Helvetica,sans-Serif" font-size="10.00">FromBuffer</text>
</a>
</g>
</g>
<!-- Node2&#45;&gt;Node33 -->
<g id="edge43" class="edge">
<title>Node2&#45;&gt;Node33</title>
<path fill="none" stroke="#63b8ff" d="M269.33,-161.72C292.97,-170.5 327.89,-183.47 356.92,-194.24"/>
<polygon fill="#63b8ff" stroke="#63b8ff" points="355.32,-197.75 365.91,-197.95 357.75,-191.19 355.32,-197.75"/>
</g>
<!-- Node4 -->
<g id="node4" class="node">
<title>Node4</title>
<g id="a_node4"><a xlink:href="classsss_1_1api_1_1S3Api.html#aea9741d60e74775ccd4de1c2c58f64fa" target="_top" xlink:title=" ">
<polygon fill="white" stroke="#666666" points="655.38,-555.25 533.62,-555.25 533.62,-536 655.38,-536 655.38,-555.25"/>
<text text-anchor="middle" x="594.5" y="-541.75" font-family="Helvetica,sans-Serif" font-size="10.00">sss::api::S3Api::Access</text>
</a>
</g>
</g>
<!-- Node3&#45;&gt;Node4 -->
<g id="edge3" class="edge">
<title>Node3&#45;&gt;Node4</title>
<path fill="none" stroke="#63b8ff" d="M415.08,-365.48C427.02,-393.96 465.45,-477.22 523.5,-521.62 528.47,-525.43 534.08,-528.65 539.91,-531.38"/>
<polygon fill="#63b8ff" stroke="#63b8ff" points="538.27,-534.9 548.85,-535.51 540.96,-528.44 538.27,-534.9"/>
</g>
<!-- Node5 -->
<g id="node5" class="node">
<title>Node5</title>
<g id="a_node5"><a xlink:href="classsss_1_1api_1_1S3Api.html#a3718745d3b940462ae9f3b78f773b3a6" target="_top" xlink:title="Clear data and reset read and write functions.">
<polygon fill="white" stroke="#666666" points="650.5,-479.25 538.5,-479.25 538.5,-460 650.5,-460 650.5,-479.25"/>
<text text-anchor="middle" x="594.5" y="-465.75" font-family="Helvetica,sans-Serif" font-size="10.00">sss::api::S3Api::Clear</text>
</a>
</g>
</g>
<!-- Node3&#45;&gt;Node5 -->
<g id="edge4" class="edge">
<title>Node3&#45;&gt;Node5</title>
<path fill="none" stroke="#63b8ff" d="M421.09,-365.64C439.7,-383.84 481.67,-422.62 523.5,-445.62 530.62,-449.54 538.5,-452.99 546.33,-455.96"/>
<polygon fill="#63b8ff" stroke="#63b8ff" points="544.92,-459.53 555.51,-459.59 547.27,-452.94 544.92,-459.53"/>
</g>
<!-- Node10 -->
<g id="node10" class="node">
<title>Node10</title>
<g id="a_node10"><a xlink:href="classsss_1_1WebClient.html#a75890c14fbe4a4bbac61718a4f3c064d" target="_top" xlink:title=" ">
<polygon fill="white" stroke="#666666" points="858.88,-552.25 718.38,-552.25 718.38,-533 858.88,-533 858.88,-552.25"/>
<text text-anchor="middle" x="788.62" y="-538.75" font-family="Helvetica,sans-Serif" font-size="10.00">sss::WebClient::SetHeaders</text>
</a>
</g>
</g>
<!-- Node3&#45;&gt;Node10 -->
<g id="edge16" class="edge">
<title>Node3&#45;&gt;Node10</title>
<path fill="none" stroke="#63b8ff" d="M416.38,-365.59C430.2,-390.74 470.2,-457.01 523.5,-488.62 554.05,-506.75 641.24,-522.37 707.16,-532.08"/>
<polygon fill="#63b8ff" stroke="#63b8ff" points="706.55,-535.67 716.95,-533.64 707.56,-528.74 706.55,-535.67"/>
</g>
<!-- Node11 -->
<g id="node11" class="node">
<title>Node11</title>
<g id="a_node11"><a xlink:href="classsss_1_1WebClient.html#a12b5db6b8c667024557ab58059d39994" target="_top" xlink:title=" ">
<polygon fill="white" stroke="#666666" points="850.62,-441.25 726.62,-441.25 726.62,-422 850.62,-422 850.62,-441.25"/>
<text text-anchor="middle" x="788.62" y="-427.75" font-family="Helvetica,sans-Serif" font-size="10.00">sss::WebClient::SetPath</text>
</a>
</g>
</g>
<!-- Node3&#45;&gt;Node11 -->
<g id="edge20" class="edge">
<title>Node3&#45;&gt;Node11</title>
<path fill="none" stroke="#63b8ff" d="M435.7,-365.71C458.2,-374.57 492.58,-387.17 523.5,-394.62 587.51,-410.06 661.9,-419.76 715.4,-425.34"/>
<polygon fill="#63b8ff" stroke="#63b8ff" points="714.84,-428.9 725.15,-426.44 715.55,-421.94 714.84,-428.9"/>
</g>
<!-- Node13 -->
<g id="node13" class="node">
<title>Node13</title>
<g id="a_node13"><a xlink:href="classsss_1_1WebClient.html#a9bf978d95b79728f6d60fc2bdb4fe546" target="_top" xlink:title=" ">
<polygon fill="white" stroke="#666666" points="874.62,-404.25 702.62,-404.25 702.62,-385 874.62,-385 874.62,-404.25"/>
<text text-anchor="middle" x="788.62" y="-390.75" font-family="Helvetica,sans-Serif" font-size="10.00">sss::WebClient::SetReqParameters</text>
</a>
</g>
</g>
<!-- Node3&#45;&gt;Node13 -->
<g id="edge21" class="edge">
<title>Node3&#45;&gt;Node13</title>
<path fill="none" stroke="#63b8ff" d="M464.71,-365.72C483.27,-368.94 504.25,-372.27 523.5,-374.62 579,-381.4 641.35,-386.25 691.54,-389.48"/>
<polygon fill="#63b8ff" stroke="#63b8ff" points="691.18,-393.03 701.38,-390.16 691.62,-386.04 691.18,-393.03"/>
</g>
<!-- Node14 -->
<g id="node14" class="node">
<title>Node14</title>
<g id="a_node14"><a xlink:href="classsss_1_1api_1_1S3Api.html#a25a999d87c121627166fc0a896f536c7" target="_top" xlink:title=" ">
<polygon fill="white" stroke="#666666" points="658,-328.25 531,-328.25 531,-309 658,-309 658,-328.25"/>
<text text-anchor="middle" x="594.5" y="-314.75" font-family="Helvetica,sans-Serif" font-size="10.00">sss::api::S3Api::Endpoint</text>
</a>
</g>
</g>
<!-- Node3&#45;&gt;Node14 -->
<g id="edge13" class="edge">
<title>Node3&#45;&gt;Node14</title>
<path fill="none" stroke="#63b8ff" d="M460.96,-345.51C483.28,-340.99 509.78,-335.61 533.21,-330.86"/>
<polygon fill="#63b8ff" stroke="#63b8ff" points="533.62,-334.14 542.73,-328.72 532.23,-327.28 533.62,-334.14"/>
</g>
<!-- Node15 -->
<g id="node15" class="node">
<title>Node15</title>
<g id="a_node15"><a xlink:href="classsss_1_1api_1_1S3Api.html#a6f518c16679e99f119966b36ac28463f" target="_top" xlink:title=" ">
<polygon fill="white" stroke="#666666" points="653.12,-291.25 535.88,-291.25 535.88,-272 653.12,-272 653.12,-291.25"/>
<text text-anchor="middle" x="594.5" y="-277.75" font-family="Helvetica,sans-Serif" font-size="10.00">sss::api::S3Api::Secret</text>
</a>
</g>
</g>
<!-- Node3&#45;&gt;Node15 -->
<g id="edge14" class="edge">
<title>Node3&#45;&gt;Node15</title>
<path fill="none" stroke="#63b8ff" d="M428.51,-345.51C450.17,-333.26 488.58,-312.65 523.5,-299.62 528.25,-297.85 533.24,-296.19 538.28,-294.65"/>
<polygon fill="#63b8ff" stroke="#63b8ff" points="538.99,-297.8 547.63,-291.67 537.05,-291.08 538.99,-297.8"/>
</g>
<!-- Node16 -->
<g id="node16" class="node">
<title>Node16</title>
<g id="a_node16"><a xlink:href="classsss_1_1WebClient.html#afc3b7a92568fbb1ea447918920ca266e" target="_top" xlink:title="Set endpoint: &#160;&lt;proto&gt;://&lt;server&gt;:&lt;port&gt;">
<polygon fill="white" stroke="#666666" points="665.5,-254.25 523.5,-254.25 523.5,-235 665.5,-235 665.5,-254.25"/>
<text text-anchor="middle" x="594.5" y="-240.75" font-family="Helvetica,sans-Serif" font-size="10.00">sss::WebClient::SetEndpoint</text>
</a>
</g>
</g>
<!-- Node3&#45;&gt;Node16 -->
<g id="edge15" class="edge">
<title>Node3&#45;&gt;Node16</title>
<path fill="none" stroke="#63b8ff" d="M420.28,-345.53C438.2,-326.41 479.96,-284.83 523.5,-262.62 526.57,-261.06 529.8,-259.62 533.1,-258.3"/>
<polygon fill="#63b8ff" stroke="#63b8ff" points="533.94,-261.36 542.18,-254.69 531.58,-254.77 533.94,-261.36"/>
</g>
<!-- Node17 -->
<g id="node17" class="node">
<title>Node17</title>
<g id="a_node17"><a xlink:href="classsss_1_1WebClient.html#af6233ffd7b294e1e7e606e838dd44e9e" target="_top" xlink:title=" ">
<polygon fill="white" stroke="#666666" points="662.5,-217.25 526.5,-217.25 526.5,-198 662.5,-198 662.5,-217.25"/>
<text text-anchor="middle" x="594.5" y="-203.75" font-family="Helvetica,sans-Serif" font-size="10.00">sss::WebClient::SetMethod</text>
</a>
</g>
</g>
<!-- Node3&#45;&gt;Node17 -->
<g id="edge17" class="edge">
<title>Node3&#45;&gt;Node17</title>
<path fill="none" stroke="#63b8ff" d="M416.75,-345.68C431.13,-321.2 471.77,-257.69 523.5,-225.62 525.66,-224.29 527.92,-223.05 530.24,-221.9"/>
<polygon fill="#63b8ff" stroke="#63b8ff" points="531.28,-224.83 539.1,-217.68 528.53,-218.4 531.28,-224.83"/>
</g>
<!-- Node19 -->
<g id="node19" class="node">
<title>Node19</title>
<g id="a_node19"><a xlink:href="group__Sign.html#ga3ae8e18ef70752b7369fca66c40c526b" target="_top" xlink:title="Sign headers.">
<polygon fill="white" stroke="#666666" points="641.5,-365.25 547.5,-365.25 547.5,-346 641.5,-346 641.5,-365.25"/>
<text text-anchor="middle" x="594.5" y="-351.75" font-family="Helvetica,sans-Serif" font-size="10.00">sss::SignHeaders</text>
</a>
</g>
</g>
<!-- Node3&#45;&gt;Node19 -->
<g id="edge22" class="edge">
<title>Node3&#45;&gt;Node19</title>
<path fill="none" stroke="#63b8ff" d="M469.08,-355.62C490.57,-355.62 514.92,-355.62 536.34,-355.62"/>
<polygon fill="#63b8ff" stroke="#63b8ff" points="536.25,-359.13 546.25,-355.62 536.25,-352.13 536.25,-359.13"/>
</g>
<!-- Node6 -->
<g id="node6" class="node">
<title>Node6</title>
<g id="a_node6"><a xlink:href="classsss_1_1WebClient.html#a381f5715b7a2f19a0d4414d278874bae" target="_top" xlink:title="Clear internal buffers.">
<polygon fill="white" stroke="#666666" points="860.38,-515.25 716.88,-515.25 716.88,-496 860.38,-496 860.38,-515.25"/>
<text text-anchor="middle" x="788.62" y="-501.75" font-family="Helvetica,sans-Serif" font-size="10.00">sss::WebClient::ClearBuffers</text>
</a>
</g>
</g>
<!-- Node5&#45;&gt;Node6 -->
<g id="edge5" class="edge">
<title>Node5&#45;&gt;Node6</title>
<path fill="none" stroke="#63b8ff" d="M649.53,-479.75C672.34,-484.02 699.09,-489.04 722.94,-493.5"/>
<polygon fill="#63b8ff" stroke="#63b8ff" points="722.2,-497.11 732.67,-495.51 723.48,-490.23 722.2,-497.11"/>
</g>
<!-- Node7 -->
<g id="node7" class="node">
<title>Node7</title>
<g id="a_node7"><a xlink:href="classsss_1_1WebClient.html#a96837f149bb473853a6523d096a25c56" target="_top" xlink:title="Reset read/write functions to default.">
<polygon fill="white" stroke="#666666" points="875.75,-478.25 701.5,-478.25 701.5,-459 875.75,-459 875.75,-478.25"/>
<text text-anchor="middle" x="788.62" y="-464.75" font-family="Helvetica,sans-Serif" font-size="10.00">sss::WebClient::ResetRWFunctions</text>
</a>
</g>
</g>
<!-- Node5&#45;&gt;Node7 -->
<g id="edge6" class="edge">
<title>Node5&#45;&gt;Node7</title>
<path fill="none" stroke="#63b8ff" d="M650.81,-469.34C663.23,-469.27 676.77,-469.2 690.34,-469.13"/>
<polygon fill="#63b8ff" stroke="#63b8ff" points="690.23,-472.63 700.21,-469.07 690.19,-465.63 690.23,-472.63"/>
</g>
<!-- Node5&#45;&gt;Node10 -->
<g id="edge9" class="edge">
<title>Node5&#45;&gt;Node10</title>
<path fill="none" stroke="#63b8ff" d="M633.34,-479.68C644.1,-483.3 655.58,-487.94 665.5,-493.62 683.82,-504.13 682.57,-515.28 701.5,-524.62 704.82,-526.26 708.28,-527.75 711.83,-529.11"/>
<polygon fill="#63b8ff" stroke="#63b8ff" points="710.42,-532.66 721.02,-532.58 712.68,-526.04 710.42,-532.66"/>
</g>
<!-- Node5&#45;&gt;Node11 -->
<g id="edge10" class="edge">
<title>Node5&#45;&gt;Node11</title>
<path fill="none" stroke="#63b8ff" d="M646.48,-459.54C670.9,-454.71 700.34,-448.89 726,-443.81"/>
<polygon fill="#63b8ff" stroke="#63b8ff" points="726.61,-447.06 735.74,-441.69 725.25,-440.2 726.61,-447.06"/>
</g>
<!-- Node5&#45;&gt;Node12 -->
<g id="edge11" class="edge">
<title>Node5&#45;&gt;Node12</title>
<path fill="none" stroke="#63b8ff" d="M608.43,-479.59C622.69,-490.72 646.18,-509.43 665.5,-526.62 682.17,-541.46 681.91,-550.93 701.5,-561.62 705.98,-564.07 710.75,-566.22 715.66,-568.1"/>
<polygon fill="#63b8ff" stroke="#63b8ff" points="714.28,-571.68 724.88,-571.62 716.56,-565.06 714.28,-571.68"/>
</g>
<!-- Node5&#45;&gt;Node13 -->
<g id="edge12" class="edge">
<title>Node5&#45;&gt;Node13</title>
<path fill="none" stroke="#63b8ff" d="M610.65,-459.66C630.65,-446.94 667.34,-425.08 701.5,-412.62 706.66,-410.74 712.07,-409.04 717.56,-407.49"/>
<polygon fill="#63b8ff" stroke="#63b8ff" points="718.37,-410.63 727.16,-404.71 716.6,-403.86 718.37,-410.63"/>
</g>
<!-- Node8 -->
<g id="node8" class="node">
<title>Node8</title>
<g id="a_node8"><a xlink:href="classsss_1_1WebClient.html#a88dbcc61562e84aa9ebf1eabf887ac28" target="_top" xlink:title=" ">
<polygon fill="white" stroke="#666666" points="1076.25,-521.25 911.75,-521.25 911.75,-502 1076.25,-502 1076.25,-521.25"/>
<text text-anchor="middle" x="994" y="-507.75" font-family="Helvetica,sans-Serif" font-size="10.00">sss::WebClient::SetReadFunction</text>
</a>
</g>
</g>
<!-- Node7&#45;&gt;Node8 -->
<g id="edge7" class="edge">
<title>Node7&#45;&gt;Node8</title>
<path fill="none" stroke="#63b8ff" d="M837.92,-478.68C850.25,-481.26 863.49,-484.04 875.75,-486.62 895.16,-490.72 916.37,-495.24 935.35,-499.29"/>
<polygon fill="#63b8ff" stroke="#63b8ff" points="934.43,-502.88 944.94,-501.55 935.89,-496.03 934.43,-502.88"/>
</g>
<!-- Node9 -->
<g id="node9" class="node">
<title>Node9</title>
<g id="a_node9"><a xlink:href="classsss_1_1WebClient.html#a002876073b3869a9b9a9d709d14f1d7e" target="_top" xlink:title=" ">
<polygon fill="white" stroke="#666666" points="1057.12,-483.88 930.88,-483.88 930.88,-453.38 1057.12,-453.38 1057.12,-483.88"/>
<text text-anchor="start" x="938.88" y="-470.38" font-family="Helvetica,sans-Serif" font-size="10.00">sss::WebClient::SetWrite</text>
<text text-anchor="middle" x="994" y="-459.12" font-family="Helvetica,sans-Serif" font-size="10.00">Function</text>
</a>
</g>
</g>
<!-- Node7&#45;&gt;Node9 -->
<g id="edge8" class="edge">
<title>Node7&#45;&gt;Node9</title>
<path fill="none" stroke="#63b8ff" d="M876.17,-468.62C890.73,-468.62 905.71,-468.62 919.89,-468.62"/>
<polygon fill="#63b8ff" stroke="#63b8ff" points="919.55,-472.13 929.55,-468.62 919.55,-465.13 919.55,-472.13"/>
</g>
<!-- Node18 -->
<g id="node18" class="node">
<title>Node18</title>
<g id="a_node18"><a xlink:href="lib_2include_2utility_8h.html#ae153c064d6f1beda845702f67605b20e" target="_top" xlink:title=" ">
<polygon fill="white" stroke="#666666" points="1031.25,-195.25 956.75,-195.25 956.75,-176 1031.25,-176 1031.25,-195.25"/>
<text text-anchor="middle" x="994" y="-181.75" font-family="Helvetica,sans-Serif" font-size="10.00">sss::ToUpper</text>
</a>
</g>
</g>
<!-- Node17&#45;&gt;Node18 -->
<g id="edge18" class="edge">
<title>Node17&#45;&gt;Node18</title>
<path fill="none" stroke="#63b8ff" d="M662.93,-203.89C743.25,-199.45 875.35,-192.14 945.61,-188.25"/>
<polygon fill="#63b8ff" stroke="#63b8ff" points="945.54,-191.7 955.33,-187.65 945.16,-184.71 945.54,-191.7"/>
</g>
<!-- Node18&#45;&gt;Node18 -->
<g id="edge19" class="edge">
<title>Node18&#45;&gt;Node18</title>
<path fill="none" stroke="#63b8ff" d="M961.85,-195.54C947.18,-204.15 957.9,-213.25 994,-213.25 1017.13,-213.25 1029.84,-209.51 1032.13,-204.56"/>
<polygon fill="#63b8ff" stroke="#63b8ff" points="1034.59,-202.94 1026.15,-196.54 1028.76,-206.81 1034.59,-202.94"/>
</g>
<!-- Node20 -->
<g id="node20" class="node">
<title>Node20</title>
<g id="a_node20"><a xlink:href="group__Ranges.html#ga0aa7f3b15d2ebf9b597a1b5ba38ae8ac" target="_top" xlink:title="return iterator at start position">
<polygon fill="white" stroke="#666666" points="1024.5,-435.25 963.5,-435.25 963.5,-416 1024.5,-416 1024.5,-435.25"/>
<text text-anchor="middle" x="994" y="-421.75" font-family="Helvetica,sans-Serif" font-size="10.00">sss::begin</text>
</a>
</g>
</g>
<!-- Node19&#45;&gt;Node20 -->
<g id="edge23" class="edge">
<title>Node19&#45;&gt;Node20</title>
<path fill="none" stroke="#63b8ff" d="M642,-350.08C699.38,-345.19 798.78,-343.18 875.75,-375.62 895.48,-383.94 892.69,-397.89 911.75,-407.62 924.34,-414.06 939.17,-418.2 952.7,-420.87"/>
<polygon fill="#63b8ff" stroke="#63b8ff" points="951.74,-424.43 962.2,-422.7 952.95,-417.53 951.74,-424.43"/>
</g>
<!-- Node21 -->
<g id="node21" class="node">
<title>Node21</title>
<g id="a_node21"><a xlink:href="group__Sign.html#ga904d511ec786b87644cc90dc96dd8f3f" target="_top" xlink:title="Compute signature.">
<polygon fill="white" stroke="#666666" points="848,-288.25 729.25,-288.25 729.25,-269 848,-269 848,-288.25"/>
<text text-anchor="middle" x="788.62" y="-274.75" font-family="Helvetica,sans-Serif" font-size="10.00">sss::ComputeSignature</text>
</a>
</g>
</g>
<!-- Node19&#45;&gt;Node21 -->
<g id="edge24" class="edge">
<title>Node19&#45;&gt;Node21</title>
<path fill="none" stroke="#63b8ff" d="M641.91,-347.12C650.04,-344.68 658.22,-341.57 665.5,-337.62 684.58,-327.28 682.64,-315.36 701.5,-304.62 710.36,-299.58 720.31,-295.41 730.21,-292.01"/>
<polygon fill="#63b8ff" stroke="#63b8ff" points="731.01,-295.11 739.47,-288.73 728.88,-288.44 731.01,-295.11"/>
</g>
<!-- Node23 -->
<g id="node23" class="node">
<title>Node23</title>
<g id="a_node23"><a xlink:href="group__Ranges.html#ga4f73053571587e79eb3db628f5e6ef99" target="_top" xlink:title="return iterator at end position">
<polygon fill="white" stroke="#666666" points="1020.75,-398.25 967.25,-398.25 967.25,-379 1020.75,-379 1020.75,-398.25"/>
<text text-anchor="middle" x="994" y="-384.75" font-family="Helvetica,sans-Serif" font-size="10.00">sss::end</text>
</a>
</g>
</g>
<!-- Node19&#45;&gt;Node23 -->
<g id="edge35" class="edge">
<title>Node19&#45;&gt;Node23</title>
<path fill="none" stroke="#63b8ff" d="M632.1,-345.56C686.8,-332.36 792.36,-314.01 875.75,-342.62 894.92,-349.2 893.41,-362 911.75,-370.62 925.61,-377.14 941.92,-381.35 956.27,-384.04"/>
<polygon fill="#63b8ff" stroke="#63b8ff" points="955.35,-387.6 965.8,-385.81 956.52,-380.7 955.35,-387.6"/>
</g>
<!-- Node21&#45;&gt;Node18 -->
<g id="edge33" class="edge">
<title>Node21&#45;&gt;Node18</title>
<path fill="none" stroke="#63b8ff" d="M810.75,-268.61C835.05,-257.13 876.18,-237.8 911.75,-221.62 927.61,-214.41 945.29,-206.56 960.1,-200.03"/>
<polygon fill="#63b8ff" stroke="#63b8ff" points="961.09,-202.98 968.83,-195.75 958.27,-196.57 961.09,-202.98"/>
</g>
<!-- Node21&#45;&gt;Node20 -->
<g id="edge25" class="edge">
<title>Node21&#45;&gt;Node20</title>
<path fill="none" stroke="#63b8ff" d="M807.21,-288.57C825.95,-299.83 855.63,-319.63 875.75,-342.62 897.49,-367.48 885.29,-387.86 911.75,-407.62 923.35,-416.29 938.32,-420.93 952.24,-423.37"/>
<polygon fill="#63b8ff" stroke="#63b8ff" points="951.71,-426.97 962.1,-424.88 952.68,-420.03 951.71,-426.97"/>
</g>
<!-- Node22 -->
<g id="node22" class="node">
<title>Node22</title>
<g id="a_node22"><a xlink:href="group__Internal.html#ga74c69f25ce04876e114759c0023b2a12" target="_top" xlink:title=" ">
<polygon fill="white" stroke="#666666" points="1056.75,-287.25 931.25,-287.25 931.25,-268 1056.75,-268 1056.75,-287.25"/>
<text text-anchor="middle" x="994" y="-273.75" font-family="Helvetica,sans-Serif" font-size="10.00">sss::CreateSignatureKey</text>
</a>
</g>
</g>
<!-- Node21&#45;&gt;Node22 -->
<g id="edge26" class="edge">
<title>Node21&#45;&gt;Node22</title>
<path fill="none" stroke="#63b8ff" d="M848.45,-278.34C870.73,-278.23 896.37,-278.1 919.81,-277.98"/>
<polygon fill="#63b8ff" stroke="#63b8ff" points="919.78,-281.48 929.76,-277.93 919.75,-274.48 919.78,-281.48"/>
</g>
<!-- Node21&#45;&gt;Node23 -->
<g id="edge27" class="edge">
<title>Node21&#45;&gt;Node23</title>
<path fill="none" stroke="#63b8ff" d="M845.62,-288.62C856.39,-292.37 867.02,-297.53 875.75,-304.62 901.68,-325.7 885.04,-350.54 911.75,-370.62 924.48,-380.2 941.31,-384.86 956.36,-387.07"/>
<polygon fill="#63b8ff" stroke="#63b8ff" points="955.57,-390.62 965.91,-388.28 956.37,-383.67 955.57,-390.62"/>
</g>
<!-- Node24 -->
<g id="node24" class="node">
<title>Node24</title>
<g id="a_node24"><a xlink:href="group__Internal.html#ga50353a351a93b1213dc4e5211c767d85" target="_top" xlink:title=" ">
<polygon fill="white" stroke="#666666" points="1033.88,-250.25 954.12,-250.25 954.12,-231 1033.88,-231 1033.88,-250.25"/>
<text text-anchor="middle" x="994" y="-236.75" font-family="Helvetica,sans-Serif" font-size="10.00">sss::GetDates</text>
</a>
</g>
</g>
<!-- Node21&#45;&gt;Node24 -->
<g id="edge28" class="edge">
<title>Node21&#45;&gt;Node24</title>
<path fill="none" stroke="#63b8ff" d="M843.59,-268.54C874.51,-262.76 913.04,-255.57 943.23,-249.92"/>
<polygon fill="#63b8ff" stroke="#63b8ff" points="943.76,-253.2 952.94,-247.92 942.47,-246.32 943.76,-253.2"/>
</g>
<!-- Node25 -->
<g id="node25" class="node">
<title>Node25</title>
<g id="a_node25"><a xlink:href="group__Internal.html#ga990dfaae4abc6bf20a28f9772b7bcd16" target="_top" xlink:title="Byte to hex string conversion.">
<polygon fill="white" stroke="#666666" points="1021.88,-361.25 966.12,-361.25 966.12,-342 1021.88,-342 1021.88,-361.25"/>
<text text-anchor="middle" x="994" y="-347.75" font-family="Helvetica,sans-Serif" font-size="10.00">sss::Hex</text>
</a>
</g>
</g>
<!-- Node21&#45;&gt;Node25 -->
<g id="edge29" class="edge">
<title>Node21&#45;&gt;Node25</title>
<path fill="none" stroke="#63b8ff" d="M834.73,-288.71C848.35,-292.67 863.04,-297.92 875.75,-304.62 893.92,-314.22 893.23,-324.72 911.75,-333.62 925.11,-340.05 940.81,-344.21 954.82,-346.9"/>
<polygon fill="#63b8ff" stroke="#63b8ff" points="954.18,-350.51 964.63,-348.75 955.36,-343.61 954.18,-350.51"/>
</g>
<!-- Node26 -->
<g id="node26" class="node">
<title>Node26</title>
<g id="a_node26"><a xlink:href="group__Internal.html#ga7160aa316f2c6633467b47588263c690" target="_top" xlink:title=" ">
<polygon fill="white" stroke="#666666" points="1035.75,-324.25 952.25,-324.25 952.25,-305 1035.75,-305 1035.75,-324.25"/>
<text text-anchor="middle" x="994" y="-310.75" font-family="Helvetica,sans-Serif" font-size="10.00">sss::ParseURL</text>
</a>
</g>
</g>
<!-- Node21&#45;&gt;Node26 -->
<g id="edge30" class="edge">
<title>Node21&#45;&gt;Node26</title>
<path fill="none" stroke="#63b8ff" d="M846.82,-288.75C876.51,-294 912.5,-300.38 941.35,-305.48"/>
<polygon fill="#63b8ff" stroke="#63b8ff" points="940.56,-309.07 951.02,-307.37 941.78,-302.18 940.56,-309.07"/>
</g>
<!-- Node21&#45;&gt;Node27 -->
<g id="edge31" class="edge">
<title>Node21&#45;&gt;Node27</title>
<path fill="none" stroke="#63b8ff" d="M798.25,-268.79C817.1,-247.76 864.09,-197.82 911.75,-166.62 924.94,-157.99 940.55,-150.51 954.54,-144.64"/>
<polygon fill="#63b8ff" stroke="#63b8ff" points="955.43,-147.65 963.39,-140.66 952.8,-141.17 955.43,-147.65"/>
</g>
<!-- Node28 -->
<g id="node28" class="node">
<title>Node28</title>
<g id="a_node28"><a xlink:href="group__Internal.html#ga0f079ace8729714b3949eabe22f228c9" target="_top" xlink:title=" ">
<polygon fill="white" stroke="#666666" points="1035.75,-102.25 952.25,-102.25 952.25,-83 1035.75,-83 1035.75,-102.25"/>
<text text-anchor="middle" x="994" y="-88.75" font-family="Helvetica,sans-Serif" font-size="10.00">sss::UrlEncode</text>
</a>
</g>
</g>
<!-- Node21&#45;&gt;Node28 -->
<g id="edge34" class="edge">
<title>Node21&#45;&gt;Node28</title>
<path fill="none" stroke="#63b8ff" d="M793.76,-268.84C806.57,-239.78 848.55,-153.45 911.75,-111.62 920.54,-105.81 930.89,-101.77 941.21,-98.96"/>
<polygon fill="#63b8ff" stroke="#63b8ff" points="941.95,-102.14 950.88,-96.45 940.35,-95.33 941.95,-102.14"/>
</g>
<!-- Node27&#45;&gt;Node27 -->
<g id="edge32" class="edge">
<title>Node27&#45;&gt;Node27</title>
<path fill="none" stroke="#63b8ff" d="M961.85,-140.54C947.18,-149.15 957.9,-158.25 994,-158.25 1017.13,-158.25 1029.84,-154.51 1032.13,-149.56"/>
<polygon fill="#63b8ff" stroke="#63b8ff" points="1034.59,-147.94 1026.15,-141.54 1028.76,-151.81 1034.59,-147.94"/>
</g>
<!-- Node32&#45;&gt;Node28 -->
<g id="edge41" class="edge">
<title>Node32&#45;&gt;Node28</title>
<path fill="none" stroke="#63b8ff" d="M487.79,-90.02C608.23,-90.64 838.61,-91.83 941.34,-92.36"/>
<polygon fill="#63b8ff" stroke="#63b8ff" points="941.03,-95.86 951.05,-92.41 941.07,-88.86 941.03,-95.86"/>
</g>
<!-- Node33&#45;&gt;Node17 -->
<g id="edge45" class="edge">
<title>Node33&#45;&gt;Node17</title>
<path fill="none" stroke="#63b8ff" d="M480.85,-211.33C492.13,-210.96 503.87,-210.57 515.34,-210.2"/>
<polygon fill="#63b8ff" stroke="#63b8ff" points="515.34,-213.67 525.22,-209.84 515.11,-206.67 515.34,-213.67"/>
</g>
<!-- Node33&#45;&gt;Node31 -->
<g id="edge44" class="edge">
<title>Node33&#45;&gt;Node31</title>
<path fill="none" stroke="#63b8ff" d="M477.74,-197.92C498.26,-193.08 520.57,-187.82 540.08,-183.22"/>
<polygon fill="#63b8ff" stroke="#63b8ff" points="540.68,-186.44 549.61,-180.74 539.07,-179.63 540.68,-186.44"/>
</g>
</g>
</svg>
