<?xml version="1.0" encoding="UTF-8" standalone="no"?>
<!DOCTYPE svg PUBLIC "-//W3C//DTD SVG 1.1//EN"
 "http://www.w3.org/Graphics/SVG/1.1/DTD/svg11.dtd">
<!-- Generated by graphviz version 8.0.5 (20230430.1635)
 -->
<!-- Title: sss::api::S3Api::PutFileObject Pages: 1 -->
<svg width="888pt" height="707pt"
 viewBox="0.00 0.00 887.50 707.25" xmlns="http://www.w3.org/2000/svg" xmlns:xlink="http://www.w3.org/1999/xlink">
<g id="graph0" class="graph" transform="scale(1 1) rotate(0) translate(4 703.25)">
<title>sss::api::S3Api::PutFileObject</title>
<!-- Node1 -->
<g id="node1" class="node">
<title>Node1</title>
<g id="a_node1"><a xlink:title=" ">
<polygon fill="#999999" stroke="#666666" points="119.5,-306.88 0,-306.88 0,-276.38 119.5,-276.38 119.5,-306.88"/>
<text text-anchor="start" x="8" y="-293.38" font-family="Helvetica,sans-Serif" font-size="10.00">sss::api::S3Api::PutFile</text>
<text text-anchor="middle" x="59.75" y="-282.12" font-family="Helvetica,sans-Serif" font-size="10.00">Object</text>
</a>
</g>
</g>
<!-- Node2 -->
<g id="node2" class="node">
<title>Node2</title>
<g id="a_node2"><a xlink:href="classsss_1_1api_1_1S3Api.html#a840772746fbb0a79c161037da7b24a31" target="_top" xlink:title="[WebClient::Config]">
<polygon fill="white" stroke="#666666" points="281.75,-510.25 164.5,-510.25 164.5,-491 281.75,-491 281.75,-510.25"/>
<text text-anchor="middle" x="223.12" y="-496.75" font-family="Helvetica,sans-Serif" font-size="10.00">sss::api::S3Api::Config</text>
</a>
</g>
</g>
<!-- Node1&#45;&gt;Node2 -->
<g id="edge1" class="edge">
<title>Node1&#45;&gt;Node2</title>
<path fill="none" stroke="#63b8ff" d="M72.88,-307.33C102.19,-345.3 176.78,-441.89 208.02,-482.36"/>
<polygon fill="#63b8ff" stroke="#63b8ff" points="205.77,-484.17 214.65,-489.95 211.31,-479.89 205.77,-484.17"/>
</g>
<!-- Node28 -->
<g id="node28" class="node">
<title>Node28</title>
<g id="a_node28"><a xlink:href="classsss_1_1WebClient.html#a93d66d3941f37ec425bcdf0eef3836e4" target="_top" xlink:title=" ">
<polygon fill="white" stroke="#666666" points="462,-246.25 333.5,-246.25 333.5,-227 462,-227 462,-246.25"/>
<text text-anchor="middle" x="397.75" y="-232.75" font-family="Helvetica,sans-Serif" font-size="10.00">sss::WebClient::ErrorMsg</text>
</a>
</g>
</g>
<!-- Node1&#45;&gt;Node28 -->
<g id="edge35" class="edge">
<title>Node1&#45;&gt;Node28</title>
<path fill="none" stroke="#63b8ff" d="M119.95,-303.9C167.94,-311.02 236.31,-314.61 290.75,-291.62 311.89,-282.7 306.9,-266.13 326.75,-254.62 329.12,-253.25 331.6,-251.98 334.15,-250.8"/>
<polygon fill="#63b8ff" stroke="#63b8ff" points="335.3,-253.71 343.26,-246.72 332.68,-247.22 335.3,-253.71"/>
</g>
<!-- Node29 -->
<g id="node29" class="node">
<title>Node29</title>
<g id="a_node29"><a xlink:href="classsss_1_1WebClient.html#a42af351286f1fa68c3385d81f0bc2015" target="_top" xlink:title=" ">
<polygon fill="white" stroke="#666666" points="669.25,-358.25 514.5,-358.25 514.5,-339 669.25,-339 669.25,-358.25"/>
<text text-anchor="middle" x="591.88" y="-344.75" font-family="Helvetica,sans-Serif" font-size="10.00">sss::WebClient::GetHeaderText</text>
</a>
</g>
</g>
<!-- Node1&#45;&gt;Node29 -->
<g id="edge36" class="edge">
<title>Node1&#45;&gt;Node29</title>
<path fill="none" stroke="#63b8ff" d="M119.6,-307.37C131.42,-310.12 143.81,-312.71 155.5,-314.62 275.08,-334.26 415.05,-342.63 503.34,-346.15"/>
<polygon fill="#63b8ff" stroke="#63b8ff" points="502.99,-349.68 513.12,-346.56 503.26,-342.68 502.99,-349.68"/>
</g>
<!-- Node31 -->
<g id="node31" class="node">
<title>Node31</title>
<g id="a_node31"><a xlink:href="group__ErrorHandling.html#ga781648957bfce0bbc86cbdbff94e28a6" target="_top" xlink:title=" ">
<polygon fill="white" stroke="#666666" points="267.88,-282.25 178.38,-282.25 178.38,-263 267.88,-263 267.88,-282.25"/>
<text text-anchor="middle" x="223.12" y="-268.75" font-family="Helvetica,sans-Serif" font-size="10.00">sss::HandleError</text>
</a>
</g>
</g>
<!-- Node1&#45;&gt;Node31 -->
<g id="edge40" class="edge">
<title>Node1&#45;&gt;Node31</title>
<path fill="none" stroke="#63b8ff" d="M119.92,-284.66C135.41,-282.83 152.05,-280.88 167.3,-279.08"/>
<polygon fill="#63b8ff" stroke="#63b8ff" points="167.6,-282.45 177.13,-277.81 166.78,-275.5 167.6,-282.45"/>
</g>
<!-- Node32 -->
<g id="node32" class="node">
<title>Node32</title>
<g id="a_node32"><a xlink:href="group__Parsing.html#ga020103649cb1ae997e00f10d72ad6acd" target="_top" xlink:title=" ">
<polygon fill="white" stroke="#666666" points="270.88,-245.25 175.38,-245.25 175.38,-226 270.88,-226 270.88,-245.25"/>
<text text-anchor="middle" x="223.12" y="-231.75" font-family="Helvetica,sans-Serif" font-size="10.00">sss::HTTPHeader</text>
</a>
</g>
</g>
<!-- Node1&#45;&gt;Node32 -->
<g id="edge41" class="edge">
<title>Node1&#45;&gt;Node32</title>
<path fill="none" stroke="#63b8ff" d="M96.82,-276C114.35,-268.7 135.83,-260.2 155.5,-253.62 160.62,-251.91 166.01,-250.24 171.41,-248.66"/>
<polygon fill="#63b8ff" stroke="#63b8ff" points="172.07,-251.82 180.73,-245.72 170.16,-245.09 172.07,-251.82"/>
</g>
<!-- Node33 -->
<g id="node33" class="node">
<title>Node33</title>
<g id="a_node33"><a xlink:href="classsss_1_1WebClient.html#ad038e41cfc902f6e49754c52a9a71992" target="_top" xlink:title="Upload file.">
<polygon fill="white" stroke="#666666" points="290.75,-208.25 155.5,-208.25 155.5,-189 290.75,-189 290.75,-208.25"/>
<text text-anchor="middle" x="223.12" y="-194.75" font-family="Helvetica,sans-Serif" font-size="10.00">sss::WebClient::UploadFile</text>
</a>
</g>
</g>
<!-- Node1&#45;&gt;Node33 -->
<g id="edge42" class="edge">
<title>Node1&#45;&gt;Node33</title>
<path fill="none" stroke="#63b8ff" d="M76.12,-276.14C93.79,-259.18 124.4,-232.3 155.5,-216.62 158.6,-215.06 161.86,-213.62 165.19,-212.3"/>
<polygon fill="#63b8ff" stroke="#63b8ff" points="166.11,-215.33 174.35,-208.66 163.75,-208.74 166.11,-215.33"/>
</g>
<!-- Node3 -->
<g id="node3" class="node">
<title>Node3</title>
<g id="a_node3"><a xlink:href="classsss_1_1api_1_1S3Api.html#aea9741d60e74775ccd4de1c2c58f64fa" target="_top" xlink:title=" ">
<polygon fill="white" stroke="#666666" points="458.62,-586.25 336.88,-586.25 336.88,-567 458.62,-567 458.62,-586.25"/>
<text text-anchor="middle" x="397.75" y="-572.75" font-family="Helvetica,sans-Serif" font-size="10.00">sss::api::S3Api::Access</text>
</a>
</g>
</g>
<!-- Node2&#45;&gt;Node3 -->
<g id="edge2" class="edge">
<title>Node2&#45;&gt;Node3</title>
<path fill="none" stroke="#63b8ff" d="M241.93,-510.6C262.12,-521.69 296.21,-539.72 326.75,-552.62 335.43,-556.29 344.87,-559.82 353.94,-563"/>
<polygon fill="#63b8ff" stroke="#63b8ff" points="352.74,-566.63 363.34,-566.55 355.01,-560.01 352.74,-566.63"/>
</g>
<!-- Node4 -->
<g id="node4" class="node">
<title>Node4</title>
<g id="a_node4"><a xlink:href="classsss_1_1api_1_1S3Api.html#a3718745d3b940462ae9f3b78f773b3a6" target="_top" xlink:title="Clear data and reset read and write functions.">
<polygon fill="white" stroke="#666666" points="453.75,-510.25 341.75,-510.25 341.75,-491 453.75,-491 453.75,-510.25"/>
<text text-anchor="middle" x="397.75" y="-496.75" font-family="Helvetica,sans-Serif" font-size="10.00">sss::api::S3Api::Clear</text>
</a>
</g>
</g>
<!-- Node2&#45;&gt;Node4 -->
<g id="edge3" class="edge">
<title>Node2&#45;&gt;Node4</title>
<path fill="none" stroke="#63b8ff" d="M282.09,-500.62C297.61,-500.62 314.5,-500.62 330.43,-500.62"/>
<polygon fill="#63b8ff" stroke="#63b8ff" points="330.28,-504.13 340.28,-500.62 330.28,-497.13 330.28,-504.13"/>
</g>
<!-- Node9 -->
<g id="node9" class="node">
<title>Node9</title>
<g id="a_node9"><a xlink:href="classsss_1_1WebClient.html#a75890c14fbe4a4bbac61718a4f3c064d" target="_top" xlink:title=" ">
<polygon fill="white" stroke="#666666" points="662.12,-584.25 521.62,-584.25 521.62,-565 662.12,-565 662.12,-584.25"/>
<text text-anchor="middle" x="591.88" y="-570.75" font-family="Helvetica,sans-Serif" font-size="10.00">sss::WebClient::SetHeaders</text>
</a>
</g>
</g>
<!-- Node2&#45;&gt;Node9 -->
<g id="edge15" class="edge">
<title>Node2&#45;&gt;Node9</title>
<path fill="none" stroke="#63b8ff" d="M273.97,-510.68C340.57,-524.12 458.49,-547.91 530.18,-562.38"/>
<polygon fill="#63b8ff" stroke="#63b8ff" points="529.35,-565.98 539.85,-564.53 530.74,-559.12 529.35,-565.98"/>
</g>
<!-- Node10 -->
<g id="node10" class="node">
<title>Node10</title>
<g id="a_node10"><a xlink:href="classsss_1_1WebClient.html#a12b5db6b8c667024557ab58059d39994" target="_top" xlink:title=" ">
<polygon fill="white" stroke="#666666" points="653.88,-436.25 529.88,-436.25 529.88,-417 653.88,-417 653.88,-436.25"/>
<text text-anchor="middle" x="591.88" y="-422.75" font-family="Helvetica,sans-Serif" font-size="10.00">sss::WebClient::SetPath</text>
</a>
</g>
</g>
<!-- Node2&#45;&gt;Node10 -->
<g id="edge19" class="edge">
<title>Node2&#45;&gt;Node10</title>
<path fill="none" stroke="#63b8ff" d="M273.97,-490.57C340.57,-477.13 458.49,-453.34 530.18,-438.87"/>
<polygon fill="#63b8ff" stroke="#63b8ff" points="530.74,-442.13 539.85,-436.72 529.35,-435.27 530.74,-442.13"/>
</g>
<!-- Node12 -->
<g id="node12" class="node">
<title>Node12</title>
<g id="a_node12"><a xlink:href="classsss_1_1WebClient.html#a9bf978d95b79728f6d60fc2bdb4fe546" target="_top" xlink:title=" ">
<polygon fill="white" stroke="#666666" points="677.88,-622.25 505.88,-622.25 505.88,-603 677.88,-603 677.88,-622.25"/>
<text text-anchor="middle" x="591.88" y="-608.75" font-family="Helvetica,sans-Serif" font-size="10.00">sss::WebClient::SetReqParameters</text>
</a>
</g>
</g>
<!-- Node2&#45;&gt;Node12 -->
<g id="edge20" class="edge">
<title>Node2&#45;&gt;Node12</title>
<path fill="none" stroke="#63b8ff" d="M231.19,-510.74C246.1,-531.14 283.02,-576.85 326.75,-595.62 379.18,-618.13 442.88,-622.81 494.59,-621.65"/>
<polygon fill="#63b8ff" stroke="#63b8ff" points="494.55,-625.12 504.44,-621.32 494.34,-618.13 494.55,-625.12"/>
</g>
<!-- Node13 -->
<g id="node13" class="node">
<title>Node13</title>
<g id="a_node13"><a xlink:href="classsss_1_1api_1_1S3Api.html#a25a999d87c121627166fc0a896f536c7" target="_top" xlink:title=" ">
<polygon fill="white" stroke="#666666" points="461.25,-434.25 334.25,-434.25 334.25,-415 461.25,-415 461.25,-434.25"/>
<text text-anchor="middle" x="397.75" y="-420.75" font-family="Helvetica,sans-Serif" font-size="10.00">sss::api::S3Api::Endpoint</text>
</a>
</g>
</g>
<!-- Node2&#45;&gt;Node13 -->
<g id="edge12" class="edge">
<title>Node2&#45;&gt;Node13</title>
<path fill="none" stroke="#63b8ff" d="M241.93,-490.65C262.12,-479.56 296.21,-461.53 326.75,-448.62 335.43,-444.96 344.87,-441.43 353.94,-438.25"/>
<polygon fill="#63b8ff" stroke="#63b8ff" points="355.01,-441.24 363.34,-434.7 352.74,-434.62 355.01,-441.24"/>
</g>
<!-- Node14 -->
<g id="node14" class="node">
<title>Node14</title>
<g id="a_node14"><a xlink:href="classsss_1_1api_1_1S3Api.html#a6f518c16679e99f119966b36ac28463f" target="_top" xlink:title=" ">
<polygon fill="white" stroke="#666666" points="456.38,-699.25 339.12,-699.25 339.12,-680 456.38,-680 456.38,-699.25"/>
<text text-anchor="middle" x="397.75" y="-685.75" font-family="Helvetica,sans-Serif" font-size="10.00">sss::api::S3Api::Secret</text>
</a>
</g>
</g>
<!-- Node2&#45;&gt;Node14 -->
<g id="edge13" class="edge">
<title>Node2&#45;&gt;Node14</title>
<path fill="none" stroke="#63b8ff" d="M227.1,-510.57C236.45,-540.1 268.2,-627.94 326.75,-671.62 328.2,-672.71 329.71,-673.73 331.27,-674.68"/>
<polygon fill="#63b8ff" stroke="#63b8ff" points="329.15,-678.04 339.64,-679.53 332.36,-671.83 329.15,-678.04"/>
</g>
<!-- Node15 -->
<g id="node15" class="node">
<title>Node15</title>
<g id="a_node15"><a xlink:href="classsss_1_1WebClient.html#afc3b7a92568fbb1ea447918920ca266e" target="_top" xlink:title="Set endpoint: &#160;&lt;proto&gt;://&lt;server&gt;:&lt;port&gt;">
<polygon fill="white" stroke="#666666" points="468.75,-662.25 326.75,-662.25 326.75,-643 468.75,-643 468.75,-662.25"/>
<text text-anchor="middle" x="397.75" y="-648.75" font-family="Helvetica,sans-Serif" font-size="10.00">sss::WebClient::SetEndpoint</text>
</a>
</g>
</g>
<!-- Node2&#45;&gt;Node15 -->
<g id="edge14" class="edge">
<title>Node2&#45;&gt;Node15</title>
<path fill="none" stroke="#63b8ff" d="M229.42,-510.54C242.63,-534.37 279.45,-595.38 326.75,-628.62 332.27,-632.5 338.47,-635.8 344.84,-638.59"/>
<polygon fill="#63b8ff" stroke="#63b8ff" points="343.32,-642.15 353.91,-642.57 345.89,-635.64 343.32,-642.15"/>
</g>
<!-- Node16 -->
<g id="node16" class="node">
<title>Node16</title>
<g id="a_node16"><a xlink:href="classsss_1_1WebClient.html#af6233ffd7b294e1e7e606e838dd44e9e" target="_top" xlink:title=" ">
<polygon fill="white" stroke="#666666" points="465.75,-283.25 329.75,-283.25 329.75,-264 465.75,-264 465.75,-283.25"/>
<text text-anchor="middle" x="397.75" y="-269.75" font-family="Helvetica,sans-Serif" font-size="10.00">sss::WebClient::SetMethod</text>
</a>
</g>
</g>
<!-- Node2&#45;&gt;Node16 -->
<g id="edge16" class="edge">
<title>Node2&#45;&gt;Node16</title>
<path fill="none" stroke="#63b8ff" d="M225.9,-490.95C232.53,-457.64 259.02,-346.73 326.75,-291.62 327.84,-290.73 328.98,-289.89 330.15,-289.08"/>
<polygon fill="#63b8ff" stroke="#63b8ff" points="331.69,-291.66 338.66,-283.68 328.23,-285.57 331.69,-291.66"/>
</g>
<!-- Node18 -->
<g id="node18" class="node">
<title>Node18</title>
<g id="a_node18"><a xlink:href="group__Sign.html#ga3ae8e18ef70752b7369fca66c40c526b" target="_top" xlink:title="Sign headers.">
<polygon fill="white" stroke="#666666" points="444.75,-320.25 350.75,-320.25 350.75,-301 444.75,-301 444.75,-320.25"/>
<text text-anchor="middle" x="397.75" y="-306.75" font-family="Helvetica,sans-Serif" font-size="10.00">sss::SignHeaders</text>
</a>
</g>
</g>
<!-- Node2&#45;&gt;Node18 -->
<g id="edge21" class="edge">
<title>Node2&#45;&gt;Node18</title>
<path fill="none" stroke="#63b8ff" d="M233.16,-490.68C260.9,-460.15 345.05,-367.53 380.61,-328.39"/>
<polygon fill="#63b8ff" stroke="#63b8ff" points="382.67,-331.23 386.8,-321.47 377.49,-326.52 382.67,-331.23"/>
</g>
<!-- Node5 -->
<g id="node5" class="node">
<title>Node5</title>
<g id="a_node5"><a xlink:href="classsss_1_1WebClient.html#a381f5715b7a2f19a0d4414d278874bae" target="_top" xlink:title="Clear internal buffers.">
<polygon fill="white" stroke="#666666" points="663.62,-510.25 520.12,-510.25 520.12,-491 663.62,-491 663.62,-510.25"/>
<text text-anchor="middle" x="591.88" y="-496.75" font-family="Helvetica,sans-Serif" font-size="10.00">sss::WebClient::ClearBuffers</text>
</a>
</g>
</g>
<!-- Node4&#45;&gt;Node5 -->
<g id="edge4" class="edge">
<title>Node4&#45;&gt;Node5</title>
<path fill="none" stroke="#63b8ff" d="M454.06,-500.62C471.21,-500.62 490.48,-500.62 509.02,-500.62"/>
<polygon fill="#63b8ff" stroke="#63b8ff" points="508.84,-504.13 518.84,-500.62 508.84,-497.13 508.84,-504.13"/>
</g>
<!-- Node6 -->
<g id="node6" class="node">
<title>Node6</title>
<g id="a_node6"><a xlink:href="classsss_1_1WebClient.html#a96837f149bb473853a6523d096a25c56" target="_top" xlink:title="Reset read/write functions to default.">
<polygon fill="white" stroke="#666666" points="679,-473.25 504.75,-473.25 504.75,-454 679,-454 679,-473.25"/>
<text text-anchor="middle" x="591.88" y="-459.75" font-family="Helvetica,sans-Serif" font-size="10.00">sss::WebClient::ResetRWFunctions</text>
</a>
</g>
</g>
<!-- Node4&#45;&gt;Node6 -->
<g id="edge5" class="edge">
<title>Node4&#45;&gt;Node6</title>
<path fill="none" stroke="#63b8ff" d="M451.25,-490.51C474.86,-485.97 502.93,-480.56 527.69,-475.79"/>
<polygon fill="#63b8ff" stroke="#63b8ff" points="528.28,-479.05 537.44,-473.72 526.96,-472.18 528.28,-479.05"/>
</g>
<!-- Node4&#45;&gt;Node9 -->
<g id="edge8" class="edge">
<title>Node4&#45;&gt;Node9</title>
<path fill="none" stroke="#63b8ff" d="M437.01,-510.7C447.66,-514.31 458.99,-518.92 468.75,-524.62 487.24,-535.42 485.63,-547 504.75,-556.62 507.89,-558.2 511.16,-559.65 514.51,-560.96"/>
<polygon fill="#63b8ff" stroke="#63b8ff" points="513.17,-564.55 523.76,-564.54 515.47,-557.94 513.17,-564.55"/>
</g>
<!-- Node4&#45;&gt;Node10 -->
<g id="edge9" class="edge">
<title>Node4&#45;&gt;Node10</title>
<path fill="none" stroke="#63b8ff" d="M437.01,-490.55C447.66,-486.94 458.99,-482.33 468.75,-476.62 487.24,-465.83 485.63,-454.25 504.75,-444.62 509.37,-442.3 514.27,-440.28 519.3,-438.51"/>
<polygon fill="#63b8ff" stroke="#63b8ff" points="520.25,-441.57 528.76,-435.25 518.17,-434.89 520.25,-441.57"/>
</g>
<!-- Node11 -->
<g id="node11" class="node">
<title>Node11</title>
<g id="a_node11"><a xlink:href="classsss_1_1WebClient.html#a51ce0ecf6487b6a43072643fe4f4cb4e" target="_top" xlink:title=" ">
<polygon fill="white" stroke="#666666" points="664.38,-547.25 519.38,-547.25 519.38,-528 664.38,-528 664.38,-547.25"/>
<text text-anchor="middle" x="591.88" y="-533.75" font-family="Helvetica,sans-Serif" font-size="10.00">sss::WebClient::SetPostData</text>
</a>
</g>
</g>
<!-- Node4&#45;&gt;Node11 -->
<g id="edge10" class="edge">
<title>Node4&#45;&gt;Node11</title>
<path fill="none" stroke="#63b8ff" d="M451.25,-510.74C474.86,-515.28 502.93,-520.69 527.69,-525.46"/>
<polygon fill="#63b8ff" stroke="#63b8ff" points="526.96,-529.07 537.44,-527.53 528.28,-522.2 526.96,-529.07"/>
</g>
<!-- Node4&#45;&gt;Node12 -->
<g id="edge11" class="edge">
<title>Node4&#45;&gt;Node12</title>
<path fill="none" stroke="#63b8ff" d="M411.98,-510.75C426.31,-521.85 449.67,-540.4 468.75,-557.62 485.54,-572.79 484.91,-582.75 504.75,-593.62 508.25,-595.54 511.92,-597.26 515.7,-598.81"/>
<polygon fill="#63b8ff" stroke="#63b8ff" points="514.32,-602.4 524.91,-602.52 516.71,-595.82 514.32,-602.4"/>
</g>
<!-- Node7 -->
<g id="node7" class="node">
<title>Node7</title>
<g id="a_node7"><a xlink:href="classsss_1_1WebClient.html#a88dbcc61562e84aa9ebf1eabf887ac28" target="_top" xlink:title=" ">
<polygon fill="white" stroke="#666666" points="879.5,-437.25 715,-437.25 715,-418 879.5,-418 879.5,-437.25"/>
<text text-anchor="middle" x="797.25" y="-423.75" font-family="Helvetica,sans-Serif" font-size="10.00">sss::WebClient::SetReadFunction</text>
</a>
</g>
</g>
<!-- Node6&#45;&gt;Node7 -->
<g id="edge6" class="edge">
<title>Node6&#45;&gt;Node7</title>
<path fill="none" stroke="#63b8ff" d="M650.07,-453.5C674.43,-449.19 703.04,-444.12 728.46,-439.63"/>
<polygon fill="#63b8ff" stroke="#63b8ff" points="728.9,-442.92 738.13,-437.74 727.68,-436.03 728.9,-442.92"/>
</g>
<!-- Node8 -->
<g id="node8" class="node">
<title>Node8</title>
<g id="a_node8"><a xlink:href="classsss_1_1WebClient.html#a002876073b3869a9b9a9d709d14f1d7e" target="_top" xlink:title=" ">
<polygon fill="white" stroke="#666666" points="860.38,-485.88 734.12,-485.88 734.12,-455.38 860.38,-455.38 860.38,-485.88"/>
<text text-anchor="start" x="742.12" y="-472.38" font-family="Helvetica,sans-Serif" font-size="10.00">sss::WebClient::SetWrite</text>
<text text-anchor="middle" x="797.25" y="-461.12" font-family="Helvetica,sans-Serif" font-size="10.00">Function</text>
</a>
</g>
</g>
<!-- Node6&#45;&gt;Node8 -->
<g id="edge7" class="edge">
<title>Node6&#45;&gt;Node8</title>
<path fill="none" stroke="#63b8ff" d="M679.42,-466.6C693.98,-467.1 708.96,-467.62 723.14,-468.11"/>
<polygon fill="#63b8ff" stroke="#63b8ff" points="722.69,-471.63 732.8,-468.48 722.93,-464.63 722.69,-471.63"/>
</g>
<!-- Node17 -->
<g id="node17" class="node">
<title>Node17</title>
<g id="a_node17"><a xlink:href="lib_2include_2utility_8h.html#ae153c064d6f1beda845702f67605b20e" target="_top" xlink:title=" ">
<polygon fill="white" stroke="#666666" points="834.5,-19.25 760,-19.25 760,0 834.5,0 834.5,-19.25"/>
<text text-anchor="middle" x="797.25" y="-5.75" font-family="Helvetica,sans-Serif" font-size="10.00">sss::ToUpper</text>
</a>
</g>
</g>
<!-- Node16&#45;&gt;Node17 -->
<g id="edge17" class="edge">
<title>Node16&#45;&gt;Node17</title>
<path fill="none" stroke="#63b8ff" d="M455.84,-263.56C460.47,-261.4 464.85,-258.79 468.75,-255.62 496.83,-232.82 480.74,-209.68 504.75,-182.62 578.77,-99.2 616.98,-98.83 715,-45.62 729.62,-37.69 746.34,-30.05 760.8,-23.87"/>
<polygon fill="#63b8ff" stroke="#63b8ff" points="762,-26.74 769.86,-19.64 759.28,-20.29 762,-26.74"/>
</g>
<!-- Node17&#45;&gt;Node17 -->
<g id="edge18" class="edge">
<title>Node17&#45;&gt;Node17</title>
<path fill="none" stroke="#63b8ff" d="M765.1,-19.54C750.43,-28.15 761.15,-37.25 797.25,-37.25 820.38,-37.25 833.09,-33.51 835.38,-28.56"/>
<polygon fill="#63b8ff" stroke="#63b8ff" points="837.84,-26.94 829.4,-20.54 832.01,-30.81 837.84,-26.94"/>
</g>
<!-- Node19 -->
<g id="node19" class="node">
<title>Node19</title>
<g id="a_node19"><a xlink:href="group__Ranges.html#ga0aa7f3b15d2ebf9b597a1b5ba38ae8ac" target="_top" xlink:title="return iterator at start position">
<polygon fill="white" stroke="#666666" points="827.75,-351.25 766.75,-351.25 766.75,-332 827.75,-332 827.75,-351.25"/>
<text text-anchor="middle" x="797.25" y="-337.75" font-family="Helvetica,sans-Serif" font-size="10.00">sss::begin</text>
</a>
</g>
</g>
<!-- Node18&#45;&gt;Node19 -->
<g id="edge22" class="edge">
<title>Node18&#45;&gt;Node19</title>
<path fill="none" stroke="#63b8ff" d="M444.91,-313.27C500.48,-316.56 596.64,-322.62 679,-329.62 704.47,-331.79 732.99,-334.7 755.53,-337.11"/>
<polygon fill="#63b8ff" stroke="#63b8ff" points="755.08,-340.69 765.4,-338.28 755.83,-333.73 755.08,-340.69"/>
</g>
<!-- Node20 -->
<g id="node20" class="node">
<title>Node20</title>
<g id="a_node20"><a xlink:href="group__Sign.html#ga904d511ec786b87644cc90dc96dd8f3f" target="_top" xlink:title="Compute signature.">
<polygon fill="white" stroke="#666666" points="651.25,-211.25 532.5,-211.25 532.5,-192 651.25,-192 651.25,-211.25"/>
<text text-anchor="middle" x="591.88" y="-197.75" font-family="Helvetica,sans-Serif" font-size="10.00">sss::ComputeSignature</text>
</a>
</g>
</g>
<!-- Node18&#45;&gt;Node20 -->
<g id="edge23" class="edge">
<title>Node18&#45;&gt;Node20</title>
<path fill="none" stroke="#63b8ff" d="M445.21,-302.21C453.33,-299.76 461.5,-296.63 468.75,-292.62 488.02,-281.99 487.51,-272.3 504.75,-258.62 523.95,-243.39 547.2,-228.18 564.7,-217.3"/>
<polygon fill="#63b8ff" stroke="#63b8ff" points="566.08,-219.95 572.77,-211.73 562.42,-213.98 566.08,-219.95"/>
</g>
<!-- Node22 -->
<g id="node22" class="node">
<title>Node22</title>
<g id="a_node22"><a xlink:href="group__Ranges.html#ga4f73053571587e79eb3db628f5e6ef99" target="_top" xlink:title="return iterator at end position">
<polygon fill="white" stroke="#666666" points="824,-314.25 770.5,-314.25 770.5,-295 824,-295 824,-314.25"/>
<text text-anchor="middle" x="797.25" y="-300.75" font-family="Helvetica,sans-Serif" font-size="10.00">sss::end</text>
</a>
</g>
</g>
<!-- Node18&#45;&gt;Node22 -->
<g id="edge34" class="edge">
<title>Node18&#45;&gt;Node22</title>
<path fill="none" stroke="#63b8ff" d="M445.06,-303.17C463.57,-300.54 485.12,-297.92 504.75,-296.62 596.2,-290.61 704.08,-297.1 759.42,-301.42"/>
<polygon fill="#63b8ff" stroke="#63b8ff" points="758.84,-304.97 769.09,-302.28 759.4,-297.99 758.84,-304.97"/>
</g>
<!-- Node20&#45;&gt;Node17 -->
<g id="edge32" class="edge">
<title>Node20&#45;&gt;Node17</title>
<path fill="none" stroke="#63b8ff" d="M604.55,-191.69C622.2,-176.27 656.05,-145.04 679,-113.62 699.17,-86.01 689.99,-68.95 715,-45.62 725.06,-36.24 737.97,-29.03 750.52,-23.61"/>
<polygon fill="#63b8ff" stroke="#63b8ff" points="751.46,-26.6 759.45,-19.64 748.87,-20.1 751.46,-26.6"/>
</g>
<!-- Node20&#45;&gt;Node19 -->
<g id="edge24" class="edge">
<title>Node20&#45;&gt;Node19</title>
<path fill="none" stroke="#63b8ff" d="M601.6,-211.68C624.74,-238.15 687.8,-308.71 715,-323.62 727.4,-330.42 742.19,-334.65 755.73,-337.28"/>
<polygon fill="#63b8ff" stroke="#63b8ff" points="754.81,-340.85 765.25,-339.07 755.98,-333.95 754.81,-340.85"/>
</g>
<!-- Node21 -->
<g id="node21" class="node">
<title>Node21</title>
<g id="a_node21"><a xlink:href="group__Internal.html#ga74c69f25ce04876e114759c0023b2a12" target="_top" xlink:title=" ">
<polygon fill="white" stroke="#666666" points="860,-111.25 734.5,-111.25 734.5,-92 860,-92 860,-111.25"/>
<text text-anchor="middle" x="797.25" y="-97.75" font-family="Helvetica,sans-Serif" font-size="10.00">sss::CreateSignatureKey</text>
</a>
</g>
</g>
<!-- Node20&#45;&gt;Node21 -->
<g id="edge25" class="edge">
<title>Node20&#45;&gt;Node21</title>
<path fill="none" stroke="#63b8ff" d="M604.47,-191.62C625.21,-174.27 670.63,-138.63 715,-119.62 719.11,-117.87 723.41,-116.27 727.8,-114.82"/>
<polygon fill="#63b8ff" stroke="#63b8ff" points="728.58,-117.94 737.15,-111.7 726.56,-111.24 728.58,-117.94"/>
</g>
<!-- Node20&#45;&gt;Node22 -->
<g id="edge26" class="edge">
<title>Node20&#45;&gt;Node22</title>
<path fill="none" stroke="#63b8ff" d="M608.68,-211.57C626.14,-222.68 654.97,-241.37 679,-258.62 695.46,-270.45 696.66,-278 715,-286.62 728.86,-293.14 745.17,-297.35 759.52,-300.04"/>
<polygon fill="#63b8ff" stroke="#63b8ff" points="758.6,-303.6 769.05,-301.81 759.77,-296.7 758.6,-303.6"/>
</g>
<!-- Node23 -->
<g id="node23" class="node">
<title>Node23</title>
<g id="a_node23"><a xlink:href="group__Internal.html#ga50353a351a93b1213dc4e5211c767d85" target="_top" xlink:title=" ">
<polygon fill="white" stroke="#666666" points="837.12,-74.25 757.38,-74.25 757.38,-55 837.12,-55 837.12,-74.25"/>
<text text-anchor="middle" x="797.25" y="-60.75" font-family="Helvetica,sans-Serif" font-size="10.00">sss::GetDates</text>
</a>
</g>
</g>
<!-- Node20&#45;&gt;Node23 -->
<g id="edge27" class="edge">
<title>Node20&#45;&gt;Node23</title>
<path fill="none" stroke="#63b8ff" d="M602.34,-191.81C628.6,-164.64 701.39,-89.98 715,-82.62 724.63,-77.42 735.67,-73.72 746.45,-71.09"/>
<polygon fill="#63b8ff" stroke="#63b8ff" points="747.04,-74.33 756.08,-68.8 745.57,-67.49 747.04,-74.33"/>
</g>
<!-- Node24 -->
<g id="node24" class="node">
<title>Node24</title>
<g id="a_node24"><a xlink:href="group__Internal.html#ga990dfaae4abc6bf20a28f9772b7bcd16" target="_top" xlink:title="Byte to hex string conversion.">
<polygon fill="white" stroke="#666666" points="825.12,-277.25 769.38,-277.25 769.38,-258 825.12,-258 825.12,-277.25"/>
<text text-anchor="middle" x="797.25" y="-263.75" font-family="Helvetica,sans-Serif" font-size="10.00">sss::Hex</text>
</a>
</g>
</g>
<!-- Node20&#45;&gt;Node24 -->
<g id="edge28" class="edge">
<title>Node20&#45;&gt;Node24</title>
<path fill="none" stroke="#63b8ff" d="M615.46,-211.73C639.68,-222.29 679.48,-238.78 715,-249.62 728.96,-253.89 744.55,-257.59 758.31,-260.5"/>
<polygon fill="#63b8ff" stroke="#63b8ff" points="757.39,-264.09 767.89,-262.67 758.8,-257.24 757.39,-264.09"/>
</g>
<!-- Node25 -->
<g id="node25" class="node">
<title>Node25</title>
<g id="a_node25"><a xlink:href="group__Internal.html#ga7160aa316f2c6633467b47588263c690" target="_top" xlink:title=" ">
<polygon fill="white" stroke="#666666" points="839,-240.25 755.5,-240.25 755.5,-221 839,-221 839,-240.25"/>
<text text-anchor="middle" x="797.25" y="-226.75" font-family="Helvetica,sans-Serif" font-size="10.00">sss::ParseURL</text>
</a>
</g>
</g>
<!-- Node20&#45;&gt;Node25 -->
<g id="edge29" class="edge">
<title>Node20&#45;&gt;Node25</title>
<path fill="none" stroke="#63b8ff" d="M651.7,-210.01C681.01,-214.19 716.13,-219.2 744.42,-223.23"/>
<polygon fill="#63b8ff" stroke="#63b8ff" points="743.9,-226.84 754.29,-224.78 744.89,-219.91 743.9,-226.84"/>
</g>
<!-- Node26 -->
<g id="node26" class="node">
<title>Node26</title>
<g id="a_node26"><a xlink:href="lib_2include_2utility_8h.html#ab314781bb3f053ef5325b50f3a1b74f8" target="_top" xlink:title=" ">
<polygon fill="white" stroke="#666666" points="834.5,-185.25 760,-185.25 760,-166 834.5,-166 834.5,-185.25"/>
<text text-anchor="middle" x="797.25" y="-171.75" font-family="Helvetica,sans-Serif" font-size="10.00">sss::ToLower</text>
</a>
</g>
</g>
<!-- Node20&#45;&gt;Node26 -->
<g id="edge30" class="edge">
<title>Node20&#45;&gt;Node26</title>
<path fill="none" stroke="#63b8ff" d="M651.7,-194.1C682.59,-190.16 719.95,-185.38 748.95,-181.67"/>
<polygon fill="#63b8ff" stroke="#63b8ff" points="749.15,-185.05 758.62,-180.31 748.26,-178.1 749.15,-185.05"/>
</g>
<!-- Node27 -->
<g id="node27" class="node">
<title>Node27</title>
<g id="a_node27"><a xlink:href="group__Internal.html#ga0f079ace8729714b3949eabe22f228c9" target="_top" xlink:title=" ">
<polygon fill="white" stroke="#666666" points="839,-148.25 755.5,-148.25 755.5,-129 839,-129 839,-148.25"/>
<text text-anchor="middle" x="797.25" y="-134.75" font-family="Helvetica,sans-Serif" font-size="10.00">sss::UrlEncode</text>
</a>
</g>
</g>
<!-- Node20&#45;&gt;Node27 -->
<g id="edge33" class="edge">
<title>Node20&#45;&gt;Node27</title>
<path fill="none" stroke="#63b8ff" d="M616.88,-191.68C641.28,-181.84 680.31,-166.81 715,-156.62 724.47,-153.85 734.67,-151.27 744.53,-148.98"/>
<polygon fill="#63b8ff" stroke="#63b8ff" points="745.07,-152.23 754.06,-146.62 743.53,-145.4 745.07,-152.23"/>
</g>
<!-- Node26&#45;&gt;Node26 -->
<g id="edge31" class="edge">
<title>Node26&#45;&gt;Node26</title>
<path fill="none" stroke="#63b8ff" d="M765.1,-185.54C750.43,-194.15 761.15,-203.25 797.25,-203.25 820.38,-203.25 833.09,-199.51 835.38,-194.56"/>
<polygon fill="#63b8ff" stroke="#63b8ff" points="837.84,-192.94 829.4,-186.54 832.01,-196.81 837.84,-192.94"/>
</g>
<!-- Node29&#45;&gt;Node19 -->
<g id="edge37" class="edge">
<title>Node29&#45;&gt;Node19</title>
<path fill="none" stroke="#63b8ff" d="M669.47,-345.99C698.77,-344.98 731.02,-343.87 755.67,-343.02"/>
<polygon fill="#63b8ff" stroke="#63b8ff" points="755.54,-346.49 765.42,-342.65 755.3,-339.5 755.54,-346.49"/>
</g>
<!-- Node29&#45;&gt;Node22 -->
<g id="edge38" class="edge">
<title>Node29&#45;&gt;Node22</title>
<path fill="none" stroke="#63b8ff" d="M639.53,-338.53C675.88,-330.67 725.66,-319.9 759.28,-312.62"/>
<polygon fill="#63b8ff" stroke="#63b8ff" points="759.99,-315.84 769.02,-310.3 758.51,-308.99 759.99,-315.84"/>
</g>
<!-- Node30 -->
<g id="node30" class="node">
<title>Node30</title>
<g id="a_node30"><a xlink:href="classsss_1_1WebClient.html#a0b9b001ddc7ce778a613250e27e50731" target="_top" xlink:title=" ">
<polygon fill="white" stroke="#666666" points="871.62,-399.88 722.88,-399.88 722.88,-369.38 871.62,-369.38 871.62,-399.88"/>
<text text-anchor="start" x="730.88" y="-386.38" font-family="Helvetica,sans-Serif" font-size="10.00">sss::WebClient::GetResponse</text>
<text text-anchor="middle" x="797.25" y="-375.12" font-family="Helvetica,sans-Serif" font-size="10.00">Header</text>
</a>
</g>
</g>
<!-- Node29&#45;&gt;Node30 -->
<g id="edge39" class="edge">
<title>Node29&#45;&gt;Node30</title>
<path fill="none" stroke="#63b8ff" d="M650.07,-358.75C669.18,-362.13 690.9,-365.98 711.64,-369.65"/>
<polygon fill="#63b8ff" stroke="#63b8ff" points="710.92,-373.25 721.38,-371.55 712.14,-366.36 710.92,-373.25"/>
</g>
<!-- Node33&#45;&gt;Node7 -->
<g id="edge48" class="edge">
<title>Node33&#45;&gt;Node7</title>
<path fill="none" stroke="#63b8ff" d="M279.62,-208.71C283.68,-210.87 287.46,-213.48 290.75,-216.62 328.84,-253.06 287.7,-294.23 326.75,-329.62 341.72,-343.19 603.87,-392.52 729.79,-415.58"/>
<polygon fill="#63b8ff" stroke="#63b8ff" points="728.97,-419.18 739.44,-417.53 730.23,-412.29 728.97,-419.18"/>
</g>
<!-- Node33&#45;&gt;Node16 -->
<g id="edge47" class="edge">
<title>Node33&#45;&gt;Node16</title>
<path fill="none" stroke="#63b8ff" d="M273.82,-208.68C279.74,-210.84 285.52,-213.46 290.75,-216.62 310.93,-228.85 306.5,-243.53 326.75,-255.62 328.98,-256.96 331.3,-258.19 333.69,-259.33"/>
<polygon fill="#63b8ff" stroke="#63b8ff" points="332.24,-262.93 342.82,-263.54 334.92,-256.47 332.24,-262.93"/>
</g>
<!-- Node33&#45;&gt;Node28 -->
<g id="edge43" class="edge">
<title>Node33&#45;&gt;Node28</title>
<path fill="none" stroke="#63b8ff" d="M269.93,-208.71C291.58,-213.47 317.61,-219.2 340.45,-224.23"/>
<polygon fill="#63b8ff" stroke="#63b8ff" points="339.51,-227.83 350.03,-226.56 341.01,-220.99 339.51,-227.83"/>
</g>
<!-- Node34 -->
<g id="node34" class="node">
<title>Node34</title>
<g id="a_node34"><a xlink:href="lib_2include_2utility_8h.html#a7466aaf7905509bbeff80785a67d4859" target="_top" xlink:title=" ">
<polygon fill="white" stroke="#666666" points="434.25,-191.25 361.25,-191.25 361.25,-172 434.25,-172 434.25,-191.25"/>
<text text-anchor="middle" x="397.75" y="-177.75" font-family="Helvetica,sans-Serif" font-size="10.00">sss::FileSize</text>
</a>
</g>
</g>
<!-- Node33&#45;&gt;Node34 -->
<g id="edge44" class="edge">
<title>Node33&#45;&gt;Node34</title>
<path fill="none" stroke="#63b8ff" d="M290.87,-192.05C310.67,-190.1 331.92,-188.01 350.14,-186.21"/>
<polygon fill="#63b8ff" stroke="#63b8ff" points="350.45,-189.6 360.06,-185.14 349.77,-182.64 350.45,-189.6"/>
</g>
<!-- Node35 -->
<g id="node35" class="node">
<title>Node35</title>
<g id="a_node35"><a xlink:href="classsss_1_1WebClient.html#aa1d7484f0e09242ce53b24f9648ce50e" target="_top" xlink:title=" ">
<polygon fill="white" stroke="#666666" points="453.38,-154.25 342.12,-154.25 342.12,-135 453.38,-135 453.38,-154.25"/>
<text text-anchor="middle" x="397.75" y="-140.75" font-family="Helvetica,sans-Serif" font-size="10.00">sss::WebClient::Send</text>
</a>
</g>
</g>
<!-- Node33&#45;&gt;Node35 -->
<g id="edge46" class="edge">
<title>Node33&#45;&gt;Node35</title>
<path fill="none" stroke="#63b8ff" d="M250.93,-188.51C271.51,-180.92 300.73,-170.52 326.75,-162.62 332.6,-160.85 338.75,-159.1 344.88,-157.43"/>
<polygon fill="#63b8ff" stroke="#63b8ff" points="345.37,-160.66 354.13,-154.7 343.57,-153.89 345.37,-160.66"/>
</g>
<!-- Node34&#45;&gt;Node34 -->
<g id="edge45" class="edge">
<title>Node34&#45;&gt;Node34</title>
<path fill="none" stroke="#63b8ff" d="M370.41,-191.54C357.94,-200.15 367.05,-209.25 397.75,-209.25 416.46,-209.25 427.15,-205.87 429.82,-201.28"/>
<polygon fill="#63b8ff" stroke="#63b8ff" points="432.61,-200 425.09,-192.54 426.31,-203.06 432.61,-200"/>
</g>
</g>
</svg>
