<?xml version="1.0" encoding="UTF-8" standalone="no"?>
<!DOCTYPE svg PUBLIC "-//W3C//DTD SVG 1.1//EN"
 "http://www.w3.org/Graphics/SVG/1.1/DTD/svg11.dtd">
<!-- Generated by graphviz version 8.0.5 (20230430.1635)
 -->
<!-- Title: sss::WebClient::SetReadFunction Pages: 1 -->
<!--zoomable 507 -->
<svg id="main" version="1.1" xmlns="http://www.w3.org/2000/svg" xmlns:xlink="http://www.w3.org/1999/xlink" xml:space="preserve" onload="init(evt)">
<style type="text/css"><![CDATA[
.edge:hover path { stroke: red; }
.edge:hover polygon { stroke: red; fill: red; }
]]></style>
<script type="text/javascript"><![CDATA[
var edges = document.getElementsByTagName('g');
if (edges && edges.length) {
  for (var i=0;i<edges.length;i++) {
    if (edges[i].id.substr(0,4)=='edge') {
      edges[i].setAttribute('class','edge');
    }
  }
}
]]></script>
        <defs>
                <circle id="rim" cx="0" cy="0" r="7"/>
                <circle id="rim2" cx="0" cy="0" r="3.5"/>
                <g id="zoomPlus">
                        <use xlink:href="#rim" fill="#404040">
                                <set attributeName="fill" to="#808080" begin="zoomplus.mouseover" end="zoomplus.mouseout"/>
                        </use>
                        <path d="M-4,0h8M0,-4v8" fill="none" stroke="white" stroke-width="1.5" pointer-events="none"/>
                </g>
                <g id="zoomMin">
                        <use xlink:href="#rim" fill="#404040">
                                <set attributeName="fill" to="#808080" begin="zoomminus.mouseover" end="zoomminus.mouseout"/>
                        </use>
                        <path d="M-4,0h8" fill="none" stroke="white" stroke-width="1.5" pointer-events="none"/>
                </g>
                <g id="dirArrow">
                        <path fill="none" stroke="white" stroke-width="1.5" d="M0,-3.0v7 M-2.5,-0.5L0,-3.0L2.5,-0.5"/>
                </g>
               <g id="resetDef">
                       <use xlink:href="#rim2" fill="#404040">
                               <set attributeName="fill" to="#808080" begin="reset.mouseover" end="reset.mouseout"/>
                       </use>
               </g>
        </defs>

<script type="text/javascript">
var viewWidth = 1220;
var viewHeight = 507;
var sectionId = 'dynsection-11';
</script>
<script xlink:href="svgpan.js"/>
<svg id="graph" class="graph">
<g id="viewport">
<title>sss::WebClient::SetReadFunction</title>
<!-- Node1 -->
<g id="node1" class="node">
<title>Node1</title>
<g id="a_node1"><a xlink:title=" ">
<polygon fill="#999999" stroke="#666666" points="1212.25,-122.25 1047.75,-122.25 1047.75,-103 1212.25,-103 1212.25,-122.25"/>
<text text-anchor="middle" x="1130" y="-108.75" font-family="Helvetica,sans-Serif" font-size="10.00">sss::WebClient::SetReadFunction</text>
</a>
</g>
</g>
<!-- Node2 -->
<g id="node2" class="node">
<title>Node2</title>
<g id="a_node2"><a xlink:href="classsss_1_1WebClient.html#a96837f149bb473853a6523d096a25c56" target="_top" xlink:title="Reset read/write functions to default.">
<polygon fill="white" stroke="#666666" points="1011.75,-198.25 837.5,-198.25 837.5,-179 1011.75,-179 1011.75,-198.25"/>
<text text-anchor="middle" x="924.62" y="-184.75" font-family="Helvetica,sans-Serif" font-size="10.00">sss::WebClient::ResetRWFunctions</text>
</a>
</g>
</g>
<!-- Node1&#45;&gt;Node2 -->
<g id="edge1" class="edge">
<title>Node1&#45;&gt;Node2</title>
<path fill="none" stroke="#63b8ff" d="M1091.77,-126.54C1051.45,-141.61 988.12,-165.27 952.42,-178.61"/>
<polygon fill="#63b8ff" stroke="#63b8ff" points="1092.85,-129.5 1100.99,-122.72 1090.4,-122.94 1092.85,-129.5"/>
</g>
<!-- Node22 -->
<g id="node22" class="node">
<title>Node22</title>
<g id="a_node22"><a xlink:href="classsss_1_1api_1_1S3Api.html#a0473917e4d25a4a6fca40d097e4299d6" target="_top" xlink:title=" ">
<polygon fill="white" stroke="#666666" points="321.88,-19.25 210.62,-19.25 210.62,0 321.88,0 321.88,-19.25"/>
<text text-anchor="middle" x="266.25" y="-5.75" font-family="Helvetica,sans-Serif" font-size="10.00">sss::api::S3Api::Send</text>
</a>
</g>
</g>
<!-- Node1&#45;&gt;Node22 -->
<g id="edge26" class="edge">
<title>Node1&#45;&gt;Node22</title>
<path fill="none" stroke="#63b8ff" d="M1036.67,-105.47C959.24,-100.08 845.72,-93.62 746.5,-93.62 746.5,-93.62 746.5,-93.62 593.88,-93.62 479.01,-93.62 455.45,-55.41 344,-27.62 333.38,-24.98 321.9,-22.23 311.13,-19.69"/>
<polygon fill="#63b8ff" stroke="#63b8ff" points="1036.13,-109.01 1046.35,-106.22 1036.63,-102.03 1036.13,-109.01"/>
</g>
<!-- Node24 -->
<g id="node24" class="node">
<title>Node24</title>
<g id="a_node24"><a xlink:href="classsss_1_1WebClient.html#ad038e41cfc902f6e49754c52a9a71992" target="_top" xlink:title="Upload file.">
<polygon fill="white" stroke="#666666" points="992.25,-141.25 857,-141.25 857,-122 992.25,-122 992.25,-141.25"/>
<text text-anchor="middle" x="924.62" y="-127.75" font-family="Helvetica,sans-Serif" font-size="10.00">sss::WebClient::UploadFile</text>
</a>
</g>
</g>
<!-- Node1&#45;&gt;Node24 -->
<g id="edge27" class="edge">
<title>Node1&#45;&gt;Node24</title>
<path fill="none" stroke="#63b8ff" d="M1036.68,-121.25C1021.8,-122.64 1006.65,-124.05 992.52,-125.38"/>
<polygon fill="#63b8ff" stroke="#63b8ff" points="1036.82,-124.66 1046.45,-120.24 1036.17,-117.69 1036.82,-124.66"/>
</g>
<!-- Node26 -->
<g id="node26" class="node">
<title>Node26</title>
<g id="a_node26"><a xlink:href="classsss_1_1WebClient.html#accb4e986d73bb44149918fa0043ec43b" target="_top" xlink:title="Upload file starting from offset using unbuffered I/O read.">
<polygon fill="white" stroke="#666666" points="992.25,-65.88 857,-65.88 857,-35.38 992.25,-35.38 992.25,-65.88"/>
<text text-anchor="start" x="865" y="-52.38" font-family="Helvetica,sans-Serif" font-size="10.00">sss::WebClient::UploadFile</text>
<text text-anchor="middle" x="924.62" y="-41.12" font-family="Helvetica,sans-Serif" font-size="10.00">Unbuffered</text>
</a>
</g>
</g>
<!-- Node1&#45;&gt;Node26 -->
<g id="edge30" class="edge">
<title>Node1&#45;&gt;Node26</title>
<path fill="none" stroke="#63b8ff" d="M1085.56,-99.38C1053.78,-89.69 1010.54,-76.51 977.04,-66.3"/>
<polygon fill="#63b8ff" stroke="#63b8ff" points="1084.29,-102.96 1094.87,-102.53 1086.33,-96.26 1084.29,-102.96"/>
</g>
<!-- Node3 -->
<g id="node3" class="node">
<title>Node3</title>
<g id="a_node3"><a xlink:href="classsss_1_1api_1_1S3Api.html#a3718745d3b940462ae9f3b78f773b3a6" target="_top" xlink:title="Clear data and reset read and write functions.">
<polygon fill="white" stroke="#666666" points="801.5,-218.25 689.5,-218.25 689.5,-199 801.5,-199 801.5,-218.25"/>
<text text-anchor="middle" x="745.5" y="-204.75" font-family="Helvetica,sans-Serif" font-size="10.00">sss::api::S3Api::Clear</text>
</a>
</g>
</g>
<!-- Node2&#45;&gt;Node3 -->
<g id="edge2" class="edge">
<title>Node2&#45;&gt;Node3</title>
<path fill="none" stroke="#63b8ff" d="M826.35,-199.61C817.87,-200.57 809.49,-201.51 801.53,-202.41"/>
<polygon fill="#63b8ff" stroke="#63b8ff" points="826.59,-202.99 836.14,-198.39 825.81,-196.03 826.59,-202.99"/>
</g>
<!-- Node4 -->
<g id="node4" class="node">
<title>Node4</title>
<g id="a_node4"><a xlink:href="classsss_1_1api_1_1S3Api.html#a840772746fbb0a79c161037da7b24a31" target="_top" xlink:title="[WebClient::Config]">
<polygon fill="white" stroke="#666666" points="653.5,-219.25 536.25,-219.25 536.25,-200 653.5,-200 653.5,-219.25"/>
<text text-anchor="middle" x="594.88" y="-205.75" font-family="Helvetica,sans-Serif" font-size="10.00">sss::api::S3Api::Config</text>
</a>
</g>
</g>
<!-- Node3&#45;&gt;Node4 -->
<g id="edge3" class="edge">
<title>Node3&#45;&gt;Node4</title>
<path fill="none" stroke="#63b8ff" d="M678.17,-209.07C670.03,-209.13 661.75,-209.18 653.75,-209.24"/>
<polygon fill="#63b8ff" stroke="#63b8ff" points="678.18,-212.56 688.16,-209 678.13,-205.56 678.18,-212.56"/>
</g>
<!-- Node5 -->
<g id="node5" class="node">
<title>Node5</title>
<g id="a_node5"><a xlink:href="classsss_1_1api_1_1S3Api.html#a1196f1cb9ce1e5d69336e9b8dbb5d59c" target="_top" xlink:title=" ">
<polygon fill="white" stroke="#666666" points="500.25,-270.88 380,-270.88 380,-240.38 500.25,-240.38 500.25,-270.88"/>
<text text-anchor="start" x="388" y="-257.38" font-family="Helvetica,sans-Serif" font-size="10.00">sss::api::S3Api::GetFile</text>
<text text-anchor="middle" x="440.12" y="-246.12" font-family="Helvetica,sans-Serif" font-size="10.00">Object</text>
</a>
</g>
</g>
<!-- Node4&#45;&gt;Node5 -->
<g id="edge4" class="edge">
<title>Node4&#45;&gt;Node5</title>
<path fill="none" stroke="#63b8ff" d="M550.26,-222.76C532.47,-228.12 511.76,-234.35 493.19,-239.95"/>
<polygon fill="#63b8ff" stroke="#63b8ff" points="550.79,-225.95 559.35,-219.72 548.77,-219.25 550.79,-225.95"/>
</g>
<!-- Node6 -->
<g id="node6" class="node">
<title>Node6</title>
<g id="a_node6"><a xlink:href="classsss_1_1api_1_1S3Api.html#ab7affe0834f5892b393e731783b7ccac" target="_top" xlink:title=" ">
<polygon fill="white" stroke="#666666" points="499.88,-184.88 380.38,-184.88 380.38,-154.38 499.88,-154.38 499.88,-184.88"/>
<text text-anchor="start" x="388.38" y="-171.38" font-family="Helvetica,sans-Serif" font-size="10.00">sss::api::S3Api::PutFile</text>
<text text-anchor="middle" x="440.12" y="-160.12" font-family="Helvetica,sans-Serif" font-size="10.00">Object</text>
</a>
</g>
</g>
<!-- Node4&#45;&gt;Node6 -->
<g id="edge5" class="edge">
<title>Node4&#45;&gt;Node6</title>
<path fill="none" stroke="#63b8ff" d="M544.79,-196.77C530.59,-193.05 514.93,-188.95 500.19,-185.09"/>
<polygon fill="#63b8ff" stroke="#63b8ff" points="543.77,-200.38 554.33,-199.53 545.54,-193.61 543.77,-200.38"/>
</g>
<!-- Node7 -->
<g id="node7" class="node">
<title>Node7</title>
<g id="a_node7"><a xlink:href="classsss_1_1api_1_1S3Api.html#ad09581bf28c4bbbcbb71b329959ec1ae" target="_top" xlink:title=" ">
<polygon fill="white" stroke="#666666" points="495.75,-222.25 384.5,-222.25 384.5,-203 495.75,-203 495.75,-222.25"/>
<text text-anchor="middle" x="440.12" y="-208.75" font-family="Helvetica,sans-Serif" font-size="10.00">sss::api::S3Api::Send</text>
</a>
</g>
</g>
<!-- Node4&#45;&gt;Node7 -->
<g id="edge6" class="edge">
<title>Node4&#45;&gt;Node7</title>
<path fill="none" stroke="#63b8ff" d="M525.24,-210.97C515.51,-211.16 505.61,-211.36 496.18,-211.54"/>
<polygon fill="#63b8ff" stroke="#63b8ff" points="525.2,-214.45 535.13,-210.76 525.06,-207.46 525.2,-214.45"/>
</g>
<!-- Node8 -->
<g id="node8" class="node">
<title>Node8</title>
<g id="a_node8"><a xlink:href="classsss_1_1api_1_1S3Api.html#a4ea265566c3c4335ec01201cdc4410c6" target="_top" xlink:title=" ">
<polygon fill="white" stroke="#666666" points="341,-461.88 191.5,-461.88 191.5,-431.38 341,-431.38 341,-461.88"/>
<text text-anchor="start" x="199.5" y="-448.38" font-family="Helvetica,sans-Serif" font-size="10.00">sss::api::S3Api::AbortMultipart</text>
<text text-anchor="middle" x="266.25" y="-437.12" font-family="Helvetica,sans-Serif" font-size="10.00">Upload</text>
</a>
</g>
</g>
<!-- Node7&#45;&gt;Node8 -->
<g id="edge7" class="edge">
<title>Node7&#45;&gt;Node8</title>
<path fill="none" stroke="#63b8ff" d="M382.53,-229.03C381.65,-229.85 380.8,-230.72 380,-231.62 323.1,-296.04 400.77,-357.1 344,-421.62 340.85,-425.2 337.19,-428.27 333.2,-430.9"/>
<polygon fill="#63b8ff" stroke="#63b8ff" points="384.31,-231.34 390.38,-222.66 380.22,-225.66 384.31,-231.34"/>
</g>
<!-- Node9 -->
<g id="node9" class="node">
<title>Node9</title>
<g id="a_node9"><a xlink:href="classsss_1_1api_1_1S3Api.html#a98f999a216121118dd569c7ef0c28ff3" target="_top" xlink:title=" ">
<polygon fill="white" stroke="#666666" points="331.62,-412.88 200.88,-412.88 200.88,-382.38 331.62,-382.38 331.62,-412.88"/>
<text text-anchor="start" x="208.88" y="-399.38" font-family="Helvetica,sans-Serif" font-size="10.00">sss::api::S3Api::Complete</text>
<text text-anchor="middle" x="266.25" y="-388.12" font-family="Helvetica,sans-Serif" font-size="10.00">MultipartUpload</text>
</a>
</g>
</g>
<!-- Node7&#45;&gt;Node9 -->
<g id="edge8" class="edge">
<title>Node7&#45;&gt;Node9</title>
<path fill="none" stroke="#63b8ff" d="M383.02,-228.73C381.96,-229.65 380.95,-230.61 380,-231.62 335.43,-279.08 388.76,-326.34 344,-373.62 340.45,-377.38 336.32,-380.54 331.86,-383.22"/>
<polygon fill="#63b8ff" stroke="#63b8ff" points="384.59,-231.22 390.9,-222.71 380.66,-225.43 384.59,-231.22"/>
</g>
<!-- Node10 -->
<g id="node10" class="node">
<title>Node10</title>
<g id="a_node10"><a xlink:href="classsss_1_1api_1_1S3Api.html#ad890bd1ecfc978df24b2c3ed641e4081" target="_top" xlink:title=" ">
<polygon fill="white" stroke="#666666" points="340.62,-278.25 191.88,-278.25 191.88,-259 340.62,-259 340.62,-278.25"/>
<text text-anchor="middle" x="266.25" y="-264.75" font-family="Helvetica,sans-Serif" font-size="10.00">sss::api::S3Api::CreateBucket</text>
</a>
</g>
</g>
<!-- Node7&#45;&gt;Node10 -->
<g id="edge9" class="edge">
<title>Node7&#45;&gt;Node10</title>
<path fill="none" stroke="#63b8ff" d="M393.98,-226.22C389.22,-227.93 384.48,-229.74 380,-231.62 363.32,-238.64 360.94,-244.29 344,-250.62 335.92,-253.65 327.18,-256.27 318.57,-258.51"/>
<polygon fill="#63b8ff" stroke="#63b8ff" points="395.03,-229.22 403.36,-222.68 392.77,-222.6 395.03,-229.22"/>
</g>
<!-- Node12 -->
<g id="node12" class="node">
<title>Node12</title>
<g id="a_node12"><a xlink:href="classsss_1_1api_1_1S3Api.html#a1796fafda3d90a4292a611ce1999433b" target="_top" xlink:title=" ">
<polygon fill="white" stroke="#666666" points="344,-326.88 188.5,-326.88 188.5,-296.38 344,-296.38 344,-326.88"/>
<text text-anchor="start" x="196.5" y="-313.38" font-family="Helvetica,sans-Serif" font-size="10.00">sss::api::S3Api::CreateMultipart</text>
<text text-anchor="middle" x="266.25" y="-302.12" font-family="Helvetica,sans-Serif" font-size="10.00">Upload</text>
</a>
</g>
</g>
<!-- Node7&#45;&gt;Node12 -->
<g id="edge11" class="edge">
<title>Node7&#45;&gt;Node12</title>
<path fill="none" stroke="#63b8ff" d="M386.05,-227.55C383.94,-228.8 381.91,-230.16 380,-231.62 356.54,-249.65 367.53,-269.69 344,-287.62 339.78,-290.84 335.12,-293.63 330.25,-296.05"/>
<polygon fill="#63b8ff" stroke="#63b8ff" points="387.35,-230.31 394.71,-222.69 384.2,-224.05 387.35,-230.31"/>
</g>
<!-- Node13 -->
<g id="node13" class="node">
<title>Node13</title>
<g id="a_node13"><a xlink:href="classsss_1_1api_1_1S3Api.html#a3d63825d1916e4ba3ca13122c7660603" target="_top" xlink:title=" ">
<polygon fill="white" stroke="#666666" points="340.25,-167.25 192.25,-167.25 192.25,-148 340.25,-148 340.25,-167.25"/>
<text text-anchor="middle" x="266.25" y="-153.75" font-family="Helvetica,sans-Serif" font-size="10.00">sss::api::S3Api::DeleteBucket</text>
</a>
</g>
</g>
<!-- Node7&#45;&gt;Node13 -->
<g id="edge12" class="edge">
<title>Node7&#45;&gt;Node13</title>
<path fill="none" stroke="#63b8ff" d="M394.6,-199.13C389.63,-197.38 384.68,-195.54 380,-193.62 363.44,-186.87 360.82,-181.71 344,-175.62 335.63,-172.6 326.57,-169.95 317.7,-167.68"/>
<polygon fill="#63b8ff" stroke="#63b8ff" points="393.13,-202.66 403.73,-202.55 395.37,-196.03 393.13,-202.66"/>
</g>
<!-- Node14 -->
<g id="node14" class="node">
<title>Node14</title>
<g id="a_node14"><a xlink:href="classsss_1_1api_1_1S3Api.html#a14a75f15eb71fbba8639673100768b67" target="_top" xlink:title=" ">
<polygon fill="white" stroke="#666666" points="339.12,-241.25 193.38,-241.25 193.38,-222 339.12,-222 339.12,-241.25"/>
<text text-anchor="middle" x="266.25" y="-227.75" font-family="Helvetica,sans-Serif" font-size="10.00">sss::api::S3Api::DeleteObject</text>
</a>
</g>
</g>
<!-- Node7&#45;&gt;Node14 -->
<g id="edge14" class="edge">
<title>Node7&#45;&gt;Node14</title>
<path fill="none" stroke="#63b8ff" d="M373.37,-219.89C362.28,-221.12 350.72,-222.4 339.47,-223.64"/>
<polygon fill="#63b8ff" stroke="#63b8ff" points="373.72,-223.27 383.27,-218.69 372.95,-216.31 373.72,-223.27"/>
</g>
<!-- Node15 -->
<g id="node15" class="node">
<title>Node15</title>
<g id="a_node15"><a xlink:href="classsss_1_1api_1_1S3Api.html#af61465d92c0a94aa82ae863fc2a776a0" target="_top" xlink:title=" ">
<polygon fill="white" stroke="#666666" points="332.75,-204.25 199.75,-204.25 199.75,-185 332.75,-185 332.75,-204.25"/>
<text text-anchor="middle" x="266.25" y="-190.75" font-family="Helvetica,sans-Serif" font-size="10.00">sss::api::S3Api::GetObject</text>
</a>
</g>
</g>
<!-- Node7&#45;&gt;Node15 -->
<g id="edge15" class="edge">
<title>Node7&#45;&gt;Node15</title>
<path fill="none" stroke="#63b8ff" d="M373.35,-205.74C360.12,-204.35 346.22,-202.9 333,-201.51"/>
<polygon fill="#63b8ff" stroke="#63b8ff" points="372.96,-209.32 383.27,-206.88 373.69,-202.36 372.96,-209.32"/>
</g>
<!-- Node16 -->
<g id="node16" class="node">
<title>Node16</title>
<g id="a_node16"><a xlink:href="classsss_1_1api_1_1S3Api.html#aa4a2b1cc2c89a52d1aa89e571b785db2" target="_top" xlink:title=" ">
<polygon fill="white" stroke="#666666" points="337.62,-130.25 194.88,-130.25 194.88,-111 337.62,-111 337.62,-130.25"/>
<text text-anchor="middle" x="266.25" y="-116.75" font-family="Helvetica,sans-Serif" font-size="10.00">sss::api::S3Api::HeadBucket</text>
</a>
</g>
</g>
<!-- Node7&#45;&gt;Node16 -->
<g id="edge16" class="edge">
<title>Node7&#45;&gt;Node16</title>
<path fill="none" stroke="#63b8ff" d="M386.06,-197.68C383.95,-196.43 381.92,-195.08 380,-193.62 356.76,-175.92 367.93,-155.38 344,-138.62 339.52,-135.49 334.56,-132.89 329.39,-130.74"/>
<polygon fill="#63b8ff" stroke="#63b8ff" points="384.23,-201.18 394.74,-202.53 387.36,-194.92 384.23,-201.18"/>
</g>
<!-- Node17 -->
<g id="node17" class="node">
<title>Node17</title>
<g id="a_node17"><a xlink:href="classsss_1_1api_1_1S3Api.html#abc84a71b9a88b81afaa353ad17a91d22" target="_top" xlink:title=" ">
<polygon fill="white" stroke="#666666" points="336.5,-93.25 196,-93.25 196,-74 336.5,-74 336.5,-93.25"/>
<text text-anchor="middle" x="266.25" y="-79.75" font-family="Helvetica,sans-Serif" font-size="10.00">sss::api::S3Api::HeadObject</text>
</a>
</g>
</g>
<!-- Node7&#45;&gt;Node17 -->
<g id="edge18" class="edge">
<title>Node7&#45;&gt;Node17</title>
<path fill="none" stroke="#63b8ff" d="M384.2,-197.12C382.73,-196.03 381.32,-194.87 380,-193.62 348,-163.56 377.18,-130.38 344,-101.62 340.38,-98.49 336.32,-95.87 332,-93.69"/>
<polygon fill="#63b8ff" stroke="#63b8ff" points="381.85,-200.39 392.22,-202.54 385.46,-194.39 381.85,-200.39"/>
</g>
<!-- Node20 -->
<g id="node20" class="node">
<title>Node20</title>
<g id="a_node20"><a xlink:href="classsss_1_1api_1_1S3Api.html#a81e30673c06b609a2ee6e6bfd9130ca6" target="_top" xlink:title=" ">
<polygon fill="white" stroke="#666666" points="336.5,-364.25 196,-364.25 196,-345 336.5,-345 336.5,-364.25"/>
<text text-anchor="middle" x="266.25" y="-350.75" font-family="Helvetica,sans-Serif" font-size="10.00">sss::api::S3Api::ListBuckets</text>
</a>
</g>
</g>
<!-- Node7&#45;&gt;Node20 -->
<g id="edge21" class="edge">
<title>Node7&#45;&gt;Node20</title>
<path fill="none" stroke="#63b8ff" d="M383.66,-228.43C382.38,-229.43 381.16,-230.49 380,-231.62 345.03,-265.82 380.12,-302.64 344,-335.62 340.05,-339.24 335.52,-342.19 330.68,-344.6"/>
<polygon fill="#63b8ff" stroke="#63b8ff" points="385.17,-230.99 391.78,-222.71 381.45,-225.06 385.17,-230.99"/>
</g>
<!-- Node21 -->
<g id="node21" class="node">
<title>Node21</title>
<g id="a_node21"><a xlink:href="classsss_1_1api_1_1S3Api.html#a3f00f611cd210a58ac6e8c0555984433" target="_top" xlink:title=" ">
<polygon fill="white" stroke="#666666" points="341.38,-56.25 191.12,-56.25 191.12,-37 341.38,-37 341.38,-56.25"/>
<text text-anchor="middle" x="266.25" y="-42.75" font-family="Helvetica,sans-Serif" font-size="10.00">sss::api::S3Api::ListObjectsV2</text>
</a>
</g>
</g>
<!-- Node7&#45;&gt;Node21 -->
<g id="edge23" class="edge">
<title>Node7&#45;&gt;Node21</title>
<path fill="none" stroke="#63b8ff" d="M383.12,-196.54C382.03,-195.62 380.99,-194.65 380,-193.62 338.73,-150.73 386.96,-105.83 344,-64.62 340.74,-61.5 337.05,-58.88 333.08,-56.69"/>
<polygon fill="#63b8ff" stroke="#63b8ff" points="381,-200 391.27,-202.61 384.87,-194.17 381,-200"/>
</g>
<!-- Node7&#45;&gt;Node22 -->
<g id="edge24" class="edge">
<title>Node7&#45;&gt;Node22</title>
<path fill="none" stroke="#63b8ff" d="M382.57,-196.2C381.67,-195.38 380.81,-194.52 380,-193.62 329.28,-137.71 396.93,-81.45 344,-27.62 337.95,-21.48 330.24,-17.27 322.04,-14.41"/>
<polygon fill="#63b8ff" stroke="#63b8ff" points="380.3,-199.58 390.48,-202.5 384.34,-193.87 380.3,-199.58"/>
</g>
<!-- Node23 -->
<g id="node23" class="node">
<title>Node23</title>
<g id="a_node23"><a xlink:href="classsss_1_1api_1_1S3Api.html#a23223ee1fb701c55af2d942dbf261ae2" target="_top" xlink:title=" ">
<polygon fill="white" stroke="#666666" points="335.38,-499.25 197.12,-499.25 197.12,-480 335.38,-480 335.38,-499.25"/>
<text text-anchor="middle" x="266.25" y="-485.75" font-family="Helvetica,sans-Serif" font-size="10.00">sss::api::S3Api::TestBucket</text>
</a>
</g>
</g>
<!-- Node7&#45;&gt;Node23 -->
<g id="edge25" class="edge">
<title>Node7&#45;&gt;Node23</title>
<path fill="none" stroke="#63b8ff" d="M382.43,-229.04C381.58,-229.86 380.77,-230.72 380,-231.62 310.41,-313.46 416.34,-391.21 344,-470.62 340.76,-474.18 336.98,-477.11 332.85,-479.53"/>
<polygon fill="#63b8ff" stroke="#63b8ff" points="384.02,-231.47 389.96,-222.7 379.85,-225.85 384.02,-231.47"/>
</g>
<!-- Node11 -->
<g id="node11" class="node">
<title>Node11</title>
<g id="a_node11"><a xlink:href="bucket-test_8cpp.html#a3c04138a5bfe5d72780bb7e82a18e627" target="_top" xlink:title="Bucket tests.">
<polygon fill="white" stroke="#666666" points="94.75,-204.25 57.75,-204.25 57.75,-185 94.75,-185 94.75,-204.25"/>
<text text-anchor="middle" x="76.25" y="-190.75" font-family="Helvetica,sans-Serif" font-size="10.00">main</text>
</a>
</g>
</g>
<!-- Node10&#45;&gt;Node11 -->
<g id="edge10" class="edge">
<title>Node10&#45;&gt;Node11</title>
<path fill="none" stroke="#63b8ff" d="M204.37,-255.75C198.95,-254.18 193.6,-252.48 188.5,-250.62 153.54,-237.93 115.34,-217.01 94.03,-204.66"/>
<polygon fill="#63b8ff" stroke="#63b8ff" points="203.23,-259.34 213.79,-258.59 205.06,-252.59 203.23,-259.34"/>
</g>
<!-- Node13&#45;&gt;Node11 -->
<g id="edge13" class="edge">
<title>Node13&#45;&gt;Node11</title>
<path fill="none" stroke="#63b8ff" d="M203.42,-169.79C165.49,-177.26 119.63,-186.28 94.98,-191.14"/>
<polygon fill="#63b8ff" stroke="#63b8ff" points="203.74,-173.1 212.88,-167.74 202.39,-166.23 203.74,-173.1"/>
</g>
<!-- Node16&#45;&gt;Node11 -->
<g id="edge17" class="edge">
<title>Node16&#45;&gt;Node11</title>
<path fill="none" stroke="#63b8ff" d="M204.37,-133.5C198.95,-135.07 193.6,-136.77 188.5,-138.62 153.54,-151.32 115.34,-172.24 94.03,-184.59"/>
<polygon fill="#63b8ff" stroke="#63b8ff" points="205.06,-136.66 213.79,-130.66 203.23,-129.91 205.06,-136.66"/>
</g>
<!-- Node18 -->
<g id="node18" class="node">
<title>Node18</title>
<g id="a_node18"><a xlink:href="classsss_1_1api_1_1S3Api.html#a872e80e356e8c404a9b0739d95a0af41" target="_top" xlink:title="[WebClient::Config]">
<polygon fill="white" stroke="#666666" points="152.5,-75.25 0,-75.25 0,-56 152.5,-56 152.5,-75.25"/>
<text text-anchor="middle" x="76.25" y="-61.75" font-family="Helvetica,sans-Serif" font-size="10.00">sss::api::S3Api::GetObjectSize</text>
</a>
</g>
</g>
<!-- Node17&#45;&gt;Node18 -->
<g id="edge19" class="edge">
<title>Node17&#45;&gt;Node18</title>
<path fill="none" stroke="#63b8ff" d="M184.63,-75.91C174.09,-74.9 163.33,-73.87 152.87,-72.87"/>
<polygon fill="#63b8ff" stroke="#63b8ff" points="184.22,-79.48 194.51,-76.95 184.89,-72.51 184.22,-79.48"/>
</g>
<!-- Node19 -->
<g id="node19" class="node">
<title>Node19</title>
<g id="a_node19"><a xlink:href="classsss_1_1api_1_1S3Api.html#aa3f7a3001bdad58c7b0c04cbd0dc3236" target="_top" xlink:title=" ">
<polygon fill="white" stroke="#666666" points="144.25,-112.25 8.25,-112.25 8.25,-93 144.25,-93 144.25,-112.25"/>
<text text-anchor="middle" x="76.25" y="-98.75" font-family="Helvetica,sans-Serif" font-size="10.00">sss::api::S3Api::TestObject</text>
</a>
</g>
</g>
<!-- Node17&#45;&gt;Node19 -->
<g id="edge20" class="edge">
<title>Node17&#45;&gt;Node19</title>
<path fill="none" stroke="#63b8ff" d="M184.88,-91.75C171.48,-93.1 157.71,-94.49 144.69,-95.81"/>
<polygon fill="#63b8ff" stroke="#63b8ff" points="184.92,-95.16 194.51,-90.67 184.21,-88.2 184.92,-95.16"/>
</g>
<!-- Node20&#45;&gt;Node11 -->
<g id="edge22" class="edge">
<title>Node20&#45;&gt;Node11</title>
<path fill="none" stroke="#63b8ff" d="M196.83,-340.3C193.94,-338.89 191.15,-337.33 188.5,-335.62 134.52,-300.81 95.38,-230.73 82.15,-204.68"/>
<polygon fill="#63b8ff" stroke="#63b8ff" points="195.37,-343.91 205.95,-344.6 198.11,-337.47 195.37,-343.91"/>
</g>
<!-- Node24&#45;&gt;Node6 -->
<g id="edge28" class="edge">
<title>Node24&#45;&gt;Node6</title>
<path fill="none" stroke="#63b8ff" d="M855.84,-143.43C838.19,-146.15 819.17,-148.79 801.5,-150.62 695.72,-161.61 571.77,-166.38 500.26,-168.35"/>
<polygon fill="#63b8ff" stroke="#63b8ff" points="856.29,-146.74 865.62,-141.72 855.2,-139.83 856.29,-146.74"/>
</g>
<!-- Node25 -->
<g id="node25" class="node">
<title>Node25</title>
<g id="a_node25"><a xlink:href="group__S3Client.html#ga5a769be8fbc874bad858ea95743e5643" target="_top" xlink:title="Send S3 request to endpoint.">
<polygon fill="white" stroke="#666666" points="800,-141.25 691,-141.25 691,-122 800,-122 800,-141.25"/>
<text text-anchor="middle" x="745.5" y="-127.75" font-family="Helvetica,sans-Serif" font-size="10.00">sss::SendS3Request</text>
</a>
</g>
</g>
<!-- Node24&#45;&gt;Node25 -->
<g id="edge29" class="edge">
<title>Node24&#45;&gt;Node25</title>
<path fill="none" stroke="#63b8ff" d="M846.07,-131.62C830.64,-131.62 814.75,-131.62 800.32,-131.62"/>
<polygon fill="#63b8ff" stroke="#63b8ff" points="845.66,-135.13 855.66,-131.62 845.66,-128.13 845.66,-135.13"/>
</g>
</g>
</svg>
        <g id="navigator" transform="translate(0 0)" fill="#404254">
                <rect fill="#f2f5e9" fill-opacity="0.5" stroke="#606060" stroke-width=".5" x="0" y="0" width="60" height="60"/>
                <use id="zoomplus" xlink:href="#zoomPlus" x="17" y="9" onmousedown="handleZoom(evt,'in')"/>
                <use id="zoomminus" xlink:href="#zoomMin" x="42" y="9" onmousedown="handleZoom(evt,'out')"/>
                <use id="reset" xlink:href="#resetDef" x="30" y="36" onmousedown="handleReset()"/>
                <g id="arrowUp" xlink:href="#dirArrow" transform="translate(30 24)" onmousedown="handlePan(0,-1)">
                  <use xlink:href="#rim" fill="#404040">
                        <set attributeName="fill" to="#808080" begin="arrowUp.mouseover" end="arrowUp.mouseout"/>
                  </use>
                  <path fill="none" stroke="white" stroke-width="1.5" d="M0,-3.0v7 M-2.5,-0.5L0,-3.0L2.5,-0.5"/>
                </g>
                <g id="arrowRight" xlink:href="#dirArrow" transform="rotate(90) translate(36 -43)" onmousedown="handlePan(1,0)">
                  <use xlink:href="#rim" fill="#404040">
                        <set attributeName="fill" to="#808080" begin="arrowRight.mouseover" end="arrowRight.mouseout"/>
                  </use>
                  <path fill="none" stroke="white" stroke-width="1.5" d="M0,-3.0v7 M-2.5,-0.5L0,-3.0L2.5,-0.5"/>
                </g>
                <g id="arrowDown" xlink:href="#dirArrow" transform="rotate(180) translate(-30 -48)" onmousedown="handlePan(0,1)">
                  <use xlink:href="#rim" fill="#404040">
                        <set attributeName="fill" to="#808080" begin="arrowDown.mouseover" end="arrowDown.mouseout"/>
                  </use>
                  <path fill="none" stroke="white" stroke-width="1.5" d="M0,-3.0v7 M-2.5,-0.5L0,-3.0L2.5,-0.5"/>
                </g>
                <g id="arrowLeft" xlink:href="#dirArrow" transform="rotate(270) translate(-36 17)" onmousedown="handlePan(-1,0)">
                  <use xlink:href="#rim" fill="#404040">
                        <set attributeName="fill" to="#808080" begin="arrowLeft.mouseover" end="arrowLeft.mouseout"/>
                  </use>
                  <path fill="none" stroke="white" stroke-width="1.5" d="M0,-3.0v7 M-2.5,-0.5L0,-3.0L2.5,-0.5"/>
                </g>
        </g>
        <svg viewBox="0 0 15 15" width="100%" height="30px" preserveAspectRatio="xMaxYMin meet">
         <g id="arrow_out" transform="scale(0.3 0.3)">
          <a xlink:href="classsss_1_1WebClient_a88dbcc61562e84aa9ebf1eabf887ac28_icgraph_org.svg" target="_base">
           <rect id="button" ry="5" rx="5" y="6" x="6" height="38" width="38"
                fill="#f2f5e9" fill-opacity="0.5" stroke="#606060" stroke-width="1.0"/>
           <path id="arrow"
             d="M 11.500037,31.436501 C 11.940474,20.09759 22.043105,11.32322 32.158766,21.979434 L 37.068811,17.246167 C 37.068811,17.246167 37.088388,32 37.088388,32 L 22.160133,31.978069 C 22.160133,31.978069 26.997745,27.140456 26.997745,27.140456 C 18.528582,18.264221 13.291696,25.230495 11.500037,31.436501 z"
             style="fill:#404040;"/>
          </a>
         </g>
        </svg>
</svg>
