<?xml version="1.0" encoding="UTF-8" standalone="no"?>
<!DOCTYPE svg PUBLIC "-//W3C//DTD SVG 1.1//EN"
 "http://www.w3.org/Graphics/SVG/1.1/DTD/svg11.dtd">
<!-- Generated by graphviz version 8.0.5 (20230430.1635)
 -->
<!-- Title: sss::WebClient::SetWriteFunction Pages: 1 -->
<svg width="345pt" height="64pt"
 viewBox="0.00 0.00 344.50 64.25" xmlns="http://www.w3.org/2000/svg" xmlns:xlink="http://www.w3.org/1999/xlink">
<g id="graph0" class="graph" transform="scale(1 1) rotate(0) translate(4 60.25)">
<title>sss::WebClient::SetWriteFunction</title>
<!-- Node1 -->
<g id="node1" class="node">
<title>Node1</title>
<g id="a_node1"><a xlink:title=" ">
<polygon fill="#999999" stroke="#666666" points="336.5,-42.88 210.25,-42.88 210.25,-12.37 336.5,-12.37 336.5,-42.88"/>
<text text-anchor="start" x="218.25" y="-29.38" font-family="Helvetica,sans-Serif" font-size="10.00">sss::WebClient::SetWrite</text>
<text text-anchor="middle" x="273.38" y="-18.12" font-family="Helvetica,sans-Serif" font-size="10.00">Function</text>
</a>
</g>
</g>
<!-- Node2 -->
<g id="node2" class="node">
<title>Node2</title>
<g id="a_node2"><a xlink:href="classsss_1_1WebClient.html#a96837f149bb473853a6523d096a25c56" target="_top" xlink:title="Reset read/write functions to default.">
<polygon fill="white" stroke="#666666" points="174.25,-56.25 0,-56.25 0,-37 174.25,-37 174.25,-56.25"/>
<text text-anchor="middle" x="87.12" y="-42.75" font-family="Helvetica,sans-Serif" font-size="10.00">sss::WebClient::ResetRWFunctions</text>
</a>
</g>
</g>
<!-- Node1&#45;&gt;Node2 -->
<g id="edge1" class="edge">
<title>Node1&#45;&gt;Node2</title>
<path fill="none" stroke="#63b8ff" d="M199.15,-35.18C191.09,-36.01 182.83,-36.86 174.63,-37.7"/>
<polygon fill="#63b8ff" stroke="#63b8ff" points="199.41,-38.56 209,-34.06 198.69,-31.6 199.41,-38.56"/>
</g>
<!-- Node3 -->
<g id="node3" class="node">
<title>Node3</title>
<g id="a_node3"><a xlink:href="group__S3Client.html#ga5a769be8fbc874bad858ea95743e5643" target="_top" xlink:title="Send S3 request to endpoint.">
<polygon fill="white" stroke="#666666" points="141.62,-19.25 32.62,-19.25 32.62,0 141.62,0 141.62,-19.25"/>
<text text-anchor="middle" x="87.12" y="-5.75" font-family="Helvetica,sans-Serif" font-size="10.00">sss::SendS3Request</text>
</a>
</g>
</g>
<!-- Node1&#45;&gt;Node3 -->
<g id="edge2" class="edge">
<title>Node1&#45;&gt;Node3</title>
<path fill="none" stroke="#63b8ff" d="M199.24,-20.48C180.18,-18.62 159.99,-16.65 142.12,-14.9"/>
<polygon fill="#63b8ff" stroke="#63b8ff" points="198.7,-24.04 209,-21.53 199.38,-17.08 198.7,-24.04"/>
</g>
</g>
</svg>
