<?xml version="1.0" encoding="UTF-8" standalone="no"?>
<!DOCTYPE svg PUBLIC "-//W3C//DTD SVG 1.1//EN"
 "http://www.w3.org/Graphics/SVG/1.1/DTD/svg11.dtd">
<!-- Generated by graphviz version 2.43.0 (0)
 -->
<!-- Title: sss::WebClient::GetResponseBody Pages: 1 -->
<svg width="592pt" height="493pt"
 viewBox="0.00 0.00 592.00 492.50" xmlns="http://www.w3.org/2000/svg" xmlns:xlink="http://www.w3.org/1999/xlink">
<g id="graph0" class="graph" transform="scale(1 1) rotate(0) translate(4 488.5)">
<title>sss::WebClient::GetResponseBody</title>
<!-- Node1 -->
<g id="node1" class="node">
<title>Node1</title>
<g id="a_node1"><a xlink:title=" ">
<polygon fill="#bfbfbf" stroke="black" points="412,-174.5 412,-193.5 584,-193.5 584,-174.5 412,-174.5"/>
<text text-anchor="middle" x="498" y="-181.5" font-family="Helvetica,sans-Serif" font-size="10.00">sss::WebClient::GetResponseBody</text>
</a>
</g>
</g>
<!-- Node2 -->
<g id="node2" class="node">
<title>Node2</title>
<g id="a_node2"><a xlink:href="classsss_1_1WebClient.html#ac9e82fc4b56b142d91f9b104f5266f91" target="_top" xlink:title="Get response body as text.">
<polygon fill="none" stroke="black" points="211,-212.5 211,-231.5 369,-231.5 369,-212.5 211,-212.5"/>
<text text-anchor="middle" x="290" y="-219.5" font-family="Helvetica,sans-Serif" font-size="10.00">sss::WebClient::GetContentText</text>
</a>
</g>
</g>
<!-- Node1&#45;&gt;Node2 -->
<g id="edge1" class="edge">
<title>Node1&#45;&gt;Node2</title>
<path fill="none" stroke="midnightblue" d="M435.1,-195.42C405.63,-200.86 370.78,-207.28 342.74,-212.46"/>
<polygon fill="midnightblue" stroke="midnightblue" points="436.08,-198.8 445.28,-193.54 434.81,-191.91 436.08,-198.8"/>
</g>
<!-- Node15 -->
<g id="node15" class="node">
<title>Node15</title>
<g id="a_node15"><a xlink:href="classsss_1_1api_1_1S3Api.html#af61465d92c0a94aa82ae863fc2a776a0" target="_top" xlink:title="Download object data.">
<polygon fill="none" stroke="black" points="223,-174.5 223,-193.5 357,-193.5 357,-174.5 223,-174.5"/>
<text text-anchor="middle" x="290" y="-181.5" font-family="Helvetica,sans-Serif" font-size="10.00">sss::api::S3Api::GetObject</text>
</a>
</g>
</g>
<!-- Node1&#45;&gt;Node15 -->
<g id="edge14" class="edge">
<title>Node1&#45;&gt;Node15</title>
<path fill="none" stroke="midnightblue" d="M401.39,-184C386.38,-184 371.17,-184 357.03,-184"/>
<polygon fill="midnightblue" stroke="midnightblue" points="401.72,-187.5 411.72,-184 401.72,-180.5 401.72,-187.5"/>
</g>
<!-- Node16 -->
<g id="node16" class="node">
<title>Node16</title>
<g id="a_node16"><a xlink:href="classsss_1_1api_1_1S3Api.html#a83364bc622245c0396a3bbc46399baf4" target="_top" xlink:title=" ">
<polygon fill="none" stroke="black" points="204,-136.5 204,-155.5 376,-155.5 376,-136.5 204,-136.5"/>
<text text-anchor="middle" x="290" y="-143.5" font-family="Helvetica,sans-Serif" font-size="10.00">sss::api::S3Api::GetResponseBody</text>
</a>
</g>
</g>
<!-- Node1&#45;&gt;Node16 -->
<g id="edge15" class="edge">
<title>Node1&#45;&gt;Node16</title>
<path fill="none" stroke="midnightblue" d="M435.1,-172.58C405.63,-167.14 370.78,-160.72 342.74,-155.54"/>
<polygon fill="midnightblue" stroke="midnightblue" points="434.81,-176.09 445.28,-174.46 436.08,-169.2 434.81,-176.09"/>
</g>
<!-- Node3 -->
<g id="node3" class="node">
<title>Node3</title>
<g id="a_node3"><a xlink:href="classsss_1_1api_1_1S3Api.html#a98f999a216121118dd569c7ef0c28ff3" target="_top" xlink:title="Complete multipart upload.">
<polygon fill="none" stroke="black" points="18.5,-454 18.5,-484 149.5,-484 149.5,-454 18.5,-454"/>
<text text-anchor="start" x="26.5" y="-472" font-family="Helvetica,sans-Serif" font-size="10.00">sss::api::S3Api::Complete</text>
<text text-anchor="middle" x="84" y="-461" font-family="Helvetica,sans-Serif" font-size="10.00">MultipartUpload</text>
</a>
</g>
</g>
<!-- Node2&#45;&gt;Node3 -->
<g id="edge2" class="edge">
<title>Node2&#45;&gt;Node3</title>
<path fill="none" stroke="midnightblue" d="M283.95,-241.66C271.75,-285.13 236.51,-389.88 168,-445 162.51,-449.42 156.23,-453.03 149.65,-455.97"/>
<polygon fill="midnightblue" stroke="midnightblue" points="287.39,-242.34 286.62,-231.78 280.63,-240.52 287.39,-242.34"/>
</g>
<!-- Node4 -->
<g id="node4" class="node">
<title>Node4</title>
<g id="a_node4"><a xlink:href="classsss_1_1api_1_1S3Api.html#a1796fafda3d90a4292a611ce1999433b" target="_top" xlink:title="Create multipart upload.">
<polygon fill="none" stroke="black" points="6,-405 6,-435 162,-435 162,-405 6,-405"/>
<text text-anchor="start" x="14" y="-423" font-family="Helvetica,sans-Serif" font-size="10.00">sss::api::S3Api::CreateMultipart</text>
<text text-anchor="middle" x="84" y="-412" font-family="Helvetica,sans-Serif" font-size="10.00">Upload</text>
</a>
</g>
</g>
<!-- Node2&#45;&gt;Node4 -->
<g id="edge3" class="edge">
<title>Node2&#45;&gt;Node4</title>
<path fill="none" stroke="midnightblue" d="M281.02,-240.77C264.96,-276.29 225.29,-353.53 168,-395 162.64,-398.88 156.66,-402.17 150.45,-404.95"/>
<polygon fill="midnightblue" stroke="midnightblue" points="284.26,-242.1 285.08,-231.54 277.85,-239.28 284.26,-242.1"/>
</g>
<!-- Node5 -->
<g id="node5" class="node">
<title>Node5</title>
<g id="a_node5"><a xlink:href="classsss_1_1api_1_1S3Api.html#a3b53152bf39143843a4033aa4a1b3fa0" target="_top" xlink:title=" ">
<polygon fill="none" stroke="black" points="9,-366.5 9,-385.5 159,-385.5 159,-366.5 9,-366.5"/>
<text text-anchor="middle" x="84" y="-373.5" font-family="Helvetica,sans-Serif" font-size="10.00">sss::api::S3Api::GetBucketAcl</text>
</a>
</g>
</g>
<!-- Node2&#45;&gt;Node5 -->
<g id="edge4" class="edge">
<title>Node2&#45;&gt;Node5</title>
<path fill="none" stroke="midnightblue" d="M277.84,-240.53C259.05,-270.05 218.18,-327.42 168,-357 161.38,-360.9 154.02,-364 146.5,-366.47"/>
<polygon fill="midnightblue" stroke="midnightblue" points="281.04,-242.01 283.35,-231.67 275.1,-238.32 281.04,-242.01"/>
</g>
<!-- Node6 -->
<g id="node6" class="node">
<title>Node6</title>
<g id="a_node6"><a xlink:href="classsss_1_1api_1_1S3Api.html#afdb9997dfbd29512cbfe8da9f0028cf8" target="_top" xlink:title="Return bucket tags.">
<polygon fill="none" stroke="black" points="16,-317 16,-347 152,-347 152,-317 16,-317"/>
<text text-anchor="start" x="24" y="-335" font-family="Helvetica,sans-Serif" font-size="10.00">sss::api::S3Api::GetBucket</text>
<text text-anchor="middle" x="84" y="-324" font-family="Helvetica,sans-Serif" font-size="10.00">Tagging</text>
</a>
</g>
</g>
<!-- Node2&#45;&gt;Node6 -->
<g id="edge5" class="edge">
<title>Node2&#45;&gt;Node6</title>
<path fill="none" stroke="midnightblue" d="M270.24,-238.08C247.43,-256.93 207.1,-287.99 168,-307 160.29,-310.75 151.89,-314.07 143.5,-316.96"/>
<polygon fill="midnightblue" stroke="midnightblue" points="272.67,-240.62 278.09,-231.51 268.18,-235.25 272.67,-240.62"/>
</g>
<!-- Node7 -->
<g id="node7" class="node">
<title>Node7</title>
<g id="a_node7"><a xlink:href="classsss_1_1api_1_1S3Api.html#ae548966dc38f328fc45ee1500f5caf5b" target="_top" xlink:title="Return bucket&#39;s Access Control List.">
<polygon fill="none" stroke="black" points="10,-278.5 10,-297.5 158,-297.5 158,-278.5 10,-278.5"/>
<text text-anchor="middle" x="84" y="-285.5" font-family="Helvetica,sans-Serif" font-size="10.00">sss::api::S3Api::GetObjectAcl</text>
</a>
</g>
</g>
<!-- Node2&#45;&gt;Node7 -->
<g id="edge6" class="edge">
<title>Node2&#45;&gt;Node7</title>
<path fill="none" stroke="midnightblue" d="M257.67,-235.62C233.5,-245.77 199.05,-259.47 168,-269 156.55,-272.51 144.04,-275.7 132.28,-278.43"/>
<polygon fill="midnightblue" stroke="midnightblue" points="259.2,-238.77 267.04,-231.65 256.47,-232.33 259.2,-238.77"/>
</g>
<!-- Node8 -->
<g id="node8" class="node">
<title>Node8</title>
<g id="a_node8"><a xlink:href="classsss_1_1api_1_1S3Api.html#aceb12e50a72a7b9b3ca460c23671c586" target="_top" xlink:title="Return object tags.">
<polygon fill="none" stroke="black" points="17,-229 17,-259 151,-259 151,-229 17,-229"/>
<text text-anchor="start" x="25" y="-247" font-family="Helvetica,sans-Serif" font-size="10.00">sss::api::S3Api::GetObject</text>
<text text-anchor="middle" x="84" y="-236" font-family="Helvetica,sans-Serif" font-size="10.00">Tagging</text>
</a>
</g>
</g>
<!-- Node2&#45;&gt;Node8 -->
<g id="edge7" class="edge">
<title>Node2&#45;&gt;Node8</title>
<path fill="none" stroke="midnightblue" d="M200.48,-231.55C183.92,-233.33 166.87,-235.17 151.14,-236.87"/>
<polygon fill="midnightblue" stroke="midnightblue" points="201.14,-234.99 210.71,-230.44 200.39,-228.04 201.14,-234.99"/>
</g>
<!-- Node9 -->
<g id="node9" class="node">
<title>Node9</title>
<g id="a_node9"><a xlink:href="classsss_1_1api_1_1S3Api.html#a014e8431fd351f9994324527f74ba3e9" target="_top" xlink:title=" ">
<polygon fill="none" stroke="black" points="0,-190.5 0,-209.5 168,-209.5 168,-190.5 0,-190.5"/>
<text text-anchor="middle" x="84" y="-197.5" font-family="Helvetica,sans-Serif" font-size="10.00">sss::api::S3Api::GetResponseText</text>
</a>
</g>
</g>
<!-- Node2&#45;&gt;Node9 -->
<g id="edge8" class="edge">
<title>Node2&#45;&gt;Node9</title>
<path fill="none" stroke="midnightblue" d="M200.49,-212.46C189.76,-211.3 178.82,-210.12 168.16,-208.97"/>
<polygon fill="midnightblue" stroke="midnightblue" points="200.39,-215.96 210.71,-213.56 201.14,-209.01 200.39,-215.96"/>
</g>
<!-- Node10 -->
<g id="node10" class="node">
<title>Node10</title>
<g id="a_node10"><a xlink:href="classsss_1_1api_1_1S3Api.html#aa4a2b1cc2c89a52d1aa89e571b785db2" target="_top" xlink:title=" ">
<polygon fill="none" stroke="black" points="12.5,-152.5 12.5,-171.5 155.5,-171.5 155.5,-152.5 12.5,-152.5"/>
<text text-anchor="middle" x="84" y="-159.5" font-family="Helvetica,sans-Serif" font-size="10.00">sss::api::S3Api::HeadBucket</text>
</a>
</g>
</g>
<!-- Node2&#45;&gt;Node10 -->
<g id="edge9" class="edge">
<title>Node2&#45;&gt;Node10</title>
<path fill="none" stroke="midnightblue" d="M223.82,-209.76C217.03,-207.79 210.31,-205.55 204,-203 186.62,-195.97 185.37,-188.07 168,-181 158.69,-177.21 148.47,-174.09 138.48,-171.56"/>
<polygon fill="midnightblue" stroke="midnightblue" points="223.21,-213.22 233.78,-212.43 225.03,-206.46 223.21,-213.22"/>
</g>
<!-- Node11 -->
<g id="node11" class="node">
<title>Node11</title>
<g id="a_node11"><a xlink:href="classsss_1_1api_1_1S3Api.html#a81e30673c06b609a2ee6e6bfd9130ca6" target="_top" xlink:title="List buckets.">
<polygon fill="none" stroke="black" points="13.5,-114.5 13.5,-133.5 154.5,-133.5 154.5,-114.5 13.5,-114.5"/>
<text text-anchor="middle" x="84" y="-121.5" font-family="Helvetica,sans-Serif" font-size="10.00">sss::api::S3Api::ListBuckets</text>
</a>
</g>
</g>
<!-- Node2&#45;&gt;Node11 -->
<g id="edge10" class="edge">
<title>Node2&#45;&gt;Node11</title>
<path fill="none" stroke="midnightblue" d="M212.06,-208.02C209.25,-206.51 206.55,-204.84 204,-203 178.78,-184.8 193.17,-161.26 168,-143 162.74,-139.18 156.83,-136.11 150.66,-133.65"/>
<polygon fill="midnightblue" stroke="midnightblue" points="210.79,-211.29 221.34,-212.33 213.74,-204.94 210.79,-211.29"/>
</g>
<!-- Node12 -->
<g id="node12" class="node">
<title>Node12</title>
<g id="a_node12"><a xlink:href="classsss_1_1api_1_1S3Api.html#a3f00f611cd210a58ac6e8c0555984433" target="_top" xlink:title="List objects by sending a ListObjectsV2 request.">
<polygon fill="none" stroke="black" points="8.5,-76.5 8.5,-95.5 159.5,-95.5 159.5,-76.5 8.5,-76.5"/>
<text text-anchor="middle" x="84" y="-83.5" font-family="Helvetica,sans-Serif" font-size="10.00">sss::api::S3Api::ListObjectsV2</text>
</a>
</g>
</g>
<!-- Node2&#45;&gt;Node12 -->
<g id="edge11" class="edge">
<title>Node2&#45;&gt;Node12</title>
<path fill="none" stroke="midnightblue" d="M209.54,-207.27C207.61,-205.96 205.76,-204.54 204,-203 169.09,-172.43 202.83,-135.66 168,-105 163.67,-101.19 158.74,-98.1 153.48,-95.6"/>
<polygon fill="midnightblue" stroke="midnightblue" points="208.05,-210.45 218.47,-212.37 211.52,-204.37 208.05,-210.45"/>
</g>
<!-- Node13 -->
<g id="node13" class="node">
<title>Node13</title>
<g id="a_node13"><a xlink:href="classsss_1_1api_1_1S3Api.html#aa35e9b1cc7661cd9bb0d5f2de6cbbc7d" target="_top" xlink:title="Set Access Control Policy for bucket.">
<polygon fill="none" stroke="black" points="9.5,-38.5 9.5,-57.5 158.5,-57.5 158.5,-38.5 9.5,-38.5"/>
<text text-anchor="middle" x="84" y="-45.5" font-family="Helvetica,sans-Serif" font-size="10.00">sss::api::S3Api::PutBucketAcl</text>
</a>
</g>
</g>
<!-- Node2&#45;&gt;Node13 -->
<g id="edge12" class="edge">
<title>Node2&#45;&gt;Node13</title>
<path fill="none" stroke="midnightblue" d="M208.64,-206.96C207.02,-205.73 205.47,-204.42 204,-203 158.94,-159.65 212.95,-110.46 168,-67 164.07,-63.2 159.54,-60.1 154.67,-57.58"/>
<polygon fill="midnightblue" stroke="midnightblue" points="206.93,-210.02 217.26,-212.38 210.66,-204.1 206.93,-210.02"/>
</g>
<!-- Node14 -->
<g id="node14" class="node">
<title>Node14</title>
<g id="a_node14"><a xlink:href="classsss_1_1api_1_1S3Api.html#a2cc08fb777cfc4d24c40bea1cde967e7" target="_top" xlink:title="Set Access Control Policy.">
<polygon fill="none" stroke="black" points="10.5,-0.5 10.5,-19.5 157.5,-19.5 157.5,-0.5 10.5,-0.5"/>
<text text-anchor="middle" x="84" y="-7.5" font-family="Helvetica,sans-Serif" font-size="10.00">sss::api::S3Api::PutObjectAcl</text>
</a>
</g>
</g>
<!-- Node2&#45;&gt;Node14 -->
<g id="edge13" class="edge">
<title>Node2&#45;&gt;Node14</title>
<path fill="none" stroke="midnightblue" d="M208.02,-206.65C206.62,-205.51 205.28,-204.3 204,-203 148.6,-146.72 223.25,-85.42 168,-29 164.28,-25.2 159.96,-22.09 155.29,-19.55"/>
<polygon fill="midnightblue" stroke="midnightblue" points="206.37,-209.76 216.63,-212.4 210.26,-203.94 206.37,-209.76"/>
</g>
</g>
</svg>
