<?xml version="1.0" encoding="UTF-8" standalone="no"?>
<!DOCTYPE svg PUBLIC "-//W3C//DTD SVG 1.1//EN"
 "http://www.w3.org/Graphics/SVG/1.1/DTD/svg11.dtd">
<!-- Generated by graphviz version 8.0.5 (20230430.1635)
 -->
<!-- Title: sss::WebClient::UploadFile Pages: 1 -->
<svg width="454pt" height="230pt"
 viewBox="0.00 0.00 454.25 230.25" xmlns="http://www.w3.org/2000/svg" xmlns:xlink="http://www.w3.org/1999/xlink">
<g id="graph0" class="graph" transform="scale(1 1) rotate(0) translate(4 226.25)">
<title>sss::WebClient::UploadFile</title>
<!-- Node1 -->
<g id="node1" class="node">
<title>Node1</title>
<g id="a_node1"><a xlink:title="Upload file starting from offset.">
<polygon fill="#999999" stroke="#666666" points="135.25,-111.25 0,-111.25 0,-92 135.25,-92 135.25,-111.25"/>
<text text-anchor="middle" x="67.62" y="-97.75" font-family="Helvetica,sans-Serif" font-size="10.00">sss::WebClient::UploadFile</text>
</a>
</g>
</g>
<!-- Node2 -->
<g id="node2" class="node">
<title>Node2</title>
<g id="a_node2"><a xlink:href="classsss_1_1WebClient.html#a93d66d3941f37ec425bcdf0eef3836e4" target="_top" xlink:title=" ">
<polygon fill="white" stroke="#666666" points="317.75,-222.25 189.25,-222.25 189.25,-203 317.75,-203 317.75,-222.25"/>
<text text-anchor="middle" x="253.5" y="-208.75" font-family="Helvetica,sans-Serif" font-size="10.00">sss::WebClient::ErrorMsg</text>
</a>
</g>
</g>
<!-- Node1&#45;&gt;Node2 -->
<g id="edge1" class="edge">
<title>Node1&#45;&gt;Node2</title>
<path fill="none" stroke="#63b8ff" d="M76.48,-111.58C92.24,-130.84 129.81,-173.2 171.25,-194.62 174.33,-196.22 177.55,-197.67 180.85,-198.99"/>
<polygon fill="#63b8ff" stroke="#63b8ff" points="179.35,-202.53 189.95,-202.59 181.7,-195.94 179.35,-202.53"/>
</g>
<!-- Node3 -->
<g id="node3" class="node">
<title>Node3</title>
<g id="a_node3"><a xlink:href="lib_2include_2utility_8h.html#a7466aaf7905509bbeff80785a67d4859" target="_top" xlink:title=" ">
<polygon fill="white" stroke="#666666" points="290,-167.25 217,-167.25 217,-148 290,-148 290,-167.25"/>
<text text-anchor="middle" x="253.5" y="-153.75" font-family="Helvetica,sans-Serif" font-size="10.00">sss::FileSize</text>
</a>
</g>
</g>
<!-- Node1&#45;&gt;Node3 -->
<g id="edge2" class="edge">
<title>Node1&#45;&gt;Node3</title>
<path fill="none" stroke="#63b8ff" d="M92.78,-111.63C113.38,-119.91 143.91,-131.58 171.25,-139.62 182.38,-142.9 194.53,-145.9 205.96,-148.46"/>
<polygon fill="#63b8ff" stroke="#63b8ff" points="205.12,-152.08 215.64,-150.78 206.61,-145.24 205.12,-152.08"/>
</g>
<!-- Node4 -->
<g id="node4" class="node">
<title>Node4</title>
<g id="a_node4"><a xlink:href="group__Internal.html#ga27be61dcbd5f768458bdc07f4583103d" target="_top" xlink:title="Read from file.">
<polygon fill="white" stroke="#666666" points="291.88,-130.25 215.12,-130.25 215.12,-111 291.88,-111 291.88,-130.25"/>
<text text-anchor="middle" x="253.5" y="-116.75" font-family="Helvetica,sans-Serif" font-size="10.00">sss::ReadFile</text>
</a>
</g>
</g>
<!-- Node1&#45;&gt;Node4 -->
<g id="edge4" class="edge">
<title>Node1&#45;&gt;Node4</title>
<path fill="none" stroke="#63b8ff" d="M135.53,-108.54C158.16,-110.88 182.98,-113.44 203.91,-115.6"/>
<polygon fill="#63b8ff" stroke="#63b8ff" points="203.48,-119.18 213.79,-116.73 204.2,-112.22 203.48,-119.18"/>
</g>
<!-- Node5 -->
<g id="node5" class="node">
<title>Node5</title>
<g id="a_node5"><a xlink:href="classsss_1_1WebClient.html#aa1d7484f0e09242ce53b24f9648ce50e" target="_top" xlink:title=" ">
<polygon fill="white" stroke="#666666" points="309.12,-93.25 197.88,-93.25 197.88,-74 309.12,-74 309.12,-93.25"/>
<text text-anchor="middle" x="253.5" y="-79.75" font-family="Helvetica,sans-Serif" font-size="10.00">sss::WebClient::Send</text>
</a>
</g>
</g>
<!-- Node1&#45;&gt;Node5 -->
<g id="edge5" class="edge">
<title>Node1&#45;&gt;Node5</title>
<path fill="none" stroke="#63b8ff" d="M135.53,-95.08C152.21,-93.44 170.07,-91.69 186.7,-90.07"/>
<polygon fill="#63b8ff" stroke="#63b8ff" points="186.81,-93.47 196.42,-89.02 186.13,-86.51 186.81,-93.47"/>
</g>
<!-- Node6 -->
<g id="node6" class="node">
<title>Node6</title>
<g id="a_node6"><a xlink:href="classsss_1_1WebClient.html#af6233ffd7b294e1e7e606e838dd44e9e" target="_top" xlink:title=" ">
<polygon fill="white" stroke="#666666" points="321.5,-56.25 185.5,-56.25 185.5,-37 321.5,-37 321.5,-56.25"/>
<text text-anchor="middle" x="253.5" y="-42.75" font-family="Helvetica,sans-Serif" font-size="10.00">sss::WebClient::SetMethod</text>
</a>
</g>
</g>
<!-- Node1&#45;&gt;Node6 -->
<g id="edge6" class="edge">
<title>Node1&#45;&gt;Node6</title>
<path fill="none" stroke="#63b8ff" d="M93.63,-91.59C114.23,-83.57 144.33,-72.43 171.25,-64.62 177.96,-62.68 185.04,-60.83 192.1,-59.1"/>
<polygon fill="#63b8ff" stroke="#63b8ff" points="192.47,-62.37 201.4,-56.67 190.86,-55.56 192.47,-62.37"/>
</g>
<!-- Node8 -->
<g id="node8" class="node">
<title>Node8</title>
<g id="a_node8"><a xlink:href="classsss_1_1WebClient.html#a88dbcc61562e84aa9ebf1eabf887ac28" target="_top" xlink:title=" ">
<polygon fill="white" stroke="#666666" points="335.75,-19.25 171.25,-19.25 171.25,0 335.75,0 335.75,-19.25"/>
<text text-anchor="middle" x="253.5" y="-5.75" font-family="Helvetica,sans-Serif" font-size="10.00">sss::WebClient::SetReadFunction</text>
</a>
</g>
</g>
<!-- Node1&#45;&gt;Node8 -->
<g id="edge9" class="edge">
<title>Node1&#45;&gt;Node8</title>
<path fill="none" stroke="#63b8ff" d="M79.37,-91.54C97.09,-75.49 134.17,-44.25 171.25,-27.62 175.07,-25.91 179.07,-24.36 183.15,-22.94"/>
<polygon fill="#63b8ff" stroke="#63b8ff" points="183.94,-26.05 192.44,-19.72 181.85,-19.37 183.94,-26.05"/>
</g>
<!-- Node3&#45;&gt;Node3 -->
<g id="edge3" class="edge">
<title>Node3&#45;&gt;Node3</title>
<path fill="none" stroke="#63b8ff" d="M229.16,-167.54C218.05,-176.15 226.17,-185.25 253.5,-185.25 269.73,-185.25 279.18,-182.04 281.86,-177.63"/>
<polygon fill="#63b8ff" stroke="#63b8ff" points="284.79,-176.53 277.84,-168.54 278.29,-179.12 284.79,-176.53"/>
</g>
<!-- Node7 -->
<g id="node7" class="node">
<title>Node7</title>
<g id="a_node7"><a xlink:href="lib_2include_2utility_8h.html#ae153c064d6f1beda845702f67605b20e" target="_top" xlink:title=" ">
<polygon fill="white" stroke="#666666" points="446.25,-56.25 371.75,-56.25 371.75,-37 446.25,-37 446.25,-56.25"/>
<text text-anchor="middle" x="409" y="-42.75" font-family="Helvetica,sans-Serif" font-size="10.00">sss::ToUpper</text>
</a>
</g>
</g>
<!-- Node6&#45;&gt;Node7 -->
<g id="edge7" class="edge">
<title>Node6&#45;&gt;Node7</title>
<path fill="none" stroke="#63b8ff" d="M321.83,-46.62C334.9,-46.62 348.35,-46.62 360.61,-46.62"/>
<polygon fill="#63b8ff" stroke="#63b8ff" points="360.5,-50.13 370.5,-46.62 360.5,-43.13 360.5,-50.13"/>
</g>
<!-- Node7&#45;&gt;Node7 -->
<g id="edge8" class="edge">
<title>Node7&#45;&gt;Node7</title>
<path fill="none" stroke="#63b8ff" d="M384.66,-56.54C373.55,-65.15 381.67,-74.25 409,-74.25 425.23,-74.25 434.68,-71.04 437.36,-66.63"/>
<polygon fill="#63b8ff" stroke="#63b8ff" points="440.29,-65.53 433.34,-57.54 433.79,-68.12 440.29,-65.53"/>
</g>
</g>
</svg>
