<?xml version="1.0" encoding="UTF-8" standalone="no"?>
<!DOCTYPE svg PUBLIC "-//W3C//DTD SVG 1.1//EN"
 "http://www.w3.org/Graphics/SVG/1.1/DTD/svg11.dtd">
<!-- Generated by graphviz version 8.0.5 (20230430.1635)
 -->
<!-- Title: sss::WebClient::UploadFileMM Pages: 1 -->
<svg width="619pt" height="64pt"
 viewBox="0.00 0.00 618.75 64.25" xmlns="http://www.w3.org/2000/svg" xmlns:xlink="http://www.w3.org/1999/xlink">
<g id="graph0" class="graph" transform="scale(1 1) rotate(0) translate(4 60.25)">
<title>sss::WebClient::UploadFileMM</title>
<!-- Node1 -->
<g id="node1" class="node">
<title>Node1</title>
<g id="a_node1"><a xlink:title="Upload file starting from offset using unbuffered memory mapping of file.">
<polygon fill="#999999" stroke="#666666" points="151.75,-37.25 0,-37.25 0,-18 151.75,-18 151.75,-37.25"/>
<text text-anchor="middle" x="75.88" y="-23.75" font-family="Helvetica,sans-Serif" font-size="10.00">sss::WebClient::UploadFileMM</text>
</a>
</g>
</g>
<!-- Node2 -->
<g id="node2" class="node">
<title>Node2</title>
<g id="a_node2"><a xlink:href="classsss_1_1WebClient.html#ae7b1f77bd4ae44585f2d49ea493bdcc5" target="_top" xlink:title="Upload data from memory buffer.">
<polygon fill="white" stroke="#666666" points="328.25,-42.88 187.75,-42.88 187.75,-12.37 328.25,-12.37 328.25,-42.88"/>
<text text-anchor="start" x="195.75" y="-29.38" font-family="Helvetica,sans-Serif" font-size="10.00">sss::WebClient::UploadData</text>
<text text-anchor="middle" x="258" y="-18.12" font-family="Helvetica,sans-Serif" font-size="10.00">FromBuffer</text>
</a>
</g>
</g>
<!-- Node1&#45;&gt;Node2 -->
<g id="edge1" class="edge">
<title>Node1&#45;&gt;Node2</title>
<path fill="none" stroke="#63b8ff" d="M152.22,-27.62C160.24,-27.62 168.42,-27.62 176.5,-27.62"/>
<polygon fill="#63b8ff" stroke="#63b8ff" points="176.42,-31.13 186.42,-27.62 176.42,-24.13 176.42,-31.13"/>
</g>
<!-- Node3 -->
<g id="node3" class="node">
<title>Node3</title>
<g id="a_node3"><a xlink:href="classsss_1_1WebClient.html#aa1d7484f0e09242ce53b24f9648ce50e" target="_top" xlink:title=" ">
<polygon fill="white" stroke="#666666" points="487.88,-56.25 376.62,-56.25 376.62,-37 487.88,-37 487.88,-56.25"/>
<text text-anchor="middle" x="432.25" y="-42.75" font-family="Helvetica,sans-Serif" font-size="10.00">sss::WebClient::Send</text>
</a>
</g>
</g>
<!-- Node2&#45;&gt;Node3 -->
<g id="edge2" class="edge">
<title>Node2&#45;&gt;Node3</title>
<path fill="none" stroke="#63b8ff" d="M328.56,-35.3C340.72,-36.64 353.33,-38.03 365.38,-39.36"/>
<polygon fill="#63b8ff" stroke="#63b8ff" points="364.93,-42.94 375.26,-40.56 365.7,-35.98 364.93,-42.94"/>
</g>
<!-- Node4 -->
<g id="node4" class="node">
<title>Node4</title>
<g id="a_node4"><a xlink:href="classsss_1_1WebClient.html#af6233ffd7b294e1e7e606e838dd44e9e" target="_top" xlink:title=" ">
<polygon fill="white" stroke="#666666" points="500.25,-19.25 364.25,-19.25 364.25,0 500.25,0 500.25,-19.25"/>
<text text-anchor="middle" x="432.25" y="-5.75" font-family="Helvetica,sans-Serif" font-size="10.00">sss::WebClient::SetMethod</text>
</a>
</g>
</g>
<!-- Node2&#45;&gt;Node4 -->
<g id="edge3" class="edge">
<title>Node2&#45;&gt;Node4</title>
<path fill="none" stroke="#63b8ff" d="M328.56,-20.36C336.68,-19.51 345,-18.64 353.22,-17.78"/>
<polygon fill="#63b8ff" stroke="#63b8ff" points="353.36,-21.18 362.94,-16.66 352.63,-14.22 353.36,-21.18"/>
</g>
<!-- Node5 -->
<g id="node5" class="node">
<title>Node5</title>
<g id="a_node5"><a xlink:href="lib_2include_2utility_8h.html#ae153c064d6f1beda845702f67605b20e" target="_top" xlink:title=" ">
<polygon fill="white" stroke="#666666" points="610.75,-19.25 536.25,-19.25 536.25,0 610.75,0 610.75,-19.25"/>
<text text-anchor="middle" x="573.5" y="-5.75" font-family="Helvetica,sans-Serif" font-size="10.00">sss::ToUpper</text>
</a>
</g>
</g>
<!-- Node4&#45;&gt;Node5 -->
<g id="edge4" class="edge">
<title>Node4&#45;&gt;Node5</title>
<path fill="none" stroke="#63b8ff" d="M500.43,-9.62C508.75,-9.62 517.11,-9.62 525.05,-9.62"/>
<polygon fill="#63b8ff" stroke="#63b8ff" points="524.94,-13.13 534.94,-9.62 524.94,-6.13 524.94,-13.13"/>
</g>
<!-- Node5&#45;&gt;Node5 -->
<g id="edge5" class="edge">
<title>Node5&#45;&gt;Node5</title>
<path fill="none" stroke="#63b8ff" d="M551.39,-19.54C541.3,-28.15 548.67,-37.25 573.5,-37.25 587.85,-37.25 596.37,-34.21 599.06,-29.98"/>
<polygon fill="#63b8ff" stroke="#63b8ff" points="602.07,-28.94 595.61,-20.54 595.42,-31.13 602.07,-28.94"/>
</g>
</g>
</svg>
