<?xml version="1.0" encoding="UTF-8" standalone="no"?>
<!DOCTYPE svg PUBLIC "-//W3C//DTD SVG 1.1//EN"
 "http://www.w3.org/Graphics/SVG/1.1/DTD/svg11.dtd">
<!-- Generated by graphviz version 2.43.0 (0)
 -->
<!-- Title: sss::api::S3Api::Endpoint Pages: 1 -->
<svg width="828pt" height="871pt"
 viewBox="0.00 0.00 828.00 870.50" xmlns="http://www.w3.org/2000/svg" xmlns:xlink="http://www.w3.org/1999/xlink">
<g id="graph0" class="graph" transform="scale(1 1) rotate(0) translate(4 866.5)">
<title>sss::api::S3Api::Endpoint</title>
<!-- Node1 -->
<g id="node1" class="node">
<title>Node1</title>
<g id="a_node1"><a xlink:title=" ">
<polygon fill="#bfbfbf" stroke="black" points="692,-454.5 692,-473.5 820,-473.5 820,-454.5 692,-454.5"/>
<text text-anchor="middle" x="756" y="-461.5" font-family="Helvetica,sans-Serif" font-size="10.00">sss::api::S3Api::Endpoint</text>
</a>
</g>
</g>
<!-- Node2 -->
<g id="node2" class="node">
<title>Node2</title>
<g id="a_node2"><a xlink:href="classsss_1_1api_1_1S3Api.html#a840772746fbb0a79c161037da7b24a31" target="_top" xlink:title="Configure instance.">
<polygon fill="none" stroke="black" points="538,-454.5 538,-473.5 656,-473.5 656,-454.5 538,-454.5"/>
<text text-anchor="middle" x="597" y="-461.5" font-family="Helvetica,sans-Serif" font-size="10.00">sss::api::S3Api::Config</text>
</a>
</g>
</g>
<!-- Node1&#45;&gt;Node2 -->
<g id="edge1" class="edge">
<title>Node1&#45;&gt;Node2</title>
<path fill="none" stroke="midnightblue" d="M681.32,-464C672.84,-464 664.29,-464 656.06,-464"/>
<polygon fill="midnightblue" stroke="midnightblue" points="681.59,-467.5 691.59,-464 681.59,-460.5 681.59,-467.5"/>
</g>
<!-- Node3 -->
<g id="node3" class="node">
<title>Node3</title>
<g id="a_node3"><a xlink:href="classsss_1_1api_1_1S3Api.html#a1196f1cb9ce1e5d69336e9b8dbb5d59c" target="_top" xlink:title="Download object into file.">
<polygon fill="none" stroke="black" points="381,-498 381,-528 502,-528 502,-498 381,-498"/>
<text text-anchor="start" x="389" y="-516" font-family="Helvetica,sans-Serif" font-size="10.00">sss::api::S3Api::GetFile</text>
<text text-anchor="middle" x="441.5" y="-505" font-family="Helvetica,sans-Serif" font-size="10.00">Object</text>
</a>
</g>
</g>
<!-- Node2&#45;&gt;Node3 -->
<g id="edge2" class="edge">
<title>Node2&#45;&gt;Node3</title>
<path fill="none" stroke="midnightblue" d="M556.43,-476.63C536.03,-483.14 511,-491.13 489.61,-497.96"/>
<polygon fill="midnightblue" stroke="midnightblue" points="557.58,-479.94 566.04,-473.56 555.45,-473.27 557.58,-479.94"/>
</g>
<!-- Node4 -->
<g id="node4" class="node">
<title>Node4</title>
<g id="a_node4"><a xlink:href="classsss_1_1api_1_1S3Api.html#ab7affe0834f5892b393e731783b7ccac" target="_top" xlink:title="Upload file to object.">
<polygon fill="none" stroke="black" points="381.5,-449 381.5,-479 501.5,-479 501.5,-449 381.5,-449"/>
<text text-anchor="start" x="389.5" y="-467" font-family="Helvetica,sans-Serif" font-size="10.00">sss::api::S3Api::PutFile</text>
<text text-anchor="middle" x="441.5" y="-456" font-family="Helvetica,sans-Serif" font-size="10.00">Object</text>
</a>
</g>
</g>
<!-- Node2&#45;&gt;Node4 -->
<g id="edge3" class="edge">
<title>Node2&#45;&gt;Node4</title>
<path fill="none" stroke="midnightblue" d="M527.82,-464C519.09,-464 510.2,-464 501.63,-464"/>
<polygon fill="midnightblue" stroke="midnightblue" points="527.97,-467.5 537.97,-464 527.97,-460.5 527.97,-467.5"/>
</g>
<!-- Node5 -->
<g id="node5" class="node">
<title>Node5</title>
<g id="a_node5"><a xlink:href="classsss_1_1api_1_1S3Api.html#a02b4f0c95255f151beb72f0a6bdf5889" target="_top" xlink:title="Send request.">
<polygon fill="none" stroke="black" points="385.5,-410.5 385.5,-429.5 497.5,-429.5 497.5,-410.5 385.5,-410.5"/>
<text text-anchor="middle" x="441.5" y="-417.5" font-family="Helvetica,sans-Serif" font-size="10.00">sss::api::S3Api::Send</text>
</a>
</g>
</g>
<!-- Node2&#45;&gt;Node5 -->
<g id="edge4" class="edge">
<title>Node2&#45;&gt;Node5</title>
<path fill="none" stroke="midnightblue" d="M552.95,-451.66C528.5,-444.65 498.36,-436.01 475.74,-429.53"/>
<polygon fill="midnightblue" stroke="midnightblue" points="552.12,-455.06 562.69,-454.45 554.04,-448.33 552.12,-455.06"/>
</g>
<!-- Node6 -->
<g id="node6" class="node">
<title>Node6</title>
<g id="a_node6"><a xlink:href="classsss_1_1api_1_1S3Api.html#a4ea265566c3c4335ec01201cdc4410c6" target="_top" xlink:title="Abort multipart upload.">
<polygon fill="none" stroke="black" points="192,-832 192,-862 342,-862 342,-832 192,-832"/>
<text text-anchor="start" x="200" y="-850" font-family="Helvetica,sans-Serif" font-size="10.00">sss::api::S3Api::AbortMultipart</text>
<text text-anchor="middle" x="267" y="-839" font-family="Helvetica,sans-Serif" font-size="10.00">Upload</text>
</a>
</g>
</g>
<!-- Node5&#45;&gt;Node6 -->
<g id="edge5" class="edge">
<title>Node5&#45;&gt;Node6</title>
<path fill="none" stroke="midnightblue" d="M385.27,-435.49C383.73,-436.87 382.29,-438.37 381,-440 327.91,-507 398.83,-756.59 345,-823 342.27,-826.37 339.07,-829.28 335.55,-831.78"/>
<polygon fill="midnightblue" stroke="midnightblue" points="387.58,-438.14 393.78,-429.56 383.58,-432.4 387.58,-438.14"/>
</g>
<!-- Node7 -->
<g id="node7" class="node">
<title>Node7</title>
<g id="a_node7"><a xlink:href="classsss_1_1api_1_1S3Api.html#a98f999a216121118dd569c7ef0c28ff3" target="_top" xlink:title="Complete multipart upload.">
<polygon fill="none" stroke="black" points="201.5,-783 201.5,-813 332.5,-813 332.5,-783 201.5,-783"/>
<text text-anchor="start" x="209.5" y="-801" font-family="Helvetica,sans-Serif" font-size="10.00">sss::api::S3Api::Complete</text>
<text text-anchor="middle" x="267" y="-790" font-family="Helvetica,sans-Serif" font-size="10.00">MultipartUpload</text>
</a>
</g>
</g>
<!-- Node5&#45;&gt;Node7 -->
<g id="edge6" class="edge">
<title>Node5&#45;&gt;Node7</title>
<path fill="none" stroke="midnightblue" d="M385.3,-435.51C383.75,-436.88 382.31,-438.38 381,-440 287.73,-556.02 438.87,-657.46 345,-773 341.54,-777.25 337.35,-780.79 332.73,-783.73"/>
<polygon fill="midnightblue" stroke="midnightblue" points="387.61,-438.17 393.84,-429.6 383.63,-432.41 387.61,-438.17"/>
</g>
<!-- Node8 -->
<g id="node8" class="node">
<title>Node8</title>
<g id="a_node8"><a xlink:href="classsss_1_1api_1_1S3Api.html#ad890bd1ecfc978df24b2c3ed641e4081" target="_top" xlink:title="Create bucket.">
<polygon fill="none" stroke="black" points="192.5,-744.5 192.5,-763.5 341.5,-763.5 341.5,-744.5 192.5,-744.5"/>
<text text-anchor="middle" x="267" y="-751.5" font-family="Helvetica,sans-Serif" font-size="10.00">sss::api::S3Api::CreateBucket</text>
</a>
</g>
</g>
<!-- Node5&#45;&gt;Node8 -->
<g id="edge7" class="edge">
<title>Node5&#45;&gt;Node8</title>
<path fill="none" stroke="midnightblue" d="M385.33,-435.53C383.77,-436.9 382.32,-438.38 381,-440 297.54,-542.37 432.6,-636.15 345,-735 341.62,-738.81 337.61,-741.92 333.22,-744.45"/>
<polygon fill="midnightblue" stroke="midnightblue" points="387.64,-438.19 393.9,-429.65 383.67,-432.42 387.64,-438.19"/>
</g>
<!-- Node9 -->
<g id="node9" class="node">
<title>Node9</title>
<g id="a_node9"><a xlink:href="classsss_1_1api_1_1S3Api.html#a1796fafda3d90a4292a611ce1999433b" target="_top" xlink:title="Create multipart upload.">
<polygon fill="none" stroke="black" points="189,-695 189,-725 345,-725 345,-695 189,-695"/>
<text text-anchor="start" x="197" y="-713" font-family="Helvetica,sans-Serif" font-size="10.00">sss::api::S3Api::CreateMultipart</text>
<text text-anchor="middle" x="267" y="-702" font-family="Helvetica,sans-Serif" font-size="10.00">Upload</text>
</a>
</g>
</g>
<!-- Node5&#45;&gt;Node9 -->
<g id="edge8" class="edge">
<title>Node5&#45;&gt;Node9</title>
<path fill="none" stroke="midnightblue" d="M385.88,-435.15C384.11,-436.62 382.48,-438.23 381,-440 310.42,-524.45 416.02,-600.92 345,-685 341.74,-688.87 337.87,-692.14 333.63,-694.91"/>
<polygon fill="midnightblue" stroke="midnightblue" points="387.89,-438.02 394.29,-429.58 384.02,-432.18 387.89,-438.02"/>
</g>
<!-- Node10 -->
<g id="node10" class="node">
<title>Node10</title>
<g id="a_node10"><a xlink:href="classsss_1_1api_1_1S3Api.html#a3d63825d1916e4ba3ca13122c7660603" target="_top" xlink:title="Delete bucket.">
<polygon fill="none" stroke="black" points="192.5,-656.5 192.5,-675.5 341.5,-675.5 341.5,-656.5 192.5,-656.5"/>
<text text-anchor="middle" x="267" y="-663.5" font-family="Helvetica,sans-Serif" font-size="10.00">sss::api::S3Api::DeleteBucket</text>
</a>
</g>
</g>
<!-- Node5&#45;&gt;Node10 -->
<g id="edge9" class="edge">
<title>Node5&#45;&gt;Node10</title>
<path fill="none" stroke="midnightblue" d="M386.04,-435.12C384.22,-436.6 382.53,-438.22 381,-440 320.18,-510.86 408.69,-578.71 345,-647 341.43,-650.83 337.23,-653.94 332.65,-656.46"/>
<polygon fill="midnightblue" stroke="midnightblue" points="388.2,-437.89 394.69,-429.52 384.4,-432.01 388.2,-437.89"/>
</g>
<!-- Node11 -->
<g id="node11" class="node">
<title>Node11</title>
<g id="a_node11"><a xlink:href="classsss_1_1api_1_1S3Api.html#a14a75f15eb71fbba8639673100768b67" target="_top" xlink:title="Delete object.">
<polygon fill="none" stroke="black" points="194,-618.5 194,-637.5 340,-637.5 340,-618.5 194,-618.5"/>
<text text-anchor="middle" x="267" y="-625.5" font-family="Helvetica,sans-Serif" font-size="10.00">sss::api::S3Api::DeleteObject</text>
</a>
</g>
</g>
<!-- Node5&#45;&gt;Node11 -->
<g id="edge10" class="edge">
<title>Node5&#45;&gt;Node11</title>
<path fill="none" stroke="midnightblue" d="M386.23,-435.11C384.35,-436.59 382.59,-438.22 381,-440 329.89,-497.32 398.43,-553.83 345,-609 341.36,-612.76 337.1,-615.82 332.5,-618.31"/>
<polygon fill="midnightblue" stroke="midnightblue" points="388.54,-437.79 395.14,-429.5 384.81,-431.86 388.54,-437.79"/>
</g>
<!-- Node12 -->
<g id="node12" class="node">
<title>Node12</title>
<g id="a_node12"><a xlink:href="classsss_1_1api_1_1S3Api.html#a3b53152bf39143843a4033aa4a1b3fa0" target="_top" xlink:title=" ">
<polygon fill="none" stroke="black" points="192,-580.5 192,-599.5 342,-599.5 342,-580.5 192,-580.5"/>
<text text-anchor="middle" x="267" y="-587.5" font-family="Helvetica,sans-Serif" font-size="10.00">sss::api::S3Api::GetBucketAcl</text>
</a>
</g>
</g>
<!-- Node5&#45;&gt;Node12 -->
<g id="edge11" class="edge">
<title>Node5&#45;&gt;Node12</title>
<path fill="none" stroke="midnightblue" d="M386.91,-434.81C384.79,-436.37 382.8,-438.09 381,-440 339.52,-483.88 388.25,-528.87 345,-571 341.05,-574.84 336.46,-577.95 331.52,-580.45"/>
<polygon fill="midnightblue" stroke="midnightblue" points="388.89,-437.71 395.67,-429.57 385.3,-431.7 388.89,-437.71"/>
</g>
<!-- Node13 -->
<g id="node13" class="node">
<title>Node13</title>
<g id="a_node13"><a xlink:href="classsss_1_1api_1_1S3Api.html#afdb9997dfbd29512cbfe8da9f0028cf8" target="_top" xlink:title="Return bucket tags.">
<polygon fill="none" stroke="black" points="199,-531 199,-561 335,-561 335,-531 199,-531"/>
<text text-anchor="start" x="207" y="-549" font-family="Helvetica,sans-Serif" font-size="10.00">sss::api::S3Api::GetBucket</text>
<text text-anchor="middle" x="267" y="-538" font-family="Helvetica,sans-Serif" font-size="10.00">Tagging</text>
</a>
</g>
</g>
<!-- Node5&#45;&gt;Node13 -->
<g id="edge12" class="edge">
<title>Node5&#45;&gt;Node13</title>
<path fill="none" stroke="midnightblue" d="M388.51,-434.34C385.83,-436.03 383.3,-437.9 381,-440 351.87,-466.52 374.27,-494.63 345,-521 340.72,-524.86 335.83,-528.12 330.65,-530.88"/>
<polygon fill="midnightblue" stroke="midnightblue" points="390.26,-437.38 397.47,-429.61 386.99,-431.19 390.26,-437.38"/>
</g>
<!-- Node14 -->
<g id="node14" class="node">
<title>Node14</title>
<g id="a_node14"><a xlink:href="classsss_1_1api_1_1S3Api.html#af61465d92c0a94aa82ae863fc2a776a0" target="_top" xlink:title="Download object data.">
<polygon fill="none" stroke="black" points="200,-492.5 200,-511.5 334,-511.5 334,-492.5 200,-492.5"/>
<text text-anchor="middle" x="267" y="-499.5" font-family="Helvetica,sans-Serif" font-size="10.00">sss::api::S3Api::GetObject</text>
</a>
</g>
</g>
<!-- Node5&#45;&gt;Node14 -->
<g id="edge13" class="edge">
<title>Node5&#45;&gt;Node14</title>
<path fill="none" stroke="midnightblue" d="M392.4,-433.53C388.41,-435.43 384.54,-437.58 381,-440 360.42,-454.05 366.15,-469.81 345,-483 338.81,-486.86 331.88,-489.94 324.79,-492.39"/>
<polygon fill="midnightblue" stroke="midnightblue" points="394.04,-436.64 401.89,-429.52 391.32,-430.19 394.04,-436.64"/>
</g>
<!-- Node15 -->
<g id="node15" class="node">
<title>Node15</title>
<g id="a_node15"><a xlink:href="classsss_1_1api_1_1S3Api.html#ae548966dc38f328fc45ee1500f5caf5b" target="_top" xlink:title="Return bucket&#39;s Access Control List.">
<polygon fill="none" stroke="black" points="193,-454.5 193,-473.5 341,-473.5 341,-454.5 193,-454.5"/>
<text text-anchor="middle" x="267" y="-461.5" font-family="Helvetica,sans-Serif" font-size="10.00">sss::api::S3Api::GetObjectAcl</text>
</a>
</g>
</g>
<!-- Node5&#45;&gt;Node15 -->
<g id="edge14" class="edge">
<title>Node5&#45;&gt;Node15</title>
<path fill="none" stroke="midnightblue" d="M394.29,-432.24C378.65,-436.34 361.08,-440.91 345,-445 332.72,-448.12 319.33,-451.45 307.2,-454.44"/>
<polygon fill="midnightblue" stroke="midnightblue" points="395.47,-435.55 404.25,-429.62 393.69,-428.78 395.47,-435.55"/>
</g>
<!-- Node16 -->
<g id="node16" class="node">
<title>Node16</title>
<g id="a_node16"><a xlink:href="classsss_1_1api_1_1S3Api.html#aceb12e50a72a7b9b3ca460c23671c586" target="_top" xlink:title="Return object tags.">
<polygon fill="none" stroke="black" points="200,-405 200,-435 334,-435 334,-405 200,-405"/>
<text text-anchor="start" x="208" y="-423" font-family="Helvetica,sans-Serif" font-size="10.00">sss::api::S3Api::GetObject</text>
<text text-anchor="middle" x="267" y="-412" font-family="Helvetica,sans-Serif" font-size="10.00">Tagging</text>
</a>
</g>
</g>
<!-- Node5&#45;&gt;Node16 -->
<g id="edge15" class="edge">
<title>Node5&#45;&gt;Node16</title>
<path fill="none" stroke="midnightblue" d="M375.34,-420C361.92,-420 347.76,-420 334.3,-420"/>
<polygon fill="midnightblue" stroke="midnightblue" points="375.45,-423.5 385.45,-420 375.45,-416.5 375.45,-423.5"/>
</g>
<!-- Node17 -->
<g id="node17" class="node">
<title>Node17</title>
<g id="a_node17"><a xlink:href="classsss_1_1api_1_1S3Api.html#aa4a2b1cc2c89a52d1aa89e571b785db2" target="_top" xlink:title=" ">
<polygon fill="none" stroke="black" points="195.5,-366.5 195.5,-385.5 338.5,-385.5 338.5,-366.5 195.5,-366.5"/>
<text text-anchor="middle" x="267" y="-373.5" font-family="Helvetica,sans-Serif" font-size="10.00">sss::api::S3Api::HeadBucket</text>
</a>
</g>
</g>
<!-- Node5&#45;&gt;Node17 -->
<g id="edge16" class="edge">
<title>Node5&#45;&gt;Node17</title>
<path fill="none" stroke="midnightblue" d="M393.21,-407.94C365.55,-400.88 331.11,-392.1 305.36,-385.53"/>
<polygon fill="midnightblue" stroke="midnightblue" points="392.52,-411.37 403.07,-410.45 394.25,-404.59 392.52,-411.37"/>
</g>
<!-- Node18 -->
<g id="node18" class="node">
<title>Node18</title>
<g id="a_node18"><a xlink:href="classsss_1_1api_1_1S3Api.html#abc84a71b9a88b81afaa353ad17a91d22" target="_top" xlink:title="Send HeadObject request.">
<polygon fill="none" stroke="black" points="196.5,-328.5 196.5,-347.5 337.5,-347.5 337.5,-328.5 196.5,-328.5"/>
<text text-anchor="middle" x="267" y="-335.5" font-family="Helvetica,sans-Serif" font-size="10.00">sss::api::S3Api::HeadObject</text>
</a>
</g>
</g>
<!-- Node5&#45;&gt;Node18 -->
<g id="edge17" class="edge">
<title>Node5&#45;&gt;Node18</title>
<path fill="none" stroke="midnightblue" d="M420.94,-404.19C402.41,-389.94 373.28,-369.37 345,-357 336.3,-353.19 326.69,-350.05 317.3,-347.51"/>
<polygon fill="midnightblue" stroke="midnightblue" points="418.88,-407.02 428.91,-410.43 423.19,-401.51 418.88,-407.02"/>
</g>
<!-- Node21 -->
<g id="node21" class="node">
<title>Node21</title>
<g id="a_node21"><a xlink:href="classsss_1_1api_1_1S3Api.html#a81e30673c06b609a2ee6e6bfd9130ca6" target="_top" xlink:title="List buckets.">
<polygon fill="none" stroke="black" points="196.5,-290.5 196.5,-309.5 337.5,-309.5 337.5,-290.5 196.5,-290.5"/>
<text text-anchor="middle" x="267" y="-297.5" font-family="Helvetica,sans-Serif" font-size="10.00">sss::api::S3Api::ListBuckets</text>
</a>
</g>
</g>
<!-- Node5&#45;&gt;Node21 -->
<g id="edge20" class="edge">
<title>Node5&#45;&gt;Node21</title>
<path fill="none" stroke="midnightblue" d="M428.31,-401.72C412.05,-378.82 381.1,-340.04 345,-319 338.34,-315.12 330.91,-312.02 323.36,-309.56"/>
<polygon fill="midnightblue" stroke="midnightblue" points="425.6,-403.96 434.17,-410.19 431.36,-399.98 425.6,-403.96"/>
</g>
<!-- Node22 -->
<g id="node22" class="node">
<title>Node22</title>
<g id="a_node22"><a xlink:href="classsss_1_1api_1_1S3Api.html#a3f00f611cd210a58ac6e8c0555984433" target="_top" xlink:title="List objects by sending a ListObjectsV2 request.">
<polygon fill="none" stroke="black" points="191.5,-252.5 191.5,-271.5 342.5,-271.5 342.5,-252.5 191.5,-252.5"/>
<text text-anchor="middle" x="267" y="-259.5" font-family="Helvetica,sans-Serif" font-size="10.00">sss::api::S3Api::ListObjectsV2</text>
</a>
</g>
</g>
<!-- Node5&#45;&gt;Node22 -->
<g id="edge21" class="edge">
<title>Node5&#45;&gt;Node22</title>
<path fill="none" stroke="midnightblue" d="M432.85,-401.05C419.63,-370.79 389.58,-311.85 345,-281 339.45,-277.16 333.21,-274.09 326.73,-271.65"/>
<polygon fill="midnightblue" stroke="midnightblue" points="429.71,-402.61 436.82,-410.46 436.16,-399.89 429.71,-402.61"/>
</g>
<!-- Node23 -->
<g id="node23" class="node">
<title>Node23</title>
<g id="a_node23"><a xlink:href="classsss_1_1api_1_1S3Api.html#aa35e9b1cc7661cd9bb0d5f2de6cbbc7d" target="_top" xlink:title="Set Access Control Policy for bucket.">
<polygon fill="none" stroke="black" points="192.5,-214.5 192.5,-233.5 341.5,-233.5 341.5,-214.5 192.5,-214.5"/>
<text text-anchor="middle" x="267" y="-221.5" font-family="Helvetica,sans-Serif" font-size="10.00">sss::api::S3Api::PutBucketAcl</text>
</a>
</g>
</g>
<!-- Node5&#45;&gt;Node23 -->
<g id="edge22" class="edge">
<title>Node5&#45;&gt;Node23</title>
<path fill="none" stroke="midnightblue" d="M435.54,-400.11C425.26,-363.19 398.04,-284.08 345,-243 339.99,-239.12 334.3,-236.02 328.33,-233.55"/>
<polygon fill="midnightblue" stroke="midnightblue" points="432.25,-401.36 438.19,-410.13 439.01,-399.56 432.25,-401.36"/>
</g>
<!-- Node24 -->
<g id="node24" class="node">
<title>Node24</title>
<g id="a_node24"><a xlink:href="classsss_1_1api_1_1S3Api.html#ae0b480d21933d41f7ca992ca5abe3091" target="_top" xlink:title=" ">
<polygon fill="none" stroke="black" points="199.5,-165 199.5,-195 334.5,-195 334.5,-165 199.5,-165"/>
<text text-anchor="start" x="207.5" y="-183" font-family="Helvetica,sans-Serif" font-size="10.00">sss::api::S3Api::PutBucket</text>
<text text-anchor="middle" x="267" y="-172" font-family="Helvetica,sans-Serif" font-size="10.00">Tagging</text>
</a>
</g>
</g>
<!-- Node5&#45;&gt;Node24 -->
<g id="edge23" class="edge">
<title>Node5&#45;&gt;Node24</title>
<path fill="none" stroke="midnightblue" d="M437.25,-400.14C429.32,-358 405.04,-259.09 345,-205 340.72,-201.14 335.83,-197.88 330.65,-195.12"/>
<polygon fill="midnightblue" stroke="midnightblue" points="433.84,-400.98 439.03,-410.22 440.74,-399.76 433.84,-400.98"/>
</g>
<!-- Node25 -->
<g id="node25" class="node">
<title>Node25</title>
<g id="a_node25"><a xlink:href="classsss_1_1api_1_1S3Api.html#a2cc08fb777cfc4d24c40bea1cde967e7" target="_top" xlink:title="Set Access Control Policy.">
<polygon fill="none" stroke="black" points="193.5,-126.5 193.5,-145.5 340.5,-145.5 340.5,-126.5 193.5,-126.5"/>
<text text-anchor="middle" x="267" y="-133.5" font-family="Helvetica,sans-Serif" font-size="10.00">sss::api::S3Api::PutObjectAcl</text>
</a>
</g>
</g>
<!-- Node5&#45;&gt;Node25 -->
<g id="edge24" class="edge">
<title>Node5&#45;&gt;Node25</title>
<path fill="none" stroke="midnightblue" d="M439.46,-400C435.77,-350.58 419.16,-221.83 345,-155 340.7,-151.13 335.74,-148.02 330.46,-145.52"/>
<polygon fill="midnightblue" stroke="midnightblue" points="435.99,-400.53 440.12,-410.29 442.97,-400.09 435.99,-400.53"/>
</g>
<!-- Node26 -->
<g id="node26" class="node">
<title>Node26</title>
<g id="a_node26"><a xlink:href="classsss_1_1api_1_1S3Api.html#ac098e2619080dde98a75b71af8f66eef" target="_top" xlink:title="Set object tags.">
<polygon fill="none" stroke="black" points="200.5,-77 200.5,-107 333.5,-107 333.5,-77 200.5,-77"/>
<text text-anchor="start" x="208.5" y="-95" font-family="Helvetica,sans-Serif" font-size="10.00">sss::api::S3Api::PutObject</text>
<text text-anchor="middle" x="267" y="-84" font-family="Helvetica,sans-Serif" font-size="10.00">Tagging</text>
</a>
</g>
</g>
<!-- Node5&#45;&gt;Node26 -->
<g id="edge25" class="edge">
<title>Node5&#45;&gt;Node26</title>
<path fill="none" stroke="midnightblue" d="M440.19,-400.08C438.25,-346.56 425.5,-198.19 345,-117 341.14,-113.11 336.67,-109.82 331.86,-107.05"/>
<polygon fill="midnightblue" stroke="midnightblue" points="436.69,-400.37 440.46,-410.27 443.69,-400.18 436.69,-400.37"/>
</g>
<!-- Node27 -->
<g id="node27" class="node">
<title>Node27</title>
<g id="a_node27"><a xlink:href="classsss_1_1api_1_1S3Api.html#a0473917e4d25a4a6fca40d097e4299d6" target="_top" xlink:title=" ">
<polygon fill="none" stroke="black" points="211,-38.5 211,-57.5 323,-57.5 323,-38.5 211,-38.5"/>
<text text-anchor="middle" x="267" y="-45.5" font-family="Helvetica,sans-Serif" font-size="10.00">sss::api::S3Api::Send</text>
</a>
</g>
</g>
<!-- Node5&#45;&gt;Node27 -->
<g id="edge26" class="edge">
<title>Node5&#45;&gt;Node27</title>
<path fill="none" stroke="midnightblue" d="M437.82,-400.35C428.31,-333.3 394.02,-114.94 345,-67 338.9,-61.03 331.23,-56.84 323.12,-53.91"/>
<polygon fill="midnightblue" stroke="midnightblue" points="434.38,-400.99 439.23,-410.41 441.31,-400.02 434.38,-400.99"/>
</g>
<!-- Node28 -->
<g id="node28" class="node">
<title>Node28</title>
<g id="a_node28"><a xlink:href="classsss_1_1api_1_1S3Api.html#a23223ee1fb701c55af2d942dbf261ae2" target="_top" xlink:title="Check if bucket exist.">
<polygon fill="none" stroke="black" points="197.5,-0.5 197.5,-19.5 336.5,-19.5 336.5,-0.5 197.5,-0.5"/>
<text text-anchor="middle" x="267" y="-7.5" font-family="Helvetica,sans-Serif" font-size="10.00">sss::api::S3Api::TestBucket</text>
</a>
</g>
</g>
<!-- Node5&#45;&gt;Node28 -->
<g id="edge27" class="edge">
<title>Node5&#45;&gt;Node28</title>
<path fill="none" stroke="midnightblue" d="M438.35,-400.15C430.19,-328.25 398.76,-82.89 345,-29 341.21,-25.2 336.78,-22.11 332.01,-19.62"/>
<polygon fill="midnightblue" stroke="midnightblue" points="434.92,-400.93 439.5,-410.48 441.88,-400.15 434.92,-400.93"/>
</g>
<!-- Node19 -->
<g id="node19" class="node">
<title>Node19</title>
<g id="a_node19"><a xlink:href="classsss_1_1api_1_1S3Api.html#a872e80e356e8c404a9b0739d95a0af41" target="_top" xlink:title="Return object size.">
<polygon fill="none" stroke="black" points="0,-347.5 0,-366.5 153,-366.5 153,-347.5 0,-347.5"/>
<text text-anchor="middle" x="76.5" y="-354.5" font-family="Helvetica,sans-Serif" font-size="10.00">sss::api::S3Api::GetObjectSize</text>
</a>
</g>
</g>
<!-- Node18&#45;&gt;Node19 -->
<g id="edge18" class="edge">
<title>Node18&#45;&gt;Node19</title>
<path fill="none" stroke="midnightblue" d="M186.35,-346.03C175.37,-347.14 164.11,-348.27 153.2,-349.37"/>
<polygon fill="midnightblue" stroke="midnightblue" points="186.75,-349.51 196.35,-345.02 186.04,-342.54 186.75,-349.51"/>
</g>
<!-- Node20 -->
<g id="node20" class="node">
<title>Node20</title>
<g id="a_node20"><a xlink:href="classsss_1_1api_1_1S3Api.html#aa3f7a3001bdad58c7b0c04cbd0dc3236" target="_top" xlink:title="Check if key exists.">
<polygon fill="none" stroke="black" points="8,-309.5 8,-328.5 145,-328.5 145,-309.5 8,-309.5"/>
<text text-anchor="middle" x="76.5" y="-316.5" font-family="Helvetica,sans-Serif" font-size="10.00">sss::api::S3Api::TestObject</text>
</a>
</g>
</g>
<!-- Node18&#45;&gt;Node20 -->
<g id="edge19" class="edge">
<title>Node18&#45;&gt;Node20</title>
<path fill="none" stroke="midnightblue" d="M186.07,-329.94C172.5,-328.58 158.52,-327.17 145.3,-325.83"/>
<polygon fill="midnightblue" stroke="midnightblue" points="186.04,-333.46 196.35,-330.98 186.75,-326.49 186.04,-333.46"/>
</g>
</g>
</svg>
