<?xml version="1.0" encoding="UTF-8" standalone="no"?>
<!DOCTYPE svg PUBLIC "-//W3C//DTD SVG 1.1//EN"
 "http://www.w3.org/Graphics/SVG/1.1/DTD/svg11.dtd">
<!-- Generated by graphviz version 8.0.5 (20230430.1635)
 -->
<!-- Title: sss::api::S3Api::PutBucketAcl Pages: 1 -->
<svg width="1084pt" height="600pt"
 viewBox="0.00 0.00 1083.50 599.83" xmlns="http://www.w3.org/2000/svg" xmlns:xlink="http://www.w3.org/1999/xlink">
<g id="graph0" class="graph" transform="scale(1 1) rotate(0) translate(4 595.83)">
<title>sss::api::S3Api::PutBucketAcl</title>
<!-- Node1 -->
<g id="node1" class="node">
<title>Node1</title>
<g id="a_node1"><a xlink:title="Set Access Control Policy for bucket.">
<polygon fill="#999999" stroke="#666666" points="148.75,-161.25 0,-161.25 0,-142 148.75,-142 148.75,-161.25"/>
<text text-anchor="middle" x="74.38" y="-147.75" font-family="Helvetica,sans-Serif" font-size="10.00">sss::api::S3Api::PutBucketAcl</text>
</a>
</g>
</g>
<!-- Node2 -->
<g id="node2" class="node">
<title>Node2</title>
<g id="a_node2"><a xlink:href="classsss_1_1api_1_1S3Api.html#ad09581bf28c4bbbcbb71b329959ec1ae" target="_top" xlink:title="Send request.">
<polygon fill="white" stroke="#666666" points="296,-161.25 184.75,-161.25 184.75,-142 296,-142 296,-161.25"/>
<text text-anchor="middle" x="240.38" y="-147.75" font-family="Helvetica,sans-Serif" font-size="10.00">sss::api::S3Api::Send</text>
</a>
</g>
</g>
<!-- Node1&#45;&gt;Node2 -->
<g id="edge1" class="edge">
<title>Node1&#45;&gt;Node2</title>
<path fill="none" stroke="#63b8ff" d="M149.22,-151.62C157.4,-151.62 165.69,-151.62 173.77,-151.62"/>
<polygon fill="#63b8ff" stroke="#63b8ff" points="173.61,-155.13 183.61,-151.62 173.61,-148.13 173.61,-155.13"/>
</g>
<!-- Node3 -->
<g id="node3" class="node">
<title>Node3</title>
<g id="a_node3"><a xlink:href="classsss_1_1api_1_1S3Api.html#a840772746fbb0a79c161037da7b24a31" target="_top" xlink:title="Configure instance.">
<polygon fill="white" stroke="#666666" points="468,-365.25 350.75,-365.25 350.75,-346 468,-346 468,-365.25"/>
<text text-anchor="middle" x="409.38" y="-351.75" font-family="Helvetica,sans-Serif" font-size="10.00">sss::api::S3Api::Config</text>
</a>
</g>
</g>
<!-- Node2&#45;&gt;Node3 -->
<g id="edge2" class="edge">
<title>Node2&#45;&gt;Node3</title>
<path fill="none" stroke="#63b8ff" d="M249.66,-161.74C276.21,-194.18 359.48,-295.9 393.59,-337.56"/>
<polygon fill="#63b8ff" stroke="#63b8ff" points="391.39,-339.41 400.44,-344.93 396.81,-334.97 391.39,-339.41"/>
</g>
<!-- Node12 -->
<g id="node12" class="node">
<title>Node12</title>
<g id="a_node12"><a xlink:href="classsss_1_1WebClient.html#a51ce0ecf6487b6a43072643fe4f4cb4e" target="_top" xlink:title=" ">
<polygon fill="white" stroke="#666666" points="860.38,-591.25 715.38,-591.25 715.38,-572 860.38,-572 860.38,-591.25"/>
<text text-anchor="middle" x="787.88" y="-577.75" font-family="Helvetica,sans-Serif" font-size="10.00">sss::WebClient::SetPostData</text>
</a>
</g>
</g>
<!-- Node2&#45;&gt;Node12 -->
<g id="edge39" class="edge">
<title>Node2&#45;&gt;Node12</title>
<path fill="none" stroke="#63b8ff" d="M243.89,-161.65C252.43,-194.36 282.49,-300.15 332,-374.62 398.24,-474.27 413.68,-515.41 522.75,-564.62 579.47,-590.22 650.09,-593.49 704.03,-590.9"/>
<polygon fill="#63b8ff" stroke="#63b8ff" points="704.15,-594.34 713.94,-590.28 703.75,-587.35 704.15,-594.34"/>
</g>
<!-- Node27 -->
<g id="node27" class="node">
<title>Node27</title>
<g id="a_node27"><a xlink:href="lib_2include_2utility_8h.html#ab314781bb3f053ef5325b50f3a1b74f8" target="_top" xlink:title=" ">
<polygon fill="white" stroke="#666666" points="1030.5,-140.25 956,-140.25 956,-121 1030.5,-121 1030.5,-140.25"/>
<text text-anchor="middle" x="993.25" y="-126.75" font-family="Helvetica,sans-Serif" font-size="10.00">sss::ToLower</text>
</a>
</g>
</g>
<!-- Node2&#45;&gt;Node27 -->
<g id="edge42" class="edge">
<title>Node2&#45;&gt;Node27</title>
<path fill="none" stroke="#63b8ff" d="M296.28,-150.09C437.54,-146.14 811.73,-135.67 944.61,-131.96"/>
<polygon fill="#63b8ff" stroke="#63b8ff" points="944.7,-135.43 954.6,-131.65 944.51,-128.43 944.7,-135.43"/>
</g>
<!-- Node29 -->
<g id="node29" class="node">
<title>Node29</title>
<g id="a_node29"><a xlink:href="group__ErrorHandling.html#ga781648957bfce0bbc86cbdbff94e28a6" target="_top" xlink:title=" ">
<polygon fill="white" stroke="#666666" points="454.12,-56.25 364.62,-56.25 364.62,-37 454.12,-37 454.12,-56.25"/>
<text text-anchor="middle" x="409.38" y="-42.75" font-family="Helvetica,sans-Serif" font-size="10.00">sss::HandleError</text>
</a>
</g>
</g>
<!-- Node2&#45;&gt;Node29 -->
<g id="edge36" class="edge">
<title>Node2&#45;&gt;Node29</title>
<path fill="none" stroke="#63b8ff" d="M248.91,-141.66C263.11,-123.61 295.67,-85.54 332,-65.62 338.84,-61.88 346.42,-58.86 354.08,-56.42"/>
<polygon fill="#63b8ff" stroke="#63b8ff" points="354.84,-59.56 363.5,-53.46 352.93,-52.83 354.84,-59.56"/>
</g>
<!-- Node30 -->
<g id="node30" class="node">
<title>Node30</title>
<g id="a_node30"><a xlink:href="group__Internal.html#ga2b8b08c2a4994a87377d83ccfa9a6a53" target="_top" xlink:title=" ">
<polygon fill="white" stroke="#666666" points="457.88,-19.25 360.88,-19.25 360.88,0 457.88,0 457.88,-19.25"/>
<text text-anchor="middle" x="409.38" y="-5.75" font-family="Helvetica,sans-Serif" font-size="10.00">sss::ParseParams</text>
</a>
</g>
</g>
<!-- Node2&#45;&gt;Node30 -->
<g id="edge37" class="edge">
<title>Node2&#45;&gt;Node30</title>
<path fill="none" stroke="#63b8ff" d="M245.62,-141.73C256.34,-117.98 286.89,-57.54 332,-27.62 337.59,-23.92 343.85,-20.97 350.32,-18.63"/>
<polygon fill="#63b8ff" stroke="#63b8ff" points="351.09,-21.75 359.59,-15.43 349.01,-15.06 351.09,-21.75"/>
</g>
<!-- Node31 -->
<g id="node31" class="node">
<title>Node31</title>
<g id="a_node31"><a xlink:href="classsss_1_1WebClient.html#aa1d7484f0e09242ce53b24f9648ce50e" target="_top" xlink:title=" ">
<polygon fill="white" stroke="#666666" points="649.38,-180.25 538.12,-180.25 538.12,-161 649.38,-161 649.38,-180.25"/>
<text text-anchor="middle" x="593.75" y="-166.75" font-family="Helvetica,sans-Serif" font-size="10.00">sss::WebClient::Send</text>
</a>
</g>
</g>
<!-- Node2&#45;&gt;Node31 -->
<g id="edge38" class="edge">
<title>Node2&#45;&gt;Node31</title>
<path fill="none" stroke="#63b8ff" d="M296.28,-154.59C358.62,-157.97 460.31,-163.46 526.88,-167.06"/>
<polygon fill="#63b8ff" stroke="#63b8ff" points="526.48,-170.6 536.65,-167.65 526.86,-163.61 526.48,-170.6"/>
</g>
<!-- Node32 -->
<g id="node32" class="node">
<title>Node32</title>
<g id="a_node32"><a xlink:href="classsss_1_1WebClient.html#a7dfd984b33a29686fb0355b65b620e99" target="_top" xlink:title=" ">
<polygon fill="white" stroke="#666666" points="486.75,-104.88 332,-104.88 332,-74.38 486.75,-74.38 486.75,-104.88"/>
<text text-anchor="start" x="340" y="-91.38" font-family="Helvetica,sans-Serif" font-size="10.00">sss::WebClient::SetUrlEncoded</text>
<text text-anchor="middle" x="409.38" y="-80.12" font-family="Helvetica,sans-Serif" font-size="10.00">PostData</text>
</a>
</g>
</g>
<!-- Node2&#45;&gt;Node32 -->
<g id="edge40" class="edge">
<title>Node2&#45;&gt;Node32</title>
<path fill="none" stroke="#63b8ff" d="M268.58,-141.53C292.22,-132.75 327.14,-119.78 356.17,-109.01"/>
<polygon fill="#63b8ff" stroke="#63b8ff" points="357,-112.06 365.16,-105.3 354.57,-105.5 357,-112.06"/>
</g>
<!-- Node33 -->
<g id="node33" class="node">
<title>Node33</title>
<g id="a_node33"><a xlink:href="classsss_1_1WebClient.html#ae7b1f77bd4ae44585f2d49ea493bdcc5" target="_top" xlink:title="Upload data from memory buffer.">
<polygon fill="white" stroke="#666666" points="479.62,-228.88 339.12,-228.88 339.12,-198.38 479.62,-198.38 479.62,-228.88"/>
<text text-anchor="start" x="347.12" y="-215.38" font-family="Helvetica,sans-Serif" font-size="10.00">sss::WebClient::UploadData</text>
<text text-anchor="middle" x="409.38" y="-204.12" font-family="Helvetica,sans-Serif" font-size="10.00">FromBuffer</text>
</a>
</g>
</g>
<!-- Node2&#45;&gt;Node33 -->
<g id="edge43" class="edge">
<title>Node2&#45;&gt;Node33</title>
<path fill="none" stroke="#63b8ff" d="M268.58,-161.72C292.22,-170.5 327.14,-183.47 356.17,-194.24"/>
<polygon fill="#63b8ff" stroke="#63b8ff" points="354.57,-197.75 365.16,-197.95 357,-191.19 354.57,-197.75"/>
</g>
<!-- Node4 -->
<g id="node4" class="node">
<title>Node4</title>
<g id="a_node4"><a xlink:href="classsss_1_1api_1_1S3Api.html#aea9741d60e74775ccd4de1c2c58f64fa" target="_top" xlink:title=" ">
<polygon fill="white" stroke="#666666" points="654.62,-555.25 532.88,-555.25 532.88,-536 654.62,-536 654.62,-555.25"/>
<text text-anchor="middle" x="593.75" y="-541.75" font-family="Helvetica,sans-Serif" font-size="10.00">sss::api::S3Api::Access</text>
</a>
</g>
</g>
<!-- Node3&#45;&gt;Node4 -->
<g id="edge3" class="edge">
<title>Node3&#45;&gt;Node4</title>
<path fill="none" stroke="#63b8ff" d="M414.33,-365.48C426.27,-393.96 464.7,-477.22 522.75,-521.62 527.72,-525.43 533.33,-528.65 539.16,-531.38"/>
<polygon fill="#63b8ff" stroke="#63b8ff" points="537.52,-534.9 548.1,-535.51 540.21,-528.44 537.52,-534.9"/>
</g>
<!-- Node5 -->
<g id="node5" class="node">
<title>Node5</title>
<g id="a_node5"><a xlink:href="classsss_1_1api_1_1S3Api.html#a3718745d3b940462ae9f3b78f773b3a6" target="_top" xlink:title="Clear data and reset read and write functions.">
<polygon fill="white" stroke="#666666" points="649.75,-479.25 537.75,-479.25 537.75,-460 649.75,-460 649.75,-479.25"/>
<text text-anchor="middle" x="593.75" y="-465.75" font-family="Helvetica,sans-Serif" font-size="10.00">sss::api::S3Api::Clear</text>
</a>
</g>
</g>
<!-- Node3&#45;&gt;Node5 -->
<g id="edge4" class="edge">
<title>Node3&#45;&gt;Node5</title>
<path fill="none" stroke="#63b8ff" d="M420.34,-365.64C438.95,-383.84 480.92,-422.62 522.75,-445.62 529.87,-449.54 537.75,-452.99 545.58,-455.96"/>
<polygon fill="#63b8ff" stroke="#63b8ff" points="544.17,-459.53 554.76,-459.59 546.52,-452.94 544.17,-459.53"/>
</g>
<!-- Node10 -->
<g id="node10" class="node">
<title>Node10</title>
<g id="a_node10"><a xlink:href="classsss_1_1WebClient.html#a75890c14fbe4a4bbac61718a4f3c064d" target="_top" xlink:title=" ">
<polygon fill="white" stroke="#666666" points="858.12,-552.25 717.62,-552.25 717.62,-533 858.12,-533 858.12,-552.25"/>
<text text-anchor="middle" x="787.88" y="-538.75" font-family="Helvetica,sans-Serif" font-size="10.00">sss::WebClient::SetHeaders</text>
</a>
</g>
</g>
<!-- Node3&#45;&gt;Node10 -->
<g id="edge16" class="edge">
<title>Node3&#45;&gt;Node10</title>
<path fill="none" stroke="#63b8ff" d="M415.63,-365.59C429.45,-390.74 469.45,-457.01 522.75,-488.62 553.3,-506.75 640.49,-522.37 706.41,-532.08"/>
<polygon fill="#63b8ff" stroke="#63b8ff" points="705.8,-535.67 716.2,-533.64 706.81,-528.74 705.8,-535.67"/>
</g>
<!-- Node11 -->
<g id="node11" class="node">
<title>Node11</title>
<g id="a_node11"><a xlink:href="classsss_1_1WebClient.html#a12b5db6b8c667024557ab58059d39994" target="_top" xlink:title=" ">
<polygon fill="white" stroke="#666666" points="849.88,-441.25 725.88,-441.25 725.88,-422 849.88,-422 849.88,-441.25"/>
<text text-anchor="middle" x="787.88" y="-427.75" font-family="Helvetica,sans-Serif" font-size="10.00">sss::WebClient::SetPath</text>
</a>
</g>
</g>
<!-- Node3&#45;&gt;Node11 -->
<g id="edge20" class="edge">
<title>Node3&#45;&gt;Node11</title>
<path fill="none" stroke="#63b8ff" d="M434.95,-365.71C457.45,-374.57 491.83,-387.17 522.75,-394.62 586.76,-410.06 661.15,-419.76 714.65,-425.34"/>
<polygon fill="#63b8ff" stroke="#63b8ff" points="714.09,-428.9 724.4,-426.44 714.8,-421.94 714.09,-428.9"/>
</g>
<!-- Node13 -->
<g id="node13" class="node">
<title>Node13</title>
<g id="a_node13"><a xlink:href="classsss_1_1WebClient.html#a9bf978d95b79728f6d60fc2bdb4fe546" target="_top" xlink:title=" ">
<polygon fill="white" stroke="#666666" points="873.88,-404.25 701.88,-404.25 701.88,-385 873.88,-385 873.88,-404.25"/>
<text text-anchor="middle" x="787.88" y="-390.75" font-family="Helvetica,sans-Serif" font-size="10.00">sss::WebClient::SetReqParameters</text>
</a>
</g>
</g>
<!-- Node3&#45;&gt;Node13 -->
<g id="edge21" class="edge">
<title>Node3&#45;&gt;Node13</title>
<path fill="none" stroke="#63b8ff" d="M463.96,-365.72C482.52,-368.94 503.5,-372.27 522.75,-374.62 578.25,-381.4 640.6,-386.25 690.79,-389.48"/>
<polygon fill="#63b8ff" stroke="#63b8ff" points="690.43,-393.03 700.63,-390.16 690.87,-386.04 690.43,-393.03"/>
</g>
<!-- Node14 -->
<g id="node14" class="node">
<title>Node14</title>
<g id="a_node14"><a xlink:href="classsss_1_1api_1_1S3Api.html#a25a999d87c121627166fc0a896f536c7" target="_top" xlink:title=" ">
<polygon fill="white" stroke="#666666" points="657.25,-328.25 530.25,-328.25 530.25,-309 657.25,-309 657.25,-328.25"/>
<text text-anchor="middle" x="593.75" y="-314.75" font-family="Helvetica,sans-Serif" font-size="10.00">sss::api::S3Api::Endpoint</text>
</a>
</g>
</g>
<!-- Node3&#45;&gt;Node14 -->
<g id="edge13" class="edge">
<title>Node3&#45;&gt;Node14</title>
<path fill="none" stroke="#63b8ff" d="M460.21,-345.51C482.53,-340.99 509.03,-335.61 532.46,-330.86"/>
<polygon fill="#63b8ff" stroke="#63b8ff" points="532.87,-334.14 541.98,-328.72 531.48,-327.28 532.87,-334.14"/>
</g>
<!-- Node15 -->
<g id="node15" class="node">
<title>Node15</title>
<g id="a_node15"><a xlink:href="classsss_1_1api_1_1S3Api.html#a6f518c16679e99f119966b36ac28463f" target="_top" xlink:title=" ">
<polygon fill="white" stroke="#666666" points="652.38,-291.25 535.12,-291.25 535.12,-272 652.38,-272 652.38,-291.25"/>
<text text-anchor="middle" x="593.75" y="-277.75" font-family="Helvetica,sans-Serif" font-size="10.00">sss::api::S3Api::Secret</text>
</a>
</g>
</g>
<!-- Node3&#45;&gt;Node15 -->
<g id="edge14" class="edge">
<title>Node3&#45;&gt;Node15</title>
<path fill="none" stroke="#63b8ff" d="M427.76,-345.51C449.42,-333.26 487.83,-312.65 522.75,-299.62 527.5,-297.85 532.49,-296.19 537.53,-294.65"/>
<polygon fill="#63b8ff" stroke="#63b8ff" points="538.24,-297.8 546.88,-291.67 536.3,-291.08 538.24,-297.8"/>
</g>
<!-- Node16 -->
<g id="node16" class="node">
<title>Node16</title>
<g id="a_node16"><a xlink:href="classsss_1_1WebClient.html#afc3b7a92568fbb1ea447918920ca266e" target="_top" xlink:title="Set endpoint: &lt;proto&gt;://&lt;server&gt;:&lt;port&gt;">
<polygon fill="white" stroke="#666666" points="664.75,-254.25 522.75,-254.25 522.75,-235 664.75,-235 664.75,-254.25"/>
<text text-anchor="middle" x="593.75" y="-240.75" font-family="Helvetica,sans-Serif" font-size="10.00">sss::WebClient::SetEndpoint</text>
</a>
</g>
</g>
<!-- Node3&#45;&gt;Node16 -->
<g id="edge15" class="edge">
<title>Node3&#45;&gt;Node16</title>
<path fill="none" stroke="#63b8ff" d="M419.53,-345.53C437.45,-326.41 479.21,-284.83 522.75,-262.62 525.82,-261.06 529.05,-259.62 532.35,-258.3"/>
<polygon fill="#63b8ff" stroke="#63b8ff" points="533.19,-261.36 541.43,-254.69 530.83,-254.77 533.19,-261.36"/>
</g>
<!-- Node17 -->
<g id="node17" class="node">
<title>Node17</title>
<g id="a_node17"><a xlink:href="classsss_1_1WebClient.html#af6233ffd7b294e1e7e606e838dd44e9e" target="_top" xlink:title=" ">
<polygon fill="white" stroke="#666666" points="661.75,-217.25 525.75,-217.25 525.75,-198 661.75,-198 661.75,-217.25"/>
<text text-anchor="middle" x="593.75" y="-203.75" font-family="Helvetica,sans-Serif" font-size="10.00">sss::WebClient::SetMethod</text>
</a>
</g>
</g>
<!-- Node3&#45;&gt;Node17 -->
<g id="edge17" class="edge">
<title>Node3&#45;&gt;Node17</title>
<path fill="none" stroke="#63b8ff" d="M416,-345.68C430.38,-321.2 471.02,-257.69 522.75,-225.62 524.91,-224.29 527.17,-223.05 529.49,-221.9"/>
<polygon fill="#63b8ff" stroke="#63b8ff" points="530.53,-224.83 538.35,-217.68 527.78,-218.4 530.53,-224.83"/>
</g>
<!-- Node19 -->
<g id="node19" class="node">
<title>Node19</title>
<g id="a_node19"><a xlink:href="group__Sign.html#ga3ae8e18ef70752b7369fca66c40c526b" target="_top" xlink:title="Sign headers.">
<polygon fill="white" stroke="#666666" points="640.75,-365.25 546.75,-365.25 546.75,-346 640.75,-346 640.75,-365.25"/>
<text text-anchor="middle" x="593.75" y="-351.75" font-family="Helvetica,sans-Serif" font-size="10.00">sss::SignHeaders</text>
</a>
</g>
</g>
<!-- Node3&#45;&gt;Node19 -->
<g id="edge22" class="edge">
<title>Node3&#45;&gt;Node19</title>
<path fill="none" stroke="#63b8ff" d="M468.33,-355.62C489.82,-355.62 514.17,-355.62 535.59,-355.62"/>
<polygon fill="#63b8ff" stroke="#63b8ff" points="535.5,-359.13 545.5,-355.62 535.5,-352.13 535.5,-359.13"/>
</g>
<!-- Node6 -->
<g id="node6" class="node">
<title>Node6</title>
<g id="a_node6"><a xlink:href="classsss_1_1WebClient.html#a381f5715b7a2f19a0d4414d278874bae" target="_top" xlink:title="Clear internal buffers.">
<polygon fill="white" stroke="#666666" points="859.62,-515.25 716.12,-515.25 716.12,-496 859.62,-496 859.62,-515.25"/>
<text text-anchor="middle" x="787.88" y="-501.75" font-family="Helvetica,sans-Serif" font-size="10.00">sss::WebClient::ClearBuffers</text>
</a>
</g>
</g>
<!-- Node5&#45;&gt;Node6 -->
<g id="edge5" class="edge">
<title>Node5&#45;&gt;Node6</title>
<path fill="none" stroke="#63b8ff" d="M648.78,-479.75C671.59,-484.02 698.34,-489.04 722.19,-493.5"/>
<polygon fill="#63b8ff" stroke="#63b8ff" points="721.45,-497.11 731.92,-495.51 722.73,-490.23 721.45,-497.11"/>
</g>
<!-- Node7 -->
<g id="node7" class="node">
<title>Node7</title>
<g id="a_node7"><a xlink:href="classsss_1_1WebClient.html#a96837f149bb473853a6523d096a25c56" target="_top" xlink:title="Reset read/write functions to default.">
<polygon fill="white" stroke="#666666" points="875,-478.25 700.75,-478.25 700.75,-459 875,-459 875,-478.25"/>
<text text-anchor="middle" x="787.88" y="-464.75" font-family="Helvetica,sans-Serif" font-size="10.00">sss::WebClient::ResetRWFunctions</text>
</a>
</g>
</g>
<!-- Node5&#45;&gt;Node7 -->
<g id="edge6" class="edge">
<title>Node5&#45;&gt;Node7</title>
<path fill="none" stroke="#63b8ff" d="M650.06,-469.34C662.48,-469.27 676.02,-469.2 689.59,-469.13"/>
<polygon fill="#63b8ff" stroke="#63b8ff" points="689.48,-472.63 699.46,-469.07 689.44,-465.63 689.48,-472.63"/>
</g>
<!-- Node5&#45;&gt;Node10 -->
<g id="edge9" class="edge">
<title>Node5&#45;&gt;Node10</title>
<path fill="none" stroke="#63b8ff" d="M632.59,-479.68C643.35,-483.3 654.83,-487.94 664.75,-493.62 683.07,-504.13 681.82,-515.28 700.75,-524.62 704.07,-526.26 707.53,-527.75 711.08,-529.11"/>
<polygon fill="#63b8ff" stroke="#63b8ff" points="709.67,-532.66 720.27,-532.58 711.93,-526.04 709.67,-532.66"/>
</g>
<!-- Node5&#45;&gt;Node11 -->
<g id="edge10" class="edge">
<title>Node5&#45;&gt;Node11</title>
<path fill="none" stroke="#63b8ff" d="M645.73,-459.54C670.15,-454.71 699.59,-448.89 725.25,-443.81"/>
<polygon fill="#63b8ff" stroke="#63b8ff" points="725.86,-447.06 734.99,-441.69 724.5,-440.2 725.86,-447.06"/>
</g>
<!-- Node5&#45;&gt;Node12 -->
<g id="edge11" class="edge">
<title>Node5&#45;&gt;Node12</title>
<path fill="none" stroke="#63b8ff" d="M607.68,-479.59C621.94,-490.72 645.43,-509.43 664.75,-526.62 681.42,-541.46 681.16,-550.93 700.75,-561.62 705.23,-564.07 710,-566.22 714.91,-568.1"/>
<polygon fill="#63b8ff" stroke="#63b8ff" points="713.53,-571.68 724.13,-571.62 715.81,-565.06 713.53,-571.68"/>
</g>
<!-- Node5&#45;&gt;Node13 -->
<g id="edge12" class="edge">
<title>Node5&#45;&gt;Node13</title>
<path fill="none" stroke="#63b8ff" d="M609.9,-459.66C629.9,-446.94 666.59,-425.08 700.75,-412.62 705.91,-410.74 711.32,-409.04 716.81,-407.49"/>
<polygon fill="#63b8ff" stroke="#63b8ff" points="717.62,-410.63 726.41,-404.71 715.85,-403.86 717.62,-410.63"/>
</g>
<!-- Node8 -->
<g id="node8" class="node">
<title>Node8</title>
<g id="a_node8"><a xlink:href="classsss_1_1WebClient.html#a88dbcc61562e84aa9ebf1eabf887ac28" target="_top" xlink:title=" ">
<polygon fill="white" stroke="#666666" points="1075.5,-521.25 911,-521.25 911,-502 1075.5,-502 1075.5,-521.25"/>
<text text-anchor="middle" x="993.25" y="-507.75" font-family="Helvetica,sans-Serif" font-size="10.00">sss::WebClient::SetReadFunction</text>
</a>
</g>
</g>
<!-- Node7&#45;&gt;Node8 -->
<g id="edge7" class="edge">
<title>Node7&#45;&gt;Node8</title>
<path fill="none" stroke="#63b8ff" d="M837.17,-478.68C849.5,-481.26 862.74,-484.04 875,-486.62 894.41,-490.72 915.62,-495.24 934.6,-499.29"/>
<polygon fill="#63b8ff" stroke="#63b8ff" points="933.68,-502.88 944.19,-501.55 935.14,-496.03 933.68,-502.88"/>
</g>
<!-- Node9 -->
<g id="node9" class="node">
<title>Node9</title>
<g id="a_node9"><a xlink:href="classsss_1_1WebClient.html#a002876073b3869a9b9a9d709d14f1d7e" target="_top" xlink:title=" ">
<polygon fill="white" stroke="#666666" points="1056.38,-483.88 930.12,-483.88 930.12,-453.38 1056.38,-453.38 1056.38,-483.88"/>
<text text-anchor="start" x="938.12" y="-470.38" font-family="Helvetica,sans-Serif" font-size="10.00">sss::WebClient::SetWrite</text>
<text text-anchor="middle" x="993.25" y="-459.12" font-family="Helvetica,sans-Serif" font-size="10.00">Function</text>
</a>
</g>
</g>
<!-- Node7&#45;&gt;Node9 -->
<g id="edge8" class="edge">
<title>Node7&#45;&gt;Node9</title>
<path fill="none" stroke="#63b8ff" d="M875.42,-468.62C889.98,-468.62 904.96,-468.62 919.14,-468.62"/>
<polygon fill="#63b8ff" stroke="#63b8ff" points="918.8,-472.13 928.8,-468.62 918.8,-465.13 918.8,-472.13"/>
</g>
<!-- Node18 -->
<g id="node18" class="node">
<title>Node18</title>
<g id="a_node18"><a xlink:href="lib_2include_2utility_8h.html#ae153c064d6f1beda845702f67605b20e" target="_top" xlink:title=" ">
<polygon fill="white" stroke="#666666" points="1030.5,-195.25 956,-195.25 956,-176 1030.5,-176 1030.5,-195.25"/>
<text text-anchor="middle" x="993.25" y="-181.75" font-family="Helvetica,sans-Serif" font-size="10.00">sss::ToUpper</text>
</a>
</g>
</g>
<!-- Node17&#45;&gt;Node18 -->
<g id="edge18" class="edge">
<title>Node17&#45;&gt;Node18</title>
<path fill="none" stroke="#63b8ff" d="M662.18,-203.89C742.5,-199.45 874.6,-192.14 944.86,-188.25"/>
<polygon fill="#63b8ff" stroke="#63b8ff" points="944.79,-191.7 954.58,-187.65 944.41,-184.71 944.79,-191.7"/>
</g>
<!-- Node18&#45;&gt;Node18 -->
<g id="edge19" class="edge">
<title>Node18&#45;&gt;Node18</title>
<path fill="none" stroke="#63b8ff" d="M961.1,-195.54C946.43,-204.15 957.15,-213.25 993.25,-213.25 1016.38,-213.25 1029.09,-209.51 1031.38,-204.56"/>
<polygon fill="#63b8ff" stroke="#63b8ff" points="1033.84,-202.94 1025.4,-196.54 1028.01,-206.81 1033.84,-202.94"/>
</g>
<!-- Node20 -->
<g id="node20" class="node">
<title>Node20</title>
<g id="a_node20"><a xlink:href="group__Ranges.html#ga0aa7f3b15d2ebf9b597a1b5ba38ae8ac" target="_top" xlink:title="return iterator at start position">
<polygon fill="white" stroke="#666666" points="1023.75,-435.25 962.75,-435.25 962.75,-416 1023.75,-416 1023.75,-435.25"/>
<text text-anchor="middle" x="993.25" y="-421.75" font-family="Helvetica,sans-Serif" font-size="10.00">sss::begin</text>
</a>
</g>
</g>
<!-- Node19&#45;&gt;Node20 -->
<g id="edge23" class="edge">
<title>Node19&#45;&gt;Node20</title>
<path fill="none" stroke="#63b8ff" d="M641.25,-350.08C698.63,-345.19 798.03,-343.18 875,-375.62 894.73,-383.94 891.94,-397.89 911,-407.62 923.59,-414.06 938.42,-418.2 951.95,-420.87"/>
<polygon fill="#63b8ff" stroke="#63b8ff" points="950.99,-424.43 961.45,-422.7 952.2,-417.53 950.99,-424.43"/>
</g>
<!-- Node21 -->
<g id="node21" class="node">
<title>Node21</title>
<g id="a_node21"><a xlink:href="group__Sign.html#ga532598da479904609d6c02e4c2a1311a" target="_top" xlink:title="Compute signature.">
<polygon fill="white" stroke="#666666" points="847.25,-288.25 728.5,-288.25 728.5,-269 847.25,-269 847.25,-288.25"/>
<text text-anchor="middle" x="787.88" y="-274.75" font-family="Helvetica,sans-Serif" font-size="10.00">sss::ComputeSignature</text>
</a>
</g>
</g>
<!-- Node19&#45;&gt;Node21 -->
<g id="edge24" class="edge">
<title>Node19&#45;&gt;Node21</title>
<path fill="none" stroke="#63b8ff" d="M641.16,-347.12C649.29,-344.68 657.47,-341.57 664.75,-337.62 683.83,-327.28 681.89,-315.36 700.75,-304.62 709.61,-299.58 719.56,-295.41 729.46,-292.01"/>
<polygon fill="#63b8ff" stroke="#63b8ff" points="730.26,-295.11 738.72,-288.73 728.13,-288.44 730.26,-295.11"/>
</g>
<!-- Node23 -->
<g id="node23" class="node">
<title>Node23</title>
<g id="a_node23"><a xlink:href="group__Ranges.html#ga4f73053571587e79eb3db628f5e6ef99" target="_top" xlink:title="return iterator at end position">
<polygon fill="white" stroke="#666666" points="1020,-398.25 966.5,-398.25 966.5,-379 1020,-379 1020,-398.25"/>
<text text-anchor="middle" x="993.25" y="-384.75" font-family="Helvetica,sans-Serif" font-size="10.00">sss::end</text>
</a>
</g>
</g>
<!-- Node19&#45;&gt;Node23 -->
<g id="edge35" class="edge">
<title>Node19&#45;&gt;Node23</title>
<path fill="none" stroke="#63b8ff" d="M631.35,-345.56C686.05,-332.36 791.61,-314.01 875,-342.62 894.17,-349.2 892.66,-362 911,-370.62 924.86,-377.14 941.17,-381.35 955.52,-384.04"/>
<polygon fill="#63b8ff" stroke="#63b8ff" points="954.6,-387.6 965.05,-385.81 955.77,-380.7 954.6,-387.6"/>
</g>
<!-- Node21&#45;&gt;Node18 -->
<g id="edge33" class="edge">
<title>Node21&#45;&gt;Node18</title>
<path fill="none" stroke="#63b8ff" d="M810,-268.61C834.3,-257.13 875.43,-237.8 911,-221.62 926.86,-214.41 944.54,-206.56 959.35,-200.03"/>
<polygon fill="#63b8ff" stroke="#63b8ff" points="960.34,-202.98 968.08,-195.75 957.52,-196.57 960.34,-202.98"/>
</g>
<!-- Node21&#45;&gt;Node20 -->
<g id="edge25" class="edge">
<title>Node21&#45;&gt;Node20</title>
<path fill="none" stroke="#63b8ff" d="M806.46,-288.57C825.2,-299.83 854.88,-319.63 875,-342.62 896.74,-367.48 884.54,-387.86 911,-407.62 922.6,-416.29 937.57,-420.93 951.49,-423.37"/>
<polygon fill="#63b8ff" stroke="#63b8ff" points="950.96,-426.97 961.35,-424.88 951.93,-420.03 950.96,-426.97"/>
</g>
<!-- Node22 -->
<g id="node22" class="node">
<title>Node22</title>
<g id="a_node22"><a xlink:href="group__Internal.html#ga74c69f25ce04876e114759c0023b2a12" target="_top" xlink:title=" ">
<polygon fill="white" stroke="#666666" points="1056,-287.25 930.5,-287.25 930.5,-268 1056,-268 1056,-287.25"/>
<text text-anchor="middle" x="993.25" y="-273.75" font-family="Helvetica,sans-Serif" font-size="10.00">sss::CreateSignatureKey</text>
</a>
</g>
</g>
<!-- Node21&#45;&gt;Node22 -->
<g id="edge26" class="edge">
<title>Node21&#45;&gt;Node22</title>
<path fill="none" stroke="#63b8ff" d="M847.7,-278.34C869.98,-278.23 895.62,-278.1 919.06,-277.98"/>
<polygon fill="#63b8ff" stroke="#63b8ff" points="919.03,-281.48 929.01,-277.93 919,-274.48 919.03,-281.48"/>
</g>
<!-- Node21&#45;&gt;Node23 -->
<g id="edge27" class="edge">
<title>Node21&#45;&gt;Node23</title>
<path fill="none" stroke="#63b8ff" d="M844.87,-288.62C855.64,-292.37 866.27,-297.53 875,-304.62 900.93,-325.7 884.29,-350.54 911,-370.62 923.73,-380.2 940.56,-384.86 955.61,-387.07"/>
<polygon fill="#63b8ff" stroke="#63b8ff" points="954.82,-390.62 965.16,-388.28 955.62,-383.67 954.82,-390.62"/>
</g>
<!-- Node24 -->
<g id="node24" class="node">
<title>Node24</title>
<g id="a_node24"><a xlink:href="group__Internal.html#ga50353a351a93b1213dc4e5211c767d85" target="_top" xlink:title=" ">
<polygon fill="white" stroke="#666666" points="1033.12,-250.25 953.38,-250.25 953.38,-231 1033.12,-231 1033.12,-250.25"/>
<text text-anchor="middle" x="993.25" y="-236.75" font-family="Helvetica,sans-Serif" font-size="10.00">sss::GetDates</text>
</a>
</g>
</g>
<!-- Node21&#45;&gt;Node24 -->
<g id="edge28" class="edge">
<title>Node21&#45;&gt;Node24</title>
<path fill="none" stroke="#63b8ff" d="M842.84,-268.54C873.76,-262.76 912.29,-255.57 942.48,-249.92"/>
<polygon fill="#63b8ff" stroke="#63b8ff" points="943.01,-253.2 952.19,-247.92 941.72,-246.32 943.01,-253.2"/>
</g>
<!-- Node25 -->
<g id="node25" class="node">
<title>Node25</title>
<g id="a_node25"><a xlink:href="group__Internal.html#ga990dfaae4abc6bf20a28f9772b7bcd16" target="_top" xlink:title="Byte to hex string conversion.">
<polygon fill="white" stroke="#666666" points="1021.12,-361.25 965.38,-361.25 965.38,-342 1021.12,-342 1021.12,-361.25"/>
<text text-anchor="middle" x="993.25" y="-347.75" font-family="Helvetica,sans-Serif" font-size="10.00">sss::Hex</text>
</a>
</g>
</g>
<!-- Node21&#45;&gt;Node25 -->
<g id="edge29" class="edge">
<title>Node21&#45;&gt;Node25</title>
<path fill="none" stroke="#63b8ff" d="M833.98,-288.71C847.6,-292.67 862.29,-297.92 875,-304.62 893.17,-314.22 892.48,-324.72 911,-333.62 924.36,-340.05 940.06,-344.21 954.07,-346.9"/>
<polygon fill="#63b8ff" stroke="#63b8ff" points="953.43,-350.51 963.88,-348.75 954.61,-343.61 953.43,-350.51"/>
</g>
<!-- Node26 -->
<g id="node26" class="node">
<title>Node26</title>
<g id="a_node26"><a xlink:href="group__Internal.html#ga7160aa316f2c6633467b47588263c690" target="_top" xlink:title=" ">
<polygon fill="white" stroke="#666666" points="1035,-324.25 951.5,-324.25 951.5,-305 1035,-305 1035,-324.25"/>
<text text-anchor="middle" x="993.25" y="-310.75" font-family="Helvetica,sans-Serif" font-size="10.00">sss::ParseURL</text>
</a>
</g>
</g>
<!-- Node21&#45;&gt;Node26 -->
<g id="edge30" class="edge">
<title>Node21&#45;&gt;Node26</title>
<path fill="none" stroke="#63b8ff" d="M846.07,-288.75C875.76,-294 911.75,-300.38 940.6,-305.48"/>
<polygon fill="#63b8ff" stroke="#63b8ff" points="939.81,-309.07 950.27,-307.37 941.03,-302.18 939.81,-309.07"/>
</g>
<!-- Node21&#45;&gt;Node27 -->
<g id="edge31" class="edge">
<title>Node21&#45;&gt;Node27</title>
<path fill="none" stroke="#63b8ff" d="M797.5,-268.79C816.35,-247.76 863.34,-197.82 911,-166.62 924.19,-157.99 939.8,-150.51 953.79,-144.64"/>
<polygon fill="#63b8ff" stroke="#63b8ff" points="954.68,-147.65 962.64,-140.66 952.05,-141.17 954.68,-147.65"/>
</g>
<!-- Node28 -->
<g id="node28" class="node">
<title>Node28</title>
<g id="a_node28"><a xlink:href="group__Internal.html#ga0f079ace8729714b3949eabe22f228c9" target="_top" xlink:title=" ">
<polygon fill="white" stroke="#666666" points="1035,-102.25 951.5,-102.25 951.5,-83 1035,-83 1035,-102.25"/>
<text text-anchor="middle" x="993.25" y="-88.75" font-family="Helvetica,sans-Serif" font-size="10.00">sss::UrlEncode</text>
</a>
</g>
</g>
<!-- Node21&#45;&gt;Node28 -->
<g id="edge34" class="edge">
<title>Node21&#45;&gt;Node28</title>
<path fill="none" stroke="#63b8ff" d="M793.01,-268.84C805.82,-239.78 847.8,-153.45 911,-111.62 919.79,-105.81 930.14,-101.77 940.46,-98.96"/>
<polygon fill="#63b8ff" stroke="#63b8ff" points="941.2,-102.14 950.13,-96.45 939.6,-95.33 941.2,-102.14"/>
</g>
<!-- Node27&#45;&gt;Node27 -->
<g id="edge32" class="edge">
<title>Node27&#45;&gt;Node27</title>
<path fill="none" stroke="#63b8ff" d="M961.1,-140.54C946.43,-149.15 957.15,-158.25 993.25,-158.25 1016.38,-158.25 1029.09,-154.51 1031.38,-149.56"/>
<polygon fill="#63b8ff" stroke="#63b8ff" points="1033.84,-147.94 1025.4,-141.54 1028.01,-151.81 1033.84,-147.94"/>
</g>
<!-- Node32&#45;&gt;Node28 -->
<g id="edge41" class="edge">
<title>Node32&#45;&gt;Node28</title>
<path fill="none" stroke="#63b8ff" d="M487.04,-90.02C607.48,-90.64 837.86,-91.83 940.59,-92.36"/>
<polygon fill="#63b8ff" stroke="#63b8ff" points="940.28,-95.86 950.3,-92.41 940.32,-88.86 940.28,-95.86"/>
</g>
<!-- Node33&#45;&gt;Node17 -->
<g id="edge45" class="edge">
<title>Node33&#45;&gt;Node17</title>
<path fill="none" stroke="#63b8ff" d="M480.1,-211.33C491.38,-210.96 503.12,-210.57 514.59,-210.2"/>
<polygon fill="#63b8ff" stroke="#63b8ff" points="514.59,-213.67 524.47,-209.84 514.36,-206.67 514.59,-213.67"/>
</g>
<!-- Node33&#45;&gt;Node31 -->
<g id="edge44" class="edge">
<title>Node33&#45;&gt;Node31</title>
<path fill="none" stroke="#63b8ff" d="M476.99,-197.92C497.51,-193.08 519.82,-187.82 539.33,-183.22"/>
<polygon fill="#63b8ff" stroke="#63b8ff" points="539.93,-186.44 548.86,-180.74 538.32,-179.63 539.93,-186.44"/>
</g>
</g>
</svg>
