<?xml version="1.0" encoding="UTF-8" standalone="no"?>
<!DOCTYPE svg PUBLIC "-//W3C//DTD SVG 1.1//EN"
 "http://www.w3.org/Graphics/SVG/1.1/DTD/svg11.dtd">
<!-- Generated by graphviz version 2.43.0 (0)
 -->
<!-- Title: sss::WebClient::UploadFile Pages: 1 -->
<svg width="345pt" height="180pt"
 viewBox="0.00 0.00 345.00 180.00" xmlns="http://www.w3.org/2000/svg" xmlns:xlink="http://www.w3.org/1999/xlink">
<g id="graph0" class="graph" transform="scale(1 1) rotate(0) translate(4 176)">
<title>sss::WebClient::UploadFile</title>
<!-- Node1 -->
<g id="node1" class="node">
<title>Node1</title>
<g id="a_node1"><a xlink:title="Upload file starting from offset.">
<polygon fill="#bfbfbf" stroke="black" points="0,-76.5 0,-95.5 136,-95.5 136,-76.5 0,-76.5"/>
<text text-anchor="middle" x="68" y="-83.5" font-family="Helvetica,sans-Serif" font-size="10.00">sss::WebClient::UploadFile</text>
</a>
</g>
</g>
<!-- Node2 -->
<g id="node2" class="node">
<title>Node2</title>
<g id="a_node2"><a xlink:href="classsss_1_1WebClient.html#a93d66d3941f37ec425bcdf0eef3836e4" target="_top" xlink:title=" ">
<polygon fill="none" stroke="black" points="190,-152.5 190,-171.5 319,-171.5 319,-152.5 190,-152.5"/>
<text text-anchor="middle" x="254.5" y="-159.5" font-family="Helvetica,sans-Serif" font-size="10.00">sss::WebClient::ErrorMsg</text>
</a>
</g>
</g>
<!-- Node1&#45;&gt;Node2 -->
<g id="edge1" class="edge">
<title>Node1&#45;&gt;Node2</title>
<path fill="none" stroke="midnightblue" d="M83.38,-95.65C102.74,-108.24 138.62,-130.16 172,-143 178.71,-145.58 185.88,-147.88 193.07,-149.9"/>
<polygon fill="midnightblue" stroke="midnightblue" points="192.28,-153.31 202.85,-152.48 194.07,-146.54 192.28,-153.31"/>
</g>
<!-- Node3 -->
<g id="node3" class="node">
<title>Node3</title>
<g id="a_node3"><a xlink:href="group__Internal.html#ga27be61dcbd5f768458bdc07f4583103d" target="_top" xlink:title="Read from file.">
<polygon fill="none" stroke="black" points="216,-114.5 216,-133.5 293,-133.5 293,-114.5 216,-114.5"/>
<text text-anchor="middle" x="254.5" y="-121.5" font-family="Helvetica,sans-Serif" font-size="10.00">sss::ReadFile</text>
</a>
</g>
</g>
<!-- Node1&#45;&gt;Node3 -->
<g id="edge2" class="edge">
<title>Node1&#45;&gt;Node3</title>
<path fill="none" stroke="midnightblue" d="M115.56,-95.59C143.22,-101.29 178.23,-108.5 206.05,-114.23"/>
<polygon fill="midnightblue" stroke="midnightblue" points="205.45,-117.68 215.95,-116.27 206.86,-110.82 205.45,-117.68"/>
</g>
<!-- Node4 -->
<g id="node4" class="node">
<title>Node4</title>
<g id="a_node4"><a xlink:href="classsss_1_1WebClient.html#aa1d7484f0e09242ce53b24f9648ce50e" target="_top" xlink:title=" ">
<polygon fill="none" stroke="black" points="198.5,-76.5 198.5,-95.5 310.5,-95.5 310.5,-76.5 198.5,-76.5"/>
<text text-anchor="middle" x="254.5" y="-83.5" font-family="Helvetica,sans-Serif" font-size="10.00">sss::WebClient::Send</text>
</a>
</g>
</g>
<!-- Node1&#45;&gt;Node4 -->
<g id="edge3" class="edge">
<title>Node1&#45;&gt;Node4</title>
<path fill="none" stroke="midnightblue" d="M136.13,-86C153.02,-86 171.14,-86 187.95,-86"/>
<polygon fill="midnightblue" stroke="midnightblue" points="188.23,-89.5 198.23,-86 188.23,-82.5 188.23,-89.5"/>
</g>
<!-- Node5 -->
<g id="node5" class="node">
<title>Node5</title>
<g id="a_node5"><a xlink:href="classsss_1_1WebClient.html#af6233ffd7b294e1e7e606e838dd44e9e" target="_top" xlink:title=" ">
<polygon fill="none" stroke="black" points="186,-38.5 186,-57.5 323,-57.5 323,-38.5 186,-38.5"/>
<text text-anchor="middle" x="254.5" y="-45.5" font-family="Helvetica,sans-Serif" font-size="10.00">sss::WebClient::SetMethod</text>
</a>
</g>
</g>
<!-- Node1&#45;&gt;Node5 -->
<g id="edge4" class="edge">
<title>Node1&#45;&gt;Node5</title>
<path fill="none" stroke="midnightblue" d="M115.56,-76.41C140.34,-71.31 171.02,-64.99 197.14,-59.61"/>
<polygon fill="midnightblue" stroke="midnightblue" points="198.19,-62.97 207.28,-57.52 196.78,-56.11 198.19,-62.97"/>
</g>
<!-- Node6 -->
<g id="node6" class="node">
<title>Node6</title>
<g id="a_node6"><a xlink:href="classsss_1_1WebClient.html#a88dbcc61562e84aa9ebf1eabf887ac28" target="_top" xlink:title=" ">
<polygon fill="none" stroke="black" points="172,-0.5 172,-19.5 337,-19.5 337,-0.5 172,-0.5"/>
<text text-anchor="middle" x="254.5" y="-7.5" font-family="Helvetica,sans-Serif" font-size="10.00">sss::WebClient::SetReadFunction</text>
</a>
</g>
</g>
<!-- Node1&#45;&gt;Node6 -->
<g id="edge5" class="edge">
<title>Node1&#45;&gt;Node6</title>
<path fill="none" stroke="midnightblue" d="M83.38,-76.35C102.74,-63.76 138.62,-41.84 172,-29 178.71,-26.42 185.88,-24.12 193.07,-22.1"/>
<polygon fill="midnightblue" stroke="midnightblue" points="194.07,-25.46 202.85,-19.52 192.28,-18.69 194.07,-25.46"/>
</g>
</g>
</svg>
