<?xml version="1.0" encoding="UTF-8" standalone="no"?>
<!DOCTYPE svg PUBLIC "-//W3C//DTD SVG 1.1//EN"
 "http://www.w3.org/Graphics/SVG/1.1/DTD/svg11.dtd">
<!-- Generated by graphviz version 8.0.5 (20230430.1635)
 -->
<!-- Title: sss::api::S3Api::ListBuckets Pages: 1 -->
<svg width="1082pt" height="597pt"
 viewBox="0.00 0.00 1082.00 597.35" xmlns="http://www.w3.org/2000/svg" xmlns:xlink="http://www.w3.org/1999/xlink">
<g id="graph0" class="graph" transform="scale(1 1) rotate(0) translate(4 593.35)">
<title>sss::api::S3Api::ListBuckets</title>
<!-- Node1 -->
<g id="node1" class="node">
<title>Node1</title>
<g id="a_node1"><a xlink:title="List buckets.">
<polygon fill="#999999" stroke="#666666" points="140.5,-406.88 0,-406.88 0,-387.62 140.5,-387.62 140.5,-406.88"/>
<text text-anchor="middle" x="70.25" y="-393.38" font-family="Helvetica,sans-Serif" font-size="10.00">sss::api::S3Api::ListBuckets</text>
</a>
</g>
</g>
<!-- Node2 -->
<g id="node2" class="node">
<title>Node2</title>
<g id="a_node2"><a xlink:href="classsss_1_1WebClient.html#ac9e82fc4b56b142d91f9b104f5266f91" target="_top" xlink:title="Get response body as text.">
<polygon fill="white" stroke="#666666" points="858.5,-570.88 700.75,-570.88 700.75,-551.62 858.5,-551.62 858.5,-570.88"/>
<text text-anchor="middle" x="779.62" y="-557.38" font-family="Helvetica,sans-Serif" font-size="10.00">sss::WebClient::GetContentText</text>
</a>
</g>
</g>
<!-- Node1&#45;&gt;Node2 -->
<g id="edge1" class="edge">
<title>Node1&#45;&gt;Node2</title>
<path fill="none" stroke="#63b8ff" d="M88.19,-407.26C145.55,-440.48 338.71,-547.04 514.5,-582.25 587.5,-596.87 673.77,-584.61 727.35,-573.62"/>
<polygon fill="#63b8ff" stroke="#63b8ff" points="727.89,-576.87 736.94,-571.37 726.43,-570.02 727.89,-576.87"/>
</g>
<!-- Node6 -->
<g id="node6" class="node">
<title>Node6</title>
<g id="a_node6"><a xlink:href="classsss_1_1api_1_1S3Api.html#ad09581bf28c4bbbcbb71b329959ec1ae" target="_top" xlink:title="Send request.">
<polygon fill="white" stroke="#666666" points="287.75,-202.88 176.5,-202.88 176.5,-183.62 287.75,-183.62 287.75,-202.88"/>
<text text-anchor="middle" x="232.12" y="-189.38" font-family="Helvetica,sans-Serif" font-size="10.00">sss::api::S3Api::Send</text>
</a>
</g>
</g>
<!-- Node1&#45;&gt;Node6 -->
<g id="edge5" class="edge">
<title>Node1&#45;&gt;Node6</title>
<path fill="none" stroke="#63b8ff" d="M79.18,-387.13C104.55,-354.76 183.98,-253.4 216.76,-211.58"/>
<polygon fill="#63b8ff" stroke="#63b8ff" points="220.11,-213.98 223.52,-203.95 214.6,-209.66 220.11,-213.98"/>
</g>
<!-- Node3 -->
<g id="node3" class="node">
<title>Node3</title>
<g id="a_node3"><a xlink:href="group__Ranges.html#ga0aa7f3b15d2ebf9b597a1b5ba38ae8ac" target="_top" xlink:title="return iterator at start position">
<polygon fill="white" stroke="#666666" points="1018.88,-495.88 957.88,-495.88 957.88,-476.62 1018.88,-476.62 1018.88,-495.88"/>
<text text-anchor="middle" x="988.38" y="-482.38" font-family="Helvetica,sans-Serif" font-size="10.00">sss::begin</text>
</a>
</g>
</g>
<!-- Node2&#45;&gt;Node3 -->
<g id="edge2" class="edge">
<title>Node2&#45;&gt;Node3</title>
<path fill="none" stroke="#63b8ff" d="M798.71,-551.21C822.09,-538.62 864.37,-517.1 902.75,-504.25 916.94,-499.5 932.9,-495.72 947.1,-492.88"/>
<polygon fill="#63b8ff" stroke="#63b8ff" points="947.39,-496.19 956.56,-490.88 946.08,-489.32 947.39,-496.19"/>
</g>
<!-- Node4 -->
<g id="node4" class="node">
<title>Node4</title>
<g id="a_node4"><a xlink:href="group__Ranges.html#ga4f73053571587e79eb3db628f5e6ef99" target="_top" xlink:title="return iterator at end position">
<polygon fill="white" stroke="#666666" points="1015.12,-532.88 961.62,-532.88 961.62,-513.62 1015.12,-513.62 1015.12,-532.88"/>
<text text-anchor="middle" x="988.38" y="-519.38" font-family="Helvetica,sans-Serif" font-size="10.00">sss::end</text>
</a>
</g>
</g>
<!-- Node2&#45;&gt;Node4 -->
<g id="edge3" class="edge">
<title>Node2&#45;&gt;Node4</title>
<path fill="none" stroke="#63b8ff" d="M835.49,-551.17C871.87,-544.48 918.63,-535.89 950.59,-530.01"/>
<polygon fill="#63b8ff" stroke="#63b8ff" points="951.04,-533.3 960.24,-528.05 949.77,-526.42 951.04,-533.3"/>
</g>
<!-- Node5 -->
<g id="node5" class="node">
<title>Node5</title>
<g id="a_node5"><a xlink:href="classsss_1_1WebClient.html#a77a4e0190a4f207b969cb63b6ba38ccc" target="_top" xlink:title=" ">
<polygon fill="white" stroke="#666666" points="1074,-570.88 902.75,-570.88 902.75,-551.62 1074,-551.62 1074,-570.88"/>
<text text-anchor="middle" x="988.38" y="-557.38" font-family="Helvetica,sans-Serif" font-size="10.00">sss::WebClient::GetResponseBody</text>
</a>
</g>
</g>
<!-- Node2&#45;&gt;Node5 -->
<g id="edge4" class="edge">
<title>Node2&#45;&gt;Node5</title>
<path fill="none" stroke="#63b8ff" d="M858.79,-561.25C869.51,-561.25 880.61,-561.25 891.6,-561.25"/>
<polygon fill="#63b8ff" stroke="#63b8ff" points="891.54,-564.75 901.54,-561.25 891.54,-557.75 891.54,-564.75"/>
</g>
<!-- Node7 -->
<g id="node7" class="node">
<title>Node7</title>
<g id="a_node7"><a xlink:href="classsss_1_1api_1_1S3Api.html#a840772746fbb0a79c161037da7b24a31" target="_top" xlink:title="Configure instance.">
<polygon fill="white" stroke="#666666" points="459.75,-385.88 342.5,-385.88 342.5,-366.62 459.75,-366.62 459.75,-385.88"/>
<text text-anchor="middle" x="401.12" y="-372.38" font-family="Helvetica,sans-Serif" font-size="10.00">sss::api::S3Api::Config</text>
</a>
</g>
</g>
<!-- Node6&#45;&gt;Node7 -->
<g id="edge6" class="edge">
<title>Node6&#45;&gt;Node7</title>
<path fill="none" stroke="#63b8ff" d="M240.48,-203.11C255.41,-222.93 290.69,-268.75 323.75,-304.25 342.09,-323.94 364.68,-344.87 380.52,-359.06"/>
<polygon fill="#63b8ff" stroke="#63b8ff" points="377.75,-361.17 387.55,-365.2 382.4,-355.94 377.75,-361.17"/>
</g>
<!-- Node16 -->
<g id="node16" class="node">
<title>Node16</title>
<g id="a_node16"><a xlink:href="classsss_1_1WebClient.html#a51ce0ecf6487b6a43072643fe4f4cb4e" target="_top" xlink:title=" ">
<polygon fill="white" stroke="#666666" points="852.12,-159.88 707.12,-159.88 707.12,-140.62 852.12,-140.62 852.12,-159.88"/>
<text text-anchor="middle" x="779.62" y="-146.38" font-family="Helvetica,sans-Serif" font-size="10.00">sss::WebClient::SetPostData</text>
</a>
</g>
</g>
<!-- Node6&#45;&gt;Node16 -->
<g id="edge43" class="edge">
<title>Node6&#45;&gt;Node16</title>
<path fill="none" stroke="#63b8ff" d="M264.23,-183.22C281.56,-178.09 303.63,-172.3 323.75,-169.25 452.73,-149.72 604.46,-147.47 696,-148.34"/>
<polygon fill="#63b8ff" stroke="#63b8ff" points="695.83,-151.85 705.86,-148.46 695.9,-144.85 695.83,-151.85"/>
</g>
<!-- Node29 -->
<g id="node29" class="node">
<title>Node29</title>
<g id="a_node29"><a xlink:href="lib_2include_2utility_8h.html#ab314781bb3f053ef5325b50f3a1b74f8" target="_top" xlink:title=" ">
<polygon fill="white" stroke="#666666" points="1025.62,-116.88 951.12,-116.88 951.12,-97.62 1025.62,-97.62 1025.62,-116.88"/>
<text text-anchor="middle" x="988.38" y="-103.38" font-family="Helvetica,sans-Serif" font-size="10.00">sss::ToLower</text>
</a>
</g>
</g>
<!-- Node6&#45;&gt;Node29 -->
<g id="edge46" class="edge">
<title>Node6&#45;&gt;Node29</title>
<path fill="none" stroke="#63b8ff" d="M239.93,-183.26C253.4,-164.46 285.46,-124.18 323.75,-107.25 536.89,-13.03 827.5,-67.7 940.1,-94.8"/>
<polygon fill="#63b8ff" stroke="#63b8ff" points="939.21,-98.42 949.75,-97.41 940.87,-91.63 939.21,-98.42"/>
</g>
<!-- Node31 -->
<g id="node31" class="node">
<title>Node31</title>
<g id="a_node31"><a xlink:href="group__ErrorHandling.html#ga781648957bfce0bbc86cbdbff94e28a6" target="_top" xlink:title=" ">
<polygon fill="white" stroke="#666666" points="445.88,-45.88 356.38,-45.88 356.38,-26.62 445.88,-26.62 445.88,-45.88"/>
<text text-anchor="middle" x="401.12" y="-32.38" font-family="Helvetica,sans-Serif" font-size="10.00">sss::HandleError</text>
</a>
</g>
</g>
<!-- Node6&#45;&gt;Node31 -->
<g id="edge40" class="edge">
<title>Node6&#45;&gt;Node31</title>
<path fill="none" stroke="#63b8ff" d="M237.16,-183.22C247.61,-158.51 277.98,-94.22 323.75,-60.25 330.35,-55.35 337.97,-51.44 345.79,-48.31"/>
<polygon fill="#63b8ff" stroke="#63b8ff" points="346.87,-51.29 355.12,-44.64 344.52,-44.69 346.87,-51.29"/>
</g>
<!-- Node32 -->
<g id="node32" class="node">
<title>Node32</title>
<g id="a_node32"><a xlink:href="group__Internal.html#ga2b8b08c2a4994a87377d83ccfa9a6a53" target="_top" xlink:title=" ">
<polygon fill="white" stroke="#666666" points="449.62,-294.88 352.62,-294.88 352.62,-275.62 449.62,-275.62 449.62,-294.88"/>
<text text-anchor="middle" x="401.12" y="-281.38" font-family="Helvetica,sans-Serif" font-size="10.00">sss::ParseParams</text>
</a>
</g>
</g>
<!-- Node6&#45;&gt;Node32 -->
<g id="edge41" class="edge">
<title>Node6&#45;&gt;Node32</title>
<path fill="none" stroke="#63b8ff" d="M242.45,-203.14C257.85,-218.91 290.28,-249.63 323.75,-266.25 329.39,-269.05 335.48,-271.46 341.68,-273.53"/>
<polygon fill="#63b8ff" stroke="#63b8ff" points="340.55,-277.15 351.13,-276.7 342.57,-270.45 340.55,-277.15"/>
</g>
<!-- Node33 -->
<g id="node33" class="node">
<title>Node33</title>
<g id="a_node33"><a xlink:href="classsss_1_1WebClient.html#aa1d7484f0e09242ce53b24f9648ce50e" target="_top" xlink:title=" ">
<polygon fill="white" stroke="#666666" points="641.12,-121.88 529.88,-121.88 529.88,-102.62 641.12,-102.62 641.12,-121.88"/>
<text text-anchor="middle" x="585.5" y="-108.38" font-family="Helvetica,sans-Serif" font-size="10.00">sss::WebClient::Send</text>
</a>
</g>
</g>
<!-- Node6&#45;&gt;Node33 -->
<g id="edge42" class="edge">
<title>Node6&#45;&gt;Node33</title>
<path fill="none" stroke="#63b8ff" d="M244.79,-183.33C261.2,-170.01 292.59,-146.81 323.75,-136.25 387.6,-114.62 464.96,-110 518.77,-109.93"/>
<polygon fill="#63b8ff" stroke="#63b8ff" points="518.52,-113.44 528.54,-109.98 518.56,-106.44 518.52,-113.44"/>
</g>
<!-- Node34 -->
<g id="node34" class="node">
<title>Node34</title>
<g id="a_node34"><a xlink:href="classsss_1_1WebClient.html#a7dfd984b33a29686fb0355b65b620e99" target="_top" xlink:title=" ">
<polygon fill="white" stroke="#666666" points="478.5,-257.5 323.75,-257.5 323.75,-227 478.5,-227 478.5,-257.5"/>
<text text-anchor="start" x="331.75" y="-244" font-family="Helvetica,sans-Serif" font-size="10.00">sss::WebClient::SetUrlEncoded</text>
<text text-anchor="middle" x="401.12" y="-232.75" font-family="Helvetica,sans-Serif" font-size="10.00">PostData</text>
</a>
</g>
</g>
<!-- Node6&#45;&gt;Node34 -->
<g id="edge44" class="edge">
<title>Node6&#45;&gt;Node34</title>
<path fill="none" stroke="#63b8ff" d="M267.32,-203.28C287.19,-209.11 312.86,-216.64 336.32,-223.53"/>
<polygon fill="#63b8ff" stroke="#63b8ff" points="334.99,-227.08 345.57,-226.54 336.96,-220.36 334.99,-227.08"/>
</g>
<!-- Node35 -->
<g id="node35" class="node">
<title>Node35</title>
<g id="a_node35"><a xlink:href="classsss_1_1WebClient.html#ae7b1f77bd4ae44585f2d49ea493bdcc5" target="_top" xlink:title="Upload data from memory buffer.">
<polygon fill="white" stroke="#666666" points="471.38,-208.5 330.88,-208.5 330.88,-178 471.38,-178 471.38,-208.5"/>
<text text-anchor="start" x="338.88" y="-195" font-family="Helvetica,sans-Serif" font-size="10.00">sss::WebClient::UploadData</text>
<text text-anchor="middle" x="401.12" y="-183.75" font-family="Helvetica,sans-Serif" font-size="10.00">FromBuffer</text>
</a>
</g>
</g>
<!-- Node6&#45;&gt;Node35 -->
<g id="edge47" class="edge">
<title>Node6&#45;&gt;Node35</title>
<path fill="none" stroke="#63b8ff" d="M287.81,-193.25C298.01,-193.25 308.87,-193.25 319.65,-193.25"/>
<polygon fill="#63b8ff" stroke="#63b8ff" points="319.39,-196.75 329.39,-193.25 319.39,-189.75 319.39,-196.75"/>
</g>
<!-- Node8 -->
<g id="node8" class="node">
<title>Node8</title>
<g id="a_node8"><a xlink:href="classsss_1_1api_1_1S3Api.html#aea9741d60e74775ccd4de1c2c58f64fa" target="_top" xlink:title=" ">
<polygon fill="white" stroke="#666666" points="646.38,-535.88 524.62,-535.88 524.62,-516.62 646.38,-516.62 646.38,-535.88"/>
<text text-anchor="middle" x="585.5" y="-522.38" font-family="Helvetica,sans-Serif" font-size="10.00">sss::api::S3Api::Access</text>
</a>
</g>
</g>
<!-- Node7&#45;&gt;Node8 -->
<g id="edge7" class="edge">
<title>Node7&#45;&gt;Node8</title>
<path fill="none" stroke="#63b8ff" d="M407.71,-386.35C421.99,-411.21 462.44,-475.71 514.5,-508.25 516.65,-509.6 518.91,-510.84 521.23,-512"/>
<polygon fill="#63b8ff" stroke="#63b8ff" points="519.51,-515.5 530.08,-516.23 522.27,-509.07 519.51,-515.5"/>
</g>
<!-- Node9 -->
<g id="node9" class="node">
<title>Node9</title>
<g id="a_node9"><a xlink:href="classsss_1_1api_1_1S3Api.html#a3718745d3b940462ae9f3b78f773b3a6" target="_top" xlink:title="Clear data and reset read and write functions.">
<polygon fill="white" stroke="#666666" points="641.5,-272.88 529.5,-272.88 529.5,-253.62 641.5,-253.62 641.5,-272.88"/>
<text text-anchor="middle" x="585.5" y="-259.38" font-family="Helvetica,sans-Serif" font-size="10.00">sss::api::S3Api::Clear</text>
</a>
</g>
</g>
<!-- Node7&#45;&gt;Node9 -->
<g id="edge8" class="edge">
<title>Node7&#45;&gt;Node9</title>
<path fill="none" stroke="#63b8ff" d="M412.65,-366.28C435.98,-344.36 491.8,-292.97 514.5,-281.25 517.57,-279.67 520.78,-278.22 524.08,-276.89"/>
<polygon fill="#63b8ff" stroke="#63b8ff" points="524.92,-279.94 533.15,-273.26 522.55,-273.36 524.92,-279.94"/>
</g>
<!-- Node14 -->
<g id="node14" class="node">
<title>Node14</title>
<g id="a_node14"><a xlink:href="classsss_1_1WebClient.html#a75890c14fbe4a4bbac61718a4f3c064d" target="_top" xlink:title=" ">
<polygon fill="white" stroke="#666666" points="849.88,-310.88 709.38,-310.88 709.38,-291.62 849.88,-291.62 849.88,-310.88"/>
<text text-anchor="middle" x="779.62" y="-297.38" font-family="Helvetica,sans-Serif" font-size="10.00">sss::WebClient::SetHeaders</text>
</a>
</g>
</g>
<!-- Node7&#45;&gt;Node14 -->
<g id="edge20" class="edge">
<title>Node7&#45;&gt;Node14</title>
<path fill="none" stroke="#63b8ff" d="M448.28,-366.18C468.57,-361.81 492.7,-356.68 514.5,-352.25 582.47,-338.43 660.47,-323.48 713.99,-313.36"/>
<polygon fill="#63b8ff" stroke="#63b8ff" points="714.51,-316.64 723.69,-311.34 713.21,-309.76 714.51,-316.64"/>
</g>
<!-- Node15 -->
<g id="node15" class="node">
<title>Node15</title>
<g id="a_node15"><a xlink:href="classsss_1_1WebClient.html#a12b5db6b8c667024557ab58059d39994" target="_top" xlink:title=" ">
<polygon fill="white" stroke="#666666" points="841.62,-384.88 717.62,-384.88 717.62,-365.62 841.62,-365.62 841.62,-384.88"/>
<text text-anchor="middle" x="779.62" y="-371.38" font-family="Helvetica,sans-Serif" font-size="10.00">sss::WebClient::SetPath</text>
</a>
</g>
</g>
<!-- Node7&#45;&gt;Node15 -->
<g id="edge24" class="edge">
<title>Node7&#45;&gt;Node15</title>
<path fill="none" stroke="#63b8ff" d="M460.03,-384.86C477.49,-387.08 496.74,-389.15 514.5,-390.25 577.49,-394.16 593.51,-394.1 656.5,-390.25 672.77,-389.25 690.18,-387.52 706.62,-385.58"/>
<polygon fill="#63b8ff" stroke="#63b8ff" points="706.76,-388.96 716.26,-384.27 705.91,-382.02 706.76,-388.96"/>
</g>
<!-- Node17 -->
<g id="node17" class="node">
<title>Node17</title>
<g id="a_node17"><a xlink:href="classsss_1_1WebClient.html#a9bf978d95b79728f6d60fc2bdb4fe546" target="_top" xlink:title=" ">
<polygon fill="white" stroke="#666666" points="865.62,-347.88 693.62,-347.88 693.62,-328.62 865.62,-328.62 865.62,-347.88"/>
<text text-anchor="middle" x="779.62" y="-334.38" font-family="Helvetica,sans-Serif" font-size="10.00">sss::WebClient::SetReqParameters</text>
</a>
</g>
</g>
<!-- Node7&#45;&gt;Node17 -->
<g id="edge25" class="edge">
<title>Node7&#45;&gt;Node17</title>
<path fill="none" stroke="#63b8ff" d="M460.25,-371.1C511.83,-366.45 589.22,-359.28 656.5,-352.25 664.95,-351.37 673.73,-350.42 682.52,-349.45"/>
<polygon fill="#63b8ff" stroke="#63b8ff" points="682.69,-352.84 692.24,-348.26 681.91,-345.89 682.69,-352.84"/>
</g>
<!-- Node18 -->
<g id="node18" class="node">
<title>Node18</title>
<g id="a_node18"><a xlink:href="classsss_1_1api_1_1S3Api.html#a25a999d87c121627166fc0a896f536c7" target="_top" xlink:title=" ">
<polygon fill="white" stroke="#666666" points="649,-309.88 522,-309.88 522,-290.62 649,-290.62 649,-309.88"/>
<text text-anchor="middle" x="585.5" y="-296.38" font-family="Helvetica,sans-Serif" font-size="10.00">sss::api::S3Api::Endpoint</text>
</a>
</g>
</g>
<!-- Node7&#45;&gt;Node18 -->
<g id="edge17" class="edge">
<title>Node7&#45;&gt;Node18</title>
<path fill="none" stroke="#63b8ff" d="M422.15,-366.22C444.42,-355.25 481.58,-337.47 514.5,-324.25 523.51,-320.63 533.3,-317.06 542.62,-313.82"/>
<polygon fill="#63b8ff" stroke="#63b8ff" points="543.55,-316.86 551.88,-310.32 541.29,-310.24 543.55,-316.86"/>
</g>
<!-- Node19 -->
<g id="node19" class="node">
<title>Node19</title>
<g id="a_node19"><a xlink:href="classsss_1_1api_1_1S3Api.html#a6f518c16679e99f119966b36ac28463f" target="_top" xlink:title=" ">
<polygon fill="white" stroke="#666666" points="644.12,-572.88 526.88,-572.88 526.88,-553.62 644.12,-553.62 644.12,-572.88"/>
<text text-anchor="middle" x="585.5" y="-559.38" font-family="Helvetica,sans-Serif" font-size="10.00">sss::api::S3Api::Secret</text>
</a>
</g>
</g>
<!-- Node7&#45;&gt;Node19 -->
<g id="edge18" class="edge">
<title>Node7&#45;&gt;Node19</title>
<path fill="none" stroke="#63b8ff" d="M405.7,-386.09C416.85,-415.3 453.9,-502.18 514.5,-545.25 516.19,-546.45 517.95,-547.57 519.77,-548.61"/>
<polygon fill="#63b8ff" stroke="#63b8ff" points="517.73,-552 528.25,-553.24 520.8,-545.71 517.73,-552"/>
</g>
<!-- Node20 -->
<g id="node20" class="node">
<title>Node20</title>
<g id="a_node20"><a xlink:href="classsss_1_1WebClient.html#afc3b7a92568fbb1ea447918920ca266e" target="_top" xlink:title="Set endpoint: &lt;proto&gt;://&lt;server&gt;:&lt;port&gt;">
<polygon fill="white" stroke="#666666" points="656.5,-461.88 514.5,-461.88 514.5,-442.62 656.5,-442.62 656.5,-461.88"/>
<text text-anchor="middle" x="585.5" y="-448.38" font-family="Helvetica,sans-Serif" font-size="10.00">sss::WebClient::SetEndpoint</text>
</a>
</g>
</g>
<!-- Node7&#45;&gt;Node20 -->
<g id="edge19" class="edge">
<title>Node7&#45;&gt;Node20</title>
<path fill="none" stroke="#63b8ff" d="M422.15,-386.28C444.42,-397.25 481.58,-415.03 514.5,-428.25 523.51,-431.87 533.3,-435.44 542.62,-438.68"/>
<polygon fill="#63b8ff" stroke="#63b8ff" points="541.29,-442.26 551.88,-442.18 543.55,-435.64 541.29,-442.26"/>
</g>
<!-- Node21 -->
<g id="node21" class="node">
<title>Node21</title>
<g id="a_node21"><a xlink:href="classsss_1_1WebClient.html#af6233ffd7b294e1e7e606e838dd44e9e" target="_top" xlink:title=" ">
<polygon fill="white" stroke="#666666" points="653.5,-235.88 517.5,-235.88 517.5,-216.62 653.5,-216.62 653.5,-235.88"/>
<text text-anchor="middle" x="585.5" y="-222.38" font-family="Helvetica,sans-Serif" font-size="10.00">sss::WebClient::SetMethod</text>
</a>
</g>
</g>
<!-- Node7&#45;&gt;Node21 -->
<g id="edge21" class="edge">
<title>Node7&#45;&gt;Node21</title>
<path fill="none" stroke="#63b8ff" d="M414.77,-366.2C430.8,-353.06 458.73,-328.81 478.5,-304.25 498,-280.02 489.58,-262.85 514.5,-244.25 515.95,-243.17 517.46,-242.15 519.02,-241.19"/>
<polygon fill="#63b8ff" stroke="#63b8ff" points="520.11,-244.05 527.39,-236.35 516.9,-237.83 520.11,-244.05"/>
</g>
<!-- Node23 -->
<g id="node23" class="node">
<title>Node23</title>
<g id="a_node23"><a xlink:href="group__Sign.html#ga3ae8e18ef70752b7369fca66c40c526b" target="_top" xlink:title="Sign headers.">
<polygon fill="white" stroke="#666666" points="632.5,-498.88 538.5,-498.88 538.5,-479.62 632.5,-479.62 632.5,-498.88"/>
<text text-anchor="middle" x="585.5" y="-485.38" font-family="Helvetica,sans-Serif" font-size="10.00">sss::SignHeaders</text>
</a>
</g>
</g>
<!-- Node7&#45;&gt;Node23 -->
<g id="edge26" class="edge">
<title>Node7&#45;&gt;Node23</title>
<path fill="none" stroke="#63b8ff" d="M410.96,-386.27C428.64,-405.68 470.47,-448.51 514.5,-471.25 518.75,-473.45 523.29,-475.39 527.94,-477.1"/>
<polygon fill="#63b8ff" stroke="#63b8ff" points="526.63,-480.68 537.22,-480.5 528.82,-474.04 526.63,-480.68"/>
</g>
<!-- Node10 -->
<g id="node10" class="node">
<title>Node10</title>
<g id="a_node10"><a xlink:href="classsss_1_1WebClient.html#a381f5715b7a2f19a0d4414d278874bae" target="_top" xlink:title="Clear internal buffers.">
<polygon fill="white" stroke="#666666" points="851.38,-273.88 707.88,-273.88 707.88,-254.62 851.38,-254.62 851.38,-273.88"/>
<text text-anchor="middle" x="779.62" y="-260.38" font-family="Helvetica,sans-Serif" font-size="10.00">sss::WebClient::ClearBuffers</text>
</a>
</g>
</g>
<!-- Node9&#45;&gt;Node10 -->
<g id="edge9" class="edge">
<title>Node9&#45;&gt;Node10</title>
<path fill="none" stroke="#63b8ff" d="M641.81,-263.54C658.96,-263.63 678.23,-263.73 696.77,-263.82"/>
<polygon fill="#63b8ff" stroke="#63b8ff" points="696.57,-267.33 706.59,-263.88 696.6,-260.33 696.57,-267.33"/>
</g>
<!-- Node11 -->
<g id="node11" class="node">
<title>Node11</title>
<g id="a_node11"><a xlink:href="classsss_1_1WebClient.html#a96837f149bb473853a6523d096a25c56" target="_top" xlink:title="Reset read/write functions to default.">
<polygon fill="white" stroke="#666666" points="866.75,-45.88 692.5,-45.88 692.5,-26.62 866.75,-26.62 866.75,-45.88"/>
<text text-anchor="middle" x="779.62" y="-32.38" font-family="Helvetica,sans-Serif" font-size="10.00">sss::WebClient::ResetRWFunctions</text>
</a>
</g>
</g>
<!-- Node9&#45;&gt;Node11 -->
<g id="edge10" class="edge">
<title>Node9&#45;&gt;Node11</title>
<path fill="none" stroke="#63b8ff" d="M641.73,-254.96C647.15,-252.48 652.22,-249.31 656.5,-245.25 695.07,-208.71 666.05,-177.33 692.5,-131.25 710.19,-100.44 739.28,-71.13 758.7,-53.42"/>
<polygon fill="#63b8ff" stroke="#63b8ff" points="760.73,-56.41 765.86,-47.14 756.07,-51.18 760.73,-56.41"/>
</g>
<!-- Node9&#45;&gt;Node14 -->
<g id="edge13" class="edge">
<title>Node9&#45;&gt;Node14</title>
<path fill="none" stroke="#63b8ff" d="M637.48,-273.33C661.9,-278.16 691.34,-283.99 717,-289.06"/>
<polygon fill="#63b8ff" stroke="#63b8ff" points="716.25,-292.68 726.74,-291.19 717.61,-285.81 716.25,-292.68"/>
</g>
<!-- Node9&#45;&gt;Node15 -->
<g id="edge14" class="edge">
<title>Node9&#45;&gt;Node15</title>
<path fill="none" stroke="#63b8ff" d="M641.9,-272.45C647.16,-274.77 652.15,-277.66 656.5,-281.25 685.32,-305.04 663.14,-334.12 692.5,-357.25 696.89,-360.71 701.78,-363.54 706.94,-365.86"/>
<polygon fill="#63b8ff" stroke="#63b8ff" points="705.54,-369.46 716.14,-369.73 708.02,-362.91 705.54,-369.46"/>
</g>
<!-- Node9&#45;&gt;Node16 -->
<g id="edge15" class="edge">
<title>Node9&#45;&gt;Node16</title>
<path fill="none" stroke="#63b8ff" d="M636.37,-253.13C643.29,-250.95 650.19,-248.35 656.5,-245.25 697.98,-224.88 738.86,-188.99 761.21,-167.64"/>
<polygon fill="#63b8ff" stroke="#63b8ff" points="763.11,-170.71 767.84,-161.23 758.23,-165.69 763.11,-170.71"/>
</g>
<!-- Node9&#45;&gt;Node17 -->
<g id="edge16" class="edge">
<title>Node9&#45;&gt;Node17</title>
<path fill="none" stroke="#63b8ff" d="M639.43,-273.34C645.4,-275.49 651.22,-278.1 656.5,-281.25 676.75,-293.35 671.98,-308.62 692.5,-320.25 695.03,-321.68 697.66,-323 700.36,-324.22"/>
<polygon fill="#63b8ff" stroke="#63b8ff" points="698.81,-327.76 709.39,-328.18 701.38,-321.25 698.81,-327.76"/>
</g>
<!-- Node12 -->
<g id="node12" class="node">
<title>Node12</title>
<g id="a_node12"><a xlink:href="classsss_1_1WebClient.html#a88dbcc61562e84aa9ebf1eabf887ac28" target="_top" xlink:title=" ">
<polygon fill="white" stroke="#666666" points="1070.62,-67.88 906.12,-67.88 906.12,-48.62 1070.62,-48.62 1070.62,-67.88"/>
<text text-anchor="middle" x="988.38" y="-54.38" font-family="Helvetica,sans-Serif" font-size="10.00">sss::WebClient::SetReadFunction</text>
</a>
</g>
</g>
<!-- Node11&#45;&gt;Node12 -->
<g id="edge11" class="edge">
<title>Node11&#45;&gt;Node12</title>
<path fill="none" stroke="#63b8ff" d="M867.11,-45.45C876.33,-46.43 885.74,-47.44 895.03,-48.42"/>
<polygon fill="#63b8ff" stroke="#63b8ff" points="894.55,-52 904.87,-49.58 895.29,-45.04 894.55,-52"/>
</g>
<!-- Node13 -->
<g id="node13" class="node">
<title>Node13</title>
<g id="a_node13"><a xlink:href="classsss_1_1WebClient.html#a002876073b3869a9b9a9d709d14f1d7e" target="_top" xlink:title=" ">
<polygon fill="white" stroke="#666666" points="1051.5,-30.5 925.25,-30.5 925.25,0 1051.5,0 1051.5,-30.5"/>
<text text-anchor="start" x="933.25" y="-17" font-family="Helvetica,sans-Serif" font-size="10.00">sss::WebClient::SetWrite</text>
<text text-anchor="middle" x="988.38" y="-5.75" font-family="Helvetica,sans-Serif" font-size="10.00">Function</text>
</a>
</g>
</g>
<!-- Node11&#45;&gt;Node13 -->
<g id="edge12" class="edge">
<title>Node11&#45;&gt;Node13</title>
<path fill="none" stroke="#63b8ff" d="M867.11,-27.47C882.69,-25.88 898.8,-24.25 913.97,-22.71"/>
<polygon fill="#63b8ff" stroke="#63b8ff" points="914.23,-26.1 923.82,-21.6 913.52,-19.13 914.23,-26.1"/>
</g>
<!-- Node22 -->
<g id="node22" class="node">
<title>Node22</title>
<g id="a_node22"><a xlink:href="lib_2include_2utility_8h.html#ae153c064d6f1beda845702f67605b20e" target="_top" xlink:title=" ">
<polygon fill="white" stroke="#666666" points="1025.62,-280.88 951.12,-280.88 951.12,-261.62 1025.62,-261.62 1025.62,-280.88"/>
<text text-anchor="middle" x="988.38" y="-267.38" font-family="Helvetica,sans-Serif" font-size="10.00">sss::ToUpper</text>
</a>
</g>
</g>
<!-- Node21&#45;&gt;Node22 -->
<g id="edge22" class="edge">
<title>Node21&#45;&gt;Node22</title>
<path fill="none" stroke="#63b8ff" d="M653.88,-228.09C710.83,-230.29 794.44,-235.06 866.75,-245.25 891.18,-248.69 918.04,-254.3 940.2,-259.43"/>
<polygon fill="#63b8ff" stroke="#63b8ff" points="939.13,-263.01 949.67,-261.89 940.74,-256.19 939.13,-263.01"/>
</g>
<!-- Node22&#45;&gt;Node22 -->
<g id="edge23" class="edge">
<title>Node22&#45;&gt;Node22</title>
<path fill="none" stroke="#63b8ff" d="M955.69,-281.16C940.79,-289.77 951.68,-298.88 988.38,-298.88 1011.88,-298.88 1024.8,-295.14 1027.13,-290.19"/>
<polygon fill="#63b8ff" stroke="#63b8ff" points="1029.54,-288.5 1021.06,-282.16 1023.74,-292.41 1029.54,-288.5"/>
</g>
<!-- Node23&#45;&gt;Node3 -->
<g id="edge27" class="edge">
<title>Node23&#45;&gt;Node3</title>
<path fill="none" stroke="#63b8ff" d="M632.88,-488.9C711.98,-488.31 871.68,-487.12 946.71,-486.55"/>
<polygon fill="#63b8ff" stroke="#63b8ff" points="946.59,-490.05 956.57,-486.47 946.54,-483.05 946.59,-490.05"/>
</g>
<!-- Node23&#45;&gt;Node4 -->
<g id="edge39" class="edge">
<title>Node23&#45;&gt;Node4</title>
<path fill="none" stroke="#63b8ff" d="M632.9,-494.89C651.42,-497.04 672.95,-499.42 692.5,-501.25 785.26,-509.96 894.71,-517.38 950.56,-520.96"/>
<polygon fill="#63b8ff" stroke="#63b8ff" points="950.11,-524.5 960.31,-521.64 950.56,-517.51 950.11,-524.5"/>
</g>
<!-- Node24 -->
<g id="node24" class="node">
<title>Node24</title>
<g id="a_node24"><a xlink:href="group__Sign.html#ga532598da479904609d6c02e4c2a1311a" target="_top" xlink:title="Compute signature.">
<polygon fill="white" stroke="#666666" points="839,-421.88 720.25,-421.88 720.25,-402.62 839,-402.62 839,-421.88"/>
<text text-anchor="middle" x="779.62" y="-408.38" font-family="Helvetica,sans-Serif" font-size="10.00">sss::ComputeSignature</text>
</a>
</g>
</g>
<!-- Node23&#45;&gt;Node24 -->
<g id="edge28" class="edge">
<title>Node23&#45;&gt;Node24</title>
<path fill="none" stroke="#63b8ff" d="M631.34,-479.13C639.79,-476.83 648.49,-474.18 656.5,-471.25 690.17,-458.93 726.98,-440.39 751.3,-427.4"/>
<polygon fill="#63b8ff" stroke="#63b8ff" points="752.77,-430.03 759.9,-422.2 749.44,-423.88 752.77,-430.03"/>
</g>
<!-- Node24&#45;&gt;Node3 -->
<g id="edge29" class="edge">
<title>Node24&#45;&gt;Node3</title>
<path fill="none" stroke="#63b8ff" d="M799.14,-422.31C822.63,-434.69 864.66,-455.64 902.75,-468.25 916.95,-472.95 932.92,-476.72 947.12,-479.57"/>
<polygon fill="#63b8ff" stroke="#63b8ff" points="946.1,-483.13 956.58,-481.57 947.41,-476.25 946.1,-483.13"/>
</g>
<!-- Node24&#45;&gt;Node4 -->
<g id="edge31" class="edge">
<title>Node24&#45;&gt;Node4</title>
<path fill="none" stroke="#63b8ff" d="M790.38,-422.18C809.86,-441.4 855.76,-483.69 902.75,-505.25 917.69,-512.11 935.32,-516.39 950.61,-519.05"/>
<polygon fill="#63b8ff" stroke="#63b8ff" points="949.84,-522.63 960.26,-520.71 950.92,-515.71 949.84,-522.63"/>
</g>
<!-- Node24&#45;&gt;Node22 -->
<g id="edge37" class="edge">
<title>Node24&#45;&gt;Node22</title>
<path fill="none" stroke="#63b8ff" d="M839.41,-407.5C849.25,-404.68 858.81,-400.47 866.75,-394.25 895.85,-371.44 877.51,-346.27 902.75,-319.25 916.12,-304.94 934.73,-293.74 951.1,-285.78"/>
<polygon fill="#63b8ff" stroke="#63b8ff" points="952.32,-288.61 959.94,-281.24 949.39,-282.25 952.32,-288.61"/>
</g>
<!-- Node25 -->
<g id="node25" class="node">
<title>Node25</title>
<g id="a_node25"><a xlink:href="group__Internal.html#ga74c69f25ce04876e114759c0023b2a12" target="_top" xlink:title=" ">
<polygon fill="white" stroke="#666666" points="1051.12,-421.88 925.62,-421.88 925.62,-402.62 1051.12,-402.62 1051.12,-421.88"/>
<text text-anchor="middle" x="988.38" y="-408.38" font-family="Helvetica,sans-Serif" font-size="10.00">sss::CreateSignatureKey</text>
</a>
</g>
</g>
<!-- Node24&#45;&gt;Node25 -->
<g id="edge30" class="edge">
<title>Node24&#45;&gt;Node25</title>
<path fill="none" stroke="#63b8ff" d="M839.32,-412.25C862.72,-412.25 889.9,-412.25 914.54,-412.25"/>
<polygon fill="#63b8ff" stroke="#63b8ff" points="914.29,-415.75 924.29,-412.25 914.29,-408.75 914.29,-415.75"/>
</g>
<!-- Node26 -->
<g id="node26" class="node">
<title>Node26</title>
<g id="a_node26"><a xlink:href="group__Internal.html#ga50353a351a93b1213dc4e5211c767d85" target="_top" xlink:title=" ">
<polygon fill="white" stroke="#666666" points="1028.25,-384.88 948.5,-384.88 948.5,-365.62 1028.25,-365.62 1028.25,-384.88"/>
<text text-anchor="middle" x="988.38" y="-371.38" font-family="Helvetica,sans-Serif" font-size="10.00">sss::GetDates</text>
</a>
</g>
</g>
<!-- Node24&#45;&gt;Node26 -->
<g id="edge32" class="edge">
<title>Node24&#45;&gt;Node26</title>
<path fill="none" stroke="#63b8ff" d="M837.12,-402.14C868.53,-396.52 907.27,-389.59 937.55,-384.17"/>
<polygon fill="#63b8ff" stroke="#63b8ff" points="938.06,-387.45 947.29,-382.24 936.83,-380.56 938.06,-387.45"/>
</g>
<!-- Node27 -->
<g id="node27" class="node">
<title>Node27</title>
<g id="a_node27"><a xlink:href="group__Internal.html#ga990dfaae4abc6bf20a28f9772b7bcd16" target="_top" xlink:title="Byte to hex string conversion.">
<polygon fill="white" stroke="#666666" points="1016.25,-347.88 960.5,-347.88 960.5,-328.62 1016.25,-328.62 1016.25,-347.88"/>
<text text-anchor="middle" x="988.38" y="-334.38" font-family="Helvetica,sans-Serif" font-size="10.00">sss::Hex</text>
</a>
</g>
</g>
<!-- Node24&#45;&gt;Node27 -->
<g id="edge33" class="edge">
<title>Node24&#45;&gt;Node27</title>
<path fill="none" stroke="#63b8ff" d="M839.34,-404.98C848.86,-402.41 858.35,-398.94 866.75,-394.25 887.06,-382.91 882.46,-367.63 902.75,-356.25 916.98,-348.27 934.37,-343.82 949.68,-341.34"/>
<polygon fill="#63b8ff" stroke="#63b8ff" points="949.96,-344.7 959.38,-339.87 949,-337.77 949.96,-344.7"/>
</g>
<!-- Node28 -->
<g id="node28" class="node">
<title>Node28</title>
<g id="a_node28"><a xlink:href="group__Internal.html#ga7160aa316f2c6633467b47588263c690" target="_top" xlink:title=" ">
<polygon fill="white" stroke="#666666" points="1030.12,-458.88 946.62,-458.88 946.62,-439.62 1030.12,-439.62 1030.12,-458.88"/>
<text text-anchor="middle" x="988.38" y="-445.38" font-family="Helvetica,sans-Serif" font-size="10.00">sss::ParseURL</text>
</a>
</g>
</g>
<!-- Node24&#45;&gt;Node28 -->
<g id="edge34" class="edge">
<title>Node24&#45;&gt;Node28</title>
<path fill="none" stroke="#63b8ff" d="M837.12,-422.36C867.89,-427.87 905.7,-434.63 935.69,-440"/>
<polygon fill="#63b8ff" stroke="#63b8ff" points="934.9,-443.59 945.36,-441.91 936.13,-436.7 934.9,-443.59"/>
</g>
<!-- Node24&#45;&gt;Node29 -->
<g id="edge35" class="edge">
<title>Node24&#45;&gt;Node29</title>
<path fill="none" stroke="#63b8ff" d="M839.16,-409.71C849.49,-406.75 859.31,-401.93 866.75,-394.25 930.55,-328.48 860.25,-272.43 902.75,-191.25 917.34,-163.39 944.42,-139.01 964.03,-123.79"/>
<polygon fill="#63b8ff" stroke="#63b8ff" points="965.81,-126.08 971.7,-117.28 961.6,-120.48 965.81,-126.08"/>
</g>
<!-- Node30 -->
<g id="node30" class="node">
<title>Node30</title>
<g id="a_node30"><a xlink:href="group__Internal.html#ga0f079ace8729714b3949eabe22f228c9" target="_top" xlink:title=" ">
<polygon fill="white" stroke="#666666" points="1030.12,-219.88 946.62,-219.88 946.62,-200.62 1030.12,-200.62 1030.12,-219.88"/>
<text text-anchor="middle" x="988.38" y="-206.38" font-family="Helvetica,sans-Serif" font-size="10.00">sss::UrlEncode</text>
</a>
</g>
</g>
<!-- Node24&#45;&gt;Node30 -->
<g id="edge38" class="edge">
<title>Node24&#45;&gt;Node30</title>
<path fill="none" stroke="#63b8ff" d="M839.17,-409.14C849.38,-406.21 859.14,-401.54 866.75,-394.25 913.75,-349.19 861.85,-302.91 902.75,-252.25 912.8,-239.81 927.46,-230.75 941.78,-224.3"/>
<polygon fill="#63b8ff" stroke="#63b8ff" points="942.67,-227.31 950.57,-220.25 939.99,-220.84 942.67,-227.31"/>
</g>
<!-- Node29&#45;&gt;Node29 -->
<g id="edge36" class="edge">
<title>Node29&#45;&gt;Node29</title>
<path fill="none" stroke="#63b8ff" d="M955.69,-117.16C940.79,-125.77 951.68,-134.88 988.38,-134.88 1011.88,-134.88 1024.8,-131.14 1027.13,-126.19"/>
<polygon fill="#63b8ff" stroke="#63b8ff" points="1029.54,-124.5 1021.06,-118.16 1023.74,-128.41 1029.54,-124.5"/>
</g>
<!-- Node34&#45;&gt;Node30 -->
<g id="edge45" class="edge">
<title>Node34&#45;&gt;Node30</title>
<path fill="none" stroke="#63b8ff" d="M450.06,-226.58C477.49,-217.75 507.76,-208.28 514.5,-207.25 666.08,-184.19 848.17,-196.37 935.58,-204.65"/>
<polygon fill="#63b8ff" stroke="#63b8ff" points="934.97,-208.2 945.27,-205.69 935.65,-201.24 934.97,-208.2"/>
</g>
<!-- Node35&#45;&gt;Node21 -->
<g id="edge49" class="edge">
<title>Node35&#45;&gt;Node21</title>
<path fill="none" stroke="#63b8ff" d="M471.85,-205.87C486.99,-208.61 502.95,-211.49 517.96,-214.21"/>
<polygon fill="#63b8ff" stroke="#63b8ff" points="517.22,-217.81 527.69,-216.15 518.47,-210.93 517.22,-217.81"/>
</g>
<!-- Node35&#45;&gt;Node33 -->
<g id="edge48" class="edge">
<title>Node35&#45;&gt;Node33</title>
<path fill="none" stroke="#63b8ff" d="M437.29,-177.63C470.45,-162.91 519.74,-141.01 552,-126.69"/>
<polygon fill="#63b8ff" stroke="#63b8ff" points="553.11,-129.58 560.83,-122.32 550.27,-123.18 553.11,-129.58"/>
</g>
</g>
</svg>
