<?xml version="1.0" encoding="UTF-8" standalone="no"?>
<!DOCTYPE svg PUBLIC "-//W3C//DTD SVG 1.1//EN"
 "http://www.w3.org/Graphics/SVG/1.1/DTD/svg11.dtd">
<!-- Generated by graphviz version 8.0.5 (20230430.1635)
 -->
<!-- Title: sss::api::S3Api::Send Pages: 1 -->
<svg width="1046pt" height="658pt"
 viewBox="0.00 0.00 1046.00 658.39" xmlns="http://www.w3.org/2000/svg" xmlns:xlink="http://www.w3.org/1999/xlink">
<g id="graph0" class="graph" transform="scale(1 1) rotate(0) translate(4 654.39)">
<title>sss::api::S3Api::Send</title>
<!-- Node1 -->
<g id="node1" class="node">
<title>Node1</title>
<g id="a_node1"><a xlink:title=" ">
<polygon fill="#999999" stroke="#666666" points="111.25,-405.62 0,-405.62 0,-386.38 111.25,-386.38 111.25,-405.62"/>
<text text-anchor="middle" x="55.62" y="-392.12" font-family="Helvetica,sans-Serif" font-size="10.00">sss::api::S3Api::Send</text>
</a>
</g>
</g>
<!-- Node2 -->
<g id="node2" class="node">
<title>Node2</title>
<g id="a_node2"><a xlink:href="classsss_1_1api_1_1S3Api.html#ad09581bf28c4bbbcbb71b329959ec1ae" target="_top" xlink:title="Send request.">
<polygon fill="white" stroke="#666666" points="258.5,-448.62 147.25,-448.62 147.25,-429.38 258.5,-429.38 258.5,-448.62"/>
<text text-anchor="middle" x="202.88" y="-435.12" font-family="Helvetica,sans-Serif" font-size="10.00">sss::api::S3Api::Send</text>
</a>
</g>
</g>
<!-- Node1&#45;&gt;Node2 -->
<g id="edge1" class="edge">
<title>Node1&#45;&gt;Node2</title>
<path fill="none" stroke="#63b8ff" d="M90.68,-406.08C110.55,-411.96 135.85,-419.45 157.29,-425.8"/>
<polygon fill="#63b8ff" stroke="#63b8ff" points="156.2,-429.42 166.78,-428.91 158.19,-422.71 156.2,-429.42"/>
</g>
<!-- Node8 -->
<g id="node8" class="node">
<title>Node8</title>
<g id="a_node8"><a xlink:href="classsss_1_1WebClient.html#a88dbcc61562e84aa9ebf1eabf887ac28" target="_top" xlink:title=" ">
<polygon fill="white" stroke="#666666" points="1038,-259.62 873.5,-259.62 873.5,-240.38 1038,-240.38 1038,-259.62"/>
<text text-anchor="middle" x="955.75" y="-246.12" font-family="Helvetica,sans-Serif" font-size="10.00">sss::WebClient::SetReadFunction</text>
</a>
</g>
</g>
<!-- Node1&#45;&gt;Node8 -->
<g id="edge46" class="edge">
<title>Node1&#45;&gt;Node8</title>
<path fill="none" stroke="#63b8ff" d="M111.68,-395.14C279.56,-392.09 777.28,-379.77 837.5,-340 866.69,-320.72 846.05,-291.69 873.5,-270 875.82,-268.16 878.29,-266.49 880.87,-264.97"/>
<polygon fill="#63b8ff" stroke="#63b8ff" points="882.23,-267.71 889.6,-260.11 879.09,-261.45 882.23,-267.71"/>
</g>
<!-- Node9 -->
<g id="node9" class="node">
<title>Node9</title>
<g id="a_node9"><a xlink:href="classsss_1_1WebClient.html#a002876073b3869a9b9a9d709d14f1d7e" target="_top" xlink:title=" ">
<polygon fill="white" stroke="#666666" points="1018.88,-126.25 892.62,-126.25 892.62,-95.75 1018.88,-95.75 1018.88,-126.25"/>
<text text-anchor="start" x="900.62" y="-112.75" font-family="Helvetica,sans-Serif" font-size="10.00">sss::WebClient::SetWrite</text>
<text text-anchor="middle" x="955.75" y="-101.5" font-family="Helvetica,sans-Serif" font-size="10.00">Function</text>
</a>
</g>
</g>
<!-- Node1&#45;&gt;Node9 -->
<g id="edge47" class="edge">
<title>Node1&#45;&gt;Node9</title>
<path fill="none" stroke="#63b8ff" d="M59.02,-386.21C74.61,-325.23 167.26,0 370.88,0 370.88,0 370.88,0 557.25,0 684.36,0 716.69,-17.48 837.5,-57 864.47,-65.82 893.44,-79.13 915.84,-90.32"/>
<polygon fill="#63b8ff" stroke="#63b8ff" points="914.13,-93.89 924.64,-95.29 917.3,-87.65 914.13,-93.89"/>
</g>
<!-- Node3 -->
<g id="node3" class="node">
<title>Node3</title>
<g id="a_node3"><a xlink:href="classsss_1_1api_1_1S3Api.html#a840772746fbb0a79c161037da7b24a31" target="_top" xlink:title="Configure instance.">
<polygon fill="white" stroke="#666666" points="430.5,-291.62 313.25,-291.62 313.25,-272.38 430.5,-272.38 430.5,-291.62"/>
<text text-anchor="middle" x="371.88" y="-278.12" font-family="Helvetica,sans-Serif" font-size="10.00">sss::api::S3Api::Config</text>
</a>
</g>
</g>
<!-- Node2&#45;&gt;Node3 -->
<g id="edge2" class="edge">
<title>Node2&#45;&gt;Node3</title>
<path fill="none" stroke="#63b8ff" d="M214.58,-428.94C242.45,-402.74 317.55,-332.13 352.51,-299.27"/>
<polygon fill="#63b8ff" stroke="#63b8ff" points="354.59,-302.17 359.48,-292.77 349.79,-297.07 354.59,-302.17"/>
</g>
<!-- Node12 -->
<g id="node12" class="node">
<title>Node12</title>
<g id="a_node12"><a xlink:href="classsss_1_1WebClient.html#a51ce0ecf6487b6a43072643fe4f4cb4e" target="_top" xlink:title=" ">
<polygon fill="white" stroke="#666666" points="822.88,-85.62 677.88,-85.62 677.88,-66.38 822.88,-66.38 822.88,-85.62"/>
<text text-anchor="middle" x="750.38" y="-72.12" font-family="Helvetica,sans-Serif" font-size="10.00">sss::WebClient::SetPostData</text>
</a>
</g>
</g>
<!-- Node2&#45;&gt;Node12 -->
<g id="edge39" class="edge">
<title>Node2&#45;&gt;Node12</title>
<path fill="none" stroke="#63b8ff" d="M207.32,-429.05C225.65,-377.95 317.31,-144.59 485.25,-76 552.71,-48.45 638.19,-55.1 693.32,-64.11"/>
<polygon fill="#63b8ff" stroke="#63b8ff" points="692.48,-67.69 702.93,-65.93 693.67,-60.79 692.48,-67.69"/>
</g>
<!-- Node27 -->
<g id="node27" class="node">
<title>Node27</title>
<g id="a_node27"><a xlink:href="lib_2include_2utility_8h.html#ab314781bb3f053ef5325b50f3a1b74f8" target="_top" xlink:title=" ">
<polygon fill="white" stroke="#666666" points="993,-614.62 918.5,-614.62 918.5,-595.38 993,-595.38 993,-614.62"/>
<text text-anchor="middle" x="955.75" y="-601.12" font-family="Helvetica,sans-Serif" font-size="10.00">sss::ToLower</text>
</a>
</g>
</g>
<!-- Node2&#45;&gt;Node27 -->
<g id="edge42" class="edge">
<title>Node2&#45;&gt;Node27</title>
<path fill="none" stroke="#63b8ff" d="M206.91,-448.99C215.55,-475.47 243.04,-547.47 294.5,-577 496.69,-693.05 793.87,-642.51 907.87,-616.73"/>
<polygon fill="#63b8ff" stroke="#63b8ff" points="908.37,-619.98 917.32,-614.32 906.79,-613.16 908.37,-619.98"/>
</g>
<!-- Node29 -->
<g id="node29" class="node">
<title>Node29</title>
<g id="a_node29"><a xlink:href="group__ErrorHandling.html#ga781648957bfce0bbc86cbdbff94e28a6" target="_top" xlink:title=" ">
<polygon fill="white" stroke="#666666" points="416.62,-47.62 327.12,-47.62 327.12,-28.38 416.62,-28.38 416.62,-47.62"/>
<text text-anchor="middle" x="371.88" y="-34.12" font-family="Helvetica,sans-Serif" font-size="10.00">sss::HandleError</text>
</a>
</g>
</g>
<!-- Node2&#45;&gt;Node29 -->
<g id="edge36" class="edge">
<title>Node2&#45;&gt;Node29</title>
<path fill="none" stroke="#63b8ff" d="M204.93,-429.18C210.89,-375.55 241.9,-118.34 294.5,-62 300.57,-55.5 308.38,-50.75 316.67,-47.28"/>
<polygon fill="#63b8ff" stroke="#63b8ff" points="317.68,-50.28 325.95,-43.65 315.36,-43.68 317.68,-50.28"/>
</g>
<!-- Node30 -->
<g id="node30" class="node">
<title>Node30</title>
<g id="a_node30"><a xlink:href="group__Internal.html#ga2b8b08c2a4994a87377d83ccfa9a6a53" target="_top" xlink:title=" ">
<polygon fill="white" stroke="#666666" points="420.38,-491.62 323.38,-491.62 323.38,-472.38 420.38,-472.38 420.38,-491.62"/>
<text text-anchor="middle" x="371.88" y="-478.12" font-family="Helvetica,sans-Serif" font-size="10.00">sss::ParseParams</text>
</a>
</g>
</g>
<!-- Node2&#45;&gt;Node30 -->
<g id="edge37" class="edge">
<title>Node2&#45;&gt;Node30</title>
<path fill="none" stroke="#63b8ff" d="M241.32,-449.05C257.64,-453.4 277,-458.51 294.5,-463 302.6,-465.08 311.18,-467.25 319.57,-469.35"/>
<polygon fill="#63b8ff" stroke="#63b8ff" points="318.47,-472.93 329.02,-471.96 320.17,-466.14 318.47,-472.93"/>
</g>
<!-- Node31 -->
<g id="node31" class="node">
<title>Node31</title>
<g id="a_node31"><a xlink:href="classsss_1_1WebClient.html#aa1d7484f0e09242ce53b24f9648ce50e" target="_top" xlink:title=" ">
<polygon fill="white" stroke="#666666" points="611.88,-577.62 500.62,-577.62 500.62,-558.38 611.88,-558.38 611.88,-577.62"/>
<text text-anchor="middle" x="556.25" y="-564.12" font-family="Helvetica,sans-Serif" font-size="10.00">sss::WebClient::Send</text>
</a>
</g>
</g>
<!-- Node2&#45;&gt;Node31 -->
<g id="edge38" class="edge">
<title>Node2&#45;&gt;Node31</title>
<path fill="none" stroke="#63b8ff" d="M208.51,-448.89C219.65,-471.37 250.32,-526.16 294.5,-549 355.07,-580.32 434.35,-581.42 489.52,-576.99"/>
<polygon fill="#63b8ff" stroke="#63b8ff" points="489.57,-580.41 499.22,-576.03 488.95,-573.44 489.57,-580.41"/>
</g>
<!-- Node32 -->
<g id="node32" class="node">
<title>Node32</title>
<g id="a_node32"><a xlink:href="classsss_1_1WebClient.html#a7dfd984b33a29686fb0355b65b620e99" target="_top" xlink:title=" ">
<polygon fill="white" stroke="#666666" points="449.25,-454.25 294.5,-454.25 294.5,-423.75 449.25,-423.75 449.25,-454.25"/>
<text text-anchor="start" x="302.5" y="-440.75" font-family="Helvetica,sans-Serif" font-size="10.00">sss::WebClient::SetUrlEncoded</text>
<text text-anchor="middle" x="371.88" y="-429.5" font-family="Helvetica,sans-Serif" font-size="10.00">PostData</text>
</a>
</g>
</g>
<!-- Node2&#45;&gt;Node32 -->
<g id="edge40" class="edge">
<title>Node2&#45;&gt;Node32</title>
<path fill="none" stroke="#63b8ff" d="M258.56,-439C266.58,-439 275.01,-439 283.5,-439"/>
<polygon fill="#63b8ff" stroke="#63b8ff" points="283.25,-442.5 293.25,-439 283.25,-435.5 283.25,-442.5"/>
</g>
<!-- Node33 -->
<g id="node33" class="node">
<title>Node33</title>
<g id="a_node33"><a xlink:href="classsss_1_1WebClient.html#ae7b1f77bd4ae44585f2d49ea493bdcc5" target="_top" xlink:title="Upload data from memory buffer.">
<polygon fill="white" stroke="#666666" points="442.12,-540.25 301.62,-540.25 301.62,-509.75 442.12,-509.75 442.12,-540.25"/>
<text text-anchor="start" x="309.62" y="-526.75" font-family="Helvetica,sans-Serif" font-size="10.00">sss::WebClient::UploadData</text>
<text text-anchor="middle" x="371.88" y="-515.5" font-family="Helvetica,sans-Serif" font-size="10.00">FromBuffer</text>
</a>
</g>
</g>
<!-- Node2&#45;&gt;Node33 -->
<g id="edge43" class="edge">
<title>Node2&#45;&gt;Node33</title>
<path fill="none" stroke="#63b8ff" d="M216.05,-449.08C232.8,-462.53 264.32,-486.34 294.5,-501 297.63,-502.52 300.87,-503.97 304.18,-505.35"/>
<polygon fill="#63b8ff" stroke="#63b8ff" points="302.66,-508.91 313.24,-509.29 305.21,-502.39 302.66,-508.91"/>
</g>
<!-- Node4 -->
<g id="node4" class="node">
<title>Node4</title>
<g id="a_node4"><a xlink:href="classsss_1_1api_1_1S3Api.html#aea9741d60e74775ccd4de1c2c58f64fa" target="_top" xlink:title=" ">
<polygon fill="white" stroke="#666666" points="617.12,-104.62 495.38,-104.62 495.38,-85.38 617.12,-85.38 617.12,-104.62"/>
<text text-anchor="middle" x="556.25" y="-91.12" font-family="Helvetica,sans-Serif" font-size="10.00">sss::api::S3Api::Access</text>
</a>
</g>
</g>
<!-- Node3&#45;&gt;Node4 -->
<g id="edge3" class="edge">
<title>Node3&#45;&gt;Node4</title>
<path fill="none" stroke="#63b8ff" d="M377.06,-271.92C389.33,-243.58 428.01,-162.4 485.25,-119 490.3,-115.17 496,-111.93 501.92,-109.18"/>
<polygon fill="#63b8ff" stroke="#63b8ff" points="503.09,-112.07 511,-105.03 500.42,-105.6 503.09,-112.07"/>
</g>
<!-- Node5 -->
<g id="node5" class="node">
<title>Node5</title>
<g id="a_node5"><a xlink:href="classsss_1_1api_1_1S3Api.html#a3718745d3b940462ae9f3b78f773b3a6" target="_top" xlink:title="Clear data and reset read and write functions.">
<polygon fill="white" stroke="#666666" points="612.25,-291.62 500.25,-291.62 500.25,-272.38 612.25,-272.38 612.25,-291.62"/>
<text text-anchor="middle" x="556.25" y="-278.12" font-family="Helvetica,sans-Serif" font-size="10.00">sss::api::S3Api::Clear</text>
</a>
</g>
</g>
<!-- Node3&#45;&gt;Node5 -->
<g id="edge4" class="edge">
<title>Node3&#45;&gt;Node5</title>
<path fill="none" stroke="#63b8ff" d="M430.83,-282C449.31,-282 469.91,-282 488.94,-282"/>
<polygon fill="#63b8ff" stroke="#63b8ff" points="488.93,-285.5 498.93,-282 488.93,-278.5 488.93,-285.5"/>
</g>
<!-- Node10 -->
<g id="node10" class="node">
<title>Node10</title>
<g id="a_node10"><a xlink:href="classsss_1_1WebClient.html#a75890c14fbe4a4bbac61718a4f3c064d" target="_top" xlink:title=" ">
<polygon fill="white" stroke="#666666" points="820.62,-330.62 680.12,-330.62 680.12,-311.38 820.62,-311.38 820.62,-330.62"/>
<text text-anchor="middle" x="750.38" y="-317.12" font-family="Helvetica,sans-Serif" font-size="10.00">sss::WebClient::SetHeaders</text>
</a>
</g>
</g>
<!-- Node3&#45;&gt;Node10 -->
<g id="edge16" class="edge">
<title>Node3&#45;&gt;Node10</title>
<path fill="none" stroke="#63b8ff" d="M397.82,-292.04C420.27,-300.53 454.38,-312.06 485.25,-317 546.24,-326.75 616.15,-327.35 668.72,-325.73"/>
<polygon fill="#63b8ff" stroke="#63b8ff" points="668.8,-329.19 678.67,-325.35 668.55,-322.2 668.8,-329.19"/>
</g>
<!-- Node11 -->
<g id="node11" class="node">
<title>Node11</title>
<g id="a_node11"><a xlink:href="classsss_1_1WebClient.html#a12b5db6b8c667024557ab58059d39994" target="_top" xlink:title=" ">
<polygon fill="white" stroke="#666666" points="812.38,-293.62 688.38,-293.62 688.38,-274.38 812.38,-274.38 812.38,-293.62"/>
<text text-anchor="middle" x="750.38" y="-280.12" font-family="Helvetica,sans-Serif" font-size="10.00">sss::WebClient::SetPath</text>
</a>
</g>
</g>
<!-- Node3&#45;&gt;Node11 -->
<g id="edge20" class="edge">
<title>Node3&#45;&gt;Node11</title>
<path fill="none" stroke="#63b8ff" d="M421.88,-292.12C441.49,-295.69 464.35,-299.25 485.25,-301 548.14,-306.28 564.29,-305.36 627.25,-301 643.8,-299.85 661.53,-297.84 678.2,-295.6"/>
<polygon fill="#63b8ff" stroke="#63b8ff" points="678.56,-298.94 687.98,-294.09 677.6,-292.01 678.56,-298.94"/>
</g>
<!-- Node13 -->
<g id="node13" class="node">
<title>Node13</title>
<g id="a_node13"><a xlink:href="classsss_1_1WebClient.html#a9bf978d95b79728f6d60fc2bdb4fe546" target="_top" xlink:title=" ">
<polygon fill="white" stroke="#666666" points="836.38,-162.62 664.38,-162.62 664.38,-143.38 836.38,-143.38 836.38,-162.62"/>
<text text-anchor="middle" x="750.38" y="-149.12" font-family="Helvetica,sans-Serif" font-size="10.00">sss::WebClient::SetReqParameters</text>
</a>
</g>
</g>
<!-- Node3&#45;&gt;Node13 -->
<g id="edge21" class="edge">
<title>Node3&#45;&gt;Node13</title>
<path fill="none" stroke="#63b8ff" d="M377.67,-271.99C390.65,-246.16 429.36,-177.56 485.25,-152 554.06,-120.53 643.89,-130.04 699.06,-140.78"/>
<polygon fill="#63b8ff" stroke="#63b8ff" points="698.12,-144.36 708.62,-142.93 699.52,-137.51 698.12,-144.36"/>
</g>
<!-- Node14 -->
<g id="node14" class="node">
<title>Node14</title>
<g id="a_node14"><a xlink:href="classsss_1_1api_1_1S3Api.html#a25a999d87c121627166fc0a896f536c7" target="_top" xlink:title=" ">
<polygon fill="white" stroke="#666666" points="619.75,-254.62 492.75,-254.62 492.75,-235.38 619.75,-235.38 619.75,-254.62"/>
<text text-anchor="middle" x="556.25" y="-241.12" font-family="Helvetica,sans-Serif" font-size="10.00">sss::api::S3Api::Endpoint</text>
</a>
</g>
</g>
<!-- Node3&#45;&gt;Node14 -->
<g id="edge13" class="edge">
<title>Node3&#45;&gt;Node14</title>
<path fill="none" stroke="#63b8ff" d="M422.71,-271.89C445.03,-267.36 471.53,-261.98 494.96,-257.23"/>
<polygon fill="#63b8ff" stroke="#63b8ff" points="495.37,-260.52 504.48,-255.1 493.98,-253.66 495.37,-260.52"/>
</g>
<!-- Node15 -->
<g id="node15" class="node">
<title>Node15</title>
<g id="a_node15"><a xlink:href="classsss_1_1api_1_1S3Api.html#a6f518c16679e99f119966b36ac28463f" target="_top" xlink:title=" ">
<polygon fill="white" stroke="#666666" points="614.88,-217.62 497.62,-217.62 497.62,-198.38 614.88,-198.38 614.88,-217.62"/>
<text text-anchor="middle" x="556.25" y="-204.12" font-family="Helvetica,sans-Serif" font-size="10.00">sss::api::S3Api::Secret</text>
</a>
</g>
</g>
<!-- Node3&#45;&gt;Node15 -->
<g id="edge14" class="edge">
<title>Node3&#45;&gt;Node15</title>
<path fill="none" stroke="#63b8ff" d="M390.26,-271.89C411.92,-259.64 450.33,-239.03 485.25,-226 490,-224.23 494.99,-222.57 500.03,-221.03"/>
<polygon fill="#63b8ff" stroke="#63b8ff" points="500.74,-224.18 509.38,-218.04 498.8,-217.45 500.74,-224.18"/>
</g>
<!-- Node16 -->
<g id="node16" class="node">
<title>Node16</title>
<g id="a_node16"><a xlink:href="classsss_1_1WebClient.html#afc3b7a92568fbb1ea447918920ca266e" target="_top" xlink:title="Set endpoint: &lt;proto&gt;://&lt;server&gt;:&lt;port&gt;">
<polygon fill="white" stroke="#666666" points="627.25,-180.62 485.25,-180.62 485.25,-161.38 627.25,-161.38 627.25,-180.62"/>
<text text-anchor="middle" x="556.25" y="-167.12" font-family="Helvetica,sans-Serif" font-size="10.00">sss::WebClient::SetEndpoint</text>
</a>
</g>
</g>
<!-- Node3&#45;&gt;Node16 -->
<g id="edge15" class="edge">
<title>Node3&#45;&gt;Node16</title>
<path fill="none" stroke="#63b8ff" d="M382.03,-271.91C399.95,-252.79 441.71,-211.2 485.25,-189 488.32,-187.43 491.55,-185.99 494.85,-184.68"/>
<polygon fill="#63b8ff" stroke="#63b8ff" points="495.69,-187.73 503.93,-181.07 493.33,-181.14 495.69,-187.73"/>
</g>
<!-- Node17 -->
<g id="node17" class="node">
<title>Node17</title>
<g id="a_node17"><a xlink:href="classsss_1_1WebClient.html#af6233ffd7b294e1e7e606e838dd44e9e" target="_top" xlink:title=" ">
<polygon fill="white" stroke="#666666" points="624.25,-540.62 488.25,-540.62 488.25,-521.38 624.25,-521.38 624.25,-540.62"/>
<text text-anchor="middle" x="556.25" y="-527.12" font-family="Helvetica,sans-Serif" font-size="10.00">sss::WebClient::SetMethod</text>
</a>
</g>
</g>
<!-- Node3&#45;&gt;Node17 -->
<g id="edge17" class="edge">
<title>Node3&#45;&gt;Node17</title>
<path fill="none" stroke="#63b8ff" d="M378.69,-292.07C394.49,-319.18 440.08,-395.59 485.25,-454 501.85,-475.46 523.06,-498.25 537.77,-513.41"/>
<polygon fill="#63b8ff" stroke="#63b8ff" points="534.7,-515.3 544.19,-520 539.7,-510.4 534.7,-515.3"/>
</g>
<!-- Node19 -->
<g id="node19" class="node">
<title>Node19</title>
<g id="a_node19"><a xlink:href="group__Sign.html#ga3ae8e18ef70752b7369fca66c40c526b" target="_top" xlink:title="Sign headers.">
<polygon fill="white" stroke="#666666" points="603.25,-444.62 509.25,-444.62 509.25,-425.38 603.25,-425.38 603.25,-444.62"/>
<text text-anchor="middle" x="556.25" y="-431.12" font-family="Helvetica,sans-Serif" font-size="10.00">sss::SignHeaders</text>
</a>
</g>
</g>
<!-- Node3&#45;&gt;Node19 -->
<g id="edge22" class="edge">
<title>Node3&#45;&gt;Node19</title>
<path fill="none" stroke="#63b8ff" d="M384.84,-292.04C415.51,-317.77 497.16,-386.27 535.22,-418.19"/>
<polygon fill="#63b8ff" stroke="#63b8ff" points="532.57,-421.38 542.48,-425.12 537.07,-416.01 532.57,-421.38"/>
</g>
<!-- Node6 -->
<g id="node6" class="node">
<title>Node6</title>
<g id="a_node6"><a xlink:href="classsss_1_1WebClient.html#a381f5715b7a2f19a0d4414d278874bae" target="_top" xlink:title="Clear internal buffers.">
<polygon fill="white" stroke="#666666" points="822.12,-219.62 678.62,-219.62 678.62,-200.38 822.12,-200.38 822.12,-219.62"/>
<text text-anchor="middle" x="750.38" y="-206.12" font-family="Helvetica,sans-Serif" font-size="10.00">sss::WebClient::ClearBuffers</text>
</a>
</g>
</g>
<!-- Node5&#45;&gt;Node6 -->
<g id="edge5" class="edge">
<title>Node5&#45;&gt;Node6</title>
<path fill="none" stroke="#63b8ff" d="M609.33,-271.96C615.57,-269.79 621.69,-267.17 627.25,-264 646.9,-252.79 643.35,-238.76 663.25,-228 666.11,-226.45 669.1,-225.04 672.16,-223.74"/>
<polygon fill="#63b8ff" stroke="#63b8ff" points="673.02,-226.78 681.17,-220.01 670.58,-220.22 673.02,-226.78"/>
</g>
<!-- Node7 -->
<g id="node7" class="node">
<title>Node7</title>
<g id="a_node7"><a xlink:href="classsss_1_1WebClient.html#a96837f149bb473853a6523d096a25c56" target="_top" xlink:title="Reset read/write functions to default.">
<polygon fill="white" stroke="#666666" points="837.5,-256.62 663.25,-256.62 663.25,-237.38 837.5,-237.38 837.5,-256.62"/>
<text text-anchor="middle" x="750.38" y="-243.12" font-family="Helvetica,sans-Serif" font-size="10.00">sss::WebClient::ResetRWFunctions</text>
</a>
</g>
</g>
<!-- Node5&#45;&gt;Node7 -->
<g id="edge6" class="edge">
<title>Node5&#45;&gt;Node7</title>
<path fill="none" stroke="#63b8ff" d="M612.56,-271.92C634.67,-267.9 660.31,-263.23 683.38,-259.02"/>
<polygon fill="#63b8ff" stroke="#63b8ff" points="683.91,-262.3 693.12,-257.07 682.65,-255.41 683.91,-262.3"/>
</g>
<!-- Node5&#45;&gt;Node10 -->
<g id="edge9" class="edge">
<title>Node5&#45;&gt;Node10</title>
<path fill="none" stroke="#63b8ff" d="M606.98,-292.09C631.99,-297.17 662.52,-303.37 688.89,-308.72"/>
<polygon fill="#63b8ff" stroke="#63b8ff" points="688.03,-312.32 698.52,-310.88 689.42,-305.46 688.03,-312.32"/>
</g>
<!-- Node5&#45;&gt;Node11 -->
<g id="edge10" class="edge">
<title>Node5&#45;&gt;Node11</title>
<path fill="none" stroke="#63b8ff" d="M612.56,-282.58C632.67,-282.79 655.7,-283.02 677.06,-283.25"/>
<polygon fill="#63b8ff" stroke="#63b8ff" points="677.02,-286.76 687.05,-283.36 677.09,-279.76 677.02,-286.76"/>
</g>
<!-- Node5&#45;&gt;Node12 -->
<g id="edge11" class="edge">
<title>Node5&#45;&gt;Node12</title>
<path fill="none" stroke="#63b8ff" d="M612.62,-273.86C618.02,-271.35 623.04,-268.13 627.25,-264 670.03,-222 628.21,-182.65 663.25,-134 676.67,-115.36 698.07,-100.91 716.17,-91.09"/>
<polygon fill="#63b8ff" stroke="#63b8ff" points="717.54,-93.81 724.82,-86.12 714.33,-87.59 717.54,-93.81"/>
</g>
<!-- Node5&#45;&gt;Node13 -->
<g id="edge12" class="edge">
<title>Node5&#45;&gt;Node13</title>
<path fill="none" stroke="#63b8ff" d="M612.59,-272.73C617.86,-270.42 622.87,-267.56 627.25,-264 655.33,-241.19 637.13,-216.03 663.25,-191 674.17,-180.54 688.45,-172.67 702.23,-166.9"/>
<polygon fill="#63b8ff" stroke="#63b8ff" points="703.07,-169.94 711.12,-163.05 700.54,-163.41 703.07,-169.94"/>
</g>
<!-- Node7&#45;&gt;Node8 -->
<g id="edge7" class="edge">
<title>Node7&#45;&gt;Node8</title>
<path fill="none" stroke="#63b8ff" d="M837.92,-248.28C845.95,-248.4 854.1,-248.52 862.18,-248.63"/>
<polygon fill="#63b8ff" stroke="#63b8ff" points="862.08,-252.15 872.13,-248.8 862.18,-245.15 862.08,-252.15"/>
</g>
<!-- Node7&#45;&gt;Node9 -->
<g id="edge8" class="edge">
<title>Node7&#45;&gt;Node9</title>
<path fill="none" stroke="#63b8ff" d="M818.59,-237.01C825.17,-234.84 831.59,-232.21 837.5,-229 880.14,-205.85 917.31,-162.26 937.83,-135.04"/>
<polygon fill="#63b8ff" stroke="#63b8ff" points="941.02,-137.61 944.13,-127.48 935.38,-133.46 941.02,-137.61"/>
</g>
<!-- Node18 -->
<g id="node18" class="node">
<title>Node18</title>
<g id="a_node18"><a xlink:href="lib_2include_2utility_8h.html#ae153c064d6f1beda845702f67605b20e" target="_top" xlink:title=" ">
<polygon fill="white" stroke="#666666" points="993,-557.62 918.5,-557.62 918.5,-538.38 993,-538.38 993,-557.62"/>
<text text-anchor="middle" x="955.75" y="-544.12" font-family="Helvetica,sans-Serif" font-size="10.00">sss::ToUpper</text>
</a>
</g>
</g>
<!-- Node17&#45;&gt;Node18 -->
<g id="edge18" class="edge">
<title>Node17&#45;&gt;Node18</title>
<path fill="none" stroke="#63b8ff" d="M624.68,-533.88C705,-537.32 837.1,-542.97 907.36,-545.97"/>
<polygon fill="#63b8ff" stroke="#63b8ff" points="906.94,-549.5 917.08,-546.43 907.24,-542.51 906.94,-549.5"/>
</g>
<!-- Node18&#45;&gt;Node18 -->
<g id="edge19" class="edge">
<title>Node18&#45;&gt;Node18</title>
<path fill="none" stroke="#63b8ff" d="M923.6,-557.91C908.93,-566.52 919.65,-575.62 955.75,-575.62 978.88,-575.62 991.59,-571.89 993.88,-566.94"/>
<polygon fill="#63b8ff" stroke="#63b8ff" points="996.34,-565.32 987.9,-558.91 990.51,-569.18 996.34,-565.32"/>
</g>
<!-- Node20 -->
<g id="node20" class="node">
<title>Node20</title>
<g id="a_node20"><a xlink:href="group__Ranges.html#ga0aa7f3b15d2ebf9b597a1b5ba38ae8ac" target="_top" xlink:title="return iterator at start position">
<polygon fill="white" stroke="#666666" points="986.25,-298.62 925.25,-298.62 925.25,-279.38 986.25,-279.38 986.25,-298.62"/>
<text text-anchor="middle" x="955.75" y="-285.12" font-family="Helvetica,sans-Serif" font-size="10.00">sss::begin</text>
</a>
</g>
</g>
<!-- Node19&#45;&gt;Node20 -->
<g id="edge23" class="edge">
<title>Node19&#45;&gt;Node20</title>
<path fill="none" stroke="#63b8ff" d="M603.59,-426.91C678.3,-413.56 818.9,-386.98 837.5,-373 864.21,-352.92 846.79,-327.08 873.5,-307 885.07,-298.3 900.03,-293.65 913.96,-291.22"/>
<polygon fill="#63b8ff" stroke="#63b8ff" points="914.4,-294.55 923.82,-289.71 913.43,-287.62 914.4,-294.55"/>
</g>
<!-- Node21 -->
<g id="node21" class="node">
<title>Node21</title>
<g id="a_node21"><a xlink:href="group__Sign.html#ga532598da479904609d6c02e4c2a1311a" target="_top" xlink:title="Compute signature.">
<polygon fill="white" stroke="#666666" points="809.75,-444.62 691,-444.62 691,-425.38 809.75,-425.38 809.75,-444.62"/>
<text text-anchor="middle" x="750.38" y="-431.12" font-family="Helvetica,sans-Serif" font-size="10.00">sss::ComputeSignature</text>
</a>
</g>
</g>
<!-- Node19&#45;&gt;Node21 -->
<g id="edge24" class="edge">
<title>Node19&#45;&gt;Node21</title>
<path fill="none" stroke="#63b8ff" d="M603.27,-435C626.19,-435 654.39,-435 679.88,-435"/>
<polygon fill="#63b8ff" stroke="#63b8ff" points="679.62,-438.5 689.62,-435 679.62,-431.5 679.62,-438.5"/>
</g>
<!-- Node23 -->
<g id="node23" class="node">
<title>Node23</title>
<g id="a_node23"><a xlink:href="group__Ranges.html#ga4f73053571587e79eb3db628f5e6ef99" target="_top" xlink:title="return iterator at end position">
<polygon fill="white" stroke="#666666" points="982.5,-483.62 929,-483.62 929,-464.38 982.5,-464.38 982.5,-483.62"/>
<text text-anchor="middle" x="955.75" y="-470.12" font-family="Helvetica,sans-Serif" font-size="10.00">sss::end</text>
</a>
</g>
</g>
<!-- Node19&#45;&gt;Node23 -->
<g id="edge35" class="edge">
<title>Node19&#45;&gt;Node23</title>
<path fill="none" stroke="#63b8ff" d="M603.52,-444.42C622.03,-447.89 643.58,-451.57 663.25,-454 754.39,-465.26 862.39,-470.6 917.84,-472.76"/>
<polygon fill="#63b8ff" stroke="#63b8ff" points="917.4,-476.28 927.53,-473.16 917.67,-469.28 917.4,-476.28"/>
</g>
<!-- Node21&#45;&gt;Node18 -->
<g id="edge33" class="edge">
<title>Node21&#45;&gt;Node18</title>
<path fill="none" stroke="#63b8ff" d="M761.1,-445.12C780.52,-464.7 826.34,-507.82 873.5,-530 884,-534.94 895.91,-538.55 907.32,-541.18"/>
<polygon fill="#63b8ff" stroke="#63b8ff" points="906.52,-544.8 917.03,-543.41 907.95,-537.95 906.52,-544.8"/>
</g>
<!-- Node21&#45;&gt;Node20 -->
<g id="edge25" class="edge">
<title>Node21&#45;&gt;Node20</title>
<path fill="none" stroke="#63b8ff" d="M810.06,-426.88C820.13,-423.31 829.81,-418.23 837.5,-411 873.13,-377.49 836.98,-339.54 873.5,-307 884.59,-297.12 899.87,-292.27 914.2,-290.01"/>
<polygon fill="#63b8ff" stroke="#63b8ff" points="914.36,-293.4 923.88,-288.74 913.53,-286.44 914.36,-293.4"/>
</g>
<!-- Node22 -->
<g id="node22" class="node">
<title>Node22</title>
<g id="a_node22"><a xlink:href="group__Internal.html#ga74c69f25ce04876e114759c0023b2a12" target="_top" xlink:title=" ">
<polygon fill="white" stroke="#666666" points="1018.5,-409.62 893,-409.62 893,-390.38 1018.5,-390.38 1018.5,-409.62"/>
<text text-anchor="middle" x="955.75" y="-396.12" font-family="Helvetica,sans-Serif" font-size="10.00">sss::CreateSignatureKey</text>
</a>
</g>
</g>
<!-- Node21&#45;&gt;Node22 -->
<g id="edge26" class="edge">
<title>Node21&#45;&gt;Node22</title>
<path fill="none" stroke="#63b8ff" d="M810.2,-424.88C833.7,-420.83 860.95,-416.14 885.4,-411.93"/>
<polygon fill="#63b8ff" stroke="#63b8ff" points="885.8,-415.25 895.06,-410.1 884.61,-408.35 885.8,-415.25"/>
</g>
<!-- Node21&#45;&gt;Node23 -->
<g id="edge27" class="edge">
<title>Node21&#45;&gt;Node23</title>
<path fill="none" stroke="#63b8ff" d="M804.01,-445.09C839.81,-451.96 886.27,-460.87 918.09,-466.97"/>
<polygon fill="#63b8ff" stroke="#63b8ff" points="917.21,-470.56 927.69,-469 918.53,-463.68 917.21,-470.56"/>
</g>
<!-- Node24 -->
<g id="node24" class="node">
<title>Node24</title>
<g id="a_node24"><a xlink:href="group__Internal.html#ga50353a351a93b1213dc4e5211c767d85" target="_top" xlink:title=" ">
<polygon fill="white" stroke="#666666" points="995.62,-372.62 915.88,-372.62 915.88,-353.38 995.62,-353.38 995.62,-372.62"/>
<text text-anchor="middle" x="955.75" y="-359.12" font-family="Helvetica,sans-Serif" font-size="10.00">sss::GetDates</text>
</a>
</g>
</g>
<!-- Node21&#45;&gt;Node24 -->
<g id="edge28" class="edge">
<title>Node21&#45;&gt;Node24</title>
<path fill="none" stroke="#63b8ff" d="M801.48,-424.88C813.66,-421.39 826.37,-416.84 837.5,-411 855.94,-401.32 854.8,-390.18 873.5,-381 883.23,-376.22 894.23,-372.7 904.92,-370.11"/>
<polygon fill="#63b8ff" stroke="#63b8ff" points="905.43,-373.36 914.46,-367.81 903.94,-366.52 905.43,-373.36"/>
</g>
<!-- Node25 -->
<g id="node25" class="node">
<title>Node25</title>
<g id="a_node25"><a xlink:href="group__Internal.html#ga990dfaae4abc6bf20a28f9772b7bcd16" target="_top" xlink:title="Byte to hex string conversion.">
<polygon fill="white" stroke="#666666" points="983.62,-335.62 927.88,-335.62 927.88,-316.38 983.62,-316.38 983.62,-335.62"/>
<text text-anchor="middle" x="955.75" y="-322.12" font-family="Helvetica,sans-Serif" font-size="10.00">sss::Hex</text>
</a>
</g>
</g>
<!-- Node21&#45;&gt;Node25 -->
<g id="edge29" class="edge">
<title>Node21&#45;&gt;Node25</title>
<path fill="none" stroke="#63b8ff" d="M810.06,-425.54C819.9,-422.09 829.5,-417.4 837.5,-411 863.9,-389.88 846.55,-364.4 873.5,-344 885.8,-334.69 901.98,-330.01 916.65,-327.73"/>
<polygon fill="#63b8ff" stroke="#63b8ff" points="916.99,-331.09 926.5,-326.41 916.15,-324.14 916.99,-331.09"/>
</g>
<!-- Node26 -->
<g id="node26" class="node">
<title>Node26</title>
<g id="a_node26"><a xlink:href="group__Internal.html#ga7160aa316f2c6633467b47588263c690" target="_top" xlink:title=" ">
<polygon fill="white" stroke="#666666" points="997.5,-446.62 914,-446.62 914,-427.38 997.5,-427.38 997.5,-446.62"/>
<text text-anchor="middle" x="955.75" y="-433.12" font-family="Helvetica,sans-Serif" font-size="10.00">sss::ParseURL</text>
</a>
</g>
</g>
<!-- Node21&#45;&gt;Node26 -->
<g id="edge30" class="edge">
<title>Node21&#45;&gt;Node26</title>
<path fill="none" stroke="#63b8ff" d="M810.2,-435.58C839.51,-435.87 874.63,-436.21 902.92,-436.49"/>
<polygon fill="#63b8ff" stroke="#63b8ff" points="902.76,-440 912.79,-436.6 902.83,-433 902.76,-440"/>
</g>
<!-- Node21&#45;&gt;Node27 -->
<g id="edge31" class="edge">
<title>Node21&#45;&gt;Node27</title>
<path fill="none" stroke="#63b8ff" d="M756.42,-444.9C770.75,-471.97 814.48,-547.64 873.5,-585 883.74,-591.48 895.94,-595.87 907.73,-598.83"/>
<polygon fill="#63b8ff" stroke="#63b8ff" points="906.86,-602.44 917.38,-601.17 908.36,-595.6 906.86,-602.44"/>
</g>
<!-- Node28 -->
<g id="node28" class="node">
<title>Node28</title>
<g id="a_node28"><a xlink:href="group__Internal.html#ga0f079ace8729714b3949eabe22f228c9" target="_top" xlink:title=" ">
<polygon fill="white" stroke="#666666" points="997.5,-520.62 914,-520.62 914,-501.38 997.5,-501.38 997.5,-520.62"/>
<text text-anchor="middle" x="955.75" y="-507.12" font-family="Helvetica,sans-Serif" font-size="10.00">sss::UrlEncode</text>
</a>
</g>
</g>
<!-- Node21&#45;&gt;Node28 -->
<g id="edge34" class="edge">
<title>Node21&#45;&gt;Node28</title>
<path fill="none" stroke="#63b8ff" d="M769.05,-444.96C792.34,-457.71 834.87,-479.74 873.5,-493 882.93,-496.24 893.19,-499.04 903.13,-501.4"/>
<polygon fill="#63b8ff" stroke="#63b8ff" points="902.23,-505.01 912.75,-503.8 903.77,-498.18 902.23,-505.01"/>
</g>
<!-- Node27&#45;&gt;Node27 -->
<g id="edge32" class="edge">
<title>Node27&#45;&gt;Node27</title>
<path fill="none" stroke="#63b8ff" d="M923.6,-614.91C908.93,-623.52 919.65,-632.62 955.75,-632.62 978.88,-632.62 991.59,-628.89 993.88,-623.94"/>
<polygon fill="#63b8ff" stroke="#63b8ff" points="996.34,-622.32 987.9,-615.91 990.51,-626.18 996.34,-622.32"/>
</g>
<!-- Node32&#45;&gt;Node28 -->
<g id="edge41" class="edge">
<title>Node32&#45;&gt;Node28</title>
<path fill="none" stroke="#63b8ff" d="M449.63,-449.35C461.55,-450.92 473.73,-452.52 485.25,-454 636.8,-473.48 816.11,-494.76 902.74,-504.93"/>
<polygon fill="#63b8ff" stroke="#63b8ff" points="902.25,-508.51 912.59,-506.2 903.07,-501.56 902.25,-508.51"/>
</g>
<!-- Node33&#45;&gt;Node17 -->
<g id="edge45" class="edge">
<title>Node33&#45;&gt;Node17</title>
<path fill="none" stroke="#63b8ff" d="M442.6,-527.29C453.88,-527.67 465.62,-528.05 477.09,-528.43"/>
<polygon fill="#63b8ff" stroke="#63b8ff" points="476.86,-531.96 486.97,-528.79 477.09,-524.96 476.86,-531.96"/>
</g>
<!-- Node33&#45;&gt;Node31 -->
<g id="edge44" class="edge">
<title>Node33&#45;&gt;Node31</title>
<path fill="none" stroke="#63b8ff" d="M439.49,-540.71C460.01,-545.54 482.32,-550.81 501.83,-555.41"/>
<polygon fill="#63b8ff" stroke="#63b8ff" points="500.82,-559 511.36,-557.89 502.43,-552.18 500.82,-559"/>
</g>
</g>
</svg>
