<?xml version="1.0" encoding="UTF-8" standalone="no"?>
<!DOCTYPE svg PUBLIC "-//W3C//DTD SVG 1.1//EN"
 "http://www.w3.org/Graphics/SVG/1.1/DTD/svg11.dtd">
<!-- Generated by graphviz version 2.43.0 (0)
 -->
<!-- Title: sss::api::S3Api::Send Pages: 1 -->
<svg width="501pt" height="871pt"
 viewBox="0.00 0.00 501.00 870.50" xmlns="http://www.w3.org/2000/svg" xmlns:xlink="http://www.w3.org/1999/xlink">
<g id="graph0" class="graph" transform="scale(1 1) rotate(0) translate(4 866.5)">
<title>sss::api::S3Api::Send</title>
<!-- Node1 -->
<g id="node1" class="node">
<title>Node1</title>
<g id="a_node1"><a xlink:title="Send request.">
<polygon fill="#bfbfbf" stroke="black" points="381,-410.5 381,-429.5 493,-429.5 493,-410.5 381,-410.5"/>
<text text-anchor="middle" x="437" y="-417.5" font-family="Helvetica,sans-Serif" font-size="10.00">sss::api::S3Api::Send</text>
</a>
</g>
</g>
<!-- Node2 -->
<g id="node2" class="node">
<title>Node2</title>
<g id="a_node2"><a xlink:href="classsss_1_1api_1_1S3Api.html#a4ea265566c3c4335ec01201cdc4410c6" target="_top" xlink:title="Abort multipart upload.">
<polygon fill="none" stroke="black" points="192,-832 192,-862 342,-862 342,-832 192,-832"/>
<text text-anchor="start" x="200" y="-850" font-family="Helvetica,sans-Serif" font-size="10.00">sss::api::S3Api::AbortMultipart</text>
<text text-anchor="middle" x="267" y="-839" font-family="Helvetica,sans-Serif" font-size="10.00">Upload</text>
</a>
</g>
</g>
<!-- Node1&#45;&gt;Node2 -->
<g id="edge1" class="edge">
<title>Node1&#45;&gt;Node2</title>
<path fill="none" stroke="midnightblue" d="M434.12,-439.88C426.82,-512.96 398.1,-765.46 345,-823 341.87,-826.4 338.26,-829.31 334.36,-831.82"/>
<polygon fill="midnightblue" stroke="midnightblue" points="437.62,-440.04 435.11,-429.75 430.65,-439.36 437.62,-440.04"/>
</g>
<!-- Node3 -->
<g id="node3" class="node">
<title>Node3</title>
<g id="a_node3"><a xlink:href="classsss_1_1api_1_1S3Api.html#a98f999a216121118dd569c7ef0c28ff3" target="_top" xlink:title="Complete multipart upload.">
<polygon fill="none" stroke="black" points="201.5,-783 201.5,-813 332.5,-813 332.5,-783 201.5,-783"/>
<text text-anchor="start" x="209.5" y="-801" font-family="Helvetica,sans-Serif" font-size="10.00">sss::api::S3Api::Complete</text>
<text text-anchor="middle" x="267" y="-790" font-family="Helvetica,sans-Serif" font-size="10.00">MultipartUpload</text>
</a>
</g>
</g>
<!-- Node1&#45;&gt;Node3 -->
<g id="edge2" class="edge">
<title>Node1&#45;&gt;Node3</title>
<path fill="none" stroke="midnightblue" d="M433.46,-439.51C424.42,-506.12 391.82,-723.2 345,-773 341.34,-776.89 337.07,-780.18 332.46,-782.95"/>
<polygon fill="midnightblue" stroke="midnightblue" points="436.94,-439.9 434.79,-429.52 430,-438.97 436.94,-439.9"/>
</g>
<!-- Node4 -->
<g id="node4" class="node">
<title>Node4</title>
<g id="a_node4"><a xlink:href="classsss_1_1api_1_1S3Api.html#ad890bd1ecfc978df24b2c3ed641e4081" target="_top" xlink:title="Create bucket.">
<polygon fill="none" stroke="black" points="192.5,-744.5 192.5,-763.5 341.5,-763.5 341.5,-744.5 192.5,-744.5"/>
<text text-anchor="middle" x="267" y="-751.5" font-family="Helvetica,sans-Serif" font-size="10.00">sss::api::S3Api::CreateBucket</text>
</a>
</g>
</g>
<!-- Node1&#45;&gt;Node4 -->
<g id="edge3" class="edge">
<title>Node1&#45;&gt;Node4</title>
<path fill="none" stroke="midnightblue" d="M436.6,-439.89C437.12,-495.29 430.62,-652.68 345,-735 341.03,-738.82 336.42,-741.91 331.47,-744.4"/>
<polygon fill="midnightblue" stroke="midnightblue" points="440.09,-439.61 436.41,-429.68 433.1,-439.74 440.09,-439.61"/>
</g>
<!-- Node5 -->
<g id="node5" class="node">
<title>Node5</title>
<g id="a_node5"><a xlink:href="classsss_1_1api_1_1S3Api.html#a1796fafda3d90a4292a611ce1999433b" target="_top" xlink:title="Create multipart upload.">
<polygon fill="none" stroke="black" points="189,-695 189,-725 345,-725 345,-695 189,-695"/>
<text text-anchor="start" x="197" y="-713" font-family="Helvetica,sans-Serif" font-size="10.00">sss::api::S3Api::CreateMultipart</text>
<text text-anchor="middle" x="267" y="-702" font-family="Helvetica,sans-Serif" font-size="10.00">Upload</text>
</a>
</g>
</g>
<!-- Node1&#45;&gt;Node5 -->
<g id="edge4" class="edge">
<title>Node1&#45;&gt;Node5</title>
<path fill="none" stroke="midnightblue" d="M435.03,-439.65C431.55,-488.29 415.8,-615.38 345,-685 341.09,-688.84 336.59,-692.1 331.76,-694.85"/>
<polygon fill="midnightblue" stroke="midnightblue" points="438.53,-439.73 435.65,-429.54 431.54,-439.3 438.53,-439.73"/>
</g>
<!-- Node6 -->
<g id="node6" class="node">
<title>Node6</title>
<g id="a_node6"><a xlink:href="classsss_1_1api_1_1S3Api.html#a3d63825d1916e4ba3ca13122c7660603" target="_top" xlink:title="Delete bucket.">
<polygon fill="none" stroke="black" points="192.5,-656.5 192.5,-675.5 341.5,-675.5 341.5,-656.5 192.5,-656.5"/>
<text text-anchor="middle" x="267" y="-663.5" font-family="Helvetica,sans-Serif" font-size="10.00">sss::api::S3Api::DeleteBucket</text>
</a>
</g>
</g>
<!-- Node1&#45;&gt;Node6 -->
<g id="edge5" class="edge">
<title>Node1&#45;&gt;Node6</title>
<path fill="none" stroke="midnightblue" d="M434.08,-439.48C428.68,-483.49 409.25,-591.13 345,-647 340.53,-650.88 335.39,-654 329.93,-656.5"/>
<polygon fill="midnightblue" stroke="midnightblue" points="437.57,-439.83 435.2,-429.51 430.61,-439.06 437.57,-439.83"/>
</g>
<!-- Node7 -->
<g id="node7" class="node">
<title>Node7</title>
<g id="a_node7"><a xlink:href="classsss_1_1api_1_1S3Api.html#a14a75f15eb71fbba8639673100768b67" target="_top" xlink:title="Delete object.">
<polygon fill="none" stroke="black" points="194,-618.5 194,-637.5 340,-637.5 340,-618.5 194,-618.5"/>
<text text-anchor="middle" x="267" y="-625.5" font-family="Helvetica,sans-Serif" font-size="10.00">sss::api::S3Api::DeleteObject</text>
</a>
</g>
</g>
<!-- Node1&#45;&gt;Node7 -->
<g id="edge6" class="edge">
<title>Node1&#45;&gt;Node7</title>
<path fill="none" stroke="midnightblue" d="M432.32,-439.59C424.02,-478.21 400.07,-564.29 345,-609 340.3,-612.82 334.94,-615.89 329.28,-618.35"/>
<polygon fill="midnightblue" stroke="midnightblue" points="435.79,-440.12 434.34,-429.63 428.93,-438.73 435.79,-440.12"/>
</g>
<!-- Node8 -->
<g id="node8" class="node">
<title>Node8</title>
<g id="a_node8"><a xlink:href="classsss_1_1api_1_1S3Api.html#a3b53152bf39143843a4033aa4a1b3fa0" target="_top" xlink:title=" ">
<polygon fill="none" stroke="black" points="192,-580.5 192,-599.5 342,-599.5 342,-580.5 192,-580.5"/>
<text text-anchor="middle" x="267" y="-587.5" font-family="Helvetica,sans-Serif" font-size="10.00">sss::api::S3Api::GetBucketAcl</text>
</a>
</g>
</g>
<!-- Node1&#45;&gt;Node8 -->
<g id="edge7" class="edge">
<title>Node1&#45;&gt;Node8</title>
<path fill="none" stroke="midnightblue" d="M429.91,-439.19C418.62,-471.58 391.26,-536.9 345,-571 339.79,-574.84 333.9,-577.91 327.75,-580.36"/>
<polygon fill="midnightblue" stroke="midnightblue" points="433.28,-440.16 433.13,-429.56 426.64,-437.94 433.28,-440.16"/>
</g>
<!-- Node9 -->
<g id="node9" class="node">
<title>Node9</title>
<g id="a_node9"><a xlink:href="classsss_1_1api_1_1S3Api.html#afdb9997dfbd29512cbfe8da9f0028cf8" target="_top" xlink:title="Return bucket tags.">
<polygon fill="none" stroke="black" points="199,-531 199,-561 335,-561 335,-531 199,-531"/>
<text text-anchor="start" x="207" y="-549" font-family="Helvetica,sans-Serif" font-size="10.00">sss::api::S3Api::GetBucket</text>
<text text-anchor="middle" x="267" y="-538" font-family="Helvetica,sans-Serif" font-size="10.00">Tagging</text>
</a>
</g>
</g>
<!-- Node1&#45;&gt;Node9 -->
<g id="edge8" class="edge">
<title>Node1&#45;&gt;Node9</title>
<path fill="none" stroke="midnightblue" d="M424.35,-437.9C408.82,-460.4 379.28,-498.75 345,-521 339.11,-524.83 332.58,-528.11 325.88,-530.92"/>
<polygon fill="midnightblue" stroke="midnightblue" points="427.26,-439.84 429.94,-429.59 421.45,-435.93 427.26,-439.84"/>
</g>
<!-- Node10 -->
<g id="node10" class="node">
<title>Node10</title>
<g id="a_node10"><a xlink:href="classsss_1_1api_1_1S3Api.html#af61465d92c0a94aa82ae863fc2a776a0" target="_top" xlink:title="Download object data.">
<polygon fill="none" stroke="black" points="200,-492.5 200,-511.5 334,-511.5 334,-492.5 200,-492.5"/>
<text text-anchor="middle" x="267" y="-499.5" font-family="Helvetica,sans-Serif" font-size="10.00">sss::api::S3Api::GetObject</text>
</a>
</g>
</g>
<!-- Node1&#45;&gt;Node10 -->
<g id="edge9" class="edge">
<title>Node1&#45;&gt;Node10</title>
<path fill="none" stroke="midnightblue" d="M417.25,-436.05C399.67,-450.32 372.09,-470.78 345,-483 336.59,-486.79 327.31,-489.9 318.19,-492.43"/>
<polygon fill="midnightblue" stroke="midnightblue" points="419.57,-438.68 425.04,-429.6 415.1,-433.29 419.57,-438.68"/>
</g>
<!-- Node11 -->
<g id="node11" class="node">
<title>Node11</title>
<g id="a_node11"><a xlink:href="classsss_1_1api_1_1S3Api.html#ae548966dc38f328fc45ee1500f5caf5b" target="_top" xlink:title="Return bucket&#39;s Access Control List.">
<polygon fill="none" stroke="black" points="193,-454.5 193,-473.5 341,-473.5 341,-454.5 193,-454.5"/>
<text text-anchor="middle" x="267" y="-461.5" font-family="Helvetica,sans-Serif" font-size="10.00">sss::api::S3Api::GetObjectAcl</text>
</a>
</g>
</g>
<!-- Node1&#45;&gt;Node11 -->
<g id="edge10" class="edge">
<title>Node1&#45;&gt;Node11</title>
<path fill="none" stroke="midnightblue" d="M391.95,-432.35C377.06,-436.46 360.33,-441 345,-445 332.88,-448.16 319.64,-451.48 307.62,-454.43"/>
<polygon fill="midnightblue" stroke="midnightblue" points="393.22,-435.63 401.92,-429.59 391.35,-428.89 393.22,-435.63"/>
</g>
<!-- Node12 -->
<g id="node12" class="node">
<title>Node12</title>
<g id="a_node12"><a xlink:href="classsss_1_1api_1_1S3Api.html#aceb12e50a72a7b9b3ca460c23671c586" target="_top" xlink:title="Return object tags.">
<polygon fill="none" stroke="black" points="200,-405 200,-435 334,-435 334,-405 200,-405"/>
<text text-anchor="start" x="208" y="-423" font-family="Helvetica,sans-Serif" font-size="10.00">sss::api::S3Api::GetObject</text>
<text text-anchor="middle" x="267" y="-412" font-family="Helvetica,sans-Serif" font-size="10.00">Tagging</text>
</a>
</g>
</g>
<!-- Node1&#45;&gt;Node12 -->
<g id="edge11" class="edge">
<title>Node1&#45;&gt;Node12</title>
<path fill="none" stroke="midnightblue" d="M370.66,-420C358.71,-420 346.23,-420 334.26,-420"/>
<polygon fill="midnightblue" stroke="midnightblue" points="370.99,-423.5 380.99,-420 370.99,-416.5 370.99,-423.5"/>
</g>
<!-- Node13 -->
<g id="node13" class="node">
<title>Node13</title>
<g id="a_node13"><a xlink:href="classsss_1_1api_1_1S3Api.html#aa4a2b1cc2c89a52d1aa89e571b785db2" target="_top" xlink:title=" ">
<polygon fill="none" stroke="black" points="195.5,-366.5 195.5,-385.5 338.5,-385.5 338.5,-366.5 195.5,-366.5"/>
<text text-anchor="middle" x="267" y="-373.5" font-family="Helvetica,sans-Serif" font-size="10.00">sss::api::S3Api::HeadBucket</text>
</a>
</g>
</g>
<!-- Node1&#45;&gt;Node13 -->
<g id="edge12" class="edge">
<title>Node1&#45;&gt;Node13</title>
<path fill="none" stroke="midnightblue" d="M390.01,-407.83C375.6,-404.03 359.64,-399.83 345,-396 331.91,-392.57 317.55,-388.84 304.82,-385.53"/>
<polygon fill="midnightblue" stroke="midnightblue" points="389.14,-411.22 399.7,-410.39 390.92,-404.46 389.14,-411.22"/>
</g>
<!-- Node14 -->
<g id="node14" class="node">
<title>Node14</title>
<g id="a_node14"><a xlink:href="classsss_1_1api_1_1S3Api.html#abc84a71b9a88b81afaa353ad17a91d22" target="_top" xlink:title="Send HeadObject request.">
<polygon fill="none" stroke="black" points="196.5,-328.5 196.5,-347.5 337.5,-347.5 337.5,-328.5 196.5,-328.5"/>
<text text-anchor="middle" x="267" y="-335.5" font-family="Helvetica,sans-Serif" font-size="10.00">sss::api::S3Api::HeadObject</text>
</a>
</g>
</g>
<!-- Node1&#45;&gt;Node14 -->
<g id="edge13" class="edge">
<title>Node1&#45;&gt;Node14</title>
<path fill="none" stroke="midnightblue" d="M417.25,-403.95C399.67,-389.68 372.09,-369.22 345,-357 336.59,-353.21 327.31,-350.1 318.19,-347.57"/>
<polygon fill="midnightblue" stroke="midnightblue" points="415.1,-406.71 425.04,-410.4 419.57,-401.32 415.1,-406.71"/>
</g>
<!-- Node17 -->
<g id="node17" class="node">
<title>Node17</title>
<g id="a_node17"><a xlink:href="classsss_1_1api_1_1S3Api.html#a81e30673c06b609a2ee6e6bfd9130ca6" target="_top" xlink:title="List buckets.">
<polygon fill="none" stroke="black" points="196.5,-290.5 196.5,-309.5 337.5,-309.5 337.5,-290.5 196.5,-290.5"/>
<text text-anchor="middle" x="267" y="-297.5" font-family="Helvetica,sans-Serif" font-size="10.00">sss::api::S3Api::ListBuckets</text>
</a>
</g>
</g>
<!-- Node1&#45;&gt;Node17 -->
<g id="edge16" class="edge">
<title>Node1&#45;&gt;Node17</title>
<path fill="none" stroke="midnightblue" d="M424.82,-402.06C409.62,-379.19 380.24,-340.11 345,-319 338.5,-315.11 331.24,-312.01 323.85,-309.55"/>
<polygon fill="midnightblue" stroke="midnightblue" points="421.91,-404 430.28,-410.49 427.79,-400.2 421.91,-404"/>
</g>
<!-- Node18 -->
<g id="node18" class="node">
<title>Node18</title>
<g id="a_node18"><a xlink:href="classsss_1_1api_1_1S3Api.html#a3f00f611cd210a58ac6e8c0555984433" target="_top" xlink:title="List objects by sending a ListObjectsV2 request.">
<polygon fill="none" stroke="black" points="191.5,-252.5 191.5,-271.5 342.5,-271.5 342.5,-252.5 191.5,-252.5"/>
<text text-anchor="middle" x="267" y="-259.5" font-family="Helvetica,sans-Serif" font-size="10.00">sss::api::S3Api::ListObjectsV2</text>
</a>
</g>
</g>
<!-- Node1&#45;&gt;Node18 -->
<g id="edge17" class="edge">
<title>Node1&#45;&gt;Node18</title>
<path fill="none" stroke="midnightblue" d="M428.96,-401.06C416.72,-370.81 388.58,-311.88 345,-281 339.5,-277.1 333.28,-274 326.82,-271.53"/>
<polygon fill="midnightblue" stroke="midnightblue" points="425.74,-402.42 432.63,-410.47 432.26,-399.88 425.74,-402.42"/>
</g>
<!-- Node19 -->
<g id="node19" class="node">
<title>Node19</title>
<g id="a_node19"><a xlink:href="classsss_1_1api_1_1S3Api.html#aa35e9b1cc7661cd9bb0d5f2de6cbbc7d" target="_top" xlink:title="Set Access Control Policy for bucket.">
<polygon fill="none" stroke="black" points="192.5,-214.5 192.5,-233.5 341.5,-233.5 341.5,-214.5 192.5,-214.5"/>
<text text-anchor="middle" x="267" y="-221.5" font-family="Helvetica,sans-Serif" font-size="10.00">sss::api::S3Api::PutBucketAcl</text>
</a>
</g>
</g>
<!-- Node1&#45;&gt;Node19 -->
<g id="edge18" class="edge">
<title>Node1&#45;&gt;Node19</title>
<path fill="none" stroke="midnightblue" d="M431.56,-400.13C422.24,-363.24 397.08,-284.17 345,-243 340.14,-239.16 334.61,-236.08 328.79,-233.61"/>
<polygon fill="midnightblue" stroke="midnightblue" points="428.22,-401.23 433.95,-410.14 435.03,-399.6 428.22,-401.23"/>
</g>
<!-- Node20 -->
<g id="node20" class="node">
<title>Node20</title>
<g id="a_node20"><a xlink:href="classsss_1_1api_1_1S3Api.html#ae0b480d21933d41f7ca992ca5abe3091" target="_top" xlink:title=" ">
<polygon fill="none" stroke="black" points="199.5,-165 199.5,-195 334.5,-195 334.5,-165 199.5,-165"/>
<text text-anchor="start" x="207.5" y="-183" font-family="Helvetica,sans-Serif" font-size="10.00">sss::api::S3Api::PutBucket</text>
<text text-anchor="middle" x="267" y="-172" font-family="Helvetica,sans-Serif" font-size="10.00">Tagging</text>
</a>
</g>
</g>
<!-- Node1&#45;&gt;Node20 -->
<g id="edge19" class="edge">
<title>Node1&#45;&gt;Node20</title>
<path fill="none" stroke="midnightblue" d="M433.2,-400.16C426.21,-358.05 404.11,-259.2 345,-205 340.75,-201.11 335.89,-197.82 330.72,-195.04"/>
<polygon fill="midnightblue" stroke="midnightblue" points="429.77,-400.88 434.76,-410.23 436.68,-399.81 429.77,-400.88"/>
</g>
<!-- Node21 -->
<g id="node21" class="node">
<title>Node21</title>
<g id="a_node21"><a xlink:href="classsss_1_1api_1_1S3Api.html#a2cc08fb777cfc4d24c40bea1cde967e7" target="_top" xlink:title="Set Access Control Policy.">
<polygon fill="none" stroke="black" points="193.5,-126.5 193.5,-145.5 340.5,-145.5 340.5,-126.5 193.5,-126.5"/>
<text text-anchor="middle" x="267" y="-133.5" font-family="Helvetica,sans-Serif" font-size="10.00">sss::api::S3Api::PutObjectAcl</text>
</a>
</g>
</g>
<!-- Node1&#45;&gt;Node21 -->
<g id="edge20" class="edge">
<title>Node1&#45;&gt;Node21</title>
<path fill="none" stroke="midnightblue" d="M435.33,-400.03C432.55,-350.66 418.26,-222.03 345,-155 340.83,-151.19 336.03,-148.11 330.89,-145.63"/>
<polygon fill="midnightblue" stroke="midnightblue" points="431.85,-400.47 435.8,-410.3 438.84,-400.15 431.85,-400.47"/>
</g>
<!-- Node22 -->
<g id="node22" class="node">
<title>Node22</title>
<g id="a_node22"><a xlink:href="classsss_1_1api_1_1S3Api.html#ac098e2619080dde98a75b71af8f66eef" target="_top" xlink:title="Set object tags.">
<polygon fill="none" stroke="black" points="200.5,-77 200.5,-107 333.5,-107 333.5,-77 200.5,-77"/>
<text text-anchor="start" x="208.5" y="-95" font-family="Helvetica,sans-Serif" font-size="10.00">sss::api::S3Api::PutObject</text>
<text text-anchor="middle" x="267" y="-84" font-family="Helvetica,sans-Serif" font-size="10.00">Tagging</text>
</a>
</g>
</g>
<!-- Node1&#45;&gt;Node22 -->
<g id="edge21" class="edge">
<title>Node1&#45;&gt;Node22</title>
<path fill="none" stroke="midnightblue" d="M436.02,-400.11C434.96,-346.64 424.61,-198.4 345,-117 341.27,-113.18 336.94,-109.95 332.29,-107.2"/>
<polygon fill="midnightblue" stroke="midnightblue" points="432.52,-400.32 436.12,-410.28 439.52,-400.24 432.52,-400.32"/>
</g>
<!-- Node23 -->
<g id="node23" class="node">
<title>Node23</title>
<g id="a_node23"><a xlink:href="classsss_1_1api_1_1S3Api.html#a0473917e4d25a4a6fca40d097e4299d6" target="_top" xlink:title=" ">
<polygon fill="none" stroke="black" points="211,-38.5 211,-57.5 323,-57.5 323,-38.5 211,-38.5"/>
<text text-anchor="middle" x="267" y="-45.5" font-family="Helvetica,sans-Serif" font-size="10.00">sss::api::S3Api::Send</text>
</a>
</g>
</g>
<!-- Node1&#45;&gt;Node23 -->
<g id="edge22" class="edge">
<title>Node1&#45;&gt;Node23</title>
<path fill="none" stroke="midnightblue" d="M433.59,-400.36C424.97,-333.34 393.58,-115.08 345,-67 338.93,-60.99 331.29,-56.78 323.18,-53.85"/>
<polygon fill="midnightblue" stroke="midnightblue" points="430.13,-400.93 434.85,-410.42 437.08,-400.06 430.13,-400.93"/>
</g>
<!-- Node24 -->
<g id="node24" class="node">
<title>Node24</title>
<g id="a_node24"><a xlink:href="classsss_1_1api_1_1S3Api.html#a23223ee1fb701c55af2d942dbf261ae2" target="_top" xlink:title="Check if bucket exist.">
<polygon fill="none" stroke="black" points="197.5,-0.5 197.5,-19.5 336.5,-19.5 336.5,-0.5 197.5,-0.5"/>
<text text-anchor="middle" x="267" y="-7.5" font-family="Helvetica,sans-Serif" font-size="10.00">sss::api::S3Api::TestBucket</text>
</a>
</g>
</g>
<!-- Node1&#45;&gt;Node24 -->
<g id="edge23" class="edge">
<title>Node1&#45;&gt;Node24</title>
<path fill="none" stroke="midnightblue" d="M434.09,-400.16C426.8,-328.3 398.33,-83.04 345,-29 341.23,-25.18 336.82,-22.08 332.05,-19.57"/>
<polygon fill="midnightblue" stroke="midnightblue" points="430.65,-400.88 435.12,-410.49 437.61,-400.19 430.65,-400.88"/>
</g>
<!-- Node15 -->
<g id="node15" class="node">
<title>Node15</title>
<g id="a_node15"><a xlink:href="classsss_1_1api_1_1S3Api.html#a872e80e356e8c404a9b0739d95a0af41" target="_top" xlink:title="Return object size.">
<polygon fill="none" stroke="black" points="0,-347.5 0,-366.5 153,-366.5 153,-347.5 0,-347.5"/>
<text text-anchor="middle" x="76.5" y="-354.5" font-family="Helvetica,sans-Serif" font-size="10.00">sss::api::S3Api::GetObjectSize</text>
</a>
</g>
</g>
<!-- Node14&#45;&gt;Node15 -->
<g id="edge14" class="edge">
<title>Node14&#45;&gt;Node15</title>
<path fill="none" stroke="midnightblue" d="M186.35,-346.03C175.37,-347.14 164.11,-348.27 153.2,-349.37"/>
<polygon fill="midnightblue" stroke="midnightblue" points="186.75,-349.51 196.35,-345.02 186.04,-342.54 186.75,-349.51"/>
</g>
<!-- Node16 -->
<g id="node16" class="node">
<title>Node16</title>
<g id="a_node16"><a xlink:href="classsss_1_1api_1_1S3Api.html#aa3f7a3001bdad58c7b0c04cbd0dc3236" target="_top" xlink:title="Check if key exists.">
<polygon fill="none" stroke="black" points="8,-309.5 8,-328.5 145,-328.5 145,-309.5 8,-309.5"/>
<text text-anchor="middle" x="76.5" y="-316.5" font-family="Helvetica,sans-Serif" font-size="10.00">sss::api::S3Api::TestObject</text>
</a>
</g>
</g>
<!-- Node14&#45;&gt;Node16 -->
<g id="edge15" class="edge">
<title>Node14&#45;&gt;Node16</title>
<path fill="none" stroke="midnightblue" d="M186.07,-329.94C172.5,-328.58 158.52,-327.17 145.3,-325.83"/>
<polygon fill="midnightblue" stroke="midnightblue" points="186.04,-333.46 196.35,-330.98 186.75,-326.49 186.04,-333.46"/>
</g>
</g>
</svg>
