<?xml version="1.0" encoding="UTF-8" standalone="no"?>
<!DOCTYPE svg PUBLIC "-//W3C//DTD SVG 1.1//EN"
 "http://www.w3.org/Graphics/SVG/1.1/DTD/svg11.dtd">
<!-- Generated by graphviz version 8.0.5 (20230430.1635)
 -->
<!-- Title: sss::WebClient::Send Pages: 1 -->
<svg width="864pt" height="544pt"
 viewBox="0.00 0.00 863.50 543.88" xmlns="http://www.w3.org/2000/svg" xmlns:xlink="http://www.w3.org/1999/xlink">
<g id="graph0" class="graph" transform="scale(1 1) rotate(0) translate(4 539.88)">
<title>sss::WebClient::Send</title>
<!-- Node1 -->
<g id="node1" class="node">
<title>Node1</title>
<g id="a_node1"><a xlink:title=" ">
<polygon fill="#999999" stroke="#666666" points="855.5,-197.25 744.25,-197.25 744.25,-178 855.5,-178 855.5,-197.25"/>
<text text-anchor="middle" x="799.88" y="-183.75" font-family="Helvetica,sans-Serif" font-size="10.00">sss::WebClient::Send</text>
</a>
</g>
</g>
<!-- Node2 -->
<g id="node2" class="node">
<title>Node2</title>
<g id="a_node2"><a xlink:href="classsss_1_1api_1_1S3Api.html#a1196f1cb9ce1e5d69336e9b8dbb5d59c" target="_top" xlink:title=" ">
<polygon fill="white" stroke="#666666" points="698.12,-310.88 577.88,-310.88 577.88,-280.38 698.12,-280.38 698.12,-310.88"/>
<text text-anchor="start" x="585.88" y="-297.38" font-family="Helvetica,sans-Serif" font-size="10.00">sss::api::S3Api::GetFile</text>
<text text-anchor="middle" x="638" y="-286.12" font-family="Helvetica,sans-Serif" font-size="10.00">Object</text>
</a>
</g>
</g>
<!-- Node1&#45;&gt;Node2 -->
<g id="edge1" class="edge">
<title>Node1&#45;&gt;Node2</title>
<path fill="none" stroke="#63b8ff" d="M782.11,-205.23C764.86,-222.58 736.57,-248.99 708.25,-266.62 700.28,-271.58 691.32,-276.05 682.55,-279.9"/>
<polygon fill="#63b8ff" stroke="#63b8ff" points="784.16,-208.11 788.65,-198.51 779.15,-203.22 784.16,-208.11"/>
</g>
<!-- Node3 -->
<g id="node3" class="node">
<title>Node3</title>
<g id="a_node3"><a xlink:href="classsss_1_1api_1_1S3Api.html#ad09581bf28c4bbbcbb71b329959ec1ae" target="_top" xlink:title=" ">
<polygon fill="white" stroke="#666666" points="511.5,-259.25 400.25,-259.25 400.25,-240 511.5,-240 511.5,-259.25"/>
<text text-anchor="middle" x="455.88" y="-245.75" font-family="Helvetica,sans-Serif" font-size="10.00">sss::api::S3Api::Send</text>
</a>
</g>
</g>
<!-- Node1&#45;&gt;Node3 -->
<g id="edge2" class="edge">
<title>Node1&#45;&gt;Node3</title>
<path fill="none" stroke="#63b8ff" d="M774.94,-203.19C757.27,-213.8 732.23,-227.07 708.25,-233.62 642.44,-251.6 563.49,-253.61 511.85,-252.44"/>
<polygon fill="#63b8ff" stroke="#63b8ff" points="776.27,-205.86 782.94,-197.62 772.59,-199.9 776.27,-205.86"/>
</g>
<!-- Node21 -->
<g id="node21" class="node">
<title>Node21</title>
<g id="a_node21"><a xlink:href="group__S3Client.html#ga5a769be8fbc874bad858ea95743e5643" target="_top" xlink:title="Send S3 request to endpoint.">
<polygon fill="white" stroke="#666666" points="510.38,-179.25 401.38,-179.25 401.38,-160 510.38,-160 510.38,-179.25"/>
<text text-anchor="middle" x="455.88" y="-165.75" font-family="Helvetica,sans-Serif" font-size="10.00">sss::SendS3Request</text>
</a>
</g>
</g>
<!-- Node1&#45;&gt;Node21 -->
<g id="edge24" class="edge">
<title>Node1&#45;&gt;Node21</title>
<path fill="none" stroke="#63b8ff" d="M733.05,-184.16C668.43,-180.76 571.04,-175.63 510.84,-172.47"/>
<polygon fill="#63b8ff" stroke="#63b8ff" points="732.76,-187.7 742.93,-184.73 733.12,-180.71 732.76,-187.7"/>
</g>
<!-- Node22 -->
<g id="node22" class="node">
<title>Node22</title>
<g id="a_node22"><a xlink:href="classsss_1_1WebClient.html#ae7b1f77bd4ae44585f2d49ea493bdcc5" target="_top" xlink:title="Upload data from memory buffer.">
<polygon fill="white" stroke="#666666" points="708.25,-224.88 567.75,-224.88 567.75,-194.38 708.25,-194.38 708.25,-224.88"/>
<text text-anchor="start" x="575.75" y="-211.38" font-family="Helvetica,sans-Serif" font-size="10.00">sss::WebClient::UploadData</text>
<text text-anchor="middle" x="638" y="-200.12" font-family="Helvetica,sans-Serif" font-size="10.00">FromBuffer</text>
</a>
</g>
</g>
<!-- Node1&#45;&gt;Node22 -->
<g id="edge25" class="edge">
<title>Node1&#45;&gt;Node22</title>
<path fill="none" stroke="#63b8ff" d="M733,-196.69C724.92,-197.8 716.65,-198.94 708.52,-200.06"/>
<polygon fill="#63b8ff" stroke="#63b8ff" points="733.43,-200.03 742.86,-195.2 732.47,-193.09 733.43,-200.03"/>
</g>
<!-- Node24 -->
<g id="node24" class="node">
<title>Node24</title>
<g id="a_node24"><a xlink:href="classsss_1_1WebClient.html#ad038e41cfc902f6e49754c52a9a71992" target="_top" xlink:title="Upload file.">
<polygon fill="white" stroke="#666666" points="705.62,-138.25 570.38,-138.25 570.38,-119 705.62,-119 705.62,-138.25"/>
<text text-anchor="middle" x="638" y="-124.75" font-family="Helvetica,sans-Serif" font-size="10.00">sss::WebClient::UploadFile</text>
</a>
</g>
</g>
<!-- Node1&#45;&gt;Node24 -->
<g id="edge29" class="edge">
<title>Node1&#45;&gt;Node24</title>
<path fill="none" stroke="#63b8ff" d="M763.67,-173.7C746.93,-167.16 726.61,-159.35 708.25,-152.62 695.35,-147.9 681,-142.89 668.74,-138.68"/>
<polygon fill="#63b8ff" stroke="#63b8ff" points="761.99,-177.19 772.57,-177.58 764.54,-170.67 761.99,-177.19"/>
</g>
<!-- Node26 -->
<g id="node26" class="node">
<title>Node26</title>
<g id="a_node26"><a xlink:href="classsss_1_1WebClient.html#accb4e986d73bb44149918fa0043ec43b" target="_top" xlink:title="Upload file starting from offset using unbuffered I/O read.">
<polygon fill="white" stroke="#666666" points="705.62,-100.88 570.38,-100.88 570.38,-70.38 705.62,-70.38 705.62,-100.88"/>
<text text-anchor="start" x="578.38" y="-87.38" font-family="Helvetica,sans-Serif" font-size="10.00">sss::WebClient::UploadFile</text>
<text text-anchor="middle" x="638" y="-76.12" font-family="Helvetica,sans-Serif" font-size="10.00">Unbuffered</text>
</a>
</g>
</g>
<!-- Node1&#45;&gt;Node26 -->
<g id="edge32" class="edge">
<title>Node1&#45;&gt;Node26</title>
<path fill="none" stroke="#63b8ff" d="M782.3,-169.88C765.19,-152.47 737.01,-126.17 708.25,-109.62 702.85,-106.52 696.97,-103.72 691.01,-101.22"/>
<polygon fill="#63b8ff" stroke="#63b8ff" points="779.3,-171.86 788.76,-176.64 784.35,-167.01 779.3,-171.86"/>
</g>
<!-- Node4 -->
<g id="node4" class="node">
<title>Node4</title>
<g id="a_node4"><a xlink:href="classsss_1_1api_1_1S3Api.html#a4ea265566c3c4335ec01201cdc4410c6" target="_top" xlink:title=" ">
<polygon fill="white" stroke="#666666" points="341,-535.88 191.5,-535.88 191.5,-505.38 341,-505.38 341,-535.88"/>
<text text-anchor="start" x="199.5" y="-522.38" font-family="Helvetica,sans-Serif" font-size="10.00">sss::api::S3Api::AbortMultipart</text>
<text text-anchor="middle" x="266.25" y="-511.12" font-family="Helvetica,sans-Serif" font-size="10.00">Upload</text>
</a>
</g>
</g>
<!-- Node3&#45;&gt;Node4 -->
<g id="edge3" class="edge">
<title>Node3&#45;&gt;Node4</title>
<path fill="none" stroke="#63b8ff" d="M451.43,-270.1C442.47,-316.95 414.1,-432.75 344,-495.62 339.93,-499.27 335.32,-502.39 330.43,-505.06"/>
<polygon fill="#63b8ff" stroke="#63b8ff" points="455.01,-270.98 453.34,-260.51 448.12,-269.73 455.01,-270.98"/>
</g>
<!-- Node5 -->
<g id="node5" class="node">
<title>Node5</title>
<g id="a_node5"><a xlink:href="classsss_1_1api_1_1S3Api.html#a98f999a216121118dd569c7ef0c28ff3" target="_top" xlink:title=" ">
<polygon fill="white" stroke="#666666" points="331.62,-486.88 200.88,-486.88 200.88,-456.38 331.62,-456.38 331.62,-486.88"/>
<text text-anchor="start" x="208.88" y="-473.38" font-family="Helvetica,sans-Serif" font-size="10.00">sss::api::S3Api::Complete</text>
<text text-anchor="middle" x="266.25" y="-462.12" font-family="Helvetica,sans-Serif" font-size="10.00">MultipartUpload</text>
</a>
</g>
</g>
<!-- Node3&#45;&gt;Node5 -->
<g id="edge4" class="edge">
<title>Node3&#45;&gt;Node5</title>
<path fill="none" stroke="#63b8ff" d="M449.11,-269.89C436.68,-309.88 403.59,-399.27 344,-447.62 340.1,-450.79 335.77,-453.54 331.23,-455.93"/>
<polygon fill="#63b8ff" stroke="#63b8ff" points="452.68,-271.16 452.19,-260.57 445.97,-269.15 452.68,-271.16"/>
</g>
<!-- Node6 -->
<g id="node6" class="node">
<title>Node6</title>
<g id="a_node6"><a xlink:href="classsss_1_1api_1_1S3Api.html#ad890bd1ecfc978df24b2c3ed641e4081" target="_top" xlink:title=" ">
<polygon fill="white" stroke="#666666" points="340.62,-167.25 191.88,-167.25 191.88,-148 340.62,-148 340.62,-167.25"/>
<text text-anchor="middle" x="266.25" y="-153.75" font-family="Helvetica,sans-Serif" font-size="10.00">sss::api::S3Api::CreateBucket</text>
</a>
</g>
</g>
<!-- Node3&#45;&gt;Node6 -->
<g id="edge5" class="edge">
<title>Node3&#45;&gt;Node6</title>
<path fill="none" stroke="#63b8ff" d="M391.17,-235.27C387.24,-233.33 383.48,-231.13 380,-228.62 356.89,-211.99 367.47,-191.76 344,-175.62 339.38,-172.45 334.26,-169.82 328.94,-167.66"/>
<polygon fill="#63b8ff" stroke="#63b8ff" points="389.63,-238.85 400.19,-239.58 392.39,-232.42 389.63,-238.85"/>
</g>
<!-- Node8 -->
<g id="node8" class="node">
<title>Node8</title>
<g id="a_node8"><a xlink:href="classsss_1_1api_1_1S3Api.html#a1796fafda3d90a4292a611ce1999433b" target="_top" xlink:title=" ">
<polygon fill="white" stroke="#666666" points="344,-400.88 188.5,-400.88 188.5,-370.38 344,-370.38 344,-400.88"/>
<text text-anchor="start" x="196.5" y="-387.38" font-family="Helvetica,sans-Serif" font-size="10.00">sss::api::S3Api::CreateMultipart</text>
<text text-anchor="middle" x="266.25" y="-376.12" font-family="Helvetica,sans-Serif" font-size="10.00">Upload</text>
</a>
</g>
</g>
<!-- Node3&#45;&gt;Node8 -->
<g id="edge7" class="edge">
<title>Node3&#45;&gt;Node8</title>
<path fill="none" stroke="#63b8ff" d="M441.36,-268.07C422.31,-292.81 385.24,-336.52 344,-361.62 338.87,-364.75 333.3,-367.5 327.58,-369.91"/>
<polygon fill="#63b8ff" stroke="#63b8ff" points="444.52,-270.69 447.75,-260.6 438.93,-266.48 444.52,-270.69"/>
</g>
<!-- Node9 -->
<g id="node9" class="node">
<title>Node9</title>
<g id="a_node9"><a xlink:href="classsss_1_1api_1_1S3Api.html#a3d63825d1916e4ba3ca13122c7660603" target="_top" xlink:title=" ">
<polygon fill="white" stroke="#666666" points="340.25,-438.25 192.25,-438.25 192.25,-419 340.25,-419 340.25,-438.25"/>
<text text-anchor="middle" x="266.25" y="-424.75" font-family="Helvetica,sans-Serif" font-size="10.00">sss::api::S3Api::DeleteBucket</text>
</a>
</g>
</g>
<!-- Node3&#45;&gt;Node9 -->
<g id="edge8" class="edge">
<title>Node3&#45;&gt;Node9</title>
<path fill="none" stroke="#63b8ff" d="M446.79,-269.49C431.83,-303.68 396.49,-373.43 344,-409.62 338.69,-413.29 332.74,-416.25 326.57,-418.64"/>
<polygon fill="#63b8ff" stroke="#63b8ff" points="450.41,-270.94 451.08,-260.36 443.96,-268.21 450.41,-270.94"/>
</g>
<!-- Node10 -->
<g id="node10" class="node">
<title>Node10</title>
<g id="a_node10"><a xlink:href="classsss_1_1api_1_1S3Api.html#a14a75f15eb71fbba8639673100768b67" target="_top" xlink:title=" ">
<polygon fill="white" stroke="#666666" points="339.12,-315.25 193.38,-315.25 193.38,-296 339.12,-296 339.12,-315.25"/>
<text text-anchor="middle" x="266.25" y="-301.75" font-family="Helvetica,sans-Serif" font-size="10.00">sss::api::S3Api::DeleteObject</text>
</a>
</g>
</g>
<!-- Node3&#45;&gt;Node10 -->
<g id="edge10" class="edge">
<title>Node3&#45;&gt;Node10</title>
<path fill="none" stroke="#63b8ff" d="M417.94,-263.32C396.52,-271 368.92,-280.45 344,-287.62 334.27,-290.43 323.75,-293.11 313.71,-295.52"/>
<polygon fill="#63b8ff" stroke="#63b8ff" points="419.02,-266.29 427.23,-259.6 416.63,-259.71 419.02,-266.29"/>
</g>
<!-- Node11 -->
<g id="node11" class="node">
<title>Node11</title>
<g id="a_node11"><a xlink:href="classsss_1_1api_1_1S3Api.html#a3b53152bf39143843a4033aa4a1b3fa0" target="_top" xlink:title=" ">
<polygon fill="white" stroke="#666666" points="341,-352.25 191.5,-352.25 191.5,-333 341,-333 341,-352.25"/>
<text text-anchor="middle" x="266.25" y="-338.75" font-family="Helvetica,sans-Serif" font-size="10.00">sss::api::S3Api::GetBucketAcl</text>
</a>
</g>
</g>
<!-- Node3&#45;&gt;Node11 -->
<g id="edge11" class="edge">
<title>Node3&#45;&gt;Node11</title>
<path fill="none" stroke="#63b8ff" d="M434.97,-266.42C413.74,-283.5 378.49,-309.53 344,-324.62 336.85,-327.75 329.08,-330.38 321.32,-332.57"/>
<polygon fill="#63b8ff" stroke="#63b8ff" points="436.9,-268.54 442.42,-259.49 432.47,-263.12 436.9,-268.54"/>
</g>
<!-- Node12 -->
<g id="node12" class="node">
<title>Node12</title>
<g id="a_node12"><a xlink:href="classsss_1_1api_1_1S3Api.html#af61465d92c0a94aa82ae863fc2a776a0" target="_top" xlink:title=" ">
<polygon fill="white" stroke="#666666" points="332.75,-241.25 199.75,-241.25 199.75,-222 332.75,-222 332.75,-241.25"/>
<text text-anchor="middle" x="266.25" y="-227.75" font-family="Helvetica,sans-Serif" font-size="10.00">sss::api::S3Api::GetObject</text>
</a>
</g>
</g>
<!-- Node3&#45;&gt;Node12 -->
<g id="edge13" class="edge">
<title>Node3&#45;&gt;Node12</title>
<path fill="none" stroke="#63b8ff" d="M389.1,-243.31C370.99,-241.58 351.34,-239.69 333.23,-237.95"/>
<polygon fill="#63b8ff" stroke="#63b8ff" points="388.56,-246.87 398.85,-244.35 389.23,-239.91 388.56,-246.87"/>
</g>
<!-- Node13 -->
<g id="node13" class="node">
<title>Node13</title>
<g id="a_node13"><a xlink:href="classsss_1_1api_1_1S3Api.html#aa4a2b1cc2c89a52d1aa89e571b785db2" target="_top" xlink:title=" ">
<polygon fill="white" stroke="#666666" points="337.62,-278.25 194.88,-278.25 194.88,-259 337.62,-259 337.62,-278.25"/>
<text text-anchor="middle" x="266.25" y="-264.75" font-family="Helvetica,sans-Serif" font-size="10.00">sss::api::S3Api::HeadBucket</text>
</a>
</g>
</g>
<!-- Node3&#45;&gt;Node13 -->
<g id="edge14" class="edge">
<title>Node3&#45;&gt;Node13</title>
<path fill="none" stroke="#63b8ff" d="M389.18,-256.28C372.63,-257.95 354.79,-259.76 338,-261.46"/>
<polygon fill="#63b8ff" stroke="#63b8ff" points="389.25,-259.69 398.85,-255.2 388.55,-252.72 389.25,-259.69"/>
</g>
<!-- Node14 -->
<g id="node14" class="node">
<title>Node14</title>
<g id="a_node14"><a xlink:href="classsss_1_1api_1_1S3Api.html#abc84a71b9a88b81afaa353ad17a91d22" target="_top" xlink:title=" ">
<polygon fill="white" stroke="#666666" points="336.5,-130.25 196,-130.25 196,-111 336.5,-111 336.5,-130.25"/>
<text text-anchor="middle" x="266.25" y="-116.75" font-family="Helvetica,sans-Serif" font-size="10.00">sss::api::S3Api::HeadObject</text>
</a>
</g>
</g>
<!-- Node3&#45;&gt;Node14 -->
<g id="edge16" class="edge">
<title>Node3&#45;&gt;Node14</title>
<path fill="none" stroke="#63b8ff" d="M389.99,-235.81C386.41,-233.74 383.04,-231.36 380,-228.62 347.95,-199.84 376.66,-166.72 344,-138.62 340.37,-135.5 336.3,-132.9 331.97,-130.72"/>
<polygon fill="#63b8ff" stroke="#63b8ff" points="388.34,-239.38 398.86,-240.61 391.4,-233.09 388.34,-239.38"/>
</g>
<!-- Node17 -->
<g id="node17" class="node">
<title>Node17</title>
<g id="a_node17"><a xlink:href="classsss_1_1api_1_1S3Api.html#a81e30673c06b609a2ee6e6bfd9130ca6" target="_top" xlink:title=" ">
<polygon fill="white" stroke="#666666" points="336.5,-204.25 196,-204.25 196,-185 336.5,-185 336.5,-204.25"/>
<text text-anchor="middle" x="266.25" y="-190.75" font-family="Helvetica,sans-Serif" font-size="10.00">sss::api::S3Api::ListBuckets</text>
</a>
</g>
</g>
<!-- Node3&#45;&gt;Node17 -->
<g id="edge19" class="edge">
<title>Node3&#45;&gt;Node17</title>
<path fill="none" stroke="#63b8ff" d="M404.57,-236.6C396.29,-234.15 387.86,-231.46 380,-228.62 363.53,-222.69 360.6,-218.2 344,-212.62 335.18,-209.66 325.63,-207 316.36,-204.69"/>
<polygon fill="#63b8ff" stroke="#63b8ff" points="403.32,-240.17 413.9,-239.57 405.26,-233.44 403.32,-240.17"/>
</g>
<!-- Node18 -->
<g id="node18" class="node">
<title>Node18</title>
<g id="a_node18"><a xlink:href="classsss_1_1api_1_1S3Api.html#a3f00f611cd210a58ac6e8c0555984433" target="_top" xlink:title=" ">
<polygon fill="white" stroke="#666666" points="341.38,-93.25 191.12,-93.25 191.12,-74 341.38,-74 341.38,-93.25"/>
<text text-anchor="middle" x="266.25" y="-79.75" font-family="Helvetica,sans-Serif" font-size="10.00">sss::api::S3Api::ListObjectsV2</text>
</a>
</g>
</g>
<!-- Node3&#45;&gt;Node18 -->
<g id="edge21" class="edge">
<title>Node3&#45;&gt;Node18</title>
<path fill="none" stroke="#63b8ff" d="M390.34,-236.59C386.58,-234.34 383.08,-231.7 380,-228.62 338.46,-187.2 386.42,-142.15 344,-101.62 340.73,-98.51 337.03,-95.89 333.07,-93.7"/>
<polygon fill="#63b8ff" stroke="#63b8ff" points="388.61,-240.13 399.12,-241.45 391.72,-233.87 388.61,-240.13"/>
</g>
<!-- Node19 -->
<g id="node19" class="node">
<title>Node19</title>
<g id="a_node19"><a xlink:href="classsss_1_1api_1_1S3Api.html#a0473917e4d25a4a6fca40d097e4299d6" target="_top" xlink:title=" ">
<polygon fill="white" stroke="#666666" points="321.88,-56.25 210.62,-56.25 210.62,-37 321.88,-37 321.88,-56.25"/>
<text text-anchor="middle" x="266.25" y="-42.75" font-family="Helvetica,sans-Serif" font-size="10.00">sss::api::S3Api::Send</text>
</a>
</g>
</g>
<!-- Node3&#45;&gt;Node19 -->
<g id="edge22" class="edge">
<title>Node3&#45;&gt;Node19</title>
<path fill="none" stroke="#63b8ff" d="M390.12,-236.8C386.42,-234.49 382.99,-231.79 380,-228.62 328.77,-174.37 396.39,-117.77 344,-64.62 337.95,-58.48 330.22,-54.28 322.02,-51.42"/>
<polygon fill="#63b8ff" stroke="#63b8ff" points="388.32,-240.32 398.81,-241.75 391.5,-234.08 388.32,-240.32"/>
</g>
<!-- Node20 -->
<g id="node20" class="node">
<title>Node20</title>
<g id="a_node20"><a xlink:href="classsss_1_1api_1_1S3Api.html#a23223ee1fb701c55af2d942dbf261ae2" target="_top" xlink:title=" ">
<polygon fill="white" stroke="#666666" points="335.38,-19.25 197.12,-19.25 197.12,0 335.38,0 335.38,-19.25"/>
<text text-anchor="middle" x="266.25" y="-5.75" font-family="Helvetica,sans-Serif" font-size="10.00">sss::api::S3Api::TestBucket</text>
</a>
</g>
</g>
<!-- Node3&#45;&gt;Node20 -->
<g id="edge23" class="edge">
<title>Node3&#45;&gt;Node20</title>
<path fill="none" stroke="#63b8ff" d="M390.49,-237.25C386.62,-234.85 383.06,-232 380,-228.62 318.99,-161.44 406.45,-93.48 344,-27.62 340.99,-24.45 337.53,-21.78 333.78,-19.55"/>
<polygon fill="#63b8ff" stroke="#63b8ff" points="388.49,-240.67 398.99,-242.09 391.67,-234.43 388.49,-240.67"/>
</g>
<!-- Node7 -->
<g id="node7" class="node">
<title>Node7</title>
<g id="a_node7"><a xlink:href="bucket-test_8cpp.html#a3c04138a5bfe5d72780bb7e82a18e627" target="_top" xlink:title="Bucket tests.">
<polygon fill="white" stroke="#666666" points="94.75,-278.25 57.75,-278.25 57.75,-259 94.75,-259 94.75,-278.25"/>
<text text-anchor="middle" x="76.25" y="-264.75" font-family="Helvetica,sans-Serif" font-size="10.00">main</text>
</a>
</g>
</g>
<!-- Node6&#45;&gt;Node7 -->
<g id="edge6" class="edge">
<title>Node6&#45;&gt;Node7</title>
<path fill="none" stroke="#63b8ff" d="M198.74,-171.13C195.22,-172.49 191.78,-173.98 188.5,-175.62 144.81,-197.45 103.45,-239.61 85.98,-258.74"/>
<polygon fill="#63b8ff" stroke="#63b8ff" points="199.53,-174.21 207.84,-167.64 197.25,-167.6 199.53,-174.21"/>
</g>
<!-- Node9&#45;&gt;Node7 -->
<g id="edge9" class="edge">
<title>Node9&#45;&gt;Node7</title>
<path fill="none" stroke="#63b8ff" d="M196.83,-414.3C193.94,-412.89 191.15,-411.33 188.5,-409.62 134.52,-374.81 95.38,-304.73 82.15,-278.68"/>
<polygon fill="#63b8ff" stroke="#63b8ff" points="195.37,-417.91 205.95,-418.6 198.11,-411.47 195.37,-417.91"/>
</g>
<!-- Node11&#45;&gt;Node7 -->
<g id="edge12" class="edge">
<title>Node11&#45;&gt;Node7</title>
<path fill="none" stroke="#63b8ff" d="M204.37,-329.75C198.95,-328.18 193.6,-326.48 188.5,-324.62 153.54,-311.93 115.34,-291.01 94.03,-278.66"/>
<polygon fill="#63b8ff" stroke="#63b8ff" points="203.23,-333.34 213.79,-332.59 205.06,-326.59 203.23,-333.34"/>
</g>
<!-- Node13&#45;&gt;Node7 -->
<g id="edge15" class="edge">
<title>Node13&#45;&gt;Node7</title>
<path fill="none" stroke="#63b8ff" d="M183.77,-268.62C150.62,-268.62 115.35,-268.62 94.86,-268.62"/>
<polygon fill="#63b8ff" stroke="#63b8ff" points="183.44,-272.13 193.44,-268.62 183.44,-265.13 183.44,-272.13"/>
</g>
<!-- Node15 -->
<g id="node15" class="node">
<title>Node15</title>
<g id="a_node15"><a xlink:href="classsss_1_1api_1_1S3Api.html#a872e80e356e8c404a9b0739d95a0af41" target="_top" xlink:title="[WebClient::Config]">
<polygon fill="white" stroke="#666666" points="152.5,-111.25 0,-111.25 0,-92 152.5,-92 152.5,-111.25"/>
<text text-anchor="middle" x="76.25" y="-97.75" font-family="Helvetica,sans-Serif" font-size="10.00">sss::api::S3Api::GetObjectSize</text>
</a>
</g>
</g>
<!-- Node14&#45;&gt;Node15 -->
<g id="edge17" class="edge">
<title>Node14&#45;&gt;Node15</title>
<path fill="none" stroke="#63b8ff" d="M184.63,-112.48C174.09,-111.41 163.33,-110.32 152.87,-109.27"/>
<polygon fill="#63b8ff" stroke="#63b8ff" points="184.21,-116.05 194.51,-113.58 184.92,-109.09 184.21,-116.05"/>
</g>
<!-- Node16 -->
<g id="node16" class="node">
<title>Node16</title>
<g id="a_node16"><a xlink:href="classsss_1_1api_1_1S3Api.html#aa3f7a3001bdad58c7b0c04cbd0dc3236" target="_top" xlink:title=" ">
<polygon fill="white" stroke="#666666" points="144.25,-148.25 8.25,-148.25 8.25,-129 144.25,-129 144.25,-148.25"/>
<text text-anchor="middle" x="76.25" y="-134.75" font-family="Helvetica,sans-Serif" font-size="10.00">sss::api::S3Api::TestObject</text>
</a>
</g>
</g>
<!-- Node14&#45;&gt;Node16 -->
<g id="edge18" class="edge">
<title>Node14&#45;&gt;Node16</title>
<path fill="none" stroke="#63b8ff" d="M184.88,-128.32C171.48,-129.6 157.71,-130.92 144.69,-132.17"/>
<polygon fill="#63b8ff" stroke="#63b8ff" points="184.89,-131.74 194.51,-127.3 184.22,-124.77 184.89,-131.74"/>
</g>
<!-- Node17&#45;&gt;Node7 -->
<g id="edge20" class="edge">
<title>Node17&#45;&gt;Node7</title>
<path fill="none" stroke="#63b8ff" d="M204.37,-207.5C198.95,-209.07 193.6,-210.77 188.5,-212.62 153.54,-225.32 115.34,-246.24 94.03,-258.59"/>
<polygon fill="#63b8ff" stroke="#63b8ff" points="205.06,-210.66 213.79,-204.66 203.23,-203.91 205.06,-210.66"/>
</g>
<!-- Node22&#45;&gt;Node3 -->
<g id="edge26" class="edge">
<title>Node22&#45;&gt;Node3</title>
<path fill="none" stroke="#63b8ff" d="M556.79,-227.44C538.16,-231.57 518.97,-235.84 502.44,-239.51"/>
<polygon fill="#63b8ff" stroke="#63b8ff" points="557.36,-230.67 566.36,-225.09 555.84,-223.84 557.36,-230.67"/>
</g>
<!-- Node22&#45;&gt;Node21 -->
<g id="edge27" class="edge">
<title>Node22&#45;&gt;Node21</title>
<path fill="none" stroke="#63b8ff" d="M556.79,-191.81C538.16,-187.68 518.97,-183.41 502.44,-179.74"/>
<polygon fill="#63b8ff" stroke="#63b8ff" points="555.84,-195.41 566.36,-194.16 557.36,-188.58 555.84,-195.41"/>
</g>
<!-- Node23 -->
<g id="node23" class="node">
<title>Node23</title>
<g id="a_node23"><a xlink:href="classsss_1_1WebClient.html#ab5af9d8e7c424e49fab04f0d9d59b489" target="_top" xlink:title="Upload file starting from offset using unbuffered memory mapping of file.">
<polygon fill="white" stroke="#666666" points="531.75,-219.25 380,-219.25 380,-200 531.75,-200 531.75,-219.25"/>
<text text-anchor="middle" x="455.88" y="-205.75" font-family="Helvetica,sans-Serif" font-size="10.00">sss::WebClient::UploadFileMM</text>
</a>
</g>
</g>
<!-- Node22&#45;&gt;Node23 -->
<g id="edge28" class="edge">
<title>Node22&#45;&gt;Node23</title>
<path fill="none" stroke="#63b8ff" d="M556.39,-209.62C548.27,-209.62 540.06,-209.62 532.01,-209.62"/>
<polygon fill="#63b8ff" stroke="#63b8ff" points="556.36,-213.13 566.36,-209.62 556.36,-206.13 556.36,-213.13"/>
</g>
<!-- Node24&#45;&gt;Node21 -->
<g id="edge31" class="edge">
<title>Node24&#45;&gt;Node21</title>
<path fill="none" stroke="#63b8ff" d="M582.47,-141.04C556.43,-146.96 525.67,-153.97 501.11,-159.56"/>
<polygon fill="#63b8ff" stroke="#63b8ff" points="582.96,-144.29 591.94,-138.65 581.41,-137.46 582.96,-144.29"/>
</g>
<!-- Node25 -->
<g id="node25" class="node">
<title>Node25</title>
<g id="a_node25"><a xlink:href="classsss_1_1api_1_1S3Api.html#ab7affe0834f5892b393e731783b7ccac" target="_top" xlink:title=" ">
<polygon fill="white" stroke="#666666" points="515.62,-141.88 396.12,-141.88 396.12,-111.38 515.62,-111.38 515.62,-141.88"/>
<text text-anchor="start" x="404.12" y="-128.38" font-family="Helvetica,sans-Serif" font-size="10.00">sss::api::S3Api::PutFile</text>
<text text-anchor="middle" x="455.88" y="-117.12" font-family="Helvetica,sans-Serif" font-size="10.00">Object</text>
</a>
</g>
</g>
<!-- Node24&#45;&gt;Node25 -->
<g id="edge30" class="edge">
<title>Node24&#45;&gt;Node25</title>
<path fill="none" stroke="#63b8ff" d="M559.01,-127.76C544.59,-127.6 529.75,-127.43 516,-127.28"/>
<polygon fill="#63b8ff" stroke="#63b8ff" points="558.89,-131.27 568.93,-127.88 558.97,-124.27 558.89,-131.27"/>
</g>
</g>
</svg>
