<?xml version="1.0" encoding="UTF-8" standalone="no"?>
<!DOCTYPE svg PUBLIC "-//W3C//DTD SVG 1.1//EN"
 "http://www.w3.org/Graphics/SVG/1.1/DTD/svg11.dtd">
<!-- Generated by graphviz version 2.43.0 (0)
 -->
<!-- Title: sss::WebClient::SetMethod Pages: 1 -->
<svg width="510pt" height="166pt"
 viewBox="0.00 0.00 510.00 165.50" xmlns="http://www.w3.org/2000/svg" xmlns:xlink="http://www.w3.org/1999/xlink">
<g id="graph0" class="graph" transform="scale(1 1) rotate(0) translate(4 161.5)">
<title>sss::WebClient::SetMethod</title>
<!-- Node1 -->
<g id="node1" class="node">
<title>Node1</title>
<g id="a_node1"><a xlink:title=" ">
<polygon fill="#bfbfbf" stroke="black" points="365,-72 365,-91 502,-91 502,-72 365,-72"/>
<text text-anchor="middle" x="433.5" y="-79" font-family="Helvetica,sans-Serif" font-size="10.00">sss::WebClient::SetMethod</text>
</a>
</g>
</g>
<!-- Node2 -->
<g id="node2" class="node">
<title>Node2</title>
<g id="a_node2"><a xlink:href="classsss_1_1api_1_1S3Api.html#a88b3eb551e57106ed171d9079de6afb4" target="_top" xlink:title="[WebClient::Config]">
<polygon fill="none" stroke="black" points="199.5,-138 199.5,-157 317.5,-157 317.5,-138 199.5,-138"/>
<text text-anchor="middle" x="258.5" y="-145" font-family="Helvetica,sans-Serif" font-size="10.00">sss::api::S3Api::Config</text>
</a>
</g>
</g>
<!-- Node1&#45;&gt;Node2 -->
<g id="edge1" class="edge">
<title>Node1&#45;&gt;Node2</title>
<path fill="none" stroke="midnightblue" d="M404.7,-95.59C384.15,-105.64 355.28,-119.01 329,-128.5 319.35,-131.98 308.75,-135.19 298.81,-137.93"/>
<polygon fill="midnightblue" stroke="midnightblue" points="406.39,-98.66 413.8,-91.09 403.29,-92.38 406.39,-98.66"/>
</g>
<!-- Node3 -->
<g id="node3" class="node">
<title>Node3</title>
<g id="a_node3"><a xlink:href="classsss_1_1WebClient.html#ae7b1f77bd4ae44585f2d49ea493bdcc5" target="_top" xlink:title="Upload data from memory buffer.">
<polygon fill="none" stroke="black" points="188,-88.5 188,-118.5 329,-118.5 329,-88.5 188,-88.5"/>
<text text-anchor="start" x="196" y="-106.5" font-family="Helvetica,sans-Serif" font-size="10.00">sss::WebClient::UploadData</text>
<text text-anchor="middle" x="258.5" y="-95.5" font-family="Helvetica,sans-Serif" font-size="10.00">FromBuffer</text>
</a>
</g>
</g>
<!-- Node1&#45;&gt;Node3 -->
<g id="edge2" class="edge">
<title>Node1&#45;&gt;Node3</title>
<path fill="none" stroke="midnightblue" d="M354.43,-91.43C346.01,-92.5 337.48,-93.58 329.17,-94.64"/>
<polygon fill="midnightblue" stroke="midnightblue" points="355.14,-94.87 364.62,-90.13 354.26,-87.92 355.14,-94.87"/>
</g>
<!-- Node5 -->
<g id="node5" class="node">
<title>Node5</title>
<g id="a_node5"><a xlink:href="classsss_1_1WebClient.html#ad038e41cfc902f6e49754c52a9a71992" target="_top" xlink:title="Upload file.">
<polygon fill="none" stroke="black" points="190.5,-50 190.5,-69 326.5,-69 326.5,-50 190.5,-50"/>
<text text-anchor="middle" x="258.5" y="-57" font-family="Helvetica,sans-Serif" font-size="10.00">sss::WebClient::UploadFile</text>
</a>
</g>
</g>
<!-- Node1&#45;&gt;Node5 -->
<g id="edge4" class="edge">
<title>Node1&#45;&gt;Node5</title>
<path fill="none" stroke="midnightblue" d="M354.57,-71.59C345.24,-70.4 335.77,-69.2 326.61,-68.03"/>
<polygon fill="midnightblue" stroke="midnightblue" points="354.26,-75.08 364.62,-72.87 355.14,-68.13 354.26,-75.08"/>
</g>
<!-- Node6 -->
<g id="node6" class="node">
<title>Node6</title>
<g id="a_node6"><a xlink:href="classsss_1_1WebClient.html#accb4e986d73bb44149918fa0043ec43b" target="_top" xlink:title="Upload file starting from offset using unbuffered I/O read.">
<polygon fill="none" stroke="black" points="190.5,-0.5 190.5,-30.5 326.5,-30.5 326.5,-0.5 190.5,-0.5"/>
<text text-anchor="start" x="198.5" y="-18.5" font-family="Helvetica,sans-Serif" font-size="10.00">sss::WebClient::UploadFile</text>
<text text-anchor="middle" x="258.5" y="-7.5" font-family="Helvetica,sans-Serif" font-size="10.00">Unbuffered</text>
</a>
</g>
</g>
<!-- Node1&#45;&gt;Node6 -->
<g id="edge5" class="edge">
<title>Node1&#45;&gt;Node6</title>
<path fill="none" stroke="midnightblue" d="M399.34,-68.05C379.08,-59.91 352.62,-49.42 329,-40.5 320.36,-37.24 311.09,-33.83 302.21,-30.62"/>
<polygon fill="midnightblue" stroke="midnightblue" points="398.16,-71.35 408.74,-71.84 400.77,-64.86 398.16,-71.35"/>
</g>
<!-- Node4 -->
<g id="node4" class="node">
<title>Node4</title>
<g id="a_node4"><a xlink:href="classsss_1_1WebClient.html#ab5af9d8e7c424e49fab04f0d9d59b489" target="_top" xlink:title="Upload file starting from offset using unbuffered memory mapping of file.">
<polygon fill="none" stroke="black" points="0,-94 0,-113 152,-113 152,-94 0,-94"/>
<text text-anchor="middle" x="76" y="-101" font-family="Helvetica,sans-Serif" font-size="10.00">sss::WebClient::UploadFileMM</text>
</a>
</g>
</g>
<!-- Node3&#45;&gt;Node4 -->
<g id="edge3" class="edge">
<title>Node3&#45;&gt;Node4</title>
<path fill="none" stroke="midnightblue" d="M177.71,-103.5C169.22,-103.5 160.62,-103.5 152.19,-103.5"/>
<polygon fill="midnightblue" stroke="midnightblue" points="177.97,-107 187.97,-103.5 177.97,-100 177.97,-107"/>
</g>
</g>
</svg>
