<?xml version="1.0" encoding="UTF-8" standalone="no"?>
<!DOCTYPE svg PUBLIC "-//W3C//DTD SVG 1.1//EN"
 "http://www.w3.org/Graphics/SVG/1.1/DTD/svg11.dtd">
<!-- Generated by graphviz version 2.43.0 (0)
 -->
<!-- Title: sss::api::S3Api::GetObjectTagging Pages: 1 -->
<svg width="1135pt" height="534pt"
 viewBox="0.00 0.00 1135.00 534.00" xmlns="http://www.w3.org/2000/svg" xmlns:xlink="http://www.w3.org/1999/xlink">
<g id="graph0" class="graph" transform="scale(1 1) rotate(0) translate(4 530)">
<title>sss::api::S3Api::GetObjectTagging</title>
<!-- Node1 -->
<g id="node1" class="node">
<title>Node1</title>
<g id="a_node1"><a xlink:title="Return object tags.">
<polygon fill="#bfbfbf" stroke="black" points="0,-223 0,-253 134,-253 134,-223 0,-223"/>
<text text-anchor="start" x="8" y="-241" font-family="Helvetica,sans-Serif" font-size="10.00">sss::api::S3Api::GetObject</text>
<text text-anchor="middle" x="67" y="-230" font-family="Helvetica,sans-Serif" font-size="10.00">Tagging</text>
</a>
</g>
</g>
<!-- Node2 -->
<g id="node2" class="node">
<title>Node2</title>
<g id="a_node2"><a xlink:href="classsss_1_1WebClient.html#ac9e82fc4b56b142d91f9b104f5266f91" target="_top" xlink:title="Get response body as text.">
<polygon fill="none" stroke="black" points="170,-386.5 170,-405.5 328,-405.5 328,-386.5 170,-386.5"/>
<text text-anchor="middle" x="249" y="-393.5" font-family="Helvetica,sans-Serif" font-size="10.00">sss::WebClient::GetContentText</text>
</a>
</g>
</g>
<!-- Node1&#45;&gt;Node2 -->
<g id="edge1" class="edge">
<title>Node1&#45;&gt;Node2</title>
<path fill="none" stroke="midnightblue" d="M85.26,-253.15C119.15,-282.9 194.13,-348.72 229.22,-379.51"/>
<polygon fill="midnightblue" stroke="midnightblue" points="227.02,-382.24 236.84,-386.21 231.64,-376.98 227.02,-382.24"/>
</g>
<!-- Node4 -->
<g id="node4" class="node">
<title>Node4</title>
<g id="a_node4"><a xlink:href="classsss_1_1api_1_1S3Api.html#a02b4f0c95255f151beb72f0a6bdf5889" target="_top" xlink:title="Send request.">
<polygon fill="none" stroke="black" points="193,-209.5 193,-228.5 305,-228.5 305,-209.5 193,-209.5"/>
<text text-anchor="middle" x="249" y="-216.5" font-family="Helvetica,sans-Serif" font-size="10.00">sss::api::S3Api::Send</text>
</a>
</g>
</g>
<!-- Node1&#45;&gt;Node4 -->
<g id="edge3" class="edge">
<title>Node1&#45;&gt;Node4</title>
<path fill="none" stroke="midnightblue" d="M134,-231.03C149.89,-229.36 166.85,-227.57 182.7,-225.89"/>
<polygon fill="midnightblue" stroke="midnightblue" points="183.36,-229.34 192.94,-224.81 182.63,-222.38 183.36,-229.34"/>
</g>
<!-- Node3 -->
<g id="node3" class="node">
<title>Node3</title>
<g id="a_node3"><a xlink:href="classsss_1_1WebClient.html#a77a4e0190a4f207b969cb63b6ba38ccc" target="_top" xlink:title=" ">
<polygon fill="none" stroke="black" points="364,-506.5 364,-525.5 536,-525.5 536,-506.5 364,-506.5"/>
<text text-anchor="middle" x="450" y="-513.5" font-family="Helvetica,sans-Serif" font-size="10.00">sss::WebClient::GetResponseBody</text>
</a>
</g>
</g>
<!-- Node2&#45;&gt;Node3 -->
<g id="edge2" class="edge">
<title>Node2&#45;&gt;Node3</title>
<path fill="none" stroke="midnightblue" d="M257.72,-405.54C274.68,-425.79 317.38,-473.17 364,-497 368.59,-499.35 373.47,-501.41 378.48,-503.21"/>
<polygon fill="midnightblue" stroke="midnightblue" points="377.64,-506.62 388.23,-506.39 379.8,-499.96 377.64,-506.62"/>
</g>
<!-- Node5 -->
<g id="node5" class="node">
<title>Node5</title>
<g id="a_node5"><a xlink:href="classsss_1_1api_1_1S3Api.html#a840772746fbb0a79c161037da7b24a31" target="_top" xlink:title="Configure instance.">
<polygon fill="none" stroke="black" points="391,-209.5 391,-228.5 509,-228.5 509,-209.5 391,-209.5"/>
<text text-anchor="middle" x="450" y="-216.5" font-family="Helvetica,sans-Serif" font-size="10.00">sss::api::S3Api::Config</text>
</a>
</g>
</g>
<!-- Node4&#45;&gt;Node5 -->
<g id="edge4" class="edge">
<title>Node4&#45;&gt;Node5</title>
<path fill="none" stroke="midnightblue" d="M305.17,-219C328.62,-219 356.21,-219 380.91,-219"/>
<polygon fill="midnightblue" stroke="midnightblue" points="380.94,-222.5 390.94,-219 380.94,-215.5 380.94,-222.5"/>
</g>
<!-- Node14 -->
<g id="node14" class="node">
<title>Node14</title>
<g id="a_node14"><a xlink:href="classsss_1_1WebClient.html#a51ce0ecf6487b6a43072643fe4f4cb4e" target="_top" xlink:title=" ">
<polygon fill="none" stroke="black" points="765.5,-380.5 765.5,-399.5 911.5,-399.5 911.5,-380.5 765.5,-380.5"/>
<text text-anchor="middle" x="838.5" y="-387.5" font-family="Helvetica,sans-Serif" font-size="10.00">sss::WebClient::SetPostData</text>
</a>
</g>
</g>
<!-- Node4&#45;&gt;Node14 -->
<g id="edge25" class="edge">
<title>Node4&#45;&gt;Node14</title>
<path fill="none" stroke="midnightblue" d="M260.95,-228.53C299.87,-261.69 436.43,-371.99 572,-409 648.01,-429.75 740.55,-414.43 793.88,-401.88"/>
<polygon fill="midnightblue" stroke="midnightblue" points="794.8,-405.26 803.69,-399.5 793.15,-398.46 794.8,-405.26"/>
</g>
<!-- Node21 -->
<g id="node21" class="node">
<title>Node21</title>
<g id="a_node21"><a xlink:href="group__Internal.html#ga2b8b08c2a4994a87377d83ccfa9a6a53" target="_top" xlink:title=" ">
<polygon fill="none" stroke="black" points="401,-32.5 401,-51.5 499,-51.5 499,-32.5 401,-32.5"/>
<text text-anchor="middle" x="450" y="-39.5" font-family="Helvetica,sans-Serif" font-size="10.00">sss::ParseParams</text>
</a>
</g>
</g>
<!-- Node4&#45;&gt;Node21 -->
<g id="edge23" class="edge">
<title>Node4&#45;&gt;Node21</title>
<path fill="none" stroke="midnightblue" d="M254.35,-209.39C267.08,-182.39 306.97,-105.25 364,-66 372.15,-60.39 381.58,-56.09 391.15,-52.78"/>
<polygon fill="midnightblue" stroke="midnightblue" points="392.2,-56.12 400.7,-49.8 390.12,-49.44 392.2,-56.12"/>
</g>
<!-- Node22 -->
<g id="node22" class="node">
<title>Node22</title>
<g id="a_node22"><a xlink:href="classsss_1_1WebClient.html#aa1d7484f0e09242ce53b24f9648ce50e" target="_top" xlink:title=" ">
<polygon fill="none" stroke="black" points="587.5,-0.5 587.5,-19.5 699.5,-19.5 699.5,-0.5 587.5,-0.5"/>
<text text-anchor="middle" x="643.5" y="-7.5" font-family="Helvetica,sans-Serif" font-size="10.00">sss::WebClient::Send</text>
</a>
</g>
</g>
<!-- Node4&#45;&gt;Node22 -->
<g id="edge24" class="edge">
<title>Node4&#45;&gt;Node22</title>
<path fill="none" stroke="midnightblue" d="M256.1,-209.39C271.29,-186.34 313.21,-127.69 364,-99 432.16,-60.49 466.27,-96.6 536,-61 555.07,-51.27 553.16,-39.17 572,-29 576.24,-26.71 580.77,-24.68 585.42,-22.89"/>
<polygon fill="midnightblue" stroke="midnightblue" points="586.77,-26.13 595.06,-19.53 584.47,-19.52 586.77,-26.13"/>
</g>
<!-- Node23 -->
<g id="node23" class="node">
<title>Node23</title>
<g id="a_node23"><a xlink:href="classsss_1_1WebClient.html#a7dfd984b33a29686fb0355b65b620e99" target="_top" xlink:title=" ">
<polygon fill="none" stroke="black" points="372.5,-457 372.5,-487 527.5,-487 527.5,-457 372.5,-457"/>
<text text-anchor="start" x="380.5" y="-475" font-family="Helvetica,sans-Serif" font-size="10.00">sss::WebClient::SetUrlEncoded</text>
<text text-anchor="middle" x="450" y="-464" font-family="Helvetica,sans-Serif" font-size="10.00">PostData</text>
</a>
</g>
</g>
<!-- Node4&#45;&gt;Node23 -->
<g id="edge26" class="edge">
<title>Node4&#45;&gt;Node23</title>
<path fill="none" stroke="midnightblue" d="M254.74,-228.76C275.14,-270.73 354.88,-434.02 364,-442 368.45,-445.89 373.44,-449.29 378.71,-452.26"/>
<polygon fill="midnightblue" stroke="midnightblue" points="377.3,-455.47 387.81,-456.85 380.46,-449.22 377.3,-455.47"/>
</g>
<!-- Node25 -->
<g id="node25" class="node">
<title>Node25</title>
<g id="a_node25"><a xlink:href="classsss_1_1WebClient.html#ae7b1f77bd4ae44585f2d49ea493bdcc5" target="_top" xlink:title="Upload data from memory buffer.">
<polygon fill="none" stroke="black" points="379.5,-109 379.5,-139 520.5,-139 520.5,-109 379.5,-109"/>
<text text-anchor="start" x="387.5" y="-127" font-family="Helvetica,sans-Serif" font-size="10.00">sss::WebClient::UploadData</text>
<text text-anchor="middle" x="450" y="-116" font-family="Helvetica,sans-Serif" font-size="10.00">FromBuffer</text>
</a>
</g>
</g>
<!-- Node4&#45;&gt;Node25 -->
<g id="edge28" class="edge">
<title>Node4&#45;&gt;Node25</title>
<path fill="none" stroke="midnightblue" d="M270.18,-209.37C302.42,-193.98 366.2,-163.53 408.22,-143.47"/>
<polygon fill="midnightblue" stroke="midnightblue" points="409.85,-146.57 417.36,-139.1 406.83,-140.25 409.85,-146.57"/>
</g>
<!-- Node6 -->
<g id="node6" class="node">
<title>Node6</title>
<g id="a_node6"><a xlink:href="classsss_1_1api_1_1S3Api.html#a1a4e05ac14390c7f42feef2c26e22031" target="_top" xlink:title=" ">
<polygon fill="none" stroke="black" points="582.5,-304.5 582.5,-323.5 704.5,-323.5 704.5,-304.5 582.5,-304.5"/>
<text text-anchor="middle" x="643.5" y="-311.5" font-family="Helvetica,sans-Serif" font-size="10.00">sss::api::S3Api::Access</text>
</a>
</g>
</g>
<!-- Node5&#45;&gt;Node6 -->
<g id="edge5" class="edge">
<title>Node5&#45;&gt;Node6</title>
<path fill="none" stroke="midnightblue" d="M465.02,-228.5C487.06,-243.14 531.47,-271.44 572,-290 580.99,-294.11 590.89,-297.91 600.37,-301.21"/>
<polygon fill="midnightblue" stroke="midnightblue" points="599.44,-304.59 610.03,-304.47 601.67,-297.96 599.44,-304.59"/>
</g>
<!-- Node7 -->
<g id="node7" class="node">
<title>Node7</title>
<g id="a_node7"><a xlink:href="classsss_1_1api_1_1S3Api.html#a3718745d3b940462ae9f3b78f773b3a6" target="_top" xlink:title="Clear data and reset read and write functions.">
<polygon fill="none" stroke="black" points="587,-228.5 587,-247.5 700,-247.5 700,-228.5 587,-228.5"/>
<text text-anchor="middle" x="643.5" y="-235.5" font-family="Helvetica,sans-Serif" font-size="10.00">sss::api::S3Api::Clear</text>
</a>
</g>
</g>
<!-- Node5&#45;&gt;Node7 -->
<g id="edge6" class="edge">
<title>Node5&#45;&gt;Node7</title>
<path fill="none" stroke="midnightblue" d="M509.24,-224.78C530.52,-226.89 554.73,-229.29 576.63,-231.46"/>
<polygon fill="midnightblue" stroke="midnightblue" points="576.54,-234.97 586.84,-232.48 577.23,-228.01 576.54,-234.97"/>
</g>
<!-- Node12 -->
<g id="node12" class="node">
<title>Node12</title>
<g id="a_node12"><a xlink:href="classsss_1_1WebClient.html#a75890c14fbe4a4bbac61718a4f3c064d" target="_top" xlink:title=" ">
<polygon fill="none" stroke="black" points="768,-285.5 768,-304.5 909,-304.5 909,-285.5 768,-285.5"/>
<text text-anchor="middle" x="838.5" y="-292.5" font-family="Helvetica,sans-Serif" font-size="10.00">sss::WebClient::SetHeaders</text>
</a>
</g>
</g>
<!-- Node5&#45;&gt;Node12 -->
<g id="edge18" class="edge">
<title>Node5&#45;&gt;Node12</title>
<path fill="none" stroke="midnightblue" d="M477.1,-228.55C501.38,-237.11 538.72,-249.44 572,-257 633.75,-271.02 704.81,-280.87 757.87,-287.02"/>
<polygon fill="midnightblue" stroke="midnightblue" points="757.57,-290.51 767.9,-288.16 758.36,-283.55 757.57,-290.51"/>
</g>
<!-- Node13 -->
<g id="node13" class="node">
<title>Node13</title>
<g id="a_node13"><a xlink:href="classsss_1_1WebClient.html#a12b5db6b8c667024557ab58059d39994" target="_top" xlink:title=" ">
<polygon fill="none" stroke="black" points="776,-171.5 776,-190.5 901,-190.5 901,-171.5 776,-171.5"/>
<text text-anchor="middle" x="838.5" y="-178.5" font-family="Helvetica,sans-Serif" font-size="10.00">sss::WebClient::SetPath</text>
</a>
</g>
</g>
<!-- Node5&#45;&gt;Node13 -->
<g id="edge20" class="edge">
<title>Node5&#45;&gt;Node13</title>
<path fill="none" stroke="midnightblue" d="M509.28,-213.27C577.86,-206.53 691.74,-195.33 765.7,-188.06"/>
<polygon fill="midnightblue" stroke="midnightblue" points="766.25,-191.52 775.86,-187.06 765.57,-184.56 766.25,-191.52"/>
</g>
<!-- Node15 -->
<g id="node15" class="node">
<title>Node15</title>
<g id="a_node15"><a xlink:href="classsss_1_1WebClient.html#a9bf978d95b79728f6d60fc2bdb4fe546" target="_top" xlink:title=" ">
<polygon fill="none" stroke="black" points="752,-133.5 752,-152.5 925,-152.5 925,-133.5 752,-133.5"/>
<text text-anchor="middle" x="838.5" y="-140.5" font-family="Helvetica,sans-Serif" font-size="10.00">sss::WebClient::SetReqParameters</text>
</a>
</g>
</g>
<!-- Node5&#45;&gt;Node15 -->
<g id="edge21" class="edge">
<title>Node5&#45;&gt;Node15</title>
<path fill="none" stroke="midnightblue" d="M461.63,-209.33C481.52,-191.96 526.47,-156.11 572,-143 635.56,-124.69 711.29,-126.91 765.57,-132.39"/>
<polygon fill="midnightblue" stroke="midnightblue" points="765.47,-135.9 775.79,-133.49 766.22,-128.94 765.47,-135.9"/>
</g>
<!-- Node16 -->
<g id="node16" class="node">
<title>Node16</title>
<g id="a_node16"><a xlink:href="classsss_1_1api_1_1S3Api.html#a70f1068d07e1d4c1be164e0cb9328cc0" target="_top" xlink:title=" ">
<polygon fill="none" stroke="black" points="579.5,-76.5 579.5,-95.5 707.5,-95.5 707.5,-76.5 579.5,-76.5"/>
<text text-anchor="middle" x="643.5" y="-83.5" font-family="Helvetica,sans-Serif" font-size="10.00">sss::api::S3Api::Endpoint</text>
</a>
</g>
</g>
<!-- Node5&#45;&gt;Node16 -->
<g id="edge15" class="edge">
<title>Node5&#45;&gt;Node16</title>
<path fill="none" stroke="midnightblue" d="M463.49,-209.32C480.41,-196.04 511.34,-171.17 536,-148 552.96,-132.07 552.42,-122.56 572,-110 578.81,-105.63 586.5,-101.97 594.24,-98.92"/>
<polygon fill="midnightblue" stroke="midnightblue" points="595.43,-102.21 603.64,-95.51 593.04,-95.63 595.43,-102.21"/>
</g>
<!-- Node17 -->
<g id="node17" class="node">
<title>Node17</title>
<g id="a_node17"><a xlink:href="classsss_1_1api_1_1S3Api.html#acfffe29254323fb41231787a0afb7edc" target="_top" xlink:title=" ">
<polygon fill="none" stroke="black" points="584.5,-380.5 584.5,-399.5 702.5,-399.5 702.5,-380.5 584.5,-380.5"/>
<text text-anchor="middle" x="643.5" y="-387.5" font-family="Helvetica,sans-Serif" font-size="10.00">sss::api::S3Api::Secret</text>
</a>
</g>
</g>
<!-- Node5&#45;&gt;Node17 -->
<g id="edge16" class="edge">
<title>Node5&#45;&gt;Node17</title>
<path fill="none" stroke="midnightblue" d="M455.78,-228.58C469.71,-255.49 513.07,-332.32 572,-371 575.15,-373.07 578.52,-374.91 582.02,-376.56"/>
<polygon fill="midnightblue" stroke="midnightblue" points="580.93,-379.89 591.51,-380.46 583.59,-373.42 580.93,-379.89"/>
</g>
<!-- Node18 -->
<g id="node18" class="node">
<title>Node18</title>
<g id="a_node18"><a xlink:href="classsss_1_1WebClient.html#afc3b7a92568fbb1ea447918920ca266e" target="_top" xlink:title="Set endpoint: &lt;proto&gt;://&lt;server&gt;:&lt;port&gt;">
<polygon fill="none" stroke="black" points="572,-342.5 572,-361.5 715,-361.5 715,-342.5 572,-342.5"/>
<text text-anchor="middle" x="643.5" y="-349.5" font-family="Helvetica,sans-Serif" font-size="10.00">sss::WebClient::SetEndpoint</text>
</a>
</g>
</g>
<!-- Node5&#45;&gt;Node18 -->
<g id="edge17" class="edge">
<title>Node5&#45;&gt;Node18</title>
<path fill="none" stroke="midnightblue" d="M458.34,-228.61C475.65,-250.57 521.35,-304.71 572,-333 575.97,-335.22 580.2,-337.18 584.56,-338.93"/>
<polygon fill="midnightblue" stroke="midnightblue" points="583.63,-342.31 594.22,-342.41 586,-335.73 583.63,-342.31"/>
</g>
<!-- Node19 -->
<g id="node19" class="node">
<title>Node19</title>
<g id="a_node19"><a xlink:href="classsss_1_1WebClient.html#af6233ffd7b294e1e7e606e838dd44e9e" target="_top" xlink:title=" ">
<polygon fill="none" stroke="black" points="575,-38.5 575,-57.5 712,-57.5 712,-38.5 575,-38.5"/>
<text text-anchor="middle" x="643.5" y="-45.5" font-family="Helvetica,sans-Serif" font-size="10.00">sss::WebClient::SetMethod</text>
</a>
</g>
</g>
<!-- Node5&#45;&gt;Node19 -->
<g id="edge19" class="edge">
<title>Node5&#45;&gt;Node19</title>
<path fill="none" stroke="midnightblue" d="M466.34,-209.4C484.92,-197.11 516.19,-174.24 536,-148 559.73,-116.56 542.07,-92.62 572,-67 573.98,-65.31 576.1,-63.76 578.32,-62.35"/>
<polygon fill="midnightblue" stroke="midnightblue" points="580.12,-65.35 587.31,-57.57 576.83,-59.17 580.12,-65.35"/>
</g>
<!-- Node20 -->
<g id="node20" class="node">
<title>Node20</title>
<g id="a_node20"><a xlink:href="group__Sign.html#ga3ae8e18ef70752b7369fca66c40c526b" target="_top" xlink:title="Sign headers.">
<polygon fill="none" stroke="black" points="596,-152.5 596,-171.5 691,-171.5 691,-152.5 596,-152.5"/>
<text text-anchor="middle" x="643.5" y="-159.5" font-family="Helvetica,sans-Serif" font-size="10.00">sss::SignHeaders</text>
</a>
</g>
</g>
<!-- Node5&#45;&gt;Node20 -->
<g id="edge22" class="edge">
<title>Node5&#45;&gt;Node20</title>
<path fill="none" stroke="midnightblue" d="M483.05,-209.46C515.23,-199.88 564.96,-185.08 600.32,-174.55"/>
<polygon fill="midnightblue" stroke="midnightblue" points="601.76,-177.78 610.34,-171.57 599.76,-171.07 601.76,-177.78"/>
</g>
<!-- Node8 -->
<g id="node8" class="node">
<title>Node8</title>
<g id="a_node8"><a xlink:href="classsss_1_1WebClient.html#a381f5715b7a2f19a0d4414d278874bae" target="_top" xlink:title="Clear internal buffers.">
<polygon fill="none" stroke="black" points="766.5,-209.5 766.5,-228.5 910.5,-228.5 910.5,-209.5 766.5,-209.5"/>
<text text-anchor="middle" x="838.5" y="-216.5" font-family="Helvetica,sans-Serif" font-size="10.00">sss::WebClient::ClearBuffers</text>
</a>
</g>
</g>
<!-- Node7&#45;&gt;Node8 -->
<g id="edge7" class="edge">
<title>Node7&#45;&gt;Node8</title>
<path fill="none" stroke="midnightblue" d="M700.06,-232.53C717.62,-230.8 737.4,-228.85 756.36,-226.99"/>
<polygon fill="midnightblue" stroke="midnightblue" points="756.88,-230.45 766.49,-225.99 756.2,-223.49 756.88,-230.45"/>
</g>
<!-- Node9 -->
<g id="node9" class="node">
<title>Node9</title>
<g id="a_node9"><a xlink:href="classsss_1_1WebClient.html#a96837f149bb473853a6523d096a25c56" target="_top" xlink:title="Reset read/write functions to default.">
<polygon fill="none" stroke="black" points="751,-247.5 751,-266.5 926,-266.5 926,-247.5 751,-247.5"/>
<text text-anchor="middle" x="838.5" y="-254.5" font-family="Helvetica,sans-Serif" font-size="10.00">sss::WebClient::ResetRWFunctions</text>
</a>
</g>
</g>
<!-- Node7&#45;&gt;Node9 -->
<g id="edge8" class="edge">
<title>Node7&#45;&gt;Node9</title>
<path fill="none" stroke="midnightblue" d="M700.06,-243.47C712.79,-244.72 726.68,-246.09 740.58,-247.46"/>
<polygon fill="midnightblue" stroke="midnightblue" points="740.39,-250.96 750.69,-248.45 741.08,-243.99 740.39,-250.96"/>
</g>
<!-- Node7&#45;&gt;Node12 -->
<g id="edge11" class="edge">
<title>Node7&#45;&gt;Node12</title>
<path fill="none" stroke="midnightblue" d="M673.41,-247.53C686.2,-251.83 701.39,-257.04 715,-262 731.13,-267.88 734.57,-271.03 751,-276 759.65,-278.61 768.88,-281.03 777.98,-283.2"/>
<polygon fill="midnightblue" stroke="midnightblue" points="777.23,-286.62 787.76,-285.45 778.8,-279.8 777.23,-286.62"/>
</g>
<!-- Node7&#45;&gt;Node13 -->
<g id="edge12" class="edge">
<title>Node7&#45;&gt;Node13</title>
<path fill="none" stroke="midnightblue" d="M673.41,-228.47C686.2,-224.17 701.39,-218.96 715,-214 731.13,-208.12 734.57,-204.97 751,-200 759.65,-197.39 768.88,-194.97 777.98,-192.8"/>
<polygon fill="midnightblue" stroke="midnightblue" points="778.8,-196.2 787.76,-190.55 777.23,-189.38 778.8,-196.2"/>
</g>
<!-- Node7&#45;&gt;Node14 -->
<g id="edge13" class="edge">
<title>Node7&#45;&gt;Node14</title>
<path fill="none" stroke="midnightblue" d="M656.57,-247.51C688.86,-272.94 777.47,-342.72 817.46,-374.21"/>
<polygon fill="midnightblue" stroke="midnightblue" points="815.41,-377.06 825.43,-380.5 819.74,-371.56 815.41,-377.06"/>
</g>
<!-- Node7&#45;&gt;Node15 -->
<g id="edge14" class="edge">
<title>Node7&#45;&gt;Node15</title>
<path fill="none" stroke="midnightblue" d="M654.79,-228.43C672.83,-212.2 711.97,-179.34 751,-162 756.72,-159.46 762.8,-157.25 768.99,-155.32"/>
<polygon fill="midnightblue" stroke="midnightblue" points="770.12,-158.64 778.77,-152.53 768.2,-151.91 770.12,-158.64"/>
</g>
<!-- Node10 -->
<g id="node10" class="node">
<title>Node10</title>
<g id="a_node10"><a xlink:href="classsss_1_1WebClient.html#a88dbcc61562e84aa9ebf1eabf887ac28" target="_top" xlink:title=" ">
<polygon fill="none" stroke="black" points="962,-269.5 962,-288.5 1127,-288.5 1127,-269.5 962,-269.5"/>
<text text-anchor="middle" x="1044.5" y="-276.5" font-family="Helvetica,sans-Serif" font-size="10.00">sss::WebClient::SetReadFunction</text>
</a>
</g>
</g>
<!-- Node9&#45;&gt;Node10 -->
<g id="edge9" class="edge">
<title>Node9&#45;&gt;Node10</title>
<path fill="none" stroke="midnightblue" d="M926.01,-266.33C934.52,-267.25 943.18,-268.18 951.73,-269.1"/>
<polygon fill="midnightblue" stroke="midnightblue" points="951.4,-272.59 961.72,-270.18 952.15,-265.63 951.4,-272.59"/>
</g>
<!-- Node11 -->
<g id="node11" class="node">
<title>Node11</title>
<g id="a_node11"><a xlink:href="classsss_1_1WebClient.html#a002876073b3869a9b9a9d709d14f1d7e" target="_top" xlink:title=" ">
<polygon fill="none" stroke="black" points="981,-220 981,-250 1108,-250 1108,-220 981,-220"/>
<text text-anchor="start" x="989" y="-238" font-family="Helvetica,sans-Serif" font-size="10.00">sss::WebClient::SetWrite</text>
<text text-anchor="middle" x="1044.5" y="-227" font-family="Helvetica,sans-Serif" font-size="10.00">Function</text>
</a>
</g>
</g>
<!-- Node9&#45;&gt;Node11 -->
<g id="edge10" class="edge">
<title>Node9&#45;&gt;Node11</title>
<path fill="none" stroke="midnightblue" d="M926.01,-247.67C940.87,-246.07 956.17,-244.42 970.63,-242.86"/>
<polygon fill="midnightblue" stroke="midnightblue" points="971.41,-246.29 980.98,-241.74 970.66,-239.33 971.41,-246.29"/>
</g>
<!-- Node24 -->
<g id="node24" class="node">
<title>Node24</title>
<g id="a_node24"><a xlink:href="group__Internal.html#ga6e3db8d156313abef7e2c966df1a3d7c" target="_top" xlink:title=" ">
<polygon fill="none" stroke="black" points="601.5,-462.5 601.5,-481.5 685.5,-481.5 685.5,-462.5 601.5,-462.5"/>
<text text-anchor="middle" x="643.5" y="-469.5" font-family="Helvetica,sans-Serif" font-size="10.00">sss::UrlEncode</text>
</a>
</g>
</g>
<!-- Node23&#45;&gt;Node24 -->
<g id="edge27" class="edge">
<title>Node23&#45;&gt;Node24</title>
<path fill="none" stroke="midnightblue" d="M527.51,-472C548.88,-472 571.59,-472 591.13,-472"/>
<polygon fill="midnightblue" stroke="midnightblue" points="591.33,-475.5 601.33,-472 591.33,-468.5 591.33,-475.5"/>
</g>
<!-- Node25&#45;&gt;Node19 -->
<g id="edge30" class="edge">
<title>Node25&#45;&gt;Node19</title>
<path fill="none" stroke="midnightblue" d="M501.97,-108.85C513.45,-104.67 525.38,-99.69 536,-94 553.63,-84.56 554.02,-75.76 572,-67 576.84,-64.64 582.02,-62.54 587.29,-60.68"/>
<polygon fill="midnightblue" stroke="midnightblue" points="588.39,-64 596.82,-57.58 586.23,-57.34 588.39,-64"/>
</g>
<!-- Node25&#45;&gt;Node22 -->
<g id="edge29" class="edge">
<title>Node25&#45;&gt;Node22</title>
<path fill="none" stroke="midnightblue" d="M511.58,-108.84C520.35,-104.93 528.83,-100.06 536,-94 561.21,-72.67 546,-49.35 572,-29 574.34,-27.17 576.84,-25.51 579.46,-24.02"/>
<polygon fill="midnightblue" stroke="midnightblue" points="581.25,-27.04 588.71,-19.52 578.19,-20.74 581.25,-27.04"/>
</g>
</g>
</svg>
