<?xml version="1.0" encoding="UTF-8" standalone="no"?>
<!DOCTYPE svg PUBLIC "-//W3C//DTD SVG 1.1//EN"
 "http://www.w3.org/Graphics/SVG/1.1/DTD/svg11.dtd">
<!-- Generated by graphviz version 2.43.0 (0)
 -->
<!-- Title: sss::api::S3Api::AbortMultipartUpload Pages: 1 -->
<!--zoomable 521 -->
<svg id="main" version="1.1" xmlns="http://www.w3.org/2000/svg" xmlns:xlink="http://www.w3.org/1999/xlink" xml:space="preserve" onload="init(evt)">
<style type="text/css"><![CDATA[
.edge:hover path { stroke: red; }
.edge:hover polygon { stroke: red; fill: red; }
]]></style>
<script type="text/javascript"><![CDATA[
var edges = document.getElementsByTagName('g');
if (edges && edges.length) {
  for (var i=0;i<edges.length;i++) {
    if (edges[i].id.substr(0,4)=='edge') {
      edges[i].setAttribute('class','edge');
    }
  }
}
]]></script>
        <defs>
                <circle id="rim" cx="0" cy="0" r="7"/>
                <circle id="rim2" cx="0" cy="0" r="3.5"/>
                <g id="zoomPlus">
                        <use xlink:href="#rim" fill="#404040">
                                <set attributeName="fill" to="#808080" begin="zoomplus.mouseover" end="zoomplus.mouseout"/>
                        </use>
                        <path d="M-4,0h8M0,-4v8" fill="none" stroke="white" stroke-width="1.5" pointer-events="none"/>
                </g>
                <g id="zoomMin">
                        <use xlink:href="#rim" fill="#404040">
                                <set attributeName="fill" to="#808080" begin="zoomminus.mouseover" end="zoomminus.mouseout"/>
                        </use>
                        <path d="M-4,0h8" fill="none" stroke="white" stroke-width="1.5" pointer-events="none"/>
                </g>
                <g id="dirArrow">
                        <path fill="none" stroke="white" stroke-width="1.5" d="M0,-3.0v7 M-2.5,-0.5L0,-3.0L2.5,-0.5"/>
                </g>
               <g id="resetDef">
                       <use xlink:href="#rim2" fill="#404040">
                               <set attributeName="fill" to="#808080" begin="reset.mouseover" end="reset.mouseout"/>
                       </use>
               </g>
        </defs>

<script type="text/javascript">
var viewWidth = 1088;
var viewHeight = 521;
var sectionId = 'dynsection-0';
</script>
<script xlink:href="svgpan.js"/>
<svg id="graph" class="graph">
<g id="viewport">
<title>sss::api::S3Api::AbortMultipartUpload</title>
<!-- Node1 -->
<g id="node1" class="node">
<title>Node1</title>
<g id="a_node1"><a xlink:title=" ">
<polygon fill="#bfbfbf" stroke="black" points="0,-104.5 0,-134.5 150,-134.5 150,-104.5 0,-104.5"/>
<text text-anchor="start" x="8" y="-122.5" font-family="Helvetica,sans-Serif" font-size="10.00">sss::api::S3Api::AbortMultipart</text>
<text text-anchor="middle" x="75" y="-111.5" font-family="Helvetica,sans-Serif" font-size="10.00">Upload</text>
</a>
</g>
</g>
<!-- Node2 -->
<g id="node2" class="node">
<title>Node2</title>
<g id="a_node2"><a xlink:href="classsss_1_1api_1_1S3Api.html#a02b4f0c95255f151beb72f0a6bdf5889" target="_top" xlink:title=" ">
<polygon fill="none" stroke="black" points="186,-110 186,-129 298,-129 298,-110 186,-110"/>
<text text-anchor="middle" x="242" y="-117" font-family="Helvetica,sans-Serif" font-size="10.00">sss::api::S3Api::Send</text>
</a>
</g>
</g>
<!-- Node1&#45;&gt;Node2 -->
<g id="edge1" class="edge">
<title>Node1&#45;&gt;Node2</title>
<path fill="none" stroke="midnightblue" d="M150.29,-119.5C158.81,-119.5 167.44,-119.5 175.82,-119.5"/>
<polygon fill="midnightblue" stroke="midnightblue" points="175.9,-123 185.9,-119.5 175.9,-116 175.9,-123"/>
</g>
<!-- Node3 -->
<g id="node3" class="node">
<title>Node3</title>
<g id="a_node3"><a xlink:href="classsss_1_1api_1_1S3Api.html#a840772746fbb0a79c161037da7b24a31" target="_top" xlink:title="[WebClient::Config]">
<polygon fill="none" stroke="black" points="352.5,-278 352.5,-297 470.5,-297 470.5,-278 352.5,-278"/>
<text text-anchor="middle" x="411.5" y="-285" font-family="Helvetica,sans-Serif" font-size="10.00">sss::api::S3Api::Config</text>
</a>
</g>
</g>
<!-- Node2&#45;&gt;Node3 -->
<g id="edge2" class="edge">
<title>Node2&#45;&gt;Node3</title>
<path fill="none" stroke="midnightblue" d="M252.49,-129.01C279.77,-156.38 358.7,-235.55 393.58,-270.53"/>
<polygon fill="midnightblue" stroke="midnightblue" points="391.16,-273.06 400.7,-277.67 396.12,-268.12 391.16,-273.06"/>
</g>
<!-- Node12 -->
<g id="node12" class="node">
<title>Node12</title>
<g id="a_node12"><a xlink:href="classsss_1_1WebClient.html#a51ce0ecf6487b6a43072643fe4f4cb4e" target="_top" xlink:title=" ">
<polygon fill="none" stroke="black" points="718.5,-468 718.5,-487 864.5,-487 864.5,-468 718.5,-468"/>
<text text-anchor="middle" x="791.5" y="-475" font-family="Helvetica,sans-Serif" font-size="10.00">sss::WebClient::SetPostData</text>
</a>
</g>
</g>
<!-- Node2&#45;&gt;Node12 -->
<g id="edge23" class="edge">
<title>Node2&#45;&gt;Node12</title>
<path fill="none" stroke="midnightblue" d="M246.09,-129.15C263.24,-180.84 352.36,-425.25 525,-496.5 601.65,-528.13 701.29,-506.09 754.03,-490.07"/>
<polygon fill="midnightblue" stroke="midnightblue" points="755.13,-493.39 763.62,-487.06 753.03,-486.71 755.13,-493.39"/>
</g>
<!-- Node19 -->
<g id="node19" class="node">
<title>Node19</title>
<g id="a_node19"><a xlink:href="group__Internal.html#ga2b8b08c2a4994a87377d83ccfa9a6a53" target="_top" xlink:title=" ">
<polygon fill="none" stroke="black" points="362.5,-50 362.5,-69 460.5,-69 460.5,-50 362.5,-50"/>
<text text-anchor="middle" x="411.5" y="-57" font-family="Helvetica,sans-Serif" font-size="10.00">sss::ParseParams</text>
</a>
</g>
</g>
<!-- Node2&#45;&gt;Node19 -->
<g id="edge21" class="edge">
<title>Node2&#45;&gt;Node19</title>
<path fill="none" stroke="midnightblue" d="M266.01,-109.86C284.31,-102.33 310.62,-91.78 334,-83.5 345.16,-79.55 357.36,-75.57 368.66,-72.02"/>
<polygon fill="midnightblue" stroke="midnightblue" points="369.8,-75.33 378.32,-69.03 367.73,-68.65 369.8,-75.33"/>
</g>
<!-- Node20 -->
<g id="node20" class="node">
<title>Node20</title>
<g id="a_node20"><a xlink:href="classsss_1_1WebClient.html#aa1d7484f0e09242ce53b24f9648ce50e" target="_top" xlink:title=" ">
<polygon fill="none" stroke="black" points="540.5,-88 540.5,-107 652.5,-107 652.5,-88 540.5,-88"/>
<text text-anchor="middle" x="596.5" y="-95" font-family="Helvetica,sans-Serif" font-size="10.00">sss::WebClient::Send</text>
</a>
</g>
</g>
<!-- Node2&#45;&gt;Node20 -->
<g id="edge22" class="edge">
<title>Node2&#45;&gt;Node20</title>
<path fill="none" stroke="midnightblue" d="M298.08,-116.06C360.88,-112.14 463.48,-105.74 530.24,-101.57"/>
<polygon fill="midnightblue" stroke="midnightblue" points="530.47,-105.07 540.23,-100.95 530.03,-98.08 530.47,-105.07"/>
</g>
<!-- Node21 -->
<g id="node21" class="node">
<title>Node21</title>
<g id="a_node21"><a xlink:href="classsss_1_1WebClient.html#a7dfd984b33a29686fb0355b65b620e99" target="_top" xlink:title=" ">
<polygon fill="none" stroke="black" points="334,-0.5 334,-30.5 489,-30.5 489,-0.5 334,-0.5"/>
<text text-anchor="start" x="342" y="-18.5" font-family="Helvetica,sans-Serif" font-size="10.00">sss::WebClient::SetUrlEncoded</text>
<text text-anchor="middle" x="411.5" y="-7.5" font-family="Helvetica,sans-Serif" font-size="10.00">PostData</text>
</a>
</g>
</g>
<!-- Node2&#45;&gt;Node21 -->
<g id="edge24" class="edge">
<title>Node2&#45;&gt;Node21</title>
<path fill="none" stroke="midnightblue" d="M251.61,-109.84C266.74,-93.4 299.78,-59.89 334,-40.5 337.87,-38.31 341.95,-36.28 346.14,-34.4"/>
<polygon fill="midnightblue" stroke="midnightblue" points="347.56,-37.6 355.44,-30.53 344.87,-31.14 347.56,-37.6"/>
</g>
<!-- Node23 -->
<g id="node23" class="node">
<title>Node23</title>
<g id="a_node23"><a xlink:href="classsss_1_1WebClient.html#ae7b1f77bd4ae44585f2d49ea493bdcc5" target="_top" xlink:title="Upload data from memory buffer.">
<polygon fill="none" stroke="black" points="341,-126.5 341,-156.5 482,-156.5 482,-126.5 341,-126.5"/>
<text text-anchor="start" x="349" y="-144.5" font-family="Helvetica,sans-Serif" font-size="10.00">sss::WebClient::UploadData</text>
<text text-anchor="middle" x="411.5" y="-133.5" font-family="Helvetica,sans-Serif" font-size="10.00">FromBuffer</text>
</a>
</g>
</g>
<!-- Node2&#45;&gt;Node23 -->
<g id="edge26" class="edge">
<title>Node2&#45;&gt;Node23</title>
<path fill="none" stroke="midnightblue" d="M298.31,-126.76C308.74,-128.13 319.84,-129.59 330.85,-131.04"/>
<polygon fill="midnightblue" stroke="midnightblue" points="330.54,-134.53 340.91,-132.36 331.45,-127.59 330.54,-134.53"/>
</g>
<!-- Node4 -->
<g id="node4" class="node">
<title>Node4</title>
<g id="a_node4"><a xlink:href="classsss_1_1api_1_1S3Api.html#a1a4e05ac14390c7f42feef2c26e22031" target="_top" xlink:title=" ">
<polygon fill="none" stroke="black" points="535.5,-392 535.5,-411 657.5,-411 657.5,-392 535.5,-392"/>
<text text-anchor="middle" x="596.5" y="-399" font-family="Helvetica,sans-Serif" font-size="10.00">sss::api::S3Api::Access</text>
</a>
</g>
</g>
<!-- Node3&#45;&gt;Node4 -->
<g id="edge3" class="edge">
<title>Node3&#45;&gt;Node4</title>
<path fill="none" stroke="midnightblue" d="M422.18,-297.23C440.66,-315.33 482.89,-354.42 525,-377.5 532.83,-381.79 541.56,-385.51 550.14,-388.66"/>
<polygon fill="midnightblue" stroke="midnightblue" points="549.11,-392.01 559.7,-391.97 551.39,-385.39 549.11,-392.01"/>
</g>
<!-- Node5 -->
<g id="node5" class="node">
<title>Node5</title>
<g id="a_node5"><a xlink:href="classsss_1_1api_1_1S3Api.html#a3718745d3b940462ae9f3b78f773b3a6" target="_top" xlink:title="Clear data and reset read and write functions.">
<polygon fill="none" stroke="black" points="540,-316 540,-335 653,-335 653,-316 540,-316"/>
<text text-anchor="middle" x="596.5" y="-323" font-family="Helvetica,sans-Serif" font-size="10.00">sss::api::S3Api::Clear</text>
</a>
</g>
</g>
<!-- Node3&#45;&gt;Node5 -->
<g id="edge4" class="edge">
<title>Node3&#45;&gt;Node5</title>
<path fill="none" stroke="midnightblue" d="M458.68,-297.09C483.26,-302.19 513.69,-308.51 539.6,-313.89"/>
<polygon fill="midnightblue" stroke="midnightblue" points="539.15,-317.37 549.65,-315.98 540.57,-310.52 539.15,-317.37"/>
</g>
<!-- Node10 -->
<g id="node10" class="node">
<title>Node10</title>
<g id="a_node10"><a xlink:href="classsss_1_1WebClient.html#a75890c14fbe4a4bbac61718a4f3c064d" target="_top" xlink:title=" ">
<polygon fill="none" stroke="black" points="721,-373 721,-392 862,-392 862,-373 721,-373"/>
<text text-anchor="middle" x="791.5" y="-380" font-family="Helvetica,sans-Serif" font-size="10.00">sss::WebClient::SetHeaders</text>
</a>
</g>
</g>
<!-- Node3&#45;&gt;Node10 -->
<g id="edge16" class="edge">
<title>Node3&#45;&gt;Node10</title>
<path fill="none" stroke="midnightblue" d="M427.47,-297.1C448.41,-310.06 488.04,-332.84 525,-344.5 585.7,-363.65 657.27,-373.18 710.8,-377.91"/>
<polygon fill="midnightblue" stroke="midnightblue" points="710.66,-381.41 720.92,-378.76 711.25,-374.43 710.66,-381.41"/>
</g>
<!-- Node11 -->
<g id="node11" class="node">
<title>Node11</title>
<g id="a_node11"><a xlink:href="classsss_1_1WebClient.html#a12b5db6b8c667024557ab58059d39994" target="_top" xlink:title=" ">
<polygon fill="none" stroke="black" points="729,-259 729,-278 854,-278 854,-259 729,-259"/>
<text text-anchor="middle" x="791.5" y="-266" font-family="Helvetica,sans-Serif" font-size="10.00">sss::WebClient::SetPath</text>
</a>
</g>
</g>
<!-- Node3&#45;&gt;Node11 -->
<g id="edge18" class="edge">
<title>Node3&#45;&gt;Node11</title>
<path fill="none" stroke="midnightblue" d="M470.73,-284.57C537.35,-281.22 646.48,-275.74 718.41,-272.12"/>
<polygon fill="midnightblue" stroke="midnightblue" points="718.93,-275.6 728.74,-271.6 718.58,-268.61 718.93,-275.6"/>
</g>
<!-- Node13 -->
<g id="node13" class="node">
<title>Node13</title>
<g id="a_node13"><a xlink:href="classsss_1_1WebClient.html#a9bf978d95b79728f6d60fc2bdb4fe546" target="_top" xlink:title=" ">
<polygon fill="none" stroke="black" points="705,-221 705,-240 878,-240 878,-221 705,-221"/>
<text text-anchor="middle" x="791.5" y="-228" font-family="Helvetica,sans-Serif" font-size="10.00">sss::WebClient::SetReqParameters</text>
</a>
</g>
</g>
<!-- Node3&#45;&gt;Node13 -->
<g id="edge19" class="edge">
<title>Node3&#45;&gt;Node13</title>
<path fill="none" stroke="midnightblue" d="M426.22,-277.83C446.62,-264.12 486.67,-239.66 525,-230.5 582.58,-216.75 649.21,-216.79 701.32,-220.25"/>
<polygon fill="midnightblue" stroke="midnightblue" points="701.32,-223.76 711.54,-220.99 701.82,-216.78 701.32,-223.76"/>
</g>
<!-- Node14 -->
<g id="node14" class="node">
<title>Node14</title>
<g id="a_node14"><a xlink:href="classsss_1_1api_1_1S3Api.html#a70f1068d07e1d4c1be164e0cb9328cc0" target="_top" xlink:title=" ">
<polygon fill="none" stroke="black" points="532.5,-164 532.5,-183 660.5,-183 660.5,-164 532.5,-164"/>
<text text-anchor="middle" x="596.5" y="-171" font-family="Helvetica,sans-Serif" font-size="10.00">sss::api::S3Api::Endpoint</text>
</a>
</g>
</g>
<!-- Node3&#45;&gt;Node14 -->
<g id="edge13" class="edge">
<title>Node3&#45;&gt;Node14</title>
<path fill="none" stroke="midnightblue" d="M422.18,-277.77C440.66,-259.67 482.89,-220.58 525,-197.5 532.83,-193.21 541.56,-189.49 550.14,-186.34"/>
<polygon fill="midnightblue" stroke="midnightblue" points="551.39,-189.61 559.7,-183.03 549.11,-182.99 551.39,-189.61"/>
</g>
<!-- Node15 -->
<g id="node15" class="node">
<title>Node15</title>
<g id="a_node15"><a xlink:href="classsss_1_1api_1_1S3Api.html#acfffe29254323fb41231787a0afb7edc" target="_top" xlink:title=" ">
<polygon fill="none" stroke="black" points="537.5,-468 537.5,-487 655.5,-487 655.5,-468 537.5,-468"/>
<text text-anchor="middle" x="596.5" y="-475" font-family="Helvetica,sans-Serif" font-size="10.00">sss::api::S3Api::Secret</text>
</a>
</g>
</g>
<!-- Node3&#45;&gt;Node15 -->
<g id="edge14" class="edge">
<title>Node3&#45;&gt;Node15</title>
<path fill="none" stroke="midnightblue" d="M415.92,-297.01C426.86,-326.06 463.95,-414.36 525,-458.5 527.67,-460.43 530.53,-462.17 533.5,-463.72"/>
<polygon fill="midnightblue" stroke="midnightblue" points="532.17,-466.96 542.72,-467.89 535.05,-460.58 532.17,-466.96"/>
</g>
<!-- Node16 -->
<g id="node16" class="node">
<title>Node16</title>
<g id="a_node16"><a xlink:href="classsss_1_1WebClient.html#afc3b7a92568fbb1ea447918920ca266e" target="_top" xlink:title="Set endpoint: &#160;&lt;proto&gt;://&lt;server&gt;:&lt;port&gt;">
<polygon fill="none" stroke="black" points="525,-430 525,-449 668,-449 668,-430 525,-430"/>
<text text-anchor="middle" x="596.5" y="-437" font-family="Helvetica,sans-Serif" font-size="10.00">sss::WebClient::SetEndpoint</text>
</a>
</g>
</g>
<!-- Node3&#45;&gt;Node16 -->
<g id="edge15" class="edge">
<title>Node3&#45;&gt;Node16</title>
<path fill="none" stroke="midnightblue" d="M417.89,-297.27C432.01,-321.97 472.67,-387.25 525,-420.5 528.34,-422.62 531.9,-424.5 535.6,-426.18"/>
<polygon fill="midnightblue" stroke="midnightblue" points="534.4,-429.47 544.98,-429.93 537,-422.97 534.4,-429.47"/>
</g>
<!-- Node17 -->
<g id="node17" class="node">
<title>Node17</title>
<g id="a_node17"><a xlink:href="classsss_1_1WebClient.html#af6233ffd7b294e1e7e606e838dd44e9e" target="_top" xlink:title=" ">
<polygon fill="none" stroke="black" points="528,-126 528,-145 665,-145 665,-126 528,-126"/>
<text text-anchor="middle" x="596.5" y="-133" font-family="Helvetica,sans-Serif" font-size="10.00">sss::WebClient::SetMethod</text>
</a>
</g>
</g>
<!-- Node3&#45;&gt;Node17 -->
<g id="edge17" class="edge">
<title>Node3&#45;&gt;Node17</title>
<path fill="none" stroke="midnightblue" d="M417.89,-277.73C432.01,-253.03 472.67,-187.75 525,-154.5 528.34,-152.38 531.9,-150.5 535.6,-148.82"/>
<polygon fill="midnightblue" stroke="midnightblue" points="537,-152.03 544.98,-145.07 534.4,-145.53 537,-152.03"/>
</g>
<!-- Node18 -->
<g id="node18" class="node">
<title>Node18</title>
<g id="a_node18"><a xlink:href="group__Sign.html#ga3ae8e18ef70752b7369fca66c40c526b" target="_top" xlink:title="Sign headers.">
<polygon fill="none" stroke="black" points="549,-240 549,-259 644,-259 644,-240 549,-240"/>
<text text-anchor="middle" x="596.5" y="-247" font-family="Helvetica,sans-Serif" font-size="10.00">sss::SignHeaders</text>
</a>
</g>
</g>
<!-- Node3&#45;&gt;Node18 -->
<g id="edge20" class="edge">
<title>Node3&#45;&gt;Node18</title>
<path fill="none" stroke="midnightblue" d="M458.68,-277.91C483.26,-272.81 513.69,-266.49 539.6,-261.11"/>
<polygon fill="midnightblue" stroke="midnightblue" points="540.57,-264.48 549.65,-259.02 539.15,-257.63 540.57,-264.48"/>
</g>
<!-- Node6 -->
<g id="node6" class="node">
<title>Node6</title>
<g id="a_node6"><a xlink:href="classsss_1_1WebClient.html#a381f5715b7a2f19a0d4414d278874bae" target="_top" xlink:title="Clear internal buffers.">
<polygon fill="none" stroke="black" points="719.5,-335 719.5,-354 863.5,-354 863.5,-335 719.5,-335"/>
<text text-anchor="middle" x="791.5" y="-342" font-family="Helvetica,sans-Serif" font-size="10.00">sss::WebClient::ClearBuffers</text>
</a>
</g>
</g>
<!-- Node5&#45;&gt;Node6 -->
<g id="edge5" class="edge">
<title>Node5&#45;&gt;Node6</title>
<path fill="none" stroke="midnightblue" d="M653.06,-330.97C670.62,-332.7 690.4,-334.65 709.36,-336.51"/>
<polygon fill="midnightblue" stroke="midnightblue" points="709.2,-340.01 719.49,-337.51 709.88,-333.05 709.2,-340.01"/>
</g>
<!-- Node7 -->
<g id="node7" class="node">
<title>Node7</title>
<g id="a_node7"><a xlink:href="classsss_1_1WebClient.html#a96837f149bb473853a6523d096a25c56" target="_top" xlink:title="Reset read/write functions to default.">
<polygon fill="none" stroke="black" points="704,-297 704,-316 879,-316 879,-297 704,-297"/>
<text text-anchor="middle" x="791.5" y="-304" font-family="Helvetica,sans-Serif" font-size="10.00">sss::WebClient::ResetRWFunctions</text>
</a>
</g>
</g>
<!-- Node5&#45;&gt;Node7 -->
<g id="edge6" class="edge">
<title>Node5&#45;&gt;Node7</title>
<path fill="none" stroke="midnightblue" d="M653.06,-320.03C665.79,-318.78 679.68,-317.41 693.58,-316.04"/>
<polygon fill="midnightblue" stroke="midnightblue" points="694.08,-319.51 703.69,-315.05 693.39,-312.54 694.08,-319.51"/>
</g>
<!-- Node5&#45;&gt;Node10 -->
<g id="edge9" class="edge">
<title>Node5&#45;&gt;Node10</title>
<path fill="none" stroke="midnightblue" d="M626.41,-335.03C639.2,-339.33 654.39,-344.54 668,-349.5 684.13,-355.38 687.57,-358.53 704,-363.5 712.65,-366.11 721.88,-368.53 730.98,-370.7"/>
<polygon fill="midnightblue" stroke="midnightblue" points="730.23,-374.12 740.76,-372.95 731.8,-367.3 730.23,-374.12"/>
</g>
<!-- Node5&#45;&gt;Node11 -->
<g id="edge10" class="edge">
<title>Node5&#45;&gt;Node11</title>
<path fill="none" stroke="midnightblue" d="M626.41,-315.97C639.2,-311.67 654.39,-306.46 668,-301.5 684.13,-295.62 687.57,-292.47 704,-287.5 712.65,-284.89 721.88,-282.47 730.98,-280.3"/>
<polygon fill="midnightblue" stroke="midnightblue" points="731.8,-283.7 740.76,-278.05 730.23,-276.88 731.8,-283.7"/>
</g>
<!-- Node5&#45;&gt;Node12 -->
<g id="edge11" class="edge">
<title>Node5&#45;&gt;Node12</title>
<path fill="none" stroke="midnightblue" d="M609.57,-335.01C641.86,-360.44 730.47,-430.22 770.46,-461.71"/>
<polygon fill="midnightblue" stroke="midnightblue" points="768.41,-464.56 778.43,-468 772.74,-459.06 768.41,-464.56"/>
</g>
<!-- Node5&#45;&gt;Node13 -->
<g id="edge12" class="edge">
<title>Node5&#45;&gt;Node13</title>
<path fill="none" stroke="midnightblue" d="M607.79,-315.93C625.83,-299.7 664.97,-266.84 704,-249.5 709.72,-246.96 715.8,-244.75 721.99,-242.82"/>
<polygon fill="midnightblue" stroke="midnightblue" points="723.12,-246.14 731.77,-240.03 721.2,-239.41 723.12,-246.14"/>
</g>
<!-- Node8 -->
<g id="node8" class="node">
<title>Node8</title>
<g id="a_node8"><a xlink:href="classsss_1_1WebClient.html#a88dbcc61562e84aa9ebf1eabf887ac28" target="_top" xlink:title=" ">
<polygon fill="none" stroke="black" points="915,-319 915,-338 1080,-338 1080,-319 915,-319"/>
<text text-anchor="middle" x="997.5" y="-326" font-family="Helvetica,sans-Serif" font-size="10.00">sss::WebClient::SetReadFunction</text>
</a>
</g>
</g>
<!-- Node7&#45;&gt;Node8 -->
<g id="edge7" class="edge">
<title>Node7&#45;&gt;Node8</title>
<path fill="none" stroke="midnightblue" d="M879.01,-315.83C887.52,-316.75 896.18,-317.68 904.73,-318.6"/>
<polygon fill="midnightblue" stroke="midnightblue" points="904.4,-322.09 914.72,-319.68 905.15,-315.13 904.4,-322.09"/>
</g>
<!-- Node9 -->
<g id="node9" class="node">
<title>Node9</title>
<g id="a_node9"><a xlink:href="classsss_1_1WebClient.html#a002876073b3869a9b9a9d709d14f1d7e" target="_top" xlink:title=" ">
<polygon fill="none" stroke="black" points="934,-269.5 934,-299.5 1061,-299.5 1061,-269.5 934,-269.5"/>
<text text-anchor="start" x="942" y="-287.5" font-family="Helvetica,sans-Serif" font-size="10.00">sss::WebClient::SetWrite</text>
<text text-anchor="middle" x="997.5" y="-276.5" font-family="Helvetica,sans-Serif" font-size="10.00">Function</text>
</a>
</g>
</g>
<!-- Node7&#45;&gt;Node9 -->
<g id="edge8" class="edge">
<title>Node7&#45;&gt;Node9</title>
<path fill="none" stroke="midnightblue" d="M879.01,-297.17C893.87,-295.57 909.17,-293.92 923.63,-292.36"/>
<polygon fill="midnightblue" stroke="midnightblue" points="924.41,-295.79 933.98,-291.24 923.66,-288.83 924.41,-295.79"/>
</g>
<!-- Node22 -->
<g id="node22" class="node">
<title>Node22</title>
<g id="a_node22"><a xlink:href="group__Internal.html#ga6e3db8d156313abef7e2c966df1a3d7c" target="_top" xlink:title=" ">
<polygon fill="none" stroke="black" points="554.5,-6 554.5,-25 638.5,-25 638.5,-6 554.5,-6"/>
<text text-anchor="middle" x="596.5" y="-13" font-family="Helvetica,sans-Serif" font-size="10.00">sss::UrlEncode</text>
</a>
</g>
</g>
<!-- Node21&#45;&gt;Node22 -->
<g id="edge25" class="edge">
<title>Node21&#45;&gt;Node22</title>
<path fill="none" stroke="midnightblue" d="M489.05,-15.5C507.62,-15.5 527.04,-15.5 544.13,-15.5"/>
<polygon fill="midnightblue" stroke="midnightblue" points="544.44,-19 554.44,-15.5 544.44,-12 544.44,-19"/>
</g>
<!-- Node23&#45;&gt;Node17 -->
<g id="edge28" class="edge">
<title>Node23&#45;&gt;Node17</title>
<path fill="none" stroke="midnightblue" d="M482.21,-139.21C493.77,-138.84 505.82,-138.44 517.57,-138.05"/>
<polygon fill="midnightblue" stroke="midnightblue" points="517.92,-141.55 527.8,-137.72 517.69,-134.55 517.92,-141.55"/>
</g>
<!-- Node23&#45;&gt;Node20 -->
<g id="edge27" class="edge">
<title>Node23&#45;&gt;Node20</title>
<path fill="none" stroke="midnightblue" d="M474.97,-126.48C498.22,-120.89 524.27,-114.63 546.18,-109.36"/>
<polygon fill="midnightblue" stroke="midnightblue" points="547.03,-112.75 555.94,-107.01 545.4,-105.95 547.03,-112.75"/>
</g>
</g>
</svg>
        <g id="navigator" transform="translate(0 0)" fill="#404254">
                <rect fill="#f2f5e9" fill-opacity="0.5" stroke="#606060" stroke-width=".5" x="0" y="0" width="60" height="60"/>
                <use id="zoomplus" xlink:href="#zoomPlus" x="17" y="9" onmousedown="handleZoom(evt,'in')"/>
                <use id="zoomminus" xlink:href="#zoomMin" x="42" y="9" onmousedown="handleZoom(evt,'out')"/>
                <use id="reset" xlink:href="#resetDef" x="30" y="36" onmousedown="handleReset()"/>
                <g id="arrowUp" xlink:href="#dirArrow" transform="translate(30 24)" onmousedown="handlePan(0,-1)">
                  <use xlink:href="#rim" fill="#404040">
                        <set attributeName="fill" to="#808080" begin="arrowUp.mouseover" end="arrowUp.mouseout"/>
                  </use>
                  <path fill="none" stroke="white" stroke-width="1.5" d="M0,-3.0v7 M-2.5,-0.5L0,-3.0L2.5,-0.5"/>
                </g>
                <g id="arrowRight" xlink:href="#dirArrow" transform="rotate(90) translate(36 -43)" onmousedown="handlePan(1,0)">
                  <use xlink:href="#rim" fill="#404040">
                        <set attributeName="fill" to="#808080" begin="arrowRight.mouseover" end="arrowRight.mouseout"/>
                  </use>
                  <path fill="none" stroke="white" stroke-width="1.5" d="M0,-3.0v7 M-2.5,-0.5L0,-3.0L2.5,-0.5"/>
                </g>
                <g id="arrowDown" xlink:href="#dirArrow" transform="rotate(180) translate(-30 -48)" onmousedown="handlePan(0,1)">
                  <use xlink:href="#rim" fill="#404040">
                        <set attributeName="fill" to="#808080" begin="arrowDown.mouseover" end="arrowDown.mouseout"/>
                  </use>
                  <path fill="none" stroke="white" stroke-width="1.5" d="M0,-3.0v7 M-2.5,-0.5L0,-3.0L2.5,-0.5"/>
                </g>
                <g id="arrowLeft" xlink:href="#dirArrow" transform="rotate(270) translate(-36 17)" onmousedown="handlePan(-1,0)">
                  <use xlink:href="#rim" fill="#404040">
                        <set attributeName="fill" to="#808080" begin="arrowLeft.mouseover" end="arrowLeft.mouseout"/>
                  </use>
                  <path fill="none" stroke="white" stroke-width="1.5" d="M0,-3.0v7 M-2.5,-0.5L0,-3.0L2.5,-0.5"/>
                </g>
        </g>
        <svg viewBox="0 0 15 15" width="100%" height="30px" preserveAspectRatio="xMaxYMin meet">
         <g id="arrow_out" transform="scale(0.3 0.3)">
          <a xlink:href="classsss_1_1api_1_1S3Api_a4ea265566c3c4335ec01201cdc4410c6_cgraph_org.svg" target="_base">
           <rect id="button" ry="5" rx="5" y="6" x="6" height="38" width="38"
                fill="#f2f5e9" fill-opacity="0.5" stroke="#606060" stroke-width="1.0"/>
           <path id="arrow"
             d="M 11.500037,31.436501 C 11.940474,20.09759 22.043105,11.32322 32.158766,21.979434 L 37.068811,17.246167 C 37.068811,17.246167 37.088388,32 37.088388,32 L 22.160133,31.978069 C 22.160133,31.978069 26.997745,27.140456 26.997745,27.140456 C 18.528582,18.264221 13.291696,25.230495 11.500037,31.436501 z"
             style="fill:#404040;"/>
          </a>
         </g>
        </svg>
</svg>
