<?xml version="1.0" encoding="UTF-8" standalone="no"?>
<!DOCTYPE svg PUBLIC "-//W3C//DTD SVG 1.1//EN"
 "http://www.w3.org/Graphics/SVG/1.1/DTD/svg11.dtd">
<!-- Generated by graphviz version 2.43.0 (0)
 -->
<!-- Title: /home/ugovaretto/projects/uv&#45;cpp/s3client/repo/lib/include/common.h Pages: 1 -->
<svg width="138pt" height="106pt"
 viewBox="0.00 0.00 138.00 106.00" xmlns="http://www.w3.org/2000/svg" xmlns:xlink="http://www.w3.org/1999/xlink">
<g id="graph0" class="graph" transform="scale(1 1) rotate(0) translate(4 102)">
<title>/home/ugovaretto/projects/uv&#45;cpp/s3client/repo/lib/include/common.h</title>
<!-- Node1 -->
<g id="node1" class="node">
<title>Node1</title>
<g id="a_node1"><a xlink:title="Common definitions.">
<polygon fill="#bfbfbf" stroke="black" points="0,-56.5 0,-97.5 130,-97.5 130,-56.5 0,-56.5"/>
<text text-anchor="start" x="8" y="-85.5" font-family="Helvetica,sans-Serif" font-size="10.00">/home/ugovaretto/projects</text>
<text text-anchor="start" x="8" y="-74.5" font-family="Helvetica,sans-Serif" font-size="10.00">/uv&#45;cpp/s3client/repo/lib</text>
<text text-anchor="middle" x="65" y="-63.5" font-family="Helvetica,sans-Serif" font-size="10.00">/include/common.h</text>
</a>
</g>
</g>
<!-- Node2 -->
<g id="node2" class="node">
<title>Node2</title>
<g id="a_node2"><a xlink:title=" ">
<polygon fill="none" stroke="#bfbfbf" points="19.5,-0.5 19.5,-19.5 54.5,-19.5 54.5,-0.5 19.5,-0.5"/>
<text text-anchor="middle" x="37" y="-7.5" font-family="Helvetica,sans-Serif" font-size="10.00">map</text>
</a>
</g>
</g>
<!-- Node1&#45;&gt;Node2 -->
<g id="edge1" class="edge">
<title>Node1&#45;&gt;Node2</title>
<path fill="none" stroke="midnightblue" d="M56.6,-56.5C52.84,-47.78 48.44,-37.56 44.76,-29.02"/>
<polygon fill="midnightblue" stroke="midnightblue" points="47.9,-27.45 40.73,-19.65 41.47,-30.22 47.9,-27.45"/>
</g>
<!-- Node3 -->
<g id="node3" class="node">
<title>Node3</title>
<g id="a_node3"><a xlink:title=" ">
<polygon fill="none" stroke="#bfbfbf" points="72.5,-0.5 72.5,-19.5 113.5,-19.5 113.5,-0.5 72.5,-0.5"/>
<text text-anchor="middle" x="93" y="-7.5" font-family="Helvetica,sans-Serif" font-size="10.00">string</text>
</a>
</g>
</g>
<!-- Node1&#45;&gt;Node3 -->
<g id="edge2" class="edge">
<title>Node1&#45;&gt;Node3</title>
<path fill="none" stroke="midnightblue" d="M73.4,-56.5C77.16,-47.78 81.56,-37.56 85.24,-29.02"/>
<polygon fill="midnightblue" stroke="midnightblue" points="88.53,-30.22 89.27,-19.65 82.1,-27.45 88.53,-30.22"/>
</g>
</g>
</svg>
