<?xml version="1.0" encoding="UTF-8" standalone="no"?>
<!DOCTYPE svg PUBLIC "-//W3C//DTD SVG 1.1//EN"
 "http://www.w3.org/Graphics/SVG/1.1/DTD/svg11.dtd">
<!-- Generated by graphviz version 8.0.5 (20230430.1635)
 -->
<!-- Title: /Users/ugovaretto/projects/s3client/repo/lib/include/common.h Pages: 1 -->
<!--zoomable 439 -->
<svg id="main" version="1.1" xmlns="http://www.w3.org/2000/svg" xmlns:xlink="http://www.w3.org/1999/xlink" xml:space="preserve" onload="init(evt)">
<style type="text/css"><![CDATA[
.edge:hover path { stroke: red; }
.edge:hover polygon { stroke: red; fill: red; }
]]></style>
<script type="text/javascript"><![CDATA[
var edges = document.getElementsByTagName('g');
if (edges && edges.length) {
  for (var i=0;i<edges.length;i++) {
    if (edges[i].id.substr(0,4)=='edge') {
      edges[i].setAttribute('class','edge');
    }
  }
}
]]></script>
        <defs>
                <circle id="rim" cx="0" cy="0" r="7"/>
                <circle id="rim2" cx="0" cy="0" r="3.5"/>
                <g id="zoomPlus">
                        <use xlink:href="#rim" fill="#404040">
                                <set attributeName="fill" to="#808080" begin="zoomplus.mouseover" end="zoomplus.mouseout"/>
                        </use>
                        <path d="M-4,0h8M0,-4v8" fill="none" stroke="white" stroke-width="1.5" pointer-events="none"/>
                </g>
                <g id="zoomMin">
                        <use xlink:href="#rim" fill="#404040">
                                <set attributeName="fill" to="#808080" begin="zoomminus.mouseover" end="zoomminus.mouseout"/>
                        </use>
                        <path d="M-4,0h8" fill="none" stroke="white" stroke-width="1.5" pointer-events="none"/>
                </g>
                <g id="dirArrow">
                        <path fill="none" stroke="white" stroke-width="1.5" d="M0,-3.0v7 M-2.5,-0.5L0,-3.0L2.5,-0.5"/>
                </g>
               <g id="resetDef">
                       <use xlink:href="#rim2" fill="#404040">
                               <set attributeName="fill" to="#808080" begin="reset.mouseover" end="reset.mouseout"/>
                       </use>
               </g>
        </defs>

<script type="text/javascript">
var viewWidth = 842;
var viewHeight = 439;
var sectionId = 'dynsection-1';
</script>
<script xlink:href="svgpan.js"/>
<svg id="graph" class="graph">
<g id="viewport">
<title>/Users/ugovaretto/projects/s3client/repo/lib/include/common.h</title>
<!-- Node1 -->
<g id="node1" class="node">
<title>Node1</title>
<g id="a_node1"><a xlink:title="Common definitions.">
<polygon fill="#999999" stroke="#666666" points="457.5,-430.5 326,-430.5 326,-388.75 457.5,-388.75 457.5,-430.5"/>
<text text-anchor="start" x="334" y="-417" font-family="Helvetica,sans-Serif" font-size="10.00">/Users/ugovaretto/projects</text>
<text text-anchor="start" x="334" y="-405.75" font-family="Helvetica,sans-Serif" font-size="10.00">/s3client/repo/lib/include</text>
<text text-anchor="middle" x="391.75" y="-394.5" font-family="Helvetica,sans-Serif" font-size="10.00">/common.h</text>
</a>
</g>
</g>
<!-- Node2 -->
<g id="node2" class="node">
<title>Node2</title>
<g id="a_node2"><a xlink:href="aws__sign_8h.html" target="_top" xlink:title="Public interface to signing URLs and HTTP headers with the S3v4 protocol standard.">
<polygon fill="white" stroke="#666666" points="344.5,-275 213,-275 213,-233.25 344.5,-233.25 344.5,-275"/>
<text text-anchor="start" x="221" y="-261.5" font-family="Helvetica,sans-Serif" font-size="10.00">/Users/ugovaretto/projects</text>
<text text-anchor="start" x="221" y="-250.25" font-family="Helvetica,sans-Serif" font-size="10.00">/s3client/repo/lib/include</text>
<text text-anchor="middle" x="278.75" y="-239" font-family="Helvetica,sans-Serif" font-size="10.00">/aws_sign.h</text>
</a>
</g>
</g>
<!-- Node1&#45;&gt;Node2 -->
<g id="edge1" class="edge">
<title>Node1&#45;&gt;Node2</title>
<path fill="none" stroke="#63b8ff" d="M370.72,-380.06C348.26,-349.55 313.24,-301.98 293.53,-275.2"/>
<polygon fill="#63b8ff" stroke="#63b8ff" points="368.23,-381.58 376.98,-387.56 373.87,-377.43 368.23,-381.58"/>
</g>
<!-- Node6 -->
<g id="node6" class="node">
<title>Node6</title>
<g id="a_node6"><a xlink:href="s3-client_8h.html" target="_top" xlink:title="declaration of functions and data types for sending S3 requests, signing URLs and downloading and upl...">
<polygon fill="white" stroke="#666666" points="379.5,-197.25 248,-197.25 248,-155.5 379.5,-155.5 379.5,-197.25"/>
<text text-anchor="start" x="256" y="-183.75" font-family="Helvetica,sans-Serif" font-size="10.00">/Users/ugovaretto/projects</text>
<text text-anchor="start" x="256" y="-172.5" font-family="Helvetica,sans-Serif" font-size="10.00">/s3client/repo/lib/include</text>
<text text-anchor="middle" x="313.75" y="-161.25" font-family="Helvetica,sans-Serif" font-size="10.00">/s3&#45;client.h</text>
</a>
</g>
</g>
<!-- Node1&#45;&gt;Node6 -->
<g id="edge13" class="edge">
<title>Node1&#45;&gt;Node6</title>
<path fill="none" stroke="#63b8ff" d="M388.87,-377.56C384.68,-341.55 374.94,-281.05 353.75,-233.25 348.09,-220.49 339.25,-207.72 331.32,-197.62"/>
<polygon fill="#63b8ff" stroke="#63b8ff" points="385.49,-377.78 390.05,-387.34 392.45,-377.02 385.49,-377.78"/>
</g>
<!-- Node11 -->
<g id="node11" class="node">
<title>Node11</title>
<g id="a_node11"><a xlink:href="response__parser_8h.html" target="_top" xlink:title="Functions to parse XML and HTTP headers.">
<polygon fill="white" stroke="#666666" points="223.5,-352.75 92,-352.75 92,-311 223.5,-311 223.5,-352.75"/>
<text text-anchor="start" x="100" y="-339.25" font-family="Helvetica,sans-Serif" font-size="10.00">/Users/ugovaretto/projects</text>
<text text-anchor="start" x="100" y="-328" font-family="Helvetica,sans-Serif" font-size="10.00">/s3client/repo/lib/include</text>
<text text-anchor="middle" x="157.75" y="-316.75" font-family="Helvetica,sans-Serif" font-size="10.00">/response_parser.h</text>
</a>
</g>
</g>
<!-- Node1&#45;&gt;Node11 -->
<g id="edge11" class="edge">
<title>Node1&#45;&gt;Node11</title>
<path fill="none" stroke="#63b8ff" d="M318.59,-384.94C287.17,-374.77 250.82,-363 220.63,-353.23"/>
<polygon fill="#63b8ff" stroke="#63b8ff" points="317.45,-388.58 328.04,-388.33 319.61,-381.92 317.45,-388.58"/>
</g>
<!-- Node12 -->
<g id="node12" class="node">
<title>Node12</title>
<g id="a_node12"><a xlink:href="url__utility_8h.html" target="_top" xlink:title="Internal utility functions to process and parse text and URLs and create S3 signature keys.">
<polygon fill="white" stroke="#666666" points="570.5,-352.75 439,-352.75 439,-311 570.5,-311 570.5,-352.75"/>
<text text-anchor="start" x="447" y="-339.25" font-family="Helvetica,sans-Serif" font-size="10.00">/Users/ugovaretto/projects</text>
<text text-anchor="start" x="447" y="-328" font-family="Helvetica,sans-Serif" font-size="10.00">/s3client/repo/lib/include</text>
<text text-anchor="middle" x="504.75" y="-316.75" font-family="Helvetica,sans-Serif" font-size="10.00">/url_utility.h</text>
</a>
</g>
</g>
<!-- Node1&#45;&gt;Node12 -->
<g id="edge14" class="edge">
<title>Node1&#45;&gt;Node12</title>
<path fill="none" stroke="#63b8ff" d="M431.09,-382.26C445.28,-372.74 461.07,-362.15 474.38,-353.23"/>
<polygon fill="#63b8ff" stroke="#63b8ff" points="429.39,-379.85 423.03,-388.33 433.29,-385.66 429.39,-379.85"/>
</g>
<!-- Node13 -->
<g id="node13" class="node">
<title>Node13</title>
<g id="a_node13"><a xlink:href="webclient_8h.html" target="_top" xlink:title="declaration of WebClient class wrapping libcurl to send web requests.">
<polygon fill="white" stroke="#666666" points="532.5,-275 401,-275 401,-233.25 532.5,-233.25 532.5,-275"/>
<text text-anchor="start" x="409" y="-261.5" font-family="Helvetica,sans-Serif" font-size="10.00">/Users/ugovaretto/projects</text>
<text text-anchor="start" x="409" y="-250.25" font-family="Helvetica,sans-Serif" font-size="10.00">/s3client/repo/lib/include</text>
<text text-anchor="middle" x="466.75" y="-239" font-family="Helvetica,sans-Serif" font-size="10.00">/webclient.h</text>
</a>
</g>
</g>
<!-- Node1&#45;&gt;Node13 -->
<g id="edge22" class="edge">
<title>Node1&#45;&gt;Node13</title>
<path fill="none" stroke="#63b8ff" d="M401.75,-378.05C408.63,-358.43 418.52,-332.66 429.75,-311 436.12,-298.71 444.56,-285.77 451.77,-275.44"/>
<polygon fill="#63b8ff" stroke="#63b8ff" points="398.19,-376.66 398.25,-387.26 404.81,-378.93 398.19,-376.66"/>
</g>
<!-- Node14 -->
<g id="node14" class="node">
<title>Node14</title>
<g id="a_node14"><a xlink:href="webclient_8cpp.html" target="_top" xlink:title="implementation of WebClient class, wrapper around libcurl">
<polygon fill="white" stroke="#666666" points="564.12,-191.62 397.38,-191.62 397.38,-161.12 564.12,-161.12 564.12,-191.62"/>
<text text-anchor="start" x="405.38" y="-178.12" font-family="Helvetica,sans-Serif" font-size="10.00">/Users/ugovaretto/projects</text>
<text text-anchor="middle" x="480.75" y="-166.88" font-family="Helvetica,sans-Serif" font-size="10.00">/s3client/repo/lib/src/webclient.cpp</text>
</a>
</g>
</g>
<!-- Node1&#45;&gt;Node14 -->
<g id="edge23" class="edge">
<title>Node1&#45;&gt;Node14</title>
<path fill="none" stroke="#63b8ff" d="M468.38,-395.42C514.13,-385.8 565.96,-371.23 579.75,-352.75 621.04,-297.4 539.7,-223.07 500.36,-191.99"/>
<polygon fill="#63b8ff" stroke="#63b8ff" points="467.92,-392.15 458.82,-397.58 469.32,-399 467.92,-392.15"/>
</g>
<!-- Node3 -->
<g id="node3" class="node">
<title>Node3</title>
<g id="a_node3"><a xlink:href="s3-api_8h.html" target="_top" xlink:title="declarations of S3Api class.">
<polygon fill="white" stroke="#666666" points="206.5,-119.5 75,-119.5 75,-77.75 206.5,-77.75 206.5,-119.5"/>
<text text-anchor="start" x="83" y="-106" font-family="Helvetica,sans-Serif" font-size="10.00">/Users/ugovaretto/projects</text>
<text text-anchor="start" x="83" y="-94.75" font-family="Helvetica,sans-Serif" font-size="10.00">/s3client/repo/lib/include</text>
<text text-anchor="middle" x="140.75" y="-83.5" font-family="Helvetica,sans-Serif" font-size="10.00">/s3&#45;api.h</text>
</a>
</g>
</g>
<!-- Node2&#45;&gt;Node3 -->
<g id="edge2" class="edge">
<title>Node2&#45;&gt;Node3</title>
<path fill="none" stroke="#63b8ff" d="M239.18,-226.58C227.73,-217.94 215.66,-207.83 205.75,-197.25 183.21,-173.17 163.16,-140.47 151.49,-119.71"/>
<polygon fill="#63b8ff" stroke="#63b8ff" points="236.63,-229.79 246.76,-232.88 240.77,-224.14 236.63,-229.79"/>
</g>
<!-- Node2&#45;&gt;Node6 -->
<g id="edge5" class="edge">
<title>Node2&#45;&gt;Node6</title>
<path fill="none" stroke="#63b8ff" d="M292.72,-222.9C296.62,-214.45 300.77,-205.46 304.34,-197.73"/>
<polygon fill="#63b8ff" stroke="#63b8ff" points="289.15,-221.28 288.13,-231.83 295.5,-224.22 289.15,-221.28"/>
</g>
<!-- Node4 -->
<g id="node4" class="node">
<title>Node4</title>
<g id="a_node4"><a xlink:href="xmlstreams_8h.html" target="_top" xlink:title="xml parser and generator.">
<polygon fill="white" stroke="#666666" points="131.5,-41.75 0,-41.75 0,0 131.5,0 131.5,-41.75"/>
<text text-anchor="start" x="8" y="-28.25" font-family="Helvetica,sans-Serif" font-size="10.00">/Users/ugovaretto/projects</text>
<text text-anchor="start" x="8" y="-17" font-family="Helvetica,sans-Serif" font-size="10.00">/s3client/repo/lib/include</text>
<text text-anchor="middle" x="65.75" y="-5.75" font-family="Helvetica,sans-Serif" font-size="10.00">/xmlstreams.h</text>
</a>
</g>
</g>
<!-- Node3&#45;&gt;Node4 -->
<g id="edge3" class="edge">
<title>Node3&#45;&gt;Node4</title>
<path fill="none" stroke="#63b8ff" d="M113.02,-69.61C104.03,-60.53 94.23,-50.64 85.9,-42.23"/>
<polygon fill="#63b8ff" stroke="#63b8ff" points="110.13,-71.68 119.65,-76.33 115.1,-66.76 110.13,-71.68"/>
</g>
<!-- Node5 -->
<g id="node5" class="node">
<title>Node5</title>
<g id="a_node5"><a xlink:href="bucket-test_8cpp.html" target="_top" xlink:title="bucket tests">
<polygon fill="white" stroke="#666666" points="281.5,-41.75 150,-41.75 150,0 281.5,0 281.5,-41.75"/>
<text text-anchor="start" x="158" y="-28.25" font-family="Helvetica,sans-Serif" font-size="10.00">/Users/ugovaretto/projects</text>
<text text-anchor="start" x="158" y="-17" font-family="Helvetica,sans-Serif" font-size="10.00">/s3client/repo/test/api</text>
<text text-anchor="middle" x="215.75" y="-5.75" font-family="Helvetica,sans-Serif" font-size="10.00">/bucket&#45;test.cpp</text>
</a>
</g>
</g>
<!-- Node3&#45;&gt;Node5 -->
<g id="edge4" class="edge">
<title>Node3&#45;&gt;Node5</title>
<path fill="none" stroke="#63b8ff" d="M168.48,-69.61C177.47,-60.53 187.27,-50.64 195.6,-42.23"/>
<polygon fill="#63b8ff" stroke="#63b8ff" points="166.4,-66.76 161.85,-76.33 171.37,-71.68 166.4,-66.76"/>
</g>
<!-- Node6&#45;&gt;Node3 -->
<g id="edge10" class="edge">
<title>Node6&#45;&gt;Node3</title>
<path fill="none" stroke="#63b8ff" d="M257.53,-150.76C234.8,-140.81 208.88,-129.46 187.24,-119.98"/>
<polygon fill="#63b8ff" stroke="#63b8ff" points="255.82,-154.27 266.39,-155.08 258.63,-147.86 255.82,-154.27"/>
</g>
<!-- Node7 -->
<g id="node7" class="node">
<title>Node7</title>
<g id="a_node7"><a xlink:href="parallel__download_8cpp.html" target="_top" xlink:title="Parallel object download download from S3 service.">
<polygon fill="white" stroke="#666666" points="356.88,-119.5 224.62,-119.5 224.62,-77.75 356.88,-77.75 356.88,-119.5"/>
<text text-anchor="start" x="232.62" y="-106" font-family="Helvetica,sans-Serif" font-size="10.00">/Users/ugovaretto/projects</text>
<text text-anchor="start" x="232.62" y="-94.75" font-family="Helvetica,sans-Serif" font-size="10.00">/s3client/repo/apps/parallel</text>
<text text-anchor="middle" x="290.75" y="-83.5" font-family="Helvetica,sans-Serif" font-size="10.00">_download.cpp</text>
</a>
</g>
</g>
<!-- Node6&#45;&gt;Node7 -->
<g id="edge6" class="edge">
<title>Node6&#45;&gt;Node7</title>
<path fill="none" stroke="#63b8ff" d="M304.4,-144.59C301.89,-136.3 299.23,-127.54 296.93,-119.98"/>
<polygon fill="#63b8ff" stroke="#63b8ff" points="301.33,-145.52 307.59,-154.08 308.03,-143.49 301.33,-145.52"/>
</g>
<!-- Node8 -->
<g id="node8" class="node">
<title>Node8</title>
<g id="a_node8"><a xlink:href="parallel__upload_8cpp.html" target="_top" xlink:title="Parallel upload to S3 service.">
<polygon fill="white" stroke="#666666" points="658.88,-119.5 526.62,-119.5 526.62,-77.75 658.88,-77.75 658.88,-119.5"/>
<text text-anchor="start" x="534.62" y="-106" font-family="Helvetica,sans-Serif" font-size="10.00">/Users/ugovaretto/projects</text>
<text text-anchor="start" x="534.62" y="-94.75" font-family="Helvetica,sans-Serif" font-size="10.00">/s3client/repo/apps/parallel</text>
<text text-anchor="middle" x="592.75" y="-83.5" font-family="Helvetica,sans-Serif" font-size="10.00">_upload.cpp</text>
</a>
</g>
</g>
<!-- Node6&#45;&gt;Node8 -->
<g id="edge7" class="edge">
<title>Node6&#45;&gt;Node8</title>
<path fill="none" stroke="#63b8ff" d="M390.46,-154.55C432.98,-143 485.34,-128.79 526.14,-117.71"/>
<polygon fill="#63b8ff" stroke="#63b8ff" points="389.6,-151.43 380.87,-157.42 391.44,-158.18 389.6,-151.43"/>
</g>
<!-- Node9 -->
<g id="node9" class="node">
<title>Node9</title>
<g id="a_node9"><a xlink:href="presign__url_8cpp.html" target="_top" xlink:title="Presign URL.">
<polygon fill="white" stroke="#666666" points="508.25,-119.5 375.25,-119.5 375.25,-77.75 508.25,-77.75 508.25,-119.5"/>
<text text-anchor="start" x="383.25" y="-106" font-family="Helvetica,sans-Serif" font-size="10.00">/Users/ugovaretto/projects</text>
<text text-anchor="start" x="383.25" y="-94.75" font-family="Helvetica,sans-Serif" font-size="10.00">/s3client/repo/apps/presign</text>
<text text-anchor="middle" x="441.75" y="-83.5" font-family="Helvetica,sans-Serif" font-size="10.00">_url.cpp</text>
</a>
</g>
</g>
<!-- Node6&#45;&gt;Node9 -->
<g id="edge8" class="edge">
<title>Node6&#45;&gt;Node9</title>
<path fill="none" stroke="#63b8ff" d="M357.39,-149.55C373.71,-139.89 391.99,-129.07 407.35,-119.98"/>
<polygon fill="#63b8ff" stroke="#63b8ff" points="355.88,-146.97 349.05,-155.08 359.44,-152.99 355.88,-146.97"/>
</g>
<!-- Node10 -->
<g id="node10" class="node">
<title>Node10</title>
<g id="a_node10"><a xlink:href="apps_2s3-client_8cpp.html" target="_top" xlink:title="Send S3v4&#45;signed requests to S3 andpoint and print raw responses.">
<polygon fill="white" stroke="#666666" points="834.25,-113.88 677.25,-113.88 677.25,-83.38 834.25,-83.38 834.25,-113.88"/>
<text text-anchor="start" x="685.25" y="-100.38" font-family="Helvetica,sans-Serif" font-size="10.00">/Users/ugovaretto/projects</text>
<text text-anchor="middle" x="755.75" y="-89.12" font-family="Helvetica,sans-Serif" font-size="10.00">/s3client/repo/apps/s3&#45;client.cpp</text>
</a>
</g>
</g>
<!-- Node6&#45;&gt;Node10 -->
<g id="edge9" class="edge">
<title>Node6&#45;&gt;Node10</title>
<path fill="none" stroke="#63b8ff" d="M390.47,-155.3C513.32,-131.95 548,-140.7 667.75,-119.5 676.23,-118 685.13,-116.22 693.88,-114.36"/>
<polygon fill="#63b8ff" stroke="#63b8ff" points="390.05,-152.01 380.89,-157.34 391.38,-158.88 390.05,-152.01"/>
</g>
<!-- Node11&#45;&gt;Node3 -->
<g id="edge12" class="edge">
<title>Node11&#45;&gt;Node3</title>
<path fill="none" stroke="#63b8ff" d="M155.49,-300.08C151.95,-252.01 145.22,-160.45 142.24,-119.86"/>
<polygon fill="#63b8ff" stroke="#63b8ff" points="152.05,-300.04 156.27,-309.76 159.03,-299.53 152.05,-300.04"/>
</g>
<!-- Node12&#45;&gt;Node2 -->
<g id="edge17" class="edge">
<title>Node12&#45;&gt;Node2</title>
<path fill="none" stroke="#63b8ff" d="M434.09,-307.19C403.75,-297.02 368.64,-285.25 339.48,-275.48"/>
<polygon fill="#63b8ff" stroke="#63b8ff" points="432.59,-310.72 443.19,-310.58 434.82,-304.08 432.59,-310.72"/>
</g>
<!-- Node12&#45;&gt;Node8 -->
<g id="edge15" class="edge">
<title>Node12&#45;&gt;Node8</title>
<path fill="none" stroke="#63b8ff" d="M525.8,-301.54C531.35,-293.18 537.09,-283.91 541.75,-275 559,-242.04 562.09,-232.89 572.75,-197.25 580.64,-170.9 586.44,-139.62 589.71,-119.7"/>
<polygon fill="#63b8ff" stroke="#63b8ff" points="522.41,-299.3 519.68,-309.54 528.2,-303.24 522.41,-299.3"/>
</g>
<!-- Node12&#45;&gt;Node10 -->
<g id="edge16" class="edge">
<title>Node12&#45;&gt;Node10</title>
<path fill="none" stroke="#63b8ff" d="M534.67,-303.31C588.22,-253.97 698.68,-152.21 739.83,-114.29"/>
<polygon fill="#63b8ff" stroke="#63b8ff" points="532.57,-300.41 527.59,-309.76 537.31,-305.56 532.57,-300.41"/>
</g>
<!-- Node12&#45;&gt;Node13 -->
<g id="edge18" class="edge">
<title>Node12&#45;&gt;Node13</title>
<path fill="none" stroke="#63b8ff" d="M489.73,-300.93C485.45,-292.39 480.88,-283.3 476.96,-275.48"/>
<polygon fill="#63b8ff" stroke="#63b8ff" points="486.95,-302.21 494.57,-309.58 493.21,-299.07 486.95,-302.21"/>
</g>
<!-- Node13&#45;&gt;Node3 -->
<g id="edge19" class="edge">
<title>Node13&#45;&gt;Node3</title>
<path fill="none" stroke="#63b8ff" d="M390.12,-239.76C334.15,-229 263.83,-213.11 238.75,-197.25 218.52,-184.46 221.38,-172.71 204.75,-155.5 192.66,-142.98 178.11,-130.13 165.95,-119.92"/>
<polygon fill="#63b8ff" stroke="#63b8ff" points="389.27,-243.35 399.75,-241.78 390.58,-236.48 389.27,-243.35"/>
</g>
<!-- Node13&#45;&gt;Node6 -->
<g id="edge20" class="edge">
<title>Node13&#45;&gt;Node6</title>
<path fill="none" stroke="#63b8ff" d="M415.95,-227.97C396.11,-218.15 373.66,-207.04 354.86,-197.73"/>
<polygon fill="#63b8ff" stroke="#63b8ff" points="414.23,-231.53 424.75,-232.83 417.34,-225.25 414.23,-231.53"/>
</g>
<!-- Node13&#45;&gt;Node14 -->
<g id="edge21" class="edge">
<title>Node13&#45;&gt;Node14</title>
<path fill="none" stroke="#63b8ff" d="M472.46,-222.23C474.41,-211.67 476.5,-200.35 478.1,-191.73"/>
<polygon fill="#63b8ff" stroke="#63b8ff" points="468.88,-221.36 470.5,-231.83 475.76,-222.63 468.88,-221.36"/>
</g>
</g>
</svg>
        <g id="navigator" transform="translate(0 0)" fill="#404254">
                <rect fill="#f2f5e9" fill-opacity="0.5" stroke="#606060" stroke-width=".5" x="0" y="0" width="60" height="60"/>
                <use id="zoomplus" xlink:href="#zoomPlus" x="17" y="9" onmousedown="handleZoom(evt,'in')"/>
                <use id="zoomminus" xlink:href="#zoomMin" x="42" y="9" onmousedown="handleZoom(evt,'out')"/>
                <use id="reset" xlink:href="#resetDef" x="30" y="36" onmousedown="handleReset()"/>
                <g id="arrowUp" xlink:href="#dirArrow" transform="translate(30 24)" onmousedown="handlePan(0,-1)">
                  <use xlink:href="#rim" fill="#404040">
                        <set attributeName="fill" to="#808080" begin="arrowUp.mouseover" end="arrowUp.mouseout"/>
                  </use>
                  <path fill="none" stroke="white" stroke-width="1.5" d="M0,-3.0v7 M-2.5,-0.5L0,-3.0L2.5,-0.5"/>
                </g>
                <g id="arrowRight" xlink:href="#dirArrow" transform="rotate(90) translate(36 -43)" onmousedown="handlePan(1,0)">
                  <use xlink:href="#rim" fill="#404040">
                        <set attributeName="fill" to="#808080" begin="arrowRight.mouseover" end="arrowRight.mouseout"/>
                  </use>
                  <path fill="none" stroke="white" stroke-width="1.5" d="M0,-3.0v7 M-2.5,-0.5L0,-3.0L2.5,-0.5"/>
                </g>
                <g id="arrowDown" xlink:href="#dirArrow" transform="rotate(180) translate(-30 -48)" onmousedown="handlePan(0,1)">
                  <use xlink:href="#rim" fill="#404040">
                        <set attributeName="fill" to="#808080" begin="arrowDown.mouseover" end="arrowDown.mouseout"/>
                  </use>
                  <path fill="none" stroke="white" stroke-width="1.5" d="M0,-3.0v7 M-2.5,-0.5L0,-3.0L2.5,-0.5"/>
                </g>
                <g id="arrowLeft" xlink:href="#dirArrow" transform="rotate(270) translate(-36 17)" onmousedown="handlePan(-1,0)">
                  <use xlink:href="#rim" fill="#404040">
                        <set attributeName="fill" to="#808080" begin="arrowLeft.mouseover" end="arrowLeft.mouseout"/>
                  </use>
                  <path fill="none" stroke="white" stroke-width="1.5" d="M0,-3.0v7 M-2.5,-0.5L0,-3.0L2.5,-0.5"/>
                </g>
        </g>
        <svg viewBox="0 0 15 15" width="100%" height="30px" preserveAspectRatio="xMaxYMin meet">
         <g id="arrow_out" transform="scale(0.3 0.3)">
          <a xlink:href="common_8h__dep__incl_org.svg" target="_base">
           <rect id="button" ry="5" rx="5" y="6" x="6" height="38" width="38"
                fill="#f2f5e9" fill-opacity="0.5" stroke="#606060" stroke-width="1.0"/>
           <path id="arrow"
             d="M 11.500037,31.436501 C 11.940474,20.09759 22.043105,11.32322 32.158766,21.979434 L 37.068811,17.246167 C 37.068811,17.246167 37.088388,32 37.088388,32 L 22.160133,31.978069 C 22.160133,31.978069 26.997745,27.140456 26.997745,27.140456 C 18.528582,18.264221 13.291696,25.230495 11.500037,31.436501 z"
             style="fill:#404040;"/>
          </a>
         </g>
        </svg>
</svg>
