<?xml version="1.0" encoding="UTF-8" standalone="no"?>
<!DOCTYPE svg PUBLIC "-//W3C//DTD SVG 1.1//EN"
 "http://www.w3.org/Graphics/SVG/1.1/DTD/svg11.dtd">
<!-- Generated by graphviz version 8.0.5 (20230430.1635)
 -->
<!-- Title: /Users/ugovaretto/projects/s3client/repo/lib/include/common.h Pages: 1 -->
<svg width="767pt" height="439pt"
 viewBox="0.00 0.00 767.25 438.50" xmlns="http://www.w3.org/2000/svg" xmlns:xlink="http://www.w3.org/1999/xlink">
<g id="graph0" class="graph" transform="scale(1 1) rotate(0) translate(4 434.5)">
<title>/Users/ugovaretto/projects/s3client/repo/lib/include/common.h</title>
<!-- Node1 -->
<g id="node1" class="node">
<title>Node1</title>
<g id="a_node1"><a xlink:title="Common definitions.">
<polygon fill="#999999" stroke="#666666" points="382.5,-430.5 251,-430.5 251,-388.75 382.5,-388.75 382.5,-430.5"/>
<text text-anchor="start" x="259" y="-417" font-family="Helvetica,sans-Serif" font-size="10.00">/Users/ugovaretto/projects</text>
<text text-anchor="start" x="259" y="-405.75" font-family="Helvetica,sans-Serif" font-size="10.00">/s3client/repo/lib/include</text>
<text text-anchor="middle" x="316.75" y="-394.5" font-family="Helvetica,sans-Serif" font-size="10.00">/common.h</text>
</a>
</g>
</g>
<!-- Node2 -->
<g id="node2" class="node">
<title>Node2</title>
<g id="a_node2"><a xlink:href="aws__sign_8h.html" target="_top" xlink:title="Public interface to signing URLs and HTTP headers with the S3v4 protocol standard.">
<polygon fill="white" stroke="#666666" points="269.5,-275 138,-275 138,-233.25 269.5,-233.25 269.5,-275"/>
<text text-anchor="start" x="146" y="-261.5" font-family="Helvetica,sans-Serif" font-size="10.00">/Users/ugovaretto/projects</text>
<text text-anchor="start" x="146" y="-250.25" font-family="Helvetica,sans-Serif" font-size="10.00">/s3client/repo/lib/include</text>
<text text-anchor="middle" x="203.75" y="-239" font-family="Helvetica,sans-Serif" font-size="10.00">/aws_sign.h</text>
</a>
</g>
</g>
<!-- Node1&#45;&gt;Node2 -->
<g id="edge1" class="edge">
<title>Node1&#45;&gt;Node2</title>
<path fill="none" stroke="#63b8ff" d="M295.72,-380.06C273.26,-349.55 238.24,-301.98 218.53,-275.2"/>
<polygon fill="#63b8ff" stroke="#63b8ff" points="293.23,-381.58 301.98,-387.56 298.87,-377.43 293.23,-381.58"/>
</g>
<!-- Node5 -->
<g id="node5" class="node">
<title>Node5</title>
<g id="a_node5"><a xlink:href="s3-client_8h.html" target="_top" xlink:title="declaration of functions and data types for sending S3 requests, signing URLs and downloading and upl...">
<polygon fill="white" stroke="#666666" points="304.5,-197.25 173,-197.25 173,-155.5 304.5,-155.5 304.5,-197.25"/>
<text text-anchor="start" x="181" y="-183.75" font-family="Helvetica,sans-Serif" font-size="10.00">/Users/ugovaretto/projects</text>
<text text-anchor="start" x="181" y="-172.5" font-family="Helvetica,sans-Serif" font-size="10.00">/s3client/repo/lib/include</text>
<text text-anchor="middle" x="238.75" y="-161.25" font-family="Helvetica,sans-Serif" font-size="10.00">/s3&#45;client.h</text>
</a>
</g>
</g>
<!-- Node1&#45;&gt;Node5 -->
<g id="edge12" class="edge">
<title>Node1&#45;&gt;Node5</title>
<path fill="none" stroke="#63b8ff" d="M313.87,-377.56C309.68,-341.55 299.94,-281.05 278.75,-233.25 273.09,-220.49 264.25,-207.72 256.32,-197.62"/>
<polygon fill="#63b8ff" stroke="#63b8ff" points="310.49,-377.78 315.05,-387.34 317.45,-377.02 310.49,-377.78"/>
</g>
<!-- Node10 -->
<g id="node10" class="node">
<title>Node10</title>
<g id="a_node10"><a xlink:href="response__parser_8h.html" target="_top" xlink:title="Functions to parse XML and HTTP headers.">
<polygon fill="white" stroke="#666666" points="148.5,-352.75 17,-352.75 17,-311 148.5,-311 148.5,-352.75"/>
<text text-anchor="start" x="25" y="-339.25" font-family="Helvetica,sans-Serif" font-size="10.00">/Users/ugovaretto/projects</text>
<text text-anchor="start" x="25" y="-328" font-family="Helvetica,sans-Serif" font-size="10.00">/s3client/repo/lib/include</text>
<text text-anchor="middle" x="82.75" y="-316.75" font-family="Helvetica,sans-Serif" font-size="10.00">/response_parser.h</text>
</a>
</g>
</g>
<!-- Node1&#45;&gt;Node10 -->
<g id="edge10" class="edge">
<title>Node1&#45;&gt;Node10</title>
<path fill="none" stroke="#63b8ff" d="M243.59,-384.94C212.17,-374.77 175.82,-363 145.63,-353.23"/>
<polygon fill="#63b8ff" stroke="#63b8ff" points="242.45,-388.58 253.04,-388.33 244.61,-381.92 242.45,-388.58"/>
</g>
<!-- Node11 -->
<g id="node11" class="node">
<title>Node11</title>
<g id="a_node11"><a xlink:href="url__utility_8h.html" target="_top" xlink:title="Internal utility functions to process and parse text and URLs and create S3 signature keys.">
<polygon fill="white" stroke="#666666" points="495.5,-352.75 364,-352.75 364,-311 495.5,-311 495.5,-352.75"/>
<text text-anchor="start" x="372" y="-339.25" font-family="Helvetica,sans-Serif" font-size="10.00">/Users/ugovaretto/projects</text>
<text text-anchor="start" x="372" y="-328" font-family="Helvetica,sans-Serif" font-size="10.00">/s3client/repo/lib/include</text>
<text text-anchor="middle" x="429.75" y="-316.75" font-family="Helvetica,sans-Serif" font-size="10.00">/url_utility.h</text>
</a>
</g>
</g>
<!-- Node1&#45;&gt;Node11 -->
<g id="edge13" class="edge">
<title>Node1&#45;&gt;Node11</title>
<path fill="none" stroke="#63b8ff" d="M356.09,-382.26C370.28,-372.74 386.07,-362.15 399.38,-353.23"/>
<polygon fill="#63b8ff" stroke="#63b8ff" points="354.39,-379.85 348.03,-388.33 358.29,-385.66 354.39,-379.85"/>
</g>
<!-- Node12 -->
<g id="node12" class="node">
<title>Node12</title>
<g id="a_node12"><a xlink:href="webclient_8h.html" target="_top" xlink:title="declaration of WebClient class wrapping libcurl to send web requests.">
<polygon fill="white" stroke="#666666" points="457.5,-275 326,-275 326,-233.25 457.5,-233.25 457.5,-275"/>
<text text-anchor="start" x="334" y="-261.5" font-family="Helvetica,sans-Serif" font-size="10.00">/Users/ugovaretto/projects</text>
<text text-anchor="start" x="334" y="-250.25" font-family="Helvetica,sans-Serif" font-size="10.00">/s3client/repo/lib/include</text>
<text text-anchor="middle" x="391.75" y="-239" font-family="Helvetica,sans-Serif" font-size="10.00">/webclient.h</text>
</a>
</g>
</g>
<!-- Node1&#45;&gt;Node12 -->
<g id="edge21" class="edge">
<title>Node1&#45;&gt;Node12</title>
<path fill="none" stroke="#63b8ff" d="M326.75,-378.05C333.63,-358.43 343.52,-332.66 354.75,-311 361.12,-298.71 369.56,-285.77 376.77,-275.44"/>
<polygon fill="#63b8ff" stroke="#63b8ff" points="323.19,-376.66 323.25,-387.26 329.81,-378.93 323.19,-376.66"/>
</g>
<!-- Node13 -->
<g id="node13" class="node">
<title>Node13</title>
<g id="a_node13"><a xlink:href="webclient_8cpp.html" target="_top" xlink:title="implementation of WebClient class, wrapper around libcurl">
<polygon fill="white" stroke="#666666" points="489.12,-191.62 322.38,-191.62 322.38,-161.12 489.12,-161.12 489.12,-191.62"/>
<text text-anchor="start" x="330.38" y="-178.12" font-family="Helvetica,sans-Serif" font-size="10.00">/Users/ugovaretto/projects</text>
<text text-anchor="middle" x="405.75" y="-166.88" font-family="Helvetica,sans-Serif" font-size="10.00">/s3client/repo/lib/src/webclient.cpp</text>
</a>
</g>
</g>
<!-- Node1&#45;&gt;Node13 -->
<g id="edge22" class="edge">
<title>Node1&#45;&gt;Node13</title>
<path fill="none" stroke="#63b8ff" d="M393.38,-395.42C439.13,-385.8 490.96,-371.23 504.75,-352.75 546.04,-297.4 464.7,-223.07 425.36,-191.99"/>
<polygon fill="#63b8ff" stroke="#63b8ff" points="392.92,-392.15 383.82,-397.58 394.32,-399 392.92,-392.15"/>
</g>
<!-- Node3 -->
<g id="node3" class="node">
<title>Node3</title>
<g id="a_node3"><a xlink:href="s3-api_8h.html" target="_top" xlink:title="declarations of S3Client class;">
<polygon fill="white" stroke="#666666" points="131.5,-119.5 0,-119.5 0,-77.75 131.5,-77.75 131.5,-119.5"/>
<text text-anchor="start" x="8" y="-106" font-family="Helvetica,sans-Serif" font-size="10.00">/Users/ugovaretto/projects</text>
<text text-anchor="start" x="8" y="-94.75" font-family="Helvetica,sans-Serif" font-size="10.00">/s3client/repo/lib/include</text>
<text text-anchor="middle" x="65.75" y="-83.5" font-family="Helvetica,sans-Serif" font-size="10.00">/s3&#45;api.h</text>
</a>
</g>
</g>
<!-- Node2&#45;&gt;Node3 -->
<g id="edge2" class="edge">
<title>Node2&#45;&gt;Node3</title>
<path fill="none" stroke="#63b8ff" d="M164.18,-226.58C152.73,-217.94 140.66,-207.83 130.75,-197.25 108.21,-173.17 88.16,-140.47 76.49,-119.71"/>
<polygon fill="#63b8ff" stroke="#63b8ff" points="161.63,-229.79 171.76,-232.88 165.77,-224.14 161.63,-229.79"/>
</g>
<!-- Node2&#45;&gt;Node5 -->
<g id="edge4" class="edge">
<title>Node2&#45;&gt;Node5</title>
<path fill="none" stroke="#63b8ff" d="M217.72,-222.9C221.62,-214.45 225.77,-205.46 229.34,-197.73"/>
<polygon fill="#63b8ff" stroke="#63b8ff" points="214.15,-221.28 213.13,-231.83 220.5,-224.22 214.15,-221.28"/>
</g>
<!-- Node4 -->
<g id="node4" class="node">
<title>Node4</title>
<g id="a_node4"><a xlink:href="bucket-test_8cpp.html" target="_top" xlink:title="bucket tests">
<polygon fill="white" stroke="#666666" points="131.5,-41.75 0,-41.75 0,0 131.5,0 131.5,-41.75"/>
<text text-anchor="start" x="8" y="-28.25" font-family="Helvetica,sans-Serif" font-size="10.00">/Users/ugovaretto/projects</text>
<text text-anchor="start" x="8" y="-17" font-family="Helvetica,sans-Serif" font-size="10.00">/s3client/repo/test/api</text>
<text text-anchor="middle" x="65.75" y="-5.75" font-family="Helvetica,sans-Serif" font-size="10.00">/bucket&#45;test.cpp</text>
</a>
</g>
</g>
<!-- Node3&#45;&gt;Node4 -->
<g id="edge3" class="edge">
<title>Node3&#45;&gt;Node4</title>
<path fill="none" stroke="#63b8ff" d="M65.75,-66.56C65.75,-58.36 65.75,-49.71 65.75,-42.23"/>
<polygon fill="#63b8ff" stroke="#63b8ff" points="62.25,-66.33 65.75,-76.33 69.25,-66.33 62.25,-66.33"/>
</g>
<!-- Node5&#45;&gt;Node3 -->
<g id="edge9" class="edge">
<title>Node5&#45;&gt;Node3</title>
<path fill="none" stroke="#63b8ff" d="M182.53,-150.76C159.8,-140.81 133.88,-129.46 112.24,-119.98"/>
<polygon fill="#63b8ff" stroke="#63b8ff" points="180.82,-154.27 191.39,-155.08 183.63,-147.86 180.82,-154.27"/>
</g>
<!-- Node6 -->
<g id="node6" class="node">
<title>Node6</title>
<g id="a_node6"><a xlink:href="parallel__download_8cpp.html" target="_top" xlink:title="Parallel object download download from S3 service.">
<polygon fill="white" stroke="#666666" points="281.88,-119.5 149.62,-119.5 149.62,-77.75 281.88,-77.75 281.88,-119.5"/>
<text text-anchor="start" x="157.62" y="-106" font-family="Helvetica,sans-Serif" font-size="10.00">/Users/ugovaretto/projects</text>
<text text-anchor="start" x="157.62" y="-94.75" font-family="Helvetica,sans-Serif" font-size="10.00">/s3client/repo/apps/parallel</text>
<text text-anchor="middle" x="215.75" y="-83.5" font-family="Helvetica,sans-Serif" font-size="10.00">_download.cpp</text>
</a>
</g>
</g>
<!-- Node5&#45;&gt;Node6 -->
<g id="edge5" class="edge">
<title>Node5&#45;&gt;Node6</title>
<path fill="none" stroke="#63b8ff" d="M229.4,-144.59C226.89,-136.3 224.23,-127.54 221.93,-119.98"/>
<polygon fill="#63b8ff" stroke="#63b8ff" points="226.33,-145.52 232.59,-154.08 233.03,-143.49 226.33,-145.52"/>
</g>
<!-- Node7 -->
<g id="node7" class="node">
<title>Node7</title>
<g id="a_node7"><a xlink:href="parallel__upload_8cpp.html" target="_top" xlink:title="Parallel upload to S3 service.">
<polygon fill="white" stroke="#666666" points="583.88,-119.5 451.62,-119.5 451.62,-77.75 583.88,-77.75 583.88,-119.5"/>
<text text-anchor="start" x="459.62" y="-106" font-family="Helvetica,sans-Serif" font-size="10.00">/Users/ugovaretto/projects</text>
<text text-anchor="start" x="459.62" y="-94.75" font-family="Helvetica,sans-Serif" font-size="10.00">/s3client/repo/apps/parallel</text>
<text text-anchor="middle" x="517.75" y="-83.5" font-family="Helvetica,sans-Serif" font-size="10.00">_upload.cpp</text>
</a>
</g>
</g>
<!-- Node5&#45;&gt;Node7 -->
<g id="edge6" class="edge">
<title>Node5&#45;&gt;Node7</title>
<path fill="none" stroke="#63b8ff" d="M315.46,-154.55C357.98,-143 410.34,-128.79 451.14,-117.71"/>
<polygon fill="#63b8ff" stroke="#63b8ff" points="314.6,-151.43 305.87,-157.42 316.44,-158.18 314.6,-151.43"/>
</g>
<!-- Node8 -->
<g id="node8" class="node">
<title>Node8</title>
<g id="a_node8"><a xlink:href="presign__url_8cpp.html" target="_top" xlink:title="Presign URL.">
<polygon fill="white" stroke="#666666" points="433.25,-119.5 300.25,-119.5 300.25,-77.75 433.25,-77.75 433.25,-119.5"/>
<text text-anchor="start" x="308.25" y="-106" font-family="Helvetica,sans-Serif" font-size="10.00">/Users/ugovaretto/projects</text>
<text text-anchor="start" x="308.25" y="-94.75" font-family="Helvetica,sans-Serif" font-size="10.00">/s3client/repo/apps/presign</text>
<text text-anchor="middle" x="366.75" y="-83.5" font-family="Helvetica,sans-Serif" font-size="10.00">_url.cpp</text>
</a>
</g>
</g>
<!-- Node5&#45;&gt;Node8 -->
<g id="edge7" class="edge">
<title>Node5&#45;&gt;Node8</title>
<path fill="none" stroke="#63b8ff" d="M282.39,-149.55C298.71,-139.89 316.99,-129.07 332.35,-119.98"/>
<polygon fill="#63b8ff" stroke="#63b8ff" points="280.88,-146.97 274.05,-155.08 284.44,-152.99 280.88,-146.97"/>
</g>
<!-- Node9 -->
<g id="node9" class="node">
<title>Node9</title>
<g id="a_node9"><a xlink:href="apps_2s3-client_8cpp.html" target="_top" xlink:title="Send S3v4&#45;signed requests to S3 andpoint and print raw responses.">
<polygon fill="white" stroke="#666666" points="759.25,-113.88 602.25,-113.88 602.25,-83.38 759.25,-83.38 759.25,-113.88"/>
<text text-anchor="start" x="610.25" y="-100.38" font-family="Helvetica,sans-Serif" font-size="10.00">/Users/ugovaretto/projects</text>
<text text-anchor="middle" x="680.75" y="-89.12" font-family="Helvetica,sans-Serif" font-size="10.00">/s3client/repo/apps/s3&#45;client.cpp</text>
</a>
</g>
</g>
<!-- Node5&#45;&gt;Node9 -->
<g id="edge8" class="edge">
<title>Node5&#45;&gt;Node9</title>
<path fill="none" stroke="#63b8ff" d="M315.47,-155.3C438.32,-131.95 473,-140.7 592.75,-119.5 601.23,-118 610.13,-116.22 618.88,-114.36"/>
<polygon fill="#63b8ff" stroke="#63b8ff" points="315.05,-152.01 305.89,-157.34 316.38,-158.88 315.05,-152.01"/>
</g>
<!-- Node10&#45;&gt;Node3 -->
<g id="edge11" class="edge">
<title>Node10&#45;&gt;Node3</title>
<path fill="none" stroke="#63b8ff" d="M80.49,-300.08C76.95,-252.01 70.22,-160.45 67.24,-119.86"/>
<polygon fill="#63b8ff" stroke="#63b8ff" points="77.05,-300.04 81.27,-309.76 84.03,-299.53 77.05,-300.04"/>
</g>
<!-- Node11&#45;&gt;Node2 -->
<g id="edge16" class="edge">
<title>Node11&#45;&gt;Node2</title>
<path fill="none" stroke="#63b8ff" d="M359.09,-307.19C328.75,-297.02 293.64,-285.25 264.48,-275.48"/>
<polygon fill="#63b8ff" stroke="#63b8ff" points="357.59,-310.72 368.19,-310.58 359.82,-304.08 357.59,-310.72"/>
</g>
<!-- Node11&#45;&gt;Node7 -->
<g id="edge14" class="edge">
<title>Node11&#45;&gt;Node7</title>
<path fill="none" stroke="#63b8ff" d="M450.8,-301.54C456.35,-293.18 462.09,-283.91 466.75,-275 484,-242.04 487.09,-232.89 497.75,-197.25 505.64,-170.9 511.44,-139.62 514.71,-119.7"/>
<polygon fill="#63b8ff" stroke="#63b8ff" points="447.41,-299.3 444.68,-309.54 453.2,-303.24 447.41,-299.3"/>
</g>
<!-- Node11&#45;&gt;Node9 -->
<g id="edge15" class="edge">
<title>Node11&#45;&gt;Node9</title>
<path fill="none" stroke="#63b8ff" d="M459.67,-303.31C513.22,-253.97 623.68,-152.21 664.83,-114.29"/>
<polygon fill="#63b8ff" stroke="#63b8ff" points="457.57,-300.41 452.59,-309.76 462.31,-305.56 457.57,-300.41"/>
</g>
<!-- Node11&#45;&gt;Node12 -->
<g id="edge17" class="edge">
<title>Node11&#45;&gt;Node12</title>
<path fill="none" stroke="#63b8ff" d="M414.73,-300.93C410.45,-292.39 405.88,-283.3 401.96,-275.48"/>
<polygon fill="#63b8ff" stroke="#63b8ff" points="411.95,-302.21 419.57,-309.58 418.21,-299.07 411.95,-302.21"/>
</g>
<!-- Node12&#45;&gt;Node3 -->
<g id="edge18" class="edge">
<title>Node12&#45;&gt;Node3</title>
<path fill="none" stroke="#63b8ff" d="M315.12,-239.76C259.15,-229 188.83,-213.11 163.75,-197.25 143.52,-184.46 146.38,-172.71 129.75,-155.5 117.66,-142.98 103.11,-130.13 90.95,-119.92"/>
<polygon fill="#63b8ff" stroke="#63b8ff" points="314.27,-243.35 324.75,-241.78 315.58,-236.48 314.27,-243.35"/>
</g>
<!-- Node12&#45;&gt;Node5 -->
<g id="edge19" class="edge">
<title>Node12&#45;&gt;Node5</title>
<path fill="none" stroke="#63b8ff" d="M340.95,-227.97C321.11,-218.15 298.66,-207.04 279.86,-197.73"/>
<polygon fill="#63b8ff" stroke="#63b8ff" points="339.23,-231.53 349.75,-232.83 342.34,-225.25 339.23,-231.53"/>
</g>
<!-- Node12&#45;&gt;Node13 -->
<g id="edge20" class="edge">
<title>Node12&#45;&gt;Node13</title>
<path fill="none" stroke="#63b8ff" d="M397.46,-222.23C399.41,-211.67 401.5,-200.35 403.1,-191.73"/>
<polygon fill="#63b8ff" stroke="#63b8ff" points="393.88,-221.36 395.5,-231.83 400.76,-222.63 393.88,-221.36"/>
</g>
</g>
</svg>
