<?xml version="1.0" encoding="UTF-8" standalone="no"?>
<!DOCTYPE svg PUBLIC "-//W3C//DTD SVG 1.1//EN"
 "http://www.w3.org/Graphics/SVG/1.1/DTD/svg11.dtd">
<!-- Generated by graphviz version 2.43.0 (0)
 -->
<!-- Title: /home/ugovaretto/projects/uv&#45;cpp/s3client/repo/lib/include/common.h Pages: 1 -->
<!--zoomable 440 -->
<svg id="main" version="1.1" xmlns="http://www.w3.org/2000/svg" xmlns:xlink="http://www.w3.org/1999/xlink" xml:space="preserve" onload="init(evt)">
<style type="text/css"><![CDATA[
.edge:hover path { stroke: red; }
.edge:hover polygon { stroke: red; fill: red; }
]]></style>
<script type="text/javascript"><![CDATA[
var edges = document.getElementsByTagName('g');
if (edges && edges.length) {
  for (var i=0;i<edges.length;i++) {
    if (edges[i].id.substr(0,4)=='edge') {
      edges[i].setAttribute('class','edge');
    }
  }
}
]]></script>
        <defs>
                <circle id="rim" cx="0" cy="0" r="7"/>
                <circle id="rim2" cx="0" cy="0" r="3.5"/>
                <g id="zoomPlus">
                        <use xlink:href="#rim" fill="#404040">
                                <set attributeName="fill" to="#808080" begin="zoomplus.mouseover" end="zoomplus.mouseout"/>
                        </use>
                        <path d="M-4,0h8M0,-4v8" fill="none" stroke="white" stroke-width="1.5" pointer-events="none"/>
                </g>
                <g id="zoomMin">
                        <use xlink:href="#rim" fill="#404040">
                                <set attributeName="fill" to="#808080" begin="zoomminus.mouseover" end="zoomminus.mouseout"/>
                        </use>
                        <path d="M-4,0h8" fill="none" stroke="white" stroke-width="1.5" pointer-events="none"/>
                </g>
                <g id="dirArrow">
                        <path fill="none" stroke="white" stroke-width="1.5" d="M0,-3.0v7 M-2.5,-0.5L0,-3.0L2.5,-0.5"/>
                </g>
               <g id="resetDef">
                       <use xlink:href="#rim2" fill="#404040">
                               <set attributeName="fill" to="#808080" begin="reset.mouseover" end="reset.mouseout"/>
                       </use>
               </g>
        </defs>

<script type="text/javascript">
var viewWidth = 809;
var viewHeight = 440;
var sectionId = 'dynsection-1';
</script>
<script xlink:href="svgpan.js"/>
<svg id="graph" class="graph">
<g id="viewport">
<title>/home/ugovaretto/projects/uv&#45;cpp/s3client/repo/lib/include/common.h</title>
<!-- Node1 -->
<g id="node1" class="node">
<title>Node1</title>
<g id="a_node1"><a xlink:title="Common definitions.">
<polygon fill="#bfbfbf" stroke="black" points="401.5,-390.5 401.5,-431.5 531.5,-431.5 531.5,-390.5 401.5,-390.5"/>
<text text-anchor="start" x="409.5" y="-419.5" font-family="Helvetica,sans-Serif" font-size="10.00">/home/ugovaretto/projects</text>
<text text-anchor="start" x="409.5" y="-408.5" font-family="Helvetica,sans-Serif" font-size="10.00">/uv&#45;cpp/s3client/repo/lib</text>
<text text-anchor="middle" x="466.5" y="-397.5" font-family="Helvetica,sans-Serif" font-size="10.00">/include/common.h</text>
</a>
</g>
</g>
<!-- Node2 -->
<g id="node2" class="node">
<title>Node2</title>
<g id="a_node2"><a xlink:href="aws__sign_8h.html" target="_top" xlink:title="Public interface to signing URLs and HTTP headers with the S3v4 protocol standard.">
<polygon fill="none" stroke="black" points="309.5,-234.5 309.5,-275.5 439.5,-275.5 439.5,-234.5 309.5,-234.5"/>
<text text-anchor="start" x="317.5" y="-263.5" font-family="Helvetica,sans-Serif" font-size="10.00">/home/ugovaretto/projects</text>
<text text-anchor="start" x="317.5" y="-252.5" font-family="Helvetica,sans-Serif" font-size="10.00">/uv&#45;cpp/s3client/repo/lib</text>
<text text-anchor="middle" x="374.5" y="-241.5" font-family="Helvetica,sans-Serif" font-size="10.00">/include/aws_sign.h</text>
</a>
</g>
</g>
<!-- Node1&#45;&gt;Node2 -->
<g id="edge1" class="edge">
<title>Node1&#45;&gt;Node2</title>
<path fill="none" stroke="midnightblue" d="M449.51,-381.56C431.16,-350.85 402.4,-302.71 386.35,-275.83"/>
<polygon fill="midnightblue" stroke="midnightblue" points="446.71,-383.71 454.85,-390.5 452.72,-380.12 446.71,-383.71"/>
</g>
<!-- Node3 -->
<g id="node3" class="node">
<title>Node3</title>
<g id="a_node3"><a xlink:href="s3-client_8h.html" target="_top" xlink:title="declaration of functions and data types for sending S3 requests, signing URLs and downloading and upl...">
<polygon fill="none" stroke="black" points="307.5,-156.5 307.5,-197.5 437.5,-197.5 437.5,-156.5 307.5,-156.5"/>
<text text-anchor="start" x="315.5" y="-185.5" font-family="Helvetica,sans-Serif" font-size="10.00">/home/ugovaretto/projects</text>
<text text-anchor="start" x="315.5" y="-174.5" font-family="Helvetica,sans-Serif" font-size="10.00">/uv&#45;cpp/s3client/repo/lib</text>
<text text-anchor="middle" x="372.5" y="-163.5" font-family="Helvetica,sans-Serif" font-size="10.00">/include/s3&#45;client.h</text>
</a>
</g>
</g>
<!-- Node1&#45;&gt;Node3 -->
<g id="edge11" class="edge">
<title>Node1&#45;&gt;Node3</title>
<path fill="none" stroke="midnightblue" d="M415.89,-385.25C376.34,-362.81 324.23,-325.65 300.5,-276 292.45,-259.16 292.3,-250.77 300.5,-234 307.87,-218.92 321.49,-206.73 334.91,-197.62"/>
<polygon fill="midnightblue" stroke="midnightblue" points="414.69,-388.59 425.13,-390.36 418.07,-382.46 414.69,-388.59"/>
</g>
<!-- Node11 -->
<g id="node11" class="node">
<title>Node11</title>
<g id="a_node11"><a xlink:href="url__utility_8h.html" target="_top" xlink:title="Internal utility functions to process and parse text and URLs and create S3 signature keys.">
<polygon fill="none" stroke="black" points="126.5,-312.5 126.5,-353.5 256.5,-353.5 256.5,-312.5 126.5,-312.5"/>
<text text-anchor="start" x="134.5" y="-341.5" font-family="Helvetica,sans-Serif" font-size="10.00">/home/ugovaretto/projects</text>
<text text-anchor="start" x="134.5" y="-330.5" font-family="Helvetica,sans-Serif" font-size="10.00">/uv&#45;cpp/s3client/repo/lib</text>
<text text-anchor="middle" x="191.5" y="-319.5" font-family="Helvetica,sans-Serif" font-size="10.00">/include/url_utility.h</text>
</a>
</g>
</g>
<!-- Node1&#45;&gt;Node11 -->
<g id="edge12" class="edge">
<title>Node1&#45;&gt;Node11</title>
<path fill="none" stroke="midnightblue" d="M391.66,-389.32C349.44,-377.65 297.2,-363.21 256.68,-352.01"/>
<polygon fill="midnightblue" stroke="midnightblue" points="390.76,-392.7 401.33,-391.99 392.62,-385.95 390.76,-392.7"/>
</g>
<!-- Node12 -->
<g id="node12" class="node">
<title>Node12</title>
<g id="a_node12"><a xlink:href="webclient_8h.html" target="_top" xlink:title="declaration of WebClient class wrapping libcurl to send web requests.">
<polygon fill="none" stroke="black" points="457.5,-234.5 457.5,-275.5 587.5,-275.5 587.5,-234.5 457.5,-234.5"/>
<text text-anchor="start" x="465.5" y="-263.5" font-family="Helvetica,sans-Serif" font-size="10.00">/home/ugovaretto/projects</text>
<text text-anchor="start" x="465.5" y="-252.5" font-family="Helvetica,sans-Serif" font-size="10.00">/uv&#45;cpp/s3client/repo/lib</text>
<text text-anchor="middle" x="522.5" y="-241.5" font-family="Helvetica,sans-Serif" font-size="10.00">/include/webclient.h</text>
</a>
</g>
</g>
<!-- Node1&#45;&gt;Node12 -->
<g id="edge22" class="edge">
<title>Node1&#45;&gt;Node12</title>
<path fill="none" stroke="midnightblue" d="M477.13,-380.77C488.31,-350.02 505.6,-302.47 515.29,-275.83"/>
<polygon fill="midnightblue" stroke="midnightblue" points="473.72,-379.9 473.59,-390.5 480.3,-382.29 473.72,-379.9"/>
</g>
<!-- Node13 -->
<g id="node13" class="node">
<title>Node13</title>
<g id="a_node13"><a xlink:href="webclient_8cpp.html" target="_top" xlink:title="implementation of WebClient class, wrapper around libcurl">
<polygon fill="none" stroke="black" points="550.5,-156.5 550.5,-197.5 680.5,-197.5 680.5,-156.5 550.5,-156.5"/>
<text text-anchor="start" x="558.5" y="-185.5" font-family="Helvetica,sans-Serif" font-size="10.00">/home/ugovaretto/projects</text>
<text text-anchor="start" x="558.5" y="-174.5" font-family="Helvetica,sans-Serif" font-size="10.00">/uv&#45;cpp/s3client/repo/lib</text>
<text text-anchor="middle" x="615.5" y="-163.5" font-family="Helvetica,sans-Serif" font-size="10.00">/src/webclient.cpp</text>
</a>
</g>
</g>
<!-- Node1&#45;&gt;Node13 -->
<g id="edge23" class="edge">
<title>Node1&#45;&gt;Node13</title>
<path fill="none" stroke="midnightblue" d="M501.23,-384C531.3,-359.53 573.48,-320.13 596.5,-276 609.49,-251.11 613.65,-218.48 614.95,-197.87"/>
<polygon fill="midnightblue" stroke="midnightblue" points="498.72,-381.52 493.09,-390.5 503.09,-386.99 498.72,-381.52"/>
</g>
<!-- Node14 -->
<g id="node14" class="node">
<title>Node14</title>
<g id="a_node14"><a xlink:href="response__parser_8h.html" target="_top" xlink:title="Functions to parse XML and HTTP headers.">
<polygon fill="none" stroke="black" points="644,-312.5 644,-353.5 777,-353.5 777,-312.5 644,-312.5"/>
<text text-anchor="start" x="652" y="-341.5" font-family="Helvetica,sans-Serif" font-size="10.00">/home/ugovaretto/projects</text>
<text text-anchor="start" x="652" y="-330.5" font-family="Helvetica,sans-Serif" font-size="10.00">/uv&#45;cpp/s3client/repo/lib</text>
<text text-anchor="middle" x="710.5" y="-319.5" font-family="Helvetica,sans-Serif" font-size="10.00">/include/response_parser.h</text>
</a>
</g>
</g>
<!-- Node1&#45;&gt;Node14 -->
<g id="edge20" class="edge">
<title>Node1&#45;&gt;Node14</title>
<path fill="none" stroke="midnightblue" d="M538.92,-387.44C573.55,-376.66 614.61,-363.87 647.88,-353.51"/>
<polygon fill="midnightblue" stroke="midnightblue" points="537.84,-384.11 529.34,-390.43 539.92,-390.8 537.84,-384.11"/>
</g>
<!-- Node2&#45;&gt;Node3 -->
<g id="edge2" class="edge">
<title>Node2&#45;&gt;Node3</title>
<path fill="none" stroke="midnightblue" d="M373.72,-224.3C373.48,-215.3 373.23,-205.65 373.01,-197.51"/>
<polygon fill="midnightblue" stroke="midnightblue" points="370.22,-224.52 373.98,-234.43 377.22,-224.34 370.22,-224.52"/>
</g>
<!-- Node8 -->
<g id="node8" class="node">
<title>Node8</title>
<g id="a_node8"><a xlink:href="s3-api_8h.html" target="_top" xlink:title="declarations of S3Api class.">
<polygon fill="none" stroke="black" points="596.5,-78.5 596.5,-119.5 726.5,-119.5 726.5,-78.5 596.5,-78.5"/>
<text text-anchor="start" x="604.5" y="-107.5" font-family="Helvetica,sans-Serif" font-size="10.00">/home/ugovaretto/projects</text>
<text text-anchor="start" x="604.5" y="-96.5" font-family="Helvetica,sans-Serif" font-size="10.00">/uv&#45;cpp/s3client/repo/lib</text>
<text text-anchor="middle" x="661.5" y="-85.5" font-family="Helvetica,sans-Serif" font-size="10.00">/include/s3&#45;api.h</text>
</a>
</g>
</g>
<!-- Node2&#45;&gt;Node8 -->
<g id="edge10" class="edge">
<title>Node2&#45;&gt;Node8</title>
<path fill="none" stroke="midnightblue" d="M407.91,-228.32C436.49,-207.13 479.26,-177.21 519.5,-156 546.23,-141.92 577.31,-129.27 603.57,-119.58"/>
<polygon fill="midnightblue" stroke="midnightblue" points="405.8,-225.53 399.88,-234.32 409.99,-231.14 405.8,-225.53"/>
</g>
<!-- Node4 -->
<g id="node4" class="node">
<title>Node4</title>
<g id="a_node4"><a xlink:href="presign__url_8cpp.html" target="_top" xlink:title="Presign URL.">
<polygon fill="none" stroke="black" points="447,-78.5 447,-119.5 578,-119.5 578,-78.5 447,-78.5"/>
<text text-anchor="start" x="455" y="-107.5" font-family="Helvetica,sans-Serif" font-size="10.00">/home/ugovaretto/projects</text>
<text text-anchor="start" x="455" y="-96.5" font-family="Helvetica,sans-Serif" font-size="10.00">/uv&#45;cpp/s3client/repo/apps</text>
<text text-anchor="middle" x="512.5" y="-85.5" font-family="Helvetica,sans-Serif" font-size="10.00">/presign_url.cpp</text>
</a>
</g>
</g>
<!-- Node3&#45;&gt;Node4 -->
<g id="edge3" class="edge">
<title>Node3&#45;&gt;Node4</title>
<path fill="none" stroke="midnightblue" d="M417.4,-151.63C436.53,-141.24 458.54,-129.29 476.57,-119.51"/>
<polygon fill="midnightblue" stroke="midnightblue" points="415.67,-148.58 408.55,-156.43 419.01,-154.73 415.67,-148.58"/>
</g>
<!-- Node5 -->
<g id="node5" class="node">
<title>Node5</title>
<g id="a_node5"><a xlink:href="parallel__download_8cpp.html" target="_top" xlink:title="Parallel object download download from S3 service.">
<polygon fill="none" stroke="black" points="298,-78.5 298,-119.5 429,-119.5 429,-78.5 298,-78.5"/>
<text text-anchor="start" x="306" y="-107.5" font-family="Helvetica,sans-Serif" font-size="10.00">/home/ugovaretto/projects</text>
<text text-anchor="start" x="306" y="-96.5" font-family="Helvetica,sans-Serif" font-size="10.00">/uv&#45;cpp/s3client/repo/apps</text>
<text text-anchor="middle" x="363.5" y="-85.5" font-family="Helvetica,sans-Serif" font-size="10.00">/parallel_download.cpp</text>
</a>
</g>
</g>
<!-- Node3&#45;&gt;Node5 -->
<g id="edge4" class="edge">
<title>Node3&#45;&gt;Node5</title>
<path fill="none" stroke="midnightblue" d="M368.98,-146.3C367.92,-137.3 366.77,-127.65 365.81,-119.51"/>
<polygon fill="midnightblue" stroke="midnightblue" points="365.53,-146.91 370.18,-156.43 372.48,-146.09 365.53,-146.91"/>
</g>
<!-- Node6 -->
<g id="node6" class="node">
<title>Node6</title>
<g id="a_node6"><a xlink:href="apps_2s3-client_8cpp.html" target="_top" xlink:title="Send S3v4&#45;signed requests to S3 andpoint and print raw responses.">
<polygon fill="none" stroke="black" points="149,-78.5 149,-119.5 280,-119.5 280,-78.5 149,-78.5"/>
<text text-anchor="start" x="157" y="-107.5" font-family="Helvetica,sans-Serif" font-size="10.00">/home/ugovaretto/projects</text>
<text text-anchor="start" x="157" y="-96.5" font-family="Helvetica,sans-Serif" font-size="10.00">/uv&#45;cpp/s3client/repo/apps</text>
<text text-anchor="middle" x="214.5" y="-85.5" font-family="Helvetica,sans-Serif" font-size="10.00">/s3&#45;client.cpp</text>
</a>
</g>
</g>
<!-- Node3&#45;&gt;Node6 -->
<g id="edge5" class="edge">
<title>Node3&#45;&gt;Node6</title>
<path fill="none" stroke="midnightblue" d="M322.71,-152.05C300.91,-141.57 275.67,-129.42 255.05,-119.51"/>
<polygon fill="midnightblue" stroke="midnightblue" points="321.28,-155.25 331.81,-156.43 324.32,-148.94 321.28,-155.25"/>
</g>
<!-- Node7 -->
<g id="node7" class="node">
<title>Node7</title>
<g id="a_node7"><a xlink:href="parallel__upload_8cpp.html" target="_top" xlink:title="Parallel upload to S3 service.">
<polygon fill="none" stroke="black" points="0,-78.5 0,-119.5 131,-119.5 131,-78.5 0,-78.5"/>
<text text-anchor="start" x="8" y="-107.5" font-family="Helvetica,sans-Serif" font-size="10.00">/home/ugovaretto/projects</text>
<text text-anchor="start" x="8" y="-96.5" font-family="Helvetica,sans-Serif" font-size="10.00">/uv&#45;cpp/s3client/repo/apps</text>
<text text-anchor="middle" x="65.5" y="-85.5" font-family="Helvetica,sans-Serif" font-size="10.00">/parallel_upload.cpp</text>
</a>
</g>
</g>
<!-- Node3&#45;&gt;Node7 -->
<g id="edge6" class="edge">
<title>Node3&#45;&gt;Node7</title>
<path fill="none" stroke="midnightblue" d="M297.27,-158.48C251.56,-147.7 192.08,-133.42 139.5,-120 136.79,-119.31 134.03,-118.6 131.24,-117.87"/>
<polygon fill="midnightblue" stroke="midnightblue" points="296.56,-161.91 307.1,-160.8 298.17,-155.1 296.56,-161.91"/>
</g>
<!-- Node3&#45;&gt;Node8 -->
<g id="edge7" class="edge">
<title>Node3&#45;&gt;Node8</title>
<path fill="none" stroke="midnightblue" d="M447.65,-156.61C488.95,-145.9 541.08,-132.32 587.5,-120 590.33,-119.25 593.22,-118.48 596.14,-117.7"/>
<polygon fill="midnightblue" stroke="midnightblue" points="446.74,-153.23 437.93,-159.12 448.49,-160 446.74,-153.23"/>
</g>
<!-- Node9 -->
<g id="node9" class="node">
<title>Node9</title>
<g id="a_node9"><a xlink:href="bucket-test_8cpp.html" target="_top" xlink:title="bucket tests">
<polygon fill="none" stroke="black" points="522.5,-0.5 522.5,-41.5 652.5,-41.5 652.5,-0.5 522.5,-0.5"/>
<text text-anchor="start" x="530.5" y="-29.5" font-family="Helvetica,sans-Serif" font-size="10.00">/home/ugovaretto/projects</text>
<text text-anchor="start" x="530.5" y="-18.5" font-family="Helvetica,sans-Serif" font-size="10.00">/uv&#45;cpp/s3client/repo/test</text>
<text text-anchor="middle" x="587.5" y="-7.5" font-family="Helvetica,sans-Serif" font-size="10.00">/api/bucket&#45;test.cpp</text>
</a>
</g>
</g>
<!-- Node8&#45;&gt;Node9 -->
<g id="edge8" class="edge">
<title>Node8&#45;&gt;Node9</title>
<path fill="none" stroke="midnightblue" d="M635.41,-71.2C625.88,-61.42 615.29,-50.54 606.49,-41.51"/>
<polygon fill="midnightblue" stroke="midnightblue" points="632.96,-73.71 642.44,-78.43 637.97,-68.82 632.96,-73.71"/>
</g>
<!-- Node10 -->
<g id="node10" class="node">
<title>Node10</title>
<g id="a_node10"><a xlink:href="xmlstreams_8h.html" target="_top" xlink:title="xml parser and generator.">
<polygon fill="none" stroke="black" points="670.5,-0.5 670.5,-41.5 800.5,-41.5 800.5,-0.5 670.5,-0.5"/>
<text text-anchor="start" x="678.5" y="-29.5" font-family="Helvetica,sans-Serif" font-size="10.00">/home/ugovaretto/projects</text>
<text text-anchor="start" x="678.5" y="-18.5" font-family="Helvetica,sans-Serif" font-size="10.00">/uv&#45;cpp/s3client/repo/lib</text>
<text text-anchor="middle" x="735.5" y="-7.5" font-family="Helvetica,sans-Serif" font-size="10.00">/include/xmlstreams.h</text>
</a>
</g>
</g>
<!-- Node8&#45;&gt;Node10 -->
<g id="edge9" class="edge">
<title>Node8&#45;&gt;Node10</title>
<path fill="none" stroke="midnightblue" d="M687.59,-71.2C697.12,-61.42 707.71,-50.54 716.51,-41.51"/>
<polygon fill="midnightblue" stroke="midnightblue" points="685.03,-68.82 680.56,-78.43 690.04,-73.71 685.03,-68.82"/>
</g>
<!-- Node11&#45;&gt;Node2 -->
<g id="edge15" class="edge">
<title>Node11&#45;&gt;Node2</title>
<path fill="none" stroke="midnightblue" d="M248.16,-308.47C273.63,-297.89 303.33,-285.56 327.53,-275.51"/>
<polygon fill="midnightblue" stroke="midnightblue" points="246.52,-305.36 238.63,-312.43 249.2,-311.82 246.52,-305.36"/>
</g>
<!-- Node11&#45;&gt;Node6 -->
<g id="edge13" class="edge">
<title>Node11&#45;&gt;Node6</title>
<path fill="none" stroke="midnightblue" d="M194.46,-302.11C199.24,-253.94 208.51,-160.44 212.54,-119.73"/>
<polygon fill="midnightblue" stroke="midnightblue" points="190.96,-301.92 193.46,-312.22 197.93,-302.61 190.96,-301.92"/>
</g>
<!-- Node11&#45;&gt;Node7 -->
<g id="edge14" class="edge">
<title>Node11&#45;&gt;Node7</title>
<path fill="none" stroke="midnightblue" d="M175.92,-303.32C149.96,-255.52 98.51,-160.78 76.22,-119.73"/>
<polygon fill="midnightblue" stroke="midnightblue" points="172.91,-305.1 180.76,-312.22 179.06,-301.76 172.91,-305.1"/>
</g>
<!-- Node11&#45;&gt;Node12 -->
<g id="edge16" class="edge">
<title>Node11&#45;&gt;Node12</title>
<path fill="none" stroke="midnightblue" d="M266.68,-316.64C318.04,-305.9 387.57,-290.86 448.5,-276 451.34,-275.31 454.25,-274.58 457.18,-273.84"/>
<polygon fill="midnightblue" stroke="midnightblue" points="265.74,-313.26 256.66,-318.73 267.17,-320.11 265.74,-313.26"/>
</g>
<!-- Node12&#45;&gt;Node3 -->
<g id="edge17" class="edge">
<title>Node12&#45;&gt;Node3</title>
<path fill="none" stroke="midnightblue" d="M474.95,-229.91C454.33,-219.46 430.49,-207.38 411,-197.51"/>
<polygon fill="midnightblue" stroke="midnightblue" points="473.37,-233.03 483.87,-234.43 476.53,-226.79 473.37,-233.03"/>
</g>
<!-- Node12&#45;&gt;Node8 -->
<g id="edge18" class="edge">
<title>Node12&#45;&gt;Node8</title>
<path fill="none" stroke="midnightblue" d="M521.45,-224.17C522.22,-203.09 526.45,-175.28 541.5,-156 555.29,-138.33 575.99,-126 596.32,-117.5"/>
<polygon fill="midnightblue" stroke="midnightblue" points="517.95,-224.16 521.33,-234.2 524.95,-224.24 517.95,-224.16"/>
</g>
<!-- Node12&#45;&gt;Node13 -->
<g id="edge19" class="edge">
<title>Node12&#45;&gt;Node13</title>
<path fill="none" stroke="midnightblue" d="M554.24,-228.06C566.48,-218.06 580.25,-206.8 591.63,-197.51"/>
<polygon fill="midnightblue" stroke="midnightblue" points="551.98,-225.39 546.45,-234.43 556.41,-230.81 551.98,-225.39"/>
</g>
<!-- Node14&#45;&gt;Node8 -->
<g id="edge21" class="edge">
<title>Node14&#45;&gt;Node8</title>
<path fill="none" stroke="midnightblue" d="M710.05,-302.11C708.8,-266.57 704.43,-205.82 689.5,-156 685.69,-143.3 679.16,-129.98 673.35,-119.53"/>
<polygon fill="midnightblue" stroke="midnightblue" points="706.55,-302.39 710.34,-312.28 713.55,-302.19 706.55,-302.39"/>
</g>
</g>
</svg>
        <g id="navigator" transform="translate(0 0)" fill="#404254">
                <rect fill="#f2f5e9" fill-opacity="0.5" stroke="#606060" stroke-width=".5" x="0" y="0" width="60" height="60"/>
                <use id="zoomplus" xlink:href="#zoomPlus" x="17" y="9" onmousedown="handleZoom(evt,'in')"/>
                <use id="zoomminus" xlink:href="#zoomMin" x="42" y="9" onmousedown="handleZoom(evt,'out')"/>
                <use id="reset" xlink:href="#resetDef" x="30" y="36" onmousedown="handleReset()"/>
                <g id="arrowUp" xlink:href="#dirArrow" transform="translate(30 24)" onmousedown="handlePan(0,-1)">
                  <use xlink:href="#rim" fill="#404040">
                        <set attributeName="fill" to="#808080" begin="arrowUp.mouseover" end="arrowUp.mouseout"/>
                  </use>
                  <path fill="none" stroke="white" stroke-width="1.5" d="M0,-3.0v7 M-2.5,-0.5L0,-3.0L2.5,-0.5"/>
                </g>
                <g id="arrowRight" xlink:href="#dirArrow" transform="rotate(90) translate(36 -43)" onmousedown="handlePan(1,0)">
                  <use xlink:href="#rim" fill="#404040">
                        <set attributeName="fill" to="#808080" begin="arrowRight.mouseover" end="arrowRight.mouseout"/>
                  </use>
                  <path fill="none" stroke="white" stroke-width="1.5" d="M0,-3.0v7 M-2.5,-0.5L0,-3.0L2.5,-0.5"/>
                </g>
                <g id="arrowDown" xlink:href="#dirArrow" transform="rotate(180) translate(-30 -48)" onmousedown="handlePan(0,1)">
                  <use xlink:href="#rim" fill="#404040">
                        <set attributeName="fill" to="#808080" begin="arrowDown.mouseover" end="arrowDown.mouseout"/>
                  </use>
                  <path fill="none" stroke="white" stroke-width="1.5" d="M0,-3.0v7 M-2.5,-0.5L0,-3.0L2.5,-0.5"/>
                </g>
                <g id="arrowLeft" xlink:href="#dirArrow" transform="rotate(270) translate(-36 17)" onmousedown="handlePan(-1,0)">
                  <use xlink:href="#rim" fill="#404040">
                        <set attributeName="fill" to="#808080" begin="arrowLeft.mouseover" end="arrowLeft.mouseout"/>
                  </use>
                  <path fill="none" stroke="white" stroke-width="1.5" d="M0,-3.0v7 M-2.5,-0.5L0,-3.0L2.5,-0.5"/>
                </g>
        </g>
        <svg viewBox="0 0 15 15" width="100%" height="30px" preserveAspectRatio="xMaxYMin meet">
         <g id="arrow_out" transform="scale(0.3 0.3)">
          <a xlink:href="common_8h__dep__incl_org.svg" target="_base">
           <rect id="button" ry="5" rx="5" y="6" x="6" height="38" width="38"
                fill="#f2f5e9" fill-opacity="0.5" stroke="#606060" stroke-width="1.0"/>
           <path id="arrow"
             d="M 11.500037,31.436501 C 11.940474,20.09759 22.043105,11.32322 32.158766,21.979434 L 37.068811,17.246167 C 37.068811,17.246167 37.088388,32 37.088388,32 L 22.160133,31.978069 C 22.160133,31.978069 26.997745,27.140456 26.997745,27.140456 C 18.528582,18.264221 13.291696,25.230495 11.500037,31.436501 z"
             style="fill:#404040;"/>
          </a>
         </g>
        </svg>
</svg>
