<?xml version="1.0" encoding="UTF-8" standalone="no"?>
<!DOCTYPE svg PUBLIC "-//W3C//DTD SVG 1.1//EN"
 "http://www.w3.org/Graphics/SVG/1.1/DTD/svg11.dtd">
<!-- Generated by graphviz version 8.0.5 (20230430.1635)
 -->
<!-- Title: sss::UrlEncode Pages: 1 -->
<svg width="1127pt" height="655pt"
 viewBox="0.00 0.00 1126.50 654.88" xmlns="http://www.w3.org/2000/svg" xmlns:xlink="http://www.w3.org/1999/xlink">
<g id="graph0" class="graph" transform="scale(1 1) rotate(0) translate(4 650.88)">
<title>sss::UrlEncode</title>
<!-- Node1 -->
<g id="node1" class="node">
<title>Node1</title>
<g id="a_node1"><a xlink:title=" ">
<polygon fill="#999999" stroke="#666666" points="1118.5,-297.25 1035,-297.25 1035,-278 1118.5,-278 1118.5,-297.25"/>
<text text-anchor="middle" x="1076.75" y="-283.75" font-family="Helvetica,sans-Serif" font-size="10.00">sss::UrlEncode</text>
</a>
</g>
</g>
<!-- Node2 -->
<g id="node2" class="node">
<title>Node2</title>
<g id="a_node2"><a xlink:href="group__Sign.html#ga532598da479904609d6c02e4c2a1311a" target="_top" xlink:title="Compute signature.">
<polygon fill="white" stroke="#666666" points="999,-356.25 880.25,-356.25 880.25,-337 999,-337 999,-356.25"/>
<text text-anchor="middle" x="939.62" y="-342.75" font-family="Helvetica,sans-Serif" font-size="10.00">sss::ComputeSignature</text>
</a>
</g>
</g>
<!-- Node1&#45;&gt;Node2 -->
<g id="edge1" class="edge">
<title>Node1&#45;&gt;Node2</title>
<path fill="none" stroke="#63b8ff" d="M1042.88,-301.98C1018.35,-312.69 985.44,-327.06 963.66,-336.57"/>
<polygon fill="#63b8ff" stroke="#63b8ff" points="1044.06,-304.84 1051.83,-297.63 1041.26,-298.43 1044.06,-304.84"/>
</g>
<!-- Node29 -->
<g id="node29" class="node">
<title>Node29</title>
<g id="a_node29"><a xlink:href="classsss_1_1WebClient.html#a7dfd984b33a29686fb0355b65b620e99" target="_top" xlink:title=" ">
<polygon fill="white" stroke="#666666" points="844.25,-320.88 689.5,-320.88 689.5,-290.38 844.25,-290.38 844.25,-320.88"/>
<text text-anchor="start" x="697.5" y="-307.38" font-family="Helvetica,sans-Serif" font-size="10.00">sss::WebClient::SetUrlEncoded</text>
<text text-anchor="middle" x="766.88" y="-296.12" font-family="Helvetica,sans-Serif" font-size="10.00">PostData</text>
</a>
</g>
</g>
<!-- Node1&#45;&gt;Node29 -->
<g id="edge32" class="edge">
<title>Node1&#45;&gt;Node29</title>
<path fill="none" stroke="#63b8ff" d="M1023.87,-290.66C974.79,-293.53 900.54,-297.87 844.62,-301.14"/>
<polygon fill="#63b8ff" stroke="#63b8ff" points="1023.77,-294.11 1033.55,-290.03 1023.36,-287.12 1023.77,-294.11"/>
</g>
<!-- Node30 -->
<g id="node30" class="node">
<title>Node30</title>
<g id="a_node30"><a xlink:href="group__Sign.html#ga4673984e16f07dfa7481af910969beb5" target="_top" xlink:title="Generate presigned URL.">
<polygon fill="white" stroke="#666666" points="983.62,-278.25 895.62,-278.25 895.62,-259 983.62,-259 983.62,-278.25"/>
<text text-anchor="middle" x="939.62" y="-264.75" font-family="Helvetica,sans-Serif" font-size="10.00">sss::SignedURL</text>
</a>
</g>
</g>
<!-- Node1&#45;&gt;Node30 -->
<g id="edge35" class="edge">
<title>Node1&#45;&gt;Node30</title>
<path fill="none" stroke="#63b8ff" d="M1024.34,-280.4C1010.94,-278.51 996.65,-276.5 983.74,-274.69"/>
<polygon fill="#63b8ff" stroke="#63b8ff" points="1023.45,-283.95 1033.84,-281.87 1024.43,-277.01 1023.45,-283.95"/>
</g>
<!-- Node31 -->
<g id="node31" class="node">
<title>Node31</title>
<g id="a_node31"><a xlink:href="group__Internal.html#ga6e3db8d156313abef7e2c966df1a3d7c" target="_top" xlink:title=" ">
<polygon fill="white" stroke="#666666" points="981.38,-241.25 897.88,-241.25 897.88,-222 981.38,-222 981.38,-241.25"/>
<text text-anchor="middle" x="939.62" y="-227.75" font-family="Helvetica,sans-Serif" font-size="10.00">sss::UrlEncode</text>
</a>
</g>
</g>
<!-- Node1&#45;&gt;Node31 -->
<g id="edge36" class="edge">
<title>Node1&#45;&gt;Node31</title>
<path fill="none" stroke="#63b8ff" d="M1048.19,-272.64C1033.79,-265.15 1015.72,-256.29 999,-249.62 991.81,-246.76 983.97,-244.06 976.44,-241.67"/>
<polygon fill="#63b8ff" stroke="#63b8ff" points="1046.04,-275.99 1056.52,-277.56 1049.31,-269.8 1046.04,-275.99"/>
</g>
<!-- Node3 -->
<g id="node3" class="node">
<title>Node3</title>
<g id="a_node3"><a xlink:href="group__Sign.html#ga3ae8e18ef70752b7369fca66c40c526b" target="_top" xlink:title="Sign headers.">
<polygon fill="white" stroke="#666666" points="813.88,-358.25 719.88,-358.25 719.88,-339 813.88,-339 813.88,-358.25"/>
<text text-anchor="middle" x="766.88" y="-344.75" font-family="Helvetica,sans-Serif" font-size="10.00">sss::SignHeaders</text>
</a>
</g>
</g>
<!-- Node2&#45;&gt;Node3 -->
<g id="edge2" class="edge">
<title>Node2&#45;&gt;Node3</title>
<path fill="none" stroke="#63b8ff" d="M868.89,-347.44C850.52,-347.66 831.15,-347.88 814.35,-348.08"/>
<polygon fill="#63b8ff" stroke="#63b8ff" points="868.9,-350.93 878.86,-347.31 868.82,-343.93 868.9,-350.93"/>
</g>
<!-- Node4 -->
<g id="node4" class="node">
<title>Node4</title>
<g id="a_node4"><a xlink:href="classsss_1_1api_1_1S3Api.html#a840772746fbb0a79c161037da7b24a31" target="_top" xlink:title="Configure instance.">
<polygon fill="white" stroke="#666666" points="653.5,-374.25 536.25,-374.25 536.25,-355 653.5,-355 653.5,-374.25"/>
<text text-anchor="middle" x="594.88" y="-360.75" font-family="Helvetica,sans-Serif" font-size="10.00">sss::api::S3Api::Config</text>
</a>
</g>
</g>
<!-- Node3&#45;&gt;Node4 -->
<g id="edge3" class="edge">
<title>Node3&#45;&gt;Node4</title>
<path fill="none" stroke="#63b8ff" d="M708.68,-354.01C691.01,-355.67 671.54,-357.5 653.81,-359.17"/>
<polygon fill="#63b8ff" stroke="#63b8ff" points="708.79,-357.42 718.42,-353 708.14,-350.45 708.79,-357.42"/>
</g>
<!-- Node28 -->
<g id="node28" class="node">
<title>Node28</title>
<g id="a_node28"><a xlink:href="group__S3Client.html#gaba88d66bdabd9d5d15bc07a3ce387c50" target="_top" xlink:title="Send S3 request to endpoint.">
<polygon fill="white" stroke="#666666" points="649.38,-337.25 540.38,-337.25 540.38,-318 649.38,-318 649.38,-337.25"/>
<text text-anchor="middle" x="594.88" y="-323.75" font-family="Helvetica,sans-Serif" font-size="10.00">sss::SendS3Request</text>
</a>
</g>
</g>
<!-- Node3&#45;&gt;Node28 -->
<g id="edge31" class="edge">
<title>Node3&#45;&gt;Node28</title>
<path fill="none" stroke="#63b8ff" d="M708.52,-341.54C689.54,-339.2 668.5,-336.6 649.8,-334.29"/>
<polygon fill="#63b8ff" stroke="#63b8ff" points="708.07,-345.13 718.42,-342.89 708.93,-338.19 708.07,-345.13"/>
</g>
<!-- Node5 -->
<g id="node5" class="node">
<title>Node5</title>
<g id="a_node5"><a xlink:href="classsss_1_1api_1_1S3Api.html#a1196f1cb9ce1e5d69336e9b8dbb5d59c" target="_top" xlink:title="Download object into file.">
<polygon fill="white" stroke="#666666" points="500.25,-420.88 380,-420.88 380,-390.38 500.25,-390.38 500.25,-420.88"/>
<text text-anchor="start" x="388" y="-407.38" font-family="Helvetica,sans-Serif" font-size="10.00">sss::api::S3Api::GetFile</text>
<text text-anchor="middle" x="440.12" y="-396.12" font-family="Helvetica,sans-Serif" font-size="10.00">Object</text>
</a>
</g>
</g>
<!-- Node4&#45;&gt;Node5 -->
<g id="edge4" class="edge">
<title>Node4&#45;&gt;Node5</title>
<path fill="none" stroke="#63b8ff" d="M546.1,-377.45C531.34,-381.41 514.92,-385.82 499.54,-389.95"/>
<polygon fill="#63b8ff" stroke="#63b8ff" points="546.76,-380.63 555.51,-374.65 544.94,-373.87 546.76,-380.63"/>
</g>
<!-- Node6 -->
<g id="node6" class="node">
<title>Node6</title>
<g id="a_node6"><a xlink:href="classsss_1_1api_1_1S3Api.html#ab7affe0834f5892b393e731783b7ccac" target="_top" xlink:title="Upload file to object.">
<polygon fill="white" stroke="#666666" points="499.88,-371.88 380.38,-371.88 380.38,-341.38 499.88,-341.38 499.88,-371.88"/>
<text text-anchor="start" x="388.38" y="-358.38" font-family="Helvetica,sans-Serif" font-size="10.00">sss::api::S3Api::PutFile</text>
<text text-anchor="middle" x="440.12" y="-347.12" font-family="Helvetica,sans-Serif" font-size="10.00">Object</text>
</a>
</g>
</g>
<!-- Node4&#45;&gt;Node6 -->
<g id="edge5" class="edge">
<title>Node4&#45;&gt;Node6</title>
<path fill="none" stroke="#63b8ff" d="M525.25,-361.03C516.9,-360.59 508.42,-360.15 500.22,-359.72"/>
<polygon fill="#63b8ff" stroke="#63b8ff" points="524.96,-364.57 535.13,-361.6 525.32,-357.58 524.96,-364.57"/>
</g>
<!-- Node7 -->
<g id="node7" class="node">
<title>Node7</title>
<g id="a_node7"><a xlink:href="classsss_1_1api_1_1S3Api.html#ad09581bf28c4bbbcbb71b329959ec1ae" target="_top" xlink:title="Send request.">
<polygon fill="white" stroke="#666666" points="495.75,-315.25 384.5,-315.25 384.5,-296 495.75,-296 495.75,-315.25"/>
<text text-anchor="middle" x="440.12" y="-301.75" font-family="Helvetica,sans-Serif" font-size="10.00">sss::api::S3Api::Send</text>
</a>
</g>
</g>
<!-- Node4&#45;&gt;Node7 -->
<g id="edge6" class="edge">
<title>Node4&#45;&gt;Node7</title>
<path fill="none" stroke="#63b8ff" d="M549.28,-351.2C544.86,-349.72 540.45,-348.18 536.25,-346.62 510.62,-337.13 481.89,-324.45 462.78,-315.72"/>
<polygon fill="#63b8ff" stroke="#63b8ff" points="547.96,-354.78 558.55,-354.55 550.12,-348.12 547.96,-354.78"/>
</g>
<!-- Node8 -->
<g id="node8" class="node">
<title>Node8</title>
<g id="a_node8"><a xlink:href="classsss_1_1api_1_1S3Api.html#a4ea265566c3c4335ec01201cdc4410c6" target="_top" xlink:title="Abort multipart upload.">
<polygon fill="white" stroke="#666666" points="341,-646.88 191.5,-646.88 191.5,-616.38 341,-616.38 341,-646.88"/>
<text text-anchor="start" x="199.5" y="-633.38" font-family="Helvetica,sans-Serif" font-size="10.00">sss::api::S3Api::AbortMultipart</text>
<text text-anchor="middle" x="266.25" y="-622.12" font-family="Helvetica,sans-Serif" font-size="10.00">Upload</text>
</a>
</g>
</g>
<!-- Node7&#45;&gt;Node8 -->
<g id="edge7" class="edge">
<title>Node7&#45;&gt;Node8</title>
<path fill="none" stroke="#63b8ff" d="M392.94,-320.77C387.98,-324.01 383.48,-327.92 380,-332.62 306.99,-431.4 422.49,-512.15 344,-606.62 340.96,-610.29 337.37,-613.42 333.43,-616.1"/>
<polygon fill="#63b8ff" stroke="#63b8ff" points="394.18,-323.53 401.24,-315.63 390.8,-317.4 394.18,-323.53"/>
</g>
<!-- Node9 -->
<g id="node9" class="node">
<title>Node9</title>
<g id="a_node9"><a xlink:href="classsss_1_1api_1_1S3Api.html#a98f999a216121118dd569c7ef0c28ff3" target="_top" xlink:title="Complete multipart upload.">
<polygon fill="white" stroke="#666666" points="331.62,-597.88 200.88,-597.88 200.88,-567.38 331.62,-567.38 331.62,-597.88"/>
<text text-anchor="start" x="208.88" y="-584.38" font-family="Helvetica,sans-Serif" font-size="10.00">sss::api::S3Api::Complete</text>
<text text-anchor="middle" x="266.25" y="-573.12" font-family="Helvetica,sans-Serif" font-size="10.00">MultipartUpload</text>
</a>
</g>
</g>
<!-- Node7&#45;&gt;Node9 -->
<g id="edge8" class="edge">
<title>Node7&#45;&gt;Node9</title>
<path fill="none" stroke="#63b8ff" d="M393.06,-320.86C388.08,-324.09 383.54,-327.97 380,-332.62 318.43,-413.58 410.52,-481.68 344,-558.62 340.53,-562.64 336.4,-565.99 331.88,-568.79"/>
<polygon fill="#63b8ff" stroke="#63b8ff" points="394.3,-323.62 401.38,-315.74 390.93,-317.49 394.3,-323.62"/>
</g>
<!-- Node10 -->
<g id="node10" class="node">
<title>Node10</title>
<g id="a_node10"><a xlink:href="classsss_1_1api_1_1S3Api.html#ad890bd1ecfc978df24b2c3ed641e4081" target="_top" xlink:title="Create bucket.">
<polygon fill="white" stroke="#666666" points="340.62,-549.25 191.88,-549.25 191.88,-530 340.62,-530 340.62,-549.25"/>
<text text-anchor="middle" x="266.25" y="-535.75" font-family="Helvetica,sans-Serif" font-size="10.00">sss::api::S3Api::CreateBucket</text>
</a>
</g>
</g>
<!-- Node7&#45;&gt;Node10 -->
<g id="edge9" class="edge">
<title>Node7&#45;&gt;Node10</title>
<path fill="none" stroke="#63b8ff" d="M393.38,-320.85C388.3,-324.08 383.66,-327.97 380,-332.62 327.45,-399.53 402.53,-458.88 344,-520.62 340.6,-524.21 336.64,-527.16 332.34,-529.59"/>
<polygon fill="#63b8ff" stroke="#63b8ff" points="394.73,-323.56 401.85,-315.72 391.39,-317.41 394.73,-323.56"/>
</g>
<!-- Node12 -->
<g id="node12" class="node">
<title>Node12</title>
<g id="a_node12"><a xlink:href="classsss_1_1api_1_1S3Api.html#a1796fafda3d90a4292a611ce1999433b" target="_top" xlink:title="Create multipart upload.">
<polygon fill="white" stroke="#666666" points="344,-511.88 188.5,-511.88 188.5,-481.38 344,-481.38 344,-511.88"/>
<text text-anchor="start" x="196.5" y="-498.38" font-family="Helvetica,sans-Serif" font-size="10.00">sss::api::S3Api::CreateMultipart</text>
<text text-anchor="middle" x="266.25" y="-487.12" font-family="Helvetica,sans-Serif" font-size="10.00">Upload</text>
</a>
</g>
</g>
<!-- Node7&#45;&gt;Node12 -->
<g id="edge11" class="edge">
<title>Node7&#45;&gt;Node12</title>
<path fill="none" stroke="#63b8ff" d="M394.41,-320.6C389,-323.89 383.99,-327.86 380,-332.62 338.76,-381.89 388.25,-426.04 344,-472.62 340.92,-475.86 337.42,-478.67 333.64,-481.1"/>
<polygon fill="#63b8ff" stroke="#63b8ff" points="395.55,-323.43 402.78,-315.69 392.3,-317.24 395.55,-323.43"/>
</g>
<!-- Node13 -->
<g id="node13" class="node">
<title>Node13</title>
<g id="a_node13"><a xlink:href="classsss_1_1api_1_1S3Api.html#a3d63825d1916e4ba3ca13122c7660603" target="_top" xlink:title="Delete bucket.">
<polygon fill="white" stroke="#666666" points="340.25,-463.25 192.25,-463.25 192.25,-444 340.25,-444 340.25,-463.25"/>
<text text-anchor="middle" x="266.25" y="-449.75" font-family="Helvetica,sans-Serif" font-size="10.00">sss::api::S3Api::DeleteBucket</text>
</a>
</g>
</g>
<!-- Node7&#45;&gt;Node13 -->
<g id="edge12" class="edge">
<title>Node7&#45;&gt;Node13</title>
<path fill="none" stroke="#63b8ff" d="M395.35,-320.59C389.67,-323.9 384.34,-327.87 380,-332.62 347.33,-368.46 380.06,-403.2 344,-435.62 340.54,-438.74 336.65,-441.34 332.49,-443.51"/>
<polygon fill="#63b8ff" stroke="#63b8ff" points="396.78,-323.28 404.11,-315.63 393.61,-317.04 396.78,-323.28"/>
</g>
<!-- Node14 -->
<g id="node14" class="node">
<title>Node14</title>
<g id="a_node14"><a xlink:href="classsss_1_1api_1_1S3Api.html#a14a75f15eb71fbba8639673100768b67" target="_top" xlink:title="Delete object.">
<polygon fill="white" stroke="#666666" points="339.12,-426.25 193.38,-426.25 193.38,-407 339.12,-407 339.12,-426.25"/>
<text text-anchor="middle" x="266.25" y="-412.75" font-family="Helvetica,sans-Serif" font-size="10.00">sss::api::S3Api::DeleteObject</text>
</a>
</g>
</g>
<!-- Node7&#45;&gt;Node14 -->
<g id="edge14" class="edge">
<title>Node7&#45;&gt;Node14</title>
<path fill="none" stroke="#63b8ff" d="M397.9,-320.24C391.46,-323.66 385.22,-327.77 380,-332.62 355.55,-355.4 370.58,-378.38 344,-398.62 339.86,-401.78 335.26,-404.39 330.43,-406.55"/>
<polygon fill="#63b8ff" stroke="#63b8ff" points="398.88,-323.17 406.39,-315.69 395.85,-316.86 398.88,-323.17"/>
</g>
<!-- Node15 -->
<g id="node15" class="node">
<title>Node15</title>
<g id="a_node15"><a xlink:href="classsss_1_1api_1_1S3Api.html#a3b53152bf39143843a4033aa4a1b3fa0" target="_top" xlink:title=" ">
<polygon fill="white" stroke="#666666" points="341,-389.25 191.5,-389.25 191.5,-370 341,-370 341,-389.25"/>
<text text-anchor="middle" x="266.25" y="-375.75" font-family="Helvetica,sans-Serif" font-size="10.00">sss::api::S3Api::GetBucketAcl</text>
</a>
</g>
</g>
<!-- Node7&#45;&gt;Node15 -->
<g id="edge15" class="edge">
<title>Node7&#45;&gt;Node15</title>
<path fill="none" stroke="#63b8ff" d="M403.56,-320.12C395.61,-323.84 387.36,-328.08 380,-332.62 362.52,-343.42 362.46,-352.61 344,-361.62 337.6,-364.75 330.64,-367.34 323.6,-369.5"/>
<polygon fill="#63b8ff" stroke="#63b8ff" points="404.69,-323 412.38,-315.72 401.82,-316.62 404.69,-323"/>
</g>
<!-- Node16 -->
<g id="node16" class="node">
<title>Node16</title>
<g id="a_node16"><a xlink:href="classsss_1_1api_1_1S3Api.html#af61465d92c0a94aa82ae863fc2a776a0" target="_top" xlink:title="Download object data.">
<polygon fill="white" stroke="#666666" points="332.75,-352.25 199.75,-352.25 199.75,-333 332.75,-333 332.75,-352.25"/>
<text text-anchor="middle" x="266.25" y="-338.75" font-family="Helvetica,sans-Serif" font-size="10.00">sss::api::S3Api::GetObject</text>
</a>
</g>
</g>
<!-- Node7&#45;&gt;Node16 -->
<g id="edge17" class="edge">
<title>Node7&#45;&gt;Node16</title>
<path fill="none" stroke="#63b8ff" d="M381.65,-318C359.71,-322.72 334.99,-328.04 314.16,-332.53"/>
<polygon fill="#63b8ff" stroke="#63b8ff" points="382.12,-321.26 391.16,-315.74 380.65,-314.42 382.12,-321.26"/>
</g>
<!-- Node17 -->
<g id="node17" class="node">
<title>Node17</title>
<g id="a_node17"><a xlink:href="classsss_1_1api_1_1S3Api.html#ae548966dc38f328fc45ee1500f5caf5b" target="_top" xlink:title="Return bucket&#39;s Access Control List.">
<polygon fill="white" stroke="#666666" points="339.88,-315.25 192.62,-315.25 192.62,-296 339.88,-296 339.88,-315.25"/>
<text text-anchor="middle" x="266.25" y="-301.75" font-family="Helvetica,sans-Serif" font-size="10.00">sss::api::S3Api::GetObjectAcl</text>
</a>
</g>
</g>
<!-- Node7&#45;&gt;Node17 -->
<g id="edge18" class="edge">
<title>Node7&#45;&gt;Node17</title>
<path fill="none" stroke="#63b8ff" d="M373.52,-305.62C362.59,-305.62 351.19,-305.62 340.09,-305.62"/>
<polygon fill="#63b8ff" stroke="#63b8ff" points="373.27,-309.13 383.27,-305.62 373.27,-302.13 373.27,-309.13"/>
</g>
<!-- Node18 -->
<g id="node18" class="node">
<title>Node18</title>
<g id="a_node18"><a xlink:href="classsss_1_1api_1_1S3Api.html#aa4a2b1cc2c89a52d1aa89e571b785db2" target="_top" xlink:title=" ">
<polygon fill="white" stroke="#666666" points="337.62,-278.25 194.88,-278.25 194.88,-259 337.62,-259 337.62,-278.25"/>
<text text-anchor="middle" x="266.25" y="-264.75" font-family="Helvetica,sans-Serif" font-size="10.00">sss::api::S3Api::HeadBucket</text>
</a>
</g>
</g>
<!-- Node7&#45;&gt;Node18 -->
<g id="edge19" class="edge">
<title>Node7&#45;&gt;Node18</title>
<path fill="none" stroke="#63b8ff" d="M381.65,-293.25C359.71,-288.53 334.99,-283.21 314.16,-278.72"/>
<polygon fill="#63b8ff" stroke="#63b8ff" points="380.65,-296.83 391.16,-295.51 382.12,-289.99 380.65,-296.83"/>
</g>
<!-- Node19 -->
<g id="node19" class="node">
<title>Node19</title>
<g id="a_node19"><a xlink:href="classsss_1_1api_1_1S3Api.html#abc84a71b9a88b81afaa353ad17a91d22" target="_top" xlink:title="Send HeadObject request.">
<polygon fill="white" stroke="#666666" points="336.5,-204.25 196,-204.25 196,-185 336.5,-185 336.5,-204.25"/>
<text text-anchor="middle" x="266.25" y="-190.75" font-family="Helvetica,sans-Serif" font-size="10.00">sss::api::S3Api::HeadObject</text>
</a>
</g>
</g>
<!-- Node7&#45;&gt;Node19 -->
<g id="edge21" class="edge">
<title>Node7&#45;&gt;Node19</title>
<path fill="none" stroke="#63b8ff" d="M425.48,-287.21C408.71,-265.92 378.21,-231.41 344,-212.62 338.24,-209.46 331.94,-206.85 325.51,-204.7"/>
<polygon fill="#63b8ff" stroke="#63b8ff" points="423.13,-288.9 432,-294.7 428.69,-284.63 423.13,-288.9"/>
</g>
<!-- Node22 -->
<g id="node22" class="node">
<title>Node22</title>
<g id="a_node22"><a xlink:href="classsss_1_1api_1_1S3Api.html#a81e30673c06b609a2ee6e6bfd9130ca6" target="_top" xlink:title="List buckets.">
<polygon fill="white" stroke="#666666" points="336.5,-241.25 196,-241.25 196,-222 336.5,-222 336.5,-241.25"/>
<text text-anchor="middle" x="266.25" y="-227.75" font-family="Helvetica,sans-Serif" font-size="10.00">sss::api::S3Api::ListBuckets</text>
</a>
</g>
</g>
<!-- Node7&#45;&gt;Node22 -->
<g id="edge24" class="edge">
<title>Node7&#45;&gt;Node22</title>
<path fill="none" stroke="#63b8ff" d="M416.42,-289.6C397.75,-277.09 370.21,-260.13 344,-249.62 336.38,-246.57 328.11,-243.96 319.92,-241.75"/>
<polygon fill="#63b8ff" stroke="#63b8ff" points="414.08,-292.92 424.32,-295.67 418.03,-287.14 414.08,-292.92"/>
</g>
<!-- Node23 -->
<g id="node23" class="node">
<title>Node23</title>
<g id="a_node23"><a xlink:href="classsss_1_1api_1_1S3Api.html#a3f00f611cd210a58ac6e8c0555984433" target="_top" xlink:title="List objects by sending a ListObjectsV2 request.">
<polygon fill="white" stroke="#666666" points="341.38,-167.25 191.12,-167.25 191.12,-148 341.38,-148 341.38,-167.25"/>
<text text-anchor="middle" x="266.25" y="-153.75" font-family="Helvetica,sans-Serif" font-size="10.00">sss::api::S3Api::ListObjectsV2</text>
</a>
</g>
</g>
<!-- Node7&#45;&gt;Node23 -->
<g id="edge26" class="edge">
<title>Node7&#45;&gt;Node23</title>
<path fill="none" stroke="#63b8ff" d="M430.26,-285.83C416.25,-256.92 386.18,-203.55 344,-175.62 339.21,-172.45 333.92,-169.84 328.43,-167.68"/>
<polygon fill="#63b8ff" stroke="#63b8ff" points="427.43,-287.04 434.83,-294.61 433.77,-284.07 427.43,-287.04"/>
</g>
<!-- Node24 -->
<g id="node24" class="node">
<title>Node24</title>
<g id="a_node24"><a xlink:href="classsss_1_1api_1_1S3Api.html#aa35e9b1cc7661cd9bb0d5f2de6cbbc7d" target="_top" xlink:title="Set Access Control Policy for bucket.">
<polygon fill="white" stroke="#666666" points="340.62,-130.25 191.88,-130.25 191.88,-111 340.62,-111 340.62,-130.25"/>
<text text-anchor="middle" x="266.25" y="-116.75" font-family="Helvetica,sans-Serif" font-size="10.00">sss::api::S3Api::PutBucketAcl</text>
</a>
</g>
</g>
<!-- Node7&#45;&gt;Node24 -->
<g id="edge27" class="edge">
<title>Node7&#45;&gt;Node24</title>
<path fill="none" stroke="#63b8ff" d="M433.47,-285.37C422.46,-249.85 394.67,-176.49 344,-138.62 339.72,-135.43 334.97,-132.79 329.98,-130.61"/>
<polygon fill="#63b8ff" stroke="#63b8ff" points="430.38,-286.27 436.57,-294.86 437.09,-284.28 430.38,-286.27"/>
</g>
<!-- Node25 -->
<g id="node25" class="node">
<title>Node25</title>
<g id="a_node25"><a xlink:href="classsss_1_1api_1_1S3Api.html#a2cc08fb777cfc4d24c40bea1cde967e7" target="_top" xlink:title="Set Access Control Policy.">
<polygon fill="white" stroke="#666666" points="339.5,-93.25 193,-93.25 193,-74 339.5,-74 339.5,-93.25"/>
<text text-anchor="middle" x="266.25" y="-79.75" font-family="Helvetica,sans-Serif" font-size="10.00">sss::api::S3Api::PutObjectAcl</text>
</a>
</g>
</g>
<!-- Node7&#45;&gt;Node25 -->
<g id="edge28" class="edge">
<title>Node7&#45;&gt;Node25</title>
<path fill="none" stroke="#63b8ff" d="M435.65,-285.02C427.54,-243.55 403.34,-149.85 344,-101.62 340.07,-98.43 335.67,-95.78 331.03,-93.59"/>
<polygon fill="#63b8ff" stroke="#63b8ff" points="432.36,-285.47 437.6,-294.68 439.25,-284.21 432.36,-285.47"/>
</g>
<!-- Node26 -->
<g id="node26" class="node">
<title>Node26</title>
<g id="a_node26"><a xlink:href="classsss_1_1api_1_1S3Api.html#a0473917e4d25a4a6fca40d097e4299d6" target="_top" xlink:title=" ">
<polygon fill="white" stroke="#666666" points="321.88,-56.25 210.62,-56.25 210.62,-37 321.88,-37 321.88,-56.25"/>
<text text-anchor="middle" x="266.25" y="-42.75" font-family="Helvetica,sans-Serif" font-size="10.00">sss::api::S3Api::Send</text>
</a>
</g>
</g>
<!-- Node7&#45;&gt;Node26 -->
<g id="edge29" class="edge">
<title>Node7&#45;&gt;Node26</title>
<path fill="none" stroke="#63b8ff" d="M437.24,-284.6C431.86,-237.59 412.11,-123.48 344,-64.62 337.68,-59.17 330.02,-55.29 322.01,-52.54"/>
<polygon fill="#63b8ff" stroke="#63b8ff" points="433.86,-284.92 438.36,-294.51 440.82,-284.2 433.86,-284.92"/>
</g>
<!-- Node27 -->
<g id="node27" class="node">
<title>Node27</title>
<g id="a_node27"><a xlink:href="classsss_1_1api_1_1S3Api.html#a23223ee1fb701c55af2d942dbf261ae2" target="_top" xlink:title="Check if bucket exist.">
<polygon fill="white" stroke="#666666" points="335.38,-19.25 197.12,-19.25 197.12,0 335.38,0 335.38,-19.25"/>
<text text-anchor="middle" x="266.25" y="-5.75" font-family="Helvetica,sans-Serif" font-size="10.00">sss::api::S3Api::TestBucket</text>
</a>
</g>
</g>
<!-- Node7&#45;&gt;Node27 -->
<g id="edge30" class="edge">
<title>Node7&#45;&gt;Node27</title>
<path fill="none" stroke="#63b8ff" d="M438.52,-284.97C435.83,-233.32 421.37,-97.67 344,-27.62 340.55,-24.5 336.66,-21.89 332.52,-19.71"/>
<polygon fill="#63b8ff" stroke="#63b8ff" points="435.05,-284.85 438.96,-294.7 442.05,-284.56 435.05,-284.85"/>
</g>
<!-- Node11 -->
<g id="node11" class="node">
<title>Node11</title>
<g id="a_node11"><a xlink:href="bucket-test_8cpp.html#a3c04138a5bfe5d72780bb7e82a18e627" target="_top" xlink:title="Bucket tests.">
<polygon fill="white" stroke="#666666" points="94.75,-389.25 57.75,-389.25 57.75,-370 94.75,-370 94.75,-389.25"/>
<text text-anchor="middle" x="76.25" y="-375.75" font-family="Helvetica,sans-Serif" font-size="10.00">main</text>
</a>
</g>
</g>
<!-- Node10&#45;&gt;Node11 -->
<g id="edge10" class="edge">
<title>Node10&#45;&gt;Node11</title>
<path fill="none" stroke="#63b8ff" d="M196.83,-525.3C193.94,-523.89 191.15,-522.33 188.5,-520.62 134.52,-485.81 95.38,-415.73 82.15,-389.68"/>
<polygon fill="#63b8ff" stroke="#63b8ff" points="195.37,-528.91 205.95,-529.6 198.11,-522.47 195.37,-528.91"/>
</g>
<!-- Node13&#45;&gt;Node11 -->
<g id="edge13" class="edge">
<title>Node13&#45;&gt;Node11</title>
<path fill="none" stroke="#63b8ff" d="M204.37,-440.75C198.95,-439.18 193.6,-437.48 188.5,-435.62 153.54,-422.93 115.34,-402.01 94.03,-389.66"/>
<polygon fill="#63b8ff" stroke="#63b8ff" points="203.23,-444.34 213.79,-443.59 205.06,-437.59 203.23,-444.34"/>
</g>
<!-- Node15&#45;&gt;Node11 -->
<g id="edge16" class="edge">
<title>Node15&#45;&gt;Node11</title>
<path fill="none" stroke="#63b8ff" d="M180.41,-379.62C148.32,-379.62 114.79,-379.62 94.98,-379.62"/>
<polygon fill="#63b8ff" stroke="#63b8ff" points="180.22,-383.13 190.22,-379.62 180.22,-376.13 180.22,-383.13"/>
</g>
<!-- Node18&#45;&gt;Node11 -->
<g id="edge20" class="edge">
<title>Node18&#45;&gt;Node11</title>
<path fill="none" stroke="#63b8ff" d="M198.74,-282.13C195.22,-283.49 191.78,-284.98 188.5,-286.62 144.81,-308.45 103.45,-350.61 85.98,-369.74"/>
<polygon fill="#63b8ff" stroke="#63b8ff" points="199.53,-285.21 207.84,-278.64 197.25,-278.6 199.53,-285.21"/>
</g>
<!-- Node20 -->
<g id="node20" class="node">
<title>Node20</title>
<g id="a_node20"><a xlink:href="classsss_1_1api_1_1S3Api.html#a872e80e356e8c404a9b0739d95a0af41" target="_top" xlink:title="Return object size.">
<polygon fill="white" stroke="#666666" points="152.5,-222.25 0,-222.25 0,-203 152.5,-203 152.5,-222.25"/>
<text text-anchor="middle" x="76.25" y="-208.75" font-family="Helvetica,sans-Serif" font-size="10.00">sss::api::S3Api::GetObjectSize</text>
</a>
</g>
</g>
<!-- Node19&#45;&gt;Node20 -->
<g id="edge22" class="edge">
<title>Node19&#45;&gt;Node20</title>
<path fill="none" stroke="#63b8ff" d="M184.63,-202.34C174.09,-203.35 163.33,-204.38 152.87,-205.38"/>
<polygon fill="#63b8ff" stroke="#63b8ff" points="184.89,-205.74 194.51,-201.3 184.22,-198.77 184.89,-205.74"/>
</g>
<!-- Node21 -->
<g id="node21" class="node">
<title>Node21</title>
<g id="a_node21"><a xlink:href="classsss_1_1api_1_1S3Api.html#aa3f7a3001bdad58c7b0c04cbd0dc3236" target="_top" xlink:title="Check if key exists.">
<polygon fill="white" stroke="#666666" points="144.25,-185.25 8.25,-185.25 8.25,-166 144.25,-166 144.25,-185.25"/>
<text text-anchor="middle" x="76.25" y="-171.75" font-family="Helvetica,sans-Serif" font-size="10.00">sss::api::S3Api::TestObject</text>
</a>
</g>
</g>
<!-- Node19&#45;&gt;Node21 -->
<g id="edge23" class="edge">
<title>Node19&#45;&gt;Node21</title>
<path fill="none" stroke="#63b8ff" d="M184.88,-186.5C171.48,-185.15 157.71,-183.76 144.69,-182.44"/>
<polygon fill="#63b8ff" stroke="#63b8ff" points="184.21,-190.05 194.51,-187.58 184.92,-183.09 184.21,-190.05"/>
</g>
<!-- Node22&#45;&gt;Node11 -->
<g id="edge25" class="edge">
<title>Node22&#45;&gt;Node11</title>
<path fill="none" stroke="#63b8ff" d="M195.41,-245.87C193.03,-247.03 190.72,-248.27 188.5,-249.62 136.73,-281.13 96.82,-344.97 82.75,-369.61"/>
<polygon fill="#63b8ff" stroke="#63b8ff" points="196.64,-248.73 204.5,-241.63 193.93,-242.28 196.64,-248.73"/>
</g>
<!-- Node29&#45;&gt;Node7 -->
<g id="edge33" class="edge">
<title>Node29&#45;&gt;Node7</title>
<path fill="none" stroke="#63b8ff" d="M678.68,-305.62C620.6,-305.62 546.05,-305.62 496.09,-305.62"/>
<polygon fill="#63b8ff" stroke="#63b8ff" points="678.33,-309.13 688.33,-305.62 678.32,-302.13 678.33,-309.13"/>
</g>
<!-- Node29&#45;&gt;Node28 -->
<g id="edge34" class="edge">
<title>Node29&#45;&gt;Node28</title>
<path fill="none" stroke="#63b8ff" d="M678.62,-316.92C668.74,-318.2 658.9,-319.47 649.64,-320.67"/>
<polygon fill="#63b8ff" stroke="#63b8ff" points="678.86,-320.29 688.33,-315.53 677.96,-313.34 678.86,-320.29"/>
</g>
</g>
</svg>
