<?xml version="1.0" encoding="UTF-8" standalone="no"?>
<!DOCTYPE svg PUBLIC "-//W3C//DTD SVG 1.1//EN"
 "http://www.w3.org/Graphics/SVG/1.1/DTD/svg11.dtd">
<!-- Generated by graphviz version 8.0.5 (20230430.1635)
 -->
<!-- Title: sss::XMLTag Pages: 1 -->
<svg width="273pt" height="88pt"
 viewBox="0.00 0.00 273.25 87.50" xmlns="http://www.w3.org/2000/svg" xmlns:xlink="http://www.w3.org/1999/xlink">
<g id="graph0" class="graph" transform="scale(1 1) rotate(0) translate(4 83.5)">
<title>sss::XMLTag</title>
<!-- Node1 -->
<g id="node1" class="node">
<title>Node1</title>
<g id="a_node1"><a xlink:title="Extract and return content of XML tag.">
<polygon fill="#999999" stroke="#666666" points="265.25,-48.88 191.5,-48.88 191.5,-29.62 265.25,-29.62 265.25,-48.88"/>
<text text-anchor="middle" x="228.38" y="-35.38" font-family="Helvetica,sans-Serif" font-size="10.00">sss::XMLTag</text>
</a>
</g>
</g>
<!-- Node2 -->
<g id="node2" class="node">
<title>Node2</title>
<g id="a_node2"><a xlink:href="classsss_1_1api_1_1S3Api.html#a98f999a216121118dd569c7ef0c28ff3" target="_top" xlink:title="Complete multipart upload.">
<polygon fill="white" stroke="#666666" points="143.12,-79.5 12.38,-79.5 12.38,-49 143.12,-49 143.12,-79.5"/>
<text text-anchor="start" x="20.38" y="-66" font-family="Helvetica,sans-Serif" font-size="10.00">sss::api::S3Api::Complete</text>
<text text-anchor="middle" x="77.75" y="-54.75" font-family="Helvetica,sans-Serif" font-size="10.00">MultipartUpload</text>
</a>
</g>
</g>
<!-- Node1&#45;&gt;Node2 -->
<g id="edge1" class="edge">
<title>Node1&#45;&gt;Node2</title>
<path fill="none" stroke="#63b8ff" d="M180.18,-47.19C168.5,-49.15 155.78,-51.29 143.43,-53.37"/>
<polygon fill="#63b8ff" stroke="#63b8ff" points="180.74,-50.48 190.02,-45.37 179.58,-43.57 180.74,-50.48"/>
</g>
<!-- Node3 -->
<g id="node3" class="node">
<title>Node3</title>
<g id="a_node3"><a xlink:href="classsss_1_1api_1_1S3Api.html#a1796fafda3d90a4292a611ce1999433b" target="_top" xlink:title="Create multipart upload.">
<polygon fill="white" stroke="#666666" points="155.5,-30.5 0,-30.5 0,0 155.5,0 155.5,-30.5"/>
<text text-anchor="start" x="8" y="-17" font-family="Helvetica,sans-Serif" font-size="10.00">sss::api::S3Api::CreateMultipart</text>
<text text-anchor="middle" x="77.75" y="-5.75" font-family="Helvetica,sans-Serif" font-size="10.00">Upload</text>
</a>
</g>
</g>
<!-- Node1&#45;&gt;Node3 -->
<g id="edge2" class="edge">
<title>Node1&#45;&gt;Node3</title>
<path fill="none" stroke="#63b8ff" d="M180.29,-31.65C172.46,-30.38 164.15,-29.04 155.8,-27.69"/>
<polygon fill="#63b8ff" stroke="#63b8ff" points="179.59,-35.24 190.02,-33.38 180.7,-28.33 179.59,-35.24"/>
</g>
</g>
</svg>
