<?xml version="1.0" encoding="UTF-8" standalone="no"?>
<!DOCTYPE svg PUBLIC "-//W3C//DTD SVG 1.1//EN"
 "http://www.w3.org/Graphics/SVG/1.1/DTD/svg11.dtd">
<!-- Generated by graphviz version 8.0.5 (20230430.1635)
 -->
<!-- Title: sss::Hex Pages: 1 -->
<svg width="502pt" height="83pt"
 viewBox="0.00 0.00 501.75 83.25" xmlns="http://www.w3.org/2000/svg" xmlns:xlink="http://www.w3.org/1999/xlink">
<g id="graph0" class="graph" transform="scale(1 1) rotate(0) translate(4 79.25)">
<title>sss::Hex</title>
<!-- Node1 -->
<g id="node1" class="node">
<title>Node1</title>
<g id="a_node1"><a xlink:title="Byte to hex string conversion.">
<polygon fill="#999999" stroke="#666666" points="493.75,-37.25 438,-37.25 438,-18 493.75,-18 493.75,-37.25"/>
<text text-anchor="middle" x="465.88" y="-23.75" font-family="Helvetica,sans-Serif" font-size="10.00">sss::Hex</text>
</a>
</g>
</g>
<!-- Node2 -->
<g id="node2" class="node">
<title>Node2</title>
<g id="a_node2"><a xlink:href="group__Sign.html#ga904d511ec786b87644cc90dc96dd8f3f" target="_top" xlink:title="Compute signature.">
<polygon fill="white" stroke="#666666" points="402,-56.25 283.25,-56.25 283.25,-37 402,-37 402,-56.25"/>
<text text-anchor="middle" x="342.62" y="-42.75" font-family="Helvetica,sans-Serif" font-size="10.00">sss::ComputeSignature</text>
</a>
</g>
</g>
<!-- Node1&#45;&gt;Node2 -->
<g id="edge1" class="edge">
<title>Node1&#45;&gt;Node2</title>
<path fill="none" stroke="#63b8ff" d="M426.8,-33.59C419.06,-34.8 410.74,-36.11 402.47,-37.4"/>
<polygon fill="#63b8ff" stroke="#63b8ff" points="427.33,-36.89 436.66,-31.89 426.24,-29.98 427.33,-36.89"/>
</g>
<!-- Node6 -->
<g id="node6" class="node">
<title>Node6</title>
<g id="a_node6"><a xlink:href="group__Sign.html#gaaeb7f183b807aa05237023d855841246" target="_top" xlink:title="Generate presigned URL.">
<polygon fill="white" stroke="#666666" points="386.62,-19.25 298.62,-19.25 298.62,0 386.62,0 386.62,-19.25"/>
<text text-anchor="middle" x="342.62" y="-5.75" font-family="Helvetica,sans-Serif" font-size="10.00">sss::SignedURL</text>
</a>
</g>
</g>
<!-- Node1&#45;&gt;Node6 -->
<g id="edge5" class="edge">
<title>Node1&#45;&gt;Node6</title>
<path fill="none" stroke="#63b8ff" d="M426.97,-22C414.27,-20.11 400.01,-18 386.93,-16.05"/>
<polygon fill="#63b8ff" stroke="#63b8ff" points="426.26,-25.58 436.66,-23.59 427.29,-18.65 426.26,-25.58"/>
</g>
<!-- Node3 -->
<g id="node3" class="node">
<title>Node3</title>
<g id="a_node3"><a xlink:href="group__Sign.html#ga3ae8e18ef70752b7369fca66c40c526b" target="_top" xlink:title="Sign headers.">
<polygon fill="white" stroke="#666666" points="247.25,-56.25 153.25,-56.25 153.25,-37 247.25,-37 247.25,-56.25"/>
<text text-anchor="middle" x="200.25" y="-42.75" font-family="Helvetica,sans-Serif" font-size="10.00">sss::SignHeaders</text>
</a>
</g>
</g>
<!-- Node2&#45;&gt;Node3 -->
<g id="edge2" class="edge">
<title>Node2&#45;&gt;Node3</title>
<path fill="none" stroke="#63b8ff" d="M271.97,-46.62C263.62,-46.62 255.25,-46.62 247.35,-46.62"/>
<polygon fill="#63b8ff" stroke="#63b8ff" points="271.91,-50.13 281.91,-46.62 271.91,-43.13 271.91,-50.13"/>
</g>
<!-- Node4 -->
<g id="node4" class="node">
<title>Node4</title>
<g id="a_node4"><a xlink:href="classsss_1_1api_1_1S3Api.html#a88b3eb551e57106ed171d9079de6afb4" target="_top" xlink:title="[WebClient::Config]">
<polygon fill="white" stroke="#666666" points="117.25,-75.25 0,-75.25 0,-56 117.25,-56 117.25,-75.25"/>
<text text-anchor="middle" x="58.62" y="-61.75" font-family="Helvetica,sans-Serif" font-size="10.00">sss::api::S3Api::Config</text>
</a>
</g>
</g>
<!-- Node3&#45;&gt;Node4 -->
<g id="edge3" class="edge">
<title>Node3&#45;&gt;Node4</title>
<path fill="none" stroke="#63b8ff" d="M141.97,-54.42C133.92,-55.51 125.65,-56.64 117.59,-57.74"/>
<polygon fill="#63b8ff" stroke="#63b8ff" points="142.32,-57.77 151.76,-52.95 141.38,-50.83 142.32,-57.77"/>
</g>
<!-- Node5 -->
<g id="node5" class="node">
<title>Node5</title>
<g id="a_node5"><a xlink:href="group__S3Client.html#ga5a769be8fbc874bad858ea95743e5643" target="_top" xlink:title="Send S3 request to endpoint.">
<polygon fill="white" stroke="#666666" points="113.12,-38.25 4.12,-38.25 4.12,-19 113.12,-19 113.12,-38.25"/>
<text text-anchor="middle" x="58.62" y="-24.75" font-family="Helvetica,sans-Serif" font-size="10.00">sss::SendS3Request</text>
</a>
</g>
</g>
<!-- Node3&#45;&gt;Node5 -->
<g id="edge4" class="edge">
<title>Node3&#45;&gt;Node5</title>
<path fill="none" stroke="#63b8ff" d="M142.12,-39.26C132.55,-38.03 122.64,-36.75 113.16,-35.53"/>
<polygon fill="#63b8ff" stroke="#63b8ff" points="141.39,-42.82 151.76,-40.63 142.29,-35.88 141.39,-42.82"/>
</g>
</g>
</svg>
