<?xml version="1.0" encoding="UTF-8" standalone="no"?>
<!DOCTYPE svg PUBLIC "-//W3C//DTD SVG 1.1//EN"
 "http://www.w3.org/Graphics/SVG/1.1/DTD/svg11.dtd">
<!-- Generated by graphviz version 8.0.5 (20230430.1635)
 -->
<!-- Title: alloc_padded Pages: 1 -->
<svg width="193pt" height="64pt"
 viewBox="0.00 0.00 193.00 64.25" xmlns="http://www.w3.org/2000/svg" xmlns:xlink="http://www.w3.org/1999/xlink">
<g id="graph0" class="graph" transform="scale(1 1) rotate(0) translate(4 60.25)">
<title>alloc_padded</title>
<!-- Node1 -->
<g id="node1" class="node">
<title>Node1</title>
<g id="a_node1"><a xlink:title="Allocate buffer of correct size for computing hash code.">
<polygon fill="#999999" stroke="#666666" points="73,-37.25 0,-37.25 0,-18 73,-18 73,-37.25"/>
<text text-anchor="middle" x="36.5" y="-23.75" font-family="Helvetica,sans-Serif" font-size="10.00">alloc_padded</text>
</a>
</g>
</g>
<!-- Node2 -->
<g id="node2" class="node">
<title>Node2</title>
<g id="a_node2"><a xlink:href="group__Hash__Utility.html#ga2f56d7c5d4d0a61f36bdafd0abd32191" target="_top" xlink:title="Return next number evenly divisible by specified number.">
<polygon fill="white" stroke="#666666" points="181.25,-56.25 112.75,-56.25 112.75,-37 181.25,-37 181.25,-56.25"/>
<text text-anchor="middle" x="147" y="-42.75" font-family="Helvetica,sans-Serif" font-size="10.00">next_div_by</text>
</a>
</g>
</g>
<!-- Node1&#45;&gt;Node2 -->
<g id="edge1" class="edge">
<title>Node1&#45;&gt;Node2</title>
<path fill="none" stroke="#63b8ff" d="M73.33,-33.9C82.38,-35.48 92.21,-37.2 101.62,-38.85"/>
<polygon fill="#63b8ff" stroke="#63b8ff" points="100.96,-42.47 111.42,-40.74 102.17,-35.57 100.96,-42.47"/>
</g>
<!-- Node3 -->
<g id="node3" class="node">
<title>Node3</title>
<g id="a_node3"><a xlink:href="group__Hash__Utility.html#gac77df34e18fbd8a9ae82a50cf65d6cf4" target="_top" xlink:title="Convert number from little endian to big endian.">
<polygon fill="white" stroke="#666666" points="185,-19.25 109,-19.25 109,0 185,0 185,-19.25"/>
<text text-anchor="middle" x="147" y="-5.75" font-family="Helvetica,sans-Serif" font-size="10.00">to_big_endian</text>
</a>
</g>
</g>
<!-- Node1&#45;&gt;Node3 -->
<g id="edge2" class="edge">
<title>Node1&#45;&gt;Node3</title>
<path fill="none" stroke="#63b8ff" d="M73.33,-21.68C81.22,-20.37 89.71,-18.96 98,-17.59"/>
<polygon fill="#63b8ff" stroke="#63b8ff" points="98.43,-20.9 107.72,-15.81 97.28,-13.99 98.43,-20.9"/>
</g>
</g>
</svg>
