<?xml version="1.0" encoding="UTF-8" standalone="no"?>
<!DOCTYPE svg PUBLIC "-//W3C//DTD SVG 1.1//EN"
 "http://www.w3.org/Graphics/SVG/1.1/DTD/svg11.dtd">
<!-- Generated by graphviz version 2.43.0 (0)
 -->
<!-- Title: sss::ParseParams Pages: 1 -->
<svg width="635pt" height="1081pt"
 viewBox="0.00 0.00 635.00 1080.50" xmlns="http://www.w3.org/2000/svg" xmlns:xlink="http://www.w3.org/1999/xlink">
<g id="graph0" class="graph" transform="scale(1 1) rotate(0) translate(4 1076.5)">
<title>sss::ParseParams</title>
<!-- Node1 -->
<g id="node1" class="node">
<title>Node1</title>
<g id="a_node1"><a xlink:title=" ">
<polygon fill="#bfbfbf" stroke="black" points="529,-509.5 529,-528.5 627,-528.5 627,-509.5 529,-509.5"/>
<text text-anchor="middle" x="578" y="-516.5" font-family="Helvetica,sans-Serif" font-size="10.00">sss::ParseParams</text>
</a>
</g>
</g>
<!-- Node2 -->
<g id="node2" class="node">
<title>Node2</title>
<g id="a_node2"><a xlink:href="classsss_1_1api_1_1S3Api.html#a02b4f0c95255f151beb72f0a6bdf5889" target="_top" xlink:title="Send request.">
<polygon fill="none" stroke="black" points="381,-509.5 381,-528.5 493,-528.5 493,-509.5 381,-509.5"/>
<text text-anchor="middle" x="437" y="-516.5" font-family="Helvetica,sans-Serif" font-size="10.00">sss::api::S3Api::Send</text>
</a>
</g>
</g>
<!-- Node1&#45;&gt;Node2 -->
<g id="edge1" class="edge">
<title>Node1&#45;&gt;Node2</title>
<path fill="none" stroke="midnightblue" d="M518.67,-519C510.26,-519 501.63,-519 493.29,-519"/>
<polygon fill="midnightblue" stroke="midnightblue" points="518.77,-522.5 528.77,-519 518.77,-515.5 518.77,-522.5"/>
</g>
<!-- Node3 -->
<g id="node3" class="node">
<title>Node3</title>
<g id="a_node3"><a xlink:href="classsss_1_1api_1_1S3Api.html#a4ea265566c3c4335ec01201cdc4410c6" target="_top" xlink:title="Abort multipart upload.">
<polygon fill="none" stroke="black" points="192,-1042 192,-1072 342,-1072 342,-1042 192,-1042"/>
<text text-anchor="start" x="200" y="-1060" font-family="Helvetica,sans-Serif" font-size="10.00">sss::api::S3Api::AbortMultipart</text>
<text text-anchor="middle" x="267" y="-1049" font-family="Helvetica,sans-Serif" font-size="10.00">Upload</text>
</a>
</g>
</g>
<!-- Node2&#45;&gt;Node3 -->
<g id="edge2" class="edge">
<title>Node2&#45;&gt;Node3</title>
<path fill="none" stroke="midnightblue" d="M435.17,-538.91C431.22,-624.14 411.7,-957.24 345,-1033 341.95,-1036.47 338.4,-1039.44 334.54,-1041.99"/>
<polygon fill="midnightblue" stroke="midnightblue" points="438.67,-538.93 435.62,-528.78 431.68,-538.62 438.67,-538.93"/>
</g>
<!-- Node4 -->
<g id="node4" class="node">
<title>Node4</title>
<g id="a_node4"><a xlink:href="classsss_1_1api_1_1S3Api.html#a98f999a216121118dd569c7ef0c28ff3" target="_top" xlink:title="Complete multipart upload.">
<polygon fill="none" stroke="black" points="201.5,-993 201.5,-1023 332.5,-1023 332.5,-993 201.5,-993"/>
<text text-anchor="start" x="209.5" y="-1011" font-family="Helvetica,sans-Serif" font-size="10.00">sss::api::S3Api::Complete</text>
<text text-anchor="middle" x="267" y="-1000" font-family="Helvetica,sans-Serif" font-size="10.00">MultipartUpload</text>
</a>
</g>
</g>
<!-- Node2&#45;&gt;Node4 -->
<g id="edge3" class="edge">
<title>Node2&#45;&gt;Node4</title>
<path fill="none" stroke="midnightblue" d="M434.75,-538.71C429.3,-618.31 405.2,-915.08 345,-983 341.46,-987 337.27,-990.36 332.71,-993.18"/>
<polygon fill="midnightblue" stroke="midnightblue" points="438.25,-538.8 435.42,-528.59 431.26,-538.34 438.25,-538.8"/>
</g>
<!-- Node5 -->
<g id="node5" class="node">
<title>Node5</title>
<g id="a_node5"><a xlink:href="classsss_1_1api_1_1S3Api.html#abea2ccea14a042c7c0d4b2ce5266ea5f" target="_top" xlink:title="Create bucket.">
<polygon fill="none" stroke="black" points="192.5,-954.5 192.5,-973.5 341.5,-973.5 341.5,-954.5 192.5,-954.5"/>
<text text-anchor="middle" x="267" y="-961.5" font-family="Helvetica,sans-Serif" font-size="10.00">sss::api::S3Api::CreateBucket</text>
</a>
</g>
</g>
<!-- Node2&#45;&gt;Node5 -->
<g id="edge4" class="edge">
<title>Node2&#45;&gt;Node5</title>
<path fill="none" stroke="midnightblue" d="M434.52,-538.65C428.42,-614.28 402.82,-885.33 345,-945 341.36,-948.76 337.1,-951.82 332.49,-954.31"/>
<polygon fill="midnightblue" stroke="midnightblue" points="438.01,-538.84 435.31,-528.6 431.04,-538.3 438.01,-538.84"/>
</g>
<!-- Node6 -->
<g id="node6" class="node">
<title>Node6</title>
<g id="a_node6"><a xlink:href="classsss_1_1api_1_1S3Api.html#a1796fafda3d90a4292a611ce1999433b" target="_top" xlink:title="Create multipart upload.">
<polygon fill="none" stroke="black" points="189,-905 189,-935 345,-935 345,-905 189,-905"/>
<text text-anchor="start" x="197" y="-923" font-family="Helvetica,sans-Serif" font-size="10.00">sss::api::S3Api::CreateMultipart</text>
<text text-anchor="middle" x="267" y="-912" font-family="Helvetica,sans-Serif" font-size="10.00">Upload</text>
</a>
</g>
</g>
<!-- Node2&#45;&gt;Node6 -->
<g id="edge5" class="edge">
<title>Node2&#45;&gt;Node6</title>
<path fill="none" stroke="midnightblue" d="M433.75,-538.87C425.45,-608.71 394.5,-841.56 345,-895 341.47,-898.82 337.35,-902.05 332.88,-904.79"/>
<polygon fill="midnightblue" stroke="midnightblue" points="437.24,-539.12 434.92,-528.78 430.29,-538.31 437.24,-539.12"/>
</g>
<!-- Node7 -->
<g id="node7" class="node">
<title>Node7</title>
<g id="a_node7"><a xlink:href="classsss_1_1api_1_1S3Api.html#a3d63825d1916e4ba3ca13122c7660603" target="_top" xlink:title="Delete bucket.">
<polygon fill="none" stroke="black" points="192.5,-866.5 192.5,-885.5 341.5,-885.5 341.5,-866.5 192.5,-866.5"/>
<text text-anchor="middle" x="267" y="-873.5" font-family="Helvetica,sans-Serif" font-size="10.00">sss::api::S3Api::DeleteBucket</text>
</a>
</g>
</g>
<!-- Node2&#45;&gt;Node7 -->
<g id="edge6" class="edge">
<title>Node2&#45;&gt;Node7</title>
<path fill="none" stroke="midnightblue" d="M433.35,-538.64C424.16,-603.79 391.7,-811.28 345,-857 341.06,-860.85 336.48,-863.97 331.54,-866.48"/>
<polygon fill="midnightblue" stroke="midnightblue" points="436.85,-538.89 434.75,-528.51 429.91,-537.93 436.85,-538.89"/>
</g>
<!-- Node8 -->
<g id="node8" class="node">
<title>Node8</title>
<g id="a_node8"><a xlink:href="classsss_1_1api_1_1S3Api.html#a062a3a07fb8ade39db1e46426ff939d8" target="_top" xlink:title="Remove all tags from bucket.">
<polygon fill="none" stroke="black" points="192.5,-817 192.5,-847 341.5,-847 341.5,-817 192.5,-817"/>
<text text-anchor="start" x="200.5" y="-835" font-family="Helvetica,sans-Serif" font-size="10.00">sss::api::S3Api::DeleteBucket</text>
<text text-anchor="middle" x="267" y="-824" font-family="Helvetica,sans-Serif" font-size="10.00">Tagging</text>
</a>
</g>
</g>
<!-- Node2&#45;&gt;Node8 -->
<g id="edge7" class="edge">
<title>Node2&#45;&gt;Node8</title>
<path fill="none" stroke="midnightblue" d="M435.66,-538.6C433.69,-590.03 421.22,-730.17 345,-807 341.14,-810.89 336.67,-814.18 331.86,-816.95"/>
<polygon fill="midnightblue" stroke="midnightblue" points="439.16,-538.61 435.95,-528.52 432.16,-538.41 439.16,-538.61"/>
</g>
<!-- Node9 -->
<g id="node9" class="node">
<title>Node9</title>
<g id="a_node9"><a xlink:href="classsss_1_1api_1_1S3Api.html#ade1a193696061cfc0e6dff4a6975f8b3" target="_top" xlink:title="Delete object.">
<polygon fill="none" stroke="black" points="194,-778.5 194,-797.5 340,-797.5 340,-778.5 194,-778.5"/>
<text text-anchor="middle" x="267" y="-785.5" font-family="Helvetica,sans-Serif" font-size="10.00">sss::api::S3Api::DeleteObject</text>
</a>
</g>
</g>
<!-- Node2&#45;&gt;Node9 -->
<g id="edge8" class="edge">
<title>Node2&#45;&gt;Node9</title>
<path fill="none" stroke="midnightblue" d="M434.87,-538.81C431.07,-586.12 414.68,-706.41 345,-769 340.7,-772.86 335.73,-775.97 330.44,-778.47"/>
<polygon fill="midnightblue" stroke="midnightblue" points="438.37,-538.88 435.58,-528.67 431.39,-538.4 438.37,-538.88"/>
</g>
<!-- Node10 -->
<g id="node10" class="node">
<title>Node10</title>
<g id="a_node10"><a xlink:href="classsss_1_1api_1_1S3Api.html#a23419050019b63bc5548181344067f01" target="_top" xlink:title="Remove all tags from object.">
<polygon fill="none" stroke="black" points="194,-729 194,-759 340,-759 340,-729 194,-729"/>
<text text-anchor="start" x="202" y="-747" font-family="Helvetica,sans-Serif" font-size="10.00">sss::api::S3Api::DeleteObject</text>
<text text-anchor="middle" x="267" y="-736" font-family="Helvetica,sans-Serif" font-size="10.00">Tagging</text>
</a>
</g>
</g>
<!-- Node2&#45;&gt;Node10 -->
<g id="edge9" class="edge">
<title>Node2&#45;&gt;Node10</title>
<path fill="none" stroke="midnightblue" d="M432.55,-538.54C424.51,-578.32 400.8,-669.18 345,-719 340.7,-722.84 335.8,-726.09 330.61,-728.84"/>
<polygon fill="midnightblue" stroke="midnightblue" points="436.02,-539.02 434.45,-528.54 429.15,-537.71 436.02,-539.02"/>
</g>
<!-- Node11 -->
<g id="node11" class="node">
<title>Node11</title>
<g id="a_node11"><a xlink:href="classsss_1_1api_1_1S3Api.html#a3b53152bf39143843a4033aa4a1b3fa0" target="_top" xlink:title=" ">
<polygon fill="none" stroke="black" points="192,-690.5 192,-709.5 342,-709.5 342,-690.5 192,-690.5"/>
<text text-anchor="middle" x="267" y="-697.5" font-family="Helvetica,sans-Serif" font-size="10.00">sss::api::S3Api::GetBucketAcl</text>
</a>
</g>
</g>
<!-- Node2&#45;&gt;Node11 -->
<g id="edge10" class="edge">
<title>Node2&#45;&gt;Node11</title>
<path fill="none" stroke="midnightblue" d="M430.62,-538.63C420.13,-573.01 393.65,-643.98 345,-681 339.96,-684.84 334.24,-687.91 328.26,-690.36"/>
<polygon fill="midnightblue" stroke="midnightblue" points="434.03,-539.42 433.46,-528.84 427.31,-537.46 434.03,-539.42"/>
</g>
<!-- Node12 -->
<g id="node12" class="node">
<title>Node12</title>
<g id="a_node12"><a xlink:href="classsss_1_1api_1_1S3Api.html#afdb9997dfbd29512cbfe8da9f0028cf8" target="_top" xlink:title="Return bucket tags.">
<polygon fill="none" stroke="black" points="199,-641 199,-671 335,-671 335,-641 199,-641"/>
<text text-anchor="start" x="207" y="-659" font-family="Helvetica,sans-Serif" font-size="10.00">sss::api::S3Api::GetBucket</text>
<text text-anchor="middle" x="267" y="-648" font-family="Helvetica,sans-Serif" font-size="10.00">Tagging</text>
</a>
</g>
</g>
<!-- Node2&#45;&gt;Node12 -->
<g id="edge11" class="edge">
<title>Node2&#45;&gt;Node12</title>
<path fill="none" stroke="midnightblue" d="M425.77,-537.66C411.11,-562.72 381.77,-606.98 345,-632 340.02,-635.39 334.54,-638.31 328.87,-640.84"/>
<polygon fill="midnightblue" stroke="midnightblue" points="428.92,-539.21 430.82,-528.79 422.83,-535.75 428.92,-539.21"/>
</g>
<!-- Node13 -->
<g id="node13" class="node">
<title>Node13</title>
<g id="a_node13"><a xlink:href="classsss_1_1api_1_1S3Api.html#a26387e640fa4d3c0715dc48f932ae410" target="_top" xlink:title="Retrieve versioning status.">
<polygon fill="none" stroke="black" points="199,-592 199,-622 335,-622 335,-592 199,-592"/>
<text text-anchor="start" x="207" y="-610" font-family="Helvetica,sans-Serif" font-size="10.00">sss::api::S3Api::GetBucket</text>
<text text-anchor="middle" x="267" y="-599" font-family="Helvetica,sans-Serif" font-size="10.00">Versioning</text>
</a>
</g>
</g>
<!-- Node2&#45;&gt;Node13 -->
<g id="edge12" class="edge">
<title>Node2&#45;&gt;Node13</title>
<path fill="none" stroke="midnightblue" d="M416.74,-534.83C399,-548.78 371.49,-568.88 345,-582 337.57,-585.68 329.47,-588.99 321.41,-591.91"/>
<polygon fill="midnightblue" stroke="midnightblue" points="419,-537.51 424.62,-528.53 414.62,-532.04 419,-537.51"/>
</g>
<!-- Node14 -->
<g id="node14" class="node">
<title>Node14</title>
<g id="a_node14"><a xlink:href="classsss_1_1api_1_1S3Api.html#ae548966dc38f328fc45ee1500f5caf5b" target="_top" xlink:title="Return bucket&#39;s Access Control List.">
<polygon fill="none" stroke="black" points="193,-553.5 193,-572.5 341,-572.5 341,-553.5 193,-553.5"/>
<text text-anchor="middle" x="267" y="-560.5" font-family="Helvetica,sans-Serif" font-size="10.00">sss::api::S3Api::GetObjectAcl</text>
</a>
</g>
</g>
<!-- Node2&#45;&gt;Node14 -->
<g id="edge13" class="edge">
<title>Node2&#45;&gt;Node14</title>
<path fill="none" stroke="midnightblue" d="M391.95,-531.35C377.06,-535.46 360.33,-540 345,-544 332.88,-547.16 319.64,-550.48 307.62,-553.43"/>
<polygon fill="midnightblue" stroke="midnightblue" points="393.22,-534.63 401.92,-528.59 391.35,-527.89 393.22,-534.63"/>
</g>
<!-- Node15 -->
<g id="node15" class="node">
<title>Node15</title>
<g id="a_node15"><a xlink:href="classsss_1_1api_1_1S3Api.html#aceb12e50a72a7b9b3ca460c23671c586" target="_top" xlink:title="Return object tags.">
<polygon fill="none" stroke="black" points="200,-504 200,-534 334,-534 334,-504 200,-504"/>
<text text-anchor="start" x="208" y="-522" font-family="Helvetica,sans-Serif" font-size="10.00">sss::api::S3Api::GetObject</text>
<text text-anchor="middle" x="267" y="-511" font-family="Helvetica,sans-Serif" font-size="10.00">Tagging</text>
</a>
</g>
</g>
<!-- Node2&#45;&gt;Node15 -->
<g id="edge14" class="edge">
<title>Node2&#45;&gt;Node15</title>
<path fill="none" stroke="midnightblue" d="M370.66,-519C358.71,-519 346.23,-519 334.26,-519"/>
<polygon fill="midnightblue" stroke="midnightblue" points="370.99,-522.5 380.99,-519 370.99,-515.5 370.99,-522.5"/>
</g>
<!-- Node16 -->
<g id="node16" class="node">
<title>Node16</title>
<g id="a_node16"><a xlink:href="classsss_1_1api_1_1S3Api.html#aa4a2b1cc2c89a52d1aa89e571b785db2" target="_top" xlink:title=" ">
<polygon fill="none" stroke="black" points="195.5,-465.5 195.5,-484.5 338.5,-484.5 338.5,-465.5 195.5,-465.5"/>
<text text-anchor="middle" x="267" y="-472.5" font-family="Helvetica,sans-Serif" font-size="10.00">sss::api::S3Api::HeadBucket</text>
</a>
</g>
</g>
<!-- Node2&#45;&gt;Node16 -->
<g id="edge15" class="edge">
<title>Node2&#45;&gt;Node16</title>
<path fill="none" stroke="midnightblue" d="M390.01,-506.83C375.6,-503.03 359.64,-498.83 345,-495 331.91,-491.57 317.55,-487.84 304.82,-484.53"/>
<polygon fill="midnightblue" stroke="midnightblue" points="389.14,-510.22 399.7,-509.39 390.92,-503.46 389.14,-510.22"/>
</g>
<!-- Node17 -->
<g id="node17" class="node">
<title>Node17</title>
<g id="a_node17"><a xlink:href="classsss_1_1api_1_1S3Api.html#a0382afb5f4a42d477af76ea322324ddd" target="_top" xlink:title="Send HeadObject request.">
<polygon fill="none" stroke="black" points="196.5,-427.5 196.5,-446.5 337.5,-446.5 337.5,-427.5 196.5,-427.5"/>
<text text-anchor="middle" x="267" y="-434.5" font-family="Helvetica,sans-Serif" font-size="10.00">sss::api::S3Api::HeadObject</text>
</a>
</g>
</g>
<!-- Node2&#45;&gt;Node17 -->
<g id="edge16" class="edge">
<title>Node2&#45;&gt;Node17</title>
<path fill="none" stroke="midnightblue" d="M417.25,-502.95C399.67,-488.68 372.09,-468.22 345,-456 336.59,-452.21 327.31,-449.1 318.19,-446.57"/>
<polygon fill="midnightblue" stroke="midnightblue" points="415.1,-505.71 425.04,-509.4 419.57,-500.32 415.1,-505.71"/>
</g>
<!-- Node20 -->
<g id="node20" class="node">
<title>Node20</title>
<g id="a_node20"><a xlink:href="classsss_1_1api_1_1S3Api.html#a81e30673c06b609a2ee6e6bfd9130ca6" target="_top" xlink:title="List buckets.">
<polygon fill="none" stroke="black" points="196.5,-389.5 196.5,-408.5 337.5,-408.5 337.5,-389.5 196.5,-389.5"/>
<text text-anchor="middle" x="267" y="-396.5" font-family="Helvetica,sans-Serif" font-size="10.00">sss::api::S3Api::ListBuckets</text>
</a>
</g>
</g>
<!-- Node2&#45;&gt;Node20 -->
<g id="edge19" class="edge">
<title>Node2&#45;&gt;Node20</title>
<path fill="none" stroke="midnightblue" d="M424.82,-501.06C409.62,-478.19 380.24,-439.11 345,-418 338.5,-414.11 331.24,-411.01 323.85,-408.55"/>
<polygon fill="midnightblue" stroke="midnightblue" points="421.91,-503 430.28,-509.49 427.79,-499.2 421.91,-503"/>
</g>
<!-- Node21 -->
<g id="node21" class="node">
<title>Node21</title>
<g id="a_node21"><a xlink:href="classsss_1_1api_1_1S3Api.html#a3f00f611cd210a58ac6e8c0555984433" target="_top" xlink:title="List objects by sending a ListObjectsV2 request.">
<polygon fill="none" stroke="black" points="191.5,-351.5 191.5,-370.5 342.5,-370.5 342.5,-351.5 191.5,-351.5"/>
<text text-anchor="middle" x="267" y="-358.5" font-family="Helvetica,sans-Serif" font-size="10.00">sss::api::S3Api::ListObjectsV2</text>
</a>
</g>
</g>
<!-- Node2&#45;&gt;Node21 -->
<g id="edge20" class="edge">
<title>Node2&#45;&gt;Node21</title>
<path fill="none" stroke="midnightblue" d="M428.96,-500.06C416.72,-469.81 388.58,-410.88 345,-380 339.5,-376.1 333.28,-373 326.82,-370.53"/>
<polygon fill="midnightblue" stroke="midnightblue" points="425.74,-501.42 432.63,-509.47 432.26,-498.88 425.74,-501.42"/>
</g>
<!-- Node22 -->
<g id="node22" class="node">
<title>Node22</title>
<g id="a_node22"><a xlink:href="classsss_1_1api_1_1S3Api.html#a9695a76eb84d3e52800d037f1ef391aa" target="_top" xlink:title="Return all versions and delete markers for object.">
<polygon fill="none" stroke="black" points="200,-302 200,-332 334,-332 334,-302 200,-302"/>
<text text-anchor="start" x="208" y="-320" font-family="Helvetica,sans-Serif" font-size="10.00">sss::api::S3Api::ListObject</text>
<text text-anchor="middle" x="267" y="-309" font-family="Helvetica,sans-Serif" font-size="10.00">Versions</text>
</a>
</g>
</g>
<!-- Node2&#45;&gt;Node22 -->
<g id="edge21" class="edge">
<title>Node2&#45;&gt;Node22</title>
<path fill="none" stroke="midnightblue" d="M431.27,-499.47C421.49,-463.16 395.56,-385.02 345,-342 340.5,-338.17 335.41,-334.93 330.04,-332.18"/>
<polygon fill="midnightblue" stroke="midnightblue" points="427.93,-500.5 433.8,-509.32 434.7,-498.76 427.93,-500.5"/>
</g>
<!-- Node23 -->
<g id="node23" class="node">
<title>Node23</title>
<g id="a_node23"><a xlink:href="classsss_1_1api_1_1S3Api.html#aa35e9b1cc7661cd9bb0d5f2de6cbbc7d" target="_top" xlink:title="Set Access Control Policy for bucket.">
<polygon fill="none" stroke="black" points="192.5,-263.5 192.5,-282.5 341.5,-282.5 341.5,-263.5 192.5,-263.5"/>
<text text-anchor="middle" x="267" y="-270.5" font-family="Helvetica,sans-Serif" font-size="10.00">sss::api::S3Api::PutBucketAcl</text>
</a>
</g>
</g>
<!-- Node2&#45;&gt;Node23 -->
<g id="edge22" class="edge">
<title>Node2&#45;&gt;Node23</title>
<path fill="none" stroke="midnightblue" d="M434.08,-499.52C428.68,-455.51 409.25,-347.87 345,-292 340.53,-288.12 335.39,-285 329.93,-282.5"/>
<polygon fill="midnightblue" stroke="midnightblue" points="430.61,-499.94 435.2,-509.49 437.57,-499.17 430.61,-499.94"/>
</g>
<!-- Node24 -->
<g id="node24" class="node">
<title>Node24</title>
<g id="a_node24"><a xlink:href="classsss_1_1api_1_1S3Api.html#ae0b480d21933d41f7ca992ca5abe3091" target="_top" xlink:title="Tag bucket.">
<polygon fill="none" stroke="black" points="199.5,-214 199.5,-244 334.5,-244 334.5,-214 199.5,-214"/>
<text text-anchor="start" x="207.5" y="-232" font-family="Helvetica,sans-Serif" font-size="10.00">sss::api::S3Api::PutBucket</text>
<text text-anchor="middle" x="267" y="-221" font-family="Helvetica,sans-Serif" font-size="10.00">Tagging</text>
</a>
</g>
</g>
<!-- Node2&#45;&gt;Node24 -->
<g id="edge23" class="edge">
<title>Node2&#45;&gt;Node24</title>
<path fill="none" stroke="midnightblue" d="M435.03,-499.35C431.55,-450.71 415.8,-323.62 345,-254 341.09,-250.16 336.59,-246.9 331.76,-244.15"/>
<polygon fill="midnightblue" stroke="midnightblue" points="431.54,-499.7 435.65,-509.46 438.53,-499.27 431.54,-499.7"/>
</g>
<!-- Node25 -->
<g id="node25" class="node">
<title>Node25</title>
<g id="a_node25"><a xlink:href="classsss_1_1api_1_1S3Api.html#a11f96e3a1f9487688c824fea1831fe71" target="_top" xlink:title="Enable bucket versioning.">
<polygon fill="none" stroke="black" points="199.5,-165 199.5,-195 334.5,-195 334.5,-165 199.5,-165"/>
<text text-anchor="start" x="207.5" y="-183" font-family="Helvetica,sans-Serif" font-size="10.00">sss::api::S3Api::PutBucket</text>
<text text-anchor="middle" x="267" y="-172" font-family="Helvetica,sans-Serif" font-size="10.00">Versioning</text>
</a>
</g>
</g>
<!-- Node2&#45;&gt;Node25 -->
<g id="edge24" class="edge">
<title>Node2&#45;&gt;Node25</title>
<path fill="none" stroke="midnightblue" d="M436.34,-499.37C436.19,-444.65 428.1,-288.86 345,-204 341.67,-200.6 337.86,-197.68 333.77,-195.17"/>
<polygon fill="midnightblue" stroke="midnightblue" points="432.84,-499.43 436.28,-509.45 439.84,-499.48 432.84,-499.43"/>
</g>
<!-- Node26 -->
<g id="node26" class="node">
<title>Node26</title>
<g id="a_node26"><a xlink:href="classsss_1_1api_1_1S3Api.html#a2cc08fb777cfc4d24c40bea1cde967e7" target="_top" xlink:title="Set Access Control Policy.">
<polygon fill="none" stroke="black" points="193.5,-126.5 193.5,-145.5 340.5,-145.5 340.5,-126.5 193.5,-126.5"/>
<text text-anchor="middle" x="267" y="-133.5" font-family="Helvetica,sans-Serif" font-size="10.00">sss::api::S3Api::PutObjectAcl</text>
</a>
</g>
</g>
<!-- Node2&#45;&gt;Node26 -->
<g id="edge25" class="edge">
<title>Node2&#45;&gt;Node26</title>
<path fill="none" stroke="midnightblue" d="M433.73,-499.21C425.49,-430.65 394.93,-204.78 345,-155 341.2,-151.21 336.77,-148.13 331.99,-145.64"/>
<polygon fill="midnightblue" stroke="midnightblue" points="430.29,-499.94 434.94,-509.46 437.25,-499.12 430.29,-499.94"/>
</g>
<!-- Node27 -->
<g id="node27" class="node">
<title>Node27</title>
<g id="a_node27"><a xlink:href="classsss_1_1api_1_1S3Api.html#ac098e2619080dde98a75b71af8f66eef" target="_top" xlink:title="Set object tags.">
<polygon fill="none" stroke="black" points="200.5,-77 200.5,-107 333.5,-107 333.5,-77 200.5,-77"/>
<text text-anchor="start" x="208.5" y="-95" font-family="Helvetica,sans-Serif" font-size="10.00">sss::api::S3Api::PutObject</text>
<text text-anchor="middle" x="267" y="-84" font-family="Helvetica,sans-Serif" font-size="10.00">Tagging</text>
</a>
</g>
</g>
<!-- Node2&#45;&gt;Node27 -->
<g id="edge26" class="edge">
<title>Node2&#45;&gt;Node27</title>
<path fill="none" stroke="midnightblue" d="M434.09,-499.19C426.68,-426.36 397.65,-174.7 345,-117 341.49,-113.16 337.39,-109.91 332.94,-107.15"/>
<polygon fill="midnightblue" stroke="midnightblue" points="430.62,-499.68 435.09,-509.28 437.59,-498.99 430.62,-499.68"/>
</g>
<!-- Node28 -->
<g id="node28" class="node">
<title>Node28</title>
<g id="a_node28"><a xlink:href="classsss_1_1api_1_1S3Api.html#a0473917e4d25a4a6fca40d097e4299d6" target="_top" xlink:title=" ">
<polygon fill="none" stroke="black" points="211,-38.5 211,-57.5 323,-57.5 323,-38.5 211,-38.5"/>
<text text-anchor="middle" x="267" y="-45.5" font-family="Helvetica,sans-Serif" font-size="10.00">sss::api::S3Api::Send</text>
</a>
</g>
</g>
<!-- Node2&#45;&gt;Node28 -->
<g id="edge27" class="edge">
<title>Node2&#45;&gt;Node28</title>
<path fill="none" stroke="midnightblue" d="M434.77,-499.17C429.47,-420.4 406.08,-130.78 345,-67 339,-60.74 331.29,-56.4 323.08,-53.43"/>
<polygon fill="midnightblue" stroke="midnightblue" points="431.28,-499.46 435.42,-509.21 438.26,-499.01 431.28,-499.46"/>
</g>
<!-- Node29 -->
<g id="node29" class="node">
<title>Node29</title>
<g id="a_node29"><a xlink:href="classsss_1_1api_1_1S3Api.html#a23223ee1fb701c55af2d942dbf261ae2" target="_top" xlink:title="Check if bucket exist.">
<polygon fill="none" stroke="black" points="197.5,-0.5 197.5,-19.5 336.5,-19.5 336.5,-0.5 197.5,-0.5"/>
<text text-anchor="middle" x="267" y="-7.5" font-family="Helvetica,sans-Serif" font-size="10.00">sss::api::S3Api::TestBucket</text>
</a>
</g>
</g>
<!-- Node2&#45;&gt;Node29 -->
<g id="edge28" class="edge">
<title>Node2&#45;&gt;Node29</title>
<path fill="none" stroke="midnightblue" d="M435.1,-499.13C430.95,-416.2 410.92,-98.88 345,-29 341.41,-25.19 337.19,-22.1 332.6,-19.59"/>
<polygon fill="midnightblue" stroke="midnightblue" points="431.61,-499.4 435.59,-509.22 438.6,-499.06 431.61,-499.4"/>
</g>
<!-- Node18 -->
<g id="node18" class="node">
<title>Node18</title>
<g id="a_node18"><a xlink:href="classsss_1_1api_1_1S3Api.html#ae6a826615a079564b77bb680b6b75a34" target="_top" xlink:title="Return object size.">
<polygon fill="none" stroke="black" points="0,-446.5 0,-465.5 153,-465.5 153,-446.5 0,-446.5"/>
<text text-anchor="middle" x="76.5" y="-453.5" font-family="Helvetica,sans-Serif" font-size="10.00">sss::api::S3Api::GetObjectSize</text>
</a>
</g>
</g>
<!-- Node17&#45;&gt;Node18 -->
<g id="edge17" class="edge">
<title>Node17&#45;&gt;Node18</title>
<path fill="none" stroke="midnightblue" d="M186.35,-445.03C175.37,-446.14 164.11,-447.27 153.2,-448.37"/>
<polygon fill="midnightblue" stroke="midnightblue" points="186.75,-448.51 196.35,-444.02 186.04,-441.54 186.75,-448.51"/>
</g>
<!-- Node19 -->
<g id="node19" class="node">
<title>Node19</title>
<g id="a_node19"><a xlink:href="classsss_1_1api_1_1S3Api.html#aa3f7a3001bdad58c7b0c04cbd0dc3236" target="_top" xlink:title="Check if key exists.">
<polygon fill="none" stroke="black" points="8,-408.5 8,-427.5 145,-427.5 145,-408.5 8,-408.5"/>
<text text-anchor="middle" x="76.5" y="-415.5" font-family="Helvetica,sans-Serif" font-size="10.00">sss::api::S3Api::TestObject</text>
</a>
</g>
</g>
<!-- Node17&#45;&gt;Node19 -->
<g id="edge18" class="edge">
<title>Node17&#45;&gt;Node19</title>
<path fill="none" stroke="midnightblue" d="M186.07,-428.94C172.5,-427.58 158.52,-426.17 145.3,-424.83"/>
<polygon fill="midnightblue" stroke="midnightblue" points="186.04,-432.46 196.35,-429.98 186.75,-425.49 186.04,-432.46"/>
</g>
</g>
</svg>
