<?xml version="1.0" encoding="UTF-8" standalone="no"?>
<!DOCTYPE svg PUBLIC "-//W3C//DTD SVG 1.1//EN"
 "http://www.w3.org/Graphics/SVG/1.1/DTD/svg11.dtd">
<!-- Generated by graphviz version 8.0.5 (20230430.1635)
 -->
<!-- Title: sss::UrlEncode Pages: 1 -->
<svg width="590pt" height="144pt"
 viewBox="0.00 0.00 590.25 144.25" xmlns="http://www.w3.org/2000/svg" xmlns:xlink="http://www.w3.org/1999/xlink">
<g id="graph0" class="graph" transform="scale(1 1) rotate(0) translate(4 140.25)">
<title>sss::UrlEncode</title>
<!-- Node1 -->
<g id="node1" class="node">
<title>Node1</title>
<g id="a_node1"><a xlink:title=" ">
<polygon fill="#999999" stroke="#666666" points="582.25,-75.25 498.75,-75.25 498.75,-56 582.25,-56 582.25,-75.25"/>
<text text-anchor="middle" x="540.5" y="-61.75" font-family="Helvetica,sans-Serif" font-size="10.00">sss::UrlEncode</text>
</a>
</g>
</g>
<!-- Node2 -->
<g id="node2" class="node">
<title>Node2</title>
<g id="a_node2"><a xlink:href="group__Sign.html#ga904d511ec786b87644cc90dc96dd8f3f" target="_top" xlink:title="Compute signature.">
<polygon fill="white" stroke="#666666" points="462.75,-134.25 344,-134.25 344,-115 462.75,-115 462.75,-134.25"/>
<text text-anchor="middle" x="403.38" y="-120.75" font-family="Helvetica,sans-Serif" font-size="10.00">sss::ComputeSignature</text>
</a>
</g>
</g>
<!-- Node1&#45;&gt;Node2 -->
<g id="edge1" class="edge">
<title>Node1&#45;&gt;Node2</title>
<path fill="none" stroke="#63b8ff" d="M506.63,-79.98C482.1,-90.69 449.19,-105.06 427.41,-114.57"/>
<polygon fill="#63b8ff" stroke="#63b8ff" points="507.81,-82.84 515.58,-75.63 505.01,-76.43 507.81,-82.84"/>
</g>
<!-- Node6 -->
<g id="node6" class="node">
<title>Node6</title>
<g id="a_node6"><a xlink:href="classsss_1_1WebClient.html#a7dfd984b33a29686fb0355b65b620e99" target="_top" xlink:title=" ">
<polygon fill="white" stroke="#666666" points="308,-98.88 153.25,-98.88 153.25,-68.38 308,-68.38 308,-98.88"/>
<text text-anchor="start" x="161.25" y="-85.38" font-family="Helvetica,sans-Serif" font-size="10.00">sss::WebClient::SetUrlEncoded</text>
<text text-anchor="middle" x="230.62" y="-74.12" font-family="Helvetica,sans-Serif" font-size="10.00">PostData</text>
</a>
</g>
</g>
<!-- Node1&#45;&gt;Node6 -->
<g id="edge5" class="edge">
<title>Node1&#45;&gt;Node6</title>
<path fill="none" stroke="#63b8ff" d="M487.62,-68.66C438.54,-71.53 364.29,-75.87 308.37,-79.14"/>
<polygon fill="#63b8ff" stroke="#63b8ff" points="487.52,-72.11 497.3,-68.03 487.11,-65.12 487.52,-72.11"/>
</g>
<!-- Node7 -->
<g id="node7" class="node">
<title>Node7</title>
<g id="a_node7"><a xlink:href="group__Sign.html#gaaeb7f183b807aa05237023d855841246" target="_top" xlink:title="Generate presigned URL.">
<polygon fill="white" stroke="#666666" points="447.38,-56.25 359.38,-56.25 359.38,-37 447.38,-37 447.38,-56.25"/>
<text text-anchor="middle" x="403.38" y="-42.75" font-family="Helvetica,sans-Serif" font-size="10.00">sss::SignedURL</text>
</a>
</g>
</g>
<!-- Node1&#45;&gt;Node7 -->
<g id="edge7" class="edge">
<title>Node1&#45;&gt;Node7</title>
<path fill="none" stroke="#63b8ff" d="M488.09,-58.4C474.69,-56.51 460.4,-54.5 447.49,-52.69"/>
<polygon fill="#63b8ff" stroke="#63b8ff" points="487.2,-61.95 497.59,-59.87 488.18,-55.01 487.2,-61.95"/>
</g>
<!-- Node8 -->
<g id="node8" class="node">
<title>Node8</title>
<g id="a_node8"><a xlink:href="group__Internal.html#ga6e3db8d156313abef7e2c966df1a3d7c" target="_top" xlink:title=" ">
<polygon fill="white" stroke="#666666" points="445.12,-19.25 361.62,-19.25 361.62,0 445.12,0 445.12,-19.25"/>
<text text-anchor="middle" x="403.38" y="-5.75" font-family="Helvetica,sans-Serif" font-size="10.00">sss::UrlEncode</text>
</a>
</g>
</g>
<!-- Node1&#45;&gt;Node8 -->
<g id="edge8" class="edge">
<title>Node1&#45;&gt;Node8</title>
<path fill="none" stroke="#63b8ff" d="M511.94,-50.64C497.54,-43.15 479.47,-34.29 462.75,-27.62 455.56,-24.76 447.72,-22.06 440.19,-19.67"/>
<polygon fill="#63b8ff" stroke="#63b8ff" points="509.79,-53.99 520.27,-55.56 513.06,-47.8 509.79,-53.99"/>
</g>
<!-- Node3 -->
<g id="node3" class="node">
<title>Node3</title>
<g id="a_node3"><a xlink:href="group__Sign.html#ga3ae8e18ef70752b7369fca66c40c526b" target="_top" xlink:title="Sign headers.">
<polygon fill="white" stroke="#666666" points="277.62,-136.25 183.62,-136.25 183.62,-117 277.62,-117 277.62,-136.25"/>
<text text-anchor="middle" x="230.62" y="-122.75" font-family="Helvetica,sans-Serif" font-size="10.00">sss::SignHeaders</text>
</a>
</g>
</g>
<!-- Node2&#45;&gt;Node3 -->
<g id="edge2" class="edge">
<title>Node2&#45;&gt;Node3</title>
<path fill="none" stroke="#63b8ff" d="M332.64,-125.44C314.27,-125.66 294.9,-125.88 278.1,-126.08"/>
<polygon fill="#63b8ff" stroke="#63b8ff" points="332.65,-128.93 342.61,-125.31 332.57,-121.93 332.65,-128.93"/>
</g>
<!-- Node4 -->
<g id="node4" class="node">
<title>Node4</title>
<g id="a_node4"><a xlink:href="classsss_1_1api_1_1S3Api.html#a88b3eb551e57106ed171d9079de6afb4" target="_top" xlink:title="[WebClient::Config]">
<polygon fill="white" stroke="#666666" points="117.25,-136.25 0,-136.25 0,-117 117.25,-117 117.25,-136.25"/>
<text text-anchor="middle" x="58.62" y="-122.75" font-family="Helvetica,sans-Serif" font-size="10.00">sss::api::S3Api::Config</text>
</a>
</g>
</g>
<!-- Node3&#45;&gt;Node4 -->
<g id="edge3" class="edge">
<title>Node3&#45;&gt;Node4</title>
<path fill="none" stroke="#63b8ff" d="M172.18,-126.62C154.58,-126.62 135.2,-126.62 117.56,-126.62"/>
<polygon fill="#63b8ff" stroke="#63b8ff" points="172.17,-130.13 182.17,-126.62 172.17,-123.13 172.17,-130.13"/>
</g>
<!-- Node5 -->
<g id="node5" class="node">
<title>Node5</title>
<g id="a_node5"><a xlink:href="group__S3Client.html#ga5a769be8fbc874bad858ea95743e5643" target="_top" xlink:title="Send S3 request to endpoint.">
<polygon fill="white" stroke="#666666" points="113.12,-96.25 4.12,-96.25 4.12,-77 113.12,-77 113.12,-96.25"/>
<text text-anchor="middle" x="58.62" y="-82.75" font-family="Helvetica,sans-Serif" font-size="10.00">sss::SendS3Request</text>
</a>
</g>
</g>
<!-- Node3&#45;&gt;Node5 -->
<g id="edge4" class="edge">
<title>Node3&#45;&gt;Node5</title>
<path fill="none" stroke="#63b8ff" d="M176.13,-114.04C152.4,-108.45 124.86,-101.97 102.51,-96.72"/>
<polygon fill="#63b8ff" stroke="#63b8ff" points="175.19,-117.65 185.73,-116.53 176.79,-110.83 175.19,-117.65"/>
</g>
<!-- Node6&#45;&gt;Node5 -->
<g id="edge6" class="edge">
<title>Node6&#45;&gt;Node5</title>
<path fill="none" stroke="#63b8ff" d="M142.37,-85.16C132.49,-85.34 122.65,-85.51 113.39,-85.68"/>
<polygon fill="#63b8ff" stroke="#63b8ff" points="142.14,-88.65 152.08,-84.98 142.02,-81.65 142.14,-88.65"/>
</g>
</g>
</svg>
