<?xml version="1.0" encoding="UTF-8" standalone="no"?>
<!DOCTYPE svg PUBLIC "-//W3C//DTD SVG 1.1//EN"
 "http://www.w3.org/Graphics/SVG/1.1/DTD/svg11.dtd">
<!-- Generated by graphviz version 8.0.5 (20230430.1635)
 -->
<!-- Title: sss::ParseParams Pages: 1 -->
<svg width="632pt" height="507pt"
 viewBox="0.00 0.00 632.25 506.88" xmlns="http://www.w3.org/2000/svg" xmlns:xlink="http://www.w3.org/1999/xlink">
<g id="graph0" class="graph" transform="scale(1 1) rotate(0) translate(4 502.88)">
<title>sss::ParseParams</title>
<!-- Node1 -->
<g id="node1" class="node">
<title>Node1</title>
<g id="a_node1"><a xlink:title=" ">
<polygon fill="#999999" stroke="#666666" points="624.25,-222.25 527.25,-222.25 527.25,-203 624.25,-203 624.25,-222.25"/>
<text text-anchor="middle" x="575.75" y="-208.75" font-family="Helvetica,sans-Serif" font-size="10.00">sss::ParseParams</text>
</a>
</g>
</g>
<!-- Node2 -->
<g id="node2" class="node">
<title>Node2</title>
<g id="a_node2"><a xlink:href="classsss_1_1api_1_1S3Api.html#ad09581bf28c4bbbcbb71b329959ec1ae" target="_top" xlink:title=" ">
<polygon fill="white" stroke="#666666" points="491.25,-241.25 380,-241.25 380,-222 491.25,-222 491.25,-241.25"/>
<text text-anchor="middle" x="435.62" y="-227.75" font-family="Helvetica,sans-Serif" font-size="10.00">sss::api::S3Api::Send</text>
</a>
</g>
</g>
<!-- Node1&#45;&gt;Node2 -->
<g id="edge1" class="edge">
<title>Node1&#45;&gt;Node2</title>
<path fill="none" stroke="#63b8ff" d="M515.96,-220.71C507.87,-221.83 499.59,-222.96 491.57,-224.07"/>
<polygon fill="#63b8ff" stroke="#63b8ff" points="516.4,-224.05 525.83,-219.22 515.44,-217.11 516.4,-224.05"/>
</g>
<!-- Node19 -->
<g id="node19" class="node">
<title>Node19</title>
<g id="a_node19"><a xlink:href="group__S3Client.html#ga5a769be8fbc874bad858ea95743e5643" target="_top" xlink:title="Send S3 request to endpoint.">
<polygon fill="white" stroke="#666666" points="490.12,-204.25 381.12,-204.25 381.12,-185 490.12,-185 490.12,-204.25"/>
<text text-anchor="middle" x="435.62" y="-190.75" font-family="Helvetica,sans-Serif" font-size="10.00">sss::SendS3Request</text>
</a>
</g>
</g>
<!-- Node1&#45;&gt;Node19 -->
<g id="edge21" class="edge">
<title>Node1&#45;&gt;Node19</title>
<path fill="none" stroke="#63b8ff" d="M515.94,-204.96C507.53,-203.87 498.92,-202.74 490.61,-201.66"/>
<polygon fill="#63b8ff" stroke="#63b8ff" points="515.46,-208.56 525.83,-206.38 516.36,-201.62 515.46,-208.56"/>
</g>
<!-- Node3 -->
<g id="node3" class="node">
<title>Node3</title>
<g id="a_node3"><a xlink:href="classsss_1_1api_1_1S3Api.html#a4ea265566c3c4335ec01201cdc4410c6" target="_top" xlink:title=" ">
<polygon fill="white" stroke="#666666" points="341,-498.88 191.5,-498.88 191.5,-468.38 341,-468.38 341,-498.88"/>
<text text-anchor="start" x="199.5" y="-485.38" font-family="Helvetica,sans-Serif" font-size="10.00">sss::api::S3Api::AbortMultipart</text>
<text text-anchor="middle" x="266.25" y="-474.12" font-family="Helvetica,sans-Serif" font-size="10.00">Upload</text>
</a>
</g>
</g>
<!-- Node2&#45;&gt;Node3 -->
<g id="edge2" class="edge">
<title>Node2&#45;&gt;Node3</title>
<path fill="none" stroke="#63b8ff" d="M432.25,-252.22C426.07,-296.43 405.42,-401.07 344,-458.62 340.11,-462.27 335.69,-465.38 330.98,-468.04"/>
<polygon fill="#63b8ff" stroke="#63b8ff" points="435.83,-252.81 433.63,-242.44 428.89,-251.91 435.83,-252.81"/>
</g>
<!-- Node4 -->
<g id="node4" class="node">
<title>Node4</title>
<g id="a_node4"><a xlink:href="classsss_1_1api_1_1S3Api.html#a98f999a216121118dd569c7ef0c28ff3" target="_top" xlink:title=" ">
<polygon fill="white" stroke="#666666" points="331.62,-449.88 200.88,-449.88 200.88,-419.38 331.62,-419.38 331.62,-449.88"/>
<text text-anchor="start" x="208.88" y="-436.38" font-family="Helvetica,sans-Serif" font-size="10.00">sss::api::S3Api::Complete</text>
<text text-anchor="middle" x="266.25" y="-425.12" font-family="Helvetica,sans-Serif" font-size="10.00">MultipartUpload</text>
</a>
</g>
</g>
<!-- Node2&#45;&gt;Node4 -->
<g id="edge3" class="edge">
<title>Node2&#45;&gt;Node4</title>
<path fill="none" stroke="#63b8ff" d="M429.93,-251.9C420.31,-288.91 394.85,-367.57 344,-410.62 340.27,-413.78 336.13,-416.53 331.75,-418.91"/>
<polygon fill="#63b8ff" stroke="#63b8ff" points="433.51,-252.99 432.51,-242.44 426.72,-251.31 433.51,-252.99"/>
</g>
<!-- Node5 -->
<g id="node5" class="node">
<title>Node5</title>
<g id="a_node5"><a xlink:href="classsss_1_1api_1_1S3Api.html#ad890bd1ecfc978df24b2c3ed641e4081" target="_top" xlink:title=" ">
<polygon fill="white" stroke="#666666" points="340.62,-401.25 191.88,-401.25 191.88,-382 340.62,-382 340.62,-401.25"/>
<text text-anchor="middle" x="266.25" y="-387.75" font-family="Helvetica,sans-Serif" font-size="10.00">sss::api::S3Api::CreateBucket</text>
</a>
</g>
</g>
<!-- Node2&#45;&gt;Node5 -->
<g id="edge4" class="edge">
<title>Node2&#45;&gt;Node5</title>
<path fill="none" stroke="#63b8ff" d="M427.38,-251.68C415.15,-282.6 387.42,-341.56 344,-372.62 338.98,-376.22 333.35,-379.14 327.48,-381.51"/>
<polygon fill="#63b8ff" stroke="#63b8ff" points="430.9,-253.26 431.18,-242.67 424.36,-250.77 430.9,-253.26"/>
</g>
<!-- Node7 -->
<g id="node7" class="node">
<title>Node7</title>
<g id="a_node7"><a xlink:href="classsss_1_1api_1_1S3Api.html#a1796fafda3d90a4292a611ce1999433b" target="_top" xlink:title=" ">
<polygon fill="white" stroke="#666666" points="344,-363.88 188.5,-363.88 188.5,-333.38 344,-333.38 344,-363.88"/>
<text text-anchor="start" x="196.5" y="-350.38" font-family="Helvetica,sans-Serif" font-size="10.00">sss::api::S3Api::CreateMultipart</text>
<text text-anchor="middle" x="266.25" y="-339.12" font-family="Helvetica,sans-Serif" font-size="10.00">Upload</text>
</a>
</g>
</g>
<!-- Node2&#45;&gt;Node7 -->
<g id="edge6" class="edge">
<title>Node2&#45;&gt;Node7</title>
<path fill="none" stroke="#63b8ff" d="M421.12,-250.25C405,-271.2 376.15,-304.88 344,-324.62 338.88,-327.77 333.32,-330.53 327.61,-332.95"/>
<polygon fill="#63b8ff" stroke="#63b8ff" points="424.4,-252.71 427.6,-242.61 418.8,-248.51 424.4,-252.71"/>
</g>
<!-- Node8 -->
<g id="node8" class="node">
<title>Node8</title>
<g id="a_node8"><a xlink:href="classsss_1_1api_1_1S3Api.html#a3d63825d1916e4ba3ca13122c7660603" target="_top" xlink:title=" ">
<polygon fill="white" stroke="#666666" points="340.25,-315.25 192.25,-315.25 192.25,-296 340.25,-296 340.25,-315.25"/>
<text text-anchor="middle" x="266.25" y="-301.75" font-family="Helvetica,sans-Serif" font-size="10.00">sss::api::S3Api::DeleteBucket</text>
</a>
</g>
</g>
<!-- Node2&#45;&gt;Node8 -->
<g id="edge7" class="edge">
<title>Node2&#45;&gt;Node8</title>
<path fill="none" stroke="#63b8ff" d="M413.11,-247.71C395.39,-260.24 369.18,-277.22 344,-287.62 336.54,-290.71 328.44,-293.33 320.39,-295.53"/>
<polygon fill="#63b8ff" stroke="#63b8ff" points="414.49,-250.3 420.55,-241.61 410.39,-244.63 414.49,-250.3"/>
</g>
<!-- Node9 -->
<g id="node9" class="node">
<title>Node9</title>
<g id="a_node9"><a xlink:href="classsss_1_1api_1_1S3Api.html#a14a75f15eb71fbba8639673100768b67" target="_top" xlink:title=" ">
<polygon fill="white" stroke="#666666" points="339.12,-278.25 193.38,-278.25 193.38,-259 339.12,-259 339.12,-278.25"/>
<text text-anchor="middle" x="266.25" y="-264.75" font-family="Helvetica,sans-Serif" font-size="10.00">sss::api::S3Api::DeleteObject</text>
</a>
</g>
</g>
<!-- Node2&#45;&gt;Node9 -->
<g id="edge9" class="edge">
<title>Node2&#45;&gt;Node9</title>
<path fill="none" stroke="#63b8ff" d="M378.36,-244.06C357.07,-248.77 333.13,-254.06 312.93,-258.53"/>
<polygon fill="#63b8ff" stroke="#63b8ff" points="378.88,-247.31 387.89,-241.74 377.37,-240.48 378.88,-247.31"/>
</g>
<!-- Node10 -->
<g id="node10" class="node">
<title>Node10</title>
<g id="a_node10"><a xlink:href="classsss_1_1api_1_1S3Api.html#af61465d92c0a94aa82ae863fc2a776a0" target="_top" xlink:title=" ">
<polygon fill="white" stroke="#666666" points="332.75,-241.25 199.75,-241.25 199.75,-222 332.75,-222 332.75,-241.25"/>
<text text-anchor="middle" x="266.25" y="-227.75" font-family="Helvetica,sans-Serif" font-size="10.00">sss::api::S3Api::GetObject</text>
</a>
</g>
</g>
<!-- Node2&#45;&gt;Node10 -->
<g id="edge10" class="edge">
<title>Node2&#45;&gt;Node10</title>
<path fill="none" stroke="#63b8ff" d="M369.09,-231.62C357.22,-231.62 344.84,-231.62 332.97,-231.62"/>
<polygon fill="#63b8ff" stroke="#63b8ff" points="368.82,-235.13 378.82,-231.62 368.82,-228.13 368.82,-235.13"/>
</g>
<!-- Node11 -->
<g id="node11" class="node">
<title>Node11</title>
<g id="a_node11"><a xlink:href="classsss_1_1api_1_1S3Api.html#aa4a2b1cc2c89a52d1aa89e571b785db2" target="_top" xlink:title=" ">
<polygon fill="white" stroke="#666666" points="337.62,-204.25 194.88,-204.25 194.88,-185 337.62,-185 337.62,-204.25"/>
<text text-anchor="middle" x="266.25" y="-190.75" font-family="Helvetica,sans-Serif" font-size="10.00">sss::api::S3Api::HeadBucket</text>
</a>
</g>
</g>
<!-- Node2&#45;&gt;Node11 -->
<g id="edge11" class="edge">
<title>Node2&#45;&gt;Node11</title>
<path fill="none" stroke="#63b8ff" d="M378.36,-219.19C357.07,-214.48 333.13,-209.19 312.93,-204.72"/>
<polygon fill="#63b8ff" stroke="#63b8ff" points="377.37,-222.77 387.89,-221.51 378.88,-215.94 377.37,-222.77"/>
</g>
<!-- Node12 -->
<g id="node12" class="node">
<title>Node12</title>
<g id="a_node12"><a xlink:href="classsss_1_1api_1_1S3Api.html#abc84a71b9a88b81afaa353ad17a91d22" target="_top" xlink:title=" ">
<polygon fill="white" stroke="#666666" points="336.5,-130.25 196,-130.25 196,-111 336.5,-111 336.5,-130.25"/>
<text text-anchor="middle" x="266.25" y="-116.75" font-family="Helvetica,sans-Serif" font-size="10.00">sss::api::S3Api::HeadObject</text>
</a>
</g>
</g>
<!-- Node2&#45;&gt;Node12 -->
<g id="edge13" class="edge">
<title>Node2&#45;&gt;Node12</title>
<path fill="none" stroke="#63b8ff" d="M382.8,-215.9C381.84,-215.17 380.9,-214.42 380,-213.62 352.22,-189.22 372.82,-161.78 344,-138.62 340.05,-135.45 335.64,-132.82 330.99,-130.64"/>
<polygon fill="#63b8ff" stroke="#63b8ff" points="380.8,-219.38 391.17,-221.55 384.42,-213.39 380.8,-219.38"/>
</g>
<!-- Node15 -->
<g id="node15" class="node">
<title>Node15</title>
<g id="a_node15"><a xlink:href="classsss_1_1api_1_1S3Api.html#a81e30673c06b609a2ee6e6bfd9130ca6" target="_top" xlink:title=" ">
<polygon fill="white" stroke="#666666" points="336.5,-167.25 196,-167.25 196,-148 336.5,-148 336.5,-167.25"/>
<text text-anchor="middle" x="266.25" y="-153.75" font-family="Helvetica,sans-Serif" font-size="10.00">sss::api::S3Api::ListBuckets</text>
</a>
</g>
</g>
<!-- Node2&#45;&gt;Node15 -->
<g id="edge16" class="edge">
<title>Node2&#45;&gt;Node15</title>
<path fill="none" stroke="#63b8ff" d="M386.22,-217.17C384.07,-216.07 381.99,-214.89 380,-213.62 360.36,-201.16 364.17,-187.21 344,-175.62 338.42,-172.42 332.31,-169.79 326.04,-167.62"/>
<polygon fill="#63b8ff" stroke="#63b8ff" points="384.36,-220.63 394.92,-221.55 387.24,-214.24 384.36,-220.63"/>
</g>
<!-- Node16 -->
<g id="node16" class="node">
<title>Node16</title>
<g id="a_node16"><a xlink:href="classsss_1_1api_1_1S3Api.html#a3f00f611cd210a58ac6e8c0555984433" target="_top" xlink:title=" ">
<polygon fill="white" stroke="#666666" points="341.38,-93.25 191.12,-93.25 191.12,-74 341.38,-74 341.38,-93.25"/>
<text text-anchor="middle" x="266.25" y="-79.75" font-family="Helvetica,sans-Serif" font-size="10.00">sss::api::S3Api::ListObjectsV2</text>
</a>
</g>
</g>
<!-- Node2&#45;&gt;Node16 -->
<g id="edge18" class="edge">
<title>Node2&#45;&gt;Node16</title>
<path fill="none" stroke="#63b8ff" d="M382.16,-215.64C381.41,-214.99 380.69,-214.32 380,-213.62 343.16,-176.52 382.43,-137.08 344,-101.62 340.58,-98.47 336.71,-95.84 332.58,-93.64"/>
<polygon fill="#63b8ff" stroke="#63b8ff" points="379.68,-218.87 389.92,-221.6 383.62,-213.08 379.68,-218.87"/>
</g>
<!-- Node17 -->
<g id="node17" class="node">
<title>Node17</title>
<g id="a_node17"><a xlink:href="classsss_1_1api_1_1S3Api.html#a0473917e4d25a4a6fca40d097e4299d6" target="_top" xlink:title=" ">
<polygon fill="white" stroke="#666666" points="321.88,-56.25 210.62,-56.25 210.62,-37 321.88,-37 321.88,-56.25"/>
<text text-anchor="middle" x="266.25" y="-42.75" font-family="Helvetica,sans-Serif" font-size="10.00">sss::api::S3Api::Send</text>
</a>
</g>
</g>
<!-- Node2&#45;&gt;Node17 -->
<g id="edge19" class="edge">
<title>Node2&#45;&gt;Node17</title>
<path fill="none" stroke="#63b8ff" d="M381.4,-215.06C380.92,-214.6 380.45,-214.12 380,-213.62 333.82,-163.53 392.33,-112.64 344,-64.62 337.98,-58.65 330.37,-54.51 322.3,-51.67"/>
<polygon fill="#63b8ff" stroke="#63b8ff" points="379.03,-218.4 389.15,-221.53 383.19,-212.77 379.03,-218.4"/>
</g>
<!-- Node18 -->
<g id="node18" class="node">
<title>Node18</title>
<g id="a_node18"><a xlink:href="classsss_1_1api_1_1S3Api.html#a23223ee1fb701c55af2d942dbf261ae2" target="_top" xlink:title=" ">
<polygon fill="white" stroke="#666666" points="335.38,-19.25 197.12,-19.25 197.12,0 335.38,0 335.38,-19.25"/>
<text text-anchor="middle" x="266.25" y="-5.75" font-family="Helvetica,sans-Serif" font-size="10.00">sss::api::S3Api::TestBucket</text>
</a>
</g>
</g>
<!-- Node2&#45;&gt;Node18 -->
<g id="edge20" class="edge">
<title>Node2&#45;&gt;Node18</title>
<path fill="none" stroke="#63b8ff" d="M381.06,-214.78C380.7,-214.4 380.35,-214.02 380,-213.62 324.36,-150.42 402.36,-88.32 344,-27.62 340.96,-24.47 337.49,-21.82 333.73,-19.6"/>
<polygon fill="#63b8ff" stroke="#63b8ff" points="378.69,-218.15 388.74,-221.52 382.99,-212.62 378.69,-218.15"/>
</g>
<!-- Node6 -->
<g id="node6" class="node">
<title>Node6</title>
<g id="a_node6"><a xlink:href="bucket-test_8cpp.html#a3c04138a5bfe5d72780bb7e82a18e627" target="_top" xlink:title="Bucket tests.">
<polygon fill="white" stroke="#666666" points="94.75,-259.25 57.75,-259.25 57.75,-240 94.75,-240 94.75,-259.25"/>
<text text-anchor="middle" x="76.25" y="-245.75" font-family="Helvetica,sans-Serif" font-size="10.00">main</text>
</a>
</g>
</g>
<!-- Node5&#45;&gt;Node6 -->
<g id="edge5" class="edge">
<title>Node5&#45;&gt;Node6</title>
<path fill="none" stroke="#63b8ff" d="M197.94,-377.52C194.67,-376.05 191.5,-374.42 188.5,-372.62 138.59,-342.77 98.18,-283.45 83.35,-259.75"/>
<polygon fill="#63b8ff" stroke="#63b8ff" points="196.4,-381.07 206.98,-381.5 198.97,-374.56 196.4,-381.07"/>
</g>
<!-- Node8&#45;&gt;Node6 -->
<g id="edge8" class="edge">
<title>Node8&#45;&gt;Node6</title>
<path fill="none" stroke="#63b8ff" d="M208.32,-292.94C201.61,-291.25 194.89,-289.46 188.5,-287.62 155.15,-278.04 117.04,-264.43 95.19,-256.37"/>
<polygon fill="#63b8ff" stroke="#63b8ff" points="207.25,-296.52 217.79,-295.51 208.91,-289.72 207.25,-296.52"/>
</g>
<!-- Node11&#45;&gt;Node6 -->
<g id="edge12" class="edge">
<title>Node11&#45;&gt;Node6</title>
<path fill="none" stroke="#63b8ff" d="M208.61,-207.3C201.81,-209 194.98,-210.79 188.5,-212.62 155.2,-222.05 117.07,-235.27 95.21,-243.09"/>
<polygon fill="#63b8ff" stroke="#63b8ff" points="209.33,-210.48 218.21,-204.7 207.67,-203.68 209.33,-210.48"/>
</g>
<!-- Node13 -->
<g id="node13" class="node">
<title>Node13</title>
<g id="a_node13"><a xlink:href="classsss_1_1api_1_1S3Api.html#a872e80e356e8c404a9b0739d95a0af41" target="_top" xlink:title="[WebClient::Config]">
<polygon fill="white" stroke="#666666" points="152.5,-148.25 0,-148.25 0,-129 152.5,-129 152.5,-148.25"/>
<text text-anchor="middle" x="76.25" y="-134.75" font-family="Helvetica,sans-Serif" font-size="10.00">sss::api::S3Api::GetObjectSize</text>
</a>
</g>
</g>
<!-- Node12&#45;&gt;Node13 -->
<g id="edge14" class="edge">
<title>Node12&#45;&gt;Node13</title>
<path fill="none" stroke="#63b8ff" d="M184.63,-128.34C174.09,-129.35 163.33,-130.38 152.87,-131.38"/>
<polygon fill="#63b8ff" stroke="#63b8ff" points="184.89,-131.74 194.51,-127.3 184.22,-124.77 184.89,-131.74"/>
</g>
<!-- Node14 -->
<g id="node14" class="node">
<title>Node14</title>
<g id="a_node14"><a xlink:href="classsss_1_1api_1_1S3Api.html#aa3f7a3001bdad58c7b0c04cbd0dc3236" target="_top" xlink:title=" ">
<polygon fill="white" stroke="#666666" points="144.25,-111.25 8.25,-111.25 8.25,-92 144.25,-92 144.25,-111.25"/>
<text text-anchor="middle" x="76.25" y="-97.75" font-family="Helvetica,sans-Serif" font-size="10.00">sss::api::S3Api::TestObject</text>
</a>
</g>
</g>
<!-- Node12&#45;&gt;Node14 -->
<g id="edge15" class="edge">
<title>Node12&#45;&gt;Node14</title>
<path fill="none" stroke="#63b8ff" d="M184.88,-112.5C171.48,-111.15 157.71,-109.76 144.69,-108.44"/>
<polygon fill="#63b8ff" stroke="#63b8ff" points="184.21,-116.05 194.51,-113.58 184.92,-109.09 184.21,-116.05"/>
</g>
<!-- Node15&#45;&gt;Node6 -->
<g id="edge17" class="edge">
<title>Node15&#45;&gt;Node6</title>
<path fill="none" stroke="#63b8ff" d="M200.7,-170.97C196.51,-172.38 192.41,-173.93 188.5,-175.62 149.12,-192.68 108.56,-223.73 89.09,-239.64"/>
<polygon fill="#63b8ff" stroke="#63b8ff" points="201.67,-174.02 210.2,-167.73 199.61,-167.33 201.67,-174.02"/>
</g>
</g>
</svg>
