<?xml version="1.0" encoding="UTF-8" standalone="no"?>
<!DOCTYPE svg PUBLIC "-//W3C//DTD SVG 1.1//EN"
 "http://www.w3.org/Graphics/SVG/1.1/DTD/svg11.dtd">
<!-- Generated by graphviz version 2.43.0 (0)
 -->
<!-- Title: sss::HTTPHeaders Pages: 1 -->
<svg width="483pt" height="135pt"
 viewBox="0.00 0.00 483.00 134.50" xmlns="http://www.w3.org/2000/svg" xmlns:xlink="http://www.w3.org/1999/xlink">
<g id="graph0" class="graph" transform="scale(1 1) rotate(0) translate(4 130.5)">
<title>sss::HTTPHeaders</title>
<!-- Node1 -->
<g id="node1" class="node">
<title>Node1</title>
<g id="a_node1"><a xlink:title="Extract and return HTTP headers as key&#45;value pairs.">
<polygon fill="#bfbfbf" stroke="black" points="374,-57.5 374,-76.5 475,-76.5 475,-57.5 374,-57.5"/>
<text text-anchor="middle" x="424.5" y="-64.5" font-family="Helvetica,sans-Serif" font-size="10.00">sss::HTTPHeaders</text>
</a>
</g>
</g>
<!-- Node2 -->
<g id="node2" class="node">
<title>Node2</title>
<g id="a_node2"><a xlink:href="classsss_1_1api_1_1S3Api.html#a834e046a52178dcf540509df828b024f" target="_top" xlink:title="Get returned HTTP headers. Use this method to retrieve additional information e.g....">
<polygon fill="none" stroke="black" points="189,-96 189,-126 338,-126 338,-96 189,-96"/>
<text text-anchor="start" x="197" y="-114" font-family="Helvetica,sans-Serif" font-size="10.00">sss::api::S3Api::GetResponse</text>
<text text-anchor="middle" x="263.5" y="-103" font-family="Helvetica,sans-Serif" font-size="10.00">Headers</text>
</a>
</g>
</g>
<!-- Node1&#45;&gt;Node2 -->
<g id="edge1" class="edge">
<title>Node1&#45;&gt;Node2</title>
<path fill="none" stroke="midnightblue" d="M379.27,-79.24C360.57,-84.41 338.62,-90.49 318.94,-95.93"/>
<polygon fill="midnightblue" stroke="midnightblue" points="380.3,-82.59 389,-76.55 378.43,-75.84 380.3,-82.59"/>
</g>
<!-- Node3 -->
<g id="node3" class="node">
<title>Node3</title>
<g id="a_node3"><a xlink:href="classsss_1_1api_1_1S3Api.html#aa4a2b1cc2c89a52d1aa89e571b785db2" target="_top" xlink:title=" ">
<polygon fill="none" stroke="black" points="192,-57.5 192,-76.5 335,-76.5 335,-57.5 192,-57.5"/>
<text text-anchor="middle" x="263.5" y="-64.5" font-family="Helvetica,sans-Serif" font-size="10.00">sss::api::S3Api::HeadBucket</text>
</a>
</g>
</g>
<!-- Node1&#45;&gt;Node3 -->
<g id="edge2" class="edge">
<title>Node1&#45;&gt;Node3</title>
<path fill="none" stroke="midnightblue" d="M363.4,-67C354.18,-67 344.59,-67 335.16,-67"/>
<polygon fill="midnightblue" stroke="midnightblue" points="363.63,-70.5 373.63,-67 363.63,-63.5 363.63,-70.5"/>
</g>
<!-- Node4 -->
<g id="node4" class="node">
<title>Node4</title>
<g id="a_node4"><a xlink:href="classsss_1_1api_1_1S3Api.html#a0382afb5f4a42d477af76ea322324ddd" target="_top" xlink:title="Send HeadObject request.">
<polygon fill="none" stroke="black" points="193,-19.5 193,-38.5 334,-38.5 334,-19.5 193,-19.5"/>
<text text-anchor="middle" x="263.5" y="-26.5" font-family="Helvetica,sans-Serif" font-size="10.00">sss::api::S3Api::HeadObject</text>
</a>
</g>
</g>
<!-- Node1&#45;&gt;Node4 -->
<g id="edge3" class="edge">
<title>Node1&#45;&gt;Node4</title>
<path fill="none" stroke="midnightblue" d="M373.42,-55.03C351.14,-49.71 325.27,-43.52 304.33,-38.52"/>
<polygon fill="midnightblue" stroke="midnightblue" points="372.84,-58.49 383.38,-57.41 374.47,-51.68 372.84,-58.49"/>
</g>
<!-- Node5 -->
<g id="node5" class="node">
<title>Node5</title>
<g id="a_node5"><a xlink:href="classsss_1_1api_1_1S3Api.html#ae6a826615a079564b77bb680b6b75a34" target="_top" xlink:title="Return object size.">
<polygon fill="none" stroke="black" points="0,-38.5 0,-57.5 153,-57.5 153,-38.5 0,-38.5"/>
<text text-anchor="middle" x="76.5" y="-45.5" font-family="Helvetica,sans-Serif" font-size="10.00">sss::api::S3Api::GetObjectSize</text>
</a>
</g>
</g>
<!-- Node4&#45;&gt;Node5 -->
<g id="edge4" class="edge">
<title>Node4&#45;&gt;Node5</title>
<path fill="none" stroke="midnightblue" d="M182.73,-37.19C172.97,-38.2 163.01,-39.22 153.3,-40.21"/>
<polygon fill="midnightblue" stroke="midnightblue" points="183.23,-40.66 192.82,-36.16 182.52,-33.7 183.23,-40.66"/>
</g>
<!-- Node6 -->
<g id="node6" class="node">
<title>Node6</title>
<g id="a_node6"><a xlink:href="classsss_1_1api_1_1S3Api.html#aa3f7a3001bdad58c7b0c04cbd0dc3236" target="_top" xlink:title="Check if key exists.">
<polygon fill="none" stroke="black" points="8,-0.5 8,-19.5 145,-19.5 145,-0.5 8,-0.5"/>
<text text-anchor="middle" x="76.5" y="-7.5" font-family="Helvetica,sans-Serif" font-size="10.00">sss::api::S3Api::TestObject</text>
</a>
</g>
</g>
<!-- Node4&#45;&gt;Node6 -->
<g id="edge5" class="edge">
<title>Node4&#45;&gt;Node6</title>
<path fill="none" stroke="midnightblue" d="M182.87,-20.82C170.34,-19.54 157.5,-18.22 145.28,-16.96"/>
<polygon fill="midnightblue" stroke="midnightblue" points="182.52,-24.3 192.82,-21.84 183.23,-17.34 182.52,-24.3"/>
</g>
</g>
</svg>
