<?xml version="1.0" encoding="UTF-8" standalone="no"?>
<!DOCTYPE svg PUBLIC "-//W3C//DTD SVG 1.1//EN"
 "http://www.w3.org/Graphics/SVG/1.1/DTD/svg11.dtd">
<!-- Generated by graphviz version 8.0.5 (20230430.1635)
 -->
<!-- Title: sss::HTTPHeaders Pages: 1 -->
<svg width="482pt" height="150pt"
 viewBox="0.00 0.00 482.00 149.88" xmlns="http://www.w3.org/2000/svg" xmlns:xlink="http://www.w3.org/1999/xlink">
<g id="graph0" class="graph" transform="scale(1 1) rotate(0) translate(4 145.88)">
<title>sss::HTTPHeaders</title>
<!-- Node1 -->
<g id="node1" class="node">
<title>Node1</title>
<g id="a_node1"><a xlink:title=" ">
<polygon fill="#999999" stroke="#666666" points="474,-93.25 373.25,-93.25 373.25,-74 474,-74 474,-93.25"/>
<text text-anchor="middle" x="423.62" y="-79.75" font-family="Helvetica,sans-Serif" font-size="10.00">sss::HTTPHeaders</text>
</a>
</g>
</g>
<!-- Node2 -->
<g id="node2" class="node">
<title>Node2</title>
<g id="a_node2"><a xlink:href="classsss_1_1api_1_1S3Api.html#a834e046a52178dcf540509df828b024f" target="_top" xlink:title=" ">
<polygon fill="white" stroke="#666666" points="337.25,-141.88 188.5,-141.88 188.5,-111.38 337.25,-111.38 337.25,-141.88"/>
<text text-anchor="start" x="196.5" y="-128.38" font-family="Helvetica,sans-Serif" font-size="10.00">sss::api::S3Api::GetResponse</text>
<text text-anchor="middle" x="262.88" y="-117.12" font-family="Helvetica,sans-Serif" font-size="10.00">Headers</text>
</a>
</g>
</g>
<!-- Node1&#45;&gt;Node2 -->
<g id="edge1" class="edge">
<title>Node1&#45;&gt;Node2</title>
<path fill="none" stroke="#63b8ff" d="M374.83,-96.57C358.2,-101.08 339.36,-106.18 321.99,-110.88"/>
<polygon fill="#63b8ff" stroke="#63b8ff" points="375.67,-99.7 384.41,-93.71 373.84,-92.94 375.67,-99.7"/>
</g>
<!-- Node3 -->
<g id="node3" class="node">
<title>Node3</title>
<g id="a_node3"><a xlink:href="classsss_1_1api_1_1S3Api.html#aa4a2b1cc2c89a52d1aa89e571b785db2" target="_top" xlink:title=" ">
<polygon fill="white" stroke="#666666" points="334.25,-93.25 191.5,-93.25 191.5,-74 334.25,-74 334.25,-93.25"/>
<text text-anchor="middle" x="262.88" y="-79.75" font-family="Helvetica,sans-Serif" font-size="10.00">sss::api::S3Api::HeadBucket</text>
</a>
</g>
</g>
<!-- Node1&#45;&gt;Node3 -->
<g id="edge2" class="edge">
<title>Node1&#45;&gt;Node3</title>
<path fill="none" stroke="#63b8ff" d="M362.11,-83.62C353.15,-83.62 343.86,-83.62 334.71,-83.62"/>
<polygon fill="#63b8ff" stroke="#63b8ff" points="361.83,-87.13 371.83,-83.62 361.83,-80.13 361.83,-87.13"/>
</g>
<!-- Node5 -->
<g id="node5" class="node">
<title>Node5</title>
<g id="a_node5"><a xlink:href="classsss_1_1api_1_1S3Api.html#abc84a71b9a88b81afaa353ad17a91d22" target="_top" xlink:title=" ">
<polygon fill="white" stroke="#666666" points="333.12,-56.25 192.62,-56.25 192.62,-37 333.12,-37 333.12,-56.25"/>
<text text-anchor="middle" x="262.88" y="-42.75" font-family="Helvetica,sans-Serif" font-size="10.00">sss::api::S3Api::HeadObject</text>
</a>
</g>
</g>
<!-- Node1&#45;&gt;Node5 -->
<g id="edge4" class="edge">
<title>Node1&#45;&gt;Node5</title>
<path fill="none" stroke="#63b8ff" d="M368.7,-71.06C348.66,-66.38 326.18,-61.15 307.2,-56.72"/>
<polygon fill="#63b8ff" stroke="#63b8ff" points="367.71,-74.65 378.25,-73.51 369.3,-67.84 367.71,-74.65"/>
</g>
<!-- Node4 -->
<g id="node4" class="node">
<title>Node4</title>
<g id="a_node4"><a xlink:href="bucket-test_8cpp.html#a3c04138a5bfe5d72780bb7e82a18e627" target="_top" xlink:title="Bucket tests.">
<polygon fill="white" stroke="#666666" points="94.75,-93.25 57.75,-93.25 57.75,-74 94.75,-74 94.75,-93.25"/>
<text text-anchor="middle" x="76.25" y="-79.75" font-family="Helvetica,sans-Serif" font-size="10.00">main</text>
</a>
</g>
</g>
<!-- Node3&#45;&gt;Node4 -->
<g id="edge3" class="edge">
<title>Node3&#45;&gt;Node4</title>
<path fill="none" stroke="#63b8ff" d="M180.31,-83.62C148.48,-83.62 114.92,-83.62 95.05,-83.62"/>
<polygon fill="#63b8ff" stroke="#63b8ff" points="180.02,-87.13 190.02,-83.62 180.02,-80.13 180.02,-87.13"/>
</g>
<!-- Node6 -->
<g id="node6" class="node">
<title>Node6</title>
<g id="a_node6"><a xlink:href="classsss_1_1api_1_1S3Api.html#a872e80e356e8c404a9b0739d95a0af41" target="_top" xlink:title="[WebClient::Config]">
<polygon fill="white" stroke="#666666" points="152.5,-56.25 0,-56.25 0,-37 152.5,-37 152.5,-56.25"/>
<text text-anchor="middle" x="76.25" y="-42.75" font-family="Helvetica,sans-Serif" font-size="10.00">sss::api::S3Api::GetObjectSize</text>
</a>
</g>
</g>
<!-- Node5&#45;&gt;Node6 -->
<g id="edge5" class="edge">
<title>Node5&#45;&gt;Node6</title>
<path fill="none" stroke="#63b8ff" d="M181.35,-46.62C171.9,-46.62 162.28,-46.62 152.9,-46.62"/>
<polygon fill="#63b8ff" stroke="#63b8ff" points="181.34,-50.13 191.34,-46.62 181.34,-43.13 181.34,-50.13"/>
</g>
<!-- Node7 -->
<g id="node7" class="node">
<title>Node7</title>
<g id="a_node7"><a xlink:href="classsss_1_1api_1_1S3Api.html#aa3f7a3001bdad58c7b0c04cbd0dc3236" target="_top" xlink:title=" ">
<polygon fill="white" stroke="#666666" points="144.25,-19.25 8.25,-19.25 8.25,0 144.25,0 144.25,-19.25"/>
<text text-anchor="middle" x="76.25" y="-5.75" font-family="Helvetica,sans-Serif" font-size="10.00">sss::api::S3Api::TestObject</text>
</a>
</g>
</g>
<!-- Node5&#45;&gt;Node7 -->
<g id="edge6" class="edge">
<title>Node5&#45;&gt;Node7</title>
<path fill="none" stroke="#63b8ff" d="M200.77,-34.38C177.06,-29.63 150.22,-24.25 127.64,-19.72"/>
<polygon fill="#63b8ff" stroke="#63b8ff" points="199.93,-37.98 210.43,-36.51 201.31,-31.12 199.93,-37.98"/>
</g>
</g>
</svg>
