<?xml version="1.0" encoding="UTF-8" standalone="no"?>
<!DOCTYPE svg PUBLIC "-//W3C//DTD SVG 1.1//EN"
 "http://www.w3.org/Graphics/SVG/1.1/DTD/svg11.dtd">
<!-- Generated by graphviz version 8.0.5 (20230430.1635)
 -->
<!-- Title: sss::UrlEncode Pages: 1 -->
<svg width="1127pt" height="544pt"
 viewBox="0.00 0.00 1126.50 543.88" xmlns="http://www.w3.org/2000/svg" xmlns:xlink="http://www.w3.org/1999/xlink">
<g id="graph0" class="graph" transform="scale(1 1) rotate(0) translate(4 539.88)">
<title>sss::UrlEncode</title>
<!-- Node1 -->
<g id="node1" class="node">
<title>Node1</title>
<g id="a_node1"><a xlink:title=" ">
<polygon fill="#999999" stroke="#666666" points="1118.5,-241.25 1035,-241.25 1035,-222 1118.5,-222 1118.5,-241.25"/>
<text text-anchor="middle" x="1076.75" y="-227.75" font-family="Helvetica,sans-Serif" font-size="10.00">sss::UrlEncode</text>
</a>
</g>
</g>
<!-- Node2 -->
<g id="node2" class="node">
<title>Node2</title>
<g id="a_node2"><a xlink:href="group__Sign.html#ga904d511ec786b87644cc90dc96dd8f3f" target="_top" xlink:title="Compute signature.">
<polygon fill="white" stroke="#666666" points="999,-300.25 880.25,-300.25 880.25,-281 999,-281 999,-300.25"/>
<text text-anchor="middle" x="939.62" y="-286.75" font-family="Helvetica,sans-Serif" font-size="10.00">sss::ComputeSignature</text>
</a>
</g>
</g>
<!-- Node1&#45;&gt;Node2 -->
<g id="edge1" class="edge">
<title>Node1&#45;&gt;Node2</title>
<path fill="none" stroke="#63b8ff" d="M1042.88,-245.98C1018.35,-256.69 985.44,-271.06 963.66,-280.57"/>
<polygon fill="#63b8ff" stroke="#63b8ff" points="1044.06,-248.84 1051.83,-241.63 1041.26,-242.43 1044.06,-248.84"/>
</g>
<!-- Node26 -->
<g id="node26" class="node">
<title>Node26</title>
<g id="a_node26"><a xlink:href="classsss_1_1WebClient.html#a7dfd984b33a29686fb0355b65b620e99" target="_top" xlink:title=" ">
<polygon fill="white" stroke="#666666" points="844.25,-264.88 689.5,-264.88 689.5,-234.38 844.25,-234.38 844.25,-264.88"/>
<text text-anchor="start" x="697.5" y="-251.38" font-family="Helvetica,sans-Serif" font-size="10.00">sss::WebClient::SetUrlEncoded</text>
<text text-anchor="middle" x="766.88" y="-240.12" font-family="Helvetica,sans-Serif" font-size="10.00">PostData</text>
</a>
</g>
</g>
<!-- Node1&#45;&gt;Node26 -->
<g id="edge29" class="edge">
<title>Node1&#45;&gt;Node26</title>
<path fill="none" stroke="#63b8ff" d="M1023.87,-234.66C974.79,-237.53 900.54,-241.87 844.62,-245.14"/>
<polygon fill="#63b8ff" stroke="#63b8ff" points="1023.77,-238.11 1033.55,-234.03 1023.36,-231.12 1023.77,-238.11"/>
</g>
<!-- Node27 -->
<g id="node27" class="node">
<title>Node27</title>
<g id="a_node27"><a xlink:href="group__Sign.html#gaaeb7f183b807aa05237023d855841246" target="_top" xlink:title="Generate presigned URL.">
<polygon fill="white" stroke="#666666" points="983.62,-222.25 895.62,-222.25 895.62,-203 983.62,-203 983.62,-222.25"/>
<text text-anchor="middle" x="939.62" y="-208.75" font-family="Helvetica,sans-Serif" font-size="10.00">sss::SignedURL</text>
</a>
</g>
</g>
<!-- Node1&#45;&gt;Node27 -->
<g id="edge32" class="edge">
<title>Node1&#45;&gt;Node27</title>
<path fill="none" stroke="#63b8ff" d="M1024.34,-224.4C1010.94,-222.51 996.65,-220.5 983.74,-218.69"/>
<polygon fill="#63b8ff" stroke="#63b8ff" points="1023.45,-227.95 1033.84,-225.87 1024.43,-221.01 1023.45,-227.95"/>
</g>
<!-- Node28 -->
<g id="node28" class="node">
<title>Node28</title>
<g id="a_node28"><a xlink:href="group__Internal.html#ga6e3db8d156313abef7e2c966df1a3d7c" target="_top" xlink:title=" ">
<polygon fill="white" stroke="#666666" points="981.38,-185.25 897.88,-185.25 897.88,-166 981.38,-166 981.38,-185.25"/>
<text text-anchor="middle" x="939.62" y="-171.75" font-family="Helvetica,sans-Serif" font-size="10.00">sss::UrlEncode</text>
</a>
</g>
</g>
<!-- Node1&#45;&gt;Node28 -->
<g id="edge33" class="edge">
<title>Node1&#45;&gt;Node28</title>
<path fill="none" stroke="#63b8ff" d="M1048.19,-216.64C1033.79,-209.15 1015.72,-200.29 999,-193.62 991.81,-190.76 983.97,-188.06 976.44,-185.67"/>
<polygon fill="#63b8ff" stroke="#63b8ff" points="1046.04,-219.99 1056.52,-221.56 1049.31,-213.8 1046.04,-219.99"/>
</g>
<!-- Node3 -->
<g id="node3" class="node">
<title>Node3</title>
<g id="a_node3"><a xlink:href="group__Sign.html#ga3ae8e18ef70752b7369fca66c40c526b" target="_top" xlink:title="Sign headers.">
<polygon fill="white" stroke="#666666" points="813.88,-302.25 719.88,-302.25 719.88,-283 813.88,-283 813.88,-302.25"/>
<text text-anchor="middle" x="766.88" y="-288.75" font-family="Helvetica,sans-Serif" font-size="10.00">sss::SignHeaders</text>
</a>
</g>
</g>
<!-- Node2&#45;&gt;Node3 -->
<g id="edge2" class="edge">
<title>Node2&#45;&gt;Node3</title>
<path fill="none" stroke="#63b8ff" d="M868.89,-291.44C850.52,-291.66 831.15,-291.88 814.35,-292.08"/>
<polygon fill="#63b8ff" stroke="#63b8ff" points="868.9,-294.93 878.86,-291.31 868.82,-287.93 868.9,-294.93"/>
</g>
<!-- Node4 -->
<g id="node4" class="node">
<title>Node4</title>
<g id="a_node4"><a xlink:href="classsss_1_1api_1_1S3Api.html#a840772746fbb0a79c161037da7b24a31" target="_top" xlink:title="[WebClient::Config]">
<polygon fill="white" stroke="#666666" points="653.5,-318.25 536.25,-318.25 536.25,-299 653.5,-299 653.5,-318.25"/>
<text text-anchor="middle" x="594.88" y="-304.75" font-family="Helvetica,sans-Serif" font-size="10.00">sss::api::S3Api::Config</text>
</a>
</g>
</g>
<!-- Node3&#45;&gt;Node4 -->
<g id="edge3" class="edge">
<title>Node3&#45;&gt;Node4</title>
<path fill="none" stroke="#63b8ff" d="M708.68,-298.01C691.01,-299.67 671.54,-301.5 653.81,-303.17"/>
<polygon fill="#63b8ff" stroke="#63b8ff" points="708.79,-301.42 718.42,-297 708.14,-294.45 708.79,-301.42"/>
</g>
<!-- Node25 -->
<g id="node25" class="node">
<title>Node25</title>
<g id="a_node25"><a xlink:href="group__S3Client.html#ga5a769be8fbc874bad858ea95743e5643" target="_top" xlink:title="Send S3 request to endpoint.">
<polygon fill="white" stroke="#666666" points="649.38,-281.25 540.38,-281.25 540.38,-262 649.38,-262 649.38,-281.25"/>
<text text-anchor="middle" x="594.88" y="-267.75" font-family="Helvetica,sans-Serif" font-size="10.00">sss::SendS3Request</text>
</a>
</g>
</g>
<!-- Node3&#45;&gt;Node25 -->
<g id="edge28" class="edge">
<title>Node3&#45;&gt;Node25</title>
<path fill="none" stroke="#63b8ff" d="M708.52,-285.54C689.54,-283.2 668.5,-280.6 649.8,-278.29"/>
<polygon fill="#63b8ff" stroke="#63b8ff" points="708.07,-289.13 718.42,-286.89 708.93,-282.19 708.07,-289.13"/>
</g>
<!-- Node5 -->
<g id="node5" class="node">
<title>Node5</title>
<g id="a_node5"><a xlink:href="classsss_1_1api_1_1S3Api.html#a1196f1cb9ce1e5d69336e9b8dbb5d59c" target="_top" xlink:title=" ">
<polygon fill="white" stroke="#666666" points="500.25,-364.88 380,-364.88 380,-334.38 500.25,-334.38 500.25,-364.88"/>
<text text-anchor="start" x="388" y="-351.38" font-family="Helvetica,sans-Serif" font-size="10.00">sss::api::S3Api::GetFile</text>
<text text-anchor="middle" x="440.12" y="-340.12" font-family="Helvetica,sans-Serif" font-size="10.00">Object</text>
</a>
</g>
</g>
<!-- Node4&#45;&gt;Node5 -->
<g id="edge4" class="edge">
<title>Node4&#45;&gt;Node5</title>
<path fill="none" stroke="#63b8ff" d="M546.1,-321.45C531.34,-325.41 514.92,-329.82 499.54,-333.95"/>
<polygon fill="#63b8ff" stroke="#63b8ff" points="546.76,-324.63 555.51,-318.65 544.94,-317.87 546.76,-324.63"/>
</g>
<!-- Node6 -->
<g id="node6" class="node">
<title>Node6</title>
<g id="a_node6"><a xlink:href="classsss_1_1api_1_1S3Api.html#ab7affe0834f5892b393e731783b7ccac" target="_top" xlink:title=" ">
<polygon fill="white" stroke="#666666" points="499.88,-315.88 380.38,-315.88 380.38,-285.38 499.88,-285.38 499.88,-315.88"/>
<text text-anchor="start" x="388.38" y="-302.38" font-family="Helvetica,sans-Serif" font-size="10.00">sss::api::S3Api::PutFile</text>
<text text-anchor="middle" x="440.12" y="-291.12" font-family="Helvetica,sans-Serif" font-size="10.00">Object</text>
</a>
</g>
</g>
<!-- Node4&#45;&gt;Node6 -->
<g id="edge5" class="edge">
<title>Node4&#45;&gt;Node6</title>
<path fill="none" stroke="#63b8ff" d="M525.25,-305.03C516.9,-304.59 508.42,-304.15 500.22,-303.72"/>
<polygon fill="#63b8ff" stroke="#63b8ff" points="524.96,-308.57 535.13,-305.6 525.32,-301.58 524.96,-308.57"/>
</g>
<!-- Node7 -->
<g id="node7" class="node">
<title>Node7</title>
<g id="a_node7"><a xlink:href="classsss_1_1api_1_1S3Api.html#ad09581bf28c4bbbcbb71b329959ec1ae" target="_top" xlink:title=" ">
<polygon fill="white" stroke="#666666" points="495.75,-259.25 384.5,-259.25 384.5,-240 495.75,-240 495.75,-259.25"/>
<text text-anchor="middle" x="440.12" y="-245.75" font-family="Helvetica,sans-Serif" font-size="10.00">sss::api::S3Api::Send</text>
</a>
</g>
</g>
<!-- Node4&#45;&gt;Node7 -->
<g id="edge6" class="edge">
<title>Node4&#45;&gt;Node7</title>
<path fill="none" stroke="#63b8ff" d="M549.28,-295.2C544.86,-293.72 540.45,-292.18 536.25,-290.62 510.62,-281.13 481.89,-268.45 462.78,-259.72"/>
<polygon fill="#63b8ff" stroke="#63b8ff" points="547.96,-298.78 558.55,-298.55 550.12,-292.12 547.96,-298.78"/>
</g>
<!-- Node8 -->
<g id="node8" class="node">
<title>Node8</title>
<g id="a_node8"><a xlink:href="classsss_1_1api_1_1S3Api.html#a4ea265566c3c4335ec01201cdc4410c6" target="_top" xlink:title=" ">
<polygon fill="white" stroke="#666666" points="341,-535.88 191.5,-535.88 191.5,-505.38 341,-505.38 341,-535.88"/>
<text text-anchor="start" x="199.5" y="-522.38" font-family="Helvetica,sans-Serif" font-size="10.00">sss::api::S3Api::AbortMultipart</text>
<text text-anchor="middle" x="266.25" y="-511.12" font-family="Helvetica,sans-Serif" font-size="10.00">Upload</text>
</a>
</g>
</g>
<!-- Node7&#45;&gt;Node8 -->
<g id="edge7" class="edge">
<title>Node7&#45;&gt;Node8</title>
<path fill="none" stroke="#63b8ff" d="M393.26,-264.76C388.21,-268.01 383.6,-271.92 380,-276.62 320.1,-354.99 408.25,-420.78 344,-495.62 340.9,-499.24 337.26,-502.34 333.3,-504.99"/>
<polygon fill="#63b8ff" stroke="#63b8ff" points="394.61,-267.47 401.72,-259.61 391.26,-261.32 394.61,-267.47"/>
</g>
<!-- Node9 -->
<g id="node9" class="node">
<title>Node9</title>
<g id="a_node9"><a xlink:href="classsss_1_1api_1_1S3Api.html#a98f999a216121118dd569c7ef0c28ff3" target="_top" xlink:title=" ">
<polygon fill="white" stroke="#666666" points="331.62,-486.88 200.88,-486.88 200.88,-456.38 331.62,-456.38 331.62,-486.88"/>
<text text-anchor="start" x="208.88" y="-473.38" font-family="Helvetica,sans-Serif" font-size="10.00">sss::api::S3Api::Complete</text>
<text text-anchor="middle" x="266.25" y="-462.12" font-family="Helvetica,sans-Serif" font-size="10.00">MultipartUpload</text>
</a>
</g>
</g>
<!-- Node7&#45;&gt;Node9 -->
<g id="edge8" class="edge">
<title>Node7&#45;&gt;Node9</title>
<path fill="none" stroke="#63b8ff" d="M393.64,-264.8C388.48,-268.04 383.75,-271.94 380,-276.62 331.47,-337.26 396.23,-390.15 344,-447.62 340.53,-451.45 336.45,-454.67 332.03,-457.38"/>
<polygon fill="#63b8ff" stroke="#63b8ff" points="395.09,-267.46 402.25,-259.65 391.78,-261.29 395.09,-267.46"/>
</g>
<!-- Node10 -->
<g id="node10" class="node">
<title>Node10</title>
<g id="a_node10"><a xlink:href="classsss_1_1api_1_1S3Api.html#ad890bd1ecfc978df24b2c3ed641e4081" target="_top" xlink:title=" ">
<polygon fill="white" stroke="#666666" points="340.62,-438.25 191.88,-438.25 191.88,-419 340.62,-419 340.62,-438.25"/>
<text text-anchor="middle" x="266.25" y="-424.75" font-family="Helvetica,sans-Serif" font-size="10.00">sss::api::S3Api::CreateBucket</text>
</a>
</g>
</g>
<!-- Node7&#45;&gt;Node10 -->
<g id="edge9" class="edge">
<title>Node7&#45;&gt;Node10</title>
<path fill="none" stroke="#63b8ff" d="M394.47,-264.65C389.05,-267.93 384.02,-271.88 380,-276.62 340.39,-323.33 387.77,-366.79 344,-409.62 340.27,-413.27 335.96,-416.26 331.32,-418.69"/>
<polygon fill="#63b8ff" stroke="#63b8ff" points="395.61,-267.48 402.84,-259.74 392.36,-261.28 395.61,-267.48"/>
</g>
<!-- Node12 -->
<g id="node12" class="node">
<title>Node12</title>
<g id="a_node12"><a xlink:href="classsss_1_1api_1_1S3Api.html#a1796fafda3d90a4292a611ce1999433b" target="_top" xlink:title=" ">
<polygon fill="white" stroke="#666666" points="344,-400.88 188.5,-400.88 188.5,-370.38 344,-370.38 344,-400.88"/>
<text text-anchor="start" x="196.5" y="-387.38" font-family="Helvetica,sans-Serif" font-size="10.00">sss::api::S3Api::CreateMultipart</text>
<text text-anchor="middle" x="266.25" y="-376.12" font-family="Helvetica,sans-Serif" font-size="10.00">Upload</text>
</a>
</g>
</g>
<!-- Node7&#45;&gt;Node12 -->
<g id="edge11" class="edge">
<title>Node7&#45;&gt;Node12</title>
<path fill="none" stroke="#63b8ff" d="M396.44,-264.38C390.42,-267.75 384.7,-271.79 380,-276.62 351.4,-306.03 374.39,-334.06 344,-361.62 340.48,-364.81 336.55,-367.58 332.37,-369.98"/>
<polygon fill="#63b8ff" stroke="#63b8ff" points="397.61,-267.21 405.02,-259.64 394.51,-260.94 397.61,-267.21"/>
</g>
<!-- Node13 -->
<g id="node13" class="node">
<title>Node13</title>
<g id="a_node13"><a xlink:href="classsss_1_1api_1_1S3Api.html#a3d63825d1916e4ba3ca13122c7660603" target="_top" xlink:title=" ">
<polygon fill="white" stroke="#666666" points="340.25,-352.25 192.25,-352.25 192.25,-333 340.25,-333 340.25,-352.25"/>
<text text-anchor="middle" x="266.25" y="-338.75" font-family="Helvetica,sans-Serif" font-size="10.00">sss::api::S3Api::DeleteBucket</text>
</a>
</g>
</g>
<!-- Node7&#45;&gt;Node13 -->
<g id="edge12" class="edge">
<title>Node7&#45;&gt;Node13</title>
<path fill="none" stroke="#63b8ff" d="M399.99,-264.13C392.96,-267.64 385.98,-271.81 380,-276.62 359.23,-293.35 366.32,-310.04 344,-324.62 339.19,-327.77 333.89,-330.37 328.39,-332.51"/>
<polygon fill="#63b8ff" stroke="#63b8ff" points="400.9,-267.1 408.51,-259.73 397.96,-260.75 400.9,-267.1"/>
</g>
<!-- Node14 -->
<g id="node14" class="node">
<title>Node14</title>
<g id="a_node14"><a xlink:href="classsss_1_1api_1_1S3Api.html#a14a75f15eb71fbba8639673100768b67" target="_top" xlink:title=" ">
<polygon fill="white" stroke="#666666" points="339.12,-315.25 193.38,-315.25 193.38,-296 339.12,-296 339.12,-315.25"/>
<text text-anchor="middle" x="266.25" y="-301.75" font-family="Helvetica,sans-Serif" font-size="10.00">sss::api::S3Api::DeleteObject</text>
</a>
</g>
</g>
<!-- Node7&#45;&gt;Node14 -->
<g id="edge14" class="edge">
<title>Node7&#45;&gt;Node14</title>
<path fill="none" stroke="#63b8ff" d="M406.72,-263.97C388.52,-271.67 365.27,-280.92 344,-287.62 334.73,-290.54 324.7,-293.23 315.04,-295.59"/>
<polygon fill="#63b8ff" stroke="#63b8ff" points="407.98,-266.81 415.79,-259.65 405.22,-260.38 407.98,-266.81"/>
</g>
<!-- Node15 -->
<g id="node15" class="node">
<title>Node15</title>
<g id="a_node15"><a xlink:href="classsss_1_1api_1_1S3Api.html#a3b53152bf39143843a4033aa4a1b3fa0" target="_top" xlink:title=" ">
<polygon fill="white" stroke="#666666" points="341,-278.25 191.5,-278.25 191.5,-259 341,-259 341,-278.25"/>
<text text-anchor="middle" x="266.25" y="-264.75" font-family="Helvetica,sans-Serif" font-size="10.00">sss::api::S3Api::GetBucketAcl</text>
</a>
</g>
</g>
<!-- Node7&#45;&gt;Node15 -->
<g id="edge15" class="edge">
<title>Node7&#45;&gt;Node15</title>
<path fill="none" stroke="#63b8ff" d="M373.5,-256.88C362.98,-258.04 352.03,-259.25 341.34,-260.44"/>
<polygon fill="#63b8ff" stroke="#63b8ff" points="373.72,-260.27 383.27,-255.69 372.95,-253.31 373.72,-260.27"/>
</g>
<!-- Node16 -->
<g id="node16" class="node">
<title>Node16</title>
<g id="a_node16"><a xlink:href="classsss_1_1api_1_1S3Api.html#af61465d92c0a94aa82ae863fc2a776a0" target="_top" xlink:title=" ">
<polygon fill="white" stroke="#666666" points="332.75,-241.25 199.75,-241.25 199.75,-222 332.75,-222 332.75,-241.25"/>
<text text-anchor="middle" x="266.25" y="-227.75" font-family="Helvetica,sans-Serif" font-size="10.00">sss::api::S3Api::GetObject</text>
</a>
</g>
</g>
<!-- Node7&#45;&gt;Node16 -->
<g id="edge17" class="edge">
<title>Node7&#45;&gt;Node16</title>
<path fill="none" stroke="#63b8ff" d="M373.35,-242.74C360.12,-241.35 346.22,-239.9 333,-238.51"/>
<polygon fill="#63b8ff" stroke="#63b8ff" points="372.96,-246.32 383.27,-243.88 373.69,-239.36 372.96,-246.32"/>
</g>
<!-- Node17 -->
<g id="node17" class="node">
<title>Node17</title>
<g id="a_node17"><a xlink:href="classsss_1_1api_1_1S3Api.html#aa4a2b1cc2c89a52d1aa89e571b785db2" target="_top" xlink:title=" ">
<polygon fill="white" stroke="#666666" points="337.62,-204.25 194.88,-204.25 194.88,-185 337.62,-185 337.62,-204.25"/>
<text text-anchor="middle" x="266.25" y="-190.75" font-family="Helvetica,sans-Serif" font-size="10.00">sss::api::S3Api::HeadBucket</text>
</a>
</g>
</g>
<!-- Node7&#45;&gt;Node17 -->
<g id="edge18" class="edge">
<title>Node7&#45;&gt;Node17</title>
<path fill="none" stroke="#63b8ff" d="M405.95,-235.4C387.86,-227.98 364.94,-219.12 344,-212.62 334.72,-209.75 324.68,-207.08 315.02,-204.73"/>
<polygon fill="#63b8ff" stroke="#63b8ff" points="404.42,-238.97 414.99,-239.57 407.1,-232.5 404.42,-238.97"/>
</g>
<!-- Node18 -->
<g id="node18" class="node">
<title>Node18</title>
<g id="a_node18"><a xlink:href="classsss_1_1api_1_1S3Api.html#abc84a71b9a88b81afaa353ad17a91d22" target="_top" xlink:title=" ">
<polygon fill="white" stroke="#666666" points="336.5,-130.25 196,-130.25 196,-111 336.5,-111 336.5,-130.25"/>
<text text-anchor="middle" x="266.25" y="-116.75" font-family="Helvetica,sans-Serif" font-size="10.00">sss::api::S3Api::HeadObject</text>
</a>
</g>
</g>
<!-- Node7&#45;&gt;Node18 -->
<g id="edge20" class="edge">
<title>Node7&#45;&gt;Node18</title>
<path fill="none" stroke="#63b8ff" d="M428.19,-230.59C412.74,-205.49 382.12,-161.8 344,-138.62 338.74,-135.43 332.95,-132.79 326.99,-130.63"/>
<polygon fill="#63b8ff" stroke="#63b8ff" points="425.56,-232.01 433.69,-238.8 431.57,-228.42 425.56,-232.01"/>
</g>
<!-- Node21 -->
<g id="node21" class="node">
<title>Node21</title>
<g id="a_node21"><a xlink:href="classsss_1_1api_1_1S3Api.html#a81e30673c06b609a2ee6e6bfd9130ca6" target="_top" xlink:title=" ">
<polygon fill="white" stroke="#666666" points="336.5,-167.25 196,-167.25 196,-148 336.5,-148 336.5,-167.25"/>
<text text-anchor="middle" x="266.25" y="-153.75" font-family="Helvetica,sans-Serif" font-size="10.00">sss::api::S3Api::ListBuckets</text>
</a>
</g>
</g>
<!-- Node7&#45;&gt;Node21 -->
<g id="edge23" class="edge">
<title>Node7&#45;&gt;Node21</title>
<path fill="none" stroke="#63b8ff" d="M421.43,-231.98C403.44,-215.04 374.01,-189.97 344,-175.62 337.46,-172.5 330.33,-169.89 323.15,-167.73"/>
<polygon fill="#63b8ff" stroke="#63b8ff" points="418.66,-234.14 428.29,-238.56 423.52,-229.1 418.66,-234.14"/>
</g>
<!-- Node22 -->
<g id="node22" class="node">
<title>Node22</title>
<g id="a_node22"><a xlink:href="classsss_1_1api_1_1S3Api.html#a3f00f611cd210a58ac6e8c0555984433" target="_top" xlink:title=" ">
<polygon fill="white" stroke="#666666" points="341.38,-93.25 191.12,-93.25 191.12,-74 341.38,-74 341.38,-93.25"/>
<text text-anchor="middle" x="266.25" y="-79.75" font-family="Helvetica,sans-Serif" font-size="10.00">sss::api::S3Api::ListObjectsV2</text>
</a>
</g>
</g>
<!-- Node7&#45;&gt;Node22 -->
<g id="edge25" class="edge">
<title>Node7&#45;&gt;Node22</title>
<path fill="none" stroke="#63b8ff" d="M432.1,-229.86C419.61,-197.72 390.42,-134.41 344,-101.62 339.53,-98.47 334.58,-95.86 329.41,-93.7"/>
<polygon fill="#63b8ff" stroke="#63b8ff" points="429.04,-230.69 435.82,-238.83 435.6,-228.24 429.04,-230.69"/>
</g>
<!-- Node23 -->
<g id="node23" class="node">
<title>Node23</title>
<g id="a_node23"><a xlink:href="classsss_1_1api_1_1S3Api.html#a0473917e4d25a4a6fca40d097e4299d6" target="_top" xlink:title=" ">
<polygon fill="white" stroke="#666666" points="321.88,-56.25 210.62,-56.25 210.62,-37 321.88,-37 321.88,-56.25"/>
<text text-anchor="middle" x="266.25" y="-42.75" font-family="Helvetica,sans-Serif" font-size="10.00">sss::api::S3Api::Send</text>
</a>
</g>
</g>
<!-- Node7&#45;&gt;Node23 -->
<g id="edge26" class="edge">
<title>Node7&#45;&gt;Node23</title>
<path fill="none" stroke="#63b8ff" d="M434.6,-229.09C425,-190.56 398.82,-107.45 344,-64.62 337.64,-59.65 330.13,-56.02 322.34,-53.37"/>
<polygon fill="#63b8ff" stroke="#63b8ff" points="431.41,-229.8 437.11,-238.73 438.22,-228.19 431.41,-229.8"/>
</g>
<!-- Node24 -->
<g id="node24" class="node">
<title>Node24</title>
<g id="a_node24"><a xlink:href="classsss_1_1api_1_1S3Api.html#a23223ee1fb701c55af2d942dbf261ae2" target="_top" xlink:title=" ">
<polygon fill="white" stroke="#666666" points="335.38,-19.25 197.12,-19.25 197.12,0 335.38,0 335.38,-19.25"/>
<text text-anchor="middle" x="266.25" y="-5.75" font-family="Helvetica,sans-Serif" font-size="10.00">sss::api::S3Api::TestBucket</text>
</a>
</g>
</g>
<!-- Node7&#45;&gt;Node24 -->
<g id="edge27" class="edge">
<title>Node7&#45;&gt;Node24</title>
<path fill="none" stroke="#63b8ff" d="M436.52,-229.06C429.8,-184.98 407.71,-81.09 344,-27.62 340.23,-24.46 336,-21.83 331.51,-19.64"/>
<polygon fill="#63b8ff" stroke="#63b8ff" points="433.17,-229.39 438.03,-238.81 440.1,-228.42 433.17,-229.39"/>
</g>
<!-- Node11 -->
<g id="node11" class="node">
<title>Node11</title>
<g id="a_node11"><a xlink:href="bucket-test_8cpp.html#a3c04138a5bfe5d72780bb7e82a18e627" target="_top" xlink:title="Bucket tests.">
<polygon fill="white" stroke="#666666" points="94.75,-278.25 57.75,-278.25 57.75,-259 94.75,-259 94.75,-278.25"/>
<text text-anchor="middle" x="76.25" y="-264.75" font-family="Helvetica,sans-Serif" font-size="10.00">main</text>
</a>
</g>
</g>
<!-- Node10&#45;&gt;Node11 -->
<g id="edge10" class="edge">
<title>Node10&#45;&gt;Node11</title>
<path fill="none" stroke="#63b8ff" d="M196.83,-414.3C193.94,-412.89 191.15,-411.33 188.5,-409.62 134.52,-374.81 95.38,-304.73 82.15,-278.68"/>
<polygon fill="#63b8ff" stroke="#63b8ff" points="195.37,-417.91 205.95,-418.6 198.11,-411.47 195.37,-417.91"/>
</g>
<!-- Node13&#45;&gt;Node11 -->
<g id="edge13" class="edge">
<title>Node13&#45;&gt;Node11</title>
<path fill="none" stroke="#63b8ff" d="M204.37,-329.75C198.95,-328.18 193.6,-326.48 188.5,-324.62 153.54,-311.93 115.34,-291.01 94.03,-278.66"/>
<polygon fill="#63b8ff" stroke="#63b8ff" points="203.23,-333.34 213.79,-332.59 205.06,-326.59 203.23,-333.34"/>
</g>
<!-- Node15&#45;&gt;Node11 -->
<g id="edge16" class="edge">
<title>Node15&#45;&gt;Node11</title>
<path fill="none" stroke="#63b8ff" d="M180.41,-268.62C148.32,-268.62 114.79,-268.62 94.98,-268.62"/>
<polygon fill="#63b8ff" stroke="#63b8ff" points="180.22,-272.13 190.22,-268.62 180.22,-265.13 180.22,-272.13"/>
</g>
<!-- Node17&#45;&gt;Node11 -->
<g id="edge19" class="edge">
<title>Node17&#45;&gt;Node11</title>
<path fill="none" stroke="#63b8ff" d="M204.37,-207.5C198.95,-209.07 193.6,-210.77 188.5,-212.62 153.54,-225.32 115.34,-246.24 94.03,-258.59"/>
<polygon fill="#63b8ff" stroke="#63b8ff" points="205.06,-210.66 213.79,-204.66 203.23,-203.91 205.06,-210.66"/>
</g>
<!-- Node19 -->
<g id="node19" class="node">
<title>Node19</title>
<g id="a_node19"><a xlink:href="classsss_1_1api_1_1S3Api.html#a872e80e356e8c404a9b0739d95a0af41" target="_top" xlink:title="[WebClient::Config]">
<polygon fill="white" stroke="#666666" points="152.5,-148.25 0,-148.25 0,-129 152.5,-129 152.5,-148.25"/>
<text text-anchor="middle" x="76.25" y="-134.75" font-family="Helvetica,sans-Serif" font-size="10.00">sss::api::S3Api::GetObjectSize</text>
</a>
</g>
</g>
<!-- Node18&#45;&gt;Node19 -->
<g id="edge21" class="edge">
<title>Node18&#45;&gt;Node19</title>
<path fill="none" stroke="#63b8ff" d="M184.63,-128.34C174.09,-129.35 163.33,-130.38 152.87,-131.38"/>
<polygon fill="#63b8ff" stroke="#63b8ff" points="184.89,-131.74 194.51,-127.3 184.22,-124.77 184.89,-131.74"/>
</g>
<!-- Node20 -->
<g id="node20" class="node">
<title>Node20</title>
<g id="a_node20"><a xlink:href="classsss_1_1api_1_1S3Api.html#aa3f7a3001bdad58c7b0c04cbd0dc3236" target="_top" xlink:title=" ">
<polygon fill="white" stroke="#666666" points="144.25,-111.25 8.25,-111.25 8.25,-92 144.25,-92 144.25,-111.25"/>
<text text-anchor="middle" x="76.25" y="-97.75" font-family="Helvetica,sans-Serif" font-size="10.00">sss::api::S3Api::TestObject</text>
</a>
</g>
</g>
<!-- Node18&#45;&gt;Node20 -->
<g id="edge22" class="edge">
<title>Node18&#45;&gt;Node20</title>
<path fill="none" stroke="#63b8ff" d="M184.88,-112.5C171.48,-111.15 157.71,-109.76 144.69,-108.44"/>
<polygon fill="#63b8ff" stroke="#63b8ff" points="184.21,-116.05 194.51,-113.58 184.92,-109.09 184.21,-116.05"/>
</g>
<!-- Node21&#45;&gt;Node11 -->
<g id="edge24" class="edge">
<title>Node21&#45;&gt;Node11</title>
<path fill="none" stroke="#63b8ff" d="M198.74,-171.13C195.22,-172.49 191.78,-173.98 188.5,-175.62 144.81,-197.45 103.45,-239.61 85.98,-258.74"/>
<polygon fill="#63b8ff" stroke="#63b8ff" points="199.53,-174.21 207.84,-167.64 197.25,-167.6 199.53,-174.21"/>
</g>
<!-- Node26&#45;&gt;Node7 -->
<g id="edge30" class="edge">
<title>Node26&#45;&gt;Node7</title>
<path fill="none" stroke="#63b8ff" d="M678.68,-249.62C620.6,-249.62 546.05,-249.62 496.09,-249.62"/>
<polygon fill="#63b8ff" stroke="#63b8ff" points="678.33,-253.13 688.33,-249.62 678.32,-246.13 678.33,-253.13"/>
</g>
<!-- Node26&#45;&gt;Node25 -->
<g id="edge31" class="edge">
<title>Node26&#45;&gt;Node25</title>
<path fill="none" stroke="#63b8ff" d="M678.62,-260.92C668.74,-262.2 658.9,-263.47 649.64,-264.67"/>
<polygon fill="#63b8ff" stroke="#63b8ff" points="678.86,-264.29 688.33,-259.53 677.96,-257.34 678.86,-264.29"/>
</g>
</g>
</svg>
