<?xml version="1.0" encoding="UTF-8" standalone="no"?>
<!DOCTYPE svg PUBLIC "-//W3C//DTD SVG 1.1//EN"
 "http://www.w3.org/Graphics/SVG/1.1/DTD/svg11.dtd">
<!-- Generated by graphviz version 8.0.5 (20230430.1635)
 -->
<!-- Title: sss::ParseURL Pages: 1 -->
<svg width="1066pt" height="507pt"
 viewBox="0.00 0.00 1065.75 506.88" xmlns="http://www.w3.org/2000/svg" xmlns:xlink="http://www.w3.org/1999/xlink">
<g id="graph0" class="graph" transform="scale(1 1) rotate(0) translate(4 502.88)">
<title>sss::ParseURL</title>
<!-- Node1 -->
<g id="node1" class="node">
<title>Node1</title>
<g id="a_node1"><a xlink:title=" ">
<polygon fill="#999999" stroke="#666666" points="1057.75,-228.25 974.25,-228.25 974.25,-209 1057.75,-209 1057.75,-228.25"/>
<text text-anchor="middle" x="1016" y="-214.75" font-family="Helvetica,sans-Serif" font-size="10.00">sss::ParseURL</text>
</a>
</g>
</g>
<!-- Node2 -->
<g id="node2" class="node">
<title>Node2</title>
<g id="a_node2"><a xlink:href="group__Sign.html#ga904d511ec786b87644cc90dc96dd8f3f" target="_top" xlink:title="Compute signature.">
<polygon fill="white" stroke="#666666" points="938.25,-265.25 819.5,-265.25 819.5,-246 938.25,-246 938.25,-265.25"/>
<text text-anchor="middle" x="878.88" y="-251.75" font-family="Helvetica,sans-Serif" font-size="10.00">sss::ComputeSignature</text>
</a>
</g>
</g>
<!-- Node1&#45;&gt;Node2 -->
<g id="edge1" class="edge">
<title>Node1&#45;&gt;Node2</title>
<path fill="none" stroke="#63b8ff" d="M967.92,-231.52C951.16,-236.11 932.54,-241.2 916.75,-245.53"/>
<polygon fill="#63b8ff" stroke="#63b8ff" points="968.36,-234.75 977.08,-228.74 966.51,-228 968.36,-234.75"/>
</g>
<!-- Node25 -->
<g id="node25" class="node">
<title>Node25</title>
<g id="a_node25"><a xlink:href="group__Sign.html#gaaeb7f183b807aa05237023d855841246" target="_top" xlink:title="Generate presigned URL.">
<polygon fill="white" stroke="#666666" points="922.88,-228.25 834.88,-228.25 834.88,-209 922.88,-209 922.88,-228.25"/>
<text text-anchor="middle" x="878.88" y="-214.75" font-family="Helvetica,sans-Serif" font-size="10.00">sss::SignedURL</text>
</a>
</g>
</g>
<!-- Node1&#45;&gt;Node25 -->
<g id="edge27" class="edge">
<title>Node1&#45;&gt;Node25</title>
<path fill="none" stroke="#63b8ff" d="M963.19,-218.62C949.91,-218.62 935.78,-218.62 922.99,-218.62"/>
<polygon fill="#63b8ff" stroke="#63b8ff" points="963.09,-222.13 973.09,-218.62 963.09,-215.13 963.09,-222.13"/>
</g>
<!-- Node26 -->
<g id="node26" class="node">
<title>Node26</title>
<g id="a_node26"><a xlink:href="group__S3Client.html#gad8bcfb380e91093fec44517e1eddc939" target="_top" xlink:title="Validate S3 client request parameters.">
<polygon fill="white" stroke="#666666" points="915,-191.25 842.75,-191.25 842.75,-172 915,-172 915,-191.25"/>
<text text-anchor="middle" x="878.88" y="-177.75" font-family="Helvetica,sans-Serif" font-size="10.00">sss::Validate</text>
</a>
</g>
</g>
<!-- Node1&#45;&gt;Node26 -->
<g id="edge28" class="edge">
<title>Node1&#45;&gt;Node26</title>
<path fill="none" stroke="#63b8ff" d="M967.66,-205.66C950.47,-200.96 931.35,-195.72 915.36,-191.34"/>
<polygon fill="#63b8ff" stroke="#63b8ff" points="966.51,-209.25 977.08,-208.51 968.36,-202.5 966.51,-209.25"/>
</g>
<!-- Node3 -->
<g id="node3" class="node">
<title>Node3</title>
<g id="a_node3"><a xlink:href="group__Sign.html#ga3ae8e18ef70752b7369fca66c40c526b" target="_top" xlink:title="Sign headers.">
<polygon fill="white" stroke="#666666" points="783.5,-265.25 689.5,-265.25 689.5,-246 783.5,-246 783.5,-265.25"/>
<text text-anchor="middle" x="736.5" y="-251.75" font-family="Helvetica,sans-Serif" font-size="10.00">sss::SignHeaders</text>
</a>
</g>
</g>
<!-- Node2&#45;&gt;Node3 -->
<g id="edge2" class="edge">
<title>Node2&#45;&gt;Node3</title>
<path fill="none" stroke="#63b8ff" d="M808.22,-255.62C799.87,-255.62 791.5,-255.62 783.6,-255.62"/>
<polygon fill="#63b8ff" stroke="#63b8ff" points="808.16,-259.13 818.16,-255.62 808.16,-252.13 808.16,-259.13"/>
</g>
<!-- Node4 -->
<g id="node4" class="node">
<title>Node4</title>
<g id="a_node4"><a xlink:href="classsss_1_1api_1_1S3Api.html#a840772746fbb0a79c161037da7b24a31" target="_top" xlink:title="[WebClient::Config]">
<polygon fill="white" stroke="#666666" points="653.5,-284.25 536.25,-284.25 536.25,-265 653.5,-265 653.5,-284.25"/>
<text text-anchor="middle" x="594.88" y="-270.75" font-family="Helvetica,sans-Serif" font-size="10.00">sss::api::S3Api::Config</text>
</a>
</g>
</g>
<!-- Node3&#45;&gt;Node4 -->
<g id="edge3" class="edge">
<title>Node3&#45;&gt;Node4</title>
<path fill="none" stroke="#63b8ff" d="M678.22,-263.42C670.17,-264.51 661.9,-265.64 653.84,-266.74"/>
<polygon fill="#63b8ff" stroke="#63b8ff" points="678.57,-266.77 688.01,-261.95 677.63,-259.83 678.57,-266.77"/>
</g>
<!-- Node24 -->
<g id="node24" class="node">
<title>Node24</title>
<g id="a_node24"><a xlink:href="group__S3Client.html#ga5a769be8fbc874bad858ea95743e5643" target="_top" xlink:title="Send S3 request to endpoint.">
<polygon fill="white" stroke="#666666" points="649.38,-247.25 540.38,-247.25 540.38,-228 649.38,-228 649.38,-247.25"/>
<text text-anchor="middle" x="594.88" y="-233.75" font-family="Helvetica,sans-Serif" font-size="10.00">sss::SendS3Request</text>
</a>
</g>
</g>
<!-- Node3&#45;&gt;Node24 -->
<g id="edge26" class="edge">
<title>Node3&#45;&gt;Node24</title>
<path fill="none" stroke="#63b8ff" d="M678.37,-248.26C668.8,-247.03 658.89,-245.75 649.41,-244.53"/>
<polygon fill="#63b8ff" stroke="#63b8ff" points="677.64,-251.82 688.01,-249.63 678.54,-244.88 677.64,-251.82"/>
</g>
<!-- Node5 -->
<g id="node5" class="node">
<title>Node5</title>
<g id="a_node5"><a xlink:href="classsss_1_1api_1_1S3Api.html#a1196f1cb9ce1e5d69336e9b8dbb5d59c" target="_top" xlink:title=" ">
<polygon fill="white" stroke="#666666" points="500.25,-338.88 380,-338.88 380,-308.38 500.25,-308.38 500.25,-338.88"/>
<text text-anchor="start" x="388" y="-325.38" font-family="Helvetica,sans-Serif" font-size="10.00">sss::api::S3Api::GetFile</text>
<text text-anchor="middle" x="440.12" y="-314.12" font-family="Helvetica,sans-Serif" font-size="10.00">Object</text>
</a>
</g>
</g>
<!-- Node4&#45;&gt;Node5 -->
<g id="edge4" class="edge">
<title>Node4&#45;&gt;Node5</title>
<path fill="none" stroke="#63b8ff" d="M552.35,-287.95C533.13,-294.11 510.17,-301.48 490.11,-307.91"/>
<polygon fill="#63b8ff" stroke="#63b8ff" points="553.14,-291.05 561.6,-284.66 551,-284.38 553.14,-291.05"/>
</g>
<!-- Node6 -->
<g id="node6" class="node">
<title>Node6</title>
<g id="a_node6"><a xlink:href="classsss_1_1api_1_1S3Api.html#ab7affe0834f5892b393e731783b7ccac" target="_top" xlink:title=" ">
<polygon fill="white" stroke="#666666" points="499.88,-289.88 380.38,-289.88 380.38,-259.38 499.88,-259.38 499.88,-289.88"/>
<text text-anchor="start" x="388.38" y="-276.38" font-family="Helvetica,sans-Serif" font-size="10.00">sss::api::S3Api::PutFile</text>
<text text-anchor="middle" x="440.12" y="-265.12" font-family="Helvetica,sans-Serif" font-size="10.00">Object</text>
</a>
</g>
</g>
<!-- Node4&#45;&gt;Node6 -->
<g id="edge5" class="edge">
<title>Node4&#45;&gt;Node6</title>
<path fill="none" stroke="#63b8ff" d="M525.25,-274.62C516.9,-274.62 508.42,-274.62 500.22,-274.62"/>
<polygon fill="#63b8ff" stroke="#63b8ff" points="525.13,-278.13 535.13,-274.62 525.13,-271.13 525.13,-278.13"/>
</g>
<!-- Node7 -->
<g id="node7" class="node">
<title>Node7</title>
<g id="a_node7"><a xlink:href="classsss_1_1api_1_1S3Api.html#ad09581bf28c4bbbcbb71b329959ec1ae" target="_top" xlink:title=" ">
<polygon fill="white" stroke="#666666" points="495.75,-241.25 384.5,-241.25 384.5,-222 495.75,-222 495.75,-241.25"/>
<text text-anchor="middle" x="440.12" y="-227.75" font-family="Helvetica,sans-Serif" font-size="10.00">sss::api::S3Api::Send</text>
</a>
</g>
</g>
<!-- Node4&#45;&gt;Node7 -->
<g id="edge6" class="edge">
<title>Node4&#45;&gt;Node7</title>
<path fill="none" stroke="#63b8ff" d="M547.65,-261.61C524.97,-255.23 498.07,-247.66 476.98,-241.72"/>
<polygon fill="#63b8ff" stroke="#63b8ff" points="546.49,-265.2 557.06,-264.54 548.38,-258.46 546.49,-265.2"/>
</g>
<!-- Node8 -->
<g id="node8" class="node">
<title>Node8</title>
<g id="a_node8"><a xlink:href="classsss_1_1api_1_1S3Api.html#a4ea265566c3c4335ec01201cdc4410c6" target="_top" xlink:title=" ">
<polygon fill="white" stroke="#666666" points="341,-498.88 191.5,-498.88 191.5,-468.38 341,-468.38 341,-498.88"/>
<text text-anchor="start" x="199.5" y="-485.38" font-family="Helvetica,sans-Serif" font-size="10.00">sss::api::S3Api::AbortMultipart</text>
<text text-anchor="middle" x="266.25" y="-474.12" font-family="Helvetica,sans-Serif" font-size="10.00">Upload</text>
</a>
</g>
</g>
<!-- Node7&#45;&gt;Node8 -->
<g id="edge7" class="edge">
<title>Node7&#45;&gt;Node8</title>
<path fill="none" stroke="#63b8ff" d="M382.51,-248.01C381.64,-248.84 380.8,-249.71 380,-250.62 318.45,-321.43 405.41,-387.7 344,-458.62 340.88,-462.23 337.24,-465.31 333.26,-467.96"/>
<polygon fill="#63b8ff" stroke="#63b8ff" points="384.29,-250.32 390.33,-241.61 380.18,-244.65 384.29,-250.32"/>
</g>
<!-- Node9 -->
<g id="node9" class="node">
<title>Node9</title>
<g id="a_node9"><a xlink:href="classsss_1_1api_1_1S3Api.html#a98f999a216121118dd569c7ef0c28ff3" target="_top" xlink:title=" ">
<polygon fill="white" stroke="#666666" points="331.62,-449.88 200.88,-449.88 200.88,-419.38 331.62,-419.38 331.62,-449.88"/>
<text text-anchor="start" x="208.88" y="-436.38" font-family="Helvetica,sans-Serif" font-size="10.00">sss::api::S3Api::Complete</text>
<text text-anchor="middle" x="266.25" y="-425.12" font-family="Helvetica,sans-Serif" font-size="10.00">MultipartUpload</text>
</a>
</g>
</g>
<!-- Node7&#45;&gt;Node9 -->
<g id="edge8" class="edge">
<title>Node7&#45;&gt;Node9</title>
<path fill="none" stroke="#63b8ff" d="M382.98,-247.7C381.94,-248.62 380.94,-249.6 380,-250.62 330.82,-304.42 393.39,-357.02 344,-410.62 340.5,-414.42 336.41,-417.63 331.97,-420.32"/>
<polygon fill="#63b8ff" stroke="#63b8ff" points="384.56,-250.18 390.8,-241.62 380.58,-244.42 384.56,-250.18"/>
</g>
<!-- Node10 -->
<g id="node10" class="node">
<title>Node10</title>
<g id="a_node10"><a xlink:href="classsss_1_1api_1_1S3Api.html#ad890bd1ecfc978df24b2c3ed641e4081" target="_top" xlink:title=" ">
<polygon fill="white" stroke="#666666" points="340.62,-401.25 191.88,-401.25 191.88,-382 340.62,-382 340.62,-401.25"/>
<text text-anchor="middle" x="266.25" y="-387.75" font-family="Helvetica,sans-Serif" font-size="10.00">sss::api::S3Api::CreateBucket</text>
</a>
</g>
</g>
<!-- Node7&#45;&gt;Node10 -->
<g id="edge9" class="edge">
<title>Node7&#45;&gt;Node10</title>
<path fill="none" stroke="#63b8ff" d="M383.14,-247.73C382.05,-248.64 381,-249.61 380,-250.62 340.51,-291.08 384.85,-333.54 344,-372.62 340.23,-376.23 335.89,-379.18 331.23,-381.6"/>
<polygon fill="#63b8ff" stroke="#63b8ff" points="384.89,-250.11 391.33,-241.69 381.05,-244.26 384.89,-250.11"/>
</g>
<!-- Node12 -->
<g id="node12" class="node">
<title>Node12</title>
<g id="a_node12"><a xlink:href="classsss_1_1api_1_1S3Api.html#a1796fafda3d90a4292a611ce1999433b" target="_top" xlink:title=" ">
<polygon fill="white" stroke="#666666" points="344,-363.88 188.5,-363.88 188.5,-333.38 344,-333.38 344,-363.88"/>
<text text-anchor="start" x="196.5" y="-350.38" font-family="Helvetica,sans-Serif" font-size="10.00">sss::api::S3Api::CreateMultipart</text>
<text text-anchor="middle" x="266.25" y="-339.12" font-family="Helvetica,sans-Serif" font-size="10.00">Upload</text>
</a>
</g>
</g>
<!-- Node7&#45;&gt;Node12 -->
<g id="edge11" class="edge">
<title>Node7&#45;&gt;Node12</title>
<path fill="none" stroke="#63b8ff" d="M384.94,-246.85C383.21,-248.02 381.56,-249.27 380,-250.62 352.37,-274.59 371.72,-300.77 344,-324.62 340.3,-327.81 336.17,-330.58 331.81,-332.97"/>
<polygon fill="#63b8ff" stroke="#63b8ff" points="386.08,-249.67 393.1,-241.73 382.66,-243.56 386.08,-249.67"/>
</g>
<!-- Node13 -->
<g id="node13" class="node">
<title>Node13</title>
<g id="a_node13"><a xlink:href="classsss_1_1api_1_1S3Api.html#a3d63825d1916e4ba3ca13122c7660603" target="_top" xlink:title=" ">
<polygon fill="white" stroke="#666666" points="340.25,-315.25 192.25,-315.25 192.25,-296 340.25,-296 340.25,-315.25"/>
<text text-anchor="middle" x="266.25" y="-301.75" font-family="Helvetica,sans-Serif" font-size="10.00">sss::api::S3Api::DeleteBucket</text>
</a>
</g>
</g>
<!-- Node7&#45;&gt;Node13 -->
<g id="edge12" class="edge">
<title>Node7&#45;&gt;Node13</title>
<path fill="none" stroke="#63b8ff" d="M388.83,-245.84C385.77,-247.3 382.8,-248.89 380,-250.62 360.5,-262.72 363.97,-276.33 344,-287.62 338.4,-290.79 332.27,-293.4 325.99,-295.55"/>
<polygon fill="#63b8ff" stroke="#63b8ff" points="389.96,-248.74 397.82,-241.64 387.25,-242.29 389.96,-248.74"/>
</g>
<!-- Node14 -->
<g id="node14" class="node">
<title>Node14</title>
<g id="a_node14"><a xlink:href="classsss_1_1api_1_1S3Api.html#a14a75f15eb71fbba8639673100768b67" target="_top" xlink:title=" ">
<polygon fill="white" stroke="#666666" points="339.12,-278.25 193.38,-278.25 193.38,-259 339.12,-259 339.12,-278.25"/>
<text text-anchor="middle" x="266.25" y="-264.75" font-family="Helvetica,sans-Serif" font-size="10.00">sss::api::S3Api::DeleteObject</text>
</a>
</g>
</g>
<!-- Node7&#45;&gt;Node14 -->
<g id="edge14" class="edge">
<title>Node7&#45;&gt;Node14</title>
<path fill="none" stroke="#63b8ff" d="M381.65,-244C359.71,-248.72 334.99,-254.04 314.16,-258.53"/>
<polygon fill="#63b8ff" stroke="#63b8ff" points="382.12,-247.26 391.16,-241.74 380.65,-240.42 382.12,-247.26"/>
</g>
<!-- Node15 -->
<g id="node15" class="node">
<title>Node15</title>
<g id="a_node15"><a xlink:href="classsss_1_1api_1_1S3Api.html#af61465d92c0a94aa82ae863fc2a776a0" target="_top" xlink:title=" ">
<polygon fill="white" stroke="#666666" points="332.75,-241.25 199.75,-241.25 199.75,-222 332.75,-222 332.75,-241.25"/>
<text text-anchor="middle" x="266.25" y="-227.75" font-family="Helvetica,sans-Serif" font-size="10.00">sss::api::S3Api::GetObject</text>
</a>
</g>
</g>
<!-- Node7&#45;&gt;Node15 -->
<g id="edge15" class="edge">
<title>Node7&#45;&gt;Node15</title>
<path fill="none" stroke="#63b8ff" d="M373.35,-231.62C360.12,-231.62 346.22,-231.62 333,-231.62"/>
<polygon fill="#63b8ff" stroke="#63b8ff" points="373.27,-235.13 383.27,-231.62 373.27,-228.13 373.27,-235.13"/>
</g>
<!-- Node16 -->
<g id="node16" class="node">
<title>Node16</title>
<g id="a_node16"><a xlink:href="classsss_1_1api_1_1S3Api.html#aa4a2b1cc2c89a52d1aa89e571b785db2" target="_top" xlink:title=" ">
<polygon fill="white" stroke="#666666" points="337.62,-204.25 194.88,-204.25 194.88,-185 337.62,-185 337.62,-204.25"/>
<text text-anchor="middle" x="266.25" y="-190.75" font-family="Helvetica,sans-Serif" font-size="10.00">sss::api::S3Api::HeadBucket</text>
</a>
</g>
</g>
<!-- Node7&#45;&gt;Node16 -->
<g id="edge16" class="edge">
<title>Node7&#45;&gt;Node16</title>
<path fill="none" stroke="#63b8ff" d="M381.65,-219.25C359.71,-214.53 334.99,-209.21 314.16,-204.72"/>
<polygon fill="#63b8ff" stroke="#63b8ff" points="380.65,-222.83 391.16,-221.51 382.12,-215.99 380.65,-222.83"/>
</g>
<!-- Node17 -->
<g id="node17" class="node">
<title>Node17</title>
<g id="a_node17"><a xlink:href="classsss_1_1api_1_1S3Api.html#abc84a71b9a88b81afaa353ad17a91d22" target="_top" xlink:title=" ">
<polygon fill="white" stroke="#666666" points="336.5,-130.25 196,-130.25 196,-111 336.5,-111 336.5,-130.25"/>
<text text-anchor="middle" x="266.25" y="-116.75" font-family="Helvetica,sans-Serif" font-size="10.00">sss::api::S3Api::HeadObject</text>
</a>
</g>
</g>
<!-- Node7&#45;&gt;Node17 -->
<g id="edge18" class="edge">
<title>Node7&#45;&gt;Node17</title>
<path fill="none" stroke="#63b8ff" d="M425.48,-213.21C408.71,-191.92 378.21,-157.41 344,-138.62 338.24,-135.46 331.94,-132.85 325.51,-130.7"/>
<polygon fill="#63b8ff" stroke="#63b8ff" points="423.13,-214.9 432,-220.7 428.69,-210.63 423.13,-214.9"/>
</g>
<!-- Node20 -->
<g id="node20" class="node">
<title>Node20</title>
<g id="a_node20"><a xlink:href="classsss_1_1api_1_1S3Api.html#a81e30673c06b609a2ee6e6bfd9130ca6" target="_top" xlink:title=" ">
<polygon fill="white" stroke="#666666" points="336.5,-167.25 196,-167.25 196,-148 336.5,-148 336.5,-167.25"/>
<text text-anchor="middle" x="266.25" y="-153.75" font-family="Helvetica,sans-Serif" font-size="10.00">sss::api::S3Api::ListBuckets</text>
</a>
</g>
</g>
<!-- Node7&#45;&gt;Node20 -->
<g id="edge21" class="edge">
<title>Node7&#45;&gt;Node20</title>
<path fill="none" stroke="#63b8ff" d="M416.42,-215.6C397.75,-203.09 370.21,-186.13 344,-175.62 336.38,-172.57 328.11,-169.96 319.92,-167.75"/>
<polygon fill="#63b8ff" stroke="#63b8ff" points="414.08,-218.92 424.32,-221.67 418.03,-213.14 414.08,-218.92"/>
</g>
<!-- Node21 -->
<g id="node21" class="node">
<title>Node21</title>
<g id="a_node21"><a xlink:href="classsss_1_1api_1_1S3Api.html#a3f00f611cd210a58ac6e8c0555984433" target="_top" xlink:title=" ">
<polygon fill="white" stroke="#666666" points="341.38,-93.25 191.12,-93.25 191.12,-74 341.38,-74 341.38,-93.25"/>
<text text-anchor="middle" x="266.25" y="-79.75" font-family="Helvetica,sans-Serif" font-size="10.00">sss::api::S3Api::ListObjectsV2</text>
</a>
</g>
</g>
<!-- Node7&#45;&gt;Node21 -->
<g id="edge23" class="edge">
<title>Node7&#45;&gt;Node21</title>
<path fill="none" stroke="#63b8ff" d="M430.26,-211.83C416.25,-182.92 386.18,-129.55 344,-101.62 339.21,-98.45 333.92,-95.84 328.43,-93.68"/>
<polygon fill="#63b8ff" stroke="#63b8ff" points="427.43,-213.04 434.83,-220.61 433.77,-210.07 427.43,-213.04"/>
</g>
<!-- Node22 -->
<g id="node22" class="node">
<title>Node22</title>
<g id="a_node22"><a xlink:href="classsss_1_1api_1_1S3Api.html#a0473917e4d25a4a6fca40d097e4299d6" target="_top" xlink:title=" ">
<polygon fill="white" stroke="#666666" points="321.88,-56.25 210.62,-56.25 210.62,-37 321.88,-37 321.88,-56.25"/>
<text text-anchor="middle" x="266.25" y="-42.75" font-family="Helvetica,sans-Serif" font-size="10.00">sss::api::S3Api::Send</text>
</a>
</g>
</g>
<!-- Node7&#45;&gt;Node22 -->
<g id="edge24" class="edge">
<title>Node7&#45;&gt;Node22</title>
<path fill="none" stroke="#63b8ff" d="M433.47,-211.37C422.46,-175.85 394.67,-102.49 344,-64.62 337.53,-59.79 329.97,-56.23 322.16,-53.61"/>
<polygon fill="#63b8ff" stroke="#63b8ff" points="430.38,-212.27 436.57,-220.86 437.09,-210.28 430.38,-212.27"/>
</g>
<!-- Node23 -->
<g id="node23" class="node">
<title>Node23</title>
<g id="a_node23"><a xlink:href="classsss_1_1api_1_1S3Api.html#a23223ee1fb701c55af2d942dbf261ae2" target="_top" xlink:title=" ">
<polygon fill="white" stroke="#666666" points="335.38,-19.25 197.12,-19.25 197.12,0 335.38,0 335.38,-19.25"/>
<text text-anchor="middle" x="266.25" y="-5.75" font-family="Helvetica,sans-Serif" font-size="10.00">sss::api::S3Api::TestBucket</text>
</a>
</g>
</g>
<!-- Node7&#45;&gt;Node23 -->
<g id="edge25" class="edge">
<title>Node7&#45;&gt;Node23</title>
<path fill="none" stroke="#63b8ff" d="M435.65,-211.02C427.54,-169.55 403.34,-75.85 344,-27.62 340.07,-24.43 335.67,-21.78 331.03,-19.59"/>
<polygon fill="#63b8ff" stroke="#63b8ff" points="432.36,-211.47 437.6,-220.68 439.25,-210.21 432.36,-211.47"/>
</g>
<!-- Node11 -->
<g id="node11" class="node">
<title>Node11</title>
<g id="a_node11"><a xlink:href="bucket-test_8cpp.html#a3c04138a5bfe5d72780bb7e82a18e627" target="_top" xlink:title="Bucket tests.">
<polygon fill="white" stroke="#666666" points="94.75,-259.25 57.75,-259.25 57.75,-240 94.75,-240 94.75,-259.25"/>
<text text-anchor="middle" x="76.25" y="-245.75" font-family="Helvetica,sans-Serif" font-size="10.00">main</text>
</a>
</g>
</g>
<!-- Node10&#45;&gt;Node11 -->
<g id="edge10" class="edge">
<title>Node10&#45;&gt;Node11</title>
<path fill="none" stroke="#63b8ff" d="M197.94,-377.52C194.67,-376.05 191.5,-374.42 188.5,-372.62 138.59,-342.77 98.18,-283.45 83.35,-259.75"/>
<polygon fill="#63b8ff" stroke="#63b8ff" points="196.4,-381.07 206.98,-381.5 198.97,-374.56 196.4,-381.07"/>
</g>
<!-- Node13&#45;&gt;Node11 -->
<g id="edge13" class="edge">
<title>Node13&#45;&gt;Node11</title>
<path fill="none" stroke="#63b8ff" d="M208.32,-292.94C201.61,-291.25 194.89,-289.46 188.5,-287.62 155.15,-278.04 117.04,-264.43 95.19,-256.37"/>
<polygon fill="#63b8ff" stroke="#63b8ff" points="207.25,-296.52 217.79,-295.51 208.91,-289.72 207.25,-296.52"/>
</g>
<!-- Node16&#45;&gt;Node11 -->
<g id="edge17" class="edge">
<title>Node16&#45;&gt;Node11</title>
<path fill="none" stroke="#63b8ff" d="M208.61,-207.3C201.81,-209 194.98,-210.79 188.5,-212.62 155.2,-222.05 117.07,-235.27 95.21,-243.09"/>
<polygon fill="#63b8ff" stroke="#63b8ff" points="209.33,-210.48 218.21,-204.7 207.67,-203.68 209.33,-210.48"/>
</g>
<!-- Node18 -->
<g id="node18" class="node">
<title>Node18</title>
<g id="a_node18"><a xlink:href="classsss_1_1api_1_1S3Api.html#a872e80e356e8c404a9b0739d95a0af41" target="_top" xlink:title="[WebClient::Config]">
<polygon fill="white" stroke="#666666" points="152.5,-148.25 0,-148.25 0,-129 152.5,-129 152.5,-148.25"/>
<text text-anchor="middle" x="76.25" y="-134.75" font-family="Helvetica,sans-Serif" font-size="10.00">sss::api::S3Api::GetObjectSize</text>
</a>
</g>
</g>
<!-- Node17&#45;&gt;Node18 -->
<g id="edge19" class="edge">
<title>Node17&#45;&gt;Node18</title>
<path fill="none" stroke="#63b8ff" d="M184.63,-128.34C174.09,-129.35 163.33,-130.38 152.87,-131.38"/>
<polygon fill="#63b8ff" stroke="#63b8ff" points="184.89,-131.74 194.51,-127.3 184.22,-124.77 184.89,-131.74"/>
</g>
<!-- Node19 -->
<g id="node19" class="node">
<title>Node19</title>
<g id="a_node19"><a xlink:href="classsss_1_1api_1_1S3Api.html#aa3f7a3001bdad58c7b0c04cbd0dc3236" target="_top" xlink:title=" ">
<polygon fill="white" stroke="#666666" points="144.25,-111.25 8.25,-111.25 8.25,-92 144.25,-92 144.25,-111.25"/>
<text text-anchor="middle" x="76.25" y="-97.75" font-family="Helvetica,sans-Serif" font-size="10.00">sss::api::S3Api::TestObject</text>
</a>
</g>
</g>
<!-- Node17&#45;&gt;Node19 -->
<g id="edge20" class="edge">
<title>Node17&#45;&gt;Node19</title>
<path fill="none" stroke="#63b8ff" d="M184.88,-112.5C171.48,-111.15 157.71,-109.76 144.69,-108.44"/>
<polygon fill="#63b8ff" stroke="#63b8ff" points="184.21,-116.05 194.51,-113.58 184.92,-109.09 184.21,-116.05"/>
</g>
<!-- Node20&#45;&gt;Node11 -->
<g id="edge22" class="edge">
<title>Node20&#45;&gt;Node11</title>
<path fill="none" stroke="#63b8ff" d="M200.7,-170.97C196.51,-172.38 192.41,-173.93 188.5,-175.62 149.12,-192.68 108.56,-223.73 89.09,-239.64"/>
<polygon fill="#63b8ff" stroke="#63b8ff" points="201.67,-174.02 210.2,-167.73 199.61,-167.33 201.67,-174.02"/>
</g>
</g>
</svg>
