<?xml version="1.0" encoding="UTF-8" standalone="no"?>
<!DOCTYPE svg PUBLIC "-//W3C//DTD SVG 1.1//EN"
 "http://www.w3.org/Graphics/SVG/1.1/DTD/svg11.dtd">
<!-- Generated by graphviz version 8.0.5 (20230430.1635)
 -->
<!-- Title: sha256::sha256 Pages: 1 -->
<svg width="367pt" height="175pt"
 viewBox="0.00 0.00 366.50 175.25" xmlns="http://www.w3.org/2000/svg" xmlns:xlink="http://www.w3.org/1999/xlink">
<g id="graph0" class="graph" transform="scale(1 1) rotate(0) translate(4 171.25)">
<title>sha256::sha256</title>
<!-- Node1 -->
<g id="node1" class="node">
<title>Node1</title>
<g id="a_node1"><a xlink:title="Return SHA256 hash.">
<polygon fill="#999999" stroke="#666666" points="85,-93.25 0,-93.25 0,-74 85,-74 85,-93.25"/>
<text text-anchor="middle" x="42.5" y="-79.75" font-family="Helvetica,sans-Serif" font-size="10.00">sha256::sha256</text>
</a>
</g>
</g>
<!-- Node1&#45;&gt;Node1 -->
<g id="edge6" class="edge">
<title>Node1&#45;&gt;Node1</title>
<path fill="none" stroke="#63b8ff" d="M20.8,-93.54C10.9,-102.15 18.13,-111.25 42.5,-111.25 56.59,-111.25 64.95,-108.21 67.58,-103.98"/>
<polygon fill="#63b8ff" stroke="#63b8ff" points="70.61,-102.97 64.2,-94.54 63.95,-105.13 70.61,-102.97"/>
</g>
<!-- Node2 -->
<g id="node2" class="node">
<title>Node2</title>
<g id="a_node2"><a xlink:href="group__Hash__Utility.html#ga2343e55717412f96eec191b9fddb7e29" target="_top" xlink:title="Allocate buffer of correct size for computing hash code.">
<polygon fill="white" stroke="#666666" points="217.62,-130.25 144.62,-130.25 144.62,-111 217.62,-111 217.62,-130.25"/>
<text text-anchor="middle" x="181.12" y="-116.75" font-family="Helvetica,sans-Serif" font-size="10.00">alloc_padded</text>
</a>
</g>
</g>
<!-- Node1&#45;&gt;Node2 -->
<g id="edge1" class="edge">
<title>Node1&#45;&gt;Node2</title>
<path fill="none" stroke="#63b8ff" d="M80.83,-93.74C97.19,-98.17 116.55,-103.41 133.82,-108.08"/>
<polygon fill="#63b8ff" stroke="#63b8ff" points="132.68,-111.67 143.25,-110.91 134.51,-104.92 132.68,-111.67"/>
</g>
<!-- Node3 -->
<g id="node3" class="node">
<title>Node3</title>
<g id="a_node3"><a xlink:href="group__Hash__Utility.html#ga2f56d7c5d4d0a61f36bdafd0abd32191" target="_top" xlink:title="Return next number evenly divisible by specified number.">
<polygon fill="white" stroke="#666666" points="352.12,-167.25 283.62,-167.25 283.62,-148 352.12,-148 352.12,-167.25"/>
<text text-anchor="middle" x="317.88" y="-153.75" font-family="Helvetica,sans-Serif" font-size="10.00">next_div_by</text>
</a>
</g>
</g>
<!-- Node1&#45;&gt;Node3 -->
<g id="edge5" class="edge">
<title>Node1&#45;&gt;Node3</title>
<path fill="none" stroke="#63b8ff" d="M53.46,-93.61C67.27,-106.75 93.64,-129.37 121,-139.62 170.54,-158.2 231.86,-160.88 272.56,-160.11"/>
<polygon fill="#63b8ff" stroke="#63b8ff" points="272.56,-163.58 282.46,-159.81 272.37,-156.58 272.56,-163.58"/>
</g>
<!-- Node5 -->
<g id="node5" class="node">
<title>Node5</title>
<g id="a_node5"><a xlink:href="group__Hash.html#gac47f6dba748c8b9093b1b2dff14a0be3" target="_top" xlink:title="Initialize SHA256 hash.">
<polygon fill="white" stroke="#666666" points="227.38,-93.25 134.88,-93.25 134.88,-74 227.38,-74 227.38,-93.25"/>
<text text-anchor="middle" x="181.12" y="-79.75" font-family="Helvetica,sans-Serif" font-size="10.00">sha256::init_hash</text>
</a>
</g>
</g>
<!-- Node1&#45;&gt;Node5 -->
<g id="edge4" class="edge">
<title>Node1&#45;&gt;Node5</title>
<path fill="none" stroke="#63b8ff" d="M85.23,-83.62C97.5,-83.62 111.11,-83.62 124.11,-83.62"/>
<polygon fill="#63b8ff" stroke="#63b8ff" points="123.84,-87.13 133.84,-83.62 123.84,-80.13 123.84,-87.13"/>
</g>
<!-- Node6 -->
<g id="node6" class="node">
<title>Node6</title>
<g id="a_node6"><a xlink:href="group__Hash.html#ga21b0412f8de5402ca9424fb129f51d5f" target="_top" xlink:title="Compute SHA256 hash, updating hash value at every invocation.">
<polygon fill="white" stroke="#666666" points="241.25,-56.25 121,-56.25 121,-37 241.25,-37 241.25,-56.25"/>
<text text-anchor="middle" x="181.12" y="-42.75" font-family="Helvetica,sans-Serif" font-size="10.00">sha256::sha256_stream</text>
</a>
</g>
</g>
<!-- Node1&#45;&gt;Node6 -->
<g id="edge7" class="edge">
<title>Node1&#45;&gt;Node6</title>
<path fill="none" stroke="#63b8ff" d="M80.83,-73.51C96.8,-69.19 115.63,-64.09 132.57,-59.5"/>
<polygon fill="#63b8ff" stroke="#63b8ff" points="133.1,-62.72 141.84,-56.72 131.27,-55.96 133.1,-62.72"/>
</g>
<!-- Node9 -->
<g id="node9" class="node">
<title>Node9</title>
<g id="a_node9"><a xlink:href="group__Hash.html#ga3175ec2f1104e9fd94349074ddc9d7d1" target="_top" xlink:title="Convert hash value to little endian.">
<polygon fill="white" stroke="#666666" points="223.62,-19.25 138.62,-19.25 138.62,0 223.62,0 223.62,-19.25"/>
<text text-anchor="middle" x="181.12" y="-5.75" font-family="Helvetica,sans-Serif" font-size="10.00">sha256::to_little</text>
</a>
</g>
</g>
<!-- Node1&#45;&gt;Node9 -->
<g id="edge10" class="edge">
<title>Node1&#45;&gt;Node9</title>
<path fill="none" stroke="#63b8ff" d="M54.8,-73.59C69.23,-61.23 95.42,-40.32 121,-27.62 124.08,-26.1 127.31,-24.67 130.61,-23.35"/>
<polygon fill="#63b8ff" stroke="#63b8ff" points="131.44,-26.4 139.62,-19.66 129.03,-19.83 131.44,-26.4"/>
</g>
<!-- Node2&#45;&gt;Node3 -->
<g id="edge2" class="edge">
<title>Node2&#45;&gt;Node3</title>
<path fill="none" stroke="#63b8ff" d="M217.88,-130.44C234.75,-135.07 255.03,-140.64 272.84,-145.53"/>
<polygon fill="#63b8ff" stroke="#63b8ff" points="271.7,-149.13 282.27,-148.4 273.55,-142.37 271.7,-149.13"/>
</g>
<!-- Node4 -->
<g id="node4" class="node">
<title>Node4</title>
<g id="a_node4"><a xlink:href="group__Hash__Utility.html#gac77df34e18fbd8a9ae82a50cf65d6cf4" target="_top" xlink:title="Convert number from little endian to big endian.">
<polygon fill="white" stroke="#666666" points="355.88,-130.25 279.88,-130.25 279.88,-111 355.88,-111 355.88,-130.25"/>
<text text-anchor="middle" x="317.88" y="-116.75" font-family="Helvetica,sans-Serif" font-size="10.00">to_big_endian</text>
</a>
</g>
</g>
<!-- Node2&#45;&gt;Node4 -->
<g id="edge3" class="edge">
<title>Node2&#45;&gt;Node4</title>
<path fill="none" stroke="#63b8ff" d="M217.88,-120.62C233.49,-120.62 252.02,-120.62 268.81,-120.62"/>
<polygon fill="#63b8ff" stroke="#63b8ff" points="268.54,-124.13 278.54,-120.62 268.54,-117.13 268.54,-124.13"/>
</g>
<!-- Node7 -->
<g id="node7" class="node">
<title>Node7</title>
<g id="a_node7"><a xlink:href="group__Hash__Utility.html#ga78ae03271cd4536e0d22219cf9ce294a" target="_top" xlink:title="Left shift of unsigned 8 bit int and conversion to 32 bit.">
<polygon fill="white" stroke="#666666" points="336.38,-93.25 299.38,-93.25 299.38,-74 336.38,-74 336.38,-93.25"/>
<text text-anchor="middle" x="317.88" y="-79.75" font-family="Helvetica,sans-Serif" font-size="10.00">lshift</text>
</a>
</g>
</g>
<!-- Node6&#45;&gt;Node7 -->
<g id="edge8" class="edge">
<title>Node6&#45;&gt;Node7</title>
<path fill="none" stroke="#63b8ff" d="M218.95,-56.74C240.91,-62.77 268.36,-70.3 288.61,-75.86"/>
<polygon fill="#63b8ff" stroke="#63b8ff" points="287.46,-79.45 298.03,-78.73 289.32,-72.7 287.46,-79.45"/>
</g>
<!-- Node8 -->
<g id="node8" class="node">
<title>Node8</title>
<g id="a_node8"><a xlink:href="group__Hash__Utility.html#gaec0ea9d7fd1557b10a283c3b3b474889" target="_top" xlink:title="Right rotate bits of 32 bit integer numbers.">
<polygon fill="white" stroke="#666666" points="350.25,-56.25 285.5,-56.25 285.5,-37 350.25,-37 350.25,-56.25"/>
<text text-anchor="middle" x="317.88" y="-42.75" font-family="Helvetica,sans-Serif" font-size="10.00">right_rotate</text>
</a>
</g>
</g>
<!-- Node6&#45;&gt;Node8 -->
<g id="edge9" class="edge">
<title>Node6&#45;&gt;Node8</title>
<path fill="none" stroke="#63b8ff" d="M241.62,-46.62C252.6,-46.62 263.86,-46.62 274.21,-46.62"/>
<polygon fill="#63b8ff" stroke="#63b8ff" points="274.04,-50.13 284.04,-46.62 274.04,-43.13 274.04,-50.13"/>
</g>
<!-- Node10 -->
<g id="node10" class="node">
<title>Node10</title>
<g id="a_node10"><a xlink:href="group__Hash__Utility.html#gaaea301b59a68d5bb6ea05216b80fa47c" target="_top" xlink:title="Convert from big endian to little endian.">
<polygon fill="white" stroke="#666666" points="358.5,-19.25 277.25,-19.25 277.25,0 358.5,0 358.5,-19.25"/>
<text text-anchor="middle" x="317.88" y="-5.75" font-family="Helvetica,sans-Serif" font-size="10.00">to_little_endian</text>
</a>
</g>
</g>
<!-- Node9&#45;&gt;Node10 -->
<g id="edge11" class="edge">
<title>Node9&#45;&gt;Node10</title>
<path fill="none" stroke="#63b8ff" d="M224.02,-9.62C237.31,-9.62 252.15,-9.62 266,-9.62"/>
<polygon fill="#63b8ff" stroke="#63b8ff" points="265.85,-13.13 275.85,-9.62 265.85,-6.13 265.85,-13.13"/>
</g>
</g>
</svg>
