<?xml version="1.0" encoding="UTF-8" standalone="no"?>
<!DOCTYPE svg PUBLIC "-//W3C//DTD SVG 1.1//EN"
 "http://www.w3.org/Graphics/SVG/1.1/DTD/svg11.dtd">
<!-- Generated by graphviz version 8.0.5 (20230430.1635)
 -->
<!-- Title: sss::SignedURL Pages: 1 -->
<svg width="258pt" height="249pt"
 viewBox="0.00 0.00 257.50 249.25" xmlns="http://www.w3.org/2000/svg" xmlns:xlink="http://www.w3.org/1999/xlink">
<g id="graph0" class="graph" transform="scale(1 1) rotate(0) translate(4 245.25)">
<title>sss::SignedURL</title>
<!-- Node1 -->
<g id="node1" class="node">
<title>Node1</title>
<g id="a_node1"><a xlink:title="Generate presigned URL.">
<polygon fill="#999999" stroke="#666666" points="88,-130.25 0,-130.25 0,-111 88,-111 88,-130.25"/>
<text text-anchor="middle" x="44" y="-116.75" font-family="Helvetica,sans-Serif" font-size="10.00">sss::SignedURL</text>
</a>
</g>
</g>
<!-- Node2 -->
<g id="node2" class="node">
<title>Node2</title>
<g id="a_node2"><a xlink:href="group__Ranges.html#ga0aa7f3b15d2ebf9b597a1b5ba38ae8ac" target="_top" xlink:title="return iterator at start position">
<polygon fill="white" stroke="#666666" points="217.25,-241.25 156.25,-241.25 156.25,-222 217.25,-222 217.25,-241.25"/>
<text text-anchor="middle" x="186.75" y="-227.75" font-family="Helvetica,sans-Serif" font-size="10.00">sss::begin</text>
</a>
</g>
</g>
<!-- Node1&#45;&gt;Node2 -->
<g id="edge1" class="edge">
<title>Node1&#45;&gt;Node2</title>
<path fill="none" stroke="#63b8ff" d="M50.76,-130.71C62.21,-149.82 89.69,-191.39 124,-213.62 130.5,-217.84 138,-221.09 145.5,-223.59"/>
<polygon fill="#63b8ff" stroke="#63b8ff" points="144.39,-227.2 154.97,-226.65 146.35,-220.48 144.39,-227.2"/>
</g>
<!-- Node3 -->
<g id="node3" class="node">
<title>Node3</title>
<g id="a_node3"><a xlink:href="group__Internal.html#ga74c69f25ce04876e114759c0023b2a12" target="_top" xlink:title=" ">
<polygon fill="white" stroke="#666666" points="249.5,-204.25 124,-204.25 124,-185 249.5,-185 249.5,-204.25"/>
<text text-anchor="middle" x="186.75" y="-190.75" font-family="Helvetica,sans-Serif" font-size="10.00">sss::CreateSignatureKey</text>
</a>
</g>
</g>
<!-- Node1&#45;&gt;Node3 -->
<g id="edge2" class="edge">
<title>Node1&#45;&gt;Node3</title>
<path fill="none" stroke="#63b8ff" d="M56.53,-130.69C71.25,-143.09 97.96,-164.04 124,-176.62 127.17,-178.16 130.49,-179.58 133.88,-180.91"/>
<polygon fill="#63b8ff" stroke="#63b8ff" points="132.58,-184.52 143.18,-184.58 134.94,-177.92 132.58,-184.52"/>
</g>
<!-- Node4 -->
<g id="node4" class="node">
<title>Node4</title>
<g id="a_node4"><a xlink:href="group__Ranges.html#ga4f73053571587e79eb3db628f5e6ef99" target="_top" xlink:title="return iterator at end position">
<polygon fill="white" stroke="#666666" points="213.5,-167.25 160,-167.25 160,-148 213.5,-148 213.5,-167.25"/>
<text text-anchor="middle" x="186.75" y="-153.75" font-family="Helvetica,sans-Serif" font-size="10.00">sss::end</text>
</a>
</g>
</g>
<!-- Node1&#45;&gt;Node4 -->
<g id="edge3" class="edge">
<title>Node1&#45;&gt;Node4</title>
<path fill="none" stroke="#63b8ff" d="M83.46,-130.74C104.02,-136.14 129.19,-142.76 149.42,-148.07"/>
<polygon fill="#63b8ff" stroke="#63b8ff" points="148.23,-151.64 158.79,-150.8 150.01,-144.87 148.23,-151.64"/>
</g>
<!-- Node5 -->
<g id="node5" class="node">
<title>Node5</title>
<g id="a_node5"><a xlink:href="group__Internal.html#ga50353a351a93b1213dc4e5211c767d85" target="_top" xlink:title=" ">
<polygon fill="white" stroke="#666666" points="226.62,-130.25 146.88,-130.25 146.88,-111 226.62,-111 226.62,-130.25"/>
<text text-anchor="middle" x="186.75" y="-116.75" font-family="Helvetica,sans-Serif" font-size="10.00">sss::GetDates</text>
</a>
</g>
</g>
<!-- Node1&#45;&gt;Node5 -->
<g id="edge4" class="edge">
<title>Node1&#45;&gt;Node5</title>
<path fill="none" stroke="#63b8ff" d="M88.38,-120.62C103.33,-120.62 120.19,-120.62 135.63,-120.62"/>
<polygon fill="#63b8ff" stroke="#63b8ff" points="135.58,-124.13 145.58,-120.62 135.58,-117.13 135.58,-124.13"/>
</g>
<!-- Node6 -->
<g id="node6" class="node">
<title>Node6</title>
<g id="a_node6"><a xlink:href="group__Internal.html#ga990dfaae4abc6bf20a28f9772b7bcd16" target="_top" xlink:title="Byte to hex string conversion.">
<polygon fill="white" stroke="#666666" points="214.62,-93.25 158.88,-93.25 158.88,-74 214.62,-74 214.62,-93.25"/>
<text text-anchor="middle" x="186.75" y="-79.75" font-family="Helvetica,sans-Serif" font-size="10.00">sss::Hex</text>
</a>
</g>
</g>
<!-- Node1&#45;&gt;Node6 -->
<g id="edge5" class="edge">
<title>Node1&#45;&gt;Node6</title>
<path fill="none" stroke="#63b8ff" d="M83.46,-110.51C103.51,-105.24 127.95,-98.82 147.91,-93.57"/>
<polygon fill="#63b8ff" stroke="#63b8ff" points="148.71,-96.72 157.49,-90.79 146.93,-89.95 148.71,-96.72"/>
</g>
<!-- Node7 -->
<g id="node7" class="node">
<title>Node7</title>
<g id="a_node7"><a xlink:href="group__Internal.html#ga7160aa316f2c6633467b47588263c690" target="_top" xlink:title=" ">
<polygon fill="white" stroke="#666666" points="228.5,-56.25 145,-56.25 145,-37 228.5,-37 228.5,-56.25"/>
<text text-anchor="middle" x="186.75" y="-42.75" font-family="Helvetica,sans-Serif" font-size="10.00">sss::ParseURL</text>
</a>
</g>
</g>
<!-- Node1&#45;&gt;Node7 -->
<g id="edge6" class="edge">
<title>Node1&#45;&gt;Node7</title>
<path fill="none" stroke="#63b8ff" d="M56.53,-110.56C71.25,-98.16 97.96,-77.21 124,-64.62 127.32,-63.02 130.81,-61.53 134.37,-60.15"/>
<polygon fill="#63b8ff" stroke="#63b8ff" points="135.25,-63.2 143.51,-56.57 132.91,-56.6 135.25,-63.2"/>
</g>
<!-- Node8 -->
<g id="node8" class="node">
<title>Node8</title>
<g id="a_node8"><a xlink:href="group__Internal.html#ga0f079ace8729714b3949eabe22f228c9" target="_top" xlink:title=" ">
<polygon fill="white" stroke="#666666" points="228.5,-19.25 145,-19.25 145,0 228.5,0 228.5,-19.25"/>
<text text-anchor="middle" x="186.75" y="-5.75" font-family="Helvetica,sans-Serif" font-size="10.00">sss::UrlEncode</text>
</a>
</g>
</g>
<!-- Node1&#45;&gt;Node8 -->
<g id="edge7" class="edge">
<title>Node1&#45;&gt;Node8</title>
<path fill="none" stroke="#63b8ff" d="M50.76,-110.54C62.21,-91.43 89.69,-49.86 124,-27.62 127.34,-25.46 130.94,-23.55 134.67,-21.87"/>
<polygon fill="#63b8ff" stroke="#63b8ff" points="135.71,-24.83 143.74,-17.92 133.15,-18.31 135.71,-24.83"/>
</g>
</g>
</svg>
