<?xml version="1.0" encoding="UTF-8" standalone="no"?>
<!DOCTYPE svg PUBLIC "-//W3C//DTD SVG 1.1//EN"
 "http://www.w3.org/Graphics/SVG/1.1/DTD/svg11.dtd">
<!-- Generated by graphviz version 8.0.5 (20230430.1635)
 -->
<!-- Title: sha256::sha256 Pages: 1 -->
<svg width="185pt" height="45pt"
 viewBox="0.00 0.00 184.75 45.25" xmlns="http://www.w3.org/2000/svg" xmlns:xlink="http://www.w3.org/1999/xlink">
<g id="graph0" class="graph" transform="scale(1 1) rotate(0) translate(4 41.25)">
<title>sha256::sha256</title>
<!-- Node1 -->
<g id="node1" class="node">
<title>Node1</title>
<g id="a_node1"><a xlink:title="Return SHA256 hash.">
<polygon fill="#999999" stroke="#666666" points="176.75,-19.25 91.75,-19.25 91.75,0 176.75,0 176.75,-19.25"/>
<text text-anchor="middle" x="134.25" y="-5.75" font-family="Helvetica,sans-Serif" font-size="10.00">sha256::sha256</text>
</a>
</g>
</g>
<!-- Node1&#45;&gt;Node1 -->
<g id="edge2" class="edge">
<title>Node1&#45;&gt;Node1</title>
<path fill="none" stroke="#63b8ff" d="M153.5,-29.98C151.48,-34.21 145.06,-37.25 134.25,-37.25 115.55,-37.25 110,-28.15 117.6,-19.54"/>
<polygon fill="#63b8ff" stroke="#63b8ff" points="156.71,-29.4 150.9,-20.54 149.92,-31.09 156.71,-29.4"/>
</g>
<!-- Node2 -->
<g id="node2" class="node">
<title>Node2</title>
<g id="a_node2"><a xlink:href="group__Hash.html#gad5c9477541172455b23067794ea866c0" target="_top" xlink:title="Implement HMAC algorithm.">
<polygon fill="white" stroke="#666666" points="55.75,-19.25 0,-19.25 0,0 55.75,0 55.75,-19.25"/>
<text text-anchor="middle" x="27.88" y="-5.75" font-family="Helvetica,sans-Serif" font-size="10.00">hmac256</text>
</a>
</g>
</g>
<!-- Node1&#45;&gt;Node2 -->
<g id="edge1" class="edge">
<title>Node1&#45;&gt;Node2</title>
<path fill="none" stroke="#63b8ff" d="M80.66,-9.62C72.14,-9.62 63.63,-9.62 56.04,-9.62"/>
<polygon fill="#63b8ff" stroke="#63b8ff" points="80.4,-13.13 90.4,-9.62 80.4,-6.13 80.4,-13.13"/>
</g>
</g>
</svg>
