<?xml version="1.0" encoding="UTF-8" standalone="no"?>
<!DOCTYPE svg PUBLIC "-//W3C//DTD SVG 1.1//EN"
 "http://www.w3.org/Graphics/SVG/1.1/DTD/svg11.dtd">
<!-- Generated by graphviz version 8.0.5 (20230430.1635)
 -->
<!-- Title: sss::ParseURL Pages: 1 -->
<svg width="530pt" height="120pt"
 viewBox="0.00 0.00 529.50 120.25" xmlns="http://www.w3.org/2000/svg" xmlns:xlink="http://www.w3.org/1999/xlink">
<g id="graph0" class="graph" transform="scale(1 1) rotate(0) translate(4 116.25)">
<title>sss::ParseURL</title>
<!-- Node1 -->
<g id="node1" class="node">
<title>Node1</title>
<g id="a_node1"><a xlink:title=" ">
<polygon fill="#999999" stroke="#666666" points="521.5,-56.25 438,-56.25 438,-37 521.5,-37 521.5,-56.25"/>
<text text-anchor="middle" x="479.75" y="-42.75" font-family="Helvetica,sans-Serif" font-size="10.00">sss::ParseURL</text>
</a>
</g>
</g>
<!-- Node2 -->
<g id="node2" class="node">
<title>Node2</title>
<g id="a_node2"><a xlink:href="group__Sign.html#ga904d511ec786b87644cc90dc96dd8f3f" target="_top" xlink:title="Compute signature.">
<polygon fill="white" stroke="#666666" points="402,-93.25 283.25,-93.25 283.25,-74 402,-74 402,-93.25"/>
<text text-anchor="middle" x="342.62" y="-79.75" font-family="Helvetica,sans-Serif" font-size="10.00">sss::ComputeSignature</text>
</a>
</g>
</g>
<!-- Node1&#45;&gt;Node2 -->
<g id="edge1" class="edge">
<title>Node1&#45;&gt;Node2</title>
<path fill="none" stroke="#63b8ff" d="M431.67,-59.52C414.91,-64.11 396.29,-69.2 380.5,-73.53"/>
<polygon fill="#63b8ff" stroke="#63b8ff" points="432.11,-62.75 440.83,-56.74 430.26,-56 432.11,-62.75"/>
</g>
<!-- Node6 -->
<g id="node6" class="node">
<title>Node6</title>
<g id="a_node6"><a xlink:href="group__Sign.html#gaaeb7f183b807aa05237023d855841246" target="_top" xlink:title="Generate presigned URL.">
<polygon fill="white" stroke="#666666" points="386.62,-56.25 298.62,-56.25 298.62,-37 386.62,-37 386.62,-56.25"/>
<text text-anchor="middle" x="342.62" y="-42.75" font-family="Helvetica,sans-Serif" font-size="10.00">sss::SignedURL</text>
</a>
</g>
</g>
<!-- Node1&#45;&gt;Node6 -->
<g id="edge5" class="edge">
<title>Node1&#45;&gt;Node6</title>
<path fill="none" stroke="#63b8ff" d="M426.94,-46.62C413.66,-46.62 399.53,-46.62 386.74,-46.62"/>
<polygon fill="#63b8ff" stroke="#63b8ff" points="426.84,-50.13 436.84,-46.62 426.84,-43.13 426.84,-50.13"/>
</g>
<!-- Node7 -->
<g id="node7" class="node">
<title>Node7</title>
<g id="a_node7"><a xlink:href="group__S3Client.html#gad8bcfb380e91093fec44517e1eddc939" target="_top" xlink:title="Validate S3 client request parameters.">
<polygon fill="white" stroke="#666666" points="378.75,-19.25 306.5,-19.25 306.5,0 378.75,0 378.75,-19.25"/>
<text text-anchor="middle" x="342.62" y="-5.75" font-family="Helvetica,sans-Serif" font-size="10.00">sss::Validate</text>
</a>
</g>
</g>
<!-- Node1&#45;&gt;Node7 -->
<g id="edge6" class="edge">
<title>Node1&#45;&gt;Node7</title>
<path fill="none" stroke="#63b8ff" d="M431.41,-33.66C414.22,-28.96 395.1,-23.72 379.11,-19.34"/>
<polygon fill="#63b8ff" stroke="#63b8ff" points="430.26,-37.25 440.83,-36.51 432.11,-30.5 430.26,-37.25"/>
</g>
<!-- Node3 -->
<g id="node3" class="node">
<title>Node3</title>
<g id="a_node3"><a xlink:href="group__Sign.html#ga3ae8e18ef70752b7369fca66c40c526b" target="_top" xlink:title="Sign headers.">
<polygon fill="white" stroke="#666666" points="247.25,-93.25 153.25,-93.25 153.25,-74 247.25,-74 247.25,-93.25"/>
<text text-anchor="middle" x="200.25" y="-79.75" font-family="Helvetica,sans-Serif" font-size="10.00">sss::SignHeaders</text>
</a>
</g>
</g>
<!-- Node2&#45;&gt;Node3 -->
<g id="edge2" class="edge">
<title>Node2&#45;&gt;Node3</title>
<path fill="none" stroke="#63b8ff" d="M271.97,-83.62C263.62,-83.62 255.25,-83.62 247.35,-83.62"/>
<polygon fill="#63b8ff" stroke="#63b8ff" points="271.91,-87.13 281.91,-83.62 271.91,-80.13 271.91,-87.13"/>
</g>
<!-- Node4 -->
<g id="node4" class="node">
<title>Node4</title>
<g id="a_node4"><a xlink:href="classsss_1_1api_1_1S3Api.html#a88b3eb551e57106ed171d9079de6afb4" target="_top" xlink:title="[WebClient::Config]">
<polygon fill="white" stroke="#666666" points="117.25,-112.25 0,-112.25 0,-93 117.25,-93 117.25,-112.25"/>
<text text-anchor="middle" x="58.62" y="-98.75" font-family="Helvetica,sans-Serif" font-size="10.00">sss::api::S3Api::Config</text>
</a>
</g>
</g>
<!-- Node3&#45;&gt;Node4 -->
<g id="edge3" class="edge">
<title>Node3&#45;&gt;Node4</title>
<path fill="none" stroke="#63b8ff" d="M141.97,-91.42C133.92,-92.51 125.65,-93.64 117.59,-94.74"/>
<polygon fill="#63b8ff" stroke="#63b8ff" points="142.32,-94.77 151.76,-89.95 141.38,-87.83 142.32,-94.77"/>
</g>
<!-- Node5 -->
<g id="node5" class="node">
<title>Node5</title>
<g id="a_node5"><a xlink:href="group__S3Client.html#ga5a769be8fbc874bad858ea95743e5643" target="_top" xlink:title="Send S3 request to endpoint.">
<polygon fill="white" stroke="#666666" points="113.12,-75.25 4.12,-75.25 4.12,-56 113.12,-56 113.12,-75.25"/>
<text text-anchor="middle" x="58.62" y="-61.75" font-family="Helvetica,sans-Serif" font-size="10.00">sss::SendS3Request</text>
</a>
</g>
</g>
<!-- Node3&#45;&gt;Node5 -->
<g id="edge4" class="edge">
<title>Node3&#45;&gt;Node5</title>
<path fill="none" stroke="#63b8ff" d="M142.12,-76.26C132.55,-75.03 122.64,-73.75 113.16,-72.53"/>
<polygon fill="#63b8ff" stroke="#63b8ff" points="141.39,-79.82 151.76,-77.63 142.29,-72.88 141.39,-79.82"/>
</g>
</g>
</svg>
