<?xml version="1.0" encoding="UTF-8" standalone="no"?>
<!DOCTYPE svg PUBLIC "-//W3C//DTD SVG 1.1//EN"
 "http://www.w3.org/Graphics/SVG/1.1/DTD/svg11.dtd">
<!-- Generated by graphviz version 8.0.5 (20230430.1635)
 -->
<!-- Title: sha256::sha256_next Pages: 1 -->
<svg width="385pt" height="138pt"
 viewBox="0.00 0.00 385.25 138.25" xmlns="http://www.w3.org/2000/svg" xmlns:xlink="http://www.w3.org/1999/xlink">
<g id="graph0" class="graph" transform="scale(1 1) rotate(0) translate(4 134.25)">
<title>sha256::sha256_next</title>
<!-- Node1 -->
<g id="node1" class="node">
<title>Node1</title>
<g id="a_node1"><a xlink:title="Compute SHA256 hash of chunks of data, using preallocated temporary buffer to store padded data.">
<polygon fill="#999999" stroke="#666666" points="109,-74.25 0,-74.25 0,-55 109,-55 109,-74.25"/>
<text text-anchor="middle" x="54.5" y="-60.75" font-family="Helvetica,sans-Serif" font-size="10.00">sha256::sha256_next</text>
</a>
</g>
</g>
<!-- Node2 -->
<g id="node2" class="node">
<title>Node2</title>
<g id="a_node2"><a xlink:href="group__Hash__Utility.html#ga2343e55717412f96eec191b9fddb7e29" target="_top" xlink:title="Allocate buffer of correct size for computing hash code.">
<polygon fill="white" stroke="#666666" points="241.62,-93.25 168.62,-93.25 168.62,-74 241.62,-74 241.62,-93.25"/>
<text text-anchor="middle" x="205.12" y="-79.75" font-family="Helvetica,sans-Serif" font-size="10.00">alloc_padded</text>
</a>
</g>
</g>
<!-- Node1&#45;&gt;Node2 -->
<g id="edge1" class="edge">
<title>Node1&#45;&gt;Node2</title>
<path fill="none" stroke="#63b8ff" d="M109.16,-71.48C124.95,-73.5 142.09,-75.69 157.41,-77.65"/>
<polygon fill="#63b8ff" stroke="#63b8ff" points="156.83,-81.24 167.19,-79.03 157.72,-74.29 156.83,-81.24"/>
</g>
<!-- Node5 -->
<g id="node5" class="node">
<title>Node5</title>
<g id="a_node5"><a xlink:href="group__Hash.html#ga21b0412f8de5402ca9424fb129f51d5f" target="_top" xlink:title="Compute SHA256 hash, updating hash value at every invocation.">
<polygon fill="white" stroke="#666666" points="265.25,-56.25 145,-56.25 145,-37 265.25,-37 265.25,-56.25"/>
<text text-anchor="middle" x="205.12" y="-42.75" font-family="Helvetica,sans-Serif" font-size="10.00">sha256::sha256_stream</text>
</a>
</g>
</g>
<!-- Node1&#45;&gt;Node5 -->
<g id="edge4" class="edge">
<title>Node1&#45;&gt;Node5</title>
<path fill="none" stroke="#63b8ff" d="M109.16,-58.13C117.14,-57.16 125.46,-56.15 133.72,-55.15"/>
<polygon fill="#63b8ff" stroke="#63b8ff" points="134,-58.52 143.5,-53.85 133.15,-51.57 134,-58.52"/>
</g>
<!-- Node3 -->
<g id="node3" class="node">
<title>Node3</title>
<g id="a_node3"><a xlink:href="group__Hash__Utility.html#ga2f56d7c5d4d0a61f36bdafd0abd32191" target="_top" xlink:title="Return next number evenly divisible by specified number.">
<polygon fill="white" stroke="#666666" points="373.5,-130.25 305,-130.25 305,-111 373.5,-111 373.5,-130.25"/>
<text text-anchor="middle" x="339.25" y="-116.75" font-family="Helvetica,sans-Serif" font-size="10.00">next_div_by</text>
</a>
</g>
</g>
<!-- Node2&#45;&gt;Node3 -->
<g id="edge2" class="edge">
<title>Node2&#45;&gt;Node3</title>
<path fill="none" stroke="#63b8ff" d="M241.88,-93.64C258.08,-98.17 277.39,-103.58 294.45,-108.36"/>
<polygon fill="#63b8ff" stroke="#63b8ff" points="293.17,-111.91 303.74,-111.24 295.05,-105.17 293.17,-111.91"/>
</g>
<!-- Node4 -->
<g id="node4" class="node">
<title>Node4</title>
<g id="a_node4"><a xlink:href="group__Hash__Utility.html#gac77df34e18fbd8a9ae82a50cf65d6cf4" target="_top" xlink:title="Convert number from little endian to big endian.">
<polygon fill="white" stroke="#666666" points="377.25,-93.25 301.25,-93.25 301.25,-74 377.25,-74 377.25,-93.25"/>
<text text-anchor="middle" x="339.25" y="-79.75" font-family="Helvetica,sans-Serif" font-size="10.00">to_big_endian</text>
</a>
</g>
</g>
<!-- Node2&#45;&gt;Node4 -->
<g id="edge3" class="edge">
<title>Node2&#45;&gt;Node4</title>
<path fill="none" stroke="#63b8ff" d="M241.88,-83.62C256.78,-83.62 274.31,-83.62 290.31,-83.62"/>
<polygon fill="#63b8ff" stroke="#63b8ff" points="290.08,-87.13 300.08,-83.62 290.08,-80.13 290.08,-87.13"/>
</g>
<!-- Node6 -->
<g id="node6" class="node">
<title>Node6</title>
<g id="a_node6"><a xlink:href="group__Hash__Utility.html#ga78ae03271cd4536e0d22219cf9ce294a" target="_top" xlink:title="Left shift of unsigned 8 bit int and conversion to 32 bit.">
<polygon fill="white" stroke="#666666" points="357.75,-56.25 320.75,-56.25 320.75,-37 357.75,-37 357.75,-56.25"/>
<text text-anchor="middle" x="339.25" y="-42.75" font-family="Helvetica,sans-Serif" font-size="10.00">lshift</text>
</a>
</g>
</g>
<!-- Node5&#45;&gt;Node6 -->
<g id="edge5" class="edge">
<title>Node5&#45;&gt;Node6</title>
<path fill="none" stroke="#63b8ff" d="M265.62,-46.62C280.82,-46.62 296.5,-46.62 309.38,-46.62"/>
<polygon fill="#63b8ff" stroke="#63b8ff" points="309.33,-50.13 319.33,-46.62 309.33,-43.13 309.33,-50.13"/>
</g>
<!-- Node7 -->
<g id="node7" class="node">
<title>Node7</title>
<g id="a_node7"><a xlink:href="group__Hash__Utility.html#gaec0ea9d7fd1557b10a283c3b3b474889" target="_top" xlink:title="Right rotate bits of 32 bit integer numbers.">
<polygon fill="white" stroke="#666666" points="371.62,-19.25 306.88,-19.25 306.88,0 371.62,0 371.62,-19.25"/>
<text text-anchor="middle" x="339.25" y="-5.75" font-family="Helvetica,sans-Serif" font-size="10.00">right_rotate</text>
</a>
</g>
</g>
<!-- Node5&#45;&gt;Node7 -->
<g id="edge6" class="edge">
<title>Node5&#45;&gt;Node7</title>
<path fill="none" stroke="#63b8ff" d="M242.23,-36.51C258.93,-31.84 278.88,-26.25 296.25,-21.39"/>
<polygon fill="#63b8ff" stroke="#63b8ff" points="297,-24.53 305.69,-18.46 295.11,-17.79 297,-24.53"/>
</g>
</g>
</svg>
