<?xml version="1.0" encoding="UTF-8" standalone="no"?>
<!DOCTYPE svg PUBLIC "-//W3C//DTD SVG 1.1//EN"
 "http://www.w3.org/Graphics/SVG/1.1/DTD/svg11.dtd">
<!-- Generated by graphviz version 8.0.5 (20230430.1635)
 -->
<!-- Title: alloc_padded Pages: 1 -->
<svg width="318pt" height="98pt"
 viewBox="0.00 0.00 317.75 98.09" xmlns="http://www.w3.org/2000/svg" xmlns:xlink="http://www.w3.org/1999/xlink">
<g id="graph0" class="graph" transform="scale(1 1) rotate(0) translate(4 94.09)">
<title>alloc_padded</title>
<!-- Node1 -->
<g id="node1" class="node">
<title>Node1</title>
<g id="a_node1"><a xlink:title="Allocate buffer of correct size for computing hash code.">
<polygon fill="#999999" stroke="#666666" points="309.75,-56.25 236.75,-56.25 236.75,-37 309.75,-37 309.75,-56.25"/>
<text text-anchor="middle" x="273.25" y="-42.75" font-family="Helvetica,sans-Serif" font-size="10.00">alloc_padded</text>
</a>
</g>
</g>
<!-- Node2 -->
<g id="node2" class="node">
<title>Node2</title>
<g id="a_node2"><a xlink:href="group__Hash.html#gad5c9477541172455b23067794ea866c0" target="_top" xlink:title="Implement HMAC algorithm.">
<polygon fill="white" stroke="#666666" points="55.75,-84.25 0,-84.25 0,-65 55.75,-65 55.75,-84.25"/>
<text text-anchor="middle" x="27.88" y="-70.75" font-family="Helvetica,sans-Serif" font-size="10.00">hmac256</text>
</a>
</g>
</g>
<!-- Node1&#45;&gt;Node2 -->
<g id="edge1" class="edge">
<title>Node1&#45;&gt;Node2</title>
<path fill="none" stroke="#63b8ff" d="M249.01,-62.27C235.54,-70.38 217.91,-79.45 200.75,-83.62 150.81,-95.78 90.39,-87.54 56.12,-80.82"/>
<polygon fill="#63b8ff" stroke="#63b8ff" points="250.4,-64.9 257.01,-56.62 246.68,-58.97 250.4,-64.9"/>
</g>
<!-- Node3 -->
<g id="node3" class="node">
<title>Node3</title>
<g id="a_node3"><a xlink:href="group__Hash.html#gac7fe13b785f5fd4903af4339ac88fbd3" target="_top" xlink:title="Return SHA256 hash.">
<polygon fill="white" stroke="#666666" points="188.75,-56.25 103.75,-56.25 103.75,-37 188.75,-37 188.75,-56.25"/>
<text text-anchor="middle" x="146.25" y="-42.75" font-family="Helvetica,sans-Serif" font-size="10.00">sha256::sha256</text>
</a>
</g>
</g>
<!-- Node1&#45;&gt;Node3 -->
<g id="edge2" class="edge">
<title>Node1&#45;&gt;Node3</title>
<path fill="none" stroke="#63b8ff" d="M225.63,-46.62C213.55,-46.62 200.62,-46.62 188.81,-46.62"/>
<polygon fill="#63b8ff" stroke="#63b8ff" points="225.43,-50.13 235.43,-46.62 225.43,-43.13 225.43,-50.13"/>
</g>
<!-- Node4 -->
<g id="node4" class="node">
<title>Node4</title>
<g id="a_node4"><a xlink:href="group__Hash.html#gaf988f7b1cc0bb03254347581a1b8d959" target="_top" xlink:title="Compute SHA256 hash of chunks of data, using preallocated temporary buffer to store padded data.">
<polygon fill="white" stroke="#666666" points="200.75,-19.25 91.75,-19.25 91.75,0 200.75,0 200.75,-19.25"/>
<text text-anchor="middle" x="146.25" y="-5.75" font-family="Helvetica,sans-Serif" font-size="10.00">sha256::sha256_next</text>
</a>
</g>
</g>
<!-- Node1&#45;&gt;Node4 -->
<g id="edge5" class="edge">
<title>Node1&#45;&gt;Node4</title>
<path fill="none" stroke="#63b8ff" d="M227.82,-33.47C212.54,-28.95 195.69,-23.96 181.37,-19.72"/>
<polygon fill="#63b8ff" stroke="#63b8ff" points="226.51,-37.03 237.09,-36.51 228.5,-30.32 226.51,-37.03"/>
</g>
<!-- Node3&#45;&gt;Node2 -->
<g id="edge3" class="edge">
<title>Node3&#45;&gt;Node2</title>
<path fill="none" stroke="#63b8ff" d="M93.01,-59.19C80.27,-62.26 67.14,-65.42 56.11,-68.07"/>
<polygon fill="#63b8ff" stroke="#63b8ff" points="93.66,-62.4 102.56,-56.65 92.02,-55.59 93.66,-62.4"/>
</g>
<!-- Node3&#45;&gt;Node3 -->
<g id="edge4" class="edge">
<title>Node3&#45;&gt;Node3</title>
<path fill="none" stroke="#63b8ff" d="M167.67,-66.98C165.42,-71.21 158.28,-74.25 146.25,-74.25 125.44,-74.25 119.26,-65.15 127.72,-56.54"/>
<polygon fill="#63b8ff" stroke="#63b8ff" points="170.82,-66.24 164.78,-57.54 164.07,-68.11 170.82,-66.24"/>
</g>
</g>
</svg>
