<?xml version="1.0" encoding="UTF-8" standalone="no"?>
<!DOCTYPE svg PUBLIC "-//W3C//DTD SVG 1.1//EN"
 "http://www.w3.org/Graphics/SVG/1.1/DTD/svg11.dtd">
<!-- Generated by graphviz version 8.0.5 (20230430.1635)
 -->
<!-- Title: /Users/ugovaretto/projects/s3client/repo/lib/hash/hmac256.cpp Pages: 1 -->
<svg width="305pt" height="216pt"
 viewBox="0.00 0.00 304.75 215.50" xmlns="http://www.w3.org/2000/svg" xmlns:xlink="http://www.w3.org/1999/xlink">
<g id="graph0" class="graph" transform="scale(1 1) rotate(0) translate(4 211.5)">
<title>/Users/ugovaretto/projects/s3client/repo/lib/hash/hmac256.cpp</title>
<!-- Node1 -->
<g id="node1" class="node">
<title>Node1</title>
<g id="a_node1"><a xlink:title="implementation of HMAC hashing algorithm.">
<polygon fill="#999999" stroke="#666666" points="186.88,-207.5 55.38,-207.5 55.38,-165.75 186.88,-165.75 186.88,-207.5"/>
<text text-anchor="start" x="63.38" y="-194" font-family="Helvetica,sans-Serif" font-size="10.00">/Users/ugovaretto/projects</text>
<text text-anchor="start" x="63.38" y="-182.75" font-family="Helvetica,sans-Serif" font-size="10.00">/s3client/repo/lib/hash</text>
<text text-anchor="middle" x="121.12" y="-171.5" font-family="Helvetica,sans-Serif" font-size="10.00">/hmac256.cpp</text>
</a>
</g>
</g>
<!-- Node2 -->
<g id="node2" class="node">
<title>Node2</title>
<g id="a_node2"><a xlink:href="sha256_8h.html" target="_top" xlink:title="declaration of SHA256 hash functions.">
<polygon fill="white" stroke="#666666" points="177,-129.75 121.25,-129.75 121.25,-110.5 177,-110.5 177,-129.75"/>
<text text-anchor="middle" x="149.12" y="-116.25" font-family="Helvetica,sans-Serif" font-size="10.00">sha256.h</text>
</a>
</g>
</g>
<!-- Node1&#45;&gt;Node2 -->
<g id="edge1" class="edge">
<title>Node1&#45;&gt;Node2</title>
<path fill="none" stroke="#63b8ff" d="M129.83,-165.57C133.36,-157.43 137.42,-148.08 140.9,-140.07"/>
<polygon fill="#63b8ff" stroke="#63b8ff" points="144.42,-141.76 145.19,-131.2 137.99,-138.97 144.42,-141.76"/>
</g>
<!-- Node3 -->
<g id="node3" class="node">
<title>Node3</title>
<g id="a_node3"><a xlink:href="lib_2hash_2utility_8h.html" target="_top" xlink:title="Declaration of utility functions for SHA256 hashing.">
<polygon fill="white" stroke="#666666" points="119.12,-74.5 73.12,-74.5 73.12,-55.25 119.12,-55.25 119.12,-74.5"/>
<text text-anchor="middle" x="96.12" y="-61" font-family="Helvetica,sans-Serif" font-size="10.00">utility.h</text>
</a>
</g>
</g>
<!-- Node1&#45;&gt;Node3 -->
<g id="edge8" class="edge">
<title>Node1&#45;&gt;Node3</title>
<path fill="none" stroke="#63b8ff" d="M116.88,-165.31C112.23,-143.02 104.81,-107.47 100.22,-85.47"/>
<polygon fill="#63b8ff" stroke="#63b8ff" points="103.46,-84.88 97.99,-75.81 96.61,-86.31 103.46,-84.88"/>
</g>
<!-- Node4 -->
<g id="node4" class="node">
<title>Node4</title>
<g id="a_node4"><a xlink:title=" ">
<polygon fill="#e0e0e0" stroke="#999999" points="118.75,-19.25 73.5,-19.25 73.5,0 118.75,0 118.75,-19.25"/>
<text text-anchor="middle" x="96.12" y="-5.75" font-family="Helvetica,sans-Serif" font-size="10.00">cstdint</text>
</a>
</g>
</g>
<!-- Node1&#45;&gt;Node4 -->
<g id="edge9" class="edge">
<title>Node1&#45;&gt;Node4</title>
<path fill="none" stroke="#63b8ff" d="M107.05,-165.49C93.01,-144.07 72.37,-108.64 64.12,-74.5 62.12,-66.18 61.51,-63.39 64.12,-55.25 67.35,-45.2 73.77,-35.5 80.02,-27.73"/>
<polygon fill="#63b8ff" stroke="#63b8ff" points="83.18,-30.43 87.07,-20.58 77.88,-25.85 83.18,-30.43"/>
</g>
<!-- Node5 -->
<g id="node5" class="node">
<title>Node5</title>
<g id="a_node5"><a xlink:title=" ">
<polygon fill="#e0e0e0" stroke="#999999" points="42.25,-19.25 0,-19.25 0,0 42.25,0 42.25,-19.25"/>
<text text-anchor="middle" x="21.12" y="-5.75" font-family="Helvetica,sans-Serif" font-size="10.00">cstdio</text>
</a>
</g>
</g>
<!-- Node1&#45;&gt;Node5 -->
<g id="edge10" class="edge">
<title>Node1&#45;&gt;Node5</title>
<path fill="none" stroke="#63b8ff" d="M101.08,-165.3C91.79,-155.18 81.08,-142.42 73.12,-129.75 52.5,-96.9 36.13,-54.46 27.6,-30.12"/>
<polygon fill="#63b8ff" stroke="#63b8ff" points="30.6,-29.08 24.06,-20.75 23.98,-31.34 30.6,-29.08"/>
</g>
<!-- Node6 -->
<g id="node6" class="node">
<title>Node6</title>
<g id="a_node6"><a xlink:title=" ">
<polygon fill="#e0e0e0" stroke="#999999" points="207.38,-19.25 162.88,-19.25 162.88,0 207.38,0 207.38,-19.25"/>
<text text-anchor="middle" x="185.12" y="-5.75" font-family="Helvetica,sans-Serif" font-size="10.00">cstdlib</text>
</a>
</g>
</g>
<!-- Node1&#45;&gt;Node6 -->
<g id="edge11" class="edge">
<title>Node1&#45;&gt;Node6</title>
<path fill="none" stroke="#63b8ff" d="M155.14,-165.32C167.27,-156.13 179.54,-144.09 186.12,-129.75 201.03,-97.28 195.37,-54.39 190.1,-29.93"/>
<polygon fill="#63b8ff" stroke="#63b8ff" points="193.35,-29.45 187.65,-20.53 186.54,-31.06 193.35,-29.45"/>
</g>
<!-- Node7 -->
<g id="node7" class="node">
<title>Node7</title>
<g id="a_node7"><a xlink:title=" ">
<polygon fill="#e0e0e0" stroke="#999999" points="296.75,-129.75 251.5,-129.75 251.5,-110.5 296.75,-110.5 296.75,-129.75"/>
<text text-anchor="middle" x="274.12" y="-116.25" font-family="Helvetica,sans-Serif" font-size="10.00">cstring</text>
</a>
</g>
</g>
<!-- Node1&#45;&gt;Node7 -->
<g id="edge12" class="edge">
<title>Node1&#45;&gt;Node7</title>
<path fill="none" stroke="#63b8ff" d="M169.12,-165.39C193.11,-155.28 221.46,-143.33 242.66,-134.39"/>
<polygon fill="#63b8ff" stroke="#63b8ff" points="243.88,-137.25 251.73,-130.14 241.16,-130.8 243.88,-137.25"/>
</g>
<!-- Node2&#45;&gt;Node3 -->
<g id="edge2" class="edge">
<title>Node2&#45;&gt;Node3</title>
<path fill="none" stroke="#63b8ff" d="M140.37,-110.33C132.9,-102.82 121.94,-91.81 112.8,-82.63"/>
<polygon fill="#63b8ff" stroke="#63b8ff" points="115.6,-80.48 106.07,-75.86 110.64,-85.42 115.6,-80.48"/>
</g>
<!-- Node2&#45;&gt;Node4 -->
<g id="edge6" class="edge">
<title>Node2&#45;&gt;Node4</title>
<path fill="none" stroke="#63b8ff" d="M147.08,-110.11C144.01,-97.42 137.53,-73.78 128.12,-55.25 123.29,-45.72 116.55,-35.98 110.5,-28.04"/>
<polygon fill="#63b8ff" stroke="#63b8ff" points="112.83,-26.33 103.88,-20.66 107.34,-30.68 112.83,-26.33"/>
</g>
<!-- Node2&#45;&gt;Node6 -->
<g id="edge7" class="edge">
<title>Node2&#45;&gt;Node6</title>
<path fill="none" stroke="#63b8ff" d="M152.07,-110.25C157.87,-92.76 170.89,-53.52 178.75,-29.84"/>
<polygon fill="#63b8ff" stroke="#63b8ff" points="182.31,-31.22 182.14,-20.63 175.67,-29.02 182.31,-31.22"/>
</g>
<!-- Node3&#45;&gt;Node4 -->
<g id="edge3" class="edge">
<title>Node3&#45;&gt;Node4</title>
<path fill="none" stroke="#63b8ff" d="M96.12,-55.08C96.12,-48.42 96.12,-38.99 96.12,-30.53"/>
<polygon fill="#63b8ff" stroke="#63b8ff" points="99.63,-30.61 96.12,-20.61 92.63,-30.61 99.63,-30.61"/>
</g>
<!-- Node3&#45;&gt;Node5 -->
<g id="edge4" class="edge">
<title>Node3&#45;&gt;Node5</title>
<path fill="none" stroke="#63b8ff" d="M83.4,-54.84C72.3,-46.96 55.97,-35.36 42.81,-26.02"/>
<polygon fill="#63b8ff" stroke="#63b8ff" points="45.09,-22.64 34.91,-19.7 41.04,-28.35 45.09,-22.64"/>
</g>
<!-- Node3&#45;&gt;Node6 -->
<g id="edge5" class="edge">
<title>Node3&#45;&gt;Node6</title>
<path fill="none" stroke="#63b8ff" d="M111.22,-54.84C124.78,-46.73 144.91,-34.68 160.75,-25.21"/>
<polygon fill="#63b8ff" stroke="#63b8ff" points="162.17,-27.84 168.95,-19.7 158.57,-21.83 162.17,-27.84"/>
</g>
</g>
</svg>
