<?xml version="1.0" encoding="UTF-8" standalone="no"?>
<!DOCTYPE svg PUBLIC "-//W3C//DTD SVG 1.1//EN"
 "http://www.w3.org/Graphics/SVG/1.1/DTD/svg11.dtd">
<!-- Generated by graphviz version 2.43.0 (0)
 -->
<!-- Title: /home/ugovaretto/projects/uv&#45;cpp/s3client/repo/lib/hash/hmac256.cpp Pages: 1 -->
<svg width="308pt" height="218pt"
 viewBox="0.00 0.00 307.50 218.00" xmlns="http://www.w3.org/2000/svg" xmlns:xlink="http://www.w3.org/1999/xlink">
<g id="graph0" class="graph" transform="scale(1 1) rotate(0) translate(4 214)">
<title>/home/ugovaretto/projects/uv&#45;cpp/s3client/repo/lib/hash/hmac256.cpp</title>
<!-- Node1 -->
<g id="node1" class="node">
<title>Node1</title>
<g id="a_node1"><a xlink:title="implementation of HMAC hashing algorithm.">
<polygon fill="#bfbfbf" stroke="black" points="58.5,-168.5 58.5,-209.5 188.5,-209.5 188.5,-168.5 58.5,-168.5"/>
<text text-anchor="start" x="66.5" y="-197.5" font-family="Helvetica,sans-Serif" font-size="10.00">/home/ugovaretto/projects</text>
<text text-anchor="start" x="66.5" y="-186.5" font-family="Helvetica,sans-Serif" font-size="10.00">/uv&#45;cpp/s3client/repo/lib</text>
<text text-anchor="middle" x="123.5" y="-175.5" font-family="Helvetica,sans-Serif" font-size="10.00">/hash/hmac256.cpp</text>
</a>
</g>
</g>
<!-- Node2 -->
<g id="node2" class="node">
<title>Node2</title>
<g id="a_node2"><a xlink:href="sha256_8h.html" target="_top" xlink:title="declaration of SHA256 hash functions.">
<polygon fill="none" stroke="black" points="123.5,-112.5 123.5,-131.5 179.5,-131.5 179.5,-112.5 123.5,-112.5"/>
<text text-anchor="middle" x="151.5" y="-119.5" font-family="Helvetica,sans-Serif" font-size="10.00">sha256.h</text>
</a>
</g>
</g>
<!-- Node1&#45;&gt;Node2 -->
<g id="edge1" class="edge">
<title>Node1&#45;&gt;Node2</title>
<path fill="none" stroke="midnightblue" d="M131.9,-168.5C135.66,-159.78 140.06,-149.56 143.74,-141.02"/>
<polygon fill="midnightblue" stroke="midnightblue" points="147.03,-142.22 147.77,-131.65 140.6,-139.45 147.03,-142.22"/>
</g>
<!-- Node3 -->
<g id="node3" class="node">
<title>Node3</title>
<g id="a_node3"><a xlink:href="lib_2hash_2utility_8h.html" target="_top" xlink:title="Declaration of utility functions for SHA256 hashing.">
<polygon fill="none" stroke="black" points="74,-56.5 74,-75.5 121,-75.5 121,-56.5 74,-56.5"/>
<text text-anchor="middle" x="97.5" y="-63.5" font-family="Helvetica,sans-Serif" font-size="10.00">utility.h</text>
</a>
</g>
</g>
<!-- Node1&#45;&gt;Node3 -->
<g id="edge8" class="edge">
<title>Node1&#45;&gt;Node3</title>
<path fill="none" stroke="midnightblue" d="M119.26,-168.29C114.34,-145.37 106.28,-107.85 101.47,-85.47"/>
<polygon fill="midnightblue" stroke="midnightblue" points="104.87,-84.62 99.34,-75.57 98.02,-86.09 104.87,-84.62"/>
</g>
<!-- Node4 -->
<g id="node4" class="node">
<title>Node4</title>
<g id="a_node4"><a xlink:title=" ">
<polygon fill="none" stroke="#bfbfbf" points="74.5,-0.5 74.5,-19.5 120.5,-19.5 120.5,-0.5 74.5,-0.5"/>
<text text-anchor="middle" x="97.5" y="-7.5" font-family="Helvetica,sans-Serif" font-size="10.00">cstdint</text>
</a>
</g>
</g>
<!-- Node1&#45;&gt;Node4 -->
<g id="edge9" class="edge">
<title>Node1&#45;&gt;Node4</title>
<path fill="none" stroke="midnightblue" d="M109.2,-168.16C94.67,-146.67 73.1,-110.78 64.5,-76 62.37,-67.37 61.73,-64.45 64.5,-56 67.99,-45.34 75.07,-35.12 81.79,-27.12"/>
<polygon fill="midnightblue" stroke="midnightblue" points="84.4,-29.44 88.48,-19.66 79.2,-24.76 84.4,-29.44"/>
</g>
<!-- Node5 -->
<g id="node5" class="node">
<title>Node5</title>
<g id="a_node5"><a xlink:title=" ">
<polygon fill="none" stroke="#bfbfbf" points="0,-0.5 0,-19.5 43,-19.5 43,-0.5 0,-0.5"/>
<text text-anchor="middle" x="21.5" y="-7.5" font-family="Helvetica,sans-Serif" font-size="10.00">cstdio</text>
</a>
</g>
</g>
<!-- Node1&#45;&gt;Node5 -->
<g id="edge10" class="edge">
<title>Node1&#45;&gt;Node5</title>
<path fill="none" stroke="midnightblue" d="M103.74,-168.46C94.1,-158.21 82.81,-145.09 74.5,-132 52.96,-98.09 36.08,-53.93 27.57,-29.43"/>
<polygon fill="midnightblue" stroke="midnightblue" points="30.79,-28.01 24.26,-19.66 24.16,-30.25 30.79,-28.01"/>
</g>
<!-- Node6 -->
<g id="node6" class="node">
<title>Node6</title>
<g id="a_node6"><a xlink:title=" ">
<polygon fill="none" stroke="#bfbfbf" points="165,-0.5 165,-19.5 210,-19.5 210,-0.5 165,-0.5"/>
<text text-anchor="middle" x="187.5" y="-7.5" font-family="Helvetica,sans-Serif" font-size="10.00">cstdlib</text>
</a>
</g>
</g>
<!-- Node1&#45;&gt;Node6 -->
<g id="edge11" class="edge">
<title>Node1&#45;&gt;Node6</title>
<path fill="none" stroke="midnightblue" d="M156.49,-168.41C168.95,-159.1 181.73,-146.76 188.5,-132 203.83,-98.55 197.72,-54.22 192.32,-29.57"/>
<polygon fill="midnightblue" stroke="midnightblue" points="195.7,-28.65 189.98,-19.73 188.89,-30.27 195.7,-28.65"/>
</g>
<!-- Node7 -->
<g id="node7" class="node">
<title>Node7</title>
<g id="a_node7"><a xlink:title=" ">
<polygon fill="none" stroke="#bfbfbf" points="253.5,-112.5 253.5,-131.5 299.5,-131.5 299.5,-112.5 253.5,-112.5"/>
<text text-anchor="middle" x="276.5" y="-119.5" font-family="Helvetica,sans-Serif" font-size="10.00">cstring</text>
</a>
</g>
</g>
<!-- Node1&#45;&gt;Node7 -->
<g id="edge12" class="edge">
<title>Node1&#45;&gt;Node7</title>
<path fill="none" stroke="midnightblue" d="M169.41,-168.5C194.44,-157.86 224.71,-145 246.68,-135.67"/>
<polygon fill="midnightblue" stroke="midnightblue" points="248.3,-138.78 256.13,-131.65 245.56,-132.34 248.3,-138.78"/>
</g>
<!-- Node2&#45;&gt;Node3 -->
<g id="edge2" class="edge">
<title>Node2&#45;&gt;Node3</title>
<path fill="none" stroke="midnightblue" d="M142.58,-112.08C134.72,-104.22 123.07,-92.57 113.58,-83.08"/>
<polygon fill="midnightblue" stroke="midnightblue" points="115.8,-80.35 106.25,-75.75 110.85,-85.3 115.8,-80.35"/>
</g>
<!-- Node2&#45;&gt;Node4 -->
<g id="edge6" class="edge">
<title>Node2&#45;&gt;Node4</title>
<path fill="none" stroke="midnightblue" d="M149.41,-112.26C146.17,-99.47 139.25,-75.1 129.5,-56 124.44,-46.09 117.39,-35.92 111.2,-27.76"/>
<polygon fill="midnightblue" stroke="midnightblue" points="113.88,-25.51 104.95,-19.8 108.37,-29.83 113.88,-25.51"/>
</g>
<!-- Node2&#45;&gt;Node6 -->
<g id="edge7" class="edge">
<title>Node2&#45;&gt;Node6</title>
<path fill="none" stroke="midnightblue" d="M154.32,-112.37C160.16,-94.54 173.66,-53.3 181.52,-29.27"/>
<polygon fill="midnightblue" stroke="midnightblue" points="184.9,-30.18 184.69,-19.59 178.25,-28.01 184.9,-30.18"/>
</g>
<!-- Node3&#45;&gt;Node4 -->
<g id="edge3" class="edge">
<title>Node3&#45;&gt;Node4</title>
<path fill="none" stroke="midnightblue" d="M97.5,-56.08C97.5,-49.01 97.5,-38.86 97.5,-29.99"/>
<polygon fill="midnightblue" stroke="midnightblue" points="101,-29.75 97.5,-19.75 94,-29.75 101,-29.75"/>
</g>
<!-- Node3&#45;&gt;Node5 -->
<g id="edge4" class="edge">
<title>Node3&#45;&gt;Node5</title>
<path fill="none" stroke="midnightblue" d="M85.29,-56.32C73.72,-48.11 56.12,-35.6 42.34,-25.81"/>
<polygon fill="midnightblue" stroke="midnightblue" points="44.11,-22.77 33.93,-19.83 40.06,-28.48 44.11,-22.77"/>
</g>
<!-- Node3&#45;&gt;Node6 -->
<g id="edge5" class="edge">
<title>Node3&#45;&gt;Node6</title>
<path fill="none" stroke="midnightblue" d="M111.96,-56.32C126,-47.9 147.55,-34.97 164.04,-25.07"/>
<polygon fill="midnightblue" stroke="midnightblue" points="166.3,-27.8 173.08,-19.65 162.7,-21.8 166.3,-27.8"/>
</g>
</g>
</svg>
