<?xml version="1.0" encoding="UTF-8" standalone="no"?>
<!DOCTYPE svg PUBLIC "-//W3C//DTD SVG 1.1//EN"
 "http://www.w3.org/Graphics/SVG/1.1/DTD/svg11.dtd">
<!-- Generated by graphviz version 2.43.0 (0)
 -->
<!-- Title: Graphical Class Hierarchy Pages: 1 -->
<svg width="204pt" height="218pt"
 viewBox="0.00 0.00 204.00 218.00" xmlns="http://www.w3.org/2000/svg" xmlns:xlink="http://www.w3.org/1999/xlink">
<g id="graph0" class="graph" transform="scale(1 1) rotate(0) translate(4 214)">
<title>Graphical Class Hierarchy</title>
<!-- Node25 -->
<g id="node1" class="node">
<title>Node25</title>
<g id="a_node1"><a xlink:title=" ">
<polygon fill="none" stroke="#bfbfbf" points="0,-95.5 0,-114.5 64,-114.5 64,-95.5 0,-95.5"/>
<text text-anchor="middle" x="32" y="-102.5" font-family="Helvetica,sans-Serif" font-size="10.00">XMLVisitor</text>
</a>
</g>
</g>
<!-- Node0 -->
<g id="node2" class="node">
<title>Node0</title>
<g id="a_node2"><a xlink:href="classDOMToDictVisitor.html" target="_top" xlink:title=" ">
<polygon fill="none" stroke="black" points="100,-190.5 100,-209.5 196,-209.5 196,-190.5 100,-190.5"/>
<text text-anchor="middle" x="148" y="-197.5" font-family="Helvetica,sans-Serif" font-size="10.00">DOMToDictVisitor</text>
</a>
</g>
</g>
<!-- Node25&#45;&gt;Node0 -->
<g id="edge1" class="edge">
<title>Node25&#45;&gt;Node0</title>
<path fill="none" stroke="midnightblue" d="M45.21,-123.17C57.39,-140.09 77.47,-165.05 100,-181 105.17,-184.66 111.15,-187.77 117.08,-190.34"/>
<polygon fill="midnightblue" stroke="midnightblue" points="47.9,-120.89 39.3,-114.7 42.16,-124.9 47.9,-120.89"/>
</g>
<!-- Node27 -->
<g id="node3" class="node">
<title>Node27</title>
<g id="a_node3"><a xlink:href="classFindVisitor.html" target="_top" xlink:title=" ">
<polygon fill="none" stroke="black" points="116.5,-152.5 116.5,-171.5 179.5,-171.5 179.5,-152.5 116.5,-152.5"/>
<text text-anchor="middle" x="148" y="-159.5" font-family="Helvetica,sans-Serif" font-size="10.00">FindVisitor</text>
</a>
</g>
</g>
<!-- Node25&#45;&gt;Node27 -->
<g id="edge2" class="edge">
<title>Node25&#45;&gt;Node27</title>
<path fill="none" stroke="midnightblue" d="M57.3,-119.81C69.84,-127.19 85.51,-136 100,-143 106.82,-146.29 114.36,-149.52 121.37,-152.35"/>
<polygon fill="midnightblue" stroke="midnightblue" points="58.77,-116.61 48.39,-114.5 55.19,-122.63 58.77,-116.61"/>
</g>
<!-- Node28 -->
<g id="node4" class="node">
<title>Node28</title>
<g id="a_node4"><a xlink:href="classMultiPathVisitor.html" target="_top" xlink:title=" ">
<polygon fill="none" stroke="black" points="105,-114.5 105,-133.5 191,-133.5 191,-114.5 105,-114.5"/>
<text text-anchor="middle" x="148" y="-121.5" font-family="Helvetica,sans-Serif" font-size="10.00">MultiPathVisitor</text>
</a>
</g>
</g>
<!-- Node25&#45;&gt;Node28 -->
<g id="edge3" class="edge">
<title>Node25&#45;&gt;Node28</title>
<path fill="none" stroke="midnightblue" d="M74.2,-111.87C84.15,-113.52 94.78,-115.3 104.77,-116.96"/>
<polygon fill="midnightblue" stroke="midnightblue" points="74.59,-108.38 64.15,-110.19 73.44,-115.29 74.59,-108.38"/>
</g>
<!-- Node29 -->
<g id="node5" class="node">
<title>Node29</title>
<g id="a_node5"><a xlink:href="classMultiVisitor.html" target="_top" xlink:title=" ">
<polygon fill="none" stroke="black" points="115.5,-76.5 115.5,-95.5 180.5,-95.5 180.5,-76.5 115.5,-76.5"/>
<text text-anchor="middle" x="148" y="-83.5" font-family="Helvetica,sans-Serif" font-size="10.00">MultiVisitor</text>
</a>
</g>
</g>
<!-- Node25&#45;&gt;Node29 -->
<g id="edge4" class="edge">
<title>Node25&#45;&gt;Node29</title>
<path fill="none" stroke="midnightblue" d="M74.24,-98.13C87.84,-95.86 102.74,-93.38 115.49,-91.25"/>
<polygon fill="midnightblue" stroke="midnightblue" points="73.44,-94.71 64.15,-99.81 74.59,-101.62 73.44,-94.71"/>
</g>
<!-- Node30 -->
<g id="node6" class="node">
<title>Node30</title>
<g id="a_node6"><a xlink:href="classPathVisitor.html" target="_top" xlink:title=" ">
<polygon fill="none" stroke="black" points="115.5,-38.5 115.5,-57.5 180.5,-57.5 180.5,-38.5 115.5,-38.5"/>
<text text-anchor="middle" x="148" y="-45.5" font-family="Helvetica,sans-Serif" font-size="10.00">PathVisitor</text>
</a>
</g>
</g>
<!-- Node25&#45;&gt;Node30 -->
<g id="edge5" class="edge">
<title>Node25&#45;&gt;Node30</title>
<path fill="none" stroke="midnightblue" d="M57.3,-90.19C69.84,-82.81 85.51,-74 100,-67 106.82,-63.71 114.36,-60.48 121.37,-57.65"/>
<polygon fill="midnightblue" stroke="midnightblue" points="55.19,-87.37 48.39,-95.5 58.77,-93.39 55.19,-87.37"/>
</g>
<!-- Node31 -->
<g id="node7" class="node">
<title>Node31</title>
<g id="a_node7"><a xlink:href="classToTextVisitor.html" target="_top" xlink:title=" ">
<polygon fill="none" stroke="black" points="111,-0.5 111,-19.5 185,-19.5 185,-0.5 111,-0.5"/>
<text text-anchor="middle" x="148" y="-7.5" font-family="Helvetica,sans-Serif" font-size="10.00">ToTextVisitor</text>
</a>
</g>
</g>
<!-- Node25&#45;&gt;Node31 -->
<g id="edge6" class="edge">
<title>Node25&#45;&gt;Node31</title>
<path fill="none" stroke="midnightblue" d="M45.21,-86.83C57.39,-69.91 77.47,-44.95 100,-29 105.17,-25.34 111.15,-22.23 117.08,-19.66"/>
<polygon fill="midnightblue" stroke="midnightblue" points="42.16,-85.1 39.3,-95.3 47.9,-89.11 42.16,-85.1"/>
</g>
</g>
</svg>
