<?xml version="1.0" encoding="UTF-8" standalone="no"?>
<!DOCTYPE svg PUBLIC "-//W3C//DTD SVG 1.1//EN"
 "http://www.w3.org/Graphics/SVG/1.1/DTD/svg11.dtd">
<!-- Generated by graphviz version 8.0.5 (20230430.1635)
 -->
<!-- Title: sss::ToUpper Pages: 1 -->
<svg width="1154pt" height="544pt"
 viewBox="0.00 0.00 1153.50 543.88" xmlns="http://www.w3.org/2000/svg" xmlns:xlink="http://www.w3.org/1999/xlink">
<g id="graph0" class="graph" transform="scale(1 1) rotate(0) translate(4 539.88)">
<title>sss::ToUpper</title>
<!-- Node1 -->
<g id="node1" class="node">
<title>Node1</title>
<g id="a_node1"><a xlink:title=" ">
<polygon fill="#999999" stroke="#666666" points="1145.5,-252.25 1071,-252.25 1071,-233 1145.5,-233 1145.5,-252.25"/>
<text text-anchor="middle" x="1108.25" y="-238.75" font-family="Helvetica,sans-Serif" font-size="10.00">sss::ToUpper</text>
</a>
</g>
</g>
<!-- Node1&#45;&gt;Node1 -->
<g id="edge40" class="edge">
<title>Node1&#45;&gt;Node1</title>
<path fill="none" stroke="#63b8ff" d="M1132.25,-262.98C1129.73,-267.21 1121.73,-270.25 1108.25,-270.25 1084.94,-270.25 1078.02,-261.15 1087.49,-252.54"/>
<polygon fill="#63b8ff" stroke="#63b8ff" points="1135.32,-262.05 1129.01,-253.54 1128.63,-264.13 1135.32,-262.05"/>
</g>
<!-- Node2 -->
<g id="node2" class="node">
<title>Node2</title>
<g id="a_node2"><a xlink:href="group__Sign.html#ga904d511ec786b87644cc90dc96dd8f3f" target="_top" xlink:title="Compute signature.">
<polygon fill="white" stroke="#666666" points="1035,-233.25 916.25,-233.25 916.25,-214 1035,-214 1035,-233.25"/>
<text text-anchor="middle" x="975.62" y="-219.75" font-family="Helvetica,sans-Serif" font-size="10.00">sss::ComputeSignature</text>
</a>
</g>
</g>
<!-- Node1&#45;&gt;Node2 -->
<g id="edge1" class="edge">
<title>Node1&#45;&gt;Node2</title>
<path fill="none" stroke="#63b8ff" d="M1059.84,-235.73C1051.8,-234.56 1043.36,-233.33 1035.08,-232.13"/>
<polygon fill="#63b8ff" stroke="#63b8ff" points="1059.12,-239.31 1069.52,-237.28 1060.12,-232.38 1059.12,-239.31"/>
</g>
<!-- Node26 -->
<g id="node26" class="node">
<title>Node26</title>
<g id="a_node26"><a xlink:href="classsss_1_1WebClient.html#af6233ffd7b294e1e7e606e838dd44e9e" target="_top" xlink:title=" ">
<polygon fill="white" stroke="#666666" points="880.25,-271.25 744.25,-271.25 744.25,-252 880.25,-252 880.25,-271.25"/>
<text text-anchor="middle" x="812.25" y="-257.75" font-family="Helvetica,sans-Serif" font-size="10.00">sss::WebClient::SetMethod</text>
</a>
</g>
</g>
<!-- Node1&#45;&gt;Node26 -->
<g id="edge29" class="edge">
<title>Node1&#45;&gt;Node26</title>
<path fill="none" stroke="#63b8ff" d="M1059.79,-245.69C1011.26,-248.83 935.43,-253.73 880.68,-257.27"/>
<polygon fill="#63b8ff" stroke="#63b8ff" points="1059.86,-249.13 1069.61,-244.99 1059.4,-242.15 1059.86,-249.13"/>
</g>
<!-- Node3 -->
<g id="node3" class="node">
<title>Node3</title>
<g id="a_node3"><a xlink:href="group__Sign.html#ga3ae8e18ef70752b7369fca66c40c526b" target="_top" xlink:title="Sign headers.">
<polygon fill="white" stroke="#666666" points="859.25,-212.25 765.25,-212.25 765.25,-193 859.25,-193 859.25,-212.25"/>
<text text-anchor="middle" x="812.25" y="-198.75" font-family="Helvetica,sans-Serif" font-size="10.00">sss::SignHeaders</text>
</a>
</g>
</g>
<!-- Node2&#45;&gt;Node3 -->
<g id="edge2" class="edge">
<title>Node2&#45;&gt;Node3</title>
<path fill="none" stroke="#63b8ff" d="M905.32,-214.61C889.85,-212.59 873.81,-210.51 859.53,-208.65"/>
<polygon fill="#63b8ff" stroke="#63b8ff" points="904.54,-218.16 914.91,-215.98 905.44,-211.22 904.54,-218.16"/>
</g>
<!-- Node4 -->
<g id="node4" class="node">
<title>Node4</title>
<g id="a_node4"><a xlink:href="classsss_1_1api_1_1S3Api.html#a840772746fbb0a79c161037da7b24a31" target="_top" xlink:title="[WebClient::Config]">
<polygon fill="white" stroke="#666666" points="696.62,-174.25 579.38,-174.25 579.38,-155 696.62,-155 696.62,-174.25"/>
<text text-anchor="middle" x="638" y="-160.75" font-family="Helvetica,sans-Serif" font-size="10.00">sss::api::S3Api::Config</text>
</a>
</g>
</g>
<!-- Node3&#45;&gt;Node4 -->
<g id="edge3" class="edge">
<title>Node3&#45;&gt;Node4</title>
<path fill="none" stroke="#63b8ff" d="M754.98,-190.21C732.19,-185.18 706.21,-179.45 684.62,-174.69"/>
<polygon fill="#63b8ff" stroke="#63b8ff" points="754.02,-193.8 764.54,-192.54 755.53,-186.97 754.02,-193.8"/>
</g>
<!-- Node25 -->
<g id="node25" class="node">
<title>Node25</title>
<g id="a_node25"><a xlink:href="group__S3Client.html#ga5a769be8fbc874bad858ea95743e5643" target="_top" xlink:title="Send S3 request to endpoint.">
<polygon fill="white" stroke="#666666" points="510.38,-305.25 401.38,-305.25 401.38,-286 510.38,-286 510.38,-305.25"/>
<text text-anchor="middle" x="455.88" y="-291.75" font-family="Helvetica,sans-Serif" font-size="10.00">sss::SendS3Request</text>
</a>
</g>
</g>
<!-- Node3&#45;&gt;Node25 -->
<g id="edge28" class="edge">
<title>Node3&#45;&gt;Node25</title>
<path fill="none" stroke="#63b8ff" d="M754.24,-193.47C701.97,-188.06 624.33,-187.81 567.75,-221.62 542.35,-236.8 555.87,-260.49 531.75,-277.62 525.43,-282.12 518.13,-285.5 510.62,-288.04"/>
<polygon fill="#63b8ff" stroke="#63b8ff" points="753.66,-197.04 764,-194.69 754.45,-190.08 753.66,-197.04"/>
</g>
<!-- Node5 -->
<g id="node5" class="node">
<title>Node5</title>
<g id="a_node5"><a xlink:href="classsss_1_1api_1_1S3Api.html#a1196f1cb9ce1e5d69336e9b8dbb5d59c" target="_top" xlink:title=" ">
<polygon fill="white" stroke="#666666" points="516,-179.88 395.75,-179.88 395.75,-149.38 516,-149.38 516,-179.88"/>
<text text-anchor="start" x="403.75" y="-166.38" font-family="Helvetica,sans-Serif" font-size="10.00">sss::api::S3Api::GetFile</text>
<text text-anchor="middle" x="455.88" y="-155.12" font-family="Helvetica,sans-Serif" font-size="10.00">Object</text>
</a>
</g>
</g>
<!-- Node4&#45;&gt;Node5 -->
<g id="edge4" class="edge">
<title>Node4&#45;&gt;Node5</title>
<path fill="none" stroke="#63b8ff" d="M568.48,-164.62C551.3,-164.62 533,-164.62 516.3,-164.62"/>
<polygon fill="#63b8ff" stroke="#63b8ff" points="568.02,-168.13 578.02,-164.62 568.02,-161.13 568.02,-168.13"/>
</g>
<!-- Node6 -->
<g id="node6" class="node">
<title>Node6</title>
<g id="a_node6"><a xlink:href="classsss_1_1api_1_1S3Api.html#ab7affe0834f5892b393e731783b7ccac" target="_top" xlink:title=" ">
<polygon fill="white" stroke="#666666" points="515.62,-229.88 396.12,-229.88 396.12,-199.38 515.62,-199.38 515.62,-229.88"/>
<text text-anchor="start" x="404.12" y="-216.38" font-family="Helvetica,sans-Serif" font-size="10.00">sss::api::S3Api::PutFile</text>
<text text-anchor="middle" x="455.88" y="-205.12" font-family="Helvetica,sans-Serif" font-size="10.00">Object</text>
</a>
</g>
</g>
<!-- Node4&#45;&gt;Node6 -->
<g id="edge5" class="edge">
<title>Node4&#45;&gt;Node6</title>
<path fill="none" stroke="#63b8ff" d="M590.17,-177.62C566.73,-184.13 538.16,-192.06 513.49,-198.91"/>
<polygon fill="#63b8ff" stroke="#63b8ff" points="590.85,-180.79 599.55,-174.74 588.98,-174.05 590.85,-180.79"/>
</g>
<!-- Node7 -->
<g id="node7" class="node">
<title>Node7</title>
<g id="a_node7"><a xlink:href="classsss_1_1api_1_1S3Api.html#ad09581bf28c4bbbcbb71b329959ec1ae" target="_top" xlink:title=" ">
<polygon fill="white" stroke="#666666" points="511.5,-268.25 400.25,-268.25 400.25,-249 511.5,-249 511.5,-268.25"/>
<text text-anchor="middle" x="455.88" y="-254.75" font-family="Helvetica,sans-Serif" font-size="10.00">sss::api::S3Api::Send</text>
</a>
</g>
</g>
<!-- Node4&#45;&gt;Node7 -->
<g id="edge6" class="edge">
<title>Node4&#45;&gt;Node7</title>
<path fill="none" stroke="#63b8ff" d="M584.54,-178.86C578.6,-181.6 572.85,-184.83 567.75,-188.62 545.79,-204.98 554.29,-223.08 531.75,-238.62 525.77,-242.75 518.98,-246.03 511.99,-248.63"/>
<polygon fill="#63b8ff" stroke="#63b8ff" points="585.74,-181.74 593.66,-174.7 583.08,-175.26 585.74,-181.74"/>
</g>
<!-- Node8 -->
<g id="node8" class="node">
<title>Node8</title>
<g id="a_node8"><a xlink:href="classsss_1_1api_1_1S3Api.html#a4ea265566c3c4335ec01201cdc4410c6" target="_top" xlink:title=" ">
<polygon fill="white" stroke="#666666" points="341,-535.88 191.5,-535.88 191.5,-505.38 341,-505.38 341,-535.88"/>
<text text-anchor="start" x="199.5" y="-522.38" font-family="Helvetica,sans-Serif" font-size="10.00">sss::api::S3Api::AbortMultipart</text>
<text text-anchor="middle" x="266.25" y="-511.12" font-family="Helvetica,sans-Serif" font-size="10.00">Upload</text>
</a>
</g>
</g>
<!-- Node7&#45;&gt;Node8 -->
<g id="edge7" class="edge">
<title>Node7&#45;&gt;Node8</title>
<path fill="none" stroke="#63b8ff" d="M390.19,-268.49C386.44,-270.73 382.99,-273.41 380,-276.62 312.84,-348.87 408.25,-420.78 344,-495.62 340.9,-499.24 337.26,-502.34 333.3,-504.99"/>
<polygon fill="#63b8ff" stroke="#63b8ff" points="391.5,-271.26 399.02,-263.79 388.48,-264.94 391.5,-271.26"/>
</g>
<!-- Node9 -->
<g id="node9" class="node">
<title>Node9</title>
<g id="a_node9"><a xlink:href="classsss_1_1api_1_1S3Api.html#a98f999a216121118dd569c7ef0c28ff3" target="_top" xlink:title=" ">
<polygon fill="white" stroke="#666666" points="331.62,-486.88 200.88,-486.88 200.88,-456.38 331.62,-456.38 331.62,-486.88"/>
<text text-anchor="start" x="208.88" y="-473.38" font-family="Helvetica,sans-Serif" font-size="10.00">sss::api::S3Api::Complete</text>
<text text-anchor="middle" x="266.25" y="-462.12" font-family="Helvetica,sans-Serif" font-size="10.00">MultipartUpload</text>
</a>
</g>
</g>
<!-- Node7&#45;&gt;Node9 -->
<g id="edge8" class="edge">
<title>Node7&#45;&gt;Node9</title>
<path fill="none" stroke="#63b8ff" d="M390.16,-268.75C386.44,-270.93 383.01,-273.53 380,-276.62 325.87,-332.32 396.23,-390.15 344,-447.62 340.53,-451.45 336.45,-454.67 332.03,-457.38"/>
<polygon fill="#63b8ff" stroke="#63b8ff" points="391.33,-271.6 398.87,-264.15 388.33,-265.27 391.33,-271.6"/>
</g>
<!-- Node10 -->
<g id="node10" class="node">
<title>Node10</title>
<g id="a_node10"><a xlink:href="classsss_1_1api_1_1S3Api.html#ad890bd1ecfc978df24b2c3ed641e4081" target="_top" xlink:title=" ">
<polygon fill="white" stroke="#666666" points="340.62,-364.25 191.88,-364.25 191.88,-345 340.62,-345 340.62,-364.25"/>
<text text-anchor="middle" x="266.25" y="-350.75" font-family="Helvetica,sans-Serif" font-size="10.00">sss::api::S3Api::CreateBucket</text>
</a>
</g>
</g>
<!-- Node7&#45;&gt;Node10 -->
<g id="edge9" class="edge">
<title>Node7&#45;&gt;Node10</title>
<path fill="none" stroke="#63b8ff" d="M389.8,-270.69C386.35,-272.41 383.06,-274.38 380,-276.62 354.93,-295.03 369.12,-318.29 344,-336.62 339.69,-339.77 334.91,-342.38 329.9,-344.53"/>
<polygon fill="#63b8ff" stroke="#63b8ff" points="391,-273.56 398.85,-266.44 388.27,-267.11 391,-273.56"/>
</g>
<!-- Node12 -->
<g id="node12" class="node">
<title>Node12</title>
<g id="a_node12"><a xlink:href="classsss_1_1api_1_1S3Api.html#a1796fafda3d90a4292a611ce1999433b" target="_top" xlink:title=" ">
<polygon fill="white" stroke="#666666" points="344,-252.88 188.5,-252.88 188.5,-222.38 344,-222.38 344,-252.88"/>
<text text-anchor="start" x="196.5" y="-239.38" font-family="Helvetica,sans-Serif" font-size="10.00">sss::api::S3Api::CreateMultipart</text>
<text text-anchor="middle" x="266.25" y="-228.12" font-family="Helvetica,sans-Serif" font-size="10.00">Upload</text>
</a>
</g>
</g>
<!-- Node7&#45;&gt;Node12 -->
<g id="edge11" class="edge">
<title>Node7&#45;&gt;Node12</title>
<path fill="none" stroke="#63b8ff" d="M389,-251.25C374.53,-249.63 359.08,-247.9 344.22,-246.24"/>
<polygon fill="#63b8ff" stroke="#63b8ff" points="388.52,-254.83 398.85,-252.47 389.3,-247.88 388.52,-254.83"/>
</g>
<!-- Node13 -->
<g id="node13" class="node">
<title>Node13</title>
<g id="a_node13"><a xlink:href="classsss_1_1api_1_1S3Api.html#a3d63825d1916e4ba3ca13122c7660603" target="_top" xlink:title=" ">
<polygon fill="white" stroke="#666666" points="340.25,-327.25 192.25,-327.25 192.25,-308 340.25,-308 340.25,-327.25"/>
<text text-anchor="middle" x="266.25" y="-313.75" font-family="Helvetica,sans-Serif" font-size="10.00">sss::api::S3Api::DeleteBucket</text>
</a>
</g>
</g>
<!-- Node7&#45;&gt;Node13 -->
<g id="edge12" class="edge">
<title>Node7&#45;&gt;Node13</title>
<path fill="none" stroke="#63b8ff" d="M392.73,-271.85C388.37,-273.3 384.08,-274.89 380,-276.62 362.53,-284.06 361.49,-292.24 344,-299.62 336.69,-302.71 328.75,-305.32 320.84,-307.52"/>
<polygon fill="#63b8ff" stroke="#63b8ff" points="393.45,-274.98 401.99,-268.71 391.41,-268.29 393.45,-274.98"/>
</g>
<!-- Node14 -->
<g id="node14" class="node">
<title>Node14</title>
<g id="a_node14"><a xlink:href="classsss_1_1api_1_1S3Api.html#a14a75f15eb71fbba8639673100768b67" target="_top" xlink:title=" ">
<polygon fill="white" stroke="#666666" points="339.12,-204.25 193.38,-204.25 193.38,-185 339.12,-185 339.12,-204.25"/>
<text text-anchor="middle" x="266.25" y="-190.75" font-family="Helvetica,sans-Serif" font-size="10.00">sss::api::S3Api::DeleteObject</text>
</a>
</g>
</g>
<!-- Node7&#45;&gt;Node14 -->
<g id="edge14" class="edge">
<title>Node7&#45;&gt;Node14</title>
<path fill="none" stroke="#63b8ff" d="M396.83,-245.28C391.04,-243.31 385.34,-241.1 380,-238.62 362.33,-230.43 361.75,-221.65 344,-213.62 336.12,-210.06 327.47,-207.1 318.91,-204.66"/>
<polygon fill="#63b8ff" stroke="#63b8ff" points="395.68,-248.9 406.27,-248.57 397.78,-242.23 395.68,-248.9"/>
</g>
<!-- Node15 -->
<g id="node15" class="node">
<title>Node15</title>
<g id="a_node15"><a xlink:href="classsss_1_1api_1_1S3Api.html#a3b53152bf39143843a4033aa4a1b3fa0" target="_top" xlink:title=" ">
<polygon fill="white" stroke="#666666" points="341,-290.25 191.5,-290.25 191.5,-271 341,-271 341,-290.25"/>
<text text-anchor="middle" x="266.25" y="-276.75" font-family="Helvetica,sans-Serif" font-size="10.00">sss::api::S3Api::GetBucketAcl</text>
</a>
</g>
</g>
<!-- Node7&#45;&gt;Node15 -->
<g id="edge15" class="edge">
<title>Node7&#45;&gt;Node15</title>
<path fill="none" stroke="#63b8ff" d="M389.34,-266.31C373.87,-268.12 357.27,-270.07 341.44,-271.93"/>
<polygon fill="#63b8ff" stroke="#63b8ff" points="389.32,-269.72 398.85,-265.08 388.51,-262.77 389.32,-269.72"/>
</g>
<!-- Node16 -->
<g id="node16" class="node">
<title>Node16</title>
<g id="a_node16"><a xlink:href="classsss_1_1api_1_1S3Api.html#af61465d92c0a94aa82ae863fc2a776a0" target="_top" xlink:title=" ">
<polygon fill="white" stroke="#666666" points="332.75,-167.25 199.75,-167.25 199.75,-148 332.75,-148 332.75,-167.25"/>
<text text-anchor="middle" x="266.25" y="-153.75" font-family="Helvetica,sans-Serif" font-size="10.00">sss::api::S3Api::GetObject</text>
</a>
</g>
</g>
<!-- Node7&#45;&gt;Node16 -->
<g id="edge17" class="edge">
<title>Node7&#45;&gt;Node16</title>
<path fill="none" stroke="#63b8ff" d="M390.23,-245.1C386.62,-243.21 383.17,-241.07 380,-238.62 354.45,-218.95 369.85,-194.91 344,-175.62 339.72,-172.43 334.97,-169.8 329.98,-167.62"/>
<polygon fill="#63b8ff" stroke="#63b8ff" points="388.55,-248.63 399.11,-249.5 391.4,-242.23 388.55,-248.63"/>
</g>
<!-- Node17 -->
<g id="node17" class="node">
<title>Node17</title>
<g id="a_node17"><a xlink:href="classsss_1_1api_1_1S3Api.html#aa4a2b1cc2c89a52d1aa89e571b785db2" target="_top" xlink:title=" ">
<polygon fill="white" stroke="#666666" points="337.62,-438.25 194.88,-438.25 194.88,-419 337.62,-419 337.62,-438.25"/>
<text text-anchor="middle" x="266.25" y="-424.75" font-family="Helvetica,sans-Serif" font-size="10.00">sss::api::S3Api::HeadBucket</text>
</a>
</g>
</g>
<!-- Node7&#45;&gt;Node17 -->
<g id="edge18" class="edge">
<title>Node7&#45;&gt;Node17</title>
<path fill="none" stroke="#63b8ff" d="M389.84,-269.23C386.28,-271.31 382.95,-273.75 380,-276.62 335.82,-319.65 388.3,-367.72 344,-410.62 340.76,-413.77 337.07,-416.4 333.12,-418.6"/>
<polygon fill="#63b8ff" stroke="#63b8ff" points="391.2,-271.99 398.76,-264.56 388.22,-265.66 391.2,-271.99"/>
</g>
<!-- Node18 -->
<g id="node18" class="node">
<title>Node18</title>
<g id="a_node18"><a xlink:href="classsss_1_1api_1_1S3Api.html#abc84a71b9a88b81afaa353ad17a91d22" target="_top" xlink:title=" ">
<polygon fill="white" stroke="#666666" points="336.5,-130.25 196,-130.25 196,-111 336.5,-111 336.5,-130.25"/>
<text text-anchor="middle" x="266.25" y="-116.75" font-family="Helvetica,sans-Serif" font-size="10.00">sss::api::S3Api::HeadObject</text>
</a>
</g>
</g>
<!-- Node7&#45;&gt;Node18 -->
<g id="edge20" class="edge">
<title>Node7&#45;&gt;Node18</title>
<path fill="none" stroke="#63b8ff" d="M390.4,-246.12C386.66,-243.99 383.14,-241.51 380,-238.62 345.22,-206.66 379.27,-170.05 344,-138.62 340.42,-135.44 336.39,-132.79 332.09,-130.58"/>
<polygon fill="#63b8ff" stroke="#63b8ff" points="388.57,-249.6 399.1,-250.72 391.56,-243.27 388.57,-249.6"/>
</g>
<!-- Node21 -->
<g id="node21" class="node">
<title>Node21</title>
<g id="a_node21"><a xlink:href="classsss_1_1api_1_1S3Api.html#a81e30673c06b609a2ee6e6bfd9130ca6" target="_top" xlink:title=" ">
<polygon fill="white" stroke="#666666" points="336.5,-401.25 196,-401.25 196,-382 336.5,-382 336.5,-401.25"/>
<text text-anchor="middle" x="266.25" y="-387.75" font-family="Helvetica,sans-Serif" font-size="10.00">sss::api::S3Api::ListBuckets</text>
</a>
</g>
</g>
<!-- Node7&#45;&gt;Node21 -->
<g id="edge23" class="edge">
<title>Node7&#45;&gt;Node21</title>
<path fill="none" stroke="#63b8ff" d="M389.96,-269.66C386.39,-271.64 383.03,-273.94 380,-276.62 345.6,-307.14 378.48,-343.2 344,-373.62 340.41,-376.79 336.36,-379.43 332.06,-381.63"/>
<polygon fill="#63b8ff" stroke="#63b8ff" points="391.16,-272.5 398.82,-265.18 388.27,-266.13 391.16,-272.5"/>
</g>
<!-- Node22 -->
<g id="node22" class="node">
<title>Node22</title>
<g id="a_node22"><a xlink:href="classsss_1_1api_1_1S3Api.html#a3f00f611cd210a58ac6e8c0555984433" target="_top" xlink:title=" ">
<polygon fill="white" stroke="#666666" points="341.38,-93.25 191.12,-93.25 191.12,-74 341.38,-74 341.38,-93.25"/>
<text text-anchor="middle" x="266.25" y="-79.75" font-family="Helvetica,sans-Serif" font-size="10.00">sss::api::S3Api::ListObjectsV2</text>
</a>
</g>
</g>
<!-- Node7&#45;&gt;Node22 -->
<g id="edge25" class="edge">
<title>Node7&#45;&gt;Node22</title>
<path fill="none" stroke="#63b8ff" d="M390.29,-246.55C386.54,-244.32 383.06,-241.7 380,-238.62 335.57,-194.02 389.1,-145.55 344,-101.62 340.76,-98.47 337.09,-95.84 333.14,-93.63"/>
<polygon fill="#63b8ff" stroke="#63b8ff" points="388.53,-250.07 399.05,-251.31 391.6,-243.78 388.53,-250.07"/>
</g>
<!-- Node23 -->
<g id="node23" class="node">
<title>Node23</title>
<g id="a_node23"><a xlink:href="classsss_1_1api_1_1S3Api.html#a0473917e4d25a4a6fca40d097e4299d6" target="_top" xlink:title=" ">
<polygon fill="white" stroke="#666666" points="321.88,-56.25 210.62,-56.25 210.62,-37 321.88,-37 321.88,-56.25"/>
<text text-anchor="middle" x="266.25" y="-42.75" font-family="Helvetica,sans-Serif" font-size="10.00">sss::api::S3Api::Send</text>
</a>
</g>
</g>
<!-- Node7&#45;&gt;Node23 -->
<g id="edge26" class="edge">
<title>Node7&#45;&gt;Node23</title>
<path fill="none" stroke="#63b8ff" d="M390.1,-246.73C386.4,-244.46 382.98,-241.78 380,-238.62 325.77,-181.22 399.1,-121.2 344,-64.62 337.98,-58.45 330.28,-54.22 322.09,-51.36"/>
<polygon fill="#63b8ff" stroke="#63b8ff" points="388.27,-250.23 398.78,-251.57 391.41,-243.97 388.27,-250.23"/>
</g>
<!-- Node24 -->
<g id="node24" class="node">
<title>Node24</title>
<g id="a_node24"><a xlink:href="classsss_1_1api_1_1S3Api.html#a23223ee1fb701c55af2d942dbf261ae2" target="_top" xlink:title=" ">
<polygon fill="white" stroke="#666666" points="335.38,-19.25 197.12,-19.25 197.12,0 335.38,0 335.38,-19.25"/>
<text text-anchor="middle" x="266.25" y="-5.75" font-family="Helvetica,sans-Serif" font-size="10.00">sss::api::S3Api::TestBucket</text>
</a>
</g>
</g>
<!-- Node7&#45;&gt;Node24 -->
<g id="edge27" class="edge">
<title>Node7&#45;&gt;Node24</title>
<path fill="none" stroke="#63b8ff" d="M390.16,-246.96C386.42,-244.64 382.97,-241.89 380,-238.62 315.9,-168.33 409.17,-96.93 344,-27.62 341.09,-24.53 337.77,-21.93 334.16,-19.73"/>
<polygon fill="#63b8ff" stroke="#63b8ff" points="388.47,-250.54 398.98,-251.9 391.61,-244.28 388.47,-250.54"/>
</g>
<!-- Node11 -->
<g id="node11" class="node">
<title>Node11</title>
<g id="a_node11"><a xlink:href="bucket-test_8cpp.html#a3c04138a5bfe5d72780bb7e82a18e627" target="_top" xlink:title="Bucket tests.">
<polygon fill="white" stroke="#666666" points="94.75,-364.25 57.75,-364.25 57.75,-345 94.75,-345 94.75,-364.25"/>
<text text-anchor="middle" x="76.25" y="-350.75" font-family="Helvetica,sans-Serif" font-size="10.00">main</text>
</a>
</g>
</g>
<!-- Node10&#45;&gt;Node11 -->
<g id="edge10" class="edge">
<title>Node10&#45;&gt;Node11</title>
<path fill="none" stroke="#63b8ff" d="M180.67,-354.62C148.53,-354.62 114.91,-354.62 95.03,-354.62"/>
<polygon fill="#63b8ff" stroke="#63b8ff" points="180.49,-358.13 190.49,-354.62 180.49,-351.13 180.49,-358.13"/>
</g>
<!-- Node13&#45;&gt;Node11 -->
<g id="edge13" class="edge">
<title>Node13&#45;&gt;Node11</title>
<path fill="none" stroke="#63b8ff" d="M203.42,-329.79C165.49,-337.26 119.63,-346.28 94.98,-351.14"/>
<polygon fill="#63b8ff" stroke="#63b8ff" points="203.74,-333.1 212.88,-327.74 202.39,-326.23 203.74,-333.1"/>
</g>
<!-- Node15&#45;&gt;Node11 -->
<g id="edge16" class="edge">
<title>Node15&#45;&gt;Node11</title>
<path fill="none" stroke="#63b8ff" d="M204.37,-293.5C198.95,-295.07 193.6,-296.77 188.5,-298.62 153.54,-311.32 115.34,-332.24 94.03,-344.59"/>
<polygon fill="#63b8ff" stroke="#63b8ff" points="205.06,-296.66 213.79,-290.66 203.23,-289.91 205.06,-296.66"/>
</g>
<!-- Node17&#45;&gt;Node11 -->
<g id="edge19" class="edge">
<title>Node17&#45;&gt;Node11</title>
<path fill="none" stroke="#63b8ff" d="M204.37,-415.75C198.95,-414.18 193.6,-412.48 188.5,-410.62 153.54,-397.93 115.34,-377.01 94.03,-364.66"/>
<polygon fill="#63b8ff" stroke="#63b8ff" points="203.23,-419.34 213.79,-418.59 205.06,-412.59 203.23,-419.34"/>
</g>
<!-- Node19 -->
<g id="node19" class="node">
<title>Node19</title>
<g id="a_node19"><a xlink:href="classsss_1_1api_1_1S3Api.html#a872e80e356e8c404a9b0739d95a0af41" target="_top" xlink:title="[WebClient::Config]">
<polygon fill="white" stroke="#666666" points="152.5,-112.25 0,-112.25 0,-93 152.5,-93 152.5,-112.25"/>
<text text-anchor="middle" x="76.25" y="-98.75" font-family="Helvetica,sans-Serif" font-size="10.00">sss::api::S3Api::GetObjectSize</text>
</a>
</g>
</g>
<!-- Node18&#45;&gt;Node19 -->
<g id="edge21" class="edge">
<title>Node18&#45;&gt;Node19</title>
<path fill="none" stroke="#63b8ff" d="M184.63,-112.91C174.09,-111.9 163.33,-110.87 152.87,-109.87"/>
<polygon fill="#63b8ff" stroke="#63b8ff" points="184.22,-116.48 194.51,-113.95 184.89,-109.51 184.22,-116.48"/>
</g>
<!-- Node20 -->
<g id="node20" class="node">
<title>Node20</title>
<g id="a_node20"><a xlink:href="classsss_1_1api_1_1S3Api.html#aa3f7a3001bdad58c7b0c04cbd0dc3236" target="_top" xlink:title=" ">
<polygon fill="white" stroke="#666666" points="144.25,-149.25 8.25,-149.25 8.25,-130 144.25,-130 144.25,-149.25"/>
<text text-anchor="middle" x="76.25" y="-135.75" font-family="Helvetica,sans-Serif" font-size="10.00">sss::api::S3Api::TestObject</text>
</a>
</g>
</g>
<!-- Node18&#45;&gt;Node20 -->
<g id="edge22" class="edge">
<title>Node18&#45;&gt;Node20</title>
<path fill="none" stroke="#63b8ff" d="M184.88,-128.75C171.48,-130.1 157.71,-131.49 144.69,-132.81"/>
<polygon fill="#63b8ff" stroke="#63b8ff" points="184.92,-132.16 194.51,-127.67 184.21,-125.2 184.92,-132.16"/>
</g>
<!-- Node21&#45;&gt;Node11 -->
<g id="edge24" class="edge">
<title>Node21&#45;&gt;Node11</title>
<path fill="none" stroke="#63b8ff" d="M203.42,-379.46C165.49,-371.99 119.63,-362.97 94.98,-358.11"/>
<polygon fill="#63b8ff" stroke="#63b8ff" points="202.39,-383.02 212.88,-381.51 203.74,-376.15 202.39,-383.02"/>
</g>
<!-- Node26&#45;&gt;Node4 -->
<g id="edge30" class="edge">
<title>Node26&#45;&gt;Node4</title>
<path fill="none" stroke="#63b8ff" d="M784.17,-246.38C748.64,-226.36 687.23,-191.78 656.95,-174.73"/>
<polygon fill="#63b8ff" stroke="#63b8ff" points="782.03,-249.75 792.46,-251.61 785.47,-243.65 782.03,-249.75"/>
</g>
<!-- Node26&#45;&gt;Node25 -->
<g id="edge31" class="edge">
<title>Node26&#45;&gt;Node25</title>
<path fill="none" stroke="#63b8ff" d="M798.19,-280.22C780.76,-303.24 747.48,-341.3 708.25,-356.62 650.09,-379.35 624.33,-383.05 567.75,-356.62 545.17,-346.08 552.94,-326.76 531.75,-313.62 525.27,-309.61 517.97,-306.49 510.52,-304.07"/>
<polygon fill="#63b8ff" stroke="#63b8ff" points="801.38,-282.79 804.47,-272.66 795.74,-278.65 801.38,-282.79"/>
</g>
<!-- Node27 -->
<g id="node27" class="node">
<title>Node27</title>
<g id="a_node27"><a xlink:href="classsss_1_1WebClient.html#ae7b1f77bd4ae44585f2d49ea493bdcc5" target="_top" xlink:title="Upload data from memory buffer.">
<polygon fill="white" stroke="#666666" points="708.25,-347.88 567.75,-347.88 567.75,-317.38 708.25,-317.38 708.25,-347.88"/>
<text text-anchor="start" x="575.75" y="-334.38" font-family="Helvetica,sans-Serif" font-size="10.00">sss::WebClient::UploadData</text>
<text text-anchor="middle" x="638" y="-323.12" font-family="Helvetica,sans-Serif" font-size="10.00">FromBuffer</text>
</a>
</g>
</g>
<!-- Node26&#45;&gt;Node27 -->
<g id="edge32" class="edge">
<title>Node26&#45;&gt;Node27</title>
<path fill="none" stroke="#63b8ff" d="M780.2,-276.21C759.89,-285.57 732.69,-297.77 708.25,-307.62 700.43,-310.78 692.03,-313.97 683.89,-316.97"/>
<polygon fill="#63b8ff" stroke="#63b8ff" points="781.54,-278.98 789.14,-271.6 778.6,-272.63 781.54,-278.98"/>
</g>
<!-- Node29 -->
<g id="node29" class="node">
<title>Node29</title>
<g id="a_node29"><a xlink:href="classsss_1_1WebClient.html#ad038e41cfc902f6e49754c52a9a71992" target="_top" xlink:title="Upload file.">
<polygon fill="white" stroke="#666666" points="705.62,-250.25 570.38,-250.25 570.38,-231 705.62,-231 705.62,-250.25"/>
<text text-anchor="middle" x="638" y="-236.75" font-family="Helvetica,sans-Serif" font-size="10.00">sss::WebClient::UploadFile</text>
</a>
</g>
</g>
<!-- Node26&#45;&gt;Node29 -->
<g id="edge36" class="edge">
<title>Node26&#45;&gt;Node29</title>
<path fill="none" stroke="#63b8ff" d="M733.45,-252.14C724.26,-251.02 714.93,-249.88 705.91,-248.78"/>
<polygon fill="#63b8ff" stroke="#63b8ff" points="732.81,-255.71 743.16,-253.45 733.66,-248.76 732.81,-255.71"/>
</g>
<!-- Node30 -->
<g id="node30" class="node">
<title>Node30</title>
<g id="a_node30"><a xlink:href="classsss_1_1WebClient.html#accb4e986d73bb44149918fa0043ec43b" target="_top" xlink:title="Upload file starting from offset using unbuffered I/O read.">
<polygon fill="white" stroke="#666666" points="705.62,-298.88 570.38,-298.88 570.38,-268.38 705.62,-268.38 705.62,-298.88"/>
<text text-anchor="start" x="578.38" y="-285.38" font-family="Helvetica,sans-Serif" font-size="10.00">sss::WebClient::UploadFile</text>
<text text-anchor="middle" x="638" y="-274.12" font-family="Helvetica,sans-Serif" font-size="10.00">Unbuffered</text>
</a>
</g>
</g>
<!-- Node26&#45;&gt;Node30 -->
<g id="edge39" class="edge">
<title>Node26&#45;&gt;Node30</title>
<path fill="none" stroke="#63b8ff" d="M733.45,-271.56C724.26,-272.74 714.93,-273.93 705.91,-275.08"/>
<polygon fill="#63b8ff" stroke="#63b8ff" points="733.68,-274.93 743.16,-270.19 732.8,-267.99 733.68,-274.93"/>
</g>
<!-- Node27&#45;&gt;Node7 -->
<g id="edge33" class="edge">
<title>Node27&#45;&gt;Node7</title>
<path fill="none" stroke="#63b8ff" d="M577.05,-312.58C573.85,-311.02 570.73,-309.37 567.75,-307.62 549.52,-296.97 550.54,-286.25 531.75,-276.62 525.56,-273.46 518.8,-270.83 511.95,-268.66"/>
<polygon fill="#63b8ff" stroke="#63b8ff" points="575.27,-316.07 585.83,-317 578.15,-309.69 575.27,-316.07"/>
</g>
<!-- Node27&#45;&gt;Node25 -->
<g id="edge34" class="edge">
<title>Node27&#45;&gt;Node25</title>
<path fill="none" stroke="#63b8ff" d="M556.68,-316.13C539.4,-312.58 521.63,-308.93 505.97,-305.71"/>
<polygon fill="#63b8ff" stroke="#63b8ff" points="555.86,-319.74 566.36,-318.32 557.27,-312.88 555.86,-319.74"/>
</g>
<!-- Node28 -->
<g id="node28" class="node">
<title>Node28</title>
<g id="a_node28"><a xlink:href="classsss_1_1WebClient.html#ab5af9d8e7c424e49fab04f0d9d59b489" target="_top" xlink:title="Upload file starting from offset using unbuffered memory mapping of file.">
<polygon fill="white" stroke="#666666" points="531.75,-342.25 380,-342.25 380,-323 531.75,-323 531.75,-342.25"/>
<text text-anchor="middle" x="455.88" y="-328.75" font-family="Helvetica,sans-Serif" font-size="10.00">sss::WebClient::UploadFileMM</text>
</a>
</g>
</g>
<!-- Node27&#45;&gt;Node28 -->
<g id="edge35" class="edge">
<title>Node27&#45;&gt;Node28</title>
<path fill="none" stroke="#63b8ff" d="M556.39,-332.62C548.27,-332.62 540.06,-332.62 532.01,-332.62"/>
<polygon fill="#63b8ff" stroke="#63b8ff" points="556.36,-336.13 566.36,-332.62 556.36,-329.13 556.36,-336.13"/>
</g>
<!-- Node29&#45;&gt;Node6 -->
<g id="edge37" class="edge">
<title>Node29&#45;&gt;Node6</title>
<path fill="none" stroke="#63b8ff" d="M559.43,-229.43C544.88,-227.33 529.88,-225.16 516,-223.16"/>
<polygon fill="#63b8ff" stroke="#63b8ff" points="558.53,-232.98 568.93,-230.94 559.53,-226.05 558.53,-232.98"/>
</g>
<!-- Node29&#45;&gt;Node25 -->
<g id="edge38" class="edge">
<title>Node29&#45;&gt;Node25</title>
<path fill="none" stroke="#63b8ff" d="M584.79,-253.76C578.99,-255.57 573.21,-257.54 567.75,-259.62 551.04,-266.02 548.56,-271.49 531.75,-277.62 523.46,-280.65 514.47,-283.31 505.69,-285.59"/>
<polygon fill="#63b8ff" stroke="#63b8ff" points="585.6,-256.88 594.19,-250.67 583.61,-250.17 585.6,-256.88"/>
</g>
</g>
</svg>
