<?xml version="1.0" encoding="UTF-8" standalone="no"?>
<!DOCTYPE svg PUBLIC "-//W3C//DTD SVG 1.1//EN"
 "http://www.w3.org/Graphics/SVG/1.1/DTD/svg11.dtd">
<!-- Generated by graphviz version 8.0.5 (20230430.1635)
 -->
<!-- Title: /Users/ugovaretto/projects/s3client/repo/lib/include/utility.h Pages: 1 -->
<svg width="767pt" height="439pt"
 viewBox="0.00 0.00 767.25 438.50" xmlns="http://www.w3.org/2000/svg" xmlns:xlink="http://www.w3.org/1999/xlink">
<g id="graph0" class="graph" transform="scale(1 1) rotate(0) translate(4 434.5)">
<title>/Users/ugovaretto/projects/s3client/repo/lib/include/utility.h</title>
<!-- Node1 -->
<g id="node1" class="node">
<title>Node1</title>
<g id="a_node1"><a xlink:title="internal utility functions">
<polygon fill="#999999" stroke="#666666" points="500.25,-430.5 368.75,-430.5 368.75,-388.75 500.25,-388.75 500.25,-430.5"/>
<text text-anchor="start" x="376.75" y="-417" font-family="Helvetica,sans-Serif" font-size="10.00">/Users/ugovaretto/projects</text>
<text text-anchor="start" x="376.75" y="-405.75" font-family="Helvetica,sans-Serif" font-size="10.00">/s3client/repo/lib/include</text>
<text text-anchor="middle" x="434.5" y="-394.5" font-family="Helvetica,sans-Serif" font-size="10.00">/utility.h</text>
</a>
</g>
</g>
<!-- Node2 -->
<g id="node2" class="node">
<title>Node2</title>
<g id="a_node2"><a xlink:href="url__utility_8h.html" target="_top" xlink:title="Internal utility functions to process and parse text and URLs and create S3 signature keys.">
<polygon fill="white" stroke="#666666" points="453.25,-352.75 321.75,-352.75 321.75,-311 453.25,-311 453.25,-352.75"/>
<text text-anchor="start" x="329.75" y="-339.25" font-family="Helvetica,sans-Serif" font-size="10.00">/Users/ugovaretto/projects</text>
<text text-anchor="start" x="329.75" y="-328" font-family="Helvetica,sans-Serif" font-size="10.00">/s3client/repo/lib/include</text>
<text text-anchor="middle" x="387.5" y="-316.75" font-family="Helvetica,sans-Serif" font-size="10.00">/url_utility.h</text>
</a>
</g>
</g>
<!-- Node1&#45;&gt;Node2 -->
<g id="edge1" class="edge">
<title>Node1&#45;&gt;Node2</title>
<path fill="none" stroke="#63b8ff" d="M416.26,-379.23C410.87,-370.54 405.09,-361.22 400.13,-353.23"/>
<polygon fill="#63b8ff" stroke="#63b8ff" points="413.66,-380.67 421.9,-387.33 419.61,-376.98 413.66,-380.67"/>
</g>
<!-- Node11 -->
<g id="node11" class="node">
<title>Node11</title>
<g id="a_node11"><a xlink:href="webclient_8h.html" target="_top" xlink:title="declaration of WebClient class wrapping libcurl to send web requests.">
<polygon fill="white" stroke="#666666" points="603.25,-275 471.75,-275 471.75,-233.25 603.25,-233.25 603.25,-275"/>
<text text-anchor="start" x="479.75" y="-261.5" font-family="Helvetica,sans-Serif" font-size="10.00">/Users/ugovaretto/projects</text>
<text text-anchor="start" x="479.75" y="-250.25" font-family="Helvetica,sans-Serif" font-size="10.00">/s3client/repo/lib/include</text>
<text text-anchor="middle" x="537.5" y="-239" font-family="Helvetica,sans-Serif" font-size="10.00">/webclient.h</text>
</a>
</g>
</g>
<!-- Node1&#45;&gt;Node11 -->
<g id="edge17" class="edge">
<title>Node1&#45;&gt;Node11</title>
<path fill="none" stroke="#63b8ff" d="M453.93,-379.66C474.42,-349.14 506.14,-301.86 524.03,-275.2"/>
<polygon fill="#63b8ff" stroke="#63b8ff" points="450.63,-377.3 447.97,-387.56 456.44,-381.2 450.63,-377.3"/>
</g>
<!-- Node3 -->
<g id="node3" class="node">
<title>Node3</title>
<g id="a_node3"><a xlink:href="parallel__upload_8cpp.html" target="_top" xlink:title="Parallel upload to S3 service.">
<polygon fill="white" stroke="#666666" points="307.62,-119.5 175.38,-119.5 175.38,-77.75 307.62,-77.75 307.62,-119.5"/>
<text text-anchor="start" x="183.38" y="-106" font-family="Helvetica,sans-Serif" font-size="10.00">/Users/ugovaretto/projects</text>
<text text-anchor="start" x="183.38" y="-94.75" font-family="Helvetica,sans-Serif" font-size="10.00">/s3client/repo/apps/parallel</text>
<text text-anchor="middle" x="241.5" y="-83.5" font-family="Helvetica,sans-Serif" font-size="10.00">_upload.cpp</text>
</a>
</g>
</g>
<!-- Node2&#45;&gt;Node3 -->
<g id="edge2" class="edge">
<title>Node2&#45;&gt;Node3</title>
<path fill="none" stroke="#63b8ff" d="M343.5,-304.3C332.3,-295.99 321.04,-286.05 312.5,-275 274.76,-226.12 254.16,-154.45 245.88,-119.83"/>
<polygon fill="#63b8ff" stroke="#63b8ff" points="341.23,-307.69 351.41,-310.62 345.28,-301.98 341.23,-307.69"/>
</g>
<!-- Node4 -->
<g id="node4" class="node">
<title>Node4</title>
<g id="a_node4"><a xlink:href="apps_2s3-client_8cpp.html" target="_top" xlink:title="Send S3v4&#45;signed requests to S3 andpoint and print raw responses.">
<polygon fill="white" stroke="#666666" points="157,-113.88 0,-113.88 0,-83.38 157,-83.38 157,-113.88"/>
<text text-anchor="start" x="8" y="-100.38" font-family="Helvetica,sans-Serif" font-size="10.00">/Users/ugovaretto/projects</text>
<text text-anchor="middle" x="78.5" y="-89.12" font-family="Helvetica,sans-Serif" font-size="10.00">/s3client/repo/apps/s3&#45;client.cpp</text>
</a>
</g>
</g>
<!-- Node2&#45;&gt;Node4 -->
<g id="edge3" class="edge">
<title>Node2&#45;&gt;Node4</title>
<path fill="none" stroke="#63b8ff" d="M335.06,-305.51C318.15,-296.6 299.62,-286.03 283.5,-275 206.59,-222.35 125.38,-145.58 93.03,-114.01"/>
<polygon fill="#63b8ff" stroke="#63b8ff" points="333.31,-309.06 343.8,-310.56 336.53,-302.85 333.31,-309.06"/>
</g>
<!-- Node5 -->
<g id="node5" class="node">
<title>Node5</title>
<g id="a_node5"><a xlink:href="aws__sign_8h.html" target="_top" xlink:title="Public interface to signing URLs and HTTP headers with the S3v4 protocol standard.">
<polygon fill="white" stroke="#666666" points="453.25,-275 321.75,-275 321.75,-233.25 453.25,-233.25 453.25,-275"/>
<text text-anchor="start" x="329.75" y="-261.5" font-family="Helvetica,sans-Serif" font-size="10.00">/Users/ugovaretto/projects</text>
<text text-anchor="start" x="329.75" y="-250.25" font-family="Helvetica,sans-Serif" font-size="10.00">/s3client/repo/lib/include</text>
<text text-anchor="middle" x="387.5" y="-239" font-family="Helvetica,sans-Serif" font-size="10.00">/aws_sign.h</text>
</a>
</g>
</g>
<!-- Node2&#45;&gt;Node5 -->
<g id="edge4" class="edge">
<title>Node2&#45;&gt;Node5</title>
<path fill="none" stroke="#63b8ff" d="M387.5,-299.81C387.5,-291.61 387.5,-282.96 387.5,-275.48"/>
<polygon fill="#63b8ff" stroke="#63b8ff" points="384,-299.58 387.5,-309.58 391,-299.58 384,-299.58"/>
</g>
<!-- Node2&#45;&gt;Node11 -->
<g id="edge13" class="edge">
<title>Node2&#45;&gt;Node11</title>
<path fill="none" stroke="#63b8ff" d="M437.31,-305.72C456.76,-295.9 478.77,-284.79 497.19,-275.48"/>
<polygon fill="#63b8ff" stroke="#63b8ff" points="436.05,-302.94 428.7,-310.58 439.2,-309.19 436.05,-302.94"/>
</g>
<!-- Node6 -->
<g id="node6" class="node">
<title>Node6</title>
<g id="a_node6"><a xlink:href="s3-api_8h.html" target="_top" xlink:title="declarations of S3Client class;">
<polygon fill="white" stroke="#666666" points="759.25,-119.5 627.75,-119.5 627.75,-77.75 759.25,-77.75 759.25,-119.5"/>
<text text-anchor="start" x="635.75" y="-106" font-family="Helvetica,sans-Serif" font-size="10.00">/Users/ugovaretto/projects</text>
<text text-anchor="start" x="635.75" y="-94.75" font-family="Helvetica,sans-Serif" font-size="10.00">/s3client/repo/lib/include</text>
<text text-anchor="middle" x="693.5" y="-83.5" font-family="Helvetica,sans-Serif" font-size="10.00">/s3&#45;api.h</text>
</a>
</g>
</g>
<!-- Node5&#45;&gt;Node6 -->
<g id="edge5" class="edge">
<title>Node5&#45;&gt;Node6</title>
<path fill="none" stroke="#63b8ff" d="M425.06,-226.84C461.19,-201.83 513.46,-166.46 535.5,-155.5 564.68,-140.99 598.57,-128.48 627.46,-119"/>
<polygon fill="#63b8ff" stroke="#63b8ff" points="423.48,-224.37 417.26,-232.95 427.47,-230.12 423.48,-224.37"/>
</g>
<!-- Node8 -->
<g id="node8" class="node">
<title>Node8</title>
<g id="a_node8"><a xlink:href="s3-client_8h.html" target="_top" xlink:title="declaration of functions and data types for sending S3 requests, signing URLs and downloading and upl...">
<polygon fill="white" stroke="#666666" points="458.25,-197.25 326.75,-197.25 326.75,-155.5 458.25,-155.5 458.25,-197.25"/>
<text text-anchor="start" x="334.75" y="-183.75" font-family="Helvetica,sans-Serif" font-size="10.00">/Users/ugovaretto/projects</text>
<text text-anchor="start" x="334.75" y="-172.5" font-family="Helvetica,sans-Serif" font-size="10.00">/s3client/repo/lib/include</text>
<text text-anchor="middle" x="392.5" y="-161.25" font-family="Helvetica,sans-Serif" font-size="10.00">/s3&#45;client.h</text>
</a>
</g>
</g>
<!-- Node5&#45;&gt;Node8 -->
<g id="edge7" class="edge">
<title>Node5&#45;&gt;Node8</title>
<path fill="none" stroke="#63b8ff" d="M389.55,-222.06C390.09,-213.86 390.66,-205.21 391.16,-197.73"/>
<polygon fill="#63b8ff" stroke="#63b8ff" points="386.01,-221.62 388.84,-231.83 392.99,-222.08 386.01,-221.62"/>
</g>
<!-- Node7 -->
<g id="node7" class="node">
<title>Node7</title>
<g id="a_node7"><a xlink:href="bucket-test_8cpp.html" target="_top" xlink:title="bucket tests">
<polygon fill="white" stroke="#666666" points="759.25,-41.75 627.75,-41.75 627.75,0 759.25,0 759.25,-41.75"/>
<text text-anchor="start" x="635.75" y="-28.25" font-family="Helvetica,sans-Serif" font-size="10.00">/Users/ugovaretto/projects</text>
<text text-anchor="start" x="635.75" y="-17" font-family="Helvetica,sans-Serif" font-size="10.00">/s3client/repo/test/api</text>
<text text-anchor="middle" x="693.5" y="-5.75" font-family="Helvetica,sans-Serif" font-size="10.00">/bucket&#45;test.cpp</text>
</a>
</g>
</g>
<!-- Node6&#45;&gt;Node7 -->
<g id="edge6" class="edge">
<title>Node6&#45;&gt;Node7</title>
<path fill="none" stroke="#63b8ff" d="M693.5,-66.56C693.5,-58.36 693.5,-49.71 693.5,-42.23"/>
<polygon fill="#63b8ff" stroke="#63b8ff" points="690,-66.33 693.5,-76.33 697,-66.33 690,-66.33"/>
</g>
<!-- Node8&#45;&gt;Node3 -->
<g id="edge9" class="edge">
<title>Node8&#45;&gt;Node3</title>
<path fill="none" stroke="#63b8ff" d="M342.36,-150.22C322.78,-140.4 300.63,-129.29 282.08,-119.98"/>
<polygon fill="#63b8ff" stroke="#63b8ff" points="340.53,-153.72 351.03,-155.08 343.67,-147.46 340.53,-153.72"/>
</g>
<!-- Node8&#45;&gt;Node4 -->
<g id="edge11" class="edge">
<title>Node8&#45;&gt;Node4</title>
<path fill="none" stroke="#63b8ff" d="M315.7,-156.85C261.5,-143.77 189.87,-126.49 139.56,-114.35"/>
<polygon fill="#63b8ff" stroke="#63b8ff" points="314.75,-160.46 325.29,-159.4 316.39,-153.66 314.75,-160.46"/>
</g>
<!-- Node8&#45;&gt;Node6 -->
<g id="edge12" class="edge">
<title>Node8&#45;&gt;Node6</title>
<path fill="none" stroke="#63b8ff" d="M468.92,-156.82C512.74,-146.09 568.76,-132.24 618.5,-119.5 621.37,-118.76 624.3,-118.01 627.26,-117.24"/>
<polygon fill="#63b8ff" stroke="#63b8ff" points="468.22,-153.63 459.34,-159.4 469.88,-160.43 468.22,-153.63"/>
</g>
<!-- Node9 -->
<g id="node9" class="node">
<title>Node9</title>
<g id="a_node9"><a xlink:href="parallel__download_8cpp.html" target="_top" xlink:title="Parallel object download download from S3 service.">
<polygon fill="white" stroke="#666666" points="609.62,-119.5 477.38,-119.5 477.38,-77.75 609.62,-77.75 609.62,-119.5"/>
<text text-anchor="start" x="485.38" y="-106" font-family="Helvetica,sans-Serif" font-size="10.00">/Users/ugovaretto/projects</text>
<text text-anchor="start" x="485.38" y="-94.75" font-family="Helvetica,sans-Serif" font-size="10.00">/s3client/repo/apps/parallel</text>
<text text-anchor="middle" x="543.5" y="-83.5" font-family="Helvetica,sans-Serif" font-size="10.00">_download.cpp</text>
</a>
</g>
</g>
<!-- Node8&#45;&gt;Node9 -->
<g id="edge8" class="edge">
<title>Node8&#45;&gt;Node9</title>
<path fill="none" stroke="#63b8ff" d="M442.64,-150.22C462.22,-140.4 484.37,-129.29 502.92,-119.98"/>
<polygon fill="#63b8ff" stroke="#63b8ff" points="441.33,-147.46 433.97,-155.08 444.47,-153.72 441.33,-147.46"/>
</g>
<!-- Node10 -->
<g id="node10" class="node">
<title>Node10</title>
<g id="a_node10"><a xlink:href="presign__url_8cpp.html" target="_top" xlink:title="Presign URL.">
<polygon fill="white" stroke="#666666" points="459,-119.5 326,-119.5 326,-77.75 459,-77.75 459,-119.5"/>
<text text-anchor="start" x="334" y="-106" font-family="Helvetica,sans-Serif" font-size="10.00">/Users/ugovaretto/projects</text>
<text text-anchor="start" x="334" y="-94.75" font-family="Helvetica,sans-Serif" font-size="10.00">/s3client/repo/apps/presign</text>
<text text-anchor="middle" x="392.5" y="-83.5" font-family="Helvetica,sans-Serif" font-size="10.00">_url.cpp</text>
</a>
</g>
</g>
<!-- Node8&#45;&gt;Node10 -->
<g id="edge10" class="edge">
<title>Node8&#45;&gt;Node10</title>
<path fill="none" stroke="#63b8ff" d="M392.5,-144.31C392.5,-136.11 392.5,-127.46 392.5,-119.98"/>
<polygon fill="#63b8ff" stroke="#63b8ff" points="389,-144.08 392.5,-154.08 396,-144.08 389,-144.08"/>
</g>
<!-- Node11&#45;&gt;Node6 -->
<g id="edge14" class="edge">
<title>Node11&#45;&gt;Node6</title>
<path fill="none" stroke="#63b8ff" d="M536.24,-221.93C537.01,-200.99 541.33,-173.96 556.5,-155.5 566.37,-143.49 597.51,-130.35 627.62,-119.84"/>
<polygon fill="#63b8ff" stroke="#63b8ff" points="532.73,-221.8 536.13,-231.84 539.73,-221.87 532.73,-221.8"/>
</g>
<!-- Node11&#45;&gt;Node8 -->
<g id="edge15" class="edge">
<title>Node11&#45;&gt;Node8</title>
<path fill="none" stroke="#63b8ff" d="M489.1,-227.84C470.36,-218.05 449.19,-206.99 431.46,-197.73"/>
<polygon fill="#63b8ff" stroke="#63b8ff" points="487.16,-231.3 497.64,-232.83 490.4,-225.09 487.16,-231.3"/>
</g>
<!-- Node12 -->
<g id="node12" class="node">
<title>Node12</title>
<g id="a_node12"><a xlink:href="webclient_8cpp.html" target="_top" xlink:title="implementation of WebClient class, wrapper around libcurl">
<polygon fill="white" stroke="#666666" points="731.88,-191.62 565.12,-191.62 565.12,-161.12 731.88,-161.12 731.88,-191.62"/>
<text text-anchor="start" x="573.12" y="-178.12" font-family="Helvetica,sans-Serif" font-size="10.00">/Users/ugovaretto/projects</text>
<text text-anchor="middle" x="648.5" y="-166.88" font-family="Helvetica,sans-Serif" font-size="10.00">/s3client/repo/lib/src/webclient.cpp</text>
</a>
</g>
</g>
<!-- Node11&#45;&gt;Node12 -->
<g id="edge16" class="edge">
<title>Node11&#45;&gt;Node12</title>
<path fill="none" stroke="#63b8ff" d="M575.95,-226.88C593.09,-215.19 612.64,-201.85 627.12,-191.96"/>
<polygon fill="#63b8ff" stroke="#63b8ff" points="574.53,-224.3 568.25,-232.83 578.48,-230.08 574.53,-224.3"/>
</g>
</g>
</svg>
