<?xml version="1.0" encoding="UTF-8" standalone="no"?>
<!DOCTYPE svg PUBLIC "-//W3C//DTD SVG 1.1//EN"
 "http://www.w3.org/Graphics/SVG/1.1/DTD/svg11.dtd">
<!-- Generated by graphviz version 2.43.0 (0)
 -->
<!-- Title: /home/ugovaretto/projects/uv&#45;cpp/s3client/repo/lib/include/utility.h Pages: 1 -->
<svg width="2399pt" height="529pt"
 viewBox="0.00 0.00 2399.00 529.00" xmlns="http://www.w3.org/2000/svg" xmlns:xlink="http://www.w3.org/1999/xlink">
<g id="graph0" class="graph" transform="scale(1 1) rotate(0) translate(4 525)">
<title>/home/ugovaretto/projects/uv&#45;cpp/s3client/repo/lib/include/utility.h</title>
<!-- Node1 -->
<g id="node1" class="node">
<title>Node1</title>
<g id="a_node1"><a xlink:title="internal utility functions">
<polygon fill="#bfbfbf" stroke="black" points="1166,-479.5 1166,-520.5 1296,-520.5 1296,-479.5 1166,-479.5"/>
<text text-anchor="start" x="1174" y="-508.5" font-family="Helvetica,sans-Serif" font-size="10.00">/home/ugovaretto/projects</text>
<text text-anchor="start" x="1174" y="-497.5" font-family="Helvetica,sans-Serif" font-size="10.00">/uv&#45;cpp/s3client/repo/lib</text>
<text text-anchor="middle" x="1231" y="-486.5" font-family="Helvetica,sans-Serif" font-size="10.00">/include/utility.h</text>
</a>
</g>
</g>
<!-- Node2 -->
<g id="node2" class="node">
<title>Node2</title>
<g id="a_node2"><a xlink:href="url__utility_8h.html" target="_top" xlink:title="Internal utility functions to process and parse text and URLs and create S3 signature keys.">
<polygon fill="none" stroke="black" points="1120,-401.5 1120,-442.5 1250,-442.5 1250,-401.5 1120,-401.5"/>
<text text-anchor="start" x="1128" y="-430.5" font-family="Helvetica,sans-Serif" font-size="10.00">/home/ugovaretto/projects</text>
<text text-anchor="start" x="1128" y="-419.5" font-family="Helvetica,sans-Serif" font-size="10.00">/uv&#45;cpp/s3client/repo/lib</text>
<text text-anchor="middle" x="1185" y="-408.5" font-family="Helvetica,sans-Serif" font-size="10.00">/include/url_utility.h</text>
</a>
</g>
</g>
<!-- Node1&#45;&gt;Node2 -->
<g id="edge1" class="edge">
<title>Node1&#45;&gt;Node2</title>
<path fill="none" stroke="midnightblue" d="M1213.91,-470.76C1208.21,-461.35 1202.01,-451.1 1196.81,-442.51"/>
<polygon fill="midnightblue" stroke="midnightblue" points="1210.98,-472.69 1219.15,-479.43 1216.97,-469.06 1210.98,-472.69"/>
</g>
<!-- Node31 -->
<g id="node31" class="node">
<title>Node31</title>
<g id="a_node31"><a xlink:href="webclient_8h.html" target="_top" xlink:title="declaration of WebClient class wrapping libcurl to send web requests.">
<polygon fill="none" stroke="black" points="1251,-323.5 1251,-364.5 1381,-364.5 1381,-323.5 1251,-323.5"/>
<text text-anchor="start" x="1259" y="-352.5" font-family="Helvetica,sans-Serif" font-size="10.00">/home/ugovaretto/projects</text>
<text text-anchor="start" x="1259" y="-341.5" font-family="Helvetica,sans-Serif" font-size="10.00">/uv&#45;cpp/s3client/repo/lib</text>
<text text-anchor="middle" x="1316" y="-330.5" font-family="Helvetica,sans-Serif" font-size="10.00">/include/webclient.h</text>
</a>
</g>
</g>
<!-- Node1&#45;&gt;Node31 -->
<g id="edge59" class="edge">
<title>Node1&#45;&gt;Node31</title>
<path fill="none" stroke="midnightblue" d="M1246.69,-470.56C1263.65,-439.85 1290.22,-391.71 1305.05,-364.83"/>
<polygon fill="midnightblue" stroke="midnightblue" points="1243.53,-469.05 1241.77,-479.5 1249.66,-472.43 1243.53,-469.05"/>
</g>
<!-- Node3 -->
<g id="node3" class="node">
<title>Node3</title>
<g id="a_node3"><a xlink:href="apps_2s3-client_8cpp.html" target="_top" xlink:title="Send S3v4&#45;signed requests to S3 andpoint and print raw responses.">
<polygon fill="none" stroke="black" points="1119.5,-167.5 1119.5,-208.5 1250.5,-208.5 1250.5,-167.5 1119.5,-167.5"/>
<text text-anchor="start" x="1127.5" y="-196.5" font-family="Helvetica,sans-Serif" font-size="10.00">/home/ugovaretto/projects</text>
<text text-anchor="start" x="1127.5" y="-185.5" font-family="Helvetica,sans-Serif" font-size="10.00">/uv&#45;cpp/s3client/repo/apps</text>
<text text-anchor="middle" x="1185" y="-174.5" font-family="Helvetica,sans-Serif" font-size="10.00">/s3&#45;client.cpp</text>
</a>
</g>
</g>
<!-- Node2&#45;&gt;Node3 -->
<g id="edge2" class="edge">
<title>Node2&#45;&gt;Node3</title>
<path fill="none" stroke="midnightblue" d="M1185,-391.11C1185,-342.94 1185,-249.44 1185,-208.73"/>
<polygon fill="midnightblue" stroke="midnightblue" points="1181.5,-391.22 1185,-401.22 1188.5,-391.22 1181.5,-391.22"/>
</g>
<!-- Node4 -->
<g id="node4" class="node">
<title>Node4</title>
<g id="a_node4"><a xlink:href="parallel__upload_8cpp.html" target="_top" xlink:title="Parallel upload to S3 service.">
<polygon fill="none" stroke="black" points="1268.5,-167.5 1268.5,-208.5 1399.5,-208.5 1399.5,-167.5 1268.5,-167.5"/>
<text text-anchor="start" x="1276.5" y="-196.5" font-family="Helvetica,sans-Serif" font-size="10.00">/home/ugovaretto/projects</text>
<text text-anchor="start" x="1276.5" y="-185.5" font-family="Helvetica,sans-Serif" font-size="10.00">/uv&#45;cpp/s3client/repo/apps</text>
<text text-anchor="middle" x="1334" y="-174.5" font-family="Helvetica,sans-Serif" font-size="10.00">/parallel_upload.cpp</text>
</a>
</g>
</g>
<!-- Node2&#45;&gt;Node4 -->
<g id="edge3" class="edge">
<title>Node2&#45;&gt;Node4</title>
<path fill="none" stroke="midnightblue" d="M1193.31,-391.6C1206.76,-344.63 1232.73,-256.74 1242,-245 1254.05,-229.74 1271.5,-217.64 1287.96,-208.64"/>
<polygon fill="midnightblue" stroke="midnightblue" points="1189.94,-390.65 1190.56,-401.23 1196.67,-392.57 1189.94,-390.65"/>
</g>
<!-- Node5 -->
<g id="node5" class="node">
<title>Node5</title>
<g id="a_node5"><a xlink:href="aws__sign_8cpp_source.html" target="_top" xlink:title=" ">
<polygon fill="none" stroke="black" points="0,-245.5 0,-286.5 130,-286.5 130,-245.5 0,-245.5"/>
<text text-anchor="start" x="8" y="-274.5" font-family="Helvetica,sans-Serif" font-size="10.00">/home/ugovaretto/projects</text>
<text text-anchor="start" x="8" y="-263.5" font-family="Helvetica,sans-Serif" font-size="10.00">/uv&#45;cpp/s3client/repo/lib</text>
<text text-anchor="middle" x="65" y="-252.5" font-family="Helvetica,sans-Serif" font-size="10.00">/src/aws_sign.cpp</text>
</a>
</g>
</g>
<!-- Node2&#45;&gt;Node5 -->
<g id="edge4" class="edge">
<title>Node2&#45;&gt;Node5</title>
<path fill="none" stroke="midnightblue" d="M1109.6,-419.43C924.76,-415.07 453.03,-400.69 300,-365 226.39,-347.83 146.26,-309.87 101.17,-286.56"/>
<polygon fill="midnightblue" stroke="midnightblue" points="1109.69,-422.93 1119.77,-419.67 1109.86,-415.94 1109.69,-422.93"/>
</g>
<!-- Node6 -->
<g id="node6" class="node">
<title>Node6</title>
<g id="a_node6"><a xlink:href="aws__sign_8h.html" target="_top" xlink:title="Public interface to signing URLs and HTTP headers with the S3v4 protocol standard.">
<polygon fill="none" stroke="black" points="309,-323.5 309,-364.5 439,-364.5 439,-323.5 309,-323.5"/>
<text text-anchor="start" x="317" y="-352.5" font-family="Helvetica,sans-Serif" font-size="10.00">/home/ugovaretto/projects</text>
<text text-anchor="start" x="317" y="-341.5" font-family="Helvetica,sans-Serif" font-size="10.00">/uv&#45;cpp/s3client/repo/lib</text>
<text text-anchor="middle" x="374" y="-330.5" font-family="Helvetica,sans-Serif" font-size="10.00">/include/aws_sign.h</text>
</a>
</g>
</g>
<!-- Node2&#45;&gt;Node6 -->
<g id="edge5" class="edge">
<title>Node2&#45;&gt;Node6</title>
<path fill="none" stroke="midnightblue" d="M1109.55,-413.93C951.5,-399.12 587.97,-365.05 439.23,-351.11"/>
<polygon fill="midnightblue" stroke="midnightblue" points="1109.38,-417.43 1119.66,-414.88 1110.03,-410.46 1109.38,-417.43"/>
</g>
<!-- Node30 -->
<g id="node30" class="node">
<title>Node30</title>
<g id="a_node30"><a xlink:href="url__utility_8cpp_source.html" target="_top" xlink:title=" ">
<polygon fill="none" stroke="black" points="1027,-323.5 1027,-364.5 1157,-364.5 1157,-323.5 1027,-323.5"/>
<text text-anchor="start" x="1035" y="-352.5" font-family="Helvetica,sans-Serif" font-size="10.00">/home/ugovaretto/projects</text>
<text text-anchor="start" x="1035" y="-341.5" font-family="Helvetica,sans-Serif" font-size="10.00">/uv&#45;cpp/s3client/repo/lib</text>
<text text-anchor="middle" x="1092" y="-330.5" font-family="Helvetica,sans-Serif" font-size="10.00">/src/url_utility.cpp</text>
</a>
</g>
</g>
<!-- Node2&#45;&gt;Node30 -->
<g id="edge49" class="edge">
<title>Node2&#45;&gt;Node30</title>
<path fill="none" stroke="midnightblue" d="M1153.26,-395.06C1141.02,-385.06 1127.25,-373.8 1115.87,-364.51"/>
<polygon fill="midnightblue" stroke="midnightblue" points="1151.09,-397.81 1161.05,-401.43 1155.52,-392.39 1151.09,-397.81"/>
</g>
<!-- Node2&#45;&gt;Node31 -->
<g id="edge50" class="edge">
<title>Node2&#45;&gt;Node31</title>
<path fill="none" stroke="midnightblue" d="M1227.74,-396.2C1245.47,-385.92 1265.74,-374.16 1282.38,-364.51"/>
<polygon fill="midnightblue" stroke="midnightblue" points="1225.63,-393.38 1218.74,-401.43 1229.14,-399.44 1225.63,-393.38"/>
</g>
<!-- Node6&#45;&gt;Node5 -->
<g id="edge11" class="edge">
<title>Node6&#45;&gt;Node5</title>
<path fill="none" stroke="midnightblue" d="M298.57,-324.82C253.66,-313.95 195.54,-299.8 144,-287 139.47,-285.87 134.79,-284.71 130.09,-283.53"/>
<polygon fill="midnightblue" stroke="midnightblue" points="297.99,-328.28 308.53,-327.23 299.63,-321.47 297.99,-328.28"/>
</g>
<!-- Node7 -->
<g id="node7" class="node">
<title>Node7</title>
<g id="a_node7"><a xlink:href="presign-url-test_8cpp_source.html" target="_top" xlink:title=" ">
<polygon fill="none" stroke="black" points="410,-167.5 410,-208.5 540,-208.5 540,-167.5 410,-167.5"/>
<text text-anchor="start" x="418" y="-196.5" font-family="Helvetica,sans-Serif" font-size="10.00">/home/ugovaretto/projects</text>
<text text-anchor="start" x="418" y="-185.5" font-family="Helvetica,sans-Serif" font-size="10.00">/uv&#45;cpp/s3client/repo/test</text>
<text text-anchor="middle" x="475" y="-174.5" font-family="Helvetica,sans-Serif" font-size="10.00">/presign&#45;url&#45;test.cpp</text>
</a>
</g>
</g>
<!-- Node6&#45;&gt;Node7 -->
<g id="edge6" class="edge">
<title>Node6&#45;&gt;Node7</title>
<path fill="none" stroke="midnightblue" d="M392.39,-314.96C412.52,-284.26 444.29,-235.82 461.99,-208.83"/>
<polygon fill="midnightblue" stroke="midnightblue" points="389.35,-313.21 386.79,-323.5 395.2,-317.05 389.35,-313.21"/>
</g>
<!-- Node8 -->
<g id="node8" class="node">
<title>Node8</title>
<g id="a_node8"><a xlink:href="sign-test_8cpp_source.html" target="_top" xlink:title=" ">
<polygon fill="none" stroke="black" points="558,-167.5 558,-208.5 688,-208.5 688,-167.5 558,-167.5"/>
<text text-anchor="start" x="566" y="-196.5" font-family="Helvetica,sans-Serif" font-size="10.00">/home/ugovaretto/projects</text>
<text text-anchor="start" x="566" y="-185.5" font-family="Helvetica,sans-Serif" font-size="10.00">/uv&#45;cpp/s3client/repo/test</text>
<text text-anchor="middle" x="623" y="-174.5" font-family="Helvetica,sans-Serif" font-size="10.00">/sign&#45;test.cpp</text>
</a>
</g>
</g>
<!-- Node6&#45;&gt;Node8 -->
<g id="edge7" class="edge">
<title>Node6&#45;&gt;Node8</title>
<path fill="none" stroke="midnightblue" d="M414.05,-318.23C463.38,-287.72 546.19,-236.5 591.33,-208.59"/>
<polygon fill="midnightblue" stroke="midnightblue" points="412.2,-315.26 405.54,-323.5 415.88,-321.21 412.2,-315.26"/>
</g>
<!-- Node9 -->
<g id="node9" class="node">
<title>Node9</title>
<g id="a_node9"><a xlink:href="multipart__upload_8cpp_source.html" target="_top" xlink:title=" ">
<polygon fill="none" stroke="black" points="806,-89.5 806,-130.5 948,-130.5 948,-89.5 806,-89.5"/>
<text text-anchor="start" x="814" y="-118.5" font-family="Helvetica,sans-Serif" font-size="10.00">/home/ugovaretto/projects</text>
<text text-anchor="start" x="814" y="-107.5" font-family="Helvetica,sans-Serif" font-size="10.00">/uv&#45;cpp/s3client/repo/lib</text>
<text text-anchor="middle" x="877" y="-96.5" font-family="Helvetica,sans-Serif" font-size="10.00">/src/api/multipart_upload.cpp</text>
</a>
</g>
</g>
<!-- Node6&#45;&gt;Node9 -->
<g id="edge8" class="edge">
<title>Node6&#45;&gt;Node9</title>
<path fill="none" stroke="midnightblue" d="M298.79,-334.25C269.2,-326.7 238.04,-312.75 220,-287 189.4,-243.32 183.5,-205.88 220,-167 263.44,-120.73 727.2,-140.14 790,-131 795.21,-130.24 800.58,-129.33 805.96,-128.32"/>
<polygon fill="midnightblue" stroke="midnightblue" points="298.21,-337.71 308.75,-336.57 299.8,-330.89 298.21,-337.71"/>
</g>
<!-- Node10 -->
<g id="node10" class="node">
<title>Node10</title>
<g id="a_node10"><a xlink:href="bucket_8cpp_source.html" target="_top" xlink:title=" ">
<polygon fill="none" stroke="black" points="651,-89.5 651,-130.5 781,-130.5 781,-89.5 651,-89.5"/>
<text text-anchor="start" x="659" y="-118.5" font-family="Helvetica,sans-Serif" font-size="10.00">/home/ugovaretto/projects</text>
<text text-anchor="start" x="659" y="-107.5" font-family="Helvetica,sans-Serif" font-size="10.00">/uv&#45;cpp/s3client/repo/lib</text>
<text text-anchor="middle" x="716" y="-96.5" font-family="Helvetica,sans-Serif" font-size="10.00">/src/api/bucket.cpp</text>
</a>
</g>
</g>
<!-- Node6&#45;&gt;Node10 -->
<g id="edge9" class="edge">
<title>Node6&#45;&gt;Node10</title>
<path fill="none" stroke="midnightblue" d="M298.57,-330.53C251.18,-320.98 196.39,-306.19 182,-287 150,-244.33 146.31,-206.63 182,-167 212.88,-132.71 515.43,-117.96 650.94,-113.04"/>
<polygon fill="midnightblue" stroke="midnightblue" points="298.06,-333.99 308.55,-332.48 299.41,-327.13 298.06,-333.99"/>
</g>
<!-- Node11 -->
<g id="node11" class="node">
<title>Node11</title>
<g id="a_node11"><a xlink:href="object_8cpp_source.html" target="_top" xlink:title=" ">
<polygon fill="none" stroke="black" points="970,-89.5 970,-130.5 1100,-130.5 1100,-89.5 970,-89.5"/>
<text text-anchor="start" x="978" y="-118.5" font-family="Helvetica,sans-Serif" font-size="10.00">/home/ugovaretto/projects</text>
<text text-anchor="start" x="978" y="-107.5" font-family="Helvetica,sans-Serif" font-size="10.00">/uv&#45;cpp/s3client/repo/lib</text>
<text text-anchor="middle" x="1035" y="-96.5" font-family="Helvetica,sans-Serif" font-size="10.00">/src/api/object.cpp</text>
</a>
</g>
</g>
<!-- Node6&#45;&gt;Node11 -->
<g id="edge10" class="edge">
<title>Node6&#45;&gt;Node11</title>
<path fill="none" stroke="midnightblue" d="M334.65,-317.38C283.96,-281.39 207.49,-214.9 253,-167 306.95,-110.22 879.57,-142.79 957,-131 961.15,-130.37 965.39,-129.61 969.66,-128.76"/>
<polygon fill="midnightblue" stroke="midnightblue" points="332.95,-320.47 343.16,-323.31 336.95,-314.72 332.95,-320.47"/>
</g>
<!-- Node12 -->
<g id="node12" class="node">
<title>Node12</title>
<g id="a_node12"><a xlink:href="s3-client_8h.html" target="_top" xlink:title="declaration of functions and data types for sending S3 requests, signing URLs and downloading and upl...">
<polygon fill="none" stroke="black" points="783,-245.5 783,-286.5 913,-286.5 913,-245.5 783,-245.5"/>
<text text-anchor="start" x="791" y="-274.5" font-family="Helvetica,sans-Serif" font-size="10.00">/home/ugovaretto/projects</text>
<text text-anchor="start" x="791" y="-263.5" font-family="Helvetica,sans-Serif" font-size="10.00">/uv&#45;cpp/s3client/repo/lib</text>
<text text-anchor="middle" x="848" y="-252.5" font-family="Helvetica,sans-Serif" font-size="10.00">/include/s3&#45;client.h</text>
</a>
</g>
</g>
<!-- Node6&#45;&gt;Node12 -->
<g id="edge12" class="edge">
<title>Node6&#45;&gt;Node12</title>
<path fill="none" stroke="midnightblue" d="M449.5,-330.89C541.6,-316.13 695.76,-291.41 782.88,-277.44"/>
<polygon fill="midnightblue" stroke="midnightblue" points="448.73,-327.47 439.41,-332.51 449.84,-334.38 448.73,-327.47"/>
</g>
<!-- Node15 -->
<g id="node15" class="node">
<title>Node15</title>
<g id="a_node15"><a xlink:href="lib_2src_2s3-client_8cpp_source.html" target="_top" xlink:title=" ">
<polygon fill="none" stroke="black" points="262,-167.5 262,-208.5 392,-208.5 392,-167.5 262,-167.5"/>
<text text-anchor="start" x="270" y="-196.5" font-family="Helvetica,sans-Serif" font-size="10.00">/home/ugovaretto/projects</text>
<text text-anchor="start" x="270" y="-185.5" font-family="Helvetica,sans-Serif" font-size="10.00">/uv&#45;cpp/s3client/repo/lib</text>
<text text-anchor="middle" x="327" y="-174.5" font-family="Helvetica,sans-Serif" font-size="10.00">/src/s3&#45;client.cpp</text>
</a>
</g>
</g>
<!-- Node6&#45;&gt;Node15 -->
<g id="edge47" class="edge">
<title>Node6&#45;&gt;Node15</title>
<path fill="none" stroke="midnightblue" d="M365.08,-313.77C355.69,-283.02 341.18,-235.47 333.05,-208.83"/>
<polygon fill="midnightblue" stroke="midnightblue" points="361.78,-314.95 368.05,-323.5 368.48,-312.91 361.78,-314.95"/>
</g>
<!-- Node16 -->
<g id="node16" class="node">
<title>Node16</title>
<g id="a_node16"><a xlink:href="s3-api_8h.html" target="_top" xlink:title="declarations of S3Api class.">
<polygon fill="none" stroke="black" points="1494,-167.5 1494,-208.5 1624,-208.5 1624,-167.5 1494,-167.5"/>
<text text-anchor="start" x="1502" y="-196.5" font-family="Helvetica,sans-Serif" font-size="10.00">/home/ugovaretto/projects</text>
<text text-anchor="start" x="1502" y="-185.5" font-family="Helvetica,sans-Serif" font-size="10.00">/uv&#45;cpp/s3client/repo/lib</text>
<text text-anchor="middle" x="1559" y="-174.5" font-family="Helvetica,sans-Serif" font-size="10.00">/include/s3&#45;api.h</text>
</a>
</g>
</g>
<!-- Node6&#45;&gt;Node16 -->
<g id="edge48" class="edge">
<title>Node6&#45;&gt;Node16</title>
<path fill="none" stroke="midnightblue" d="M449.21,-340.42C677.21,-332.39 1347.7,-307.18 1390,-287 1412.72,-276.16 1407.51,-259.62 1428,-245 1449.24,-229.85 1475.23,-217.67 1498.43,-208.59"/>
<polygon fill="midnightblue" stroke="midnightblue" points="448.89,-336.93 439.02,-340.78 449.13,-343.92 448.89,-336.93"/>
</g>
<!-- Node12&#45;&gt;Node3 -->
<g id="edge19" class="edge">
<title>Node12&#45;&gt;Node3</title>
<path fill="none" stroke="midnightblue" d="M923.1,-249.27C974.42,-238.36 1043.93,-223.28 1105,-209 1109.6,-207.92 1114.34,-206.79 1119.12,-205.64"/>
<polygon fill="midnightblue" stroke="midnightblue" points="922.14,-245.89 913.08,-251.39 923.59,-252.74 922.14,-245.89"/>
</g>
<!-- Node12&#45;&gt;Node4 -->
<g id="edge21" class="edge">
<title>Node12&#45;&gt;Node4</title>
<path fill="none" stroke="midnightblue" d="M923.1,-257.73C1006.06,-249.02 1143.35,-232.59 1260,-209 1262.74,-208.45 1265.53,-207.85 1268.34,-207.22"/>
<polygon fill="midnightblue" stroke="midnightblue" points="922.6,-254.27 913.01,-258.78 923.32,-261.23 922.6,-254.27"/>
</g>
<!-- Node12&#45;&gt;Node7 -->
<g id="edge13" class="edge">
<title>Node12&#45;&gt;Node7</title>
<path fill="none" stroke="midnightblue" d="M773.08,-252.65C712.4,-242.25 624.84,-226.32 549,-209 546.15,-208.35 543.24,-207.66 540.3,-206.95"/>
<polygon fill="midnightblue" stroke="midnightblue" points="772.51,-256.11 782.95,-254.34 773.69,-249.21 772.51,-256.11"/>
</g>
<!-- Node12&#45;&gt;Node8 -->
<g id="edge14" class="edge">
<title>Node12&#45;&gt;Node8</title>
<path fill="none" stroke="midnightblue" d="M780.4,-242.17C748.63,-231.44 711.16,-218.78 680.75,-208.51"/>
<polygon fill="midnightblue" stroke="midnightblue" points="779.46,-245.54 790.06,-245.43 781.7,-238.91 779.46,-245.54"/>
</g>
<!-- Node12&#45;&gt;Node9 -->
<g id="edge15" class="edge">
<title>Node12&#45;&gt;Node9</title>
<path fill="none" stroke="midnightblue" d="M800.08,-239.56C789.22,-231.35 779.09,-221.15 773,-209 764.63,-192.31 763.43,-183.03 773,-167 782.67,-150.8 798.83,-139.02 815.55,-130.56"/>
<polygon fill="midnightblue" stroke="midnightblue" points="798.29,-242.58 808.48,-245.45 802.31,-236.85 798.29,-242.58"/>
</g>
<!-- Node12&#45;&gt;Node10 -->
<g id="edge16" class="edge">
<title>Node12&#45;&gt;Node10</title>
<path fill="none" stroke="midnightblue" d="M800.43,-240.08C787.14,-231.51 773.49,-221.01 763,-209 742.65,-185.69 729.08,-152.03 721.96,-130.84"/>
<polygon fill="midnightblue" stroke="midnightblue" points="798.72,-243.14 809.07,-245.42 802.4,-237.18 798.72,-243.14"/>
</g>
<!-- Node12&#45;&gt;Node11 -->
<g id="edge17" class="edge">
<title>Node12&#45;&gt;Node11</title>
<path fill="none" stroke="midnightblue" d="M923.27,-256.13C980.94,-247.61 1053.64,-232.51 1072,-209 1090.35,-185.49 1070.01,-151.88 1053.01,-130.76"/>
<polygon fill="midnightblue" stroke="midnightblue" points="922.46,-252.71 913.06,-257.6 923.45,-259.64 922.46,-252.71"/>
</g>
<!-- Node13 -->
<g id="node13" class="node">
<title>Node13</title>
<g id="a_node13"><a xlink:href="presign__url_8cpp.html" target="_top" xlink:title="Presign URL.">
<polygon fill="none" stroke="black" points="931.5,-167.5 931.5,-208.5 1062.5,-208.5 1062.5,-167.5 931.5,-167.5"/>
<text text-anchor="start" x="939.5" y="-196.5" font-family="Helvetica,sans-Serif" font-size="10.00">/home/ugovaretto/projects</text>
<text text-anchor="start" x="939.5" y="-185.5" font-family="Helvetica,sans-Serif" font-size="10.00">/uv&#45;cpp/s3client/repo/apps</text>
<text text-anchor="middle" x="997" y="-174.5" font-family="Helvetica,sans-Serif" font-size="10.00">/presign_url.cpp</text>
</a>
</g>
</g>
<!-- Node12&#45;&gt;Node13 -->
<g id="edge18" class="edge">
<title>Node12&#45;&gt;Node13</title>
<path fill="none" stroke="midnightblue" d="M895.51,-240.77C915.93,-230.35 939.49,-218.34 958.76,-208.51"/>
<polygon fill="midnightblue" stroke="midnightblue" points="893.69,-237.77 886.37,-245.43 896.87,-244 893.69,-237.77"/>
</g>
<!-- Node14 -->
<g id="node14" class="node">
<title>Node14</title>
<g id="a_node14"><a xlink:href="parallel__download_8cpp.html" target="_top" xlink:title="Parallel object download download from S3 service.">
<polygon fill="none" stroke="black" points="782.5,-167.5 782.5,-208.5 913.5,-208.5 913.5,-167.5 782.5,-167.5"/>
<text text-anchor="start" x="790.5" y="-196.5" font-family="Helvetica,sans-Serif" font-size="10.00">/home/ugovaretto/projects</text>
<text text-anchor="start" x="790.5" y="-185.5" font-family="Helvetica,sans-Serif" font-size="10.00">/uv&#45;cpp/s3client/repo/apps</text>
<text text-anchor="middle" x="848" y="-174.5" font-family="Helvetica,sans-Serif" font-size="10.00">/parallel_download.cpp</text>
</a>
</g>
</g>
<!-- Node12&#45;&gt;Node14 -->
<g id="edge20" class="edge">
<title>Node12&#45;&gt;Node14</title>
<path fill="none" stroke="midnightblue" d="M848,-235.3C848,-226.3 848,-216.65 848,-208.51"/>
<polygon fill="midnightblue" stroke="midnightblue" points="844.5,-235.43 848,-245.43 851.5,-235.43 844.5,-235.43"/>
</g>
<!-- Node12&#45;&gt;Node15 -->
<g id="edge22" class="edge">
<title>Node12&#45;&gt;Node15</title>
<path fill="none" stroke="midnightblue" d="M772.75,-258.8C683.49,-250.7 530.49,-234.48 401,-209 398.13,-208.43 395.2,-207.82 392.25,-207.17"/>
<polygon fill="midnightblue" stroke="midnightblue" points="772.5,-262.29 782.78,-259.7 773.13,-255.32 772.5,-262.29"/>
</g>
<!-- Node12&#45;&gt;Node16 -->
<g id="edge23" class="edge">
<title>Node12&#45;&gt;Node16</title>
<path fill="none" stroke="midnightblue" d="M923.41,-258.27C1031.2,-248.47 1235.47,-229.22 1409,-209 1436.79,-205.76 1467.42,-201.76 1493.72,-198.18"/>
<polygon fill="midnightblue" stroke="midnightblue" points="922.93,-254.8 913.29,-259.19 923.56,-261.77 922.93,-254.8"/>
</g>
<!-- Node16&#45;&gt;Node9 -->
<g id="edge31" class="edge">
<title>Node16&#45;&gt;Node9</title>
<path fill="none" stroke="midnightblue" d="M1483.87,-173.08C1469.98,-170.81 1455.58,-168.66 1442,-167 1229.22,-140.91 1172.83,-163.93 961,-131 956.85,-130.36 952.61,-129.61 948.34,-128.8"/>
<polygon fill="midnightblue" stroke="midnightblue" points="1483.43,-176.55 1493.87,-174.74 1484.59,-169.65 1483.43,-176.55"/>
</g>
<!-- Node16&#45;&gt;Node10 -->
<g id="edge32" class="edge">
<title>Node16&#45;&gt;Node10</title>
<path fill="none" stroke="midnightblue" d="M1483.73,-175.86C1459.87,-172.62 1433.37,-169.34 1409,-167 1137.78,-140.98 1066.39,-171.83 797,-131 791.84,-130.22 786.54,-129.26 781.22,-128.19"/>
<polygon fill="midnightblue" stroke="midnightblue" points="1483.39,-179.34 1493.78,-177.24 1484.35,-172.41 1483.39,-179.34"/>
</g>
<!-- Node16&#45;&gt;Node11 -->
<g id="edge33" class="edge">
<title>Node16&#45;&gt;Node11</title>
<path fill="none" stroke="midnightblue" d="M1483.79,-167.68C1482.52,-167.45 1481.25,-167.22 1480,-167 1318.99,-138.86 1275.01,-159.14 1114,-131 1109.54,-130.22 1104.96,-129.32 1100.36,-128.35"/>
<polygon fill="midnightblue" stroke="midnightblue" points="1483.15,-171.13 1493.64,-169.65 1484.52,-164.26 1483.15,-171.13"/>
</g>
<!-- Node17 -->
<g id="node17" class="node">
<title>Node17</title>
<g id="a_node17"><a xlink:href="abort-multipart-upload-test_8cpp_source.html" target="_top" xlink:title=" ">
<polygon fill="none" stroke="black" points="1315,-0.5 1315,-52.5 1445,-52.5 1445,-0.5 1315,-0.5"/>
<text text-anchor="start" x="1323" y="-40.5" font-family="Helvetica,sans-Serif" font-size="10.00">/home/ugovaretto/projects</text>
<text text-anchor="start" x="1323" y="-29.5" font-family="Helvetica,sans-Serif" font-size="10.00">/uv&#45;cpp/s3client/repo/test</text>
<text text-anchor="start" x="1323" y="-18.5" font-family="Helvetica,sans-Serif" font-size="10.00">/api/abort&#45;multipart&#45;upload</text>
<text text-anchor="middle" x="1380" y="-7.5" font-family="Helvetica,sans-Serif" font-size="10.00">&#45;test.cpp</text>
</a>
</g>
</g>
<!-- Node16&#45;&gt;Node17 -->
<g id="edge24" class="edge">
<title>Node16&#45;&gt;Node17</title>
<path fill="none" stroke="midnightblue" d="M1483.78,-167.73C1482.51,-167.48 1481.25,-167.23 1480,-167 1415.08,-154.87 1228.78,-180.45 1185,-131 1141.68,-82.07 1242.56,-52.41 1314.78,-38.05"/>
<polygon fill="midnightblue" stroke="midnightblue" points="1483.11,-171.16 1493.62,-169.77 1484.54,-164.31 1483.11,-171.16"/>
</g>
<!-- Node18 -->
<g id="node18" class="node">
<title>Node18</title>
<g id="a_node18"><a xlink:href="multipart-upload-test_8cpp_source.html" target="_top" xlink:title=" ">
<polygon fill="none" stroke="black" points="1497.5,-6 1497.5,-47 1640.5,-47 1640.5,-6 1497.5,-6"/>
<text text-anchor="start" x="1505.5" y="-35" font-family="Helvetica,sans-Serif" font-size="10.00">/home/ugovaretto/projects</text>
<text text-anchor="start" x="1505.5" y="-24" font-family="Helvetica,sans-Serif" font-size="10.00">/uv&#45;cpp/s3client/repo/test</text>
<text text-anchor="middle" x="1569" y="-13" font-family="Helvetica,sans-Serif" font-size="10.00">/api/multipart&#45;upload&#45;test.cpp</text>
</a>
</g>
</g>
<!-- Node16&#45;&gt;Node18 -->
<g id="edge25" class="edge">
<title>Node16&#45;&gt;Node18</title>
<path fill="none" stroke="midnightblue" d="M1634.15,-177.56C1689.98,-168.82 1759.38,-153.72 1777,-131 1788.44,-116.25 1788.26,-103.89 1777,-89 1741.62,-42.2 1706.21,-69.81 1650,-53 1643.64,-51.1 1637.02,-49.08 1630.42,-47.04"/>
<polygon fill="midnightblue" stroke="midnightblue" points="1633.61,-174.1 1624.25,-179.07 1634.67,-181.02 1633.61,-174.1"/>
</g>
<!-- Node19 -->
<g id="node19" class="node">
<title>Node19</title>
<g id="a_node19"><a xlink:href="multipart-upload-file-test_8cpp_source.html" target="_top" xlink:title=" ">
<polygon fill="none" stroke="black" points="1807,-0.5 1807,-52.5 1937,-52.5 1937,-0.5 1807,-0.5"/>
<text text-anchor="start" x="1815" y="-40.5" font-family="Helvetica,sans-Serif" font-size="10.00">/home/ugovaretto/projects</text>
<text text-anchor="start" x="1815" y="-29.5" font-family="Helvetica,sans-Serif" font-size="10.00">/uv&#45;cpp/s3client/repo/test</text>
<text text-anchor="start" x="1815" y="-18.5" font-family="Helvetica,sans-Serif" font-size="10.00">/api/multipart&#45;upload&#45;file</text>
<text text-anchor="middle" x="1872" y="-7.5" font-family="Helvetica,sans-Serif" font-size="10.00">&#45;test.cpp</text>
</a>
</g>
</g>
<!-- Node16&#45;&gt;Node19 -->
<g id="edge26" class="edge">
<title>Node16&#45;&gt;Node19</title>
<path fill="none" stroke="midnightblue" d="M1634.45,-187.83C1739.39,-187.18 1921.26,-178.93 1963,-131 1975.26,-116.92 1971.76,-105.49 1963,-89 1955.04,-74.01 1941.62,-62.01 1927.49,-52.73"/>
<polygon fill="midnightblue" stroke="midnightblue" points="1634.21,-184.33 1624.23,-187.87 1634.24,-191.33 1634.21,-184.33"/>
</g>
<!-- Node20 -->
<g id="node20" class="node">
<title>Node20</title>
<g id="a_node20"><a xlink:href="bucket-test_8cpp.html" target="_top" xlink:title="bucket tests">
<polygon fill="none" stroke="black" points="1955,-6 1955,-47 2085,-47 2085,-6 1955,-6"/>
<text text-anchor="start" x="1963" y="-35" font-family="Helvetica,sans-Serif" font-size="10.00">/home/ugovaretto/projects</text>
<text text-anchor="start" x="1963" y="-24" font-family="Helvetica,sans-Serif" font-size="10.00">/uv&#45;cpp/s3client/repo/test</text>
<text text-anchor="middle" x="2020" y="-13" font-family="Helvetica,sans-Serif" font-size="10.00">/api/bucket&#45;test.cpp</text>
</a>
</g>
</g>
<!-- Node16&#45;&gt;Node20 -->
<g id="edge27" class="edge">
<title>Node16&#45;&gt;Node20</title>
<path fill="none" stroke="midnightblue" d="M1634.17,-185.99C1740.52,-183.09 1927.81,-172.1 1980,-131 2005.88,-110.62 2015.03,-71.29 2018.26,-47.41"/>
<polygon fill="midnightblue" stroke="midnightblue" points="1634.04,-182.49 1624.13,-186.25 1634.22,-189.49 1634.04,-182.49"/>
</g>
<!-- Node21 -->
<g id="node21" class="node">
<title>Node21</title>
<g id="a_node21"><a xlink:href="fileobject-test_8cpp_source.html" target="_top" xlink:title=" ">
<polygon fill="none" stroke="black" points="2103,-6 2103,-47 2233,-47 2233,-6 2103,-6"/>
<text text-anchor="start" x="2111" y="-35" font-family="Helvetica,sans-Serif" font-size="10.00">/home/ugovaretto/projects</text>
<text text-anchor="start" x="2111" y="-24" font-family="Helvetica,sans-Serif" font-size="10.00">/uv&#45;cpp/s3client/repo/test</text>
<text text-anchor="middle" x="2168" y="-13" font-family="Helvetica,sans-Serif" font-size="10.00">/api/fileobject&#45;test.cpp</text>
</a>
</g>
</g>
<!-- Node16&#45;&gt;Node21 -->
<g id="edge28" class="edge">
<title>Node16&#45;&gt;Node21</title>
<path fill="none" stroke="midnightblue" d="M1634.37,-187.66C1725.37,-186.21 1881.77,-176.41 2007,-131 2060.89,-111.46 2115.25,-71.26 2144.99,-47.11"/>
<polygon fill="midnightblue" stroke="midnightblue" points="1634.11,-184.17 1624.15,-187.8 1634.2,-191.17 1634.11,-184.17"/>
</g>
<!-- Node22 -->
<g id="node22" class="node">
<title>Node22</title>
<g id="a_node22"><a xlink:href="parallel-file-transfer-test_8cpp_source.html" target="_top" xlink:title=" ">
<polygon fill="none" stroke="black" points="2251,-6 2251,-47 2391,-47 2391,-6 2251,-6"/>
<text text-anchor="start" x="2259" y="-35" font-family="Helvetica,sans-Serif" font-size="10.00">/home/ugovaretto/projects</text>
<text text-anchor="start" x="2259" y="-24" font-family="Helvetica,sans-Serif" font-size="10.00">/uv&#45;cpp/s3client/repo/test</text>
<text text-anchor="middle" x="2321" y="-13" font-family="Helvetica,sans-Serif" font-size="10.00">/parallel&#45;file&#45;transfer&#45;test.cpp</text>
</a>
</g>
</g>
<!-- Node16&#45;&gt;Node22 -->
<g id="edge29" class="edge">
<title>Node16&#45;&gt;Node22</title>
<path fill="none" stroke="midnightblue" d="M1634.23,-184.81C1733.21,-180.53 1911.96,-167.92 2060,-131 2141.35,-110.71 2231.21,-70.96 2281.41,-47.06"/>
<polygon fill="midnightblue" stroke="midnightblue" points="1633.88,-181.32 1624.03,-185.24 1634.17,-188.32 1633.88,-181.32"/>
</g>
<!-- Node23 -->
<g id="node23" class="node">
<title>Node23</title>
<g id="a_node23"><a xlink:href="object-test_8cpp_source.html" target="_top" xlink:title=" ">
<polygon fill="none" stroke="black" points="1098,-6 1098,-47 1228,-47 1228,-6 1098,-6"/>
<text text-anchor="start" x="1106" y="-35" font-family="Helvetica,sans-Serif" font-size="10.00">/home/ugovaretto/projects</text>
<text text-anchor="start" x="1106" y="-24" font-family="Helvetica,sans-Serif" font-size="10.00">/uv&#45;cpp/s3client/repo/test</text>
<text text-anchor="middle" x="1163" y="-13" font-family="Helvetica,sans-Serif" font-size="10.00">/api/object&#45;test.cpp</text>
</a>
</g>
</g>
<!-- Node16&#45;&gt;Node23 -->
<g id="edge30" class="edge">
<title>Node16&#45;&gt;Node23</title>
<path fill="none" stroke="midnightblue" d="M1484.05,-171.24C1475.95,-169.72 1467.81,-168.27 1460,-167 1395.91,-156.56 1214.62,-178.19 1170,-131 1148.97,-108.75 1152.78,-70.41 1157.72,-47.16"/>
<polygon fill="midnightblue" stroke="midnightblue" points="1483.41,-174.68 1493.89,-173.12 1484.73,-167.8 1483.41,-174.68"/>
</g>
<!-- Node24 -->
<g id="node24" class="node">
<title>Node24</title>
<g id="a_node24"><a xlink:href="s3-api_8cpp_source.html" target="_top" xlink:title=" ">
<polygon fill="none" stroke="black" points="1194,-89.5 1194,-130.5 1324,-130.5 1324,-89.5 1194,-89.5"/>
<text text-anchor="start" x="1202" y="-118.5" font-family="Helvetica,sans-Serif" font-size="10.00">/home/ugovaretto/projects</text>
<text text-anchor="start" x="1202" y="-107.5" font-family="Helvetica,sans-Serif" font-size="10.00">/uv&#45;cpp/s3client/repo/lib</text>
<text text-anchor="middle" x="1259" y="-96.5" font-family="Helvetica,sans-Serif" font-size="10.00">/src/api/s3&#45;api.cpp</text>
</a>
</g>
</g>
<!-- Node16&#45;&gt;Node24 -->
<g id="edge34" class="edge">
<title>Node16&#45;&gt;Node24</title>
<path fill="none" stroke="midnightblue" d="M1483.85,-167.96C1482.56,-167.64 1481.27,-167.32 1480,-167 1414.73,-150.75 1398.14,-147.78 1333,-131 1330.16,-130.27 1327.27,-129.52 1324.35,-128.75"/>
<polygon fill="midnightblue" stroke="midnightblue" points="1483.36,-171.45 1493.91,-170.48 1485.06,-164.66 1483.36,-171.45"/>
</g>
<!-- Node25 -->
<g id="node25" class="node">
<title>Node25</title>
<g id="a_node25"><a xlink:href="xml__parser_8cpp_source.html" target="_top" xlink:title=" ">
<polygon fill="none" stroke="black" points="1342,-89.5 1342,-130.5 1472,-130.5 1472,-89.5 1342,-89.5"/>
<text text-anchor="start" x="1350" y="-118.5" font-family="Helvetica,sans-Serif" font-size="10.00">/home/ugovaretto/projects</text>
<text text-anchor="start" x="1350" y="-107.5" font-family="Helvetica,sans-Serif" font-size="10.00">/uv&#45;cpp/s3client/repo/lib</text>
<text text-anchor="middle" x="1407" y="-96.5" font-family="Helvetica,sans-Serif" font-size="10.00">/src/api/xml_parser.cpp</text>
</a>
</g>
</g>
<!-- Node16&#45;&gt;Node25 -->
<g id="edge35" class="edge">
<title>Node16&#45;&gt;Node25</title>
<path fill="none" stroke="midnightblue" d="M1510.82,-162.91C1489.92,-152.46 1465.76,-140.38 1446.01,-130.51"/>
<polygon fill="midnightblue" stroke="midnightblue" points="1509.35,-166.09 1519.86,-167.43 1512.48,-159.83 1509.35,-166.09"/>
</g>
<!-- Node26 -->
<g id="node26" class="node">
<title>Node26</title>
<g id="a_node26"><a xlink:href="download-file_8cpp_source.html" target="_top" xlink:title=" ">
<polygon fill="none" stroke="black" points="1490,-89.5 1490,-130.5 1620,-130.5 1620,-89.5 1490,-89.5"/>
<text text-anchor="start" x="1498" y="-118.5" font-family="Helvetica,sans-Serif" font-size="10.00">/home/ugovaretto/projects</text>
<text text-anchor="start" x="1498" y="-107.5" font-family="Helvetica,sans-Serif" font-size="10.00">/uv&#45;cpp/s3client/repo/lib</text>
<text text-anchor="middle" x="1555" y="-96.5" font-family="Helvetica,sans-Serif" font-size="10.00">/src/download&#45;file.cpp</text>
</a>
</g>
</g>
<!-- Node16&#45;&gt;Node26 -->
<g id="edge36" class="edge">
<title>Node16&#45;&gt;Node26</title>
<path fill="none" stroke="midnightblue" d="M1557.44,-157.3C1556.96,-148.3 1556.46,-138.65 1556.03,-130.51"/>
<polygon fill="midnightblue" stroke="midnightblue" points="1553.95,-157.63 1557.97,-167.43 1560.94,-157.26 1553.95,-157.63"/>
</g>
<!-- Node27 -->
<g id="node27" class="node">
<title>Node27</title>
<g id="a_node27"><a xlink:href="upload-file_8cpp_source.html" target="_top" xlink:title=" ">
<polygon fill="none" stroke="black" points="1638,-89.5 1638,-130.5 1768,-130.5 1768,-89.5 1638,-89.5"/>
<text text-anchor="start" x="1646" y="-118.5" font-family="Helvetica,sans-Serif" font-size="10.00">/home/ugovaretto/projects</text>
<text text-anchor="start" x="1646" y="-107.5" font-family="Helvetica,sans-Serif" font-size="10.00">/uv&#45;cpp/s3client/repo/lib</text>
<text text-anchor="middle" x="1703" y="-96.5" font-family="Helvetica,sans-Serif" font-size="10.00">/src/upload&#45;file.cpp</text>
</a>
</g>
</g>
<!-- Node16&#45;&gt;Node27 -->
<g id="edge37" class="edge">
<title>Node16&#45;&gt;Node27</title>
<path fill="none" stroke="midnightblue" d="M1605.18,-162.63C1624.86,-152.24 1647.5,-140.29 1666.04,-130.51"/>
<polygon fill="midnightblue" stroke="midnightblue" points="1603.29,-159.67 1596.08,-167.43 1606.56,-165.86 1603.29,-159.67"/>
</g>
<!-- Node28 -->
<g id="node28" class="node">
<title>Node28</title>
<g id="a_node28"><a xlink:href="test_2utility_8h_source.html" target="_top" xlink:title=" ">
<polygon fill="none" stroke="black" points="1824,-89.5 1824,-130.5 1954,-130.5 1954,-89.5 1824,-89.5"/>
<text text-anchor="start" x="1832" y="-118.5" font-family="Helvetica,sans-Serif" font-size="10.00">/home/ugovaretto/projects</text>
<text text-anchor="start" x="1832" y="-107.5" font-family="Helvetica,sans-Serif" font-size="10.00">/uv&#45;cpp/s3client/repo/test</text>
<text text-anchor="middle" x="1889" y="-96.5" font-family="Helvetica,sans-Serif" font-size="10.00">/utility.h</text>
</a>
</g>
</g>
<!-- Node16&#45;&gt;Node28 -->
<g id="edge38" class="edge">
<title>Node16&#45;&gt;Node28</title>
<path fill="none" stroke="midnightblue" d="M1634.19,-170.81C1684.12,-159.91 1751.08,-145.03 1810,-131 1814.54,-129.92 1819.23,-128.78 1823.94,-127.63"/>
<polygon fill="midnightblue" stroke="midnightblue" points="1633.15,-167.45 1624.12,-173 1634.64,-174.29 1633.15,-167.45"/>
</g>
<!-- Node28&#45;&gt;Node17 -->
<g id="edge39" class="edge">
<title>Node28&#45;&gt;Node17</title>
<path fill="none" stroke="midnightblue" d="M1813.74,-95C1801.48,-92.88 1788.9,-90.81 1777,-89 1649.46,-69.66 1615.98,-75.72 1489,-53 1474.75,-50.45 1459.56,-47.22 1445.19,-43.93"/>
<polygon fill="midnightblue" stroke="midnightblue" points="1813.5,-98.51 1823.95,-96.79 1814.7,-91.62 1813.5,-98.51"/>
</g>
<!-- Node28&#45;&gt;Node18 -->
<g id="edge40" class="edge">
<title>Node28&#45;&gt;Node18</title>
<path fill="none" stroke="midnightblue" d="M1813.86,-89.93C1812.57,-89.61 1811.28,-89.31 1810,-89 1739.11,-72.05 1720.38,-71.96 1650,-53 1643.17,-51.16 1636.05,-49.11 1628.99,-47"/>
<polygon fill="midnightblue" stroke="midnightblue" points="1813.39,-93.42 1823.94,-92.38 1815.05,-86.61 1813.39,-93.42"/>
</g>
<!-- Node28&#45;&gt;Node19 -->
<g id="edge41" class="edge">
<title>Node28&#45;&gt;Node19</title>
<path fill="none" stroke="midnightblue" d="M1882.83,-79.41C1880.99,-70.62 1879,-61.08 1877.24,-52.61"/>
<polygon fill="midnightblue" stroke="midnightblue" points="1879.42,-80.2 1884.88,-89.27 1886.27,-78.77 1879.42,-80.2"/>
</g>
<!-- Node28&#45;&gt;Node20 -->
<g id="edge42" class="edge">
<title>Node28&#45;&gt;Node20</title>
<path fill="none" stroke="midnightblue" d="M1928.88,-84.19C1947.98,-72.3 1970.54,-58.27 1988.42,-47.14"/>
<polygon fill="midnightblue" stroke="midnightblue" points="1927.02,-81.22 1920.38,-89.48 1930.72,-87.17 1927.02,-81.22"/>
</g>
<!-- Node28&#45;&gt;Node21 -->
<g id="edge43" class="edge">
<title>Node28&#45;&gt;Node21</title>
<path fill="none" stroke="midnightblue" d="M1964.09,-89.74C2003.03,-79.44 2051.26,-66.19 2094,-53 2099.97,-51.16 2106.19,-49.15 2112.37,-47.11"/>
<polygon fill="midnightblue" stroke="midnightblue" points="1963.18,-86.36 1954.4,-92.3 1964.96,-93.13 1963.18,-86.36"/>
</g>
<!-- Node28&#45;&gt;Node22 -->
<g id="edge45" class="edge">
<title>Node28&#45;&gt;Node22</title>
<path fill="none" stroke="midnightblue" d="M1964.33,-100.48C2036.25,-91.55 2147.38,-75.63 2242,-53 2249.15,-51.29 2256.58,-49.25 2263.91,-47.08"/>
<polygon fill="midnightblue" stroke="midnightblue" points="1963.5,-97.06 1954,-101.75 1964.36,-104.01 1963.5,-97.06"/>
</g>
<!-- Node28&#45;&gt;Node23 -->
<g id="edge46" class="edge">
<title>Node28&#45;&gt;Node23</title>
<path fill="none" stroke="midnightblue" d="M1813.58,-94.47C1801.38,-92.42 1788.86,-90.51 1777,-89 1568.73,-62.51 1514.27,-79.46 1306,-53 1280.48,-49.76 1252.6,-45.05 1228.28,-40.56"/>
<polygon fill="midnightblue" stroke="midnightblue" points="1813.28,-97.97 1823.73,-96.21 1814.46,-91.07 1813.28,-97.97"/>
</g>
<!-- Node29 -->
<g id="node29" class="node">
<title>Node29</title>
<g id="a_node29"><a xlink:href="test_2utility_8cpp_source.html" target="_top" xlink:title=" ">
<polygon fill="none" stroke="black" points="1659,-6 1659,-47 1789,-47 1789,-6 1659,-6"/>
<text text-anchor="start" x="1667" y="-35" font-family="Helvetica,sans-Serif" font-size="10.00">/home/ugovaretto/projects</text>
<text text-anchor="start" x="1667" y="-24" font-family="Helvetica,sans-Serif" font-size="10.00">/uv&#45;cpp/s3client/repo/test</text>
<text text-anchor="middle" x="1724" y="-13" font-family="Helvetica,sans-Serif" font-size="10.00">/utility.cpp</text>
</a>
</g>
</g>
<!-- Node28&#45;&gt;Node29 -->
<g id="edge44" class="edge">
<title>Node28&#45;&gt;Node29</title>
<path fill="none" stroke="midnightblue" d="M1840.35,-84.97C1815.86,-72.87 1786.56,-58.4 1763.48,-47"/>
<polygon fill="midnightblue" stroke="midnightblue" points="1838.96,-88.19 1849.48,-89.48 1842.06,-81.91 1838.96,-88.19"/>
</g>
<!-- Node31&#45;&gt;Node12 -->
<g id="edge52" class="edge">
<title>Node31&#45;&gt;Node12</title>
<path fill="none" stroke="midnightblue" d="M1240.99,-330.82C1150.35,-316.1 999.31,-291.57 913.27,-277.6"/>
<polygon fill="midnightblue" stroke="midnightblue" points="1240.49,-334.28 1250.93,-332.43 1241.62,-327.37 1240.49,-334.28"/>
</g>
<!-- Node31&#45;&gt;Node16 -->
<g id="edge54" class="edge">
<title>Node31&#45;&gt;Node16</title>
<path fill="none" stroke="midnightblue" d="M1391.5,-337.09C1459.82,-330 1553.13,-315.32 1576,-287 1594.01,-264.7 1581.51,-230.11 1570.5,-208.55"/>
<polygon fill="midnightblue" stroke="midnightblue" points="1390.79,-333.65 1381.19,-338.13 1391.49,-340.61 1390.79,-333.65"/>
</g>
<!-- Node32 -->
<g id="node32" class="node">
<title>Node32</title>
<g id="a_node32"><a xlink:href="error_8cpp_source.html" target="_top" xlink:title=" ">
<polygon fill="none" stroke="black" points="1437,-245.5 1437,-286.5 1567,-286.5 1567,-245.5 1437,-245.5"/>
<text text-anchor="start" x="1445" y="-274.5" font-family="Helvetica,sans-Serif" font-size="10.00">/home/ugovaretto/projects</text>
<text text-anchor="start" x="1445" y="-263.5" font-family="Helvetica,sans-Serif" font-size="10.00">/uv&#45;cpp/s3client/repo/lib</text>
<text text-anchor="middle" x="1502" y="-252.5" font-family="Helvetica,sans-Serif" font-size="10.00">/src/api/error.cpp</text>
</a>
</g>
</g>
<!-- Node31&#45;&gt;Node32 -->
<g id="edge51" class="edge">
<title>Node31&#45;&gt;Node32</title>
<path fill="none" stroke="midnightblue" d="M1373.25,-319.61C1399.21,-309 1429.55,-296.6 1454.26,-286.51"/>
<polygon fill="midnightblue" stroke="midnightblue" points="1371.83,-316.41 1363.9,-323.43 1374.48,-322.89 1371.83,-316.41"/>
</g>
<!-- Node33 -->
<g id="node33" class="node">
<title>Node33</title>
<g id="a_node33"><a xlink:href="webclient_8cpp.html" target="_top" xlink:title="implementation of WebClient class, wrapper around libcurl">
<polygon fill="none" stroke="black" points="1623,-245.5 1623,-286.5 1753,-286.5 1753,-245.5 1623,-245.5"/>
<text text-anchor="start" x="1631" y="-274.5" font-family="Helvetica,sans-Serif" font-size="10.00">/home/ugovaretto/projects</text>
<text text-anchor="start" x="1631" y="-263.5" font-family="Helvetica,sans-Serif" font-size="10.00">/uv&#45;cpp/s3client/repo/lib</text>
<text text-anchor="middle" x="1688" y="-252.5" font-family="Helvetica,sans-Serif" font-size="10.00">/src/webclient.cpp</text>
</a>
</g>
</g>
<!-- Node31&#45;&gt;Node33 -->
<g id="edge53" class="edge">
<title>Node31&#45;&gt;Node33</title>
<path fill="none" stroke="midnightblue" d="M1391.14,-329.9C1450.48,-319.25 1535.28,-303.36 1609,-287 1613.56,-285.99 1618.25,-284.91 1622.98,-283.79"/>
<polygon fill="midnightblue" stroke="midnightblue" points="1390.33,-326.49 1381.11,-331.7 1391.57,-333.38 1390.33,-326.49"/>
</g>
<!-- Node34 -->
<g id="node34" class="node">
<title>Node34</title>
<g id="a_node34"><a xlink:href="error_8h_source.html" target="_top" xlink:title=" ">
<polygon fill="none" stroke="black" points="1251,-245.5 1251,-286.5 1381,-286.5 1381,-245.5 1251,-245.5"/>
<text text-anchor="start" x="1259" y="-274.5" font-family="Helvetica,sans-Serif" font-size="10.00">/home/ugovaretto/projects</text>
<text text-anchor="start" x="1259" y="-263.5" font-family="Helvetica,sans-Serif" font-size="10.00">/uv&#45;cpp/s3client/repo/lib</text>
<text text-anchor="middle" x="1316" y="-252.5" font-family="Helvetica,sans-Serif" font-size="10.00">/include/error.h</text>
</a>
</g>
</g>
<!-- Node31&#45;&gt;Node34 -->
<g id="edge55" class="edge">
<title>Node31&#45;&gt;Node34</title>
<path fill="none" stroke="midnightblue" d="M1316,-313.3C1316,-304.3 1316,-294.65 1316,-286.51"/>
<polygon fill="midnightblue" stroke="midnightblue" points="1312.5,-313.43 1316,-323.43 1319.5,-313.43 1312.5,-313.43"/>
</g>
<!-- Node34&#45;&gt;Node9 -->
<g id="edge56" class="edge">
<title>Node34&#45;&gt;Node9</title>
<path fill="none" stroke="midnightblue" d="M1377.48,-240.24C1390.07,-232.21 1401.69,-221.93 1409,-209 1418.18,-192.75 1421.66,-180.72 1409,-167 1375.13,-130.3 1010.32,-138.81 961,-131 956.85,-130.34 952.61,-129.59 948.34,-128.77"/>
<polygon fill="midnightblue" stroke="midnightblue" points="1375.49,-237.35 1368.65,-245.45 1379.04,-243.38 1375.49,-237.35"/>
</g>
<!-- Node34&#45;&gt;Node11 -->
<g id="edge57" class="edge">
<title>Node34&#45;&gt;Node11</title>
<path fill="none" stroke="midnightblue" d="M1385.21,-241.9C1410.56,-231.93 1434.83,-220.04 1442,-209 1452.17,-193.35 1454.46,-180.9 1442,-167 1393.06,-112.4 1186.16,-144.03 1114,-131 1109.54,-130.2 1104.97,-129.28 1100.37,-128.29"/>
<polygon fill="midnightblue" stroke="midnightblue" points="1383.94,-238.64 1375.85,-245.48 1386.44,-245.18 1383.94,-238.64"/>
</g>
<!-- Node34&#45;&gt;Node16 -->
<g id="edge58" class="edge">
<title>Node34&#45;&gt;Node16</title>
<path fill="none" stroke="midnightblue" d="M1388.13,-242.44C1422.62,-231.66 1463.5,-218.87 1496.63,-208.51"/>
<polygon fill="midnightblue" stroke="midnightblue" points="1387.08,-239.1 1378.58,-245.43 1389.17,-245.78 1387.08,-239.1"/>
</g>
</g>
</svg>
