<?xml version="1.0" encoding="UTF-8" standalone="no"?>
<!DOCTYPE svg PUBLIC "-//W3C//DTD SVG 1.1//EN"
 "http://www.w3.org/Graphics/SVG/1.1/DTD/svg11.dtd">
<!-- Generated by graphviz version 2.43.0 (0)
 -->
<!-- Title: /home/ugovaretto/projects/uv&#45;cpp/s3client/repo/lib/hash/utility.h Pages: 1 -->
<!--zoomable 206 -->
<svg id="main" version="1.1" xmlns="http://www.w3.org/2000/svg" xmlns:xlink="http://www.w3.org/1999/xlink" xml:space="preserve" onload="init(evt)">
<style type="text/css"><![CDATA[
.edge:hover path { stroke: red; }
.edge:hover polygon { stroke: red; fill: red; }
]]></style>
<script type="text/javascript"><![CDATA[
var edges = document.getElementsByTagName('g');
if (edges && edges.length) {
  for (var i=0;i<edges.length;i++) {
    if (edges[i].id.substr(0,4)=='edge') {
      edges[i].setAttribute('class','edge');
    }
  }
}
]]></script>
        <defs>
                <circle id="rim" cx="0" cy="0" r="7"/>
                <circle id="rim2" cx="0" cy="0" r="3.5"/>
                <g id="zoomPlus">
                        <use xlink:href="#rim" fill="#404040">
                                <set attributeName="fill" to="#808080" begin="zoomplus.mouseover" end="zoomplus.mouseout"/>
                        </use>
                        <path d="M-4,0h8M0,-4v8" fill="none" stroke="white" stroke-width="1.5" pointer-events="none"/>
                </g>
                <g id="zoomMin">
                        <use xlink:href="#rim" fill="#404040">
                                <set attributeName="fill" to="#808080" begin="zoomminus.mouseover" end="zoomminus.mouseout"/>
                        </use>
                        <path d="M-4,0h8" fill="none" stroke="white" stroke-width="1.5" pointer-events="none"/>
                </g>
                <g id="dirArrow">
                        <path fill="none" stroke="white" stroke-width="1.5" d="M0,-3.0v7 M-2.5,-0.5L0,-3.0L2.5,-0.5"/>
                </g>
               <g id="resetDef">
                       <use xlink:href="#rim2" fill="#404040">
                               <set attributeName="fill" to="#808080" begin="reset.mouseover" end="reset.mouseout"/>
                       </use>
               </g>
        </defs>

<script type="text/javascript">
var viewWidth = 593;
var viewHeight = 206;
var sectionId = 'dynsection-1';
</script>
<script xlink:href="svgpan.js"/>
<svg id="graph" class="graph">
<g id="viewport">
<title>/home/ugovaretto/projects/uv&#45;cpp/s3client/repo/lib/hash/utility.h</title>
<!-- Node1 -->
<g id="node1" class="node">
<title>Node1</title>
<g id="a_node1"><a xlink:title="Declaration of utility functions for SHA256 hashing.">
<polygon fill="#bfbfbf" stroke="black" points="232,-156.5 232,-197.5 362,-197.5 362,-156.5 232,-156.5"/>
<text text-anchor="start" x="240" y="-185.5" font-family="Helvetica,sans-Serif" font-size="10.00">/home/ugovaretto/projects</text>
<text text-anchor="start" x="240" y="-174.5" font-family="Helvetica,sans-Serif" font-size="10.00">/uv&#45;cpp/s3client/repo/lib</text>
<text text-anchor="middle" x="297" y="-163.5" font-family="Helvetica,sans-Serif" font-size="10.00">/hash/utility.h</text>
</a>
</g>
</g>
<!-- Node2 -->
<g id="node2" class="node">
<title>Node2</title>
<g id="a_node2"><a xlink:href="lib_2hash_2utility_8cpp.html" target="_top" xlink:title="Implementation of SHA256 utility functions.">
<polygon fill="none" stroke="black" points="0,-78.5 0,-119.5 130,-119.5 130,-78.5 0,-78.5"/>
<text text-anchor="start" x="8" y="-107.5" font-family="Helvetica,sans-Serif" font-size="10.00">/home/ugovaretto/projects</text>
<text text-anchor="start" x="8" y="-96.5" font-family="Helvetica,sans-Serif" font-size="10.00">/uv&#45;cpp/s3client/repo/lib</text>
<text text-anchor="middle" x="65" y="-85.5" font-family="Helvetica,sans-Serif" font-size="10.00">/hash/utility.cpp</text>
</a>
</g>
</g>
<!-- Node1&#45;&gt;Node2 -->
<g id="edge1" class="edge">
<title>Node1&#45;&gt;Node2</title>
<path fill="none" stroke="midnightblue" d="M227.72,-153.3C194.88,-142.55 156.04,-129.82 124.54,-119.51"/>
<polygon fill="midnightblue" stroke="midnightblue" points="226.66,-156.64 237.25,-156.43 228.84,-149.99 226.66,-156.64"/>
</g>
<!-- Node3 -->
<g id="node3" class="node">
<title>Node3</title>
<g id="a_node3"><a xlink:href="md5_8cpp.html" target="_top" xlink:title="Implementation of MD5 algorithm,.">
<polygon fill="none" stroke="black" points="112,-0.5 112,-41.5 242,-41.5 242,-0.5 112,-0.5"/>
<text text-anchor="start" x="120" y="-29.5" font-family="Helvetica,sans-Serif" font-size="10.00">/home/ugovaretto/projects</text>
<text text-anchor="start" x="120" y="-18.5" font-family="Helvetica,sans-Serif" font-size="10.00">/uv&#45;cpp/s3client/repo/lib</text>
<text text-anchor="middle" x="177" y="-7.5" font-family="Helvetica,sans-Serif" font-size="10.00">/hash/md5.cpp</text>
</a>
</g>
</g>
<!-- Node1&#45;&gt;Node3 -->
<g id="edge2" class="edge">
<title>Node1&#45;&gt;Node3</title>
<path fill="none" stroke="midnightblue" d="M222.32,-156.65C204.48,-148.35 187.57,-136.6 177,-120 162.01,-96.46 166.23,-62.86 171.19,-41.75"/>
<polygon fill="midnightblue" stroke="midnightblue" points="221.13,-159.95 231.7,-160.69 223.89,-153.52 221.13,-159.95"/>
</g>
<!-- Node4 -->
<g id="node4" class="node">
<title>Node4</title>
<g id="a_node4"><a xlink:href="hmac256_8cpp.html" target="_top" xlink:title="implementation of HMAC hashing algorithm.">
<polygon fill="none" stroke="black" points="288,-0.5 288,-41.5 418,-41.5 418,-0.5 288,-0.5"/>
<text text-anchor="start" x="296" y="-29.5" font-family="Helvetica,sans-Serif" font-size="10.00">/home/ugovaretto/projects</text>
<text text-anchor="start" x="296" y="-18.5" font-family="Helvetica,sans-Serif" font-size="10.00">/uv&#45;cpp/s3client/repo/lib</text>
<text text-anchor="middle" x="353" y="-7.5" font-family="Helvetica,sans-Serif" font-size="10.00">/hash/hmac256.cpp</text>
</a>
</g>
</g>
<!-- Node1&#45;&gt;Node4 -->
<g id="edge3" class="edge">
<title>Node1&#45;&gt;Node4</title>
<path fill="none" stroke="midnightblue" d="M312.53,-147.49C316.91,-138.82 321.44,-129.15 325,-120 335.33,-93.45 343.74,-61.53 348.56,-41.5"/>
<polygon fill="midnightblue" stroke="midnightblue" points="309.38,-145.96 307.9,-156.45 315.6,-149.18 309.38,-145.96"/>
</g>
<!-- Node5 -->
<g id="node5" class="node">
<title>Node5</title>
<g id="a_node5"><a xlink:href="sha256_8cpp.html" target="_top" xlink:title="Implementation of SHA256 algorithm.">
<polygon fill="none" stroke="black" points="455,-0.5 455,-41.5 585,-41.5 585,-0.5 455,-0.5"/>
<text text-anchor="start" x="463" y="-29.5" font-family="Helvetica,sans-Serif" font-size="10.00">/home/ugovaretto/projects</text>
<text text-anchor="start" x="463" y="-18.5" font-family="Helvetica,sans-Serif" font-size="10.00">/uv&#45;cpp/s3client/repo/lib</text>
<text text-anchor="middle" x="520" y="-7.5" font-family="Helvetica,sans-Serif" font-size="10.00">/hash/sha256.cpp</text>
</a>
</g>
</g>
<!-- Node1&#45;&gt;Node5 -->
<g id="edge4" class="edge">
<title>Node1&#45;&gt;Node5</title>
<path fill="none" stroke="midnightblue" d="M372.15,-165.61C426.32,-156.48 492.94,-141.3 511,-120 529.34,-98.37 527.68,-63.58 524.25,-41.8"/>
<polygon fill="midnightblue" stroke="midnightblue" points="371.5,-162.17 362.2,-167.24 372.63,-169.08 371.5,-162.17"/>
</g>
<!-- Node6 -->
<g id="node6" class="node">
<title>Node6</title>
<g id="a_node6"><a xlink:href="sha256_8h.html" target="_top" xlink:title="declaration of SHA256 hash functions.">
<polygon fill="none" stroke="black" points="372,-78.5 372,-119.5 502,-119.5 502,-78.5 372,-78.5"/>
<text text-anchor="start" x="380" y="-107.5" font-family="Helvetica,sans-Serif" font-size="10.00">/home/ugovaretto/projects</text>
<text text-anchor="start" x="380" y="-96.5" font-family="Helvetica,sans-Serif" font-size="10.00">/uv&#45;cpp/s3client/repo/lib</text>
<text text-anchor="middle" x="437" y="-85.5" font-family="Helvetica,sans-Serif" font-size="10.00">/hash/sha256.h</text>
</a>
</g>
</g>
<!-- Node1&#45;&gt;Node6 -->
<g id="edge5" class="edge">
<title>Node1&#45;&gt;Node6</title>
<path fill="none" stroke="midnightblue" d="M341.9,-151.63C361.03,-141.24 383.04,-129.29 401.07,-119.51"/>
<polygon fill="midnightblue" stroke="midnightblue" points="340.17,-148.58 333.05,-156.43 343.51,-154.73 340.17,-148.58"/>
</g>
<!-- Node7 -->
<g id="node7" class="node">
<title>Node7</title>
<g id="a_node7"><a xlink:href="md5_8h.html" target="_top" xlink:title="declaration of MD5 hashing functions.">
<polygon fill="none" stroke="black" points="186,-78.5 186,-119.5 316,-119.5 316,-78.5 186,-78.5"/>
<text text-anchor="start" x="194" y="-107.5" font-family="Helvetica,sans-Serif" font-size="10.00">/home/ugovaretto/projects</text>
<text text-anchor="start" x="194" y="-96.5" font-family="Helvetica,sans-Serif" font-size="10.00">/uv&#45;cpp/s3client/repo/lib</text>
<text text-anchor="middle" x="251" y="-85.5" font-family="Helvetica,sans-Serif" font-size="10.00">/hash/md5.h</text>
</a>
</g>
</g>
<!-- Node1&#45;&gt;Node7 -->
<g id="edge8" class="edge">
<title>Node1&#45;&gt;Node7</title>
<path fill="none" stroke="midnightblue" d="M279.91,-147.76C274.21,-138.35 268.01,-128.1 262.81,-119.51"/>
<polygon fill="midnightblue" stroke="midnightblue" points="276.98,-149.69 285.15,-156.43 282.97,-146.06 276.98,-149.69"/>
</g>
<!-- Node6&#45;&gt;Node4 -->
<g id="edge6" class="edge">
<title>Node6&#45;&gt;Node4</title>
<path fill="none" stroke="midnightblue" d="M407.7,-71.49C396.8,-61.63 384.64,-50.63 374.56,-41.51"/>
<polygon fill="midnightblue" stroke="midnightblue" points="405.6,-74.31 415.37,-78.43 410.3,-69.12 405.6,-74.31"/>
</g>
<!-- Node6&#45;&gt;Node5 -->
<g id="edge7" class="edge">
<title>Node6&#45;&gt;Node5</title>
<path fill="none" stroke="midnightblue" d="M465.95,-71.49C476.72,-61.63 488.74,-50.63 498.7,-41.51"/>
<polygon fill="midnightblue" stroke="midnightblue" points="463.39,-69.09 458.37,-78.43 468.11,-74.26 463.39,-69.09"/>
</g>
<!-- Node7&#45;&gt;Node3 -->
<g id="edge9" class="edge">
<title>Node7&#45;&gt;Node3</title>
<path fill="none" stroke="midnightblue" d="M224.91,-71.2C215.38,-61.42 204.79,-50.54 195.99,-41.51"/>
<polygon fill="midnightblue" stroke="midnightblue" points="222.46,-73.71 231.94,-78.43 227.47,-68.82 222.46,-73.71"/>
</g>
</g>
</svg>
        <g id="navigator" transform="translate(0 0)" fill="#404254">
                <rect fill="#f2f5e9" fill-opacity="0.5" stroke="#606060" stroke-width=".5" x="0" y="0" width="60" height="60"/>
                <use id="zoomplus" xlink:href="#zoomPlus" x="17" y="9" onmousedown="handleZoom(evt,'in')"/>
                <use id="zoomminus" xlink:href="#zoomMin" x="42" y="9" onmousedown="handleZoom(evt,'out')"/>
                <use id="reset" xlink:href="#resetDef" x="30" y="36" onmousedown="handleReset()"/>
                <g id="arrowUp" xlink:href="#dirArrow" transform="translate(30 24)" onmousedown="handlePan(0,-1)">
                  <use xlink:href="#rim" fill="#404040">
                        <set attributeName="fill" to="#808080" begin="arrowUp.mouseover" end="arrowUp.mouseout"/>
                  </use>
                  <path fill="none" stroke="white" stroke-width="1.5" d="M0,-3.0v7 M-2.5,-0.5L0,-3.0L2.5,-0.5"/>
                </g>
                <g id="arrowRight" xlink:href="#dirArrow" transform="rotate(90) translate(36 -43)" onmousedown="handlePan(1,0)">
                  <use xlink:href="#rim" fill="#404040">
                        <set attributeName="fill" to="#808080" begin="arrowRight.mouseover" end="arrowRight.mouseout"/>
                  </use>
                  <path fill="none" stroke="white" stroke-width="1.5" d="M0,-3.0v7 M-2.5,-0.5L0,-3.0L2.5,-0.5"/>
                </g>
                <g id="arrowDown" xlink:href="#dirArrow" transform="rotate(180) translate(-30 -48)" onmousedown="handlePan(0,1)">
                  <use xlink:href="#rim" fill="#404040">
                        <set attributeName="fill" to="#808080" begin="arrowDown.mouseover" end="arrowDown.mouseout"/>
                  </use>
                  <path fill="none" stroke="white" stroke-width="1.5" d="M0,-3.0v7 M-2.5,-0.5L0,-3.0L2.5,-0.5"/>
                </g>
                <g id="arrowLeft" xlink:href="#dirArrow" transform="rotate(270) translate(-36 17)" onmousedown="handlePan(-1,0)">
                  <use xlink:href="#rim" fill="#404040">
                        <set attributeName="fill" to="#808080" begin="arrowLeft.mouseover" end="arrowLeft.mouseout"/>
                  </use>
                  <path fill="none" stroke="white" stroke-width="1.5" d="M0,-3.0v7 M-2.5,-0.5L0,-3.0L2.5,-0.5"/>
                </g>
        </g>
        <svg viewBox="0 0 15 15" width="100%" height="30px" preserveAspectRatio="xMaxYMin meet">
         <g id="arrow_out" transform="scale(0.3 0.3)">
          <a xlink:href="lib_2hash_2utility_8h__dep__incl_org.svg" target="_base">
           <rect id="button" ry="5" rx="5" y="6" x="6" height="38" width="38"
                fill="#f2f5e9" fill-opacity="0.5" stroke="#606060" stroke-width="1.0"/>
           <path id="arrow"
             d="M 11.500037,31.436501 C 11.940474,20.09759 22.043105,11.32322 32.158766,21.979434 L 37.068811,17.246167 C 37.068811,17.246167 37.088388,32 37.088388,32 L 22.160133,31.978069 C 22.160133,31.978069 26.997745,27.140456 26.997745,27.140456 C 18.528582,18.264221 13.291696,25.230495 11.500037,31.436501 z"
             style="fill:#404040;"/>
          </a>
         </g>
        </svg>
</svg>
