<?xml version="1.0" encoding="UTF-8" standalone="no"?>
<!DOCTYPE svg PUBLIC "-//W3C//DTD SVG 1.1//EN"
 "http://www.w3.org/Graphics/SVG/1.1/DTD/svg11.dtd">
<!-- Generated by graphviz version 8.0.5 (20230430.1635)
 -->
<!-- Title: sss::ToLower Pages: 1 -->
<!--zoomable 638 -->
<svg id="main" version="1.1" xmlns="http://www.w3.org/2000/svg" xmlns:xlink="http://www.w3.org/1999/xlink" xml:space="preserve" onload="init(evt)">
<style type="text/css"><![CDATA[
.edge:hover path { stroke: red; }
.edge:hover polygon { stroke: red; fill: red; }
]]></style>
<script type="text/javascript"><![CDATA[
var edges = document.getElementsByTagName('g');
if (edges && edges.length) {
  for (var i=0;i<edges.length;i++) {
    if (edges[i].id.substr(0,4)=='edge') {
      edges[i].setAttribute('class','edge');
    }
  }
}
]]></script>
        <defs>
                <circle id="rim" cx="0" cy="0" r="7"/>
                <circle id="rim2" cx="0" cy="0" r="3.5"/>
                <g id="zoomPlus">
                        <use xlink:href="#rim" fill="#404040">
                                <set attributeName="fill" to="#808080" begin="zoomplus.mouseover" end="zoomplus.mouseout"/>
                        </use>
                        <path d="M-4,0h8M0,-4v8" fill="none" stroke="white" stroke-width="1.5" pointer-events="none"/>
                </g>
                <g id="zoomMin">
                        <use xlink:href="#rim" fill="#404040">
                                <set attributeName="fill" to="#808080" begin="zoomminus.mouseover" end="zoomminus.mouseout"/>
                        </use>
                        <path d="M-4,0h8" fill="none" stroke="white" stroke-width="1.5" pointer-events="none"/>
                </g>
                <g id="dirArrow">
                        <path fill="none" stroke="white" stroke-width="1.5" d="M0,-3.0v7 M-2.5,-0.5L0,-3.0L2.5,-0.5"/>
                </g>
               <g id="resetDef">
                       <use xlink:href="#rim2" fill="#404040">
                               <set attributeName="fill" to="#808080" begin="reset.mouseover" end="reset.mouseout"/>
                       </use>
               </g>
        </defs>

<script type="text/javascript">
var viewWidth = 1057;
var viewHeight = 638;
var sectionId = 'dynsection-13';
</script>
<script xlink:href="svgpan.js"/>
<svg id="graph" class="graph">
<g id="viewport">
<title>sss::ToLower</title>
<!-- Node1 -->
<g id="node1" class="node">
<title>Node1</title>
<g id="a_node1"><a xlink:title=" ">
<polygon fill="#999999" stroke="#666666" points="1048.75,-152.25 974.25,-152.25 974.25,-133 1048.75,-133 1048.75,-152.25"/>
<text text-anchor="middle" x="1011.5" y="-138.75" font-family="Helvetica,sans-Serif" font-size="10.00">sss::ToLower</text>
</a>
</g>
</g>
<!-- Node1&#45;&gt;Node1 -->
<g id="edge32" class="edge">
<title>Node1&#45;&gt;Node1</title>
<path fill="none" stroke="#63b8ff" d="M1035.5,-162.98C1032.98,-167.21 1024.98,-170.25 1011.5,-170.25 988.19,-170.25 981.27,-161.15 990.74,-152.54"/>
<polygon fill="#63b8ff" stroke="#63b8ff" points="1038.57,-162.05 1032.26,-153.54 1031.88,-164.13 1038.57,-162.05"/>
</g>
<!-- Node2 -->
<g id="node2" class="node">
<title>Node2</title>
<g id="a_node2"><a xlink:href="group__Sign.html#ga904d511ec786b87644cc90dc96dd8f3f" target="_top" xlink:title="Compute signature.">
<polygon fill="white" stroke="#666666" points="938.25,-228.25 819.5,-228.25 819.5,-209 938.25,-209 938.25,-228.25"/>
<text text-anchor="middle" x="878.88" y="-214.75" font-family="Helvetica,sans-Serif" font-size="10.00">sss::ComputeSignature</text>
</a>
</g>
</g>
<!-- Node1&#45;&gt;Node2 -->
<g id="edge1" class="edge">
<title>Node1&#45;&gt;Node2</title>
<path fill="none" stroke="#63b8ff" d="M990.18,-159.23C976.15,-170.18 956.76,-184.35 938.25,-194.62 928.77,-199.89 917.89,-204.67 908.11,-208.56"/>
<polygon fill="#63b8ff" stroke="#63b8ff" points="991.9,-161.53 997.56,-152.57 987.55,-156.05 991.9,-161.53"/>
</g>
<!-- Node7 -->
<g id="node7" class="node">
<title>Node7</title>
<g id="a_node7"><a xlink:href="classsss_1_1api_1_1S3Api.html#ad09581bf28c4bbbcbb71b329959ec1ae" target="_top" xlink:title=" ">
<polygon fill="white" stroke="#666666" points="495.75,-301.25 384.5,-301.25 384.5,-282 495.75,-282 495.75,-301.25"/>
<text text-anchor="middle" x="440.12" y="-287.75" font-family="Helvetica,sans-Serif" font-size="10.00">sss::api::S3Api::Send</text>
</a>
</g>
</g>
<!-- Node1&#45;&gt;Node7 -->
<g id="edge30" class="edge">
<title>Node1&#45;&gt;Node7</title>
<path fill="none" stroke="#63b8ff" d="M962.91,-135.01C873.67,-123.1 677.43,-108.31 536.25,-180.62 490.85,-203.88 458.1,-259.05 446.12,-281.68"/>
<polygon fill="#63b8ff" stroke="#63b8ff" points="962.38,-138.61 972.77,-136.52 963.34,-131.68 962.38,-138.61"/>
</g>
<!-- Node11 -->
<g id="node11" class="node">
<title>Node11</title>
<g id="a_node11"><a xlink:href="bucket-test_8cpp.html#a3c04138a5bfe5d72780bb7e82a18e627" target="_top" xlink:title="Bucket tests.">
<polygon fill="white" stroke="#666666" points="94.75,-286.25 57.75,-286.25 57.75,-267 94.75,-267 94.75,-286.25"/>
<text text-anchor="middle" x="76.25" y="-272.75" font-family="Helvetica,sans-Serif" font-size="10.00">main</text>
</a>
</g>
</g>
<!-- Node1&#45;&gt;Node11 -->
<g id="edge29" class="edge">
<title>Node1&#45;&gt;Node11</title>
<path fill="none" stroke="#63b8ff" d="M984.82,-127.16C937.62,-100.24 833.11,-47.62 737.5,-47.62 737.5,-47.62 737.5,-47.62 439.12,-47.62 327.42,-47.62 281.96,-5.44 188.5,-66.62 113.59,-115.66 85.74,-232.46 78.99,-266.9"/>
<polygon fill="#63b8ff" stroke="#63b8ff" points="982.85,-130.64 993.26,-132.64 986.37,-124.59 982.85,-130.64"/>
</g>
<!-- Node25 -->
<g id="node25" class="node">
<title>Node25</title>
<g id="a_node25"><a xlink:href="group__S3Client.html#ga5a769be8fbc874bad858ea95743e5643" target="_top" xlink:title="Send S3 request to endpoint.">
<polygon fill="white" stroke="#666666" points="649.38,-209.25 540.38,-209.25 540.38,-190 649.38,-190 649.38,-209.25"/>
<text text-anchor="middle" x="594.88" y="-195.75" font-family="Helvetica,sans-Serif" font-size="10.00">sss::SendS3Request</text>
</a>
</g>
</g>
<!-- Node1&#45;&gt;Node25 -->
<g id="edge31" class="edge">
<title>Node1&#45;&gt;Node25</title>
<path fill="none" stroke="#63b8ff" d="M963.15,-152.27C954.87,-153.82 946.32,-155.34 938.25,-156.62 836.64,-172.83 717.27,-186.65 649.7,-193.98"/>
<polygon fill="#63b8ff" stroke="#63b8ff" points="963.67,-155.54 972.83,-150.22 962.35,-148.67 963.67,-155.54"/>
</g>
<!-- Node26 -->
<g id="node26" class="node">
<title>Node26</title>
<g id="a_node26"><a xlink:href="group__S3Client.html#gad8bcfb380e91093fec44517e1eddc939" target="_top" xlink:title="Validate S3 client request parameters.">
<polygon fill="white" stroke="#666666" points="915,-19.25 842.75,-19.25 842.75,0 915,0 915,-19.25"/>
<text text-anchor="middle" x="878.88" y="-5.75" font-family="Helvetica,sans-Serif" font-size="10.00">sss::Validate</text>
</a>
</g>
</g>
<!-- Node1&#45;&gt;Node26 -->
<g id="edge33" class="edge">
<title>Node1&#45;&gt;Node26</title>
<path fill="none" stroke="#63b8ff" d="M1001.96,-123C990.59,-98.96 968.37,-58.37 938.25,-33.62 931.14,-27.78 922.41,-23.19 913.89,-19.66"/>
<polygon fill="#63b8ff" stroke="#63b8ff" points="999.07,-124.12 1006.4,-131.77 1005.44,-121.22 999.07,-124.12"/>
</g>
<!-- Node3 -->
<g id="node3" class="node">
<title>Node3</title>
<g id="a_node3"><a xlink:href="group__Sign.html#ga3ae8e18ef70752b7369fca66c40c526b" target="_top" xlink:title="Sign headers.">
<polygon fill="white" stroke="#666666" points="783.5,-228.25 689.5,-228.25 689.5,-209 783.5,-209 783.5,-228.25"/>
<text text-anchor="middle" x="736.5" y="-214.75" font-family="Helvetica,sans-Serif" font-size="10.00">sss::SignHeaders</text>
</a>
</g>
</g>
<!-- Node2&#45;&gt;Node3 -->
<g id="edge2" class="edge">
<title>Node2&#45;&gt;Node3</title>
<path fill="none" stroke="#63b8ff" d="M808.22,-218.62C799.87,-218.62 791.5,-218.62 783.6,-218.62"/>
<polygon fill="#63b8ff" stroke="#63b8ff" points="808.16,-222.13 818.16,-218.62 808.16,-215.13 808.16,-222.13"/>
</g>
<!-- Node4 -->
<g id="node4" class="node">
<title>Node4</title>
<g id="a_node4"><a xlink:href="classsss_1_1api_1_1S3Api.html#a840772746fbb0a79c161037da7b24a31" target="_top" xlink:title="[WebClient::Config]">
<polygon fill="white" stroke="#666666" points="653.5,-323.25 536.25,-323.25 536.25,-304 653.5,-304 653.5,-323.25"/>
<text text-anchor="middle" x="594.88" y="-309.75" font-family="Helvetica,sans-Serif" font-size="10.00">sss::api::S3Api::Config</text>
</a>
</g>
</g>
<!-- Node3&#45;&gt;Node4 -->
<g id="edge3" class="edge">
<title>Node3&#45;&gt;Node4</title>
<path fill="none" stroke="#63b8ff" d="M711.77,-234.77C682.7,-254.55 634.38,-287.43 610.36,-303.77"/>
<polygon fill="#63b8ff" stroke="#63b8ff" points="713.52,-237.13 719.82,-228.61 709.58,-231.34 713.52,-237.13"/>
</g>
<!-- Node3&#45;&gt;Node25 -->
<g id="edge28" class="edge">
<title>Node3&#45;&gt;Node25</title>
<path fill="none" stroke="#63b8ff" d="M678.37,-210.85C668.8,-209.55 658.89,-208.2 649.41,-206.91"/>
<polygon fill="#63b8ff" stroke="#63b8ff" points="677.63,-214.42 688.01,-212.3 678.57,-207.48 677.63,-214.42"/>
</g>
<!-- Node5 -->
<g id="node5" class="node">
<title>Node5</title>
<g id="a_node5"><a xlink:href="classsss_1_1api_1_1S3Api.html#a1196f1cb9ce1e5d69336e9b8dbb5d59c" target="_top" xlink:title=" ">
<polygon fill="white" stroke="#666666" points="500.25,-398.88 380,-398.88 380,-368.38 500.25,-368.38 500.25,-398.88"/>
<text text-anchor="start" x="388" y="-385.38" font-family="Helvetica,sans-Serif" font-size="10.00">sss::api::S3Api::GetFile</text>
<text text-anchor="middle" x="440.12" y="-374.12" font-family="Helvetica,sans-Serif" font-size="10.00">Object</text>
</a>
</g>
</g>
<!-- Node4&#45;&gt;Node5 -->
<g id="edge4" class="edge">
<title>Node4&#45;&gt;Node5</title>
<path fill="none" stroke="#63b8ff" d="M563.76,-328.55C545.49,-337.49 521.65,-348.97 500.25,-358.62 493.44,-361.7 486.15,-364.87 479.09,-367.89"/>
<polygon fill="#63b8ff" stroke="#63b8ff" points="565.12,-331.29 572.55,-323.74 562.03,-325.01 565.12,-331.29"/>
</g>
<!-- Node6 -->
<g id="node6" class="node">
<title>Node6</title>
<g id="a_node6"><a xlink:href="classsss_1_1api_1_1S3Api.html#ab7affe0834f5892b393e731783b7ccac" target="_top" xlink:title=" ">
<polygon fill="white" stroke="#666666" points="499.88,-349.88 380.38,-349.88 380.38,-319.38 499.88,-319.38 499.88,-349.88"/>
<text text-anchor="start" x="388.38" y="-336.38" font-family="Helvetica,sans-Serif" font-size="10.00">sss::api::S3Api::PutFile</text>
<text text-anchor="middle" x="440.12" y="-325.12" font-family="Helvetica,sans-Serif" font-size="10.00">Object</text>
</a>
</g>
</g>
<!-- Node4&#45;&gt;Node6 -->
<g id="edge5" class="edge">
<title>Node4&#45;&gt;Node6</title>
<path fill="none" stroke="#63b8ff" d="M525.25,-323.06C516.9,-324.21 508.42,-325.37 500.22,-326.5"/>
<polygon fill="#63b8ff" stroke="#63b8ff" points="525.7,-326.39 535.13,-321.56 524.74,-319.46 525.7,-326.39"/>
</g>
<!-- Node4&#45;&gt;Node7 -->
<g id="edge6" class="edge">
<title>Node4&#45;&gt;Node7</title>
<path fill="none" stroke="#63b8ff" d="M525.24,-303.74C515.51,-302.34 505.61,-300.91 496.18,-299.55"/>
<polygon fill="#63b8ff" stroke="#63b8ff" points="524.73,-307.35 535.13,-305.31 525.73,-300.42 524.73,-307.35"/>
</g>
<!-- Node8 -->
<g id="node8" class="node">
<title>Node8</title>
<g id="a_node8"><a xlink:href="classsss_1_1api_1_1S3Api.html#a4ea265566c3c4335ec01201cdc4410c6" target="_top" xlink:title=" ">
<polygon fill="white" stroke="#666666" points="341,-537.88 191.5,-537.88 191.5,-507.38 341,-507.38 341,-537.88"/>
<text text-anchor="start" x="199.5" y="-524.38" font-family="Helvetica,sans-Serif" font-size="10.00">sss::api::S3Api::AbortMultipart</text>
<text text-anchor="middle" x="266.25" y="-513.12" font-family="Helvetica,sans-Serif" font-size="10.00">Upload</text>
</a>
</g>
</g>
<!-- Node7&#45;&gt;Node8 -->
<g id="edge7" class="edge">
<title>Node7&#45;&gt;Node8</title>
<path fill="none" stroke="#63b8ff" d="M382.54,-308.03C381.65,-308.85 380.8,-309.72 380,-310.62 323.87,-373.97 400,-434.16 344,-497.62 340.85,-501.2 337.18,-504.26 333.19,-506.89"/>
<polygon fill="#63b8ff" stroke="#63b8ff" points="384.31,-310.34 390.4,-301.67 380.23,-304.66 384.31,-310.34"/>
</g>
<!-- Node9 -->
<g id="node9" class="node">
<title>Node9</title>
<g id="a_node9"><a xlink:href="classsss_1_1api_1_1S3Api.html#a98f999a216121118dd569c7ef0c28ff3" target="_top" xlink:title=" ">
<polygon fill="white" stroke="#666666" points="331.62,-488.88 200.88,-488.88 200.88,-458.38 331.62,-458.38 331.62,-488.88"/>
<text text-anchor="start" x="208.88" y="-475.38" font-family="Helvetica,sans-Serif" font-size="10.00">sss::api::S3Api::Complete</text>
<text text-anchor="middle" x="266.25" y="-464.12" font-family="Helvetica,sans-Serif" font-size="10.00">MultipartUpload</text>
</a>
</g>
</g>
<!-- Node7&#45;&gt;Node9 -->
<g id="edge8" class="edge">
<title>Node7&#45;&gt;Node9</title>
<path fill="none" stroke="#63b8ff" d="M383.03,-307.74C381.97,-308.65 380.96,-309.61 380,-310.62 336.19,-357.03 387.99,-403.39 344,-449.62 340.44,-453.37 336.3,-456.53 331.84,-459.2"/>
<polygon fill="#63b8ff" stroke="#63b8ff" points="384.6,-310.23 390.91,-301.72 380.67,-304.43 384.6,-310.23"/>
</g>
<!-- Node10 -->
<g id="node10" class="node">
<title>Node10</title>
<g id="a_node10"><a xlink:href="classsss_1_1api_1_1S3Api.html#ad890bd1ecfc978df24b2c3ed641e4081" target="_top" xlink:title=" ">
<polygon fill="white" stroke="#666666" points="340.62,-95.25 191.88,-95.25 191.88,-76 340.62,-76 340.62,-95.25"/>
<text text-anchor="middle" x="266.25" y="-81.75" font-family="Helvetica,sans-Serif" font-size="10.00">sss::api::S3Api::CreateBucket</text>
</a>
</g>
</g>
<!-- Node7&#45;&gt;Node10 -->
<g id="edge9" class="edge">
<title>Node7&#45;&gt;Node10</title>
<path fill="none" stroke="#63b8ff" d="M434.76,-271.02C425.39,-231.99 399.5,-147.27 344,-103.62 340.02,-100.49 335.59,-97.89 330.91,-95.73"/>
<polygon fill="#63b8ff" stroke="#63b8ff" points="431.53,-271.59 437.16,-280.57 438.36,-270.04 431.53,-271.59"/>
</g>
<!-- Node12 -->
<g id="node12" class="node">
<title>Node12</title>
<g id="a_node12"><a xlink:href="classsss_1_1api_1_1S3Api.html#a1796fafda3d90a4292a611ce1999433b" target="_top" xlink:title=" ">
<polygon fill="white" stroke="#666666" points="344,-328.88 188.5,-328.88 188.5,-298.38 344,-298.38 344,-328.88"/>
<text text-anchor="start" x="196.5" y="-315.38" font-family="Helvetica,sans-Serif" font-size="10.00">sss::api::S3Api::CreateMultipart</text>
<text text-anchor="middle" x="266.25" y="-304.12" font-family="Helvetica,sans-Serif" font-size="10.00">Upload</text>
</a>
</g>
</g>
<!-- Node7&#45;&gt;Node12 -->
<g id="edge11" class="edge">
<title>Node7&#45;&gt;Node12</title>
<path fill="none" stroke="#63b8ff" d="M373.36,-300.04C363.9,-301.25 354.1,-302.51 344.45,-303.74"/>
<polygon fill="#63b8ff" stroke="#63b8ff" points="373.8,-303.39 383.27,-298.65 372.91,-296.44 373.8,-303.39"/>
</g>
<!-- Node13 -->
<g id="node13" class="node">
<title>Node13</title>
<g id="a_node13"><a xlink:href="classsss_1_1api_1_1S3Api.html#a3d63825d1916e4ba3ca13122c7660603" target="_top" xlink:title=" ">
<polygon fill="white" stroke="#666666" points="340.25,-440.25 192.25,-440.25 192.25,-421 340.25,-421 340.25,-440.25"/>
<text text-anchor="middle" x="266.25" y="-426.75" font-family="Helvetica,sans-Serif" font-size="10.00">sss::api::S3Api::DeleteBucket</text>
</a>
</g>
</g>
<!-- Node7&#45;&gt;Node13 -->
<g id="edge12" class="edge">
<title>Node7&#45;&gt;Node13</title>
<path fill="none" stroke="#63b8ff" d="M383.67,-307.44C382.39,-308.44 381.16,-309.5 380,-310.62 345.53,-344.13 379.79,-380.53 344,-412.62 340.54,-415.73 336.64,-418.33 332.48,-420.5"/>
<polygon fill="#63b8ff" stroke="#63b8ff" points="385.18,-310 391.81,-301.73 381.47,-304.06 385.18,-310"/>
</g>
<!-- Node14 -->
<g id="node14" class="node">
<title>Node14</title>
<g id="a_node14"><a xlink:href="classsss_1_1api_1_1S3Api.html#a14a75f15eb71fbba8639673100768b67" target="_top" xlink:title=" ">
<polygon fill="white" stroke="#666666" points="339.12,-280.25 193.38,-280.25 193.38,-261 339.12,-261 339.12,-280.25"/>
<text text-anchor="middle" x="266.25" y="-266.75" font-family="Helvetica,sans-Serif" font-size="10.00">sss::api::S3Api::DeleteObject</text>
</a>
</g>
</g>
<!-- Node7&#45;&gt;Node14 -->
<g id="edge14" class="edge">
<title>Node7&#45;&gt;Node14</title>
<path fill="none" stroke="#63b8ff" d="M373.37,-283.59C362.28,-282.24 350.72,-280.82 339.47,-279.45"/>
<polygon fill="#63b8ff" stroke="#63b8ff" points="372.92,-287.18 383.27,-284.92 373.77,-280.24 372.92,-287.18"/>
</g>
<!-- Node15 -->
<g id="node15" class="node">
<title>Node15</title>
<g id="a_node15"><a xlink:href="classsss_1_1api_1_1S3Api.html#a3b53152bf39143843a4033aa4a1b3fa0" target="_top" xlink:title=" ">
<polygon fill="white" stroke="#666666" points="341,-403.25 191.5,-403.25 191.5,-384 341,-384 341,-403.25"/>
<text text-anchor="middle" x="266.25" y="-389.75" font-family="Helvetica,sans-Serif" font-size="10.00">sss::api::S3Api::GetBucketAcl</text>
</a>
</g>
</g>
<!-- Node7&#45;&gt;Node15 -->
<g id="edge15" class="edge">
<title>Node7&#45;&gt;Node15</title>
<path fill="none" stroke="#63b8ff" d="M385.24,-306.83C383.41,-308 381.66,-309.26 380,-310.62 354.49,-331.59 370.34,-355.7 344,-375.62 339.85,-378.76 335.25,-381.37 330.41,-383.52"/>
<polygon fill="#63b8ff" stroke="#63b8ff" points="386.71,-309.47 393.88,-301.67 383.41,-303.3 386.71,-309.47"/>
</g>
<!-- Node16 -->
<g id="node16" class="node">
<title>Node16</title>
<g id="a_node16"><a xlink:href="classsss_1_1api_1_1S3Api.html#af61465d92c0a94aa82ae863fc2a776a0" target="_top" xlink:title=" ">
<polygon fill="white" stroke="#666666" points="332.75,-243.25 199.75,-243.25 199.75,-224 332.75,-224 332.75,-243.25"/>
<text text-anchor="middle" x="266.25" y="-229.75" font-family="Helvetica,sans-Serif" font-size="10.00">sss::api::S3Api::GetObject</text>
</a>
</g>
</g>
<!-- Node7&#45;&gt;Node16 -->
<g id="edge17" class="edge">
<title>Node7&#45;&gt;Node16</title>
<path fill="none" stroke="#63b8ff" d="M408.13,-277.04C389.77,-268.79 365.89,-258.74 344,-251.62 335.02,-248.71 325.3,-246.05 315.9,-243.73"/>
<polygon fill="#63b8ff" stroke="#63b8ff" points="406.43,-280.56 416.98,-281.52 409.33,-274.19 406.43,-280.56"/>
</g>
<!-- Node17 -->
<g id="node17" class="node">
<title>Node17</title>
<g id="a_node17"><a xlink:href="classsss_1_1api_1_1S3Api.html#aa4a2b1cc2c89a52d1aa89e571b785db2" target="_top" xlink:title=" ">
<polygon fill="white" stroke="#666666" points="337.62,-366.25 194.88,-366.25 194.88,-347 337.62,-347 337.62,-366.25"/>
<text text-anchor="middle" x="266.25" y="-352.75" font-family="Helvetica,sans-Serif" font-size="10.00">sss::api::S3Api::HeadBucket</text>
</a>
</g>
</g>
<!-- Node7&#45;&gt;Node17 -->
<g id="edge18" class="edge">
<title>Node7&#45;&gt;Node17</title>
<path fill="none" stroke="#63b8ff" d="M391.19,-305.5C387.34,-307.08 383.56,-308.78 380,-310.62 362.23,-319.81 362.07,-329.05 344,-337.62 336.44,-341.21 328.12,-344.17 319.84,-346.6"/>
<polygon fill="#63b8ff" stroke="#63b8ff" points="392.33,-308.44 400.46,-301.65 389.87,-301.88 392.33,-308.44"/>
</g>
<!-- Node18 -->
<g id="node18" class="node">
<title>Node18</title>
<g id="a_node18"><a xlink:href="classsss_1_1api_1_1S3Api.html#abc84a71b9a88b81afaa353ad17a91d22" target="_top" xlink:title=" ">
<polygon fill="white" stroke="#666666" points="336.5,-612.25 196,-612.25 196,-593 336.5,-593 336.5,-612.25"/>
<text text-anchor="middle" x="266.25" y="-598.75" font-family="Helvetica,sans-Serif" font-size="10.00">sss::api::S3Api::HeadObject</text>
</a>
</g>
</g>
<!-- Node7&#45;&gt;Node18 -->
<g id="edge20" class="edge">
<title>Node7&#45;&gt;Node18</title>
<path fill="none" stroke="#63b8ff" d="M382.41,-308.02C381.56,-308.85 380.76,-309.71 380,-310.62 301.32,-404.94 426.41,-493.55 344,-584.62 341.15,-587.77 337.87,-590.42 334.3,-592.64"/>
<polygon fill="#63b8ff" stroke="#63b8ff" points="384,-310.45 389.89,-301.64 379.8,-304.85 384,-310.45"/>
</g>
<!-- Node21 -->
<g id="node21" class="node">
<title>Node21</title>
<g id="a_node21"><a xlink:href="classsss_1_1api_1_1S3Api.html#a81e30673c06b609a2ee6e6bfd9130ca6" target="_top" xlink:title=" ">
<polygon fill="white" stroke="#666666" points="336.5,-206.25 196,-206.25 196,-187 336.5,-187 336.5,-206.25"/>
<text text-anchor="middle" x="266.25" y="-192.75" font-family="Helvetica,sans-Serif" font-size="10.00">sss::api::S3Api::ListBuckets</text>
</a>
</g>
</g>
<!-- Node7&#45;&gt;Node21 -->
<g id="edge23" class="edge">
<title>Node7&#45;&gt;Node21</title>
<path fill="none" stroke="#63b8ff" d="M422.62,-274.28C404.85,-256.63 374.94,-229.78 344,-214.62 337.61,-211.49 330.65,-208.89 323.61,-206.74"/>
<polygon fill="#63b8ff" stroke="#63b8ff" points="419.39,-276 428.9,-280.67 424.37,-271.09 419.39,-276"/>
</g>
<!-- Node22 -->
<g id="node22" class="node">
<title>Node22</title>
<g id="a_node22"><a xlink:href="classsss_1_1api_1_1S3Api.html#a3f00f611cd210a58ac6e8c0555984433" target="_top" xlink:title=" ">
<polygon fill="white" stroke="#666666" points="341.38,-169.25 191.12,-169.25 191.12,-150 341.38,-150 341.38,-169.25"/>
<text text-anchor="middle" x="266.25" y="-155.75" font-family="Helvetica,sans-Serif" font-size="10.00">sss::api::S3Api::ListObjectsV2</text>
</a>
</g>
</g>
<!-- Node7&#45;&gt;Node22 -->
<g id="edge25" class="edge">
<title>Node7&#45;&gt;Node22</title>
<path fill="none" stroke="#63b8ff" d="M428.32,-272.07C413.02,-246.29 382.56,-201.42 344,-177.62 338.88,-174.46 333.24,-171.86 327.43,-169.71"/>
<polygon fill="#63b8ff" stroke="#63b8ff" points="425.74,-273.61 433.76,-280.53 431.81,-270.12 425.74,-273.61"/>
</g>
<!-- Node23 -->
<g id="node23" class="node">
<title>Node23</title>
<g id="a_node23"><a xlink:href="classsss_1_1api_1_1S3Api.html#a0473917e4d25a4a6fca40d097e4299d6" target="_top" xlink:title=" ">
<polygon fill="white" stroke="#666666" points="321.88,-132.25 210.62,-132.25 210.62,-113 321.88,-113 321.88,-132.25"/>
<text text-anchor="middle" x="266.25" y="-118.75" font-family="Helvetica,sans-Serif" font-size="10.00">sss::api::S3Api::Send</text>
</a>
</g>
</g>
<!-- Node7&#45;&gt;Node23 -->
<g id="edge26" class="edge">
<title>Node7&#45;&gt;Node23</title>
<path fill="none" stroke="#63b8ff" d="M432.21,-271.47C419.89,-238.68 390.94,-174.1 344,-140.62 337.54,-136.02 330.06,-132.57 322.37,-130"/>
<polygon fill="#63b8ff" stroke="#63b8ff" points="429.2,-272.42 435.88,-280.64 435.78,-270.04 429.2,-272.42"/>
</g>
<!-- Node24 -->
<g id="node24" class="node">
<title>Node24</title>
<g id="a_node24"><a xlink:href="classsss_1_1api_1_1S3Api.html#a23223ee1fb701c55af2d942dbf261ae2" target="_top" xlink:title=" ">
<polygon fill="white" stroke="#666666" points="335.38,-575.25 197.12,-575.25 197.12,-556 335.38,-556 335.38,-575.25"/>
<text text-anchor="middle" x="266.25" y="-561.75" font-family="Helvetica,sans-Serif" font-size="10.00">sss::api::S3Api::TestBucket</text>
</a>
</g>
</g>
<!-- Node7&#45;&gt;Node24 -->
<g id="edge27" class="edge">
<title>Node7&#45;&gt;Node24</title>
<path fill="none" stroke="#63b8ff" d="M382.43,-308.04C381.58,-308.86 380.77,-309.72 380,-310.62 311.19,-391.39 415.52,-468.25 344,-546.62 340.76,-550.17 336.97,-553.11 332.85,-555.53"/>
<polygon fill="#63b8ff" stroke="#63b8ff" points="384.03,-310.48 389.97,-301.7 379.85,-304.85 384.03,-310.48"/>
</g>
<!-- Node10&#45;&gt;Node11 -->
<g id="edge10" class="edge">
<title>Node10&#45;&gt;Node11</title>
<path fill="none" stroke="#63b8ff" d="M193.27,-100.56C191.63,-101.52 190.04,-102.54 188.5,-103.62 126.66,-147.29 90.95,-237.28 80.5,-266.92"/>
<polygon fill="#63b8ff" stroke="#63b8ff" points="194.68,-103.27 202.09,-95.7 191.57,-97 194.68,-103.27"/>
</g>
<!-- Node13&#45;&gt;Node11 -->
<g id="edge13" class="edge">
<title>Node13&#45;&gt;Node11</title>
<path fill="none" stroke="#63b8ff" d="M194.96,-416.24C192.74,-415.12 190.58,-413.92 188.5,-412.62 135.44,-379.53 96.02,-312.23 82.42,-286.73"/>
<polygon fill="#63b8ff" stroke="#63b8ff" points="193.47,-419.84 204.03,-420.6 196.25,-413.41 193.47,-419.84"/>
</g>
<!-- Node15&#45;&gt;Node11 -->
<g id="edge16" class="edge">
<title>Node15&#45;&gt;Node11</title>
<path fill="none" stroke="#63b8ff" d="M197.67,-379.83C194.51,-378.55 191.44,-377.15 188.5,-375.62 143.52,-352.28 102.2,-306.65 85.31,-286.54"/>
<polygon fill="#63b8ff" stroke="#63b8ff" points="196.34,-383.44 206.94,-383.54 198.72,-376.85 196.34,-383.44"/>
</g>
<!-- Node17&#45;&gt;Node11 -->
<g id="edge19" class="edge">
<title>Node17&#45;&gt;Node11</title>
<path fill="none" stroke="#63b8ff" d="M206.18,-343.66C200.14,-341.84 194.15,-339.83 188.5,-337.62 152.39,-323.53 113.35,-299.98 92.47,-286.64"/>
<polygon fill="#63b8ff" stroke="#63b8ff" points="204.77,-347.18 215.35,-346.53 206.68,-340.44 204.77,-347.18"/>
</g>
<!-- Node19 -->
<g id="node19" class="node">
<title>Node19</title>
<g id="a_node19"><a xlink:href="classsss_1_1api_1_1S3Api.html#a872e80e356e8c404a9b0739d95a0af41" target="_top" xlink:title="[WebClient::Config]">
<polygon fill="white" stroke="#666666" points="152.5,-630.25 0,-630.25 0,-611 152.5,-611 152.5,-630.25"/>
<text text-anchor="middle" x="76.25" y="-616.75" font-family="Helvetica,sans-Serif" font-size="10.00">sss::api::S3Api::GetObjectSize</text>
</a>
</g>
</g>
<!-- Node18&#45;&gt;Node19 -->
<g id="edge21" class="edge">
<title>Node18&#45;&gt;Node19</title>
<path fill="none" stroke="#63b8ff" d="M184.63,-610.34C174.09,-611.35 163.33,-612.38 152.87,-613.38"/>
<polygon fill="#63b8ff" stroke="#63b8ff" points="184.89,-613.74 194.51,-609.3 184.22,-606.77 184.89,-613.74"/>
</g>
<!-- Node20 -->
<g id="node20" class="node">
<title>Node20</title>
<g id="a_node20"><a xlink:href="classsss_1_1api_1_1S3Api.html#aa3f7a3001bdad58c7b0c04cbd0dc3236" target="_top" xlink:title=" ">
<polygon fill="white" stroke="#666666" points="144.25,-593.25 8.25,-593.25 8.25,-574 144.25,-574 144.25,-593.25"/>
<text text-anchor="middle" x="76.25" y="-579.75" font-family="Helvetica,sans-Serif" font-size="10.00">sss::api::S3Api::TestObject</text>
</a>
</g>
</g>
<!-- Node18&#45;&gt;Node20 -->
<g id="edge22" class="edge">
<title>Node18&#45;&gt;Node20</title>
<path fill="none" stroke="#63b8ff" d="M184.88,-594.5C171.48,-593.15 157.71,-591.76 144.69,-590.44"/>
<polygon fill="#63b8ff" stroke="#63b8ff" points="184.21,-598.05 194.51,-595.58 184.92,-591.09 184.21,-598.05"/>
</g>
<!-- Node21&#45;&gt;Node11 -->
<g id="edge24" class="edge">
<title>Node21&#45;&gt;Node11</title>
<path fill="none" stroke="#63b8ff" d="M203.14,-209.61C198.13,-211.14 193.2,-212.81 188.5,-214.62 152,-228.76 112.79,-252.98 92.07,-266.59"/>
<polygon fill="#63b8ff" stroke="#63b8ff" points="203.79,-212.78 212.46,-206.69 201.88,-206.05 203.79,-212.78"/>
</g>
</g>
</svg>
        <g id="navigator" transform="translate(0 0)" fill="#404254">
                <rect fill="#f2f5e9" fill-opacity="0.5" stroke="#606060" stroke-width=".5" x="0" y="0" width="60" height="60"/>
                <use id="zoomplus" xlink:href="#zoomPlus" x="17" y="9" onmousedown="handleZoom(evt,'in')"/>
                <use id="zoomminus" xlink:href="#zoomMin" x="42" y="9" onmousedown="handleZoom(evt,'out')"/>
                <use id="reset" xlink:href="#resetDef" x="30" y="36" onmousedown="handleReset()"/>
                <g id="arrowUp" xlink:href="#dirArrow" transform="translate(30 24)" onmousedown="handlePan(0,-1)">
                  <use xlink:href="#rim" fill="#404040">
                        <set attributeName="fill" to="#808080" begin="arrowUp.mouseover" end="arrowUp.mouseout"/>
                  </use>
                  <path fill="none" stroke="white" stroke-width="1.5" d="M0,-3.0v7 M-2.5,-0.5L0,-3.0L2.5,-0.5"/>
                </g>
                <g id="arrowRight" xlink:href="#dirArrow" transform="rotate(90) translate(36 -43)" onmousedown="handlePan(1,0)">
                  <use xlink:href="#rim" fill="#404040">
                        <set attributeName="fill" to="#808080" begin="arrowRight.mouseover" end="arrowRight.mouseout"/>
                  </use>
                  <path fill="none" stroke="white" stroke-width="1.5" d="M0,-3.0v7 M-2.5,-0.5L0,-3.0L2.5,-0.5"/>
                </g>
                <g id="arrowDown" xlink:href="#dirArrow" transform="rotate(180) translate(-30 -48)" onmousedown="handlePan(0,1)">
                  <use xlink:href="#rim" fill="#404040">
                        <set attributeName="fill" to="#808080" begin="arrowDown.mouseover" end="arrowDown.mouseout"/>
                  </use>
                  <path fill="none" stroke="white" stroke-width="1.5" d="M0,-3.0v7 M-2.5,-0.5L0,-3.0L2.5,-0.5"/>
                </g>
                <g id="arrowLeft" xlink:href="#dirArrow" transform="rotate(270) translate(-36 17)" onmousedown="handlePan(-1,0)">
                  <use xlink:href="#rim" fill="#404040">
                        <set attributeName="fill" to="#808080" begin="arrowLeft.mouseover" end="arrowLeft.mouseout"/>
                  </use>
                  <path fill="none" stroke="white" stroke-width="1.5" d="M0,-3.0v7 M-2.5,-0.5L0,-3.0L2.5,-0.5"/>
                </g>
        </g>
        <svg viewBox="0 0 15 15" width="100%" height="30px" preserveAspectRatio="xMaxYMin meet">
         <g id="arrow_out" transform="scale(0.3 0.3)">
          <a xlink:href="lib_2include_2utility_8h_ab314781bb3f053ef5325b50f3a1b74f8_icgraph_org.svg" target="_base">
           <rect id="button" ry="5" rx="5" y="6" x="6" height="38" width="38"
                fill="#f2f5e9" fill-opacity="0.5" stroke="#606060" stroke-width="1.0"/>
           <path id="arrow"
             d="M 11.500037,31.436501 C 11.940474,20.09759 22.043105,11.32322 32.158766,21.979434 L 37.068811,17.246167 C 37.068811,17.246167 37.088388,32 37.088388,32 L 22.160133,31.978069 C 22.160133,31.978069 26.997745,27.140456 26.997745,27.140456 C 18.528582,18.264221 13.291696,25.230495 11.500037,31.436501 z"
             style="fill:#404040;"/>
          </a>
         </g>
        </svg>
</svg>
