<?xml version="1.0" encoding="UTF-8" standalone="no"?>
<!DOCTYPE svg PUBLIC "-//W3C//DTD SVG 1.1//EN"
 "http://www.w3.org/Graphics/SVG/1.1/DTD/svg11.dtd">
<!-- Generated by graphviz version 8.0.5 (20230430.1635)
 -->
<!-- Title: /Users/ugovaretto/projects/s3client/repo/lib/hash/utility.cpp Pages: 1 -->
<svg width="217pt" height="160pt"
 viewBox="0.00 0.00 217.25 160.25" xmlns="http://www.w3.org/2000/svg" xmlns:xlink="http://www.w3.org/1999/xlink">
<g id="graph0" class="graph" transform="scale(1 1) rotate(0) translate(4 156.25)">
<title>/Users/ugovaretto/projects/s3client/repo/lib/hash/utility.cpp</title>
<!-- Node1 -->
<g id="node1" class="node">
<title>Node1</title>
<g id="a_node1"><a xlink:title="Implementation of SHA256 utility functions.">
<polygon fill="#999999" stroke="#666666" points="175.38,-152.25 43.88,-152.25 43.88,-110.5 175.38,-110.5 175.38,-152.25"/>
<text text-anchor="start" x="51.88" y="-138.75" font-family="Helvetica,sans-Serif" font-size="10.00">/Users/ugovaretto/projects</text>
<text text-anchor="start" x="51.88" y="-127.5" font-family="Helvetica,sans-Serif" font-size="10.00">/s3client/repo/lib/hash</text>
<text text-anchor="middle" x="109.62" y="-116.25" font-family="Helvetica,sans-Serif" font-size="10.00">/utility.cpp</text>
</a>
</g>
</g>
<!-- Node2 -->
<g id="node2" class="node">
<title>Node2</title>
<g id="a_node2"><a xlink:href="lib_2hash_2utility_8h.html" target="_top" xlink:title="Declaration of utility functions for SHA256 hashing.">
<polygon fill="white" stroke="#666666" points="107.62,-74.5 61.62,-74.5 61.62,-55.25 107.62,-55.25 107.62,-74.5"/>
<text text-anchor="middle" x="84.62" y="-61" font-family="Helvetica,sans-Serif" font-size="10.00">utility.h</text>
</a>
</g>
</g>
<!-- Node1&#45;&gt;Node2 -->
<g id="edge1" class="edge">
<title>Node1&#45;&gt;Node2</title>
<path fill="none" stroke="#63b8ff" d="M101.85,-110.32C98.73,-102.28 95.16,-93.05 92.07,-85.09"/>
<polygon fill="#63b8ff" stroke="#63b8ff" points="95.02,-84 88.14,-75.95 88.49,-86.53 95.02,-84"/>
</g>
<!-- Node3 -->
<g id="node3" class="node">
<title>Node3</title>
<g id="a_node3"><a xlink:title=" ">
<polygon fill="#e0e0e0" stroke="#999999" points="45.25,-19.25 0,-19.25 0,0 45.25,0 45.25,-19.25"/>
<text text-anchor="middle" x="22.62" y="-5.75" font-family="Helvetica,sans-Serif" font-size="10.00">cstdint</text>
</a>
</g>
</g>
<!-- Node1&#45;&gt;Node3 -->
<g id="edge5" class="edge">
<title>Node1&#45;&gt;Node3</title>
<path fill="none" stroke="#63b8ff" d="M85.19,-110.02C74.29,-100.09 61.85,-87.5 52.62,-74.5 42.75,-60.59 34.75,-42.92 29.5,-29.69"/>
<polygon fill="#63b8ff" stroke="#63b8ff" points="32.42,-28.53 25.61,-20.42 25.87,-31.01 32.42,-28.53"/>
</g>
<!-- Node5 -->
<g id="node5" class="node">
<title>Node5</title>
<g id="a_node5"><a xlink:title=" ">
<polygon fill="#e0e0e0" stroke="#999999" points="167.88,-19.25 123.38,-19.25 123.38,0 167.88,0 167.88,-19.25"/>
<text text-anchor="middle" x="145.62" y="-5.75" font-family="Helvetica,sans-Serif" font-size="10.00">cstdlib</text>
</a>
</g>
</g>
<!-- Node1&#45;&gt;Node5 -->
<g id="edge6" class="edge">
<title>Node1&#45;&gt;Node5</title>
<path fill="none" stroke="#63b8ff" d="M115.73,-110.06C122.47,-87.66 133.22,-51.89 139.83,-29.91"/>
<polygon fill="#63b8ff" stroke="#63b8ff" points="143.41,-31.14 142.94,-20.56 136.71,-29.12 143.41,-31.14"/>
</g>
<!-- Node6 -->
<g id="node6" class="node">
<title>Node6</title>
<g id="a_node6"><a xlink:title=" ">
<polygon fill="#e0e0e0" stroke="#999999" points="209.25,-74.5 164,-74.5 164,-55.25 209.25,-55.25 209.25,-74.5"/>
<text text-anchor="middle" x="186.62" y="-61" font-family="Helvetica,sans-Serif" font-size="10.00">cstring</text>
</a>
</g>
</g>
<!-- Node1&#45;&gt;Node6 -->
<g id="edge7" class="edge">
<title>Node1&#45;&gt;Node6</title>
<path fill="none" stroke="#63b8ff" d="M133.57,-110.32C144.49,-101.17 157.25,-90.48 167.52,-81.88"/>
<polygon fill="#63b8ff" stroke="#63b8ff" points="169.38,-84.05 174.8,-74.95 164.88,-78.68 169.38,-84.05"/>
</g>
<!-- Node2&#45;&gt;Node3 -->
<g id="edge2" class="edge">
<title>Node2&#45;&gt;Node3</title>
<path fill="none" stroke="#63b8ff" d="M74.11,-54.84C65.15,-47.15 52.05,-35.9 41.31,-26.68"/>
<polygon fill="#63b8ff" stroke="#63b8ff" points="43.85,-23.39 33.99,-19.52 39.29,-28.7 43.85,-23.39"/>
</g>
<!-- Node4 -->
<g id="node4" class="node">
<title>Node4</title>
<g id="a_node4"><a xlink:title=" ">
<polygon fill="#e0e0e0" stroke="#999999" points="105.75,-19.25 63.5,-19.25 63.5,0 105.75,0 105.75,-19.25"/>
<text text-anchor="middle" x="84.62" y="-5.75" font-family="Helvetica,sans-Serif" font-size="10.00">cstdio</text>
</a>
</g>
</g>
<!-- Node2&#45;&gt;Node4 -->
<g id="edge3" class="edge">
<title>Node2&#45;&gt;Node4</title>
<path fill="none" stroke="#63b8ff" d="M84.62,-55.08C84.62,-48.42 84.62,-38.99 84.62,-30.53"/>
<polygon fill="#63b8ff" stroke="#63b8ff" points="88.13,-30.61 84.62,-20.61 81.13,-30.61 88.13,-30.61"/>
</g>
<!-- Node2&#45;&gt;Node5 -->
<g id="edge4" class="edge">
<title>Node2&#45;&gt;Node5</title>
<path fill="none" stroke="#63b8ff" d="M94.97,-54.84C103.79,-47.15 116.67,-35.9 127.24,-26.68"/>
<polygon fill="#63b8ff" stroke="#63b8ff" points="129.2,-28.74 134.43,-19.52 124.59,-23.46 129.2,-28.74"/>
</g>
</g>
</svg>
