<?xml version="1.0" encoding="UTF-8" standalone="no"?>
<!DOCTYPE svg PUBLIC "-//W3C//DTD SVG 1.1//EN"
 "http://www.w3.org/Graphics/SVG/1.1/DTD/svg11.dtd">
<!-- Generated by graphviz version 2.43.0 (0)
 -->
<!-- Title: /home/ugovaretto/projects/uv&#45;cpp/s3client/repo/lib/hash/utility.h Pages: 1 -->
<svg width="593pt" height="206pt"
 viewBox="0.00 0.00 593.00 206.00" xmlns="http://www.w3.org/2000/svg" xmlns:xlink="http://www.w3.org/1999/xlink">
<g id="graph0" class="graph" transform="scale(1 1) rotate(0) translate(4 202)">
<title>/home/ugovaretto/projects/uv&#45;cpp/s3client/repo/lib/hash/utility.h</title>
<!-- Node1 -->
<g id="node1" class="node">
<title>Node1</title>
<g id="a_node1"><a xlink:title="Declaration of utility functions for SHA256 hashing.">
<polygon fill="#bfbfbf" stroke="black" points="232,-156.5 232,-197.5 362,-197.5 362,-156.5 232,-156.5"/>
<text text-anchor="start" x="240" y="-185.5" font-family="Helvetica,sans-Serif" font-size="10.00">/home/ugovaretto/projects</text>
<text text-anchor="start" x="240" y="-174.5" font-family="Helvetica,sans-Serif" font-size="10.00">/uv&#45;cpp/s3client/repo/lib</text>
<text text-anchor="middle" x="297" y="-163.5" font-family="Helvetica,sans-Serif" font-size="10.00">/hash/utility.h</text>
</a>
</g>
</g>
<!-- Node2 -->
<g id="node2" class="node">
<title>Node2</title>
<g id="a_node2"><a xlink:href="lib_2hash_2utility_8cpp.html" target="_top" xlink:title="Implementation of SHA256 utility functions.">
<polygon fill="none" stroke="black" points="0,-78.5 0,-119.5 130,-119.5 130,-78.5 0,-78.5"/>
<text text-anchor="start" x="8" y="-107.5" font-family="Helvetica,sans-Serif" font-size="10.00">/home/ugovaretto/projects</text>
<text text-anchor="start" x="8" y="-96.5" font-family="Helvetica,sans-Serif" font-size="10.00">/uv&#45;cpp/s3client/repo/lib</text>
<text text-anchor="middle" x="65" y="-85.5" font-family="Helvetica,sans-Serif" font-size="10.00">/hash/utility.cpp</text>
</a>
</g>
</g>
<!-- Node1&#45;&gt;Node2 -->
<g id="edge1" class="edge">
<title>Node1&#45;&gt;Node2</title>
<path fill="none" stroke="midnightblue" d="M227.72,-153.3C194.88,-142.55 156.04,-129.82 124.54,-119.51"/>
<polygon fill="midnightblue" stroke="midnightblue" points="226.66,-156.64 237.25,-156.43 228.84,-149.99 226.66,-156.64"/>
</g>
<!-- Node3 -->
<g id="node3" class="node">
<title>Node3</title>
<g id="a_node3"><a xlink:href="hmac256_8cpp.html" target="_top" xlink:title="implementation of HMAC hashing algorithm.">
<polygon fill="none" stroke="black" points="298,-0.5 298,-41.5 428,-41.5 428,-0.5 298,-0.5"/>
<text text-anchor="start" x="306" y="-29.5" font-family="Helvetica,sans-Serif" font-size="10.00">/home/ugovaretto/projects</text>
<text text-anchor="start" x="306" y="-18.5" font-family="Helvetica,sans-Serif" font-size="10.00">/uv&#45;cpp/s3client/repo/lib</text>
<text text-anchor="middle" x="363" y="-7.5" font-family="Helvetica,sans-Serif" font-size="10.00">/hash/hmac256.cpp</text>
</a>
</g>
</g>
<!-- Node1&#45;&gt;Node3 -->
<g id="edge2" class="edge">
<title>Node1&#45;&gt;Node3</title>
<path fill="none" stroke="midnightblue" d="M312.01,-147.28C316.37,-138.59 321.03,-128.98 325,-120 336.82,-93.3 348.71,-61.7 355.96,-41.74"/>
<polygon fill="midnightblue" stroke="midnightblue" points="308.85,-145.76 307.44,-156.26 315.09,-148.93 308.85,-145.76"/>
</g>
<!-- Node4 -->
<g id="node4" class="node">
<title>Node4</title>
<g id="a_node4"><a xlink:href="md5_8cpp.html" target="_top" xlink:title="Implementation of MD5 algorithm,.">
<polygon fill="none" stroke="black" points="131,-0.5 131,-41.5 261,-41.5 261,-0.5 131,-0.5"/>
<text text-anchor="start" x="139" y="-29.5" font-family="Helvetica,sans-Serif" font-size="10.00">/home/ugovaretto/projects</text>
<text text-anchor="start" x="139" y="-18.5" font-family="Helvetica,sans-Serif" font-size="10.00">/uv&#45;cpp/s3client/repo/lib</text>
<text text-anchor="middle" x="196" y="-7.5" font-family="Helvetica,sans-Serif" font-size="10.00">/hash/md5.cpp</text>
</a>
</g>
</g>
<!-- Node1&#45;&gt;Node4 -->
<g id="edge3" class="edge">
<title>Node1&#45;&gt;Node4</title>
<path fill="none" stroke="midnightblue" d="M222.32,-156.65C204.48,-148.35 187.57,-136.6 177,-120 161.73,-96.03 173.82,-62.55 184.49,-41.58"/>
<polygon fill="midnightblue" stroke="midnightblue" points="221.13,-159.95 231.7,-160.69 223.89,-153.52 221.13,-159.95"/>
</g>
<!-- Node5 -->
<g id="node5" class="node">
<title>Node5</title>
<g id="a_node5"><a xlink:href="sha256_8cpp.html" target="_top" xlink:title="Implementation of SHA256 algorithm.">
<polygon fill="none" stroke="black" points="455,-0.5 455,-41.5 585,-41.5 585,-0.5 455,-0.5"/>
<text text-anchor="start" x="463" y="-29.5" font-family="Helvetica,sans-Serif" font-size="10.00">/home/ugovaretto/projects</text>
<text text-anchor="start" x="463" y="-18.5" font-family="Helvetica,sans-Serif" font-size="10.00">/uv&#45;cpp/s3client/repo/lib</text>
<text text-anchor="middle" x="520" y="-7.5" font-family="Helvetica,sans-Serif" font-size="10.00">/hash/sha256.cpp</text>
</a>
</g>
</g>
<!-- Node1&#45;&gt;Node5 -->
<g id="edge4" class="edge">
<title>Node1&#45;&gt;Node5</title>
<path fill="none" stroke="midnightblue" d="M372.15,-165.61C426.32,-156.48 492.94,-141.3 511,-120 529.34,-98.37 527.68,-63.58 524.25,-41.8"/>
<polygon fill="midnightblue" stroke="midnightblue" points="371.5,-162.17 362.2,-167.24 372.63,-169.08 371.5,-162.17"/>
</g>
<!-- Node6 -->
<g id="node6" class="node">
<title>Node6</title>
<g id="a_node6"><a xlink:href="md5_8h.html" target="_top" xlink:title="declaration of MD5 hashing functions.">
<polygon fill="none" stroke="black" points="186,-78.5 186,-119.5 316,-119.5 316,-78.5 186,-78.5"/>
<text text-anchor="start" x="194" y="-107.5" font-family="Helvetica,sans-Serif" font-size="10.00">/home/ugovaretto/projects</text>
<text text-anchor="start" x="194" y="-96.5" font-family="Helvetica,sans-Serif" font-size="10.00">/uv&#45;cpp/s3client/repo/lib</text>
<text text-anchor="middle" x="251" y="-85.5" font-family="Helvetica,sans-Serif" font-size="10.00">/hash/md5.h</text>
</a>
</g>
</g>
<!-- Node1&#45;&gt;Node6 -->
<g id="edge5" class="edge">
<title>Node1&#45;&gt;Node6</title>
<path fill="none" stroke="midnightblue" d="M279.91,-147.76C274.21,-138.35 268.01,-128.1 262.81,-119.51"/>
<polygon fill="midnightblue" stroke="midnightblue" points="276.98,-149.69 285.15,-156.43 282.97,-146.06 276.98,-149.69"/>
</g>
<!-- Node7 -->
<g id="node7" class="node">
<title>Node7</title>
<g id="a_node7"><a xlink:href="sha256_8h.html" target="_top" xlink:title="declaration of SHA256 hash functions.">
<polygon fill="none" stroke="black" points="372,-78.5 372,-119.5 502,-119.5 502,-78.5 372,-78.5"/>
<text text-anchor="start" x="380" y="-107.5" font-family="Helvetica,sans-Serif" font-size="10.00">/home/ugovaretto/projects</text>
<text text-anchor="start" x="380" y="-96.5" font-family="Helvetica,sans-Serif" font-size="10.00">/uv&#45;cpp/s3client/repo/lib</text>
<text text-anchor="middle" x="437" y="-85.5" font-family="Helvetica,sans-Serif" font-size="10.00">/hash/sha256.h</text>
</a>
</g>
</g>
<!-- Node1&#45;&gt;Node7 -->
<g id="edge7" class="edge">
<title>Node1&#45;&gt;Node7</title>
<path fill="none" stroke="midnightblue" d="M341.9,-151.63C361.03,-141.24 383.04,-129.29 401.07,-119.51"/>
<polygon fill="midnightblue" stroke="midnightblue" points="340.17,-148.58 333.05,-156.43 343.51,-154.73 340.17,-148.58"/>
</g>
<!-- Node6&#45;&gt;Node4 -->
<g id="edge6" class="edge">
<title>Node6&#45;&gt;Node4</title>
<path fill="none" stroke="midnightblue" d="M230.77,-70.05C223.91,-60.57 216.4,-50.18 210.12,-41.51"/>
<polygon fill="midnightblue" stroke="midnightblue" points="228.14,-72.38 236.84,-78.43 233.81,-68.27 228.14,-72.38"/>
</g>
<!-- Node7&#45;&gt;Node3 -->
<g id="edge8" class="edge">
<title>Node7&#45;&gt;Node3</title>
<path fill="none" stroke="midnightblue" d="M410.91,-71.2C401.38,-61.42 390.79,-50.54 381.99,-41.51"/>
<polygon fill="midnightblue" stroke="midnightblue" points="408.46,-73.71 417.94,-78.43 413.47,-68.82 408.46,-73.71"/>
</g>
<!-- Node7&#45;&gt;Node5 -->
<g id="edge9" class="edge">
<title>Node7&#45;&gt;Node5</title>
<path fill="none" stroke="midnightblue" d="M465.95,-71.49C476.72,-61.63 488.74,-50.63 498.7,-41.51"/>
<polygon fill="midnightblue" stroke="midnightblue" points="463.39,-69.09 458.37,-78.43 468.11,-74.26 463.39,-69.09"/>
</g>
</g>
</svg>
