<?xml version="1.0" encoding="UTF-8" standalone="no"?>
<!DOCTYPE svg PUBLIC "-//W3C//DTD SVG 1.1//EN"
 "http://www.w3.org/Graphics/SVG/1.1/DTD/svg11.dtd">
<!-- Generated by graphviz version 2.43.0 (0)
 -->
<!-- Title: /home/ugovaretto/projects/uv&#45;cpp/s3client/repo/lib/include/utility.h Pages: 1 -->
<svg width="809pt" height="440pt"
 viewBox="0.00 0.00 808.50 440.00" xmlns="http://www.w3.org/2000/svg" xmlns:xlink="http://www.w3.org/1999/xlink">
<g id="graph0" class="graph" transform="scale(1 1) rotate(0) translate(4 436)">
<title>/home/ugovaretto/projects/uv&#45;cpp/s3client/repo/lib/include/utility.h</title>
<!-- Node1 -->
<g id="node1" class="node">
<title>Node1</title>
<g id="a_node1"><a xlink:title="internal utility functions">
<polygon fill="#bfbfbf" stroke="black" points="339.5,-390.5 339.5,-431.5 469.5,-431.5 469.5,-390.5 339.5,-390.5"/>
<text text-anchor="start" x="347.5" y="-419.5" font-family="Helvetica,sans-Serif" font-size="10.00">/home/ugovaretto/projects</text>
<text text-anchor="start" x="347.5" y="-408.5" font-family="Helvetica,sans-Serif" font-size="10.00">/uv&#45;cpp/s3client/repo/lib</text>
<text text-anchor="middle" x="404.5" y="-397.5" font-family="Helvetica,sans-Serif" font-size="10.00">/include/utility.h</text>
</a>
</g>
</g>
<!-- Node2 -->
<g id="node2" class="node">
<title>Node2</title>
<g id="a_node2"><a xlink:href="url__utility_8h.html" target="_top" xlink:title="Internal utility functions to process and parse text and URLs and create S3 signature keys.">
<polygon fill="none" stroke="black" points="293.5,-312.5 293.5,-353.5 423.5,-353.5 423.5,-312.5 293.5,-312.5"/>
<text text-anchor="start" x="301.5" y="-341.5" font-family="Helvetica,sans-Serif" font-size="10.00">/home/ugovaretto/projects</text>
<text text-anchor="start" x="301.5" y="-330.5" font-family="Helvetica,sans-Serif" font-size="10.00">/uv&#45;cpp/s3client/repo/lib</text>
<text text-anchor="middle" x="358.5" y="-319.5" font-family="Helvetica,sans-Serif" font-size="10.00">/include/url_utility.h</text>
</a>
</g>
</g>
<!-- Node1&#45;&gt;Node2 -->
<g id="edge1" class="edge">
<title>Node1&#45;&gt;Node2</title>
<path fill="none" stroke="midnightblue" d="M387.41,-381.76C381.71,-372.35 375.51,-362.1 370.31,-353.51"/>
<polygon fill="midnightblue" stroke="midnightblue" points="384.48,-383.69 392.65,-390.43 390.47,-380.06 384.48,-383.69"/>
</g>
<!-- Node12 -->
<g id="node12" class="node">
<title>Node12</title>
<g id="a_node12"><a xlink:href="webclient_8h.html" target="_top" xlink:title="declaration of WebClient class wrapping libcurl to send web requests.">
<polygon fill="none" stroke="black" points="441.5,-234.5 441.5,-275.5 571.5,-275.5 571.5,-234.5 441.5,-234.5"/>
<text text-anchor="start" x="449.5" y="-263.5" font-family="Helvetica,sans-Serif" font-size="10.00">/home/ugovaretto/projects</text>
<text text-anchor="start" x="449.5" y="-252.5" font-family="Helvetica,sans-Serif" font-size="10.00">/uv&#45;cpp/s3client/repo/lib</text>
<text text-anchor="middle" x="506.5" y="-241.5" font-family="Helvetica,sans-Serif" font-size="10.00">/include/webclient.h</text>
</a>
</g>
</g>
<!-- Node1&#45;&gt;Node12 -->
<g id="edge18" class="edge">
<title>Node1&#45;&gt;Node12</title>
<path fill="none" stroke="midnightblue" d="M423.07,-381.96C443.4,-351.26 475.49,-302.82 493.36,-275.83"/>
<polygon fill="midnightblue" stroke="midnightblue" points="420.02,-380.23 417.42,-390.5 425.86,-384.09 420.02,-380.23"/>
</g>
<!-- Node3 -->
<g id="node3" class="node">
<title>Node3</title>
<g id="a_node3"><a xlink:href="parallel__upload_8cpp.html" target="_top" xlink:title="Parallel upload to S3 service.">
<polygon fill="none" stroke="black" points="149,-78.5 149,-119.5 280,-119.5 280,-78.5 149,-78.5"/>
<text text-anchor="start" x="157" y="-107.5" font-family="Helvetica,sans-Serif" font-size="10.00">/home/ugovaretto/projects</text>
<text text-anchor="start" x="157" y="-96.5" font-family="Helvetica,sans-Serif" font-size="10.00">/uv&#45;cpp/s3client/repo/apps</text>
<text text-anchor="middle" x="214.5" y="-85.5" font-family="Helvetica,sans-Serif" font-size="10.00">/parallel_upload.cpp</text>
</a>
</g>
</g>
<!-- Node2&#45;&gt;Node3 -->
<g id="edge2" class="edge">
<title>Node2&#45;&gt;Node3</title>
<path fill="none" stroke="midnightblue" d="M316.64,-306.49C305.07,-297.91 293.3,-287.55 284.5,-276 246.85,-226.55 226.64,-154.19 218.64,-119.69"/>
<polygon fill="midnightblue" stroke="midnightblue" points="314.79,-309.47 324.97,-312.4 318.85,-303.76 314.79,-309.47"/>
</g>
<!-- Node4 -->
<g id="node4" class="node">
<title>Node4</title>
<g id="a_node4"><a xlink:href="apps_2s3-client_8cpp.html" target="_top" xlink:title="Send S3v4&#45;signed requests to S3 andpoint and print raw responses.">
<polygon fill="none" stroke="black" points="0,-78.5 0,-119.5 131,-119.5 131,-78.5 0,-78.5"/>
<text text-anchor="start" x="8" y="-107.5" font-family="Helvetica,sans-Serif" font-size="10.00">/home/ugovaretto/projects</text>
<text text-anchor="start" x="8" y="-96.5" font-family="Helvetica,sans-Serif" font-size="10.00">/uv&#45;cpp/s3client/repo/apps</text>
<text text-anchor="middle" x="65.5" y="-85.5" font-family="Helvetica,sans-Serif" font-size="10.00">/s3&#45;client.cpp</text>
</a>
</g>
</g>
<!-- Node2&#45;&gt;Node4 -->
<g id="edge3" class="edge">
<title>Node2&#45;&gt;Node4</title>
<path fill="none" stroke="midnightblue" d="M307.68,-307.59C290.55,-298.54 271.68,-287.62 255.5,-276 186.46,-226.44 115.8,-154.13 83.54,-119.67"/>
<polygon fill="midnightblue" stroke="midnightblue" points="306.5,-310.93 316.99,-312.43 309.73,-304.71 306.5,-310.93"/>
</g>
<!-- Node5 -->
<g id="node5" class="node">
<title>Node5</title>
<g id="a_node5"><a xlink:href="aws__sign_8h.html" target="_top" xlink:title="Public interface to signing URLs and HTTP headers with the S3v4 protocol standard.">
<polygon fill="none" stroke="black" points="293.5,-234.5 293.5,-275.5 423.5,-275.5 423.5,-234.5 293.5,-234.5"/>
<text text-anchor="start" x="301.5" y="-263.5" font-family="Helvetica,sans-Serif" font-size="10.00">/home/ugovaretto/projects</text>
<text text-anchor="start" x="301.5" y="-252.5" font-family="Helvetica,sans-Serif" font-size="10.00">/uv&#45;cpp/s3client/repo/lib</text>
<text text-anchor="middle" x="358.5" y="-241.5" font-family="Helvetica,sans-Serif" font-size="10.00">/include/aws_sign.h</text>
</a>
</g>
</g>
<!-- Node2&#45;&gt;Node5 -->
<g id="edge4" class="edge">
<title>Node2&#45;&gt;Node5</title>
<path fill="none" stroke="midnightblue" d="M358.5,-302.3C358.5,-293.3 358.5,-283.65 358.5,-275.51"/>
<polygon fill="midnightblue" stroke="midnightblue" points="355,-302.43 358.5,-312.43 362,-302.43 355,-302.43"/>
</g>
<!-- Node2&#45;&gt;Node12 -->
<g id="edge14" class="edge">
<title>Node2&#45;&gt;Node12</title>
<path fill="none" stroke="midnightblue" d="M405.69,-307.77C425.98,-297.35 449.37,-285.34 468.52,-275.51"/>
<polygon fill="midnightblue" stroke="midnightblue" points="403.91,-304.75 396.61,-312.43 407.11,-310.97 403.91,-304.75"/>
</g>
<!-- Node6 -->
<g id="node6" class="node">
<title>Node6</title>
<g id="a_node6"><a xlink:href="s3-client_8h.html" target="_top" xlink:title="declaration of functions and data types for sending S3 requests, signing URLs and downloading and upl...">
<polygon fill="none" stroke="black" points="298.5,-156.5 298.5,-197.5 428.5,-197.5 428.5,-156.5 298.5,-156.5"/>
<text text-anchor="start" x="306.5" y="-185.5" font-family="Helvetica,sans-Serif" font-size="10.00">/home/ugovaretto/projects</text>
<text text-anchor="start" x="306.5" y="-174.5" font-family="Helvetica,sans-Serif" font-size="10.00">/uv&#45;cpp/s3client/repo/lib</text>
<text text-anchor="middle" x="363.5" y="-163.5" font-family="Helvetica,sans-Serif" font-size="10.00">/include/s3&#45;client.h</text>
</a>
</g>
</g>
<!-- Node5&#45;&gt;Node6 -->
<g id="edge5" class="edge">
<title>Node5&#45;&gt;Node6</title>
<path fill="none" stroke="midnightblue" d="M360.45,-224.3C361.05,-215.3 361.68,-205.65 362.22,-197.51"/>
<polygon fill="midnightblue" stroke="midnightblue" points="356.95,-224.22 359.79,-234.43 363.94,-224.68 356.95,-224.22"/>
</g>
<!-- Node9 -->
<g id="node9" class="node">
<title>Node9</title>
<g id="a_node9"><a xlink:href="s3-api_8h.html" target="_top" xlink:title="declarations of S3Api class.">
<polygon fill="none" stroke="black" points="596.5,-78.5 596.5,-119.5 726.5,-119.5 726.5,-78.5 596.5,-78.5"/>
<text text-anchor="start" x="604.5" y="-107.5" font-family="Helvetica,sans-Serif" font-size="10.00">/home/ugovaretto/projects</text>
<text text-anchor="start" x="604.5" y="-96.5" font-family="Helvetica,sans-Serif" font-size="10.00">/uv&#45;cpp/s3client/repo/lib</text>
<text text-anchor="middle" x="661.5" y="-85.5" font-family="Helvetica,sans-Serif" font-size="10.00">/include/s3&#45;api.h</text>
</a>
</g>
</g>
<!-- Node5&#45;&gt;Node9 -->
<g id="edge13" class="edge">
<title>Node5&#45;&gt;Node9</title>
<path fill="none" stroke="midnightblue" d="M394.16,-228.57C429.81,-203.42 482.42,-167.13 504.5,-156 533.57,-141.35 567.41,-128.76 596.22,-119.25"/>
<polygon fill="midnightblue" stroke="midnightblue" points="392.08,-225.76 385.94,-234.39 396.12,-231.47 392.08,-225.76"/>
</g>
<!-- Node6&#45;&gt;Node3 -->
<g id="edge7" class="edge">
<title>Node6&#45;&gt;Node3</title>
<path fill="none" stroke="midnightblue" d="M315.99,-151.77C295.57,-141.35 272.01,-129.34 252.74,-119.51"/>
<polygon fill="midnightblue" stroke="midnightblue" points="314.63,-155 325.13,-156.43 317.81,-148.77 314.63,-155"/>
</g>
<!-- Node6&#45;&gt;Node4 -->
<g id="edge9" class="edge">
<title>Node6&#45;&gt;Node4</title>
<path fill="none" stroke="midnightblue" d="M288.3,-157.58C244.78,-146.82 188.99,-132.87 139.5,-120 136.8,-119.3 134.04,-118.57 131.25,-117.84"/>
<polygon fill="midnightblue" stroke="midnightblue" points="287.69,-161.03 298.23,-160.03 289.37,-154.24 287.69,-161.03"/>
</g>
<!-- Node7 -->
<g id="node7" class="node">
<title>Node7</title>
<g id="a_node7"><a xlink:href="presign__url_8cpp.html" target="_top" xlink:title="Presign URL.">
<polygon fill="none" stroke="black" points="298,-78.5 298,-119.5 429,-119.5 429,-78.5 298,-78.5"/>
<text text-anchor="start" x="306" y="-107.5" font-family="Helvetica,sans-Serif" font-size="10.00">/home/ugovaretto/projects</text>
<text text-anchor="start" x="306" y="-96.5" font-family="Helvetica,sans-Serif" font-size="10.00">/uv&#45;cpp/s3client/repo/apps</text>
<text text-anchor="middle" x="363.5" y="-85.5" font-family="Helvetica,sans-Serif" font-size="10.00">/presign_url.cpp</text>
</a>
</g>
</g>
<!-- Node6&#45;&gt;Node7 -->
<g id="edge6" class="edge">
<title>Node6&#45;&gt;Node7</title>
<path fill="none" stroke="midnightblue" d="M363.5,-146.3C363.5,-137.3 363.5,-127.65 363.5,-119.51"/>
<polygon fill="midnightblue" stroke="midnightblue" points="360,-146.43 363.5,-156.43 367,-146.43 360,-146.43"/>
</g>
<!-- Node8 -->
<g id="node8" class="node">
<title>Node8</title>
<g id="a_node8"><a xlink:href="parallel__download_8cpp.html" target="_top" xlink:title="Parallel object download download from S3 service.">
<polygon fill="none" stroke="black" points="447,-78.5 447,-119.5 578,-119.5 578,-78.5 447,-78.5"/>
<text text-anchor="start" x="455" y="-107.5" font-family="Helvetica,sans-Serif" font-size="10.00">/home/ugovaretto/projects</text>
<text text-anchor="start" x="455" y="-96.5" font-family="Helvetica,sans-Serif" font-size="10.00">/uv&#45;cpp/s3client/repo/apps</text>
<text text-anchor="middle" x="512.5" y="-85.5" font-family="Helvetica,sans-Serif" font-size="10.00">/parallel_download.cpp</text>
</a>
</g>
</g>
<!-- Node6&#45;&gt;Node8 -->
<g id="edge8" class="edge">
<title>Node6&#45;&gt;Node8</title>
<path fill="none" stroke="midnightblue" d="M411.01,-151.77C431.43,-141.35 454.99,-129.34 474.26,-119.51"/>
<polygon fill="midnightblue" stroke="midnightblue" points="409.19,-148.77 401.87,-156.43 412.37,-155 409.19,-148.77"/>
</g>
<!-- Node6&#45;&gt;Node9 -->
<g id="edge10" class="edge">
<title>Node6&#45;&gt;Node9</title>
<path fill="none" stroke="midnightblue" d="M438.82,-157.38C482.07,-146.61 537.38,-132.72 586.5,-120 589.76,-119.16 593.1,-118.29 596.47,-117.4"/>
<polygon fill="midnightblue" stroke="midnightblue" points="437.8,-154.02 428.94,-159.83 439.49,-160.82 437.8,-154.02"/>
</g>
<!-- Node10 -->
<g id="node10" class="node">
<title>Node10</title>
<g id="a_node10"><a xlink:href="bucket-test_8cpp.html" target="_top" xlink:title="bucket tests">
<polygon fill="none" stroke="black" points="522.5,-0.5 522.5,-41.5 652.5,-41.5 652.5,-0.5 522.5,-0.5"/>
<text text-anchor="start" x="530.5" y="-29.5" font-family="Helvetica,sans-Serif" font-size="10.00">/home/ugovaretto/projects</text>
<text text-anchor="start" x="530.5" y="-18.5" font-family="Helvetica,sans-Serif" font-size="10.00">/uv&#45;cpp/s3client/repo/test</text>
<text text-anchor="middle" x="587.5" y="-7.5" font-family="Helvetica,sans-Serif" font-size="10.00">/api/bucket&#45;test.cpp</text>
</a>
</g>
</g>
<!-- Node9&#45;&gt;Node10 -->
<g id="edge11" class="edge">
<title>Node9&#45;&gt;Node10</title>
<path fill="none" stroke="midnightblue" d="M635.41,-71.2C625.88,-61.42 615.29,-50.54 606.49,-41.51"/>
<polygon fill="midnightblue" stroke="midnightblue" points="632.96,-73.71 642.44,-78.43 637.97,-68.82 632.96,-73.71"/>
</g>
<!-- Node11 -->
<g id="node11" class="node">
<title>Node11</title>
<g id="a_node11"><a xlink:href="xmlstreams_8h.html" target="_top" xlink:title="xml parser and generator.">
<polygon fill="none" stroke="black" points="670.5,-0.5 670.5,-41.5 800.5,-41.5 800.5,-0.5 670.5,-0.5"/>
<text text-anchor="start" x="678.5" y="-29.5" font-family="Helvetica,sans-Serif" font-size="10.00">/home/ugovaretto/projects</text>
<text text-anchor="start" x="678.5" y="-18.5" font-family="Helvetica,sans-Serif" font-size="10.00">/uv&#45;cpp/s3client/repo/lib</text>
<text text-anchor="middle" x="735.5" y="-7.5" font-family="Helvetica,sans-Serif" font-size="10.00">/include/xmlstreams.h</text>
</a>
</g>
</g>
<!-- Node9&#45;&gt;Node11 -->
<g id="edge12" class="edge">
<title>Node9&#45;&gt;Node11</title>
<path fill="none" stroke="midnightblue" d="M687.59,-71.2C697.12,-61.42 707.71,-50.54 716.51,-41.51"/>
<polygon fill="midnightblue" stroke="midnightblue" points="685.03,-68.82 680.56,-78.43 690.04,-73.71 685.03,-68.82"/>
</g>
<!-- Node12&#45;&gt;Node6 -->
<g id="edge15" class="edge">
<title>Node12&#45;&gt;Node6</title>
<path fill="none" stroke="midnightblue" d="M460.64,-229.63C441.1,-219.24 418.61,-207.29 400.2,-197.51"/>
<polygon fill="midnightblue" stroke="midnightblue" points="459.2,-232.83 469.67,-234.43 462.49,-226.64 459.2,-232.83"/>
</g>
<!-- Node12&#45;&gt;Node9 -->
<g id="edge16" class="edge">
<title>Node12&#45;&gt;Node9</title>
<path fill="none" stroke="midnightblue" d="M505.18,-224.34C505.77,-203.12 509.91,-175.05 525.5,-156 535.53,-143.75 567.75,-130.23 598.31,-119.54"/>
<polygon fill="midnightblue" stroke="midnightblue" points="501.68,-224.42 505.14,-234.43 508.68,-224.45 501.68,-224.42"/>
</g>
<!-- Node13 -->
<g id="node13" class="node">
<title>Node13</title>
<g id="a_node13"><a xlink:href="webclient_8cpp.html" target="_top" xlink:title="implementation of WebClient class, wrapper around libcurl">
<polygon fill="none" stroke="black" points="534.5,-156.5 534.5,-197.5 664.5,-197.5 664.5,-156.5 534.5,-156.5"/>
<text text-anchor="start" x="542.5" y="-185.5" font-family="Helvetica,sans-Serif" font-size="10.00">/home/ugovaretto/projects</text>
<text text-anchor="start" x="542.5" y="-174.5" font-family="Helvetica,sans-Serif" font-size="10.00">/uv&#45;cpp/s3client/repo/lib</text>
<text text-anchor="middle" x="599.5" y="-163.5" font-family="Helvetica,sans-Serif" font-size="10.00">/src/webclient.cpp</text>
</a>
</g>
</g>
<!-- Node12&#45;&gt;Node13 -->
<g id="edge17" class="edge">
<title>Node12&#45;&gt;Node13</title>
<path fill="none" stroke="midnightblue" d="M538.24,-228.06C550.48,-218.06 564.25,-206.8 575.63,-197.51"/>
<polygon fill="midnightblue" stroke="midnightblue" points="535.98,-225.39 530.45,-234.43 540.41,-230.81 535.98,-225.39"/>
</g>
</g>
</svg>
