<?xml version="1.0" encoding="UTF-8" standalone="no"?>
<!DOCTYPE svg PUBLIC "-//W3C//DTD SVG 1.1//EN"
 "http://www.w3.org/Graphics/SVG/1.1/DTD/svg11.dtd">
<!-- Generated by graphviz version 8.0.5 (20230430.1635)
 -->
<!-- Title: /Users/ugovaretto/projects/s3client/repo/lib/hash/utility.h Pages: 1 -->
<svg width="176pt" height="105pt"
 viewBox="0.00 0.00 175.88 105.00" xmlns="http://www.w3.org/2000/svg" xmlns:xlink="http://www.w3.org/1999/xlink">
<g id="graph0" class="graph" transform="scale(1 1) rotate(0) translate(4 101)">
<title>/Users/ugovaretto/projects/s3client/repo/lib/hash/utility.h</title>
<!-- Node1 -->
<g id="node1" class="node">
<title>Node1</title>
<g id="a_node1"><a xlink:title="Declaration of utility functions for SHA256 hashing.">
<polygon fill="#999999" stroke="#666666" points="150.38,-97 18.88,-97 18.88,-55.25 150.38,-55.25 150.38,-97"/>
<text text-anchor="start" x="26.88" y="-83.5" font-family="Helvetica,sans-Serif" font-size="10.00">/Users/ugovaretto/projects</text>
<text text-anchor="start" x="26.88" y="-72.25" font-family="Helvetica,sans-Serif" font-size="10.00">/s3client/repo/lib/hash</text>
<text text-anchor="middle" x="84.62" y="-61" font-family="Helvetica,sans-Serif" font-size="10.00">/utility.h</text>
</a>
</g>
</g>
<!-- Node2 -->
<g id="node2" class="node">
<title>Node2</title>
<g id="a_node2"><a xlink:title=" ">
<polygon fill="#e0e0e0" stroke="#999999" points="45.25,-19.25 0,-19.25 0,0 45.25,0 45.25,-19.25"/>
<text text-anchor="middle" x="22.62" y="-5.75" font-family="Helvetica,sans-Serif" font-size="10.00">cstdint</text>
</a>
</g>
</g>
<!-- Node1&#45;&gt;Node2 -->
<g id="edge1" class="edge">
<title>Node1&#45;&gt;Node2</title>
<path fill="none" stroke="#63b8ff" d="M65.35,-55.07C56.82,-46.19 46.9,-35.87 38.76,-27.41"/>
<polygon fill="#63b8ff" stroke="#63b8ff" points="41.8,-25.48 32.34,-20.7 36.75,-30.33 41.8,-25.48"/>
</g>
<!-- Node3 -->
<g id="node3" class="node">
<title>Node3</title>
<g id="a_node3"><a xlink:title=" ">
<polygon fill="#e0e0e0" stroke="#999999" points="105.75,-19.25 63.5,-19.25 63.5,0 105.75,0 105.75,-19.25"/>
<text text-anchor="middle" x="84.62" y="-5.75" font-family="Helvetica,sans-Serif" font-size="10.00">cstdio</text>
</a>
</g>
</g>
<!-- Node1&#45;&gt;Node3 -->
<g id="edge2" class="edge">
<title>Node1&#45;&gt;Node3</title>
<path fill="none" stroke="#63b8ff" d="M84.62,-55.07C84.62,-47.3 84.62,-38.43 84.62,-30.67"/>
<polygon fill="#63b8ff" stroke="#63b8ff" points="88.13,-30.7 84.62,-20.7 81.13,-30.7 88.13,-30.7"/>
</g>
<!-- Node4 -->
<g id="node4" class="node">
<title>Node4</title>
<g id="a_node4"><a xlink:title=" ">
<polygon fill="#e0e0e0" stroke="#999999" points="167.88,-19.25 123.38,-19.25 123.38,0 167.88,0 167.88,-19.25"/>
<text text-anchor="middle" x="145.62" y="-5.75" font-family="Helvetica,sans-Serif" font-size="10.00">cstdlib</text>
</a>
</g>
</g>
<!-- Node1&#45;&gt;Node4 -->
<g id="edge3" class="edge">
<title>Node1&#45;&gt;Node4</title>
<path fill="none" stroke="#63b8ff" d="M103.59,-55.07C111.9,-46.29 121.54,-36.09 129.5,-27.68"/>
<polygon fill="#63b8ff" stroke="#63b8ff" points="131.72,-30.37 136.05,-20.7 126.63,-25.56 131.72,-30.37"/>
</g>
</g>
</svg>
