<?xml version="1.0" encoding="UTF-8" standalone="no"?>
<!DOCTYPE svg PUBLIC "-//W3C//DTD SVG 1.1//EN"
 "http://www.w3.org/Graphics/SVG/1.1/DTD/svg11.dtd">
<!-- Generated by graphviz version 8.0.5 (20230430.1635)
 -->
<!-- Title: sss::ToLower Pages: 1 -->
<svg width="1057pt" height="749pt"
 viewBox="0.00 0.00 1056.75 749.25" xmlns="http://www.w3.org/2000/svg" xmlns:xlink="http://www.w3.org/1999/xlink">
<g id="graph0" class="graph" transform="scale(1 1) rotate(0) translate(4 745.25)">
<title>sss::ToLower</title>
<!-- Node1 -->
<g id="node1" class="node">
<title>Node1</title>
<g id="a_node1"><a xlink:title=" ">
<polygon fill="#999999" stroke="#666666" points="1048.75,-192.25 974.25,-192.25 974.25,-173 1048.75,-173 1048.75,-192.25"/>
<text text-anchor="middle" x="1011.5" y="-178.75" font-family="Helvetica,sans-Serif" font-size="10.00">sss::ToLower</text>
</a>
</g>
</g>
<!-- Node1&#45;&gt;Node1 -->
<g id="edge35" class="edge">
<title>Node1&#45;&gt;Node1</title>
<path fill="none" stroke="#63b8ff" d="M1035.5,-202.98C1032.98,-207.21 1024.98,-210.25 1011.5,-210.25 988.19,-210.25 981.27,-201.15 990.74,-192.54"/>
<polygon fill="#63b8ff" stroke="#63b8ff" points="1038.57,-202.05 1032.26,-193.54 1031.88,-204.13 1038.57,-202.05"/>
</g>
<!-- Node2 -->
<g id="node2" class="node">
<title>Node2</title>
<g id="a_node2"><a xlink:href="group__Sign.html#ga532598da479904609d6c02e4c2a1311a" target="_top" xlink:title="Compute signature.">
<polygon fill="white" stroke="#666666" points="938.25,-268.25 819.5,-268.25 819.5,-249 938.25,-249 938.25,-268.25"/>
<text text-anchor="middle" x="878.88" y="-254.75" font-family="Helvetica,sans-Serif" font-size="10.00">sss::ComputeSignature</text>
</a>
</g>
</g>
<!-- Node1&#45;&gt;Node2 -->
<g id="edge1" class="edge">
<title>Node1&#45;&gt;Node2</title>
<path fill="none" stroke="#63b8ff" d="M990.18,-199.23C976.15,-210.18 956.76,-224.35 938.25,-234.62 928.77,-239.89 917.89,-244.67 908.11,-248.56"/>
<polygon fill="#63b8ff" stroke="#63b8ff" points="991.9,-201.53 997.56,-192.57 987.55,-196.05 991.9,-201.53"/>
</g>
<!-- Node7 -->
<g id="node7" class="node">
<title>Node7</title>
<g id="a_node7"><a xlink:href="classsss_1_1api_1_1S3Api.html#ad09581bf28c4bbbcbb71b329959ec1ae" target="_top" xlink:title="Send request.">
<polygon fill="white" stroke="#666666" points="495.75,-360.25 384.5,-360.25 384.5,-341 495.75,-341 495.75,-360.25"/>
<text text-anchor="middle" x="440.12" y="-346.75" font-family="Helvetica,sans-Serif" font-size="10.00">sss::api::S3Api::Send</text>
</a>
</g>
</g>
<!-- Node1&#45;&gt;Node7 -->
<g id="edge33" class="edge">
<title>Node1&#45;&gt;Node7</title>
<path fill="none" stroke="#63b8ff" d="M963.32,-174.15C873.62,-160.55 675.03,-142.67 536.25,-220.62 486.27,-248.7 455.34,-315.17 445,-340.55"/>
<polygon fill="#63b8ff" stroke="#63b8ff" points="962.54,-177.73 972.97,-175.82 963.63,-170.81 962.54,-177.73"/>
</g>
<!-- Node11 -->
<g id="node11" class="node">
<title>Node11</title>
<g id="a_node11"><a xlink:href="bucket-test_8cpp.html#a3c04138a5bfe5d72780bb7e82a18e627" target="_top" xlink:title="Bucket tests.">
<polygon fill="white" stroke="#666666" points="94.75,-459.25 57.75,-459.25 57.75,-440 94.75,-440 94.75,-459.25"/>
<text text-anchor="middle" x="76.25" y="-445.75" font-family="Helvetica,sans-Serif" font-size="10.00">main</text>
</a>
</g>
</g>
<!-- Node1&#45;&gt;Node11 -->
<g id="edge32" class="edge">
<title>Node1&#45;&gt;Node11</title>
<path fill="none" stroke="#63b8ff" d="M991.81,-165.73C949.72,-129.51 842.92,-47.62 737.5,-47.62 737.5,-47.62 737.5,-47.62 439.12,-47.62 327.42,-47.62 275.23,3.78 188.5,-66.62 126.81,-116.7 86.32,-384.8 78.6,-439.77"/>
<polygon fill="#63b8ff" stroke="#63b8ff" points="989.18,-168.95 999,-172.92 993.79,-163.69 989.18,-168.95"/>
</g>
<!-- Node28 -->
<g id="node28" class="node">
<title>Node28</title>
<g id="a_node28"><a xlink:href="group__S3Client.html#gaba88d66bdabd9d5d15bc07a3ce387c50" target="_top" xlink:title="Send S3 request to endpoint.">
<polygon fill="white" stroke="#666666" points="649.38,-249.25 540.38,-249.25 540.38,-230 649.38,-230 649.38,-249.25"/>
<text text-anchor="middle" x="594.88" y="-235.75" font-family="Helvetica,sans-Serif" font-size="10.00">sss::SendS3Request</text>
</a>
</g>
</g>
<!-- Node1&#45;&gt;Node28 -->
<g id="edge34" class="edge">
<title>Node1&#45;&gt;Node28</title>
<path fill="none" stroke="#63b8ff" d="M963.15,-192.27C954.87,-193.82 946.32,-195.34 938.25,-196.62 836.64,-212.83 717.27,-226.65 649.7,-233.98"/>
<polygon fill="#63b8ff" stroke="#63b8ff" points="963.67,-195.54 972.83,-190.22 962.35,-188.67 963.67,-195.54"/>
</g>
<!-- Node29 -->
<g id="node29" class="node">
<title>Node29</title>
<g id="a_node29"><a xlink:href="group__S3Client.html#gad8bcfb380e91093fec44517e1eddc939" target="_top" xlink:title="Validate S3 client request parameters.">
<polygon fill="white" stroke="#666666" points="915,-19.25 842.75,-19.25 842.75,0 915,0 915,-19.25"/>
<text text-anchor="middle" x="878.88" y="-5.75" font-family="Helvetica,sans-Serif" font-size="10.00">sss::Validate</text>
</a>
</g>
</g>
<!-- Node1&#45;&gt;Node29 -->
<g id="edge36" class="edge">
<title>Node1&#45;&gt;Node29</title>
<path fill="none" stroke="#63b8ff" d="M1005.65,-162.26C997.15,-130.68 976.69,-69.77 938.25,-33.62 931.78,-27.54 923.57,-22.91 915.35,-19.41"/>
<polygon fill="#63b8ff" stroke="#63b8ff" points="1002.48,-162.99 1008.34,-171.82 1009.26,-161.26 1002.48,-162.99"/>
</g>
<!-- Node3 -->
<g id="node3" class="node">
<title>Node3</title>
<g id="a_node3"><a xlink:href="group__Sign.html#ga3ae8e18ef70752b7369fca66c40c526b" target="_top" xlink:title="Sign headers.">
<polygon fill="white" stroke="#666666" points="783.5,-268.25 689.5,-268.25 689.5,-249 783.5,-249 783.5,-268.25"/>
<text text-anchor="middle" x="736.5" y="-254.75" font-family="Helvetica,sans-Serif" font-size="10.00">sss::SignHeaders</text>
</a>
</g>
</g>
<!-- Node2&#45;&gt;Node3 -->
<g id="edge2" class="edge">
<title>Node2&#45;&gt;Node3</title>
<path fill="none" stroke="#63b8ff" d="M808.22,-258.62C799.87,-258.62 791.5,-258.62 783.6,-258.62"/>
<polygon fill="#63b8ff" stroke="#63b8ff" points="808.16,-262.13 818.16,-258.62 808.16,-255.13 808.16,-262.13"/>
</g>
<!-- Node4 -->
<g id="node4" class="node">
<title>Node4</title>
<g id="a_node4"><a xlink:href="classsss_1_1api_1_1S3Api.html#a840772746fbb0a79c161037da7b24a31" target="_top" xlink:title="Configure instance.">
<polygon fill="white" stroke="#666666" points="653.5,-382.25 536.25,-382.25 536.25,-363 653.5,-363 653.5,-382.25"/>
<text text-anchor="middle" x="594.88" y="-368.75" font-family="Helvetica,sans-Serif" font-size="10.00">sss::api::S3Api::Config</text>
</a>
</g>
</g>
<!-- Node3&#45;&gt;Node4 -->
<g id="edge3" class="edge">
<title>Node3&#45;&gt;Node4</title>
<path fill="none" stroke="#63b8ff" d="M714.76,-275.56C685.21,-299.69 631.93,-343.19 608.04,-362.69"/>
<polygon fill="#63b8ff" stroke="#63b8ff" points="716.58,-277.78 722.11,-268.74 712.15,-272.36 716.58,-277.78"/>
</g>
<!-- Node3&#45;&gt;Node28 -->
<g id="edge31" class="edge">
<title>Node3&#45;&gt;Node28</title>
<path fill="none" stroke="#63b8ff" d="M678.37,-250.85C668.8,-249.55 658.89,-248.2 649.41,-246.91"/>
<polygon fill="#63b8ff" stroke="#63b8ff" points="677.63,-254.42 688.01,-252.3 678.57,-247.48 677.63,-254.42"/>
</g>
<!-- Node5 -->
<g id="node5" class="node">
<title>Node5</title>
<g id="a_node5"><a xlink:href="classsss_1_1api_1_1S3Api.html#a1196f1cb9ce1e5d69336e9b8dbb5d59c" target="_top" xlink:title="Download object into file.">
<polygon fill="white" stroke="#666666" points="500.25,-457.88 380,-457.88 380,-427.38 500.25,-427.38 500.25,-457.88"/>
<text text-anchor="start" x="388" y="-444.38" font-family="Helvetica,sans-Serif" font-size="10.00">sss::api::S3Api::GetFile</text>
<text text-anchor="middle" x="440.12" y="-433.12" font-family="Helvetica,sans-Serif" font-size="10.00">Object</text>
</a>
</g>
</g>
<!-- Node4&#45;&gt;Node5 -->
<g id="edge4" class="edge">
<title>Node4&#45;&gt;Node5</title>
<path fill="none" stroke="#63b8ff" d="M563.76,-387.55C545.49,-396.49 521.65,-407.97 500.25,-417.62 493.44,-420.7 486.15,-423.87 479.09,-426.89"/>
<polygon fill="#63b8ff" stroke="#63b8ff" points="565.12,-390.29 572.55,-382.74 562.03,-384.01 565.12,-390.29"/>
</g>
<!-- Node6 -->
<g id="node6" class="node">
<title>Node6</title>
<g id="a_node6"><a xlink:href="classsss_1_1api_1_1S3Api.html#ab7affe0834f5892b393e731783b7ccac" target="_top" xlink:title="Upload file to object.">
<polygon fill="white" stroke="#666666" points="499.88,-408.88 380.38,-408.88 380.38,-378.38 499.88,-378.38 499.88,-408.88"/>
<text text-anchor="start" x="388.38" y="-395.38" font-family="Helvetica,sans-Serif" font-size="10.00">sss::api::S3Api::PutFile</text>
<text text-anchor="middle" x="440.12" y="-384.12" font-family="Helvetica,sans-Serif" font-size="10.00">Object</text>
</a>
</g>
</g>
<!-- Node4&#45;&gt;Node6 -->
<g id="edge5" class="edge">
<title>Node4&#45;&gt;Node6</title>
<path fill="none" stroke="#63b8ff" d="M525.25,-382.06C516.9,-383.21 508.42,-384.37 500.22,-385.5"/>
<polygon fill="#63b8ff" stroke="#63b8ff" points="525.7,-385.39 535.13,-380.56 524.74,-378.46 525.7,-385.39"/>
</g>
<!-- Node4&#45;&gt;Node7 -->
<g id="edge6" class="edge">
<title>Node4&#45;&gt;Node7</title>
<path fill="none" stroke="#63b8ff" d="M525.24,-362.74C515.51,-361.34 505.61,-359.91 496.18,-358.55"/>
<polygon fill="#63b8ff" stroke="#63b8ff" points="524.73,-366.35 535.13,-364.31 525.73,-359.42 524.73,-366.35"/>
</g>
<!-- Node8 -->
<g id="node8" class="node">
<title>Node8</title>
<g id="a_node8"><a xlink:href="classsss_1_1api_1_1S3Api.html#a4ea265566c3c4335ec01201cdc4410c6" target="_top" xlink:title="Abort multipart upload.">
<polygon fill="white" stroke="#666666" points="341,-648.88 191.5,-648.88 191.5,-618.38 341,-618.38 341,-648.88"/>
<text text-anchor="start" x="199.5" y="-635.38" font-family="Helvetica,sans-Serif" font-size="10.00">sss::api::S3Api::AbortMultipart</text>
<text text-anchor="middle" x="266.25" y="-624.12" font-family="Helvetica,sans-Serif" font-size="10.00">Upload</text>
</a>
</g>
</g>
<!-- Node7&#45;&gt;Node8 -->
<g id="edge7" class="edge">
<title>Node7&#45;&gt;Node8</title>
<path fill="none" stroke="#63b8ff" d="M382.43,-367.04C381.58,-367.86 380.77,-368.72 380,-369.62 310.41,-451.46 413.42,-526.65 344,-608.62 340.92,-612.26 337.31,-615.37 333.35,-618.03"/>
<polygon fill="#63b8ff" stroke="#63b8ff" points="384.02,-369.47 389.96,-360.7 379.85,-363.85 384.02,-369.47"/>
</g>
<!-- Node9 -->
<g id="node9" class="node">
<title>Node9</title>
<g id="a_node9"><a xlink:href="classsss_1_1api_1_1S3Api.html#a98f999a216121118dd569c7ef0c28ff3" target="_top" xlink:title="Complete multipart upload.">
<polygon fill="white" stroke="#666666" points="331.62,-599.88 200.88,-599.88 200.88,-569.38 331.62,-569.38 331.62,-599.88"/>
<text text-anchor="start" x="208.88" y="-586.38" font-family="Helvetica,sans-Serif" font-size="10.00">sss::api::S3Api::Complete</text>
<text text-anchor="middle" x="266.25" y="-575.12" font-family="Helvetica,sans-Serif" font-size="10.00">MultipartUpload</text>
</a>
</g>
</g>
<!-- Node7&#45;&gt;Node9 -->
<g id="edge8" class="edge">
<title>Node7&#45;&gt;Node9</title>
<path fill="none" stroke="#63b8ff" d="M382.53,-367.02C381.65,-367.85 380.8,-368.72 380,-369.62 322.84,-434.39 401.41,-496.08 344,-560.62 340.57,-564.48 336.52,-567.73 332.12,-570.46"/>
<polygon fill="#63b8ff" stroke="#63b8ff" points="384.31,-369.34 390.38,-360.66 380.22,-363.66 384.31,-369.34"/>
</g>
<!-- Node10 -->
<g id="node10" class="node">
<title>Node10</title>
<g id="a_node10"><a xlink:href="classsss_1_1api_1_1S3Api.html#ad890bd1ecfc978df24b2c3ed641e4081" target="_top" xlink:title="Create bucket.">
<polygon fill="white" stroke="#666666" points="340.62,-551.25 191.88,-551.25 191.88,-532 340.62,-532 340.62,-551.25"/>
<text text-anchor="middle" x="266.25" y="-537.75" font-family="Helvetica,sans-Serif" font-size="10.00">sss::api::S3Api::CreateBucket</text>
</a>
</g>
</g>
<!-- Node7&#45;&gt;Node10 -->
<g id="edge9" class="edge">
<title>Node7&#45;&gt;Node10</title>
<path fill="none" stroke="#63b8ff" d="M382.99,-366.71C381.95,-367.63 380.95,-368.6 380,-369.62 332.36,-421.31 393.68,-473.9 344,-523.62 340.9,-526.72 337.38,-529.33 333.59,-531.51"/>
<polygon fill="#63b8ff" stroke="#63b8ff" points="384.57,-369.19 390.83,-360.64 380.6,-363.42 384.57,-369.19"/>
</g>
<!-- Node12 -->
<g id="node12" class="node">
<title>Node12</title>
<g id="a_node12"><a xlink:href="classsss_1_1api_1_1S3Api.html#a1796fafda3d90a4292a611ce1999433b" target="_top" xlink:title="Create multipart upload.">
<polygon fill="white" stroke="#666666" points="344,-365.88 188.5,-365.88 188.5,-335.38 344,-335.38 344,-365.88"/>
<text text-anchor="start" x="196.5" y="-352.38" font-family="Helvetica,sans-Serif" font-size="10.00">sss::api::S3Api::CreateMultipart</text>
<text text-anchor="middle" x="266.25" y="-341.12" font-family="Helvetica,sans-Serif" font-size="10.00">Upload</text>
</a>
</g>
</g>
<!-- Node7&#45;&gt;Node12 -->
<g id="edge11" class="edge">
<title>Node7&#45;&gt;Node12</title>
<path fill="none" stroke="#63b8ff" d="M373.36,-350.62C363.9,-350.62 354.1,-350.62 344.45,-350.62"/>
<polygon fill="#63b8ff" stroke="#63b8ff" points="373.27,-354.13 383.27,-350.62 373.27,-347.13 373.27,-354.13"/>
</g>
<!-- Node13 -->
<g id="node13" class="node">
<title>Node13</title>
<g id="a_node13"><a xlink:href="classsss_1_1api_1_1S3Api.html#a3d63825d1916e4ba3ca13122c7660603" target="_top" xlink:title="Delete bucket.">
<polygon fill="white" stroke="#666666" points="340.25,-514.25 192.25,-514.25 192.25,-495 340.25,-495 340.25,-514.25"/>
<text text-anchor="middle" x="266.25" y="-500.75" font-family="Helvetica,sans-Serif" font-size="10.00">sss::api::S3Api::DeleteBucket</text>
</a>
</g>
</g>
<!-- Node7&#45;&gt;Node13 -->
<g id="edge12" class="edge">
<title>Node7&#45;&gt;Node13</title>
<path fill="none" stroke="#63b8ff" d="M383.16,-366.74C382.06,-367.65 381,-368.61 380,-369.62 341.77,-408.33 383.76,-449.49 344,-486.62 340.6,-489.8 336.75,-492.45 332.63,-494.66"/>
<polygon fill="#63b8ff" stroke="#63b8ff" points="384.91,-369.13 391.37,-360.73 381.08,-363.27 384.91,-369.13"/>
</g>
<!-- Node14 -->
<g id="node14" class="node">
<title>Node14</title>
<g id="a_node14"><a xlink:href="classsss_1_1api_1_1S3Api.html#a14a75f15eb71fbba8639673100768b67" target="_top" xlink:title="Delete object.">
<polygon fill="white" stroke="#666666" points="339.12,-317.25 193.38,-317.25 193.38,-298 339.12,-298 339.12,-317.25"/>
<text text-anchor="middle" x="266.25" y="-303.75" font-family="Helvetica,sans-Serif" font-size="10.00">sss::api::S3Api::DeleteObject</text>
</a>
</g>
</g>
<!-- Node7&#45;&gt;Node14 -->
<g id="edge14" class="edge">
<title>Node7&#45;&gt;Node14</title>
<path fill="none" stroke="#63b8ff" d="M389.03,-337.94C374.51,-334.28 358.63,-330.28 344,-326.62 332.41,-323.73 319.84,-320.61 308.28,-317.75"/>
<polygon fill="#63b8ff" stroke="#63b8ff" points="387.78,-341.49 398.33,-340.54 389.49,-334.7 387.78,-341.49"/>
</g>
<!-- Node15 -->
<g id="node15" class="node">
<title>Node15</title>
<g id="a_node15"><a xlink:href="classsss_1_1api_1_1S3Api.html#a3b53152bf39143843a4033aa4a1b3fa0" target="_top" xlink:title=" ">
<polygon fill="white" stroke="#666666" points="341,-477.25 191.5,-477.25 191.5,-458 341,-458 341,-477.25"/>
<text text-anchor="middle" x="266.25" y="-463.75" font-family="Helvetica,sans-Serif" font-size="10.00">sss::api::S3Api::GetBucketAcl</text>
</a>
</g>
</g>
<!-- Node7&#45;&gt;Node15 -->
<g id="edge15" class="edge">
<title>Node7&#45;&gt;Node15</title>
<path fill="none" stroke="#63b8ff" d="M384.46,-366.09C382.9,-367.19 381.41,-368.37 380,-369.62 350.93,-395.61 374.09,-424.83 344,-449.62 340.2,-452.76 335.95,-455.37 331.45,-457.53"/>
<polygon fill="#63b8ff" stroke="#63b8ff" points="386.07,-368.63 392.99,-360.61 382.58,-362.56 386.07,-368.63"/>
</g>
<!-- Node16 -->
<g id="node16" class="node">
<title>Node16</title>
<g id="a_node16"><a xlink:href="classsss_1_1api_1_1S3Api.html#af61465d92c0a94aa82ae863fc2a776a0" target="_top" xlink:title="Download object data.">
<polygon fill="white" stroke="#666666" points="332.75,-280.25 199.75,-280.25 199.75,-261 332.75,-261 332.75,-280.25"/>
<text text-anchor="middle" x="266.25" y="-266.75" font-family="Helvetica,sans-Serif" font-size="10.00">sss::api::S3Api::GetObject</text>
</a>
</g>
</g>
<!-- Node7&#45;&gt;Node16 -->
<g id="edge17" class="edge">
<title>Node7&#45;&gt;Node16</title>
<path fill="none" stroke="#63b8ff" d="M418.52,-334.15C400.02,-320.12 371.6,-300.42 344,-288.62 336.7,-285.5 328.77,-282.87 320.87,-280.67"/>
<polygon fill="#63b8ff" stroke="#63b8ff" points="415.95,-337.36 426,-340.71 420.23,-331.82 415.95,-337.36"/>
</g>
<!-- Node17 -->
<g id="node17" class="node">
<title>Node17</title>
<g id="a_node17"><a xlink:href="classsss_1_1api_1_1S3Api.html#ae548966dc38f328fc45ee1500f5caf5b" target="_top" xlink:title="Return bucket&#39;s Access Control List.">
<polygon fill="white" stroke="#666666" points="339.88,-243.25 192.62,-243.25 192.62,-224 339.88,-224 339.88,-243.25"/>
<text text-anchor="middle" x="266.25" y="-229.75" font-family="Helvetica,sans-Serif" font-size="10.00">sss::api::S3Api::GetObjectAcl</text>
</a>
</g>
</g>
<!-- Node7&#45;&gt;Node17 -->
<g id="edge18" class="edge">
<title>Node7&#45;&gt;Node17</title>
<path fill="none" stroke="#63b8ff" d="M426.26,-331.7C409.87,-309.08 379.36,-271.77 344,-251.62 338.41,-248.44 332.29,-245.82 326.01,-243.66"/>
<polygon fill="#63b8ff" stroke="#63b8ff" points="423.97,-333.51 432.59,-339.67 429.69,-329.48 423.97,-333.51"/>
</g>
<!-- Node18 -->
<g id="node18" class="node">
<title>Node18</title>
<g id="a_node18"><a xlink:href="classsss_1_1api_1_1S3Api.html#aa4a2b1cc2c89a52d1aa89e571b785db2" target="_top" xlink:title=" ">
<polygon fill="white" stroke="#666666" points="337.62,-440.25 194.88,-440.25 194.88,-421 337.62,-421 337.62,-440.25"/>
<text text-anchor="middle" x="266.25" y="-426.75" font-family="Helvetica,sans-Serif" font-size="10.00">sss::api::S3Api::HeadBucket</text>
</a>
</g>
</g>
<!-- Node7&#45;&gt;Node18 -->
<g id="edge19" class="edge">
<title>Node7&#45;&gt;Node18</title>
<path fill="none" stroke="#63b8ff" d="M387.69,-365.11C385.01,-366.49 382.43,-367.99 380,-369.62 359.32,-383.54 365.22,-399.55 344,-412.62 338.87,-415.78 333.24,-418.39 327.43,-420.54"/>
<polygon fill="#63b8ff" stroke="#63b8ff" points="388.97,-367.92 396.66,-360.63 386.1,-361.53 388.97,-367.92"/>
</g>
<!-- Node19 -->
<g id="node19" class="node">
<title>Node19</title>
<g id="a_node19"><a xlink:href="classsss_1_1api_1_1S3Api.html#abc84a71b9a88b81afaa353ad17a91d22" target="_top" xlink:title="Send HeadObject request.">
<polygon fill="white" stroke="#666666" points="336.5,-723.25 196,-723.25 196,-704 336.5,-704 336.5,-723.25"/>
<text text-anchor="middle" x="266.25" y="-709.75" font-family="Helvetica,sans-Serif" font-size="10.00">sss::api::S3Api::HeadObject</text>
</a>
</g>
</g>
<!-- Node7&#45;&gt;Node19 -->
<g id="edge21" class="edge">
<title>Node7&#45;&gt;Node19</title>
<path fill="none" stroke="#63b8ff" d="M382.02,-367.36C381.32,-368.09 380.64,-368.84 380,-369.62 287.78,-482.52 440.69,-586.54 344,-695.62 341.19,-698.8 337.93,-701.47 334.37,-703.71"/>
<polygon fill="#63b8ff" stroke="#63b8ff" points="383.79,-369.64 389.54,-360.74 379.49,-364.12 383.79,-369.64"/>
</g>
<!-- Node22 -->
<g id="node22" class="node">
<title>Node22</title>
<g id="a_node22"><a xlink:href="classsss_1_1api_1_1S3Api.html#a81e30673c06b609a2ee6e6bfd9130ca6" target="_top" xlink:title="List buckets.">
<polygon fill="white" stroke="#666666" points="336.5,-403.25 196,-403.25 196,-384 336.5,-384 336.5,-403.25"/>
<text text-anchor="middle" x="266.25" y="-389.75" font-family="Helvetica,sans-Serif" font-size="10.00">sss::api::S3Api::ListBuckets</text>
</a>
</g>
</g>
<!-- Node7&#45;&gt;Node22 -->
<g id="edge24" class="edge">
<title>Node7&#45;&gt;Node22</title>
<path fill="none" stroke="#63b8ff" d="M389.03,-363.31C374.51,-366.97 358.63,-370.97 344,-374.62 332.41,-377.52 319.84,-380.64 308.28,-383.5"/>
<polygon fill="#63b8ff" stroke="#63b8ff" points="389.49,-366.55 398.33,-360.71 387.78,-359.76 389.49,-366.55"/>
</g>
<!-- Node23 -->
<g id="node23" class="node">
<title>Node23</title>
<g id="a_node23"><a xlink:href="classsss_1_1api_1_1S3Api.html#a3f00f611cd210a58ac6e8c0555984433" target="_top" xlink:title="List objects by sending a ListObjectsV2 request.">
<polygon fill="white" stroke="#666666" points="341.38,-206.25 191.12,-206.25 191.12,-187 341.38,-187 341.38,-206.25"/>
<text text-anchor="middle" x="266.25" y="-192.75" font-family="Helvetica,sans-Serif" font-size="10.00">sss::api::S3Api::ListObjectsV2</text>
</a>
</g>
</g>
<!-- Node7&#45;&gt;Node23 -->
<g id="edge26" class="edge">
<title>Node7&#45;&gt;Node23</title>
<path fill="none" stroke="#63b8ff" d="M430.89,-330.76C417.37,-300.73 387.55,-244.13 344,-214.62 339.35,-211.48 334.23,-208.88 328.89,-206.73"/>
<polygon fill="#63b8ff" stroke="#63b8ff" points="427.93,-331.75 435.13,-339.53 434.35,-328.96 427.93,-331.75"/>
</g>
<!-- Node24 -->
<g id="node24" class="node">
<title>Node24</title>
<g id="a_node24"><a xlink:href="classsss_1_1api_1_1S3Api.html#aa35e9b1cc7661cd9bb0d5f2de6cbbc7d" target="_top" xlink:title="Set Access Control Policy for bucket.">
<polygon fill="white" stroke="#666666" points="340.62,-169.25 191.88,-169.25 191.88,-150 340.62,-150 340.62,-169.25"/>
<text text-anchor="middle" x="266.25" y="-155.75" font-family="Helvetica,sans-Serif" font-size="10.00">sss::api::S3Api::PutBucketAcl</text>
</a>
</g>
</g>
<!-- Node7&#45;&gt;Node24 -->
<g id="edge27" class="edge">
<title>Node7&#45;&gt;Node24</title>
<path fill="none" stroke="#63b8ff" d="M433.83,-330.14C423.26,-293.54 395.98,-217.08 344,-177.62 339.86,-174.48 335.25,-171.87 330.42,-169.71"/>
<polygon fill="#63b8ff" stroke="#63b8ff" points="430.66,-330.81 436.68,-339.52 437.41,-328.95 430.66,-330.81"/>
</g>
<!-- Node25 -->
<g id="node25" class="node">
<title>Node25</title>
<g id="a_node25"><a xlink:href="classsss_1_1api_1_1S3Api.html#a2cc08fb777cfc4d24c40bea1cde967e7" target="_top" xlink:title="Set Access Control Policy.">
<polygon fill="white" stroke="#666666" points="339.5,-132.25 193,-132.25 193,-113 339.5,-113 339.5,-132.25"/>
<text text-anchor="middle" x="266.25" y="-118.75" font-family="Helvetica,sans-Serif" font-size="10.00">sss::api::S3Api::PutObjectAcl</text>
</a>
</g>
</g>
<!-- Node7&#45;&gt;Node25 -->
<g id="edge28" class="edge">
<title>Node7&#45;&gt;Node25</title>
<path fill="none" stroke="#63b8ff" d="M435.96,-330.02C428.31,-287.66 404.79,-190.58 344,-140.62 340.19,-137.5 335.94,-134.89 331.44,-132.73"/>
<polygon fill="#63b8ff" stroke="#63b8ff" points="432.67,-330.58 437.78,-339.87 439.57,-329.43 432.67,-330.58"/>
</g>
<!-- Node26 -->
<g id="node26" class="node">
<title>Node26</title>
<g id="a_node26"><a xlink:href="classsss_1_1api_1_1S3Api.html#a0473917e4d25a4a6fca40d097e4299d6" target="_top" xlink:title=" ">
<polygon fill="white" stroke="#666666" points="321.88,-95.25 210.62,-95.25 210.62,-76 321.88,-76 321.88,-95.25"/>
<text text-anchor="middle" x="266.25" y="-81.75" font-family="Helvetica,sans-Serif" font-size="10.00">sss::api::S3Api::Send</text>
</a>
</g>
</g>
<!-- Node7&#45;&gt;Node26 -->
<g id="edge29" class="edge">
<title>Node7&#45;&gt;Node26</title>
<path fill="none" stroke="#63b8ff" d="M437.48,-329.73C432.56,-281.97 413.64,-164.3 344,-103.62 337.71,-98.14 330.05,-94.25 322.05,-91.5"/>
<polygon fill="#63b8ff" stroke="#63b8ff" points="434.07,-329.89 438.47,-339.52 441.04,-329.25 434.07,-329.89"/>
</g>
<!-- Node27 -->
<g id="node27" class="node">
<title>Node27</title>
<g id="a_node27"><a xlink:href="classsss_1_1api_1_1S3Api.html#a23223ee1fb701c55af2d942dbf261ae2" target="_top" xlink:title="Check if bucket exist.">
<polygon fill="white" stroke="#666666" points="335.38,-686.25 197.12,-686.25 197.12,-667 335.38,-667 335.38,-686.25"/>
<text text-anchor="middle" x="266.25" y="-672.75" font-family="Helvetica,sans-Serif" font-size="10.00">sss::api::S3Api::TestBucket</text>
</a>
</g>
</g>
<!-- Node7&#45;&gt;Node27 -->
<g id="edge30" class="edge">
<title>Node7&#45;&gt;Node27</title>
<path fill="none" stroke="#63b8ff" d="M382.4,-367.01C381.56,-367.84 380.76,-368.71 380,-369.62 297.68,-468.94 429.66,-561.18 344,-657.62 340.81,-661.22 337.06,-664.18 332.96,-666.62"/>
<polygon fill="#63b8ff" stroke="#63b8ff" points="384,-369.44 389.87,-360.62 379.78,-363.85 384,-369.44"/>
</g>
<!-- Node10&#45;&gt;Node11 -->
<g id="edge10" class="edge">
<title>Node10&#45;&gt;Node11</title>
<path fill="none" stroke="#63b8ff" d="M200.7,-528.28C196.51,-526.87 192.41,-525.32 188.5,-523.62 149.12,-506.57 108.56,-475.52 89.09,-459.61"/>
<polygon fill="#63b8ff" stroke="#63b8ff" points="199.61,-531.92 210.2,-531.52 201.67,-525.23 199.61,-531.92"/>
</g>
<!-- Node13&#45;&gt;Node11 -->
<g id="edge13" class="edge">
<title>Node13&#45;&gt;Node11</title>
<path fill="none" stroke="#63b8ff" d="M208.61,-491.95C201.81,-490.25 194.98,-488.46 188.5,-486.62 155.2,-477.2 117.07,-463.98 95.21,-456.16"/>
<polygon fill="#63b8ff" stroke="#63b8ff" points="207.67,-495.57 218.21,-494.55 209.33,-488.77 207.67,-495.57"/>
</g>
<!-- Node15&#45;&gt;Node11 -->
<g id="edge16" class="edge">
<title>Node15&#45;&gt;Node11</title>
<path fill="none" stroke="#63b8ff" d="M180.41,-459.5C148.32,-456.43 114.79,-453.22 94.98,-451.32"/>
<polygon fill="#63b8ff" stroke="#63b8ff" points="179.93,-463.07 190.22,-460.54 180.6,-456.1 179.93,-463.07"/>
</g>
<!-- Node18&#45;&gt;Node11 -->
<g id="edge20" class="edge">
<title>Node18&#45;&gt;Node11</title>
<path fill="none" stroke="#63b8ff" d="M183.77,-438.86C150.62,-442.21 115.35,-445.77 94.86,-447.85"/>
<polygon fill="#63b8ff" stroke="#63b8ff" points="183.85,-442.27 193.44,-437.78 183.14,-435.3 183.85,-442.27"/>
</g>
<!-- Node20 -->
<g id="node20" class="node">
<title>Node20</title>
<g id="a_node20"><a xlink:href="classsss_1_1api_1_1S3Api.html#a872e80e356e8c404a9b0739d95a0af41" target="_top" xlink:title="Return object size.">
<polygon fill="white" stroke="#666666" points="152.5,-741.25 0,-741.25 0,-722 152.5,-722 152.5,-741.25"/>
<text text-anchor="middle" x="76.25" y="-727.75" font-family="Helvetica,sans-Serif" font-size="10.00">sss::api::S3Api::GetObjectSize</text>
</a>
</g>
</g>
<!-- Node19&#45;&gt;Node20 -->
<g id="edge22" class="edge">
<title>Node19&#45;&gt;Node20</title>
<path fill="none" stroke="#63b8ff" d="M184.63,-721.34C174.09,-722.35 163.33,-723.38 152.87,-724.38"/>
<polygon fill="#63b8ff" stroke="#63b8ff" points="184.89,-724.74 194.51,-720.3 184.22,-717.77 184.89,-724.74"/>
</g>
<!-- Node21 -->
<g id="node21" class="node">
<title>Node21</title>
<g id="a_node21"><a xlink:href="classsss_1_1api_1_1S3Api.html#aa3f7a3001bdad58c7b0c04cbd0dc3236" target="_top" xlink:title="Check if key exists.">
<polygon fill="white" stroke="#666666" points="144.25,-704.25 8.25,-704.25 8.25,-685 144.25,-685 144.25,-704.25"/>
<text text-anchor="middle" x="76.25" y="-690.75" font-family="Helvetica,sans-Serif" font-size="10.00">sss::api::S3Api::TestObject</text>
</a>
</g>
</g>
<!-- Node19&#45;&gt;Node21 -->
<g id="edge23" class="edge">
<title>Node19&#45;&gt;Node21</title>
<path fill="none" stroke="#63b8ff" d="M184.88,-705.5C171.48,-704.15 157.71,-702.76 144.69,-701.44"/>
<polygon fill="#63b8ff" stroke="#63b8ff" points="184.21,-709.05 194.51,-706.58 184.92,-702.09 184.21,-709.05"/>
</g>
<!-- Node22&#45;&gt;Node11 -->
<g id="edge25" class="edge">
<title>Node22&#45;&gt;Node11</title>
<path fill="none" stroke="#63b8ff" d="M208.32,-406.31C201.61,-408 194.89,-409.79 188.5,-411.62 155.15,-421.21 117.04,-434.82 95.19,-442.88"/>
<polygon fill="#63b8ff" stroke="#63b8ff" points="208.91,-409.53 217.79,-403.74 207.25,-402.73 208.91,-409.53"/>
</g>
</g>
</svg>
