<?xml version="1.0" encoding="UTF-8" standalone="no"?>
<!DOCTYPE svg PUBLIC "-//W3C//DTD SVG 1.1//EN"
 "http://www.w3.org/Graphics/SVG/1.1/DTD/svg11.dtd">
<!-- Generated by graphviz version 8.0.5 (20230430.1635)
 -->
<!-- Title: sss::ToLower Pages: 1 -->
<!--zoomable 601 -->
<svg id="main" version="1.1" xmlns="http://www.w3.org/2000/svg" xmlns:xlink="http://www.w3.org/1999/xlink" xml:space="preserve" onload="init(evt)">
<style type="text/css"><![CDATA[
.edge:hover path { stroke: red; }
.edge:hover polygon { stroke: red; fill: red; }
]]></style>
<script type="text/javascript"><![CDATA[
var edges = document.getElementsByTagName('g');
if (edges && edges.length) {
  for (var i=0;i<edges.length;i++) {
    if (edges[i].id.substr(0,4)=='edge') {
      edges[i].setAttribute('class','edge');
    }
  }
}
]]></script>
        <defs>
                <circle id="rim" cx="0" cy="0" r="7"/>
                <circle id="rim2" cx="0" cy="0" r="3.5"/>
                <g id="zoomPlus">
                        <use xlink:href="#rim" fill="#404040">
                                <set attributeName="fill" to="#808080" begin="zoomplus.mouseover" end="zoomplus.mouseout"/>
                        </use>
                        <path d="M-4,0h8M0,-4v8" fill="none" stroke="white" stroke-width="1.5" pointer-events="none"/>
                </g>
                <g id="zoomMin">
                        <use xlink:href="#rim" fill="#404040">
                                <set attributeName="fill" to="#808080" begin="zoomminus.mouseover" end="zoomminus.mouseout"/>
                        </use>
                        <path d="M-4,0h8" fill="none" stroke="white" stroke-width="1.5" pointer-events="none"/>
                </g>
                <g id="dirArrow">
                        <path fill="none" stroke="white" stroke-width="1.5" d="M0,-3.0v7 M-2.5,-0.5L0,-3.0L2.5,-0.5"/>
                </g>
               <g id="resetDef">
                       <use xlink:href="#rim2" fill="#404040">
                               <set attributeName="fill" to="#808080" begin="reset.mouseover" end="reset.mouseout"/>
                       </use>
               </g>
        </defs>

<script type="text/javascript">
var viewWidth = 1057;
var viewHeight = 601;
var sectionId = 'dynsection-13';
</script>
<script xlink:href="svgpan.js"/>
<svg id="graph" class="graph">
<g id="viewport">
<title>sss::ToLower</title>
<!-- Node1 -->
<g id="node1" class="node">
<title>Node1</title>
<g id="a_node1"><a xlink:title=" ">
<polygon fill="#999999" stroke="#666666" points="1048.75,-155.25 974.25,-155.25 974.25,-136 1048.75,-136 1048.75,-155.25"/>
<text text-anchor="middle" x="1011.5" y="-141.75" font-family="Helvetica,sans-Serif" font-size="10.00">sss::ToLower</text>
</a>
</g>
</g>
<!-- Node1&#45;&gt;Node1 -->
<g id="edge30" class="edge">
<title>Node1&#45;&gt;Node1</title>
<path fill="none" stroke="#63b8ff" d="M1035.5,-165.98C1032.98,-170.21 1024.98,-173.25 1011.5,-173.25 988.19,-173.25 981.27,-164.15 990.74,-155.54"/>
<polygon fill="#63b8ff" stroke="#63b8ff" points="1038.57,-165.05 1032.26,-156.54 1031.88,-167.13 1038.57,-165.05"/>
</g>
<!-- Node2 -->
<g id="node2" class="node">
<title>Node2</title>
<g id="a_node2"><a xlink:href="group__Sign.html#ga904d511ec786b87644cc90dc96dd8f3f" target="_top" xlink:title="Compute signature.">
<polygon fill="white" stroke="#666666" points="938.25,-231.25 819.5,-231.25 819.5,-212 938.25,-212 938.25,-231.25"/>
<text text-anchor="middle" x="878.88" y="-217.75" font-family="Helvetica,sans-Serif" font-size="10.00">sss::ComputeSignature</text>
</a>
</g>
</g>
<!-- Node1&#45;&gt;Node2 -->
<g id="edge1" class="edge">
<title>Node1&#45;&gt;Node2</title>
<path fill="none" stroke="#63b8ff" d="M990.18,-162.23C976.15,-173.18 956.76,-187.35 938.25,-197.62 928.77,-202.89 917.89,-207.67 908.11,-211.56"/>
<polygon fill="#63b8ff" stroke="#63b8ff" points="991.9,-164.53 997.56,-155.57 987.55,-159.05 991.9,-164.53"/>
</g>
<!-- Node7 -->
<g id="node7" class="node">
<title>Node7</title>
<g id="a_node7"><a xlink:href="classsss_1_1api_1_1S3Api.html#ad09581bf28c4bbbcbb71b329959ec1ae" target="_top" xlink:title=" ">
<polygon fill="white" stroke="#666666" points="495.75,-286.25 384.5,-286.25 384.5,-267 495.75,-267 495.75,-286.25"/>
<text text-anchor="middle" x="440.12" y="-272.75" font-family="Helvetica,sans-Serif" font-size="10.00">sss::api::S3Api::Send</text>
</a>
</g>
</g>
<!-- Node1&#45;&gt;Node7 -->
<g id="edge28" class="edge">
<title>Node1&#45;&gt;Node7</title>
<path fill="none" stroke="#63b8ff" d="M963.15,-139.15C874.7,-129.22 680.3,-117.68 536.25,-183.62 495.09,-202.47 461.2,-246.97 447.57,-266.8"/>
<polygon fill="#63b8ff" stroke="#63b8ff" points="962.57,-142.73 972.91,-140.41 963.39,-135.77 962.57,-142.73"/>
</g>
<!-- Node11 -->
<g id="node11" class="node">
<title>Node11</title>
<g id="a_node11"><a xlink:href="bucket-test_8cpp.html#a3c04138a5bfe5d72780bb7e82a18e627" target="_top" xlink:title="Bucket tests.">
<polygon fill="white" stroke="#666666" points="94.75,-329.25 57.75,-329.25 57.75,-310 94.75,-310 94.75,-329.25"/>
<text text-anchor="middle" x="76.25" y="-315.75" font-family="Helvetica,sans-Serif" font-size="10.00">main</text>
</a>
</g>
</g>
<!-- Node1&#45;&gt;Node11 -->
<g id="edge27" class="edge">
<title>Node1&#45;&gt;Node11</title>
<path fill="none" stroke="#63b8ff" d="M985.23,-129.87C938.29,-102.17 833.68,-47.62 737.5,-47.62 737.5,-47.62 737.5,-47.62 439.12,-47.62 327.42,-47.62 279.67,-2.07 188.5,-66.62 102.35,-127.62 82.11,-270.63 78.12,-309.64"/>
<polygon fill="#63b8ff" stroke="#63b8ff" points="983.23,-133.36 993.6,-135.51 986.83,-127.36 983.23,-133.36"/>
</g>
<!-- Node24 -->
<g id="node24" class="node">
<title>Node24</title>
<g id="a_node24"><a xlink:href="group__S3Client.html#ga5a769be8fbc874bad858ea95743e5643" target="_top" xlink:title="Send S3 request to endpoint.">
<polygon fill="white" stroke="#666666" points="649.38,-212.25 540.38,-212.25 540.38,-193 649.38,-193 649.38,-212.25"/>
<text text-anchor="middle" x="594.88" y="-198.75" font-family="Helvetica,sans-Serif" font-size="10.00">sss::SendS3Request</text>
</a>
</g>
</g>
<!-- Node1&#45;&gt;Node24 -->
<g id="edge29" class="edge">
<title>Node1&#45;&gt;Node24</title>
<path fill="none" stroke="#63b8ff" d="M963.15,-155.27C954.87,-156.82 946.32,-158.34 938.25,-159.62 836.64,-175.83 717.27,-189.65 649.7,-196.98"/>
<polygon fill="#63b8ff" stroke="#63b8ff" points="963.67,-158.54 972.83,-153.22 962.35,-151.67 963.67,-158.54"/>
</g>
<!-- Node25 -->
<g id="node25" class="node">
<title>Node25</title>
<g id="a_node25"><a xlink:href="group__S3Client.html#gad8bcfb380e91093fec44517e1eddc939" target="_top" xlink:title="Validate S3 client request parameters.">
<polygon fill="white" stroke="#666666" points="915,-19.25 842.75,-19.25 842.75,0 915,0 915,-19.25"/>
<text text-anchor="middle" x="878.88" y="-5.75" font-family="Helvetica,sans-Serif" font-size="10.00">sss::Validate</text>
</a>
</g>
</g>
<!-- Node1&#45;&gt;Node25 -->
<g id="edge31" class="edge">
<title>Node1&#45;&gt;Node25</title>
<path fill="none" stroke="#63b8ff" d="M1002.26,-125.83C991.09,-101.17 968.95,-59.17 938.25,-33.62 931.26,-27.81 922.66,-23.24 914.24,-19.72"/>
<polygon fill="#63b8ff" stroke="#63b8ff" points="999.41,-127.05 1006.61,-134.82 1005.83,-124.25 999.41,-127.05"/>
</g>
<!-- Node3 -->
<g id="node3" class="node">
<title>Node3</title>
<g id="a_node3"><a xlink:href="group__Sign.html#ga3ae8e18ef70752b7369fca66c40c526b" target="_top" xlink:title="Sign headers.">
<polygon fill="white" stroke="#666666" points="783.5,-231.25 689.5,-231.25 689.5,-212 783.5,-212 783.5,-231.25"/>
<text text-anchor="middle" x="736.5" y="-217.75" font-family="Helvetica,sans-Serif" font-size="10.00">sss::SignHeaders</text>
</a>
</g>
</g>
<!-- Node2&#45;&gt;Node3 -->
<g id="edge2" class="edge">
<title>Node2&#45;&gt;Node3</title>
<path fill="none" stroke="#63b8ff" d="M808.22,-221.62C799.87,-221.62 791.5,-221.62 783.6,-221.62"/>
<polygon fill="#63b8ff" stroke="#63b8ff" points="808.16,-225.13 818.16,-221.62 808.16,-218.13 808.16,-225.13"/>
</g>
<!-- Node4 -->
<g id="node4" class="node">
<title>Node4</title>
<g id="a_node4"><a xlink:href="classsss_1_1api_1_1S3Api.html#a840772746fbb0a79c161037da7b24a31" target="_top" xlink:title="[WebClient::Config]">
<polygon fill="white" stroke="#666666" points="653.5,-308.25 536.25,-308.25 536.25,-289 653.5,-289 653.5,-308.25"/>
<text text-anchor="middle" x="594.88" y="-294.75" font-family="Helvetica,sans-Serif" font-size="10.00">sss::api::S3Api::Config</text>
</a>
</g>
</g>
<!-- Node3&#45;&gt;Node4 -->
<g id="edge3" class="edge">
<title>Node3&#45;&gt;Node4</title>
<path fill="none" stroke="#63b8ff" d="M707.71,-236.95C679.91,-252.28 637.97,-275.41 614.13,-288.56"/>
<polygon fill="#63b8ff" stroke="#63b8ff" points="709.18,-239.59 716.25,-231.69 705.8,-233.46 709.18,-239.59"/>
</g>
<!-- Node3&#45;&gt;Node24 -->
<g id="edge26" class="edge">
<title>Node3&#45;&gt;Node24</title>
<path fill="none" stroke="#63b8ff" d="M678.37,-213.85C668.8,-212.55 658.89,-211.2 649.41,-209.91"/>
<polygon fill="#63b8ff" stroke="#63b8ff" points="677.63,-217.42 688.01,-215.3 678.57,-210.48 677.63,-217.42"/>
</g>
<!-- Node5 -->
<g id="node5" class="node">
<title>Node5</title>
<g id="a_node5"><a xlink:href="classsss_1_1api_1_1S3Api.html#a1196f1cb9ce1e5d69336e9b8dbb5d59c" target="_top" xlink:title=" ">
<polygon fill="white" stroke="#666666" points="500.25,-383.88 380,-383.88 380,-353.38 500.25,-353.38 500.25,-383.88"/>
<text text-anchor="start" x="388" y="-370.38" font-family="Helvetica,sans-Serif" font-size="10.00">sss::api::S3Api::GetFile</text>
<text text-anchor="middle" x="440.12" y="-359.12" font-family="Helvetica,sans-Serif" font-size="10.00">Object</text>
</a>
</g>
</g>
<!-- Node4&#45;&gt;Node5 -->
<g id="edge4" class="edge">
<title>Node4&#45;&gt;Node5</title>
<path fill="none" stroke="#63b8ff" d="M563.76,-313.55C545.49,-322.49 521.65,-333.97 500.25,-343.62 493.44,-346.7 486.15,-349.87 479.09,-352.89"/>
<polygon fill="#63b8ff" stroke="#63b8ff" points="565.12,-316.29 572.55,-308.74 562.03,-310.01 565.12,-316.29"/>
</g>
<!-- Node6 -->
<g id="node6" class="node">
<title>Node6</title>
<g id="a_node6"><a xlink:href="classsss_1_1api_1_1S3Api.html#ab7affe0834f5892b393e731783b7ccac" target="_top" xlink:title=" ">
<polygon fill="white" stroke="#666666" points="499.88,-334.88 380.38,-334.88 380.38,-304.38 499.88,-304.38 499.88,-334.88"/>
<text text-anchor="start" x="388.38" y="-321.38" font-family="Helvetica,sans-Serif" font-size="10.00">sss::api::S3Api::PutFile</text>
<text text-anchor="middle" x="440.12" y="-310.12" font-family="Helvetica,sans-Serif" font-size="10.00">Object</text>
</a>
</g>
</g>
<!-- Node4&#45;&gt;Node6 -->
<g id="edge5" class="edge">
<title>Node4&#45;&gt;Node6</title>
<path fill="none" stroke="#63b8ff" d="M525.25,-308.06C516.9,-309.21 508.42,-310.37 500.22,-311.5"/>
<polygon fill="#63b8ff" stroke="#63b8ff" points="525.7,-311.39 535.13,-306.56 524.74,-304.46 525.7,-311.39"/>
</g>
<!-- Node4&#45;&gt;Node7 -->
<g id="edge6" class="edge">
<title>Node4&#45;&gt;Node7</title>
<path fill="none" stroke="#63b8ff" d="M525.24,-288.74C515.51,-287.34 505.61,-285.91 496.18,-284.55"/>
<polygon fill="#63b8ff" stroke="#63b8ff" points="524.73,-292.35 535.13,-290.31 525.73,-285.42 524.73,-292.35"/>
</g>
<!-- Node8 -->
<g id="node8" class="node">
<title>Node8</title>
<g id="a_node8"><a xlink:href="classsss_1_1api_1_1S3Api.html#a4ea265566c3c4335ec01201cdc4410c6" target="_top" xlink:title=" ">
<polygon fill="white" stroke="#666666" points="341,-500.88 191.5,-500.88 191.5,-470.38 341,-470.38 341,-500.88"/>
<text text-anchor="start" x="199.5" y="-487.38" font-family="Helvetica,sans-Serif" font-size="10.00">sss::api::S3Api::AbortMultipart</text>
<text text-anchor="middle" x="266.25" y="-476.12" font-family="Helvetica,sans-Serif" font-size="10.00">Upload</text>
</a>
</g>
</g>
<!-- Node7&#45;&gt;Node8 -->
<g id="edge7" class="edge">
<title>Node7&#45;&gt;Node8</title>
<path fill="none" stroke="#63b8ff" d="M382.97,-292.69C381.93,-293.62 380.94,-294.59 380,-295.62 329.54,-351.19 394.35,-404.96 344,-460.62 340.71,-464.26 336.88,-467.37 332.73,-470.03"/>
<polygon fill="#63b8ff" stroke="#63b8ff" points="384.55,-295.17 390.77,-286.59 380.56,-289.41 384.55,-295.17"/>
</g>
<!-- Node9 -->
<g id="node9" class="node">
<title>Node9</title>
<g id="a_node9"><a xlink:href="classsss_1_1api_1_1S3Api.html#a98f999a216121118dd569c7ef0c28ff3" target="_top" xlink:title=" ">
<polygon fill="white" stroke="#666666" points="331.62,-451.88 200.88,-451.88 200.88,-421.38 331.62,-421.38 331.62,-451.88"/>
<text text-anchor="start" x="208.88" y="-438.38" font-family="Helvetica,sans-Serif" font-size="10.00">sss::api::S3Api::Complete</text>
<text text-anchor="middle" x="266.25" y="-427.12" font-family="Helvetica,sans-Serif" font-size="10.00">MultipartUpload</text>
</a>
</g>
</g>
<!-- Node7&#45;&gt;Node9 -->
<g id="edge8" class="edge">
<title>Node7&#45;&gt;Node9</title>
<path fill="none" stroke="#63b8ff" d="M383.16,-292.74C382.06,-293.65 381,-294.61 380,-295.62 341.77,-334.33 382.38,-374.07 344,-412.62 340.45,-416.19 336.39,-419.22 332.02,-421.81"/>
<polygon fill="#63b8ff" stroke="#63b8ff" points="384.91,-295.13 391.37,-286.73 381.08,-289.27 384.91,-295.13"/>
</g>
<!-- Node10 -->
<g id="node10" class="node">
<title>Node10</title>
<g id="a_node10"><a xlink:href="classsss_1_1api_1_1S3Api.html#ad890bd1ecfc978df24b2c3ed641e4081" target="_top" xlink:title=" ">
<polygon fill="white" stroke="#666666" points="340.62,-329.25 191.88,-329.25 191.88,-310 340.62,-310 340.62,-329.25"/>
<text text-anchor="middle" x="266.25" y="-315.75" font-family="Helvetica,sans-Serif" font-size="10.00">sss::api::S3Api::CreateBucket</text>
</a>
</g>
</g>
<!-- Node7&#45;&gt;Node10 -->
<g id="edge9" class="edge">
<title>Node7&#45;&gt;Node10</title>
<path fill="none" stroke="#63b8ff" d="M389.03,-289.31C374.51,-292.97 358.63,-296.97 344,-300.62 332.41,-303.52 319.84,-306.64 308.28,-309.5"/>
<polygon fill="#63b8ff" stroke="#63b8ff" points="389.49,-292.55 398.33,-286.71 387.78,-285.76 389.49,-292.55"/>
</g>
<!-- Node12 -->
<g id="node12" class="node">
<title>Node12</title>
<g id="a_node12"><a xlink:href="classsss_1_1api_1_1S3Api.html#a1796fafda3d90a4292a611ce1999433b" target="_top" xlink:title=" ">
<polygon fill="white" stroke="#666666" points="344,-291.88 188.5,-291.88 188.5,-261.38 344,-261.38 344,-291.88"/>
<text text-anchor="start" x="196.5" y="-278.38" font-family="Helvetica,sans-Serif" font-size="10.00">sss::api::S3Api::CreateMultipart</text>
<text text-anchor="middle" x="266.25" y="-267.12" font-family="Helvetica,sans-Serif" font-size="10.00">Upload</text>
</a>
</g>
</g>
<!-- Node7&#45;&gt;Node12 -->
<g id="edge11" class="edge">
<title>Node7&#45;&gt;Node12</title>
<path fill="none" stroke="#63b8ff" d="M373.36,-276.62C363.9,-276.62 354.1,-276.62 344.45,-276.62"/>
<polygon fill="#63b8ff" stroke="#63b8ff" points="373.27,-280.13 383.27,-276.62 373.27,-273.13 373.27,-280.13"/>
</g>
<!-- Node13 -->
<g id="node13" class="node">
<title>Node13</title>
<g id="a_node13"><a xlink:href="classsss_1_1api_1_1S3Api.html#a3d63825d1916e4ba3ca13122c7660603" target="_top" xlink:title=" ">
<polygon fill="white" stroke="#666666" points="340.25,-95.25 192.25,-95.25 192.25,-76 340.25,-76 340.25,-95.25"/>
<text text-anchor="middle" x="266.25" y="-81.75" font-family="Helvetica,sans-Serif" font-size="10.00">sss::api::S3Api::DeleteBucket</text>
</a>
</g>
</g>
<!-- Node7&#45;&gt;Node13 -->
<g id="edge12" class="edge">
<title>Node7&#45;&gt;Node13</title>
<path fill="none" stroke="#63b8ff" d="M433.83,-256.14C423.26,-219.54 395.98,-143.08 344,-103.62 339.86,-100.48 335.25,-97.87 330.42,-95.71"/>
<polygon fill="#63b8ff" stroke="#63b8ff" points="430.66,-256.81 436.68,-265.52 437.41,-254.95 430.66,-256.81"/>
</g>
<!-- Node14 -->
<g id="node14" class="node">
<title>Node14</title>
<g id="a_node14"><a xlink:href="classsss_1_1api_1_1S3Api.html#a14a75f15eb71fbba8639673100768b67" target="_top" xlink:title=" ">
<polygon fill="white" stroke="#666666" points="339.12,-243.25 193.38,-243.25 193.38,-224 339.12,-224 339.12,-243.25"/>
<text text-anchor="middle" x="266.25" y="-229.75" font-family="Helvetica,sans-Serif" font-size="10.00">sss::api::S3Api::DeleteObject</text>
</a>
</g>
</g>
<!-- Node7&#45;&gt;Node14 -->
<g id="edge14" class="edge">
<title>Node7&#45;&gt;Node14</title>
<path fill="none" stroke="#63b8ff" d="M389.03,-263.94C374.51,-260.28 358.63,-256.28 344,-252.62 332.41,-249.73 319.84,-246.61 308.28,-243.75"/>
<polygon fill="#63b8ff" stroke="#63b8ff" points="387.78,-267.49 398.33,-266.54 389.49,-260.7 387.78,-267.49"/>
</g>
<!-- Node15 -->
<g id="node15" class="node">
<title>Node15</title>
<g id="a_node15"><a xlink:href="classsss_1_1api_1_1S3Api.html#af61465d92c0a94aa82ae863fc2a776a0" target="_top" xlink:title=" ">
<polygon fill="white" stroke="#666666" points="332.75,-206.25 199.75,-206.25 199.75,-187 332.75,-187 332.75,-206.25"/>
<text text-anchor="middle" x="266.25" y="-192.75" font-family="Helvetica,sans-Serif" font-size="10.00">sss::api::S3Api::GetObject</text>
</a>
</g>
</g>
<!-- Node7&#45;&gt;Node15 -->
<g id="edge15" class="edge">
<title>Node7&#45;&gt;Node15</title>
<path fill="none" stroke="#63b8ff" d="M418.52,-260.15C400.02,-246.12 371.6,-226.42 344,-214.62 336.7,-211.5 328.77,-208.87 320.87,-206.67"/>
<polygon fill="#63b8ff" stroke="#63b8ff" points="415.95,-263.36 426,-266.71 420.23,-257.82 415.95,-263.36"/>
</g>
<!-- Node16 -->
<g id="node16" class="node">
<title>Node16</title>
<g id="a_node16"><a xlink:href="classsss_1_1api_1_1S3Api.html#aa4a2b1cc2c89a52d1aa89e571b785db2" target="_top" xlink:title=" ">
<polygon fill="white" stroke="#666666" points="337.62,-403.25 194.88,-403.25 194.88,-384 337.62,-384 337.62,-403.25"/>
<text text-anchor="middle" x="266.25" y="-389.75" font-family="Helvetica,sans-Serif" font-size="10.00">sss::api::S3Api::HeadBucket</text>
</a>
</g>
</g>
<!-- Node7&#45;&gt;Node16 -->
<g id="edge16" class="edge">
<title>Node7&#45;&gt;Node16</title>
<path fill="none" stroke="#63b8ff" d="M384.46,-292.09C382.9,-293.19 381.41,-294.37 380,-295.62 350.93,-321.61 374.09,-350.83 344,-375.62 340.2,-378.76 335.95,-381.37 331.45,-383.53"/>
<polygon fill="#63b8ff" stroke="#63b8ff" points="386.07,-294.63 392.99,-286.61 382.58,-288.56 386.07,-294.63"/>
</g>
<!-- Node17 -->
<g id="node17" class="node">
<title>Node17</title>
<g id="a_node17"><a xlink:href="classsss_1_1api_1_1S3Api.html#abc84a71b9a88b81afaa353ad17a91d22" target="_top" xlink:title=" ">
<polygon fill="white" stroke="#666666" points="336.5,-575.25 196,-575.25 196,-556 336.5,-556 336.5,-575.25"/>
<text text-anchor="middle" x="266.25" y="-561.75" font-family="Helvetica,sans-Serif" font-size="10.00">sss::api::S3Api::HeadObject</text>
</a>
</g>
</g>
<!-- Node7&#45;&gt;Node17 -->
<g id="edge18" class="edge">
<title>Node7&#45;&gt;Node17</title>
<path fill="none" stroke="#63b8ff" d="M382.42,-293.03C381.57,-293.85 380.76,-294.72 380,-295.62 307.04,-382.09 420.38,-464.17 344,-547.62 341.14,-550.75 337.84,-553.39 334.26,-555.61"/>
<polygon fill="#63b8ff" stroke="#63b8ff" points="384.02,-295.46 389.93,-286.67 379.83,-289.85 384.02,-295.46"/>
</g>
<!-- Node20 -->
<g id="node20" class="node">
<title>Node20</title>
<g id="a_node20"><a xlink:href="classsss_1_1api_1_1S3Api.html#a81e30673c06b609a2ee6e6bfd9130ca6" target="_top" xlink:title=" ">
<polygon fill="white" stroke="#666666" points="336.5,-366.25 196,-366.25 196,-347 336.5,-347 336.5,-366.25"/>
<text text-anchor="middle" x="266.25" y="-352.75" font-family="Helvetica,sans-Serif" font-size="10.00">sss::api::S3Api::ListBuckets</text>
</a>
</g>
</g>
<!-- Node7&#45;&gt;Node20 -->
<g id="edge21" class="edge">
<title>Node7&#45;&gt;Node20</title>
<path fill="none" stroke="#63b8ff" d="M387.69,-291.11C385.01,-292.49 382.43,-293.99 380,-295.62 359.32,-309.54 365.22,-325.55 344,-338.62 338.87,-341.78 333.24,-344.39 327.43,-346.54"/>
<polygon fill="#63b8ff" stroke="#63b8ff" points="388.97,-293.92 396.66,-286.63 386.1,-287.53 388.97,-293.92"/>
</g>
<!-- Node21 -->
<g id="node21" class="node">
<title>Node21</title>
<g id="a_node21"><a xlink:href="classsss_1_1api_1_1S3Api.html#a3f00f611cd210a58ac6e8c0555984433" target="_top" xlink:title=" ">
<polygon fill="white" stroke="#666666" points="341.38,-169.25 191.12,-169.25 191.12,-150 341.38,-150 341.38,-169.25"/>
<text text-anchor="middle" x="266.25" y="-155.75" font-family="Helvetica,sans-Serif" font-size="10.00">sss::api::S3Api::ListObjectsV2</text>
</a>
</g>
</g>
<!-- Node7&#45;&gt;Node21 -->
<g id="edge23" class="edge">
<title>Node7&#45;&gt;Node21</title>
<path fill="none" stroke="#63b8ff" d="M426.26,-257.7C409.87,-235.08 379.36,-197.77 344,-177.62 338.41,-174.44 332.29,-171.82 326.01,-169.66"/>
<polygon fill="#63b8ff" stroke="#63b8ff" points="423.97,-259.51 432.59,-265.67 429.69,-255.48 423.97,-259.51"/>
</g>
<!-- Node22 -->
<g id="node22" class="node">
<title>Node22</title>
<g id="a_node22"><a xlink:href="classsss_1_1api_1_1S3Api.html#a0473917e4d25a4a6fca40d097e4299d6" target="_top" xlink:title=" ">
<polygon fill="white" stroke="#666666" points="321.88,-132.25 210.62,-132.25 210.62,-113 321.88,-113 321.88,-132.25"/>
<text text-anchor="middle" x="266.25" y="-118.75" font-family="Helvetica,sans-Serif" font-size="10.00">sss::api::S3Api::Send</text>
</a>
</g>
</g>
<!-- Node7&#45;&gt;Node22 -->
<g id="edge24" class="edge">
<title>Node7&#45;&gt;Node22</title>
<path fill="none" stroke="#63b8ff" d="M430.89,-256.76C417.37,-226.73 387.55,-170.13 344,-140.62 337.43,-136.17 329.89,-132.81 322.17,-130.28"/>
<polygon fill="#63b8ff" stroke="#63b8ff" points="427.93,-257.75 435.13,-265.53 434.35,-254.96 427.93,-257.75"/>
</g>
<!-- Node23 -->
<g id="node23" class="node">
<title>Node23</title>
<g id="a_node23"><a xlink:href="classsss_1_1api_1_1S3Api.html#a23223ee1fb701c55af2d942dbf261ae2" target="_top" xlink:title=" ">
<polygon fill="white" stroke="#666666" points="335.38,-538.25 197.12,-538.25 197.12,-519 335.38,-519 335.38,-538.25"/>
<text text-anchor="middle" x="266.25" y="-524.75" font-family="Helvetica,sans-Serif" font-size="10.00">sss::api::S3Api::TestBucket</text>
</a>
</g>
</g>
<!-- Node7&#45;&gt;Node23 -->
<g id="edge25" class="edge">
<title>Node7&#45;&gt;Node23</title>
<path fill="none" stroke="#63b8ff" d="M382.51,-293C381.63,-293.83 380.79,-294.71 380,-295.62 316.89,-368.56 409.56,-438.88 344,-509.62 340.64,-513.25 336.71,-516.23 332.43,-518.68"/>
<polygon fill="#63b8ff" stroke="#63b8ff" points="384.29,-295.31 390.31,-286.59 380.16,-289.65 384.29,-295.31"/>
</g>
<!-- Node10&#45;&gt;Node11 -->
<g id="edge10" class="edge">
<title>Node10&#45;&gt;Node11</title>
<path fill="none" stroke="#63b8ff" d="M180.67,-319.62C148.53,-319.62 114.91,-319.62 95.03,-319.62"/>
<polygon fill="#63b8ff" stroke="#63b8ff" points="180.49,-323.13 190.49,-319.62 180.49,-316.13 180.49,-323.13"/>
</g>
<!-- Node13&#45;&gt;Node11 -->
<g id="edge13" class="edge">
<title>Node13&#45;&gt;Node11</title>
<path fill="none" stroke="#63b8ff" d="M192.48,-100.78C191.11,-101.68 189.78,-102.62 188.5,-103.62 116.68,-159.69 86.85,-274.92 79.29,-309.56"/>
<polygon fill="#63b8ff" stroke="#63b8ff" points="193.89,-103.45 200.99,-95.59 190.54,-97.31 193.89,-103.45"/>
</g>
<!-- Node16&#45;&gt;Node11 -->
<g id="edge17" class="edge">
<title>Node16&#45;&gt;Node11</title>
<path fill="none" stroke="#63b8ff" d="M204.37,-380.75C198.95,-379.18 193.6,-377.48 188.5,-375.62 153.54,-362.93 115.34,-342.01 94.03,-329.66"/>
<polygon fill="#63b8ff" stroke="#63b8ff" points="203.23,-384.34 213.79,-383.59 205.06,-377.59 203.23,-384.34"/>
</g>
<!-- Node18 -->
<g id="node18" class="node">
<title>Node18</title>
<g id="a_node18"><a xlink:href="classsss_1_1api_1_1S3Api.html#a872e80e356e8c404a9b0739d95a0af41" target="_top" xlink:title="[WebClient::Config]">
<polygon fill="white" stroke="#666666" points="152.5,-593.25 0,-593.25 0,-574 152.5,-574 152.5,-593.25"/>
<text text-anchor="middle" x="76.25" y="-579.75" font-family="Helvetica,sans-Serif" font-size="10.00">sss::api::S3Api::GetObjectSize</text>
</a>
</g>
</g>
<!-- Node17&#45;&gt;Node18 -->
<g id="edge19" class="edge">
<title>Node17&#45;&gt;Node18</title>
<path fill="none" stroke="#63b8ff" d="M184.63,-573.34C174.09,-574.35 163.33,-575.38 152.87,-576.38"/>
<polygon fill="#63b8ff" stroke="#63b8ff" points="184.89,-576.74 194.51,-572.3 184.22,-569.77 184.89,-576.74"/>
</g>
<!-- Node19 -->
<g id="node19" class="node">
<title>Node19</title>
<g id="a_node19"><a xlink:href="classsss_1_1api_1_1S3Api.html#aa3f7a3001bdad58c7b0c04cbd0dc3236" target="_top" xlink:title=" ">
<polygon fill="white" stroke="#666666" points="144.25,-556.25 8.25,-556.25 8.25,-537 144.25,-537 144.25,-556.25"/>
<text text-anchor="middle" x="76.25" y="-542.75" font-family="Helvetica,sans-Serif" font-size="10.00">sss::api::S3Api::TestObject</text>
</a>
</g>
</g>
<!-- Node17&#45;&gt;Node19 -->
<g id="edge20" class="edge">
<title>Node17&#45;&gt;Node19</title>
<path fill="none" stroke="#63b8ff" d="M184.88,-557.5C171.48,-556.15 157.71,-554.76 144.69,-553.44"/>
<polygon fill="#63b8ff" stroke="#63b8ff" points="184.21,-561.05 194.51,-558.58 184.92,-554.09 184.21,-561.05"/>
</g>
<!-- Node20&#45;&gt;Node11 -->
<g id="edge22" class="edge">
<title>Node20&#45;&gt;Node11</title>
<path fill="none" stroke="#63b8ff" d="M203.42,-344.46C165.49,-336.99 119.63,-327.97 94.98,-323.11"/>
<polygon fill="#63b8ff" stroke="#63b8ff" points="202.39,-348.02 212.88,-346.51 203.74,-341.15 202.39,-348.02"/>
</g>
</g>
</svg>
        <g id="navigator" transform="translate(0 0)" fill="#404254">
                <rect fill="#f2f5e9" fill-opacity="0.5" stroke="#606060" stroke-width=".5" x="0" y="0" width="60" height="60"/>
                <use id="zoomplus" xlink:href="#zoomPlus" x="17" y="9" onmousedown="handleZoom(evt,'in')"/>
                <use id="zoomminus" xlink:href="#zoomMin" x="42" y="9" onmousedown="handleZoom(evt,'out')"/>
                <use id="reset" xlink:href="#resetDef" x="30" y="36" onmousedown="handleReset()"/>
                <g id="arrowUp" xlink:href="#dirArrow" transform="translate(30 24)" onmousedown="handlePan(0,-1)">
                  <use xlink:href="#rim" fill="#404040">
                        <set attributeName="fill" to="#808080" begin="arrowUp.mouseover" end="arrowUp.mouseout"/>
                  </use>
                  <path fill="none" stroke="white" stroke-width="1.5" d="M0,-3.0v7 M-2.5,-0.5L0,-3.0L2.5,-0.5"/>
                </g>
                <g id="arrowRight" xlink:href="#dirArrow" transform="rotate(90) translate(36 -43)" onmousedown="handlePan(1,0)">
                  <use xlink:href="#rim" fill="#404040">
                        <set attributeName="fill" to="#808080" begin="arrowRight.mouseover" end="arrowRight.mouseout"/>
                  </use>
                  <path fill="none" stroke="white" stroke-width="1.5" d="M0,-3.0v7 M-2.5,-0.5L0,-3.0L2.5,-0.5"/>
                </g>
                <g id="arrowDown" xlink:href="#dirArrow" transform="rotate(180) translate(-30 -48)" onmousedown="handlePan(0,1)">
                  <use xlink:href="#rim" fill="#404040">
                        <set attributeName="fill" to="#808080" begin="arrowDown.mouseover" end="arrowDown.mouseout"/>
                  </use>
                  <path fill="none" stroke="white" stroke-width="1.5" d="M0,-3.0v7 M-2.5,-0.5L0,-3.0L2.5,-0.5"/>
                </g>
                <g id="arrowLeft" xlink:href="#dirArrow" transform="rotate(270) translate(-36 17)" onmousedown="handlePan(-1,0)">
                  <use xlink:href="#rim" fill="#404040">
                        <set attributeName="fill" to="#808080" begin="arrowLeft.mouseover" end="arrowLeft.mouseout"/>
                  </use>
                  <path fill="none" stroke="white" stroke-width="1.5" d="M0,-3.0v7 M-2.5,-0.5L0,-3.0L2.5,-0.5"/>
                </g>
        </g>
        <svg viewBox="0 0 15 15" width="100%" height="30px" preserveAspectRatio="xMaxYMin meet">
         <g id="arrow_out" transform="scale(0.3 0.3)">
          <a xlink:href="lib_2include_2utility_8h_ab314781bb3f053ef5325b50f3a1b74f8_icgraph_org.svg" target="_base">
           <rect id="button" ry="5" rx="5" y="6" x="6" height="38" width="38"
                fill="#f2f5e9" fill-opacity="0.5" stroke="#606060" stroke-width="1.0"/>
           <path id="arrow"
             d="M 11.500037,31.436501 C 11.940474,20.09759 22.043105,11.32322 32.158766,21.979434 L 37.068811,17.246167 C 37.068811,17.246167 37.088388,32 37.088388,32 L 22.160133,31.978069 C 22.160133,31.978069 26.997745,27.140456 26.997745,27.140456 C 18.528582,18.264221 13.291696,25.230495 11.500037,31.436501 z"
             style="fill:#404040;"/>
          </a>
         </g>
        </svg>
</svg>
