<?xml version="1.0" encoding="UTF-8" standalone="no"?>
<!DOCTYPE svg PUBLIC "-//W3C//DTD SVG 1.1//EN"
 "http://www.w3.org/Graphics/SVG/1.1/DTD/svg11.dtd">
<!-- Generated by graphviz version 8.0.5 (20230430.1635)
 -->
<!-- Title: sss::FileSize Pages: 1 -->
<svg width="408pt" height="76pt"
 viewBox="0.00 0.00 407.75 75.88" xmlns="http://www.w3.org/2000/svg" xmlns:xlink="http://www.w3.org/1999/xlink">
<g id="graph0" class="graph" transform="scale(1 1) rotate(0) translate(4 71.88)">
<title>sss::FileSize</title>
<!-- Node1 -->
<g id="node1" class="node">
<title>Node1</title>
<g id="a_node1"><a xlink:title=" ">
<polygon fill="#999999" stroke="#666666" points="399.75,-40.25 326.75,-40.25 326.75,-21 399.75,-21 399.75,-40.25"/>
<text text-anchor="middle" x="363.25" y="-26.75" font-family="Helvetica,sans-Serif" font-size="10.00">sss::FileSize</text>
</a>
</g>
</g>
<!-- Node1&#45;&gt;Node1 -->
<g id="edge1" class="edge">
<title>Node1&#45;&gt;Node1</title>
<path fill="none" stroke="#63b8ff" d="M388.6,-50.98C385.94,-55.21 377.49,-58.25 363.25,-58.25 338.62,-58.25 331.31,-49.15 341.31,-40.54"/>
<polygon fill="#63b8ff" stroke="#63b8ff" points="391.62,-49.95 385.19,-41.54 384.97,-52.13 391.62,-49.95"/>
</g>
<!-- Node2 -->
<g id="node2" class="node">
<title>Node2</title>
<g id="a_node2"><a xlink:href="classsss_1_1WebClient.html#ad038e41cfc902f6e49754c52a9a71992" target="_top" xlink:title="Upload file.">
<polygon fill="white" stroke="#666666" points="290.75,-40.25 155.5,-40.25 155.5,-21 290.75,-21 290.75,-40.25"/>
<text text-anchor="middle" x="223.12" y="-26.75" font-family="Helvetica,sans-Serif" font-size="10.00">sss::WebClient::UploadFile</text>
</a>
</g>
</g>
<!-- Node1&#45;&gt;Node2 -->
<g id="edge2" class="edge">
<title>Node1&#45;&gt;Node2</title>
<path fill="none" stroke="#63b8ff" d="M315.56,-30.62C307.72,-30.62 299.44,-30.62 291.2,-30.62"/>
<polygon fill="#63b8ff" stroke="#63b8ff" points="315.32,-34.13 325.32,-30.62 315.32,-27.13 315.32,-34.13"/>
</g>
<!-- Node3 -->
<g id="node3" class="node">
<title>Node3</title>
<g id="a_node3"><a xlink:href="classsss_1_1api_1_1S3Api.html#ab7affe0834f5892b393e731783b7ccac" target="_top" xlink:title=" ">
<polygon fill="white" stroke="#666666" points="119.5,-67.88 0,-67.88 0,-37.38 119.5,-37.38 119.5,-67.88"/>
<text text-anchor="start" x="8" y="-54.38" font-family="Helvetica,sans-Serif" font-size="10.00">sss::api::S3Api::PutFile</text>
<text text-anchor="middle" x="59.75" y="-43.12" font-family="Helvetica,sans-Serif" font-size="10.00">Object</text>
</a>
</g>
</g>
<!-- Node2&#45;&gt;Node3 -->
<g id="edge3" class="edge">
<title>Node2&#45;&gt;Node3</title>
<path fill="none" stroke="#63b8ff" d="M144.32,-41.23C136.09,-42.35 127.82,-43.48 119.86,-44.57"/>
<polygon fill="#63b8ff" stroke="#63b8ff" points="144.65,-44.58 154.09,-39.76 143.71,-37.65 144.65,-44.58"/>
</g>
<!-- Node4 -->
<g id="node4" class="node">
<title>Node4</title>
<g id="a_node4"><a xlink:href="group__S3Client.html#ga5a769be8fbc874bad858ea95743e5643" target="_top" xlink:title="Send S3 request to endpoint.">
<polygon fill="white" stroke="#666666" points="114.25,-19.25 5.25,-19.25 5.25,0 114.25,0 114.25,-19.25"/>
<text text-anchor="middle" x="59.75" y="-5.75" font-family="Helvetica,sans-Serif" font-size="10.00">sss::SendS3Request</text>
</a>
</g>
</g>
<!-- Node2&#45;&gt;Node4 -->
<g id="edge4" class="edge">
<title>Node2&#45;&gt;Node4</title>
<path fill="none" stroke="#63b8ff" d="M144.24,-20.49C134.2,-19.18 124.1,-17.87 114.56,-16.63"/>
<polygon fill="#63b8ff" stroke="#63b8ff" points="143.72,-24.08 154.09,-21.9 144.62,-17.14 143.72,-24.08"/>
</g>
</g>
</svg>
