<?xml version="1.0" encoding="UTF-8" standalone="no"?>
<!DOCTYPE svg PUBLIC "-//W3C//DTD SVG 1.1//EN"
 "http://www.w3.org/Graphics/SVG/1.1/DTD/svg11.dtd">
<!-- Generated by graphviz version 8.0.5 (20230430.1635)
 -->
<!-- Title: /Users/ugovaretto/projects/s3client/repo/lib/include/utility.h Pages: 1 -->
<svg width="298pt" height="105pt"
 viewBox="0.00 0.00 298.25 105.00" xmlns="http://www.w3.org/2000/svg" xmlns:xlink="http://www.w3.org/1999/xlink">
<g id="graph0" class="graph" transform="scale(1 1) rotate(0) translate(4 101)">
<title>/Users/ugovaretto/projects/s3client/repo/lib/include/utility.h</title>
<!-- Node1 -->
<g id="node1" class="node">
<title>Node1</title>
<g id="a_node1"><a xlink:title="internal utility functions">
<polygon fill="#999999" stroke="#666666" points="201.62,-97 70.12,-97 70.12,-55.25 201.62,-55.25 201.62,-97"/>
<text text-anchor="start" x="78.12" y="-83.5" font-family="Helvetica,sans-Serif" font-size="10.00">/Users/ugovaretto/projects</text>
<text text-anchor="start" x="78.12" y="-72.25" font-family="Helvetica,sans-Serif" font-size="10.00">/s3client/repo/lib/include</text>
<text text-anchor="middle" x="135.88" y="-61" font-family="Helvetica,sans-Serif" font-size="10.00">/utility.h</text>
</a>
</g>
</g>
<!-- Node2 -->
<g id="node2" class="node">
<title>Node2</title>
<g id="a_node2"><a xlink:title=" ">
<polygon fill="#e0e0e0" stroke="#999999" points="55.75,-19.25 0,-19.25 0,0 55.75,0 55.75,-19.25"/>
<text text-anchor="middle" x="27.88" y="-5.75" font-family="Helvetica,sans-Serif" font-size="10.00">algorithm</text>
</a>
</g>
</g>
<!-- Node1&#45;&gt;Node2 -->
<g id="edge1" class="edge">
<title>Node1&#45;&gt;Node2</title>
<path fill="none" stroke="#63b8ff" d="M102,-54.89C85.92,-45.29 67.05,-34.02 52.38,-25.26"/>
<polygon fill="#63b8ff" stroke="#63b8ff" points="54.36,-21.77 43.98,-19.64 50.77,-27.78 54.36,-21.77"/>
</g>
<!-- Node3 -->
<g id="node3" class="node">
<title>Node3</title>
<g id="a_node3"><a xlink:title=" ">
<polygon fill="#e0e0e0" stroke="#999999" points="131.88,-19.25 73.88,-19.25 73.88,0 131.88,0 131.88,-19.25"/>
<text text-anchor="middle" x="102.88" y="-5.75" font-family="Helvetica,sans-Serif" font-size="10.00">functional</text>
</a>
</g>
</g>
<!-- Node1&#45;&gt;Node3 -->
<g id="edge2" class="edge">
<title>Node1&#45;&gt;Node3</title>
<path fill="none" stroke="#63b8ff" d="M125.61,-55.07C121.4,-46.84 116.56,-37.37 112.43,-29.29"/>
<polygon fill="#63b8ff" stroke="#63b8ff" points="115.19,-28 107.52,-20.7 108.95,-31.19 115.19,-28"/>
</g>
<!-- Node4 -->
<g id="node4" class="node">
<title>Node4</title>
<g id="a_node4"><a xlink:title=" ">
<polygon fill="#e0e0e0" stroke="#999999" points="189.88,-19.25 149.88,-19.25 149.88,0 189.88,0 189.88,-19.25"/>
<text text-anchor="middle" x="169.88" y="-5.75" font-family="Helvetica,sans-Serif" font-size="10.00">string</text>
</a>
</g>
</g>
<!-- Node1&#45;&gt;Node4 -->
<g id="edge3" class="edge">
<title>Node1&#45;&gt;Node4</title>
<path fill="none" stroke="#63b8ff" d="M146.45,-55.07C150.78,-46.84 155.78,-37.37 160.03,-29.29"/>
<polygon fill="#63b8ff" stroke="#63b8ff" points="163.53,-31.17 165.09,-20.7 157.33,-27.91 163.53,-31.17"/>
</g>
<!-- Node5 -->
<g id="node5" class="node">
<title>Node5</title>
<g id="a_node5"><a xlink:title=" ">
<polygon fill="#e0e0e0" stroke="#999999" points="290.25,-19.25 207.5,-19.25 207.5,0 290.25,0 290.25,-19.25"/>
<text text-anchor="middle" x="248.88" y="-5.75" font-family="Helvetica,sans-Serif" font-size="10.00">unordered_map</text>
</a>
</g>
</g>
<!-- Node1&#45;&gt;Node5 -->
<g id="edge4" class="edge">
<title>Node1&#45;&gt;Node5</title>
<path fill="none" stroke="#63b8ff" d="M171.32,-54.89C188.31,-45.2 208.26,-33.81 223.68,-25.01"/>
<polygon fill="#63b8ff" stroke="#63b8ff" points="225.12,-27.64 232.07,-19.64 221.65,-21.56 225.12,-27.64"/>
</g>
</g>
</svg>
