<?xml version="1.0" encoding="UTF-8" standalone="no"?>
<!DOCTYPE svg PUBLIC "-//W3C//DTD SVG 1.1//EN"
 "http://www.w3.org/Graphics/SVG/1.1/DTD/svg11.dtd">
<!-- Generated by graphviz version 2.43.0 (0)
 -->
<!-- Title: /home/ugovaretto/projects/uv&#45;cpp/s3client/repo/lib/hash/utility.h Pages: 1 -->
<svg width="572pt" height="206pt"
 viewBox="0.00 0.00 571.75 206.00" xmlns="http://www.w3.org/2000/svg" xmlns:xlink="http://www.w3.org/1999/xlink">
<g id="graph0" class="graph" transform="scale(1 1) rotate(0) translate(4 202)">
<title>/home/ugovaretto/projects/uv&#45;cpp/s3client/repo/lib/hash/utility.h</title>
<!-- Node1 -->
<g id="node1" class="node">
<title>Node1</title>
<g id="a_node1"><a xlink:title="Declaration of utility functions for SHA256 hashing.">
<polygon fill="#bfbfbf" stroke="black" points="210.75,-156.5 210.75,-197.5 340.75,-197.5 340.75,-156.5 210.75,-156.5"/>
<text text-anchor="start" x="218.75" y="-185.5" font-family="Helvetica,sans-Serif" font-size="10.00">/home/ugovaretto/projects</text>
<text text-anchor="start" x="218.75" y="-174.5" font-family="Helvetica,sans-Serif" font-size="10.00">/uv&#45;cpp/s3client/repo/lib</text>
<text text-anchor="middle" x="275.75" y="-163.5" font-family="Helvetica,sans-Serif" font-size="10.00">/hash/utility.h</text>
</a>
</g>
</g>
<!-- Node2 -->
<g id="node2" class="node">
<title>Node2</title>
<g id="a_node2"><a xlink:href="md5_8cpp.html" target="_top" xlink:title="Implementation of MD5 algorithm,.">
<polygon fill="none" stroke="black" points="16.75,-0.5 16.75,-41.5 146.75,-41.5 146.75,-0.5 16.75,-0.5"/>
<text text-anchor="start" x="24.75" y="-29.5" font-family="Helvetica,sans-Serif" font-size="10.00">/home/ugovaretto/projects</text>
<text text-anchor="start" x="24.75" y="-18.5" font-family="Helvetica,sans-Serif" font-size="10.00">/uv&#45;cpp/s3client/repo/lib</text>
<text text-anchor="middle" x="81.75" y="-7.5" font-family="Helvetica,sans-Serif" font-size="10.00">/hash/md5.cpp</text>
</a>
</g>
</g>
<!-- Node1&#45;&gt;Node2 -->
<g id="edge1" class="edge">
<title>Node1&#45;&gt;Node2</title>
<path fill="none" stroke="midnightblue" d="M200.29,-170.66C129.69,-163.9 31.64,-149.4 7.75,-120 -4.02,-105.51 -0.56,-94.71 7.75,-78 15.28,-62.85 29.08,-50.71 42.74,-41.66"/>
<polygon fill="midnightblue" stroke="midnightblue" points="200.21,-174.16 210.49,-171.6 200.85,-167.19 200.21,-174.16"/>
</g>
<!-- Node3 -->
<g id="node3" class="node">
<title>Node3</title>
<g id="a_node3"><a xlink:href="lib_2hash_2utility_8cpp.html" target="_top" xlink:title="Implementation of SHA256 utility functions.">
<polygon fill="none" stroke="black" points="16.75,-78.5 16.75,-119.5 146.75,-119.5 146.75,-78.5 16.75,-78.5"/>
<text text-anchor="start" x="24.75" y="-107.5" font-family="Helvetica,sans-Serif" font-size="10.00">/home/ugovaretto/projects</text>
<text text-anchor="start" x="24.75" y="-96.5" font-family="Helvetica,sans-Serif" font-size="10.00">/uv&#45;cpp/s3client/repo/lib</text>
<text text-anchor="middle" x="81.75" y="-85.5" font-family="Helvetica,sans-Serif" font-size="10.00">/hash/utility.cpp</text>
</a>
</g>
</g>
<!-- Node1&#45;&gt;Node3 -->
<g id="edge2" class="edge">
<title>Node1&#45;&gt;Node3</title>
<path fill="none" stroke="midnightblue" d="M216.39,-152.75C189.24,-142.11 157.42,-129.65 131.54,-119.51"/>
<polygon fill="midnightblue" stroke="midnightblue" points="215.2,-156.04 225.79,-156.43 217.75,-149.52 215.2,-156.04"/>
</g>
<!-- Node4 -->
<g id="node4" class="node">
<title>Node4</title>
<g id="a_node4"><a xlink:href="sha256_8cpp.html" target="_top" xlink:title="Implementation of SHA256 algorithm.">
<polygon fill="none" stroke="black" points="266.75,-0.5 266.75,-41.5 396.75,-41.5 396.75,-0.5 266.75,-0.5"/>
<text text-anchor="start" x="274.75" y="-29.5" font-family="Helvetica,sans-Serif" font-size="10.00">/home/ugovaretto/projects</text>
<text text-anchor="start" x="274.75" y="-18.5" font-family="Helvetica,sans-Serif" font-size="10.00">/uv&#45;cpp/s3client/repo/lib</text>
<text text-anchor="middle" x="331.75" y="-7.5" font-family="Helvetica,sans-Serif" font-size="10.00">/hash/sha256.cpp</text>
</a>
</g>
</g>
<!-- Node1&#45;&gt;Node4 -->
<g id="edge3" class="edge">
<title>Node1&#45;&gt;Node4</title>
<path fill="none" stroke="midnightblue" d="M291.28,-147.49C295.65,-138.82 300.19,-129.15 303.75,-120 314.08,-93.45 322.49,-61.53 327.31,-41.5"/>
<polygon fill="midnightblue" stroke="midnightblue" points="288.13,-145.96 286.64,-156.45 294.35,-149.18 288.13,-145.96"/>
</g>
<!-- Node5 -->
<g id="node5" class="node">
<title>Node5</title>
<g id="a_node5"><a xlink:href="hmac256_8cpp.html" target="_top" xlink:title="implementation of HMAC hashing algorithm.">
<polygon fill="none" stroke="black" points="433.75,-0.5 433.75,-41.5 563.75,-41.5 563.75,-0.5 433.75,-0.5"/>
<text text-anchor="start" x="441.75" y="-29.5" font-family="Helvetica,sans-Serif" font-size="10.00">/home/ugovaretto/projects</text>
<text text-anchor="start" x="441.75" y="-18.5" font-family="Helvetica,sans-Serif" font-size="10.00">/uv&#45;cpp/s3client/repo/lib</text>
<text text-anchor="middle" x="498.75" y="-7.5" font-family="Helvetica,sans-Serif" font-size="10.00">/hash/hmac256.cpp</text>
</a>
</g>
</g>
<!-- Node1&#45;&gt;Node5 -->
<g id="edge4" class="edge">
<title>Node1&#45;&gt;Node5</title>
<path fill="none" stroke="midnightblue" d="M350.9,-165.61C405.07,-156.48 471.69,-141.3 489.75,-120 508.09,-98.37 506.43,-63.58 502.99,-41.8"/>
<polygon fill="midnightblue" stroke="midnightblue" points="350.25,-162.17 340.95,-167.24 351.38,-169.08 350.25,-162.17"/>
</g>
<!-- Node6 -->
<g id="node6" class="node">
<title>Node6</title>
<g id="a_node6"><a xlink:href="sha256_8h.html" target="_top" xlink:title="declaration of SHA256 hash functions.">
<polygon fill="none" stroke="black" points="350.75,-78.5 350.75,-119.5 480.75,-119.5 480.75,-78.5 350.75,-78.5"/>
<text text-anchor="start" x="358.75" y="-107.5" font-family="Helvetica,sans-Serif" font-size="10.00">/home/ugovaretto/projects</text>
<text text-anchor="start" x="358.75" y="-96.5" font-family="Helvetica,sans-Serif" font-size="10.00">/uv&#45;cpp/s3client/repo/lib</text>
<text text-anchor="middle" x="415.75" y="-85.5" font-family="Helvetica,sans-Serif" font-size="10.00">/hash/sha256.h</text>
</a>
</g>
</g>
<!-- Node1&#45;&gt;Node6 -->
<g id="edge5" class="edge">
<title>Node1&#45;&gt;Node6</title>
<path fill="none" stroke="midnightblue" d="M320.65,-151.63C339.78,-141.24 361.79,-129.29 379.82,-119.51"/>
<polygon fill="midnightblue" stroke="midnightblue" points="318.92,-148.58 311.8,-156.43 322.26,-154.73 318.92,-148.58"/>
</g>
<!-- Node7 -->
<g id="node7" class="node">
<title>Node7</title>
<g id="a_node7"><a xlink:href="md5_8h.html" target="_top" xlink:title="declaration of MD5 hashing functions.">
<polygon fill="none" stroke="black" points="164.75,-78.5 164.75,-119.5 294.75,-119.5 294.75,-78.5 164.75,-78.5"/>
<text text-anchor="start" x="172.75" y="-107.5" font-family="Helvetica,sans-Serif" font-size="10.00">/home/ugovaretto/projects</text>
<text text-anchor="start" x="172.75" y="-96.5" font-family="Helvetica,sans-Serif" font-size="10.00">/uv&#45;cpp/s3client/repo/lib</text>
<text text-anchor="middle" x="229.75" y="-85.5" font-family="Helvetica,sans-Serif" font-size="10.00">/hash/md5.h</text>
</a>
</g>
</g>
<!-- Node1&#45;&gt;Node7 -->
<g id="edge8" class="edge">
<title>Node1&#45;&gt;Node7</title>
<path fill="none" stroke="midnightblue" d="M258.65,-147.76C252.96,-138.35 246.75,-128.1 241.55,-119.51"/>
<polygon fill="midnightblue" stroke="midnightblue" points="255.73,-149.69 263.9,-156.43 261.72,-146.06 255.73,-149.69"/>
</g>
<!-- Node6&#45;&gt;Node4 -->
<g id="edge6" class="edge">
<title>Node6&#45;&gt;Node4</title>
<path fill="none" stroke="midnightblue" d="M386.45,-71.49C375.55,-61.63 363.39,-50.63 353.31,-41.51"/>
<polygon fill="midnightblue" stroke="midnightblue" points="384.35,-74.31 394.12,-78.43 389.05,-69.12 384.35,-74.31"/>
</g>
<!-- Node6&#45;&gt;Node5 -->
<g id="edge7" class="edge">
<title>Node6&#45;&gt;Node5</title>
<path fill="none" stroke="midnightblue" d="M444.7,-71.49C455.47,-61.63 467.48,-50.63 477.45,-41.51"/>
<polygon fill="midnightblue" stroke="midnightblue" points="442.13,-69.09 437.12,-78.43 446.86,-74.26 442.13,-69.09"/>
</g>
<!-- Node7&#45;&gt;Node2 -->
<g id="edge9" class="edge">
<title>Node7&#45;&gt;Node2</title>
<path fill="none" stroke="midnightblue" d="M182.56,-73.77C162.27,-63.35 138.88,-51.34 119.73,-41.51"/>
<polygon fill="midnightblue" stroke="midnightblue" points="181.14,-76.97 191.63,-78.43 184.34,-70.75 181.14,-76.97"/>
</g>
</g>
</svg>
