<?xml version="1.0" encoding="UTF-8" standalone="no"?>
<!DOCTYPE svg PUBLIC "-//W3C//DTD SVG 1.1//EN"
 "http://www.w3.org/Graphics/SVG/1.1/DTD/svg11.dtd">
<!-- Generated by graphviz version 8.0.5 (20230430.1635)
 -->
<!-- Title: /Users/ugovaretto/projects/s3client/repo/lib/hash/md5.cpp Pages: 1 -->
<svg width="325pt" height="216pt"
 viewBox="0.00 0.00 325.25 215.50" xmlns="http://www.w3.org/2000/svg" xmlns:xlink="http://www.w3.org/1999/xlink">
<g id="graph0" class="graph" transform="scale(1 1) rotate(0) translate(4 211.5)">
<title>/Users/ugovaretto/projects/s3client/repo/lib/hash/md5.cpp</title>
<!-- Node1 -->
<g id="node1" class="node">
<title>Node1</title>
<g id="a_node1"><a xlink:title="Implementation of MD5 algorithm,.">
<polygon fill="#999999" stroke="#666666" points="192.38,-207.5 60.88,-207.5 60.88,-165.75 192.38,-165.75 192.38,-207.5"/>
<text text-anchor="start" x="68.88" y="-194" font-family="Helvetica,sans-Serif" font-size="10.00">/Users/ugovaretto/projects</text>
<text text-anchor="start" x="68.88" y="-182.75" font-family="Helvetica,sans-Serif" font-size="10.00">/s3client/repo/lib/hash</text>
<text text-anchor="middle" x="126.62" y="-171.5" font-family="Helvetica,sans-Serif" font-size="10.00">/md5.cpp</text>
</a>
</g>
</g>
<!-- Node2 -->
<g id="node2" class="node">
<title>Node2</title>
<g id="a_node2"><a xlink:href="md5_8h.html" target="_top" xlink:title="declaration of MD5 hashing functions.">
<polygon fill="white" stroke="#666666" points="98.12,-129.75 55.12,-129.75 55.12,-110.5 98.12,-110.5 98.12,-129.75"/>
<text text-anchor="middle" x="76.62" y="-116.25" font-family="Helvetica,sans-Serif" font-size="10.00">md5.h</text>
</a>
</g>
</g>
<!-- Node1&#45;&gt;Node2 -->
<g id="edge1" class="edge">
<title>Node1&#45;&gt;Node2</title>
<path fill="none" stroke="#63b8ff" d="M111.08,-165.57C104.41,-156.97 96.7,-147.02 90.26,-138.71"/>
<polygon fill="#63b8ff" stroke="#63b8ff" points="92.55,-136.95 83.66,-131.2 87.02,-141.24 92.55,-136.95"/>
</g>
<!-- Node3 -->
<g id="node3" class="node">
<title>Node3</title>
<g id="a_node3"><a xlink:href="lib_2hash_2utility_8h.html" target="_top" xlink:title="Declaration of utility functions for SHA256 hashing.">
<polygon fill="white" stroke="#666666" points="149.62,-74.5 103.62,-74.5 103.62,-55.25 149.62,-55.25 149.62,-74.5"/>
<text text-anchor="middle" x="126.62" y="-61" font-family="Helvetica,sans-Serif" font-size="10.00">utility.h</text>
</a>
</g>
</g>
<!-- Node1&#45;&gt;Node3 -->
<g id="edge8" class="edge">
<title>Node1&#45;&gt;Node3</title>
<path fill="none" stroke="#63b8ff" d="M126.62,-165.31C126.62,-143.12 126.62,-107.8 126.62,-85.77"/>
<polygon fill="#63b8ff" stroke="#63b8ff" points="130.13,-85.81 126.62,-75.81 123.13,-85.81 130.13,-85.81"/>
</g>
<!-- Node4 -->
<g id="node4" class="node">
<title>Node4</title>
<g id="a_node4"><a xlink:title=" ">
<polygon fill="#e0e0e0" stroke="#999999" points="45.25,-19.25 0,-19.25 0,0 45.25,0 45.25,-19.25"/>
<text text-anchor="middle" x="22.62" y="-5.75" font-family="Helvetica,sans-Serif" font-size="10.00">cstdint</text>
</a>
</g>
</g>
<!-- Node1&#45;&gt;Node4 -->
<g id="edge10" class="edge">
<title>Node1&#45;&gt;Node4</title>
<path fill="none" stroke="#63b8ff" d="M77.14,-165.43C61.75,-156.72 46.29,-144.96 36.62,-129.75 17.24,-99.24 17.71,-55.33 20.02,-30.22"/>
<polygon fill="#63b8ff" stroke="#63b8ff" points="23.58,-30.88 21.22,-20.55 16.62,-30.1 23.58,-30.88"/>
</g>
<!-- Node5 -->
<g id="node5" class="node">
<title>Node5</title>
<g id="a_node5"><a xlink:title=" ">
<polygon fill="#e0e0e0" stroke="#999999" points="187.75,-19.25 145.5,-19.25 145.5,0 187.75,0 187.75,-19.25"/>
<text text-anchor="middle" x="166.62" y="-5.75" font-family="Helvetica,sans-Serif" font-size="10.00">cstdio</text>
</a>
</g>
</g>
<!-- Node1&#45;&gt;Node5 -->
<g id="edge11" class="edge">
<title>Node1&#45;&gt;Node5</title>
<path fill="none" stroke="#63b8ff" d="M133.49,-165.38C140.73,-143.29 152,-106.75 158.62,-74.5 161.66,-59.73 163.71,-42.79 164.98,-30.07"/>
<polygon fill="#63b8ff" stroke="#63b8ff" points="168.54,-30.65 165.96,-20.37 161.57,-30.01 168.54,-30.65"/>
</g>
<!-- Node6 -->
<g id="node6" class="node">
<title>Node6</title>
<g id="a_node6"><a xlink:title=" ">
<polygon fill="#e0e0e0" stroke="#999999" points="107.88,-19.25 63.38,-19.25 63.38,0 107.88,0 107.88,-19.25"/>
<text text-anchor="middle" x="85.62" y="-5.75" font-family="Helvetica,sans-Serif" font-size="10.00">cstdlib</text>
</a>
</g>
</g>
<!-- Node1&#45;&gt;Node6 -->
<g id="edge12" class="edge">
<title>Node1&#45;&gt;Node6</title>
<path fill="none" stroke="#63b8ff" d="M81.47,-165.25C67.38,-156.47 53.49,-144.72 45.62,-129.75 27.72,-95.65 53.54,-51.92 71.29,-28.07"/>
<polygon fill="#63b8ff" stroke="#63b8ff" points="74.43,-30.73 77.81,-20.69 68.91,-26.43 74.43,-30.73"/>
</g>
<!-- Node7 -->
<g id="node7" class="node">
<title>Node7</title>
<g id="a_node7"><a xlink:title=" ">
<polygon fill="#e0e0e0" stroke="#999999" points="253.75,-129.75 205.5,-129.75 205.5,-110.5 253.75,-110.5 253.75,-129.75"/>
<text text-anchor="middle" x="229.62" y="-116.25" font-family="Helvetica,sans-Serif" font-size="10.00">cassert</text>
</a>
</g>
</g>
<!-- Node1&#45;&gt;Node7 -->
<g id="edge9" class="edge">
<title>Node1&#45;&gt;Node7</title>
<path fill="none" stroke="#63b8ff" d="M158.93,-165.39C174.27,-155.79 192.26,-144.52 206.25,-135.76"/>
<polygon fill="#63b8ff" stroke="#63b8ff" points="207.6,-138.42 214.22,-130.14 203.89,-132.49 207.6,-138.42"/>
</g>
<!-- Node8 -->
<g id="node8" class="node">
<title>Node8</title>
<g id="a_node8"><a xlink:title=" ">
<polygon fill="#e0e0e0" stroke="#999999" points="317.25,-129.75 272,-129.75 272,-110.5 317.25,-110.5 317.25,-129.75"/>
<text text-anchor="middle" x="294.62" y="-116.25" font-family="Helvetica,sans-Serif" font-size="10.00">cstring</text>
</a>
</g>
</g>
<!-- Node1&#45;&gt;Node8 -->
<g id="edge13" class="edge">
<title>Node1&#45;&gt;Node8</title>
<path fill="none" stroke="#63b8ff" d="M179.32,-165.39C206.19,-155.08 238.05,-142.85 261.46,-133.86"/>
<polygon fill="#63b8ff" stroke="#63b8ff" points="262.49,-136.83 270.58,-129.97 259.98,-130.29 262.49,-136.83"/>
</g>
<!-- Node2&#45;&gt;Node3 -->
<g id="edge2" class="edge">
<title>Node2&#45;&gt;Node3</title>
<path fill="none" stroke="#63b8ff" d="M84.88,-110.33C91.93,-102.82 102.27,-91.81 110.89,-82.63"/>
<polygon fill="#63b8ff" stroke="#63b8ff" points="112.9,-85.55 117.19,-75.86 107.79,-80.75 112.9,-85.55"/>
</g>
<!-- Node2&#45;&gt;Node4 -->
<g id="edge6" class="edge">
<title>Node2&#45;&gt;Node4</title>
<path fill="none" stroke="#63b8ff" d="M72.21,-110.25C63.42,-92.6 43.62,-52.8 31.87,-29.2"/>
<polygon fill="#63b8ff" stroke="#63b8ff" points="34.69,-28.02 27.11,-20.63 28.43,-31.14 34.69,-28.02"/>
</g>
<!-- Node2&#45;&gt;Node6 -->
<g id="edge7" class="edge">
<title>Node2&#45;&gt;Node6</title>
<path fill="none" stroke="#63b8ff" d="M77.36,-110.25C78.8,-92.92 82.01,-54.23 83.98,-30.49"/>
<polygon fill="#63b8ff" stroke="#63b8ff" points="87.54,-30.88 84.88,-20.63 80.56,-30.3 87.54,-30.88"/>
</g>
<!-- Node3&#45;&gt;Node4 -->
<g id="edge3" class="edge">
<title>Node3&#45;&gt;Node4</title>
<path fill="none" stroke="#63b8ff" d="M108.98,-54.84C92.85,-46.58 68.72,-34.23 50.07,-24.68"/>
<polygon fill="#63b8ff" stroke="#63b8ff" points="51.85,-21.14 41.35,-19.7 48.66,-27.38 51.85,-21.14"/>
</g>
<!-- Node3&#45;&gt;Node5 -->
<g id="edge4" class="edge">
<title>Node3&#45;&gt;Node5</title>
<path fill="none" stroke="#63b8ff" d="M133.23,-55.08C138.7,-47.8 146.64,-37.23 153.4,-28.23"/>
<polygon fill="#63b8ff" stroke="#63b8ff" points="156.67,-30.71 159.88,-20.61 151.07,-26.5 156.67,-30.71"/>
</g>
<!-- Node3&#45;&gt;Node6 -->
<g id="edge5" class="edge">
<title>Node3&#45;&gt;Node6</title>
<path fill="none" stroke="#63b8ff" d="M119.85,-55.08C114.25,-47.8 106.11,-37.23 99.18,-28.23"/>
<polygon fill="#63b8ff" stroke="#63b8ff" points="101.42,-26.4 92.54,-20.61 95.87,-30.67 101.42,-26.4"/>
</g>
</g>
</svg>
