<?xml version="1.0" encoding="UTF-8" standalone="no"?>
<!DOCTYPE svg PUBLIC "-//W3C//DTD SVG 1.1//EN"
 "http://www.w3.org/Graphics/SVG/1.1/DTD/svg11.dtd">
<!-- Generated by graphviz version 2.43.0 (0)
 -->
<!-- Title: /home/ugovaretto/projects/uv&#45;cpp/s3client/repo/lib/hash/md5.cpp Pages: 1 -->
<svg width="331pt" height="218pt"
 viewBox="0.00 0.00 331.00 218.00" xmlns="http://www.w3.org/2000/svg" xmlns:xlink="http://www.w3.org/1999/xlink">
<g id="graph0" class="graph" transform="scale(1 1) rotate(0) translate(4 214)">
<title>/home/ugovaretto/projects/uv&#45;cpp/s3client/repo/lib/hash/md5.cpp</title>
<!-- Node1 -->
<g id="node1" class="node">
<title>Node1</title>
<g id="a_node1"><a xlink:title="Implementation of MD5 algorithm,.">
<polygon fill="#bfbfbf" stroke="black" points="64,-168.5 64,-209.5 194,-209.5 194,-168.5 64,-168.5"/>
<text text-anchor="start" x="72" y="-197.5" font-family="Helvetica,sans-Serif" font-size="10.00">/home/ugovaretto/projects</text>
<text text-anchor="start" x="72" y="-186.5" font-family="Helvetica,sans-Serif" font-size="10.00">/uv&#45;cpp/s3client/repo/lib</text>
<text text-anchor="middle" x="129" y="-175.5" font-family="Helvetica,sans-Serif" font-size="10.00">/hash/md5.cpp</text>
</a>
</g>
</g>
<!-- Node2 -->
<g id="node2" class="node">
<title>Node2</title>
<g id="a_node2"><a xlink:href="md5_8h.html" target="_top" xlink:title="declaration of MD5 hashing functions.">
<polygon fill="none" stroke="black" points="56,-112.5 56,-131.5 100,-131.5 100,-112.5 56,-112.5"/>
<text text-anchor="middle" x="78" y="-119.5" font-family="Helvetica,sans-Serif" font-size="10.00">md5.h</text>
</a>
</g>
</g>
<!-- Node1&#45;&gt;Node2 -->
<g id="edge1" class="edge">
<title>Node1&#45;&gt;Node2</title>
<path fill="none" stroke="midnightblue" d="M113.7,-168.5C106.48,-159.3 97.96,-148.44 91.05,-139.63"/>
<polygon fill="midnightblue" stroke="midnightblue" points="93.72,-137.36 84.79,-131.65 88.21,-141.68 93.72,-137.36"/>
</g>
<!-- Node3 -->
<g id="node3" class="node">
<title>Node3</title>
<g id="a_node3"><a xlink:href="lib_2hash_2utility_8h.html" target="_top" xlink:title="Declaration of utility functions for SHA256 hashing.">
<polygon fill="none" stroke="black" points="105.5,-56.5 105.5,-75.5 152.5,-75.5 152.5,-56.5 105.5,-56.5"/>
<text text-anchor="middle" x="129" y="-63.5" font-family="Helvetica,sans-Serif" font-size="10.00">utility.h</text>
</a>
</g>
</g>
<!-- Node1&#45;&gt;Node3 -->
<g id="edge8" class="edge">
<title>Node1&#45;&gt;Node3</title>
<path fill="none" stroke="midnightblue" d="M129,-168.29C129,-145.48 129,-108.19 129,-85.78"/>
<polygon fill="midnightblue" stroke="midnightblue" points="132.5,-85.57 129,-75.57 125.5,-85.57 132.5,-85.57"/>
</g>
<!-- Node4 -->
<g id="node4" class="node">
<title>Node4</title>
<g id="a_node4"><a xlink:title=" ">
<polygon fill="none" stroke="#bfbfbf" points="0,-0.5 0,-19.5 46,-19.5 46,-0.5 0,-0.5"/>
<text text-anchor="middle" x="23" y="-7.5" font-family="Helvetica,sans-Serif" font-size="10.00">cstdint</text>
</a>
</g>
</g>
<!-- Node1&#45;&gt;Node4 -->
<g id="edge10" class="edge">
<title>Node1&#45;&gt;Node4</title>
<path fill="none" stroke="midnightblue" d="M79.98,-168.34C64.11,-159.56 48.03,-147.61 38,-132 17.85,-100.65 18.32,-55.2 20.58,-29.87"/>
<polygon fill="midnightblue" stroke="midnightblue" points="24.08,-30.08 21.68,-19.76 17.12,-29.33 24.08,-30.08"/>
</g>
<!-- Node5 -->
<g id="node5" class="node">
<title>Node5</title>
<g id="a_node5"><a xlink:title=" ">
<polygon fill="none" stroke="#bfbfbf" points="148.5,-0.5 148.5,-19.5 191.5,-19.5 191.5,-0.5 148.5,-0.5"/>
<text text-anchor="middle" x="170" y="-7.5" font-family="Helvetica,sans-Serif" font-size="10.00">cstdio</text>
</a>
</g>
</g>
<!-- Node1&#45;&gt;Node5 -->
<g id="edge11" class="edge">
<title>Node1&#45;&gt;Node5</title>
<path fill="none" stroke="midnightblue" d="M135.83,-168.42C143.32,-146.26 155.17,-108.95 162,-76 165.18,-60.67 167.25,-43.03 168.49,-30"/>
<polygon fill="midnightblue" stroke="midnightblue" points="171.99,-30.17 169.37,-19.91 165.01,-29.57 171.99,-30.17"/>
</g>
<!-- Node6 -->
<g id="node6" class="node">
<title>Node6</title>
<g id="a_node6"><a xlink:title=" ">
<polygon fill="none" stroke="#bfbfbf" points="64.5,-0.5 64.5,-19.5 109.5,-19.5 109.5,-0.5 64.5,-0.5"/>
<text text-anchor="middle" x="87" y="-7.5" font-family="Helvetica,sans-Serif" font-size="10.00">cstdlib</text>
</a>
</g>
</g>
<!-- Node1&#45;&gt;Node6 -->
<g id="edge12" class="edge">
<title>Node1&#45;&gt;Node6</title>
<path fill="none" stroke="midnightblue" d="M84.59,-168.47C69.9,-159.6 55.21,-147.55 47,-132 28.5,-96.96 55.47,-51.72 73.34,-27.7"/>
<polygon fill="midnightblue" stroke="midnightblue" points="76.26,-29.65 79.63,-19.6 70.73,-25.36 76.26,-29.65"/>
</g>
<!-- Node7 -->
<g id="node7" class="node">
<title>Node7</title>
<g id="a_node7"><a xlink:title=" ">
<polygon fill="none" stroke="#bfbfbf" points="209.5,-112.5 209.5,-131.5 258.5,-131.5 258.5,-112.5 209.5,-112.5"/>
<text text-anchor="middle" x="234" y="-119.5" font-family="Helvetica,sans-Serif" font-size="10.00">cassert</text>
</a>
</g>
</g>
<!-- Node1&#45;&gt;Node7 -->
<g id="edge9" class="edge">
<title>Node1&#45;&gt;Node7</title>
<path fill="none" stroke="midnightblue" d="M160.5,-168.5C176.91,-158.34 196.6,-146.16 211.46,-136.95"/>
<polygon fill="midnightblue" stroke="midnightblue" points="213.36,-139.89 220.02,-131.65 209.68,-133.94 213.36,-139.89"/>
</g>
<!-- Node8 -->
<g id="node8" class="node">
<title>Node8</title>
<g id="a_node8"><a xlink:title=" ">
<polygon fill="none" stroke="#bfbfbf" points="277,-112.5 277,-131.5 323,-131.5 323,-112.5 277,-112.5"/>
<text text-anchor="middle" x="300" y="-119.5" font-family="Helvetica,sans-Serif" font-size="10.00">cstring</text>
</a>
</g>
</g>
<!-- Node1&#45;&gt;Node8 -->
<g id="edge13" class="edge">
<title>Node1&#45;&gt;Node8</title>
<path fill="none" stroke="midnightblue" d="M180.31,-168.5C208.67,-157.72 243.04,-144.65 267.66,-135.29"/>
<polygon fill="midnightblue" stroke="midnightblue" points="269.13,-138.48 277.24,-131.65 266.65,-131.93 269.13,-138.48"/>
</g>
<!-- Node2&#45;&gt;Node3 -->
<g id="edge2" class="edge">
<title>Node2&#45;&gt;Node3</title>
<path fill="none" stroke="midnightblue" d="M86.42,-112.08C93.85,-104.22 104.85,-92.57 113.81,-83.08"/>
<polygon fill="midnightblue" stroke="midnightblue" points="116.41,-85.42 120.74,-75.75 111.32,-80.62 116.41,-85.42"/>
</g>
<!-- Node2&#45;&gt;Node4 -->
<g id="edge6" class="edge">
<title>Node2&#45;&gt;Node4</title>
<path fill="none" stroke="midnightblue" d="M73.68,-112.37C64.69,-94.38 43.78,-52.55 31.81,-28.63"/>
<polygon fill="midnightblue" stroke="midnightblue" points="34.9,-26.97 27.3,-19.59 28.64,-30.1 34.9,-26.97"/>
</g>
<!-- Node2&#45;&gt;Node6 -->
<g id="edge7" class="edge">
<title>Node2&#45;&gt;Node6</title>
<path fill="none" stroke="midnightblue" d="M78.71,-112.37C80.16,-94.62 83.51,-53.67 85.48,-29.6"/>
<polygon fill="midnightblue" stroke="midnightblue" points="88.97,-29.84 86.3,-19.59 81.99,-29.27 88.97,-29.84"/>
</g>
<!-- Node3&#45;&gt;Node4 -->
<g id="edge3" class="edge">
<title>Node3&#45;&gt;Node4</title>
<path fill="none" stroke="midnightblue" d="M111.97,-56.32C94.97,-47.66 68.62,-34.24 49.01,-24.25"/>
<polygon fill="midnightblue" stroke="midnightblue" points="50.49,-21.08 39.99,-19.65 47.31,-27.31 50.49,-21.08"/>
</g>
<!-- Node3&#45;&gt;Node5 -->
<g id="edge4" class="edge">
<title>Node3&#45;&gt;Node5</title>
<path fill="none" stroke="midnightblue" d="M135.77,-56.08C141.56,-48.46 150.06,-37.26 157.14,-27.94"/>
<polygon fill="midnightblue" stroke="midnightblue" points="160.1,-29.83 163.36,-19.75 154.52,-25.6 160.1,-29.83"/>
</g>
<!-- Node3&#45;&gt;Node6 -->
<g id="edge5" class="edge">
<title>Node3&#45;&gt;Node6</title>
<path fill="none" stroke="midnightblue" d="M122.06,-56.08C116.07,-48.38 107.25,-37.03 99.95,-27.65"/>
<polygon fill="midnightblue" stroke="midnightblue" points="102.71,-25.5 93.81,-19.75 97.18,-29.79 102.71,-25.5"/>
</g>
</g>
</svg>
