<?xml version="1.0" encoding="UTF-8" standalone="no"?>
<!DOCTYPE svg PUBLIC "-//W3C//DTD SVG 1.1//EN"
 "http://www.w3.org/Graphics/SVG/1.1/DTD/svg11.dtd">
<!-- Generated by graphviz version 2.43.0 (0)
 -->
<!-- Title: /home/ugovaretto/projects/uv&#45;cpp/s3client/repo/apps/parallel_upload.cpp Pages: 1 -->
<!--zoomable 330 -->
<svg id="main" version="1.1" xmlns="http://www.w3.org/2000/svg" xmlns:xlink="http://www.w3.org/1999/xlink" xml:space="preserve" onload="init(evt)">
<style type="text/css"><![CDATA[
.edge:hover path { stroke: red; }
.edge:hover polygon { stroke: red; fill: red; }
]]></style>
<script type="text/javascript"><![CDATA[
var edges = document.getElementsByTagName('g');
if (edges && edges.length) {
  for (var i=0;i<edges.length;i++) {
    if (edges[i].id.substr(0,4)=='edge') {
      edges[i].setAttribute('class','edge');
    }
  }
}
]]></script>
        <defs>
                <circle id="rim" cx="0" cy="0" r="7"/>
                <circle id="rim2" cx="0" cy="0" r="3.5"/>
                <g id="zoomPlus">
                        <use xlink:href="#rim" fill="#404040">
                                <set attributeName="fill" to="#808080" begin="zoomplus.mouseover" end="zoomplus.mouseout"/>
                        </use>
                        <path d="M-4,0h8M0,-4v8" fill="none" stroke="white" stroke-width="1.5" pointer-events="none"/>
                </g>
                <g id="zoomMin">
                        <use xlink:href="#rim" fill="#404040">
                                <set attributeName="fill" to="#808080" begin="zoomminus.mouseover" end="zoomminus.mouseout"/>
                        </use>
                        <path d="M-4,0h8" fill="none" stroke="white" stroke-width="1.5" pointer-events="none"/>
                </g>
                <g id="dirArrow">
                        <path fill="none" stroke="white" stroke-width="1.5" d="M0,-3.0v7 M-2.5,-0.5L0,-3.0L2.5,-0.5"/>
                </g>
               <g id="resetDef">
                       <use xlink:href="#rim2" fill="#404040">
                               <set attributeName="fill" to="#808080" begin="reset.mouseover" end="reset.mouseout"/>
                       </use>
               </g>
        </defs>

<script type="text/javascript">
var viewWidth = 1013;
var viewHeight = 330;
var sectionId = 'dynsection-0';
</script>
<script xlink:href="svgpan.js"/>
<svg id="graph" class="graph">
<g id="viewport">
<title>/home/ugovaretto/projects/uv&#45;cpp/s3client/repo/apps/parallel_upload.cpp</title>
<!-- Node1 -->
<g id="node1" class="node">
<title>Node1</title>
<g id="a_node1"><a xlink:title="Parallel upload to S3 service.">
<polygon fill="#bfbfbf" stroke="black" points="600.5,-280.5 600.5,-321.5 731.5,-321.5 731.5,-280.5 600.5,-280.5"/>
<text text-anchor="start" x="608.5" y="-309.5" font-family="Helvetica,sans-Serif" font-size="10.00">/home/ugovaretto/projects</text>
<text text-anchor="start" x="608.5" y="-298.5" font-family="Helvetica,sans-Serif" font-size="10.00">/uv&#45;cpp/s3client/repo/apps</text>
<text text-anchor="middle" x="666" y="-287.5" font-family="Helvetica,sans-Serif" font-size="10.00">/parallel_upload.cpp</text>
</a>
</g>
</g>
<!-- Node2 -->
<g id="node2" class="node">
<title>Node2</title>
<g id="a_node2"><a xlink:title=" ">
<polygon fill="none" stroke="#bfbfbf" points="0,-224.5 0,-243.5 50,-243.5 50,-224.5 0,-224.5"/>
<text text-anchor="middle" x="25" y="-231.5" font-family="Helvetica,sans-Serif" font-size="10.00">fstream</text>
</a>
</g>
</g>
<!-- Node1&#45;&gt;Node2 -->
<g id="edge1" class="edge">
<title>Node1&#45;&gt;Node2</title>
<path fill="none" stroke="midnightblue" d="M600.16,-296.77C489.06,-290.67 257.53,-275.19 64,-244 62.73,-243.79 61.43,-243.57 60.13,-243.34"/>
<polygon fill="midnightblue" stroke="midnightblue" points="60.57,-239.85 50.08,-241.31 59.19,-246.72 60.57,-239.85"/>
</g>
<!-- Node3 -->
<g id="node3" class="node">
<title>Node3</title>
<g id="a_node3"><a xlink:title=" ">
<polygon fill="none" stroke="#bfbfbf" points="177,-56.5 177,-75.5 231,-75.5 231,-56.5 177,-56.5"/>
<text text-anchor="middle" x="204" y="-63.5" font-family="Helvetica,sans-Serif" font-size="10.00">iostream</text>
</a>
</g>
</g>
<!-- Node1&#45;&gt;Node3 -->
<g id="edge2" class="edge">
<title>Node1&#45;&gt;Node3</title>
<path fill="none" stroke="midnightblue" d="M600.44,-289.39C469.64,-266.75 183.93,-209.37 127,-132 111.05,-110.32 142.08,-91.22 169.39,-79.43"/>
<polygon fill="midnightblue" stroke="midnightblue" points="170.88,-82.6 178.81,-75.57 168.23,-76.12 170.88,-82.6"/>
</g>
<!-- Node4 -->
<g id="node4" class="node">
<title>Node4</title>
<g id="a_node4"><a xlink:title=" ">
<polygon fill="none" stroke="#bfbfbf" points="668.5,-0.5 668.5,-19.5 709.5,-19.5 709.5,-0.5 668.5,-0.5"/>
<text text-anchor="middle" x="689" y="-7.5" font-family="Helvetica,sans-Serif" font-size="10.00">string</text>
</a>
</g>
</g>
<!-- Node1&#45;&gt;Node4 -->
<g id="edge3" class="edge">
<title>Node1&#45;&gt;Node4</title>
<path fill="none" stroke="midnightblue" d="M731.66,-283.27C781.32,-266.21 841,-234.22 841,-179 841,-179 841,-179 841,-121 841,-61.62 763.92,-31.03 719.54,-18.34"/>
<polygon fill="midnightblue" stroke="midnightblue" points="720.38,-14.94 709.82,-15.69 718.55,-21.69 720.38,-14.94"/>
</g>
<!-- Node5 -->
<g id="node5" class="node">
<title>Node5</title>
<g id="a_node5"><a xlink:title=" ">
<polygon fill="none" stroke="#bfbfbf" points="869,-224.5 869,-243.5 939,-243.5 939,-224.5 869,-224.5"/>
<text text-anchor="middle" x="904" y="-231.5" font-family="Helvetica,sans-Serif" font-size="10.00">lyra/lyra.hpp</text>
</a>
</g>
</g>
<!-- Node1&#45;&gt;Node5 -->
<g id="edge4" class="edge">
<title>Node1&#45;&gt;Node5</title>
<path fill="none" stroke="midnightblue" d="M731.66,-282.07C773.67,-270.59 826.86,-256.07 862.95,-246.21"/>
<polygon fill="midnightblue" stroke="midnightblue" points="863.93,-249.57 872.66,-243.56 862.09,-242.82 863.93,-249.57"/>
</g>
<!-- Node6 -->
<g id="node6" class="node">
<title>Node6</title>
<g id="a_node6"><a xlink:href="s3-client_8h.html" target="_top" xlink:title="declaration of functions and data types for sending S3 requests, signing URLs and downloading and upl...">
<polygon fill="none" stroke="black" points="635,-224.5 635,-243.5 697,-243.5 697,-224.5 635,-224.5"/>
<text text-anchor="middle" x="666" y="-231.5" font-family="Helvetica,sans-Serif" font-size="10.00">s3&#45;client.h</text>
</a>
</g>
</g>
<!-- Node1&#45;&gt;Node6 -->
<g id="edge5" class="edge">
<title>Node1&#45;&gt;Node6</title>
<path fill="none" stroke="midnightblue" d="M666,-280.5C666,-272.07 666,-262.24 666,-253.87"/>
<polygon fill="midnightblue" stroke="midnightblue" points="669.5,-253.65 666,-243.65 662.5,-253.65 669.5,-253.65"/>
</g>
<!-- Node10 -->
<g id="node10" class="node">
<title>Node10</title>
<g id="a_node10"><a xlink:href="url__utility_8h.html" target="_top" xlink:title="Internal utility functions to process and parse text and URLs and create S3 signature keys.">
<polygon fill="none" stroke="black" points="523,-112.5 523,-131.5 585,-131.5 585,-112.5 523,-112.5"/>
<text text-anchor="middle" x="554" y="-119.5" font-family="Helvetica,sans-Serif" font-size="10.00">url_utility.h</text>
</a>
</g>
</g>
<!-- Node1&#45;&gt;Node10 -->
<g id="edge38" class="edge">
<title>Node1&#45;&gt;Node10</title>
<path fill="none" stroke="midnightblue" d="M651.34,-280.32C643.58,-269.71 634.04,-256.3 626,-244 602.49,-208 577.3,-164.36 563.84,-140.56"/>
<polygon fill="midnightblue" stroke="midnightblue" points="566.78,-138.65 558.82,-131.66 560.68,-142.09 566.78,-138.65"/>
</g>
<!-- Node22 -->
<g id="node22" class="node">
<title>Node22</title>
<g id="a_node22"><a xlink:title=" ">
<polygon fill="none" stroke="#bfbfbf" points="957.5,-224.5 957.5,-243.5 1004.5,-243.5 1004.5,-224.5 957.5,-224.5"/>
<text text-anchor="middle" x="981" y="-231.5" font-family="Helvetica,sans-Serif" font-size="10.00">utility.h</text>
</a>
</g>
</g>
<!-- Node1&#45;&gt;Node22 -->
<g id="edge39" class="edge">
<title>Node1&#45;&gt;Node22</title>
<path fill="none" stroke="midnightblue" d="M731.53,-288.34C786.62,-278.22 867.64,-262.63 947.52,-243.98"/>
<polygon fill="midnightblue" stroke="midnightblue" points="948.32,-247.39 957.26,-241.69 946.72,-240.57 948.32,-247.39"/>
</g>
<!-- Node6&#45;&gt;Node4 -->
<g id="edge36" class="edge">
<title>Node6&#45;&gt;Node4</title>
<path fill="none" stroke="midnightblue" d="M684.08,-224.39C697.56,-216.87 714.97,-204.57 723,-188 733.14,-167.08 765.37,-209.6 717,-56 713.83,-45.92 707.87,-35.84 702.26,-27.77"/>
<polygon fill="midnightblue" stroke="midnightblue" points="705.01,-25.6 696.25,-19.64 699.38,-29.76 705.01,-25.6"/>
</g>
<!-- Node7 -->
<g id="node7" class="node">
<title>Node7</title>
<g id="a_node7"><a xlink:href="aws__sign_8h.html" target="_top" xlink:title="Public interface to signing URLs and HTTP headers with the S3v4 protocol standard.">
<polygon fill="none" stroke="black" points="633,-168.5 633,-187.5 699,-187.5 699,-168.5 633,-168.5"/>
<text text-anchor="middle" x="666" y="-175.5" font-family="Helvetica,sans-Serif" font-size="10.00">aws_sign.h</text>
</a>
</g>
</g>
<!-- Node6&#45;&gt;Node7 -->
<g id="edge6" class="edge">
<title>Node6&#45;&gt;Node7</title>
<path fill="none" stroke="midnightblue" d="M666,-224.08C666,-217.01 666,-206.86 666,-197.99"/>
<polygon fill="midnightblue" stroke="midnightblue" points="669.5,-197.75 666,-187.75 662.5,-197.75 669.5,-197.75"/>
</g>
<!-- Node8 -->
<g id="node8" class="node">
<title>Node8</title>
<g id="a_node8"><a xlink:href="common_8h.html" target="_top" xlink:title="Common definitions.">
<polygon fill="none" stroke="black" points="599,-56.5 599,-75.5 661,-75.5 661,-56.5 599,-56.5"/>
<text text-anchor="middle" x="630" y="-63.5" font-family="Helvetica,sans-Serif" font-size="10.00">common.h</text>
</a>
</g>
</g>
<!-- Node6&#45;&gt;Node8 -->
<g id="edge23" class="edge">
<title>Node6&#45;&gt;Node8</title>
<path fill="none" stroke="midnightblue" d="M678.21,-224.24C688.35,-216.14 702.04,-203.11 708,-188 711.26,-179.73 710.87,-176.41 708,-168 696.11,-133.14 666.76,-100.96 647.65,-82.68"/>
<polygon fill="midnightblue" stroke="midnightblue" points="649.88,-79.97 640.17,-75.73 645.12,-85.1 649.88,-79.97"/>
</g>
<!-- Node12 -->
<g id="node12" class="node">
<title>Node12</title>
<g id="a_node12"><a xlink:title=" ">
<polygon fill="none" stroke="#bfbfbf" points="18,-56.5 18,-75.5 62,-75.5 62,-56.5 18,-56.5"/>
<text text-anchor="middle" x="40" y="-63.5" font-family="Helvetica,sans-Serif" font-size="10.00">vector</text>
</a>
</g>
</g>
<!-- Node6&#45;&gt;Node12 -->
<g id="edge37" class="edge">
<title>Node6&#45;&gt;Node12</title>
<path fill="none" stroke="midnightblue" d="M634.66,-230.58C528.37,-221.9 183.05,-189.76 90,-132 71.54,-120.54 57.33,-99.65 48.85,-84.64"/>
<polygon fill="midnightblue" stroke="midnightblue" points="51.92,-82.96 44.12,-75.79 45.75,-86.26 51.92,-82.96"/>
</g>
<!-- Node16 -->
<g id="node16" class="node">
<title>Node16</title>
<g id="a_node16"><a xlink:href="webclient_8h.html" target="_top" xlink:title="declaration of WebClient class wrapping libcurl to send web requests.">
<polygon fill="none" stroke="black" points="381,-168.5 381,-187.5 447,-187.5 447,-168.5 381,-168.5"/>
<text text-anchor="middle" x="414" y="-175.5" font-family="Helvetica,sans-Serif" font-size="10.00">webclient.h</text>
</a>
</g>
</g>
<!-- Node6&#45;&gt;Node16 -->
<g id="edge24" class="edge">
<title>Node6&#45;&gt;Node16</title>
<path fill="none" stroke="midnightblue" d="M634.85,-226.32C590.13,-216.74 507.57,-199.05 457.04,-188.22"/>
<polygon fill="midnightblue" stroke="midnightblue" points="457.59,-184.76 447.08,-186.09 456.12,-191.61 457.59,-184.76"/>
</g>
<!-- Node7&#45;&gt;Node4 -->
<g id="edge22" class="edge">
<title>Node7&#45;&gt;Node4</title>
<path fill="none" stroke="midnightblue" d="M670.35,-168.37C678.69,-151.28 696.67,-111.67 703,-76 705.8,-60.19 701.43,-42.38 696.85,-29.4"/>
<polygon fill="midnightblue" stroke="midnightblue" points="700,-27.84 693.11,-19.79 693.47,-30.38 700,-27.84"/>
</g>
<!-- Node7&#45;&gt;Node8 -->
<g id="edge7" class="edge">
<title>Node7&#45;&gt;Node8</title>
<path fill="none" stroke="midnightblue" d="M663.18,-168.37C657.34,-150.54 643.84,-109.3 635.98,-85.27"/>
<polygon fill="midnightblue" stroke="midnightblue" points="639.25,-84.01 632.81,-75.59 632.6,-86.18 639.25,-84.01"/>
</g>
<!-- Node7&#45;&gt;Node10 -->
<g id="edge10" class="edge">
<title>Node7&#45;&gt;Node10</title>
<path fill="none" stroke="midnightblue" d="M648.01,-168.32C629.96,-159.62 601.95,-146.12 581.2,-136.11"/>
<polygon fill="midnightblue" stroke="midnightblue" points="582.48,-132.84 571.95,-131.65 579.44,-139.15 582.48,-132.84"/>
</g>
<!-- Node8&#45;&gt;Node4 -->
<g id="edge9" class="edge">
<title>Node8&#45;&gt;Node4</title>
<path fill="none" stroke="midnightblue" d="M639.48,-56.32C648.2,-48.34 661.34,-36.31 671.9,-26.65"/>
<polygon fill="midnightblue" stroke="midnightblue" points="674.33,-29.17 679.35,-19.83 669.61,-24 674.33,-29.17"/>
</g>
<!-- Node9 -->
<g id="node9" class="node">
<title>Node9</title>
<g id="a_node9"><a xlink:title=" ">
<polygon fill="none" stroke="#bfbfbf" points="515.5,-0.5 515.5,-19.5 550.5,-19.5 550.5,-0.5 515.5,-0.5"/>
<text text-anchor="middle" x="533" y="-7.5" font-family="Helvetica,sans-Serif" font-size="10.00">map</text>
</a>
</g>
</g>
<!-- Node8&#45;&gt;Node9 -->
<g id="edge8" class="edge">
<title>Node8&#45;&gt;Node9</title>
<path fill="none" stroke="midnightblue" d="M614.42,-56.32C599,-47.74 575.19,-34.49 557.29,-24.52"/>
<polygon fill="midnightblue" stroke="midnightblue" points="558.99,-21.46 548.55,-19.65 555.58,-27.58 558.99,-21.46"/>
</g>
<!-- Node10&#45;&gt;Node3 -->
<g id="edge12" class="edge">
<title>Node10&#45;&gt;Node3</title>
<path fill="none" stroke="midnightblue" d="M522.94,-116.21C458.49,-106.26 310.47,-83.43 241.12,-72.73"/>
<polygon fill="midnightblue" stroke="midnightblue" points="241.51,-69.25 231.09,-71.18 240.44,-76.16 241.51,-69.25"/>
</g>
<!-- Node10&#45;&gt;Node4 -->
<g id="edge14" class="edge">
<title>Node10&#45;&gt;Node4</title>
<path fill="none" stroke="midnightblue" d="M556.8,-112.29C561.6,-98.64 572.57,-72.11 590,-56 609.43,-38.05 637.23,-26.27 658.43,-19.29"/>
<polygon fill="midnightblue" stroke="midnightblue" points="659.74,-22.55 668.25,-16.23 657.66,-15.86 659.74,-22.55"/>
</g>
<!-- Node10&#45;&gt;Node8 -->
<g id="edge16" class="edge">
<title>Node10&#45;&gt;Node8</title>
<path fill="none" stroke="midnightblue" d="M566.21,-112.32C577.78,-104.11 595.38,-91.6 609.16,-81.81"/>
<polygon fill="midnightblue" stroke="midnightblue" points="611.44,-84.48 617.57,-75.83 607.39,-78.77 611.44,-84.48"/>
</g>
<!-- Node10&#45;&gt;Node9 -->
<g id="edge13" class="edge">
<title>Node10&#45;&gt;Node9</title>
<path fill="none" stroke="midnightblue" d="M552.35,-112.37C548.96,-94.62 541.15,-53.67 536.55,-29.6"/>
<polygon fill="midnightblue" stroke="midnightblue" points="539.95,-28.76 534.64,-19.59 533.08,-30.07 539.95,-28.76"/>
</g>
<!-- Node11 -->
<g id="node11" class="node">
<title>Node11</title>
<g id="a_node11"><a xlink:title=" ">
<polygon fill="none" stroke="#bfbfbf" points="435,-0.5 435,-19.5 491,-19.5 491,-0.5 435,-0.5"/>
<text text-anchor="middle" x="463" y="-7.5" font-family="Helvetica,sans-Serif" font-size="10.00">algorithm</text>
</a>
</g>
</g>
<!-- Node10&#45;&gt;Node11 -->
<g id="edge11" class="edge">
<title>Node10&#45;&gt;Node11</title>
<path fill="none" stroke="midnightblue" d="M546.86,-112.37C531.71,-94.05 496.13,-51.05 476.54,-27.36"/>
<polygon fill="midnightblue" stroke="midnightblue" points="479.18,-25.07 470.11,-19.59 473.78,-29.53 479.18,-25.07"/>
</g>
<!-- Node10&#45;&gt;Node12 -->
<g id="edge15" class="edge">
<title>Node10&#45;&gt;Node12</title>
<path fill="none" stroke="midnightblue" d="M522.89,-117.32C508.61,-115.66 491.45,-113.69 476,-112 325.26,-95.53 145.02,-77.43 72.54,-70.22"/>
<polygon fill="midnightblue" stroke="midnightblue" points="72.54,-66.71 62.24,-69.2 71.85,-73.67 72.54,-66.71"/>
</g>
<!-- Node13 -->
<g id="node13" class="node">
<title>Node13</title>
<g id="a_node13"><a xlink:href="lib_2include_2utility_8h.html" target="_top" xlink:title="internal utility functions">
<polygon fill="none" stroke="black" points="363.5,-56.5 363.5,-75.5 410.5,-75.5 410.5,-56.5 363.5,-56.5"/>
<text text-anchor="middle" x="387" y="-63.5" font-family="Helvetica,sans-Serif" font-size="10.00">utility.h</text>
</a>
</g>
</g>
<!-- Node10&#45;&gt;Node13 -->
<g id="edge17" class="edge">
<title>Node10&#45;&gt;Node13</title>
<path fill="none" stroke="midnightblue" d="M527.54,-112.44C498.49,-103.05 451.81,-87.96 420.29,-77.77"/>
<polygon fill="midnightblue" stroke="midnightblue" points="421.23,-74.39 410.64,-74.64 419.08,-81.05 421.23,-74.39"/>
</g>
<!-- Node13&#45;&gt;Node4 -->
<g id="edge20" class="edge">
<title>Node13&#45;&gt;Node4</title>
<path fill="none" stroke="midnightblue" d="M410.7,-60.76C464.87,-51.08 597.75,-27.32 658.18,-16.51"/>
<polygon fill="midnightblue" stroke="midnightblue" points="659.02,-19.92 668.25,-14.71 657.79,-13.03 659.02,-19.92"/>
</g>
<!-- Node13&#45;&gt;Node11 -->
<g id="edge18" class="edge">
<title>Node13&#45;&gt;Node11</title>
<path fill="none" stroke="midnightblue" d="M399.21,-56.32C410.78,-48.11 428.38,-35.6 442.16,-25.81"/>
<polygon fill="midnightblue" stroke="midnightblue" points="444.44,-28.48 450.57,-19.83 440.39,-22.77 444.44,-28.48"/>
</g>
<!-- Node14 -->
<g id="node14" class="node">
<title>Node14</title>
<g id="a_node14"><a xlink:title=" ">
<polygon fill="none" stroke="#bfbfbf" points="256.5,-0.5 256.5,-19.5 315.5,-19.5 315.5,-0.5 256.5,-0.5"/>
<text text-anchor="middle" x="286" y="-7.5" font-family="Helvetica,sans-Serif" font-size="10.00">functional</text>
</a>
</g>
</g>
<!-- Node13&#45;&gt;Node14 -->
<g id="edge19" class="edge">
<title>Node13&#45;&gt;Node14</title>
<path fill="none" stroke="midnightblue" d="M370.77,-56.32C354.65,-47.7 329.7,-34.36 311.04,-24.39"/>
<polygon fill="midnightblue" stroke="midnightblue" points="312.66,-21.28 302.19,-19.65 309.36,-27.46 312.66,-21.28"/>
</g>
<!-- Node15 -->
<g id="node15" class="node">
<title>Node15</title>
<g id="a_node15"><a xlink:title=" ">
<polygon fill="none" stroke="#bfbfbf" points="333.5,-0.5 333.5,-19.5 416.5,-19.5 416.5,-0.5 333.5,-0.5"/>
<text text-anchor="middle" x="375" y="-7.5" font-family="Helvetica,sans-Serif" font-size="10.00">unordered_map</text>
</a>
</g>
</g>
<!-- Node13&#45;&gt;Node15 -->
<g id="edge21" class="edge">
<title>Node13&#45;&gt;Node15</title>
<path fill="none" stroke="midnightblue" d="M385.02,-56.08C383.43,-48.93 381.14,-38.64 379.15,-29.69"/>
<polygon fill="midnightblue" stroke="midnightblue" points="382.53,-28.75 376.94,-19.75 375.7,-30.27 382.53,-28.75"/>
</g>
<!-- Node16&#45;&gt;Node4 -->
<g id="edge31" class="edge">
<title>Node16&#45;&gt;Node4</title>
<path fill="none" stroke="midnightblue" d="M447.05,-175.59C489.06,-172.51 562.67,-162.79 617,-132 646.81,-115.11 652.94,-105.72 670,-76 678.32,-61.5 683.26,-43.06 686.01,-29.52"/>
<polygon fill="midnightblue" stroke="midnightblue" points="689.48,-29.97 687.83,-19.5 682.6,-28.72 689.48,-29.97"/>
</g>
<!-- Node16&#45;&gt;Node8 -->
<g id="edge33" class="edge">
<title>Node16&#45;&gt;Node8</title>
<path fill="none" stroke="midnightblue" d="M447.28,-176.43C486.21,-174.15 550.83,-165.16 594,-132 609.31,-120.24 619.03,-100.01 624.45,-85.24"/>
<polygon fill="midnightblue" stroke="midnightblue" points="627.81,-86.24 627.67,-75.64 621.17,-84.01 627.81,-86.24"/>
</g>
<!-- Node16&#45;&gt;Node9 -->
<g id="edge29" class="edge">
<title>Node16&#45;&gt;Node9</title>
<path fill="none" stroke="midnightblue" d="M430,-168.46C443.67,-160.52 463.11,-147.57 476,-132 502.19,-100.37 519.39,-54.71 527.53,-29.48"/>
<polygon fill="midnightblue" stroke="midnightblue" points="530.93,-30.33 530.55,-19.74 524.25,-28.26 530.93,-30.33"/>
</g>
<!-- Node16&#45;&gt;Node10 -->
<g id="edge34" class="edge">
<title>Node16&#45;&gt;Node10</title>
<path fill="none" stroke="midnightblue" d="M436.18,-168.44C459.43,-159.48 496.15,-145.31 522.42,-135.18"/>
<polygon fill="midnightblue" stroke="midnightblue" points="523.85,-138.38 531.92,-131.52 521.33,-131.85 523.85,-138.38"/>
</g>
<!-- Node16&#45;&gt;Node12 -->
<g id="edge32" class="edge">
<title>Node16&#45;&gt;Node12</title>
<path fill="none" stroke="midnightblue" d="M380.75,-176.91C325.79,-175.67 213.46,-168.41 127,-132 99.48,-120.41 72.71,-98.28 56.3,-83.09"/>
<polygon fill="midnightblue" stroke="midnightblue" points="58.37,-80.23 48.71,-75.87 53.54,-85.3 58.37,-80.23"/>
</g>
<!-- Node16&#45;&gt;Node13 -->
<g id="edge35" class="edge">
<title>Node16&#45;&gt;Node13</title>
<path fill="none" stroke="midnightblue" d="M380.86,-176.78C313.91,-175.57 166.25,-168.7 135,-132 129.24,-125.23 129.29,-118.82 135,-112 162.44,-79.22 290.94,-70.3 353.12,-67.88"/>
<polygon fill="midnightblue" stroke="midnightblue" points="353.34,-71.38 363.21,-67.53 353.1,-64.38 353.34,-71.38"/>
</g>
<!-- Node17 -->
<g id="node17" class="node">
<title>Node17</title>
<g id="a_node17"><a xlink:title=" ">
<polygon fill="none" stroke="#bfbfbf" points="144.5,-112.5 144.5,-131.5 203.5,-131.5 203.5,-112.5 144.5,-112.5"/>
<text text-anchor="middle" x="174" y="-119.5" font-family="Helvetica,sans-Serif" font-size="10.00">curl/curl.h</text>
</a>
</g>
</g>
<!-- Node16&#45;&gt;Node17 -->
<g id="edge25" class="edge">
<title>Node16&#45;&gt;Node17</title>
<path fill="none" stroke="midnightblue" d="M380.73,-169.73C342.62,-161.37 278.05,-147.12 213.76,-132.38"/>
<polygon fill="midnightblue" stroke="midnightblue" points="214.39,-128.94 203.86,-130.11 212.83,-135.76 214.39,-128.94"/>
</g>
<!-- Node18 -->
<g id="node18" class="node">
<title>Node18</title>
<g id="a_node18"><a xlink:title=" ">
<polygon fill="none" stroke="#bfbfbf" points="221.5,-112.5 221.5,-131.5 284.5,-131.5 284.5,-112.5 221.5,-112.5"/>
<text text-anchor="middle" x="253" y="-119.5" font-family="Helvetica,sans-Serif" font-size="10.00">curl/easy.h</text>
</a>
</g>
</g>
<!-- Node16&#45;&gt;Node18 -->
<g id="edge26" class="edge">
<title>Node16&#45;&gt;Node18</title>
<path fill="none" stroke="midnightblue" d="M388.49,-168.44C361.4,-159.36 318.41,-144.94 288.13,-134.78"/>
<polygon fill="midnightblue" stroke="midnightblue" points="288.99,-131.38 278.39,-131.52 286.76,-138.01 288.99,-131.38"/>
</g>
<!-- Node19 -->
<g id="node19" class="node">
<title>Node19</title>
<g id="a_node19"><a xlink:title=" ">
<polygon fill="none" stroke="#bfbfbf" points="303,-112.5 303,-131.5 341,-131.5 341,-112.5 303,-112.5"/>
<text text-anchor="middle" x="322" y="-119.5" font-family="Helvetica,sans-Serif" font-size="10.00">array</text>
</a>
</g>
</g>
<!-- Node16&#45;&gt;Node19 -->
<g id="edge27" class="edge">
<title>Node16&#45;&gt;Node19</title>
<path fill="none" stroke="midnightblue" d="M399.22,-168.32C384.73,-159.82 362.43,-146.73 345.51,-136.8"/>
<polygon fill="midnightblue" stroke="midnightblue" points="347.14,-133.7 336.74,-131.65 343.6,-139.74 347.14,-133.7"/>
</g>
<!-- Node20 -->
<g id="node20" class="node">
<title>Node20</title>
<g id="a_node20"><a xlink:title=" ">
<polygon fill="none" stroke="#bfbfbf" points="359,-112.5 359,-131.5 405,-131.5 405,-112.5 359,-112.5"/>
<text text-anchor="middle" x="382" y="-119.5" font-family="Helvetica,sans-Serif" font-size="10.00">atomic</text>
</a>
</g>
</g>
<!-- Node16&#45;&gt;Node20 -->
<g id="edge28" class="edge">
<title>Node16&#45;&gt;Node20</title>
<path fill="none" stroke="midnightblue" d="M408.72,-168.08C404.29,-160.61 397.84,-149.72 392.38,-140.52"/>
<polygon fill="midnightblue" stroke="midnightblue" points="395.29,-138.57 387.19,-131.75 389.27,-142.14 395.29,-138.57"/>
</g>
<!-- Node21 -->
<g id="node21" class="node">
<title>Node21</title>
<g id="a_node21"><a xlink:title=" ">
<polygon fill="none" stroke="#bfbfbf" points="423,-112.5 423,-131.5 467,-131.5 467,-112.5 423,-112.5"/>
<text text-anchor="middle" x="445" y="-119.5" font-family="Helvetica,sans-Serif" font-size="10.00">mutex</text>
</a>
</g>
</g>
<!-- Node16&#45;&gt;Node21 -->
<g id="edge30" class="edge">
<title>Node16&#45;&gt;Node21</title>
<path fill="none" stroke="midnightblue" d="M419.12,-168.08C423.41,-160.61 429.66,-149.72 434.94,-140.52"/>
<polygon fill="midnightblue" stroke="midnightblue" points="438.03,-142.17 439.98,-131.75 431.96,-138.68 438.03,-142.17"/>
</g>
</g>
</svg>
        <g id="navigator" transform="translate(0 0)" fill="#404254">
                <rect fill="#f2f5e9" fill-opacity="0.5" stroke="#606060" stroke-width=".5" x="0" y="0" width="60" height="60"/>
                <use id="zoomplus" xlink:href="#zoomPlus" x="17" y="9" onmousedown="handleZoom(evt,'in')"/>
                <use id="zoomminus" xlink:href="#zoomMin" x="42" y="9" onmousedown="handleZoom(evt,'out')"/>
                <use id="reset" xlink:href="#resetDef" x="30" y="36" onmousedown="handleReset()"/>
                <g id="arrowUp" xlink:href="#dirArrow" transform="translate(30 24)" onmousedown="handlePan(0,-1)">
                  <use xlink:href="#rim" fill="#404040">
                        <set attributeName="fill" to="#808080" begin="arrowUp.mouseover" end="arrowUp.mouseout"/>
                  </use>
                  <path fill="none" stroke="white" stroke-width="1.5" d="M0,-3.0v7 M-2.5,-0.5L0,-3.0L2.5,-0.5"/>
                </g>
                <g id="arrowRight" xlink:href="#dirArrow" transform="rotate(90) translate(36 -43)" onmousedown="handlePan(1,0)">
                  <use xlink:href="#rim" fill="#404040">
                        <set attributeName="fill" to="#808080" begin="arrowRight.mouseover" end="arrowRight.mouseout"/>
                  </use>
                  <path fill="none" stroke="white" stroke-width="1.5" d="M0,-3.0v7 M-2.5,-0.5L0,-3.0L2.5,-0.5"/>
                </g>
                <g id="arrowDown" xlink:href="#dirArrow" transform="rotate(180) translate(-30 -48)" onmousedown="handlePan(0,1)">
                  <use xlink:href="#rim" fill="#404040">
                        <set attributeName="fill" to="#808080" begin="arrowDown.mouseover" end="arrowDown.mouseout"/>
                  </use>
                  <path fill="none" stroke="white" stroke-width="1.5" d="M0,-3.0v7 M-2.5,-0.5L0,-3.0L2.5,-0.5"/>
                </g>
                <g id="arrowLeft" xlink:href="#dirArrow" transform="rotate(270) translate(-36 17)" onmousedown="handlePan(-1,0)">
                  <use xlink:href="#rim" fill="#404040">
                        <set attributeName="fill" to="#808080" begin="arrowLeft.mouseover" end="arrowLeft.mouseout"/>
                  </use>
                  <path fill="none" stroke="white" stroke-width="1.5" d="M0,-3.0v7 M-2.5,-0.5L0,-3.0L2.5,-0.5"/>
                </g>
        </g>
        <svg viewBox="0 0 15 15" width="100%" height="30px" preserveAspectRatio="xMaxYMin meet">
         <g id="arrow_out" transform="scale(0.3 0.3)">
          <a xlink:href="parallel__upload_8cpp__incl_org.svg" target="_base">
           <rect id="button" ry="5" rx="5" y="6" x="6" height="38" width="38"
                fill="#f2f5e9" fill-opacity="0.5" stroke="#606060" stroke-width="1.0"/>
           <path id="arrow"
             d="M 11.500037,31.436501 C 11.940474,20.09759 22.043105,11.32322 32.158766,21.979434 L 37.068811,17.246167 C 37.068811,17.246167 37.088388,32 37.088388,32 L 22.160133,31.978069 C 22.160133,31.978069 26.997745,27.140456 26.997745,27.140456 C 18.528582,18.264221 13.291696,25.230495 11.500037,31.436501 z"
             style="fill:#404040;"/>
          </a>
         </g>
        </svg>
</svg>
