<?xml version="1.0" encoding="UTF-8" standalone="no"?>
<!DOCTYPE svg PUBLIC "-//W3C//DTD SVG 1.1//EN"
 "http://www.w3.org/Graphics/SVG/1.1/DTD/svg11.dtd">
<!-- Generated by graphviz version 8.0.5 (20230430.1635)
 -->
<!-- Title: /Users/ugovaretto/projects/s3client/repo/apps/parallel_upload.cpp Pages: 1 -->
<svg width="1008pt" height="326pt"
 viewBox="0.00 0.00 1007.50 326.00" xmlns="http://www.w3.org/2000/svg" xmlns:xlink="http://www.w3.org/1999/xlink">
<g id="graph0" class="graph" transform="scale(1 1) rotate(0) translate(4 322)">
<title>/Users/ugovaretto/projects/s3client/repo/apps/parallel_upload.cpp</title>
<!-- Node1 -->
<g id="node1" class="node">
<title>Node1</title>
<g id="a_node1"><a xlink:title="Parallel upload to S3 service.">
<polygon fill="#999999" stroke="#666666" points="728.62,-318 596.38,-318 596.38,-276.25 728.62,-276.25 728.62,-318"/>
<text text-anchor="start" x="604.38" y="-304.5" font-family="Helvetica,sans-Serif" font-size="10.00">/Users/ugovaretto/projects</text>
<text text-anchor="start" x="604.38" y="-293.25" font-family="Helvetica,sans-Serif" font-size="10.00">/s3client/repo/apps/parallel</text>
<text text-anchor="middle" x="662.5" y="-282" font-family="Helvetica,sans-Serif" font-size="10.00">_upload.cpp</text>
</a>
</g>
</g>
<!-- Node2 -->
<g id="node2" class="node">
<title>Node2</title>
<g id="a_node2"><a xlink:title=" ">
<polygon fill="#e0e0e0" stroke="#999999" points="49,-240.25 0,-240.25 0,-221 49,-221 49,-240.25"/>
<text text-anchor="middle" x="24.5" y="-226.75" font-family="Helvetica,sans-Serif" font-size="10.00">fstream</text>
</a>
</g>
</g>
<!-- Node1&#45;&gt;Node2 -->
<g id="edge1" class="edge">
<title>Node1&#45;&gt;Node2</title>
<path fill="none" stroke="#63b8ff" d="M596.13,-292.64C485.28,-286.22 255.69,-270.34 63.5,-240.25 62.34,-240.07 61.15,-239.87 59.96,-239.66"/>
<polygon fill="#63b8ff" stroke="#63b8ff" points="60.65,-236.04 50.17,-237.57 59.32,-242.91 60.65,-236.04"/>
</g>
<!-- Node3 -->
<g id="node3" class="node">
<title>Node3</title>
<g id="a_node3"><a xlink:title=" ">
<polygon fill="#e0e0e0" stroke="#999999" points="229.25,-74.5 175.75,-74.5 175.75,-55.25 229.25,-55.25 229.25,-74.5"/>
<text text-anchor="middle" x="202.5" y="-61" font-family="Helvetica,sans-Serif" font-size="10.00">iostream</text>
</a>
</g>
</g>
<!-- Node1&#45;&gt;Node3 -->
<g id="edge2" class="edge">
<title>Node1&#45;&gt;Node3</title>
<path fill="none" stroke="#63b8ff" d="M596.06,-285.45C465.43,-262.95 182.95,-206.38 126.5,-129.75 111.23,-109.02 139.67,-90.73 166,-79.09"/>
<polygon fill="#63b8ff" stroke="#63b8ff" points="167.01,-82.04 174.9,-74.97 164.32,-75.58 167.01,-82.04"/>
</g>
<!-- Node4 -->
<g id="node4" class="node">
<title>Node4</title>
<g id="a_node4"><a xlink:title=" ">
<polygon fill="#e0e0e0" stroke="#999999" points="705.5,-19.25 665.5,-19.25 665.5,0 705.5,0 705.5,-19.25"/>
<text text-anchor="middle" x="685.5" y="-5.75" font-family="Helvetica,sans-Serif" font-size="10.00">string</text>
</a>
</g>
</g>
<!-- Node1&#45;&gt;Node4 -->
<g id="edge3" class="edge">
<title>Node1&#45;&gt;Node4</title>
<path fill="none" stroke="#63b8ff" d="M728.66,-279.6C778.22,-262.8 837.5,-231.23 837.5,-176.38 837.5,-176.38 837.5,-176.38 837.5,-119.12 837.5,-60.24 761,-30.3 716.55,-17.87"/>
<polygon fill="#63b8ff" stroke="#63b8ff" points="717.56,-14.25 707,-15.08 715.77,-21.02 717.56,-14.25"/>
</g>
<!-- Node5 -->
<g id="node5" class="node">
<title>Node5</title>
<g id="a_node5"><a xlink:title=" ">
<polygon fill="#e0e0e0" stroke="#999999" points="935.12,-240.25 865.88,-240.25 865.88,-221 935.12,-221 935.12,-240.25"/>
<text text-anchor="middle" x="900.5" y="-226.75" font-family="Helvetica,sans-Serif" font-size="10.00">lyra/lyra.hpp</text>
</a>
</g>
</g>
<!-- Node1&#45;&gt;Node5 -->
<g id="edge4" class="edge">
<title>Node1&#45;&gt;Node5</title>
<path fill="none" stroke="#63b8ff" d="M729.11,-278.07C769.87,-267.03 820.86,-253.21 856.59,-243.53"/>
<polygon fill="#63b8ff" stroke="#63b8ff" points="857.42,-246.66 866.16,-240.66 855.59,-239.9 857.42,-246.66"/>
</g>
<!-- Node6 -->
<g id="node6" class="node">
<title>Node6</title>
<g id="a_node6"><a xlink:href="s3-client_8h.html" target="_top" xlink:title="declaration of functions and data types for sending S3 requests, signing URLs and downloading and upl...">
<polygon fill="white" stroke="#666666" points="693,-240.25 632,-240.25 632,-221 693,-221 693,-240.25"/>
<text text-anchor="middle" x="662.5" y="-226.75" font-family="Helvetica,sans-Serif" font-size="10.00">s3&#45;client.h</text>
</a>
</g>
</g>
<!-- Node1&#45;&gt;Node6 -->
<g id="edge5" class="edge">
<title>Node1&#45;&gt;Node6</title>
<path fill="none" stroke="#63b8ff" d="M662.5,-276.07C662.5,-268.3 662.5,-259.43 662.5,-251.67"/>
<polygon fill="#63b8ff" stroke="#63b8ff" points="666,-251.7 662.5,-241.7 659,-251.7 666,-251.7"/>
</g>
<!-- Node10 -->
<g id="node10" class="node">
<title>Node10</title>
<g id="a_node10"><a xlink:href="url__utility_8h.html" target="_top" xlink:title="Internal utility functions to process and parse text and URLs and create S3 signature keys.">
<polygon fill="white" stroke="#666666" points="581.38,-129.75 519.62,-129.75 519.62,-110.5 581.38,-110.5 581.38,-129.75"/>
<text text-anchor="middle" x="550.5" y="-116.25" font-family="Helvetica,sans-Serif" font-size="10.00">url_utility.h</text>
</a>
</g>
</g>
<!-- Node1&#45;&gt;Node10 -->
<g id="edge38" class="edge">
<title>Node1&#45;&gt;Node10</title>
<path fill="none" stroke="#63b8ff" d="M647.49,-275.96C639.81,-265.45 630.44,-252.3 622.5,-240.25 599.56,-205.42 574.83,-163.42 561.15,-139.74"/>
<polygon fill="#63b8ff" stroke="#63b8ff" points="563.7,-138.16 555.68,-131.24 557.64,-141.65 563.7,-138.16"/>
</g>
<!-- Node22 -->
<g id="node22" class="node">
<title>Node22</title>
<g id="a_node22"><a xlink:title=" ">
<polygon fill="#e0e0e0" stroke="#999999" points="999.5,-240.25 953.5,-240.25 953.5,-221 999.5,-221 999.5,-240.25"/>
<text text-anchor="middle" x="976.5" y="-226.75" font-family="Helvetica,sans-Serif" font-size="10.00">utility.h</text>
</a>
</g>
</g>
<!-- Node1&#45;&gt;Node22 -->
<g id="edge39" class="edge">
<title>Node1&#45;&gt;Node22</title>
<path fill="none" stroke="#63b8ff" d="M728.87,-284.29C783.72,-274.2 863.86,-258.79 942.54,-240.59"/>
<polygon fill="#63b8ff" stroke="#63b8ff" points="943.18,-243.8 952.13,-238.12 941.59,-236.98 943.18,-243.8"/>
</g>
<!-- Node6&#45;&gt;Node4 -->
<g id="edge36" class="edge">
<title>Node6&#45;&gt;Node4</title>
<path fill="none" stroke="#63b8ff" d="M681.69,-220.5C695,-213.02 711.68,-201.04 719.5,-185 729.56,-164.34 762.89,-210.89 713.5,-55.25 710.47,-45.69 704.89,-36.13 699.51,-28.32"/>
<polygon fill="#63b8ff" stroke="#63b8ff" points="701.76,-26.47 693,-20.51 696.13,-30.63 701.76,-26.47"/>
</g>
<!-- Node7 -->
<g id="node7" class="node">
<title>Node7</title>
<g id="a_node7"><a xlink:href="aws__sign_8h.html" target="_top" xlink:title="Public interface to signing URLs and HTTP headers with the S3v4 protocol standard.">
<polygon fill="white" stroke="#666666" points="695.25,-185 629.75,-185 629.75,-165.75 695.25,-165.75 695.25,-185"/>
<text text-anchor="middle" x="662.5" y="-171.5" font-family="Helvetica,sans-Serif" font-size="10.00">aws_sign.h</text>
</a>
</g>
</g>
<!-- Node6&#45;&gt;Node7 -->
<g id="edge6" class="edge">
<title>Node6&#45;&gt;Node7</title>
<path fill="none" stroke="#63b8ff" d="M662.5,-220.83C662.5,-214.17 662.5,-204.74 662.5,-196.28"/>
<polygon fill="#63b8ff" stroke="#63b8ff" points="666,-196.36 662.5,-186.36 659,-196.36 666,-196.36"/>
</g>
<!-- Node8 -->
<g id="node8" class="node">
<title>Node8</title>
<g id="a_node8"><a xlink:href="common_8h.html" target="_top" xlink:title="Common definitions.">
<polygon fill="white" stroke="#666666" points="657.38,-74.5 595.62,-74.5 595.62,-55.25 657.38,-55.25 657.38,-74.5"/>
<text text-anchor="middle" x="626.5" y="-61" font-family="Helvetica,sans-Serif" font-size="10.00">common.h</text>
</a>
</g>
</g>
<!-- Node6&#45;&gt;Node8 -->
<g id="edge23" class="edge">
<title>Node6&#45;&gt;Node8</title>
<path fill="none" stroke="#63b8ff" d="M675.11,-220.64C685.21,-212.61 698.62,-199.83 704.5,-185 707.65,-177.05 707.28,-173.84 704.5,-165.75 692.83,-131.83 664.39,-100.61 645.27,-82.41"/>
<polygon fill="#63b8ff" stroke="#63b8ff" points="647.96,-80.2 638.24,-75.99 643.21,-85.35 647.96,-80.2"/>
</g>
<!-- Node12 -->
<g id="node12" class="node">
<title>Node12</title>
<g id="a_node12"><a xlink:title=" ">
<polygon fill="#e0e0e0" stroke="#999999" points="61,-74.5 18,-74.5 18,-55.25 61,-55.25 61,-74.5"/>
<text text-anchor="middle" x="39.5" y="-61" font-family="Helvetica,sans-Serif" font-size="10.00">vector</text>
</a>
</g>
</g>
<!-- Node6&#45;&gt;Node12 -->
<g id="edge37" class="edge">
<title>Node6&#45;&gt;Node12</title>
<path fill="none" stroke="#63b8ff" d="M631.71,-227.25C526.46,-218.7 182.41,-186.85 89.5,-129.75 71.74,-118.83 57.79,-99.18 49.2,-84.54"/>
<polygon fill="#63b8ff" stroke="#63b8ff" points="51.8,-83.03 43.9,-75.97 45.68,-86.42 51.8,-83.03"/>
</g>
<!-- Node16 -->
<g id="node16" class="node">
<title>Node16</title>
<g id="a_node16"><a xlink:href="webclient_8h.html" target="_top" xlink:title="declaration of WebClient class wrapping libcurl to send web requests.">
<polygon fill="white" stroke="#666666" points="443.25,-185 377.75,-185 377.75,-165.75 443.25,-165.75 443.25,-185"/>
<text text-anchor="middle" x="410.5" y="-171.5" font-family="Helvetica,sans-Serif" font-size="10.00">webclient.h</text>
</a>
</g>
</g>
<!-- Node6&#45;&gt;Node16 -->
<g id="edge24" class="edge">
<title>Node6&#45;&gt;Node16</title>
<path fill="none" stroke="#63b8ff" d="M631.6,-223.1C587.15,-213.7 504.96,-196.34 454.28,-185.63"/>
<polygon fill="#63b8ff" stroke="#63b8ff" points="455.16,-182.02 444.66,-183.38 453.72,-188.87 455.16,-182.02"/>
</g>
<!-- Node7&#45;&gt;Node4 -->
<g id="edge22" class="edge">
<title>Node7&#45;&gt;Node4</title>
<path fill="none" stroke="#63b8ff" d="M667.11,-165.32C675.56,-148.15 693.24,-109.45 699.5,-74.5 702.2,-59.44 698.18,-42.54 693.76,-29.9"/>
<polygon fill="#63b8ff" stroke="#63b8ff" points="696.67,-28.73 689.78,-20.68 690.15,-31.27 696.67,-28.73"/>
</g>
<!-- Node7&#45;&gt;Node8 -->
<g id="edge7" class="edge">
<title>Node7&#45;&gt;Node8</title>
<path fill="none" stroke="#63b8ff" d="M659.55,-165.5C653.75,-148.01 640.73,-108.77 632.87,-85.09"/>
<polygon fill="#63b8ff" stroke="#63b8ff" points="635.96,-84.27 629.49,-75.88 629.31,-86.47 635.96,-84.27"/>
</g>
<!-- Node7&#45;&gt;Node10 -->
<g id="edge10" class="edge">
<title>Node7&#45;&gt;Node10</title>
<path fill="none" stroke="#63b8ff" d="M643.5,-165.34C625.96,-157 599.66,-144.5 579.5,-134.91"/>
<polygon fill="#63b8ff" stroke="#63b8ff" points="581.13,-131.34 570.59,-130.2 578.12,-137.66 581.13,-131.34"/>
</g>
<!-- Node8&#45;&gt;Node4 -->
<g id="edge9" class="edge">
<title>Node8&#45;&gt;Node4</title>
<path fill="none" stroke="#63b8ff" d="M636.51,-54.84C645.04,-47.15 657.5,-35.9 667.72,-26.68"/>
<polygon fill="#63b8ff" stroke="#63b8ff" points="669.56,-29.82 674.64,-20.52 664.87,-24.63 669.56,-29.82"/>
</g>
<!-- Node9 -->
<g id="node9" class="node">
<title>Node9</title>
<g id="a_node9"><a xlink:title=" ">
<polygon fill="#e0e0e0" stroke="#999999" points="546.88,-19.25 512.12,-19.25 512.12,0 546.88,0 546.88,-19.25"/>
<text text-anchor="middle" x="529.5" y="-5.75" font-family="Helvetica,sans-Serif" font-size="10.00">map</text>
</a>
</g>
</g>
<!-- Node8&#45;&gt;Node9 -->
<g id="edge8" class="edge">
<title>Node8&#45;&gt;Node9</title>
<path fill="none" stroke="#63b8ff" d="M610.05,-54.84C595.13,-46.66 572.91,-34.46 555.58,-24.94"/>
<polygon fill="#63b8ff" stroke="#63b8ff" points="557.49,-21.45 547.04,-19.7 554.12,-27.58 557.49,-21.45"/>
</g>
<!-- Node10&#45;&gt;Node3 -->
<g id="edge12" class="edge">
<title>Node10&#45;&gt;Node3</title>
<path fill="none" stroke="#63b8ff" d="M519.31,-114.35C455.31,-104.56 309.35,-82.22 240.18,-71.64"/>
<polygon fill="#63b8ff" stroke="#63b8ff" points="240.79,-68.04 230.37,-69.99 239.73,-74.96 240.79,-68.04"/>
</g>
<!-- Node10&#45;&gt;Node4 -->
<g id="edge14" class="edge">
<title>Node10&#45;&gt;Node4</title>
<path fill="none" stroke="#63b8ff" d="M553.5,-110.12C558.42,-96.57 569.4,-70.88 586.5,-55.25 605.93,-37.49 633.63,-25.82 654.78,-18.89"/>
<polygon fill="#63b8ff" stroke="#63b8ff" points="655.65,-21.98 664.17,-15.69 653.59,-15.29 655.65,-21.98"/>
</g>
<!-- Node10&#45;&gt;Node8 -->
<g id="edge16" class="edge">
<title>Node10&#45;&gt;Node8</title>
<path fill="none" stroke="#63b8ff" d="M563.39,-110.09C574.75,-102.14 591.52,-90.39 604.91,-81"/>
<polygon fill="#63b8ff" stroke="#63b8ff" points="606.36,-83.56 612.54,-74.95 602.35,-77.82 606.36,-83.56"/>
</g>
<!-- Node10&#45;&gt;Node9 -->
<g id="edge13" class="edge">
<title>Node10&#45;&gt;Node9</title>
<path fill="none" stroke="#63b8ff" d="M548.78,-110.25C545.41,-92.84 537.87,-53.87 533.28,-30.16"/>
<polygon fill="#63b8ff" stroke="#63b8ff" points="536.58,-29.78 531.24,-20.63 529.71,-31.11 536.58,-29.78"/>
</g>
<!-- Node11 -->
<g id="node11" class="node">
<title>Node11</title>
<g id="a_node11"><a xlink:title=" ">
<polygon fill="#e0e0e0" stroke="#999999" points="487.38,-19.25 431.62,-19.25 431.62,0 487.38,0 487.38,-19.25"/>
<text text-anchor="middle" x="459.5" y="-5.75" font-family="Helvetica,sans-Serif" font-size="10.00">algorithm</text>
</a>
</g>
</g>
<!-- Node10&#45;&gt;Node11 -->
<g id="edge11" class="edge">
<title>Node10&#45;&gt;Node11</title>
<path fill="none" stroke="#63b8ff" d="M543.05,-110.25C527.99,-92.28 493.66,-51.36 474.02,-27.94"/>
<polygon fill="#63b8ff" stroke="#63b8ff" points="476.16,-26.04 467.05,-20.63 470.79,-30.54 476.16,-26.04"/>
</g>
<!-- Node10&#45;&gt;Node12 -->
<g id="edge15" class="edge">
<title>Node10&#45;&gt;Node12</title>
<path fill="none" stroke="#63b8ff" d="M519.36,-115.68C504.82,-114.09 487.28,-112.18 471.5,-110.5 322.04,-94.62 143.41,-76.41 71.66,-69.13"/>
<polygon fill="#63b8ff" stroke="#63b8ff" points="72.38,-65.59 62.08,-68.06 71.68,-72.55 72.38,-65.59"/>
</g>
<!-- Node13 -->
<g id="node13" class="node">
<title>Node13</title>
<g id="a_node13"><a xlink:href="lib_2include_2utility_8h.html" target="_top" xlink:title="internal utility functions">
<polygon fill="white" stroke="#666666" points="407.5,-74.5 361.5,-74.5 361.5,-55.25 407.5,-55.25 407.5,-74.5"/>
<text text-anchor="middle" x="384.5" y="-61" font-family="Helvetica,sans-Serif" font-size="10.00">utility.h</text>
</a>
</g>
</g>
<!-- Node10&#45;&gt;Node13 -->
<g id="edge17" class="edge">
<title>Node10&#45;&gt;Node13</title>
<path fill="none" stroke="#63b8ff" d="M522.34,-110.09C493.55,-100.85 448.81,-86.5 418.16,-76.67"/>
<polygon fill="#63b8ff" stroke="#63b8ff" points="419.55,-73.12 408.96,-73.4 417.41,-79.79 419.55,-73.12"/>
</g>
<!-- Node13&#45;&gt;Node4 -->
<g id="edge20" class="edge">
<title>Node13&#45;&gt;Node4</title>
<path fill="none" stroke="#63b8ff" d="M407.62,-59.78C461.16,-50.31 593.71,-26.86 654.33,-16.14"/>
<polygon fill="#63b8ff" stroke="#63b8ff" points="654.88,-19.42 664.12,-14.23 653.66,-12.53 654.88,-19.42"/>
</g>
<!-- Node13&#45;&gt;Node11 -->
<g id="edge18" class="edge">
<title>Node13&#45;&gt;Node11</title>
<path fill="none" stroke="#63b8ff" d="M397.22,-54.84C408.32,-46.96 424.66,-35.36 437.82,-26.02"/>
<polygon fill="#63b8ff" stroke="#63b8ff" points="439.59,-28.35 445.71,-19.7 435.53,-22.64 439.59,-28.35"/>
</g>
<!-- Node14 -->
<g id="node14" class="node">
<title>Node14</title>
<g id="a_node14"><a xlink:title=" ">
<polygon fill="#e0e0e0" stroke="#999999" points="313.5,-19.25 255.5,-19.25 255.5,0 313.5,0 313.5,-19.25"/>
<text text-anchor="middle" x="284.5" y="-5.75" font-family="Helvetica,sans-Serif" font-size="10.00">functional</text>
</a>
</g>
</g>
<!-- Node13&#45;&gt;Node14 -->
<g id="edge19" class="edge">
<title>Node13&#45;&gt;Node14</title>
<path fill="none" stroke="#63b8ff" d="M367.54,-54.84C352.09,-46.62 329.04,-34.34 311.14,-24.81"/>
<polygon fill="#63b8ff" stroke="#63b8ff" points="313.02,-21.31 302.55,-19.7 309.73,-27.49 313.02,-21.31"/>
</g>
<!-- Node15 -->
<g id="node15" class="node">
<title>Node15</title>
<g id="a_node15"><a xlink:title=" ">
<polygon fill="#e0e0e0" stroke="#999999" points="413.88,-19.25 331.12,-19.25 331.12,0 413.88,0 413.88,-19.25"/>
<text text-anchor="middle" x="372.5" y="-5.75" font-family="Helvetica,sans-Serif" font-size="10.00">unordered_map</text>
</a>
</g>
</g>
<!-- Node13&#45;&gt;Node15 -->
<g id="edge21" class="edge">
<title>Node13&#45;&gt;Node15</title>
<path fill="none" stroke="#63b8ff" d="M382.52,-55.08C381,-48.34 378.84,-38.77 376.92,-30.24"/>
<polygon fill="#63b8ff" stroke="#63b8ff" points="380.14,-29.6 374.52,-20.61 373.31,-31.13 380.14,-29.6"/>
</g>
<!-- Node16&#45;&gt;Node4 -->
<g id="edge31" class="edge">
<title>Node16&#45;&gt;Node4</title>
<path fill="none" stroke="#63b8ff" d="M443.51,-172.98C485.49,-169.94 559.06,-160.29 613.5,-129.75 643.18,-113.1 649.39,-103.91 666.5,-74.5 674.52,-60.72 679.41,-43.26 682.22,-30.08"/>
<polygon fill="#63b8ff" stroke="#63b8ff" points="685.82,-30.89 684.24,-20.41 678.94,-29.59 685.82,-30.89"/>
</g>
<!-- Node16&#45;&gt;Node8 -->
<g id="edge33" class="edge">
<title>Node16&#45;&gt;Node8</title>
<path fill="none" stroke="#63b8ff" d="M443.73,-173.83C482.62,-171.59 547.19,-162.69 590.5,-129.75 605.21,-118.56 614.81,-99.52 620.37,-85.13"/>
<polygon fill="#63b8ff" stroke="#63b8ff" points="623.98,-86.42 623.98,-75.83 617.37,-84.11 623.98,-86.42"/>
</g>
<!-- Node16&#45;&gt;Node9 -->
<g id="edge29" class="edge">
<title>Node16&#45;&gt;Node9</title>
<path fill="none" stroke="#63b8ff" d="M426.99,-165.37C440.35,-157.41 458.96,-144.75 471.5,-129.75 497.22,-98.97 514.81,-54.85 523.42,-29.84"/>
<polygon fill="#63b8ff" stroke="#63b8ff" points="527.01,-31.12 526.82,-20.53 520.36,-28.93 527.01,-31.12"/>
</g>
<!-- Node16&#45;&gt;Node10 -->
<g id="edge34" class="edge">
<title>Node16&#45;&gt;Node10</title>
<path fill="none" stroke="#63b8ff" d="M434.25,-165.34C456.88,-156.74 491.17,-143.69 516.66,-134"/>
<polygon fill="#63b8ff" stroke="#63b8ff" points="517.53,-137.03 525.63,-130.2 515.04,-130.49 517.53,-137.03"/>
</g>
<!-- Node16&#45;&gt;Node12 -->
<g id="edge32" class="edge">
<title>Node16&#45;&gt;Node12</title>
<path fill="none" stroke="#63b8ff" d="M377.63,-174.19C323.29,-172.82 212.2,-165.44 126.5,-129.75 99.1,-118.34 72.3,-96.6 55.85,-81.68"/>
<polygon fill="#63b8ff" stroke="#63b8ff" points="58.94,-79.84 49.24,-75.59 54.17,-84.96 58.94,-79.84"/>
</g>
<!-- Node16&#45;&gt;Node13 -->
<g id="edge35" class="edge">
<title>Node16&#45;&gt;Node13</title>
<path fill="none" stroke="#63b8ff" d="M377.46,-174.14C311.11,-172.9 165.37,-166.02 134.5,-129.75 128.95,-123.24 129.01,-117.06 134.5,-110.5 161.68,-78.04 288.77,-69.17 350.58,-66.76"/>
<polygon fill="#63b8ff" stroke="#63b8ff" points="350.45,-70.23 360.32,-66.38 350.2,-63.24 350.45,-70.23"/>
</g>
<!-- Node17 -->
<g id="node17" class="node">
<title>Node17</title>
<g id="a_node17"><a xlink:title=" ">
<polygon fill="#e0e0e0" stroke="#999999" points="201.88,-129.75 143.12,-129.75 143.12,-110.5 201.88,-110.5 201.88,-129.75"/>
<text text-anchor="middle" x="172.5" y="-116.25" font-family="Helvetica,sans-Serif" font-size="10.00">curl/curl.h</text>
</a>
</g>
</g>
<!-- Node16&#45;&gt;Node17 -->
<g id="edge25" class="edge">
<title>Node16&#45;&gt;Node17</title>
<path fill="none" stroke="#63b8ff" d="M377.41,-166.97C334.37,-157.34 259.22,-140.53 212.87,-130.16"/>
<polygon fill="#63b8ff" stroke="#63b8ff" points="213.83,-126.56 203.31,-127.8 212.31,-133.39 213.83,-126.56"/>
</g>
<!-- Node18 -->
<g id="node18" class="node">
<title>Node18</title>
<g id="a_node18"><a xlink:title=" ">
<polygon fill="#e0e0e0" stroke="#999999" points="282.75,-129.75 220.25,-129.75 220.25,-110.5 282.75,-110.5 282.75,-129.75"/>
<text text-anchor="middle" x="251.5" y="-116.25" font-family="Helvetica,sans-Serif" font-size="10.00">curl/easy.h</text>
</a>
</g>
</g>
<!-- Node16&#45;&gt;Node18 -->
<g id="edge26" class="edge">
<title>Node16&#45;&gt;Node18</title>
<path fill="none" stroke="#63b8ff" d="M383.53,-165.34C357.49,-156.62 317.84,-143.34 288.78,-133.61"/>
<polygon fill="#63b8ff" stroke="#63b8ff" points="290.2,-130.06 279.6,-130.2 287.98,-136.7 290.2,-130.06"/>
</g>
<!-- Node19 -->
<g id="node19" class="node">
<title>Node19</title>
<g id="a_node19"><a xlink:title=" ">
<polygon fill="#e0e0e0" stroke="#999999" points="338.38,-129.75 300.62,-129.75 300.62,-110.5 338.38,-110.5 338.38,-129.75"/>
<text text-anchor="middle" x="319.5" y="-116.25" font-family="Helvetica,sans-Serif" font-size="10.00">array</text>
</a>
</g>
</g>
<!-- Node16&#45;&gt;Node19 -->
<g id="edge27" class="edge">
<title>Node16&#45;&gt;Node19</title>
<path fill="none" stroke="#63b8ff" d="M395.06,-165.34C381.21,-157.23 360.61,-145.18 344.42,-135.71"/>
<polygon fill="#63b8ff" stroke="#63b8ff" points="346.41,-132.23 336.01,-130.2 342.88,-138.27 346.41,-132.23"/>
</g>
<!-- Node20 -->
<g id="node20" class="node">
<title>Node20</title>
<g id="a_node20"><a xlink:title=" ">
<polygon fill="#e0e0e0" stroke="#999999" points="402.12,-129.75 356.88,-129.75 356.88,-110.5 402.12,-110.5 402.12,-129.75"/>
<text text-anchor="middle" x="379.5" y="-116.25" font-family="Helvetica,sans-Serif" font-size="10.00">atomic</text>
</a>
</g>
</g>
<!-- Node16&#45;&gt;Node20 -->
<g id="edge28" class="edge">
<title>Node16&#45;&gt;Node20</title>
<path fill="none" stroke="#63b8ff" d="M405.38,-165.58C401.28,-158.53 395.38,-148.4 390.25,-139.58"/>
<polygon fill="#63b8ff" stroke="#63b8ff" points="392.79,-137.99 384.73,-131.11 386.74,-141.51 392.79,-137.99"/>
</g>
<!-- Node21 -->
<g id="node21" class="node">
<title>Node21</title>
<g id="a_node21"><a xlink:title=" ">
<polygon fill="#e0e0e0" stroke="#999999" points="463,-129.75 420,-129.75 420,-110.5 463,-110.5 463,-129.75"/>
<text text-anchor="middle" x="441.5" y="-116.25" font-family="Helvetica,sans-Serif" font-size="10.00">mutex</text>
</a>
</g>
</g>
<!-- Node16&#45;&gt;Node21 -->
<g id="edge30" class="edge">
<title>Node16&#45;&gt;Node21</title>
<path fill="none" stroke="#63b8ff" d="M415.62,-165.58C419.72,-158.53 425.62,-148.4 430.75,-139.58"/>
<polygon fill="#63b8ff" stroke="#63b8ff" points="434.26,-141.51 436.27,-131.11 428.21,-137.99 434.26,-141.51"/>
</g>
</g>
</svg>
