<?xml version="1.0" encoding="UTF-8" standalone="no"?>
<!DOCTYPE svg PUBLIC "-//W3C//DTD SVG 1.1//EN"
 "http://www.w3.org/Graphics/SVG/1.1/DTD/svg11.dtd">
<!-- Generated by graphviz version 2.43.0 (0)
 -->
<!-- Title: /home/ugovaretto/projects/uv&#45;cpp/s3client/repo/apps/parallel_download.cpp Pages: 1 -->
<svg width="990pt" height="330pt"
 viewBox="0.00 0.00 990.32 330.00" xmlns="http://www.w3.org/2000/svg" xmlns:xlink="http://www.w3.org/1999/xlink">
<g id="graph0" class="graph" transform="scale(1 1) rotate(0) translate(4 326)">
<title>/home/ugovaretto/projects/uv&#45;cpp/s3client/repo/apps/parallel_download.cpp</title>
<!-- Node1 -->
<g id="node1" class="node">
<title>Node1</title>
<g id="a_node1"><a xlink:title="Parallel object download download from S3 service.">
<polygon fill="#bfbfbf" stroke="black" points="739.82,-280.5 739.82,-321.5 870.82,-321.5 870.82,-280.5 739.82,-280.5"/>
<text text-anchor="start" x="747.82" y="-309.5" font-family="Helvetica,sans-Serif" font-size="10.00">/home/ugovaretto/projects</text>
<text text-anchor="start" x="747.82" y="-298.5" font-family="Helvetica,sans-Serif" font-size="10.00">/uv&#45;cpp/s3client/repo/apps</text>
<text text-anchor="middle" x="805.32" y="-287.5" font-family="Helvetica,sans-Serif" font-size="10.00">/parallel_download.cpp</text>
</a>
</g>
</g>
<!-- Node2 -->
<g id="node2" class="node">
<title>Node2</title>
<g id="a_node2"><a xlink:title=" ">
<polygon fill="none" stroke="#bfbfbf" points="553.32,-224.5 553.32,-243.5 623.32,-243.5 623.32,-224.5 553.32,-224.5"/>
<text text-anchor="middle" x="588.32" y="-231.5" font-family="Helvetica,sans-Serif" font-size="10.00">lyra/lyra.hpp</text>
</a>
</g>
</g>
<!-- Node1&#45;&gt;Node2 -->
<g id="edge1" class="edge">
<title>Node1&#45;&gt;Node2</title>
<path fill="none" stroke="midnightblue" d="M740.21,-280.5C703.15,-269.4 658,-255.87 626.61,-246.47"/>
<polygon fill="midnightblue" stroke="midnightblue" points="627.51,-243.08 616.92,-243.57 625.5,-249.79 627.51,-243.08"/>
</g>
<!-- Node3 -->
<g id="node3" class="node">
<title>Node3</title>
<g id="a_node3"><a xlink:href="s3-client_8h.html" target="_top" xlink:title="declaration of functions and data types for sending S3 requests, signing URLs and downloading and upl...">
<polygon fill="none" stroke="black" points="641.32,-224.5 641.32,-243.5 703.32,-243.5 703.32,-224.5 641.32,-224.5"/>
<text text-anchor="middle" x="672.32" y="-231.5" font-family="Helvetica,sans-Serif" font-size="10.00">s3&#45;client.h</text>
</a>
</g>
</g>
<!-- Node1&#45;&gt;Node3 -->
<g id="edge2" class="edge">
<title>Node1&#45;&gt;Node3</title>
<path fill="none" stroke="midnightblue" d="M765.42,-280.5C743.95,-270.01 718.05,-257.35 699.02,-248.05"/>
<polygon fill="midnightblue" stroke="midnightblue" points="700.55,-244.9 690.03,-243.65 697.47,-251.19 700.55,-244.9"/>
</g>
<!-- Node7 -->
<g id="node7" class="node">
<title>Node7</title>
<g id="a_node7"><a xlink:title=" ">
<polygon fill="none" stroke="#bfbfbf" points="613.82,-0.5 613.82,-19.5 654.82,-19.5 654.82,-0.5 613.82,-0.5"/>
<text text-anchor="middle" x="634.32" y="-7.5" font-family="Helvetica,sans-Serif" font-size="10.00">string</text>
</a>
</g>
</g>
<!-- Node1&#45;&gt;Node7 -->
<g id="edge38" class="edge">
<title>Node1&#45;&gt;Node7</title>
<path fill="none" stroke="midnightblue" d="M810.31,-280.45C815.94,-256.65 824.32,-215.15 824.32,-179 824.32,-179 824.32,-179 824.32,-121 824.32,-48.28 718.8,-22.86 665.03,-14.62"/>
<polygon fill="midnightblue" stroke="midnightblue" points="665.41,-11.14 655.02,-13.19 664.42,-18.07 665.41,-11.14"/>
</g>
<!-- Node10 -->
<g id="node10" class="node">
<title>Node10</title>
<g id="a_node10"><a xlink:title=" ">
<polygon fill="none" stroke="#bfbfbf" points="662.32,-56.5 662.32,-75.5 716.32,-75.5 716.32,-56.5 662.32,-56.5"/>
<text text-anchor="middle" x="689.32" y="-63.5" font-family="Helvetica,sans-Serif" font-size="10.00">iostream</text>
</a>
</g>
</g>
<!-- Node1&#45;&gt;Node10 -->
<g id="edge37" class="edge">
<title>Node1&#45;&gt;Node10</title>
<path fill="none" stroke="midnightblue" d="M795.43,-280.13C773.16,-235.4 719.37,-127.36 698.15,-84.73"/>
<polygon fill="midnightblue" stroke="midnightblue" points="701.19,-82.98 693.6,-75.59 694.92,-86.1 701.19,-82.98"/>
</g>
<!-- Node21 -->
<g id="node21" class="node">
<title>Node21</title>
<g id="a_node21"><a xlink:title=" ">
<polygon fill="none" stroke="#bfbfbf" points="852.32,-224.5 852.32,-243.5 914.32,-243.5 914.32,-224.5 852.32,-224.5"/>
<text text-anchor="middle" x="883.32" y="-231.5" font-family="Helvetica,sans-Serif" font-size="10.00">filesystem</text>
</a>
</g>
</g>
<!-- Node1&#45;&gt;Node21 -->
<g id="edge35" class="edge">
<title>Node1&#45;&gt;Node21</title>
<path fill="none" stroke="midnightblue" d="M828.72,-280.5C840.34,-270.82 854.16,-259.3 864.99,-250.27"/>
<polygon fill="midnightblue" stroke="midnightblue" points="867.5,-252.74 872.94,-243.65 863.02,-247.37 867.5,-252.74"/>
</g>
<!-- Node22 -->
<g id="node22" class="node">
<title>Node22</title>
<g id="a_node22"><a xlink:title=" ">
<polygon fill="none" stroke="#bfbfbf" points="932.32,-224.5 932.32,-243.5 982.32,-243.5 982.32,-224.5 932.32,-224.5"/>
<text text-anchor="middle" x="957.32" y="-231.5" font-family="Helvetica,sans-Serif" font-size="10.00">fstream</text>
</a>
</g>
</g>
<!-- Node1&#45;&gt;Node22 -->
<g id="edge36" class="edge">
<title>Node1&#45;&gt;Node22</title>
<path fill="none" stroke="midnightblue" d="M850.93,-280.5C875.8,-269.86 905.87,-257 927.69,-247.67"/>
<polygon fill="midnightblue" stroke="midnightblue" points="929.27,-250.8 937.09,-243.65 926.52,-244.37 929.27,-250.8"/>
</g>
<!-- Node4 -->
<g id="node4" class="node">
<title>Node4</title>
<g id="a_node4"><a xlink:href="aws__sign_8h.html" target="_top" xlink:title="Public interface to signing URLs and HTTP headers with the S3v4 protocol standard.">
<polygon fill="none" stroke="black" points="578.32,-168.5 578.32,-187.5 644.32,-187.5 644.32,-168.5 578.32,-168.5"/>
<text text-anchor="middle" x="611.32" y="-175.5" font-family="Helvetica,sans-Serif" font-size="10.00">aws_sign.h</text>
</a>
</g>
</g>
<!-- Node3&#45;&gt;Node4 -->
<g id="edge3" class="edge">
<title>Node3&#45;&gt;Node4</title>
<path fill="none" stroke="midnightblue" d="M662.52,-224.32C653.5,-216.34 639.92,-204.31 629,-194.65"/>
<polygon fill="midnightblue" stroke="midnightblue" points="631.11,-191.84 621.3,-187.83 626.47,-197.08 631.11,-191.84"/>
</g>
<!-- Node5 -->
<g id="node5" class="node">
<title>Node5</title>
<g id="a_node5"><a xlink:href="common_8h.html" target="_top" xlink:title="Common definitions.">
<polygon fill="none" stroke="black" points="544.32,-56.5 544.32,-75.5 606.32,-75.5 606.32,-56.5 544.32,-56.5"/>
<text text-anchor="middle" x="575.32" y="-63.5" font-family="Helvetica,sans-Serif" font-size="10.00">common.h</text>
</a>
</g>
</g>
<!-- Node3&#45;&gt;Node5 -->
<g id="edge20" class="edge">
<title>Node3&#45;&gt;Node5</title>
<path fill="none" stroke="midnightblue" d="M670.83,-224.2C668.42,-211.33 662.92,-186.86 653.32,-168 636.51,-134.98 608.37,-102 590.88,-83.09"/>
<polygon fill="midnightblue" stroke="midnightblue" points="593.3,-80.55 583.89,-75.67 588.2,-85.35 593.3,-80.55"/>
</g>
<!-- Node3&#45;&gt;Node7 -->
<g id="edge33" class="edge">
<title>Node3&#45;&gt;Node7</title>
<path fill="none" stroke="midnightblue" d="M681.16,-224.27C707.3,-197.41 780.01,-114.24 741.32,-56 724.54,-30.74 690.51,-19.62 665.31,-14.76"/>
<polygon fill="midnightblue" stroke="midnightblue" points="665.57,-11.25 655.13,-13.03 664.4,-18.15 665.57,-11.25"/>
</g>
<!-- Node11 -->
<g id="node11" class="node">
<title>Node11</title>
<g id="a_node11"><a xlink:title=" ">
<polygon fill="none" stroke="#bfbfbf" points="264.32,-56.5 264.32,-75.5 308.32,-75.5 308.32,-56.5 264.32,-56.5"/>
<text text-anchor="middle" x="286.32" y="-63.5" font-family="Helvetica,sans-Serif" font-size="10.00">vector</text>
</a>
</g>
</g>
<!-- Node3&#45;&gt;Node11 -->
<g id="edge34" class="edge">
<title>Node3&#45;&gt;Node11</title>
<path fill="none" stroke="midnightblue" d="M640.94,-225.63C638.03,-225.04 635.13,-224.49 632.32,-224 493.36,-199.83 95.52,-239.6 4.32,-132 -1.43,-125.22 -1.45,-118.76 4.32,-112 36.1,-74.75 186.69,-68.19 253.86,-67.14"/>
<polygon fill="midnightblue" stroke="midnightblue" points="254.31,-70.64 264.26,-67.01 254.22,-63.64 254.31,-70.64"/>
</g>
<!-- Node15 -->
<g id="node15" class="node">
<title>Node15</title>
<g id="a_node15"><a xlink:href="webclient_8h.html" target="_top" xlink:title="declaration of WebClient class wrapping libcurl to send web requests.">
<polygon fill="none" stroke="black" points="350.32,-168.5 350.32,-187.5 416.32,-187.5 416.32,-168.5 350.32,-168.5"/>
<text text-anchor="middle" x="383.32" y="-175.5" font-family="Helvetica,sans-Serif" font-size="10.00">webclient.h</text>
</a>
</g>
</g>
<!-- Node3&#45;&gt;Node15 -->
<g id="edge21" class="edge">
<title>Node3&#45;&gt;Node15</title>
<path fill="none" stroke="midnightblue" d="M640.91,-225.8C638.01,-225.17 635.11,-224.57 632.32,-224 560.37,-209.41 476.25,-194.69 426.51,-186.23"/>
<polygon fill="midnightblue" stroke="midnightblue" points="426.88,-182.74 416.43,-184.52 425.71,-189.65 426.88,-182.74"/>
</g>
<!-- Node4&#45;&gt;Node5 -->
<g id="edge4" class="edge">
<title>Node4&#45;&gt;Node5</title>
<path fill="none" stroke="midnightblue" d="M608.5,-168.37C602.66,-150.54 589.16,-109.3 581.3,-85.27"/>
<polygon fill="midnightblue" stroke="midnightblue" points="584.57,-84.01 578.13,-75.59 577.92,-86.18 584.57,-84.01"/>
</g>
<!-- Node4&#45;&gt;Node7 -->
<g id="edge19" class="edge">
<title>Node4&#45;&gt;Node7</title>
<path fill="none" stroke="midnightblue" d="M628.13,-168.3C654.65,-153.49 705.25,-120.61 725.32,-76 738.62,-46.45 695.88,-27.8 664.53,-18.4"/>
<polygon fill="midnightblue" stroke="midnightblue" points="665.41,-15.01 654.84,-15.67 663.52,-21.75 665.41,-15.01"/>
</g>
<!-- Node8 -->
<g id="node8" class="node">
<title>Node8</title>
<g id="a_node8"><a xlink:href="url__utility_8h.html" target="_top" xlink:title="Internal utility functions to process and parse text and URLs and create S3 signature keys.">
<polygon fill="none" stroke="black" points="468.32,-112.5 468.32,-131.5 530.32,-131.5 530.32,-112.5 468.32,-112.5"/>
<text text-anchor="middle" x="499.32" y="-119.5" font-family="Helvetica,sans-Serif" font-size="10.00">url_utility.h</text>
</a>
</g>
</g>
<!-- Node4&#45;&gt;Node8 -->
<g id="edge7" class="edge">
<title>Node4&#45;&gt;Node8</title>
<path fill="none" stroke="midnightblue" d="M593.33,-168.32C575.28,-159.62 547.27,-146.12 526.52,-136.11"/>
<polygon fill="midnightblue" stroke="midnightblue" points="527.8,-132.84 517.27,-131.65 524.76,-139.15 527.8,-132.84"/>
</g>
<!-- Node6 -->
<g id="node6" class="node">
<title>Node6</title>
<g id="a_node6"><a xlink:title=" ">
<polygon fill="none" stroke="#bfbfbf" points="460.82,-0.5 460.82,-19.5 495.82,-19.5 495.82,-0.5 460.82,-0.5"/>
<text text-anchor="middle" x="478.32" y="-7.5" font-family="Helvetica,sans-Serif" font-size="10.00">map</text>
</a>
</g>
</g>
<!-- Node5&#45;&gt;Node6 -->
<g id="edge5" class="edge">
<title>Node5&#45;&gt;Node6</title>
<path fill="none" stroke="midnightblue" d="M559.74,-56.32C544.32,-47.74 520.51,-34.49 502.61,-24.52"/>
<polygon fill="midnightblue" stroke="midnightblue" points="504.31,-21.46 493.87,-19.65 500.9,-27.58 504.31,-21.46"/>
</g>
<!-- Node5&#45;&gt;Node7 -->
<g id="edge6" class="edge">
<title>Node5&#45;&gt;Node7</title>
<path fill="none" stroke="midnightblue" d="M584.8,-56.32C593.52,-48.34 606.66,-36.31 617.22,-26.65"/>
<polygon fill="midnightblue" stroke="midnightblue" points="619.66,-29.17 624.67,-19.83 614.93,-24 619.66,-29.17"/>
</g>
<!-- Node8&#45;&gt;Node5 -->
<g id="edge13" class="edge">
<title>Node8&#45;&gt;Node5</title>
<path fill="none" stroke="midnightblue" d="M511.53,-112.32C523.1,-104.11 540.7,-91.6 554.48,-81.81"/>
<polygon fill="midnightblue" stroke="midnightblue" points="556.76,-84.48 562.89,-75.83 552.71,-78.77 556.76,-84.48"/>
</g>
<!-- Node8&#45;&gt;Node6 -->
<g id="edge10" class="edge">
<title>Node8&#45;&gt;Node6</title>
<path fill="none" stroke="midnightblue" d="M497.67,-112.37C494.28,-94.62 486.47,-53.67 481.87,-29.6"/>
<polygon fill="midnightblue" stroke="midnightblue" points="485.27,-28.76 479.96,-19.59 478.4,-30.07 485.27,-28.76"/>
</g>
<!-- Node8&#45;&gt;Node7 -->
<g id="edge11" class="edge">
<title>Node8&#45;&gt;Node7</title>
<path fill="none" stroke="midnightblue" d="M502.13,-112.29C506.92,-98.64 517.89,-72.11 535.32,-56 554.75,-38.05 582.56,-26.27 603.76,-19.29"/>
<polygon fill="midnightblue" stroke="midnightblue" points="605.06,-22.55 613.57,-16.23 602.98,-15.86 605.06,-22.55"/>
</g>
<!-- Node9 -->
<g id="node9" class="node">
<title>Node9</title>
<g id="a_node9"><a xlink:title=" ">
<polygon fill="none" stroke="#bfbfbf" points="380.32,-0.5 380.32,-19.5 436.32,-19.5 436.32,-0.5 380.32,-0.5"/>
<text text-anchor="middle" x="408.32" y="-7.5" font-family="Helvetica,sans-Serif" font-size="10.00">algorithm</text>
</a>
</g>
</g>
<!-- Node8&#45;&gt;Node9 -->
<g id="edge8" class="edge">
<title>Node8&#45;&gt;Node9</title>
<path fill="none" stroke="midnightblue" d="M492.18,-112.37C477.03,-94.05 441.45,-51.05 421.86,-27.36"/>
<polygon fill="midnightblue" stroke="midnightblue" points="424.5,-25.07 415.43,-19.59 419.11,-29.53 424.5,-25.07"/>
</g>
<!-- Node8&#45;&gt;Node10 -->
<g id="edge9" class="edge">
<title>Node8&#45;&gt;Node10</title>
<path fill="none" stroke="midnightblue" d="M529.43,-112.44C562.67,-103 616.2,-87.78 652.06,-77.59"/>
<polygon fill="midnightblue" stroke="midnightblue" points="653.46,-80.83 662.13,-74.73 651.55,-74.1 653.46,-80.83"/>
</g>
<!-- Node8&#45;&gt;Node11 -->
<g id="edge12" class="edge">
<title>Node8&#45;&gt;Node11</title>
<path fill="none" stroke="midnightblue" d="M468.31,-113.73C433.92,-105.59 376.59,-91.75 318.37,-76.21"/>
<polygon fill="midnightblue" stroke="midnightblue" points="319.21,-72.81 308.64,-73.6 317.39,-79.57 319.21,-72.81"/>
</g>
<!-- Node12 -->
<g id="node12" class="node">
<title>Node12</title>
<g id="a_node12"><a xlink:href="lib_2include_2utility_8h.html" target="_top" xlink:title="internal utility functions">
<polygon fill="none" stroke="black" points="326.82,-56.5 326.82,-75.5 373.82,-75.5 373.82,-56.5 326.82,-56.5"/>
<text text-anchor="middle" x="350.32" y="-63.5" font-family="Helvetica,sans-Serif" font-size="10.00">utility.h</text>
</a>
</g>
</g>
<!-- Node8&#45;&gt;Node12 -->
<g id="edge14" class="edge">
<title>Node8&#45;&gt;Node12</title>
<path fill="none" stroke="midnightblue" d="M475.71,-112.44C450.86,-103.44 411.55,-89.19 383.57,-79.05"/>
<polygon fill="midnightblue" stroke="midnightblue" points="384.41,-75.63 373.82,-75.52 382.03,-82.21 384.41,-75.63"/>
</g>
<!-- Node12&#45;&gt;Node7 -->
<g id="edge17" class="edge">
<title>Node12&#45;&gt;Node7</title>
<path fill="none" stroke="midnightblue" d="M374.05,-60.49C425.38,-50.73 546.7,-27.66 603.71,-16.82"/>
<polygon fill="midnightblue" stroke="midnightblue" points="604.41,-20.25 613.58,-14.94 603.1,-13.37 604.41,-20.25"/>
</g>
<!-- Node12&#45;&gt;Node9 -->
<g id="edge15" class="edge">
<title>Node12&#45;&gt;Node9</title>
<path fill="none" stroke="midnightblue" d="M359.64,-56.32C368.21,-48.34 381.13,-36.31 391.51,-26.65"/>
<polygon fill="midnightblue" stroke="midnightblue" points="393.9,-29.21 398.83,-19.83 389.13,-24.09 393.9,-29.21"/>
</g>
<!-- Node13 -->
<g id="node13" class="node">
<title>Node13</title>
<g id="a_node13"><a xlink:title=" ">
<polygon fill="none" stroke="#bfbfbf" points="201.82,-0.5 201.82,-19.5 260.82,-19.5 260.82,-0.5 201.82,-0.5"/>
<text text-anchor="middle" x="231.32" y="-7.5" font-family="Helvetica,sans-Serif" font-size="10.00">functional</text>
</a>
</g>
</g>
<!-- Node12&#45;&gt;Node13 -->
<g id="edge16" class="edge">
<title>Node12&#45;&gt;Node13</title>
<path fill="none" stroke="midnightblue" d="M331.47,-56.44C312.06,-47.64 281.59,-33.81 259.36,-23.72"/>
<polygon fill="midnightblue" stroke="midnightblue" points="260.64,-20.46 250.09,-19.52 257.75,-26.84 260.64,-20.46"/>
</g>
<!-- Node14 -->
<g id="node14" class="node">
<title>Node14</title>
<g id="a_node14"><a xlink:title=" ">
<polygon fill="none" stroke="#bfbfbf" points="278.82,-0.5 278.82,-19.5 361.82,-19.5 361.82,-0.5 278.82,-0.5"/>
<text text-anchor="middle" x="320.32" y="-7.5" font-family="Helvetica,sans-Serif" font-size="10.00">unordered_map</text>
</a>
</g>
</g>
<!-- Node12&#45;&gt;Node14 -->
<g id="edge18" class="edge">
<title>Node12&#45;&gt;Node14</title>
<path fill="none" stroke="midnightblue" d="M345.37,-56.08C341.22,-48.61 335.17,-37.72 330.05,-28.52"/>
<polygon fill="midnightblue" stroke="midnightblue" points="333.1,-26.79 325.18,-19.75 326.98,-30.19 333.1,-26.79"/>
</g>
<!-- Node15&#45;&gt;Node5 -->
<g id="edge30" class="edge">
<title>Node15&#45;&gt;Node5</title>
<path fill="none" stroke="midnightblue" d="M416.53,-174.77C450.63,-170.92 503.61,-160.46 539.32,-132 554.42,-119.97 564.17,-99.79 569.66,-85.1"/>
<polygon fill="midnightblue" stroke="midnightblue" points="573,-86.16 572.93,-75.57 566.38,-83.89 573,-86.16"/>
</g>
<!-- Node15&#45;&gt;Node6 -->
<g id="edge26" class="edge">
<title>Node15&#45;&gt;Node6</title>
<path fill="none" stroke="midnightblue" d="M388.43,-168.08C403.51,-141.72 448.06,-63.88 468.21,-28.66"/>
<polygon fill="midnightblue" stroke="midnightblue" points="471.49,-29.99 473.42,-19.57 465.41,-26.51 471.49,-29.99"/>
</g>
<!-- Node15&#45;&gt;Node7 -->
<g id="edge28" class="edge">
<title>Node15&#45;&gt;Node7</title>
<path fill="none" stroke="midnightblue" d="M416.44,-174.27C454.04,-169.95 516.14,-159.03 562.32,-132 591.9,-114.69 598.26,-105.72 615.32,-76 623.64,-61.5 628.58,-43.06 631.33,-29.52"/>
<polygon fill="midnightblue" stroke="midnightblue" points="634.81,-29.97 633.15,-19.5 627.92,-28.72 634.81,-29.97"/>
</g>
<!-- Node15&#45;&gt;Node8 -->
<g id="edge31" class="edge">
<title>Node15&#45;&gt;Node8</title>
<path fill="none" stroke="midnightblue" d="M401.7,-168.44C420.54,-159.68 450.05,-145.94 471.7,-135.86"/>
<polygon fill="midnightblue" stroke="midnightblue" points="473.44,-138.91 481.03,-131.52 470.48,-132.56 473.44,-138.91"/>
</g>
<!-- Node15&#45;&gt;Node11 -->
<g id="edge29" class="edge">
<title>Node15&#45;&gt;Node11</title>
<path fill="none" stroke="midnightblue" d="M379.58,-168.31C373.64,-155.16 361.08,-129.82 345.32,-112 334.85,-100.16 320.86,-89.33 309.13,-81.26"/>
<polygon fill="midnightblue" stroke="midnightblue" points="310.96,-78.28 300.7,-75.66 307.09,-84.11 310.96,-78.28"/>
</g>
<!-- Node15&#45;&gt;Node12 -->
<g id="edge32" class="edge">
<title>Node15&#45;&gt;Node12</title>
<path fill="none" stroke="midnightblue" d="M383.94,-168.33C384.56,-155.63 384.67,-131.36 378.32,-112 375.03,-101.96 369.06,-91.88 363.48,-83.81"/>
<polygon fill="midnightblue" stroke="midnightblue" points="366.24,-81.65 357.5,-75.66 360.59,-85.79 366.24,-81.65"/>
</g>
<!-- Node16 -->
<g id="node16" class="node">
<title>Node16</title>
<g id="a_node16"><a xlink:title=" ">
<polygon fill="none" stroke="#bfbfbf" points="13.82,-112.5 13.82,-131.5 72.82,-131.5 72.82,-112.5 13.82,-112.5"/>
<text text-anchor="middle" x="43.32" y="-119.5" font-family="Helvetica,sans-Serif" font-size="10.00">curl/curl.h</text>
</a>
</g>
</g>
<!-- Node15&#45;&gt;Node16 -->
<g id="edge22" class="edge">
<title>Node15&#45;&gt;Node16</title>
<path fill="none" stroke="midnightblue" d="M350.1,-172.98C296.06,-166.25 185.59,-151.64 83.04,-132.21"/>
<polygon fill="midnightblue" stroke="midnightblue" points="83.62,-128.76 73.14,-130.31 82.3,-135.63 83.62,-128.76"/>
</g>
<!-- Node17 -->
<g id="node17" class="node">
<title>Node17</title>
<g id="a_node17"><a xlink:title=" ">
<polygon fill="none" stroke="#bfbfbf" points="90.82,-112.5 90.82,-131.5 153.82,-131.5 153.82,-112.5 90.82,-112.5"/>
<text text-anchor="middle" x="122.32" y="-119.5" font-family="Helvetica,sans-Serif" font-size="10.00">curl/easy.h</text>
</a>
</g>
</g>
<!-- Node15&#45;&gt;Node17 -->
<g id="edge23" class="edge">
<title>Node15&#45;&gt;Node17</title>
<path fill="none" stroke="midnightblue" d="M350.12,-170.36C308.96,-162.1 236.39,-147.42 164.27,-132.18"/>
<polygon fill="midnightblue" stroke="midnightblue" points="164.6,-128.67 154.1,-130.02 163.15,-135.52 164.6,-128.67"/>
</g>
<!-- Node18 -->
<g id="node18" class="node">
<title>Node18</title>
<g id="a_node18"><a xlink:title=" ">
<polygon fill="none" stroke="#bfbfbf" points="172.32,-112.5 172.32,-131.5 210.32,-131.5 210.32,-112.5 172.32,-112.5"/>
<text text-anchor="middle" x="191.32" y="-119.5" font-family="Helvetica,sans-Serif" font-size="10.00">array</text>
</a>
</g>
</g>
<!-- Node15&#45;&gt;Node18 -->
<g id="edge24" class="edge">
<title>Node15&#45;&gt;Node18</title>
<path fill="none" stroke="midnightblue" d="M350.53,-168.45C319.35,-160.22 270.91,-147.18 220.36,-132.22"/>
<polygon fill="midnightblue" stroke="midnightblue" points="221.15,-128.8 210.57,-129.31 219.15,-135.51 221.15,-128.8"/>
</g>
<!-- Node19 -->
<g id="node19" class="node">
<title>Node19</title>
<g id="a_node19"><a xlink:title=" ">
<polygon fill="none" stroke="#bfbfbf" points="228.32,-112.5 228.32,-131.5 274.32,-131.5 274.32,-112.5 228.32,-112.5"/>
<text text-anchor="middle" x="251.32" y="-119.5" font-family="Helvetica,sans-Serif" font-size="10.00">atomic</text>
</a>
</g>
</g>
<!-- Node15&#45;&gt;Node19 -->
<g id="edge25" class="edge">
<title>Node15&#45;&gt;Node19</title>
<path fill="none" stroke="midnightblue" d="M362.41,-168.44C340.59,-159.52 306.17,-145.44 281.43,-135.32"/>
<polygon fill="midnightblue" stroke="midnightblue" points="282.72,-132.06 272.14,-131.52 280.07,-138.54 282.72,-132.06"/>
</g>
<!-- Node20 -->
<g id="node20" class="node">
<title>Node20</title>
<g id="a_node20"><a xlink:title=" ">
<polygon fill="none" stroke="#bfbfbf" points="292.32,-112.5 292.32,-131.5 336.32,-131.5 336.32,-112.5 292.32,-112.5"/>
<text text-anchor="middle" x="314.32" y="-119.5" font-family="Helvetica,sans-Serif" font-size="10.00">mutex</text>
</a>
</g>
</g>
<!-- Node15&#45;&gt;Node20 -->
<g id="edge27" class="edge">
<title>Node15&#45;&gt;Node20</title>
<path fill="none" stroke="midnightblue" d="M372.24,-168.32C361.84,-160.18 346.06,-147.84 333.6,-138.09"/>
<polygon fill="midnightblue" stroke="midnightblue" points="335.64,-135.24 325.61,-131.83 331.33,-140.75 335.64,-135.24"/>
</g>
</g>
</svg>
