<?xml version="1.0" encoding="UTF-8" standalone="no"?>
<!DOCTYPE svg PUBLIC "-//W3C//DTD SVG 1.1//EN"
 "http://www.w3.org/Graphics/SVG/1.1/DTD/svg11.dtd">
<!-- Generated by graphviz version 8.0.5 (20230430.1635)
 -->
<!-- Title: /Users/ugovaretto/projects/s3client/repo/apps/parallel_download.cpp Pages: 1 -->
<!--zoomable 326 -->
<svg id="main" version="1.1" xmlns="http://www.w3.org/2000/svg" xmlns:xlink="http://www.w3.org/1999/xlink" xml:space="preserve" onload="init(evt)">
<style type="text/css"><![CDATA[
.edge:hover path { stroke: red; }
.edge:hover polygon { stroke: red; fill: red; }
]]></style>
<script type="text/javascript"><![CDATA[
var edges = document.getElementsByTagName('g');
if (edges && edges.length) {
  for (var i=0;i<edges.length;i++) {
    if (edges[i].id.substr(0,4)=='edge') {
      edges[i].setAttribute('class','edge');
    }
  }
}
]]></script>
        <defs>
                <circle id="rim" cx="0" cy="0" r="7"/>
                <circle id="rim2" cx="0" cy="0" r="3.5"/>
                <g id="zoomPlus">
                        <use xlink:href="#rim" fill="#404040">
                                <set attributeName="fill" to="#808080" begin="zoomplus.mouseover" end="zoomplus.mouseout"/>
                        </use>
                        <path d="M-4,0h8M0,-4v8" fill="none" stroke="white" stroke-width="1.5" pointer-events="none"/>
                </g>
                <g id="zoomMin">
                        <use xlink:href="#rim" fill="#404040">
                                <set attributeName="fill" to="#808080" begin="zoomminus.mouseover" end="zoomminus.mouseout"/>
                        </use>
                        <path d="M-4,0h8" fill="none" stroke="white" stroke-width="1.5" pointer-events="none"/>
                </g>
                <g id="dirArrow">
                        <path fill="none" stroke="white" stroke-width="1.5" d="M0,-3.0v7 M-2.5,-0.5L0,-3.0L2.5,-0.5"/>
                </g>
               <g id="resetDef">
                       <use xlink:href="#rim2" fill="#404040">
                               <set attributeName="fill" to="#808080" begin="reset.mouseover" end="reset.mouseout"/>
                       </use>
               </g>
        </defs>

<script type="text/javascript">
var viewWidth = 986;
var viewHeight = 326;
var sectionId = 'dynsection-0';
</script>
<script xlink:href="svgpan.js"/>
<svg id="graph" class="graph">
<g id="viewport">
<title>/Users/ugovaretto/projects/s3client/repo/apps/parallel_download.cpp</title>
<!-- Node1 -->
<g id="node1" class="node">
<title>Node1</title>
<g id="a_node1"><a xlink:title="Parallel object download download from S3 service.">
<polygon fill="#999999" stroke="#666666" points="868.29,-318 736.04,-318 736.04,-276.25 868.29,-276.25 868.29,-318"/>
<text text-anchor="start" x="744.04" y="-304.5" font-family="Helvetica,sans-Serif" font-size="10.00">/Users/ugovaretto/projects</text>
<text text-anchor="start" x="744.04" y="-293.25" font-family="Helvetica,sans-Serif" font-size="10.00">/s3client/repo/apps/parallel</text>
<text text-anchor="middle" x="802.16" y="-282" font-family="Helvetica,sans-Serif" font-size="10.00">_download.cpp</text>
</a>
</g>
</g>
<!-- Node2 -->
<g id="node2" class="node">
<title>Node2</title>
<g id="a_node2"><a xlink:title=" ">
<polygon fill="#e0e0e0" stroke="#999999" points="620.79,-240.25 551.54,-240.25 551.54,-221 620.79,-221 620.79,-240.25"/>
<text text-anchor="middle" x="586.16" y="-226.75" font-family="Helvetica,sans-Serif" font-size="10.00">lyra/lyra.hpp</text>
</a>
</g>
</g>
<!-- Node1&#45;&gt;Node2 -->
<g id="edge1" class="edge">
<title>Node1&#45;&gt;Node2</title>
<path fill="none" stroke="#63b8ff" d="M735.59,-276.25C700.11,-265.65 657.59,-252.96 627,-243.82"/>
<polygon fill="#63b8ff" stroke="#63b8ff" points="628.29,-240.25 617.71,-240.75 626.29,-246.96 628.29,-240.25"/>
</g>
<!-- Node3 -->
<g id="node3" class="node">
<title>Node3</title>
<g id="a_node3"><a xlink:href="s3-client_8h.html" target="_top" xlink:title="declaration of functions and data types for sending S3 requests, signing URLs and downloading and upl...">
<polygon fill="white" stroke="#666666" points="699.66,-240.25 638.66,-240.25 638.66,-221 699.66,-221 699.66,-240.25"/>
<text text-anchor="middle" x="669.16" y="-226.75" font-family="Helvetica,sans-Serif" font-size="10.00">s3&#45;client.h</text>
</a>
</g>
</g>
<!-- Node1&#45;&gt;Node3 -->
<g id="edge2" class="edge">
<title>Node1&#45;&gt;Node3</title>
<path fill="none" stroke="#63b8ff" d="M760.44,-275.89C739.97,-265.96 715.84,-254.26 697.53,-245.38"/>
<polygon fill="#63b8ff" stroke="#63b8ff" points="699.28,-241.86 688.76,-240.64 696.23,-248.16 699.28,-241.86"/>
</g>
<!-- Node7 -->
<g id="node7" class="node">
<title>Node7</title>
<g id="a_node7"><a xlink:title=" ">
<polygon fill="#e0e0e0" stroke="#999999" points="651.16,-19.25 611.16,-19.25 611.16,0 651.16,0 651.16,-19.25"/>
<text text-anchor="middle" x="631.16" y="-5.75" font-family="Helvetica,sans-Serif" font-size="10.00">string</text>
</a>
</g>
</g>
<!-- Node1&#45;&gt;Node7 -->
<g id="edge38" class="edge">
<title>Node1&#45;&gt;Node7</title>
<path fill="none" stroke="#63b8ff" d="M807.35,-275.94C812.98,-252.26 821.16,-211.74 821.16,-176.38 821.16,-176.38 821.16,-176.38 821.16,-119.12 821.16,-46.78 716,-22.03 662.15,-14.09"/>
<polygon fill="#63b8ff" stroke="#63b8ff" points="662.87,-10.52 652.49,-12.64 661.93,-17.46 662.87,-10.52"/>
</g>
<!-- Node10 -->
<g id="node10" class="node">
<title>Node10</title>
<g id="a_node10"><a xlink:title=" ">
<polygon fill="#e0e0e0" stroke="#999999" points="712.91,-74.5 659.41,-74.5 659.41,-55.25 712.91,-55.25 712.91,-74.5"/>
<text text-anchor="middle" x="686.16" y="-61" font-family="Helvetica,sans-Serif" font-size="10.00">iostream</text>
</a>
</g>
</g>
<!-- Node1&#45;&gt;Node10 -->
<g id="edge37" class="edge">
<title>Node1&#45;&gt;Node10</title>
<path fill="none" stroke="#63b8ff" d="M792.07,-276.09C769.86,-232.01 717.02,-127.12 695.51,-84.43"/>
<polygon fill="#63b8ff" stroke="#63b8ff" points="698.27,-83.13 690.65,-75.78 692.02,-86.28 698.27,-83.13"/>
</g>
<!-- Node21 -->
<g id="node21" class="node">
<title>Node21</title>
<g id="a_node21"><a xlink:title=" ">
<polygon fill="#e0e0e0" stroke="#999999" points="910.66,-240.25 849.66,-240.25 849.66,-221 910.66,-221 910.66,-240.25"/>
<text text-anchor="middle" x="880.16" y="-226.75" font-family="Helvetica,sans-Serif" font-size="10.00">filesystem</text>
</a>
</g>
</g>
<!-- Node1&#45;&gt;Node21 -->
<g id="edge35" class="edge">
<title>Node1&#45;&gt;Node21</title>
<path fill="none" stroke="#63b8ff" d="M826.41,-276.07C837.48,-266.92 850.41,-256.23 860.81,-247.63"/>
<polygon fill="#63b8ff" stroke="#63b8ff" points="862.72,-249.77 868.19,-240.7 858.26,-244.37 862.72,-249.77"/>
</g>
<!-- Node22 -->
<g id="node22" class="node">
<title>Node22</title>
<g id="a_node22"><a xlink:title=" ">
<polygon fill="#e0e0e0" stroke="#999999" points="977.66,-240.25 928.66,-240.25 928.66,-221 977.66,-221 977.66,-240.25"/>
<text text-anchor="middle" x="953.16" y="-226.75" font-family="Helvetica,sans-Serif" font-size="10.00">fstream</text>
</a>
</g>
</g>
<!-- Node1&#45;&gt;Node22 -->
<g id="edge36" class="edge">
<title>Node1&#45;&gt;Node22</title>
<path fill="none" stroke="#63b8ff" d="M849.52,-275.89C873.2,-265.78 901.19,-253.83 922.1,-244.89"/>
<polygon fill="#63b8ff" stroke="#63b8ff" points="923.22,-247.79 931.05,-240.64 920.47,-241.35 923.22,-247.79"/>
</g>
<!-- Node4 -->
<g id="node4" class="node">
<title>Node4</title>
<g id="a_node4"><a xlink:href="aws__sign_8h.html" target="_top" xlink:title="Public interface to signing URLs and HTTP headers with the S3v4 protocol standard.">
<polygon fill="white" stroke="#666666" points="640.91,-185 575.41,-185 575.41,-165.75 640.91,-165.75 640.91,-185"/>
<text text-anchor="middle" x="608.16" y="-171.5" font-family="Helvetica,sans-Serif" font-size="10.00">aws_sign.h</text>
</a>
</g>
</g>
<!-- Node3&#45;&gt;Node4 -->
<g id="edge3" class="edge">
<title>Node3&#45;&gt;Node4</title>
<path fill="none" stroke="#63b8ff" d="M658.81,-220.59C650,-212.9 637.11,-201.65 626.55,-192.43"/>
<polygon fill="#63b8ff" stroke="#63b8ff" points="629.19,-189.21 619.36,-185.27 624.59,-194.49 629.19,-189.21"/>
</g>
<!-- Node5 -->
<g id="node5" class="node">
<title>Node5</title>
<g id="a_node5"><a xlink:href="common_8h.html" target="_top" xlink:title="Common definitions.">
<polygon fill="white" stroke="#666666" points="603.04,-74.5 541.29,-74.5 541.29,-55.25 603.04,-55.25 603.04,-74.5"/>
<text text-anchor="middle" x="572.16" y="-61" font-family="Helvetica,sans-Serif" font-size="10.00">common.h</text>
</a>
</g>
</g>
<!-- Node3&#45;&gt;Node5 -->
<g id="edge20" class="edge">
<title>Node3&#45;&gt;Node5</title>
<path fill="none" stroke="#63b8ff" d="M667.57,-220.55C665.1,-207.78 659.6,-184.05 650.16,-165.75 633.62,-133.68 606.26,-101.7 588.73,-82.87"/>
<polygon fill="#63b8ff" stroke="#63b8ff" points="591.64,-80.8 582.22,-75.96 586.57,-85.62 591.64,-80.8"/>
</g>
<!-- Node3&#45;&gt;Node7 -->
<g id="edge33" class="edge">
<title>Node3&#45;&gt;Node7</title>
<path fill="none" stroke="#63b8ff" d="M678.34,-220.65C704.68,-193.81 776.26,-112.41 738.16,-55.25 721.34,-30.01 687.24,-19.02 662.04,-14.25"/>
<polygon fill="#63b8ff" stroke="#63b8ff" points="662.96,-10.69 652.52,-12.52 661.82,-17.6 662.96,-10.69"/>
</g>
<!-- Node11 -->
<g id="node11" class="node">
<title>Node11</title>
<g id="a_node11"><a xlink:title=" ">
<polygon fill="#e0e0e0" stroke="#999999" points="306.66,-74.5 263.66,-74.5 263.66,-55.25 306.66,-55.25 306.66,-74.5"/>
<text text-anchor="middle" x="285.16" y="-61" font-family="Helvetica,sans-Serif" font-size="10.00">vector</text>
</a>
</g>
</g>
<!-- Node3&#45;&gt;Node11 -->
<g id="edge34" class="edge">
<title>Node3&#45;&gt;Node11</title>
<path fill="none" stroke="#63b8ff" d="M638.56,-222.57C635.73,-222 632.89,-221.47 630.16,-221 491.61,-197.19 95.09,-236.96 4.16,-129.75 -1.37,-123.23 -1.39,-117.01 4.16,-110.5 35.77,-73.48 185.27,-67.01 252.4,-66"/>
<polygon fill="#63b8ff" stroke="#63b8ff" points="252.22,-69.49 262.18,-65.87 252.14,-62.49 252.22,-69.49"/>
</g>
<!-- Node15 -->
<g id="node15" class="node">
<title>Node15</title>
<g id="a_node15"><a xlink:href="webclient_8h.html" target="_top" xlink:title="declaration of WebClient class wrapping libcurl to send web requests.">
<polygon fill="white" stroke="#666666" points="412.91,-185 347.41,-185 347.41,-165.75 412.91,-165.75 412.91,-185"/>
<text text-anchor="middle" x="380.16" y="-171.5" font-family="Helvetica,sans-Serif" font-size="10.00">webclient.h</text>
</a>
</g>
</g>
<!-- Node3&#45;&gt;Node15 -->
<g id="edge21" class="edge">
<title>Node3&#45;&gt;Node15</title>
<path fill="none" stroke="#63b8ff" d="M638.53,-222.73C635.7,-222.13 632.88,-221.54 630.16,-221 558.21,-206.63 474.16,-192.08 424.15,-183.67"/>
<polygon fill="#63b8ff" stroke="#63b8ff" points="424.84,-180.07 414.4,-181.86 423.69,-186.97 424.84,-180.07"/>
</g>
<!-- Node4&#45;&gt;Node5 -->
<g id="edge4" class="edge">
<title>Node4&#45;&gt;Node5</title>
<path fill="none" stroke="#63b8ff" d="M605.22,-165.5C599.41,-148.01 586.39,-108.77 578.54,-85.09"/>
<polygon fill="#63b8ff" stroke="#63b8ff" points="581.62,-84.27 575.15,-75.88 574.98,-86.47 581.62,-84.27"/>
</g>
<!-- Node4&#45;&gt;Node7 -->
<g id="edge19" class="edge">
<title>Node4&#45;&gt;Node7</title>
<path fill="none" stroke="#63b8ff" d="M625.83,-165.34C652.57,-150.55 702.28,-118.36 722.16,-74.5 735.39,-45.33 693.23,-27.14 661.94,-17.95"/>
<polygon fill="#63b8ff" stroke="#63b8ff" points="663,-14.34 652.43,-15.07 661.15,-21.09 663,-14.34"/>
</g>
<!-- Node8 -->
<g id="node8" class="node">
<title>Node8</title>
<g id="a_node8"><a xlink:href="url__utility_8h.html" target="_top" xlink:title="Internal utility functions to process and parse text and URLs and create S3 signature keys.">
<polygon fill="white" stroke="#666666" points="527.04,-129.75 465.29,-129.75 465.29,-110.5 527.04,-110.5 527.04,-129.75"/>
<text text-anchor="middle" x="496.16" y="-116.25" font-family="Helvetica,sans-Serif" font-size="10.00">url_utility.h</text>
</a>
</g>
</g>
<!-- Node4&#45;&gt;Node8 -->
<g id="edge7" class="edge">
<title>Node4&#45;&gt;Node8</title>
<path fill="none" stroke="#63b8ff" d="M589.16,-165.34C571.62,-157 545.32,-144.5 525.16,-134.91"/>
<polygon fill="#63b8ff" stroke="#63b8ff" points="526.79,-131.34 516.25,-130.2 523.78,-137.66 526.79,-131.34"/>
</g>
<!-- Node6 -->
<g id="node6" class="node">
<title>Node6</title>
<g id="a_node6"><a xlink:title=" ">
<polygon fill="#e0e0e0" stroke="#999999" points="492.54,-19.25 457.79,-19.25 457.79,0 492.54,0 492.54,-19.25"/>
<text text-anchor="middle" x="475.16" y="-5.75" font-family="Helvetica,sans-Serif" font-size="10.00">map</text>
</a>
</g>
</g>
<!-- Node5&#45;&gt;Node6 -->
<g id="edge5" class="edge">
<title>Node5&#45;&gt;Node6</title>
<path fill="none" stroke="#63b8ff" d="M555.71,-54.84C540.8,-46.66 518.57,-34.46 501.24,-24.94"/>
<polygon fill="#63b8ff" stroke="#63b8ff" points="503.15,-21.45 492.7,-19.7 499.78,-27.58 503.15,-21.45"/>
</g>
<!-- Node5&#45;&gt;Node7 -->
<g id="edge6" class="edge">
<title>Node5&#45;&gt;Node7</title>
<path fill="none" stroke="#63b8ff" d="M582.17,-54.84C590.7,-47.15 603.16,-35.9 613.38,-26.68"/>
<polygon fill="#63b8ff" stroke="#63b8ff" points="615.22,-29.82 620.3,-20.52 610.53,-24.63 615.22,-29.82"/>
</g>
<!-- Node8&#45;&gt;Node5 -->
<g id="edge13" class="edge">
<title>Node8&#45;&gt;Node5</title>
<path fill="none" stroke="#63b8ff" d="M509.05,-110.09C520.41,-102.14 537.18,-90.39 550.58,-81"/>
<polygon fill="#63b8ff" stroke="#63b8ff" points="552.02,-83.56 558.21,-74.95 548.01,-77.82 552.02,-83.56"/>
</g>
<!-- Node8&#45;&gt;Node6 -->
<g id="edge10" class="edge">
<title>Node8&#45;&gt;Node6</title>
<path fill="none" stroke="#63b8ff" d="M494.44,-110.25C491.07,-92.84 483.53,-53.87 478.94,-30.16"/>
<polygon fill="#63b8ff" stroke="#63b8ff" points="482.24,-29.78 476.9,-20.63 475.37,-31.11 482.24,-29.78"/>
</g>
<!-- Node8&#45;&gt;Node7 -->
<g id="edge11" class="edge">
<title>Node8&#45;&gt;Node7</title>
<path fill="none" stroke="#63b8ff" d="M499.16,-110.12C504.08,-96.57 515.06,-70.88 532.16,-55.25 551.6,-37.49 579.29,-25.82 600.45,-18.89"/>
<polygon fill="#63b8ff" stroke="#63b8ff" points="601.31,-21.98 609.84,-15.69 599.25,-15.29 601.31,-21.98"/>
</g>
<!-- Node9 -->
<g id="node9" class="node">
<title>Node9</title>
<g id="a_node9"><a xlink:title=" ">
<polygon fill="#e0e0e0" stroke="#999999" points="434.04,-19.25 378.29,-19.25 378.29,0 434.04,0 434.04,-19.25"/>
<text text-anchor="middle" x="406.16" y="-5.75" font-family="Helvetica,sans-Serif" font-size="10.00">algorithm</text>
</a>
</g>
</g>
<!-- Node8&#45;&gt;Node9 -->
<g id="edge8" class="edge">
<title>Node8&#45;&gt;Node9</title>
<path fill="none" stroke="#63b8ff" d="M488.8,-110.25C473.9,-92.28 439.95,-51.36 420.52,-27.94"/>
<polygon fill="#63b8ff" stroke="#63b8ff" points="422.71,-26.09 413.63,-20.63 417.32,-30.56 422.71,-26.09"/>
</g>
<!-- Node8&#45;&gt;Node10 -->
<g id="edge9" class="edge">
<title>Node8&#45;&gt;Node10</title>
<path fill="none" stroke="#63b8ff" d="M527.54,-110.33C560.78,-101.02 613.25,-86.31 648.65,-76.39"/>
<polygon fill="#63b8ff" stroke="#63b8ff" points="649.37,-79.54 658.05,-73.47 647.48,-72.8 649.37,-79.54"/>
</g>
<!-- Node8&#45;&gt;Node11 -->
<g id="edge12" class="edge">
<title>Node8&#45;&gt;Node11</title>
<path fill="none" stroke="#63b8ff" d="M464.88,-111.65C430.95,-103.49 374.96,-89.84 317.51,-74.8"/>
<polygon fill="#63b8ff" stroke="#63b8ff" points="318.72,-71.23 308.16,-72.08 316.94,-78 318.72,-71.23"/>
</g>
<!-- Node12 -->
<g id="node12" class="node">
<title>Node12</title>
<g id="a_node12"><a xlink:href="lib_2include_2utility_8h.html" target="_top" xlink:title="internal utility functions">
<polygon fill="white" stroke="#666666" points="371.16,-74.5 325.16,-74.5 325.16,-55.25 371.16,-55.25 371.16,-74.5"/>
<text text-anchor="middle" x="348.16" y="-61" font-family="Helvetica,sans-Serif" font-size="10.00">utility.h</text>
</a>
</g>
</g>
<!-- Node8&#45;&gt;Node12 -->
<g id="edge14" class="edge">
<title>Node8&#45;&gt;Node12</title>
<path fill="none" stroke="#63b8ff" d="M471.05,-110.09C446.45,-101.24 408.78,-87.69 381.63,-77.92"/>
<polygon fill="#63b8ff" stroke="#63b8ff" points="383.03,-74.34 372.44,-74.25 380.66,-80.93 383.03,-74.34"/>
</g>
<!-- Node12&#45;&gt;Node7 -->
<g id="edge17" class="edge">
<title>Node12&#45;&gt;Node7</title>
<path fill="none" stroke="#63b8ff" d="M371.32,-59.52C422.06,-49.97 543.06,-27.2 600.23,-16.44"/>
<polygon fill="#63b8ff" stroke="#63b8ff" points="600.6,-19.75 609.78,-14.46 599.3,-12.87 600.6,-19.75"/>
</g>
<!-- Node12&#45;&gt;Node9 -->
<g id="edge15" class="edge">
<title>Node12&#45;&gt;Node9</title>
<path fill="none" stroke="#63b8ff" d="M358,-54.84C366.3,-47.22 378.39,-36.12 388.38,-26.95"/>
<polygon fill="#63b8ff" stroke="#63b8ff" points="390.47,-29.87 395.47,-20.52 385.73,-24.71 390.47,-29.87"/>
</g>
<!-- Node13 -->
<g id="node13" class="node">
<title>Node13</title>
<g id="a_node13"><a xlink:title=" ">
<polygon fill="#e0e0e0" stroke="#999999" points="260.16,-19.25 202.16,-19.25 202.16,0 260.16,0 260.16,-19.25"/>
<text text-anchor="middle" x="231.16" y="-5.75" font-family="Helvetica,sans-Serif" font-size="10.00">functional</text>
</a>
</g>
</g>
<!-- Node12&#45;&gt;Node13 -->
<g id="edge16" class="edge">
<title>Node12&#45;&gt;Node13</title>
<path fill="none" stroke="#63b8ff" d="M328.31,-54.84C309.82,-46.43 282.01,-33.77 260.88,-24.15"/>
<polygon fill="#63b8ff" stroke="#63b8ff" points="262.66,-20.66 252.11,-19.7 259.76,-27.03 262.66,-20.66"/>
</g>
<!-- Node14 -->
<g id="node14" class="node">
<title>Node14</title>
<g id="a_node14"><a xlink:title=" ">
<polygon fill="#e0e0e0" stroke="#999999" points="360.54,-19.25 277.79,-19.25 277.79,0 360.54,0 360.54,-19.25"/>
<text text-anchor="middle" x="319.16" y="-5.75" font-family="Helvetica,sans-Serif" font-size="10.00">unordered_map</text>
</a>
</g>
</g>
<!-- Node12&#45;&gt;Node14 -->
<g id="edge18" class="edge">
<title>Node12&#45;&gt;Node14</title>
<path fill="none" stroke="#63b8ff" d="M343.37,-55.08C339.53,-48.03 334.01,-37.9 329.21,-29.08"/>
<polygon fill="#63b8ff" stroke="#63b8ff" points="331.91,-27.72 324.05,-20.61 325.76,-31.07 331.91,-27.72"/>
</g>
<!-- Node15&#45;&gt;Node5 -->
<g id="edge30" class="edge">
<title>Node15&#45;&gt;Node5</title>
<path fill="none" stroke="#63b8ff" d="M413.32,-172.18C447.38,-168.38 500.34,-158.02 536.16,-129.75 550.67,-118.3 560.3,-99.29 565.92,-84.98"/>
<polygon fill="#63b8ff" stroke="#63b8ff" points="569.51,-86.34 569.58,-75.75 562.92,-83.98 569.51,-86.34"/>
</g>
<!-- Node15&#45;&gt;Node6 -->
<g id="edge26" class="edge">
<title>Node15&#45;&gt;Node6</title>
<path fill="none" stroke="#63b8ff" d="M385.27,-165.57C400.22,-139.8 444.11,-64.15 464.51,-28.99"/>
<polygon fill="#63b8ff" stroke="#63b8ff" points="468.04,-30.88 470.03,-20.47 461.98,-27.37 468.04,-30.88"/>
</g>
<!-- Node15&#45;&gt;Node7 -->
<g id="edge28" class="edge">
<title>Node15&#45;&gt;Node7</title>
<path fill="none" stroke="#63b8ff" d="M413.35,-171.51C450.7,-167.1 512.16,-156.16 558.16,-129.75 587.94,-112.65 594.76,-104.1 612.16,-74.5 620.24,-60.76 625.13,-43.3 627.92,-30.11"/>
<polygon fill="#63b8ff" stroke="#63b8ff" points="631.52,-30.9 629.92,-20.42 624.64,-29.61 631.52,-30.9"/>
</g>
<!-- Node15&#45;&gt;Node8 -->
<g id="edge31" class="edge">
<title>Node15&#45;&gt;Node8</title>
<path fill="none" stroke="#63b8ff" d="M399.84,-165.34C418.09,-156.97 445.5,-144.38 466.41,-134.78"/>
<polygon fill="#63b8ff" stroke="#63b8ff" points="467.76,-137.56 475.39,-130.2 464.84,-131.19 467.76,-137.56"/>
</g>
<!-- Node15&#45;&gt;Node11 -->
<g id="edge29" class="edge">
<title>Node15&#45;&gt;Node11</title>
<path fill="none" stroke="#63b8ff" d="M375.98,-165.47C369.63,-152.49 356.64,-128.04 341.16,-110.5 331.49,-99.54 318.89,-89.24 308.09,-81.3"/>
<polygon fill="#63b8ff" stroke="#63b8ff" points="310.37,-77.91 300.19,-74.97 306.31,-83.62 310.37,-77.91"/>
</g>
<!-- Node15&#45;&gt;Node12 -->
<g id="edge32" class="edge">
<title>Node15&#45;&gt;Node12</title>
<path fill="none" stroke="#63b8ff" d="M380.74,-165.45C381.27,-152.87 381.22,-129.35 375.16,-110.5 372.12,-101.04 366.73,-91.5 361.56,-83.68"/>
<polygon fill="#63b8ff" stroke="#63b8ff" points="363.94,-81.99 355.32,-75.83 358.22,-86.02 363.94,-81.99"/>
</g>
<!-- Node16 -->
<g id="node16" class="node">
<title>Node16</title>
<g id="a_node16"><a xlink:title=" ">
<polygon fill="#e0e0e0" stroke="#999999" points="71.54,-129.75 12.79,-129.75 12.79,-110.5 71.54,-110.5 71.54,-129.75"/>
<text text-anchor="middle" x="42.16" y="-116.25" font-family="Helvetica,sans-Serif" font-size="10.00">curl/curl.h</text>
</a>
</g>
</g>
<!-- Node15&#45;&gt;Node16 -->
<g id="edge22" class="edge">
<title>Node15&#45;&gt;Node16</title>
<path fill="none" stroke="#63b8ff" d="M347.3,-170.23C293.94,-163.34 184.96,-148.58 82.46,-129.87"/>
<polygon fill="#63b8ff" stroke="#63b8ff" points="83.4,-126.3 72.93,-127.93 82.13,-133.19 83.4,-126.3"/>
</g>
<!-- Node17 -->
<g id="node17" class="node">
<title>Node17</title>
<g id="a_node17"><a xlink:title=" ">
<polygon fill="#e0e0e0" stroke="#999999" points="152.41,-129.75 89.91,-129.75 89.91,-110.5 152.41,-110.5 152.41,-129.75"/>
<text text-anchor="middle" x="121.16" y="-116.25" font-family="Helvetica,sans-Serif" font-size="10.00">curl/easy.h</text>
</a>
</g>
</g>
<!-- Node15&#45;&gt;Node17 -->
<g id="edge23" class="edge">
<title>Node15&#45;&gt;Node17</title>
<path fill="none" stroke="#63b8ff" d="M347.12,-167.76C306.23,-159.56 234.21,-145.01 163.08,-130.14"/>
<polygon fill="#63b8ff" stroke="#63b8ff" points="164.1,-126.56 153.6,-127.94 162.67,-133.41 164.1,-126.56"/>
</g>
<!-- Node18 -->
<g id="node18" class="node">
<title>Node18</title>
<g id="a_node18"><a xlink:title=" ">
<polygon fill="#e0e0e0" stroke="#999999" points="208.04,-129.75 170.29,-129.75 170.29,-110.5 208.04,-110.5 208.04,-129.75"/>
<text text-anchor="middle" x="189.16" y="-116.25" font-family="Helvetica,sans-Serif" font-size="10.00">array</text>
</a>
</g>
</g>
<!-- Node15&#45;&gt;Node18 -->
<g id="edge24" class="edge">
<title>Node15&#45;&gt;Node18</title>
<path fill="none" stroke="#63b8ff" d="M346.98,-165.62C316.11,-157.4 268.58,-144.57 218.75,-130.15"/>
<polygon fill="#63b8ff" stroke="#63b8ff" points="220,-126.57 209.42,-127.14 218.04,-133.3 220,-126.57"/>
</g>
<!-- Node19 -->
<g id="node19" class="node">
<title>Node19</title>
<g id="a_node19"><a xlink:title=" ">
<polygon fill="#e0e0e0" stroke="#999999" points="271.79,-129.75 226.54,-129.75 226.54,-110.5 271.79,-110.5 271.79,-129.75"/>
<text text-anchor="middle" x="249.16" y="-116.25" font-family="Helvetica,sans-Serif" font-size="10.00">atomic</text>
</a>
</g>
</g>
<!-- Node15&#45;&gt;Node19 -->
<g id="edge25" class="edge">
<title>Node15&#45;&gt;Node19</title>
<path fill="none" stroke="#63b8ff" d="M357.94,-165.34C336.95,-156.81 305.24,-143.92 281.47,-134.26"/>
<polygon fill="#63b8ff" stroke="#63b8ff" points="283.07,-130.73 272.49,-130.2 280.44,-137.21 283.07,-130.73"/>
</g>
<!-- Node20 -->
<g id="node20" class="node">
<title>Node20</title>
<g id="a_node20"><a xlink:title=" ">
<polygon fill="#e0e0e0" stroke="#999999" points="332.66,-129.75 289.66,-129.75 289.66,-110.5 332.66,-110.5 332.66,-129.75"/>
<text text-anchor="middle" x="311.16" y="-116.25" font-family="Helvetica,sans-Serif" font-size="10.00">mutex</text>
</a>
</g>
</g>
<!-- Node15&#45;&gt;Node20 -->
<g id="edge27" class="edge">
<title>Node15&#45;&gt;Node20</title>
<path fill="none" stroke="#63b8ff" d="M368.46,-165.34C358.28,-157.49 343.33,-145.95 331.24,-136.62"/>
<polygon fill="#63b8ff" stroke="#63b8ff" points="333.75,-133.36 323.69,-130.02 329.47,-138.91 333.75,-133.36"/>
</g>
</g>
</svg>
        <g id="navigator" transform="translate(0 0)" fill="#404254">
                <rect fill="#f2f5e9" fill-opacity="0.5" stroke="#606060" stroke-width=".5" x="0" y="0" width="60" height="60"/>
                <use id="zoomplus" xlink:href="#zoomPlus" x="17" y="9" onmousedown="handleZoom(evt,'in')"/>
                <use id="zoomminus" xlink:href="#zoomMin" x="42" y="9" onmousedown="handleZoom(evt,'out')"/>
                <use id="reset" xlink:href="#resetDef" x="30" y="36" onmousedown="handleReset()"/>
                <g id="arrowUp" xlink:href="#dirArrow" transform="translate(30 24)" onmousedown="handlePan(0,-1)">
                  <use xlink:href="#rim" fill="#404040">
                        <set attributeName="fill" to="#808080" begin="arrowUp.mouseover" end="arrowUp.mouseout"/>
                  </use>
                  <path fill="none" stroke="white" stroke-width="1.5" d="M0,-3.0v7 M-2.5,-0.5L0,-3.0L2.5,-0.5"/>
                </g>
                <g id="arrowRight" xlink:href="#dirArrow" transform="rotate(90) translate(36 -43)" onmousedown="handlePan(1,0)">
                  <use xlink:href="#rim" fill="#404040">
                        <set attributeName="fill" to="#808080" begin="arrowRight.mouseover" end="arrowRight.mouseout"/>
                  </use>
                  <path fill="none" stroke="white" stroke-width="1.5" d="M0,-3.0v7 M-2.5,-0.5L0,-3.0L2.5,-0.5"/>
                </g>
                <g id="arrowDown" xlink:href="#dirArrow" transform="rotate(180) translate(-30 -48)" onmousedown="handlePan(0,1)">
                  <use xlink:href="#rim" fill="#404040">
                        <set attributeName="fill" to="#808080" begin="arrowDown.mouseover" end="arrowDown.mouseout"/>
                  </use>
                  <path fill="none" stroke="white" stroke-width="1.5" d="M0,-3.0v7 M-2.5,-0.5L0,-3.0L2.5,-0.5"/>
                </g>
                <g id="arrowLeft" xlink:href="#dirArrow" transform="rotate(270) translate(-36 17)" onmousedown="handlePan(-1,0)">
                  <use xlink:href="#rim" fill="#404040">
                        <set attributeName="fill" to="#808080" begin="arrowLeft.mouseover" end="arrowLeft.mouseout"/>
                  </use>
                  <path fill="none" stroke="white" stroke-width="1.5" d="M0,-3.0v7 M-2.5,-0.5L0,-3.0L2.5,-0.5"/>
                </g>
        </g>
        <svg viewBox="0 0 15 15" width="100%" height="30px" preserveAspectRatio="xMaxYMin meet">
         <g id="arrow_out" transform="scale(0.3 0.3)">
          <a xlink:href="parallel__download_8cpp__incl_org.svg" target="_base">
           <rect id="button" ry="5" rx="5" y="6" x="6" height="38" width="38"
                fill="#f2f5e9" fill-opacity="0.5" stroke="#606060" stroke-width="1.0"/>
           <path id="arrow"
             d="M 11.500037,31.436501 C 11.940474,20.09759 22.043105,11.32322 32.158766,21.979434 L 37.068811,17.246167 C 37.068811,17.246167 37.088388,32 37.088388,32 L 22.160133,31.978069 C 22.160133,31.978069 26.997745,27.140456 26.997745,27.140456 C 18.528582,18.264221 13.291696,25.230495 11.500037,31.436501 z"
             style="fill:#404040;"/>
          </a>
         </g>
        </svg>
</svg>
