<?xml version="1.0" encoding="UTF-8" standalone="no"?>
<!DOCTYPE svg PUBLIC "-//W3C//DTD SVG 1.1//EN"
 "http://www.w3.org/Graphics/SVG/1.1/DTD/svg11.dtd">
<!-- Generated by graphviz version 2.43.0 (0)
 -->
<!-- Title: /home/ugovaretto/projects/uv&#45;cpp/s3client/repo/lib/include/response_parser.h Pages: 1 -->
<svg width="1644pt" height="295pt"
 viewBox="0.00 0.00 1644.00 295.00" xmlns="http://www.w3.org/2000/svg" xmlns:xlink="http://www.w3.org/1999/xlink">
<g id="graph0" class="graph" transform="scale(1 1) rotate(0) translate(4 291)">
<title>/home/ugovaretto/projects/uv&#45;cpp/s3client/repo/lib/include/response_parser.h</title>
<!-- Node1 -->
<g id="node1" class="node">
<title>Node1</title>
<g id="a_node1"><a xlink:title="Functions to parse XML and HTTP headers.">
<polygon fill="#bfbfbf" stroke="black" points="429.5,-245.5 429.5,-286.5 562.5,-286.5 562.5,-245.5 429.5,-245.5"/>
<text text-anchor="start" x="437.5" y="-274.5" font-family="Helvetica,sans-Serif" font-size="10.00">/home/ugovaretto/projects</text>
<text text-anchor="start" x="437.5" y="-263.5" font-family="Helvetica,sans-Serif" font-size="10.00">/uv&#45;cpp/s3client/repo/lib</text>
<text text-anchor="middle" x="496" y="-252.5" font-family="Helvetica,sans-Serif" font-size="10.00">/include/response_parser.h</text>
</a>
</g>
</g>
<!-- Node2 -->
<g id="node2" class="node">
<title>Node2</title>
<g id="a_node2"><a xlink:href="error_8cpp_source.html" target="_top" xlink:title=" ">
<polygon fill="none" stroke="black" points="243,-167.5 243,-208.5 373,-208.5 373,-167.5 243,-167.5"/>
<text text-anchor="start" x="251" y="-196.5" font-family="Helvetica,sans-Serif" font-size="10.00">/home/ugovaretto/projects</text>
<text text-anchor="start" x="251" y="-185.5" font-family="Helvetica,sans-Serif" font-size="10.00">/uv&#45;cpp/s3client/repo/lib</text>
<text text-anchor="middle" x="308" y="-174.5" font-family="Helvetica,sans-Serif" font-size="10.00">/src/api/error.cpp</text>
</a>
</g>
</g>
<!-- Node1&#45;&gt;Node2 -->
<g id="edge1" class="edge">
<title>Node1&#45;&gt;Node2</title>
<path fill="none" stroke="midnightblue" d="M438.14,-241.61C411.9,-231 381.22,-218.6 356.25,-208.51"/>
<polygon fill="midnightblue" stroke="midnightblue" points="437,-244.93 447.59,-245.43 439.63,-238.44 437,-244.93"/>
</g>
<!-- Node3 -->
<g id="node3" class="node">
<title>Node3</title>
<g id="a_node3"><a xlink:href="bucket_8cpp_source.html" target="_top" xlink:title=" ">
<polygon fill="none" stroke="black" points="0,-89.5 0,-130.5 130,-130.5 130,-89.5 0,-89.5"/>
<text text-anchor="start" x="8" y="-118.5" font-family="Helvetica,sans-Serif" font-size="10.00">/home/ugovaretto/projects</text>
<text text-anchor="start" x="8" y="-107.5" font-family="Helvetica,sans-Serif" font-size="10.00">/uv&#45;cpp/s3client/repo/lib</text>
<text text-anchor="middle" x="65" y="-96.5" font-family="Helvetica,sans-Serif" font-size="10.00">/src/api/bucket.cpp</text>
</a>
</g>
</g>
<!-- Node1&#45;&gt;Node3 -->
<g id="edge2" class="edge">
<title>Node1&#45;&gt;Node3</title>
<path fill="none" stroke="midnightblue" d="M454.29,-239.66C441.08,-230.74 426.85,-220.15 415,-209 397.71,-192.73 402.53,-178.92 382,-167 287.58,-112.19 245.88,-153.28 139,-131 136.13,-130.4 133.21,-129.76 130.27,-129.08"/>
<polygon fill="midnightblue" stroke="midnightblue" points="452.51,-242.68 462.78,-245.27 456.36,-236.84 452.51,-242.68"/>
</g>
<!-- Node4 -->
<g id="node4" class="node">
<title>Node4</title>
<g id="a_node4"><a xlink:href="xml-parse-test_8cpp_source.html" target="_top" xlink:title=" ">
<polygon fill="none" stroke="black" points="148,-89.5 148,-130.5 278,-130.5 278,-89.5 148,-89.5"/>
<text text-anchor="start" x="156" y="-118.5" font-family="Helvetica,sans-Serif" font-size="10.00">/home/ugovaretto/projects</text>
<text text-anchor="start" x="156" y="-107.5" font-family="Helvetica,sans-Serif" font-size="10.00">/uv&#45;cpp/s3client/repo/test</text>
<text text-anchor="middle" x="213" y="-96.5" font-family="Helvetica,sans-Serif" font-size="10.00">/xml&#45;parse&#45;test.cpp</text>
</a>
</g>
</g>
<!-- Node1&#45;&gt;Node4 -->
<g id="edge3" class="edge">
<title>Node1&#45;&gt;Node4</title>
<path fill="none" stroke="midnightblue" d="M474.38,-237.14C453.03,-209.92 422.51,-171.87 415,-167 413.49,-166.02 336.66,-144.85 278.2,-128.83"/>
<polygon fill="midnightblue" stroke="midnightblue" points="471.76,-239.47 480.67,-245.19 477.27,-235.16 471.76,-239.47"/>
</g>
<!-- Node5 -->
<g id="node5" class="node">
<title>Node5</title>
<g id="a_node5"><a xlink:href="object_8cpp_source.html" target="_top" xlink:title=" ">
<polygon fill="none" stroke="black" points="296,-89.5 296,-130.5 426,-130.5 426,-89.5 296,-89.5"/>
<text text-anchor="start" x="304" y="-118.5" font-family="Helvetica,sans-Serif" font-size="10.00">/home/ugovaretto/projects</text>
<text text-anchor="start" x="304" y="-107.5" font-family="Helvetica,sans-Serif" font-size="10.00">/uv&#45;cpp/s3client/repo/lib</text>
<text text-anchor="middle" x="361" y="-96.5" font-family="Helvetica,sans-Serif" font-size="10.00">/src/api/object.cpp</text>
</a>
</g>
</g>
<!-- Node1&#45;&gt;Node5 -->
<g id="edge4" class="edge">
<title>Node1&#45;&gt;Node5</title>
<path fill="none" stroke="midnightblue" d="M488.32,-235.73C481.67,-214.76 470.35,-186.83 453,-167 439.83,-151.94 421.59,-139.69 404.83,-130.53"/>
<polygon fill="midnightblue" stroke="midnightblue" points="484.99,-236.82 491.21,-245.4 491.7,-234.82 484.99,-236.82"/>
</g>
<!-- Node6 -->
<g id="node6" class="node">
<title>Node6</title>
<g id="a_node6"><a xlink:href="multipart__upload_8cpp_source.html" target="_top" xlink:title=" ">
<polygon fill="none" stroke="black" points="444,-89.5 444,-130.5 586,-130.5 586,-89.5 444,-89.5"/>
<text text-anchor="start" x="452" y="-118.5" font-family="Helvetica,sans-Serif" font-size="10.00">/home/ugovaretto/projects</text>
<text text-anchor="start" x="452" y="-107.5" font-family="Helvetica,sans-Serif" font-size="10.00">/uv&#45;cpp/s3client/repo/lib</text>
<text text-anchor="middle" x="515" y="-96.5" font-family="Helvetica,sans-Serif" font-size="10.00">/src/api/multipart_upload.cpp</text>
</a>
</g>
</g>
<!-- Node1&#45;&gt;Node6 -->
<g id="edge5" class="edge">
<title>Node1&#45;&gt;Node6</title>
<path fill="none" stroke="midnightblue" d="M499.66,-235.36C503.45,-204.61 509.28,-157.36 512.55,-130.83"/>
<polygon fill="midnightblue" stroke="midnightblue" points="496.16,-235.14 498.41,-245.5 503.1,-236 496.16,-235.14"/>
</g>
<!-- Node7 -->
<g id="node7" class="node">
<title>Node7</title>
<g id="a_node7"><a xlink:href="response__parser_8cpp_source.html" target="_top" xlink:title=" ">
<polygon fill="none" stroke="black" points="902,-167.5 902,-208.5 1032,-208.5 1032,-167.5 902,-167.5"/>
<text text-anchor="start" x="910" y="-196.5" font-family="Helvetica,sans-Serif" font-size="10.00">/home/ugovaretto/projects</text>
<text text-anchor="start" x="910" y="-185.5" font-family="Helvetica,sans-Serif" font-size="10.00">/uv&#45;cpp/s3client/repo/lib</text>
<text text-anchor="middle" x="967" y="-174.5" font-family="Helvetica,sans-Serif" font-size="10.00">/src/response_parser.cpp</text>
</a>
</g>
</g>
<!-- Node1&#45;&gt;Node7 -->
<g id="edge6" class="edge">
<title>Node1&#45;&gt;Node7</title>
<path fill="none" stroke="midnightblue" d="M572.84,-257.02C653.17,-248.01 782.65,-231.6 893,-209 895.87,-208.41 898.79,-207.78 901.73,-207.11"/>
<polygon fill="midnightblue" stroke="midnightblue" points="572.36,-253.55 562.81,-258.13 573.14,-260.51 572.36,-253.55"/>
</g>
<!-- Node8 -->
<g id="node8" class="node">
<title>Node8</title>
<g id="a_node8"><a xlink:href="lib_2src_2s3-client_8cpp_source.html" target="_top" xlink:title=" ">
<polygon fill="none" stroke="black" points="1050,-167.5 1050,-208.5 1180,-208.5 1180,-167.5 1050,-167.5"/>
<text text-anchor="start" x="1058" y="-196.5" font-family="Helvetica,sans-Serif" font-size="10.00">/home/ugovaretto/projects</text>
<text text-anchor="start" x="1058" y="-185.5" font-family="Helvetica,sans-Serif" font-size="10.00">/uv&#45;cpp/s3client/repo/lib</text>
<text text-anchor="middle" x="1115" y="-174.5" font-family="Helvetica,sans-Serif" font-size="10.00">/src/s3&#45;client.cpp</text>
</a>
</g>
</g>
<!-- Node1&#45;&gt;Node8 -->
<g id="edge7" class="edge">
<title>Node1&#45;&gt;Node8</title>
<path fill="none" stroke="midnightblue" d="M573.06,-261.01C679.15,-254.63 875.82,-239.6 1041,-209 1043.88,-208.47 1046.81,-207.88 1049.76,-207.25"/>
<polygon fill="midnightblue" stroke="midnightblue" points="572.55,-257.54 562.77,-261.62 572.96,-264.52 572.55,-257.54"/>
</g>
<!-- Node9 -->
<g id="node9" class="node">
<title>Node9</title>
<g id="a_node9"><a xlink:href="s3-api_8h.html" target="_top" xlink:title="declarations of S3Api class.">
<polygon fill="none" stroke="black" points="754,-167.5 754,-208.5 884,-208.5 884,-167.5 754,-167.5"/>
<text text-anchor="start" x="762" y="-196.5" font-family="Helvetica,sans-Serif" font-size="10.00">/home/ugovaretto/projects</text>
<text text-anchor="start" x="762" y="-185.5" font-family="Helvetica,sans-Serif" font-size="10.00">/uv&#45;cpp/s3client/repo/lib</text>
<text text-anchor="middle" x="819" y="-174.5" font-family="Helvetica,sans-Serif" font-size="10.00">/include/s3&#45;api.h</text>
</a>
</g>
</g>
<!-- Node1&#45;&gt;Node9 -->
<g id="edge8" class="edge">
<title>Node1&#45;&gt;Node9</title>
<path fill="none" stroke="midnightblue" d="M572.28,-247.05C627.54,-234.05 701.45,-216.66 753.93,-204.31"/>
<polygon fill="midnightblue" stroke="midnightblue" points="571.47,-243.65 562.53,-249.34 573.07,-250.46 571.47,-243.65"/>
</g>
<!-- Node9&#45;&gt;Node3 -->
<g id="edge14" class="edge">
<title>Node9&#45;&gt;Node3</title>
<path fill="none" stroke="midnightblue" d="M743.5,-185.26C617.4,-181.35 356.34,-168.99 139,-131 136.12,-130.5 133.18,-129.93 130.23,-129.32"/>
<polygon fill="midnightblue" stroke="midnightblue" points="743.71,-188.76 753.81,-185.57 743.92,-181.77 743.71,-188.76"/>
</g>
<!-- Node9&#45;&gt;Node4 -->
<g id="edge15" class="edge">
<title>Node9&#45;&gt;Node4</title>
<path fill="none" stroke="midnightblue" d="M743.78,-182.86C640.22,-176.31 448.25,-161.08 287,-131 284.12,-130.46 281.19,-129.87 278.24,-129.24"/>
<polygon fill="midnightblue" stroke="midnightblue" points="743.63,-186.36 753.82,-183.49 744.06,-179.37 743.63,-186.36"/>
</g>
<!-- Node9&#45;&gt;Node5 -->
<g id="edge17" class="edge">
<title>Node9&#45;&gt;Node5</title>
<path fill="none" stroke="midnightblue" d="M743.51,-178.69C665.74,-169.49 541.22,-153.02 435,-131 432.13,-130.41 429.21,-129.77 426.27,-129.09"/>
<polygon fill="midnightblue" stroke="midnightblue" points="743.36,-182.19 753.7,-179.88 744.18,-175.24 743.36,-182.19"/>
</g>
<!-- Node9&#45;&gt;Node6 -->
<g id="edge19" class="edge">
<title>Node9&#45;&gt;Node6</title>
<path fill="none" stroke="midnightblue" d="M744.04,-168.26C695.86,-156.21 633.64,-140.66 586.21,-128.8"/>
<polygon fill="midnightblue" stroke="midnightblue" points="743.23,-171.67 753.78,-170.7 744.93,-164.88 743.23,-171.67"/>
</g>
<!-- Node10 -->
<g id="node10" class="node">
<title>Node10</title>
<g id="a_node10"><a xlink:href="object-test_8cpp_source.html" target="_top" xlink:title=" ">
<polygon fill="none" stroke="black" points="298,-6 298,-47 428,-47 428,-6 298,-6"/>
<text text-anchor="start" x="306" y="-35" font-family="Helvetica,sans-Serif" font-size="10.00">/home/ugovaretto/projects</text>
<text text-anchor="start" x="306" y="-24" font-family="Helvetica,sans-Serif" font-size="10.00">/uv&#45;cpp/s3client/repo/test</text>
<text text-anchor="middle" x="363" y="-13" font-family="Helvetica,sans-Serif" font-size="10.00">/api/object&#45;test.cpp</text>
</a>
</g>
</g>
<!-- Node9&#45;&gt;Node10 -->
<g id="edge9" class="edge">
<title>Node9&#45;&gt;Node10</title>
<path fill="none" stroke="midnightblue" d="M797.64,-159.2C775.51,-130.42 743.97,-89.55 743,-89 623.77,-21.66 570.5,-83.48 437,-53 429.85,-51.37 422.42,-49.29 415.15,-47.02"/>
<polygon fill="midnightblue" stroke="midnightblue" points="795.02,-161.53 803.89,-167.32 800.57,-157.26 795.02,-161.53"/>
</g>
<!-- Node11 -->
<g id="node11" class="node">
<title>Node11</title>
<g id="a_node11"><a xlink:href="multipart-upload-test_8cpp_source.html" target="_top" xlink:title=" ">
<polygon fill="none" stroke="black" points="446.5,-6 446.5,-47 589.5,-47 589.5,-6 446.5,-6"/>
<text text-anchor="start" x="454.5" y="-35" font-family="Helvetica,sans-Serif" font-size="10.00">/home/ugovaretto/projects</text>
<text text-anchor="start" x="454.5" y="-24" font-family="Helvetica,sans-Serif" font-size="10.00">/uv&#45;cpp/s3client/repo/test</text>
<text text-anchor="middle" x="518" y="-13" font-family="Helvetica,sans-Serif" font-size="10.00">/api/multipart&#45;upload&#45;test.cpp</text>
</a>
</g>
</g>
<!-- Node9&#45;&gt;Node11 -->
<g id="edge10" class="edge">
<title>Node9&#45;&gt;Node11</title>
<path fill="none" stroke="midnightblue" d="M813.59,-157.26C807.98,-135.12 796.97,-105.92 776,-89 713.53,-38.59 676.73,-73.08 599,-53 592.01,-51.19 584.72,-49.14 577.51,-47.01"/>
<polygon fill="midnightblue" stroke="midnightblue" points="810.21,-158.21 815.86,-167.17 817.03,-156.64 810.21,-158.21"/>
</g>
<!-- Node12 -->
<g id="node12" class="node">
<title>Node12</title>
<g id="a_node12"><a xlink:href="fileobject-test_8cpp_source.html" target="_top" xlink:title=" ">
<polygon fill="none" stroke="black" points="608,-6 608,-47 738,-47 738,-6 608,-6"/>
<text text-anchor="start" x="616" y="-35" font-family="Helvetica,sans-Serif" font-size="10.00">/home/ugovaretto/projects</text>
<text text-anchor="start" x="616" y="-24" font-family="Helvetica,sans-Serif" font-size="10.00">/uv&#45;cpp/s3client/repo/test</text>
<text text-anchor="middle" x="673" y="-13" font-family="Helvetica,sans-Serif" font-size="10.00">/api/fileobject&#45;test.cpp</text>
</a>
</g>
</g>
<!-- Node9&#45;&gt;Node12 -->
<g id="edge11" class="edge">
<title>Node9&#45;&gt;Node12</title>
<path fill="none" stroke="midnightblue" d="M825.14,-157.47C827.8,-136.54 827.68,-108.78 814,-89 808.42,-80.93 762.75,-61.85 724.88,-47.06"/>
<polygon fill="midnightblue" stroke="midnightblue" points="821.68,-157 823.62,-167.42 828.59,-158.06 821.68,-157"/>
</g>
<!-- Node13 -->
<g id="node13" class="node">
<title>Node13</title>
<g id="a_node13"><a xlink:href="abort-multipart-upload-test_8cpp_source.html" target="_top" xlink:title=" ">
<polygon fill="none" stroke="black" points="756,-0.5 756,-52.5 886,-52.5 886,-0.5 756,-0.5"/>
<text text-anchor="start" x="764" y="-40.5" font-family="Helvetica,sans-Serif" font-size="10.00">/home/ugovaretto/projects</text>
<text text-anchor="start" x="764" y="-29.5" font-family="Helvetica,sans-Serif" font-size="10.00">/uv&#45;cpp/s3client/repo/test</text>
<text text-anchor="start" x="764" y="-18.5" font-family="Helvetica,sans-Serif" font-size="10.00">/api/abort&#45;multipart&#45;upload</text>
<text text-anchor="middle" x="821" y="-7.5" font-family="Helvetica,sans-Serif" font-size="10.00">&#45;test.cpp</text>
</a>
</g>
</g>
<!-- Node9&#45;&gt;Node13 -->
<g id="edge12" class="edge">
<title>Node9&#45;&gt;Node13</title>
<path fill="none" stroke="midnightblue" d="M839.42,-158.99C844.56,-150.42 849.36,-140.7 852,-131 856.91,-112.99 856.32,-107.16 852,-89 848.99,-76.32 842.92,-63.29 836.94,-52.5"/>
<polygon fill="midnightblue" stroke="midnightblue" points="836.46,-157.13 834.03,-167.44 842.36,-160.89 836.46,-157.13"/>
</g>
<!-- Node14 -->
<g id="node14" class="node">
<title>Node14</title>
<g id="a_node14"><a xlink:href="parallel-file-transfer-test_8cpp_source.html" target="_top" xlink:title=" ">
<polygon fill="none" stroke="black" points="1052,-6 1052,-47 1192,-47 1192,-6 1052,-6"/>
<text text-anchor="start" x="1060" y="-35" font-family="Helvetica,sans-Serif" font-size="10.00">/home/ugovaretto/projects</text>
<text text-anchor="start" x="1060" y="-24" font-family="Helvetica,sans-Serif" font-size="10.00">/uv&#45;cpp/s3client/repo/test</text>
<text text-anchor="middle" x="1122" y="-13" font-family="Helvetica,sans-Serif" font-size="10.00">/parallel&#45;file&#45;transfer&#45;test.cpp</text>
</a>
</g>
</g>
<!-- Node9&#45;&gt;Node14 -->
<g id="edge13" class="edge">
<title>Node9&#45;&gt;Node14</title>
<path fill="none" stroke="midnightblue" d="M894.17,-166.87C961.84,-151.59 988.13,-166.73 1043,-131 1075.39,-109.91 1099.76,-70.81 1112.37,-47.18"/>
<polygon fill="midnightblue" stroke="midnightblue" points="893.25,-163.49 884.34,-169.23 894.88,-170.29 893.25,-163.49"/>
</g>
<!-- Node15 -->
<g id="node15" class="node">
<title>Node15</title>
<g id="a_node15"><a xlink:href="multipart-upload-file-test_8cpp_source.html" target="_top" xlink:title=" ">
<polygon fill="none" stroke="black" points="1210,-0.5 1210,-52.5 1340,-52.5 1340,-0.5 1210,-0.5"/>
<text text-anchor="start" x="1218" y="-40.5" font-family="Helvetica,sans-Serif" font-size="10.00">/home/ugovaretto/projects</text>
<text text-anchor="start" x="1218" y="-29.5" font-family="Helvetica,sans-Serif" font-size="10.00">/uv&#45;cpp/s3client/repo/test</text>
<text text-anchor="start" x="1218" y="-18.5" font-family="Helvetica,sans-Serif" font-size="10.00">/api/multipart&#45;upload&#45;file</text>
<text text-anchor="middle" x="1275" y="-7.5" font-family="Helvetica,sans-Serif" font-size="10.00">&#45;test.cpp</text>
</a>
</g>
</g>
<!-- Node9&#45;&gt;Node15 -->
<g id="edge16" class="edge">
<title>Node9&#45;&gt;Node15</title>
<path fill="none" stroke="midnightblue" d="M894.16,-166.9C977.24,-149.5 1006.75,-167.79 1079,-131 1103.38,-118.58 1100.95,-103.74 1124,-89 1139.08,-79.36 1176.13,-64.23 1209.75,-51.39"/>
<polygon fill="midnightblue" stroke="midnightblue" points="893.31,-163.5 884.31,-169.07 894.82,-170.33 893.31,-163.5"/>
</g>
<!-- Node16 -->
<g id="node16" class="node">
<title>Node16</title>
<g id="a_node16"><a xlink:href="bucket-test_8cpp.html" target="_top" xlink:title="bucket tests">
<polygon fill="none" stroke="black" points="1358,-6 1358,-47 1488,-47 1488,-6 1358,-6"/>
<text text-anchor="start" x="1366" y="-35" font-family="Helvetica,sans-Serif" font-size="10.00">/home/ugovaretto/projects</text>
<text text-anchor="start" x="1366" y="-24" font-family="Helvetica,sans-Serif" font-size="10.00">/uv&#45;cpp/s3client/repo/test</text>
<text text-anchor="middle" x="1423" y="-13" font-family="Helvetica,sans-Serif" font-size="10.00">/api/bucket&#45;test.cpp</text>
</a>
</g>
</g>
<!-- Node9&#45;&gt;Node16 -->
<g id="edge18" class="edge">
<title>Node9&#45;&gt;Node16</title>
<path fill="none" stroke="midnightblue" d="M894.09,-166.95C993.43,-147.76 1029.68,-175.8 1116,-131 1139.15,-118.98 1134,-101.31 1157,-89 1233.55,-48.03 1265.07,-75.2 1349,-53 1355.57,-51.26 1362.39,-49.23 1369.13,-47.09"/>
<polygon fill="midnightblue" stroke="midnightblue" points="893.38,-163.53 884.28,-168.96 894.78,-170.39 893.38,-163.53"/>
</g>
<!-- Node17 -->
<g id="node17" class="node">
<title>Node17</title>
<g id="a_node17"><a xlink:href="s3-api_8cpp_source.html" target="_top" xlink:title=" ">
<polygon fill="none" stroke="black" points="1166,-89.5 1166,-130.5 1296,-130.5 1296,-89.5 1166,-89.5"/>
<text text-anchor="start" x="1174" y="-118.5" font-family="Helvetica,sans-Serif" font-size="10.00">/home/ugovaretto/projects</text>
<text text-anchor="start" x="1174" y="-107.5" font-family="Helvetica,sans-Serif" font-size="10.00">/uv&#45;cpp/s3client/repo/lib</text>
<text text-anchor="middle" x="1231" y="-96.5" font-family="Helvetica,sans-Serif" font-size="10.00">/src/api/s3&#45;api.cpp</text>
</a>
</g>
</g>
<!-- Node9&#45;&gt;Node17 -->
<g id="edge20" class="edge">
<title>Node9&#45;&gt;Node17</title>
<path fill="none" stroke="midnightblue" d="M894.12,-166.9C1008.64,-144.29 1041.06,-152.69 1152,-131 1156.44,-130.13 1161.01,-129.17 1165.6,-128.15"/>
<polygon fill="midnightblue" stroke="midnightblue" points="893.38,-163.48 884.26,-168.88 894.76,-170.34 893.38,-163.48"/>
</g>
<!-- Node18 -->
<g id="node18" class="node">
<title>Node18</title>
<g id="a_node18"><a xlink:href="download-file_8cpp_source.html" target="_top" xlink:title=" ">
<polygon fill="none" stroke="black" points="1314,-89.5 1314,-130.5 1444,-130.5 1444,-89.5 1314,-89.5"/>
<text text-anchor="start" x="1322" y="-118.5" font-family="Helvetica,sans-Serif" font-size="10.00">/home/ugovaretto/projects</text>
<text text-anchor="start" x="1322" y="-107.5" font-family="Helvetica,sans-Serif" font-size="10.00">/uv&#45;cpp/s3client/repo/lib</text>
<text text-anchor="middle" x="1379" y="-96.5" font-family="Helvetica,sans-Serif" font-size="10.00">/src/download&#45;file.cpp</text>
</a>
</g>
</g>
<!-- Node9&#45;&gt;Node18 -->
<g id="edge21" class="edge">
<title>Node9&#45;&gt;Node18</title>
<path fill="none" stroke="midnightblue" d="M894.11,-166.97C1075.78,-135.87 1127.2,-162.54 1305,-131 1307.88,-130.49 1310.82,-129.92 1313.77,-129.3"/>
<polygon fill="midnightblue" stroke="midnightblue" points="893.48,-163.53 884.23,-168.7 894.68,-170.43 893.48,-163.53"/>
</g>
<!-- Node19 -->
<g id="node19" class="node">
<title>Node19</title>
<g id="a_node19"><a xlink:href="xml__parser_8cpp_source.html" target="_top" xlink:title=" ">
<polygon fill="none" stroke="black" points="1506,-6 1506,-47 1636,-47 1636,-6 1506,-6"/>
<text text-anchor="start" x="1514" y="-35" font-family="Helvetica,sans-Serif" font-size="10.00">/home/ugovaretto/projects</text>
<text text-anchor="start" x="1514" y="-24" font-family="Helvetica,sans-Serif" font-size="10.00">/uv&#45;cpp/s3client/repo/lib</text>
<text text-anchor="middle" x="1571" y="-13" font-family="Helvetica,sans-Serif" font-size="10.00">/src/api/xml_parser.cpp</text>
</a>
</g>
</g>
<!-- Node9&#45;&gt;Node19 -->
<g id="edge22" class="edge">
<title>Node9&#45;&gt;Node19</title>
<path fill="none" stroke="midnightblue" d="M894.2,-167.11C1031.68,-148.29 1341.86,-180.49 1453,-131 1477.4,-120.13 1476.1,-106.82 1496,-89 1512.18,-74.51 1531.1,-59.01 1545.89,-47.19"/>
<polygon fill="midnightblue" stroke="midnightblue" points="893.58,-163.66 884.21,-168.62 894.63,-170.58 893.58,-163.66"/>
</g>
<!-- Node20 -->
<g id="node20" class="node">
<title>Node20</title>
<g id="a_node20"><a xlink:href="upload-file_8cpp_source.html" target="_top" xlink:title=" ">
<polygon fill="none" stroke="black" points="604,-89.5 604,-130.5 734,-130.5 734,-89.5 604,-89.5"/>
<text text-anchor="start" x="612" y="-118.5" font-family="Helvetica,sans-Serif" font-size="10.00">/home/ugovaretto/projects</text>
<text text-anchor="start" x="612" y="-107.5" font-family="Helvetica,sans-Serif" font-size="10.00">/uv&#45;cpp/s3client/repo/lib</text>
<text text-anchor="middle" x="669" y="-96.5" font-family="Helvetica,sans-Serif" font-size="10.00">/src/upload&#45;file.cpp</text>
</a>
</g>
</g>
<!-- Node9&#45;&gt;Node20 -->
<g id="edge23" class="edge">
<title>Node9&#45;&gt;Node20</title>
<path fill="none" stroke="midnightblue" d="M771.45,-162.91C750.83,-152.46 726.99,-140.38 707.5,-130.51"/>
<polygon fill="midnightblue" stroke="midnightblue" points="769.87,-166.03 780.37,-167.43 773.03,-159.79 769.87,-166.03"/>
</g>
<!-- Node21 -->
<g id="node21" class="node">
<title>Node21</title>
<g id="a_node21"><a xlink:href="test_2utility_8h_source.html" target="_top" xlink:title=" ">
<polygon fill="none" stroke="black" points="904,-89.5 904,-130.5 1034,-130.5 1034,-89.5 904,-89.5"/>
<text text-anchor="start" x="912" y="-118.5" font-family="Helvetica,sans-Serif" font-size="10.00">/home/ugovaretto/projects</text>
<text text-anchor="start" x="912" y="-107.5" font-family="Helvetica,sans-Serif" font-size="10.00">/uv&#45;cpp/s3client/repo/test</text>
<text text-anchor="middle" x="969" y="-96.5" font-family="Helvetica,sans-Serif" font-size="10.00">/utility.h</text>
</a>
</g>
</g>
<!-- Node9&#45;&gt;Node21 -->
<g id="edge24" class="edge">
<title>Node9&#45;&gt;Node21</title>
<path fill="none" stroke="midnightblue" d="M866.55,-162.91C887.17,-152.46 911.01,-140.38 930.5,-130.51"/>
<polygon fill="midnightblue" stroke="midnightblue" points="864.97,-159.79 857.63,-167.43 868.13,-166.03 864.97,-159.79"/>
</g>
<!-- Node23 -->
<g id="node23" class="node">
<title>Node23</title>
<g id="a_node23"><a xlink:href="xmlstreams_8h.html" target="_top" xlink:title="xml parser and generator.">
<polygon fill="none" stroke="black" points="1505,-89.5 1505,-130.5 1635,-130.5 1635,-89.5 1505,-89.5"/>
<text text-anchor="start" x="1513" y="-118.5" font-family="Helvetica,sans-Serif" font-size="10.00">/home/ugovaretto/projects</text>
<text text-anchor="start" x="1513" y="-107.5" font-family="Helvetica,sans-Serif" font-size="10.00">/uv&#45;cpp/s3client/repo/lib</text>
<text text-anchor="middle" x="1570" y="-96.5" font-family="Helvetica,sans-Serif" font-size="10.00">/include/xmlstreams.h</text>
</a>
</g>
</g>
<!-- Node9&#45;&gt;Node23 -->
<g id="edge33" class="edge">
<title>Node9&#45;&gt;Node23</title>
<path fill="none" stroke="midnightblue" d="M894.41,-166.96C1156.3,-125.38 1229.37,-170.04 1488,-131 1493.51,-130.17 1499.18,-129.14 1504.86,-128"/>
<polygon fill="midnightblue" stroke="midnightblue" points="893.53,-163.55 884.21,-168.6 894.64,-170.46 893.53,-163.55"/>
</g>
<!-- Node21&#45;&gt;Node10 -->
<g id="edge26" class="edge">
<title>Node21&#45;&gt;Node10</title>
<path fill="none" stroke="midnightblue" d="M893.6,-101.17C748.14,-86.06 442.52,-54.23 437,-53 429.84,-51.41 422.4,-49.36 415.13,-47.11"/>
<polygon fill="midnightblue" stroke="midnightblue" points="893.48,-104.68 903.79,-102.23 894.2,-97.72 893.48,-104.68"/>
</g>
<!-- Node21&#45;&gt;Node11 -->
<g id="edge27" class="edge">
<title>Node21&#45;&gt;Node11</title>
<path fill="none" stroke="midnightblue" d="M893.68,-99C802.25,-86.62 653.52,-65.63 599,-53 591.68,-51.3 584.05,-49.27 576.55,-47.1"/>
<polygon fill="midnightblue" stroke="midnightblue" points="893.33,-102.49 903.71,-100.36 894.27,-95.55 893.33,-102.49"/>
</g>
<!-- Node21&#45;&gt;Node12 -->
<g id="edge28" class="edge">
<title>Node21&#45;&gt;Node12</title>
<path fill="none" stroke="midnightblue" d="M893.66,-91.67C850.48,-81.33 795.42,-67.42 747,-53 740.88,-51.18 734.51,-49.16 728.19,-47.09"/>
<polygon fill="midnightblue" stroke="midnightblue" points="892.98,-95.11 903.52,-94.02 894.6,-88.3 892.98,-95.11"/>
</g>
<!-- Node21&#45;&gt;Node13 -->
<g id="edge29" class="edge">
<title>Node21&#45;&gt;Node13</title>
<path fill="none" stroke="midnightblue" d="M924.79,-84.65C906.4,-74.53 885.06,-62.78 866.54,-52.58"/>
<polygon fill="midnightblue" stroke="midnightblue" points="923.1,-87.72 933.55,-89.48 926.48,-81.59 923.1,-87.72"/>
</g>
<!-- Node21&#45;&gt;Node14 -->
<g id="edge30" class="edge">
<title>Node21&#45;&gt;Node14</title>
<path fill="none" stroke="midnightblue" d="M1014.71,-84.65C1037.3,-72.62 1064.18,-58.3 1085.39,-47"/>
<polygon fill="midnightblue" stroke="midnightblue" points="1012.83,-81.69 1005.65,-89.48 1016.12,-87.87 1012.83,-81.69"/>
</g>
<!-- Node21&#45;&gt;Node15 -->
<g id="edge31" class="edge">
<title>Node21&#45;&gt;Node15</title>
<path fill="none" stroke="midnightblue" d="M1044.26,-92.74C1089.89,-82.41 1149.13,-68.16 1201,-53 1203.87,-52.16 1206.79,-51.28 1209.74,-50.37"/>
<polygon fill="midnightblue" stroke="midnightblue" points="1043.43,-89.34 1034.44,-94.95 1044.96,-96.17 1043.43,-89.34"/>
</g>
<!-- Node21&#45;&gt;Node16 -->
<g id="edge32" class="edge">
<title>Node21&#45;&gt;Node16</title>
<path fill="none" stroke="midnightblue" d="M1044.35,-98.66C1146.64,-84.51 1320.08,-60.05 1349,-53 1355.87,-51.33 1362.99,-49.28 1370,-47.08"/>
<polygon fill="midnightblue" stroke="midnightblue" points="1043.8,-95.2 1034.38,-100.04 1044.76,-102.14 1043.8,-95.2"/>
</g>
<!-- Node22 -->
<g id="node22" class="node">
<title>Node22</title>
<g id="a_node22"><a xlink:href="test_2utility_8cpp_source.html" target="_top" xlink:title=" ">
<polygon fill="none" stroke="black" points="904,-6 904,-47 1034,-47 1034,-6 904,-6"/>
<text text-anchor="start" x="912" y="-35" font-family="Helvetica,sans-Serif" font-size="10.00">/home/ugovaretto/projects</text>
<text text-anchor="start" x="912" y="-24" font-family="Helvetica,sans-Serif" font-size="10.00">/uv&#45;cpp/s3client/repo/test</text>
<text text-anchor="middle" x="969" y="-13" font-family="Helvetica,sans-Serif" font-size="10.00">/utility.cpp</text>
</a>
</g>
</g>
<!-- Node21&#45;&gt;Node22 -->
<g id="edge25" class="edge">
<title>Node21&#45;&gt;Node22</title>
<path fill="none" stroke="midnightblue" d="M969,-79.06C969,-68.38 969,-56.63 969,-47.05"/>
<polygon fill="midnightblue" stroke="midnightblue" points="965.5,-79.27 969,-89.27 972.5,-79.27 965.5,-79.27"/>
</g>
<!-- Node23&#45;&gt;Node19 -->
<g id="edge34" class="edge">
<title>Node23&#45;&gt;Node19</title>
<path fill="none" stroke="midnightblue" d="M1570.37,-79.06C1570.5,-68.38 1570.64,-56.63 1570.76,-47.05"/>
<polygon fill="midnightblue" stroke="midnightblue" points="1566.87,-79.23 1570.24,-89.27 1573.86,-79.31 1566.87,-79.23"/>
</g>
</g>
</svg>
