<?xml version="1.0" encoding="UTF-8" standalone="no"?>
<!DOCTYPE svg PUBLIC "-//W3C//DTD SVG 1.1//EN"
 "http://www.w3.org/Graphics/SVG/1.1/DTD/svg11.dtd">
<!-- Generated by graphviz version 8.0.5 (20230430.1635)
 -->
<!-- Title: /Users/ugovaretto/projects/s3client/repo/lib/include/response_parser.h Pages: 1 -->
<svg width="227pt" height="160pt"
 viewBox="0.00 0.00 226.88 160.25" xmlns="http://www.w3.org/2000/svg" xmlns:xlink="http://www.w3.org/1999/xlink">
<g id="graph0" class="graph" transform="scale(1 1) rotate(0) translate(4 156.25)">
<title>/Users/ugovaretto/projects/s3client/repo/lib/include/response_parser.h</title>
<!-- Node1 -->
<g id="node1" class="node">
<title>Node1</title>
<g id="a_node1"><a xlink:title="Functions to parse XML and HTTP headers.">
<polygon fill="#999999" stroke="#666666" points="158.75,-152.25 27.25,-152.25 27.25,-110.5 158.75,-110.5 158.75,-152.25"/>
<text text-anchor="start" x="35.25" y="-138.75" font-family="Helvetica,sans-Serif" font-size="10.00">/Users/ugovaretto/projects</text>
<text text-anchor="start" x="35.25" y="-127.5" font-family="Helvetica,sans-Serif" font-size="10.00">/s3client/repo/lib/include</text>
<text text-anchor="middle" x="93" y="-116.25" font-family="Helvetica,sans-Serif" font-size="10.00">/response_parser.h</text>
</a>
</g>
</g>
<!-- Node2 -->
<g id="node2" class="node">
<title>Node2</title>
<g id="a_node2"><a xlink:title=" ">
<polygon fill="#e0e0e0" stroke="#999999" points="40,-74.5 0,-74.5 0,-55.25 40,-55.25 40,-74.5"/>
<text text-anchor="middle" x="20" y="-61" font-family="Helvetica,sans-Serif" font-size="10.00">regex</text>
</a>
</g>
</g>
<!-- Node1&#45;&gt;Node2 -->
<g id="edge1" class="edge">
<title>Node1&#45;&gt;Node2</title>
<path fill="none" stroke="#63b8ff" d="M70.3,-110.32C60.05,-101.26 48.09,-90.69 38.41,-82.14"/>
<polygon fill="#63b8ff" stroke="#63b8ff" points="41.08,-79.94 31.27,-75.95 36.44,-85.19 41.08,-79.94"/>
</g>
<!-- Node3 -->
<g id="node3" class="node">
<title>Node3</title>
<g id="a_node3"><a xlink:title=" ">
<polygon fill="#e0e0e0" stroke="#999999" points="121,-19.25 81,-19.25 81,0 121,0 121,-19.25"/>
<text text-anchor="middle" x="101" y="-5.75" font-family="Helvetica,sans-Serif" font-size="10.00">string</text>
</a>
</g>
</g>
<!-- Node1&#45;&gt;Node3 -->
<g id="edge2" class="edge">
<title>Node1&#45;&gt;Node3</title>
<path fill="none" stroke="#63b8ff" d="M88.87,-110.2C86.37,-95.02 84.17,-73.74 87,-55.25 88.31,-46.73 90.94,-37.6 93.57,-29.84"/>
<polygon fill="#63b8ff" stroke="#63b8ff" points="97.14,-31.26 97.27,-20.66 90.56,-28.86 97.14,-31.26"/>
</g>
<!-- Node4 -->
<g id="node4" class="node">
<title>Node4</title>
<g id="a_node4"><a xlink:title=" ">
<polygon fill="#e0e0e0" stroke="#999999" points="139.5,-74.5 96.5,-74.5 96.5,-55.25 139.5,-55.25 139.5,-74.5"/>
<text text-anchor="middle" x="118" y="-61" font-family="Helvetica,sans-Serif" font-size="10.00">vector</text>
</a>
</g>
</g>
<!-- Node1&#45;&gt;Node4 -->
<g id="edge3" class="edge">
<title>Node1&#45;&gt;Node4</title>
<path fill="none" stroke="#63b8ff" d="M100.77,-110.32C103.89,-102.28 107.47,-93.05 110.55,-85.09"/>
<polygon fill="#63b8ff" stroke="#63b8ff" points="114.13,-86.53 114.48,-75.95 107.61,-84 114.13,-86.53"/>
</g>
<!-- Node5 -->
<g id="node5" class="node">
<title>Node5</title>
<g id="a_node5"><a xlink:href="common_8h.html" target="_top" xlink:title="Common definitions.">
<polygon fill="white" stroke="#666666" points="218.88,-74.5 157.12,-74.5 157.12,-55.25 218.88,-55.25 218.88,-74.5"/>
<text text-anchor="middle" x="188" y="-61" font-family="Helvetica,sans-Serif" font-size="10.00">common.h</text>
</a>
</g>
</g>
<!-- Node1&#45;&gt;Node5 -->
<g id="edge4" class="edge">
<title>Node1&#45;&gt;Node5</title>
<path fill="none" stroke="#63b8ff" d="M122.8,-110.14C136.67,-100.72 152.9,-89.71 165.7,-81.02"/>
<polygon fill="#63b8ff" stroke="#63b8ff" points="167.41,-83.41 173.72,-74.89 163.48,-77.62 167.41,-83.41"/>
</g>
<!-- Node5&#45;&gt;Node3 -->
<g id="edge6" class="edge">
<title>Node5&#45;&gt;Node3</title>
<path fill="none" stroke="#63b8ff" d="M173.24,-54.84C159.99,-46.73 140.31,-34.68 124.83,-25.21"/>
<polygon fill="#63b8ff" stroke="#63b8ff" points="127.19,-21.94 116.83,-19.7 123.53,-27.91 127.19,-21.94"/>
</g>
<!-- Node6 -->
<g id="node6" class="node">
<title>Node6</title>
<g id="a_node6"><a xlink:title=" ">
<polygon fill="#e0e0e0" stroke="#999999" points="205.38,-19.25 170.62,-19.25 170.62,0 205.38,0 205.38,-19.25"/>
<text text-anchor="middle" x="188" y="-5.75" font-family="Helvetica,sans-Serif" font-size="10.00">map</text>
</a>
</g>
</g>
<!-- Node5&#45;&gt;Node6 -->
<g id="edge5" class="edge">
<title>Node5&#45;&gt;Node6</title>
<path fill="none" stroke="#63b8ff" d="M188,-55.08C188,-48.42 188,-38.99 188,-30.53"/>
<polygon fill="#63b8ff" stroke="#63b8ff" points="191.5,-30.61 188,-20.61 184.5,-30.61 191.5,-30.61"/>
</g>
</g>
</svg>
