<?xml version="1.0" encoding="UTF-8" standalone="no"?>
<!DOCTYPE svg PUBLIC "-//W3C//DTD SVG 1.1//EN"
 "http://www.w3.org/Graphics/SVG/1.1/DTD/svg11.dtd">
<!-- Generated by graphviz version 2.43.0 (0)
 -->
<!-- Title: /home/ugovaretto/projects/uv&#45;cpp/s3client/repo/lib/include/response_parser.h Pages: 1 -->
<svg width="230pt" height="162pt"
 viewBox="0.00 0.00 229.50 162.00" xmlns="http://www.w3.org/2000/svg" xmlns:xlink="http://www.w3.org/1999/xlink">
<g id="graph0" class="graph" transform="scale(1 1) rotate(0) translate(4 158)">
<title>/home/ugovaretto/projects/uv&#45;cpp/s3client/repo/lib/include/response_parser.h</title>
<!-- Node1 -->
<g id="node1" class="node">
<title>Node1</title>
<g id="a_node1"><a xlink:title="Functions to parse XML and HTTP headers.">
<polygon fill="#bfbfbf" stroke="black" points="28,-112.5 28,-153.5 161,-153.5 161,-112.5 28,-112.5"/>
<text text-anchor="start" x="36" y="-141.5" font-family="Helvetica,sans-Serif" font-size="10.00">/home/ugovaretto/projects</text>
<text text-anchor="start" x="36" y="-130.5" font-family="Helvetica,sans-Serif" font-size="10.00">/uv&#45;cpp/s3client/repo/lib</text>
<text text-anchor="middle" x="94.5" y="-119.5" font-family="Helvetica,sans-Serif" font-size="10.00">/include/response_parser.h</text>
</a>
</g>
</g>
<!-- Node2 -->
<g id="node2" class="node">
<title>Node2</title>
<g id="a_node2"><a xlink:title=" ">
<polygon fill="none" stroke="#bfbfbf" points="0,-56.5 0,-75.5 41,-75.5 41,-56.5 0,-56.5"/>
<text text-anchor="middle" x="20.5" y="-63.5" font-family="Helvetica,sans-Serif" font-size="10.00">regex</text>
</a>
</g>
</g>
<!-- Node1&#45;&gt;Node2 -->
<g id="edge1" class="edge">
<title>Node1&#45;&gt;Node2</title>
<path fill="none" stroke="midnightblue" d="M72.3,-112.5C61.28,-102.82 48.16,-91.3 37.89,-82.27"/>
<polygon fill="midnightblue" stroke="midnightblue" points="40.17,-79.62 30.35,-75.65 35.55,-84.88 40.17,-79.62"/>
</g>
<!-- Node3 -->
<g id="node3" class="node">
<title>Node3</title>
<g id="a_node3"><a xlink:title=" ">
<polygon fill="none" stroke="#bfbfbf" points="82,-0.5 82,-19.5 123,-19.5 123,-0.5 82,-0.5"/>
<text text-anchor="middle" x="102.5" y="-7.5" font-family="Helvetica,sans-Serif" font-size="10.00">string</text>
</a>
</g>
</g>
<!-- Node1&#45;&gt;Node3 -->
<g id="edge2" class="edge">
<title>Node1&#45;&gt;Node3</title>
<path fill="none" stroke="midnightblue" d="M90.47,-112.23C87.92,-96.84 85.62,-74.97 88.5,-56 89.87,-47 92.69,-37.33 95.45,-29.26"/>
<polygon fill="midnightblue" stroke="midnightblue" points="98.77,-30.37 98.9,-19.78 92.19,-27.98 98.77,-30.37"/>
</g>
<!-- Node4 -->
<g id="node4" class="node">
<title>Node4</title>
<g id="a_node4"><a xlink:title=" ">
<polygon fill="none" stroke="#bfbfbf" points="97.5,-56.5 97.5,-75.5 141.5,-75.5 141.5,-56.5 97.5,-56.5"/>
<text text-anchor="middle" x="119.5" y="-63.5" font-family="Helvetica,sans-Serif" font-size="10.00">vector</text>
</a>
</g>
</g>
<!-- Node1&#45;&gt;Node4 -->
<g id="edge3" class="edge">
<title>Node1&#45;&gt;Node4</title>
<path fill="none" stroke="midnightblue" d="M102,-112.5C105.35,-103.78 109.28,-93.56 112.57,-85.02"/>
<polygon fill="midnightblue" stroke="midnightblue" points="115.85,-86.24 116.17,-75.65 109.32,-83.73 115.85,-86.24"/>
</g>
<!-- Node5 -->
<g id="node5" class="node">
<title>Node5</title>
<g id="a_node5"><a xlink:href="common_8h.html" target="_top" xlink:title="Common definitions.">
<polygon fill="none" stroke="black" points="159.5,-56.5 159.5,-75.5 221.5,-75.5 221.5,-56.5 159.5,-56.5"/>
<text text-anchor="middle" x="190.5" y="-63.5" font-family="Helvetica,sans-Serif" font-size="10.00">common.h</text>
</a>
</g>
</g>
<!-- Node1&#45;&gt;Node5 -->
<g id="edge4" class="edge">
<title>Node1&#45;&gt;Node5</title>
<path fill="none" stroke="midnightblue" d="M123.3,-112.5C138.02,-102.53 155.62,-90.61 169.12,-81.48"/>
<polygon fill="midnightblue" stroke="midnightblue" points="171.4,-84.16 177.72,-75.65 167.48,-78.36 171.4,-84.16"/>
</g>
<!-- Node5&#45;&gt;Node3 -->
<g id="edge6" class="edge">
<title>Node5&#45;&gt;Node3</title>
<path fill="none" stroke="midnightblue" d="M176.36,-56.32C162.63,-47.9 141.56,-34.97 125.44,-25.07"/>
<polygon fill="midnightblue" stroke="midnightblue" points="126.96,-21.9 116.6,-19.65 123.3,-27.87 126.96,-21.9"/>
</g>
<!-- Node6 -->
<g id="node6" class="node">
<title>Node6</title>
<g id="a_node6"><a xlink:title=" ">
<polygon fill="none" stroke="#bfbfbf" points="173,-0.5 173,-19.5 208,-19.5 208,-0.5 173,-0.5"/>
<text text-anchor="middle" x="190.5" y="-7.5" font-family="Helvetica,sans-Serif" font-size="10.00">map</text>
</a>
</g>
</g>
<!-- Node5&#45;&gt;Node6 -->
<g id="edge5" class="edge">
<title>Node5&#45;&gt;Node6</title>
<path fill="none" stroke="midnightblue" d="M190.5,-56.08C190.5,-49.01 190.5,-38.86 190.5,-29.99"/>
<polygon fill="midnightblue" stroke="midnightblue" points="194,-29.75 190.5,-19.75 187,-29.75 194,-29.75"/>
</g>
</g>
</svg>
