<?xml version="1.0" encoding="UTF-8" standalone="no"?>
<!DOCTYPE svg PUBLIC "-//W3C//DTD SVG 1.1//EN"
 "http://www.w3.org/Graphics/SVG/1.1/DTD/svg11.dtd">
<!-- Generated by graphviz version 2.43.0 (0)
 -->
<!-- Title: /home/ugovaretto/projects/uv&#45;cpp/s3client/repo/lib/include/s3&#45;api.h Pages: 1 -->
<svg width="1007pt" height="330pt"
 viewBox="0.00 0.00 1007.00 330.00" xmlns="http://www.w3.org/2000/svg" xmlns:xlink="http://www.w3.org/1999/xlink">
<g id="graph0" class="graph" transform="scale(1 1) rotate(0) translate(4 326)">
<title>/home/ugovaretto/projects/uv&#45;cpp/s3client/repo/lib/include/s3&#45;api.h</title>
<!-- Node1 -->
<g id="node1" class="node">
<title>Node1</title>
<g id="a_node1"><a xlink:title="declarations of S3Api class.">
<polygon fill="#bfbfbf" stroke="black" points="386,-280.5 386,-321.5 516,-321.5 516,-280.5 386,-280.5"/>
<text text-anchor="start" x="394" y="-309.5" font-family="Helvetica,sans-Serif" font-size="10.00">/home/ugovaretto/projects</text>
<text text-anchor="start" x="394" y="-298.5" font-family="Helvetica,sans-Serif" font-size="10.00">/uv&#45;cpp/s3client/repo/lib</text>
<text text-anchor="middle" x="451" y="-287.5" font-family="Helvetica,sans-Serif" font-size="10.00">/include/s3&#45;api.h</text>
</a>
</g>
</g>
<!-- Node2 -->
<g id="node2" class="node">
<title>Node2</title>
<g id="a_node2"><a xlink:href="aws__sign_8h.html" target="_top" xlink:title="Public interface to signing URLs and HTTP headers with the S3v4 protocol standard.">
<polygon fill="none" stroke="black" points="281,-168.5 281,-187.5 347,-187.5 347,-168.5 281,-168.5"/>
<text text-anchor="middle" x="314" y="-175.5" font-family="Helvetica,sans-Serif" font-size="10.00">aws_sign.h</text>
</a>
</g>
</g>
<!-- Node1&#45;&gt;Node2 -->
<g id="edge1" class="edge">
<title>Node1&#45;&gt;Node2</title>
<path fill="none" stroke="midnightblue" d="M428.68,-280.29C401.44,-256.22 355.94,-216.04 331.23,-194.22"/>
<polygon fill="midnightblue" stroke="midnightblue" points="333.52,-191.57 323.71,-187.57 328.89,-196.82 333.52,-191.57"/>
</g>
<!-- Node4 -->
<g id="node4" class="node">
<title>Node4</title>
<g id="a_node4"><a xlink:title=" ">
<polygon fill="none" stroke="#bfbfbf" points="815.5,-0.5 815.5,-19.5 850.5,-19.5 850.5,-0.5 815.5,-0.5"/>
<text text-anchor="middle" x="833" y="-7.5" font-family="Helvetica,sans-Serif" font-size="10.00">map</text>
</a>
</g>
</g>
<!-- Node1&#45;&gt;Node4 -->
<g id="edge41" class="edge">
<title>Node1&#45;&gt;Node4</title>
<path fill="none" stroke="midnightblue" d="M516.41,-296.92C646.44,-289.01 925,-262.34 925,-179 925,-179 925,-179 925,-121 925,-78.5 884.09,-43.77 856.83,-25.34"/>
<polygon fill="midnightblue" stroke="midnightblue" points="858.49,-22.24 848.19,-19.73 854.67,-28.11 858.49,-22.24"/>
</g>
<!-- Node13 -->
<g id="node13" class="node">
<title>Node13</title>
<g id="a_node13"><a xlink:href="response__parser_8h.html" target="_top" xlink:title="Functions to parse XML and HTTP headers.">
<polygon fill="none" stroke="black" points="0,-112.5 0,-131.5 96,-131.5 96,-112.5 0,-112.5"/>
<text text-anchor="middle" x="48" y="-119.5" font-family="Helvetica,sans-Serif" font-size="10.00">response_parser.h</text>
</a>
</g>
</g>
<!-- Node1&#45;&gt;Node13 -->
<g id="edge18" class="edge">
<title>Node1&#45;&gt;Node13</title>
<path fill="none" stroke="midnightblue" d="M385.73,-291.57C312.38,-279.34 192.75,-250.84 110,-188 91.28,-173.78 73.11,-153.78 61.34,-139.73"/>
<polygon fill="midnightblue" stroke="midnightblue" points="63.93,-137.37 54.88,-131.85 58.51,-141.8 63.93,-137.37"/>
</g>
<!-- Node15 -->
<g id="node15" class="node">
<title>Node15</title>
<g id="a_node15"><a xlink:href="s3-client_8h.html" target="_top" xlink:title="declaration of functions and data types for sending S3 requests, signing URLs and downloading and upl...">
<polygon fill="none" stroke="black" points="224,-224.5 224,-243.5 286,-243.5 286,-224.5 224,-224.5"/>
<text text-anchor="middle" x="255" y="-231.5" font-family="Helvetica,sans-Serif" font-size="10.00">s3&#45;client.h</text>
</a>
</g>
</g>
<!-- Node1&#45;&gt;Node15 -->
<g id="edge23" class="edge">
<title>Node1&#45;&gt;Node15</title>
<path fill="none" stroke="midnightblue" d="M392.19,-280.5C359.15,-269.54 319,-256.22 290.69,-246.84"/>
<polygon fill="midnightblue" stroke="midnightblue" points="291.43,-243.39 280.83,-243.57 289.22,-250.04 291.43,-243.39"/>
</g>
<!-- Node16 -->
<g id="node16" class="node">
<title>Node16</title>
<g id="a_node16"><a xlink:href="webclient_8h.html" target="_top" xlink:title="declaration of WebClient class wrapping libcurl to send web requests.">
<polygon fill="none" stroke="black" points="501,-168.5 501,-187.5 567,-187.5 567,-168.5 501,-168.5"/>
<text text-anchor="middle" x="534" y="-175.5" font-family="Helvetica,sans-Serif" font-size="10.00">webclient.h</text>
</a>
</g>
</g>
<!-- Node1&#45;&gt;Node16 -->
<g id="edge40" class="edge">
<title>Node1&#45;&gt;Node16</title>
<path fill="none" stroke="midnightblue" d="M464.52,-280.29C480.6,-256.85 507.16,-218.13 522.36,-195.96"/>
<polygon fill="midnightblue" stroke="midnightblue" points="525.35,-197.8 528.12,-187.57 519.58,-193.84 525.35,-197.8"/>
</g>
<!-- Node22 -->
<g id="node22" class="node">
<title>Node22</title>
<g id="a_node22"><a xlink:title=" ">
<polygon fill="none" stroke="#bfbfbf" points="953,-224.5 953,-243.5 999,-243.5 999,-224.5 953,-224.5"/>
<text text-anchor="middle" x="976" y="-231.5" font-family="Helvetica,sans-Serif" font-size="10.00">variant</text>
</a>
</g>
</g>
<!-- Node1&#45;&gt;Node22 -->
<g id="edge42" class="edge">
<title>Node1&#45;&gt;Node22</title>
<path fill="none" stroke="midnightblue" d="M516.1,-295.12C610.01,-287.5 788.72,-270.79 939,-244 940.24,-243.78 941.51,-243.54 942.79,-243.29"/>
<polygon fill="midnightblue" stroke="midnightblue" points="943.58,-246.7 952.61,-241.16 942.09,-239.86 943.58,-246.7"/>
</g>
<!-- Node3 -->
<g id="node3" class="node">
<title>Node3</title>
<g id="a_node3"><a xlink:href="common_8h.html" target="_top" xlink:title="Common definitions.">
<polygon fill="none" stroke="black" points="252,-56.5 252,-75.5 314,-75.5 314,-56.5 252,-56.5"/>
<text text-anchor="middle" x="283" y="-63.5" font-family="Helvetica,sans-Serif" font-size="10.00">common.h</text>
</a>
</g>
</g>
<!-- Node2&#45;&gt;Node3 -->
<g id="edge2" class="edge">
<title>Node2&#45;&gt;Node3</title>
<path fill="none" stroke="midnightblue" d="M311.57,-168.37C306.54,-150.54 294.92,-109.3 288.15,-85.27"/>
<polygon fill="midnightblue" stroke="midnightblue" points="291.5,-84.27 285.42,-75.59 284.77,-86.17 291.5,-84.27"/>
</g>
<!-- Node5 -->
<g id="node5" class="node">
<title>Node5</title>
<g id="a_node5"><a xlink:title=" ">
<polygon fill="none" stroke="#bfbfbf" points="262.5,-0.5 262.5,-19.5 303.5,-19.5 303.5,-0.5 262.5,-0.5"/>
<text text-anchor="middle" x="283" y="-7.5" font-family="Helvetica,sans-Serif" font-size="10.00">string</text>
</a>
</g>
</g>
<!-- Node2&#45;&gt;Node5 -->
<g id="edge17" class="edge">
<title>Node2&#45;&gt;Node5</title>
<path fill="none" stroke="midnightblue" d="M292.97,-168.41C261.78,-154.38 204.46,-123.27 181,-76 164.9,-43.56 216.79,-25.33 252.37,-16.88"/>
<polygon fill="midnightblue" stroke="midnightblue" points="253.34,-20.25 262.35,-14.66 251.83,-13.42 253.34,-20.25"/>
</g>
<!-- Node6 -->
<g id="node6" class="node">
<title>Node6</title>
<g id="a_node6"><a xlink:href="url__utility_8h.html" target="_top" xlink:title="Internal utility functions to process and parse text and URLs and create S3 signature keys.">
<polygon fill="none" stroke="black" points="342,-112.5 342,-131.5 404,-131.5 404,-112.5 342,-112.5"/>
<text text-anchor="middle" x="373" y="-119.5" font-family="Helvetica,sans-Serif" font-size="10.00">url_utility.h</text>
</a>
</g>
</g>
<!-- Node2&#45;&gt;Node6 -->
<g id="edge5" class="edge">
<title>Node2&#45;&gt;Node6</title>
<path fill="none" stroke="midnightblue" d="M323.48,-168.32C332.2,-160.34 345.34,-148.31 355.9,-138.65"/>
<polygon fill="midnightblue" stroke="midnightblue" points="358.33,-141.17 363.35,-131.83 353.61,-136 358.33,-141.17"/>
</g>
<!-- Node3&#45;&gt;Node4 -->
<g id="edge3" class="edge">
<title>Node3&#45;&gt;Node4</title>
<path fill="none" stroke="midnightblue" d="M314.11,-61.27C328.39,-59.59 345.55,-57.63 361,-56 529.58,-38.24 732.36,-19.93 805.24,-13.45"/>
<polygon fill="midnightblue" stroke="midnightblue" points="805.76,-16.92 815.41,-12.55 805.14,-9.95 805.76,-16.92"/>
</g>
<!-- Node3&#45;&gt;Node5 -->
<g id="edge4" class="edge">
<title>Node3&#45;&gt;Node5</title>
<path fill="none" stroke="midnightblue" d="M283,-56.08C283,-49.01 283,-38.86 283,-29.99"/>
<polygon fill="midnightblue" stroke="midnightblue" points="286.5,-29.75 283,-19.75 279.5,-29.75 286.5,-29.75"/>
</g>
<!-- Node6&#45;&gt;Node3 -->
<g id="edge11" class="edge">
<title>Node6&#45;&gt;Node3</title>
<path fill="none" stroke="midnightblue" d="M358.54,-112.32C344.5,-103.9 322.95,-90.97 306.46,-81.07"/>
<polygon fill="midnightblue" stroke="midnightblue" points="307.8,-77.8 297.42,-75.65 304.2,-83.8 307.8,-77.8"/>
</g>
<!-- Node6&#45;&gt;Node4 -->
<g id="edge8" class="edge">
<title>Node6&#45;&gt;Node4</title>
<path fill="none" stroke="midnightblue" d="M404.03,-115.14C446.25,-107.04 524.11,-91.63 590,-76 668.68,-57.34 760.66,-31.67 805.55,-18.89"/>
<polygon fill="midnightblue" stroke="midnightblue" points="806.75,-22.19 815.4,-16.08 804.83,-15.46 806.75,-22.19"/>
</g>
<!-- Node6&#45;&gt;Node5 -->
<g id="edge9" class="edge">
<title>Node6&#45;&gt;Node5</title>
<path fill="none" stroke="midnightblue" d="M366.72,-112.44C357.42,-99.86 339.34,-75.75 323,-56 315,-46.34 305.72,-35.84 298.1,-27.42"/>
<polygon fill="midnightblue" stroke="midnightblue" points="300.48,-24.84 291.16,-19.8 295.31,-29.55 300.48,-24.84"/>
</g>
<!-- Node7 -->
<g id="node7" class="node">
<title>Node7</title>
<g id="a_node7"><a xlink:title=" ">
<polygon fill="none" stroke="#bfbfbf" points="451,-0.5 451,-19.5 507,-19.5 507,-0.5 451,-0.5"/>
<text text-anchor="middle" x="479" y="-7.5" font-family="Helvetica,sans-Serif" font-size="10.00">algorithm</text>
</a>
</g>
</g>
<!-- Node6&#45;&gt;Node7 -->
<g id="edge6" class="edge">
<title>Node6&#45;&gt;Node7</title>
<path fill="none" stroke="midnightblue" d="M386.83,-112.43C399.65,-104.09 418.84,-90.56 433,-76 447.12,-61.49 460.14,-42.31 468.69,-28.55"/>
<polygon fill="midnightblue" stroke="midnightblue" points="471.91,-30 474.09,-19.63 465.92,-26.38 471.91,-30"/>
</g>
<!-- Node8 -->
<g id="node8" class="node">
<title>Node8</title>
<g id="a_node8"><a xlink:title=" ">
<polygon fill="none" stroke="#bfbfbf" points="370,-56.5 370,-75.5 424,-75.5 424,-56.5 370,-56.5"/>
<text text-anchor="middle" x="397" y="-63.5" font-family="Helvetica,sans-Serif" font-size="10.00">iostream</text>
</a>
</g>
</g>
<!-- Node6&#45;&gt;Node8 -->
<g id="edge7" class="edge">
<title>Node6&#45;&gt;Node8</title>
<path fill="none" stroke="midnightblue" d="M376.96,-112.08C380.21,-104.77 384.92,-94.18 388.95,-85.1"/>
<polygon fill="midnightblue" stroke="midnightblue" points="392.25,-86.31 393.11,-75.75 385.85,-83.47 392.25,-86.31"/>
</g>
<!-- Node9 -->
<g id="node9" class="node">
<title>Node9</title>
<g id="a_node9"><a xlink:title=" ">
<polygon fill="none" stroke="#bfbfbf" points="190,-56.5 190,-75.5 234,-75.5 234,-56.5 190,-56.5"/>
<text text-anchor="middle" x="212" y="-63.5" font-family="Helvetica,sans-Serif" font-size="10.00">vector</text>
</a>
</g>
</g>
<!-- Node6&#45;&gt;Node9 -->
<g id="edge10" class="edge">
<title>Node6&#45;&gt;Node9</title>
<path fill="none" stroke="midnightblue" d="M347.49,-112.44C319.45,-103.04 274.36,-87.91 243.97,-77.72"/>
<polygon fill="midnightblue" stroke="midnightblue" points="244.87,-74.33 234.28,-74.47 242.65,-80.97 244.87,-74.33"/>
</g>
<!-- Node10 -->
<g id="node10" class="node">
<title>Node10</title>
<g id="a_node10"><a xlink:href="lib_2include_2utility_8h.html" target="_top" xlink:title="internal utility functions">
<polygon fill="none" stroke="black" points="533.5,-56.5 533.5,-75.5 580.5,-75.5 580.5,-56.5 533.5,-56.5"/>
<text text-anchor="middle" x="557" y="-63.5" font-family="Helvetica,sans-Serif" font-size="10.00">utility.h</text>
</a>
</g>
</g>
<!-- Node6&#45;&gt;Node10 -->
<g id="edge12" class="edge">
<title>Node6&#45;&gt;Node10</title>
<path fill="none" stroke="midnightblue" d="M402.16,-112.44C435.17,-102.75 488.88,-86.99 523.57,-76.81"/>
<polygon fill="midnightblue" stroke="midnightblue" points="524.64,-80.15 533.25,-73.97 522.67,-73.43 524.64,-80.15"/>
</g>
<!-- Node10&#45;&gt;Node5 -->
<g id="edge15" class="edge">
<title>Node10&#45;&gt;Node5</title>
<path fill="none" stroke="midnightblue" d="M533.16,-60.3C483.38,-50.49 368.44,-27.84 313.42,-17"/>
<polygon fill="midnightblue" stroke="midnightblue" points="314.05,-13.55 303.56,-15.05 312.7,-20.42 314.05,-13.55"/>
</g>
<!-- Node10&#45;&gt;Node7 -->
<g id="edge13" class="edge">
<title>Node10&#45;&gt;Node7</title>
<path fill="none" stroke="midnightblue" d="M544.47,-56.32C532.41,-47.98 513.97,-35.21 499.73,-25.35"/>
<polygon fill="midnightblue" stroke="midnightblue" points="501.72,-22.47 491.5,-19.65 497.73,-28.22 501.72,-22.47"/>
</g>
<!-- Node11 -->
<g id="node11" class="node">
<title>Node11</title>
<g id="a_node11"><a xlink:title=" ">
<polygon fill="none" stroke="#bfbfbf" points="626.5,-0.5 626.5,-19.5 685.5,-19.5 685.5,-0.5 626.5,-0.5"/>
<text text-anchor="middle" x="656" y="-7.5" font-family="Helvetica,sans-Serif" font-size="10.00">functional</text>
</a>
</g>
</g>
<!-- Node10&#45;&gt;Node11 -->
<g id="edge14" class="edge">
<title>Node10&#45;&gt;Node11</title>
<path fill="none" stroke="midnightblue" d="M572.91,-56.32C588.64,-47.74 612.94,-34.49 631.21,-24.52"/>
<polygon fill="midnightblue" stroke="midnightblue" points="633.03,-27.52 640.13,-19.65 629.68,-21.37 633.03,-27.52"/>
</g>
<!-- Node12 -->
<g id="node12" class="node">
<title>Node12</title>
<g id="a_node12"><a xlink:title=" ">
<polygon fill="none" stroke="#bfbfbf" points="525.5,-0.5 525.5,-19.5 608.5,-19.5 608.5,-0.5 525.5,-0.5"/>
<text text-anchor="middle" x="567" y="-7.5" font-family="Helvetica,sans-Serif" font-size="10.00">unordered_map</text>
</a>
</g>
</g>
<!-- Node10&#45;&gt;Node12 -->
<g id="edge16" class="edge">
<title>Node10&#45;&gt;Node12</title>
<path fill="none" stroke="midnightblue" d="M558.65,-56.08C559.98,-48.93 561.88,-38.64 563.54,-29.69"/>
<polygon fill="midnightblue" stroke="midnightblue" points="567,-30.22 565.38,-19.75 560.12,-28.95 567,-30.22"/>
</g>
<!-- Node13&#45;&gt;Node3 -->
<g id="edge22" class="edge">
<title>Node13&#45;&gt;Node3</title>
<path fill="none" stroke="midnightblue" d="M85.24,-112.44C127.98,-102.62 197.87,-86.56 242.1,-76.4"/>
<polygon fill="midnightblue" stroke="midnightblue" points="242.98,-79.79 251.94,-74.14 241.41,-72.97 242.98,-79.79"/>
</g>
<!-- Node13&#45;&gt;Node5 -->
<g id="edge20" class="edge">
<title>Node13&#45;&gt;Node5</title>
<path fill="none" stroke="midnightblue" d="M53.76,-112.38C63.6,-98.36 85,-70.71 110,-56 155.28,-29.36 216.33,-18.28 252.49,-13.82"/>
<polygon fill="midnightblue" stroke="midnightblue" points="252.89,-17.3 262.43,-12.69 252.1,-10.34 252.89,-17.3"/>
</g>
<!-- Node13&#45;&gt;Node9 -->
<g id="edge21" class="edge">
<title>Node13&#45;&gt;Node9</title>
<path fill="none" stroke="midnightblue" d="M73.99,-112.44C102.71,-102.99 149.01,-87.74 179.96,-77.55"/>
<polygon fill="midnightblue" stroke="midnightblue" points="181.41,-80.76 189.82,-74.3 179.22,-74.11 181.41,-80.76"/>
</g>
<!-- Node14 -->
<g id="node14" class="node">
<title>Node14</title>
<g id="a_node14"><a xlink:title=" ">
<polygon fill="none" stroke="#bfbfbf" points="16.5,-56.5 16.5,-75.5 57.5,-75.5 57.5,-56.5 16.5,-56.5"/>
<text text-anchor="middle" x="37" y="-63.5" font-family="Helvetica,sans-Serif" font-size="10.00">regex</text>
</a>
</g>
</g>
<!-- Node13&#45;&gt;Node14 -->
<g id="edge19" class="edge">
<title>Node13&#45;&gt;Node14</title>
<path fill="none" stroke="midnightblue" d="M46.18,-112.08C44.73,-104.93 42.63,-94.64 40.81,-85.69"/>
<polygon fill="midnightblue" stroke="midnightblue" points="44.21,-84.85 38.78,-75.75 37.35,-86.25 44.21,-84.85"/>
</g>
<!-- Node15&#45;&gt;Node2 -->
<g id="edge24" class="edge">
<title>Node15&#45;&gt;Node2</title>
<path fill="none" stroke="midnightblue" d="M264.48,-224.32C273.2,-216.34 286.34,-204.31 296.9,-194.65"/>
<polygon fill="midnightblue" stroke="midnightblue" points="299.33,-197.17 304.35,-187.83 294.61,-192 299.33,-197.17"/>
</g>
<!-- Node15&#45;&gt;Node3 -->
<g id="edge25" class="edge">
<title>Node15&#45;&gt;Node3</title>
<path fill="none" stroke="midnightblue" d="M256.51,-224.08C260.91,-197.95 273.86,-121.21 279.87,-85.58"/>
<polygon fill="midnightblue" stroke="midnightblue" points="283.34,-86.01 281.55,-75.57 276.44,-84.85 283.34,-86.01"/>
</g>
<!-- Node15&#45;&gt;Node5 -->
<g id="edge38" class="edge">
<title>Node15&#45;&gt;Node5</title>
<path fill="none" stroke="midnightblue" d="M245.11,-224.39C215.85,-197.85 134.16,-115.55 174,-56 191.31,-30.13 226.51,-19.11 252.24,-14.44"/>
<polygon fill="midnightblue" stroke="midnightblue" points="252.94,-17.87 262.27,-12.84 251.84,-10.96 252.94,-17.87"/>
</g>
<!-- Node15&#45;&gt;Node9 -->
<g id="edge39" class="edge">
<title>Node15&#45;&gt;Node9</title>
<path fill="none" stroke="midnightblue" d="M252.69,-224.08C245.92,-197.95 226.04,-121.21 216.81,-85.58"/>
<polygon fill="midnightblue" stroke="midnightblue" points="220.12,-84.37 214.22,-75.57 213.34,-86.13 220.12,-84.37"/>
</g>
<!-- Node15&#45;&gt;Node16 -->
<g id="edge26" class="edge">
<title>Node15&#45;&gt;Node16</title>
<path fill="none" stroke="midnightblue" d="M286.19,-226.96C336.12,-217.3 434.13,-198.33 490.78,-187.37"/>
<polygon fill="midnightblue" stroke="midnightblue" points="491.7,-190.75 500.85,-185.42 490.37,-183.88 491.7,-190.75"/>
</g>
<!-- Node16&#45;&gt;Node3 -->
<g id="edge35" class="edge">
<title>Node16&#45;&gt;Node3</title>
<path fill="none" stroke="midnightblue" d="M534.14,-168.38C533.87,-154.37 531.16,-126.73 515,-112 501.03,-99.27 387,-81.56 324.17,-72.62"/>
<polygon fill="midnightblue" stroke="midnightblue" points="324.57,-69.15 314.18,-71.22 323.6,-76.08 324.57,-69.15"/>
</g>
<!-- Node16&#45;&gt;Node4 -->
<g id="edge31" class="edge">
<title>Node16&#45;&gt;Node4</title>
<path fill="none" stroke="midnightblue" d="M567.12,-177.78C643.64,-178.79 829.1,-176.49 868,-132 894.27,-101.96 865.3,-53.26 846.5,-27.77"/>
<polygon fill="midnightblue" stroke="midnightblue" points="849.24,-25.6 840.38,-19.79 843.69,-29.86 849.24,-25.6"/>
</g>
<!-- Node16&#45;&gt;Node5 -->
<g id="edge33" class="edge">
<title>Node16&#45;&gt;Node5</title>
<path fill="none" stroke="midnightblue" d="M505.72,-168.43C487.46,-161.47 464.65,-149.83 451,-132 429.9,-104.44 456.81,-81.26 433,-56 401.95,-23.07 347.85,-13.94 313.81,-11.58"/>
<polygon fill="midnightblue" stroke="midnightblue" points="313.69,-8.07 303.51,-11.03 313.31,-15.06 313.69,-8.07"/>
</g>
<!-- Node16&#45;&gt;Node6 -->
<g id="edge36" class="edge">
<title>Node16&#45;&gt;Node6</title>
<path fill="none" stroke="midnightblue" d="M508.49,-168.44C481.4,-159.36 438.41,-144.94 408.13,-134.78"/>
<polygon fill="midnightblue" stroke="midnightblue" points="408.99,-131.38 398.39,-131.52 406.76,-138.01 408.99,-131.38"/>
</g>
<!-- Node16&#45;&gt;Node9 -->
<g id="edge34" class="edge">
<title>Node16&#45;&gt;Node9</title>
<path fill="none" stroke="midnightblue" d="M500.83,-172.42C460.32,-166.18 390.13,-153.28 333,-132 296.5,-118.4 257.33,-95.7 233.74,-81.04"/>
<polygon fill="midnightblue" stroke="midnightblue" points="235.55,-78.04 225.22,-75.67 231.81,-83.96 235.55,-78.04"/>
</g>
<!-- Node16&#45;&gt;Node10 -->
<g id="edge37" class="edge">
<title>Node16&#45;&gt;Node10</title>
<path fill="none" stroke="midnightblue" d="M537.11,-168.49C540.27,-159.52 545.11,-144.94 548,-132 551.42,-116.69 553.76,-99.05 555.2,-86.01"/>
<polygon fill="midnightblue" stroke="midnightblue" points="558.7,-86.22 556.23,-75.91 551.73,-85.51 558.7,-86.22"/>
</g>
<!-- Node17 -->
<g id="node17" class="node">
<title>Node17</title>
<g id="a_node17"><a xlink:title=" ">
<polygon fill="none" stroke="#bfbfbf" points="662.5,-112.5 662.5,-131.5 721.5,-131.5 721.5,-112.5 662.5,-112.5"/>
<text text-anchor="middle" x="692" y="-119.5" font-family="Helvetica,sans-Serif" font-size="10.00">curl/curl.h</text>
</a>
</g>
</g>
<!-- Node16&#45;&gt;Node17 -->
<g id="edge27" class="edge">
<title>Node16&#45;&gt;Node17</title>
<path fill="none" stroke="midnightblue" d="M559.04,-168.44C585.62,-159.36 627.81,-144.94 657.52,-134.78"/>
<polygon fill="midnightblue" stroke="midnightblue" points="658.75,-138.06 667.08,-131.52 656.49,-131.44 658.75,-138.06"/>
</g>
<!-- Node18 -->
<g id="node18" class="node">
<title>Node18</title>
<g id="a_node18"><a xlink:title=" ">
<polygon fill="none" stroke="#bfbfbf" points="739.5,-112.5 739.5,-131.5 802.5,-131.5 802.5,-112.5 739.5,-112.5"/>
<text text-anchor="middle" x="771" y="-119.5" font-family="Helvetica,sans-Serif" font-size="10.00">curl/easy.h</text>
</a>
</g>
</g>
<!-- Node16&#45;&gt;Node18 -->
<g id="edge28" class="edge">
<title>Node16&#45;&gt;Node18</title>
<path fill="none" stroke="midnightblue" d="M567.2,-169.43C609.6,-159.77 683,-143.05 729.17,-132.53"/>
<polygon fill="midnightblue" stroke="midnightblue" points="730.18,-135.89 739.16,-130.26 728.63,-129.06 730.18,-135.89"/>
</g>
<!-- Node19 -->
<g id="node19" class="node">
<title>Node19</title>
<g id="a_node19"><a xlink:title=" ">
<polygon fill="none" stroke="#bfbfbf" points="821,-112.5 821,-131.5 859,-131.5 859,-112.5 821,-112.5"/>
<text text-anchor="middle" x="840" y="-119.5" font-family="Helvetica,sans-Serif" font-size="10.00">array</text>
</a>
</g>
</g>
<!-- Node16&#45;&gt;Node19 -->
<g id="edge29" class="edge">
<title>Node16&#45;&gt;Node19</title>
<path fill="none" stroke="midnightblue" d="M567.27,-173.26C617.96,-167.2 717.65,-153.9 810.95,-131.95"/>
<polygon fill="midnightblue" stroke="midnightblue" points="811.92,-135.31 820.83,-129.58 810.29,-128.51 811.92,-135.31"/>
</g>
<!-- Node20 -->
<g id="node20" class="node">
<title>Node20</title>
<g id="a_node20"><a xlink:title=" ">
<polygon fill="none" stroke="#bfbfbf" points="460,-112.5 460,-131.5 506,-131.5 506,-112.5 460,-112.5"/>
<text text-anchor="middle" x="483" y="-119.5" font-family="Helvetica,sans-Serif" font-size="10.00">atomic</text>
</a>
</g>
</g>
<!-- Node16&#45;&gt;Node20 -->
<g id="edge30" class="edge">
<title>Node16&#45;&gt;Node20</title>
<path fill="none" stroke="midnightblue" d="M525.58,-168.08C518.15,-160.22 507.15,-148.57 498.19,-139.08"/>
<polygon fill="midnightblue" stroke="midnightblue" points="500.68,-136.62 491.26,-131.75 495.59,-141.42 500.68,-136.62"/>
</g>
<!-- Node21 -->
<g id="node21" class="node">
<title>Node21</title>
<g id="a_node21"><a xlink:title=" ">
<polygon fill="none" stroke="#bfbfbf" points="600,-112.5 600,-131.5 644,-131.5 644,-112.5 600,-112.5"/>
<text text-anchor="middle" x="622" y="-119.5" font-family="Helvetica,sans-Serif" font-size="10.00">mutex</text>
</a>
</g>
</g>
<!-- Node16&#45;&gt;Node21 -->
<g id="edge32" class="edge">
<title>Node16&#45;&gt;Node21</title>
<path fill="none" stroke="midnightblue" d="M548.14,-168.32C561.87,-159.9 582.94,-146.97 599.06,-137.07"/>
<polygon fill="midnightblue" stroke="midnightblue" points="601.2,-139.87 607.9,-131.65 597.54,-133.9 601.2,-139.87"/>
</g>
</g>
</svg>
