<?xml version="1.0" encoding="UTF-8" standalone="no"?>
<!DOCTYPE svg PUBLIC "-//W3C//DTD SVG 1.1//EN"
 "http://www.w3.org/Graphics/SVG/1.1/DTD/svg11.dtd">
<!-- Generated by graphviz version 8.0.5 (20230430.1635)
 -->
<!-- Title: /Users/ugovaretto/projects/s3client/repo/lib/include/s3&#45;api.h Pages: 1 -->
<!--zoomable 326 -->
<svg id="main" version="1.1" xmlns="http://www.w3.org/2000/svg" xmlns:xlink="http://www.w3.org/1999/xlink" xml:space="preserve" onload="init(evt)">
<style type="text/css"><![CDATA[
.edge:hover path { stroke: red; }
.edge:hover polygon { stroke: red; fill: red; }
]]></style>
<script type="text/javascript"><![CDATA[
var edges = document.getElementsByTagName('g');
if (edges && edges.length) {
  for (var i=0;i<edges.length;i++) {
    if (edges[i].id.substr(0,4)=='edge') {
      edges[i].setAttribute('class','edge');
    }
  }
}
]]></script>
        <defs>
                <circle id="rim" cx="0" cy="0" r="7"/>
                <circle id="rim2" cx="0" cy="0" r="3.5"/>
                <g id="zoomPlus">
                        <use xlink:href="#rim" fill="#404040">
                                <set attributeName="fill" to="#808080" begin="zoomplus.mouseover" end="zoomplus.mouseout"/>
                        </use>
                        <path d="M-4,0h8M0,-4v8" fill="none" stroke="white" stroke-width="1.5" pointer-events="none"/>
                </g>
                <g id="zoomMin">
                        <use xlink:href="#rim" fill="#404040">
                                <set attributeName="fill" to="#808080" begin="zoomminus.mouseover" end="zoomminus.mouseout"/>
                        </use>
                        <path d="M-4,0h8" fill="none" stroke="white" stroke-width="1.5" pointer-events="none"/>
                </g>
                <g id="dirArrow">
                        <path fill="none" stroke="white" stroke-width="1.5" d="M0,-3.0v7 M-2.5,-0.5L0,-3.0L2.5,-0.5"/>
                </g>
               <g id="resetDef">
                       <use xlink:href="#rim2" fill="#404040">
                               <set attributeName="fill" to="#808080" begin="reset.mouseover" end="reset.mouseout"/>
                       </use>
               </g>
        </defs>

<script type="text/javascript">
var viewWidth = 902;
var viewHeight = 326;
var sectionId = 'dynsection-0';
</script>
<script xlink:href="svgpan.js"/>
<svg id="graph" class="graph">
<g id="viewport">
<title>/Users/ugovaretto/projects/s3client/repo/lib/include/s3&#45;api.h</title>
<!-- Node1 -->
<g id="node1" class="node">
<title>Node1</title>
<g id="a_node1"><a xlink:title="declarations of S3Api class.">
<polygon fill="#999999" stroke="#666666" points="279.5,-318 148,-318 148,-276.25 279.5,-276.25 279.5,-318"/>
<text text-anchor="start" x="156" y="-304.5" font-family="Helvetica,sans-Serif" font-size="10.00">/Users/ugovaretto/projects</text>
<text text-anchor="start" x="156" y="-293.25" font-family="Helvetica,sans-Serif" font-size="10.00">/s3client/repo/lib/include</text>
<text text-anchor="middle" x="213.75" y="-282" font-family="Helvetica,sans-Serif" font-size="10.00">/s3&#45;api.h</text>
</a>
</g>
</g>
<!-- Node2 -->
<g id="node2" class="node">
<title>Node2</title>
<g id="a_node2"><a xlink:href="aws__sign_8h.html" target="_top" xlink:title="Public interface to signing URLs and HTTP headers with the S3v4 protocol standard.">
<polygon fill="white" stroke="#666666" points="217.5,-185 152,-185 152,-165.75 217.5,-165.75 217.5,-185"/>
<text text-anchor="middle" x="184.75" y="-171.5" font-family="Helvetica,sans-Serif" font-size="10.00">aws_sign.h</text>
</a>
</g>
</g>
<!-- Node1&#45;&gt;Node2 -->
<g id="edge1" class="edge">
<title>Node1&#45;&gt;Node2</title>
<path fill="none" stroke="#63b8ff" d="M208.83,-275.81C203.43,-253.52 194.82,-217.97 189.49,-195.97"/>
<polygon fill="#63b8ff" stroke="#63b8ff" points="192.67,-195.2 186.91,-186.31 185.86,-196.85 192.67,-195.2"/>
</g>
<!-- Node13 -->
<g id="node13" class="node">
<title>Node13</title>
<g id="a_node13"><a xlink:href="response__parser_8h.html" target="_top" xlink:title="Functions to parse XML and HTTP headers.">
<polygon fill="white" stroke="#666666" points="95.5,-129.75 0,-129.75 0,-110.5 95.5,-110.5 95.5,-129.75"/>
<text text-anchor="middle" x="47.75" y="-116.25" font-family="Helvetica,sans-Serif" font-size="10.00">response_parser.h</text>
</a>
</g>
</g>
<!-- Node1&#45;&gt;Node13 -->
<g id="edge18" class="edge">
<title>Node1&#45;&gt;Node13</title>
<path fill="none" stroke="#63b8ff" d="M194.71,-276.05C161.56,-241.11 93.88,-169.76 63.33,-137.55"/>
<polygon fill="#63b8ff" stroke="#63b8ff" points="66.5,-135.75 57.08,-130.91 61.42,-140.57 66.5,-135.75"/>
</g>
<!-- Node15 -->
<g id="node15" class="node">
<title>Node15</title>
<g id="a_node15"><a xlink:href="s3-client_8h.html" target="_top" xlink:title="declaration of functions and data types for sending S3 requests, signing URLs and downloading and upl...">
<polygon fill="white" stroke="#666666" points="275.25,-240.25 214.25,-240.25 214.25,-221 275.25,-221 275.25,-240.25"/>
<text text-anchor="middle" x="244.75" y="-226.75" font-family="Helvetica,sans-Serif" font-size="10.00">s3&#45;client.h</text>
</a>
</g>
</g>
<!-- Node1&#45;&gt;Node15 -->
<g id="edge23" class="edge">
<title>Node1&#45;&gt;Node15</title>
<path fill="none" stroke="#63b8ff" d="M223.39,-276.07C227.3,-267.93 231.79,-258.58 235.65,-250.57"/>
<polygon fill="#63b8ff" stroke="#63b8ff" points="239.21,-252.22 240.39,-241.7 232.9,-249.19 239.21,-252.22"/>
</g>
<!-- Node16 -->
<g id="node16" class="node">
<title>Node16</title>
<g id="a_node16"><a xlink:href="webclient_8h.html" target="_top" xlink:title="declaration of WebClient class wrapping libcurl to send web requests.">
<polygon fill="white" stroke="#666666" points="577.5,-185 512,-185 512,-165.75 577.5,-165.75 577.5,-185"/>
<text text-anchor="middle" x="544.75" y="-171.5" font-family="Helvetica,sans-Serif" font-size="10.00">webclient.h</text>
</a>
</g>
</g>
<!-- Node1&#45;&gt;Node16 -->
<g id="edge40" class="edge">
<title>Node1&#45;&gt;Node16</title>
<path fill="none" stroke="#63b8ff" d="M269.9,-275.81C338.49,-251 452.43,-209.78 509.66,-189.07"/>
<polygon fill="#63b8ff" stroke="#63b8ff" points="510.45,-192.14 518.67,-185.45 508.07,-185.56 510.45,-192.14"/>
</g>
<!-- Node3 -->
<g id="node3" class="node">
<title>Node3</title>
<g id="a_node3"><a xlink:href="common_8h.html" target="_top" xlink:title="Common definitions.">
<polygon fill="white" stroke="#666666" points="251.62,-74.5 189.88,-74.5 189.88,-55.25 251.62,-55.25 251.62,-74.5"/>
<text text-anchor="middle" x="220.75" y="-61" font-family="Helvetica,sans-Serif" font-size="10.00">common.h</text>
</a>
</g>
</g>
<!-- Node2&#45;&gt;Node3 -->
<g id="edge2" class="edge">
<title>Node2&#45;&gt;Node3</title>
<path fill="none" stroke="#63b8ff" d="M187.7,-165.5C193.5,-148.01 206.52,-108.77 214.38,-85.09"/>
<polygon fill="#63b8ff" stroke="#63b8ff" points="217.94,-86.47 217.76,-75.88 211.29,-84.27 217.94,-86.47"/>
</g>
<!-- Node5 -->
<g id="node5" class="node">
<title>Node5</title>
<g id="a_node5"><a xlink:title=" ">
<polygon fill="#e0e0e0" stroke="#999999" points="240.75,-19.25 200.75,-19.25 200.75,0 240.75,0 240.75,-19.25"/>
<text text-anchor="middle" x="220.75" y="-5.75" font-family="Helvetica,sans-Serif" font-size="10.00">string</text>
</a>
</g>
</g>
<!-- Node2&#45;&gt;Node5 -->
<g id="edge17" class="edge">
<title>Node2&#45;&gt;Node5</title>
<path fill="none" stroke="#63b8ff" d="M182.14,-165.32C176.72,-144.87 165.96,-93.9 180.75,-55.25 184.93,-44.32 193.16,-34.38 201.08,-26.67"/>
<polygon fill="#63b8ff" stroke="#63b8ff" points="202.66,-30.05 207.72,-20.74 197.96,-24.86 202.66,-30.05"/>
</g>
<!-- Node6 -->
<g id="node6" class="node">
<title>Node6</title>
<g id="a_node6"><a xlink:href="url__utility_8h.html" target="_top" xlink:title="Internal utility functions to process and parse text and URLs and create S3 signature keys.">
<polygon fill="white" stroke="#666666" points="365.62,-129.75 303.88,-129.75 303.88,-110.5 365.62,-110.5 365.62,-129.75"/>
<text text-anchor="middle" x="334.75" y="-116.25" font-family="Helvetica,sans-Serif" font-size="10.00">url_utility.h</text>
</a>
</g>
</g>
<!-- Node2&#45;&gt;Node6 -->
<g id="edge5" class="edge">
<title>Node2&#45;&gt;Node6</title>
<path fill="none" stroke="#63b8ff" d="M210.2,-165.34C234.55,-156.7 271.51,-143.57 298.85,-133.87"/>
<polygon fill="#63b8ff" stroke="#63b8ff" points="299.93,-136.85 308.18,-130.2 297.58,-130.25 299.93,-136.85"/>
</g>
<!-- Node4 -->
<g id="node4" class="node">
<title>Node4</title>
<g id="a_node4"><a xlink:title=" ">
<polygon fill="#e0e0e0" stroke="#999999" points="407.12,-19.25 372.38,-19.25 372.38,0 407.12,0 407.12,-19.25"/>
<text text-anchor="middle" x="389.75" y="-5.75" font-family="Helvetica,sans-Serif" font-size="10.00">map</text>
</a>
</g>
</g>
<!-- Node3&#45;&gt;Node4 -->
<g id="edge3" class="edge">
<title>Node3&#45;&gt;Node4</title>
<path fill="none" stroke="#63b8ff" d="M249.42,-54.84C280.92,-44.91 331.17,-29.08 362.22,-19.3"/>
<polygon fill="#63b8ff" stroke="#63b8ff" points="362.85,-22.45 371.34,-16.11 360.75,-15.78 362.85,-22.45"/>
</g>
<!-- Node3&#45;&gt;Node5 -->
<g id="edge4" class="edge">
<title>Node3&#45;&gt;Node5</title>
<path fill="none" stroke="#63b8ff" d="M220.75,-55.08C220.75,-48.42 220.75,-38.99 220.75,-30.53"/>
<polygon fill="#63b8ff" stroke="#63b8ff" points="224.25,-30.61 220.75,-20.61 217.25,-30.61 224.25,-30.61"/>
</g>
<!-- Node6&#45;&gt;Node3 -->
<g id="edge11" class="edge">
<title>Node6&#45;&gt;Node3</title>
<path fill="none" stroke="#63b8ff" d="M315.41,-110.09C297.48,-101.72 270.54,-89.13 249.98,-79.53"/>
<polygon fill="#63b8ff" stroke="#63b8ff" points="251.72,-76.01 241.18,-74.95 248.76,-82.36 251.72,-76.01"/>
</g>
<!-- Node6&#45;&gt;Node4 -->
<g id="edge8" class="edge">
<title>Node6&#45;&gt;Node4</title>
<path fill="none" stroke="#63b8ff" d="M343.63,-110.31C351.74,-101.81 363.52,-88.25 370.75,-74.5 378.09,-60.54 383,-43.34 385.98,-30.31"/>
<polygon fill="#63b8ff" stroke="#63b8ff" points="389.58,-31.23 388.2,-20.72 382.73,-29.79 389.58,-31.23"/>
</g>
<!-- Node6&#45;&gt;Node5 -->
<g id="edge9" class="edge">
<title>Node6&#45;&gt;Node5</title>
<path fill="none" stroke="#63b8ff" d="M325.42,-110.25C306.3,-92.05 262.4,-50.27 237.97,-27.01"/>
<polygon fill="#63b8ff" stroke="#63b8ff" points="240.86,-24.99 231.21,-20.63 236.04,-30.06 240.86,-24.99"/>
</g>
<!-- Node7 -->
<g id="node7" class="node">
<title>Node7</title>
<g id="a_node7"><a xlink:title=" ">
<polygon fill="#e0e0e0" stroke="#999999" points="552.62,-19.25 496.88,-19.25 496.88,0 552.62,0 552.62,-19.25"/>
<text text-anchor="middle" x="524.75" y="-5.75" font-family="Helvetica,sans-Serif" font-size="10.00">algorithm</text>
</a>
</g>
</g>
<!-- Node6&#45;&gt;Node7 -->
<g id="edge6" class="edge">
<title>Node6&#45;&gt;Node7</title>
<path fill="none" stroke="#63b8ff" d="M350.62,-110.06C383.52,-91.27 459.4,-47.94 499.25,-25.18"/>
<polygon fill="#63b8ff" stroke="#63b8ff" points="500.84,-27.74 507.79,-19.74 497.37,-21.66 500.84,-27.74"/>
</g>
<!-- Node8 -->
<g id="node8" class="node">
<title>Node8</title>
<g id="a_node8"><a xlink:title=" ">
<polygon fill="#e0e0e0" stroke="#999999" points="361.5,-74.5 308,-74.5 308,-55.25 361.5,-55.25 361.5,-74.5"/>
<text text-anchor="middle" x="334.75" y="-61" font-family="Helvetica,sans-Serif" font-size="10.00">iostream</text>
</a>
</g>
</g>
<!-- Node6&#45;&gt;Node8 -->
<g id="edge7" class="edge">
<title>Node6&#45;&gt;Node8</title>
<path fill="none" stroke="#63b8ff" d="M334.75,-110.33C334.75,-103.67 334.75,-94.24 334.75,-85.78"/>
<polygon fill="#63b8ff" stroke="#63b8ff" points="338.25,-85.86 334.75,-75.86 331.25,-85.86 338.25,-85.86"/>
</g>
<!-- Node9 -->
<g id="node9" class="node">
<title>Node9</title>
<g id="a_node9"><a xlink:title=" ">
<polygon fill="#e0e0e0" stroke="#999999" points="499.25,-74.5 456.25,-74.5 456.25,-55.25 499.25,-55.25 499.25,-74.5"/>
<text text-anchor="middle" x="477.75" y="-61" font-family="Helvetica,sans-Serif" font-size="10.00">vector</text>
</a>
</g>
</g>
<!-- Node6&#45;&gt;Node9 -->
<g id="edge10" class="edge">
<title>Node6&#45;&gt;Node9</title>
<path fill="none" stroke="#63b8ff" d="M359.01,-110.09C382.96,-101.17 419.71,-87.49 445.98,-77.7"/>
<polygon fill="#63b8ff" stroke="#63b8ff" points="447.03,-80.68 455.18,-73.91 444.59,-74.12 447.03,-80.68"/>
</g>
<!-- Node10 -->
<g id="node10" class="node">
<title>Node10</title>
<g id="a_node10"><a xlink:href="lib_2include_2utility_8h.html" target="_top" xlink:title="internal utility functions">
<polygon fill="white" stroke="#666666" points="706.75,-74.5 660.75,-74.5 660.75,-55.25 706.75,-55.25 706.75,-74.5"/>
<text text-anchor="middle" x="683.75" y="-61" font-family="Helvetica,sans-Serif" font-size="10.00">utility.h</text>
</a>
</g>
</g>
<!-- Node6&#45;&gt;Node10 -->
<g id="edge12" class="edge">
<title>Node6&#45;&gt;Node10</title>
<path fill="none" stroke="#63b8ff" d="M366.03,-114.35C431.48,-104.37 582.41,-81.34 649.98,-71.03"/>
<polygon fill="#63b8ff" stroke="#63b8ff" points="650.1,-74.4 659.46,-69.43 649.04,-67.48 650.1,-74.4"/>
</g>
<!-- Node10&#45;&gt;Node5 -->
<g id="edge15" class="edge">
<title>Node10&#45;&gt;Node5</title>
<path fill="none" stroke="#63b8ff" d="M660.47,-61.2C583.78,-52.38 338.98,-24.22 251.88,-14.21"/>
<polygon fill="#63b8ff" stroke="#63b8ff" points="252.47,-10.63 242.13,-12.97 251.67,-17.59 252.47,-10.63"/>
</g>
<!-- Node10&#45;&gt;Node7 -->
<g id="edge13" class="edge">
<title>Node10&#45;&gt;Node7</title>
<path fill="none" stroke="#63b8ff" d="M660.29,-56.02C634.4,-47.35 592.39,-33.28 561.99,-23.1"/>
<polygon fill="#63b8ff" stroke="#63b8ff" points="563.36,-19.53 552.77,-19.67 561.14,-26.17 563.36,-19.53"/>
</g>
<!-- Node11 -->
<g id="node11" class="node">
<title>Node11</title>
<g id="a_node11"><a xlink:title=" ">
<polygon fill="#e0e0e0" stroke="#999999" points="756.75,-19.25 698.75,-19.25 698.75,0 756.75,0 756.75,-19.25"/>
<text text-anchor="middle" x="727.75" y="-5.75" font-family="Helvetica,sans-Serif" font-size="10.00">functional</text>
</a>
</g>
</g>
<!-- Node10&#45;&gt;Node11 -->
<g id="edge14" class="edge">
<title>Node10&#45;&gt;Node11</title>
<path fill="none" stroke="#63b8ff" d="M691.02,-55.08C697.09,-47.73 705.95,-37.01 713.44,-27.94"/>
<polygon fill="#63b8ff" stroke="#63b8ff" points="716.65,-30.55 720.33,-20.61 711.26,-26.09 716.65,-30.55"/>
</g>
<!-- Node12 -->
<g id="node12" class="node">
<title>Node12</title>
<g id="a_node12"><a xlink:title=" ">
<polygon fill="#e0e0e0" stroke="#999999" points="681.12,-19.25 598.38,-19.25 598.38,0 681.12,0 681.12,-19.25"/>
<text text-anchor="middle" x="639.75" y="-5.75" font-family="Helvetica,sans-Serif" font-size="10.00">unordered_map</text>
</a>
</g>
</g>
<!-- Node10&#45;&gt;Node12 -->
<g id="edge16" class="edge">
<title>Node10&#45;&gt;Node12</title>
<path fill="none" stroke="#63b8ff" d="M676.48,-55.08C670.41,-47.73 661.55,-37.01 654.06,-27.94"/>
<polygon fill="#63b8ff" stroke="#63b8ff" points="656.24,-26.09 647.17,-20.61 650.85,-30.55 656.24,-26.09"/>
</g>
<!-- Node13&#45;&gt;Node3 -->
<g id="edge22" class="edge">
<title>Node13&#45;&gt;Node3</title>
<path fill="none" stroke="#63b8ff" d="M77.1,-110.09C105.68,-101.29 149.33,-87.86 181.01,-78.11"/>
<polygon fill="#63b8ff" stroke="#63b8ff" points="181.73,-81.24 190.26,-74.95 179.67,-74.55 181.73,-81.24"/>
</g>
<!-- Node13&#45;&gt;Node5 -->
<g id="edge20" class="edge">
<title>Node13&#45;&gt;Node5</title>
<path fill="none" stroke="#63b8ff" d="M44.45,-110.2C40.1,-96.75 34.38,-71.2 46.75,-55.25 64.11,-32.88 144.41,-19.79 189.61,-14.07"/>
<polygon fill="#63b8ff" stroke="#63b8ff" points="189.78,-17.46 199.28,-12.78 188.94,-10.51 189.78,-17.46"/>
</g>
<!-- Node13&#45;&gt;Node9 -->
<g id="edge21" class="edge">
<title>Node13&#45;&gt;Node9</title>
<path fill="none" stroke="#63b8ff" d="M95.82,-113.17C184.21,-102.23 370.32,-79.18 445.37,-69.89"/>
<polygon fill="#63b8ff" stroke="#63b8ff" points="445.52,-73.27 455.02,-68.57 444.66,-66.32 445.52,-73.27"/>
</g>
<!-- Node14 -->
<g id="node14" class="node">
<title>Node14</title>
<g id="a_node14"><a xlink:title=" ">
<polygon fill="#e0e0e0" stroke="#999999" points="95.75,-74.5 55.75,-74.5 55.75,-55.25 95.75,-55.25 95.75,-74.5"/>
<text text-anchor="middle" x="75.75" y="-61" font-family="Helvetica,sans-Serif" font-size="10.00">regex</text>
</a>
</g>
</g>
<!-- Node13&#45;&gt;Node14 -->
<g id="edge19" class="edge">
<title>Node13&#45;&gt;Node14</title>
<path fill="none" stroke="#63b8ff" d="M52.37,-110.33C56.08,-103.28 61.41,-93.15 66.04,-84.33"/>
<polygon fill="#63b8ff" stroke="#63b8ff" points="69.47,-86.34 71.03,-75.86 63.27,-83.08 69.47,-86.34"/>
</g>
<!-- Node15&#45;&gt;Node2 -->
<g id="edge24" class="edge">
<title>Node15&#45;&gt;Node2</title>
<path fill="none" stroke="#63b8ff" d="M234.57,-220.59C225.9,-212.9 213.23,-201.65 202.83,-192.43"/>
<polygon fill="#63b8ff" stroke="#63b8ff" points="205.58,-190.29 195.78,-186.27 200.93,-195.53 205.58,-190.29"/>
</g>
<!-- Node15&#45;&gt;Node3 -->
<g id="edge25" class="edge">
<title>Node15&#45;&gt;Node3</title>
<path fill="none" stroke="#63b8ff" d="M243.46,-220.82C239.72,-195.28 228.79,-120.7 223.58,-85.15"/>
<polygon fill="#63b8ff" stroke="#63b8ff" points="226.96,-85.11 222.05,-75.72 220.03,-86.12 226.96,-85.11"/>
</g>
<!-- Node15&#45;&gt;Node5 -->
<g id="edge38" class="edge">
<title>Node15&#45;&gt;Node5</title>
<path fill="none" stroke="#63b8ff" d="M213.97,-225.28C190.05,-220.12 158.41,-208.94 142.75,-185 123.23,-155.16 98.89,-177.5 172.75,-55.25 179.44,-44.18 189.65,-34.14 198.94,-26.4"/>
<polygon fill="#63b8ff" stroke="#63b8ff" points="200.72,-28.66 206.42,-19.73 196.39,-23.16 200.72,-28.66"/>
</g>
<!-- Node15&#45;&gt;Node9 -->
<g id="edge39" class="edge">
<title>Node15&#45;&gt;Node9</title>
<path fill="none" stroke="#63b8ff" d="M257.61,-220.59C295.72,-193.8 408.37,-114.63 456.05,-81.13"/>
<polygon fill="#63b8ff" stroke="#63b8ff" points="457.76,-83.5 463.93,-74.88 453.74,-77.77 457.76,-83.5"/>
</g>
<!-- Node15&#45;&gt;Node16 -->
<g id="edge26" class="edge">
<title>Node15&#45;&gt;Node16</title>
<path fill="none" stroke="#63b8ff" d="M275.73,-224.13C329.39,-214.6 439.79,-195.01 501.17,-184.11"/>
<polygon fill="#63b8ff" stroke="#63b8ff" points="501.44,-187.44 510.67,-182.25 500.21,-180.55 501.44,-187.44"/>
</g>
<!-- Node16&#45;&gt;Node3 -->
<g id="edge35" class="edge">
<title>Node16&#45;&gt;Node3</title>
<path fill="none" stroke="#63b8ff" d="M511.5,-173.96C461.94,-172.16 366.8,-164.06 294.75,-129.75 270.92,-118.41 248.74,-97.28 235,-82.44"/>
<polygon fill="#63b8ff" stroke="#63b8ff" points="238.21,-80.66 228.93,-75.55 232.99,-85.33 238.21,-80.66"/>
</g>
<!-- Node16&#45;&gt;Node4 -->
<g id="edge31" class="edge">
<title>Node16&#45;&gt;Node4</title>
<path fill="none" stroke="#63b8ff" d="M558.98,-165.35C569.96,-157.46 584.33,-144.92 590.75,-129.75 606.19,-93.25 575.21,-76.48 541.75,-55.25 503.07,-30.71 450.39,-19.21 418.29,-14.17"/>
<polygon fill="#63b8ff" stroke="#63b8ff" points="418.86,-10.57 408.46,-12.6 417.85,-17.5 418.86,-10.57"/>
</g>
<!-- Node16&#45;&gt;Node5 -->
<g id="edge33" class="edge">
<title>Node16&#45;&gt;Node5</title>
<path fill="none" stroke="#63b8ff" d="M511.74,-168.1C490.35,-162.14 464.07,-150.82 450.75,-129.75 425.87,-90.39 505.12,-81.03 508.75,-74.5 512.91,-67.02 514.32,-61.75 508.75,-55.25 492.14,-35.87 322.81,-19.32 251.81,-13.18"/>
<polygon fill="#63b8ff" stroke="#63b8ff" points="252.17,-9.61 241.91,-12.25 251.58,-16.58 252.17,-9.61"/>
</g>
<!-- Node16&#45;&gt;Node6 -->
<g id="edge36" class="edge">
<title>Node16&#45;&gt;Node6</title>
<path fill="none" stroke="#63b8ff" d="M511.94,-166.05C475.38,-156.78 416.18,-141.77 376.39,-131.68"/>
<polygon fill="#63b8ff" stroke="#63b8ff" points="377.52,-128.1 366.96,-129.04 375.8,-134.89 377.52,-128.1"/>
</g>
<!-- Node16&#45;&gt;Node9 -->
<g id="edge34" class="edge">
<title>Node16&#45;&gt;Node9</title>
<path fill="none" stroke="#63b8ff" d="M554.94,-165.34C568,-152.62 587.62,-128.95 575.75,-110.5 561.32,-88.07 532.54,-76.78 509.88,-71.18"/>
<polygon fill="#63b8ff" stroke="#63b8ff" points="510.86,-67.59 500.34,-68.87 509.36,-74.43 510.86,-67.59"/>
</g>
<!-- Node16&#45;&gt;Node10 -->
<g id="edge37" class="edge">
<title>Node16&#45;&gt;Node10</title>
<path fill="none" stroke="#63b8ff" d="M577.59,-173.88C641.63,-172.14 779.5,-164.36 808.75,-129.75 837.02,-96.3 764.02,-78.34 717.99,-70.6"/>
<polygon fill="#63b8ff" stroke="#63b8ff" points="718.65,-67.01 708.22,-68.89 717.55,-73.92 718.65,-67.01"/>
</g>
<!-- Node17 -->
<g id="node17" class="node">
<title>Node17</title>
<g id="a_node17"><a xlink:title=" ">
<polygon fill="#e0e0e0" stroke="#999999" points="719.12,-129.75 660.38,-129.75 660.38,-110.5 719.12,-110.5 719.12,-129.75"/>
<text text-anchor="middle" x="689.75" y="-116.25" font-family="Helvetica,sans-Serif" font-size="10.00">curl/curl.h</text>
</a>
</g>
</g>
<!-- Node16&#45;&gt;Node17 -->
<g id="edge27" class="edge">
<title>Node16&#45;&gt;Node17</title>
<path fill="none" stroke="#63b8ff" d="M569.35,-165.34C592.89,-156.7 628.62,-143.57 655.05,-133.87"/>
<polygon fill="#63b8ff" stroke="#63b8ff" points="655.85,-136.94 664.03,-130.2 653.44,-130.36 655.85,-136.94"/>
</g>
<!-- Node18 -->
<g id="node18" class="node">
<title>Node18</title>
<g id="a_node18"><a xlink:title=" ">
<polygon fill="#e0e0e0" stroke="#999999" points="800,-129.75 737.5,-129.75 737.5,-110.5 800,-110.5 800,-129.75"/>
<text text-anchor="middle" x="768.75" y="-116.25" font-family="Helvetica,sans-Serif" font-size="10.00">curl/easy.h</text>
</a>
</g>
</g>
<!-- Node16&#45;&gt;Node18 -->
<g id="edge28" class="edge">
<title>Node16&#45;&gt;Node18</title>
<path fill="none" stroke="#63b8ff" d="M577.8,-166.52C617.29,-157.13 683.43,-141.41 726.57,-131.15"/>
<polygon fill="#63b8ff" stroke="#63b8ff" points="727.09,-134.39 736.01,-128.67 725.47,-127.58 727.09,-134.39"/>
</g>
<!-- Node19 -->
<g id="node19" class="node">
<title>Node19</title>
<g id="a_node19"><a xlink:title=" ">
<polygon fill="#e0e0e0" stroke="#999999" points="893.62,-129.75 855.88,-129.75 855.88,-110.5 893.62,-110.5 893.62,-129.75"/>
<text text-anchor="middle" x="874.75" y="-116.25" font-family="Helvetica,sans-Serif" font-size="10.00">array</text>
</a>
</g>
</g>
<!-- Node16&#45;&gt;Node19 -->
<g id="edge29" class="edge">
<title>Node16&#45;&gt;Node19</title>
<path fill="none" stroke="#63b8ff" d="M577.91,-170.56C633.01,-163.97 746.75,-149.24 841.75,-129.75 842.88,-129.52 844.03,-129.27 845.19,-129.01"/>
<polygon fill="#63b8ff" stroke="#63b8ff" points="845.74,-132.24 854.64,-126.49 844.09,-125.44 845.74,-132.24"/>
</g>
<!-- Node20 -->
<g id="node20" class="node">
<title>Node20</title>
<g id="a_node20"><a xlink:title=" ">
<polygon fill="#e0e0e0" stroke="#999999" points="505.38,-129.75 460.12,-129.75 460.12,-110.5 505.38,-110.5 505.38,-129.75"/>
<text text-anchor="middle" x="482.75" y="-116.25" font-family="Helvetica,sans-Serif" font-size="10.00">atomic</text>
</a>
</g>
</g>
<!-- Node16&#45;&gt;Node20 -->
<g id="edge30" class="edge">
<title>Node16&#45;&gt;Node20</title>
<path fill="none" stroke="#63b8ff" d="M534.23,-165.34C525.27,-157.65 512.18,-146.4 501.44,-137.18"/>
<polygon fill="#63b8ff" stroke="#63b8ff" points="503.98,-133.89 494.11,-130.02 499.42,-139.2 503.98,-133.89"/>
</g>
<!-- Node21 -->
<g id="node21" class="node">
<title>Node21</title>
<g id="a_node21"><a xlink:title=" ">
<polygon fill="#e0e0e0" stroke="#999999" points="566.25,-129.75 523.25,-129.75 523.25,-110.5 566.25,-110.5 566.25,-129.75"/>
<text text-anchor="middle" x="544.75" y="-116.25" font-family="Helvetica,sans-Serif" font-size="10.00">mutex</text>
</a>
</g>
</g>
<!-- Node16&#45;&gt;Node21 -->
<g id="edge32" class="edge">
<title>Node16&#45;&gt;Node21</title>
<path fill="none" stroke="#63b8ff" d="M544.75,-165.58C544.75,-158.92 544.75,-149.49 544.75,-141.03"/>
<polygon fill="#63b8ff" stroke="#63b8ff" points="548.25,-141.11 544.75,-131.11 541.25,-141.11 548.25,-141.11"/>
</g>
</g>
</svg>
        <g id="navigator" transform="translate(0 0)" fill="#404254">
                <rect fill="#f2f5e9" fill-opacity="0.5" stroke="#606060" stroke-width=".5" x="0" y="0" width="60" height="60"/>
                <use id="zoomplus" xlink:href="#zoomPlus" x="17" y="9" onmousedown="handleZoom(evt,'in')"/>
                <use id="zoomminus" xlink:href="#zoomMin" x="42" y="9" onmousedown="handleZoom(evt,'out')"/>
                <use id="reset" xlink:href="#resetDef" x="30" y="36" onmousedown="handleReset()"/>
                <g id="arrowUp" xlink:href="#dirArrow" transform="translate(30 24)" onmousedown="handlePan(0,-1)">
                  <use xlink:href="#rim" fill="#404040">
                        <set attributeName="fill" to="#808080" begin="arrowUp.mouseover" end="arrowUp.mouseout"/>
                  </use>
                  <path fill="none" stroke="white" stroke-width="1.5" d="M0,-3.0v7 M-2.5,-0.5L0,-3.0L2.5,-0.5"/>
                </g>
                <g id="arrowRight" xlink:href="#dirArrow" transform="rotate(90) translate(36 -43)" onmousedown="handlePan(1,0)">
                  <use xlink:href="#rim" fill="#404040">
                        <set attributeName="fill" to="#808080" begin="arrowRight.mouseover" end="arrowRight.mouseout"/>
                  </use>
                  <path fill="none" stroke="white" stroke-width="1.5" d="M0,-3.0v7 M-2.5,-0.5L0,-3.0L2.5,-0.5"/>
                </g>
                <g id="arrowDown" xlink:href="#dirArrow" transform="rotate(180) translate(-30 -48)" onmousedown="handlePan(0,1)">
                  <use xlink:href="#rim" fill="#404040">
                        <set attributeName="fill" to="#808080" begin="arrowDown.mouseover" end="arrowDown.mouseout"/>
                  </use>
                  <path fill="none" stroke="white" stroke-width="1.5" d="M0,-3.0v7 M-2.5,-0.5L0,-3.0L2.5,-0.5"/>
                </g>
                <g id="arrowLeft" xlink:href="#dirArrow" transform="rotate(270) translate(-36 17)" onmousedown="handlePan(-1,0)">
                  <use xlink:href="#rim" fill="#404040">
                        <set attributeName="fill" to="#808080" begin="arrowLeft.mouseover" end="arrowLeft.mouseout"/>
                  </use>
                  <path fill="none" stroke="white" stroke-width="1.5" d="M0,-3.0v7 M-2.5,-0.5L0,-3.0L2.5,-0.5"/>
                </g>
        </g>
        <svg viewBox="0 0 15 15" width="100%" height="30px" preserveAspectRatio="xMaxYMin meet">
         <g id="arrow_out" transform="scale(0.3 0.3)">
          <a xlink:href="s3-api_8h__incl_org.svg" target="_base">
           <rect id="button" ry="5" rx="5" y="6" x="6" height="38" width="38"
                fill="#f2f5e9" fill-opacity="0.5" stroke="#606060" stroke-width="1.0"/>
           <path id="arrow"
             d="M 11.500037,31.436501 C 11.940474,20.09759 22.043105,11.32322 32.158766,21.979434 L 37.068811,17.246167 C 37.068811,17.246167 37.088388,32 37.088388,32 L 22.160133,31.978069 C 22.160133,31.978069 26.997745,27.140456 26.997745,27.140456 C 18.528582,18.264221 13.291696,25.230495 11.500037,31.436501 z"
             style="fill:#404040;"/>
          </a>
         </g>
        </svg>
</svg>
