<?xml version="1.0" encoding="UTF-8" standalone="no"?>
<!DOCTYPE svg PUBLIC "-//W3C//DTD SVG 1.1//EN"
 "http://www.w3.org/Graphics/SVG/1.1/DTD/svg11.dtd">
<!-- Generated by graphviz version 2.43.0 (0)
 -->
<!-- Title: /home/ugovaretto/projects/uv&#45;cpp/s3client/repo/lib/include/s3&#45;api.h Pages: 1 -->
<!--zoomable 330 -->
<svg id="main" version="1.1" xmlns="http://www.w3.org/2000/svg" xmlns:xlink="http://www.w3.org/1999/xlink" xml:space="preserve" onload="init(evt)">
<style type="text/css"><![CDATA[
.edge:hover path { stroke: red; }
.edge:hover polygon { stroke: red; fill: red; }
]]></style>
<script type="text/javascript"><![CDATA[
var edges = document.getElementsByTagName('g');
if (edges && edges.length) {
  for (var i=0;i<edges.length;i++) {
    if (edges[i].id.substr(0,4)=='edge') {
      edges[i].setAttribute('class','edge');
    }
  }
}
]]></script>
        <defs>
                <circle id="rim" cx="0" cy="0" r="7"/>
                <circle id="rim2" cx="0" cy="0" r="3.5"/>
                <g id="zoomPlus">
                        <use xlink:href="#rim" fill="#404040">
                                <set attributeName="fill" to="#808080" begin="zoomplus.mouseover" end="zoomplus.mouseout"/>
                        </use>
                        <path d="M-4,0h8M0,-4v8" fill="none" stroke="white" stroke-width="1.5" pointer-events="none"/>
                </g>
                <g id="zoomMin">
                        <use xlink:href="#rim" fill="#404040">
                                <set attributeName="fill" to="#808080" begin="zoomminus.mouseover" end="zoomminus.mouseout"/>
                        </use>
                        <path d="M-4,0h8" fill="none" stroke="white" stroke-width="1.5" pointer-events="none"/>
                </g>
                <g id="dirArrow">
                        <path fill="none" stroke="white" stroke-width="1.5" d="M0,-3.0v7 M-2.5,-0.5L0,-3.0L2.5,-0.5"/>
                </g>
               <g id="resetDef">
                       <use xlink:href="#rim2" fill="#404040">
                               <set attributeName="fill" to="#808080" begin="reset.mouseover" end="reset.mouseout"/>
                       </use>
               </g>
        </defs>

<script type="text/javascript">
var viewWidth = 899;
var viewHeight = 330;
var sectionId = 'dynsection-0';
</script>
<script xlink:href="svgpan.js"/>
<svg id="graph" class="graph">
<g id="viewport">
<title>/home/ugovaretto/projects/uv&#45;cpp/s3client/repo/lib/include/s3&#45;api.h</title>
<!-- Node1 -->
<g id="node1" class="node">
<title>Node1</title>
<g id="a_node1"><a xlink:title="declarations of S3Api class.">
<polygon fill="#bfbfbf" stroke="black" points="569.38,-280.5 569.38,-321.5 699.38,-321.5 699.38,-280.5 569.38,-280.5"/>
<text text-anchor="start" x="577.38" y="-309.5" font-family="Helvetica,sans-Serif" font-size="10.00">/home/ugovaretto/projects</text>
<text text-anchor="start" x="577.38" y="-298.5" font-family="Helvetica,sans-Serif" font-size="10.00">/uv&#45;cpp/s3client/repo/lib</text>
<text text-anchor="middle" x="634.38" y="-287.5" font-family="Helvetica,sans-Serif" font-size="10.00">/include/s3&#45;api.h</text>
</a>
</g>
</g>
<!-- Node2 -->
<g id="node2" class="node">
<title>Node2</title>
<g id="a_node2"><a xlink:href="aws__sign_8h.html" target="_top" xlink:title="Public interface to signing URLs and HTTP headers with the S3v4 protocol standard.">
<polygon fill="none" stroke="black" points="540.38,-168.5 540.38,-187.5 606.38,-187.5 606.38,-168.5 540.38,-168.5"/>
<text text-anchor="middle" x="573.38" y="-175.5" font-family="Helvetica,sans-Serif" font-size="10.00">aws_sign.h</text>
</a>
</g>
</g>
<!-- Node1&#45;&gt;Node2 -->
<g id="edge1" class="edge">
<title>Node1&#45;&gt;Node2</title>
<path fill="none" stroke="midnightblue" d="M618.16,-280.48C610.17,-270.13 600.88,-256.91 594.38,-244 586.88,-229.1 581.28,-210.96 577.76,-197.63"/>
<polygon fill="midnightblue" stroke="midnightblue" points="581.11,-196.6 575.29,-187.74 574.32,-198.29 581.11,-196.6"/>
</g>
<!-- Node13 -->
<g id="node13" class="node">
<title>Node13</title>
<g id="a_node13"><a xlink:href="error_8h_source.html" target="_top" xlink:title=" ">
<polygon fill="none" stroke="black" points="814.38,-224.5 814.38,-243.5 858.38,-243.5 858.38,-224.5 814.38,-224.5"/>
<text text-anchor="middle" x="836.38" y="-231.5" font-family="Helvetica,sans-Serif" font-size="10.00">error.h</text>
</a>
</g>
</g>
<!-- Node1&#45;&gt;Node13 -->
<g id="edge18" class="edge">
<title>Node1&#45;&gt;Node13</title>
<path fill="none" stroke="midnightblue" d="M694.99,-280.5C730.95,-268.92 775.11,-254.72 804.4,-245.29"/>
<polygon fill="midnightblue" stroke="midnightblue" points="805.66,-248.56 814.11,-242.17 803.52,-241.9 805.66,-248.56"/>
</g>
<!-- Node14 -->
<g id="node14" class="node">
<title>Node14</title>
<g id="a_node14"><a xlink:href="webclient_8h.html" target="_top" xlink:title="declaration of WebClient class wrapping libcurl to send web requests.">
<polygon fill="none" stroke="black" points="361.38,-168.5 361.38,-187.5 427.38,-187.5 427.38,-168.5 361.38,-168.5"/>
<text text-anchor="middle" x="394.38" y="-175.5" font-family="Helvetica,sans-Serif" font-size="10.00">webclient.h</text>
</a>
</g>
</g>
<!-- Node1&#45;&gt;Node14 -->
<g id="edge43" class="edge">
<title>Node1&#45;&gt;Node14</title>
<path fill="none" stroke="midnightblue" d="M595.55,-280.42C546.32,-255.6 462.77,-213.48 420.52,-192.18"/>
<polygon fill="midnightblue" stroke="midnightblue" points="421.93,-188.97 411.43,-187.6 418.78,-195.22 421.93,-188.97"/>
</g>
<!-- Node20 -->
<g id="node20" class="node">
<title>Node20</title>
<g id="a_node20"><a xlink:href="response__parser_8h.html" target="_top" xlink:title="Functions to parse XML and HTTP headers.">
<polygon fill="none" stroke="black" points="776.38,-112.5 776.38,-131.5 872.38,-131.5 872.38,-112.5 776.38,-112.5"/>
<text text-anchor="middle" x="824.38" y="-119.5" font-family="Helvetica,sans-Serif" font-size="10.00">response_parser.h</text>
</a>
</g>
</g>
<!-- Node1&#45;&gt;Node20 -->
<g id="edge32" class="edge">
<title>Node1&#45;&gt;Node20</title>
<path fill="none" stroke="midnightblue" d="M658.06,-280.38C684.19,-258.49 727.2,-221.7 762.38,-188 779.17,-171.92 797.42,-152.53 809.75,-139.13"/>
<polygon fill="midnightblue" stroke="midnightblue" points="812.43,-141.39 816.59,-131.65 807.26,-136.67 812.43,-141.39"/>
</g>
<!-- Node22 -->
<g id="node22" class="node">
<title>Node22</title>
<g id="a_node22"><a xlink:href="s3-client_8h.html" target="_top" xlink:title="declaration of functions and data types for sending S3 requests, signing URLs and downloading and upl...">
<polygon fill="none" stroke="black" points="603.38,-224.5 603.38,-243.5 665.38,-243.5 665.38,-224.5 603.38,-224.5"/>
<text text-anchor="middle" x="634.38" y="-231.5" font-family="Helvetica,sans-Serif" font-size="10.00">s3&#45;client.h</text>
</a>
</g>
</g>
<!-- Node1&#45;&gt;Node22 -->
<g id="edge37" class="edge">
<title>Node1&#45;&gt;Node22</title>
<path fill="none" stroke="midnightblue" d="M634.38,-280.5C634.38,-272.07 634.38,-262.24 634.38,-253.87"/>
<polygon fill="midnightblue" stroke="midnightblue" points="637.88,-253.65 634.38,-243.65 630.88,-253.65 637.88,-253.65"/>
</g>
<!-- Node3 -->
<g id="node3" class="node">
<title>Node3</title>
<g id="a_node3"><a xlink:href="common_8h.html" target="_top" xlink:title="Common definitions.">
<polygon fill="none" stroke="black" points="567.38,-56.5 567.38,-75.5 629.38,-75.5 629.38,-56.5 567.38,-56.5"/>
<text text-anchor="middle" x="598.38" y="-63.5" font-family="Helvetica,sans-Serif" font-size="10.00">common.h</text>
</a>
</g>
</g>
<!-- Node2&#45;&gt;Node3 -->
<g id="edge2" class="edge">
<title>Node2&#45;&gt;Node3</title>
<path fill="none" stroke="midnightblue" d="M575.34,-168.37C579.37,-150.62 588.68,-109.67 594.15,-85.6"/>
<polygon fill="midnightblue" stroke="midnightblue" points="597.62,-86.12 596.43,-75.59 590.8,-84.57 597.62,-86.12"/>
</g>
<!-- Node5 -->
<g id="node5" class="node">
<title>Node5</title>
<g id="a_node5"><a xlink:title=" ">
<polygon fill="none" stroke="#bfbfbf" points="606.88,-0.5 606.88,-19.5 647.88,-19.5 647.88,-0.5 606.88,-0.5"/>
<text text-anchor="middle" x="627.38" y="-7.5" font-family="Helvetica,sans-Serif" font-size="10.00">string</text>
</a>
</g>
</g>
<!-- Node2&#45;&gt;Node5 -->
<g id="edge17" class="edge">
<title>Node2&#45;&gt;Node5</title>
<path fill="none" stroke="midnightblue" d="M581.42,-168.42C596.17,-152.02 627.09,-114.41 638.38,-76 642.92,-60.56 639.15,-42.47 634.83,-29.3"/>
<polygon fill="midnightblue" stroke="midnightblue" points="637.99,-27.73 631.25,-19.56 631.42,-30.15 637.99,-27.73"/>
</g>
<!-- Node6 -->
<g id="node6" class="node">
<title>Node6</title>
<g id="a_node6"><a xlink:href="url__utility_8h.html" target="_top" xlink:title="Internal utility functions to process and parse text and URLs and create S3 signature keys.">
<polygon fill="none" stroke="black" points="392.38,-112.5 392.38,-131.5 454.38,-131.5 454.38,-112.5 392.38,-112.5"/>
<text text-anchor="middle" x="423.38" y="-119.5" font-family="Helvetica,sans-Serif" font-size="10.00">url_utility.h</text>
</a>
</g>
</g>
<!-- Node2&#45;&gt;Node6 -->
<g id="edge5" class="edge">
<title>Node2&#45;&gt;Node6</title>
<path fill="none" stroke="midnightblue" d="M549.61,-168.44C524.49,-159.4 484.67,-145.06 456.48,-134.92"/>
<polygon fill="midnightblue" stroke="midnightblue" points="457.63,-131.61 447.04,-131.52 455.26,-138.2 457.63,-131.61"/>
</g>
<!-- Node4 -->
<g id="node4" class="node">
<title>Node4</title>
<g id="a_node4"><a xlink:title=" ">
<polygon fill="none" stroke="#bfbfbf" points="373.88,-0.5 373.88,-19.5 408.88,-19.5 408.88,-0.5 373.88,-0.5"/>
<text text-anchor="middle" x="391.38" y="-7.5" font-family="Helvetica,sans-Serif" font-size="10.00">map</text>
</a>
</g>
</g>
<!-- Node3&#45;&gt;Node4 -->
<g id="edge3" class="edge">
<title>Node3&#45;&gt;Node4</title>
<path fill="none" stroke="midnightblue" d="M566.94,-56.8C526.62,-46.28 457.34,-28.21 418.97,-18.2"/>
<polygon fill="midnightblue" stroke="midnightblue" points="419.58,-14.74 409.02,-15.6 417.81,-21.51 419.58,-14.74"/>
</g>
<!-- Node3&#45;&gt;Node5 -->
<g id="edge4" class="edge">
<title>Node3&#45;&gt;Node5</title>
<path fill="none" stroke="midnightblue" d="M603.17,-56.08C607.14,-48.69 612.9,-37.95 617.81,-28.81"/>
<polygon fill="midnightblue" stroke="midnightblue" points="621.03,-30.22 622.68,-19.75 614.86,-26.91 621.03,-30.22"/>
</g>
<!-- Node6&#45;&gt;Node3 -->
<g id="edge11" class="edge">
<title>Node6&#45;&gt;Node3</title>
<path fill="none" stroke="midnightblue" d="M451.11,-112.44C480.8,-103.28 528.1,-88.69 561.05,-78.52"/>
<polygon fill="midnightblue" stroke="midnightblue" points="562.26,-81.81 570.78,-75.52 560.19,-75.12 562.26,-81.81"/>
</g>
<!-- Node6&#45;&gt;Node4 -->
<g id="edge8" class="edge">
<title>Node6&#45;&gt;Node4</title>
<path fill="none" stroke="midnightblue" d="M420.87,-112.37C415.68,-94.54 403.68,-53.3 396.69,-29.27"/>
<polygon fill="midnightblue" stroke="midnightblue" points="400.03,-28.22 393.88,-19.59 393.31,-30.17 400.03,-28.22"/>
</g>
<!-- Node6&#45;&gt;Node5 -->
<g id="edge9" class="edge">
<title>Node6&#45;&gt;Node5</title>
<path fill="none" stroke="midnightblue" d="M435.57,-112.37C454.35,-99.28 491.68,-74.03 525.38,-56 548.84,-43.44 576.53,-31.39 597.13,-22.93"/>
<polygon fill="midnightblue" stroke="midnightblue" points="598.67,-26.08 606.62,-19.07 596.04,-19.59 598.67,-26.08"/>
</g>
<!-- Node7 -->
<g id="node7" class="node">
<title>Node7</title>
<g id="a_node7"><a xlink:title=" ">
<polygon fill="none" stroke="#bfbfbf" points="293.38,-0.5 293.38,-19.5 349.38,-19.5 349.38,-0.5 293.38,-0.5"/>
<text text-anchor="middle" x="321.38" y="-7.5" font-family="Helvetica,sans-Serif" font-size="10.00">algorithm</text>
</a>
</g>
</g>
<!-- Node6&#45;&gt;Node7 -->
<g id="edge6" class="edge">
<title>Node6&#45;&gt;Node7</title>
<path fill="none" stroke="midnightblue" d="M415.38,-112.37C398.32,-93.97 358.16,-50.67 336.26,-27.05"/>
<polygon fill="midnightblue" stroke="midnightblue" points="338.71,-24.54 329.35,-19.59 333.58,-29.3 338.71,-24.54"/>
</g>
<!-- Node8 -->
<g id="node8" class="node">
<title>Node8</title>
<g id="a_node8"><a xlink:title=" ">
<polygon fill="none" stroke="#bfbfbf" points="419.38,-56.5 419.38,-75.5 473.38,-75.5 473.38,-56.5 419.38,-56.5"/>
<text text-anchor="middle" x="446.38" y="-63.5" font-family="Helvetica,sans-Serif" font-size="10.00">iostream</text>
</a>
</g>
</g>
<!-- Node6&#45;&gt;Node8 -->
<g id="edge7" class="edge">
<title>Node6&#45;&gt;Node8</title>
<path fill="none" stroke="midnightblue" d="M427.18,-112.08C430.29,-104.77 434.8,-94.18 438.67,-85.1"/>
<polygon fill="midnightblue" stroke="midnightblue" points="441.95,-86.32 442.65,-75.75 435.51,-83.58 441.95,-86.32"/>
</g>
<!-- Node9 -->
<g id="node9" class="node">
<title>Node9</title>
<g id="a_node9"><a xlink:title=" ">
<polygon fill="none" stroke="#bfbfbf" points="685.38,-56.5 685.38,-75.5 729.38,-75.5 729.38,-56.5 685.38,-56.5"/>
<text text-anchor="middle" x="707.38" y="-63.5" font-family="Helvetica,sans-Serif" font-size="10.00">vector</text>
</a>
</g>
</g>
<!-- Node6&#45;&gt;Node9 -->
<g id="edge10" class="edge">
<title>Node6&#45;&gt;Node9</title>
<path fill="none" stroke="midnightblue" d="M454.58,-115.07C508.87,-104.75 620.13,-83.59 675.13,-73.13"/>
<polygon fill="midnightblue" stroke="midnightblue" points="675.86,-76.56 685.03,-71.25 674.56,-69.68 675.86,-76.56"/>
</g>
<!-- Node10 -->
<g id="node10" class="node">
<title>Node10</title>
<g id="a_node10"><a xlink:href="lib_2include_2utility_8h.html" target="_top" xlink:title="internal utility functions">
<polygon fill="none" stroke="black" points="224.88,-56.5 224.88,-75.5 271.88,-75.5 271.88,-56.5 224.88,-56.5"/>
<text text-anchor="middle" x="248.38" y="-63.5" font-family="Helvetica,sans-Serif" font-size="10.00">utility.h</text>
</a>
</g>
</g>
<!-- Node6&#45;&gt;Node10 -->
<g id="edge12" class="edge">
<title>Node6&#45;&gt;Node10</title>
<path fill="none" stroke="midnightblue" d="M395.65,-112.44C364.73,-102.9 314.74,-87.48 281.71,-77.29"/>
<polygon fill="midnightblue" stroke="midnightblue" points="282.64,-73.91 272.05,-74.3 280.57,-80.6 282.64,-73.91"/>
</g>
<!-- Node10&#45;&gt;Node5 -->
<g id="edge15" class="edge">
<title>Node10&#45;&gt;Node5</title>
<path fill="none" stroke="midnightblue" d="M272.09,-61.62C337.89,-52.25 522.77,-25.91 596.48,-15.4"/>
<polygon fill="midnightblue" stroke="midnightblue" points="597.11,-18.85 606.52,-13.97 596.12,-11.92 597.11,-18.85"/>
</g>
<!-- Node10&#45;&gt;Node7 -->
<g id="edge13" class="edge">
<title>Node10&#45;&gt;Node7</title>
<path fill="none" stroke="midnightblue" d="M260.11,-56.32C271.22,-48.11 288.12,-35.6 301.36,-25.81"/>
<polygon fill="midnightblue" stroke="midnightblue" points="303.48,-28.59 309.44,-19.83 299.32,-22.97 303.48,-28.59"/>
</g>
<!-- Node11 -->
<g id="node11" class="node">
<title>Node11</title>
<g id="a_node11"><a xlink:title=" ">
<polygon fill="none" stroke="#bfbfbf" points="114.88,-0.5 114.88,-19.5 173.88,-19.5 173.88,-0.5 114.88,-0.5"/>
<text text-anchor="middle" x="144.38" y="-7.5" font-family="Helvetica,sans-Serif" font-size="10.00">functional</text>
</a>
</g>
</g>
<!-- Node10&#45;&gt;Node11 -->
<g id="edge14" class="edge">
<title>Node10&#45;&gt;Node11</title>
<path fill="none" stroke="midnightblue" d="M231.67,-56.32C215.07,-47.7 189.38,-34.36 170.16,-24.39"/>
<polygon fill="midnightblue" stroke="midnightblue" points="171.53,-21.16 161.05,-19.65 168.31,-27.37 171.53,-21.16"/>
</g>
<!-- Node12 -->
<g id="node12" class="node">
<title>Node12</title>
<g id="a_node12"><a xlink:title=" ">
<polygon fill="none" stroke="#bfbfbf" points="191.88,-0.5 191.88,-19.5 274.88,-19.5 274.88,-0.5 191.88,-0.5"/>
<text text-anchor="middle" x="233.38" y="-7.5" font-family="Helvetica,sans-Serif" font-size="10.00">unordered_map</text>
</a>
</g>
</g>
<!-- Node10&#45;&gt;Node12 -->
<g id="edge16" class="edge">
<title>Node10&#45;&gt;Node12</title>
<path fill="none" stroke="midnightblue" d="M245.9,-56.08C243.89,-48.85 240.99,-38.41 238.49,-29.4"/>
<polygon fill="midnightblue" stroke="midnightblue" points="241.86,-28.45 235.81,-19.75 235.11,-30.32 241.86,-28.45"/>
</g>
<!-- Node13&#45;&gt;Node5 -->
<g id="edge31" class="edge">
<title>Node13&#45;&gt;Node5</title>
<path fill="none" stroke="midnightblue" d="M842.8,-224.18C862.8,-195.57 919.95,-104.42 873.38,-56 844.13,-25.58 717.44,-15.41 658.17,-12.28"/>
<polygon fill="midnightblue" stroke="midnightblue" points="658.09,-8.77 647.93,-11.77 657.74,-15.76 658.09,-8.77"/>
</g>
<!-- Node13&#45;&gt;Node14 -->
<g id="edge19" class="edge">
<title>Node13&#45;&gt;Node14</title>
<path fill="none" stroke="midnightblue" d="M814.16,-230.29C744.63,-221.79 530.35,-195.61 437.75,-184.3"/>
<polygon fill="midnightblue" stroke="midnightblue" points="437.95,-180.8 427.6,-183.06 437.1,-187.75 437.95,-180.8"/>
</g>
<!-- Node14&#45;&gt;Node3 -->
<g id="edge28" class="edge">
<title>Node14&#45;&gt;Node3</title>
<path fill="none" stroke="midnightblue" d="M416.32,-168.45C437.29,-160.02 469.59,-146.34 496.38,-132 525.6,-116.36 557.56,-95.3 577.77,-81.45"/>
<polygon fill="midnightblue" stroke="midnightblue" points="579.95,-84.2 586.18,-75.63 575.97,-78.44 579.95,-84.2"/>
</g>
<!-- Node14&#45;&gt;Node4 -->
<g id="edge24" class="edge">
<title>Node14&#45;&gt;Node4</title>
<path fill="none" stroke="midnightblue" d="M391.65,-168.49C388.93,-159.52 384.94,-144.94 383.38,-132 379.03,-95.9 384.19,-53.42 388.01,-29.62"/>
<polygon fill="midnightblue" stroke="midnightblue" points="391.5,-29.98 389.73,-19.54 384.6,-28.81 391.5,-29.98"/>
</g>
<!-- Node14&#45;&gt;Node5 -->
<g id="edge26" class="edge">
<title>Node14&#45;&gt;Node5</title>
<path fill="none" stroke="midnightblue" d="M408.39,-168.42C422.52,-159.64 444.84,-145.41 463.38,-132 507.19,-100.31 514.57,-87.69 558.38,-56 573.44,-45.1 591,-33.67 604.63,-25.05"/>
<polygon fill="midnightblue" stroke="midnightblue" points="606.75,-27.86 613.37,-19.58 603.04,-21.92 606.75,-27.86"/>
</g>
<!-- Node14&#45;&gt;Node6 -->
<g id="edge29" class="edge">
<title>Node14&#45;&gt;Node6</title>
<path fill="none" stroke="midnightblue" d="M399.17,-168.08C403.14,-160.69 408.9,-149.95 413.81,-140.81"/>
<polygon fill="midnightblue" stroke="midnightblue" points="417.03,-142.22 418.68,-131.75 410.86,-138.91 417.03,-142.22"/>
</g>
<!-- Node14&#45;&gt;Node9 -->
<g id="edge27" class="edge">
<title>Node14&#45;&gt;Node9</title>
<path fill="none" stroke="midnightblue" d="M420.38,-168.48C447.43,-159.56 490.96,-145.07 528.38,-132 580.16,-113.91 640,-91.97 675.71,-78.76"/>
<polygon fill="midnightblue" stroke="midnightblue" points="676.95,-82.04 685.12,-75.28 674.52,-75.47 676.95,-82.04"/>
</g>
<!-- Node14&#45;&gt;Node10 -->
<g id="edge30" class="edge">
<title>Node14&#45;&gt;Node10</title>
<path fill="none" stroke="midnightblue" d="M361.2,-175.65C271.27,-171.66 27.99,-158.49 4.38,-132 -1.54,-125.36 -1.31,-118.83 4.38,-112 30.7,-80.38 153.61,-70.89 214.3,-68.11"/>
<polygon fill="midnightblue" stroke="midnightblue" points="214.68,-71.6 224.52,-67.68 214.38,-64.61 214.68,-71.6"/>
</g>
<!-- Node15 -->
<g id="node15" class="node">
<title>Node15</title>
<g id="a_node15"><a xlink:title=" ">
<polygon fill="none" stroke="#bfbfbf" points="13.88,-112.5 13.88,-131.5 72.88,-131.5 72.88,-112.5 13.88,-112.5"/>
<text text-anchor="middle" x="43.38" y="-119.5" font-family="Helvetica,sans-Serif" font-size="10.00">curl/curl.h</text>
</a>
</g>
</g>
<!-- Node14&#45;&gt;Node15 -->
<g id="edge20" class="edge">
<title>Node14&#45;&gt;Node15</title>
<path fill="none" stroke="midnightblue" d="M361.32,-173.24C305.78,-166.7 190.06,-152.17 83.18,-132.21"/>
<polygon fill="midnightblue" stroke="midnightblue" points="83.67,-128.75 73.2,-130.33 82.37,-135.62 83.67,-128.75"/>
</g>
<!-- Node16 -->
<g id="node16" class="node">
<title>Node16</title>
<g id="a_node16"><a xlink:title=" ">
<polygon fill="none" stroke="#bfbfbf" points="90.88,-112.5 90.88,-131.5 153.88,-131.5 153.88,-112.5 90.88,-112.5"/>
<text text-anchor="middle" x="122.38" y="-119.5" font-family="Helvetica,sans-Serif" font-size="10.00">curl/easy.h</text>
</a>
</g>
</g>
<!-- Node14&#45;&gt;Node16 -->
<g id="edge21" class="edge">
<title>Node14&#45;&gt;Node16</title>
<path fill="none" stroke="midnightblue" d="M361.05,-170.76C318.03,-162.66 240.62,-147.88 164.4,-132.17"/>
<polygon fill="midnightblue" stroke="midnightblue" points="164.65,-128.65 154.15,-130.05 163.23,-135.5 164.65,-128.65"/>
</g>
<!-- Node17 -->
<g id="node17" class="node">
<title>Node17</title>
<g id="a_node17"><a xlink:title=" ">
<polygon fill="none" stroke="#bfbfbf" points="172.38,-112.5 172.38,-131.5 210.38,-131.5 210.38,-112.5 172.38,-112.5"/>
<text text-anchor="middle" x="191.38" y="-119.5" font-family="Helvetica,sans-Serif" font-size="10.00">array</text>
</a>
</g>
</g>
<!-- Node14&#45;&gt;Node17 -->
<g id="edge22" class="edge">
<title>Node14&#45;&gt;Node17</title>
<path fill="none" stroke="midnightblue" d="M361.32,-169.12C328.02,-161.04 274.95,-147.81 220.44,-132.19"/>
<polygon fill="midnightblue" stroke="midnightblue" points="221.19,-128.76 210.61,-129.35 219.25,-135.48 221.19,-128.76"/>
</g>
<!-- Node18 -->
<g id="node18" class="node">
<title>Node18</title>
<g id="a_node18"><a xlink:title=" ">
<polygon fill="none" stroke="#bfbfbf" points="228.38,-112.5 228.38,-131.5 274.38,-131.5 274.38,-112.5 228.38,-112.5"/>
<text text-anchor="middle" x="251.38" y="-119.5" font-family="Helvetica,sans-Serif" font-size="10.00">atomic</text>
</a>
</g>
</g>
<!-- Node14&#45;&gt;Node18 -->
<g id="edge23" class="edge">
<title>Node14&#45;&gt;Node18</title>
<path fill="none" stroke="midnightblue" d="M371.72,-168.44C347.98,-159.48 310.47,-145.31 283.64,-135.18"/>
<polygon fill="midnightblue" stroke="midnightblue" points="284.52,-131.77 273.93,-131.52 282.05,-138.32 284.52,-131.77"/>
</g>
<!-- Node19 -->
<g id="node19" class="node">
<title>Node19</title>
<g id="a_node19"><a xlink:title=" ">
<polygon fill="none" stroke="#bfbfbf" points="292.38,-112.5 292.38,-131.5 336.38,-131.5 336.38,-112.5 292.38,-112.5"/>
<text text-anchor="middle" x="314.38" y="-119.5" font-family="Helvetica,sans-Serif" font-size="10.00">mutex</text>
</a>
</g>
</g>
<!-- Node14&#45;&gt;Node19 -->
<g id="edge25" class="edge">
<title>Node14&#45;&gt;Node19</title>
<path fill="none" stroke="midnightblue" d="M381.53,-168.32C369.16,-159.98 350.25,-147.21 335.64,-137.35"/>
<polygon fill="midnightblue" stroke="midnightblue" points="337.45,-134.35 327.2,-131.65 333.53,-140.15 337.45,-134.35"/>
</g>
<!-- Node20&#45;&gt;Node3 -->
<g id="edge36" class="edge">
<title>Node20&#45;&gt;Node3</title>
<path fill="none" stroke="midnightblue" d="M788.57,-112.44C748.01,-102.75 682.03,-86.99 639.43,-76.81"/>
<polygon fill="midnightblue" stroke="midnightblue" points="640.19,-73.39 629.65,-74.47 638.57,-80.2 640.19,-73.39"/>
</g>
<!-- Node20&#45;&gt;Node5 -->
<g id="edge34" class="edge">
<title>Node20&#45;&gt;Node5</title>
<path fill="none" stroke="midnightblue" d="M819.69,-112.48C811.62,-98.61 793.81,-71.18 771.38,-56 736.64,-32.5 689.02,-20.79 658.23,-15.32"/>
<polygon fill="midnightblue" stroke="midnightblue" points="658.52,-11.82 648.09,-13.63 657.38,-18.73 658.52,-11.82"/>
</g>
<!-- Node20&#45;&gt;Node9 -->
<g id="edge35" class="edge">
<title>Node20&#45;&gt;Node9</title>
<path fill="none" stroke="midnightblue" d="M805.84,-112.44C786.76,-103.64 756.8,-89.81 734.94,-79.72"/>
<polygon fill="midnightblue" stroke="midnightblue" points="736.38,-76.53 725.83,-75.52 733.44,-82.88 736.38,-76.53"/>
</g>
<!-- Node21 -->
<g id="node21" class="node">
<title>Node21</title>
<g id="a_node21"><a xlink:title=" ">
<polygon fill="none" stroke="#bfbfbf" points="823.88,-56.5 823.88,-75.5 864.88,-75.5 864.88,-56.5 823.88,-56.5"/>
<text text-anchor="middle" x="844.38" y="-63.5" font-family="Helvetica,sans-Serif" font-size="10.00">regex</text>
</a>
</g>
</g>
<!-- Node20&#45;&gt;Node21 -->
<g id="edge33" class="edge">
<title>Node20&#45;&gt;Node21</title>
<path fill="none" stroke="midnightblue" d="M827.68,-112.08C830.36,-104.85 834.23,-94.41 837.57,-85.4"/>
<polygon fill="midnightblue" stroke="midnightblue" points="840.95,-86.34 841.14,-75.75 834.38,-83.91 840.95,-86.34"/>
</g>
<!-- Node22&#45;&gt;Node2 -->
<g id="edge38" class="edge">
<title>Node22&#45;&gt;Node2</title>
<path fill="none" stroke="midnightblue" d="M624.58,-224.32C615.56,-216.34 601.97,-204.31 591.06,-194.65"/>
<polygon fill="midnightblue" stroke="midnightblue" points="593.17,-191.84 583.36,-187.83 588.53,-197.08 593.17,-191.84"/>
</g>
<!-- Node22&#45;&gt;Node3 -->
<g id="edge39" class="edge">
<title>Node22&#45;&gt;Node3</title>
<path fill="none" stroke="midnightblue" d="M632.44,-224.08C626.78,-197.95 610.14,-121.21 602.41,-85.58"/>
<polygon fill="midnightblue" stroke="midnightblue" points="605.78,-84.6 600.24,-75.57 598.94,-86.08 605.78,-84.6"/>
</g>
<!-- Node22&#45;&gt;Node5 -->
<g id="edge41" class="edge">
<title>Node22&#45;&gt;Node5</title>
<path fill="none" stroke="midnightblue" d="M646.53,-224.48C682.03,-198.55 780.49,-118.52 738.38,-56 720.61,-29.63 684.46,-18.7 658.23,-14.18"/>
<polygon fill="midnightblue" stroke="midnightblue" points="658.43,-10.68 648.03,-12.66 657.4,-17.6 658.43,-10.68"/>
</g>
<!-- Node22&#45;&gt;Node9 -->
<g id="edge42" class="edge">
<title>Node22&#45;&gt;Node9</title>
<path fill="none" stroke="midnightblue" d="M638.3,-224.08C649.84,-197.83 683.83,-120.55 699.41,-85.12"/>
<polygon fill="midnightblue" stroke="midnightblue" points="702.79,-86.13 703.61,-75.57 696.38,-83.31 702.79,-86.13"/>
</g>
<!-- Node22&#45;&gt;Node14 -->
<g id="edge40" class="edge">
<title>Node22&#45;&gt;Node14</title>
<path fill="none" stroke="midnightblue" d="M603,-225.94C560.74,-216.43 485.35,-199.47 437.71,-188.75"/>
<polygon fill="midnightblue" stroke="midnightblue" points="438.22,-185.28 427.69,-186.5 436.68,-192.1 438.22,-185.28"/>
</g>
</g>
</svg>
        <g id="navigator" transform="translate(0 0)" fill="#404254">
                <rect fill="#f2f5e9" fill-opacity="0.5" stroke="#606060" stroke-width=".5" x="0" y="0" width="60" height="60"/>
                <use id="zoomplus" xlink:href="#zoomPlus" x="17" y="9" onmousedown="handleZoom(evt,'in')"/>
                <use id="zoomminus" xlink:href="#zoomMin" x="42" y="9" onmousedown="handleZoom(evt,'out')"/>
                <use id="reset" xlink:href="#resetDef" x="30" y="36" onmousedown="handleReset()"/>
                <g id="arrowUp" xlink:href="#dirArrow" transform="translate(30 24)" onmousedown="handlePan(0,-1)">
                  <use xlink:href="#rim" fill="#404040">
                        <set attributeName="fill" to="#808080" begin="arrowUp.mouseover" end="arrowUp.mouseout"/>
                  </use>
                  <path fill="none" stroke="white" stroke-width="1.5" d="M0,-3.0v7 M-2.5,-0.5L0,-3.0L2.5,-0.5"/>
                </g>
                <g id="arrowRight" xlink:href="#dirArrow" transform="rotate(90) translate(36 -43)" onmousedown="handlePan(1,0)">
                  <use xlink:href="#rim" fill="#404040">
                        <set attributeName="fill" to="#808080" begin="arrowRight.mouseover" end="arrowRight.mouseout"/>
                  </use>
                  <path fill="none" stroke="white" stroke-width="1.5" d="M0,-3.0v7 M-2.5,-0.5L0,-3.0L2.5,-0.5"/>
                </g>
                <g id="arrowDown" xlink:href="#dirArrow" transform="rotate(180) translate(-30 -48)" onmousedown="handlePan(0,1)">
                  <use xlink:href="#rim" fill="#404040">
                        <set attributeName="fill" to="#808080" begin="arrowDown.mouseover" end="arrowDown.mouseout"/>
                  </use>
                  <path fill="none" stroke="white" stroke-width="1.5" d="M0,-3.0v7 M-2.5,-0.5L0,-3.0L2.5,-0.5"/>
                </g>
                <g id="arrowLeft" xlink:href="#dirArrow" transform="rotate(270) translate(-36 17)" onmousedown="handlePan(-1,0)">
                  <use xlink:href="#rim" fill="#404040">
                        <set attributeName="fill" to="#808080" begin="arrowLeft.mouseover" end="arrowLeft.mouseout"/>
                  </use>
                  <path fill="none" stroke="white" stroke-width="1.5" d="M0,-3.0v7 M-2.5,-0.5L0,-3.0L2.5,-0.5"/>
                </g>
        </g>
        <svg viewBox="0 0 15 15" width="100%" height="30px" preserveAspectRatio="xMaxYMin meet">
         <g id="arrow_out" transform="scale(0.3 0.3)">
          <a xlink:href="s3-api_8h__incl_org.svg" target="_base">
           <rect id="button" ry="5" rx="5" y="6" x="6" height="38" width="38"
                fill="#f2f5e9" fill-opacity="0.5" stroke="#606060" stroke-width="1.0"/>
           <path id="arrow"
             d="M 11.500037,31.436501 C 11.940474,20.09759 22.043105,11.32322 32.158766,21.979434 L 37.068811,17.246167 C 37.068811,17.246167 37.088388,32 37.088388,32 L 22.160133,31.978069 C 22.160133,31.978069 26.997745,27.140456 26.997745,27.140456 C 18.528582,18.264221 13.291696,25.230495 11.500037,31.436501 z"
             style="fill:#404040;"/>
          </a>
         </g>
        </svg>
</svg>
