<?xml version="1.0" encoding="UTF-8" standalone="no"?>
<!DOCTYPE svg PUBLIC "-//W3C//DTD SVG 1.1//EN"
 "http://www.w3.org/Graphics/SVG/1.1/DTD/svg11.dtd">
<!-- Generated by graphviz version 2.43.0 (0)
 -->
<!-- Title: /home/ugovaretto/projects/uv&#45;cpp/s3client/repo/lib/include/s3&#45;api.h Pages: 1 -->
<!--zoomable 330 -->
<svg id="main" version="1.1" xmlns="http://www.w3.org/2000/svg" xmlns:xlink="http://www.w3.org/1999/xlink" xml:space="preserve" onload="init(evt)">
<style type="text/css"><![CDATA[
.edge:hover path { stroke: red; }
.edge:hover polygon { stroke: red; fill: red; }
]]></style>
<script type="text/javascript"><![CDATA[
var edges = document.getElementsByTagName('g');
if (edges && edges.length) {
  for (var i=0;i<edges.length;i++) {
    if (edges[i].id.substr(0,4)=='edge') {
      edges[i].setAttribute('class','edge');
    }
  }
}
]]></script>
        <defs>
                <circle id="rim" cx="0" cy="0" r="7"/>
                <circle id="rim2" cx="0" cy="0" r="3.5"/>
                <g id="zoomPlus">
                        <use xlink:href="#rim" fill="#404040">
                                <set attributeName="fill" to="#808080" begin="zoomplus.mouseover" end="zoomplus.mouseout"/>
                        </use>
                        <path d="M-4,0h8M0,-4v8" fill="none" stroke="white" stroke-width="1.5" pointer-events="none"/>
                </g>
                <g id="zoomMin">
                        <use xlink:href="#rim" fill="#404040">
                                <set attributeName="fill" to="#808080" begin="zoomminus.mouseover" end="zoomminus.mouseout"/>
                        </use>
                        <path d="M-4,0h8" fill="none" stroke="white" stroke-width="1.5" pointer-events="none"/>
                </g>
                <g id="dirArrow">
                        <path fill="none" stroke="white" stroke-width="1.5" d="M0,-3.0v7 M-2.5,-0.5L0,-3.0L2.5,-0.5"/>
                </g>
               <g id="resetDef">
                       <use xlink:href="#rim2" fill="#404040">
                               <set attributeName="fill" to="#808080" begin="reset.mouseover" end="reset.mouseout"/>
                       </use>
               </g>
        </defs>

<script type="text/javascript">
var viewWidth = 937;
var viewHeight = 330;
var sectionId = 'dynsection-0';
</script>
<script xlink:href="svgpan.js"/>
<svg id="graph" class="graph">
<g id="viewport">
<title>/home/ugovaretto/projects/uv&#45;cpp/s3client/repo/lib/include/s3&#45;api.h</title>
<!-- Node1 -->
<g id="node1" class="node">
<title>Node1</title>
<g id="a_node1"><a xlink:title="declarations of S3Api class.">
<polygon fill="#bfbfbf" stroke="black" points="237,-280.5 237,-321.5 367,-321.5 367,-280.5 237,-280.5"/>
<text text-anchor="start" x="245" y="-309.5" font-family="Helvetica,sans-Serif" font-size="10.00">/home/ugovaretto/projects</text>
<text text-anchor="start" x="245" y="-298.5" font-family="Helvetica,sans-Serif" font-size="10.00">/uv&#45;cpp/s3client/repo/lib</text>
<text text-anchor="middle" x="302" y="-287.5" font-family="Helvetica,sans-Serif" font-size="10.00">/include/s3&#45;api.h</text>
</a>
</g>
</g>
<!-- Node2 -->
<g id="node2" class="node">
<title>Node2</title>
<g id="a_node2"><a xlink:href="aws__sign_8h.html" target="_top" xlink:title="Public interface to signing URLs and HTTP headers with the S3v4 protocol standard.">
<polygon fill="none" stroke="black" points="269,-168.5 269,-187.5 335,-187.5 335,-168.5 269,-168.5"/>
<text text-anchor="middle" x="302" y="-175.5" font-family="Helvetica,sans-Serif" font-size="10.00">aws_sign.h</text>
</a>
</g>
</g>
<!-- Node1&#45;&gt;Node2 -->
<g id="edge1" class="edge">
<title>Node1&#45;&gt;Node2</title>
<path fill="none" stroke="midnightblue" d="M302,-280.29C302,-257.48 302,-220.19 302,-197.78"/>
<polygon fill="midnightblue" stroke="midnightblue" points="305.5,-197.57 302,-187.57 298.5,-197.57 305.5,-197.57"/>
</g>
<!-- Node4 -->
<g id="node4" class="node">
<title>Node4</title>
<g id="a_node4"><a xlink:title=" ">
<polygon fill="none" stroke="#bfbfbf" points="820.5,-0.5 820.5,-19.5 855.5,-19.5 855.5,-0.5 820.5,-0.5"/>
<text text-anchor="middle" x="838" y="-7.5" font-family="Helvetica,sans-Serif" font-size="10.00">map</text>
</a>
</g>
</g>
<!-- Node1&#45;&gt;Node4 -->
<g id="edge41" class="edge">
<title>Node1&#45;&gt;Node4</title>
<path fill="none" stroke="midnightblue" d="M367.03,-294.24C527.43,-279.18 929,-235.78 929,-179 929,-179 929,-179 929,-121 929,-78.47 888.11,-43.53 861.15,-25.12"/>
<polygon fill="midnightblue" stroke="midnightblue" points="862.9,-22.08 852.62,-19.52 859.06,-27.93 862.9,-22.08"/>
</g>
<!-- Node13 -->
<g id="node13" class="node">
<title>Node13</title>
<g id="a_node13"><a xlink:href="response__parser_8h.html" target="_top" xlink:title="Functions to parse XML and HTTP headers.">
<polygon fill="none" stroke="black" points="0,-112.5 0,-131.5 96,-131.5 96,-112.5 0,-112.5"/>
<text text-anchor="middle" x="48" y="-119.5" font-family="Helvetica,sans-Serif" font-size="10.00">response_parser.h</text>
</a>
</g>
</g>
<!-- Node1&#45;&gt;Node13 -->
<g id="edge18" class="edge">
<title>Node1&#45;&gt;Node13</title>
<path fill="none" stroke="midnightblue" d="M260.39,-280.33C219.89,-260.15 157.64,-226.36 110,-188 91.69,-173.26 73.45,-153.34 61.54,-139.46"/>
<polygon fill="midnightblue" stroke="midnightblue" points="64.12,-137.09 55,-131.69 58.77,-141.6 64.12,-137.09"/>
</g>
<!-- Node15 -->
<g id="node15" class="node">
<title>Node15</title>
<g id="a_node15"><a xlink:href="s3-client_8h.html" target="_top" xlink:title="declaration of functions and data types for sending S3 requests, signing URLs and downloading and upl...">
<polygon fill="none" stroke="black" points="211,-224.5 211,-243.5 273,-243.5 273,-224.5 211,-224.5"/>
<text text-anchor="middle" x="242" y="-231.5" font-family="Helvetica,sans-Serif" font-size="10.00">s3&#45;client.h</text>
</a>
</g>
</g>
<!-- Node1&#45;&gt;Node15 -->
<g id="edge23" class="edge">
<title>Node1&#45;&gt;Node15</title>
<path fill="none" stroke="midnightblue" d="M284,-280.5C275.33,-271.11 265.06,-259.98 256.85,-251.08"/>
<polygon fill="midnightblue" stroke="midnightblue" points="259.34,-248.63 249.99,-243.65 254.2,-253.37 259.34,-248.63"/>
</g>
<!-- Node16 -->
<g id="node16" class="node">
<title>Node16</title>
<g id="a_node16"><a xlink:href="webclient_8h.html" target="_top" xlink:title="declaration of WebClient class wrapping libcurl to send web requests.">
<polygon fill="none" stroke="black" points="518,-168.5 518,-187.5 584,-187.5 584,-168.5 518,-168.5"/>
<text text-anchor="middle" x="551" y="-175.5" font-family="Helvetica,sans-Serif" font-size="10.00">webclient.h</text>
</a>
</g>
</g>
<!-- Node1&#45;&gt;Node16 -->
<g id="edge40" class="edge">
<title>Node1&#45;&gt;Node16</title>
<path fill="none" stroke="midnightblue" d="M342.28,-280.42C393.47,-255.55 480.41,-213.3 524.16,-192.04"/>
<polygon fill="midnightblue" stroke="midnightblue" points="525.85,-195.11 533.31,-187.6 522.79,-188.82 525.85,-195.11"/>
</g>
<!-- Node3 -->
<g id="node3" class="node">
<title>Node3</title>
<g id="a_node3"><a xlink:href="common_8h.html" target="_top" xlink:title="Common definitions.">
<polygon fill="none" stroke="black" points="252,-56.5 252,-75.5 314,-75.5 314,-56.5 252,-56.5"/>
<text text-anchor="middle" x="283" y="-63.5" font-family="Helvetica,sans-Serif" font-size="10.00">common.h</text>
</a>
</g>
</g>
<!-- Node2&#45;&gt;Node3 -->
<g id="edge2" class="edge">
<title>Node2&#45;&gt;Node3</title>
<path fill="none" stroke="midnightblue" d="M300.51,-168.37C297.44,-150.62 290.37,-109.67 286.21,-85.6"/>
<polygon fill="midnightblue" stroke="midnightblue" points="289.64,-84.85 284.48,-75.59 282.74,-86.04 289.64,-84.85"/>
</g>
<!-- Node5 -->
<g id="node5" class="node">
<title>Node5</title>
<g id="a_node5"><a xlink:title=" ">
<polygon fill="none" stroke="#bfbfbf" points="262.5,-0.5 262.5,-19.5 303.5,-19.5 303.5,-0.5 262.5,-0.5"/>
<text text-anchor="middle" x="283" y="-7.5" font-family="Helvetica,sans-Serif" font-size="10.00">string</text>
</a>
</g>
</g>
<!-- Node2&#45;&gt;Node5 -->
<g id="edge17" class="edge">
<title>Node2&#45;&gt;Node5</title>
<path fill="none" stroke="midnightblue" d="M283.73,-168.35C255.51,-153.83 202.34,-121.6 181,-76 165.69,-43.28 217.01,-25.19 252.33,-16.83"/>
<polygon fill="midnightblue" stroke="midnightblue" points="253.23,-20.22 262.24,-14.64 251.72,-13.38 253.23,-20.22"/>
</g>
<!-- Node6 -->
<g id="node6" class="node">
<title>Node6</title>
<g id="a_node6"><a xlink:href="url__utility_8h.html" target="_top" xlink:title="Internal utility functions to process and parse text and URLs and create S3 signature keys.">
<polygon fill="none" stroke="black" points="345,-112.5 345,-131.5 407,-131.5 407,-112.5 345,-112.5"/>
<text text-anchor="middle" x="376" y="-119.5" font-family="Helvetica,sans-Serif" font-size="10.00">url_utility.h</text>
</a>
</g>
</g>
<!-- Node2&#45;&gt;Node6 -->
<g id="edge5" class="edge">
<title>Node2&#45;&gt;Node6</title>
<path fill="none" stroke="midnightblue" d="M313.89,-168.32C325.15,-160.11 342.29,-147.6 355.71,-137.81"/>
<polygon fill="midnightblue" stroke="midnightblue" points="357.88,-140.56 363.89,-131.83 353.75,-134.9 357.88,-140.56"/>
</g>
<!-- Node3&#45;&gt;Node4 -->
<g id="edge3" class="edge">
<title>Node3&#45;&gt;Node4</title>
<path fill="none" stroke="midnightblue" d="M314.11,-61.26C328.39,-59.58 345.54,-57.62 361,-56 531.36,-38.14 736.3,-19.89 809.95,-13.44"/>
<polygon fill="midnightblue" stroke="midnightblue" points="810.57,-16.9 820.23,-12.54 809.96,-9.93 810.57,-16.9"/>
</g>
<!-- Node3&#45;&gt;Node5 -->
<g id="edge4" class="edge">
<title>Node3&#45;&gt;Node5</title>
<path fill="none" stroke="midnightblue" d="M283,-56.08C283,-49.01 283,-38.86 283,-29.99"/>
<polygon fill="midnightblue" stroke="midnightblue" points="286.5,-29.75 283,-19.75 279.5,-29.75 286.5,-29.75"/>
</g>
<!-- Node6&#45;&gt;Node3 -->
<g id="edge11" class="edge">
<title>Node6&#45;&gt;Node3</title>
<path fill="none" stroke="midnightblue" d="M361.06,-112.32C346.41,-103.82 323.87,-90.73 306.76,-80.8"/>
<polygon fill="midnightblue" stroke="midnightblue" points="308.31,-77.65 297.9,-75.65 304.8,-83.7 308.31,-77.65"/>
</g>
<!-- Node6&#45;&gt;Node4 -->
<g id="edge8" class="edge">
<title>Node6&#45;&gt;Node4</title>
<path fill="none" stroke="midnightblue" d="M407.02,-115.12C449.24,-107 527.1,-91.56 593,-76 672.47,-57.23 765.44,-31.52 810.6,-18.8"/>
<polygon fill="midnightblue" stroke="midnightblue" points="811.58,-22.15 820.25,-16.07 809.68,-15.42 811.58,-22.15"/>
</g>
<!-- Node6&#45;&gt;Node5 -->
<g id="edge9" class="edge">
<title>Node6&#45;&gt;Node5</title>
<path fill="none" stroke="midnightblue" d="M369.25,-112.49C359.29,-99.98 339.99,-75.96 323,-56 314.77,-46.33 305.34,-35.7 297.7,-27.2"/>
<polygon fill="midnightblue" stroke="midnightblue" points="300.08,-24.61 290.78,-19.53 294.88,-29.3 300.08,-24.61"/>
</g>
<!-- Node7 -->
<g id="node7" class="node">
<title>Node7</title>
<g id="a_node7"><a xlink:title=" ">
<polygon fill="none" stroke="#bfbfbf" points="453,-0.5 453,-19.5 509,-19.5 509,-0.5 453,-0.5"/>
<text text-anchor="middle" x="481" y="-7.5" font-family="Helvetica,sans-Serif" font-size="10.00">algorithm</text>
</a>
</g>
</g>
<!-- Node6&#45;&gt;Node7 -->
<g id="edge6" class="edge">
<title>Node6&#45;&gt;Node7</title>
<path fill="none" stroke="midnightblue" d="M389.03,-112.23C401.14,-103.75 419.32,-90.13 433,-76 447.43,-61.1 461.21,-41.72 470.27,-28.02"/>
<polygon fill="midnightblue" stroke="midnightblue" points="473.25,-29.85 475.74,-19.56 467.37,-26.05 473.25,-29.85"/>
</g>
<!-- Node8 -->
<g id="node8" class="node">
<title>Node8</title>
<g id="a_node8"><a xlink:title=" ">
<polygon fill="none" stroke="#bfbfbf" points="370,-56.5 370,-75.5 424,-75.5 424,-56.5 370,-56.5"/>
<text text-anchor="middle" x="397" y="-63.5" font-family="Helvetica,sans-Serif" font-size="10.00">iostream</text>
</a>
</g>
</g>
<!-- Node6&#45;&gt;Node8 -->
<g id="edge7" class="edge">
<title>Node6&#45;&gt;Node8</title>
<path fill="none" stroke="midnightblue" d="M379.47,-112.08C382.31,-104.77 386.43,-94.18 389.96,-85.1"/>
<polygon fill="midnightblue" stroke="midnightblue" points="393.23,-86.34 393.6,-75.75 386.71,-83.8 393.23,-86.34"/>
</g>
<!-- Node9 -->
<g id="node9" class="node">
<title>Node9</title>
<g id="a_node9"><a xlink:title=" ">
<polygon fill="none" stroke="#bfbfbf" points="190,-56.5 190,-75.5 234,-75.5 234,-56.5 190,-56.5"/>
<text text-anchor="middle" x="212" y="-63.5" font-family="Helvetica,sans-Serif" font-size="10.00">vector</text>
</a>
</g>
</g>
<!-- Node6&#45;&gt;Node9 -->
<g id="edge10" class="edge">
<title>Node6&#45;&gt;Node9</title>
<path fill="none" stroke="midnightblue" d="M350.01,-112.44C321.29,-102.99 274.99,-87.74 244.04,-77.55"/>
<polygon fill="midnightblue" stroke="midnightblue" points="244.78,-74.11 234.18,-74.3 242.59,-80.76 244.78,-74.11"/>
</g>
<!-- Node10 -->
<g id="node10" class="node">
<title>Node10</title>
<g id="a_node10"><a xlink:href="lib_2include_2utility_8h.html" target="_top" xlink:title="internal utility functions">
<polygon fill="none" stroke="black" points="536.5,-56.5 536.5,-75.5 583.5,-75.5 583.5,-56.5 536.5,-56.5"/>
<text text-anchor="middle" x="560" y="-63.5" font-family="Helvetica,sans-Serif" font-size="10.00">utility.h</text>
</a>
</g>
</g>
<!-- Node6&#45;&gt;Node10 -->
<g id="edge12" class="edge">
<title>Node6&#45;&gt;Node10</title>
<path fill="none" stroke="midnightblue" d="M405.16,-112.44C438.17,-102.75 491.88,-86.99 526.57,-76.81"/>
<polygon fill="midnightblue" stroke="midnightblue" points="527.64,-80.15 536.25,-73.97 525.67,-73.43 527.64,-80.15"/>
</g>
<!-- Node10&#45;&gt;Node5 -->
<g id="edge15" class="edge">
<title>Node10&#45;&gt;Node5</title>
<path fill="none" stroke="midnightblue" d="M536.38,-60.4C486.24,-50.62 369.16,-27.8 313.48,-16.94"/>
<polygon fill="midnightblue" stroke="midnightblue" points="313.99,-13.48 303.51,-15 312.65,-20.35 313.99,-13.48"/>
</g>
<!-- Node10&#45;&gt;Node7 -->
<g id="edge13" class="edge">
<title>Node10&#45;&gt;Node7</title>
<path fill="none" stroke="midnightblue" d="M547.31,-56.32C535.1,-47.98 516.42,-35.21 502,-25.35"/>
<polygon fill="midnightblue" stroke="midnightblue" points="503.89,-22.41 493.66,-19.65 499.94,-28.19 503.89,-22.41"/>
</g>
<!-- Node11 -->
<g id="node11" class="node">
<title>Node11</title>
<g id="a_node11"><a xlink:title=" ">
<polygon fill="none" stroke="#bfbfbf" points="628.5,-0.5 628.5,-19.5 687.5,-19.5 687.5,-0.5 628.5,-0.5"/>
<text text-anchor="middle" x="658" y="-7.5" font-family="Helvetica,sans-Serif" font-size="10.00">functional</text>
</a>
</g>
</g>
<!-- Node10&#45;&gt;Node11 -->
<g id="edge14" class="edge">
<title>Node10&#45;&gt;Node11</title>
<path fill="none" stroke="midnightblue" d="M575.75,-56.32C591.32,-47.74 615.38,-34.49 633.46,-24.52"/>
<polygon fill="midnightblue" stroke="midnightblue" points="635.22,-27.55 642.29,-19.65 631.85,-21.42 635.22,-27.55"/>
</g>
<!-- Node12 -->
<g id="node12" class="node">
<title>Node12</title>
<g id="a_node12"><a xlink:title=" ">
<polygon fill="none" stroke="#bfbfbf" points="527.5,-0.5 527.5,-19.5 610.5,-19.5 610.5,-0.5 527.5,-0.5"/>
<text text-anchor="middle" x="569" y="-7.5" font-family="Helvetica,sans-Serif" font-size="10.00">unordered_map</text>
</a>
</g>
</g>
<!-- Node10&#45;&gt;Node12 -->
<g id="edge16" class="edge">
<title>Node10&#45;&gt;Node12</title>
<path fill="none" stroke="midnightblue" d="M561.49,-56.08C562.68,-48.93 564.39,-38.64 565.88,-29.69"/>
<polygon fill="midnightblue" stroke="midnightblue" points="569.35,-30.19 567.54,-19.75 562.45,-29.04 569.35,-30.19"/>
</g>
<!-- Node13&#45;&gt;Node3 -->
<g id="edge22" class="edge">
<title>Node13&#45;&gt;Node3</title>
<path fill="none" stroke="midnightblue" d="M85.24,-112.44C127.98,-102.62 197.87,-86.56 242.1,-76.4"/>
<polygon fill="midnightblue" stroke="midnightblue" points="242.98,-79.79 251.94,-74.14 241.41,-72.97 242.98,-79.79"/>
</g>
<!-- Node13&#45;&gt;Node5 -->
<g id="edge20" class="edge">
<title>Node13&#45;&gt;Node5</title>
<path fill="none" stroke="midnightblue" d="M53.76,-112.38C63.6,-98.36 85,-70.71 110,-56 155.28,-29.36 216.33,-18.28 252.49,-13.82"/>
<polygon fill="midnightblue" stroke="midnightblue" points="252.89,-17.3 262.43,-12.69 252.1,-10.34 252.89,-17.3"/>
</g>
<!-- Node13&#45;&gt;Node9 -->
<g id="edge21" class="edge">
<title>Node13&#45;&gt;Node9</title>
<path fill="none" stroke="midnightblue" d="M73.99,-112.44C102.71,-102.99 149.01,-87.74 179.96,-77.55"/>
<polygon fill="midnightblue" stroke="midnightblue" points="181.41,-80.76 189.82,-74.3 179.22,-74.11 181.41,-80.76"/>
</g>
<!-- Node14 -->
<g id="node14" class="node">
<title>Node14</title>
<g id="a_node14"><a xlink:title=" ">
<polygon fill="none" stroke="#bfbfbf" points="16.5,-56.5 16.5,-75.5 57.5,-75.5 57.5,-56.5 16.5,-56.5"/>
<text text-anchor="middle" x="37" y="-63.5" font-family="Helvetica,sans-Serif" font-size="10.00">regex</text>
</a>
</g>
</g>
<!-- Node13&#45;&gt;Node14 -->
<g id="edge19" class="edge">
<title>Node13&#45;&gt;Node14</title>
<path fill="none" stroke="midnightblue" d="M46.18,-112.08C44.73,-104.93 42.63,-94.64 40.81,-85.69"/>
<polygon fill="midnightblue" stroke="midnightblue" points="44.21,-84.85 38.78,-75.75 37.35,-86.25 44.21,-84.85"/>
</g>
<!-- Node15&#45;&gt;Node2 -->
<g id="edge24" class="edge">
<title>Node15&#45;&gt;Node2</title>
<path fill="none" stroke="midnightblue" d="M251.64,-224.32C260.51,-216.34 273.87,-204.31 284.61,-194.65"/>
<polygon fill="midnightblue" stroke="midnightblue" points="287.09,-197.13 292.18,-187.83 282.41,-191.92 287.09,-197.13"/>
</g>
<!-- Node15&#45;&gt;Node3 -->
<g id="edge25" class="edge">
<title>Node15&#45;&gt;Node3</title>
<path fill="none" stroke="midnightblue" d="M244.2,-224.08C250.66,-197.95 269.61,-121.21 278.41,-85.58"/>
<polygon fill="midnightblue" stroke="midnightblue" points="281.88,-86.12 280.88,-75.57 275.09,-84.44 281.88,-86.12"/>
</g>
<!-- Node15&#45;&gt;Node5 -->
<g id="edge38" class="edge">
<title>Node15&#45;&gt;Node5</title>
<path fill="none" stroke="midnightblue" d="M233.32,-224.25C207.67,-197.31 136.36,-113.96 175,-56 192.13,-30.3 227.01,-19.26 252.51,-14.52"/>
<polygon fill="midnightblue" stroke="midnightblue" points="253.14,-17.97 262.45,-12.9 252.02,-11.06 253.14,-17.97"/>
</g>
<!-- Node15&#45;&gt;Node9 -->
<g id="edge39" class="edge">
<title>Node15&#45;&gt;Node9</title>
<path fill="none" stroke="midnightblue" d="M238.48,-224.18C235.04,-215.22 229.91,-200.85 227,-188 218.93,-152.34 214.92,-109.71 213.17,-85.76"/>
<polygon fill="midnightblue" stroke="midnightblue" points="216.65,-85.35 212.48,-75.61 209.66,-85.82 216.65,-85.35"/>
</g>
<!-- Node15&#45;&gt;Node16 -->
<g id="edge26" class="edge">
<title>Node15&#45;&gt;Node16</title>
<path fill="none" stroke="midnightblue" d="M273.04,-227.58C328.42,-217.9 444.36,-197.64 507.6,-186.59"/>
<polygon fill="midnightblue" stroke="midnightblue" points="508.4,-190 517.65,-184.83 507.2,-183.1 508.4,-190"/>
</g>
<!-- Node16&#45;&gt;Node3 -->
<g id="edge35" class="edge">
<title>Node16&#45;&gt;Node3</title>
<path fill="none" stroke="midnightblue" d="M551.16,-168.36C550.92,-154.31 548.26,-126.63 532,-112 516.73,-98.26 390.91,-80.59 324.19,-72.05"/>
<polygon fill="midnightblue" stroke="midnightblue" points="324.38,-68.55 314.02,-70.76 323.5,-75.49 324.38,-68.55"/>
</g>
<!-- Node16&#45;&gt;Node4 -->
<g id="edge31" class="edge">
<title>Node16&#45;&gt;Node4</title>
<path fill="none" stroke="midnightblue" d="M584.22,-177.57C658.61,-178.07 834.94,-174.62 872,-132 898.01,-102.08 869.98,-53.68 851.51,-28.11"/>
<polygon fill="midnightblue" stroke="midnightblue" points="854.06,-25.68 845.25,-19.79 848.47,-29.89 854.06,-25.68"/>
</g>
<!-- Node16&#45;&gt;Node5 -->
<g id="edge33" class="edge">
<title>Node16&#45;&gt;Node5</title>
<path fill="none" stroke="midnightblue" d="M517.75,-169.01C496.96,-162.37 471.14,-150.89 455,-132 432.16,-105.27 457.74,-80.99 433,-56 401.24,-23.93 347.58,-14.53 313.79,-11.88"/>
<polygon fill="midnightblue" stroke="midnightblue" points="313.77,-8.37 303.57,-11.24 313.33,-15.36 313.77,-8.37"/>
</g>
<!-- Node16&#45;&gt;Node6 -->
<g id="edge36" class="edge">
<title>Node16&#45;&gt;Node6</title>
<path fill="none" stroke="midnightblue" d="M523.27,-168.44C493.57,-159.28 446.28,-144.69 413.33,-134.52"/>
<polygon fill="midnightblue" stroke="midnightblue" points="414.19,-131.12 403.6,-131.52 412.12,-137.81 414.19,-131.12"/>
</g>
<!-- Node16&#45;&gt;Node9 -->
<g id="edge34" class="edge">
<title>Node16&#45;&gt;Node9</title>
<path fill="none" stroke="midnightblue" d="M517.81,-172.96C474.89,-167.07 398.28,-154.35 336,-132 298.64,-118.59 258.48,-95.84 234.3,-81.12"/>
<polygon fill="midnightblue" stroke="midnightblue" points="235.9,-78 225.56,-75.72 232.23,-83.95 235.9,-78"/>
</g>
<!-- Node16&#45;&gt;Node10 -->
<g id="edge37" class="edge">
<title>Node16&#45;&gt;Node10</title>
<path fill="none" stroke="midnightblue" d="M554.6,-168.22C558.06,-159.28 563.03,-144.94 565,-132 567.34,-116.6 565.72,-98.96 563.72,-85.95"/>
<polygon fill="midnightblue" stroke="midnightblue" points="567.13,-85.12 561.95,-75.88 560.23,-86.33 567.13,-85.12"/>
</g>
<!-- Node17 -->
<g id="node17" class="node">
<title>Node17</title>
<g id="a_node17"><a xlink:title=" ">
<polygon fill="none" stroke="#bfbfbf" points="463.5,-112.5 463.5,-131.5 522.5,-131.5 522.5,-112.5 463.5,-112.5"/>
<text text-anchor="middle" x="493" y="-119.5" font-family="Helvetica,sans-Serif" font-size="10.00">curl/curl.h</text>
</a>
</g>
</g>
<!-- Node16&#45;&gt;Node17 -->
<g id="edge27" class="edge">
<title>Node16&#45;&gt;Node17</title>
<path fill="none" stroke="midnightblue" d="M541.68,-168.32C533.11,-160.34 520.19,-148.31 509.81,-138.65"/>
<polygon fill="midnightblue" stroke="midnightblue" points="512.19,-136.09 502.49,-131.83 507.42,-141.21 512.19,-136.09"/>
</g>
<!-- Node18 -->
<g id="node18" class="node">
<title>Node18</title>
<g id="a_node18"><a xlink:title=" ">
<polygon fill="none" stroke="#bfbfbf" points="617.5,-112.5 617.5,-131.5 680.5,-131.5 680.5,-112.5 617.5,-112.5"/>
<text text-anchor="middle" x="649" y="-119.5" font-family="Helvetica,sans-Serif" font-size="10.00">curl/easy.h</text>
</a>
</g>
</g>
<!-- Node16&#45;&gt;Node18 -->
<g id="edge28" class="edge">
<title>Node16&#45;&gt;Node18</title>
<path fill="none" stroke="midnightblue" d="M566.75,-168.32C582.32,-159.74 606.38,-146.49 624.46,-136.52"/>
<polygon fill="midnightblue" stroke="midnightblue" points="626.22,-139.55 633.29,-131.65 622.85,-133.42 626.22,-139.55"/>
</g>
<!-- Node19 -->
<g id="node19" class="node">
<title>Node19</title>
<g id="a_node19"><a xlink:title=" ">
<polygon fill="none" stroke="#bfbfbf" points="699,-112.5 699,-131.5 737,-131.5 737,-112.5 699,-112.5"/>
<text text-anchor="middle" x="718" y="-119.5" font-family="Helvetica,sans-Serif" font-size="10.00">array</text>
</a>
</g>
</g>
<!-- Node16&#45;&gt;Node19 -->
<g id="edge29" class="edge">
<title>Node16&#45;&gt;Node19</title>
<path fill="none" stroke="midnightblue" d="M577.46,-168.44C607.87,-158.61 657.61,-142.53 689.03,-132.37"/>
<polygon fill="midnightblue" stroke="midnightblue" points="690.5,-135.57 698.93,-129.16 688.34,-128.91 690.5,-135.57"/>
</g>
<!-- Node20 -->
<g id="node20" class="node">
<title>Node20</title>
<g id="a_node20"><a xlink:title=" ">
<polygon fill="none" stroke="#bfbfbf" points="755,-112.5 755,-131.5 801,-131.5 801,-112.5 755,-112.5"/>
<text text-anchor="middle" x="778" y="-119.5" font-family="Helvetica,sans-Serif" font-size="10.00">atomic</text>
</a>
</g>
</g>
<!-- Node16&#45;&gt;Node20 -->
<g id="edge30" class="edge">
<title>Node16&#45;&gt;Node20</title>
<path fill="none" stroke="midnightblue" d="M584.24,-169.83C621.17,-161.76 682.79,-147.96 744.98,-132.17"/>
<polygon fill="midnightblue" stroke="midnightblue" points="746.14,-135.49 754.96,-129.62 744.41,-128.7 746.14,-135.49"/>
</g>
<!-- Node21 -->
<g id="node21" class="node">
<title>Node21</title>
<g id="a_node21"><a xlink:title=" ">
<polygon fill="none" stroke="#bfbfbf" points="819,-112.5 819,-131.5 863,-131.5 863,-112.5 819,-112.5"/>
<text text-anchor="middle" x="841" y="-119.5" font-family="Helvetica,sans-Serif" font-size="10.00">mutex</text>
</a>
</g>
</g>
<!-- Node16&#45;&gt;Node21 -->
<g id="edge32" class="edge">
<title>Node16&#45;&gt;Node21</title>
<path fill="none" stroke="midnightblue" d="M584.35,-172.41C632.06,-165.58 722.69,-151.65 808.79,-132.07"/>
<polygon fill="midnightblue" stroke="midnightblue" points="809.77,-135.44 818.73,-129.79 808.2,-128.62 809.77,-135.44"/>
</g>
</g>
</svg>
        <g id="navigator" transform="translate(0 0)" fill="#404254">
                <rect fill="#f2f5e9" fill-opacity="0.5" stroke="#606060" stroke-width=".5" x="0" y="0" width="60" height="60"/>
                <use id="zoomplus" xlink:href="#zoomPlus" x="17" y="9" onmousedown="handleZoom(evt,'in')"/>
                <use id="zoomminus" xlink:href="#zoomMin" x="42" y="9" onmousedown="handleZoom(evt,'out')"/>
                <use id="reset" xlink:href="#resetDef" x="30" y="36" onmousedown="handleReset()"/>
                <g id="arrowUp" xlink:href="#dirArrow" transform="translate(30 24)" onmousedown="handlePan(0,-1)">
                  <use xlink:href="#rim" fill="#404040">
                        <set attributeName="fill" to="#808080" begin="arrowUp.mouseover" end="arrowUp.mouseout"/>
                  </use>
                  <path fill="none" stroke="white" stroke-width="1.5" d="M0,-3.0v7 M-2.5,-0.5L0,-3.0L2.5,-0.5"/>
                </g>
                <g id="arrowRight" xlink:href="#dirArrow" transform="rotate(90) translate(36 -43)" onmousedown="handlePan(1,0)">
                  <use xlink:href="#rim" fill="#404040">
                        <set attributeName="fill" to="#808080" begin="arrowRight.mouseover" end="arrowRight.mouseout"/>
                  </use>
                  <path fill="none" stroke="white" stroke-width="1.5" d="M0,-3.0v7 M-2.5,-0.5L0,-3.0L2.5,-0.5"/>
                </g>
                <g id="arrowDown" xlink:href="#dirArrow" transform="rotate(180) translate(-30 -48)" onmousedown="handlePan(0,1)">
                  <use xlink:href="#rim" fill="#404040">
                        <set attributeName="fill" to="#808080" begin="arrowDown.mouseover" end="arrowDown.mouseout"/>
                  </use>
                  <path fill="none" stroke="white" stroke-width="1.5" d="M0,-3.0v7 M-2.5,-0.5L0,-3.0L2.5,-0.5"/>
                </g>
                <g id="arrowLeft" xlink:href="#dirArrow" transform="rotate(270) translate(-36 17)" onmousedown="handlePan(-1,0)">
                  <use xlink:href="#rim" fill="#404040">
                        <set attributeName="fill" to="#808080" begin="arrowLeft.mouseover" end="arrowLeft.mouseout"/>
                  </use>
                  <path fill="none" stroke="white" stroke-width="1.5" d="M0,-3.0v7 M-2.5,-0.5L0,-3.0L2.5,-0.5"/>
                </g>
        </g>
        <svg viewBox="0 0 15 15" width="100%" height="30px" preserveAspectRatio="xMaxYMin meet">
         <g id="arrow_out" transform="scale(0.3 0.3)">
          <a xlink:href="s3-api_8h__incl_org.svg" target="_base">
           <rect id="button" ry="5" rx="5" y="6" x="6" height="38" width="38"
                fill="#f2f5e9" fill-opacity="0.5" stroke="#606060" stroke-width="1.0"/>
           <path id="arrow"
             d="M 11.500037,31.436501 C 11.940474,20.09759 22.043105,11.32322 32.158766,21.979434 L 37.068811,17.246167 C 37.068811,17.246167 37.088388,32 37.088388,32 L 22.160133,31.978069 C 22.160133,31.978069 26.997745,27.140456 26.997745,27.140456 C 18.528582,18.264221 13.291696,25.230495 11.500037,31.436501 z"
             style="fill:#404040;"/>
          </a>
         </g>
        </svg>
</svg>
