<?xml version="1.0" encoding="UTF-8" standalone="no"?>
<!DOCTYPE svg PUBLIC "-//W3C//DTD SVG 1.1//EN"
 "http://www.w3.org/Graphics/SVG/1.1/DTD/svg11.dtd">
<!-- Generated by graphviz version 2.43.0 (0)
 -->
<!-- Title: /home/ugovaretto/projects/uv&#45;cpp/s3client/repo/lib/include/s3&#45;api.h Pages: 1 -->
<svg width="905pt" height="330pt"
 viewBox="0.00 0.00 905.00 330.00" xmlns="http://www.w3.org/2000/svg" xmlns:xlink="http://www.w3.org/1999/xlink">
<g id="graph0" class="graph" transform="scale(1 1) rotate(0) translate(4 326)">
<title>/home/ugovaretto/projects/uv&#45;cpp/s3client/repo/lib/include/s3&#45;api.h</title>
<!-- Node1 -->
<g id="node1" class="node">
<title>Node1</title>
<g id="a_node1"><a xlink:title="declarations of S3Client class;">
<polygon fill="#bfbfbf" stroke="black" points="149,-280.5 149,-321.5 279,-321.5 279,-280.5 149,-280.5"/>
<text text-anchor="start" x="157" y="-309.5" font-family="Helvetica,sans-Serif" font-size="10.00">/home/ugovaretto/projects</text>
<text text-anchor="start" x="157" y="-298.5" font-family="Helvetica,sans-Serif" font-size="10.00">/uv&#45;cpp/s3client/repo/lib</text>
<text text-anchor="middle" x="214" y="-287.5" font-family="Helvetica,sans-Serif" font-size="10.00">/include/s3&#45;api.h</text>
</a>
</g>
</g>
<!-- Node2 -->
<g id="node2" class="node">
<title>Node2</title>
<g id="a_node2"><a xlink:href="aws__sign_8h.html" target="_top" xlink:title="Public interface to signing URLs and HTTP headers with the S3v4 protocol standard.">
<polygon fill="none" stroke="black" points="152,-168.5 152,-187.5 218,-187.5 218,-168.5 152,-168.5"/>
<text text-anchor="middle" x="185" y="-175.5" font-family="Helvetica,sans-Serif" font-size="10.00">aws_sign.h</text>
</a>
</g>
</g>
<!-- Node1&#45;&gt;Node2 -->
<g id="edge1" class="edge">
<title>Node1&#45;&gt;Node2</title>
<path fill="none" stroke="midnightblue" d="M209.28,-280.29C203.78,-257.37 194.79,-219.85 189.43,-197.47"/>
<polygon fill="midnightblue" stroke="midnightblue" points="192.79,-196.48 187.06,-187.57 185.98,-198.12 192.79,-196.48"/>
</g>
<!-- Node13 -->
<g id="node13" class="node">
<title>Node13</title>
<g id="a_node13"><a xlink:href="response__parser_8h.html" target="_top" xlink:title="Functions to parse XML and HTTP headers.">
<polygon fill="none" stroke="black" points="0,-112.5 0,-131.5 96,-131.5 96,-112.5 0,-112.5"/>
<text text-anchor="middle" x="48" y="-119.5" font-family="Helvetica,sans-Serif" font-size="10.00">response_parser.h</text>
</a>
</g>
</g>
<!-- Node1&#45;&gt;Node13 -->
<g id="edge18" class="edge">
<title>Node1&#45;&gt;Node13</title>
<path fill="none" stroke="midnightblue" d="M195.6,-280.38C162.45,-245.03 93.32,-171.32 62.9,-138.89"/>
<polygon fill="midnightblue" stroke="midnightblue" points="65.44,-136.48 56.05,-131.58 60.34,-141.27 65.44,-136.48"/>
</g>
<!-- Node15 -->
<g id="node15" class="node">
<title>Node15</title>
<g id="a_node15"><a xlink:href="s3-client_8h.html" target="_top" xlink:title="declaration of functions and data types for sending S3 requests, signing URLs and downloading and upl...">
<polygon fill="none" stroke="black" points="214,-224.5 214,-243.5 276,-243.5 276,-224.5 214,-224.5"/>
<text text-anchor="middle" x="245" y="-231.5" font-family="Helvetica,sans-Serif" font-size="10.00">s3&#45;client.h</text>
</a>
</g>
</g>
<!-- Node1&#45;&gt;Node15 -->
<g id="edge23" class="edge">
<title>Node1&#45;&gt;Node15</title>
<path fill="none" stroke="midnightblue" d="M223.3,-280.5C227.51,-271.68 232.44,-261.34 236.54,-252.74"/>
<polygon fill="midnightblue" stroke="midnightblue" points="239.73,-254.19 240.87,-243.65 233.41,-251.17 239.73,-254.19"/>
</g>
<!-- Node16 -->
<g id="node16" class="node">
<title>Node16</title>
<g id="a_node16"><a xlink:href="webclient_8h.html" target="_top" xlink:title="declaration of WebClient class wrapping libcurl to send web requests.">
<polygon fill="none" stroke="black" points="513,-168.5 513,-187.5 579,-187.5 579,-168.5 513,-168.5"/>
<text text-anchor="middle" x="546" y="-175.5" font-family="Helvetica,sans-Serif" font-size="10.00">webclient.h</text>
</a>
</g>
</g>
<!-- Node1&#45;&gt;Node16 -->
<g id="edge40" class="edge">
<title>Node1&#45;&gt;Node16</title>
<path fill="none" stroke="midnightblue" d="M267.71,-280.42C336.96,-255.19 455.29,-212.06 512.75,-191.12"/>
<polygon fill="midnightblue" stroke="midnightblue" points="514.22,-194.31 522.41,-187.6 511.82,-187.73 514.22,-194.31"/>
</g>
<!-- Node3 -->
<g id="node3" class="node">
<title>Node3</title>
<g id="a_node3"><a xlink:href="common_8h.html" target="_top" xlink:title="Common definitions.">
<polygon fill="none" stroke="black" points="190,-56.5 190,-75.5 252,-75.5 252,-56.5 190,-56.5"/>
<text text-anchor="middle" x="221" y="-63.5" font-family="Helvetica,sans-Serif" font-size="10.00">common.h</text>
</a>
</g>
</g>
<!-- Node2&#45;&gt;Node3 -->
<g id="edge2" class="edge">
<title>Node2&#45;&gt;Node3</title>
<path fill="none" stroke="midnightblue" d="M187.82,-168.37C193.66,-150.54 207.16,-109.3 215.02,-85.27"/>
<polygon fill="midnightblue" stroke="midnightblue" points="218.4,-86.18 218.19,-75.59 211.75,-84.01 218.4,-86.18"/>
</g>
<!-- Node5 -->
<g id="node5" class="node">
<title>Node5</title>
<g id="a_node5"><a xlink:title=" ">
<polygon fill="none" stroke="#bfbfbf" points="200.5,-0.5 200.5,-19.5 241.5,-19.5 241.5,-0.5 200.5,-0.5"/>
<text text-anchor="middle" x="221" y="-7.5" font-family="Helvetica,sans-Serif" font-size="10.00">string</text>
</a>
</g>
</g>
<!-- Node2&#45;&gt;Node5 -->
<g id="edge17" class="edge">
<title>Node2&#45;&gt;Node5</title>
<path fill="none" stroke="midnightblue" d="M182.53,-168.42C177.13,-148.08 165.91,-95.69 181,-56 185.34,-44.6 194.03,-34.24 202.21,-26.34"/>
<polygon fill="midnightblue" stroke="midnightblue" points="204.64,-28.86 209.73,-19.57 199.96,-23.66 204.64,-28.86"/>
</g>
<!-- Node6 -->
<g id="node6" class="node">
<title>Node6</title>
<g id="a_node6"><a xlink:href="url__utility_8h.html" target="_top" xlink:title="Internal utility functions to process and parse text and URLs and create S3 signature keys.">
<polygon fill="none" stroke="black" points="304,-112.5 304,-131.5 366,-131.5 366,-112.5 304,-112.5"/>
<text text-anchor="middle" x="335" y="-119.5" font-family="Helvetica,sans-Serif" font-size="10.00">url_utility.h</text>
</a>
</g>
</g>
<!-- Node2&#45;&gt;Node6 -->
<g id="edge5" class="edge">
<title>Node2&#45;&gt;Node6</title>
<path fill="none" stroke="midnightblue" d="M208.77,-168.44C233.89,-159.4 273.71,-145.06 301.9,-134.92"/>
<polygon fill="midnightblue" stroke="midnightblue" points="303.12,-138.2 311.34,-131.52 300.75,-131.61 303.12,-138.2"/>
</g>
<!-- Node4 -->
<g id="node4" class="node">
<title>Node4</title>
<g id="a_node4"><a xlink:title=" ">
<polygon fill="none" stroke="#bfbfbf" points="372.5,-0.5 372.5,-19.5 407.5,-19.5 407.5,-0.5 372.5,-0.5"/>
<text text-anchor="middle" x="390" y="-7.5" font-family="Helvetica,sans-Serif" font-size="10.00">map</text>
</a>
</g>
</g>
<!-- Node3&#45;&gt;Node4 -->
<g id="edge3" class="edge">
<title>Node3&#45;&gt;Node4</title>
<path fill="none" stroke="midnightblue" d="M247.78,-56.44C279.05,-46.45 330.53,-30 362.23,-19.87"/>
<polygon fill="midnightblue" stroke="midnightblue" points="363.7,-23.08 372.16,-16.7 361.57,-16.41 363.7,-23.08"/>
</g>
<!-- Node3&#45;&gt;Node5 -->
<g id="edge4" class="edge">
<title>Node3&#45;&gt;Node5</title>
<path fill="none" stroke="midnightblue" d="M221,-56.08C221,-49.01 221,-38.86 221,-29.99"/>
<polygon fill="midnightblue" stroke="midnightblue" points="224.5,-29.75 221,-19.75 217.5,-29.75 224.5,-29.75"/>
</g>
<!-- Node6&#45;&gt;Node3 -->
<g id="edge11" class="edge">
<title>Node6&#45;&gt;Node3</title>
<path fill="none" stroke="midnightblue" d="M316.94,-112.44C298.43,-103.68 269.42,-89.94 248.14,-79.86"/>
<polygon fill="midnightblue" stroke="midnightblue" points="249.51,-76.63 238.98,-75.52 246.52,-82.96 249.51,-76.63"/>
</g>
<!-- Node6&#45;&gt;Node4 -->
<g id="edge8" class="edge">
<title>Node6&#45;&gt;Node4</title>
<path fill="none" stroke="midnightblue" d="M343.58,-112.43C351.7,-103.88 363.71,-90.02 371,-76 378.63,-61.33 383.61,-43.16 386.55,-29.77"/>
<polygon fill="midnightblue" stroke="midnightblue" points="390.01,-30.31 388.55,-19.82 383.15,-28.93 390.01,-30.31"/>
</g>
<!-- Node6&#45;&gt;Node5 -->
<g id="edge9" class="edge">
<title>Node6&#45;&gt;Node5</title>
<path fill="none" stroke="midnightblue" d="M326.05,-112.37C306.91,-93.89 261.72,-50.29 237.32,-26.74"/>
<polygon fill="midnightblue" stroke="midnightblue" points="239.53,-24.02 229.9,-19.59 234.67,-29.05 239.53,-24.02"/>
</g>
<!-- Node7 -->
<g id="node7" class="node">
<title>Node7</title>
<g id="a_node7"><a xlink:title=" ">
<polygon fill="none" stroke="#bfbfbf" points="498,-0.5 498,-19.5 554,-19.5 554,-0.5 498,-0.5"/>
<text text-anchor="middle" x="526" y="-7.5" font-family="Helvetica,sans-Serif" font-size="10.00">algorithm</text>
</a>
</g>
</g>
<!-- Node6&#45;&gt;Node7 -->
<g id="edge6" class="edge">
<title>Node6&#45;&gt;Node7</title>
<path fill="none" stroke="midnightblue" d="M349.83,-112.34C371.26,-99.85 412.11,-76.06 447,-56 465.36,-45.44 486.17,-33.59 501.82,-24.7"/>
<polygon fill="midnightblue" stroke="midnightblue" points="503.87,-27.57 510.83,-19.59 500.41,-21.48 503.87,-27.57"/>
</g>
<!-- Node8 -->
<g id="node8" class="node">
<title>Node8</title>
<g id="a_node8"><a xlink:title=" ">
<polygon fill="none" stroke="#bfbfbf" points="308,-56.5 308,-75.5 362,-75.5 362,-56.5 308,-56.5"/>
<text text-anchor="middle" x="335" y="-63.5" font-family="Helvetica,sans-Serif" font-size="10.00">iostream</text>
</a>
</g>
</g>
<!-- Node6&#45;&gt;Node8 -->
<g id="edge7" class="edge">
<title>Node6&#45;&gt;Node8</title>
<path fill="none" stroke="midnightblue" d="M335,-112.08C335,-105.01 335,-94.86 335,-85.99"/>
<polygon fill="midnightblue" stroke="midnightblue" points="338.5,-85.75 335,-75.75 331.5,-85.75 338.5,-85.75"/>
</g>
<!-- Node9 -->
<g id="node9" class="node">
<title>Node9</title>
<g id="a_node9"><a xlink:title=" ">
<polygon fill="none" stroke="#bfbfbf" points="456,-56.5 456,-75.5 500,-75.5 500,-56.5 456,-56.5"/>
<text text-anchor="middle" x="478" y="-63.5" font-family="Helvetica,sans-Serif" font-size="10.00">vector</text>
</a>
</g>
</g>
<!-- Node6&#45;&gt;Node9 -->
<g id="edge10" class="edge">
<title>Node6&#45;&gt;Node9</title>
<path fill="none" stroke="midnightblue" d="M357.66,-112.44C381.54,-103.42 419.35,-89.15 446.21,-79"/>
<polygon fill="midnightblue" stroke="midnightblue" points="447.8,-82.15 455.92,-75.34 445.33,-75.6 447.8,-82.15"/>
</g>
<!-- Node10 -->
<g id="node10" class="node">
<title>Node10</title>
<g id="a_node10"><a xlink:href="lib_2include_2utility_8h.html" target="_top" xlink:title="internal utility functions">
<polygon fill="none" stroke="black" points="662.5,-56.5 662.5,-75.5 709.5,-75.5 709.5,-56.5 662.5,-56.5"/>
<text text-anchor="middle" x="686" y="-63.5" font-family="Helvetica,sans-Serif" font-size="10.00">utility.h</text>
</a>
</g>
</g>
<!-- Node6&#45;&gt;Node10 -->
<g id="edge12" class="edge">
<title>Node6&#45;&gt;Node10</title>
<path fill="none" stroke="midnightblue" d="M366.15,-116.21C431.76,-106.11 583.75,-82.73 651.88,-72.25"/>
<polygon fill="midnightblue" stroke="midnightblue" points="652.72,-75.66 662.07,-70.68 651.66,-68.74 652.72,-75.66"/>
</g>
<!-- Node10&#45;&gt;Node5 -->
<g id="edge15" class="edge">
<title>Node10&#45;&gt;Node5</title>
<path fill="none" stroke="midnightblue" d="M662.3,-62.25C584.75,-53.24 338.56,-24.65 251.7,-14.57"/>
<polygon fill="midnightblue" stroke="midnightblue" points="252.02,-11.08 241.69,-13.4 251.22,-18.03 252.02,-11.08"/>
</g>
<!-- Node10&#45;&gt;Node7 -->
<g id="edge13" class="edge">
<title>Node10&#45;&gt;Node7</title>
<path fill="none" stroke="midnightblue" d="M662.39,-57.03C635.57,-47.98 591.53,-33.12 560.77,-22.74"/>
<polygon fill="midnightblue" stroke="midnightblue" points="561.89,-19.42 551.29,-19.54 559.65,-26.05 561.89,-19.42"/>
</g>
<!-- Node11 -->
<g id="node11" class="node">
<title>Node11</title>
<g id="a_node11"><a xlink:title=" ">
<polygon fill="none" stroke="#bfbfbf" points="700.5,-0.5 700.5,-19.5 759.5,-19.5 759.5,-0.5 700.5,-0.5"/>
<text text-anchor="middle" x="730" y="-7.5" font-family="Helvetica,sans-Serif" font-size="10.00">functional</text>
</a>
</g>
</g>
<!-- Node10&#45;&gt;Node11 -->
<g id="edge14" class="edge">
<title>Node10&#45;&gt;Node11</title>
<path fill="none" stroke="midnightblue" d="M693.27,-56.08C699.54,-48.38 708.79,-37.03 716.43,-27.65"/>
<polygon fill="midnightblue" stroke="midnightblue" points="719.27,-29.71 722.87,-19.75 713.84,-25.29 719.27,-29.71"/>
</g>
<!-- Node12 -->
<g id="node12" class="node">
<title>Node12</title>
<g id="a_node12"><a xlink:title=" ">
<polygon fill="none" stroke="#bfbfbf" points="599.5,-0.5 599.5,-19.5 682.5,-19.5 682.5,-0.5 599.5,-0.5"/>
<text text-anchor="middle" x="641" y="-7.5" font-family="Helvetica,sans-Serif" font-size="10.00">unordered_map</text>
</a>
</g>
</g>
<!-- Node10&#45;&gt;Node12 -->
<g id="edge16" class="edge">
<title>Node10&#45;&gt;Node12</title>
<path fill="none" stroke="midnightblue" d="M678.57,-56.08C672.15,-48.38 662.69,-37.03 654.88,-27.65"/>
<polygon fill="midnightblue" stroke="midnightblue" points="657.38,-25.19 648.29,-19.75 652.01,-29.67 657.38,-25.19"/>
</g>
<!-- Node13&#45;&gt;Node3 -->
<g id="edge22" class="edge">
<title>Node13&#45;&gt;Node3</title>
<path fill="none" stroke="midnightblue" d="M75.41,-112.44C104.77,-103.28 151.52,-88.69 184.1,-78.52"/>
<polygon fill="midnightblue" stroke="midnightblue" points="185.21,-81.84 193.72,-75.52 183.13,-75.16 185.21,-81.84"/>
</g>
<!-- Node13&#45;&gt;Node5 -->
<g id="edge20" class="edge">
<title>Node13&#45;&gt;Node5</title>
<path fill="none" stroke="midnightblue" d="M44.4,-112.36C39.38,-98.81 32.25,-72.42 45,-56 62.68,-33.24 144.82,-20.04 190.37,-14.35"/>
<polygon fill="midnightblue" stroke="midnightblue" points="190.79,-17.83 200.3,-13.16 189.95,-10.88 190.79,-17.83"/>
</g>
<!-- Node13&#45;&gt;Node9 -->
<g id="edge21" class="edge">
<title>Node13&#45;&gt;Node9</title>
<path fill="none" stroke="midnightblue" d="M96.07,-114.96C184.43,-103.87 370.46,-80.51 445.55,-71.08"/>
<polygon fill="midnightblue" stroke="midnightblue" points="446.31,-74.51 455.79,-69.79 445.44,-67.56 446.31,-74.51"/>
</g>
<!-- Node14 -->
<g id="node14" class="node">
<title>Node14</title>
<g id="a_node14"><a xlink:title=" ">
<polygon fill="none" stroke="#bfbfbf" points="54.5,-56.5 54.5,-75.5 95.5,-75.5 95.5,-56.5 54.5,-56.5"/>
<text text-anchor="middle" x="75" y="-63.5" font-family="Helvetica,sans-Serif" font-size="10.00">regex</text>
</a>
</g>
</g>
<!-- Node13&#45;&gt;Node14 -->
<g id="edge19" class="edge">
<title>Node13&#45;&gt;Node14</title>
<path fill="none" stroke="midnightblue" d="M52.46,-112.08C56.15,-104.69 61.52,-93.95 66.09,-84.81"/>
<polygon fill="midnightblue" stroke="midnightblue" points="69.28,-86.26 70.62,-75.75 63.02,-83.13 69.28,-86.26"/>
</g>
<!-- Node15&#45;&gt;Node2 -->
<g id="edge24" class="edge">
<title>Node15&#45;&gt;Node2</title>
<path fill="none" stroke="midnightblue" d="M235.36,-224.32C226.49,-216.34 213.13,-204.31 202.39,-194.65"/>
<polygon fill="midnightblue" stroke="midnightblue" points="204.59,-191.92 194.82,-187.83 199.91,-197.13 204.59,-191.92"/>
</g>
<!-- Node15&#45;&gt;Node3 -->
<g id="edge25" class="edge">
<title>Node15&#45;&gt;Node3</title>
<path fill="none" stroke="midnightblue" d="M243.71,-224.08C239.93,-197.95 228.84,-121.21 223.69,-85.58"/>
<polygon fill="midnightblue" stroke="midnightblue" points="227.13,-84.96 222.24,-75.57 220.21,-85.97 227.13,-84.96"/>
</g>
<!-- Node15&#45;&gt;Node5 -->
<g id="edge38" class="edge">
<title>Node15&#45;&gt;Node5</title>
<path fill="none" stroke="midnightblue" d="M213.72,-228.44C189.86,-223.14 158.54,-211.84 143,-188 123.29,-157.76 101.04,-176.14 173,-56 179.99,-44.33 190.87,-33.78 200.5,-25.83"/>
<polygon fill="midnightblue" stroke="midnightblue" points="202.8,-28.47 208.52,-19.55 198.49,-22.96 202.8,-28.47"/>
</g>
<!-- Node15&#45;&gt;Node9 -->
<g id="edge39" class="edge">
<title>Node15&#45;&gt;Node9</title>
<path fill="none" stroke="midnightblue" d="M257.2,-224.31C295.02,-197.36 410.61,-115.01 457.71,-81.46"/>
<polygon fill="midnightblue" stroke="midnightblue" points="459.81,-84.26 465.92,-75.61 455.75,-78.56 459.81,-84.26"/>
</g>
<!-- Node15&#45;&gt;Node16 -->
<g id="edge26" class="edge">
<title>Node15&#45;&gt;Node16</title>
<path fill="none" stroke="midnightblue" d="M276.08,-227.42C330.04,-217.74 441.15,-197.81 502.65,-186.78"/>
<polygon fill="midnightblue" stroke="midnightblue" points="503.58,-190.17 512.81,-184.95 502.35,-183.28 503.58,-190.17"/>
</g>
<!-- Node16&#45;&gt;Node3 -->
<g id="edge35" class="edge">
<title>Node16&#45;&gt;Node3</title>
<path fill="none" stroke="midnightblue" d="M512.99,-176.65C463.3,-174.92 367.39,-166.88 295,-132 270.83,-120.35 248.48,-98.56 234.81,-83.43"/>
<polygon fill="midnightblue" stroke="midnightblue" points="237.37,-81.04 228.15,-75.82 232.1,-85.65 237.37,-81.04"/>
</g>
<!-- Node16&#45;&gt;Node4 -->
<g id="edge31" class="edge">
<title>Node16&#45;&gt;Node4</title>
<path fill="none" stroke="midnightblue" d="M559.79,-168.19C570.83,-160.24 585.5,-147.45 592,-132 607.68,-94.73 576.15,-77.64 542,-56 502.95,-31.25 449.69,-19.6 417.69,-14.52"/>
<polygon fill="midnightblue" stroke="midnightblue" points="418.11,-11.05 407.7,-13.04 417.08,-17.97 418.11,-11.05"/>
</g>
<!-- Node16&#45;&gt;Node5 -->
<g id="edge33" class="edge">
<title>Node16&#45;&gt;Node5</title>
<path fill="none" stroke="midnightblue" d="M512.64,-170.7C491.02,-164.7 464.47,-153.28 451,-132 425.46,-91.64 506.71,-80.12 509,-76 513.32,-68.23 514.78,-62.75 509,-56 492.37,-36.57 322.47,-19.77 251.69,-13.56"/>
<polygon fill="midnightblue" stroke="midnightblue" points="251.87,-10.06 241.61,-12.69 251.27,-17.04 251.87,-10.06"/>
</g>
<!-- Node16&#45;&gt;Node6 -->
<g id="edge36" class="edge">
<title>Node16&#45;&gt;Node6</title>
<path fill="none" stroke="midnightblue" d="M512.57,-168.44C475.58,-158.98 415.96,-143.72 376.13,-133.53"/>
<polygon fill="midnightblue" stroke="midnightblue" points="376.77,-130.08 366.21,-130.99 375.03,-136.86 376.77,-130.08"/>
</g>
<!-- Node16&#45;&gt;Node9 -->
<g id="edge34" class="edge">
<title>Node16&#45;&gt;Node9</title>
<path fill="none" stroke="midnightblue" d="M555.8,-168.22C568.91,-155.37 589.18,-130.92 577,-112 562.37,-89.29 533.17,-77.91 510.25,-72.28"/>
<polygon fill="midnightblue" stroke="midnightblue" points="510.76,-68.81 500.24,-70.09 509.26,-75.65 510.76,-68.81"/>
</g>
<!-- Node16&#45;&gt;Node10 -->
<g id="edge37" class="edge">
<title>Node16&#45;&gt;Node10</title>
<path fill="none" stroke="midnightblue" d="M579.09,-176.49C643.62,-174.73 782.53,-166.88 812,-132 840.73,-98 766.01,-79.6 719.65,-71.73"/>
<polygon fill="midnightblue" stroke="midnightblue" points="720.1,-68.26 709.67,-70.12 718.99,-75.17 720.1,-68.26"/>
</g>
<!-- Node17 -->
<g id="node17" class="node">
<title>Node17</title>
<g id="a_node17"><a xlink:title=" ">
<polygon fill="none" stroke="#bfbfbf" points="662.5,-112.5 662.5,-131.5 721.5,-131.5 721.5,-112.5 662.5,-112.5"/>
<text text-anchor="middle" x="692" y="-119.5" font-family="Helvetica,sans-Serif" font-size="10.00">curl/curl.h</text>
</a>
</g>
</g>
<!-- Node16&#45;&gt;Node17 -->
<g id="edge27" class="edge">
<title>Node16&#45;&gt;Node17</title>
<path fill="none" stroke="midnightblue" d="M569.13,-168.44C593.48,-159.44 632.01,-145.19 659.42,-135.05"/>
<polygon fill="midnightblue" stroke="midnightblue" points="660.81,-138.27 668.97,-131.52 658.38,-131.7 660.81,-138.27"/>
</g>
<!-- Node18 -->
<g id="node18" class="node">
<title>Node18</title>
<g id="a_node18"><a xlink:title=" ">
<polygon fill="none" stroke="#bfbfbf" points="739.5,-112.5 739.5,-131.5 802.5,-131.5 802.5,-112.5 739.5,-112.5"/>
<text text-anchor="middle" x="771" y="-119.5" font-family="Helvetica,sans-Serif" font-size="10.00">curl/easy.h</text>
</a>
</g>
</g>
<!-- Node16&#45;&gt;Node18 -->
<g id="edge28" class="edge">
<title>Node16&#45;&gt;Node18</title>
<path fill="none" stroke="midnightblue" d="M579.2,-169.03C619.15,-159.44 686.24,-143.34 729.55,-132.95"/>
<polygon fill="midnightblue" stroke="midnightblue" points="730.57,-136.3 739.48,-130.56 728.94,-129.49 730.57,-136.3"/>
</g>
<!-- Node19 -->
<g id="node19" class="node">
<title>Node19</title>
<g id="a_node19"><a xlink:title=" ">
<polygon fill="none" stroke="#bfbfbf" points="859,-112.5 859,-131.5 897,-131.5 897,-112.5 859,-112.5"/>
<text text-anchor="middle" x="878" y="-119.5" font-family="Helvetica,sans-Serif" font-size="10.00">array</text>
</a>
</g>
</g>
<!-- Node16&#45;&gt;Node19 -->
<g id="edge29" class="edge">
<title>Node16&#45;&gt;Node19</title>
<path fill="none" stroke="midnightblue" d="M579.41,-173.26C634.91,-166.77 749.46,-152.15 845,-132 846.27,-131.73 847.57,-131.44 848.88,-131.14"/>
<polygon fill="midnightblue" stroke="midnightblue" points="850.06,-134.45 858.9,-128.62 848.35,-127.66 850.06,-134.45"/>
</g>
<!-- Node20 -->
<g id="node20" class="node">
<title>Node20</title>
<g id="a_node20"><a xlink:title=" ">
<polygon fill="none" stroke="#bfbfbf" points="460,-112.5 460,-131.5 506,-131.5 506,-112.5 460,-112.5"/>
<text text-anchor="middle" x="483" y="-119.5" font-family="Helvetica,sans-Serif" font-size="10.00">atomic</text>
</a>
</g>
</g>
<!-- Node16&#45;&gt;Node20 -->
<g id="edge30" class="edge">
<title>Node16&#45;&gt;Node20</title>
<path fill="none" stroke="midnightblue" d="M535.88,-168.32C526.47,-160.26 512.26,-148.08 500.93,-138.37"/>
<polygon fill="midnightblue" stroke="midnightblue" points="503.18,-135.68 493.31,-131.83 498.62,-141 503.18,-135.68"/>
</g>
<!-- Node21 -->
<g id="node21" class="node">
<title>Node21</title>
<g id="a_node21"><a xlink:title=" ">
<polygon fill="none" stroke="#bfbfbf" points="524,-112.5 524,-131.5 568,-131.5 568,-112.5 524,-112.5"/>
<text text-anchor="middle" x="546" y="-119.5" font-family="Helvetica,sans-Serif" font-size="10.00">mutex</text>
</a>
</g>
</g>
<!-- Node16&#45;&gt;Node21 -->
<g id="edge32" class="edge">
<title>Node16&#45;&gt;Node21</title>
<path fill="none" stroke="midnightblue" d="M546,-168.08C546,-161.01 546,-150.86 546,-141.99"/>
<polygon fill="midnightblue" stroke="midnightblue" points="549.5,-141.75 546,-131.75 542.5,-141.75 549.5,-141.75"/>
</g>
</g>
</svg>
