<?xml version="1.0" encoding="UTF-8" standalone="no"?>
<!DOCTYPE svg PUBLIC "-//W3C//DTD SVG 1.1//EN"
 "http://www.w3.org/Graphics/SVG/1.1/DTD/svg11.dtd">
<!-- Generated by graphviz version 2.43.0 (0)
 -->
<!-- Title: /home/ugovaretto/projects/uv&#45;cpp/s3client/repo/lib/include/s3&#45;client.h Pages: 1 -->
<svg width="735pt" height="206pt"
 viewBox="0.00 0.00 734.50 206.00" xmlns="http://www.w3.org/2000/svg" xmlns:xlink="http://www.w3.org/1999/xlink">
<g id="graph0" class="graph" transform="scale(1 1) rotate(0) translate(4 202)">
<title>/home/ugovaretto/projects/uv&#45;cpp/s3client/repo/lib/include/s3&#45;client.h</title>
<!-- Node1 -->
<g id="node1" class="node">
<title>Node1</title>
<g id="a_node1"><a xlink:title="declaration of functions and data types for sending S3 requests, signing URLs and downloading and upl...">
<polygon fill="#bfbfbf" stroke="black" points="298.5,-156.5 298.5,-197.5 428.5,-197.5 428.5,-156.5 298.5,-156.5"/>
<text text-anchor="start" x="306.5" y="-185.5" font-family="Helvetica,sans-Serif" font-size="10.00">/home/ugovaretto/projects</text>
<text text-anchor="start" x="306.5" y="-174.5" font-family="Helvetica,sans-Serif" font-size="10.00">/uv&#45;cpp/s3client/repo/lib</text>
<text text-anchor="middle" x="363.5" y="-163.5" font-family="Helvetica,sans-Serif" font-size="10.00">/include/s3&#45;client.h</text>
</a>
</g>
</g>
<!-- Node2 -->
<g id="node2" class="node">
<title>Node2</title>
<g id="a_node2"><a xlink:href="apps_2s3-client_8cpp.html" target="_top" xlink:title="Send S3v4&#45;signed requests to S3 andpoint and print raw responses.">
<polygon fill="none" stroke="black" points="0,-78.5 0,-119.5 131,-119.5 131,-78.5 0,-78.5"/>
<text text-anchor="start" x="8" y="-107.5" font-family="Helvetica,sans-Serif" font-size="10.00">/home/ugovaretto/projects</text>
<text text-anchor="start" x="8" y="-96.5" font-family="Helvetica,sans-Serif" font-size="10.00">/uv&#45;cpp/s3client/repo/apps</text>
<text text-anchor="middle" x="65.5" y="-85.5" font-family="Helvetica,sans-Serif" font-size="10.00">/s3&#45;client.cpp</text>
</a>
</g>
</g>
<!-- Node1&#45;&gt;Node2 -->
<g id="edge1" class="edge">
<title>Node1&#45;&gt;Node2</title>
<path fill="none" stroke="midnightblue" d="M288.18,-157.38C244.93,-146.61 189.62,-132.72 140.5,-120 137.5,-119.22 134.43,-118.42 131.34,-117.61"/>
<polygon fill="midnightblue" stroke="midnightblue" points="287.51,-160.82 298.06,-159.83 289.2,-154.02 287.51,-160.82"/>
</g>
<!-- Node3 -->
<g id="node3" class="node">
<title>Node3</title>
<g id="a_node3"><a xlink:href="parallel__download_8cpp.html" target="_top" xlink:title="Parallel object download download from S3 service.">
<polygon fill="none" stroke="black" points="149,-78.5 149,-119.5 280,-119.5 280,-78.5 149,-78.5"/>
<text text-anchor="start" x="157" y="-107.5" font-family="Helvetica,sans-Serif" font-size="10.00">/home/ugovaretto/projects</text>
<text text-anchor="start" x="157" y="-96.5" font-family="Helvetica,sans-Serif" font-size="10.00">/uv&#45;cpp/s3client/repo/apps</text>
<text text-anchor="middle" x="214.5" y="-85.5" font-family="Helvetica,sans-Serif" font-size="10.00">/parallel_download.cpp</text>
</a>
</g>
</g>
<!-- Node1&#45;&gt;Node3 -->
<g id="edge2" class="edge">
<title>Node1&#45;&gt;Node3</title>
<path fill="none" stroke="midnightblue" d="M315.99,-151.77C295.57,-141.35 272.01,-129.34 252.74,-119.51"/>
<polygon fill="midnightblue" stroke="midnightblue" points="314.63,-155 325.13,-156.43 317.81,-148.77 314.63,-155"/>
</g>
<!-- Node4 -->
<g id="node4" class="node">
<title>Node4</title>
<g id="a_node4"><a xlink:href="presign__url_8cpp.html" target="_top" xlink:title="Presign URL.">
<polygon fill="none" stroke="black" points="298,-78.5 298,-119.5 429,-119.5 429,-78.5 298,-78.5"/>
<text text-anchor="start" x="306" y="-107.5" font-family="Helvetica,sans-Serif" font-size="10.00">/home/ugovaretto/projects</text>
<text text-anchor="start" x="306" y="-96.5" font-family="Helvetica,sans-Serif" font-size="10.00">/uv&#45;cpp/s3client/repo/apps</text>
<text text-anchor="middle" x="363.5" y="-85.5" font-family="Helvetica,sans-Serif" font-size="10.00">/presign_url.cpp</text>
</a>
</g>
</g>
<!-- Node1&#45;&gt;Node4 -->
<g id="edge3" class="edge">
<title>Node1&#45;&gt;Node4</title>
<path fill="none" stroke="midnightblue" d="M363.5,-146.3C363.5,-137.3 363.5,-127.65 363.5,-119.51"/>
<polygon fill="midnightblue" stroke="midnightblue" points="360,-146.43 363.5,-156.43 367,-146.43 360,-146.43"/>
</g>
<!-- Node5 -->
<g id="node5" class="node">
<title>Node5</title>
<g id="a_node5"><a xlink:href="parallel__upload_8cpp.html" target="_top" xlink:title="Parallel upload to S3 service.">
<polygon fill="none" stroke="black" points="447,-78.5 447,-119.5 578,-119.5 578,-78.5 447,-78.5"/>
<text text-anchor="start" x="455" y="-107.5" font-family="Helvetica,sans-Serif" font-size="10.00">/home/ugovaretto/projects</text>
<text text-anchor="start" x="455" y="-96.5" font-family="Helvetica,sans-Serif" font-size="10.00">/uv&#45;cpp/s3client/repo/apps</text>
<text text-anchor="middle" x="512.5" y="-85.5" font-family="Helvetica,sans-Serif" font-size="10.00">/parallel_upload.cpp</text>
</a>
</g>
</g>
<!-- Node1&#45;&gt;Node5 -->
<g id="edge4" class="edge">
<title>Node1&#45;&gt;Node5</title>
<path fill="none" stroke="midnightblue" d="M411.01,-151.77C431.43,-141.35 454.99,-129.34 474.26,-119.51"/>
<polygon fill="midnightblue" stroke="midnightblue" points="409.19,-148.77 401.87,-156.43 412.37,-155 409.19,-148.77"/>
</g>
<!-- Node6 -->
<g id="node6" class="node">
<title>Node6</title>
<g id="a_node6"><a xlink:href="s3-api_8h.html" target="_top" xlink:title="declarations of S3Api class.">
<polygon fill="none" stroke="black" points="596.5,-78.5 596.5,-119.5 726.5,-119.5 726.5,-78.5 596.5,-78.5"/>
<text text-anchor="start" x="604.5" y="-107.5" font-family="Helvetica,sans-Serif" font-size="10.00">/home/ugovaretto/projects</text>
<text text-anchor="start" x="604.5" y="-96.5" font-family="Helvetica,sans-Serif" font-size="10.00">/uv&#45;cpp/s3client/repo/lib</text>
<text text-anchor="middle" x="661.5" y="-85.5" font-family="Helvetica,sans-Serif" font-size="10.00">/include/s3&#45;api.h</text>
</a>
</g>
</g>
<!-- Node1&#45;&gt;Node6 -->
<g id="edge5" class="edge">
<title>Node1&#45;&gt;Node6</title>
<path fill="none" stroke="midnightblue" d="M438.7,-157.58C482.22,-146.82 538.01,-132.87 587.5,-120 590.33,-119.26 593.23,-118.5 596.15,-117.73"/>
<polygon fill="midnightblue" stroke="midnightblue" points="437.63,-154.24 428.77,-160.03 439.31,-161.03 437.63,-154.24"/>
</g>
<!-- Node7 -->
<g id="node7" class="node">
<title>Node7</title>
<g id="a_node7"><a xlink:href="bucket-test_8cpp.html" target="_top" xlink:title="bucket tests">
<polygon fill="none" stroke="black" points="596.5,-0.5 596.5,-41.5 726.5,-41.5 726.5,-0.5 596.5,-0.5"/>
<text text-anchor="start" x="604.5" y="-29.5" font-family="Helvetica,sans-Serif" font-size="10.00">/home/ugovaretto/projects</text>
<text text-anchor="start" x="604.5" y="-18.5" font-family="Helvetica,sans-Serif" font-size="10.00">/uv&#45;cpp/s3client/repo/test</text>
<text text-anchor="middle" x="661.5" y="-7.5" font-family="Helvetica,sans-Serif" font-size="10.00">/api/bucket&#45;test.cpp</text>
</a>
</g>
</g>
<!-- Node6&#45;&gt;Node7 -->
<g id="edge6" class="edge">
<title>Node6&#45;&gt;Node7</title>
<path fill="none" stroke="midnightblue" d="M661.5,-68.3C661.5,-59.3 661.5,-49.65 661.5,-41.51"/>
<polygon fill="midnightblue" stroke="midnightblue" points="658,-68.43 661.5,-78.43 665,-68.43 658,-68.43"/>
</g>
</g>
</svg>
