<?xml version="1.0" encoding="UTF-8" standalone="no"?>
<!DOCTYPE svg PUBLIC "-//W3C//DTD SVG 1.1//EN"
 "http://www.w3.org/Graphics/SVG/1.1/DTD/svg11.dtd">
<!-- Generated by graphviz version 2.43.0 (0)
 -->
<!-- Title: /home/ugovaretto/projects/uv&#45;cpp/s3client/repo/lib/include/s3&#45;client.h Pages: 1 -->
<svg width="1699pt" height="295pt"
 viewBox="0.00 0.00 1699.00 295.00" xmlns="http://www.w3.org/2000/svg" xmlns:xlink="http://www.w3.org/1999/xlink">
<g id="graph0" class="graph" transform="scale(1 1) rotate(0) translate(4 291)">
<title>/home/ugovaretto/projects/uv&#45;cpp/s3client/repo/lib/include/s3&#45;client.h</title>
<!-- Node1 -->
<g id="node1" class="node">
<title>Node1</title>
<g id="a_node1"><a xlink:title="declaration of functions and data types for sending S3 requests, signing URLs and downloading and upl...">
<polygon fill="#bfbfbf" stroke="black" points="798,-245.5 798,-286.5 928,-286.5 928,-245.5 798,-245.5"/>
<text text-anchor="start" x="806" y="-274.5" font-family="Helvetica,sans-Serif" font-size="10.00">/home/ugovaretto/projects</text>
<text text-anchor="start" x="806" y="-263.5" font-family="Helvetica,sans-Serif" font-size="10.00">/uv&#45;cpp/s3client/repo/lib</text>
<text text-anchor="middle" x="863" y="-252.5" font-family="Helvetica,sans-Serif" font-size="10.00">/include/s3&#45;client.h</text>
</a>
</g>
</g>
<!-- Node2 -->
<g id="node2" class="node">
<title>Node2</title>
<g id="a_node2"><a xlink:href="presign-url-test_8cpp_source.html" target="_top" xlink:title=" ">
<polygon fill="none" stroke="black" points="388,-167.5 388,-208.5 518,-208.5 518,-167.5 388,-167.5"/>
<text text-anchor="start" x="396" y="-196.5" font-family="Helvetica,sans-Serif" font-size="10.00">/home/ugovaretto/projects</text>
<text text-anchor="start" x="396" y="-185.5" font-family="Helvetica,sans-Serif" font-size="10.00">/uv&#45;cpp/s3client/repo/test</text>
<text text-anchor="middle" x="453" y="-174.5" font-family="Helvetica,sans-Serif" font-size="10.00">/presign&#45;url&#45;test.cpp</text>
</a>
</g>
</g>
<!-- Node1&#45;&gt;Node2 -->
<g id="edge1" class="edge">
<title>Node1&#45;&gt;Node2</title>
<path fill="none" stroke="midnightblue" d="M787.67,-254.62C719.3,-244.69 615.9,-228.37 527,-209 524.14,-208.38 521.22,-207.71 518.28,-207.02"/>
<polygon fill="midnightblue" stroke="midnightblue" points="787.51,-258.13 797.91,-256.1 788.51,-251.21 787.51,-258.13"/>
</g>
<!-- Node3 -->
<g id="node3" class="node">
<title>Node3</title>
<g id="a_node3"><a xlink:href="sign-test_8cpp_source.html" target="_top" xlink:title=" ">
<polygon fill="none" stroke="black" points="536,-167.5 536,-208.5 666,-208.5 666,-167.5 536,-167.5"/>
<text text-anchor="start" x="544" y="-196.5" font-family="Helvetica,sans-Serif" font-size="10.00">/home/ugovaretto/projects</text>
<text text-anchor="start" x="544" y="-185.5" font-family="Helvetica,sans-Serif" font-size="10.00">/uv&#45;cpp/s3client/repo/test</text>
<text text-anchor="middle" x="601" y="-174.5" font-family="Helvetica,sans-Serif" font-size="10.00">/sign&#45;test.cpp</text>
</a>
</g>
</g>
<!-- Node1&#45;&gt;Node3 -->
<g id="edge2" class="edge">
<title>Node1&#45;&gt;Node3</title>
<path fill="none" stroke="midnightblue" d="M788.29,-243.33C749.79,-232.16 703.26,-218.66 666.22,-207.92"/>
<polygon fill="midnightblue" stroke="midnightblue" points="787.32,-246.69 797.9,-246.12 789.27,-239.97 787.32,-246.69"/>
</g>
<!-- Node4 -->
<g id="node4" class="node">
<title>Node4</title>
<g id="a_node4"><a xlink:href="multipart__upload_8cpp_source.html" target="_top" xlink:title=" ">
<polygon fill="none" stroke="black" points="0,-89.5 0,-130.5 142,-130.5 142,-89.5 0,-89.5"/>
<text text-anchor="start" x="8" y="-118.5" font-family="Helvetica,sans-Serif" font-size="10.00">/home/ugovaretto/projects</text>
<text text-anchor="start" x="8" y="-107.5" font-family="Helvetica,sans-Serif" font-size="10.00">/uv&#45;cpp/s3client/repo/lib</text>
<text text-anchor="middle" x="71" y="-96.5" font-family="Helvetica,sans-Serif" font-size="10.00">/src/api/multipart_upload.cpp</text>
</a>
</g>
</g>
<!-- Node1&#45;&gt;Node4 -->
<g id="edge3" class="edge">
<title>Node1&#45;&gt;Node4</title>
<path fill="none" stroke="midnightblue" d="M787.87,-247.14C761.05,-238.45 731.65,-226.09 708,-209 688.76,-195.1 695.98,-178.1 675,-167 571.83,-112.41 266.29,-149.23 151,-131 148.17,-130.55 145.3,-130.05 142.4,-129.51"/>
<polygon fill="midnightblue" stroke="midnightblue" points="787.03,-250.54 797.62,-250.17 789.12,-243.86 787.03,-250.54"/>
</g>
<!-- Node5 -->
<g id="node5" class="node">
<title>Node5</title>
<g id="a_node5"><a xlink:href="bucket_8cpp_source.html" target="_top" xlink:title=" ">
<polygon fill="none" stroke="black" points="160,-89.5 160,-130.5 290,-130.5 290,-89.5 160,-89.5"/>
<text text-anchor="start" x="168" y="-118.5" font-family="Helvetica,sans-Serif" font-size="10.00">/home/ugovaretto/projects</text>
<text text-anchor="start" x="168" y="-107.5" font-family="Helvetica,sans-Serif" font-size="10.00">/uv&#45;cpp/s3client/repo/lib</text>
<text text-anchor="middle" x="225" y="-96.5" font-family="Helvetica,sans-Serif" font-size="10.00">/src/api/bucket.cpp</text>
</a>
</g>
</g>
<!-- Node1&#45;&gt;Node5 -->
<g id="edge4" class="edge">
<title>Node1&#45;&gt;Node5</title>
<path fill="none" stroke="midnightblue" d="M802.19,-241.34C783.29,-232.59 762.99,-221.67 746,-209 725.82,-193.95 730.54,-178.21 708,-167 626.31,-126.37 388.83,-146.96 299,-131 296.12,-130.49 293.18,-129.92 290.23,-129.3"/>
<polygon fill="midnightblue" stroke="midnightblue" points="800.77,-244.54 811.32,-245.46 803.64,-238.16 800.77,-244.54"/>
</g>
<!-- Node6 -->
<g id="node6" class="node">
<title>Node6</title>
<g id="a_node6"><a xlink:href="object_8cpp_source.html" target="_top" xlink:title=" ">
<polygon fill="none" stroke="black" points="308,-89.5 308,-130.5 438,-130.5 438,-89.5 308,-89.5"/>
<text text-anchor="start" x="316" y="-118.5" font-family="Helvetica,sans-Serif" font-size="10.00">/home/ugovaretto/projects</text>
<text text-anchor="start" x="316" y="-107.5" font-family="Helvetica,sans-Serif" font-size="10.00">/uv&#45;cpp/s3client/repo/lib</text>
<text text-anchor="middle" x="373" y="-96.5" font-family="Helvetica,sans-Serif" font-size="10.00">/src/api/object.cpp</text>
</a>
</g>
</g>
<!-- Node1&#45;&gt;Node6 -->
<g id="edge5" class="edge">
<title>Node1&#45;&gt;Node6</title>
<path fill="none" stroke="midnightblue" d="M827.02,-239.2C814.7,-229.99 801,-219.33 789,-209 768.75,-191.57 770.09,-178.54 746,-167 625.29,-109.17 578.39,-156.53 447,-131 444.13,-130.44 441.2,-129.83 438.25,-129.18"/>
<polygon fill="midnightblue" stroke="midnightblue" points="825.17,-242.18 835.29,-245.32 829.34,-236.55 825.17,-242.18"/>
</g>
<!-- Node7 -->
<g id="node7" class="node">
<title>Node7</title>
<g id="a_node7"><a xlink:href="presign__url_8cpp.html" target="_top" xlink:title="Presign URL.">
<polygon fill="none" stroke="black" points="946.5,-167.5 946.5,-208.5 1077.5,-208.5 1077.5,-167.5 946.5,-167.5"/>
<text text-anchor="start" x="954.5" y="-196.5" font-family="Helvetica,sans-Serif" font-size="10.00">/home/ugovaretto/projects</text>
<text text-anchor="start" x="954.5" y="-185.5" font-family="Helvetica,sans-Serif" font-size="10.00">/uv&#45;cpp/s3client/repo/apps</text>
<text text-anchor="middle" x="1012" y="-174.5" font-family="Helvetica,sans-Serif" font-size="10.00">/presign_url.cpp</text>
</a>
</g>
</g>
<!-- Node1&#45;&gt;Node7 -->
<g id="edge6" class="edge">
<title>Node1&#45;&gt;Node7</title>
<path fill="none" stroke="midnightblue" d="M910.51,-240.77C930.93,-230.35 954.49,-218.34 973.76,-208.51"/>
<polygon fill="midnightblue" stroke="midnightblue" points="908.69,-237.77 901.37,-245.43 911.87,-244 908.69,-237.77"/>
</g>
<!-- Node8 -->
<g id="node8" class="node">
<title>Node8</title>
<g id="a_node8"><a xlink:href="apps_2s3-client_8cpp.html" target="_top" xlink:title="Send S3v4&#45;signed requests to S3 andpoint and print raw responses.">
<polygon fill="none" stroke="black" points="1095.5,-167.5 1095.5,-208.5 1226.5,-208.5 1226.5,-167.5 1095.5,-167.5"/>
<text text-anchor="start" x="1103.5" y="-196.5" font-family="Helvetica,sans-Serif" font-size="10.00">/home/ugovaretto/projects</text>
<text text-anchor="start" x="1103.5" y="-185.5" font-family="Helvetica,sans-Serif" font-size="10.00">/uv&#45;cpp/s3client/repo/apps</text>
<text text-anchor="middle" x="1161" y="-174.5" font-family="Helvetica,sans-Serif" font-size="10.00">/s3&#45;client.cpp</text>
</a>
</g>
</g>
<!-- Node1&#45;&gt;Node8 -->
<g id="edge7" class="edge">
<title>Node1&#45;&gt;Node8</title>
<path fill="none" stroke="midnightblue" d="M938.32,-246.38C981.57,-235.61 1036.88,-221.72 1086,-209 1089,-208.22 1092.07,-207.42 1095.16,-206.61"/>
<polygon fill="midnightblue" stroke="midnightblue" points="937.3,-243.02 928.44,-248.83 938.99,-249.82 937.3,-243.02"/>
</g>
<!-- Node9 -->
<g id="node9" class="node">
<title>Node9</title>
<g id="a_node9"><a xlink:href="parallel__download_8cpp.html" target="_top" xlink:title="Parallel object download download from S3 service.">
<polygon fill="none" stroke="black" points="1244.5,-167.5 1244.5,-208.5 1375.5,-208.5 1375.5,-167.5 1244.5,-167.5"/>
<text text-anchor="start" x="1252.5" y="-196.5" font-family="Helvetica,sans-Serif" font-size="10.00">/home/ugovaretto/projects</text>
<text text-anchor="start" x="1252.5" y="-185.5" font-family="Helvetica,sans-Serif" font-size="10.00">/uv&#45;cpp/s3client/repo/apps</text>
<text text-anchor="middle" x="1310" y="-174.5" font-family="Helvetica,sans-Serif" font-size="10.00">/parallel_download.cpp</text>
</a>
</g>
</g>
<!-- Node1&#45;&gt;Node9 -->
<g id="edge8" class="edge">
<title>Node1&#45;&gt;Node9</title>
<path fill="none" stroke="midnightblue" d="M938.47,-256.26C1014.14,-246.88 1133.78,-230.41 1236,-209 1238.74,-208.43 1241.52,-207.81 1244.33,-207.17"/>
<polygon fill="midnightblue" stroke="midnightblue" points="937.59,-252.84 928.09,-257.53 938.44,-259.78 937.59,-252.84"/>
</g>
<!-- Node10 -->
<g id="node10" class="node">
<title>Node10</title>
<g id="a_node10"><a xlink:href="parallel__upload_8cpp.html" target="_top" xlink:title="Parallel upload to S3 service.">
<polygon fill="none" stroke="black" points="1393.5,-167.5 1393.5,-208.5 1524.5,-208.5 1524.5,-167.5 1393.5,-167.5"/>
<text text-anchor="start" x="1401.5" y="-196.5" font-family="Helvetica,sans-Serif" font-size="10.00">/home/ugovaretto/projects</text>
<text text-anchor="start" x="1401.5" y="-185.5" font-family="Helvetica,sans-Serif" font-size="10.00">/uv&#45;cpp/s3client/repo/apps</text>
<text text-anchor="middle" x="1459" y="-174.5" font-family="Helvetica,sans-Serif" font-size="10.00">/parallel_upload.cpp</text>
</a>
</g>
</g>
<!-- Node1&#45;&gt;Node10 -->
<g id="edge9" class="edge">
<title>Node1&#45;&gt;Node10</title>
<path fill="none" stroke="midnightblue" d="M938.37,-260.64C1040.34,-253.9 1227.59,-238.53 1385,-209 1387.75,-208.48 1390.54,-207.92 1393.36,-207.32"/>
<polygon fill="midnightblue" stroke="midnightblue" points="937.93,-257.16 928.17,-261.31 938.38,-264.15 937.93,-257.16"/>
</g>
<!-- Node11 -->
<g id="node11" class="node">
<title>Node11</title>
<g id="a_node11"><a xlink:href="lib_2src_2s3-client_8cpp_source.html" target="_top" xlink:title=" ">
<polygon fill="none" stroke="black" points="1543,-167.5 1543,-208.5 1673,-208.5 1673,-167.5 1543,-167.5"/>
<text text-anchor="start" x="1551" y="-196.5" font-family="Helvetica,sans-Serif" font-size="10.00">/home/ugovaretto/projects</text>
<text text-anchor="start" x="1551" y="-185.5" font-family="Helvetica,sans-Serif" font-size="10.00">/uv&#45;cpp/s3client/repo/lib</text>
<text text-anchor="middle" x="1608" y="-174.5" font-family="Helvetica,sans-Serif" font-size="10.00">/src/s3&#45;client.cpp</text>
</a>
</g>
</g>
<!-- Node1&#45;&gt;Node11 -->
<g id="edge10" class="edge">
<title>Node1&#45;&gt;Node11</title>
<path fill="none" stroke="midnightblue" d="M938.48,-263.14C1063.28,-259.07 1320.09,-246.51 1534,-209 1536.88,-208.49 1539.82,-207.93 1542.77,-207.31"/>
<polygon fill="midnightblue" stroke="midnightblue" points="938.16,-259.65 928.27,-263.46 938.38,-266.64 938.16,-259.65"/>
</g>
<!-- Node12 -->
<g id="node12" class="node">
<title>Node12</title>
<g id="a_node12"><a xlink:href="s3-api_8h.html" target="_top" xlink:title="declarations of S3Api class.">
<polygon fill="none" stroke="black" points="798,-167.5 798,-208.5 928,-208.5 928,-167.5 798,-167.5"/>
<text text-anchor="start" x="806" y="-196.5" font-family="Helvetica,sans-Serif" font-size="10.00">/home/ugovaretto/projects</text>
<text text-anchor="start" x="806" y="-185.5" font-family="Helvetica,sans-Serif" font-size="10.00">/uv&#45;cpp/s3client/repo/lib</text>
<text text-anchor="middle" x="863" y="-174.5" font-family="Helvetica,sans-Serif" font-size="10.00">/include/s3&#45;api.h</text>
</a>
</g>
</g>
<!-- Node1&#45;&gt;Node12 -->
<g id="edge11" class="edge">
<title>Node1&#45;&gt;Node12</title>
<path fill="none" stroke="midnightblue" d="M863,-235.3C863,-226.3 863,-216.65 863,-208.51"/>
<polygon fill="midnightblue" stroke="midnightblue" points="859.5,-235.43 863,-245.43 866.5,-235.43 859.5,-235.43"/>
</g>
<!-- Node12&#45;&gt;Node4 -->
<g id="edge19" class="edge">
<title>Node12&#45;&gt;Node4</title>
<path fill="none" stroke="midnightblue" d="M787.95,-176.34C762.6,-173 734.11,-169.53 708,-167 461.08,-143.11 396.11,-169.24 151,-131 148.17,-130.56 145.3,-130.06 142.4,-129.53"/>
<polygon fill="midnightblue" stroke="midnightblue" points="787.49,-179.81 797.87,-177.66 788.42,-172.87 787.49,-179.81"/>
</g>
<!-- Node12&#45;&gt;Node5 -->
<g id="edge20" class="edge">
<title>Node12&#45;&gt;Node5</title>
<path fill="none" stroke="midnightblue" d="M787.86,-173.14C773.98,-170.87 759.57,-168.7 746,-167 548.24,-142.18 495.36,-165.14 299,-131 296.12,-130.5 293.18,-129.94 290.22,-129.33"/>
<polygon fill="midnightblue" stroke="midnightblue" points="787.43,-176.62 797.87,-174.81 788.58,-169.71 787.43,-176.62"/>
</g>
<!-- Node12&#45;&gt;Node6 -->
<g id="edge21" class="edge">
<title>Node12&#45;&gt;Node6</title>
<path fill="none" stroke="midnightblue" d="M787.79,-167.7C786.52,-167.46 785.25,-167.22 784,-167 635.73,-140.45 595.05,-158.74 447,-131 444.12,-130.46 441.19,-129.87 438.24,-129.23"/>
<polygon fill="midnightblue" stroke="midnightblue" points="787.13,-171.14 797.63,-169.69 788.52,-164.28 787.13,-171.14"/>
</g>
<!-- Node13 -->
<g id="node13" class="node">
<title>Node13</title>
<g id="a_node13"><a xlink:href="abort-multipart-upload-test_8cpp_source.html" target="_top" xlink:title=" ">
<polygon fill="none" stroke="black" points="1561,-0.5 1561,-52.5 1691,-52.5 1691,-0.5 1561,-0.5"/>
<text text-anchor="start" x="1569" y="-40.5" font-family="Helvetica,sans-Serif" font-size="10.00">/home/ugovaretto/projects</text>
<text text-anchor="start" x="1569" y="-29.5" font-family="Helvetica,sans-Serif" font-size="10.00">/uv&#45;cpp/s3client/repo/test</text>
<text text-anchor="start" x="1569" y="-18.5" font-family="Helvetica,sans-Serif" font-size="10.00">/api/abort&#45;multipart&#45;upload</text>
<text text-anchor="middle" x="1626" y="-7.5" font-family="Helvetica,sans-Serif" font-size="10.00">&#45;test.cpp</text>
</a>
</g>
</g>
<!-- Node12&#45;&gt;Node13 -->
<g id="edge12" class="edge">
<title>Node12&#45;&gt;Node13</title>
<path fill="none" stroke="midnightblue" d="M938.22,-166.97C1080.73,-142.34 1130.79,-189.13 1259,-131 1284.21,-119.57 1279.98,-100.85 1305,-89 1405.26,-41.51 1444.2,-79.19 1552,-53 1554.91,-52.29 1557.86,-51.52 1560.83,-50.7"/>
<polygon fill="midnightblue" stroke="midnightblue" points="937.46,-163.55 928.24,-168.79 938.71,-170.44 937.46,-163.55"/>
</g>
<!-- Node14 -->
<g id="node14" class="node">
<title>Node14</title>
<g id="a_node14"><a xlink:href="multipart-upload-test_8cpp_source.html" target="_top" xlink:title=" ">
<polygon fill="none" stroke="black" points="501.5,-6 501.5,-47 644.5,-47 644.5,-6 501.5,-6"/>
<text text-anchor="start" x="509.5" y="-35" font-family="Helvetica,sans-Serif" font-size="10.00">/home/ugovaretto/projects</text>
<text text-anchor="start" x="509.5" y="-24" font-family="Helvetica,sans-Serif" font-size="10.00">/uv&#45;cpp/s3client/repo/test</text>
<text text-anchor="middle" x="573" y="-13" font-family="Helvetica,sans-Serif" font-size="10.00">/api/multipart&#45;upload&#45;test.cpp</text>
</a>
</g>
</g>
<!-- Node12&#45;&gt;Node14 -->
<g id="edge13" class="edge">
<title>Node12&#45;&gt;Node14</title>
<path fill="none" stroke="midnightblue" d="M883.59,-158.79C896.48,-137.41 907.75,-108.49 891,-89 856.28,-48.6 705.89,-65.03 654,-53 646.68,-51.3 639.05,-49.27 631.55,-47.1"/>
<polygon fill="midnightblue" stroke="midnightblue" points="880.5,-157.13 878.05,-167.44 886.39,-160.91 880.5,-157.13"/>
</g>
<!-- Node15 -->
<g id="node15" class="node">
<title>Node15</title>
<g id="a_node15"><a xlink:href="multipart-upload-file-test_8cpp_source.html" target="_top" xlink:title=" ">
<polygon fill="none" stroke="black" points="663,-0.5 663,-52.5 793,-52.5 793,-0.5 663,-0.5"/>
<text text-anchor="start" x="671" y="-40.5" font-family="Helvetica,sans-Serif" font-size="10.00">/home/ugovaretto/projects</text>
<text text-anchor="start" x="671" y="-29.5" font-family="Helvetica,sans-Serif" font-size="10.00">/uv&#45;cpp/s3client/repo/test</text>
<text text-anchor="start" x="671" y="-18.5" font-family="Helvetica,sans-Serif" font-size="10.00">/api/multipart&#45;upload&#45;file</text>
<text text-anchor="middle" x="728" y="-7.5" font-family="Helvetica,sans-Serif" font-size="10.00">&#45;test.cpp</text>
</a>
</g>
</g>
<!-- Node12&#45;&gt;Node15 -->
<g id="edge14" class="edge">
<title>Node12&#45;&gt;Node15</title>
<path fill="none" stroke="midnightblue" d="M901.41,-160.67C910.52,-152.34 919.03,-142.31 924,-131 931.51,-113.91 935.18,-103.95 924,-89 890.15,-43.72 855.85,-70.21 802,-53 799.15,-52.09 796.25,-51.15 793.32,-50.19"/>
<polygon fill="midnightblue" stroke="midnightblue" points="899.02,-158.11 893.68,-167.26 903.56,-163.43 899.02,-158.11"/>
</g>
<!-- Node16 -->
<g id="node16" class="node">
<title>Node16</title>
<g id="a_node16"><a xlink:href="bucket-test_8cpp.html" target="_top" xlink:title="bucket tests">
<polygon fill="none" stroke="black" points="811,-6 811,-47 941,-47 941,-6 811,-6"/>
<text text-anchor="start" x="819" y="-35" font-family="Helvetica,sans-Serif" font-size="10.00">/home/ugovaretto/projects</text>
<text text-anchor="start" x="819" y="-24" font-family="Helvetica,sans-Serif" font-size="10.00">/uv&#45;cpp/s3client/repo/test</text>
<text text-anchor="middle" x="876" y="-13" font-family="Helvetica,sans-Serif" font-size="10.00">/api/bucket&#45;test.cpp</text>
</a>
</g>
</g>
<!-- Node12&#45;&gt;Node16 -->
<g id="edge15" class="edge">
<title>Node12&#45;&gt;Node16</title>
<path fill="none" stroke="midnightblue" d="M929.6,-162.22C942.53,-154.27 954.4,-144.03 962,-131 971.4,-114.88 970.54,-105.6 962,-89 952.77,-71.04 935.59,-57.16 919,-47.17"/>
<polygon fill="midnightblue" stroke="midnightblue" points="927.5,-159.39 920.52,-167.37 930.95,-165.48 927.5,-159.39"/>
</g>
<!-- Node17 -->
<g id="node17" class="node">
<title>Node17</title>
<g id="a_node17"><a xlink:href="fileobject-test_8cpp_source.html" target="_top" xlink:title=" ">
<polygon fill="none" stroke="black" points="1107,-6 1107,-47 1237,-47 1237,-6 1107,-6"/>
<text text-anchor="start" x="1115" y="-35" font-family="Helvetica,sans-Serif" font-size="10.00">/home/ugovaretto/projects</text>
<text text-anchor="start" x="1115" y="-24" font-family="Helvetica,sans-Serif" font-size="10.00">/uv&#45;cpp/s3client/repo/test</text>
<text text-anchor="middle" x="1172" y="-13" font-family="Helvetica,sans-Serif" font-size="10.00">/api/fileobject&#45;test.cpp</text>
</a>
</g>
</g>
<!-- Node12&#45;&gt;Node17 -->
<g id="edge16" class="edge">
<title>Node12&#45;&gt;Node17</title>
<path fill="none" stroke="midnightblue" d="M938.18,-167.13C998.88,-157.44 1120.21,-163.26 1153,-131 1175.14,-109.22 1176.25,-70.73 1174.5,-47.32"/>
<polygon fill="midnightblue" stroke="midnightblue" points="937.47,-163.7 928.28,-168.98 938.76,-170.58 937.47,-163.7"/>
</g>
<!-- Node18 -->
<g id="node18" class="node">
<title>Node18</title>
<g id="a_node18"><a xlink:href="parallel-file-transfer-test_8cpp_source.html" target="_top" xlink:title=" ">
<polygon fill="none" stroke="black" points="1255,-6 1255,-47 1395,-47 1395,-6 1255,-6"/>
<text text-anchor="start" x="1263" y="-35" font-family="Helvetica,sans-Serif" font-size="10.00">/home/ugovaretto/projects</text>
<text text-anchor="start" x="1263" y="-24" font-family="Helvetica,sans-Serif" font-size="10.00">/uv&#45;cpp/s3client/repo/test</text>
<text text-anchor="middle" x="1325" y="-13" font-family="Helvetica,sans-Serif" font-size="10.00">/parallel&#45;file&#45;transfer&#45;test.cpp</text>
</a>
</g>
</g>
<!-- Node12&#45;&gt;Node18 -->
<g id="edge17" class="edge">
<title>Node12&#45;&gt;Node18</title>
<path fill="none" stroke="midnightblue" d="M938.08,-166.94C1044.21,-146.46 1079.48,-170.46 1176,-131 1205.46,-118.96 1207.92,-107.25 1234,-89 1254.31,-74.79 1277.46,-59.15 1295.33,-47.2"/>
<polygon fill="midnightblue" stroke="midnightblue" points="937.38,-163.51 928.27,-168.92 938.77,-170.38 937.38,-163.51"/>
</g>
<!-- Node19 -->
<g id="node19" class="node">
<title>Node19</title>
<g id="a_node19"><a xlink:href="object-test_8cpp_source.html" target="_top" xlink:title=" ">
<polygon fill="none" stroke="black" points="1413,-6 1413,-47 1543,-47 1543,-6 1413,-6"/>
<text text-anchor="start" x="1421" y="-35" font-family="Helvetica,sans-Serif" font-size="10.00">/home/ugovaretto/projects</text>
<text text-anchor="start" x="1421" y="-24" font-family="Helvetica,sans-Serif" font-size="10.00">/uv&#45;cpp/s3client/repo/test</text>
<text text-anchor="middle" x="1478" y="-13" font-family="Helvetica,sans-Serif" font-size="10.00">/api/object&#45;test.cpp</text>
</a>
</g>
</g>
<!-- Node12&#45;&gt;Node19 -->
<g id="edge18" class="edge">
<title>Node12&#45;&gt;Node19</title>
<path fill="none" stroke="midnightblue" d="M938.19,-166.95C1063.11,-144.31 1105.51,-178.79 1219,-131 1246.7,-119.34 1245.18,-102.56 1272,-89 1326.27,-61.56 1345.89,-70.92 1404,-53 1409.97,-51.16 1416.19,-49.16 1422.37,-47.11"/>
<polygon fill="midnightblue" stroke="midnightblue" points="937.43,-163.54 928.26,-168.84 938.73,-170.41 937.43,-163.54"/>
</g>
<!-- Node20 -->
<g id="node20" class="node">
<title>Node20</title>
<g id="a_node20"><a xlink:href="s3-api_8cpp_source.html" target="_top" xlink:title=" ">
<polygon fill="none" stroke="black" points="1314,-89.5 1314,-130.5 1444,-130.5 1444,-89.5 1314,-89.5"/>
<text text-anchor="start" x="1322" y="-118.5" font-family="Helvetica,sans-Serif" font-size="10.00">/home/ugovaretto/projects</text>
<text text-anchor="start" x="1322" y="-107.5" font-family="Helvetica,sans-Serif" font-size="10.00">/uv&#45;cpp/s3client/repo/lib</text>
<text text-anchor="middle" x="1379" y="-96.5" font-family="Helvetica,sans-Serif" font-size="10.00">/src/api/s3&#45;api.cpp</text>
</a>
</g>
</g>
<!-- Node12&#45;&gt;Node20 -->
<g id="edge22" class="edge">
<title>Node12&#45;&gt;Node20</title>
<path fill="none" stroke="midnightblue" d="M938.43,-166.9C1098.31,-138.6 1143.58,-158.4 1300,-131 1304.46,-130.22 1309.04,-129.32 1313.64,-128.35"/>
<polygon fill="midnightblue" stroke="midnightblue" points="937.45,-163.52 928.24,-168.74 938.7,-170.41 937.45,-163.52"/>
</g>
<!-- Node21 -->
<g id="node21" class="node">
<title>Node21</title>
<g id="a_node21"><a xlink:href="xml__parser_8cpp_source.html" target="_top" xlink:title=" ">
<polygon fill="none" stroke="black" points="456,-89.5 456,-130.5 586,-130.5 586,-89.5 456,-89.5"/>
<text text-anchor="start" x="464" y="-118.5" font-family="Helvetica,sans-Serif" font-size="10.00">/home/ugovaretto/projects</text>
<text text-anchor="start" x="464" y="-107.5" font-family="Helvetica,sans-Serif" font-size="10.00">/uv&#45;cpp/s3client/repo/lib</text>
<text text-anchor="middle" x="521" y="-96.5" font-family="Helvetica,sans-Serif" font-size="10.00">/src/api/xml_parser.cpp</text>
</a>
</g>
</g>
<!-- Node12&#45;&gt;Node21 -->
<g id="edge23" class="edge">
<title>Node12&#45;&gt;Node21</title>
<path fill="none" stroke="midnightblue" d="M787.88,-167.87C786.57,-167.57 785.28,-167.28 784,-167 700.52,-148.5 678.33,-150.17 595,-131 592.15,-130.34 589.24,-129.65 586.3,-128.94"/>
<polygon fill="midnightblue" stroke="midnightblue" points="787.44,-171.36 797.98,-170.21 789.03,-164.54 787.44,-171.36"/>
</g>
<!-- Node22 -->
<g id="node22" class="node">
<title>Node22</title>
<g id="a_node22"><a xlink:href="download-file_8cpp_source.html" target="_top" xlink:title=" ">
<polygon fill="none" stroke="black" points="604,-89.5 604,-130.5 734,-130.5 734,-89.5 604,-89.5"/>
<text text-anchor="start" x="612" y="-118.5" font-family="Helvetica,sans-Serif" font-size="10.00">/home/ugovaretto/projects</text>
<text text-anchor="start" x="612" y="-107.5" font-family="Helvetica,sans-Serif" font-size="10.00">/uv&#45;cpp/s3client/repo/lib</text>
<text text-anchor="middle" x="669" y="-96.5" font-family="Helvetica,sans-Serif" font-size="10.00">/src/download&#45;file.cpp</text>
</a>
</g>
</g>
<!-- Node12&#45;&gt;Node22 -->
<g id="edge24" class="edge">
<title>Node12&#45;&gt;Node22</title>
<path fill="none" stroke="midnightblue" d="M803.65,-163.75C776.49,-153.11 744.67,-140.65 718.79,-130.51"/>
<polygon fill="midnightblue" stroke="midnightblue" points="802.45,-167.04 813.04,-167.43 805.01,-160.52 802.45,-167.04"/>
</g>
<!-- Node23 -->
<g id="node23" class="node">
<title>Node23</title>
<g id="a_node23"><a xlink:href="upload-file_8cpp_source.html" target="_top" xlink:title=" ">
<polygon fill="none" stroke="black" points="752,-89.5 752,-130.5 882,-130.5 882,-89.5 752,-89.5"/>
<text text-anchor="start" x="760" y="-118.5" font-family="Helvetica,sans-Serif" font-size="10.00">/home/ugovaretto/projects</text>
<text text-anchor="start" x="760" y="-107.5" font-family="Helvetica,sans-Serif" font-size="10.00">/uv&#45;cpp/s3client/repo/lib</text>
<text text-anchor="middle" x="817" y="-96.5" font-family="Helvetica,sans-Serif" font-size="10.00">/src/upload&#45;file.cpp</text>
</a>
</g>
</g>
<!-- Node12&#45;&gt;Node23 -->
<g id="edge25" class="edge">
<title>Node12&#45;&gt;Node23</title>
<path fill="none" stroke="midnightblue" d="M845.91,-158.76C840.21,-149.35 834.01,-139.1 828.81,-130.51"/>
<polygon fill="midnightblue" stroke="midnightblue" points="842.98,-160.69 851.15,-167.43 848.97,-157.06 842.98,-160.69"/>
</g>
<!-- Node24 -->
<g id="node24" class="node">
<title>Node24</title>
<g id="a_node24"><a xlink:href="test_2utility_8h_source.html" target="_top" xlink:title=" ">
<polygon fill="none" stroke="black" points="1014,-89.5 1014,-130.5 1144,-130.5 1144,-89.5 1014,-89.5"/>
<text text-anchor="start" x="1022" y="-118.5" font-family="Helvetica,sans-Serif" font-size="10.00">/home/ugovaretto/projects</text>
<text text-anchor="start" x="1022" y="-107.5" font-family="Helvetica,sans-Serif" font-size="10.00">/uv&#45;cpp/s3client/repo/test</text>
<text text-anchor="middle" x="1079" y="-96.5" font-family="Helvetica,sans-Serif" font-size="10.00">/utility.h</text>
</a>
</g>
</g>
<!-- Node12&#45;&gt;Node24 -->
<g id="edge26" class="edge">
<title>Node12&#45;&gt;Node24</title>
<path fill="none" stroke="midnightblue" d="M928.29,-164.03C958.7,-153.33 994.49,-140.73 1023.56,-130.51"/>
<polygon fill="midnightblue" stroke="midnightblue" points="926.9,-160.81 918.63,-167.43 929.22,-167.41 926.9,-160.81"/>
</g>
<!-- Node24&#45;&gt;Node13 -->
<g id="edge27" class="edge">
<title>Node24&#45;&gt;Node13</title>
<path fill="none" stroke="midnightblue" d="M1154.4,-100.97C1278.09,-87.66 1514.22,-61.64 1552,-53 1554.91,-52.33 1557.87,-51.59 1560.85,-50.8"/>
<polygon fill="midnightblue" stroke="midnightblue" points="1153.81,-97.51 1144.24,-102.06 1154.56,-104.47 1153.81,-97.51"/>
</g>
<!-- Node24&#45;&gt;Node14 -->
<g id="edge28" class="edge">
<title>Node24&#45;&gt;Node14</title>
<path fill="none" stroke="midnightblue" d="M1003.56,-99.23C883.73,-83.68 662.46,-54.87 654,-53 646.52,-51.34 638.73,-49.31 631.07,-47.11"/>
<polygon fill="midnightblue" stroke="midnightblue" points="1003.4,-102.74 1013.77,-100.55 1004.31,-95.8 1003.4,-102.74"/>
</g>
<!-- Node24&#45;&gt;Node15 -->
<g id="edge29" class="edge">
<title>Node24&#45;&gt;Node15</title>
<path fill="none" stroke="midnightblue" d="M1003.93,-96.6C947.85,-86.67 869.55,-71.38 802,-53 799.12,-52.22 796.18,-51.38 793.22,-50.5"/>
<polygon fill="midnightblue" stroke="midnightblue" points="1003.33,-100.05 1013.79,-98.33 1004.54,-93.15 1003.33,-100.05"/>
</g>
<!-- Node24&#45;&gt;Node16 -->
<g id="edge30" class="edge">
<title>Node24&#45;&gt;Node16</title>
<path fill="none" stroke="midnightblue" d="M1020.73,-85.61C990.29,-73.39 953.46,-58.6 924.58,-47"/>
<polygon fill="midnightblue" stroke="midnightblue" points="1019.79,-89 1030.38,-89.48 1022.4,-82.5 1019.79,-89"/>
</g>
<!-- Node24&#45;&gt;Node17 -->
<g id="edge31" class="edge">
<title>Node24&#45;&gt;Node17</title>
<path fill="none" stroke="midnightblue" d="M1109.39,-82.36C1122.53,-70.85 1137.62,-57.63 1149.69,-47.05"/>
<polygon fill="midnightblue" stroke="midnightblue" points="1106.73,-80.05 1101.51,-89.27 1111.34,-85.31 1106.73,-80.05"/>
</g>
<!-- Node24&#45;&gt;Node18 -->
<g id="edge33" class="edge">
<title>Node24&#45;&gt;Node18</title>
<path fill="none" stroke="midnightblue" d="M1147.7,-86.24C1184.95,-73.9 1230.52,-58.8 1266.13,-47"/>
<polygon fill="midnightblue" stroke="midnightblue" points="1146.31,-83.01 1137.92,-89.48 1148.52,-89.66 1146.31,-83.01"/>
</g>
<!-- Node24&#45;&gt;Node19 -->
<g id="edge34" class="edge">
<title>Node24&#45;&gt;Node19</title>
<path fill="none" stroke="midnightblue" d="M1154.04,-99.57C1220.38,-90.41 1319.47,-74.7 1404,-53 1410.71,-51.28 1417.69,-49.23 1424.55,-47.05"/>
<polygon fill="midnightblue" stroke="midnightblue" points="1153.52,-96.11 1144.09,-100.93 1154.47,-103.05 1153.52,-96.11"/>
</g>
<!-- Node25 -->
<g id="node25" class="node">
<title>Node25</title>
<g id="a_node25"><a xlink:href="test_2utility_8cpp_source.html" target="_top" xlink:title=" ">
<polygon fill="none" stroke="black" points="959,-6 959,-47 1089,-47 1089,-6 959,-6"/>
<text text-anchor="start" x="967" y="-35" font-family="Helvetica,sans-Serif" font-size="10.00">/home/ugovaretto/projects</text>
<text text-anchor="start" x="967" y="-24" font-family="Helvetica,sans-Serif" font-size="10.00">/uv&#45;cpp/s3client/repo/test</text>
<text text-anchor="middle" x="1024" y="-13" font-family="Helvetica,sans-Serif" font-size="10.00">/utility.cpp</text>
</a>
</g>
</g>
<!-- Node24&#45;&gt;Node25 -->
<g id="edge32" class="edge">
<title>Node24&#45;&gt;Node25</title>
<path fill="none" stroke="midnightblue" d="M1059.92,-80.72C1052.42,-69.61 1044,-57.13 1037.19,-47.05"/>
<polygon fill="midnightblue" stroke="midnightblue" points="1057.19,-82.94 1065.69,-89.27 1062.99,-79.02 1057.19,-82.94"/>
</g>
</g>
</svg>
