<?xml version="1.0" encoding="UTF-8" standalone="no"?>
<!DOCTYPE svg PUBLIC "-//W3C//DTD SVG 1.1//EN"
 "http://www.w3.org/Graphics/SVG/1.1/DTD/svg11.dtd">
<!-- Generated by graphviz version 2.43.0 (0)
 -->
<!-- Title: /home/ugovaretto/projects/uv&#45;cpp/s3client/repo/lib/include/s3&#45;client.h Pages: 1 -->
<!--zoomable 274 -->
<svg id="main" version="1.1" xmlns="http://www.w3.org/2000/svg" xmlns:xlink="http://www.w3.org/1999/xlink" xml:space="preserve" onload="init(evt)">
<style type="text/css"><![CDATA[
.edge:hover path { stroke: red; }
.edge:hover polygon { stroke: red; fill: red; }
]]></style>
<script type="text/javascript"><![CDATA[
var edges = document.getElementsByTagName('g');
if (edges && edges.length) {
  for (var i=0;i<edges.length;i++) {
    if (edges[i].id.substr(0,4)=='edge') {
      edges[i].setAttribute('class','edge');
    }
  }
}
]]></script>
        <defs>
                <circle id="rim" cx="0" cy="0" r="7"/>
                <circle id="rim2" cx="0" cy="0" r="3.5"/>
                <g id="zoomPlus">
                        <use xlink:href="#rim" fill="#404040">
                                <set attributeName="fill" to="#808080" begin="zoomplus.mouseover" end="zoomplus.mouseout"/>
                        </use>
                        <path d="M-4,0h8M0,-4v8" fill="none" stroke="white" stroke-width="1.5" pointer-events="none"/>
                </g>
                <g id="zoomMin">
                        <use xlink:href="#rim" fill="#404040">
                                <set attributeName="fill" to="#808080" begin="zoomminus.mouseover" end="zoomminus.mouseout"/>
                        </use>
                        <path d="M-4,0h8" fill="none" stroke="white" stroke-width="1.5" pointer-events="none"/>
                </g>
                <g id="dirArrow">
                        <path fill="none" stroke="white" stroke-width="1.5" d="M0,-3.0v7 M-2.5,-0.5L0,-3.0L2.5,-0.5"/>
                </g>
               <g id="resetDef">
                       <use xlink:href="#rim2" fill="#404040">
                               <set attributeName="fill" to="#808080" begin="reset.mouseover" end="reset.mouseout"/>
                       </use>
               </g>
        </defs>

<script type="text/javascript">
var viewWidth = 672;
var viewHeight = 274;
var sectionId = 'dynsection-0';
</script>
<script xlink:href="svgpan.js"/>
<svg id="graph" class="graph">
<g id="viewport">
<title>/home/ugovaretto/projects/uv&#45;cpp/s3client/repo/lib/include/s3&#45;client.h</title>
<!-- Node1 -->
<g id="node1" class="node">
<title>Node1</title>
<g id="a_node1"><a xlink:title="declaration of functions and data types for sending S3 requests, signing URLs and downloading and upl...">
<polygon fill="#bfbfbf" stroke="black" points="0.05,-224.5 0.05,-265.5 130.05,-265.5 130.05,-224.5 0.05,-224.5"/>
<text text-anchor="start" x="8.05" y="-253.5" font-family="Helvetica,sans-Serif" font-size="10.00">/home/ugovaretto/projects</text>
<text text-anchor="start" x="8.05" y="-242.5" font-family="Helvetica,sans-Serif" font-size="10.00">/uv&#45;cpp/s3client/repo/lib</text>
<text text-anchor="middle" x="65.05" y="-231.5" font-family="Helvetica,sans-Serif" font-size="10.00">/include/s3&#45;client.h</text>
</a>
</g>
</g>
<!-- Node2 -->
<g id="node2" class="node">
<title>Node2</title>
<g id="a_node2"><a xlink:href="aws__sign_8h.html" target="_top" xlink:title="Public interface to signing URLs and HTTP headers with the S3v4 protocol standard.">
<polygon fill="none" stroke="black" points="32.05,-168.5 32.05,-187.5 98.05,-187.5 98.05,-168.5 32.05,-168.5"/>
<text text-anchor="middle" x="65.05" y="-175.5" font-family="Helvetica,sans-Serif" font-size="10.00">aws_sign.h</text>
</a>
</g>
</g>
<!-- Node1&#45;&gt;Node2 -->
<g id="edge1" class="edge">
<title>Node1&#45;&gt;Node2</title>
<path fill="none" stroke="midnightblue" d="M65.05,-224.5C65.05,-216.07 65.05,-206.24 65.05,-197.87"/>
<polygon fill="midnightblue" stroke="midnightblue" points="68.55,-197.65 65.05,-187.65 61.55,-197.65 68.55,-197.65"/>
</g>
<!-- Node3 -->
<g id="node3" class="node">
<title>Node3</title>
<g id="a_node3"><a xlink:href="common_8h.html" target="_top" xlink:title="Common definitions.">
<polygon fill="none" stroke="black" points="55.05,-56.5 55.05,-75.5 117.05,-75.5 117.05,-56.5 55.05,-56.5"/>
<text text-anchor="middle" x="86.05" y="-63.5" font-family="Helvetica,sans-Serif" font-size="10.00">common.h</text>
</a>
</g>
</g>
<!-- Node1&#45;&gt;Node3 -->
<g id="edge18" class="edge">
<title>Node1&#45;&gt;Node3</title>
<path fill="none" stroke="midnightblue" d="M43.98,-224.45C30.73,-209.71 17.16,-188.58 23.05,-168 32.52,-134.92 56.32,-102.15 71.81,-83.27"/>
<polygon fill="midnightblue" stroke="midnightblue" points="74.48,-85.53 78.26,-75.63 69.13,-81.02 74.48,-85.53"/>
</g>
<!-- Node5 -->
<g id="node5" class="node">
<title>Node5</title>
<g id="a_node5"><a xlink:title=" ">
<polygon fill="none" stroke="#bfbfbf" points="36.55,-0.5 36.55,-19.5 77.55,-19.5 77.55,-0.5 36.55,-0.5"/>
<text text-anchor="middle" x="57.05" y="-7.5" font-family="Helvetica,sans-Serif" font-size="10.00">string</text>
</a>
</g>
</g>
<!-- Node1&#45;&gt;Node5 -->
<g id="edge31" class="edge">
<title>Node1&#45;&gt;Node5</title>
<path fill="none" stroke="midnightblue" d="M43.38,-224.49C33.72,-214.55 23.17,-201.67 17.05,-188 -3.47,-142.16 5.39,-126.11 2.05,-76 1.46,-67.13 -1.76,-64.03 2.05,-56 8.18,-43.07 20.05,-32.62 31.19,-25.05"/>
<polygon fill="midnightblue" stroke="midnightblue" points="33.25,-27.9 39.85,-19.61 29.52,-21.97 33.25,-27.9"/>
</g>
<!-- Node9 -->
<g id="node9" class="node">
<title>Node9</title>
<g id="a_node9"><a xlink:title=" ">
<polygon fill="none" stroke="#bfbfbf" points="535.05,-56.5 535.05,-75.5 579.05,-75.5 579.05,-56.5 535.05,-56.5"/>
<text text-anchor="middle" x="557.05" y="-63.5" font-family="Helvetica,sans-Serif" font-size="10.00">vector</text>
</a>
</g>
</g>
<!-- Node1&#45;&gt;Node9 -->
<g id="edge32" class="edge">
<title>Node1&#45;&gt;Node9</title>
<path fill="none" stroke="midnightblue" d="M130.27,-241.76C270.12,-235.43 591.57,-212.29 658.05,-132 681.09,-104.18 626.71,-84.25 589.13,-74.27"/>
<polygon fill="midnightblue" stroke="midnightblue" points="589.61,-70.78 579.06,-71.72 587.89,-77.56 589.61,-70.78"/>
</g>
<!-- Node13 -->
<g id="node13" class="node">
<title>Node13</title>
<g id="a_node13"><a xlink:href="webclient_8h.html" target="_top" xlink:title="declaration of WebClient class wrapping libcurl to send web requests.">
<polygon fill="none" stroke="black" points="288.05,-168.5 288.05,-187.5 354.05,-187.5 354.05,-168.5 288.05,-168.5"/>
<text text-anchor="middle" x="321.05" y="-175.5" font-family="Helvetica,sans-Serif" font-size="10.00">webclient.h</text>
</a>
</g>
</g>
<!-- Node1&#45;&gt;Node13 -->
<g id="edge19" class="edge">
<title>Node1&#45;&gt;Node13</title>
<path fill="none" stroke="midnightblue" d="M130.31,-227.43C176.74,-215.64 237.81,-200.14 278.19,-189.88"/>
<polygon fill="midnightblue" stroke="midnightblue" points="279.16,-193.25 287.99,-187.39 277.44,-186.46 279.16,-193.25"/>
</g>
<!-- Node2&#45;&gt;Node3 -->
<g id="edge2" class="edge">
<title>Node2&#45;&gt;Node3</title>
<path fill="none" stroke="midnightblue" d="M66.7,-168.37C70.09,-150.62 77.91,-109.67 82.5,-85.6"/>
<polygon fill="midnightblue" stroke="midnightblue" points="85.97,-86.07 84.41,-75.59 79.1,-84.76 85.97,-86.07"/>
</g>
<!-- Node2&#45;&gt;Node5 -->
<g id="edge17" class="edge">
<title>Node2&#45;&gt;Node5</title>
<path fill="none" stroke="midnightblue" d="M49.27,-168.47C36.85,-160.77 20.45,-148.18 13.05,-132 -0.99,-101.28 0.3,-87.28 13.05,-56 17.85,-44.23 27.38,-33.86 36.35,-26.05"/>
<polygon fill="midnightblue" stroke="midnightblue" points="38.7,-28.64 44.27,-19.63 34.3,-23.2 38.7,-28.64"/>
</g>
<!-- Node6 -->
<g id="node6" class="node">
<title>Node6</title>
<g id="a_node6"><a xlink:href="url__utility_8h.html" target="_top" xlink:title="Internal utility functions to process and parse text and URLs and create S3 signature keys.">
<polygon fill="none" stroke="black" points="131.05,-112.5 131.05,-131.5 193.05,-131.5 193.05,-112.5 131.05,-112.5"/>
<text text-anchor="middle" x="162.05" y="-119.5" font-family="Helvetica,sans-Serif" font-size="10.00">url_utility.h</text>
</a>
</g>
</g>
<!-- Node2&#45;&gt;Node6 -->
<g id="edge5" class="edge">
<title>Node2&#45;&gt;Node6</title>
<path fill="none" stroke="midnightblue" d="M80.64,-168.32C96.05,-159.74 119.86,-146.49 137.76,-136.52"/>
<polygon fill="midnightblue" stroke="midnightblue" points="139.47,-139.58 146.51,-131.65 136.07,-133.46 139.47,-139.58"/>
</g>
<!-- Node4 -->
<g id="node4" class="node">
<title>Node4</title>
<g id="a_node4"><a xlink:title=" ">
<polygon fill="none" stroke="#bfbfbf" points="237.55,-0.5 237.55,-19.5 272.55,-19.5 272.55,-0.5 237.55,-0.5"/>
<text text-anchor="middle" x="255.05" y="-7.5" font-family="Helvetica,sans-Serif" font-size="10.00">map</text>
</a>
</g>
</g>
<!-- Node3&#45;&gt;Node4 -->
<g id="edge3" class="edge">
<title>Node3&#45;&gt;Node4</title>
<path fill="none" stroke="midnightblue" d="M112.83,-56.44C144.1,-46.45 195.58,-30 227.28,-19.87"/>
<polygon fill="midnightblue" stroke="midnightblue" points="228.75,-23.08 237.21,-16.7 226.62,-16.41 228.75,-23.08"/>
</g>
<!-- Node3&#45;&gt;Node5 -->
<g id="edge4" class="edge">
<title>Node3&#45;&gt;Node5</title>
<path fill="none" stroke="midnightblue" d="M81.26,-56.08C77.29,-48.69 71.53,-37.95 66.62,-28.81"/>
<polygon fill="midnightblue" stroke="midnightblue" points="69.57,-26.91 61.75,-19.75 63.4,-30.22 69.57,-26.91"/>
</g>
<!-- Node6&#45;&gt;Node3 -->
<g id="edge11" class="edge">
<title>Node6&#45;&gt;Node3</title>
<path fill="none" stroke="midnightblue" d="M149.84,-112.32C138.28,-104.11 120.68,-91.6 106.89,-81.81"/>
<polygon fill="midnightblue" stroke="midnightblue" points="108.66,-78.77 98.48,-75.83 104.61,-84.48 108.66,-78.77"/>
</g>
<!-- Node6&#45;&gt;Node4 -->
<g id="edge8" class="edge">
<title>Node6&#45;&gt;Node4</title>
<path fill="none" stroke="midnightblue" d="M184.93,-112.41C201.41,-105.1 222.96,-93.06 236.05,-76 246.33,-62.6 251.05,-43.78 253.22,-29.84"/>
<polygon fill="midnightblue" stroke="midnightblue" points="256.7,-30.26 254.47,-19.9 249.75,-29.38 256.7,-30.26"/>
</g>
<!-- Node6&#45;&gt;Node5 -->
<g id="edge9" class="edge">
<title>Node6&#45;&gt;Node5</title>
<path fill="none" stroke="midnightblue" d="M158.77,-112.16C153.49,-98.79 142.04,-73.19 126.05,-56 114.1,-43.15 97.76,-32.29 83.97,-24.45"/>
<polygon fill="midnightblue" stroke="midnightblue" points="85.38,-21.23 74.93,-19.52 82.04,-27.38 85.38,-21.23"/>
</g>
<!-- Node7 -->
<g id="node7" class="node">
<title>Node7</title>
<g id="a_node7"><a xlink:title=" ">
<polygon fill="none" stroke="#bfbfbf" points="343.05,-0.5 343.05,-19.5 399.05,-19.5 399.05,-0.5 343.05,-0.5"/>
<text text-anchor="middle" x="371.05" y="-7.5" font-family="Helvetica,sans-Serif" font-size="10.00">algorithm</text>
</a>
</g>
</g>
<!-- Node6&#45;&gt;Node7 -->
<g id="edge6" class="edge">
<title>Node6&#45;&gt;Node7</title>
<path fill="none" stroke="midnightblue" d="M180.74,-112.36C199.64,-103.53 229.6,-89.27 255.05,-76 287.43,-59.11 324.09,-38.27 347.38,-24.82"/>
<polygon fill="midnightblue" stroke="midnightblue" points="349.3,-27.75 356.19,-19.7 345.79,-21.69 349.3,-27.75"/>
</g>
<!-- Node8 -->
<g id="node8" class="node">
<title>Node8</title>
<g id="a_node8"><a xlink:title=" ">
<polygon fill="none" stroke="#bfbfbf" points="173.05,-56.5 173.05,-75.5 227.05,-75.5 227.05,-56.5 173.05,-56.5"/>
<text text-anchor="middle" x="200.05" y="-63.5" font-family="Helvetica,sans-Serif" font-size="10.00">iostream</text>
</a>
</g>
</g>
<!-- Node6&#45;&gt;Node8 -->
<g id="edge7" class="edge">
<title>Node6&#45;&gt;Node8</title>
<path fill="none" stroke="midnightblue" d="M168.33,-112.08C173.69,-104.46 181.57,-93.26 188.13,-83.94"/>
<polygon fill="midnightblue" stroke="midnightblue" points="191,-85.94 193.89,-75.75 185.28,-81.91 191,-85.94"/>
</g>
<!-- Node6&#45;&gt;Node9 -->
<g id="edge10" class="edge">
<title>Node6&#45;&gt;Node9</title>
<path fill="none" stroke="midnightblue" d="M193.44,-113.64C196.34,-113.05 199.25,-112.49 202.05,-112 263.87,-101.15 449.27,-79.39 524.65,-70.71"/>
<polygon fill="midnightblue" stroke="midnightblue" points="525.41,-74.14 534.94,-69.52 524.61,-67.19 525.41,-74.14"/>
</g>
<!-- Node10 -->
<g id="node10" class="node">
<title>Node10</title>
<g id="a_node10"><a xlink:href="lib_2include_2utility_8h.html" target="_top" xlink:title="internal utility functions">
<polygon fill="none" stroke="black" points="417.55,-56.5 417.55,-75.5 464.55,-75.5 464.55,-56.5 417.55,-56.5"/>
<text text-anchor="middle" x="441.05" y="-63.5" font-family="Helvetica,sans-Serif" font-size="10.00">utility.h</text>
</a>
</g>
</g>
<!-- Node6&#45;&gt;Node10 -->
<g id="edge12" class="edge">
<title>Node6&#45;&gt;Node10</title>
<path fill="none" stroke="midnightblue" d="M193.47,-113.79C196.36,-113.17 199.26,-112.56 202.05,-112 291.01,-94.03 314.19,-94.47 403.05,-76 404.5,-75.7 405.98,-75.38 407.48,-75.06"/>
<polygon fill="midnightblue" stroke="midnightblue" points="408.4,-78.44 417.38,-72.82 406.85,-71.61 408.4,-78.44"/>
</g>
<!-- Node10&#45;&gt;Node5 -->
<g id="edge15" class="edge">
<title>Node10&#45;&gt;Node5</title>
<path fill="none" stroke="midnightblue" d="M417.32,-61.66C350.77,-52.3 162.38,-25.81 87.9,-15.34"/>
<polygon fill="midnightblue" stroke="midnightblue" points="88.16,-11.84 77.77,-13.91 87.18,-18.77 88.16,-11.84"/>
</g>
<!-- Node10&#45;&gt;Node7 -->
<g id="edge13" class="edge">
<title>Node10&#45;&gt;Node7</title>
<path fill="none" stroke="midnightblue" d="M429.8,-56.32C419.25,-48.18 403.25,-35.84 390.61,-26.09"/>
<polygon fill="midnightblue" stroke="midnightblue" points="392.56,-23.17 382.5,-19.83 388.28,-28.71 392.56,-23.17"/>
</g>
<!-- Node11 -->
<g id="node11" class="node">
<title>Node11</title>
<g id="a_node11"><a xlink:title=" ">
<polygon fill="none" stroke="#bfbfbf" points="518.55,-0.5 518.55,-19.5 577.55,-19.5 577.55,-0.5 518.55,-0.5"/>
<text text-anchor="middle" x="548.05" y="-7.5" font-family="Helvetica,sans-Serif" font-size="10.00">functional</text>
</a>
</g>
</g>
<!-- Node10&#45;&gt;Node11 -->
<g id="edge14" class="edge">
<title>Node10&#45;&gt;Node11</title>
<path fill="none" stroke="midnightblue" d="M458.24,-56.32C475.4,-47.66 502,-34.24 521.8,-24.25"/>
<polygon fill="midnightblue" stroke="midnightblue" points="523.55,-27.28 530.9,-19.65 520.4,-21.04 523.55,-27.28"/>
</g>
<!-- Node12 -->
<g id="node12" class="node">
<title>Node12</title>
<g id="a_node12"><a xlink:title=" ">
<polygon fill="none" stroke="#bfbfbf" points="417.55,-0.5 417.55,-19.5 500.55,-19.5 500.55,-0.5 417.55,-0.5"/>
<text text-anchor="middle" x="459.05" y="-7.5" font-family="Helvetica,sans-Serif" font-size="10.00">unordered_map</text>
</a>
</g>
</g>
<!-- Node10&#45;&gt;Node12 -->
<g id="edge16" class="edge">
<title>Node10&#45;&gt;Node12</title>
<path fill="none" stroke="midnightblue" d="M444.02,-56.08C446.43,-48.85 449.91,-38.41 452.92,-29.4"/>
<polygon fill="midnightblue" stroke="midnightblue" points="456.29,-30.34 456.13,-19.75 449.65,-28.13 456.29,-30.34"/>
</g>
<!-- Node13&#45;&gt;Node3 -->
<g id="edge28" class="edge">
<title>Node13&#45;&gt;Node3</title>
<path fill="none" stroke="midnightblue" d="M287.69,-177.48C245.14,-176.44 171.21,-168.88 122.05,-132 106.61,-120.41 96.92,-100.16 91.53,-85.33"/>
<polygon fill="midnightblue" stroke="midnightblue" points="94.81,-84.09 88.35,-75.69 88.16,-86.29 94.81,-84.09"/>
</g>
<!-- Node13&#45;&gt;Node4 -->
<g id="edge24" class="edge">
<title>Node13&#45;&gt;Node4</title>
<path fill="none" stroke="midnightblue" d="M340.77,-168.45C363.38,-157.29 395.89,-136.3 384.05,-112 362.92,-68.62 313.15,-38.38 281.97,-22.92"/>
<polygon fill="midnightblue" stroke="midnightblue" points="283.1,-19.57 272.56,-18.42 280.08,-25.89 283.1,-19.57"/>
</g>
<!-- Node13&#45;&gt;Node5 -->
<g id="edge26" class="edge">
<title>Node13&#45;&gt;Node5</title>
<path fill="none" stroke="midnightblue" d="M287.87,-176.3C242.73,-174.05 160.63,-165.27 100.05,-132 69.75,-115.36 58.99,-108.06 46.05,-76 39.97,-60.93 44.02,-42.57 48.83,-29.21"/>
<polygon fill="midnightblue" stroke="midnightblue" points="52.16,-30.32 52.68,-19.73 45.68,-27.69 52.16,-30.32"/>
</g>
<!-- Node13&#45;&gt;Node6 -->
<g id="edge29" class="edge">
<title>Node13&#45;&gt;Node6</title>
<path fill="none" stroke="midnightblue" d="M295.86,-168.44C269.11,-159.36 226.65,-144.94 196.75,-134.78"/>
<polygon fill="midnightblue" stroke="midnightblue" points="197.72,-131.42 187.13,-131.52 195.47,-138.05 197.72,-131.42"/>
</g>
<!-- Node13&#45;&gt;Node9 -->
<g id="edge27" class="edge">
<title>Node13&#45;&gt;Node9</title>
<path fill="none" stroke="midnightblue" d="M354.09,-174.27C408.01,-169.17 511.62,-156.4 538.05,-132 550.73,-120.3 555.12,-100.65 556.55,-86.01"/>
<polygon fill="midnightblue" stroke="midnightblue" points="560.07,-85.79 557.17,-75.59 553.08,-85.37 560.07,-85.79"/>
</g>
<!-- Node13&#45;&gt;Node10 -->
<g id="edge30" class="edge">
<title>Node13&#45;&gt;Node10</title>
<path fill="none" stroke="midnightblue" d="M354.31,-168.46C374.84,-161.64 400.36,-150.16 417.05,-132 428.87,-119.14 435,-99.96 438.1,-85.76"/>
<polygon fill="midnightblue" stroke="midnightblue" points="441.59,-86.14 439.98,-75.66 434.7,-84.85 441.59,-86.14"/>
</g>
<!-- Node14 -->
<g id="node14" class="node">
<title>Node14</title>
<g id="a_node14"><a xlink:title=" ">
<polygon fill="none" stroke="#bfbfbf" points="469.55,-112.5 469.55,-131.5 528.55,-131.5 528.55,-112.5 469.55,-112.5"/>
<text text-anchor="middle" x="499.05" y="-119.5" font-family="Helvetica,sans-Serif" font-size="10.00">curl/curl.h</text>
</a>
</g>
</g>
<!-- Node13&#45;&gt;Node14 -->
<g id="edge20" class="edge">
<title>Node13&#45;&gt;Node14</title>
<path fill="none" stroke="midnightblue" d="M349.26,-168.44C379.46,-159.28 427.56,-144.69 461.08,-134.52"/>
<polygon fill="midnightblue" stroke="midnightblue" points="462.43,-137.77 470.98,-131.52 460.39,-131.07 462.43,-137.77"/>
</g>
<!-- Node15 -->
<g id="node15" class="node">
<title>Node15</title>
<g id="a_node15"><a xlink:title=" ">
<polygon fill="none" stroke="#bfbfbf" points="585.55,-112.5 585.55,-131.5 648.55,-131.5 648.55,-112.5 585.55,-112.5"/>
<text text-anchor="middle" x="617.05" y="-119.5" font-family="Helvetica,sans-Serif" font-size="10.00">curl/easy.h</text>
</a>
</g>
</g>
<!-- Node13&#45;&gt;Node15 -->
<g id="edge21" class="edge">
<title>Node13&#45;&gt;Node15</title>
<path fill="none" stroke="midnightblue" d="M354.24,-171.19C402.15,-162.77 493.47,-146.57 571.05,-132 572.5,-131.73 573.98,-131.45 575.46,-131.17"/>
<polygon fill="midnightblue" stroke="midnightblue" points="576.23,-134.58 585.39,-129.26 574.91,-127.71 576.23,-134.58"/>
</g>
<!-- Node16 -->
<g id="node16" class="node">
<title>Node16</title>
<g id="a_node16"><a xlink:title=" ">
<polygon fill="none" stroke="#bfbfbf" points="211.05,-112.5 211.05,-131.5 249.05,-131.5 249.05,-112.5 211.05,-112.5"/>
<text text-anchor="middle" x="230.05" y="-119.5" font-family="Helvetica,sans-Serif" font-size="10.00">array</text>
</a>
</g>
</g>
<!-- Node13&#45;&gt;Node16 -->
<g id="edge22" class="edge">
<title>Node13&#45;&gt;Node16</title>
<path fill="none" stroke="midnightblue" d="M306.43,-168.32C292.1,-159.82 270.04,-146.73 253.3,-136.8"/>
<polygon fill="midnightblue" stroke="midnightblue" points="255.02,-133.75 244.64,-131.65 251.45,-139.77 255.02,-133.75"/>
</g>
<!-- Node17 -->
<g id="node17" class="node">
<title>Node17</title>
<g id="a_node17"><a xlink:title=" ">
<polygon fill="none" stroke="#bfbfbf" points="267.05,-112.5 267.05,-131.5 313.05,-131.5 313.05,-112.5 267.05,-112.5"/>
<text text-anchor="middle" x="290.05" y="-119.5" font-family="Helvetica,sans-Serif" font-size="10.00">atomic</text>
</a>
</g>
</g>
<!-- Node13&#45;&gt;Node17 -->
<g id="edge23" class="edge">
<title>Node13&#45;&gt;Node17</title>
<path fill="none" stroke="midnightblue" d="M315.93,-168.08C311.64,-160.61 305.39,-149.72 300.11,-140.52"/>
<polygon fill="midnightblue" stroke="midnightblue" points="303.09,-138.68 295.07,-131.75 297.02,-142.17 303.09,-138.68"/>
</g>
<!-- Node18 -->
<g id="node18" class="node">
<title>Node18</title>
<g id="a_node18"><a xlink:title=" ">
<polygon fill="none" stroke="#bfbfbf" points="331.05,-112.5 331.05,-131.5 375.05,-131.5 375.05,-112.5 331.05,-112.5"/>
<text text-anchor="middle" x="353.05" y="-119.5" font-family="Helvetica,sans-Serif" font-size="10.00">mutex</text>
</a>
</g>
</g>
<!-- Node13&#45;&gt;Node18 -->
<g id="edge25" class="edge">
<title>Node13&#45;&gt;Node18</title>
<path fill="none" stroke="midnightblue" d="M326.34,-168.08C330.76,-160.61 337.21,-149.72 342.67,-140.52"/>
<polygon fill="midnightblue" stroke="midnightblue" points="345.78,-142.14 347.87,-131.75 339.76,-138.57 345.78,-142.14"/>
</g>
</g>
</svg>
        <g id="navigator" transform="translate(0 0)" fill="#404254">
                <rect fill="#f2f5e9" fill-opacity="0.5" stroke="#606060" stroke-width=".5" x="0" y="0" width="60" height="60"/>
                <use id="zoomplus" xlink:href="#zoomPlus" x="17" y="9" onmousedown="handleZoom(evt,'in')"/>
                <use id="zoomminus" xlink:href="#zoomMin" x="42" y="9" onmousedown="handleZoom(evt,'out')"/>
                <use id="reset" xlink:href="#resetDef" x="30" y="36" onmousedown="handleReset()"/>
                <g id="arrowUp" xlink:href="#dirArrow" transform="translate(30 24)" onmousedown="handlePan(0,-1)">
                  <use xlink:href="#rim" fill="#404040">
                        <set attributeName="fill" to="#808080" begin="arrowUp.mouseover" end="arrowUp.mouseout"/>
                  </use>
                  <path fill="none" stroke="white" stroke-width="1.5" d="M0,-3.0v7 M-2.5,-0.5L0,-3.0L2.5,-0.5"/>
                </g>
                <g id="arrowRight" xlink:href="#dirArrow" transform="rotate(90) translate(36 -43)" onmousedown="handlePan(1,0)">
                  <use xlink:href="#rim" fill="#404040">
                        <set attributeName="fill" to="#808080" begin="arrowRight.mouseover" end="arrowRight.mouseout"/>
                  </use>
                  <path fill="none" stroke="white" stroke-width="1.5" d="M0,-3.0v7 M-2.5,-0.5L0,-3.0L2.5,-0.5"/>
                </g>
                <g id="arrowDown" xlink:href="#dirArrow" transform="rotate(180) translate(-30 -48)" onmousedown="handlePan(0,1)">
                  <use xlink:href="#rim" fill="#404040">
                        <set attributeName="fill" to="#808080" begin="arrowDown.mouseover" end="arrowDown.mouseout"/>
                  </use>
                  <path fill="none" stroke="white" stroke-width="1.5" d="M0,-3.0v7 M-2.5,-0.5L0,-3.0L2.5,-0.5"/>
                </g>
                <g id="arrowLeft" xlink:href="#dirArrow" transform="rotate(270) translate(-36 17)" onmousedown="handlePan(-1,0)">
                  <use xlink:href="#rim" fill="#404040">
                        <set attributeName="fill" to="#808080" begin="arrowLeft.mouseover" end="arrowLeft.mouseout"/>
                  </use>
                  <path fill="none" stroke="white" stroke-width="1.5" d="M0,-3.0v7 M-2.5,-0.5L0,-3.0L2.5,-0.5"/>
                </g>
        </g>
        <svg viewBox="0 0 15 15" width="100%" height="30px" preserveAspectRatio="xMaxYMin meet">
         <g id="arrow_out" transform="scale(0.3 0.3)">
          <a xlink:href="s3-client_8h__incl_org.svg" target="_base">
           <rect id="button" ry="5" rx="5" y="6" x="6" height="38" width="38"
                fill="#f2f5e9" fill-opacity="0.5" stroke="#606060" stroke-width="1.0"/>
           <path id="arrow"
             d="M 11.500037,31.436501 C 11.940474,20.09759 22.043105,11.32322 32.158766,21.979434 L 37.068811,17.246167 C 37.068811,17.246167 37.088388,32 37.088388,32 L 22.160133,31.978069 C 22.160133,31.978069 26.997745,27.140456 26.997745,27.140456 C 18.528582,18.264221 13.291696,25.230495 11.500037,31.436501 z"
             style="fill:#404040;"/>
          </a>
         </g>
        </svg>
</svg>
