<?xml version="1.0" encoding="UTF-8" standalone="no"?>
<!DOCTYPE svg PUBLIC "-//W3C//DTD SVG 1.1//EN"
 "http://www.w3.org/Graphics/SVG/1.1/DTD/svg11.dtd">
<!-- Generated by graphviz version 2.43.0 (0)
 -->
<!-- Title: /home/ugovaretto/projects/uv&#45;cpp/s3client/repo/lib/hash/sha256.cpp Pages: 1 -->
<svg width="331pt" height="218pt"
 viewBox="0.00 0.00 331.00 218.00" xmlns="http://www.w3.org/2000/svg" xmlns:xlink="http://www.w3.org/1999/xlink">
<g id="graph0" class="graph" transform="scale(1 1) rotate(0) translate(4 214)">
<title>/home/ugovaretto/projects/uv&#45;cpp/s3client/repo/lib/hash/sha256.cpp</title>
<!-- Node1 -->
<g id="node1" class="node">
<title>Node1</title>
<g id="a_node1"><a xlink:title="Implementation of SHA256 algorithm.">
<polygon fill="#bfbfbf" stroke="black" points="68,-168.5 68,-209.5 198,-209.5 198,-168.5 68,-168.5"/>
<text text-anchor="start" x="76" y="-197.5" font-family="Helvetica,sans-Serif" font-size="10.00">/home/ugovaretto/projects</text>
<text text-anchor="start" x="76" y="-186.5" font-family="Helvetica,sans-Serif" font-size="10.00">/uv&#45;cpp/s3client/repo/lib</text>
<text text-anchor="middle" x="133" y="-175.5" font-family="Helvetica,sans-Serif" font-size="10.00">/hash/sha256.cpp</text>
</a>
</g>
</g>
<!-- Node2 -->
<g id="node2" class="node">
<title>Node2</title>
<g id="a_node2"><a xlink:href="sha256_8h.html" target="_top" xlink:title="declaration of SHA256 hash functions.">
<polygon fill="none" stroke="black" points="49,-112.5 49,-131.5 105,-131.5 105,-112.5 49,-112.5"/>
<text text-anchor="middle" x="77" y="-119.5" font-family="Helvetica,sans-Serif" font-size="10.00">sha256.h</text>
</a>
</g>
</g>
<!-- Node1&#45;&gt;Node2 -->
<g id="edge1" class="edge">
<title>Node1&#45;&gt;Node2</title>
<path fill="none" stroke="midnightblue" d="M116.2,-168.5C108.19,-159.2 98.72,-148.21 91.09,-139.36"/>
<polygon fill="midnightblue" stroke="midnightblue" points="93.63,-136.94 84.45,-131.65 88.33,-141.51 93.63,-136.94"/>
</g>
<!-- Node3 -->
<g id="node3" class="node">
<title>Node3</title>
<g id="a_node3"><a xlink:href="lib_2hash_2utility_8h.html" target="_top" xlink:title="Declaration of utility functions for SHA256 hashing.">
<polygon fill="none" stroke="black" points="105.5,-56.5 105.5,-75.5 152.5,-75.5 152.5,-56.5 105.5,-56.5"/>
<text text-anchor="middle" x="129" y="-63.5" font-family="Helvetica,sans-Serif" font-size="10.00">utility.h</text>
</a>
</g>
</g>
<!-- Node1&#45;&gt;Node3 -->
<g id="edge8" class="edge">
<title>Node1&#45;&gt;Node3</title>
<path fill="none" stroke="midnightblue" d="M132.35,-168.29C131.59,-145.48 130.36,-108.19 129.62,-85.78"/>
<polygon fill="midnightblue" stroke="midnightblue" points="133.11,-85.45 129.28,-75.57 126.12,-85.69 133.11,-85.45"/>
</g>
<!-- Node4 -->
<g id="node4" class="node">
<title>Node4</title>
<g id="a_node4"><a xlink:title=" ">
<polygon fill="none" stroke="#bfbfbf" points="0,-0.5 0,-19.5 46,-19.5 46,-0.5 0,-0.5"/>
<text text-anchor="middle" x="23" y="-7.5" font-family="Helvetica,sans-Serif" font-size="10.00">cstdint</text>
</a>
</g>
</g>
<!-- Node1&#45;&gt;Node4 -->
<g id="edge10" class="edge">
<title>Node1&#45;&gt;Node4</title>
<path fill="none" stroke="midnightblue" d="M74.68,-168.48C57.84,-159.94 41.26,-148.1 31,-132 11.08,-100.75 14.77,-55.26 19.02,-29.89"/>
<polygon fill="midnightblue" stroke="midnightblue" points="22.52,-30.25 20.93,-19.78 15.64,-28.95 22.52,-30.25"/>
</g>
<!-- Node5 -->
<g id="node5" class="node">
<title>Node5</title>
<g id="a_node5"><a xlink:title=" ">
<polygon fill="none" stroke="#bfbfbf" points="148.5,-0.5 148.5,-19.5 191.5,-19.5 191.5,-0.5 148.5,-0.5"/>
<text text-anchor="middle" x="170" y="-7.5" font-family="Helvetica,sans-Serif" font-size="10.00">cstdio</text>
</a>
</g>
</g>
<!-- Node1&#45;&gt;Node5 -->
<g id="edge11" class="edge">
<title>Node1&#45;&gt;Node5</title>
<path fill="none" stroke="midnightblue" d="M138.92,-168.35C145.43,-146.12 155.77,-108.76 162,-76 164.92,-60.62 167.02,-42.99 168.33,-29.97"/>
<polygon fill="midnightblue" stroke="midnightblue" points="171.82,-30.17 169.28,-19.89 164.85,-29.52 171.82,-30.17"/>
</g>
<!-- Node6 -->
<g id="node6" class="node">
<title>Node6</title>
<g id="a_node6"><a xlink:title=" ">
<polygon fill="none" stroke="#bfbfbf" points="64.5,-0.5 64.5,-19.5 109.5,-19.5 109.5,-0.5 64.5,-0.5"/>
<text text-anchor="middle" x="87" y="-7.5" font-family="Helvetica,sans-Serif" font-size="10.00">cstdlib</text>
</a>
</g>
</g>
<!-- Node1&#45;&gt;Node6 -->
<g id="edge12" class="edge">
<title>Node1&#45;&gt;Node6</title>
<path fill="none" stroke="midnightblue" d="M80.35,-168.45C64.53,-159.81 48.99,-147.92 40,-132 20.05,-96.7 51.35,-51.26 71.72,-27.36"/>
<polygon fill="midnightblue" stroke="midnightblue" points="74.6,-29.39 78.62,-19.59 69.36,-24.75 74.6,-29.39"/>
</g>
<!-- Node7 -->
<g id="node7" class="node">
<title>Node7</title>
<g id="a_node7"><a xlink:title=" ">
<polygon fill="none" stroke="#bfbfbf" points="209.5,-112.5 209.5,-131.5 258.5,-131.5 258.5,-112.5 209.5,-112.5"/>
<text text-anchor="middle" x="234" y="-119.5" font-family="Helvetica,sans-Serif" font-size="10.00">cassert</text>
</a>
</g>
</g>
<!-- Node1&#45;&gt;Node7 -->
<g id="edge9" class="edge">
<title>Node1&#45;&gt;Node7</title>
<path fill="none" stroke="midnightblue" d="M163.3,-168.5C178.94,-158.44 197.66,-146.38 211.91,-137.21"/>
<polygon fill="midnightblue" stroke="midnightblue" points="214.04,-140.01 220.56,-131.65 210.25,-134.12 214.04,-140.01"/>
</g>
<!-- Node8 -->
<g id="node8" class="node">
<title>Node8</title>
<g id="a_node8"><a xlink:title=" ">
<polygon fill="none" stroke="#bfbfbf" points="277,-112.5 277,-131.5 323,-131.5 323,-112.5 277,-112.5"/>
<text text-anchor="middle" x="300" y="-119.5" font-family="Helvetica,sans-Serif" font-size="10.00">cstring</text>
</a>
</g>
</g>
<!-- Node1&#45;&gt;Node8 -->
<g id="edge13" class="edge">
<title>Node1&#45;&gt;Node8</title>
<path fill="none" stroke="midnightblue" d="M183.11,-168.5C210.8,-157.72 244.37,-144.65 268.41,-135.29"/>
<polygon fill="midnightblue" stroke="midnightblue" points="269.72,-138.54 277.77,-131.65 267.18,-132.02 269.72,-138.54"/>
</g>
<!-- Node2&#45;&gt;Node3 -->
<g id="edge2" class="edge">
<title>Node2&#45;&gt;Node3</title>
<path fill="none" stroke="midnightblue" d="M85.59,-112.08C93.16,-104.22 104.38,-92.57 113.51,-83.08"/>
<polygon fill="midnightblue" stroke="midnightblue" points="116.16,-85.38 120.57,-75.75 111.12,-80.53 116.16,-85.38"/>
</g>
<!-- Node2&#45;&gt;Node4 -->
<g id="edge6" class="edge">
<title>Node2&#45;&gt;Node4</title>
<path fill="none" stroke="midnightblue" d="M72.76,-112.37C63.93,-94.38 43.4,-52.55 31.65,-28.63"/>
<polygon fill="midnightblue" stroke="midnightblue" points="34.77,-27.03 27.22,-19.59 28.48,-30.11 34.77,-27.03"/>
</g>
<!-- Node2&#45;&gt;Node6 -->
<g id="edge7" class="edge">
<title>Node2&#45;&gt;Node6</title>
<path fill="none" stroke="midnightblue" d="M77.78,-112.37C79.4,-94.62 83.12,-53.67 85.31,-29.6"/>
<polygon fill="midnightblue" stroke="midnightblue" points="88.8,-29.87 86.22,-19.59 81.83,-29.23 88.8,-29.87"/>
</g>
<!-- Node3&#45;&gt;Node4 -->
<g id="edge3" class="edge">
<title>Node3&#45;&gt;Node4</title>
<path fill="none" stroke="midnightblue" d="M111.97,-56.32C94.97,-47.66 68.62,-34.24 49.01,-24.25"/>
<polygon fill="midnightblue" stroke="midnightblue" points="50.49,-21.08 39.99,-19.65 47.31,-27.31 50.49,-21.08"/>
</g>
<!-- Node3&#45;&gt;Node5 -->
<g id="edge4" class="edge">
<title>Node3&#45;&gt;Node5</title>
<path fill="none" stroke="midnightblue" d="M135.77,-56.08C141.56,-48.46 150.06,-37.26 157.14,-27.94"/>
<polygon fill="midnightblue" stroke="midnightblue" points="160.1,-29.83 163.36,-19.75 154.52,-25.6 160.1,-29.83"/>
</g>
<!-- Node3&#45;&gt;Node6 -->
<g id="edge5" class="edge">
<title>Node3&#45;&gt;Node6</title>
<path fill="none" stroke="midnightblue" d="M122.06,-56.08C116.07,-48.38 107.25,-37.03 99.95,-27.65"/>
<polygon fill="midnightblue" stroke="midnightblue" points="102.71,-25.5 93.81,-19.75 97.18,-29.79 102.71,-25.5"/>
</g>
</g>
</svg>
