<?xml version="1.0" encoding="UTF-8" standalone="no"?>
<!DOCTYPE svg PUBLIC "-//W3C//DTD SVG 1.1//EN"
 "http://www.w3.org/Graphics/SVG/1.1/DTD/svg11.dtd">
<!-- Generated by graphviz version 8.0.5 (20230430.1635)
 -->
<!-- Title: /Users/ugovaretto/projects/s3client/repo/lib/hash/sha256.h Pages: 1 -->
<svg width="290pt" height="128pt"
 viewBox="0.00 0.00 289.50 127.50" xmlns="http://www.w3.org/2000/svg" xmlns:xlink="http://www.w3.org/1999/xlink">
<g id="graph0" class="graph" transform="scale(1 1) rotate(0) translate(4 123.5)">
<title>/Users/ugovaretto/projects/s3client/repo/lib/hash/sha256.h</title>
<!-- Node1 -->
<g id="node1" class="node">
<title>Node1</title>
<g id="a_node1"><a xlink:title="declaration of SHA256 hash functions.">
<polygon fill="#999999" stroke="#666666" points="206.5,-119.5 75,-119.5 75,-77.75 206.5,-77.75 206.5,-119.5"/>
<text text-anchor="start" x="83" y="-106" font-family="Helvetica,sans-Serif" font-size="10.00">/Users/ugovaretto/projects</text>
<text text-anchor="start" x="83" y="-94.75" font-family="Helvetica,sans-Serif" font-size="10.00">/s3client/repo/lib/hash</text>
<text text-anchor="middle" x="140.75" y="-83.5" font-family="Helvetica,sans-Serif" font-size="10.00">/sha256.h</text>
</a>
</g>
</g>
<!-- Node2 -->
<g id="node2" class="node">
<title>Node2</title>
<g id="a_node2"><a xlink:href="hmac256_8cpp.html" target="_top" xlink:title="implementation of HMAC hashing algorithm.">
<polygon fill="white" stroke="#666666" points="131.5,-41.75 0,-41.75 0,0 131.5,0 131.5,-41.75"/>
<text text-anchor="start" x="8" y="-28.25" font-family="Helvetica,sans-Serif" font-size="10.00">/Users/ugovaretto/projects</text>
<text text-anchor="start" x="8" y="-17" font-family="Helvetica,sans-Serif" font-size="10.00">/s3client/repo/lib/hash</text>
<text text-anchor="middle" x="65.75" y="-5.75" font-family="Helvetica,sans-Serif" font-size="10.00">/hmac256.cpp</text>
</a>
</g>
</g>
<!-- Node1&#45;&gt;Node2 -->
<g id="edge1" class="edge">
<title>Node1&#45;&gt;Node2</title>
<path fill="none" stroke="#63b8ff" d="M113.02,-69.61C104.03,-60.53 94.23,-50.64 85.9,-42.23"/>
<polygon fill="#63b8ff" stroke="#63b8ff" points="110.13,-71.68 119.65,-76.33 115.1,-66.76 110.13,-71.68"/>
</g>
<!-- Node3 -->
<g id="node3" class="node">
<title>Node3</title>
<g id="a_node3"><a xlink:href="sha256_8cpp.html" target="_top" xlink:title="Implementation of SHA256 algorithm.">
<polygon fill="white" stroke="#666666" points="281.5,-41.75 150,-41.75 150,0 281.5,0 281.5,-41.75"/>
<text text-anchor="start" x="158" y="-28.25" font-family="Helvetica,sans-Serif" font-size="10.00">/Users/ugovaretto/projects</text>
<text text-anchor="start" x="158" y="-17" font-family="Helvetica,sans-Serif" font-size="10.00">/s3client/repo/lib/hash</text>
<text text-anchor="middle" x="215.75" y="-5.75" font-family="Helvetica,sans-Serif" font-size="10.00">/sha256.cpp</text>
</a>
</g>
</g>
<!-- Node1&#45;&gt;Node3 -->
<g id="edge2" class="edge">
<title>Node1&#45;&gt;Node3</title>
<path fill="none" stroke="#63b8ff" d="M168.48,-69.61C177.47,-60.53 187.27,-50.64 195.6,-42.23"/>
<polygon fill="#63b8ff" stroke="#63b8ff" points="166.4,-66.76 161.85,-76.33 171.37,-71.68 166.4,-66.76"/>
</g>
</g>
</svg>
