<?xml version="1.0" encoding="UTF-8" standalone="no"?>
<!DOCTYPE svg PUBLIC "-//W3C//DTD SVG 1.1//EN"
 "http://www.w3.org/Graphics/SVG/1.1/DTD/svg11.dtd">
<!-- Generated by graphviz version 8.0.5 (20230430.1635)
 -->
<!-- Title: /Users/ugovaretto/projects/s3client/repo/lib/include/url_utility.h Pages: 1 -->
<!--zoomable 361 -->
<svg id="main" version="1.1" xmlns="http://www.w3.org/2000/svg" xmlns:xlink="http://www.w3.org/1999/xlink" xml:space="preserve" onload="init(evt)">
<style type="text/css"><![CDATA[
.edge:hover path { stroke: red; }
.edge:hover polygon { stroke: red; fill: red; }
]]></style>
<script type="text/javascript"><![CDATA[
var edges = document.getElementsByTagName('g');
if (edges && edges.length) {
  for (var i=0;i<edges.length;i++) {
    if (edges[i].id.substr(0,4)=='edge') {
      edges[i].setAttribute('class','edge');
    }
  }
}
]]></script>
        <defs>
                <circle id="rim" cx="0" cy="0" r="7"/>
                <circle id="rim2" cx="0" cy="0" r="3.5"/>
                <g id="zoomPlus">
                        <use xlink:href="#rim" fill="#404040">
                                <set attributeName="fill" to="#808080" begin="zoomplus.mouseover" end="zoomplus.mouseout"/>
                        </use>
                        <path d="M-4,0h8M0,-4v8" fill="none" stroke="white" stroke-width="1.5" pointer-events="none"/>
                </g>
                <g id="zoomMin">
                        <use xlink:href="#rim" fill="#404040">
                                <set attributeName="fill" to="#808080" begin="zoomminus.mouseover" end="zoomminus.mouseout"/>
                        </use>
                        <path d="M-4,0h8" fill="none" stroke="white" stroke-width="1.5" pointer-events="none"/>
                </g>
                <g id="dirArrow">
                        <path fill="none" stroke="white" stroke-width="1.5" d="M0,-3.0v7 M-2.5,-0.5L0,-3.0L2.5,-0.5"/>
                </g>
               <g id="resetDef">
                       <use xlink:href="#rim2" fill="#404040">
                               <set attributeName="fill" to="#808080" begin="reset.mouseover" end="reset.mouseout"/>
                       </use>
               </g>
        </defs>

<script type="text/javascript">
var viewWidth = 767;
var viewHeight = 361;
var sectionId = 'dynsection-1';
</script>
<script xlink:href="svgpan.js"/>
<svg id="graph" class="graph">
<g id="viewport">
<title>/Users/ugovaretto/projects/s3client/repo/lib/include/url_utility.h</title>
<!-- Node1 -->
<g id="node1" class="node">
<title>Node1</title>
<g id="a_node1"><a xlink:title="Internal utility functions to process and parse text and URLs and create S3 signature keys.">
<polygon fill="#999999" stroke="#666666" points="398.88,-352.75 267.38,-352.75 267.38,-311 398.88,-311 398.88,-352.75"/>
<text text-anchor="start" x="275.38" y="-339.25" font-family="Helvetica,sans-Serif" font-size="10.00">/Users/ugovaretto/projects</text>
<text text-anchor="start" x="275.38" y="-328" font-family="Helvetica,sans-Serif" font-size="10.00">/s3client/repo/lib/include</text>
<text text-anchor="middle" x="333.12" y="-316.75" font-family="Helvetica,sans-Serif" font-size="10.00">/url_utility.h</text>
</a>
</g>
</g>
<!-- Node2 -->
<g id="node2" class="node">
<title>Node2</title>
<g id="a_node2"><a xlink:href="parallel__upload_8cpp.html" target="_top" xlink:title="Parallel upload to S3 service.">
<polygon fill="white" stroke="#666666" points="132.25,-119.5 0,-119.5 0,-77.75 132.25,-77.75 132.25,-119.5"/>
<text text-anchor="start" x="8" y="-106" font-family="Helvetica,sans-Serif" font-size="10.00">/Users/ugovaretto/projects</text>
<text text-anchor="start" x="8" y="-94.75" font-family="Helvetica,sans-Serif" font-size="10.00">/s3client/repo/apps/parallel</text>
<text text-anchor="middle" x="66.12" y="-83.5" font-family="Helvetica,sans-Serif" font-size="10.00">_upload.cpp</text>
</a>
</g>
</g>
<!-- Node1&#45;&gt;Node2 -->
<g id="edge1" class="edge">
<title>Node1&#45;&gt;Node2</title>
<path fill="none" stroke="#63b8ff" d="M301.69,-303.65C247.46,-256.68 137.54,-161.48 89.49,-119.86"/>
<polygon fill="#63b8ff" stroke="#63b8ff" points="299.05,-306.86 308.9,-310.76 303.63,-301.57 299.05,-306.86"/>
</g>
<!-- Node3 -->
<g id="node3" class="node">
<title>Node3</title>
<g id="a_node3"><a xlink:href="apps_2s3-client_8cpp.html" target="_top" xlink:title="Send S3v4&#45;signed requests to S3 andpoint and print raw responses.">
<polygon fill="white" stroke="#666666" points="307.62,-113.88 150.62,-113.88 150.62,-83.38 307.62,-83.38 307.62,-113.88"/>
<text text-anchor="start" x="158.62" y="-100.38" font-family="Helvetica,sans-Serif" font-size="10.00">/Users/ugovaretto/projects</text>
<text text-anchor="middle" x="229.12" y="-89.12" font-family="Helvetica,sans-Serif" font-size="10.00">/s3client/repo/apps/s3&#45;client.cpp</text>
</a>
</g>
</g>
<!-- Node1&#45;&gt;Node3 -->
<g id="edge2" class="edge">
<title>Node1&#45;&gt;Node3</title>
<path fill="none" stroke="#63b8ff" d="M319.61,-300.83C297.04,-250.64 252.49,-151.58 235.72,-114.29"/>
<polygon fill="#63b8ff" stroke="#63b8ff" points="316.78,-302.07 324.08,-309.76 323.17,-299.2 316.78,-302.07"/>
</g>
<!-- Node4 -->
<g id="node4" class="node">
<title>Node4</title>
<g id="a_node4"><a xlink:href="aws__sign_8h.html" target="_top" xlink:title="Public interface to signing URLs and HTTP headers with the S3v4 protocol standard.">
<polygon fill="white" stroke="#666666" points="452.88,-275 321.38,-275 321.38,-233.25 452.88,-233.25 452.88,-275"/>
<text text-anchor="start" x="329.38" y="-261.5" font-family="Helvetica,sans-Serif" font-size="10.00">/Users/ugovaretto/projects</text>
<text text-anchor="start" x="329.38" y="-250.25" font-family="Helvetica,sans-Serif" font-size="10.00">/s3client/repo/lib/include</text>
<text text-anchor="middle" x="387.12" y="-239" font-family="Helvetica,sans-Serif" font-size="10.00">/aws_sign.h</text>
</a>
</g>
</g>
<!-- Node1&#45;&gt;Node4 -->
<g id="edge3" class="edge">
<title>Node1&#45;&gt;Node4</title>
<path fill="none" stroke="#63b8ff" d="M353.88,-301.76C360.13,-292.99 366.86,-283.55 372.61,-275.48"/>
<polygon fill="#63b8ff" stroke="#63b8ff" points="350.55,-299.4 347.6,-309.58 356.25,-303.46 350.55,-299.4"/>
</g>
<!-- Node10 -->
<g id="node10" class="node">
<title>Node10</title>
<g id="a_node10"><a xlink:href="webclient_8h.html" target="_top" xlink:title="declaration of WebClient class wrapping libcurl to send web requests.">
<polygon fill="white" stroke="#666666" points="602.88,-275 471.38,-275 471.38,-233.25 602.88,-233.25 602.88,-275"/>
<text text-anchor="start" x="479.38" y="-261.5" font-family="Helvetica,sans-Serif" font-size="10.00">/Users/ugovaretto/projects</text>
<text text-anchor="start" x="479.38" y="-250.25" font-family="Helvetica,sans-Serif" font-size="10.00">/s3client/repo/lib/include</text>
<text text-anchor="middle" x="537.12" y="-239" font-family="Helvetica,sans-Serif" font-size="10.00">/webclient.h</text>
</a>
</g>
</g>
<!-- Node1&#45;&gt;Node10 -->
<g id="edge12" class="edge">
<title>Node1&#45;&gt;Node10</title>
<path fill="none" stroke="#63b8ff" d="M397.98,-306.79C425.12,-296.71 456.33,-285.13 482.31,-275.48"/>
<polygon fill="#63b8ff" stroke="#63b8ff" points="396.95,-303.81 388.79,-310.58 399.39,-310.38 396.95,-303.81"/>
</g>
<!-- Node5 -->
<g id="node5" class="node">
<title>Node5</title>
<g id="a_node5"><a xlink:href="s3-api_8h.html" target="_top" xlink:title="declarations of S3Client class;">
<polygon fill="white" stroke="#666666" points="758.88,-119.5 627.38,-119.5 627.38,-77.75 758.88,-77.75 758.88,-119.5"/>
<text text-anchor="start" x="635.38" y="-106" font-family="Helvetica,sans-Serif" font-size="10.00">/Users/ugovaretto/projects</text>
<text text-anchor="start" x="635.38" y="-94.75" font-family="Helvetica,sans-Serif" font-size="10.00">/s3client/repo/lib/include</text>
<text text-anchor="middle" x="693.12" y="-83.5" font-family="Helvetica,sans-Serif" font-size="10.00">/s3&#45;api.h</text>
</a>
</g>
</g>
<!-- Node4&#45;&gt;Node5 -->
<g id="edge4" class="edge">
<title>Node4&#45;&gt;Node5</title>
<path fill="none" stroke="#63b8ff" d="M424.42,-226.82C460.28,-201.81 512.19,-166.42 534.12,-155.5 563.59,-140.83 597.86,-128.26 627.03,-118.78"/>
<polygon fill="#63b8ff" stroke="#63b8ff" points="422.86,-224.34 416.67,-232.93 426.87,-230.07 422.86,-224.34"/>
</g>
<!-- Node7 -->
<g id="node7" class="node">
<title>Node7</title>
<g id="a_node7"><a xlink:href="s3-client_8h.html" target="_top" xlink:title="declaration of functions and data types for sending S3 requests, signing URLs and downloading and upl...">
<polygon fill="white" stroke="#666666" points="457.88,-197.25 326.38,-197.25 326.38,-155.5 457.88,-155.5 457.88,-197.25"/>
<text text-anchor="start" x="334.38" y="-183.75" font-family="Helvetica,sans-Serif" font-size="10.00">/Users/ugovaretto/projects</text>
<text text-anchor="start" x="334.38" y="-172.5" font-family="Helvetica,sans-Serif" font-size="10.00">/s3client/repo/lib/include</text>
<text text-anchor="middle" x="392.12" y="-161.25" font-family="Helvetica,sans-Serif" font-size="10.00">/s3&#45;client.h</text>
</a>
</g>
</g>
<!-- Node4&#45;&gt;Node7 -->
<g id="edge6" class="edge">
<title>Node4&#45;&gt;Node7</title>
<path fill="none" stroke="#63b8ff" d="M389.18,-222.06C389.72,-213.86 390.29,-205.21 390.78,-197.73"/>
<polygon fill="#63b8ff" stroke="#63b8ff" points="385.63,-221.62 388.46,-231.83 392.62,-222.08 385.63,-221.62"/>
</g>
<!-- Node6 -->
<g id="node6" class="node">
<title>Node6</title>
<g id="a_node6"><a xlink:href="bucket-test_8cpp.html" target="_top" xlink:title="bucket tests">
<polygon fill="white" stroke="#666666" points="758.88,-41.75 627.38,-41.75 627.38,0 758.88,0 758.88,-41.75"/>
<text text-anchor="start" x="635.38" y="-28.25" font-family="Helvetica,sans-Serif" font-size="10.00">/Users/ugovaretto/projects</text>
<text text-anchor="start" x="635.38" y="-17" font-family="Helvetica,sans-Serif" font-size="10.00">/s3client/repo/test/api</text>
<text text-anchor="middle" x="693.12" y="-5.75" font-family="Helvetica,sans-Serif" font-size="10.00">/bucket&#45;test.cpp</text>
</a>
</g>
</g>
<!-- Node5&#45;&gt;Node6 -->
<g id="edge5" class="edge">
<title>Node5&#45;&gt;Node6</title>
<path fill="none" stroke="#63b8ff" d="M693.12,-66.56C693.12,-58.36 693.12,-49.71 693.12,-42.23"/>
<polygon fill="#63b8ff" stroke="#63b8ff" points="689.63,-66.33 693.12,-76.33 696.63,-66.33 689.63,-66.33"/>
</g>
<!-- Node7&#45;&gt;Node2 -->
<g id="edge8" class="edge">
<title>Node7&#45;&gt;Node2</title>
<path fill="none" stroke="#63b8ff" d="M315.22,-159.09C265.45,-148.34 199.31,-133.68 141.12,-119.5 138.38,-118.83 135.57,-118.14 132.75,-117.43"/>
<polygon fill="#63b8ff" stroke="#63b8ff" points="314.39,-162.71 324.9,-161.39 315.86,-155.86 314.39,-162.71"/>
</g>
<!-- Node7&#45;&gt;Node3 -->
<g id="edge10" class="edge">
<title>Node7&#45;&gt;Node3</title>
<path fill="none" stroke="#63b8ff" d="M338.79,-150.59C313,-138.6 282.9,-124.62 260.78,-114.33"/>
<polygon fill="#63b8ff" stroke="#63b8ff" points="336.9,-154.03 347.44,-155.08 339.85,-147.69 336.9,-154.03"/>
</g>
<!-- Node7&#45;&gt;Node5 -->
<g id="edge11" class="edge">
<title>Node7&#45;&gt;Node5</title>
<path fill="none" stroke="#63b8ff" d="M468.54,-156.82C512.37,-146.09 568.39,-132.24 618.12,-119.5 621,-118.76 623.93,-118.01 626.89,-117.24"/>
<polygon fill="#63b8ff" stroke="#63b8ff" points="467.84,-153.63 458.96,-159.4 469.51,-160.43 467.84,-153.63"/>
</g>
<!-- Node8 -->
<g id="node8" class="node">
<title>Node8</title>
<g id="a_node8"><a xlink:href="parallel__download_8cpp.html" target="_top" xlink:title="Parallel object download download from S3 service.">
<polygon fill="white" stroke="#666666" points="609.25,-119.5 477,-119.5 477,-77.75 609.25,-77.75 609.25,-119.5"/>
<text text-anchor="start" x="485" y="-106" font-family="Helvetica,sans-Serif" font-size="10.00">/Users/ugovaretto/projects</text>
<text text-anchor="start" x="485" y="-94.75" font-family="Helvetica,sans-Serif" font-size="10.00">/s3client/repo/apps/parallel</text>
<text text-anchor="middle" x="543.12" y="-83.5" font-family="Helvetica,sans-Serif" font-size="10.00">_download.cpp</text>
</a>
</g>
</g>
<!-- Node7&#45;&gt;Node8 -->
<g id="edge7" class="edge">
<title>Node7&#45;&gt;Node8</title>
<path fill="none" stroke="#63b8ff" d="M442.26,-150.22C461.84,-140.4 484,-129.29 502.55,-119.98"/>
<polygon fill="#63b8ff" stroke="#63b8ff" points="440.96,-147.46 433.59,-155.08 444.1,-153.72 440.96,-147.46"/>
</g>
<!-- Node9 -->
<g id="node9" class="node">
<title>Node9</title>
<g id="a_node9"><a xlink:href="presign__url_8cpp.html" target="_top" xlink:title="Presign URL.">
<polygon fill="white" stroke="#666666" points="458.62,-119.5 325.62,-119.5 325.62,-77.75 458.62,-77.75 458.62,-119.5"/>
<text text-anchor="start" x="333.62" y="-106" font-family="Helvetica,sans-Serif" font-size="10.00">/Users/ugovaretto/projects</text>
<text text-anchor="start" x="333.62" y="-94.75" font-family="Helvetica,sans-Serif" font-size="10.00">/s3client/repo/apps/presign</text>
<text text-anchor="middle" x="392.12" y="-83.5" font-family="Helvetica,sans-Serif" font-size="10.00">_url.cpp</text>
</a>
</g>
</g>
<!-- Node7&#45;&gt;Node9 -->
<g id="edge9" class="edge">
<title>Node7&#45;&gt;Node9</title>
<path fill="none" stroke="#63b8ff" d="M392.12,-144.31C392.12,-136.11 392.12,-127.46 392.12,-119.98"/>
<polygon fill="#63b8ff" stroke="#63b8ff" points="388.63,-144.08 392.12,-154.08 395.63,-144.08 388.63,-144.08"/>
</g>
<!-- Node10&#45;&gt;Node5 -->
<g id="edge13" class="edge">
<title>Node10&#45;&gt;Node5</title>
<path fill="none" stroke="#63b8ff" d="M535.86,-221.93C536.63,-200.99 540.96,-173.96 556.12,-155.5 565.99,-143.49 597.14,-130.35 627.24,-119.84"/>
<polygon fill="#63b8ff" stroke="#63b8ff" points="532.36,-221.8 535.76,-231.84 539.36,-221.87 532.36,-221.8"/>
</g>
<!-- Node10&#45;&gt;Node7 -->
<g id="edge14" class="edge">
<title>Node10&#45;&gt;Node7</title>
<path fill="none" stroke="#63b8ff" d="M488.72,-227.84C469.98,-218.05 448.82,-206.99 431.09,-197.73"/>
<polygon fill="#63b8ff" stroke="#63b8ff" points="486.78,-231.3 497.27,-232.83 490.02,-225.09 486.78,-231.3"/>
</g>
<!-- Node11 -->
<g id="node11" class="node">
<title>Node11</title>
<g id="a_node11"><a xlink:href="webclient_8cpp.html" target="_top" xlink:title="implementation of WebClient class, wrapper around libcurl">
<polygon fill="white" stroke="#666666" points="731.5,-191.62 564.75,-191.62 564.75,-161.12 731.5,-161.12 731.5,-191.62"/>
<text text-anchor="start" x="572.75" y="-178.12" font-family="Helvetica,sans-Serif" font-size="10.00">/Users/ugovaretto/projects</text>
<text text-anchor="middle" x="648.12" y="-166.88" font-family="Helvetica,sans-Serif" font-size="10.00">/s3client/repo/lib/src/webclient.cpp</text>
</a>
</g>
</g>
<!-- Node10&#45;&gt;Node11 -->
<g id="edge15" class="edge">
<title>Node10&#45;&gt;Node11</title>
<path fill="none" stroke="#63b8ff" d="M575.58,-226.88C592.72,-215.19 612.26,-201.85 626.75,-191.96"/>
<polygon fill="#63b8ff" stroke="#63b8ff" points="574.16,-224.3 567.87,-232.83 578.1,-230.08 574.16,-224.3"/>
</g>
</g>
</svg>
        <g id="navigator" transform="translate(0 0)" fill="#404254">
                <rect fill="#f2f5e9" fill-opacity="0.5" stroke="#606060" stroke-width=".5" x="0" y="0" width="60" height="60"/>
                <use id="zoomplus" xlink:href="#zoomPlus" x="17" y="9" onmousedown="handleZoom(evt,'in')"/>
                <use id="zoomminus" xlink:href="#zoomMin" x="42" y="9" onmousedown="handleZoom(evt,'out')"/>
                <use id="reset" xlink:href="#resetDef" x="30" y="36" onmousedown="handleReset()"/>
                <g id="arrowUp" xlink:href="#dirArrow" transform="translate(30 24)" onmousedown="handlePan(0,-1)">
                  <use xlink:href="#rim" fill="#404040">
                        <set attributeName="fill" to="#808080" begin="arrowUp.mouseover" end="arrowUp.mouseout"/>
                  </use>
                  <path fill="none" stroke="white" stroke-width="1.5" d="M0,-3.0v7 M-2.5,-0.5L0,-3.0L2.5,-0.5"/>
                </g>
                <g id="arrowRight" xlink:href="#dirArrow" transform="rotate(90) translate(36 -43)" onmousedown="handlePan(1,0)">
                  <use xlink:href="#rim" fill="#404040">
                        <set attributeName="fill" to="#808080" begin="arrowRight.mouseover" end="arrowRight.mouseout"/>
                  </use>
                  <path fill="none" stroke="white" stroke-width="1.5" d="M0,-3.0v7 M-2.5,-0.5L0,-3.0L2.5,-0.5"/>
                </g>
                <g id="arrowDown" xlink:href="#dirArrow" transform="rotate(180) translate(-30 -48)" onmousedown="handlePan(0,1)">
                  <use xlink:href="#rim" fill="#404040">
                        <set attributeName="fill" to="#808080" begin="arrowDown.mouseover" end="arrowDown.mouseout"/>
                  </use>
                  <path fill="none" stroke="white" stroke-width="1.5" d="M0,-3.0v7 M-2.5,-0.5L0,-3.0L2.5,-0.5"/>
                </g>
                <g id="arrowLeft" xlink:href="#dirArrow" transform="rotate(270) translate(-36 17)" onmousedown="handlePan(-1,0)">
                  <use xlink:href="#rim" fill="#404040">
                        <set attributeName="fill" to="#808080" begin="arrowLeft.mouseover" end="arrowLeft.mouseout"/>
                  </use>
                  <path fill="none" stroke="white" stroke-width="1.5" d="M0,-3.0v7 M-2.5,-0.5L0,-3.0L2.5,-0.5"/>
                </g>
        </g>
        <svg viewBox="0 0 15 15" width="100%" height="30px" preserveAspectRatio="xMaxYMin meet">
         <g id="arrow_out" transform="scale(0.3 0.3)">
          <a xlink:href="url__utility_8h__dep__incl_org.svg" target="_base">
           <rect id="button" ry="5" rx="5" y="6" x="6" height="38" width="38"
                fill="#f2f5e9" fill-opacity="0.5" stroke="#606060" stroke-width="1.0"/>
           <path id="arrow"
             d="M 11.500037,31.436501 C 11.940474,20.09759 22.043105,11.32322 32.158766,21.979434 L 37.068811,17.246167 C 37.068811,17.246167 37.088388,32 37.088388,32 L 22.160133,31.978069 C 22.160133,31.978069 26.997745,27.140456 26.997745,27.140456 C 18.528582,18.264221 13.291696,25.230495 11.500037,31.436501 z"
             style="fill:#404040;"/>
          </a>
         </g>
        </svg>
</svg>
