<?xml version="1.0" encoding="UTF-8" standalone="no"?>
<!DOCTYPE svg PUBLIC "-//W3C//DTD SVG 1.1//EN"
 "http://www.w3.org/Graphics/SVG/1.1/DTD/svg11.dtd">
<!-- Generated by graphviz version 8.0.5 (20230430.1635)
 -->
<!-- Title: /Users/ugovaretto/projects/s3client/repo/lib/include/url_utility.h Pages: 1 -->
<svg width="479pt" height="160pt"
 viewBox="0.00 0.00 479.38 160.25" xmlns="http://www.w3.org/2000/svg" xmlns:xlink="http://www.w3.org/1999/xlink">
<g id="graph0" class="graph" transform="scale(1 1) rotate(0) translate(4 156.25)">
<title>/Users/ugovaretto/projects/s3client/repo/lib/include/url_utility.h</title>
<!-- Node1 -->
<g id="node1" class="node">
<title>Node1</title>
<g id="a_node1"><a xlink:title="Internal utility functions to process and parse text and URLs and create S3 signature keys.">
<polygon fill="#999999" stroke="#666666" points="335.62,-152.25 204.12,-152.25 204.12,-110.5 335.62,-110.5 335.62,-152.25"/>
<text text-anchor="start" x="212.12" y="-138.75" font-family="Helvetica,sans-Serif" font-size="10.00">/Users/ugovaretto/projects</text>
<text text-anchor="start" x="212.12" y="-127.5" font-family="Helvetica,sans-Serif" font-size="10.00">/s3client/repo/lib/include</text>
<text text-anchor="middle" x="269.88" y="-116.25" font-family="Helvetica,sans-Serif" font-size="10.00">/url_utility.h</text>
</a>
</g>
</g>
<!-- Node2 -->
<g id="node2" class="node">
<title>Node2</title>
<g id="a_node2"><a xlink:title=" ">
<polygon fill="#e0e0e0" stroke="#999999" points="55.75,-19.25 0,-19.25 0,0 55.75,0 55.75,-19.25"/>
<text text-anchor="middle" x="27.88" y="-5.75" font-family="Helvetica,sans-Serif" font-size="10.00">algorithm</text>
</a>
</g>
</g>
<!-- Node1&#45;&gt;Node2 -->
<g id="edge1" class="edge">
<title>Node1&#45;&gt;Node2</title>
<path fill="none" stroke="#63b8ff" d="M210.72,-110.02C184.79,-100.36 154.31,-87.98 127.88,-74.5 99.49,-60.02 68.89,-39.72 49.13,-25.92"/>
<polygon fill="#63b8ff" stroke="#63b8ff" points="51.54,-22.63 41.35,-19.72 47.5,-28.34 51.54,-22.63"/>
</g>
<!-- Node3 -->
<g id="node3" class="node">
<title>Node3</title>
<g id="a_node3"><a xlink:title=" ">
<polygon fill="#e0e0e0" stroke="#999999" points="410.62,-74.5 357.12,-74.5 357.12,-55.25 410.62,-55.25 410.62,-74.5"/>
<text text-anchor="middle" x="383.88" y="-61" font-family="Helvetica,sans-Serif" font-size="10.00">iostream</text>
</a>
</g>
</g>
<!-- Node1&#45;&gt;Node3 -->
<g id="edge2" class="edge">
<title>Node1&#45;&gt;Node3</title>
<path fill="none" stroke="#63b8ff" d="M305.63,-110.14C322.77,-100.45 342.9,-89.06 358.45,-80.26"/>
<polygon fill="#63b8ff" stroke="#63b8ff" points="359.95,-82.86 366.93,-74.89 356.51,-76.77 359.95,-82.86"/>
</g>
<!-- Node4 -->
<g id="node4" class="node">
<title>Node4</title>
<g id="a_node4"><a xlink:title=" ">
<polygon fill="#e0e0e0" stroke="#999999" points="344.25,-19.25 309.5,-19.25 309.5,0 344.25,0 344.25,-19.25"/>
<text text-anchor="middle" x="326.88" y="-5.75" font-family="Helvetica,sans-Serif" font-size="10.00">map</text>
</a>
</g>
</g>
<!-- Node1&#45;&gt;Node4 -->
<g id="edge3" class="edge">
<title>Node1&#45;&gt;Node4</title>
<path fill="none" stroke="#63b8ff" d="M287.18,-110.01C295.05,-99.88 303.92,-87.12 309.88,-74.5 316.55,-60.36 320.93,-43.17 323.58,-30.19"/>
<polygon fill="#63b8ff" stroke="#63b8ff" points="327.15,-31.13 325.53,-20.66 320.26,-29.85 327.15,-31.13"/>
</g>
<!-- Node5 -->
<g id="node5" class="node">
<title>Node5</title>
<g id="a_node5"><a xlink:title=" ">
<polygon fill="#e0e0e0" stroke="#999999" points="289.88,-19.25 249.88,-19.25 249.88,0 289.88,0 289.88,-19.25"/>
<text text-anchor="middle" x="269.88" y="-5.75" font-family="Helvetica,sans-Serif" font-size="10.00">string</text>
</a>
</g>
</g>
<!-- Node1&#45;&gt;Node5 -->
<g id="edge4" class="edge">
<title>Node1&#45;&gt;Node5</title>
<path fill="none" stroke="#63b8ff" d="M250.66,-110.08C242.57,-100.16 234.07,-87.56 229.88,-74.5 227.26,-66.35 226.82,-63.24 229.88,-55.25 234.06,-44.32 242.29,-34.38 250.2,-26.67"/>
<polygon fill="#63b8ff" stroke="#63b8ff" points="251.78,-30.05 256.85,-20.74 247.09,-24.86 251.78,-30.05"/>
</g>
<!-- Node6 -->
<g id="node6" class="node">
<title>Node6</title>
<g id="a_node6"><a xlink:title=" ">
<polygon fill="#e0e0e0" stroke="#999999" points="471.38,-74.5 428.38,-74.5 428.38,-55.25 471.38,-55.25 471.38,-74.5"/>
<text text-anchor="middle" x="449.88" y="-61" font-family="Helvetica,sans-Serif" font-size="10.00">vector</text>
</a>
</g>
</g>
<!-- Node1&#45;&gt;Node6 -->
<g id="edge5" class="edge">
<title>Node1&#45;&gt;Node6</title>
<path fill="none" stroke="#63b8ff" d="M326.33,-110.14C356.47,-99.35 392.45,-86.45 417.79,-77.37"/>
<polygon fill="#63b8ff" stroke="#63b8ff" points="418.72,-80.4 426.95,-73.73 416.35,-73.81 418.72,-80.4"/>
</g>
<!-- Node7 -->
<g id="node7" class="node">
<title>Node7</title>
<g id="a_node7"><a xlink:href="common_8h.html" target="_top" xlink:title="Common definitions.">
<polygon fill="white" stroke="#666666" points="300.75,-74.5 239,-74.5 239,-55.25 300.75,-55.25 300.75,-74.5"/>
<text text-anchor="middle" x="269.88" y="-61" font-family="Helvetica,sans-Serif" font-size="10.00">common.h</text>
</a>
</g>
</g>
<!-- Node1&#45;&gt;Node7 -->
<g id="edge6" class="edge">
<title>Node1&#45;&gt;Node7</title>
<path fill="none" stroke="#63b8ff" d="M269.88,-110.32C269.88,-102.55 269.88,-93.68 269.88,-85.92"/>
<polygon fill="#63b8ff" stroke="#63b8ff" points="273.38,-85.95 269.88,-75.95 266.38,-85.95 273.38,-85.95"/>
</g>
<!-- Node8 -->
<g id="node8" class="node">
<title>Node8</title>
<g id="a_node8"><a xlink:href="lib_2include_2utility_8h.html" target="_top" xlink:title="internal utility functions">
<polygon fill="white" stroke="#666666" points="182.88,-74.5 136.88,-74.5 136.88,-55.25 182.88,-55.25 182.88,-74.5"/>
<text text-anchor="middle" x="159.88" y="-61" font-family="Helvetica,sans-Serif" font-size="10.00">utility.h</text>
</a>
</g>
</g>
<!-- Node1&#45;&gt;Node8 -->
<g id="edge9" class="edge">
<title>Node1&#45;&gt;Node8</title>
<path fill="none" stroke="#63b8ff" d="M235.37,-110.14C218.83,-100.45 199.41,-89.06 184.4,-80.26"/>
<polygon fill="#63b8ff" stroke="#63b8ff" points="186.65,-76.93 176.26,-74.89 183.11,-82.97 186.65,-76.93"/>
</g>
<!-- Node7&#45;&gt;Node4 -->
<g id="edge7" class="edge">
<title>Node7&#45;&gt;Node4</title>
<path fill="none" stroke="#63b8ff" d="M279.54,-54.84C287.7,-47.22 299.58,-36.12 309.4,-26.95"/>
<polygon fill="#63b8ff" stroke="#63b8ff" points="311.43,-29.91 316.35,-20.52 306.65,-24.79 311.43,-29.91"/>
</g>
<!-- Node7&#45;&gt;Node5 -->
<g id="edge8" class="edge">
<title>Node7&#45;&gt;Node5</title>
<path fill="none" stroke="#63b8ff" d="M269.88,-55.08C269.88,-48.42 269.88,-38.99 269.88,-30.53"/>
<polygon fill="#63b8ff" stroke="#63b8ff" points="273.38,-30.61 269.88,-20.61 266.38,-30.61 273.38,-30.61"/>
</g>
<!-- Node8&#45;&gt;Node2 -->
<g id="edge10" class="edge">
<title>Node8&#45;&gt;Node2</title>
<path fill="none" stroke="#63b8ff" d="M137.48,-54.84C116.34,-46.31 84.39,-33.42 60.43,-23.76"/>
<polygon fill="#63b8ff" stroke="#63b8ff" points="61.96,-20.2 51.38,-19.7 59.34,-26.69 61.96,-20.2"/>
</g>
<!-- Node8&#45;&gt;Node5 -->
<g id="edge12" class="edge">
<title>Node8&#45;&gt;Node5</title>
<path fill="none" stroke="#63b8ff" d="M178.54,-54.84C195.76,-46.5 221.59,-34 241.4,-24.41"/>
<polygon fill="#63b8ff" stroke="#63b8ff" points="242.65,-27.21 250.12,-19.7 239.6,-20.91 242.65,-27.21"/>
</g>
<!-- Node9 -->
<g id="node9" class="node">
<title>Node9</title>
<g id="a_node9"><a xlink:title=" ">
<polygon fill="#e0e0e0" stroke="#999999" points="231.88,-19.25 173.88,-19.25 173.88,0 231.88,0 231.88,-19.25"/>
<text text-anchor="middle" x="202.88" y="-5.75" font-family="Helvetica,sans-Serif" font-size="10.00">functional</text>
</a>
</g>
</g>
<!-- Node8&#45;&gt;Node9 -->
<g id="edge11" class="edge">
<title>Node8&#45;&gt;Node9</title>
<path fill="none" stroke="#63b8ff" d="M166.98,-55.08C172.92,-47.73 181.57,-37.01 188.89,-27.94"/>
<polygon fill="#63b8ff" stroke="#63b8ff" points="192.06,-30.59 195.62,-20.61 186.61,-26.19 192.06,-30.59"/>
</g>
<!-- Node10 -->
<g id="node10" class="node">
<title>Node10</title>
<g id="a_node10"><a xlink:title=" ">
<polygon fill="#e0e0e0" stroke="#999999" points="156.25,-19.25 73.5,-19.25 73.5,0 156.25,0 156.25,-19.25"/>
<text text-anchor="middle" x="114.88" y="-5.75" font-family="Helvetica,sans-Serif" font-size="10.00">unordered_map</text>
</a>
</g>
</g>
<!-- Node8&#45;&gt;Node10 -->
<g id="edge13" class="edge">
<title>Node8&#45;&gt;Node10</title>
<path fill="none" stroke="#63b8ff" d="M152.44,-55.08C146.23,-47.73 137.17,-37.01 129.51,-27.94"/>
<polygon fill="#63b8ff" stroke="#63b8ff" points="131.6,-25.99 122.47,-20.61 126.25,-30.51 131.6,-25.99"/>
</g>
</g>
</svg>
