<?xml version="1.0" encoding="UTF-8" standalone="no"?>
<!DOCTYPE svg PUBLIC "-//W3C//DTD SVG 1.1//EN"
 "http://www.w3.org/Graphics/SVG/1.1/DTD/svg11.dtd">
<!-- Generated by graphviz version 2.43.0 (0)
 -->
<!-- Title: /home/ugovaretto/projects/uv&#45;cpp/s3client/repo/lib/include/webclient.h Pages: 1 -->
<svg width="1891pt" height="373pt"
 viewBox="0.00 0.00 1890.50 373.00" xmlns="http://www.w3.org/2000/svg" xmlns:xlink="http://www.w3.org/1999/xlink">
<g id="graph0" class="graph" transform="scale(1 1) rotate(0) translate(4 369)">
<title>/home/ugovaretto/projects/uv&#45;cpp/s3client/repo/lib/include/webclient.h</title>
<!-- Node1 -->
<g id="node1" class="node">
<title>Node1</title>
<g id="a_node1"><a xlink:title="declaration of WebClient class wrapping libcurl to send web requests.">
<polygon fill="#bfbfbf" stroke="black" points="690,-323.5 690,-364.5 820,-364.5 820,-323.5 690,-323.5"/>
<text text-anchor="start" x="698" y="-352.5" font-family="Helvetica,sans-Serif" font-size="10.00">/home/ugovaretto/projects</text>
<text text-anchor="start" x="698" y="-341.5" font-family="Helvetica,sans-Serif" font-size="10.00">/uv&#45;cpp/s3client/repo/lib</text>
<text text-anchor="middle" x="755" y="-330.5" font-family="Helvetica,sans-Serif" font-size="10.00">/include/webclient.h</text>
</a>
</g>
</g>
<!-- Node2 -->
<g id="node2" class="node">
<title>Node2</title>
<g id="a_node2"><a xlink:href="error_8cpp_source.html" target="_top" xlink:title=" ">
<polygon fill="none" stroke="black" points="504,-245.5 504,-286.5 634,-286.5 634,-245.5 504,-245.5"/>
<text text-anchor="start" x="512" y="-274.5" font-family="Helvetica,sans-Serif" font-size="10.00">/home/ugovaretto/projects</text>
<text text-anchor="start" x="512" y="-263.5" font-family="Helvetica,sans-Serif" font-size="10.00">/uv&#45;cpp/s3client/repo/lib</text>
<text text-anchor="middle" x="569" y="-252.5" font-family="Helvetica,sans-Serif" font-size="10.00">/src/api/error.cpp</text>
</a>
</g>
</g>
<!-- Node1&#45;&gt;Node2 -->
<g id="edge1" class="edge">
<title>Node1&#45;&gt;Node2</title>
<path fill="none" stroke="midnightblue" d="M697.75,-319.61C671.79,-309 641.45,-296.6 616.74,-286.51"/>
<polygon fill="midnightblue" stroke="midnightblue" points="696.52,-322.89 707.1,-323.43 699.17,-316.41 696.52,-322.89"/>
</g>
<!-- Node3 -->
<g id="node3" class="node">
<title>Node3</title>
<g id="a_node3"><a xlink:href="s3-client_8h.html" target="_top" xlink:title="declaration of functions and data types for sending S3 requests, signing URLs and downloading and upl...">
<polygon fill="none" stroke="black" points="1082,-245.5 1082,-286.5 1212,-286.5 1212,-245.5 1082,-245.5"/>
<text text-anchor="start" x="1090" y="-274.5" font-family="Helvetica,sans-Serif" font-size="10.00">/home/ugovaretto/projects</text>
<text text-anchor="start" x="1090" y="-263.5" font-family="Helvetica,sans-Serif" font-size="10.00">/uv&#45;cpp/s3client/repo/lib</text>
<text text-anchor="middle" x="1147" y="-252.5" font-family="Helvetica,sans-Serif" font-size="10.00">/include/s3&#45;client.h</text>
</a>
</g>
</g>
<!-- Node1&#45;&gt;Node3 -->
<g id="edge2" class="edge">
<title>Node1&#45;&gt;Node3</title>
<path fill="none" stroke="midnightblue" d="M830.21,-328.42C903.17,-314.27 1012.72,-293.03 1082,-279.6"/>
<polygon fill="midnightblue" stroke="midnightblue" points="829.32,-325.03 820.17,-330.36 830.65,-331.9 829.32,-325.03"/>
</g>
<!-- Node14 -->
<g id="node14" class="node">
<title>Node14</title>
<g id="a_node14"><a xlink:href="s3-api_8h.html" target="_top" xlink:title="declarations of S3Api class.">
<polygon fill="none" stroke="black" points="597,-167.5 597,-208.5 727,-208.5 727,-167.5 597,-167.5"/>
<text text-anchor="start" x="605" y="-196.5" font-family="Helvetica,sans-Serif" font-size="10.00">/home/ugovaretto/projects</text>
<text text-anchor="start" x="605" y="-185.5" font-family="Helvetica,sans-Serif" font-size="10.00">/uv&#45;cpp/s3client/repo/lib</text>
<text text-anchor="middle" x="662" y="-174.5" font-family="Helvetica,sans-Serif" font-size="10.00">/include/s3&#45;api.h</text>
</a>
</g>
</g>
<!-- Node1&#45;&gt;Node14 -->
<g id="edge38" class="edge">
<title>Node1&#45;&gt;Node14</title>
<path fill="none" stroke="midnightblue" d="M710.16,-317.29C699.1,-308.95 688.33,-298.77 681,-287 665.97,-262.88 662.4,-229.44 661.77,-208.53"/>
<polygon fill="midnightblue" stroke="midnightblue" points="708.45,-320.36 718.63,-323.3 712.5,-314.66 708.45,-320.36"/>
</g>
<!-- Node28 -->
<g id="node28" class="node">
<title>Node28</title>
<g id="a_node28"><a xlink:href="webclient_8cpp.html" target="_top" xlink:title="implementation of WebClient class, wrapper around libcurl">
<polygon fill="none" stroke="black" points="1230,-245.5 1230,-286.5 1360,-286.5 1360,-245.5 1230,-245.5"/>
<text text-anchor="start" x="1238" y="-274.5" font-family="Helvetica,sans-Serif" font-size="10.00">/home/ugovaretto/projects</text>
<text text-anchor="start" x="1238" y="-263.5" font-family="Helvetica,sans-Serif" font-size="10.00">/uv&#45;cpp/s3client/repo/lib</text>
<text text-anchor="middle" x="1295" y="-252.5" font-family="Helvetica,sans-Serif" font-size="10.00">/src/webclient.cpp</text>
</a>
</g>
</g>
<!-- Node1&#45;&gt;Node28 -->
<g id="edge37" class="edge">
<title>Node1&#45;&gt;Node28</title>
<path fill="none" stroke="midnightblue" d="M830.41,-337.31C922.99,-329.55 1084.53,-313.5 1221,-287 1223.87,-286.44 1226.8,-285.83 1229.75,-285.18"/>
<polygon fill="midnightblue" stroke="midnightblue" points="829.97,-333.83 820.29,-338.15 830.55,-340.81 829.97,-333.83"/>
</g>
<!-- Node29 -->
<g id="node29" class="node">
<title>Node29</title>
<g id="a_node29"><a xlink:href="error_8h_source.html" target="_top" xlink:title=" ">
<polygon fill="none" stroke="black" points="690,-245.5 690,-286.5 820,-286.5 820,-245.5 690,-245.5"/>
<text text-anchor="start" x="698" y="-274.5" font-family="Helvetica,sans-Serif" font-size="10.00">/home/ugovaretto/projects</text>
<text text-anchor="start" x="698" y="-263.5" font-family="Helvetica,sans-Serif" font-size="10.00">/uv&#45;cpp/s3client/repo/lib</text>
<text text-anchor="middle" x="755" y="-252.5" font-family="Helvetica,sans-Serif" font-size="10.00">/include/error.h</text>
</a>
</g>
</g>
<!-- Node1&#45;&gt;Node29 -->
<g id="edge39" class="edge">
<title>Node1&#45;&gt;Node29</title>
<path fill="none" stroke="midnightblue" d="M755,-313.3C755,-304.3 755,-294.65 755,-286.51"/>
<polygon fill="midnightblue" stroke="midnightblue" points="751.5,-313.43 755,-323.43 758.5,-313.43 751.5,-313.43"/>
</g>
<!-- Node4 -->
<g id="node4" class="node">
<title>Node4</title>
<g id="a_node4"><a xlink:href="presign-url-test_8cpp_source.html" target="_top" xlink:title=" ">
<polygon fill="none" stroke="black" points="1379,-167.5 1379,-208.5 1509,-208.5 1509,-167.5 1379,-167.5"/>
<text text-anchor="start" x="1387" y="-196.5" font-family="Helvetica,sans-Serif" font-size="10.00">/home/ugovaretto/projects</text>
<text text-anchor="start" x="1387" y="-185.5" font-family="Helvetica,sans-Serif" font-size="10.00">/uv&#45;cpp/s3client/repo/test</text>
<text text-anchor="middle" x="1444" y="-174.5" font-family="Helvetica,sans-Serif" font-size="10.00">/presign&#45;url&#45;test.cpp</text>
</a>
</g>
</g>
<!-- Node3&#45;&gt;Node4 -->
<g id="edge3" class="edge">
<title>Node3&#45;&gt;Node4</title>
<path fill="none" stroke="midnightblue" d="M1222.07,-244.76C1288.63,-227.88 1306.96,-225.13 1370,-209 1372.84,-208.27 1375.73,-207.53 1378.66,-206.76"/>
<polygon fill="midnightblue" stroke="midnightblue" points="1221.17,-241.38 1212.34,-247.24 1222.9,-248.16 1221.17,-241.38"/>
</g>
<!-- Node5 -->
<g id="node5" class="node">
<title>Node5</title>
<g id="a_node5"><a xlink:href="sign-test_8cpp_source.html" target="_top" xlink:title=" ">
<polygon fill="none" stroke="black" points="1527,-167.5 1527,-208.5 1657,-208.5 1657,-167.5 1527,-167.5"/>
<text text-anchor="start" x="1535" y="-196.5" font-family="Helvetica,sans-Serif" font-size="10.00">/home/ugovaretto/projects</text>
<text text-anchor="start" x="1535" y="-185.5" font-family="Helvetica,sans-Serif" font-size="10.00">/uv&#45;cpp/s3client/repo/test</text>
<text text-anchor="middle" x="1592" y="-174.5" font-family="Helvetica,sans-Serif" font-size="10.00">/sign&#45;test.cpp</text>
</a>
</g>
</g>
<!-- Node3&#45;&gt;Node5 -->
<g id="edge4" class="edge">
<title>Node3&#45;&gt;Node5</title>
<path fill="none" stroke="midnightblue" d="M1222.27,-244.9C1353.33,-220.29 1390.67,-233.79 1518,-209 1520.87,-208.44 1523.8,-207.83 1526.75,-207.18"/>
<polygon fill="midnightblue" stroke="midnightblue" points="1221.41,-241.5 1212.25,-246.82 1222.73,-248.37 1221.41,-241.5"/>
</g>
<!-- Node6 -->
<g id="node6" class="node">
<title>Node6</title>
<g id="a_node6"><a xlink:href="multipart__upload_8cpp_source.html" target="_top" xlink:title=" ">
<polygon fill="none" stroke="black" points="239,-89.5 239,-130.5 381,-130.5 381,-89.5 239,-89.5"/>
<text text-anchor="start" x="247" y="-118.5" font-family="Helvetica,sans-Serif" font-size="10.00">/home/ugovaretto/projects</text>
<text text-anchor="start" x="247" y="-107.5" font-family="Helvetica,sans-Serif" font-size="10.00">/uv&#45;cpp/s3client/repo/lib</text>
<text text-anchor="middle" x="310" y="-96.5" font-family="Helvetica,sans-Serif" font-size="10.00">/src/api/multipart_upload.cpp</text>
</a>
</g>
</g>
<!-- Node3&#45;&gt;Node6 -->
<g id="edge5" class="edge">
<title>Node3&#45;&gt;Node6</title>
<path fill="none" stroke="midnightblue" d="M1071.38,-259.91C940.67,-250.71 677.87,-230.26 588,-209 537.07,-196.95 527.28,-184.61 478,-167 442.68,-154.38 402.87,-141.07 370.87,-130.59"/>
<polygon fill="midnightblue" stroke="midnightblue" points="1071.48,-263.43 1081.7,-260.64 1071.97,-256.45 1071.48,-263.43"/>
</g>
<!-- Node7 -->
<g id="node7" class="node">
<title>Node7</title>
<g id="a_node7"><a xlink:href="bucket_8cpp_source.html" target="_top" xlink:title=" ">
<polygon fill="none" stroke="black" points="1606,-89.5 1606,-130.5 1736,-130.5 1736,-89.5 1606,-89.5"/>
<text text-anchor="start" x="1614" y="-118.5" font-family="Helvetica,sans-Serif" font-size="10.00">/home/ugovaretto/projects</text>
<text text-anchor="start" x="1614" y="-107.5" font-family="Helvetica,sans-Serif" font-size="10.00">/uv&#45;cpp/s3client/repo/lib</text>
<text text-anchor="middle" x="1671" y="-96.5" font-family="Helvetica,sans-Serif" font-size="10.00">/src/api/bucket.cpp</text>
</a>
</g>
</g>
<!-- Node3&#45;&gt;Node7 -->
<g id="edge6" class="edge">
<title>Node3&#45;&gt;Node7</title>
<path fill="none" stroke="midnightblue" d="M1222.39,-245.35C1305.93,-237.1 1651.49,-245.21 1685,-209 1704.49,-187.93 1692.6,-152.65 1681.97,-130.66"/>
<polygon fill="midnightblue" stroke="midnightblue" points="1221.69,-241.91 1212.22,-246.66 1222.59,-248.86 1221.69,-241.91"/>
</g>
<!-- Node8 -->
<g id="node8" class="node">
<title>Node8</title>
<g id="a_node8"><a xlink:href="object_8cpp_source.html" target="_top" xlink:title=" ">
<polygon fill="none" stroke="black" points="1405,-89.5 1405,-130.5 1535,-130.5 1535,-89.5 1405,-89.5"/>
<text text-anchor="start" x="1413" y="-118.5" font-family="Helvetica,sans-Serif" font-size="10.00">/home/ugovaretto/projects</text>
<text text-anchor="start" x="1413" y="-107.5" font-family="Helvetica,sans-Serif" font-size="10.00">/uv&#45;cpp/s3client/repo/lib</text>
<text text-anchor="middle" x="1470" y="-96.5" font-family="Helvetica,sans-Serif" font-size="10.00">/src/api/object.cpp</text>
</a>
</g>
</g>
<!-- Node3&#45;&gt;Node8 -->
<g id="edge7" class="edge">
<title>Node3&#45;&gt;Node8</title>
<path fill="none" stroke="midnightblue" d="M1222.28,-245.36C1303.13,-237.23 1633.94,-243.75 1666,-209 1710.11,-161.18 1607.84,-133.52 1535.06,-120.42"/>
<polygon fill="midnightblue" stroke="midnightblue" points="1221.69,-241.91 1212.22,-246.68 1222.59,-248.85 1221.69,-241.91"/>
</g>
<!-- Node9 -->
<g id="node9" class="node">
<title>Node9</title>
<g id="a_node9"><a xlink:href="presign__url_8cpp.html" target="_top" xlink:title="Presign URL.">
<polygon fill="none" stroke="black" points="1751.5,-167.5 1751.5,-208.5 1882.5,-208.5 1882.5,-167.5 1751.5,-167.5"/>
<text text-anchor="start" x="1759.5" y="-196.5" font-family="Helvetica,sans-Serif" font-size="10.00">/home/ugovaretto/projects</text>
<text text-anchor="start" x="1759.5" y="-185.5" font-family="Helvetica,sans-Serif" font-size="10.00">/uv&#45;cpp/s3client/repo/apps</text>
<text text-anchor="middle" x="1817" y="-174.5" font-family="Helvetica,sans-Serif" font-size="10.00">/presign_url.cpp</text>
</a>
</g>
</g>
<!-- Node3&#45;&gt;Node9 -->
<g id="edge8" class="edge">
<title>Node3&#45;&gt;Node9</title>
<path fill="none" stroke="midnightblue" d="M1222.12,-244.99C1449.5,-207.9 1513.16,-244.51 1737,-209 1741.67,-208.26 1746.46,-207.38 1751.27,-206.4"/>
<polygon fill="midnightblue" stroke="midnightblue" points="1221.51,-241.54 1212.22,-246.64 1222.66,-248.45 1221.51,-241.54"/>
</g>
<!-- Node10 -->
<g id="node10" class="node">
<title>Node10</title>
<g id="a_node10"><a xlink:href="apps_2s3-client_8cpp.html" target="_top" xlink:title="Send S3v4&#45;signed requests to S3 andpoint and print raw responses.">
<polygon fill="none" stroke="black" points="783.5,-167.5 783.5,-208.5 914.5,-208.5 914.5,-167.5 783.5,-167.5"/>
<text text-anchor="start" x="791.5" y="-196.5" font-family="Helvetica,sans-Serif" font-size="10.00">/home/ugovaretto/projects</text>
<text text-anchor="start" x="791.5" y="-185.5" font-family="Helvetica,sans-Serif" font-size="10.00">/uv&#45;cpp/s3client/repo/apps</text>
<text text-anchor="middle" x="849" y="-174.5" font-family="Helvetica,sans-Serif" font-size="10.00">/s3&#45;client.cpp</text>
</a>
</g>
</g>
<!-- Node3&#45;&gt;Node10 -->
<g id="edge9" class="edge">
<title>Node3&#45;&gt;Node10</title>
<path fill="none" stroke="midnightblue" d="M1071.8,-246.58C1028.28,-235.82 972.49,-221.87 923,-209 920.3,-208.3 917.54,-207.57 914.75,-206.84"/>
<polygon fill="midnightblue" stroke="midnightblue" points="1071.19,-250.03 1081.73,-249.03 1072.87,-243.24 1071.19,-250.03"/>
</g>
<!-- Node11 -->
<g id="node11" class="node">
<title>Node11</title>
<g id="a_node11"><a xlink:href="parallel__download_8cpp.html" target="_top" xlink:title="Parallel object download download from S3 service.">
<polygon fill="none" stroke="black" points="932.5,-167.5 932.5,-208.5 1063.5,-208.5 1063.5,-167.5 932.5,-167.5"/>
<text text-anchor="start" x="940.5" y="-196.5" font-family="Helvetica,sans-Serif" font-size="10.00">/home/ugovaretto/projects</text>
<text text-anchor="start" x="940.5" y="-185.5" font-family="Helvetica,sans-Serif" font-size="10.00">/uv&#45;cpp/s3client/repo/apps</text>
<text text-anchor="middle" x="998" y="-174.5" font-family="Helvetica,sans-Serif" font-size="10.00">/parallel_download.cpp</text>
</a>
</g>
</g>
<!-- Node3&#45;&gt;Node11 -->
<g id="edge10" class="edge">
<title>Node3&#45;&gt;Node11</title>
<path fill="none" stroke="midnightblue" d="M1099.49,-240.77C1079.07,-230.35 1055.51,-218.34 1036.24,-208.51"/>
<polygon fill="midnightblue" stroke="midnightblue" points="1098.13,-244 1108.63,-245.43 1101.31,-237.77 1098.13,-244"/>
</g>
<!-- Node12 -->
<g id="node12" class="node">
<title>Node12</title>
<g id="a_node12"><a xlink:href="parallel__upload_8cpp.html" target="_top" xlink:title="Parallel upload to S3 service.">
<polygon fill="none" stroke="black" points="1081.5,-167.5 1081.5,-208.5 1212.5,-208.5 1212.5,-167.5 1081.5,-167.5"/>
<text text-anchor="start" x="1089.5" y="-196.5" font-family="Helvetica,sans-Serif" font-size="10.00">/home/ugovaretto/projects</text>
<text text-anchor="start" x="1089.5" y="-185.5" font-family="Helvetica,sans-Serif" font-size="10.00">/uv&#45;cpp/s3client/repo/apps</text>
<text text-anchor="middle" x="1147" y="-174.5" font-family="Helvetica,sans-Serif" font-size="10.00">/parallel_upload.cpp</text>
</a>
</g>
</g>
<!-- Node3&#45;&gt;Node12 -->
<g id="edge11" class="edge">
<title>Node3&#45;&gt;Node12</title>
<path fill="none" stroke="midnightblue" d="M1147,-235.3C1147,-226.3 1147,-216.65 1147,-208.51"/>
<polygon fill="midnightblue" stroke="midnightblue" points="1143.5,-235.43 1147,-245.43 1150.5,-235.43 1143.5,-235.43"/>
</g>
<!-- Node13 -->
<g id="node13" class="node">
<title>Node13</title>
<g id="a_node13"><a xlink:href="lib_2src_2s3-client_8cpp_source.html" target="_top" xlink:title=" ">
<polygon fill="none" stroke="black" points="1231,-167.5 1231,-208.5 1361,-208.5 1361,-167.5 1231,-167.5"/>
<text text-anchor="start" x="1239" y="-196.5" font-family="Helvetica,sans-Serif" font-size="10.00">/home/ugovaretto/projects</text>
<text text-anchor="start" x="1239" y="-185.5" font-family="Helvetica,sans-Serif" font-size="10.00">/uv&#45;cpp/s3client/repo/lib</text>
<text text-anchor="middle" x="1296" y="-174.5" font-family="Helvetica,sans-Serif" font-size="10.00">/src/s3&#45;client.cpp</text>
</a>
</g>
</g>
<!-- Node3&#45;&gt;Node13 -->
<g id="edge12" class="edge">
<title>Node3&#45;&gt;Node13</title>
<path fill="none" stroke="midnightblue" d="M1194.51,-240.77C1214.93,-230.35 1238.49,-218.34 1257.76,-208.51"/>
<polygon fill="midnightblue" stroke="midnightblue" points="1192.69,-237.77 1185.37,-245.43 1195.87,-244 1192.69,-237.77"/>
</g>
<!-- Node3&#45;&gt;Node14 -->
<g id="edge13" class="edge">
<title>Node3&#45;&gt;Node14</title>
<path fill="none" stroke="midnightblue" d="M1071.55,-254.3C996.13,-243.45 876.91,-225.91 774,-209 758.8,-206.5 742.46,-203.67 727.09,-200.94"/>
<polygon fill="midnightblue" stroke="midnightblue" points="1071.5,-257.83 1081.89,-255.78 1072.49,-250.9 1071.5,-257.83"/>
</g>
<!-- Node14&#45;&gt;Node6 -->
<g id="edge21" class="edge">
<title>Node14&#45;&gt;Node6</title>
<path fill="none" stroke="midnightblue" d="M586.79,-171.74C533.24,-160.74 459.61,-145.37 395,-131 390.56,-130.01 385.99,-128.98 381.39,-127.93"/>
<polygon fill="midnightblue" stroke="midnightblue" points="586.39,-175.23 596.89,-173.81 587.8,-168.37 586.39,-175.23"/>
</g>
<!-- Node14&#45;&gt;Node7 -->
<g id="edge22" class="edge">
<title>Node14&#45;&gt;Node7</title>
<path fill="none" stroke="midnightblue" d="M737.39,-172.16C749.59,-170.15 762.12,-168.33 774,-167 1114.46,-128.81 1203.17,-165.7 1544,-131 1564.21,-128.94 1586.1,-125.82 1605.92,-122.65"/>
<polygon fill="midnightblue" stroke="midnightblue" points="736.51,-168.76 727.23,-173.88 737.68,-175.66 736.51,-168.76"/>
</g>
<!-- Node14&#45;&gt;Node8 -->
<g id="edge23" class="edge">
<title>Node14&#45;&gt;Node8</title>
<path fill="none" stroke="midnightblue" d="M737.2,-167.61C738.47,-167.4 739.74,-167.19 741,-167 1029.21,-123.02 1108.15,-177.29 1396,-131 1398.89,-130.54 1401.83,-130 1404.79,-129.42"/>
<polygon fill="midnightblue" stroke="midnightblue" points="736.53,-164.17 727.33,-169.43 737.79,-171.06 736.53,-164.17"/>
</g>
<!-- Node15 -->
<g id="node15" class="node">
<title>Node15</title>
<g id="a_node15"><a xlink:href="abort-multipart-upload-test_8cpp_source.html" target="_top" xlink:title=" ">
<polygon fill="none" stroke="black" points="0,-0.5 0,-52.5 130,-52.5 130,-0.5 0,-0.5"/>
<text text-anchor="start" x="8" y="-40.5" font-family="Helvetica,sans-Serif" font-size="10.00">/home/ugovaretto/projects</text>
<text text-anchor="start" x="8" y="-29.5" font-family="Helvetica,sans-Serif" font-size="10.00">/uv&#45;cpp/s3client/repo/test</text>
<text text-anchor="start" x="8" y="-18.5" font-family="Helvetica,sans-Serif" font-size="10.00">/api/abort&#45;multipart&#45;upload</text>
<text text-anchor="middle" x="65" y="-7.5" font-family="Helvetica,sans-Serif" font-size="10.00">&#45;test.cpp</text>
</a>
</g>
</g>
<!-- Node14&#45;&gt;Node15 -->
<g id="edge14" class="edge">
<title>Node14&#45;&gt;Node15</title>
<path fill="none" stroke="midnightblue" d="M586.67,-174.95C527.2,-164.42 449.92,-148.16 423,-131 402.98,-118.24 410.56,-100.87 390,-89 292.4,-32.65 248.54,-79.48 139,-53 136.09,-52.3 133.14,-51.53 130.17,-50.71"/>
<polygon fill="midnightblue" stroke="midnightblue" points="586.34,-178.45 596.8,-176.72 587.55,-171.55 586.34,-178.45"/>
</g>
<!-- Node16 -->
<g id="node16" class="node">
<title>Node16</title>
<g id="a_node16"><a xlink:href="multipart-upload-test_8cpp_source.html" target="_top" xlink:title=" ">
<polygon fill="none" stroke="black" points="148.5,-6 148.5,-47 291.5,-47 291.5,-6 148.5,-6"/>
<text text-anchor="start" x="156.5" y="-35" font-family="Helvetica,sans-Serif" font-size="10.00">/home/ugovaretto/projects</text>
<text text-anchor="start" x="156.5" y="-24" font-family="Helvetica,sans-Serif" font-size="10.00">/uv&#45;cpp/s3client/repo/test</text>
<text text-anchor="middle" x="220" y="-13" font-family="Helvetica,sans-Serif" font-size="10.00">/api/multipart&#45;upload&#45;test.cpp</text>
</a>
</g>
</g>
<!-- Node14&#45;&gt;Node16 -->
<g id="edge15" class="edge">
<title>Node14&#45;&gt;Node16</title>
<path fill="none" stroke="midnightblue" d="M586.82,-176.43C547.2,-168.39 499.07,-154.52 461,-131 439.59,-117.77 444.31,-102.4 423,-89 375.14,-58.92 355.08,-69.49 301,-53 294.8,-51.11 288.33,-49.11 281.88,-47.11"/>
<polygon fill="midnightblue" stroke="midnightblue" points="586.21,-179.88 596.7,-178.35 587.55,-173.01 586.21,-179.88"/>
</g>
<!-- Node17 -->
<g id="node17" class="node">
<title>Node17</title>
<g id="a_node17"><a xlink:href="multipart-upload-file-test_8cpp_source.html" target="_top" xlink:title=" ">
<polygon fill="none" stroke="black" points="310,-0.5 310,-52.5 440,-52.5 440,-0.5 310,-0.5"/>
<text text-anchor="start" x="318" y="-40.5" font-family="Helvetica,sans-Serif" font-size="10.00">/home/ugovaretto/projects</text>
<text text-anchor="start" x="318" y="-29.5" font-family="Helvetica,sans-Serif" font-size="10.00">/uv&#45;cpp/s3client/repo/test</text>
<text text-anchor="start" x="318" y="-18.5" font-family="Helvetica,sans-Serif" font-size="10.00">/api/multipart&#45;upload&#45;file</text>
<text text-anchor="middle" x="375" y="-7.5" font-family="Helvetica,sans-Serif" font-size="10.00">&#45;test.cpp</text>
</a>
</g>
</g>
<!-- Node14&#45;&gt;Node17 -->
<g id="edge16" class="edge">
<title>Node14&#45;&gt;Node17</title>
<path fill="none" stroke="midnightblue" d="M594.03,-163.77C570.36,-154.71 543.99,-143.48 521,-131 518.05,-129.4 452.41,-82.69 410.16,-52.58"/>
<polygon fill="midnightblue" stroke="midnightblue" points="593.06,-167.14 603.65,-167.39 595.53,-160.59 593.06,-167.14"/>
</g>
<!-- Node18 -->
<g id="node18" class="node">
<title>Node18</title>
<g id="a_node18"><a xlink:href="bucket-test_8cpp.html" target="_top" xlink:title="bucket tests">
<polygon fill="none" stroke="black" points="458,-6 458,-47 588,-47 588,-6 458,-6"/>
<text text-anchor="start" x="466" y="-35" font-family="Helvetica,sans-Serif" font-size="10.00">/home/ugovaretto/projects</text>
<text text-anchor="start" x="466" y="-24" font-family="Helvetica,sans-Serif" font-size="10.00">/uv&#45;cpp/s3client/repo/test</text>
<text text-anchor="middle" x="523" y="-13" font-family="Helvetica,sans-Serif" font-size="10.00">/api/bucket&#45;test.cpp</text>
</a>
</g>
</g>
<!-- Node14&#45;&gt;Node18 -->
<g id="edge17" class="edge">
<title>Node14&#45;&gt;Node18</title>
<path fill="none" stroke="midnightblue" d="M587.19,-165.31C570.09,-157.1 553.56,-145.97 542,-131 523.23,-106.71 520.92,-69.73 521.54,-47.17"/>
<polygon fill="midnightblue" stroke="midnightblue" points="586.16,-168.69 596.72,-169.58 589.03,-162.3 586.16,-168.69"/>
</g>
<!-- Node19 -->
<g id="node19" class="node">
<title>Node19</title>
<g id="a_node19"><a xlink:href="fileobject-test_8cpp_source.html" target="_top" xlink:title=" ">
<polygon fill="none" stroke="black" points="754,-6 754,-47 884,-47 884,-6 754,-6"/>
<text text-anchor="start" x="762" y="-35" font-family="Helvetica,sans-Serif" font-size="10.00">/home/ugovaretto/projects</text>
<text text-anchor="start" x="762" y="-24" font-family="Helvetica,sans-Serif" font-size="10.00">/uv&#45;cpp/s3client/repo/test</text>
<text text-anchor="middle" x="819" y="-13" font-family="Helvetica,sans-Serif" font-size="10.00">/api/fileobject&#45;test.cpp</text>
</a>
</g>
</g>
<!-- Node14&#45;&gt;Node19 -->
<g id="edge18" class="edge">
<title>Node14&#45;&gt;Node19</title>
<path fill="none" stroke="midnightblue" d="M679.11,-158.51C692.31,-137.88 711.84,-110.03 733,-89 749.01,-73.08 769.49,-58.27 786.45,-47.16"/>
<polygon fill="midnightblue" stroke="midnightblue" points="676.04,-156.82 673.69,-167.15 681.97,-160.55 676.04,-156.82"/>
</g>
<!-- Node20 -->
<g id="node20" class="node">
<title>Node20</title>
<g id="a_node20"><a xlink:href="parallel-file-transfer-test_8cpp_source.html" target="_top" xlink:title=" ">
<polygon fill="none" stroke="black" points="902,-6 902,-47 1042,-47 1042,-6 902,-6"/>
<text text-anchor="start" x="910" y="-35" font-family="Helvetica,sans-Serif" font-size="10.00">/home/ugovaretto/projects</text>
<text text-anchor="start" x="910" y="-24" font-family="Helvetica,sans-Serif" font-size="10.00">/uv&#45;cpp/s3client/repo/test</text>
<text text-anchor="middle" x="972" y="-13" font-family="Helvetica,sans-Serif" font-size="10.00">/parallel&#45;file&#45;transfer&#45;test.cpp</text>
</a>
</g>
</g>
<!-- Node14&#45;&gt;Node20 -->
<g id="edge19" class="edge">
<title>Node14&#45;&gt;Node20</title>
<path fill="none" stroke="midnightblue" d="M695.06,-160.97C706.37,-151.76 718.94,-141.16 730,-131 749.21,-113.35 748.66,-102.46 771,-89 819.43,-59.83 838.98,-69.68 893,-53 899.2,-51.09 905.66,-49.06 912.09,-47.01"/>
<polygon fill="midnightblue" stroke="midnightblue" points="692.68,-158.4 687.1,-167.41 697.07,-163.85 692.68,-158.4"/>
</g>
<!-- Node21 -->
<g id="node21" class="node">
<title>Node21</title>
<g id="a_node21"><a xlink:href="object-test_8cpp_source.html" target="_top" xlink:title=" ">
<polygon fill="none" stroke="black" points="1060,-6 1060,-47 1190,-47 1190,-6 1060,-6"/>
<text text-anchor="start" x="1068" y="-35" font-family="Helvetica,sans-Serif" font-size="10.00">/home/ugovaretto/projects</text>
<text text-anchor="start" x="1068" y="-24" font-family="Helvetica,sans-Serif" font-size="10.00">/uv&#45;cpp/s3client/repo/test</text>
<text text-anchor="middle" x="1125" y="-13" font-family="Helvetica,sans-Serif" font-size="10.00">/api/object&#45;test.cpp</text>
</a>
</g>
</g>
<!-- Node14&#45;&gt;Node21 -->
<g id="edge20" class="edge">
<title>Node14&#45;&gt;Node21</title>
<path fill="none" stroke="midnightblue" d="M714.45,-162.7C731.31,-153.8 749.6,-142.95 765,-131 785.12,-115.38 781.45,-100.84 804,-89 902.22,-37.42 943.2,-79.19 1051,-53 1057.87,-51.33 1065,-49.29 1072,-47.09"/>
<polygon fill="midnightblue" stroke="midnightblue" points="712.54,-159.74 705.25,-167.43 715.74,-165.97 712.54,-159.74"/>
</g>
<!-- Node22 -->
<g id="node22" class="node">
<title>Node22</title>
<g id="a_node22"><a xlink:href="s3-api_8cpp_source.html" target="_top" xlink:title=" ">
<polygon fill="none" stroke="black" points="813,-89.5 813,-130.5 943,-130.5 943,-89.5 813,-89.5"/>
<text text-anchor="start" x="821" y="-118.5" font-family="Helvetica,sans-Serif" font-size="10.00">/home/ugovaretto/projects</text>
<text text-anchor="start" x="821" y="-107.5" font-family="Helvetica,sans-Serif" font-size="10.00">/uv&#45;cpp/s3client/repo/lib</text>
<text text-anchor="middle" x="878" y="-96.5" font-family="Helvetica,sans-Serif" font-size="10.00">/src/api/s3&#45;api.cpp</text>
</a>
</g>
</g>
<!-- Node14&#45;&gt;Node22 -->
<g id="edge24" class="edge">
<title>Node14&#45;&gt;Node22</title>
<path fill="none" stroke="midnightblue" d="M727.29,-164.03C757.7,-153.33 793.49,-140.73 822.56,-130.51"/>
<polygon fill="midnightblue" stroke="midnightblue" points="725.9,-160.81 717.63,-167.43 728.22,-167.41 725.9,-160.81"/>
</g>
<!-- Node23 -->
<g id="node23" class="node">
<title>Node23</title>
<g id="a_node23"><a xlink:href="xml__parser_8cpp_source.html" target="_top" xlink:title=" ">
<polygon fill="none" stroke="black" points="961,-89.5 961,-130.5 1091,-130.5 1091,-89.5 961,-89.5"/>
<text text-anchor="start" x="969" y="-118.5" font-family="Helvetica,sans-Serif" font-size="10.00">/home/ugovaretto/projects</text>
<text text-anchor="start" x="969" y="-107.5" font-family="Helvetica,sans-Serif" font-size="10.00">/uv&#45;cpp/s3client/repo/lib</text>
<text text-anchor="middle" x="1026" y="-96.5" font-family="Helvetica,sans-Serif" font-size="10.00">/src/api/xml_parser.cpp</text>
</a>
</g>
</g>
<!-- Node14&#45;&gt;Node23 -->
<g id="edge25" class="edge">
<title>Node14&#45;&gt;Node23</title>
<path fill="none" stroke="midnightblue" d="M737.12,-167.83C738.42,-167.55 739.72,-167.27 741,-167 834.07,-147.31 859.09,-151.43 952,-131 954.86,-130.37 957.77,-129.7 960.71,-129.01"/>
<polygon fill="midnightblue" stroke="midnightblue" points="735.99,-164.5 727,-170.11 737.53,-171.33 735.99,-164.5"/>
</g>
<!-- Node24 -->
<g id="node24" class="node">
<title>Node24</title>
<g id="a_node24"><a xlink:href="download-file_8cpp_source.html" target="_top" xlink:title=" ">
<polygon fill="none" stroke="black" points="1109,-89.5 1109,-130.5 1239,-130.5 1239,-89.5 1109,-89.5"/>
<text text-anchor="start" x="1117" y="-118.5" font-family="Helvetica,sans-Serif" font-size="10.00">/home/ugovaretto/projects</text>
<text text-anchor="start" x="1117" y="-107.5" font-family="Helvetica,sans-Serif" font-size="10.00">/uv&#45;cpp/s3client/repo/lib</text>
<text text-anchor="middle" x="1174" y="-96.5" font-family="Helvetica,sans-Serif" font-size="10.00">/src/download&#45;file.cpp</text>
</a>
</g>
</g>
<!-- Node14&#45;&gt;Node24 -->
<g id="edge26" class="edge">
<title>Node14&#45;&gt;Node24</title>
<path fill="none" stroke="midnightblue" d="M737.21,-167.69C738.48,-167.45 739.75,-167.22 741,-167 898.94,-139.25 942.29,-160.02 1100,-131 1102.88,-130.47 1105.81,-129.88 1108.76,-129.25"/>
<polygon fill="midnightblue" stroke="midnightblue" points="736.48,-164.26 727.36,-169.66 737.86,-171.13 736.48,-164.26"/>
</g>
<!-- Node25 -->
<g id="node25" class="node">
<title>Node25</title>
<g id="a_node25"><a xlink:href="upload-file_8cpp_source.html" target="_top" xlink:title=" ">
<polygon fill="none" stroke="black" points="1257,-89.5 1257,-130.5 1387,-130.5 1387,-89.5 1257,-89.5"/>
<text text-anchor="start" x="1265" y="-118.5" font-family="Helvetica,sans-Serif" font-size="10.00">/home/ugovaretto/projects</text>
<text text-anchor="start" x="1265" y="-107.5" font-family="Helvetica,sans-Serif" font-size="10.00">/uv&#45;cpp/s3client/repo/lib</text>
<text text-anchor="middle" x="1322" y="-96.5" font-family="Helvetica,sans-Serif" font-size="10.00">/src/upload&#45;file.cpp</text>
</a>
</g>
</g>
<!-- Node14&#45;&gt;Node25 -->
<g id="edge27" class="edge">
<title>Node14&#45;&gt;Node25</title>
<path fill="none" stroke="midnightblue" d="M737.2,-167.64C738.48,-167.41 739.74,-167.2 741,-167 964.04,-131.14 1025.26,-168.65 1248,-131 1250.89,-130.51 1253.82,-129.96 1256.78,-129.36"/>
<polygon fill="midnightblue" stroke="midnightblue" points="736.51,-164.21 727.34,-169.51 737.82,-171.08 736.51,-164.21"/>
</g>
<!-- Node26 -->
<g id="node26" class="node">
<title>Node26</title>
<g id="a_node26"><a xlink:href="test_2utility_8h_source.html" target="_top" xlink:title=" ">
<polygon fill="none" stroke="black" points="551,-89.5 551,-130.5 681,-130.5 681,-89.5 551,-89.5"/>
<text text-anchor="start" x="559" y="-118.5" font-family="Helvetica,sans-Serif" font-size="10.00">/home/ugovaretto/projects</text>
<text text-anchor="start" x="559" y="-107.5" font-family="Helvetica,sans-Serif" font-size="10.00">/uv&#45;cpp/s3client/repo/test</text>
<text text-anchor="middle" x="616" y="-96.5" font-family="Helvetica,sans-Serif" font-size="10.00">/utility.h</text>
</a>
</g>
</g>
<!-- Node14&#45;&gt;Node26 -->
<g id="edge28" class="edge">
<title>Node14&#45;&gt;Node26</title>
<path fill="none" stroke="midnightblue" d="M644.91,-158.76C639.21,-149.35 633.01,-139.1 627.81,-130.51"/>
<polygon fill="midnightblue" stroke="midnightblue" points="641.98,-160.69 650.15,-167.43 647.97,-157.06 641.98,-160.69"/>
</g>
<!-- Node26&#45;&gt;Node15 -->
<g id="edge29" class="edge">
<title>Node26&#45;&gt;Node15</title>
<path fill="none" stroke="midnightblue" d="M540.45,-101.03C415.84,-87.76 177.15,-61.71 139,-53 136.09,-52.33 133.13,-51.6 130.15,-50.8"/>
<polygon fill="midnightblue" stroke="midnightblue" points="540.37,-104.54 550.68,-102.12 541.11,-97.58 540.37,-104.54"/>
</g>
<!-- Node26&#45;&gt;Node16 -->
<g id="edge30" class="edge">
<title>Node26&#45;&gt;Node16</title>
<path fill="none" stroke="midnightblue" d="M540.9,-98.44C476.73,-88.75 382.16,-72.9 301,-53 293.84,-51.24 286.39,-49.2 279.03,-47.05"/>
<polygon fill="midnightblue" stroke="midnightblue" points="540.53,-101.92 550.94,-99.94 541.57,-95 540.53,-101.92"/>
</g>
<!-- Node26&#45;&gt;Node17 -->
<g id="edge31" class="edge">
<title>Node26&#45;&gt;Node17</title>
<path fill="none" stroke="midnightblue" d="M547.62,-86.21C517.37,-76.1 481.4,-64.01 449,-53 446.17,-52.04 443.28,-51.05 440.36,-50.06"/>
<polygon fill="midnightblue" stroke="midnightblue" points="546.63,-89.57 557.22,-89.42 548.85,-82.93 546.63,-89.57"/>
</g>
<!-- Node26&#45;&gt;Node18 -->
<g id="edge32" class="edge">
<title>Node26&#45;&gt;Node18</title>
<path fill="none" stroke="midnightblue" d="M585.61,-82.36C572.47,-70.85 557.38,-57.63 545.31,-47.05"/>
<polygon fill="midnightblue" stroke="midnightblue" points="583.66,-85.31 593.49,-89.27 588.27,-80.05 583.66,-85.31"/>
</g>
<!-- Node26&#45;&gt;Node19 -->
<g id="edge33" class="edge">
<title>Node26&#45;&gt;Node19</title>
<path fill="none" stroke="midnightblue" d="M674.27,-85.61C704.71,-73.39 741.54,-58.6 770.42,-47"/>
<polygon fill="midnightblue" stroke="midnightblue" points="672.6,-82.5 664.62,-89.48 675.21,-89 672.6,-82.5"/>
</g>
<!-- Node26&#45;&gt;Node20 -->
<g id="edge35" class="edge">
<title>Node26&#45;&gt;Node20</title>
<path fill="none" stroke="midnightblue" d="M690.96,-96.21C746.99,-86.08 825.27,-70.72 893,-53 899.83,-51.21 906.94,-49.18 913.98,-47.05"/>
<polygon fill="midnightblue" stroke="midnightblue" points="690.34,-92.77 681.12,-97.98 691.58,-99.66 690.34,-92.77"/>
</g>
<!-- Node26&#45;&gt;Node21 -->
<g id="edge36" class="edge">
<title>Node26&#45;&gt;Node21</title>
<path fill="none" stroke="midnightblue" d="M691.16,-99.3C716.52,-96.02 744.99,-92.35 771,-89 895.44,-72.97 928.83,-81.59 1051,-53 1058.01,-51.36 1065.29,-49.3 1072.43,-47.08"/>
<polygon fill="midnightblue" stroke="midnightblue" points="690.7,-95.82 681.23,-100.58 691.6,-102.77 690.7,-95.82"/>
</g>
<!-- Node27 -->
<g id="node27" class="node">
<title>Node27</title>
<g id="a_node27"><a xlink:href="test_2utility_8cpp_source.html" target="_top" xlink:title=" ">
<polygon fill="none" stroke="black" points="606,-6 606,-47 736,-47 736,-6 606,-6"/>
<text text-anchor="start" x="614" y="-35" font-family="Helvetica,sans-Serif" font-size="10.00">/home/ugovaretto/projects</text>
<text text-anchor="start" x="614" y="-24" font-family="Helvetica,sans-Serif" font-size="10.00">/uv&#45;cpp/s3client/repo/test</text>
<text text-anchor="middle" x="671" y="-13" font-family="Helvetica,sans-Serif" font-size="10.00">/utility.cpp</text>
</a>
</g>
</g>
<!-- Node26&#45;&gt;Node27 -->
<g id="edge34" class="edge">
<title>Node26&#45;&gt;Node27</title>
<path fill="none" stroke="midnightblue" d="M635.08,-80.72C642.58,-69.61 651,-57.13 657.81,-47.05"/>
<polygon fill="midnightblue" stroke="midnightblue" points="632.01,-79.02 629.31,-89.27 637.81,-82.94 632.01,-79.02"/>
</g>
<!-- Node29&#45;&gt;Node6 -->
<g id="edge40" class="edge">
<title>Node29&#45;&gt;Node6</title>
<path fill="none" stroke="midnightblue" d="M680.02,-252.38C631.11,-243.04 566.3,-228.54 511,-209 450.05,-187.47 383.36,-152.49 344.18,-130.66"/>
<polygon fill="midnightblue" stroke="midnightblue" points="679.43,-255.83 689.9,-254.24 680.72,-248.95 679.43,-255.83"/>
</g>
<!-- Node29&#45;&gt;Node8 -->
<g id="edge41" class="edge">
<title>Node29&#45;&gt;Node8</title>
<path fill="none" stroke="midnightblue" d="M751.95,-235.14C751.49,-212.88 755.05,-183.57 774,-167 826.11,-121.43 1327.67,-142.09 1396,-131 1398.89,-130.53 1401.83,-129.99 1404.79,-129.41"/>
<polygon fill="midnightblue" stroke="midnightblue" points="748.47,-235.6 752.45,-245.42 755.46,-235.26 748.47,-235.6"/>
</g>
<!-- Node29&#45;&gt;Node14 -->
<g id="edge42" class="edge">
<title>Node29&#45;&gt;Node14</title>
<path fill="none" stroke="midnightblue" d="M723.26,-239.06C711.02,-229.06 697.25,-217.8 685.87,-208.51"/>
<polygon fill="midnightblue" stroke="midnightblue" points="721.09,-241.81 731.05,-245.43 725.52,-236.39 721.09,-241.81"/>
</g>
</g>
</svg>
