<?xml version="1.0" encoding="UTF-8" standalone="no"?>
<!DOCTYPE svg PUBLIC "-//W3C//DTD SVG 1.1//EN"
 "http://www.w3.org/Graphics/SVG/1.1/DTD/svg11.dtd">
<!-- Generated by graphviz version 2.43.0 (0)
 -->
<!-- Title: /home/ugovaretto/projects/uv&#45;cpp/s3client/repo/lib/include/webclient.h Pages: 1 -->
<svg width="1975pt" height="373pt"
 viewBox="0.00 0.00 1974.50 373.00" xmlns="http://www.w3.org/2000/svg" xmlns:xlink="http://www.w3.org/1999/xlink">
<g id="graph0" class="graph" transform="scale(1 1) rotate(0) translate(4 369)">
<title>/home/ugovaretto/projects/uv&#45;cpp/s3client/repo/lib/include/webclient.h</title>
<!-- Node1 -->
<g id="node1" class="node">
<title>Node1</title>
<g id="a_node1"><a xlink:title="declaration of WebClient class wrapping libcurl to send web requests.">
<polygon fill="#bfbfbf" stroke="black" points="774,-323.5 774,-364.5 904,-364.5 904,-323.5 774,-323.5"/>
<text text-anchor="start" x="782" y="-352.5" font-family="Helvetica,sans-Serif" font-size="10.00">/home/ugovaretto/projects</text>
<text text-anchor="start" x="782" y="-341.5" font-family="Helvetica,sans-Serif" font-size="10.00">/uv&#45;cpp/s3client/repo/lib</text>
<text text-anchor="middle" x="839" y="-330.5" font-family="Helvetica,sans-Serif" font-size="10.00">/include/webclient.h</text>
</a>
</g>
</g>
<!-- Node2 -->
<g id="node2" class="node">
<title>Node2</title>
<g id="a_node2"><a xlink:href="error_8cpp_source.html" target="_top" xlink:title=" ">
<polygon fill="none" stroke="black" points="588,-245.5 588,-286.5 718,-286.5 718,-245.5 588,-245.5"/>
<text text-anchor="start" x="596" y="-274.5" font-family="Helvetica,sans-Serif" font-size="10.00">/home/ugovaretto/projects</text>
<text text-anchor="start" x="596" y="-263.5" font-family="Helvetica,sans-Serif" font-size="10.00">/uv&#45;cpp/s3client/repo/lib</text>
<text text-anchor="middle" x="653" y="-252.5" font-family="Helvetica,sans-Serif" font-size="10.00">/src/api/error.cpp</text>
</a>
</g>
</g>
<!-- Node1&#45;&gt;Node2 -->
<g id="edge1" class="edge">
<title>Node1&#45;&gt;Node2</title>
<path fill="none" stroke="midnightblue" d="M781.75,-319.61C755.79,-309 725.45,-296.6 700.74,-286.51"/>
<polygon fill="midnightblue" stroke="midnightblue" points="780.52,-322.89 791.1,-323.43 783.17,-316.41 780.52,-322.89"/>
</g>
<!-- Node3 -->
<g id="node3" class="node">
<title>Node3</title>
<g id="a_node3"><a xlink:href="s3-client_8h.html" target="_top" xlink:title="declaration of functions and data types for sending S3 requests, signing URLs and downloading and upl...">
<polygon fill="none" stroke="black" points="1166,-245.5 1166,-286.5 1296,-286.5 1296,-245.5 1166,-245.5"/>
<text text-anchor="start" x="1174" y="-274.5" font-family="Helvetica,sans-Serif" font-size="10.00">/home/ugovaretto/projects</text>
<text text-anchor="start" x="1174" y="-263.5" font-family="Helvetica,sans-Serif" font-size="10.00">/uv&#45;cpp/s3client/repo/lib</text>
<text text-anchor="middle" x="1231" y="-252.5" font-family="Helvetica,sans-Serif" font-size="10.00">/include/s3&#45;client.h</text>
</a>
</g>
</g>
<!-- Node1&#45;&gt;Node3 -->
<g id="edge2" class="edge">
<title>Node1&#45;&gt;Node3</title>
<path fill="none" stroke="midnightblue" d="M914.21,-328.42C987.17,-314.27 1096.72,-293.03 1166,-279.6"/>
<polygon fill="midnightblue" stroke="midnightblue" points="913.32,-325.03 904.17,-330.36 914.65,-331.9 913.32,-325.03"/>
</g>
<!-- Node14 -->
<g id="node14" class="node">
<title>Node14</title>
<g id="a_node14"><a xlink:href="s3-api_8h.html" target="_top" xlink:title="declarations of S3Api class.">
<polygon fill="none" stroke="black" points="681,-167.5 681,-208.5 811,-208.5 811,-167.5 681,-167.5"/>
<text text-anchor="start" x="689" y="-196.5" font-family="Helvetica,sans-Serif" font-size="10.00">/home/ugovaretto/projects</text>
<text text-anchor="start" x="689" y="-185.5" font-family="Helvetica,sans-Serif" font-size="10.00">/uv&#45;cpp/s3client/repo/lib</text>
<text text-anchor="middle" x="746" y="-174.5" font-family="Helvetica,sans-Serif" font-size="10.00">/include/s3&#45;api.h</text>
</a>
</g>
</g>
<!-- Node1&#45;&gt;Node14 -->
<g id="edge40" class="edge">
<title>Node1&#45;&gt;Node14</title>
<path fill="none" stroke="midnightblue" d="M794.16,-317.29C783.1,-308.95 772.33,-298.77 765,-287 749.97,-262.88 746.4,-229.44 745.77,-208.53"/>
<polygon fill="midnightblue" stroke="midnightblue" points="792.45,-320.36 802.63,-323.3 796.5,-314.66 792.45,-320.36"/>
</g>
<!-- Node30 -->
<g id="node30" class="node">
<title>Node30</title>
<g id="a_node30"><a xlink:href="webclient_8cpp.html" target="_top" xlink:title="implementation of WebClient class, wrapper around libcurl">
<polygon fill="none" stroke="black" points="1314,-245.5 1314,-286.5 1444,-286.5 1444,-245.5 1314,-245.5"/>
<text text-anchor="start" x="1322" y="-274.5" font-family="Helvetica,sans-Serif" font-size="10.00">/home/ugovaretto/projects</text>
<text text-anchor="start" x="1322" y="-263.5" font-family="Helvetica,sans-Serif" font-size="10.00">/uv&#45;cpp/s3client/repo/lib</text>
<text text-anchor="middle" x="1379" y="-252.5" font-family="Helvetica,sans-Serif" font-size="10.00">/src/webclient.cpp</text>
</a>
</g>
</g>
<!-- Node1&#45;&gt;Node30 -->
<g id="edge41" class="edge">
<title>Node1&#45;&gt;Node30</title>
<path fill="none" stroke="midnightblue" d="M914.41,-337.31C1006.99,-329.55 1168.53,-313.5 1305,-287 1307.87,-286.44 1310.8,-285.83 1313.75,-285.18"/>
<polygon fill="midnightblue" stroke="midnightblue" points="913.97,-333.83 904.29,-338.15 914.55,-340.81 913.97,-333.83"/>
</g>
<!-- Node31 -->
<g id="node31" class="node">
<title>Node31</title>
<g id="a_node31"><a xlink:href="error_8h_source.html" target="_top" xlink:title=" ">
<polygon fill="none" stroke="black" points="774,-245.5 774,-286.5 904,-286.5 904,-245.5 774,-245.5"/>
<text text-anchor="start" x="782" y="-274.5" font-family="Helvetica,sans-Serif" font-size="10.00">/home/ugovaretto/projects</text>
<text text-anchor="start" x="782" y="-263.5" font-family="Helvetica,sans-Serif" font-size="10.00">/uv&#45;cpp/s3client/repo/lib</text>
<text text-anchor="middle" x="839" y="-252.5" font-family="Helvetica,sans-Serif" font-size="10.00">/include/error.h</text>
</a>
</g>
</g>
<!-- Node1&#45;&gt;Node31 -->
<g id="edge42" class="edge">
<title>Node1&#45;&gt;Node31</title>
<path fill="none" stroke="midnightblue" d="M839,-313.3C839,-304.3 839,-294.65 839,-286.51"/>
<polygon fill="midnightblue" stroke="midnightblue" points="835.5,-313.43 839,-323.43 842.5,-313.43 835.5,-313.43"/>
</g>
<!-- Node4 -->
<g id="node4" class="node">
<title>Node4</title>
<g id="a_node4"><a xlink:href="sign-test_8cpp_source.html" target="_top" xlink:title=" ">
<polygon fill="none" stroke="black" points="1463,-167.5 1463,-208.5 1593,-208.5 1593,-167.5 1463,-167.5"/>
<text text-anchor="start" x="1471" y="-196.5" font-family="Helvetica,sans-Serif" font-size="10.00">/home/ugovaretto/projects</text>
<text text-anchor="start" x="1471" y="-185.5" font-family="Helvetica,sans-Serif" font-size="10.00">/uv&#45;cpp/s3client/repo/test</text>
<text text-anchor="middle" x="1528" y="-174.5" font-family="Helvetica,sans-Serif" font-size="10.00">/sign&#45;test.cpp</text>
</a>
</g>
</g>
<!-- Node3&#45;&gt;Node4 -->
<g id="edge3" class="edge">
<title>Node3&#45;&gt;Node4</title>
<path fill="none" stroke="midnightblue" d="M1306.07,-244.76C1372.63,-227.88 1390.96,-225.13 1454,-209 1456.84,-208.27 1459.73,-207.53 1462.66,-206.76"/>
<polygon fill="midnightblue" stroke="midnightblue" points="1305.17,-241.38 1296.34,-247.24 1306.9,-248.16 1305.17,-241.38"/>
</g>
<!-- Node5 -->
<g id="node5" class="node">
<title>Node5</title>
<g id="a_node5"><a xlink:href="presign-url-test_8cpp_source.html" target="_top" xlink:title=" ">
<polygon fill="none" stroke="black" points="1611,-167.5 1611,-208.5 1741,-208.5 1741,-167.5 1611,-167.5"/>
<text text-anchor="start" x="1619" y="-196.5" font-family="Helvetica,sans-Serif" font-size="10.00">/home/ugovaretto/projects</text>
<text text-anchor="start" x="1619" y="-185.5" font-family="Helvetica,sans-Serif" font-size="10.00">/uv&#45;cpp/s3client/repo/test</text>
<text text-anchor="middle" x="1676" y="-174.5" font-family="Helvetica,sans-Serif" font-size="10.00">/presign&#45;url&#45;test.cpp</text>
</a>
</g>
</g>
<!-- Node3&#45;&gt;Node5 -->
<g id="edge4" class="edge">
<title>Node3&#45;&gt;Node5</title>
<path fill="none" stroke="midnightblue" d="M1306.27,-244.9C1437.33,-220.29 1474.67,-233.79 1602,-209 1604.87,-208.44 1607.8,-207.83 1610.75,-207.18"/>
<polygon fill="midnightblue" stroke="midnightblue" points="1305.41,-241.5 1296.25,-246.82 1306.73,-248.37 1305.41,-241.5"/>
</g>
<!-- Node6 -->
<g id="node6" class="node">
<title>Node6</title>
<g id="a_node6"><a xlink:href="bucket_8cpp_source.html" target="_top" xlink:title=" ">
<polygon fill="none" stroke="black" points="1741,-89.5 1741,-130.5 1871,-130.5 1871,-89.5 1741,-89.5"/>
<text text-anchor="start" x="1749" y="-118.5" font-family="Helvetica,sans-Serif" font-size="10.00">/home/ugovaretto/projects</text>
<text text-anchor="start" x="1749" y="-107.5" font-family="Helvetica,sans-Serif" font-size="10.00">/uv&#45;cpp/s3client/repo/lib</text>
<text text-anchor="middle" x="1806" y="-96.5" font-family="Helvetica,sans-Serif" font-size="10.00">/src/api/bucket.cpp</text>
</a>
</g>
</g>
<!-- Node3&#45;&gt;Node6 -->
<g id="edge5" class="edge">
<title>Node3&#45;&gt;Node6</title>
<path fill="none" stroke="midnightblue" d="M1306.36,-245.13C1422.85,-229.9 1687.6,-268.76 1768,-209 1792.75,-190.6 1801.38,-153.79 1804.39,-130.89"/>
<polygon fill="midnightblue" stroke="midnightblue" points="1305.59,-241.71 1296.22,-246.66 1306.63,-248.63 1305.59,-241.71"/>
</g>
<!-- Node7 -->
<g id="node7" class="node">
<title>Node7</title>
<g id="a_node7"><a xlink:href="object_8cpp_source.html" target="_top" xlink:title=" ">
<polygon fill="none" stroke="black" points="1591,-89.5 1591,-130.5 1721,-130.5 1721,-89.5 1591,-89.5"/>
<text text-anchor="start" x="1599" y="-118.5" font-family="Helvetica,sans-Serif" font-size="10.00">/home/ugovaretto/projects</text>
<text text-anchor="start" x="1599" y="-107.5" font-family="Helvetica,sans-Serif" font-size="10.00">/uv&#45;cpp/s3client/repo/lib</text>
<text text-anchor="middle" x="1656" y="-96.5" font-family="Helvetica,sans-Serif" font-size="10.00">/src/api/object.cpp</text>
</a>
</g>
</g>
<!-- Node3&#45;&gt;Node7 -->
<g id="edge6" class="edge">
<title>Node3&#45;&gt;Node7</title>
<path fill="none" stroke="midnightblue" d="M1306.28,-245.36C1387.13,-237.23 1717.94,-243.75 1750,-209 1762.66,-195.28 1759.22,-183.23 1750,-167 1740.99,-151.15 1725.52,-139.31 1709.7,-130.7"/>
<polygon fill="midnightblue" stroke="midnightblue" points="1305.69,-241.91 1296.22,-246.68 1306.59,-248.85 1305.69,-241.91"/>
</g>
<!-- Node8 -->
<g id="node8" class="node">
<title>Node8</title>
<g id="a_node8"><a xlink:href="multipart__upload_8cpp_source.html" target="_top" xlink:title=" ">
<polygon fill="none" stroke="black" points="239,-89.5 239,-130.5 381,-130.5 381,-89.5 239,-89.5"/>
<text text-anchor="start" x="247" y="-118.5" font-family="Helvetica,sans-Serif" font-size="10.00">/home/ugovaretto/projects</text>
<text text-anchor="start" x="247" y="-107.5" font-family="Helvetica,sans-Serif" font-size="10.00">/uv&#45;cpp/s3client/repo/lib</text>
<text text-anchor="middle" x="310" y="-96.5" font-family="Helvetica,sans-Serif" font-size="10.00">/src/api/multipart_upload.cpp</text>
</a>
</g>
</g>
<!-- Node3&#45;&gt;Node8 -->
<g id="edge7" class="edge">
<title>Node3&#45;&gt;Node8</title>
<path fill="none" stroke="midnightblue" d="M1155.81,-261.49C1047.95,-255.54 843.39,-240.87 672,-209 602.67,-196.11 587.06,-185.46 519,-167 473.14,-154.56 421.57,-140.74 381.13,-129.94"/>
<polygon fill="midnightblue" stroke="midnightblue" points="1155.77,-264.99 1165.94,-262.03 1156.15,-258 1155.77,-264.99"/>
</g>
<!-- Node9 -->
<g id="node9" class="node">
<title>Node9</title>
<g id="a_node9"><a xlink:href="parallel__download_8cpp.html" target="_top" xlink:title="Parallel object download download from S3 service.">
<polygon fill="none" stroke="black" points="1835.5,-167.5 1835.5,-208.5 1966.5,-208.5 1966.5,-167.5 1835.5,-167.5"/>
<text text-anchor="start" x="1843.5" y="-196.5" font-family="Helvetica,sans-Serif" font-size="10.00">/home/ugovaretto/projects</text>
<text text-anchor="start" x="1843.5" y="-185.5" font-family="Helvetica,sans-Serif" font-size="10.00">/uv&#45;cpp/s3client/repo/apps</text>
<text text-anchor="middle" x="1901" y="-174.5" font-family="Helvetica,sans-Serif" font-size="10.00">/parallel_download.cpp</text>
</a>
</g>
</g>
<!-- Node3&#45;&gt;Node9 -->
<g id="edge8" class="edge">
<title>Node3&#45;&gt;Node9</title>
<path fill="none" stroke="midnightblue" d="M1306.12,-244.99C1533.5,-207.9 1597.16,-244.51 1821,-209 1825.67,-208.26 1830.46,-207.38 1835.27,-206.4"/>
<polygon fill="midnightblue" stroke="midnightblue" points="1305.51,-241.54 1296.22,-246.64 1306.66,-248.45 1305.51,-241.54"/>
</g>
<!-- Node10 -->
<g id="node10" class="node">
<title>Node10</title>
<g id="a_node10"><a xlink:href="presign__url_8cpp.html" target="_top" xlink:title="Presign URL.">
<polygon fill="none" stroke="black" points="867.5,-167.5 867.5,-208.5 998.5,-208.5 998.5,-167.5 867.5,-167.5"/>
<text text-anchor="start" x="875.5" y="-196.5" font-family="Helvetica,sans-Serif" font-size="10.00">/home/ugovaretto/projects</text>
<text text-anchor="start" x="875.5" y="-185.5" font-family="Helvetica,sans-Serif" font-size="10.00">/uv&#45;cpp/s3client/repo/apps</text>
<text text-anchor="middle" x="933" y="-174.5" font-family="Helvetica,sans-Serif" font-size="10.00">/presign_url.cpp</text>
</a>
</g>
</g>
<!-- Node3&#45;&gt;Node10 -->
<g id="edge9" class="edge">
<title>Node3&#45;&gt;Node10</title>
<path fill="none" stroke="midnightblue" d="M1155.8,-246.58C1112.28,-235.82 1056.49,-221.87 1007,-209 1004.3,-208.3 1001.54,-207.57 998.75,-206.84"/>
<polygon fill="midnightblue" stroke="midnightblue" points="1155.19,-250.03 1165.73,-249.03 1156.87,-243.24 1155.19,-250.03"/>
</g>
<!-- Node11 -->
<g id="node11" class="node">
<title>Node11</title>
<g id="a_node11"><a xlink:href="apps_2s3-client_8cpp.html" target="_top" xlink:title="Send S3v4&#45;signed requests to S3 andpoint and print raw responses.">
<polygon fill="none" stroke="black" points="1016.5,-167.5 1016.5,-208.5 1147.5,-208.5 1147.5,-167.5 1016.5,-167.5"/>
<text text-anchor="start" x="1024.5" y="-196.5" font-family="Helvetica,sans-Serif" font-size="10.00">/home/ugovaretto/projects</text>
<text text-anchor="start" x="1024.5" y="-185.5" font-family="Helvetica,sans-Serif" font-size="10.00">/uv&#45;cpp/s3client/repo/apps</text>
<text text-anchor="middle" x="1082" y="-174.5" font-family="Helvetica,sans-Serif" font-size="10.00">/s3&#45;client.cpp</text>
</a>
</g>
</g>
<!-- Node3&#45;&gt;Node11 -->
<g id="edge10" class="edge">
<title>Node3&#45;&gt;Node11</title>
<path fill="none" stroke="midnightblue" d="M1183.49,-240.77C1163.07,-230.35 1139.51,-218.34 1120.24,-208.51"/>
<polygon fill="midnightblue" stroke="midnightblue" points="1182.13,-244 1192.63,-245.43 1185.31,-237.77 1182.13,-244"/>
</g>
<!-- Node12 -->
<g id="node12" class="node">
<title>Node12</title>
<g id="a_node12"><a xlink:href="parallel__upload_8cpp.html" target="_top" xlink:title="Parallel upload to S3 service.">
<polygon fill="none" stroke="black" points="1165.5,-167.5 1165.5,-208.5 1296.5,-208.5 1296.5,-167.5 1165.5,-167.5"/>
<text text-anchor="start" x="1173.5" y="-196.5" font-family="Helvetica,sans-Serif" font-size="10.00">/home/ugovaretto/projects</text>
<text text-anchor="start" x="1173.5" y="-185.5" font-family="Helvetica,sans-Serif" font-size="10.00">/uv&#45;cpp/s3client/repo/apps</text>
<text text-anchor="middle" x="1231" y="-174.5" font-family="Helvetica,sans-Serif" font-size="10.00">/parallel_upload.cpp</text>
</a>
</g>
</g>
<!-- Node3&#45;&gt;Node12 -->
<g id="edge11" class="edge">
<title>Node3&#45;&gt;Node12</title>
<path fill="none" stroke="midnightblue" d="M1231,-235.3C1231,-226.3 1231,-216.65 1231,-208.51"/>
<polygon fill="midnightblue" stroke="midnightblue" points="1227.5,-235.43 1231,-245.43 1234.5,-235.43 1227.5,-235.43"/>
</g>
<!-- Node13 -->
<g id="node13" class="node">
<title>Node13</title>
<g id="a_node13"><a xlink:href="lib_2src_2s3-client_8cpp_source.html" target="_top" xlink:title=" ">
<polygon fill="none" stroke="black" points="1315,-167.5 1315,-208.5 1445,-208.5 1445,-167.5 1315,-167.5"/>
<text text-anchor="start" x="1323" y="-196.5" font-family="Helvetica,sans-Serif" font-size="10.00">/home/ugovaretto/projects</text>
<text text-anchor="start" x="1323" y="-185.5" font-family="Helvetica,sans-Serif" font-size="10.00">/uv&#45;cpp/s3client/repo/lib</text>
<text text-anchor="middle" x="1380" y="-174.5" font-family="Helvetica,sans-Serif" font-size="10.00">/src/s3&#45;client.cpp</text>
</a>
</g>
</g>
<!-- Node3&#45;&gt;Node13 -->
<g id="edge12" class="edge">
<title>Node3&#45;&gt;Node13</title>
<path fill="none" stroke="midnightblue" d="M1278.51,-240.77C1298.93,-230.35 1322.49,-218.34 1341.76,-208.51"/>
<polygon fill="midnightblue" stroke="midnightblue" points="1276.69,-237.77 1269.37,-245.43 1279.87,-244 1276.69,-237.77"/>
</g>
<!-- Node3&#45;&gt;Node14 -->
<g id="edge13" class="edge">
<title>Node3&#45;&gt;Node14</title>
<path fill="none" stroke="midnightblue" d="M1155.55,-254.3C1080.13,-243.45 960.91,-225.91 858,-209 842.8,-206.5 826.46,-203.67 811.09,-200.94"/>
<polygon fill="midnightblue" stroke="midnightblue" points="1155.5,-257.83 1165.89,-255.78 1156.49,-250.9 1155.5,-257.83"/>
</g>
<!-- Node14&#45;&gt;Node6 -->
<g id="edge19" class="edge">
<title>Node14&#45;&gt;Node6</title>
<path fill="none" stroke="midnightblue" d="M821.38,-172.1C833.58,-170.11 846.11,-168.3 858,-167 1243.58,-124.81 1346.43,-188.69 1730,-131 1733.51,-130.47 1737.09,-129.85 1740.69,-129.15"/>
<polygon fill="midnightblue" stroke="midnightblue" points="820.5,-168.7 811.23,-173.82 821.67,-175.6 820.5,-168.7"/>
</g>
<!-- Node14&#45;&gt;Node7 -->
<g id="edge22" class="edge">
<title>Node14&#45;&gt;Node7</title>
<path fill="none" stroke="midnightblue" d="M821.2,-167.6C822.47,-167.39 823.74,-167.19 825,-167 1158.16,-117.42 1249.25,-183.25 1582,-131 1584.89,-130.55 1587.83,-130.02 1590.8,-129.44"/>
<polygon fill="midnightblue" stroke="midnightblue" points="820.53,-164.16 811.32,-169.39 821.78,-171.05 820.53,-164.16"/>
</g>
<!-- Node14&#45;&gt;Node8 -->
<g id="edge24" class="edge">
<title>Node14&#45;&gt;Node8</title>
<path fill="none" stroke="midnightblue" d="M670.5,-176.58C599.23,-166.36 489.49,-149.63 395,-131 390.54,-130.12 385.95,-129.17 381.34,-128.18"/>
<polygon fill="midnightblue" stroke="midnightblue" points="670.34,-180.09 680.73,-178.04 671.33,-173.16 670.34,-180.09"/>
</g>
<!-- Node15 -->
<g id="node15" class="node">
<title>Node15</title>
<g id="a_node15"><a xlink:href="object-test_8cpp_source.html" target="_top" xlink:title=" ">
<polygon fill="none" stroke="black" points="0,-6 0,-47 130,-47 130,-6 0,-6"/>
<text text-anchor="start" x="8" y="-35" font-family="Helvetica,sans-Serif" font-size="10.00">/home/ugovaretto/projects</text>
<text text-anchor="start" x="8" y="-24" font-family="Helvetica,sans-Serif" font-size="10.00">/uv&#45;cpp/s3client/repo/test</text>
<text text-anchor="middle" x="65" y="-13" font-family="Helvetica,sans-Serif" font-size="10.00">/api/object&#45;test.cpp</text>
</a>
</g>
</g>
<!-- Node14&#45;&gt;Node15 -->
<g id="edge14" class="edge">
<title>Node14&#45;&gt;Node15</title>
<path fill="none" stroke="midnightblue" d="M670.72,-176.84C582.01,-164.42 443.97,-143.52 423,-131 402.62,-118.83 410.56,-100.87 390,-89 292.4,-32.65 248.54,-79.48 139,-53 132.13,-51.34 125,-49.3 118,-47.11"/>
<polygon fill="midnightblue" stroke="midnightblue" points="670.35,-180.33 680.74,-178.24 671.32,-173.39 670.35,-180.33"/>
</g>
<!-- Node16 -->
<g id="node16" class="node">
<title>Node16</title>
<g id="a_node16"><a xlink:href="multipart-upload-test_8cpp_source.html" target="_top" xlink:title=" ">
<polygon fill="none" stroke="black" points="148.5,-6 148.5,-47 291.5,-47 291.5,-6 148.5,-6"/>
<text text-anchor="start" x="156.5" y="-35" font-family="Helvetica,sans-Serif" font-size="10.00">/home/ugovaretto/projects</text>
<text text-anchor="start" x="156.5" y="-24" font-family="Helvetica,sans-Serif" font-size="10.00">/uv&#45;cpp/s3client/repo/test</text>
<text text-anchor="middle" x="220" y="-13" font-family="Helvetica,sans-Serif" font-size="10.00">/api/multipart&#45;upload&#45;test.cpp</text>
</a>
</g>
</g>
<!-- Node14&#45;&gt;Node16 -->
<g id="edge15" class="edge">
<title>Node14&#45;&gt;Node16</title>
<path fill="none" stroke="midnightblue" d="M670.93,-177.7C598.94,-167.81 496.16,-150.88 461,-131 439.09,-118.61 444.31,-102.4 423,-89 375.14,-58.92 355.08,-69.49 301,-53 294.8,-51.11 288.33,-49.11 281.88,-47.11"/>
<polygon fill="midnightblue" stroke="midnightblue" points="670.49,-181.17 680.87,-179.05 671.43,-174.23 670.49,-181.17"/>
</g>
<!-- Node17 -->
<g id="node17" class="node">
<title>Node17</title>
<g id="a_node17"><a xlink:href="fileobject-test_8cpp_source.html" target="_top" xlink:title=" ">
<polygon fill="none" stroke="black" points="310,-6 310,-47 440,-47 440,-6 310,-6"/>
<text text-anchor="start" x="318" y="-35" font-family="Helvetica,sans-Serif" font-size="10.00">/home/ugovaretto/projects</text>
<text text-anchor="start" x="318" y="-24" font-family="Helvetica,sans-Serif" font-size="10.00">/uv&#45;cpp/s3client/repo/test</text>
<text text-anchor="middle" x="375" y="-13" font-family="Helvetica,sans-Serif" font-size="10.00">/api/fileobject&#45;test.cpp</text>
</a>
</g>
</g>
<!-- Node14&#45;&gt;Node17 -->
<g id="edge16" class="edge">
<title>Node14&#45;&gt;Node17</title>
<path fill="none" stroke="midnightblue" d="M670.5,-175.66C625.41,-167.11 567.79,-153 520,-131 519.19,-130.63 444.23,-77.03 402.43,-47.12"/>
<polygon fill="midnightblue" stroke="midnightblue" points="670.04,-179.13 680.51,-177.5 671.31,-172.25 670.04,-179.13"/>
</g>
<!-- Node18 -->
<g id="node18" class="node">
<title>Node18</title>
<g id="a_node18"><a xlink:href="abort-multipart-upload-test_8cpp_source.html" target="_top" xlink:title=" ">
<polygon fill="none" stroke="black" points="458,-0.5 458,-52.5 588,-52.5 588,-0.5 458,-0.5"/>
<text text-anchor="start" x="466" y="-40.5" font-family="Helvetica,sans-Serif" font-size="10.00">/home/ugovaretto/projects</text>
<text text-anchor="start" x="466" y="-29.5" font-family="Helvetica,sans-Serif" font-size="10.00">/uv&#45;cpp/s3client/repo/test</text>
<text text-anchor="start" x="466" y="-18.5" font-family="Helvetica,sans-Serif" font-size="10.00">/api/abort&#45;multipart&#45;upload</text>
<text text-anchor="middle" x="523" y="-7.5" font-family="Helvetica,sans-Serif" font-size="10.00">&#45;test.cpp</text>
</a>
</g>
</g>
<!-- Node14&#45;&gt;Node18 -->
<g id="edge17" class="edge">
<title>Node14&#45;&gt;Node18</title>
<path fill="none" stroke="midnightblue" d="M670.94,-174.97C620.29,-165.3 559.6,-150.19 542,-131 522.74,-110 519.89,-76.16 520.61,-52.93"/>
<polygon fill="midnightblue" stroke="midnightblue" points="670.44,-178.43 680.92,-176.83 671.73,-171.55 670.44,-178.43"/>
</g>
<!-- Node19 -->
<g id="node19" class="node">
<title>Node19</title>
<g id="a_node19"><a xlink:href="parallel-file-transfer-test_8cpp_source.html" target="_top" xlink:title=" ">
<polygon fill="none" stroke="black" points="754,-6 754,-47 894,-47 894,-6 754,-6"/>
<text text-anchor="start" x="762" y="-35" font-family="Helvetica,sans-Serif" font-size="10.00">/home/ugovaretto/projects</text>
<text text-anchor="start" x="762" y="-24" font-family="Helvetica,sans-Serif" font-size="10.00">/uv&#45;cpp/s3client/repo/test</text>
<text text-anchor="middle" x="824" y="-13" font-family="Helvetica,sans-Serif" font-size="10.00">/parallel&#45;file&#45;transfer&#45;test.cpp</text>
</a>
</g>
</g>
<!-- Node14&#45;&gt;Node19 -->
<g id="edge18" class="edge">
<title>Node14&#45;&gt;Node19</title>
<path fill="none" stroke="midnightblue" d="M733.48,-157.98C726.68,-137.57 721.72,-110.23 733,-89 742.66,-70.81 760.37,-57.03 777.61,-47.16"/>
<polygon fill="midnightblue" stroke="midnightblue" points="730.19,-159.18 736.9,-167.38 736.77,-156.78 730.19,-159.18"/>
</g>
<!-- Node20 -->
<g id="node20" class="node">
<title>Node20</title>
<g id="a_node20"><a xlink:href="xml-parse-test_8cpp_source.html" target="_top" xlink:title=" ">
<polygon fill="none" stroke="black" points="813,-89.5 813,-130.5 943,-130.5 943,-89.5 813,-89.5"/>
<text text-anchor="start" x="821" y="-118.5" font-family="Helvetica,sans-Serif" font-size="10.00">/home/ugovaretto/projects</text>
<text text-anchor="start" x="821" y="-107.5" font-family="Helvetica,sans-Serif" font-size="10.00">/uv&#45;cpp/s3client/repo/test</text>
<text text-anchor="middle" x="878" y="-96.5" font-family="Helvetica,sans-Serif" font-size="10.00">/xml&#45;parse&#45;test.cpp</text>
</a>
</g>
</g>
<!-- Node14&#45;&gt;Node20 -->
<g id="edge20" class="edge">
<title>Node14&#45;&gt;Node20</title>
<path fill="none" stroke="midnightblue" d="M789.07,-162.2C806.93,-151.92 827.36,-140.16 844.12,-130.51"/>
<polygon fill="midnightblue" stroke="midnightblue" points="786.91,-159.41 779.99,-167.43 790.41,-165.47 786.91,-159.41"/>
</g>
<!-- Node21 -->
<g id="node21" class="node">
<title>Node21</title>
<g id="a_node21"><a xlink:href="multipart-upload-file-test_8cpp_source.html" target="_top" xlink:title=" ">
<polygon fill="none" stroke="black" points="912,-0.5 912,-52.5 1042,-52.5 1042,-0.5 912,-0.5"/>
<text text-anchor="start" x="920" y="-40.5" font-family="Helvetica,sans-Serif" font-size="10.00">/home/ugovaretto/projects</text>
<text text-anchor="start" x="920" y="-29.5" font-family="Helvetica,sans-Serif" font-size="10.00">/uv&#45;cpp/s3client/repo/test</text>
<text text-anchor="start" x="920" y="-18.5" font-family="Helvetica,sans-Serif" font-size="10.00">/api/multipart&#45;upload&#45;file</text>
<text text-anchor="middle" x="977" y="-7.5" font-family="Helvetica,sans-Serif" font-size="10.00">&#45;test.cpp</text>
</a>
</g>
</g>
<!-- Node14&#45;&gt;Node21 -->
<g id="edge21" class="edge">
<title>Node14&#45;&gt;Node21</title>
<path fill="none" stroke="midnightblue" d="M746,-157.27C747.61,-135.59 753.33,-106.96 771,-89 813.64,-45.65 844.89,-70.92 903,-53 905.86,-52.12 908.77,-51.2 911.71,-50.26"/>
<polygon fill="midnightblue" stroke="midnightblue" points="742.51,-157.12 745.51,-167.28 749.5,-157.47 742.51,-157.12"/>
</g>
<!-- Node22 -->
<g id="node22" class="node">
<title>Node22</title>
<g id="a_node22"><a xlink:href="bucket-test_8cpp.html" target="_top" xlink:title="bucket tests">
<polygon fill="none" stroke="black" points="1060,-6 1060,-47 1190,-47 1190,-6 1060,-6"/>
<text text-anchor="start" x="1068" y="-35" font-family="Helvetica,sans-Serif" font-size="10.00">/home/ugovaretto/projects</text>
<text text-anchor="start" x="1068" y="-24" font-family="Helvetica,sans-Serif" font-size="10.00">/uv&#45;cpp/s3client/repo/test</text>
<text text-anchor="middle" x="1125" y="-13" font-family="Helvetica,sans-Serif" font-size="10.00">/api/bucket&#45;test.cpp</text>
</a>
</g>
</g>
<!-- Node14&#45;&gt;Node22 -->
<g id="edge23" class="edge">
<title>Node14&#45;&gt;Node22</title>
<path fill="none" stroke="midnightblue" d="M759.76,-157.78C772.44,-132.13 791.19,-97.59 804,-89 896.15,-27.23 943.2,-79.19 1051,-53 1057.87,-51.33 1065,-49.29 1072,-47.09"/>
<polygon fill="midnightblue" stroke="midnightblue" points="756.45,-156.59 755.22,-167.11 762.74,-159.65 756.45,-156.59"/>
</g>
<!-- Node23 -->
<g id="node23" class="node">
<title>Node23</title>
<g id="a_node23"><a xlink:href="s3-api_8cpp_source.html" target="_top" xlink:title=" ">
<polygon fill="none" stroke="black" points="961,-89.5 961,-130.5 1091,-130.5 1091,-89.5 961,-89.5"/>
<text text-anchor="start" x="969" y="-118.5" font-family="Helvetica,sans-Serif" font-size="10.00">/home/ugovaretto/projects</text>
<text text-anchor="start" x="969" y="-107.5" font-family="Helvetica,sans-Serif" font-size="10.00">/uv&#45;cpp/s3client/repo/lib</text>
<text text-anchor="middle" x="1026" y="-96.5" font-family="Helvetica,sans-Serif" font-size="10.00">/src/api/s3&#45;api.cpp</text>
</a>
</g>
</g>
<!-- Node14&#45;&gt;Node23 -->
<g id="edge25" class="edge">
<title>Node14&#45;&gt;Node23</title>
<path fill="none" stroke="midnightblue" d="M820.98,-166.65C864.51,-154.83 918.82,-140.09 960.6,-128.75"/>
<polygon fill="midnightblue" stroke="midnightblue" points="820.03,-163.28 811.29,-169.28 821.86,-170.04 820.03,-163.28"/>
</g>
<!-- Node24 -->
<g id="node24" class="node">
<title>Node24</title>
<g id="a_node24"><a xlink:href="download-file_8cpp_source.html" target="_top" xlink:title=" ">
<polygon fill="none" stroke="black" points="1109,-89.5 1109,-130.5 1239,-130.5 1239,-89.5 1109,-89.5"/>
<text text-anchor="start" x="1117" y="-118.5" font-family="Helvetica,sans-Serif" font-size="10.00">/home/ugovaretto/projects</text>
<text text-anchor="start" x="1117" y="-107.5" font-family="Helvetica,sans-Serif" font-size="10.00">/uv&#45;cpp/s3client/repo/lib</text>
<text text-anchor="middle" x="1174" y="-96.5" font-family="Helvetica,sans-Serif" font-size="10.00">/src/download&#45;file.cpp</text>
</a>
</g>
</g>
<!-- Node14&#45;&gt;Node24 -->
<g id="edge26" class="edge">
<title>Node14&#45;&gt;Node24</title>
<path fill="none" stroke="midnightblue" d="M821.22,-167.74C822.49,-167.49 823.75,-167.24 825,-167 946.07,-143.83 979.12,-155.13 1100,-131 1102.87,-130.43 1105.8,-129.8 1108.74,-129.15"/>
<polygon fill="midnightblue" stroke="midnightblue" points="820.45,-164.33 811.39,-169.81 821.9,-171.17 820.45,-164.33"/>
</g>
<!-- Node25 -->
<g id="node25" class="node">
<title>Node25</title>
<g id="a_node25"><a xlink:href="xml__parser_8cpp_source.html" target="_top" xlink:title=" ">
<polygon fill="none" stroke="black" points="1252,-6 1252,-47 1382,-47 1382,-6 1252,-6"/>
<text text-anchor="start" x="1260" y="-35" font-family="Helvetica,sans-Serif" font-size="10.00">/home/ugovaretto/projects</text>
<text text-anchor="start" x="1260" y="-24" font-family="Helvetica,sans-Serif" font-size="10.00">/uv&#45;cpp/s3client/repo/lib</text>
<text text-anchor="middle" x="1317" y="-13" font-family="Helvetica,sans-Serif" font-size="10.00">/src/api/xml_parser.cpp</text>
</a>
</g>
</g>
<!-- Node14&#45;&gt;Node25 -->
<g id="edge27" class="edge">
<title>Node14&#45;&gt;Node25</title>
<path fill="none" stroke="midnightblue" d="M821.21,-167.66C822.48,-167.43 823.74,-167.21 825,-167 918.04,-151.37 1166.79,-179 1248,-131 1264.64,-121.16 1291.74,-74.48 1306.54,-47.29"/>
<polygon fill="midnightblue" stroke="midnightblue" points="820.5,-164.23 811.35,-169.58 821.84,-171.1 820.5,-164.23"/>
</g>
<!-- Node26 -->
<g id="node26" class="node">
<title>Node26</title>
<g id="a_node26"><a xlink:href="upload-file_8cpp_source.html" target="_top" xlink:title=" ">
<polygon fill="none" stroke="black" points="1443,-89.5 1443,-130.5 1573,-130.5 1573,-89.5 1443,-89.5"/>
<text text-anchor="start" x="1451" y="-118.5" font-family="Helvetica,sans-Serif" font-size="10.00">/home/ugovaretto/projects</text>
<text text-anchor="start" x="1451" y="-107.5" font-family="Helvetica,sans-Serif" font-size="10.00">/uv&#45;cpp/s3client/repo/lib</text>
<text text-anchor="middle" x="1508" y="-96.5" font-family="Helvetica,sans-Serif" font-size="10.00">/src/upload&#45;file.cpp</text>
</a>
</g>
</g>
<!-- Node14&#45;&gt;Node26 -->
<g id="edge28" class="edge">
<title>Node14&#45;&gt;Node26</title>
<path fill="none" stroke="midnightblue" d="M821.2,-167.62C822.47,-167.4 823.74,-167.19 825,-167 1092.95,-125.54 1166.39,-174.6 1434,-131 1436.89,-130.53 1439.83,-129.99 1442.79,-129.4"/>
<polygon fill="midnightblue" stroke="midnightblue" points="820.52,-164.18 811.33,-169.45 821.8,-171.06 820.52,-164.18"/>
</g>
<!-- Node27 -->
<g id="node27" class="node">
<title>Node27</title>
<g id="a_node27"><a xlink:href="test_2utility_8h_source.html" target="_top" xlink:title=" ">
<polygon fill="none" stroke="black" points="551,-89.5 551,-130.5 681,-130.5 681,-89.5 551,-89.5"/>
<text text-anchor="start" x="559" y="-118.5" font-family="Helvetica,sans-Serif" font-size="10.00">/home/ugovaretto/projects</text>
<text text-anchor="start" x="559" y="-107.5" font-family="Helvetica,sans-Serif" font-size="10.00">/uv&#45;cpp/s3client/repo/test</text>
<text text-anchor="middle" x="616" y="-96.5" font-family="Helvetica,sans-Serif" font-size="10.00">/utility.h</text>
</a>
</g>
</g>
<!-- Node14&#45;&gt;Node27 -->
<g id="edge29" class="edge">
<title>Node14&#45;&gt;Node27</title>
<path fill="none" stroke="midnightblue" d="M703.58,-162.2C685.99,-151.92 665.88,-140.16 649.36,-130.51"/>
<polygon fill="midnightblue" stroke="midnightblue" points="702.12,-165.4 712.52,-167.43 705.66,-159.36 702.12,-165.4"/>
</g>
<!-- Node29 -->
<g id="node29" class="node">
<title>Node29</title>
<g id="a_node29"><a xlink:href="xmlstreams_8h.html" target="_top" xlink:title="xml parser and generator.">
<polygon fill="none" stroke="black" points="1295,-89.5 1295,-130.5 1425,-130.5 1425,-89.5 1295,-89.5"/>
<text text-anchor="start" x="1303" y="-118.5" font-family="Helvetica,sans-Serif" font-size="10.00">/home/ugovaretto/projects</text>
<text text-anchor="start" x="1303" y="-107.5" font-family="Helvetica,sans-Serif" font-size="10.00">/uv&#45;cpp/s3client/repo/lib</text>
<text text-anchor="middle" x="1360" y="-96.5" font-family="Helvetica,sans-Serif" font-size="10.00">/include/xmlstreams.h</text>
</a>
</g>
</g>
<!-- Node14&#45;&gt;Node29 -->
<g id="edge38" class="edge">
<title>Node14&#45;&gt;Node29</title>
<path fill="none" stroke="midnightblue" d="M821.21,-167.65C822.48,-167.42 823.74,-167.21 825,-167 1025.59,-133.93 1080.41,-164.07 1281,-131 1285.47,-130.26 1290.05,-129.4 1294.65,-128.45"/>
<polygon fill="midnightblue" stroke="midnightblue" points="820.5,-164.22 811.35,-169.55 821.83,-171.1 820.5,-164.22"/>
</g>
<!-- Node27&#45;&gt;Node15 -->
<g id="edge31" class="edge">
<title>Node27&#45;&gt;Node15</title>
<path fill="none" stroke="midnightblue" d="M540.45,-101.03C415.84,-87.76 177.15,-61.71 139,-53 131.85,-51.37 124.42,-49.29 117.15,-47.03"/>
<polygon fill="midnightblue" stroke="midnightblue" points="540.37,-104.54 550.68,-102.12 541.11,-97.58 540.37,-104.54"/>
</g>
<!-- Node27&#45;&gt;Node16 -->
<g id="edge32" class="edge">
<title>Node27&#45;&gt;Node16</title>
<path fill="none" stroke="midnightblue" d="M540.9,-98.44C476.73,-88.75 382.16,-72.9 301,-53 293.84,-51.24 286.39,-49.2 279.03,-47.05"/>
<polygon fill="midnightblue" stroke="midnightblue" points="540.53,-101.92 550.94,-99.94 541.57,-95 540.53,-101.92"/>
</g>
<!-- Node27&#45;&gt;Node17 -->
<g id="edge33" class="edge">
<title>Node27&#45;&gt;Node17</title>
<path fill="none" stroke="midnightblue" d="M547.62,-86.21C517.37,-76.1 481.4,-64.01 449,-53 443.34,-51.08 437.44,-49.06 431.55,-47.04"/>
<polygon fill="midnightblue" stroke="midnightblue" points="546.63,-89.57 557.22,-89.42 548.85,-82.93 546.63,-89.57"/>
</g>
<!-- Node27&#45;&gt;Node18 -->
<g id="edge34" class="edge">
<title>Node27&#45;&gt;Node18</title>
<path fill="none" stroke="midnightblue" d="M585.79,-82.52C574.82,-72.92 562.48,-62.09 551.65,-52.61"/>
<polygon fill="midnightblue" stroke="midnightblue" points="583.66,-85.31 593.49,-89.27 588.27,-80.05 583.66,-85.31"/>
</g>
<!-- Node27&#45;&gt;Node19 -->
<g id="edge35" class="edge">
<title>Node27&#45;&gt;Node19</title>
<path fill="none" stroke="midnightblue" d="M675.3,-85.77C706.57,-73.51 744.5,-58.65 774.23,-47"/>
<polygon fill="midnightblue" stroke="midnightblue" points="673.86,-82.57 665.82,-89.48 676.41,-89.09 673.86,-82.57"/>
</g>
<!-- Node27&#45;&gt;Node21 -->
<g id="edge36" class="edge">
<title>Node27&#45;&gt;Node21</title>
<path fill="none" stroke="midnightblue" d="M691.37,-95.52C762.53,-82.57 863.98,-63.48 903,-53 905.89,-52.22 908.82,-51.39 911.78,-50.52"/>
<polygon fill="midnightblue" stroke="midnightblue" points="690.31,-92.16 681.1,-97.39 691.57,-99.04 690.31,-92.16"/>
</g>
<!-- Node27&#45;&gt;Node22 -->
<g id="edge37" class="edge">
<title>Node27&#45;&gt;Node22</title>
<path fill="none" stroke="midnightblue" d="M691.16,-99.3C716.52,-96.02 744.99,-92.35 771,-89 895.44,-72.97 928.83,-81.59 1051,-53 1058.01,-51.36 1065.29,-49.3 1072.43,-47.08"/>
<polygon fill="midnightblue" stroke="midnightblue" points="690.7,-95.82 681.23,-100.58 691.6,-102.77 690.7,-95.82"/>
</g>
<!-- Node28 -->
<g id="node28" class="node">
<title>Node28</title>
<g id="a_node28"><a xlink:href="test_2utility_8cpp_source.html" target="_top" xlink:title=" ">
<polygon fill="none" stroke="black" points="606,-6 606,-47 736,-47 736,-6 606,-6"/>
<text text-anchor="start" x="614" y="-35" font-family="Helvetica,sans-Serif" font-size="10.00">/home/ugovaretto/projects</text>
<text text-anchor="start" x="614" y="-24" font-family="Helvetica,sans-Serif" font-size="10.00">/uv&#45;cpp/s3client/repo/test</text>
<text text-anchor="middle" x="671" y="-13" font-family="Helvetica,sans-Serif" font-size="10.00">/utility.cpp</text>
</a>
</g>
</g>
<!-- Node27&#45;&gt;Node28 -->
<g id="edge30" class="edge">
<title>Node27&#45;&gt;Node28</title>
<path fill="none" stroke="midnightblue" d="M635.08,-80.72C642.58,-69.61 651,-57.13 657.81,-47.05"/>
<polygon fill="midnightblue" stroke="midnightblue" points="632.01,-79.02 629.31,-89.27 637.81,-82.94 632.01,-79.02"/>
</g>
<!-- Node29&#45;&gt;Node25 -->
<g id="edge39" class="edge">
<title>Node29&#45;&gt;Node25</title>
<path fill="none" stroke="midnightblue" d="M1344.91,-80.39C1339.09,-69.37 1332.58,-57.03 1327.31,-47.05"/>
<polygon fill="midnightblue" stroke="midnightblue" points="1341.83,-82.06 1349.59,-89.27 1348.02,-78.79 1341.83,-82.06"/>
</g>
<!-- Node31&#45;&gt;Node7 -->
<g id="edge43" class="edge">
<title>Node31&#45;&gt;Node7</title>
<path fill="none" stroke="midnightblue" d="M835.91,-235.1C835.43,-212.81 838.99,-183.49 858,-167 918.85,-114.23 1502.44,-143.58 1582,-131 1584.89,-130.54 1587.83,-130.02 1590.79,-129.44"/>
<polygon fill="midnightblue" stroke="midnightblue" points="832.43,-235.57 836.43,-245.39 839.42,-235.23 832.43,-235.57"/>
</g>
<!-- Node31&#45;&gt;Node8 -->
<g id="edge44" class="edge">
<title>Node31&#45;&gt;Node8</title>
<path fill="none" stroke="midnightblue" d="M763.93,-251.18C695.86,-238.37 600.72,-219.74 564,-209 488.69,-186.97 404.25,-152.31 354.18,-130.65"/>
<polygon fill="midnightblue" stroke="midnightblue" points="763.3,-254.62 773.77,-253.02 764.59,-247.74 763.3,-254.62"/>
</g>
<!-- Node31&#45;&gt;Node14 -->
<g id="edge45" class="edge">
<title>Node31&#45;&gt;Node14</title>
<path fill="none" stroke="midnightblue" d="M807.26,-239.06C795.02,-229.06 781.25,-217.8 769.87,-208.51"/>
<polygon fill="midnightblue" stroke="midnightblue" points="805.09,-241.81 815.05,-245.43 809.52,-236.39 805.09,-241.81"/>
</g>
</g>
</svg>
