<?xml version="1.0" encoding="UTF-8" standalone="no"?>
<!DOCTYPE svg PUBLIC "-//W3C//DTD SVG 1.1//EN"
 "http://www.w3.org/Graphics/SVG/1.1/DTD/svg11.dtd">
<!-- Generated by graphviz version 2.43.0 (0)
 -->
<!-- Title: /home/ugovaretto/projects/uv&#45;cpp/s3client/repo/lib/include/webclient.h Pages: 1 -->
<svg width="762pt" height="284pt"
 viewBox="0.00 0.00 761.50 284.00" xmlns="http://www.w3.org/2000/svg" xmlns:xlink="http://www.w3.org/1999/xlink">
<g id="graph0" class="graph" transform="scale(1 1) rotate(0) translate(4 280)">
<title>/home/ugovaretto/projects/uv&#45;cpp/s3client/repo/lib/include/webclient.h</title>
<!-- Node1 -->
<g id="node1" class="node">
<title>Node1</title>
<g id="a_node1"><a xlink:title="declaration of WebClient class wrapping libcurl to send web requests.">
<polygon fill="#bfbfbf" stroke="black" points="530.5,-234.5 530.5,-275.5 660.5,-275.5 660.5,-234.5 530.5,-234.5"/>
<text text-anchor="start" x="538.5" y="-263.5" font-family="Helvetica,sans-Serif" font-size="10.00">/home/ugovaretto/projects</text>
<text text-anchor="start" x="538.5" y="-252.5" font-family="Helvetica,sans-Serif" font-size="10.00">/uv&#45;cpp/s3client/repo/lib</text>
<text text-anchor="middle" x="595.5" y="-241.5" font-family="Helvetica,sans-Serif" font-size="10.00">/include/webclient.h</text>
</a>
</g>
</g>
<!-- Node2 -->
<g id="node2" class="node">
<title>Node2</title>
<g id="a_node2"><a xlink:href="s3-client_8h.html" target="_top" xlink:title="declaration of functions and data types for sending S3 requests, signing URLs and downloading and upl...">
<polygon fill="none" stroke="black" points="372.5,-156.5 372.5,-197.5 502.5,-197.5 502.5,-156.5 372.5,-156.5"/>
<text text-anchor="start" x="380.5" y="-185.5" font-family="Helvetica,sans-Serif" font-size="10.00">/home/ugovaretto/projects</text>
<text text-anchor="start" x="380.5" y="-174.5" font-family="Helvetica,sans-Serif" font-size="10.00">/uv&#45;cpp/s3client/repo/lib</text>
<text text-anchor="middle" x="437.5" y="-163.5" font-family="Helvetica,sans-Serif" font-size="10.00">/include/s3&#45;client.h</text>
</a>
</g>
</g>
<!-- Node1&#45;&gt;Node2 -->
<g id="edge1" class="edge">
<title>Node1&#45;&gt;Node2</title>
<path fill="none" stroke="midnightblue" d="M545.71,-230.05C523.91,-219.57 498.67,-207.42 478.05,-197.51"/>
<polygon fill="midnightblue" stroke="midnightblue" points="544.28,-233.25 554.81,-234.43 547.32,-226.94 544.28,-233.25"/>
</g>
<!-- Node7 -->
<g id="node7" class="node">
<title>Node7</title>
<g id="a_node7"><a xlink:href="s3-api_8h.html" target="_top" xlink:title="declarations of S3Api class.">
<polygon fill="none" stroke="black" points="596.5,-78.5 596.5,-119.5 726.5,-119.5 726.5,-78.5 596.5,-78.5"/>
<text text-anchor="start" x="604.5" y="-107.5" font-family="Helvetica,sans-Serif" font-size="10.00">/home/ugovaretto/projects</text>
<text text-anchor="start" x="604.5" y="-96.5" font-family="Helvetica,sans-Serif" font-size="10.00">/uv&#45;cpp/s3client/repo/lib</text>
<text text-anchor="middle" x="661.5" y="-85.5" font-family="Helvetica,sans-Serif" font-size="10.00">/include/s3&#45;api.h</text>
</a>
</g>
</g>
<!-- Node1&#45;&gt;Node7 -->
<g id="edge9" class="edge">
<title>Node1&#45;&gt;Node7</title>
<path fill="none" stroke="midnightblue" d="M597.36,-224.19C599.54,-204.12 604.26,-177.48 614.5,-156 620.89,-142.6 631.26,-129.75 640.63,-119.74"/>
<polygon fill="midnightblue" stroke="midnightblue" points="593.86,-224.03 596.42,-234.32 600.83,-224.68 593.86,-224.03"/>
</g>
<!-- Node9 -->
<g id="node9" class="node">
<title>Node9</title>
<g id="a_node9"><a xlink:href="webclient_8cpp.html" target="_top" xlink:title="implementation of WebClient class, wrapper around libcurl">
<polygon fill="none" stroke="black" points="623.5,-156.5 623.5,-197.5 753.5,-197.5 753.5,-156.5 623.5,-156.5"/>
<text text-anchor="start" x="631.5" y="-185.5" font-family="Helvetica,sans-Serif" font-size="10.00">/home/ugovaretto/projects</text>
<text text-anchor="start" x="631.5" y="-174.5" font-family="Helvetica,sans-Serif" font-size="10.00">/uv&#45;cpp/s3client/repo/lib</text>
<text text-anchor="middle" x="688.5" y="-163.5" font-family="Helvetica,sans-Serif" font-size="10.00">/src/webclient.cpp</text>
</a>
</g>
</g>
<!-- Node1&#45;&gt;Node9 -->
<g id="edge8" class="edge">
<title>Node1&#45;&gt;Node9</title>
<path fill="none" stroke="midnightblue" d="M627.24,-228.06C639.48,-218.06 653.25,-206.8 664.63,-197.51"/>
<polygon fill="midnightblue" stroke="midnightblue" points="624.98,-225.39 619.45,-234.43 629.41,-230.81 624.98,-225.39"/>
</g>
<!-- Node3 -->
<g id="node3" class="node">
<title>Node3</title>
<g id="a_node3"><a xlink:href="apps_2s3-client_8cpp.html" target="_top" xlink:title="Send S3v4&#45;signed requests to S3 andpoint and print raw responses.">
<polygon fill="none" stroke="black" points="0,-78.5 0,-119.5 131,-119.5 131,-78.5 0,-78.5"/>
<text text-anchor="start" x="8" y="-107.5" font-family="Helvetica,sans-Serif" font-size="10.00">/home/ugovaretto/projects</text>
<text text-anchor="start" x="8" y="-96.5" font-family="Helvetica,sans-Serif" font-size="10.00">/uv&#45;cpp/s3client/repo/apps</text>
<text text-anchor="middle" x="65.5" y="-85.5" font-family="Helvetica,sans-Serif" font-size="10.00">/s3&#45;client.cpp</text>
</a>
</g>
</g>
<!-- Node2&#45;&gt;Node3 -->
<g id="edge2" class="edge">
<title>Node2&#45;&gt;Node3</title>
<path fill="none" stroke="midnightblue" d="M362.16,-163.52C301.71,-153.11 214.81,-137.23 139.5,-120 136.78,-119.38 134,-118.72 131.2,-118.04"/>
<polygon fill="midnightblue" stroke="midnightblue" points="361.93,-167.03 372.38,-165.27 363.12,-160.13 361.93,-167.03"/>
</g>
<!-- Node4 -->
<g id="node4" class="node">
<title>Node4</title>
<g id="a_node4"><a xlink:href="parallel__download_8cpp.html" target="_top" xlink:title="Parallel object download download from S3 service.">
<polygon fill="none" stroke="black" points="149,-78.5 149,-119.5 280,-119.5 280,-78.5 149,-78.5"/>
<text text-anchor="start" x="157" y="-107.5" font-family="Helvetica,sans-Serif" font-size="10.00">/home/ugovaretto/projects</text>
<text text-anchor="start" x="157" y="-96.5" font-family="Helvetica,sans-Serif" font-size="10.00">/uv&#45;cpp/s3client/repo/apps</text>
<text text-anchor="middle" x="214.5" y="-85.5" font-family="Helvetica,sans-Serif" font-size="10.00">/parallel_download.cpp</text>
</a>
</g>
</g>
<!-- Node2&#45;&gt;Node4 -->
<g id="edge3" class="edge">
<title>Node2&#45;&gt;Node4</title>
<path fill="none" stroke="midnightblue" d="M370.5,-153.17C339.02,-142.44 301.88,-129.78 271.73,-119.51"/>
<polygon fill="midnightblue" stroke="midnightblue" points="369.48,-156.52 380.07,-156.43 371.74,-149.89 369.48,-156.52"/>
</g>
<!-- Node5 -->
<g id="node5" class="node">
<title>Node5</title>
<g id="a_node5"><a xlink:href="presign__url_8cpp.html" target="_top" xlink:title="Presign URL.">
<polygon fill="none" stroke="black" points="298,-78.5 298,-119.5 429,-119.5 429,-78.5 298,-78.5"/>
<text text-anchor="start" x="306" y="-107.5" font-family="Helvetica,sans-Serif" font-size="10.00">/home/ugovaretto/projects</text>
<text text-anchor="start" x="306" y="-96.5" font-family="Helvetica,sans-Serif" font-size="10.00">/uv&#45;cpp/s3client/repo/apps</text>
<text text-anchor="middle" x="363.5" y="-85.5" font-family="Helvetica,sans-Serif" font-size="10.00">/presign_url.cpp</text>
</a>
</g>
</g>
<!-- Node2&#45;&gt;Node5 -->
<g id="edge4" class="edge">
<title>Node2&#45;&gt;Node5</title>
<path fill="none" stroke="midnightblue" d="M411.41,-149.2C401.88,-139.42 391.29,-128.54 382.49,-119.51"/>
<polygon fill="midnightblue" stroke="midnightblue" points="408.96,-151.71 418.44,-156.43 413.97,-146.82 408.96,-151.71"/>
</g>
<!-- Node6 -->
<g id="node6" class="node">
<title>Node6</title>
<g id="a_node6"><a xlink:href="parallel__upload_8cpp.html" target="_top" xlink:title="Parallel upload to S3 service.">
<polygon fill="none" stroke="black" points="447,-78.5 447,-119.5 578,-119.5 578,-78.5 447,-78.5"/>
<text text-anchor="start" x="455" y="-107.5" font-family="Helvetica,sans-Serif" font-size="10.00">/home/ugovaretto/projects</text>
<text text-anchor="start" x="455" y="-96.5" font-family="Helvetica,sans-Serif" font-size="10.00">/uv&#45;cpp/s3client/repo/apps</text>
<text text-anchor="middle" x="512.5" y="-85.5" font-family="Helvetica,sans-Serif" font-size="10.00">/parallel_upload.cpp</text>
</a>
</g>
</g>
<!-- Node2&#45;&gt;Node6 -->
<g id="edge5" class="edge">
<title>Node2&#45;&gt;Node6</title>
<path fill="none" stroke="midnightblue" d="M463.94,-149.2C473.6,-139.42 484.34,-128.54 493.25,-119.51"/>
<polygon fill="midnightblue" stroke="midnightblue" points="461.35,-146.85 456.81,-156.43 466.33,-151.77 461.35,-146.85"/>
</g>
<!-- Node2&#45;&gt;Node7 -->
<g id="edge6" class="edge">
<title>Node2&#45;&gt;Node7</title>
<path fill="none" stroke="midnightblue" d="M504.8,-153.17C536.42,-142.44 573.73,-129.78 604.01,-119.51"/>
<polygon fill="midnightblue" stroke="midnightblue" points="503.53,-149.9 495.19,-156.43 505.78,-156.53 503.53,-149.9"/>
</g>
<!-- Node8 -->
<g id="node8" class="node">
<title>Node8</title>
<g id="a_node8"><a xlink:href="bucket-test_8cpp.html" target="_top" xlink:title="bucket tests">
<polygon fill="none" stroke="black" points="596.5,-0.5 596.5,-41.5 726.5,-41.5 726.5,-0.5 596.5,-0.5"/>
<text text-anchor="start" x="604.5" y="-29.5" font-family="Helvetica,sans-Serif" font-size="10.00">/home/ugovaretto/projects</text>
<text text-anchor="start" x="604.5" y="-18.5" font-family="Helvetica,sans-Serif" font-size="10.00">/uv&#45;cpp/s3client/repo/test</text>
<text text-anchor="middle" x="661.5" y="-7.5" font-family="Helvetica,sans-Serif" font-size="10.00">/api/bucket&#45;test.cpp</text>
</a>
</g>
</g>
<!-- Node7&#45;&gt;Node8 -->
<g id="edge7" class="edge">
<title>Node7&#45;&gt;Node8</title>
<path fill="none" stroke="midnightblue" d="M661.5,-68.3C661.5,-59.3 661.5,-49.65 661.5,-41.51"/>
<polygon fill="midnightblue" stroke="midnightblue" points="658,-68.43 661.5,-78.43 665,-68.43 658,-68.43"/>
</g>
</g>
</svg>
