<?xml version="1.0" encoding="UTF-8" standalone="no"?>
<!DOCTYPE svg PUBLIC "-//W3C//DTD SVG 1.1//EN"
 "http://www.w3.org/Graphics/SVG/1.1/DTD/svg11.dtd">
<!-- Generated by graphviz version 2.43.0 (0)
 -->
<!-- Title: /home/ugovaretto/projects/uv&#45;cpp/s3client/repo/lib/include/webclient.h Pages: 1 -->
<svg width="764pt" height="218pt"
 viewBox="0.00 0.00 764.00 218.00" xmlns="http://www.w3.org/2000/svg" xmlns:xlink="http://www.w3.org/1999/xlink">
<g id="graph0" class="graph" transform="scale(1 1) rotate(0) translate(4 214)">
<title>/home/ugovaretto/projects/uv&#45;cpp/s3client/repo/lib/include/webclient.h</title>
<!-- Node1 -->
<g id="node1" class="node">
<title>Node1</title>
<g id="a_node1"><a xlink:title="declaration of WebClient class wrapping libcurl to send web requests.">
<polygon fill="#bfbfbf" stroke="black" points="261.5,-168.5 261.5,-209.5 391.5,-209.5 391.5,-168.5 261.5,-168.5"/>
<text text-anchor="start" x="269.5" y="-197.5" font-family="Helvetica,sans-Serif" font-size="10.00">/home/ugovaretto/projects</text>
<text text-anchor="start" x="269.5" y="-186.5" font-family="Helvetica,sans-Serif" font-size="10.00">/uv&#45;cpp/s3client/repo/lib</text>
<text text-anchor="middle" x="326.5" y="-175.5" font-family="Helvetica,sans-Serif" font-size="10.00">/include/webclient.h</text>
</a>
</g>
</g>
<!-- Node2 -->
<g id="node2" class="node">
<title>Node2</title>
<g id="a_node2"><a xlink:title=" ">
<polygon fill="none" stroke="#bfbfbf" points="0,-112.5 0,-131.5 59,-131.5 59,-112.5 0,-112.5"/>
<text text-anchor="middle" x="29.5" y="-119.5" font-family="Helvetica,sans-Serif" font-size="10.00">curl/curl.h</text>
</a>
</g>
</g>
<!-- Node1&#45;&gt;Node2 -->
<g id="edge1" class="edge">
<title>Node1&#45;&gt;Node2</title>
<path fill="none" stroke="midnightblue" d="M261.49,-174.31C211.42,-163.69 140.2,-148.39 69.35,-132.39"/>
<polygon fill="midnightblue" stroke="midnightblue" points="69.88,-128.92 59.36,-130.13 68.34,-135.75 69.88,-128.92"/>
</g>
<!-- Node3 -->
<g id="node3" class="node">
<title>Node3</title>
<g id="a_node3"><a xlink:title=" ">
<polygon fill="none" stroke="#bfbfbf" points="77,-112.5 77,-131.5 140,-131.5 140,-112.5 77,-112.5"/>
<text text-anchor="middle" x="108.5" y="-119.5" font-family="Helvetica,sans-Serif" font-size="10.00">curl/easy.h</text>
</a>
</g>
</g>
<!-- Node1&#45;&gt;Node3 -->
<g id="edge2" class="edge">
<title>Node1&#45;&gt;Node3</title>
<path fill="none" stroke="midnightblue" d="M261.39,-168.59C224.03,-157.45 178.41,-143.85 146.78,-134.41"/>
<polygon fill="midnightblue" stroke="midnightblue" points="147.61,-131.01 137.03,-131.51 145.61,-137.72 147.61,-131.01"/>
</g>
<!-- Node4 -->
<g id="node4" class="node">
<title>Node4</title>
<g id="a_node4"><a xlink:title=" ">
<polygon fill="none" stroke="#bfbfbf" points="158.5,-112.5 158.5,-131.5 196.5,-131.5 196.5,-112.5 158.5,-112.5"/>
<text text-anchor="middle" x="177.5" y="-119.5" font-family="Helvetica,sans-Serif" font-size="10.00">array</text>
</a>
</g>
</g>
<!-- Node1&#45;&gt;Node4 -->
<g id="edge3" class="edge">
<title>Node1&#45;&gt;Node4</title>
<path fill="none" stroke="midnightblue" d="M281.8,-168.5C257.12,-157.73 227.21,-144.69 205.77,-135.33"/>
<polygon fill="midnightblue" stroke="midnightblue" points="207.12,-132.1 196.56,-131.31 204.32,-138.52 207.12,-132.1"/>
</g>
<!-- Node5 -->
<g id="node5" class="node">
<title>Node5</title>
<g id="a_node5"><a xlink:title=" ">
<polygon fill="none" stroke="#bfbfbf" points="214.5,-112.5 214.5,-131.5 260.5,-131.5 260.5,-112.5 214.5,-112.5"/>
<text text-anchor="middle" x="237.5" y="-119.5" font-family="Helvetica,sans-Serif" font-size="10.00">atomic</text>
</a>
</g>
</g>
<!-- Node1&#45;&gt;Node5 -->
<g id="edge4" class="edge">
<title>Node1&#45;&gt;Node5</title>
<path fill="none" stroke="midnightblue" d="M299.8,-168.5C286.28,-158.63 270.15,-146.84 257.68,-137.74"/>
<polygon fill="midnightblue" stroke="midnightblue" points="259.49,-134.72 249.35,-131.65 255.36,-140.38 259.49,-134.72"/>
</g>
<!-- Node6 -->
<g id="node6" class="node">
<title>Node6</title>
<g id="a_node6"><a xlink:title=" ">
<polygon fill="none" stroke="#bfbfbf" points="299,-0.5 299,-19.5 334,-19.5 334,-0.5 299,-0.5"/>
<text text-anchor="middle" x="316.5" y="-7.5" font-family="Helvetica,sans-Serif" font-size="10.00">map</text>
</a>
</g>
</g>
<!-- Node1&#45;&gt;Node6 -->
<g id="edge5" class="edge">
<title>Node1&#45;&gt;Node6</title>
<path fill="none" stroke="midnightblue" d="M314.59,-168.24C302.25,-146.51 283.78,-110.16 276.5,-76 274.65,-67.31 273.34,-64.31 276.5,-56 280.84,-44.6 289.53,-34.24 297.71,-26.34"/>
<polygon fill="midnightblue" stroke="midnightblue" points="300.14,-28.86 305.23,-19.57 295.46,-23.66 300.14,-28.86"/>
</g>
<!-- Node7 -->
<g id="node7" class="node">
<title>Node7</title>
<g id="a_node7"><a xlink:title=" ">
<polygon fill="none" stroke="#bfbfbf" points="576.5,-112.5 576.5,-131.5 620.5,-131.5 620.5,-112.5 576.5,-112.5"/>
<text text-anchor="middle" x="598.5" y="-119.5" font-family="Helvetica,sans-Serif" font-size="10.00">mutex</text>
</a>
</g>
</g>
<!-- Node1&#45;&gt;Node7 -->
<g id="edge6" class="edge">
<title>Node1&#45;&gt;Node7</title>
<path fill="none" stroke="midnightblue" d="M391.66,-172.76C439.08,-161.62 504.81,-146.05 562.5,-132 563.77,-131.69 565.06,-131.37 566.36,-131.05"/>
<polygon fill="midnightblue" stroke="midnightblue" points="567.56,-134.36 576.43,-128.56 565.88,-127.57 567.56,-134.36"/>
</g>
<!-- Node8 -->
<g id="node8" class="node">
<title>Node8</title>
<g id="a_node8"><a xlink:title=" ">
<polygon fill="none" stroke="#bfbfbf" points="393,-0.5 393,-19.5 434,-19.5 434,-0.5 393,-0.5"/>
<text text-anchor="middle" x="413.5" y="-7.5" font-family="Helvetica,sans-Serif" font-size="10.00">string</text>
</a>
</g>
</g>
<!-- Node1&#45;&gt;Node8 -->
<g id="edge7" class="edge">
<title>Node1&#45;&gt;Node8</title>
<path fill="none" stroke="midnightblue" d="M336.14,-168.38C353.22,-133.63 388.53,-61.81 404.86,-28.57"/>
<polygon fill="midnightblue" stroke="midnightblue" points="408.01,-30.1 409.28,-19.58 401.73,-27.01 408.01,-30.1"/>
</g>
<!-- Node9 -->
<g id="node9" class="node">
<title>Node9</title>
<g id="a_node9"><a xlink:title=" ">
<polygon fill="none" stroke="#bfbfbf" points="655.5,-56.5 655.5,-75.5 699.5,-75.5 699.5,-56.5 655.5,-56.5"/>
<text text-anchor="middle" x="677.5" y="-63.5" font-family="Helvetica,sans-Serif" font-size="10.00">vector</text>
</a>
</g>
</g>
<!-- Node1&#45;&gt;Node9 -->
<g id="edge8" class="edge">
<title>Node1&#45;&gt;Node9</title>
<path fill="none" stroke="midnightblue" d="M391.93,-172.58C431.19,-162.59 481.82,-148.41 525.5,-132 544.85,-124.73 548.59,-120.36 567.5,-112 593.68,-100.42 623.8,-88.17 645.89,-79.39"/>
<polygon fill="midnightblue" stroke="midnightblue" points="647.42,-82.54 655.43,-75.61 644.85,-76.03 647.42,-82.54"/>
</g>
<!-- Node10 -->
<g id="node10" class="node">
<title>Node10</title>
<g id="a_node10"><a xlink:href="common_8h.html" target="_top" xlink:title="Common definitions.">
<polygon fill="none" stroke="black" points="285.5,-56.5 285.5,-75.5 347.5,-75.5 347.5,-56.5 285.5,-56.5"/>
<text text-anchor="middle" x="316.5" y="-63.5" font-family="Helvetica,sans-Serif" font-size="10.00">common.h</text>
</a>
</g>
</g>
<!-- Node1&#45;&gt;Node10 -->
<g id="edge9" class="edge">
<title>Node1&#45;&gt;Node10</title>
<path fill="none" stroke="midnightblue" d="M324.87,-168.29C322.99,-145.48 319.9,-108.19 318.05,-85.78"/>
<polygon fill="midnightblue" stroke="midnightblue" points="321.52,-85.25 317.21,-75.57 314.54,-85.83 321.52,-85.25"/>
</g>
<!-- Node11 -->
<g id="node11" class="node">
<title>Node11</title>
<g id="a_node11"><a xlink:href="url__utility_8h.html" target="_top" xlink:title="Internal utility functions to process and parse text and URLs and create S3 signature keys.">
<polygon fill="none" stroke="black" points="420.5,-112.5 420.5,-131.5 482.5,-131.5 482.5,-112.5 420.5,-112.5"/>
<text text-anchor="middle" x="451.5" y="-119.5" font-family="Helvetica,sans-Serif" font-size="10.00">url_utility.h</text>
</a>
</g>
</g>
<!-- Node1&#45;&gt;Node11 -->
<g id="edge12" class="edge">
<title>Node1&#45;&gt;Node11</title>
<path fill="none" stroke="midnightblue" d="M364,-168.5C383.91,-158.15 407.86,-145.69 425.66,-136.43"/>
<polygon fill="midnightblue" stroke="midnightblue" points="427.6,-139.37 434.86,-131.65 424.37,-133.16 427.6,-139.37"/>
</g>
<!-- Node14 -->
<g id="node14" class="node">
<title>Node14</title>
<g id="a_node14"><a xlink:href="lib_2include_2utility_8h.html" target="_top" xlink:title="internal utility functions">
<polygon fill="none" stroke="black" points="590,-56.5 590,-75.5 637,-75.5 637,-56.5 590,-56.5"/>
<text text-anchor="middle" x="613.5" y="-63.5" font-family="Helvetica,sans-Serif" font-size="10.00">utility.h</text>
</a>
</g>
</g>
<!-- Node1&#45;&gt;Node14 -->
<g id="edge24" class="edge">
<title>Node1&#45;&gt;Node14</title>
<path fill="none" stroke="midnightblue" d="M391.67,-168.58C422.4,-158.74 459.29,-145.93 491.5,-132 527.08,-116.6 566.34,-94.75 590.47,-80.73"/>
<polygon fill="midnightblue" stroke="midnightblue" points="592.37,-83.67 599.23,-75.59 588.83,-77.63 592.37,-83.67"/>
</g>
<!-- Node10&#45;&gt;Node6 -->
<g id="edge10" class="edge">
<title>Node10&#45;&gt;Node6</title>
<path fill="none" stroke="midnightblue" d="M316.5,-56.08C316.5,-49.01 316.5,-38.86 316.5,-29.99"/>
<polygon fill="midnightblue" stroke="midnightblue" points="320,-29.75 316.5,-19.75 313,-29.75 320,-29.75"/>
</g>
<!-- Node10&#45;&gt;Node8 -->
<g id="edge11" class="edge">
<title>Node10&#45;&gt;Node8</title>
<path fill="none" stroke="midnightblue" d="M332.08,-56.32C347.5,-47.74 371.31,-34.49 389.21,-24.52"/>
<polygon fill="midnightblue" stroke="midnightblue" points="390.92,-27.58 397.95,-19.65 387.51,-21.46 390.92,-27.58"/>
</g>
<!-- Node11&#45;&gt;Node6 -->
<g id="edge15" class="edge">
<title>Node11&#45;&gt;Node6</title>
<path fill="none" stroke="midnightblue" d="M440.91,-112.37C418.04,-93.73 363.79,-49.53 335.07,-26.13"/>
<polygon fill="midnightblue" stroke="midnightblue" points="337.01,-23.19 327.04,-19.59 332.59,-28.62 337.01,-23.19"/>
</g>
<!-- Node11&#45;&gt;Node8 -->
<g id="edge16" class="edge">
<title>Node11&#45;&gt;Node8</title>
<path fill="none" stroke="midnightblue" d="M448.52,-112.37C442.36,-94.54 428.11,-53.3 419.81,-29.27"/>
<polygon fill="midnightblue" stroke="midnightblue" points="423.04,-27.9 416.47,-19.59 416.43,-30.19 423.04,-27.9"/>
</g>
<!-- Node11&#45;&gt;Node9 -->
<g id="edge17" class="edge">
<title>Node11&#45;&gt;Node9</title>
<path fill="none" stroke="midnightblue" d="M482.7,-114.36C519.43,-106.43 582.46,-92.42 645.49,-76.16"/>
<polygon fill="midnightblue" stroke="midnightblue" points="646.39,-79.54 655.19,-73.64 644.63,-72.77 646.39,-79.54"/>
</g>
<!-- Node11&#45;&gt;Node10 -->
<g id="edge18" class="edge">
<title>Node11&#45;&gt;Node10</title>
<path fill="none" stroke="midnightblue" d="M430.11,-112.44C407.79,-103.52 372.6,-89.44 347.29,-79.32"/>
<polygon fill="midnightblue" stroke="midnightblue" points="348.38,-75.98 337.79,-75.52 345.78,-82.48 348.38,-75.98"/>
</g>
<!-- Node12 -->
<g id="node12" class="node">
<title>Node12</title>
<g id="a_node12"><a xlink:title=" ">
<polygon fill="none" stroke="#bfbfbf" points="521.5,-0.5 521.5,-19.5 577.5,-19.5 577.5,-0.5 521.5,-0.5"/>
<text text-anchor="middle" x="549.5" y="-7.5" font-family="Helvetica,sans-Serif" font-size="10.00">algorithm</text>
</a>
</g>
</g>
<!-- Node11&#45;&gt;Node12 -->
<g id="edge13" class="edge">
<title>Node11&#45;&gt;Node12</title>
<path fill="none" stroke="midnightblue" d="M482.81,-113.84C503.22,-107.46 528.58,-95.94 542.5,-76 551.74,-62.77 552.87,-44.18 552.06,-30.27"/>
<polygon fill="midnightblue" stroke="midnightblue" points="555.5,-29.52 551.05,-19.91 548.53,-30.2 555.5,-29.52"/>
</g>
<!-- Node13 -->
<g id="node13" class="node">
<title>Node13</title>
<g id="a_node13"><a xlink:title=" ">
<polygon fill="none" stroke="#bfbfbf" points="479.5,-56.5 479.5,-75.5 533.5,-75.5 533.5,-56.5 479.5,-56.5"/>
<text text-anchor="middle" x="506.5" y="-63.5" font-family="Helvetica,sans-Serif" font-size="10.00">iostream</text>
</a>
</g>
</g>
<!-- Node11&#45;&gt;Node13 -->
<g id="edge14" class="edge">
<title>Node11&#45;&gt;Node13</title>
<path fill="none" stroke="midnightblue" d="M460.58,-112.08C468.67,-104.14 480.7,-92.34 490.41,-82.8"/>
<polygon fill="midnightblue" stroke="midnightblue" points="492.9,-85.25 497.59,-75.75 488,-80.26 492.9,-85.25"/>
</g>
<!-- Node11&#45;&gt;Node14 -->
<g id="edge19" class="edge">
<title>Node11&#45;&gt;Node14</title>
<path fill="none" stroke="midnightblue" d="M477.17,-112.44C504.98,-103.17 549.47,-88.34 580.02,-78.16"/>
<polygon fill="midnightblue" stroke="midnightblue" points="581.42,-81.38 589.8,-74.9 579.2,-74.74 581.42,-81.38"/>
</g>
<!-- Node14&#45;&gt;Node8 -->
<g id="edge22" class="edge">
<title>Node14&#45;&gt;Node8</title>
<path fill="none" stroke="midnightblue" d="M589.77,-58.59C553.41,-48.78 483.93,-30.01 443.91,-19.21"/>
<polygon fill="midnightblue" stroke="midnightblue" points="444.74,-15.81 434.18,-16.58 442.92,-22.57 444.74,-15.81"/>
</g>
<!-- Node14&#45;&gt;Node12 -->
<g id="edge20" class="edge">
<title>Node14&#45;&gt;Node12</title>
<path fill="none" stroke="midnightblue" d="M603.22,-56.32C593.66,-48.26 579.22,-36.08 567.72,-26.37"/>
<polygon fill="midnightblue" stroke="midnightblue" points="569.87,-23.61 559.97,-19.83 565.36,-28.96 569.87,-23.61"/>
</g>
<!-- Node15 -->
<g id="node15" class="node">
<title>Node15</title>
<g id="a_node15"><a xlink:title=" ">
<polygon fill="none" stroke="#bfbfbf" points="596,-0.5 596,-19.5 655,-19.5 655,-0.5 596,-0.5"/>
<text text-anchor="middle" x="625.5" y="-7.5" font-family="Helvetica,sans-Serif" font-size="10.00">functional</text>
</a>
</g>
</g>
<!-- Node14&#45;&gt;Node15 -->
<g id="edge21" class="edge">
<title>Node14&#45;&gt;Node15</title>
<path fill="none" stroke="midnightblue" d="M615.48,-56.08C617.07,-48.93 619.36,-38.64 621.35,-29.69"/>
<polygon fill="midnightblue" stroke="midnightblue" points="624.8,-30.27 623.56,-19.75 617.97,-28.75 624.8,-30.27"/>
</g>
<!-- Node16 -->
<g id="node16" class="node">
<title>Node16</title>
<g id="a_node16"><a xlink:title=" ">
<polygon fill="none" stroke="#bfbfbf" points="673,-0.5 673,-19.5 756,-19.5 756,-0.5 673,-0.5"/>
<text text-anchor="middle" x="714.5" y="-7.5" font-family="Helvetica,sans-Serif" font-size="10.00">unordered_map</text>
</a>
</g>
</g>
<!-- Node14&#45;&gt;Node16 -->
<g id="edge23" class="edge">
<title>Node14&#45;&gt;Node16</title>
<path fill="none" stroke="midnightblue" d="M629.73,-56.32C645.85,-47.7 670.8,-34.36 689.46,-24.39"/>
<polygon fill="midnightblue" stroke="midnightblue" points="691.14,-27.46 698.31,-19.65 687.84,-21.28 691.14,-27.46"/>
</g>
</g>
</svg>
