<?xml version="1.0" encoding="UTF-8" standalone="no"?>
<!DOCTYPE svg PUBLIC "-//W3C//DTD SVG 1.1//EN"
 "http://www.w3.org/Graphics/SVG/1.1/DTD/svg11.dtd">
<!-- Generated by graphviz version 8.0.5 (20230430.1635)
 -->
<!-- Title: /Users/ugovaretto/projects/s3client/repo/lib/include/webclient.h Pages: 1 -->
<!--zoomable 283 -->
<svg id="main" version="1.1" xmlns="http://www.w3.org/2000/svg" xmlns:xlink="http://www.w3.org/1999/xlink" xml:space="preserve" onload="init(evt)">
<style type="text/css"><![CDATA[
.edge:hover path { stroke: red; }
.edge:hover polygon { stroke: red; fill: red; }
]]></style>
<script type="text/javascript"><![CDATA[
var edges = document.getElementsByTagName('g');
if (edges && edges.length) {
  for (var i=0;i<edges.length;i++) {
    if (edges[i].id.substr(0,4)=='edge') {
      edges[i].setAttribute('class','edge');
    }
  }
}
]]></script>
        <defs>
                <circle id="rim" cx="0" cy="0" r="7"/>
                <circle id="rim2" cx="0" cy="0" r="3.5"/>
                <g id="zoomPlus">
                        <use xlink:href="#rim" fill="#404040">
                                <set attributeName="fill" to="#808080" begin="zoomplus.mouseover" end="zoomplus.mouseout"/>
                        </use>
                        <path d="M-4,0h8M0,-4v8" fill="none" stroke="white" stroke-width="1.5" pointer-events="none"/>
                </g>
                <g id="zoomMin">
                        <use xlink:href="#rim" fill="#404040">
                                <set attributeName="fill" to="#808080" begin="zoomminus.mouseover" end="zoomminus.mouseout"/>
                        </use>
                        <path d="M-4,0h8" fill="none" stroke="white" stroke-width="1.5" pointer-events="none"/>
                </g>
                <g id="dirArrow">
                        <path fill="none" stroke="white" stroke-width="1.5" d="M0,-3.0v7 M-2.5,-0.5L0,-3.0L2.5,-0.5"/>
                </g>
               <g id="resetDef">
                       <use xlink:href="#rim2" fill="#404040">
                               <set attributeName="fill" to="#808080" begin="reset.mouseover" end="reset.mouseout"/>
                       </use>
               </g>
        </defs>

<script type="text/javascript">
var viewWidth = 841;
var viewHeight = 283;
var sectionId = 'dynsection-1';
</script>
<script xlink:href="svgpan.js"/>
<svg id="graph" class="graph">
<g id="viewport">
<title>/Users/ugovaretto/projects/s3client/repo/lib/include/webclient.h</title>
<!-- Node1 -->
<g id="node1" class="node">
<title>Node1</title>
<g id="a_node1"><a xlink:title="declaration of WebClient class wrapping libcurl to send web requests.">
<polygon fill="#999999" stroke="#666666" points="431.5,-275 300,-275 300,-233.25 431.5,-233.25 431.5,-275"/>
<text text-anchor="start" x="308" y="-261.5" font-family="Helvetica,sans-Serif" font-size="10.00">/Users/ugovaretto/projects</text>
<text text-anchor="start" x="308" y="-250.25" font-family="Helvetica,sans-Serif" font-size="10.00">/s3client/repo/lib/include</text>
<text text-anchor="middle" x="365.75" y="-239" font-family="Helvetica,sans-Serif" font-size="10.00">/webclient.h</text>
</a>
</g>
</g>
<!-- Node2 -->
<g id="node2" class="node">
<title>Node2</title>
<g id="a_node2"><a xlink:href="s3-api_8h.html" target="_top" xlink:title="declarations of S3Api class.">
<polygon fill="white" stroke="#666666" points="206.5,-119.5 75,-119.5 75,-77.75 206.5,-77.75 206.5,-119.5"/>
<text text-anchor="start" x="83" y="-106" font-family="Helvetica,sans-Serif" font-size="10.00">/Users/ugovaretto/projects</text>
<text text-anchor="start" x="83" y="-94.75" font-family="Helvetica,sans-Serif" font-size="10.00">/s3client/repo/lib/include</text>
<text text-anchor="middle" x="140.75" y="-83.5" font-family="Helvetica,sans-Serif" font-size="10.00">/s3&#45;api.h</text>
</a>
</g>
</g>
<!-- Node1&#45;&gt;Node2 -->
<g id="edge1" class="edge">
<title>Node1&#45;&gt;Node2</title>
<path fill="none" stroke="#63b8ff" d="M327.31,-226.9C282.92,-196.62 210.87,-147.46 170.53,-119.94"/>
<polygon fill="#63b8ff" stroke="#63b8ff" points="325.1,-230.31 335.34,-233.06 329.05,-224.53 325.1,-230.31"/>
</g>
<!-- Node5 -->
<g id="node5" class="node">
<title>Node5</title>
<g id="a_node5"><a xlink:href="s3-client_8h.html" target="_top" xlink:title="declaration of functions and data types for sending S3 requests, signing URLs and downloading and upl...">
<polygon fill="white" stroke="#666666" points="431.5,-197.25 300,-197.25 300,-155.5 431.5,-155.5 431.5,-197.25"/>
<text text-anchor="start" x="308" y="-183.75" font-family="Helvetica,sans-Serif" font-size="10.00">/Users/ugovaretto/projects</text>
<text text-anchor="start" x="308" y="-172.5" font-family="Helvetica,sans-Serif" font-size="10.00">/s3client/repo/lib/include</text>
<text text-anchor="middle" x="365.75" y="-161.25" font-family="Helvetica,sans-Serif" font-size="10.00">/s3&#45;client.h</text>
</a>
</g>
</g>
<!-- Node1&#45;&gt;Node5 -->
<g id="edge4" class="edge">
<title>Node1&#45;&gt;Node5</title>
<path fill="none" stroke="#63b8ff" d="M365.75,-222.06C365.75,-213.86 365.75,-205.21 365.75,-197.73"/>
<polygon fill="#63b8ff" stroke="#63b8ff" points="362.25,-221.83 365.75,-231.83 369.25,-221.83 362.25,-221.83"/>
</g>
<!-- Node10 -->
<g id="node10" class="node">
<title>Node10</title>
<g id="a_node10"><a xlink:href="webclient_8cpp.html" target="_top" xlink:title="implementation of WebClient class, wrapper around libcurl">
<polygon fill="white" stroke="#666666" points="616.12,-191.62 449.38,-191.62 449.38,-161.12 616.12,-161.12 616.12,-191.62"/>
<text text-anchor="start" x="457.38" y="-178.12" font-family="Helvetica,sans-Serif" font-size="10.00">/Users/ugovaretto/projects</text>
<text text-anchor="middle" x="532.75" y="-166.88" font-family="Helvetica,sans-Serif" font-size="10.00">/s3client/repo/lib/src/webclient.cpp</text>
</a>
</g>
</g>
<!-- Node1&#45;&gt;Node10 -->
<g id="edge10" class="edge">
<title>Node1&#45;&gt;Node10</title>
<path fill="none" stroke="#63b8ff" d="M420.39,-228.34C446.82,-216.35 477.65,-202.37 500.32,-192.08"/>
<polygon fill="#63b8ff" stroke="#63b8ff" points="419.16,-225.51 411.5,-232.83 422.06,-231.88 419.16,-225.51"/>
</g>
<!-- Node3 -->
<g id="node3" class="node">
<title>Node3</title>
<g id="a_node3"><a xlink:href="xmlstreams_8h.html" target="_top" xlink:title="xml parser and generator.">
<polygon fill="white" stroke="#666666" points="131.5,-41.75 0,-41.75 0,0 131.5,0 131.5,-41.75"/>
<text text-anchor="start" x="8" y="-28.25" font-family="Helvetica,sans-Serif" font-size="10.00">/Users/ugovaretto/projects</text>
<text text-anchor="start" x="8" y="-17" font-family="Helvetica,sans-Serif" font-size="10.00">/s3client/repo/lib/include</text>
<text text-anchor="middle" x="65.75" y="-5.75" font-family="Helvetica,sans-Serif" font-size="10.00">/xmlstreams.h</text>
</a>
</g>
</g>
<!-- Node2&#45;&gt;Node3 -->
<g id="edge2" class="edge">
<title>Node2&#45;&gt;Node3</title>
<path fill="none" stroke="#63b8ff" d="M113.02,-69.61C104.03,-60.53 94.23,-50.64 85.9,-42.23"/>
<polygon fill="#63b8ff" stroke="#63b8ff" points="110.13,-71.68 119.65,-76.33 115.1,-66.76 110.13,-71.68"/>
</g>
<!-- Node4 -->
<g id="node4" class="node">
<title>Node4</title>
<g id="a_node4"><a xlink:href="bucket-test_8cpp.html" target="_top" xlink:title="bucket tests">
<polygon fill="white" stroke="#666666" points="281.5,-41.75 150,-41.75 150,0 281.5,0 281.5,-41.75"/>
<text text-anchor="start" x="158" y="-28.25" font-family="Helvetica,sans-Serif" font-size="10.00">/Users/ugovaretto/projects</text>
<text text-anchor="start" x="158" y="-17" font-family="Helvetica,sans-Serif" font-size="10.00">/s3client/repo/test/api</text>
<text text-anchor="middle" x="215.75" y="-5.75" font-family="Helvetica,sans-Serif" font-size="10.00">/bucket&#45;test.cpp</text>
</a>
</g>
</g>
<!-- Node2&#45;&gt;Node4 -->
<g id="edge3" class="edge">
<title>Node2&#45;&gt;Node4</title>
<path fill="none" stroke="#63b8ff" d="M168.48,-69.61C177.47,-60.53 187.27,-50.64 195.6,-42.23"/>
<polygon fill="#63b8ff" stroke="#63b8ff" points="166.4,-66.76 161.85,-76.33 171.37,-71.68 166.4,-66.76"/>
</g>
<!-- Node5&#45;&gt;Node2 -->
<g id="edge9" class="edge">
<title>Node5&#45;&gt;Node2</title>
<path fill="none" stroke="#63b8ff" d="M295.41,-151.69C265.19,-141.52 230.24,-129.75 201.21,-119.98"/>
<polygon fill="#63b8ff" stroke="#63b8ff" points="293.86,-155.2 304.45,-155.08 296.09,-148.57 293.86,-155.2"/>
</g>
<!-- Node6 -->
<g id="node6" class="node">
<title>Node6</title>
<g id="a_node6"><a xlink:href="parallel__download_8cpp.html" target="_top" xlink:title="Parallel object download download from S3 service.">
<polygon fill="white" stroke="#666666" points="356.88,-119.5 224.62,-119.5 224.62,-77.75 356.88,-77.75 356.88,-119.5"/>
<text text-anchor="start" x="232.62" y="-106" font-family="Helvetica,sans-Serif" font-size="10.00">/Users/ugovaretto/projects</text>
<text text-anchor="start" x="232.62" y="-94.75" font-family="Helvetica,sans-Serif" font-size="10.00">/s3client/repo/apps/parallel</text>
<text text-anchor="middle" x="290.75" y="-83.5" font-family="Helvetica,sans-Serif" font-size="10.00">_download.cpp</text>
</a>
</g>
</g>
<!-- Node5&#45;&gt;Node6 -->
<g id="edge5" class="edge">
<title>Node5&#45;&gt;Node6</title>
<path fill="none" stroke="#63b8ff" d="M338.02,-147.36C329.03,-138.28 319.23,-128.39 310.9,-119.98"/>
<polygon fill="#63b8ff" stroke="#63b8ff" points="335.13,-149.43 344.65,-154.08 340.1,-144.51 335.13,-149.43"/>
</g>
<!-- Node7 -->
<g id="node7" class="node">
<title>Node7</title>
<g id="a_node7"><a xlink:href="parallel__upload_8cpp.html" target="_top" xlink:title="Parallel upload to S3 service.">
<polygon fill="white" stroke="#666666" points="506.88,-119.5 374.62,-119.5 374.62,-77.75 506.88,-77.75 506.88,-119.5"/>
<text text-anchor="start" x="382.62" y="-106" font-family="Helvetica,sans-Serif" font-size="10.00">/Users/ugovaretto/projects</text>
<text text-anchor="start" x="382.62" y="-94.75" font-family="Helvetica,sans-Serif" font-size="10.00">/s3client/repo/apps/parallel</text>
<text text-anchor="middle" x="440.75" y="-83.5" font-family="Helvetica,sans-Serif" font-size="10.00">_upload.cpp</text>
</a>
</g>
</g>
<!-- Node5&#45;&gt;Node7 -->
<g id="edge6" class="edge">
<title>Node5&#45;&gt;Node7</title>
<path fill="none" stroke="#63b8ff" d="M393.48,-147.36C402.47,-138.28 412.27,-128.39 420.6,-119.98"/>
<polygon fill="#63b8ff" stroke="#63b8ff" points="391.4,-144.51 386.85,-154.08 396.37,-149.43 391.4,-144.51"/>
</g>
<!-- Node8 -->
<g id="node8" class="node">
<title>Node8</title>
<g id="a_node8"><a xlink:href="presign__url_8cpp.html" target="_top" xlink:title="Presign URL.">
<polygon fill="white" stroke="#666666" points="658.25,-119.5 525.25,-119.5 525.25,-77.75 658.25,-77.75 658.25,-119.5"/>
<text text-anchor="start" x="533.25" y="-106" font-family="Helvetica,sans-Serif" font-size="10.00">/Users/ugovaretto/projects</text>
<text text-anchor="start" x="533.25" y="-94.75" font-family="Helvetica,sans-Serif" font-size="10.00">/s3client/repo/apps/presign</text>
<text text-anchor="middle" x="591.75" y="-83.5" font-family="Helvetica,sans-Serif" font-size="10.00">_url.cpp</text>
</a>
</g>
</g>
<!-- Node5&#45;&gt;Node8 -->
<g id="edge7" class="edge">
<title>Node5&#45;&gt;Node8</title>
<path fill="none" stroke="#63b8ff" d="M436.41,-151.69C466.75,-141.52 501.86,-129.75 531.02,-119.98"/>
<polygon fill="#63b8ff" stroke="#63b8ff" points="435.68,-148.58 427.31,-155.08 437.91,-155.22 435.68,-148.58"/>
</g>
<!-- Node9 -->
<g id="node9" class="node">
<title>Node9</title>
<g id="a_node9"><a xlink:href="apps_2s3-client_8cpp.html" target="_top" xlink:title="Send S3v4&#45;signed requests to S3 andpoint and print raw responses.">
<polygon fill="white" stroke="#666666" points="833.25,-113.88 676.25,-113.88 676.25,-83.38 833.25,-83.38 833.25,-113.88"/>
<text text-anchor="start" x="684.25" y="-100.38" font-family="Helvetica,sans-Serif" font-size="10.00">/Users/ugovaretto/projects</text>
<text text-anchor="middle" x="754.75" y="-89.12" font-family="Helvetica,sans-Serif" font-size="10.00">/s3client/repo/apps/s3&#45;client.cpp</text>
</a>
</g>
</g>
<!-- Node5&#45;&gt;Node9 -->
<g id="edge8" class="edge">
<title>Node5&#45;&gt;Node9</title>
<path fill="none" stroke="#63b8ff" d="M442.49,-155.24C542.55,-134.66 570.79,-138.24 667.75,-119.5 675.81,-117.94 684.27,-116.18 692.6,-114.36"/>
<polygon fill="#63b8ff" stroke="#63b8ff" points="441.99,-151.98 432.92,-157.45 443.42,-158.83 441.99,-151.98"/>
</g>
</g>
</svg>
        <g id="navigator" transform="translate(0 0)" fill="#404254">
                <rect fill="#f2f5e9" fill-opacity="0.5" stroke="#606060" stroke-width=".5" x="0" y="0" width="60" height="60"/>
                <use id="zoomplus" xlink:href="#zoomPlus" x="17" y="9" onmousedown="handleZoom(evt,'in')"/>
                <use id="zoomminus" xlink:href="#zoomMin" x="42" y="9" onmousedown="handleZoom(evt,'out')"/>
                <use id="reset" xlink:href="#resetDef" x="30" y="36" onmousedown="handleReset()"/>
                <g id="arrowUp" xlink:href="#dirArrow" transform="translate(30 24)" onmousedown="handlePan(0,-1)">
                  <use xlink:href="#rim" fill="#404040">
                        <set attributeName="fill" to="#808080" begin="arrowUp.mouseover" end="arrowUp.mouseout"/>
                  </use>
                  <path fill="none" stroke="white" stroke-width="1.5" d="M0,-3.0v7 M-2.5,-0.5L0,-3.0L2.5,-0.5"/>
                </g>
                <g id="arrowRight" xlink:href="#dirArrow" transform="rotate(90) translate(36 -43)" onmousedown="handlePan(1,0)">
                  <use xlink:href="#rim" fill="#404040">
                        <set attributeName="fill" to="#808080" begin="arrowRight.mouseover" end="arrowRight.mouseout"/>
                  </use>
                  <path fill="none" stroke="white" stroke-width="1.5" d="M0,-3.0v7 M-2.5,-0.5L0,-3.0L2.5,-0.5"/>
                </g>
                <g id="arrowDown" xlink:href="#dirArrow" transform="rotate(180) translate(-30 -48)" onmousedown="handlePan(0,1)">
                  <use xlink:href="#rim" fill="#404040">
                        <set attributeName="fill" to="#808080" begin="arrowDown.mouseover" end="arrowDown.mouseout"/>
                  </use>
                  <path fill="none" stroke="white" stroke-width="1.5" d="M0,-3.0v7 M-2.5,-0.5L0,-3.0L2.5,-0.5"/>
                </g>
                <g id="arrowLeft" xlink:href="#dirArrow" transform="rotate(270) translate(-36 17)" onmousedown="handlePan(-1,0)">
                  <use xlink:href="#rim" fill="#404040">
                        <set attributeName="fill" to="#808080" begin="arrowLeft.mouseover" end="arrowLeft.mouseout"/>
                  </use>
                  <path fill="none" stroke="white" stroke-width="1.5" d="M0,-3.0v7 M-2.5,-0.5L0,-3.0L2.5,-0.5"/>
                </g>
        </g>
        <svg viewBox="0 0 15 15" width="100%" height="30px" preserveAspectRatio="xMaxYMin meet">
         <g id="arrow_out" transform="scale(0.3 0.3)">
          <a xlink:href="webclient_8h__dep__incl_org.svg" target="_base">
           <rect id="button" ry="5" rx="5" y="6" x="6" height="38" width="38"
                fill="#f2f5e9" fill-opacity="0.5" stroke="#606060" stroke-width="1.0"/>
           <path id="arrow"
             d="M 11.500037,31.436501 C 11.940474,20.09759 22.043105,11.32322 32.158766,21.979434 L 37.068811,17.246167 C 37.068811,17.246167 37.088388,32 37.088388,32 L 22.160133,31.978069 C 22.160133,31.978069 26.997745,27.140456 26.997745,27.140456 C 18.528582,18.264221 13.291696,25.230495 11.500037,31.436501 z"
             style="fill:#404040;"/>
          </a>
         </g>
        </svg>
</svg>
