<?xml version="1.0" encoding="UTF-8" standalone="no"?>
<!DOCTYPE svg PUBLIC "-//W3C//DTD SVG 1.1//EN"
 "http://www.w3.org/Graphics/SVG/1.1/DTD/svg11.dtd">
<!-- Generated by graphviz version 2.43.0 (0)
 -->
<!-- Title: /home/ugovaretto/projects/uv&#45;cpp/s3client/repo/lib/src/webclient.cpp Pages: 1 -->
<svg width="1339pt" height="274pt"
 viewBox="0.00 0.00 1338.64 274.00" xmlns="http://www.w3.org/2000/svg" xmlns:xlink="http://www.w3.org/1999/xlink">
<g id="graph0" class="graph" transform="scale(1 1) rotate(0) translate(4 270)">
<title>/home/ugovaretto/projects/uv&#45;cpp/s3client/repo/lib/src/webclient.cpp</title>
<!-- Node1 -->
<g id="node1" class="node">
<title>Node1</title>
<g id="a_node1"><a xlink:title="implementation of WebClient class, wrapper around libcurl">
<polygon fill="#bfbfbf" stroke="black" points="820.64,-224.5 820.64,-265.5 950.64,-265.5 950.64,-224.5 820.64,-224.5"/>
<text text-anchor="start" x="828.64" y="-253.5" font-family="Helvetica,sans-Serif" font-size="10.00">/home/ugovaretto/projects</text>
<text text-anchor="start" x="828.64" y="-242.5" font-family="Helvetica,sans-Serif" font-size="10.00">/uv&#45;cpp/s3client/repo/lib</text>
<text text-anchor="middle" x="885.64" y="-231.5" font-family="Helvetica,sans-Serif" font-size="10.00">/src/webclient.cpp</text>
</a>
</g>
</g>
<!-- Node2 -->
<g id="node2" class="node">
<title>Node2</title>
<g id="a_node2"><a xlink:href="webclient_8h.html" target="_top" xlink:title="declaration of WebClient class wrapping libcurl to send web requests.">
<polygon fill="none" stroke="black" points="262.64,-168.5 262.64,-187.5 328.64,-187.5 328.64,-168.5 262.64,-168.5"/>
<text text-anchor="middle" x="295.64" y="-175.5" font-family="Helvetica,sans-Serif" font-size="10.00">webclient.h</text>
</a>
</g>
</g>
<!-- Node1&#45;&gt;Node2 -->
<g id="edge1" class="edge">
<title>Node1&#45;&gt;Node2</title>
<path fill="none" stroke="midnightblue" d="M820.53,-236.83C699.13,-223.45 441.26,-195.04 338.86,-183.76"/>
<polygon fill="midnightblue" stroke="midnightblue" points="339.2,-180.28 328.87,-182.66 338.43,-187.24 339.2,-180.28"/>
</g>
<!-- Node11 -->
<g id="node11" class="node">
<title>Node11</title>
<g id="a_node11"><a xlink:href="common_8h.html" target="_top" xlink:title="Common definitions.">
<polygon fill="none" stroke="black" points="138.64,-56.5 138.64,-75.5 200.64,-75.5 200.64,-56.5 138.64,-56.5"/>
<text text-anchor="middle" x="169.64" y="-63.5" font-family="Helvetica,sans-Serif" font-size="10.00">common.h</text>
</a>
</g>
</g>
<!-- Node1&#45;&gt;Node11 -->
<g id="edge37" class="edge">
<title>Node1&#45;&gt;Node11</title>
<path fill="none" stroke="midnightblue" d="M820.56,-240.82C625.89,-230.61 58.38,-195.58 7.64,-132 -26.77,-88.87 69.7,-74.21 128.3,-69.34"/>
<polygon fill="midnightblue" stroke="midnightblue" points="128.7,-72.82 138.41,-68.57 128.17,-65.84 128.7,-72.82"/>
</g>
<!-- Node13 -->
<g id="node13" class="node">
<title>Node13</title>
<g id="a_node13"><a xlink:title=" ">
<polygon fill="none" stroke="#bfbfbf" points="466.64,-0.5 466.64,-19.5 522.64,-19.5 522.64,-0.5 466.64,-0.5"/>
<text text-anchor="middle" x="494.64" y="-7.5" font-family="Helvetica,sans-Serif" font-size="10.00">algorithm</text>
</a>
</g>
</g>
<!-- Node1&#45;&gt;Node13 -->
<g id="edge30" class="edge">
<title>Node1&#45;&gt;Node13</title>
<path fill="none" stroke="midnightblue" d="M820.57,-237.54C780.66,-230.73 730.51,-216.73 694.64,-188 642.32,-146.08 672.78,-99.35 621.64,-56 596.32,-34.54 560.06,-23.05 532.76,-17.06"/>
<polygon fill="midnightblue" stroke="midnightblue" points="533.28,-13.6 522.78,-15.03 531.88,-20.45 533.28,-13.6"/>
</g>
<!-- Node14 -->
<g id="node14" class="node">
<title>Node14</title>
<g id="a_node14"><a xlink:title=" ">
<polygon fill="none" stroke="#bfbfbf" points="558.64,-56.5 558.64,-75.5 612.64,-75.5 612.64,-56.5 558.64,-56.5"/>
<text text-anchor="middle" x="585.64" y="-63.5" font-family="Helvetica,sans-Serif" font-size="10.00">iostream</text>
</a>
</g>
</g>
<!-- Node1&#45;&gt;Node14 -->
<g id="edge34" class="edge">
<title>Node1&#45;&gt;Node14</title>
<path fill="none" stroke="midnightblue" d="M820.61,-240.6C772.72,-235.23 708.12,-221.71 661.64,-188 625.28,-161.63 602.34,-112.04 592.02,-85.26"/>
<polygon fill="midnightblue" stroke="midnightblue" points="595.21,-83.79 588.47,-75.61 588.64,-86.2 595.21,-83.79"/>
</g>
<!-- Node18 -->
<g id="node18" class="node">
<title>Node18</title>
<g id="a_node18"><a xlink:title=" ">
<polygon fill="none" stroke="#bfbfbf" points="703.64,-168.5 703.64,-187.5 747.64,-187.5 747.64,-168.5 703.64,-168.5"/>
<text text-anchor="middle" x="725.64" y="-175.5" font-family="Helvetica,sans-Serif" font-size="10.00">fcntl.h</text>
</a>
</g>
</g>
<!-- Node1&#45;&gt;Node18 -->
<g id="edge26" class="edge">
<title>Node1&#45;&gt;Node18</title>
<path fill="none" stroke="midnightblue" d="M837.63,-224.5C811.22,-213.77 779.23,-200.77 756.21,-191.42"/>
<polygon fill="midnightblue" stroke="midnightblue" points="757.52,-188.17 746.94,-187.65 754.89,-194.66 757.52,-188.17"/>
</g>
<!-- Node19 -->
<g id="node19" class="node">
<title>Node19</title>
<g id="a_node19"><a xlink:title=" ">
<polygon fill="none" stroke="#bfbfbf" points="766.14,-168.5 766.14,-187.5 837.14,-187.5 837.14,-168.5 766.14,-168.5"/>
<text text-anchor="middle" x="801.64" y="-175.5" font-family="Helvetica,sans-Serif" font-size="10.00">sys/mman.h</text>
</a>
</g>
</g>
<!-- Node1&#45;&gt;Node19 -->
<g id="edge27" class="edge">
<title>Node1&#45;&gt;Node19</title>
<path fill="none" stroke="midnightblue" d="M860.44,-224.5C847.81,-214.72 832.75,-203.07 821.03,-194.01"/>
<polygon fill="midnightblue" stroke="midnightblue" points="822.87,-191 812.82,-187.65 818.59,-196.54 822.87,-191"/>
</g>
<!-- Node20 -->
<g id="node20" class="node">
<title>Node20</title>
<g id="a_node20"><a xlink:title=" ">
<polygon fill="none" stroke="#bfbfbf" points="855.64,-168.5 855.64,-187.5 915.64,-187.5 915.64,-168.5 855.64,-168.5"/>
<text text-anchor="middle" x="885.64" y="-175.5" font-family="Helvetica,sans-Serif" font-size="10.00">sys/stat.h</text>
</a>
</g>
</g>
<!-- Node1&#45;&gt;Node20 -->
<g id="edge28" class="edge">
<title>Node1&#45;&gt;Node20</title>
<path fill="none" stroke="midnightblue" d="M885.64,-224.5C885.64,-216.07 885.64,-206.24 885.64,-197.87"/>
<polygon fill="midnightblue" stroke="midnightblue" points="889.14,-197.65 885.64,-187.65 882.14,-197.65 889.14,-197.65"/>
</g>
<!-- Node21 -->
<g id="node21" class="node">
<title>Node21</title>
<g id="a_node21"><a xlink:title=" ">
<polygon fill="none" stroke="#bfbfbf" points="934.14,-168.5 934.14,-187.5 985.14,-187.5 985.14,-168.5 934.14,-168.5"/>
<text text-anchor="middle" x="959.64" y="-175.5" font-family="Helvetica,sans-Serif" font-size="10.00">unistd.h</text>
</a>
</g>
</g>
<!-- Node1&#45;&gt;Node21 -->
<g id="edge29" class="edge">
<title>Node1&#45;&gt;Node21</title>
<path fill="none" stroke="midnightblue" d="M907.84,-224.5C918.86,-214.82 931.98,-203.3 942.25,-194.27"/>
<polygon fill="midnightblue" stroke="midnightblue" points="944.59,-196.88 949.79,-187.65 939.97,-191.62 944.59,-196.88"/>
</g>
<!-- Node22 -->
<g id="node22" class="node">
<title>Node22</title>
<g id="a_node22"><a xlink:title=" ">
<polygon fill="none" stroke="#bfbfbf" points="1003.14,-168.5 1003.14,-187.5 1052.14,-187.5 1052.14,-168.5 1003.14,-168.5"/>
<text text-anchor="middle" x="1027.64" y="-175.5" font-family="Helvetica,sans-Serif" font-size="10.00">cassert</text>
</a>
</g>
</g>
<!-- Node1&#45;&gt;Node22 -->
<g id="edge31" class="edge">
<title>Node1&#45;&gt;Node22</title>
<path fill="none" stroke="midnightblue" d="M928.24,-224.5C951.27,-213.96 979.07,-201.23 999.41,-191.92"/>
<polygon fill="midnightblue" stroke="midnightblue" points="1001.1,-195 1008.74,-187.65 998.19,-188.63 1001.1,-195"/>
</g>
<!-- Node23 -->
<g id="node23" class="node">
<title>Node23</title>
<g id="a_node23"><a xlink:title=" ">
<polygon fill="none" stroke="#bfbfbf" points="1070.64,-168.5 1070.64,-187.5 1116.64,-187.5 1116.64,-168.5 1070.64,-168.5"/>
<text text-anchor="middle" x="1093.64" y="-175.5" font-family="Helvetica,sans-Serif" font-size="10.00">cstring</text>
</a>
</g>
</g>
<!-- Node1&#45;&gt;Node23 -->
<g id="edge32" class="edge">
<title>Node1&#45;&gt;Node23</title>
<path fill="none" stroke="midnightblue" d="M948.05,-224.5C985.14,-212.91 1030.68,-198.68 1060.85,-189.25"/>
<polygon fill="midnightblue" stroke="midnightblue" points="1061.95,-192.57 1070.45,-186.25 1059.86,-185.89 1061.95,-192.57"/>
</g>
<!-- Node24 -->
<g id="node24" class="node">
<title>Node24</title>
<g id="a_node24"><a xlink:title=" ">
<polygon fill="none" stroke="#bfbfbf" points="1134.64,-168.5 1134.64,-187.5 1184.64,-187.5 1184.64,-168.5 1134.64,-168.5"/>
<text text-anchor="middle" x="1159.64" y="-175.5" font-family="Helvetica,sans-Serif" font-size="10.00">fstream</text>
</a>
</g>
</g>
<!-- Node1&#45;&gt;Node24 -->
<g id="edge33" class="edge">
<title>Node1&#45;&gt;Node24</title>
<path fill="none" stroke="midnightblue" d="M950.7,-229.37C996.69,-218.89 1060.03,-204.22 1124.48,-188.24"/>
<polygon fill="midnightblue" stroke="midnightblue" points="1125.55,-191.58 1134.41,-185.77 1123.86,-184.79 1125.55,-191.58"/>
</g>
<!-- Node25 -->
<g id="node25" class="node">
<title>Node25</title>
<g id="a_node25"><a xlink:title=" ">
<polygon fill="none" stroke="#bfbfbf" points="1203.14,-168.5 1203.14,-187.5 1262.14,-187.5 1262.14,-168.5 1203.14,-168.5"/>
<text text-anchor="middle" x="1232.64" y="-175.5" font-family="Helvetica,sans-Serif" font-size="10.00">stdexcept</text>
</a>
</g>
</g>
<!-- Node1&#45;&gt;Node25 -->
<g id="edge35" class="edge">
<title>Node1&#45;&gt;Node25</title>
<path fill="none" stroke="midnightblue" d="M950.71,-233.08C1010.97,-222.76 1103.3,-206.43 1193.06,-188.04"/>
<polygon fill="midnightblue" stroke="midnightblue" points="1193.77,-191.47 1202.86,-186.02 1192.36,-184.61 1193.77,-191.47"/>
</g>
<!-- Node26 -->
<g id="node26" class="node">
<title>Node26</title>
<g id="a_node26"><a xlink:title=" ">
<polygon fill="none" stroke="#bfbfbf" points="1280.64,-168.5 1280.64,-187.5 1330.64,-187.5 1330.64,-168.5 1280.64,-168.5"/>
<text text-anchor="middle" x="1305.64" y="-175.5" font-family="Helvetica,sans-Serif" font-size="10.00">signal.h</text>
</a>
</g>
</g>
<!-- Node1&#45;&gt;Node26 -->
<g id="edge36" class="edge">
<title>Node1&#45;&gt;Node26</title>
<path fill="none" stroke="midnightblue" d="M950.92,-236.85C1025.88,-228.11 1152.68,-211.75 1270.55,-188.03"/>
<polygon fill="midnightblue" stroke="midnightblue" points="1271.36,-191.43 1280.46,-186.01 1269.97,-184.57 1271.36,-191.43"/>
</g>
<!-- Node3 -->
<g id="node3" class="node">
<title>Node3</title>
<g id="a_node3"><a xlink:title=" ">
<polygon fill="none" stroke="#bfbfbf" points="375.14,-112.5 375.14,-131.5 434.14,-131.5 434.14,-112.5 375.14,-112.5"/>
<text text-anchor="middle" x="404.64" y="-119.5" font-family="Helvetica,sans-Serif" font-size="10.00">curl/curl.h</text>
</a>
</g>
</g>
<!-- Node2&#45;&gt;Node3 -->
<g id="edge2" class="edge">
<title>Node2&#45;&gt;Node3</title>
<path fill="none" stroke="midnightblue" d="M313.15,-168.32C330.71,-159.62 357.97,-146.12 378.17,-136.11"/>
<polygon fill="midnightblue" stroke="midnightblue" points="379.76,-139.23 387.17,-131.65 376.66,-132.96 379.76,-139.23"/>
</g>
<!-- Node4 -->
<g id="node4" class="node">
<title>Node4</title>
<g id="a_node4"><a xlink:title=" ">
<polygon fill="none" stroke="#bfbfbf" points="452.14,-112.5 452.14,-131.5 515.14,-131.5 515.14,-112.5 452.14,-112.5"/>
<text text-anchor="middle" x="483.64" y="-119.5" font-family="Helvetica,sans-Serif" font-size="10.00">curl/easy.h</text>
</a>
</g>
</g>
<!-- Node2&#45;&gt;Node4 -->
<g id="edge3" class="edge">
<title>Node2&#45;&gt;Node4</title>
<path fill="none" stroke="midnightblue" d="M325.43,-168.44C357.47,-159.24 408.57,-144.56 443.99,-134.39"/>
<polygon fill="midnightblue" stroke="midnightblue" points="445.35,-137.64 453.99,-131.52 443.41,-130.91 445.35,-137.64"/>
</g>
<!-- Node5 -->
<g id="node5" class="node">
<title>Node5</title>
<g id="a_node5"><a xlink:title=" ">
<polygon fill="none" stroke="#bfbfbf" points="533.64,-112.5 533.64,-131.5 571.64,-131.5 571.64,-112.5 533.64,-112.5"/>
<text text-anchor="middle" x="552.64" y="-119.5" font-family="Helvetica,sans-Serif" font-size="10.00">array</text>
</a>
</g>
</g>
<!-- Node2&#45;&gt;Node5 -->
<g id="edge4" class="edge">
<title>Node2&#45;&gt;Node5</title>
<path fill="none" stroke="midnightblue" d="M328.91,-171.72C371.79,-164.64 448.8,-151 523.41,-132.08"/>
<polygon fill="midnightblue" stroke="midnightblue" points="524.63,-135.38 533.45,-129.5 522.89,-128.6 524.63,-135.38"/>
</g>
<!-- Node6 -->
<g id="node6" class="node">
<title>Node6</title>
<g id="a_node6"><a xlink:title=" ">
<polygon fill="none" stroke="#bfbfbf" points="16.64,-112.5 16.64,-131.5 62.64,-131.5 62.64,-112.5 16.64,-112.5"/>
<text text-anchor="middle" x="39.64" y="-119.5" font-family="Helvetica,sans-Serif" font-size="10.00">atomic</text>
</a>
</g>
</g>
<!-- Node2&#45;&gt;Node6 -->
<g id="edge5" class="edge">
<title>Node2&#45;&gt;Node6</title>
<path fill="none" stroke="midnightblue" d="M262.54,-170.58C219.59,-162.17 142.35,-146.74 76.64,-132 75.37,-131.72 74.08,-131.42 72.77,-131.12"/>
<polygon fill="midnightblue" stroke="midnightblue" points="73.24,-127.63 62.7,-128.75 71.63,-134.45 73.24,-127.63"/>
</g>
<!-- Node7 -->
<g id="node7" class="node">
<title>Node7</title>
<g id="a_node7"><a xlink:title=" ">
<polygon fill="none" stroke="#bfbfbf" points="152.14,-0.5 152.14,-19.5 187.14,-19.5 187.14,-0.5 152.14,-0.5"/>
<text text-anchor="middle" x="169.64" y="-7.5" font-family="Helvetica,sans-Serif" font-size="10.00">map</text>
</a>
</g>
</g>
<!-- Node2&#45;&gt;Node7 -->
<g id="edge6" class="edge">
<title>Node2&#45;&gt;Node7</title>
<path fill="none" stroke="midnightblue" d="M262.29,-173.8C213.99,-168.41 128.29,-155.69 109.64,-132 82.96,-98.1 125.61,-50.44 151.73,-26.3"/>
<polygon fill="midnightblue" stroke="midnightblue" points="154.09,-28.88 159.2,-19.6 149.42,-23.66 154.09,-28.88"/>
</g>
<!-- Node8 -->
<g id="node8" class="node">
<title>Node8</title>
<g id="a_node8"><a xlink:title=" ">
<polygon fill="none" stroke="#bfbfbf" points="118.64,-112.5 118.64,-131.5 162.64,-131.5 162.64,-112.5 118.64,-112.5"/>
<text text-anchor="middle" x="140.64" y="-119.5" font-family="Helvetica,sans-Serif" font-size="10.00">mutex</text>
</a>
</g>
</g>
<!-- Node2&#45;&gt;Node8 -->
<g id="edge7" class="edge">
<title>Node2&#45;&gt;Node8</title>
<path fill="none" stroke="midnightblue" d="M271.08,-168.44C244.51,-159.19 202.03,-144.39 172.81,-134.21"/>
<polygon fill="midnightblue" stroke="midnightblue" points="173.67,-130.8 163.07,-130.82 171.36,-137.41 173.67,-130.8"/>
</g>
<!-- Node9 -->
<g id="node9" class="node">
<title>Node9</title>
<g id="a_node9"><a xlink:title=" ">
<polygon fill="none" stroke="#bfbfbf" points="218.14,-0.5 218.14,-19.5 259.14,-19.5 259.14,-0.5 218.14,-0.5"/>
<text text-anchor="middle" x="238.64" y="-7.5" font-family="Helvetica,sans-Serif" font-size="10.00">string</text>
</a>
</g>
</g>
<!-- Node2&#45;&gt;Node9 -->
<g id="edge8" class="edge">
<title>Node2&#45;&gt;Node9</title>
<path fill="none" stroke="midnightblue" d="M290.46,-168.45C280.43,-151.48 258.43,-112.08 247.64,-76 243.1,-60.8 240.83,-42.91 239.71,-29.75"/>
<polygon fill="midnightblue" stroke="midnightblue" points="243.19,-29.32 239,-19.59 236.21,-29.81 243.19,-29.32"/>
</g>
<!-- Node10 -->
<g id="node10" class="node">
<title>Node10</title>
<g id="a_node10"><a xlink:title=" ">
<polygon fill="none" stroke="#bfbfbf" points="256.64,-56.5 256.64,-75.5 300.64,-75.5 300.64,-56.5 256.64,-56.5"/>
<text text-anchor="middle" x="278.64" y="-63.5" font-family="Helvetica,sans-Serif" font-size="10.00">vector</text>
</a>
</g>
</g>
<!-- Node2&#45;&gt;Node10 -->
<g id="edge9" class="edge">
<title>Node2&#45;&gt;Node10</title>
<path fill="none" stroke="midnightblue" d="M293.44,-168.43C291.19,-159.42 287.74,-144.79 285.64,-132 283.1,-116.58 281.27,-98.95 280.12,-85.94"/>
<polygon fill="midnightblue" stroke="midnightblue" points="283.6,-85.55 279.28,-75.87 276.62,-86.13 283.6,-85.55"/>
</g>
<!-- Node2&#45;&gt;Node11 -->
<g id="edge10" class="edge">
<title>Node2&#45;&gt;Node11</title>
<path fill="none" stroke="midnightblue" d="M274.33,-168.42C256.93,-160.7 232.4,-148.09 214.64,-132 199.58,-118.35 186.89,-98.75 178.86,-84.64"/>
<polygon fill="midnightblue" stroke="midnightblue" points="181.74,-82.61 173.88,-75.51 175.59,-85.96 181.74,-82.61"/>
</g>
<!-- Node12 -->
<g id="node12" class="node">
<title>Node12</title>
<g id="a_node12"><a xlink:href="url__utility_8h.html" target="_top" xlink:title="Internal utility functions to process and parse text and URLs and create S3 signature keys.">
<polygon fill="none" stroke="black" points="294.64,-112.5 294.64,-131.5 356.64,-131.5 356.64,-112.5 294.64,-112.5"/>
<text text-anchor="middle" x="325.64" y="-119.5" font-family="Helvetica,sans-Serif" font-size="10.00">url_utility.h</text>
</a>
</g>
</g>
<!-- Node2&#45;&gt;Node12 -->
<g id="edge13" class="edge">
<title>Node2&#45;&gt;Node12</title>
<path fill="none" stroke="midnightblue" d="M300.59,-168.08C304.74,-160.61 310.79,-149.72 315.91,-140.52"/>
<polygon fill="midnightblue" stroke="midnightblue" points="318.98,-142.19 320.78,-131.75 312.86,-138.79 318.98,-142.19"/>
</g>
<!-- Node15 -->
<g id="node15" class="node">
<title>Node15</title>
<g id="a_node15"><a xlink:href="lib_2include_2utility_8h.html" target="_top" xlink:title="internal utility functions">
<polygon fill="none" stroke="black" points="395.14,-56.5 395.14,-75.5 442.14,-75.5 442.14,-56.5 395.14,-56.5"/>
<text text-anchor="middle" x="418.64" y="-63.5" font-family="Helvetica,sans-Serif" font-size="10.00">utility.h</text>
</a>
</g>
</g>
<!-- Node2&#45;&gt;Node15 -->
<g id="edge25" class="edge">
<title>Node2&#45;&gt;Node15</title>
<path fill="none" stroke="midnightblue" d="M328.71,-176.91C396.71,-175.95 548.55,-169.56 580.64,-132 618.08,-88.19 510.5,-73.6 452.7,-68.99"/>
<polygon fill="midnightblue" stroke="midnightblue" points="452.76,-65.49 442.53,-68.24 452.25,-72.47 452.76,-65.49"/>
</g>
<!-- Node11&#45;&gt;Node7 -->
<g id="edge11" class="edge">
<title>Node11&#45;&gt;Node7</title>
<path fill="none" stroke="midnightblue" d="M169.64,-56.08C169.64,-49.01 169.64,-38.86 169.64,-29.99"/>
<polygon fill="midnightblue" stroke="midnightblue" points="173.14,-29.75 169.64,-19.75 166.14,-29.75 173.14,-29.75"/>
</g>
<!-- Node11&#45;&gt;Node9 -->
<g id="edge12" class="edge">
<title>Node11&#45;&gt;Node9</title>
<path fill="none" stroke="midnightblue" d="M180.73,-56.32C191.13,-48.18 206.9,-35.84 219.36,-26.09"/>
<polygon fill="midnightblue" stroke="midnightblue" points="221.63,-28.75 227.35,-19.83 217.32,-23.24 221.63,-28.75"/>
</g>
<!-- Node12&#45;&gt;Node7 -->
<g id="edge16" class="edge">
<title>Node12&#45;&gt;Node7</title>
<path fill="none" stroke="midnightblue" d="M326.02,-112.18C326.11,-98.38 324.23,-71.64 309.64,-56 301.8,-47.6 235.72,-28.75 197.21,-18.31"/>
<polygon fill="midnightblue" stroke="midnightblue" points="197.72,-14.82 187.15,-15.6 195.9,-21.58 197.72,-14.82"/>
</g>
<!-- Node12&#45;&gt;Node9 -->
<g id="edge17" class="edge">
<title>Node12&#45;&gt;Node9</title>
<path fill="none" stroke="midnightblue" d="M332,-112.29C340.79,-99.11 354.3,-73.74 342.64,-56 334.13,-43.04 296.66,-28.98 269.13,-20.08"/>
<polygon fill="midnightblue" stroke="midnightblue" points="270.1,-16.72 259.51,-17.05 267.99,-23.4 270.1,-16.72"/>
</g>
<!-- Node12&#45;&gt;Node10 -->
<g id="edge18" class="edge">
<title>Node12&#45;&gt;Node10</title>
<path fill="none" stroke="midnightblue" d="M317.88,-112.08C311.1,-104.3 301.1,-92.8 292.88,-83.37"/>
<polygon fill="midnightblue" stroke="midnightblue" points="295.46,-81 286.26,-75.75 290.18,-85.59 295.46,-81"/>
</g>
<!-- Node12&#45;&gt;Node11 -->
<g id="edge19" class="edge">
<title>Node12&#45;&gt;Node11</title>
<path fill="none" stroke="midnightblue" d="M300.92,-112.44C274.79,-103.4 233.38,-89.06 204.06,-78.92"/>
<polygon fill="midnightblue" stroke="midnightblue" points="204.84,-75.48 194.24,-75.52 202.55,-82.1 204.84,-75.48"/>
</g>
<!-- Node12&#45;&gt;Node13 -->
<g id="edge14" class="edge">
<title>Node12&#45;&gt;Node13</title>
<path fill="none" stroke="midnightblue" d="M356.37,-112.46C388.57,-103.1 436.56,-87.82 451.64,-76 467.41,-63.64 479.32,-43.84 486.56,-29.33"/>
<polygon fill="midnightblue" stroke="midnightblue" points="489.92,-30.43 491,-19.89 483.58,-27.45 489.92,-30.43"/>
</g>
<!-- Node12&#45;&gt;Node14 -->
<g id="edge15" class="edge">
<title>Node12&#45;&gt;Node14</title>
<path fill="none" stroke="midnightblue" d="M356.97,-114.08C360.23,-113.37 363.5,-112.67 366.64,-112 430.44,-98.44 504.83,-83.3 548.43,-74.49"/>
<polygon fill="midnightblue" stroke="midnightblue" points="549.19,-77.9 558.3,-72.49 547.81,-71.04 549.19,-77.9"/>
</g>
<!-- Node12&#45;&gt;Node15 -->
<g id="edge20" class="edge">
<title>Node12&#45;&gt;Node15</title>
<path fill="none" stroke="midnightblue" d="M340.58,-112.32C355.23,-103.82 377.77,-90.73 394.88,-80.8"/>
<polygon fill="midnightblue" stroke="midnightblue" points="396.84,-83.7 403.74,-75.65 393.33,-77.65 396.84,-83.7"/>
</g>
<!-- Node15&#45;&gt;Node9 -->
<g id="edge23" class="edge">
<title>Node15&#45;&gt;Node9</title>
<path fill="none" stroke="midnightblue" d="M395.11,-57.94C362.84,-48.26 304.83,-30.86 269.23,-20.18"/>
<polygon fill="midnightblue" stroke="midnightblue" points="269.97,-16.75 259.39,-17.22 267.96,-23.45 269.97,-16.75"/>
</g>
<!-- Node15&#45;&gt;Node13 -->
<g id="edge21" class="edge">
<title>Node15&#45;&gt;Node13</title>
<path fill="none" stroke="midnightblue" d="M430.85,-56.32C442.42,-48.11 460.02,-35.6 473.8,-25.81"/>
<polygon fill="midnightblue" stroke="midnightblue" points="476.08,-28.48 482.21,-19.83 472.03,-22.77 476.08,-28.48"/>
</g>
<!-- Node16 -->
<g id="node16" class="node">
<title>Node16</title>
<g id="a_node16"><a xlink:title=" ">
<polygon fill="none" stroke="#bfbfbf" points="389.14,-0.5 389.14,-19.5 448.14,-19.5 448.14,-0.5 389.14,-0.5"/>
<text text-anchor="middle" x="418.64" y="-7.5" font-family="Helvetica,sans-Serif" font-size="10.00">functional</text>
</a>
</g>
</g>
<!-- Node15&#45;&gt;Node16 -->
<g id="edge22" class="edge">
<title>Node15&#45;&gt;Node16</title>
<path fill="none" stroke="midnightblue" d="M418.64,-56.08C418.64,-49.01 418.64,-38.86 418.64,-29.99"/>
<polygon fill="midnightblue" stroke="midnightblue" points="422.14,-29.75 418.64,-19.75 415.14,-29.75 422.14,-29.75"/>
</g>
<!-- Node17 -->
<g id="node17" class="node">
<title>Node17</title>
<g id="a_node17"><a xlink:title=" ">
<polygon fill="none" stroke="#bfbfbf" points="288.14,-0.5 288.14,-19.5 371.14,-19.5 371.14,-0.5 288.14,-0.5"/>
<text text-anchor="middle" x="329.64" y="-7.5" font-family="Helvetica,sans-Serif" font-size="10.00">unordered_map</text>
</a>
</g>
</g>
<!-- Node15&#45;&gt;Node17 -->
<g id="edge24" class="edge">
<title>Node15&#45;&gt;Node17</title>
<path fill="none" stroke="midnightblue" d="M404.34,-56.32C390.46,-47.9 369.15,-34.97 352.84,-25.07"/>
<polygon fill="midnightblue" stroke="midnightblue" points="354.27,-21.85 343.9,-19.65 350.64,-27.83 354.27,-21.85"/>
</g>
</g>
</svg>
