<?xml version="1.0" encoding="UTF-8" standalone="no"?>
<!DOCTYPE svg PUBLIC "-//W3C//DTD SVG 1.1//EN"
 "http://www.w3.org/Graphics/SVG/1.1/DTD/svg11.dtd">
<!-- Generated by graphviz version 2.43.0 (0)
 -->
<!-- Title: /home/ugovaretto/projects/uv&#45;cpp/s3client/repo/lib/include/xmlstreams.h Pages: 1 -->
<!--zoomable 386 -->
<svg id="main" version="1.1" xmlns="http://www.w3.org/2000/svg" xmlns:xlink="http://www.w3.org/1999/xlink" xml:space="preserve" onload="init(evt)">
<style type="text/css"><![CDATA[
.edge:hover path { stroke: red; }
.edge:hover polygon { stroke: red; fill: red; }
]]></style>
<script type="text/javascript"><![CDATA[
var edges = document.getElementsByTagName('g');
if (edges && edges.length) {
  for (var i=0;i<edges.length;i++) {
    if (edges[i].id.substr(0,4)=='edge') {
      edges[i].setAttribute('class','edge');
    }
  }
}
]]></script>
        <defs>
                <circle id="rim" cx="0" cy="0" r="7"/>
                <circle id="rim2" cx="0" cy="0" r="3.5"/>
                <g id="zoomPlus">
                        <use xlink:href="#rim" fill="#404040">
                                <set attributeName="fill" to="#808080" begin="zoomplus.mouseover" end="zoomplus.mouseout"/>
                        </use>
                        <path d="M-4,0h8M0,-4v8" fill="none" stroke="white" stroke-width="1.5" pointer-events="none"/>
                </g>
                <g id="zoomMin">
                        <use xlink:href="#rim" fill="#404040">
                                <set attributeName="fill" to="#808080" begin="zoomminus.mouseover" end="zoomminus.mouseout"/>
                        </use>
                        <path d="M-4,0h8" fill="none" stroke="white" stroke-width="1.5" pointer-events="none"/>
                </g>
                <g id="dirArrow">
                        <path fill="none" stroke="white" stroke-width="1.5" d="M0,-3.0v7 M-2.5,-0.5L0,-3.0L2.5,-0.5"/>
                </g>
               <g id="resetDef">
                       <use xlink:href="#rim2" fill="#404040">
                               <set attributeName="fill" to="#808080" begin="reset.mouseover" end="reset.mouseout"/>
                       </use>
               </g>
        </defs>

<script type="text/javascript">
var viewWidth = 1185;
var viewHeight = 386;
var sectionId = 'dynsection-0';
</script>
<script xlink:href="svgpan.js"/>
<svg id="graph" class="graph">
<g id="viewport">
<title>/home/ugovaretto/projects/uv&#45;cpp/s3client/repo/lib/include/xmlstreams.h</title>
<!-- Node1 -->
<g id="node1" class="node">
<title>Node1</title>
<g id="a_node1"><a xlink:title="xml parser and generator.">
<polygon fill="#bfbfbf" stroke="black" points="908.69,-336.5 908.69,-377.5 1038.69,-377.5 1038.69,-336.5 908.69,-336.5"/>
<text text-anchor="start" x="916.69" y="-365.5" font-family="Helvetica,sans-Serif" font-size="10.00">/home/ugovaretto/projects</text>
<text text-anchor="start" x="916.69" y="-354.5" font-family="Helvetica,sans-Serif" font-size="10.00">/uv&#45;cpp/s3client/repo/lib</text>
<text text-anchor="middle" x="973.69" y="-343.5" font-family="Helvetica,sans-Serif" font-size="10.00">/include/xmlstreams.h</text>
</a>
</g>
</g>
<!-- Node2 -->
<g id="node2" class="node">
<title>Node2</title>
<g id="a_node2"><a xlink:href="s3-api_8h.html" target="_top" xlink:title="declarations of S3Api class.">
<polygon fill="none" stroke="black" points="615.19,-280.5 615.19,-299.5 666.19,-299.5 666.19,-280.5 615.19,-280.5"/>
<text text-anchor="middle" x="640.69" y="-287.5" font-family="Helvetica,sans-Serif" font-size="10.00">s3&#45;api.h</text>
</a>
</g>
</g>
<!-- Node1&#45;&gt;Node2 -->
<g id="edge1" class="edge">
<title>Node1&#45;&gt;Node2</title>
<path fill="none" stroke="midnightblue" d="M908.3,-343.24C838.9,-329.69 731.79,-308.78 676.48,-297.98"/>
<polygon fill="midnightblue" stroke="midnightblue" points="676.94,-294.51 666.45,-296.03 675.6,-301.38 676.94,-294.51"/>
</g>
<!-- Node6 -->
<g id="node6" class="node">
<title>Node6</title>
<g id="a_node6"><a xlink:title=" ">
<polygon fill="none" stroke="#bfbfbf" points="581.19,-0.5 581.19,-19.5 622.19,-19.5 622.19,-0.5 581.19,-0.5"/>
<text text-anchor="middle" x="601.69" y="-7.5" font-family="Helvetica,sans-Serif" font-size="10.00">string</text>
</a>
</g>
</g>
<!-- Node1&#45;&gt;Node6 -->
<g id="edge44" class="edge">
<title>Node1&#45;&gt;Node6</title>
<path fill="none" stroke="midnightblue" d="M965.92,-336.22C957.33,-312.55 944.69,-271.51 944.69,-235 944.69,-235 944.69,-235 944.69,-121 944.69,-55.71 716.47,-23.74 632.35,-14.18"/>
<polygon fill="midnightblue" stroke="midnightblue" points="632.7,-10.7 622.38,-13.07 631.93,-17.65 632.7,-10.7"/>
</g>
<!-- Node10 -->
<g id="node10" class="node">
<title>Node10</title>
<g id="a_node10"><a xlink:title=" ">
<polygon fill="none" stroke="#bfbfbf" points="719.69,-56.5 719.69,-75.5 763.69,-75.5 763.69,-56.5 719.69,-56.5"/>
<text text-anchor="middle" x="741.69" y="-63.5" font-family="Helvetica,sans-Serif" font-size="10.00">vector</text>
</a>
</g>
</g>
<!-- Node1&#45;&gt;Node10 -->
<g id="edge46" class="edge">
<title>Node1&#45;&gt;Node10</title>
<path fill="none" stroke="midnightblue" d="M954.67,-336.43C934.87,-313.9 906.69,-274.86 906.69,-235 906.69,-235 906.69,-235 906.69,-177 906.69,-146.9 908.82,-133.44 887.69,-112 883.58,-107.82 815.42,-87.93 773.71,-76.03"/>
<polygon fill="midnightblue" stroke="midnightblue" points="774.56,-72.64 763.98,-73.27 772.64,-79.37 774.56,-72.64"/>
</g>
<!-- Node23 -->
<g id="node23" class="node">
<title>Node23</title>
<g id="a_node23"><a xlink:title=" ">
<polygon fill="none" stroke="#bfbfbf" points="972.69,-280.5 972.69,-299.5 1034.69,-299.5 1034.69,-280.5 972.69,-280.5"/>
<text text-anchor="middle" x="1003.69" y="-287.5" font-family="Helvetica,sans-Serif" font-size="10.00">tinyxml2.h</text>
</a>
</g>
</g>
<!-- Node1&#45;&gt;Node23 -->
<g id="edge42" class="edge">
<title>Node1&#45;&gt;Node23</title>
<path fill="none" stroke="midnightblue" d="M982.7,-336.5C986.76,-327.68 991.54,-317.34 995.51,-308.74"/>
<polygon fill="midnightblue" stroke="midnightblue" points="998.69,-310.2 999.7,-299.65 992.33,-307.27 998.69,-310.2"/>
</g>
<!-- Node24 -->
<g id="node24" class="node">
<title>Node24</title>
<g id="a_node24"><a xlink:title=" ">
<polygon fill="none" stroke="#bfbfbf" points="1053.19,-280.5 1053.19,-299.5 1112.19,-299.5 1112.19,-280.5 1053.19,-280.5"/>
<text text-anchor="middle" x="1082.69" y="-287.5" font-family="Helvetica,sans-Serif" font-size="10.00">exception</text>
</a>
</g>
</g>
<!-- Node1&#45;&gt;Node24 -->
<g id="edge43" class="edge">
<title>Node1&#45;&gt;Node24</title>
<path fill="none" stroke="midnightblue" d="M1006.4,-336.5C1023.43,-326.34 1043.86,-314.16 1059.3,-304.95"/>
<polygon fill="midnightblue" stroke="midnightblue" points="1061.39,-307.78 1068.18,-299.65 1057.8,-301.77 1061.39,-307.78"/>
</g>
<!-- Node25 -->
<g id="node25" class="node">
<title>Node25</title>
<g id="a_node25"><a xlink:title=" ">
<polygon fill="none" stroke="#bfbfbf" points="1130.69,-280.5 1130.69,-299.5 1176.69,-299.5 1176.69,-280.5 1130.69,-280.5"/>
<text text-anchor="middle" x="1153.69" y="-287.5" font-family="Helvetica,sans-Serif" font-size="10.00">variant</text>
</a>
</g>
</g>
<!-- Node1&#45;&gt;Node25 -->
<g id="edge45" class="edge">
<title>Node1&#45;&gt;Node25</title>
<path fill="none" stroke="midnightblue" d="M1027.7,-336.5C1058.05,-325.54 1094.94,-312.22 1120.94,-302.83"/>
<polygon fill="midnightblue" stroke="midnightblue" points="1122.46,-306 1130.67,-299.31 1120.08,-299.42 1122.46,-306"/>
</g>
<!-- Node3 -->
<g id="node3" class="node">
<title>Node3</title>
<g id="a_node3"><a xlink:href="aws__sign_8h.html" target="_top" xlink:title="Public interface to signing URLs and HTTP headers with the S3v4 protocol standard.">
<polygon fill="none" stroke="black" points="546.69,-168.5 546.69,-187.5 612.69,-187.5 612.69,-168.5 546.69,-168.5"/>
<text text-anchor="middle" x="579.69" y="-175.5" font-family="Helvetica,sans-Serif" font-size="10.00">aws_sign.h</text>
</a>
</g>
</g>
<!-- Node2&#45;&gt;Node3 -->
<g id="edge2" class="edge">
<title>Node2&#45;&gt;Node3</title>
<path fill="none" stroke="midnightblue" d="M630.86,-280.24C621.87,-271.77 608.79,-258.15 600.69,-244 592.41,-229.52 586.89,-211.34 583.6,-197.89"/>
<polygon fill="midnightblue" stroke="midnightblue" points="586.96,-196.87 581.35,-187.89 580.13,-198.41 586.96,-196.87"/>
</g>
<!-- Node14 -->
<g id="node14" class="node">
<title>Node14</title>
<g id="a_node14"><a xlink:href="response__parser_8h.html" target="_top" xlink:title="Functions to parse XML and HTTP headers.">
<polygon fill="none" stroke="black" points="782.69,-112.5 782.69,-131.5 878.69,-131.5 878.69,-112.5 782.69,-112.5"/>
<text text-anchor="middle" x="830.69" y="-119.5" font-family="Helvetica,sans-Serif" font-size="10.00">response_parser.h</text>
</a>
</g>
</g>
<!-- Node2&#45;&gt;Node14 -->
<g id="edge19" class="edge">
<title>Node2&#45;&gt;Node14</title>
<path fill="none" stroke="midnightblue" d="M650.64,-280.31C681.17,-253.64 773.79,-172.72 812.93,-138.52"/>
<polygon fill="midnightblue" stroke="midnightblue" points="815.62,-140.82 820.85,-131.61 811.01,-135.55 815.62,-140.82"/>
</g>
<!-- Node16 -->
<g id="node16" class="node">
<title>Node16</title>
<g id="a_node16"><a xlink:href="s3-client_8h.html" target="_top" xlink:title="declaration of functions and data types for sending S3 requests, signing URLs and downloading and upl...">
<polygon fill="none" stroke="black" points="609.69,-224.5 609.69,-243.5 671.69,-243.5 671.69,-224.5 609.69,-224.5"/>
<text text-anchor="middle" x="640.69" y="-231.5" font-family="Helvetica,sans-Serif" font-size="10.00">s3&#45;client.h</text>
</a>
</g>
</g>
<!-- Node2&#45;&gt;Node16 -->
<g id="edge24" class="edge">
<title>Node2&#45;&gt;Node16</title>
<path fill="none" stroke="midnightblue" d="M640.69,-280.08C640.69,-273.01 640.69,-262.86 640.69,-253.99"/>
<polygon fill="midnightblue" stroke="midnightblue" points="644.19,-253.75 640.69,-243.75 637.19,-253.75 644.19,-253.75"/>
</g>
<!-- Node17 -->
<g id="node17" class="node">
<title>Node17</title>
<g id="a_node17"><a xlink:href="webclient_8h.html" target="_top" xlink:title="declaration of WebClient class wrapping libcurl to send web requests.">
<polygon fill="none" stroke="black" points="337.69,-168.5 337.69,-187.5 403.69,-187.5 403.69,-168.5 337.69,-168.5"/>
<text text-anchor="middle" x="370.69" y="-175.5" font-family="Helvetica,sans-Serif" font-size="10.00">webclient.h</text>
</a>
</g>
</g>
<!-- Node2&#45;&gt;Node17 -->
<g id="edge41" class="edge">
<title>Node2&#45;&gt;Node17</title>
<path fill="none" stroke="midnightblue" d="M619.51,-280.37C571.89,-260.97 456.28,-213.87 401.05,-191.37"/>
<polygon fill="midnightblue" stroke="midnightblue" points="402.36,-188.12 391.78,-187.59 399.72,-194.61 402.36,-188.12"/>
</g>
<!-- Node4 -->
<g id="node4" class="node">
<title>Node4</title>
<g id="a_node4"><a xlink:href="common_8h.html" target="_top" xlink:title="Common definitions.">
<polygon fill="none" stroke="black" points="541.69,-56.5 541.69,-75.5 603.69,-75.5 603.69,-56.5 541.69,-56.5"/>
<text text-anchor="middle" x="572.69" y="-63.5" font-family="Helvetica,sans-Serif" font-size="10.00">common.h</text>
</a>
</g>
</g>
<!-- Node3&#45;&gt;Node4 -->
<g id="edge3" class="edge">
<title>Node3&#45;&gt;Node4</title>
<path fill="none" stroke="midnightblue" d="M579.15,-168.37C578.02,-150.62 575.41,-109.67 573.88,-85.6"/>
<polygon fill="midnightblue" stroke="midnightblue" points="577.37,-85.35 573.24,-75.59 570.38,-85.79 577.37,-85.35"/>
</g>
<!-- Node3&#45;&gt;Node6 -->
<g id="edge18" class="edge">
<title>Node3&#45;&gt;Node6</title>
<path fill="none" stroke="midnightblue" d="M584.49,-168.37C594.83,-148.77 617.9,-99.24 612.69,-56 611.62,-47.11 609.4,-37.43 607.23,-29.34"/>
<polygon fill="midnightblue" stroke="midnightblue" points="610.54,-28.17 604.42,-19.51 603.81,-30.09 610.54,-28.17"/>
</g>
<!-- Node7 -->
<g id="node7" class="node">
<title>Node7</title>
<g id="a_node7"><a xlink:href="url__utility_8h.html" target="_top" xlink:title="Internal utility functions to process and parse text and URLs and create S3 signature keys.">
<polygon fill="none" stroke="black" points="398.69,-112.5 398.69,-131.5 460.69,-131.5 460.69,-112.5 398.69,-112.5"/>
<text text-anchor="middle" x="429.69" y="-119.5" font-family="Helvetica,sans-Serif" font-size="10.00">url_utility.h</text>
</a>
</g>
</g>
<!-- Node3&#45;&gt;Node7 -->
<g id="edge6" class="edge">
<title>Node3&#45;&gt;Node7</title>
<path fill="none" stroke="midnightblue" d="M555.93,-168.44C530.8,-159.4 490.98,-145.06 462.79,-134.92"/>
<polygon fill="midnightblue" stroke="midnightblue" points="463.95,-131.61 453.35,-131.52 461.57,-138.2 463.95,-131.61"/>
</g>
<!-- Node5 -->
<g id="node5" class="node">
<title>Node5</title>
<g id="a_node5"><a xlink:title=" ">
<polygon fill="none" stroke="#bfbfbf" points="360.19,-0.5 360.19,-19.5 395.19,-19.5 395.19,-0.5 360.19,-0.5"/>
<text text-anchor="middle" x="377.69" y="-7.5" font-family="Helvetica,sans-Serif" font-size="10.00">map</text>
</a>
</g>
</g>
<!-- Node4&#45;&gt;Node5 -->
<g id="edge4" class="edge">
<title>Node4&#45;&gt;Node5</title>
<path fill="none" stroke="midnightblue" d="M541.8,-56.44C504.16,-46.02 441.18,-28.58 405.17,-18.61"/>
<polygon fill="midnightblue" stroke="midnightblue" points="405.92,-15.18 395.34,-15.89 404.05,-21.93 405.92,-15.18"/>
</g>
<!-- Node4&#45;&gt;Node6 -->
<g id="edge5" class="edge">
<title>Node4&#45;&gt;Node6</title>
<path fill="none" stroke="midnightblue" d="M577.48,-56.08C581.45,-48.69 587.22,-37.95 592.13,-28.81"/>
<polygon fill="midnightblue" stroke="midnightblue" points="595.35,-30.22 596.99,-19.75 589.18,-26.91 595.35,-30.22"/>
</g>
<!-- Node7&#45;&gt;Node4 -->
<g id="edge12" class="edge">
<title>Node7&#45;&gt;Node4</title>
<path fill="none" stroke="midnightblue" d="M452.35,-112.44C476.1,-103.48 513.6,-89.31 540.43,-79.18"/>
<polygon fill="midnightblue" stroke="midnightblue" points="542.02,-82.32 550.14,-75.52 539.55,-75.77 542.02,-82.32"/>
</g>
<!-- Node7&#45;&gt;Node5 -->
<g id="edge9" class="edge">
<title>Node7&#45;&gt;Node5</title>
<path fill="none" stroke="midnightblue" d="M417.04,-112.25C406.45,-104.17 391.94,-91.15 384.69,-76 377.8,-61.6 376.37,-43.41 376.48,-29.93"/>
<polygon fill="midnightblue" stroke="midnightblue" points="379.98,-30.03 376.85,-19.91 372.98,-29.78 379.98,-30.03"/>
</g>
<!-- Node7&#45;&gt;Node6 -->
<g id="edge10" class="edge">
<title>Node7&#45;&gt;Node6</title>
<path fill="none" stroke="midnightblue" d="M437.14,-112.45C449.19,-99.01 474.2,-72.77 499.69,-56 522.31,-41.12 550.65,-29.07 571.72,-21.2"/>
<polygon fill="midnightblue" stroke="midnightblue" points="572.93,-24.48 581.13,-17.78 570.54,-17.9 572.93,-24.48"/>
</g>
<!-- Node8 -->
<g id="node8" class="node">
<title>Node8</title>
<g id="a_node8"><a xlink:title=" ">
<polygon fill="none" stroke="#bfbfbf" points="285.69,-0.5 285.69,-19.5 341.69,-19.5 341.69,-0.5 285.69,-0.5"/>
<text text-anchor="middle" x="313.69" y="-7.5" font-family="Helvetica,sans-Serif" font-size="10.00">algorithm</text>
</a>
</g>
</g>
<!-- Node7&#45;&gt;Node8 -->
<g id="edge7" class="edge">
<title>Node7&#45;&gt;Node8</title>
<path fill="none" stroke="midnightblue" d="M418.63,-112.39C407.48,-103.58 389.96,-89.34 375.69,-76 358.71,-60.12 340.49,-40.7 328.22,-27.24"/>
<polygon fill="midnightblue" stroke="midnightblue" points="330.72,-24.79 321.42,-19.72 325.53,-29.48 330.72,-24.79"/>
</g>
<!-- Node9 -->
<g id="node9" class="node">
<title>Node9</title>
<g id="a_node9"><a xlink:title=" ">
<polygon fill="none" stroke="#bfbfbf" points="393.69,-56.5 393.69,-75.5 447.69,-75.5 447.69,-56.5 393.69,-56.5"/>
<text text-anchor="middle" x="420.69" y="-63.5" font-family="Helvetica,sans-Serif" font-size="10.00">iostream</text>
</a>
</g>
</g>
<!-- Node7&#45;&gt;Node9 -->
<g id="edge8" class="edge">
<title>Node7&#45;&gt;Node9</title>
<path fill="none" stroke="midnightblue" d="M428.21,-112.08C427.02,-104.93 425.3,-94.64 423.81,-85.69"/>
<polygon fill="midnightblue" stroke="midnightblue" points="427.25,-85.04 422.15,-75.75 420.34,-86.19 427.25,-85.04"/>
</g>
<!-- Node7&#45;&gt;Node10 -->
<g id="edge11" class="edge">
<title>Node7&#45;&gt;Node10</title>
<path fill="none" stroke="midnightblue" d="M460.75,-115.62C520.08,-105.36 648.97,-83.05 709.31,-72.6"/>
<polygon fill="midnightblue" stroke="midnightblue" points="710.16,-76.01 719.41,-70.86 708.96,-69.11 710.16,-76.01"/>
</g>
<!-- Node11 -->
<g id="node11" class="node">
<title>Node11</title>
<g id="a_node11"><a xlink:href="lib_2include_2utility_8h.html" target="_top" xlink:title="internal utility functions">
<polygon fill="none" stroke="black" points="214.19,-56.5 214.19,-75.5 261.19,-75.5 261.19,-56.5 214.19,-56.5"/>
<text text-anchor="middle" x="237.69" y="-63.5" font-family="Helvetica,sans-Serif" font-size="10.00">utility.h</text>
</a>
</g>
</g>
<!-- Node7&#45;&gt;Node11 -->
<g id="edge13" class="edge">
<title>Node7&#45;&gt;Node11</title>
<path fill="none" stroke="midnightblue" d="M399.27,-112.44C364.43,-102.65 307.52,-86.64 271.37,-76.47"/>
<polygon fill="midnightblue" stroke="midnightblue" points="271.89,-72.98 261.32,-73.64 270,-79.72 271.89,-72.98"/>
</g>
<!-- Node11&#45;&gt;Node6 -->
<g id="edge16" class="edge">
<title>Node11&#45;&gt;Node6</title>
<path fill="none" stroke="midnightblue" d="M261.3,-61.5C324.83,-52.07 499.48,-26.16 570.77,-15.59"/>
<polygon fill="midnightblue" stroke="midnightblue" points="571.53,-19.01 580.9,-14.08 570.5,-12.09 571.53,-19.01"/>
</g>
<!-- Node11&#45;&gt;Node8 -->
<g id="edge14" class="edge">
<title>Node11&#45;&gt;Node8</title>
<path fill="none" stroke="midnightblue" d="M249.91,-56.32C261.47,-48.11 279.07,-35.6 292.86,-25.81"/>
<polygon fill="midnightblue" stroke="midnightblue" points="295.14,-28.48 301.26,-19.83 291.08,-22.77 295.14,-28.48"/>
</g>
<!-- Node12 -->
<g id="node12" class="node">
<title>Node12</title>
<g id="a_node12"><a xlink:title=" ">
<polygon fill="none" stroke="#bfbfbf" points="208.19,-0.5 208.19,-19.5 267.19,-19.5 267.19,-0.5 208.19,-0.5"/>
<text text-anchor="middle" x="237.69" y="-7.5" font-family="Helvetica,sans-Serif" font-size="10.00">functional</text>
</a>
</g>
</g>
<!-- Node11&#45;&gt;Node12 -->
<g id="edge15" class="edge">
<title>Node11&#45;&gt;Node12</title>
<path fill="none" stroke="midnightblue" d="M237.69,-56.08C237.69,-49.01 237.69,-38.86 237.69,-29.99"/>
<polygon fill="midnightblue" stroke="midnightblue" points="241.19,-29.75 237.69,-19.75 234.19,-29.75 241.19,-29.75"/>
</g>
<!-- Node13 -->
<g id="node13" class="node">
<title>Node13</title>
<g id="a_node13"><a xlink:title=" ">
<polygon fill="none" stroke="#bfbfbf" points="107.19,-0.5 107.19,-19.5 190.19,-19.5 190.19,-0.5 107.19,-0.5"/>
<text text-anchor="middle" x="148.69" y="-7.5" font-family="Helvetica,sans-Serif" font-size="10.00">unordered_map</text>
</a>
</g>
</g>
<!-- Node11&#45;&gt;Node13 -->
<g id="edge17" class="edge">
<title>Node11&#45;&gt;Node13</title>
<path fill="none" stroke="midnightblue" d="M223.39,-56.32C209.51,-47.9 188.2,-34.97 171.89,-25.07"/>
<polygon fill="midnightblue" stroke="midnightblue" points="173.32,-21.85 162.96,-19.65 169.69,-27.83 173.32,-21.85"/>
</g>
<!-- Node14&#45;&gt;Node4 -->
<g id="edge23" class="edge">
<title>Node14&#45;&gt;Node4</title>
<path fill="none" stroke="midnightblue" d="M789.81,-112.44C741.66,-102.37 662.13,-85.72 613.86,-75.62"/>
<polygon fill="midnightblue" stroke="midnightblue" points="614.56,-72.19 604.05,-73.56 613.12,-79.04 614.56,-72.19"/>
</g>
<!-- Node14&#45;&gt;Node6 -->
<g id="edge21" class="edge">
<title>Node14&#45;&gt;Node6</title>
<path fill="none" stroke="midnightblue" d="M834.21,-112.27C839.09,-98.6 845.9,-72.03 832.69,-56 807.67,-25.64 689.57,-15.49 632.59,-12.33"/>
<polygon fill="midnightblue" stroke="midnightblue" points="632.54,-8.82 622.37,-11.8 632.18,-15.81 632.54,-8.82"/>
</g>
<!-- Node14&#45;&gt;Node10 -->
<g id="edge22" class="edge">
<title>Node14&#45;&gt;Node10</title>
<path fill="none" stroke="midnightblue" d="M816.39,-112.32C802.51,-103.9 781.2,-90.97 764.89,-81.07"/>
<polygon fill="midnightblue" stroke="midnightblue" points="766.32,-77.85 755.96,-75.65 762.69,-83.83 766.32,-77.85"/>
</g>
<!-- Node15 -->
<g id="node15" class="node">
<title>Node15</title>
<g id="a_node15"><a xlink:title=" ">
<polygon fill="none" stroke="#bfbfbf" points="782.19,-56.5 782.19,-75.5 823.19,-75.5 823.19,-56.5 782.19,-56.5"/>
<text text-anchor="middle" x="802.69" y="-63.5" font-family="Helvetica,sans-Serif" font-size="10.00">regex</text>
</a>
</g>
</g>
<!-- Node14&#45;&gt;Node15 -->
<g id="edge20" class="edge">
<title>Node14&#45;&gt;Node15</title>
<path fill="none" stroke="midnightblue" d="M826.07,-112.08C822.24,-104.69 816.67,-93.95 811.93,-84.81"/>
<polygon fill="midnightblue" stroke="midnightblue" points="814.94,-83.02 807.23,-75.75 808.73,-86.24 814.94,-83.02"/>
</g>
<!-- Node16&#45;&gt;Node3 -->
<g id="edge25" class="edge">
<title>Node16&#45;&gt;Node3</title>
<path fill="none" stroke="midnightblue" d="M630.89,-224.32C621.88,-216.34 608.29,-204.31 597.38,-194.65"/>
<polygon fill="midnightblue" stroke="midnightblue" points="599.48,-191.84 589.67,-187.83 594.84,-197.08 599.48,-191.84"/>
</g>
<!-- Node16&#45;&gt;Node4 -->
<g id="edge26" class="edge">
<title>Node16&#45;&gt;Node4</title>
<path fill="none" stroke="midnightblue" d="M638.68,-224.44C635.61,-211.86 629.31,-187.75 621.69,-168 610.06,-137.82 592.91,-104.32 582.3,-84.49"/>
<polygon fill="midnightblue" stroke="midnightblue" points="585.37,-82.82 577.53,-75.7 579.22,-86.16 585.37,-82.82"/>
</g>
<!-- Node16&#45;&gt;Node6 -->
<g id="edge39" class="edge">
<title>Node16&#45;&gt;Node6</title>
<path fill="none" stroke="midnightblue" d="M641.5,-224.24C643.61,-197.97 647.86,-117.81 627.69,-56 624.52,-46.26 619.04,-36.3 613.93,-28.24"/>
<polygon fill="midnightblue" stroke="midnightblue" points="616.74,-26.14 608.26,-19.78 610.92,-30.03 616.74,-26.14"/>
</g>
<!-- Node16&#45;&gt;Node10 -->
<g id="edge40" class="edge">
<title>Node16&#45;&gt;Node10</title>
<path fill="none" stroke="midnightblue" d="M653.79,-224.38C665.35,-216.2 681.99,-202.95 692.69,-188 715.91,-155.55 730.37,-110.51 737.13,-85.54"/>
<polygon fill="midnightblue" stroke="midnightblue" points="740.59,-86.16 739.71,-75.6 733.81,-84.41 740.59,-86.16"/>
</g>
<!-- Node16&#45;&gt;Node17 -->
<g id="edge27" class="edge">
<title>Node16&#45;&gt;Node17</title>
<path fill="none" stroke="midnightblue" d="M609.46,-226.75C561.21,-217.1 468.42,-198.55 413.81,-187.62"/>
<polygon fill="midnightblue" stroke="midnightblue" points="414.24,-184.14 403.75,-185.61 412.87,-191 414.24,-184.14"/>
</g>
<!-- Node17&#45;&gt;Node4 -->
<g id="edge36" class="edge">
<title>Node17&#45;&gt;Node4</title>
<path fill="none" stroke="midnightblue" d="M403.81,-169.82C431.56,-162.87 471.52,-150.62 502.69,-132 524.59,-118.92 545.45,-98.09 558.61,-83.55"/>
<polygon fill="midnightblue" stroke="midnightblue" points="561.43,-85.64 565.41,-75.82 556.18,-81.01 561.43,-85.64"/>
</g>
<!-- Node17&#45;&gt;Node5 -->
<g id="edge32" class="edge">
<title>Node17&#45;&gt;Node5</title>
<path fill="none" stroke="midnightblue" d="M371.04,-168.49C371.83,-148.73 373.88,-98.22 375.69,-56 376.06,-47.4 376.48,-37.87 376.85,-29.8"/>
<polygon fill="midnightblue" stroke="midnightblue" points="380.35,-29.77 377.3,-19.63 373.36,-29.46 380.35,-29.77"/>
</g>
<!-- Node17&#45;&gt;Node6 -->
<g id="edge34" class="edge">
<title>Node17&#45;&gt;Node6</title>
<path fill="none" stroke="midnightblue" d="M397.69,-168.49C418.67,-161.02 447.79,-148.74 469.69,-132 504.55,-105.36 499.95,-85.2 532.69,-56 546.14,-44.01 563.05,-32.93 576.77,-24.76"/>
<polygon fill="midnightblue" stroke="midnightblue" points="578.78,-27.64 585.67,-19.6 575.27,-21.59 578.78,-27.64"/>
</g>
<!-- Node17&#45;&gt;Node7 -->
<g id="edge37" class="edge">
<title>Node17&#45;&gt;Node7</title>
<path fill="none" stroke="midnightblue" d="M380.17,-168.32C388.9,-160.34 402.04,-148.31 412.59,-138.65"/>
<polygon fill="midnightblue" stroke="midnightblue" points="415.03,-141.17 420.04,-131.83 410.3,-136 415.03,-141.17"/>
</g>
<!-- Node17&#45;&gt;Node10 -->
<g id="edge35" class="edge">
<title>Node17&#45;&gt;Node10</title>
<path fill="none" stroke="midnightblue" d="M401.53,-168.49C433.6,-159.58 485.25,-145.1 529.69,-132 593.69,-113.14 668.2,-90.02 709.66,-77.06"/>
<polygon fill="midnightblue" stroke="midnightblue" points="710.96,-80.32 719.46,-73.99 708.87,-73.64 710.96,-80.32"/>
</g>
<!-- Node17&#45;&gt;Node11 -->
<g id="edge38" class="edge">
<title>Node17&#45;&gt;Node11</title>
<path fill="none" stroke="midnightblue" d="M337.63,-175.32C252.72,-170.67 32.19,-156.35 10.69,-132 -43.98,-70.07 128.09,-65.36 203.8,-66.16"/>
<polygon fill="midnightblue" stroke="midnightblue" points="203.76,-69.66 213.81,-66.31 203.86,-62.66 203.76,-69.66"/>
</g>
<!-- Node18 -->
<g id="node18" class="node">
<title>Node18</title>
<g id="a_node18"><a xlink:title=" ">
<polygon fill="none" stroke="#bfbfbf" points="20.19,-112.5 20.19,-131.5 79.19,-131.5 79.19,-112.5 20.19,-112.5"/>
<text text-anchor="middle" x="49.69" y="-119.5" font-family="Helvetica,sans-Serif" font-size="10.00">curl/curl.h</text>
</a>
</g>
</g>
<!-- Node17&#45;&gt;Node18 -->
<g id="edge28" class="edge">
<title>Node17&#45;&gt;Node18</title>
<path fill="none" stroke="midnightblue" d="M337.44,-172.54C286.22,-165.48 184.74,-150.8 89.59,-132.27"/>
<polygon fill="midnightblue" stroke="midnightblue" points="90.01,-128.78 79.52,-130.29 88.66,-135.65 90.01,-128.78"/>
</g>
<!-- Node19 -->
<g id="node19" class="node">
<title>Node19</title>
<g id="a_node19"><a xlink:title=" ">
<polygon fill="none" stroke="#bfbfbf" points="97.19,-112.5 97.19,-131.5 160.19,-131.5 160.19,-112.5 97.19,-112.5"/>
<text text-anchor="middle" x="128.69" y="-119.5" font-family="Helvetica,sans-Serif" font-size="10.00">curl/easy.h</text>
</a>
</g>
</g>
<!-- Node17&#45;&gt;Node19 -->
<g id="edge29" class="edge">
<title>Node17&#45;&gt;Node19</title>
<path fill="none" stroke="midnightblue" d="M337.55,-169.6C294.02,-159.89 217.56,-142.83 170.21,-132.26"/>
<polygon fill="midnightblue" stroke="midnightblue" points="170.81,-128.81 160.28,-130.05 169.28,-135.64 170.81,-128.81"/>
</g>
<!-- Node20 -->
<g id="node20" class="node">
<title>Node20</title>
<g id="a_node20"><a xlink:title=" ">
<polygon fill="none" stroke="#bfbfbf" points="178.69,-112.5 178.69,-131.5 216.69,-131.5 216.69,-112.5 178.69,-112.5"/>
<text text-anchor="middle" x="197.69" y="-119.5" font-family="Helvetica,sans-Serif" font-size="10.00">array</text>
</a>
</g>
</g>
<!-- Node17&#45;&gt;Node20 -->
<g id="edge30" class="edge">
<title>Node17&#45;&gt;Node20</title>
<path fill="none" stroke="midnightblue" d="M342.87,-168.46C315.6,-160.06 272.61,-146.78 226.78,-132.32"/>
<polygon fill="midnightblue" stroke="midnightblue" points="227.56,-128.9 216.97,-129.22 225.45,-135.57 227.56,-128.9"/>
</g>
<!-- Node21 -->
<g id="node21" class="node">
<title>Node21</title>
<g id="a_node21"><a xlink:title=" ">
<polygon fill="none" stroke="#bfbfbf" points="234.69,-112.5 234.69,-131.5 280.69,-131.5 280.69,-112.5 234.69,-112.5"/>
<text text-anchor="middle" x="257.69" y="-119.5" font-family="Helvetica,sans-Serif" font-size="10.00">atomic</text>
</a>
</g>
</g>
<!-- Node17&#45;&gt;Node21 -->
<g id="edge31" class="edge">
<title>Node17&#45;&gt;Node21</title>
<path fill="none" stroke="midnightblue" d="M352.79,-168.44C334.44,-159.68 305.69,-145.94 284.6,-135.86"/>
<polygon fill="midnightblue" stroke="midnightblue" points="286.05,-132.67 275.52,-131.52 283.03,-138.99 286.05,-132.67"/>
</g>
<!-- Node22 -->
<g id="node22" class="node">
<title>Node22</title>
<g id="a_node22"><a xlink:title=" ">
<polygon fill="none" stroke="#bfbfbf" points="298.69,-112.5 298.69,-131.5 342.69,-131.5 342.69,-112.5 298.69,-112.5"/>
<text text-anchor="middle" x="320.69" y="-119.5" font-family="Helvetica,sans-Serif" font-size="10.00">mutex</text>
</a>
</g>
</g>
<!-- Node17&#45;&gt;Node22 -->
<g id="edge33" class="edge">
<title>Node17&#45;&gt;Node22</title>
<path fill="none" stroke="midnightblue" d="M362.44,-168.08C355.23,-160.3 344.58,-148.8 335.85,-139.37"/>
<polygon fill="midnightblue" stroke="midnightblue" points="338.16,-136.71 328.8,-131.75 333.02,-141.47 338.16,-136.71"/>
</g>
</g>
</svg>
        <g id="navigator" transform="translate(0 0)" fill="#404254">
                <rect fill="#f2f5e9" fill-opacity="0.5" stroke="#606060" stroke-width=".5" x="0" y="0" width="60" height="60"/>
                <use id="zoomplus" xlink:href="#zoomPlus" x="17" y="9" onmousedown="handleZoom(evt,'in')"/>
                <use id="zoomminus" xlink:href="#zoomMin" x="42" y="9" onmousedown="handleZoom(evt,'out')"/>
                <use id="reset" xlink:href="#resetDef" x="30" y="36" onmousedown="handleReset()"/>
                <g id="arrowUp" xlink:href="#dirArrow" transform="translate(30 24)" onmousedown="handlePan(0,-1)">
                  <use xlink:href="#rim" fill="#404040">
                        <set attributeName="fill" to="#808080" begin="arrowUp.mouseover" end="arrowUp.mouseout"/>
                  </use>
                  <path fill="none" stroke="white" stroke-width="1.5" d="M0,-3.0v7 M-2.5,-0.5L0,-3.0L2.5,-0.5"/>
                </g>
                <g id="arrowRight" xlink:href="#dirArrow" transform="rotate(90) translate(36 -43)" onmousedown="handlePan(1,0)">
                  <use xlink:href="#rim" fill="#404040">
                        <set attributeName="fill" to="#808080" begin="arrowRight.mouseover" end="arrowRight.mouseout"/>
                  </use>
                  <path fill="none" stroke="white" stroke-width="1.5" d="M0,-3.0v7 M-2.5,-0.5L0,-3.0L2.5,-0.5"/>
                </g>
                <g id="arrowDown" xlink:href="#dirArrow" transform="rotate(180) translate(-30 -48)" onmousedown="handlePan(0,1)">
                  <use xlink:href="#rim" fill="#404040">
                        <set attributeName="fill" to="#808080" begin="arrowDown.mouseover" end="arrowDown.mouseout"/>
                  </use>
                  <path fill="none" stroke="white" stroke-width="1.5" d="M0,-3.0v7 M-2.5,-0.5L0,-3.0L2.5,-0.5"/>
                </g>
                <g id="arrowLeft" xlink:href="#dirArrow" transform="rotate(270) translate(-36 17)" onmousedown="handlePan(-1,0)">
                  <use xlink:href="#rim" fill="#404040">
                        <set attributeName="fill" to="#808080" begin="arrowLeft.mouseover" end="arrowLeft.mouseout"/>
                  </use>
                  <path fill="none" stroke="white" stroke-width="1.5" d="M0,-3.0v7 M-2.5,-0.5L0,-3.0L2.5,-0.5"/>
                </g>
        </g>
        <svg viewBox="0 0 15 15" width="100%" height="30px" preserveAspectRatio="xMaxYMin meet">
         <g id="arrow_out" transform="scale(0.3 0.3)">
          <a xlink:href="xmlstreams_8h__incl_org.svg" target="_base">
           <rect id="button" ry="5" rx="5" y="6" x="6" height="38" width="38"
                fill="#f2f5e9" fill-opacity="0.5" stroke="#606060" stroke-width="1.0"/>
           <path id="arrow"
             d="M 11.500037,31.436501 C 11.940474,20.09759 22.043105,11.32322 32.158766,21.979434 L 37.068811,17.246167 C 37.068811,17.246167 37.088388,32 37.088388,32 L 22.160133,31.978069 C 22.160133,31.978069 26.997745,27.140456 26.997745,27.140456 C 18.528582,18.264221 13.291696,25.230495 11.500037,31.436501 z"
             style="fill:#404040;"/>
          </a>
         </g>
        </svg>
</svg>
