<?xml version="1.0" encoding="UTF-8" standalone="no"?>
<!DOCTYPE svg PUBLIC "-//W3C//DTD SVG 1.1//EN"
 "http://www.w3.org/Graphics/SVG/1.1/DTD/svg11.dtd">
<!-- Generated by graphviz version 2.43.0 (0)
 -->
<!-- Title: /home/ugovaretto/projects/uv&#45;cpp/s3client/repo/lib/include/xmlstreams.h Pages: 1 -->
<!--zoomable 386 -->
<svg id="main" version="1.1" xmlns="http://www.w3.org/2000/svg" xmlns:xlink="http://www.w3.org/1999/xlink" xml:space="preserve" onload="init(evt)">
<style type="text/css"><![CDATA[
.edge:hover path { stroke: red; }
.edge:hover polygon { stroke: red; fill: red; }
]]></style>
<script type="text/javascript"><![CDATA[
var edges = document.getElementsByTagName('g');
if (edges && edges.length) {
  for (var i=0;i<edges.length;i++) {
    if (edges[i].id.substr(0,4)=='edge') {
      edges[i].setAttribute('class','edge');
    }
  }
}
]]></script>
        <defs>
                <circle id="rim" cx="0" cy="0" r="7"/>
                <circle id="rim2" cx="0" cy="0" r="3.5"/>
                <g id="zoomPlus">
                        <use xlink:href="#rim" fill="#404040">
                                <set attributeName="fill" to="#808080" begin="zoomplus.mouseover" end="zoomplus.mouseout"/>
                        </use>
                        <path d="M-4,0h8M0,-4v8" fill="none" stroke="white" stroke-width="1.5" pointer-events="none"/>
                </g>
                <g id="zoomMin">
                        <use xlink:href="#rim" fill="#404040">
                                <set attributeName="fill" to="#808080" begin="zoomminus.mouseover" end="zoomminus.mouseout"/>
                        </use>
                        <path d="M-4,0h8" fill="none" stroke="white" stroke-width="1.5" pointer-events="none"/>
                </g>
                <g id="dirArrow">
                        <path fill="none" stroke="white" stroke-width="1.5" d="M0,-3.0v7 M-2.5,-0.5L0,-3.0L2.5,-0.5"/>
                </g>
               <g id="resetDef">
                       <use xlink:href="#rim2" fill="#404040">
                               <set attributeName="fill" to="#808080" begin="reset.mouseover" end="reset.mouseout"/>
                       </use>
               </g>
        </defs>

<script type="text/javascript">
var viewWidth = 1271;
var viewHeight = 386;
var sectionId = 'dynsection-0';
</script>
<script xlink:href="svgpan.js"/>
<svg id="graph" class="graph">
<g id="viewport">
<title>/home/ugovaretto/projects/uv&#45;cpp/s3client/repo/lib/include/xmlstreams.h</title>
<!-- Node1 -->
<g id="node1" class="node">
<title>Node1</title>
<g id="a_node1"><a xlink:title="xml parser and generator.">
<polygon fill="#bfbfbf" stroke="black" points="959.5,-336.5 959.5,-377.5 1089.5,-377.5 1089.5,-336.5 959.5,-336.5"/>
<text text-anchor="start" x="967.5" y="-365.5" font-family="Helvetica,sans-Serif" font-size="10.00">/home/ugovaretto/projects</text>
<text text-anchor="start" x="967.5" y="-354.5" font-family="Helvetica,sans-Serif" font-size="10.00">/uv&#45;cpp/s3client/repo/lib</text>
<text text-anchor="middle" x="1024.5" y="-343.5" font-family="Helvetica,sans-Serif" font-size="10.00">/include/xmlstreams.h</text>
</a>
</g>
</g>
<!-- Node2 -->
<g id="node2" class="node">
<title>Node2</title>
<g id="a_node2"><a xlink:href="s3-api_8h.html" target="_top" xlink:title="declarations of S3Api class.">
<polygon fill="none" stroke="black" points="733,-280.5 733,-299.5 784,-299.5 784,-280.5 733,-280.5"/>
<text text-anchor="middle" x="758.5" y="-287.5" font-family="Helvetica,sans-Serif" font-size="10.00">s3&#45;api.h</text>
</a>
</g>
</g>
<!-- Node1&#45;&gt;Node2 -->
<g id="edge1" class="edge">
<title>Node1&#45;&gt;Node2</title>
<path fill="none" stroke="midnightblue" d="M959.43,-340.1C907.28,-327.36 836.09,-309.96 793.94,-299.66"/>
<polygon fill="midnightblue" stroke="midnightblue" points="794.68,-296.24 784.14,-297.26 793.02,-303.04 794.68,-296.24"/>
</g>
<!-- Node6 -->
<g id="node6" class="node">
<title>Node6</title>
<g id="a_node6"><a xlink:title=" ">
<polygon fill="none" stroke="#bfbfbf" points="672,-0.5 672,-19.5 713,-19.5 713,-0.5 672,-0.5"/>
<text text-anchor="middle" x="692.5" y="-7.5" font-family="Helvetica,sans-Serif" font-size="10.00">string</text>
</a>
</g>
</g>
<!-- Node1&#45;&gt;Node6 -->
<g id="edge46" class="edge">
<title>Node1&#45;&gt;Node6</title>
<path fill="none" stroke="midnightblue" d="M1024.5,-336.3C1024.5,-312.35 1024.5,-270.71 1024.5,-235 1024.5,-235 1024.5,-235 1024.5,-121 1024.5,-88.19 1016.33,-74.89 989.5,-56 946.99,-26.06 790.52,-15.46 723.4,-12.24"/>
<polygon fill="midnightblue" stroke="midnightblue" points="723.21,-8.72 713.06,-11.76 722.89,-15.72 723.21,-8.72"/>
</g>
<!-- Node10 -->
<g id="node10" class="node">
<title>Node10</title>
<g id="a_node10"><a xlink:title=" ">
<polygon fill="none" stroke="#bfbfbf" points="774.5,-56.5 774.5,-75.5 818.5,-75.5 818.5,-56.5 774.5,-56.5"/>
<text text-anchor="middle" x="796.5" y="-63.5" font-family="Helvetica,sans-Serif" font-size="10.00">vector</text>
</a>
</g>
</g>
<!-- Node1&#45;&gt;Node10 -->
<g id="edge48" class="edge">
<title>Node1&#45;&gt;Node10</title>
<path fill="none" stroke="midnightblue" d="M1011.91,-336.27C994.94,-310.03 963.39,-262.47 933.5,-224 891.86,-170.41 837.68,-111.06 811.7,-83.16"/>
<polygon fill="midnightblue" stroke="midnightblue" points="813.97,-80.47 804.59,-75.55 808.86,-85.25 813.97,-80.47"/>
</g>
<!-- Node23 -->
<g id="node23" class="node">
<title>Node23</title>
<g id="a_node23"><a xlink:title=" ">
<polygon fill="none" stroke="#bfbfbf" points="878.5,-224.5 878.5,-243.5 924.5,-243.5 924.5,-224.5 878.5,-224.5"/>
<text text-anchor="middle" x="901.5" y="-231.5" font-family="Helvetica,sans-Serif" font-size="10.00">variant</text>
</a>
</g>
</g>
<!-- Node1&#45;&gt;Node23 -->
<g id="edge47" class="edge">
<title>Node1&#45;&gt;Node23</title>
<path fill="none" stroke="midnightblue" d="M986.04,-336.31C970.03,-326.84 952.06,-314.4 938.5,-300 925.59,-286.29 915.43,-267.25 909.05,-253.32"/>
<polygon fill="midnightblue" stroke="midnightblue" points="912.12,-251.62 904.93,-243.84 905.7,-254.41 912.12,-251.62"/>
</g>
<!-- Node24 -->
<g id="node24" class="node">
<title>Node24</title>
<g id="a_node24"><a xlink:title=" ">
<polygon fill="none" stroke="#bfbfbf" points="1052.5,-280.5 1052.5,-299.5 1114.5,-299.5 1114.5,-280.5 1052.5,-280.5"/>
<text text-anchor="middle" x="1083.5" y="-287.5" font-family="Helvetica,sans-Serif" font-size="10.00">tinyxml2.h</text>
</a>
</g>
</g>
<!-- Node1&#45;&gt;Node24 -->
<g id="edge44" class="edge">
<title>Node1&#45;&gt;Node24</title>
<path fill="none" stroke="midnightblue" d="M1042.2,-336.5C1050.73,-327.11 1060.82,-315.98 1068.9,-307.08"/>
<polygon fill="midnightblue" stroke="midnightblue" points="1071.52,-309.41 1075.65,-299.65 1066.33,-304.7 1071.52,-309.41"/>
</g>
<!-- Node25 -->
<g id="node25" class="node">
<title>Node25</title>
<g id="a_node25"><a xlink:title=" ">
<polygon fill="none" stroke="#bfbfbf" points="1133,-280.5 1133,-299.5 1192,-299.5 1192,-280.5 1133,-280.5"/>
<text text-anchor="middle" x="1162.5" y="-287.5" font-family="Helvetica,sans-Serif" font-size="10.00">exception</text>
</a>
</g>
</g>
<!-- Node1&#45;&gt;Node25 -->
<g id="edge45" class="edge">
<title>Node1&#45;&gt;Node25</title>
<path fill="none" stroke="midnightblue" d="M1065.9,-336.5C1088.28,-325.96 1115.3,-313.23 1135.06,-303.92"/>
<polygon fill="midnightblue" stroke="midnightblue" points="1136.57,-307.08 1144.13,-299.65 1133.59,-300.75 1136.57,-307.08"/>
</g>
<!-- Node26 -->
<g id="node26" class="node">
<title>Node26</title>
<g id="a_node26"><a xlink:title=" ">
<polygon fill="none" stroke="#bfbfbf" points="1210.5,-280.5 1210.5,-299.5 1262.5,-299.5 1262.5,-280.5 1210.5,-280.5"/>
<text text-anchor="middle" x="1236.5" y="-287.5" font-family="Helvetica,sans-Serif" font-size="10.00">sstream</text>
</a>
</g>
</g>
<!-- Node1&#45;&gt;Node26 -->
<g id="edge49" class="edge">
<title>Node1&#45;&gt;Node26</title>
<path fill="none" stroke="midnightblue" d="M1088.11,-336.5C1124.93,-325.21 1169.91,-311.42 1200.64,-302"/>
<polygon fill="midnightblue" stroke="midnightblue" points="1201.94,-305.26 1210.48,-298.98 1199.89,-298.56 1201.94,-305.26"/>
</g>
<!-- Node3 -->
<g id="node3" class="node">
<title>Node3</title>
<g id="a_node3"><a xlink:href="aws__sign_8h.html" target="_top" xlink:title="Public interface to signing URLs and HTTP headers with the S3v4 protocol standard.">
<polygon fill="none" stroke="black" points="664.5,-168.5 664.5,-187.5 730.5,-187.5 730.5,-168.5 664.5,-168.5"/>
<text text-anchor="middle" x="697.5" y="-175.5" font-family="Helvetica,sans-Serif" font-size="10.00">aws_sign.h</text>
</a>
</g>
</g>
<!-- Node2&#45;&gt;Node3 -->
<g id="edge2" class="edge">
<title>Node2&#45;&gt;Node3</title>
<path fill="none" stroke="midnightblue" d="M748.66,-280.24C739.68,-271.77 726.6,-258.15 718.5,-244 710.22,-229.52 704.7,-211.34 701.41,-197.89"/>
<polygon fill="midnightblue" stroke="midnightblue" points="704.77,-196.87 699.15,-187.89 697.94,-198.41 704.77,-196.87"/>
</g>
<!-- Node5 -->
<g id="node5" class="node">
<title>Node5</title>
<g id="a_node5"><a xlink:title=" ">
<polygon fill="none" stroke="#bfbfbf" points="345,-0.5 345,-19.5 380,-19.5 380,-0.5 345,-0.5"/>
<text text-anchor="middle" x="362.5" y="-7.5" font-family="Helvetica,sans-Serif" font-size="10.00">map</text>
</a>
</g>
</g>
<!-- Node2&#45;&gt;Node5 -->
<g id="edge42" class="edge">
<title>Node2&#45;&gt;Node5</title>
<path fill="none" stroke="midnightblue" d="M732.7,-287.87C603.55,-281.86 33.5,-251.25 33.5,-179 33.5,-179 33.5,-179 33.5,-121 33.5,-90.9 29.76,-75.71 52.5,-56 95.25,-18.95 248.55,-28.34 304.5,-20 314.49,-18.51 325.44,-16.83 335.11,-15.32"/>
<polygon fill="midnightblue" stroke="midnightblue" points="335.66,-18.78 345,-13.77 334.57,-11.86 335.66,-18.78"/>
</g>
<!-- Node14 -->
<g id="node14" class="node">
<title>Node14</title>
<g id="a_node14"><a xlink:href="response__parser_8h.html" target="_top" xlink:title="Functions to parse XML and HTTP headers.">
<polygon fill="none" stroke="black" points="900.5,-112.5 900.5,-131.5 996.5,-131.5 996.5,-112.5 900.5,-112.5"/>
<text text-anchor="middle" x="948.5" y="-119.5" font-family="Helvetica,sans-Serif" font-size="10.00">response_parser.h</text>
</a>
</g>
</g>
<!-- Node2&#45;&gt;Node14 -->
<g id="edge19" class="edge">
<title>Node2&#45;&gt;Node14</title>
<path fill="none" stroke="midnightblue" d="M768.45,-280.31C798.97,-253.64 891.6,-172.72 930.74,-138.52"/>
<polygon fill="midnightblue" stroke="midnightblue" points="933.42,-140.82 938.65,-131.61 928.82,-135.55 933.42,-140.82"/>
</g>
<!-- Node16 -->
<g id="node16" class="node">
<title>Node16</title>
<g id="a_node16"><a xlink:href="s3-client_8h.html" target="_top" xlink:title="declaration of functions and data types for sending S3 requests, signing URLs and downloading and upl...">
<polygon fill="none" stroke="black" points="727.5,-224.5 727.5,-243.5 789.5,-243.5 789.5,-224.5 727.5,-224.5"/>
<text text-anchor="middle" x="758.5" y="-231.5" font-family="Helvetica,sans-Serif" font-size="10.00">s3&#45;client.h</text>
</a>
</g>
</g>
<!-- Node2&#45;&gt;Node16 -->
<g id="edge24" class="edge">
<title>Node2&#45;&gt;Node16</title>
<path fill="none" stroke="midnightblue" d="M758.5,-280.08C758.5,-273.01 758.5,-262.86 758.5,-253.99"/>
<polygon fill="midnightblue" stroke="midnightblue" points="762,-253.75 758.5,-243.75 755,-253.75 762,-253.75"/>
</g>
<!-- Node17 -->
<g id="node17" class="node">
<title>Node17</title>
<g id="a_node17"><a xlink:href="webclient_8h.html" target="_top" xlink:title="declaration of WebClient class wrapping libcurl to send web requests.">
<polygon fill="none" stroke="black" points="354.5,-168.5 354.5,-187.5 420.5,-187.5 420.5,-168.5 354.5,-168.5"/>
<text text-anchor="middle" x="387.5" y="-175.5" font-family="Helvetica,sans-Serif" font-size="10.00">webclient.h</text>
</a>
</g>
</g>
<!-- Node2&#45;&gt;Node17 -->
<g id="edge41" class="edge">
<title>Node2&#45;&gt;Node17</title>
<path fill="none" stroke="midnightblue" d="M733,-281.44C669.08,-262.49 501.71,-212.86 425.85,-190.37"/>
<polygon fill="midnightblue" stroke="midnightblue" points="426.79,-187 416.21,-187.51 424.8,-193.71 426.79,-187"/>
</g>
<!-- Node2&#45;&gt;Node23 -->
<g id="edge43" class="edge">
<title>Node2&#45;&gt;Node23</title>
<path fill="none" stroke="midnightblue" d="M781.16,-280.44C804.9,-271.48 842.41,-257.31 869.24,-247.18"/>
<polygon fill="midnightblue" stroke="midnightblue" points="870.83,-250.32 878.95,-243.52 868.36,-243.77 870.83,-250.32"/>
</g>
<!-- Node4 -->
<g id="node4" class="node">
<title>Node4</title>
<g id="a_node4"><a xlink:href="common_8h.html" target="_top" xlink:title="Common definitions.">
<polygon fill="none" stroke="black" points="575.5,-56.5 575.5,-75.5 637.5,-75.5 637.5,-56.5 575.5,-56.5"/>
<text text-anchor="middle" x="606.5" y="-63.5" font-family="Helvetica,sans-Serif" font-size="10.00">common.h</text>
</a>
</g>
</g>
<!-- Node3&#45;&gt;Node4 -->
<g id="edge3" class="edge">
<title>Node3&#45;&gt;Node4</title>
<path fill="none" stroke="midnightblue" d="M690.36,-168.37C675.21,-150.05 639.63,-107.05 620.04,-83.36"/>
<polygon fill="midnightblue" stroke="midnightblue" points="622.68,-81.07 613.61,-75.59 617.28,-85.53 622.68,-81.07"/>
</g>
<!-- Node3&#45;&gt;Node6 -->
<g id="edge18" class="edge">
<title>Node3&#45;&gt;Node6</title>
<path fill="none" stroke="midnightblue" d="M697.23,-168.08C696.44,-141.95 694.13,-65.21 693.06,-29.58"/>
<polygon fill="midnightblue" stroke="midnightblue" points="696.56,-29.46 692.76,-19.57 689.56,-29.67 696.56,-29.46"/>
</g>
<!-- Node7 -->
<g id="node7" class="node">
<title>Node7</title>
<g id="a_node7"><a xlink:href="url__utility_8h.html" target="_top" xlink:title="Internal utility functions to process and parse text and URLs and create S3 signature keys.">
<polygon fill="none" stroke="black" points="516.5,-112.5 516.5,-131.5 578.5,-131.5 578.5,-112.5 516.5,-112.5"/>
<text text-anchor="middle" x="547.5" y="-119.5" font-family="Helvetica,sans-Serif" font-size="10.00">url_utility.h</text>
</a>
</g>
</g>
<!-- Node3&#45;&gt;Node7 -->
<g id="edge6" class="edge">
<title>Node3&#45;&gt;Node7</title>
<path fill="none" stroke="midnightblue" d="M673.73,-168.44C648.61,-159.4 608.79,-145.06 580.6,-134.92"/>
<polygon fill="midnightblue" stroke="midnightblue" points="581.75,-131.61 571.16,-131.52 579.38,-138.2 581.75,-131.61"/>
</g>
<!-- Node4&#45;&gt;Node5 -->
<g id="edge4" class="edge">
<title>Node4&#45;&gt;Node5</title>
<path fill="none" stroke="midnightblue" d="M575.1,-58.05C526.98,-47.4 435.77,-27.22 390.06,-17.1"/>
<polygon fill="midnightblue" stroke="midnightblue" points="390.77,-13.67 380.25,-14.93 389.26,-20.51 390.77,-13.67"/>
</g>
<!-- Node4&#45;&gt;Node6 -->
<g id="edge5" class="edge">
<title>Node4&#45;&gt;Node6</title>
<path fill="none" stroke="midnightblue" d="M620.32,-56.32C633.73,-47.9 654.32,-34.97 670.09,-25.07"/>
<polygon fill="midnightblue" stroke="midnightblue" points="672.11,-27.94 678.72,-19.65 668.39,-22.01 672.11,-27.94"/>
</g>
<!-- Node7&#45;&gt;Node4 -->
<g id="edge12" class="edge">
<title>Node7&#45;&gt;Node4</title>
<path fill="none" stroke="midnightblue" d="M556.98,-112.32C565.7,-104.34 578.84,-92.31 589.4,-82.65"/>
<polygon fill="midnightblue" stroke="midnightblue" points="591.83,-85.17 596.85,-75.83 587.11,-80 591.83,-85.17"/>
</g>
<!-- Node7&#45;&gt;Node5 -->
<g id="edge9" class="edge">
<title>Node7&#45;&gt;Node5</title>
<path fill="none" stroke="midnightblue" d="M528.25,-112.48C509.54,-103.96 480.5,-90.13 456.5,-76 429.76,-60.26 400.6,-39.49 381.97,-25.71"/>
<polygon fill="midnightblue" stroke="midnightblue" points="383.83,-22.73 373.72,-19.56 379.65,-28.34 383.83,-22.73"/>
</g>
<!-- Node7&#45;&gt;Node6 -->
<g id="edge10" class="edge">
<title>Node7&#45;&gt;Node6</title>
<path fill="none" stroke="midnightblue" d="M547.64,-112.2C548.34,-98.43 551.66,-71.74 566.5,-56 591.51,-29.48 633.21,-18.56 661.74,-14.09"/>
<polygon fill="midnightblue" stroke="midnightblue" points="662.54,-17.51 671.97,-12.67 661.58,-10.57 662.54,-17.51"/>
</g>
<!-- Node8 -->
<g id="node8" class="node">
<title>Node8</title>
<g id="a_node8"><a xlink:title=" ">
<polygon fill="none" stroke="#bfbfbf" points="239.5,-0.5 239.5,-19.5 295.5,-19.5 295.5,-0.5 239.5,-0.5"/>
<text text-anchor="middle" x="267.5" y="-7.5" font-family="Helvetica,sans-Serif" font-size="10.00">algorithm</text>
</a>
</g>
</g>
<!-- Node7&#45;&gt;Node8 -->
<g id="edge7" class="edge">
<title>Node7&#45;&gt;Node8</title>
<path fill="none" stroke="midnightblue" d="M522.67,-112.37C497.55,-103.55 457.64,-89.3 423.5,-76 378.85,-58.61 327.67,-36.95 296.48,-23.55"/>
<polygon fill="midnightblue" stroke="midnightblue" points="297.65,-20.24 287.08,-19.5 294.88,-26.67 297.65,-20.24"/>
</g>
<!-- Node9 -->
<g id="node9" class="node">
<title>Node9</title>
<g id="a_node9"><a xlink:title=" ">
<polygon fill="none" stroke="#bfbfbf" points="465.5,-56.5 465.5,-75.5 519.5,-75.5 519.5,-56.5 465.5,-56.5"/>
<text text-anchor="middle" x="492.5" y="-63.5" font-family="Helvetica,sans-Serif" font-size="10.00">iostream</text>
</a>
</g>
</g>
<!-- Node7&#45;&gt;Node9 -->
<g id="edge8" class="edge">
<title>Node7&#45;&gt;Node9</title>
<path fill="none" stroke="midnightblue" d="M538.42,-112.08C530.33,-104.14 518.3,-92.34 508.59,-82.8"/>
<polygon fill="midnightblue" stroke="midnightblue" points="511,-80.26 501.41,-75.75 506.1,-85.25 511,-80.26"/>
</g>
<!-- Node7&#45;&gt;Node10 -->
<g id="edge11" class="edge">
<title>Node7&#45;&gt;Node10</title>
<path fill="none" stroke="midnightblue" d="M578.53,-114.27C626.02,-103.97 716.27,-84.4 764.39,-73.96"/>
<polygon fill="midnightblue" stroke="midnightblue" points="765.24,-77.36 774.27,-71.82 763.76,-70.52 765.24,-77.36"/>
</g>
<!-- Node11 -->
<g id="node11" class="node">
<title>Node11</title>
<g id="a_node11"><a xlink:href="lib_2include_2utility_8h.html" target="_top" xlink:title="internal utility functions">
<polygon fill="none" stroke="black" points="62,-56.5 62,-75.5 109,-75.5 109,-56.5 62,-56.5"/>
<text text-anchor="middle" x="85.5" y="-63.5" font-family="Helvetica,sans-Serif" font-size="10.00">utility.h</text>
</a>
</g>
</g>
<!-- Node7&#45;&gt;Node11 -->
<g id="edge13" class="edge">
<title>Node7&#45;&gt;Node11</title>
<path fill="none" stroke="midnightblue" d="M516.23,-113.77C512.95,-113.12 509.66,-112.51 506.5,-112 363.65,-88.76 191.5,-74.65 119.62,-69.37"/>
<polygon fill="midnightblue" stroke="midnightblue" points="119.59,-65.86 109.36,-68.63 119.08,-72.84 119.59,-65.86"/>
</g>
<!-- Node11&#45;&gt;Node6 -->
<g id="edge16" class="edge">
<title>Node11&#45;&gt;Node6</title>
<path fill="none" stroke="midnightblue" d="M109.3,-62.88C204.13,-54.45 555.12,-23.22 661.65,-13.74"/>
<polygon fill="midnightblue" stroke="midnightblue" points="662.08,-17.22 671.74,-12.85 661.46,-10.25 662.08,-17.22"/>
</g>
<!-- Node11&#45;&gt;Node8 -->
<g id="edge14" class="edge">
<title>Node11&#45;&gt;Node8</title>
<path fill="none" stroke="midnightblue" d="M109.29,-57.94C139.85,-48.87 193.27,-33.03 229.49,-22.28"/>
<polygon fill="midnightblue" stroke="midnightblue" points="230.62,-25.59 239.22,-19.39 228.63,-18.88 230.62,-25.59"/>
</g>
<!-- Node12 -->
<g id="node12" class="node">
<title>Node12</title>
<g id="a_node12"><a xlink:title=" ">
<polygon fill="none" stroke="#bfbfbf" points="101,-0.5 101,-19.5 160,-19.5 160,-0.5 101,-0.5"/>
<text text-anchor="middle" x="130.5" y="-7.5" font-family="Helvetica,sans-Serif" font-size="10.00">functional</text>
</a>
</g>
</g>
<!-- Node11&#45;&gt;Node12 -->
<g id="edge15" class="edge">
<title>Node11&#45;&gt;Node12</title>
<path fill="none" stroke="midnightblue" d="M92.93,-56.08C99.35,-48.38 108.81,-37.03 116.62,-27.65"/>
<polygon fill="midnightblue" stroke="midnightblue" points="119.49,-29.67 123.21,-19.75 114.12,-25.19 119.49,-29.67"/>
</g>
<!-- Node13 -->
<g id="node13" class="node">
<title>Node13</title>
<g id="a_node13"><a xlink:title=" ">
<polygon fill="none" stroke="#bfbfbf" points="0,-0.5 0,-19.5 83,-19.5 83,-0.5 0,-0.5"/>
<text text-anchor="middle" x="41.5" y="-7.5" font-family="Helvetica,sans-Serif" font-size="10.00">unordered_map</text>
</a>
</g>
</g>
<!-- Node11&#45;&gt;Node13 -->
<g id="edge17" class="edge">
<title>Node11&#45;&gt;Node13</title>
<path fill="none" stroke="midnightblue" d="M78.23,-56.08C71.96,-48.38 62.71,-37.03 55.07,-27.65"/>
<polygon fill="midnightblue" stroke="midnightblue" points="57.66,-25.29 48.63,-19.75 52.23,-29.71 57.66,-25.29"/>
</g>
<!-- Node14&#45;&gt;Node4 -->
<g id="edge23" class="edge">
<title>Node14&#45;&gt;Node4</title>
<path fill="none" stroke="midnightblue" d="M900.23,-113.38C832.73,-102.72 711.31,-83.55 647.78,-73.52"/>
<polygon fill="midnightblue" stroke="midnightblue" points="648.16,-70.03 637.73,-71.93 647.06,-76.95 648.16,-70.03"/>
</g>
<!-- Node14&#45;&gt;Node6 -->
<g id="edge21" class="edge">
<title>Node14&#45;&gt;Node6</title>
<path fill="none" stroke="midnightblue" d="M942.78,-112.3C933.01,-98.17 911.69,-70.37 886.5,-56 834.23,-26.18 763.37,-16.11 723.35,-12.71"/>
<polygon fill="midnightblue" stroke="midnightblue" points="723.39,-9.21 713.16,-11.94 722.86,-16.19 723.39,-9.21"/>
</g>
<!-- Node14&#45;&gt;Node10 -->
<g id="edge22" class="edge">
<title>Node14&#45;&gt;Node10</title>
<path fill="none" stroke="midnightblue" d="M924.42,-112.44C898.51,-103.24 857.18,-88.56 828.54,-78.38"/>
<polygon fill="midnightblue" stroke="midnightblue" points="829.58,-75.04 818.99,-74.99 827.24,-81.63 829.58,-75.04"/>
</g>
<!-- Node15 -->
<g id="node15" class="node">
<title>Node15</title>
<g id="a_node15"><a xlink:title=" ">
<polygon fill="none" stroke="#bfbfbf" points="939,-56.5 939,-75.5 980,-75.5 980,-56.5 939,-56.5"/>
<text text-anchor="middle" x="959.5" y="-63.5" font-family="Helvetica,sans-Serif" font-size="10.00">regex</text>
</a>
</g>
</g>
<!-- Node14&#45;&gt;Node15 -->
<g id="edge20" class="edge">
<title>Node14&#45;&gt;Node15</title>
<path fill="none" stroke="midnightblue" d="M950.32,-112.08C951.77,-104.93 953.87,-94.64 955.69,-85.69"/>
<polygon fill="midnightblue" stroke="midnightblue" points="959.15,-86.25 957.72,-75.75 952.29,-84.85 959.15,-86.25"/>
</g>
<!-- Node16&#45;&gt;Node3 -->
<g id="edge25" class="edge">
<title>Node16&#45;&gt;Node3</title>
<path fill="none" stroke="midnightblue" d="M748.7,-224.32C739.68,-216.34 726.09,-204.31 715.18,-194.65"/>
<polygon fill="midnightblue" stroke="midnightblue" points="717.29,-191.84 707.48,-187.83 712.65,-197.08 717.29,-191.84"/>
</g>
<!-- Node16&#45;&gt;Node4 -->
<g id="edge26" class="edge">
<title>Node16&#45;&gt;Node4</title>
<path fill="none" stroke="midnightblue" d="M757.69,-224.27C756.09,-211.06 751.59,-185.66 739.5,-168 712.01,-127.85 663.4,-96.93 633.18,-80.4"/>
<polygon fill="midnightblue" stroke="midnightblue" points="634.53,-77.16 624.06,-75.54 631.24,-83.33 634.53,-77.16"/>
</g>
<!-- Node16&#45;&gt;Node6 -->
<g id="edge39" class="edge">
<title>Node16&#45;&gt;Node6</title>
<path fill="none" stroke="midnightblue" d="M767.54,-224.14C794.23,-196.88 868.38,-112.72 827.5,-56 803.88,-23.23 755.36,-13.96 723.38,-11.54"/>
<polygon fill="midnightblue" stroke="midnightblue" points="723.41,-8.04 713.23,-10.96 723.01,-15.03 723.41,-8.04"/>
</g>
<!-- Node16&#45;&gt;Node10 -->
<g id="edge40" class="edge">
<title>Node16&#45;&gt;Node10</title>
<path fill="none" stroke="midnightblue" d="M761.46,-224.45C764.5,-215.45 769.24,-200.85 772.5,-188 781.61,-152.15 789.35,-109.59 793.42,-85.7"/>
<polygon fill="midnightblue" stroke="midnightblue" points="796.92,-86.02 795.12,-75.58 790.02,-84.86 796.92,-86.02"/>
</g>
<!-- Node16&#45;&gt;Node17 -->
<g id="edge27" class="edge">
<title>Node16&#45;&gt;Node17</title>
<path fill="none" stroke="midnightblue" d="M727.19,-228.44C660.95,-218.8 506.52,-196.32 430.85,-185.31"/>
<polygon fill="midnightblue" stroke="midnightblue" points="431.12,-181.81 420.72,-183.83 430.11,-188.74 431.12,-181.81"/>
</g>
<!-- Node17&#45;&gt;Node4 -->
<g id="edge36" class="edge">
<title>Node17&#45;&gt;Node4</title>
<path fill="none" stroke="midnightblue" d="M375.74,-168.44C359.3,-155.45 333.09,-130.33 348.5,-112 355.45,-103.73 494.42,-82.92 565.45,-72.76"/>
<polygon fill="midnightblue" stroke="midnightblue" points="566.01,-76.21 575.41,-71.34 565.02,-69.28 566.01,-76.21"/>
</g>
<!-- Node17&#45;&gt;Node5 -->
<g id="edge32" class="edge">
<title>Node17&#45;&gt;Node5</title>
<path fill="none" stroke="midnightblue" d="M354.3,-176.32C291.04,-174.25 157,-165.88 128.5,-132 122.78,-125.2 123.62,-119.43 128.5,-112 152.47,-75.54 278.39,-35.31 334.95,-18.76"/>
<polygon fill="midnightblue" stroke="midnightblue" points="336.03,-22.09 344.66,-15.95 334.09,-15.37 336.03,-22.09"/>
</g>
<!-- Node17&#45;&gt;Node6 -->
<g id="edge34" class="edge">
<title>Node17&#45;&gt;Node6</title>
<path fill="none" stroke="midnightblue" d="M420.53,-174.96C461.78,-171.23 533.5,-160.83 587.5,-132 632.74,-107.85 667.27,-55.73 683.06,-28.45"/>
<polygon fill="midnightblue" stroke="midnightblue" points="686.17,-30.06 688.01,-19.62 680.07,-26.63 686.17,-30.06"/>
</g>
<!-- Node17&#45;&gt;Node7 -->
<g id="edge37" class="edge">
<title>Node17&#45;&gt;Node7</title>
<path fill="none" stroke="midnightblue" d="M412.85,-168.44C439.77,-159.36 482.5,-144.94 512.59,-134.78"/>
<polygon fill="midnightblue" stroke="midnightblue" points="513.91,-138.03 522.27,-131.52 511.67,-131.4 513.91,-138.03"/>
</g>
<!-- Node17&#45;&gt;Node10 -->
<g id="edge35" class="edge">
<title>Node17&#45;&gt;Node10</title>
<path fill="none" stroke="midnightblue" d="M420.69,-172.33C466.24,-165.54 550.46,-151.56 620.5,-132 673.18,-117.29 732.48,-93.91 767.04,-79.56"/>
<polygon fill="midnightblue" stroke="midnightblue" points="768.65,-82.69 776.53,-75.6 765.95,-76.23 768.65,-82.69"/>
</g>
<!-- Node17&#45;&gt;Node11 -->
<g id="edge38" class="edge">
<title>Node17&#45;&gt;Node11</title>
<path fill="none" stroke="midnightblue" d="M354.33,-176.64C285.66,-175.15 131.31,-167.82 95.5,-132 83.65,-120.15 82.1,-100.52 82.94,-85.93"/>
<polygon fill="midnightblue" stroke="midnightblue" points="86.46,-85.85 83.97,-75.55 79.5,-85.16 86.46,-85.85"/>
</g>
<!-- Node18 -->
<g id="node18" class="node">
<title>Node18</title>
<g id="a_node18"><a xlink:title=" ">
<polygon fill="none" stroke="#bfbfbf" points="358,-112.5 358,-131.5 417,-131.5 417,-112.5 358,-112.5"/>
<text text-anchor="middle" x="387.5" y="-119.5" font-family="Helvetica,sans-Serif" font-size="10.00">curl/curl.h</text>
</a>
</g>
</g>
<!-- Node17&#45;&gt;Node18 -->
<g id="edge28" class="edge">
<title>Node17&#45;&gt;Node18</title>
<path fill="none" stroke="midnightblue" d="M387.5,-168.08C387.5,-161.01 387.5,-150.86 387.5,-141.99"/>
<polygon fill="midnightblue" stroke="midnightblue" points="391,-141.75 387.5,-131.75 384,-141.75 391,-141.75"/>
</g>
<!-- Node19 -->
<g id="node19" class="node">
<title>Node19</title>
<g id="a_node19"><a xlink:title=" ">
<polygon fill="none" stroke="#bfbfbf" points="435,-112.5 435,-131.5 498,-131.5 498,-112.5 435,-112.5"/>
<text text-anchor="middle" x="466.5" y="-119.5" font-family="Helvetica,sans-Serif" font-size="10.00">curl/easy.h</text>
</a>
</g>
</g>
<!-- Node17&#45;&gt;Node19 -->
<g id="edge29" class="edge">
<title>Node17&#45;&gt;Node19</title>
<path fill="none" stroke="midnightblue" d="M400.19,-168.32C412.4,-159.98 431.08,-147.21 445.5,-137.35"/>
<polygon fill="midnightblue" stroke="midnightblue" points="447.56,-140.19 453.84,-131.65 443.61,-134.41 447.56,-140.19"/>
</g>
<!-- Node20 -->
<g id="node20" class="node">
<title>Node20</title>
<g id="a_node20"><a xlink:title=" ">
<polygon fill="none" stroke="#bfbfbf" points="137.5,-112.5 137.5,-131.5 175.5,-131.5 175.5,-112.5 137.5,-112.5"/>
<text text-anchor="middle" x="156.5" y="-119.5" font-family="Helvetica,sans-Serif" font-size="10.00">array</text>
</a>
</g>
</g>
<!-- Node17&#45;&gt;Node20 -->
<g id="edge30" class="edge">
<title>Node17&#45;&gt;Node20</title>
<path fill="none" stroke="midnightblue" d="M354.22,-170.61C315.79,-163.02 250.51,-149.46 185.68,-132.13"/>
<polygon fill="midnightblue" stroke="midnightblue" points="186.28,-128.67 175.71,-129.43 184.45,-135.42 186.28,-128.67"/>
</g>
<!-- Node21 -->
<g id="node21" class="node">
<title>Node21</title>
<g id="a_node21"><a xlink:title=" ">
<polygon fill="none" stroke="#bfbfbf" points="193.5,-112.5 193.5,-131.5 239.5,-131.5 239.5,-112.5 193.5,-112.5"/>
<text text-anchor="middle" x="216.5" y="-119.5" font-family="Helvetica,sans-Serif" font-size="10.00">atomic</text>
</a>
</g>
</g>
<!-- Node17&#45;&gt;Node21 -->
<g id="edge31" class="edge">
<title>Node17&#45;&gt;Node21</title>
<path fill="none" stroke="midnightblue" d="M360.4,-168.44C330.32,-158.94 281.76,-143.61 249.49,-133.42"/>
<polygon fill="midnightblue" stroke="midnightblue" points="250.22,-129.98 239.63,-130.3 248.11,-136.65 250.22,-129.98"/>
</g>
<!-- Node22 -->
<g id="node22" class="node">
<title>Node22</title>
<g id="a_node22"><a xlink:title=" ">
<polygon fill="none" stroke="#bfbfbf" points="257.5,-112.5 257.5,-131.5 301.5,-131.5 301.5,-112.5 257.5,-112.5"/>
<text text-anchor="middle" x="279.5" y="-119.5" font-family="Helvetica,sans-Serif" font-size="10.00">mutex</text>
</a>
</g>
</g>
<!-- Node17&#45;&gt;Node22 -->
<g id="edge33" class="edge">
<title>Node17&#45;&gt;Node22</title>
<path fill="none" stroke="midnightblue" d="M370.15,-168.32C352.83,-159.66 325.98,-146.24 306,-136.25"/>
<polygon fill="midnightblue" stroke="midnightblue" points="307.32,-133 296.81,-131.65 304.19,-139.26 307.32,-133"/>
</g>
</g>
</svg>
        <g id="navigator" transform="translate(0 0)" fill="#404254">
                <rect fill="#f2f5e9" fill-opacity="0.5" stroke="#606060" stroke-width=".5" x="0" y="0" width="60" height="60"/>
                <use id="zoomplus" xlink:href="#zoomPlus" x="17" y="9" onmousedown="handleZoom(evt,'in')"/>
                <use id="zoomminus" xlink:href="#zoomMin" x="42" y="9" onmousedown="handleZoom(evt,'out')"/>
                <use id="reset" xlink:href="#resetDef" x="30" y="36" onmousedown="handleReset()"/>
                <g id="arrowUp" xlink:href="#dirArrow" transform="translate(30 24)" onmousedown="handlePan(0,-1)">
                  <use xlink:href="#rim" fill="#404040">
                        <set attributeName="fill" to="#808080" begin="arrowUp.mouseover" end="arrowUp.mouseout"/>
                  </use>
                  <path fill="none" stroke="white" stroke-width="1.5" d="M0,-3.0v7 M-2.5,-0.5L0,-3.0L2.5,-0.5"/>
                </g>
                <g id="arrowRight" xlink:href="#dirArrow" transform="rotate(90) translate(36 -43)" onmousedown="handlePan(1,0)">
                  <use xlink:href="#rim" fill="#404040">
                        <set attributeName="fill" to="#808080" begin="arrowRight.mouseover" end="arrowRight.mouseout"/>
                  </use>
                  <path fill="none" stroke="white" stroke-width="1.5" d="M0,-3.0v7 M-2.5,-0.5L0,-3.0L2.5,-0.5"/>
                </g>
                <g id="arrowDown" xlink:href="#dirArrow" transform="rotate(180) translate(-30 -48)" onmousedown="handlePan(0,1)">
                  <use xlink:href="#rim" fill="#404040">
                        <set attributeName="fill" to="#808080" begin="arrowDown.mouseover" end="arrowDown.mouseout"/>
                  </use>
                  <path fill="none" stroke="white" stroke-width="1.5" d="M0,-3.0v7 M-2.5,-0.5L0,-3.0L2.5,-0.5"/>
                </g>
                <g id="arrowLeft" xlink:href="#dirArrow" transform="rotate(270) translate(-36 17)" onmousedown="handlePan(-1,0)">
                  <use xlink:href="#rim" fill="#404040">
                        <set attributeName="fill" to="#808080" begin="arrowLeft.mouseover" end="arrowLeft.mouseout"/>
                  </use>
                  <path fill="none" stroke="white" stroke-width="1.5" d="M0,-3.0v7 M-2.5,-0.5L0,-3.0L2.5,-0.5"/>
                </g>
        </g>
        <svg viewBox="0 0 15 15" width="100%" height="30px" preserveAspectRatio="xMaxYMin meet">
         <g id="arrow_out" transform="scale(0.3 0.3)">
          <a xlink:href="xmlstreams_8h__incl_org.svg" target="_base">
           <rect id="button" ry="5" rx="5" y="6" x="6" height="38" width="38"
                fill="#f2f5e9" fill-opacity="0.5" stroke="#606060" stroke-width="1.0"/>
           <path id="arrow"
             d="M 11.500037,31.436501 C 11.940474,20.09759 22.043105,11.32322 32.158766,21.979434 L 37.068811,17.246167 C 37.068811,17.246167 37.088388,32 37.088388,32 L 22.160133,31.978069 C 22.160133,31.978069 26.997745,27.140456 26.997745,27.140456 C 18.528582,18.264221 13.291696,25.230495 11.500037,31.436501 z"
             style="fill:#404040;"/>
          </a>
         </g>
        </svg>
</svg>
