<?xml version="1.0" encoding="UTF-8" standalone="no"?>
<!DOCTYPE svg PUBLIC "-//W3C//DTD SVG 1.1//EN"
 "http://www.w3.org/Graphics/SVG/1.1/DTD/svg11.dtd">
<!-- Generated by graphviz version 2.43.0 (0)
 -->
<!-- Title: /home/ugovaretto/projects/uv&#45;cpp/s3client/repo/lib/include/xmlstreams.h Pages: 1 -->
<svg width="1000pt" height="386pt"
 viewBox="0.00 0.00 1000.00 386.00" xmlns="http://www.w3.org/2000/svg" xmlns:xlink="http://www.w3.org/1999/xlink">
<g id="graph0" class="graph" transform="scale(1 1) rotate(0) translate(4 382)">
<title>/home/ugovaretto/projects/uv&#45;cpp/s3client/repo/lib/include/xmlstreams.h</title>
<!-- Node1 -->
<g id="node1" class="node">
<title>Node1</title>
<g id="a_node1"><a xlink:title="xml parser and generator.">
<polygon fill="#bfbfbf" stroke="black" points="314,-336.5 314,-377.5 444,-377.5 444,-336.5 314,-336.5"/>
<text text-anchor="start" x="322" y="-365.5" font-family="Helvetica,sans-Serif" font-size="10.00">/home/ugovaretto/projects</text>
<text text-anchor="start" x="322" y="-354.5" font-family="Helvetica,sans-Serif" font-size="10.00">/uv&#45;cpp/s3client/repo/lib</text>
<text text-anchor="middle" x="379" y="-343.5" font-family="Helvetica,sans-Serif" font-size="10.00">/include/xmlstreams.h</text>
</a>
</g>
</g>
<!-- Node2 -->
<g id="node2" class="node">
<title>Node2</title>
<g id="a_node2"><a xlink:href="s3-api_8h.html" target="_top" xlink:title="declarations of S3Api class.">
<polygon fill="none" stroke="black" points="278.5,-280.5 278.5,-299.5 329.5,-299.5 329.5,-280.5 278.5,-280.5"/>
<text text-anchor="middle" x="304" y="-287.5" font-family="Helvetica,sans-Serif" font-size="10.00">s3&#45;api.h</text>
</a>
</g>
</g>
<!-- Node1&#45;&gt;Node2 -->
<g id="edge1" class="edge">
<title>Node1&#45;&gt;Node2</title>
<path fill="none" stroke="midnightblue" d="M356.5,-336.5C345.33,-326.82 332.04,-315.3 321.62,-306.27"/>
<polygon fill="midnightblue" stroke="midnightblue" points="323.83,-303.56 313.98,-299.65 319.25,-308.85 323.83,-303.56"/>
</g>
<!-- Node6 -->
<g id="node6" class="node">
<title>Node6</title>
<g id="a_node6"><a xlink:title=" ">
<polygon fill="none" stroke="#bfbfbf" points="317.5,-0.5 317.5,-19.5 358.5,-19.5 358.5,-0.5 317.5,-0.5"/>
<text text-anchor="middle" x="338" y="-7.5" font-family="Helvetica,sans-Serif" font-size="10.00">string</text>
</a>
</g>
</g>
<!-- Node1&#45;&gt;Node6 -->
<g id="edge45" class="edge">
<title>Node1&#45;&gt;Node6</title>
<path fill="none" stroke="midnightblue" d="M313.85,-348.78C205.49,-334.93 0,-300.1 0,-235 0,-235 0,-235 0,-121 0,-75.53 37.68,-74.96 79,-56 155.9,-20.71 257.26,-12.93 307.31,-11.33"/>
<polygon fill="midnightblue" stroke="midnightblue" points="307.57,-14.82 317.47,-11.07 307.39,-7.82 307.57,-14.82"/>
</g>
<!-- Node10 -->
<g id="node10" class="node">
<title>Node10</title>
<g id="a_node10"><a xlink:title=" ">
<polygon fill="none" stroke="#bfbfbf" points="218,-56.5 218,-75.5 262,-75.5 262,-56.5 218,-56.5"/>
<text text-anchor="middle" x="240" y="-63.5" font-family="Helvetica,sans-Serif" font-size="10.00">vector</text>
</a>
</g>
</g>
<!-- Node1&#45;&gt;Node10 -->
<g id="edge47" class="edge">
<title>Node1&#45;&gt;Node10</title>
<path fill="none" stroke="midnightblue" d="M316.53,-336.5C298.86,-328.01 281.37,-316.19 270,-300 222.99,-233.04 231.23,-127.94 237,-85.6"/>
<polygon fill="midnightblue" stroke="midnightblue" points="240.48,-86.02 238.48,-75.61 233.55,-84.99 240.48,-86.02"/>
</g>
<!-- Node23 -->
<g id="node23" class="node">
<title>Node23</title>
<g id="a_node23"><a xlink:title=" ">
<polygon fill="none" stroke="#bfbfbf" points="348,-280.5 348,-299.5 410,-299.5 410,-280.5 348,-280.5"/>
<text text-anchor="middle" x="379" y="-287.5" font-family="Helvetica,sans-Serif" font-size="10.00">tinyxml2.h</text>
</a>
</g>
</g>
<!-- Node1&#45;&gt;Node23 -->
<g id="edge43" class="edge">
<title>Node1&#45;&gt;Node23</title>
<path fill="none" stroke="midnightblue" d="M379,-336.5C379,-328.07 379,-318.24 379,-309.87"/>
<polygon fill="midnightblue" stroke="midnightblue" points="382.5,-309.65 379,-299.65 375.5,-309.65 382.5,-309.65"/>
</g>
<!-- Node24 -->
<g id="node24" class="node">
<title>Node24</title>
<g id="a_node24"><a xlink:title=" ">
<polygon fill="none" stroke="#bfbfbf" points="428.5,-280.5 428.5,-299.5 487.5,-299.5 487.5,-280.5 428.5,-280.5"/>
<text text-anchor="middle" x="458" y="-287.5" font-family="Helvetica,sans-Serif" font-size="10.00">exception</text>
</a>
</g>
</g>
<!-- Node1&#45;&gt;Node24 -->
<g id="edge44" class="edge">
<title>Node1&#45;&gt;Node24</title>
<path fill="none" stroke="midnightblue" d="M402.7,-336.5C414.58,-326.72 428.74,-315.07 439.76,-306.01"/>
<polygon fill="midnightblue" stroke="midnightblue" points="441.99,-308.71 447.48,-299.65 437.54,-303.3 441.99,-308.71"/>
</g>
<!-- Node25 -->
<g id="node25" class="node">
<title>Node25</title>
<g id="a_node25"><a xlink:title=" ">
<polygon fill="none" stroke="#bfbfbf" points="506,-280.5 506,-299.5 552,-299.5 552,-280.5 506,-280.5"/>
<text text-anchor="middle" x="529" y="-287.5" font-family="Helvetica,sans-Serif" font-size="10.00">variant</text>
</a>
</g>
</g>
<!-- Node1&#45;&gt;Node25 -->
<g id="edge46" class="edge">
<title>Node1&#45;&gt;Node25</title>
<path fill="none" stroke="midnightblue" d="M424,-336.5C448.55,-325.86 478.23,-313 499.76,-303.67"/>
<polygon fill="midnightblue" stroke="midnightblue" points="501.25,-306.84 509.03,-299.65 498.47,-300.42 501.25,-306.84"/>
</g>
<!-- Node26 -->
<g id="node26" class="node">
<title>Node26</title>
<g id="a_node26"><a xlink:title=" ">
<polygon fill="none" stroke="#bfbfbf" points="570,-280.5 570,-299.5 622,-299.5 622,-280.5 570,-280.5"/>
<text text-anchor="middle" x="596" y="-287.5" font-family="Helvetica,sans-Serif" font-size="10.00">sstream</text>
</a>
</g>
</g>
<!-- Node1&#45;&gt;Node26 -->
<g id="edge48" class="edge">
<title>Node1&#45;&gt;Node26</title>
<path fill="none" stroke="midnightblue" d="M444.11,-336.5C482.18,-325.09 528.79,-311.13 560.26,-301.71"/>
<polygon fill="midnightblue" stroke="midnightblue" points="561.34,-305.04 569.92,-298.81 559.33,-298.33 561.34,-305.04"/>
</g>
<!-- Node3 -->
<g id="node3" class="node">
<title>Node3</title>
<g id="a_node3"><a xlink:href="aws__sign_8h.html" target="_top" xlink:title="Public interface to signing URLs and HTTP headers with the S3v4 protocol standard.">
<polygon fill="none" stroke="black" points="332,-168.5 332,-187.5 398,-187.5 398,-168.5 332,-168.5"/>
<text text-anchor="middle" x="365" y="-175.5" font-family="Helvetica,sans-Serif" font-size="10.00">aws_sign.h</text>
</a>
</g>
</g>
<!-- Node2&#45;&gt;Node3 -->
<g id="edge2" class="edge">
<title>Node2&#45;&gt;Node3</title>
<path fill="none" stroke="midnightblue" d="M313.84,-280.24C322.82,-271.77 335.9,-258.15 344,-244 352.28,-229.52 357.8,-211.34 361.09,-197.89"/>
<polygon fill="midnightblue" stroke="midnightblue" points="364.56,-198.41 363.35,-187.89 357.73,-196.87 364.56,-198.41"/>
</g>
<!-- Node5 -->
<g id="node5" class="node">
<title>Node5</title>
<g id="a_node5"><a xlink:title=" ">
<polygon fill="none" stroke="#bfbfbf" points="848.5,-0.5 848.5,-19.5 883.5,-19.5 883.5,-0.5 848.5,-0.5"/>
<text text-anchor="middle" x="866" y="-7.5" font-family="Helvetica,sans-Serif" font-size="10.00">map</text>
</a>
</g>
</g>
<!-- Node2&#45;&gt;Node5 -->
<g id="edge42" class="edge">
<title>Node2&#45;&gt;Node5</title>
<path fill="none" stroke="midnightblue" d="M329.55,-282.12C332.72,-281.36 335.93,-280.63 339,-280 482.83,-250.46 992,-325.84 992,-179 992,-179 992,-179 992,-121 992,-68.98 930.29,-35.89 893.24,-20.72"/>
<polygon fill="midnightblue" stroke="midnightblue" points="894.11,-17.3 883.52,-16.92 891.56,-23.82 894.11,-17.3"/>
</g>
<!-- Node14 -->
<g id="node14" class="node">
<title>Node14</title>
<g id="a_node14"><a xlink:href="response__parser_8h.html" target="_top" xlink:title="Functions to parse XML and HTTP headers.">
<polygon fill="none" stroke="black" points="28,-112.5 28,-131.5 124,-131.5 124,-112.5 28,-112.5"/>
<text text-anchor="middle" x="76" y="-119.5" font-family="Helvetica,sans-Serif" font-size="10.00">response_parser.h</text>
</a>
</g>
</g>
<!-- Node2&#45;&gt;Node14 -->
<g id="edge19" class="edge">
<title>Node2&#45;&gt;Node14</title>
<path fill="none" stroke="midnightblue" d="M292.06,-280.31C255.13,-253.42 142.41,-171.35 96.14,-137.67"/>
<polygon fill="midnightblue" stroke="midnightblue" points="97.96,-134.66 87.82,-131.61 93.84,-140.32 97.96,-134.66"/>
</g>
<!-- Node16 -->
<g id="node16" class="node">
<title>Node16</title>
<g id="a_node16"><a xlink:href="s3-client_8h.html" target="_top" xlink:title="declaration of functions and data types for sending S3 requests, signing URLs and downloading and upl...">
<polygon fill="none" stroke="black" points="273,-224.5 273,-243.5 335,-243.5 335,-224.5 273,-224.5"/>
<text text-anchor="middle" x="304" y="-231.5" font-family="Helvetica,sans-Serif" font-size="10.00">s3&#45;client.h</text>
</a>
</g>
</g>
<!-- Node2&#45;&gt;Node16 -->
<g id="edge24" class="edge">
<title>Node2&#45;&gt;Node16</title>
<path fill="none" stroke="midnightblue" d="M304,-280.08C304,-273.01 304,-262.86 304,-253.99"/>
<polygon fill="midnightblue" stroke="midnightblue" points="307.5,-253.75 304,-243.75 300.5,-253.75 307.5,-253.75"/>
</g>
<!-- Node17 -->
<g id="node17" class="node">
<title>Node17</title>
<g id="a_node17"><a xlink:href="webclient_8h.html" target="_top" xlink:title="declaration of WebClient class wrapping libcurl to send web requests.">
<polygon fill="none" stroke="black" points="563,-168.5 563,-187.5 629,-187.5 629,-168.5 563,-168.5"/>
<text text-anchor="middle" x="596" y="-175.5" font-family="Helvetica,sans-Serif" font-size="10.00">webclient.h</text>
</a>
</g>
</g>
<!-- Node2&#45;&gt;Node17 -->
<g id="edge41" class="edge">
<title>Node2&#45;&gt;Node17</title>
<path fill="none" stroke="midnightblue" d="M326.91,-280.37C378.51,-260.93 503.96,-213.67 563.54,-191.23"/>
<polygon fill="midnightblue" stroke="midnightblue" points="565.07,-194.39 573.19,-187.59 562.6,-187.84 565.07,-194.39"/>
</g>
<!-- Node4 -->
<g id="node4" class="node">
<title>Node4</title>
<g id="a_node4"><a xlink:href="common_8h.html" target="_top" xlink:title="Common definitions.">
<polygon fill="none" stroke="black" points="336,-56.5 336,-75.5 398,-75.5 398,-56.5 336,-56.5"/>
<text text-anchor="middle" x="367" y="-63.5" font-family="Helvetica,sans-Serif" font-size="10.00">common.h</text>
</a>
</g>
</g>
<!-- Node3&#45;&gt;Node4 -->
<g id="edge3" class="edge">
<title>Node3&#45;&gt;Node4</title>
<path fill="none" stroke="midnightblue" d="M365.16,-168.37C365.48,-150.62 366.22,-109.67 366.66,-85.6"/>
<polygon fill="midnightblue" stroke="midnightblue" points="370.16,-85.65 366.84,-75.59 363.16,-85.53 370.16,-85.65"/>
</g>
<!-- Node3&#45;&gt;Node6 -->
<g id="edge18" class="edge">
<title>Node3&#45;&gt;Node6</title>
<path fill="none" stroke="midnightblue" d="M360.54,-168.39C351.97,-151.32 333.5,-111.76 327,-76 324.15,-60.34 327.64,-42.51 331.43,-29.5"/>
<polygon fill="midnightblue" stroke="midnightblue" points="334.8,-30.44 334.54,-19.84 328.14,-28.29 334.8,-30.44"/>
</g>
<!-- Node7 -->
<g id="node7" class="node">
<title>Node7</title>
<g id="a_node7"><a xlink:href="url__utility_8h.html" target="_top" xlink:title="Internal utility functions to process and parse text and URLs and create S3 signature keys.">
<polygon fill="none" stroke="black" points="446,-112.5 446,-131.5 508,-131.5 508,-112.5 446,-112.5"/>
<text text-anchor="middle" x="477" y="-119.5" font-family="Helvetica,sans-Serif" font-size="10.00">url_utility.h</text>
</a>
</g>
</g>
<!-- Node3&#45;&gt;Node7 -->
<g id="edge6" class="edge">
<title>Node3&#45;&gt;Node7</title>
<path fill="none" stroke="midnightblue" d="M382.99,-168.32C401.04,-159.62 429.05,-146.12 449.8,-136.11"/>
<polygon fill="midnightblue" stroke="midnightblue" points="451.56,-139.15 459.05,-131.65 448.52,-132.84 451.56,-139.15"/>
</g>
<!-- Node4&#45;&gt;Node5 -->
<g id="edge4" class="edge">
<title>Node4&#45;&gt;Node5</title>
<path fill="none" stroke="midnightblue" d="M398.12,-61.34C412.4,-59.68 429.55,-57.71 445,-56 595.59,-39.32 633.36,-36.27 784,-20 802.05,-18.05 822.33,-15.83 838.2,-14.08"/>
<polygon fill="midnightblue" stroke="midnightblue" points="838.85,-17.53 848.41,-12.95 838.08,-10.57 838.85,-17.53"/>
</g>
<!-- Node4&#45;&gt;Node6 -->
<g id="edge5" class="edge">
<title>Node4&#45;&gt;Node6</title>
<path fill="none" stroke="midnightblue" d="M362.21,-56.08C358.24,-48.69 352.47,-37.95 347.57,-28.81"/>
<polygon fill="midnightblue" stroke="midnightblue" points="350.51,-26.91 342.7,-19.75 344.35,-30.22 350.51,-26.91"/>
</g>
<!-- Node7&#45;&gt;Node4 -->
<g id="edge12" class="edge">
<title>Node7&#45;&gt;Node4</title>
<path fill="none" stroke="midnightblue" d="M459.33,-112.32C441.61,-103.62 414.1,-90.12 393.71,-80.11"/>
<polygon fill="midnightblue" stroke="midnightblue" points="395.15,-76.92 384.63,-75.65 392.06,-83.2 395.15,-76.92"/>
</g>
<!-- Node7&#45;&gt;Node5 -->
<g id="edge9" class="edge">
<title>Node7&#45;&gt;Node5</title>
<path fill="none" stroke="midnightblue" d="M508.14,-114.72C546.65,-106.73 614.1,-92.05 671,-76 731.59,-58.91 801.28,-34.51 838.75,-20.99"/>
<polygon fill="midnightblue" stroke="midnightblue" points="840.22,-24.18 848.43,-17.48 837.83,-17.6 840.22,-24.18"/>
</g>
<!-- Node7&#45;&gt;Node6 -->
<g id="edge10" class="edge">
<title>Node7&#45;&gt;Node6</title>
<path fill="none" stroke="midnightblue" d="M468.37,-112.07C455.57,-99.05 430.52,-74.38 407,-56 392.53,-44.7 375.22,-33.41 361.56,-24.97"/>
<polygon fill="midnightblue" stroke="midnightblue" points="363.13,-21.83 352.76,-19.62 359.49,-27.81 363.13,-21.83"/>
</g>
<!-- Node8 -->
<g id="node8" class="node">
<title>Node8</title>
<g id="a_node8"><a xlink:title=" ">
<polygon fill="none" stroke="#bfbfbf" points="540,-0.5 540,-19.5 596,-19.5 596,-0.5 540,-0.5"/>
<text text-anchor="middle" x="568" y="-7.5" font-family="Helvetica,sans-Serif" font-size="10.00">algorithm</text>
</a>
</g>
</g>
<!-- Node7&#45;&gt;Node8 -->
<g id="edge7" class="edge">
<title>Node7&#45;&gt;Node8</title>
<path fill="none" stroke="midnightblue" d="M485.13,-112.18C493.33,-103.2 506.28,-88.83 517,-76 530.45,-59.9 545.18,-40.98 555.33,-27.72"/>
<polygon fill="midnightblue" stroke="midnightblue" points="558.28,-29.62 561.56,-19.55 552.72,-25.38 558.28,-29.62"/>
</g>
<!-- Node9 -->
<g id="node9" class="node">
<title>Node9</title>
<g id="a_node9"><a xlink:title=" ">
<polygon fill="none" stroke="#bfbfbf" points="454,-56.5 454,-75.5 508,-75.5 508,-56.5 454,-56.5"/>
<text text-anchor="middle" x="481" y="-63.5" font-family="Helvetica,sans-Serif" font-size="10.00">iostream</text>
</a>
</g>
</g>
<!-- Node7&#45;&gt;Node9 -->
<g id="edge8" class="edge">
<title>Node7&#45;&gt;Node9</title>
<path fill="none" stroke="midnightblue" d="M477.66,-112.08C478.18,-105.01 478.94,-94.86 479.59,-85.99"/>
<polygon fill="midnightblue" stroke="midnightblue" points="483.1,-85.98 480.35,-75.75 476.12,-85.47 483.1,-85.98"/>
</g>
<!-- Node7&#45;&gt;Node10 -->
<g id="edge11" class="edge">
<title>Node7&#45;&gt;Node10</title>
<path fill="none" stroke="midnightblue" d="M445.53,-113.83C400.32,-103.53 317.45,-84.65 271.97,-74.28"/>
<polygon fill="midnightblue" stroke="midnightblue" points="272.58,-70.83 262.06,-72.03 271.03,-77.66 272.58,-70.83"/>
</g>
<!-- Node11 -->
<g id="node11" class="node">
<title>Node11</title>
<g id="a_node11"><a xlink:href="lib_2include_2utility_8h.html" target="_top" xlink:title="internal utility functions">
<polygon fill="none" stroke="black" points="614.5,-56.5 614.5,-75.5 661.5,-75.5 661.5,-56.5 614.5,-56.5"/>
<text text-anchor="middle" x="638" y="-63.5" font-family="Helvetica,sans-Serif" font-size="10.00">utility.h</text>
</a>
</g>
</g>
<!-- Node7&#45;&gt;Node11 -->
<g id="edge13" class="edge">
<title>Node7&#45;&gt;Node11</title>
<path fill="none" stroke="midnightblue" d="M502.51,-112.44C530.15,-103.17 574.37,-88.34 604.72,-78.16"/>
<polygon fill="midnightblue" stroke="midnightblue" points="606.07,-81.4 614.44,-74.9 603.85,-74.76 606.07,-81.4"/>
</g>
<!-- Node11&#45;&gt;Node6 -->
<g id="edge16" class="edge">
<title>Node11&#45;&gt;Node6</title>
<path fill="none" stroke="midnightblue" d="M614.46,-60.76C560.64,-51.08 428.65,-27.32 368.62,-16.51"/>
<polygon fill="midnightblue" stroke="midnightblue" points="369.07,-13.04 358.61,-14.71 367.83,-19.93 369.07,-13.04"/>
</g>
<!-- Node11&#45;&gt;Node8 -->
<g id="edge14" class="edge">
<title>Node11&#45;&gt;Node8</title>
<path fill="none" stroke="midnightblue" d="M626.75,-56.32C616.2,-48.18 600.2,-35.84 587.56,-26.09"/>
<polygon fill="midnightblue" stroke="midnightblue" points="589.51,-23.17 579.45,-19.83 585.23,-28.71 589.51,-23.17"/>
</g>
<!-- Node12 -->
<g id="node12" class="node">
<title>Node12</title>
<g id="a_node12"><a xlink:title=" ">
<polygon fill="none" stroke="#bfbfbf" points="614.5,-0.5 614.5,-19.5 673.5,-19.5 673.5,-0.5 614.5,-0.5"/>
<text text-anchor="middle" x="644" y="-7.5" font-family="Helvetica,sans-Serif" font-size="10.00">functional</text>
</a>
</g>
</g>
<!-- Node11&#45;&gt;Node12 -->
<g id="edge15" class="edge">
<title>Node11&#45;&gt;Node12</title>
<path fill="none" stroke="midnightblue" d="M638.99,-56.08C639.79,-48.93 640.93,-38.64 641.92,-29.69"/>
<polygon fill="midnightblue" stroke="midnightblue" points="645.4,-30.08 643.03,-19.75 638.44,-29.3 645.4,-30.08"/>
</g>
<!-- Node13 -->
<g id="node13" class="node">
<title>Node13</title>
<g id="a_node13"><a xlink:title=" ">
<polygon fill="none" stroke="#bfbfbf" points="691.5,-0.5 691.5,-19.5 774.5,-19.5 774.5,-0.5 691.5,-0.5"/>
<text text-anchor="middle" x="733" y="-7.5" font-family="Helvetica,sans-Serif" font-size="10.00">unordered_map</text>
</a>
</g>
</g>
<!-- Node11&#45;&gt;Node13 -->
<g id="edge17" class="edge">
<title>Node11&#45;&gt;Node13</title>
<path fill="none" stroke="midnightblue" d="M653.26,-56.32C668.22,-47.82 691.25,-34.73 708.73,-24.8"/>
<polygon fill="midnightblue" stroke="midnightblue" points="710.81,-27.64 717.77,-19.65 707.35,-21.55 710.81,-27.64"/>
</g>
<!-- Node14&#45;&gt;Node4 -->
<g id="edge23" class="edge">
<title>Node14&#45;&gt;Node4</title>
<path fill="none" stroke="midnightblue" d="M122.11,-112.44C178.27,-102.02 272.27,-84.58 326,-74.61"/>
<polygon fill="midnightblue" stroke="midnightblue" points="326.68,-78.04 335.87,-72.78 325.4,-71.16 326.68,-78.04"/>
</g>
<!-- Node14&#45;&gt;Node6 -->
<g id="edge21" class="edge">
<title>Node14&#45;&gt;Node6</title>
<path fill="none" stroke="midnightblue" d="M75.85,-112.37C76.1,-98.33 78.77,-70.66 95,-56 125.79,-28.18 248.82,-16.71 307.09,-12.76"/>
<polygon fill="midnightblue" stroke="midnightblue" points="307.43,-16.25 317.18,-12.11 306.98,-9.26 307.43,-16.25"/>
</g>
<!-- Node14&#45;&gt;Node10 -->
<g id="edge22" class="edge">
<title>Node14&#45;&gt;Node10</title>
<path fill="none" stroke="midnightblue" d="M101.99,-112.44C130.71,-102.99 177.01,-87.74 207.96,-77.55"/>
<polygon fill="midnightblue" stroke="midnightblue" points="209.41,-80.76 217.82,-74.3 207.22,-74.11 209.41,-80.76"/>
</g>
<!-- Node15 -->
<g id="node15" class="node">
<title>Node15</title>
<g id="a_node15"><a xlink:title=" ">
<polygon fill="none" stroke="#bfbfbf" points="104.5,-56.5 104.5,-75.5 145.5,-75.5 145.5,-56.5 104.5,-56.5"/>
<text text-anchor="middle" x="125" y="-63.5" font-family="Helvetica,sans-Serif" font-size="10.00">regex</text>
</a>
</g>
</g>
<!-- Node14&#45;&gt;Node15 -->
<g id="edge20" class="edge">
<title>Node14&#45;&gt;Node15</title>
<path fill="none" stroke="midnightblue" d="M84.09,-112.08C91.16,-104.3 101.59,-92.8 110.15,-83.37"/>
<polygon fill="midnightblue" stroke="midnightblue" points="112.93,-85.51 117.06,-75.75 107.75,-80.8 112.93,-85.51"/>
</g>
<!-- Node16&#45;&gt;Node3 -->
<g id="edge25" class="edge">
<title>Node16&#45;&gt;Node3</title>
<path fill="none" stroke="midnightblue" d="M313.8,-224.32C322.82,-216.34 336.41,-204.31 347.32,-194.65"/>
<polygon fill="midnightblue" stroke="midnightblue" points="349.85,-197.08 355.02,-187.83 345.21,-191.84 349.85,-197.08"/>
</g>
<!-- Node16&#45;&gt;Node4 -->
<g id="edge26" class="edge">
<title>Node16&#45;&gt;Node4</title>
<path fill="none" stroke="midnightblue" d="M306.12,-224.48C309.33,-211.95 315.79,-187.9 323,-168 333.76,-138.29 348.96,-104.87 358.38,-84.89"/>
<polygon fill="midnightblue" stroke="midnightblue" points="361.59,-86.3 362.73,-75.76 355.27,-83.29 361.59,-86.3"/>
</g>
<!-- Node16&#45;&gt;Node6 -->
<g id="edge39" class="edge">
<title>Node16&#45;&gt;Node6</title>
<path fill="none" stroke="midnightblue" d="M292.75,-224.45C259.43,-198.11 166.19,-116.28 209,-56 231.12,-24.86 276.44,-15.09 307.04,-12.13"/>
<polygon fill="midnightblue" stroke="midnightblue" points="307.48,-15.6 317.18,-11.34 306.94,-8.63 307.48,-15.6"/>
</g>
<!-- Node16&#45;&gt;Node10 -->
<g id="edge40" class="edge">
<title>Node16&#45;&gt;Node10</title>
<path fill="none" stroke="midnightblue" d="M300.56,-224.08C290.44,-197.83 260.64,-120.55 246.98,-85.12"/>
<polygon fill="midnightblue" stroke="midnightblue" points="250.17,-83.64 243.3,-75.57 243.64,-86.16 250.17,-83.64"/>
</g>
<!-- Node16&#45;&gt;Node17 -->
<g id="edge27" class="edge">
<title>Node16&#45;&gt;Node17</title>
<path fill="none" stroke="midnightblue" d="M335.25,-227.22C387.68,-217.52 493.46,-197.96 552.91,-186.97"/>
<polygon fill="midnightblue" stroke="midnightblue" points="553.55,-190.41 562.74,-185.15 552.27,-183.53 553.55,-190.41"/>
</g>
<!-- Node17&#45;&gt;Node4 -->
<g id="edge36" class="edge">
<title>Node17&#45;&gt;Node4</title>
<path fill="none" stroke="midnightblue" d="M562.89,-172.3C529.45,-166.52 477.14,-154.56 437,-132 414.52,-119.36 393.53,-98.1 380.5,-83.35"/>
<polygon fill="midnightblue" stroke="midnightblue" points="382.97,-80.85 373.81,-75.53 377.66,-85.4 382.97,-80.85"/>
</g>
<!-- Node17&#45;&gt;Node5 -->
<g id="edge32" class="edge">
<title>Node17&#45;&gt;Node5</title>
<path fill="none" stroke="midnightblue" d="M629.09,-177.51C702.71,-177.85 876.47,-174.08 913,-132 940.08,-100.81 904.29,-52.26 881.78,-27.19"/>
<polygon fill="midnightblue" stroke="midnightblue" points="884.13,-24.59 874.76,-19.65 879.01,-29.36 884.13,-24.59"/>
</g>
<!-- Node17&#45;&gt;Node6 -->
<g id="edge34" class="edge">
<title>Node17&#45;&gt;Node6</title>
<path fill="none" stroke="midnightblue" d="M587,-168.26C578.38,-159.57 565.33,-145.63 556,-132 534.55,-100.67 546.72,-79.62 517,-56 473.66,-21.56 407.3,-13.11 368.72,-11.26"/>
<polygon fill="midnightblue" stroke="midnightblue" points="368.74,-7.75 358.62,-10.89 368.49,-14.75 368.74,-7.75"/>
</g>
<!-- Node17&#45;&gt;Node7 -->
<g id="edge37" class="edge">
<title>Node17&#45;&gt;Node7</title>
<path fill="none" stroke="midnightblue" d="M577.14,-168.44C557.73,-159.64 527.27,-145.81 505.04,-135.72"/>
<polygon fill="midnightblue" stroke="midnightblue" points="506.32,-132.46 495.77,-131.52 503.43,-138.84 506.32,-132.46"/>
</g>
<!-- Node17&#45;&gt;Node10 -->
<g id="edge35" class="edge">
<title>Node17&#45;&gt;Node10</title>
<path fill="none" stroke="midnightblue" d="M562.83,-170.7C524.42,-163.05 459.46,-149.04 405,-132 356,-116.66 300.83,-93.73 268.32,-79.6"/>
<polygon fill="midnightblue" stroke="midnightblue" points="269.55,-76.32 258.98,-75.52 266.74,-82.73 269.55,-76.32"/>
</g>
<!-- Node17&#45;&gt;Node11 -->
<g id="edge38" class="edge">
<title>Node17&#45;&gt;Node11</title>
<path fill="none" stroke="midnightblue" d="M629.02,-177.22C699.84,-176.93 862.68,-171.83 897,-132 902.8,-125.27 902.72,-118.8 897,-112 868.6,-78.24 735.4,-69.81 671.87,-67.7"/>
<polygon fill="midnightblue" stroke="midnightblue" points="671.68,-64.19 661.58,-67.4 671.47,-71.19 671.68,-64.19"/>
</g>
<!-- Node18 -->
<g id="node18" class="node">
<title>Node18</title>
<g id="a_node18"><a xlink:title=" ">
<polygon fill="none" stroke="#bfbfbf" points="828.5,-112.5 828.5,-131.5 887.5,-131.5 887.5,-112.5 828.5,-112.5"/>
<text text-anchor="middle" x="858" y="-119.5" font-family="Helvetica,sans-Serif" font-size="10.00">curl/curl.h</text>
</a>
</g>
</g>
<!-- Node17&#45;&gt;Node18 -->
<g id="edge28" class="edge">
<title>Node17&#45;&gt;Node18</title>
<path fill="none" stroke="midnightblue" d="M629.31,-170.58C671.07,-162.46 745.12,-147.85 818.35,-132.09"/>
<polygon fill="midnightblue" stroke="midnightblue" points="819.17,-135.5 828.21,-129.96 817.69,-128.65 819.17,-135.5"/>
</g>
<!-- Node19 -->
<g id="node19" class="node">
<title>Node19</title>
<g id="a_node19"><a xlink:title=" ">
<polygon fill="none" stroke="#bfbfbf" points="564.5,-112.5 564.5,-131.5 627.5,-131.5 627.5,-112.5 564.5,-112.5"/>
<text text-anchor="middle" x="596" y="-119.5" font-family="Helvetica,sans-Serif" font-size="10.00">curl/easy.h</text>
</a>
</g>
</g>
<!-- Node17&#45;&gt;Node19 -->
<g id="edge29" class="edge">
<title>Node17&#45;&gt;Node19</title>
<path fill="none" stroke="midnightblue" d="M596,-168.08C596,-161.01 596,-150.86 596,-141.99"/>
<polygon fill="midnightblue" stroke="midnightblue" points="599.5,-141.75 596,-131.75 592.5,-141.75 599.5,-141.75"/>
</g>
<!-- Node20 -->
<g id="node20" class="node">
<title>Node20</title>
<g id="a_node20"><a xlink:title=" ">
<polygon fill="none" stroke="#bfbfbf" points="646,-112.5 646,-131.5 684,-131.5 684,-112.5 646,-112.5"/>
<text text-anchor="middle" x="665" y="-119.5" font-family="Helvetica,sans-Serif" font-size="10.00">array</text>
</a>
</g>
</g>
<!-- Node17&#45;&gt;Node20 -->
<g id="edge30" class="edge">
<title>Node17&#45;&gt;Node20</title>
<path fill="none" stroke="midnightblue" d="M607.09,-168.32C617.49,-160.18 633.26,-147.84 645.72,-138.09"/>
<polygon fill="midnightblue" stroke="midnightblue" points="647.99,-140.75 653.71,-131.83 643.68,-135.24 647.99,-140.75"/>
</g>
<!-- Node21 -->
<g id="node21" class="node">
<title>Node21</title>
<g id="a_node21"><a xlink:title=" ">
<polygon fill="none" stroke="#bfbfbf" points="702,-112.5 702,-131.5 748,-131.5 748,-112.5 702,-112.5"/>
<text text-anchor="middle" x="725" y="-119.5" font-family="Helvetica,sans-Serif" font-size="10.00">atomic</text>
</a>
</g>
</g>
<!-- Node17&#45;&gt;Node21 -->
<g id="edge31" class="edge">
<title>Node17&#45;&gt;Node21</title>
<path fill="none" stroke="midnightblue" d="M616.44,-168.44C637.67,-159.56 671.1,-145.56 695.25,-135.45"/>
<polygon fill="midnightblue" stroke="midnightblue" points="696.78,-138.61 704.66,-131.52 694.08,-132.15 696.78,-138.61"/>
</g>
<!-- Node22 -->
<g id="node22" class="node">
<title>Node22</title>
<g id="a_node22"><a xlink:title=" ">
<polygon fill="none" stroke="#bfbfbf" points="766,-112.5 766,-131.5 810,-131.5 810,-112.5 766,-112.5"/>
<text text-anchor="middle" x="788" y="-119.5" font-family="Helvetica,sans-Serif" font-size="10.00">mutex</text>
</a>
</g>
</g>
<!-- Node17&#45;&gt;Node22 -->
<g id="edge33" class="edge">
<title>Node17&#45;&gt;Node22</title>
<path fill="none" stroke="midnightblue" d="M626.89,-168.46C657.36,-160.02 705.5,-146.63 756.17,-132.22"/>
<polygon fill="midnightblue" stroke="midnightblue" points="757.33,-135.52 765.99,-129.42 755.42,-128.79 757.33,-135.52"/>
</g>
</g>
</svg>
