<?xml version="1.0" encoding="UTF-8" standalone="no"?>
<!DOCTYPE svg PUBLIC "-//W3C//DTD SVG 1.1//EN"
 "http://www.w3.org/Graphics/SVG/1.1/DTD/svg11.dtd">
<!-- Generated by graphviz version 8.0.5 (20230430.1635)
 -->
<!-- Title: /Users/ugovaretto/projects/s3client/repo/lib/include/xmlstreams.h Pages: 1 -->
<!--zoomable 381 -->
<svg id="main" version="1.1" xmlns="http://www.w3.org/2000/svg" xmlns:xlink="http://www.w3.org/1999/xlink" xml:space="preserve" onload="init(evt)">
<style type="text/css"><![CDATA[
.edge:hover path { stroke: red; }
.edge:hover polygon { stroke: red; fill: red; }
]]></style>
<script type="text/javascript"><![CDATA[
var edges = document.getElementsByTagName('g');
if (edges && edges.length) {
  for (var i=0;i<edges.length;i++) {
    if (edges[i].id.substr(0,4)=='edge') {
      edges[i].setAttribute('class','edge');
    }
  }
}
]]></script>
        <defs>
                <circle id="rim" cx="0" cy="0" r="7"/>
                <circle id="rim2" cx="0" cy="0" r="3.5"/>
                <g id="zoomPlus">
                        <use xlink:href="#rim" fill="#404040">
                                <set attributeName="fill" to="#808080" begin="zoomplus.mouseover" end="zoomplus.mouseout"/>
                        </use>
                        <path d="M-4,0h8M0,-4v8" fill="none" stroke="white" stroke-width="1.5" pointer-events="none"/>
                </g>
                <g id="zoomMin">
                        <use xlink:href="#rim" fill="#404040">
                                <set attributeName="fill" to="#808080" begin="zoomminus.mouseover" end="zoomminus.mouseout"/>
                        </use>
                        <path d="M-4,0h8" fill="none" stroke="white" stroke-width="1.5" pointer-events="none"/>
                </g>
                <g id="dirArrow">
                        <path fill="none" stroke="white" stroke-width="1.5" d="M0,-3.0v7 M-2.5,-0.5L0,-3.0L2.5,-0.5"/>
                </g>
               <g id="resetDef">
                       <use xlink:href="#rim2" fill="#404040">
                               <set attributeName="fill" to="#808080" begin="reset.mouseover" end="reset.mouseout"/>
                       </use>
               </g>
        </defs>

<script type="text/javascript">
var viewWidth = 1248;
var viewHeight = 381;
var sectionId = 'dynsection-0';
</script>
<script xlink:href="svgpan.js"/>
<svg id="graph" class="graph">
<g id="viewport">
<title>/Users/ugovaretto/projects/s3client/repo/lib/include/xmlstreams.h</title>
<!-- Node1 -->
<g id="node1" class="node">
<title>Node1</title>
<g id="a_node1"><a xlink:title="xml parser and generator.">
<polygon fill="#999999" stroke="#666666" points="1066.34,-373.25 934.84,-373.25 934.84,-331.5 1066.34,-331.5 1066.34,-373.25"/>
<text text-anchor="start" x="942.84" y="-359.75" font-family="Helvetica,sans-Serif" font-size="10.00">/Users/ugovaretto/projects</text>
<text text-anchor="start" x="942.84" y="-348.5" font-family="Helvetica,sans-Serif" font-size="10.00">/s3client/repo/lib/include</text>
<text text-anchor="middle" x="1000.59" y="-337.25" font-family="Helvetica,sans-Serif" font-size="10.00">/xmlstreams.h</text>
</a>
</g>
</g>
<!-- Node2 -->
<g id="node2" class="node">
<title>Node2</title>
<g id="a_node2"><a xlink:href="s3-api_8h.html" target="_top" xlink:title="declarations of S3Api class.">
<polygon fill="white" stroke="#666666" points="662.84,-295.5 612.34,-295.5 612.34,-276.25 662.84,-276.25 662.84,-295.5"/>
<text text-anchor="middle" x="637.59" y="-282" font-family="Helvetica,sans-Serif" font-size="10.00">s3&#45;api.h</text>
</a>
</g>
</g>
<!-- Node1&#45;&gt;Node2 -->
<g id="edge1" class="edge">
<title>Node1&#45;&gt;Node2</title>
<path fill="none" stroke="#63b8ff" d="M934.43,-339.62C857.81,-326.01 734.37,-304.07 673.66,-293.28"/>
<polygon fill="#63b8ff" stroke="#63b8ff" points="674.54,-289.71 664.08,-291.4 673.31,-296.6 674.54,-289.71"/>
</g>
<!-- Node6 -->
<g id="node6" class="node">
<title>Node6</title>
<g id="a_node6"><a xlink:title=" ">
<polygon fill="#e0e0e0" stroke="#999999" points="618.59,-19.25 578.59,-19.25 578.59,0 618.59,0 618.59,-19.25"/>
<text text-anchor="middle" x="598.59" y="-5.75" font-family="Helvetica,sans-Serif" font-size="10.00">string</text>
</a>
</g>
</g>
<!-- Node1&#45;&gt;Node6 -->
<g id="edge44" class="edge">
<title>Node1&#45;&gt;Node6</title>
<path fill="none" stroke="#63b8ff" d="M983.53,-331.23C966.1,-308.56 941.59,-269.87 941.59,-231.62 941.59,-231.62 941.59,-231.62 941.59,-119.12 941.59,-54.04 714.24,-23.01 629.73,-13.73"/>
<polygon fill="#63b8ff" stroke="#63b8ff" points="630.33,-10.17 620.02,-12.59 629.59,-17.13 630.33,-10.17"/>
</g>
<!-- Node10 -->
<g id="node10" class="node">
<title>Node10</title>
<g id="a_node10"><a xlink:title=" ">
<polygon fill="#e0e0e0" stroke="#999999" points="760.09,-74.5 717.09,-74.5 717.09,-55.25 760.09,-55.25 760.09,-74.5"/>
<text text-anchor="middle" x="738.59" y="-61" font-family="Helvetica,sans-Serif" font-size="10.00">vector</text>
</a>
</g>
</g>
<!-- Node1&#45;&gt;Node10 -->
<g id="edge46" class="edge">
<title>Node1&#45;&gt;Node10</title>
<path fill="none" stroke="#63b8ff" d="M966.28,-331.08C952.73,-321.67 937.96,-309.47 927.59,-295.5 909.52,-271.15 903.59,-261.95 903.59,-231.62 903.59,-231.62 903.59,-231.62 903.59,-174.38 903.59,-144.76 905.46,-131.52 884.59,-110.5 880.48,-106.36 812.82,-86.77 771.07,-74.96"/>
<polygon fill="#63b8ff" stroke="#63b8ff" points="772.14,-71.34 761.56,-72 770.24,-78.08 772.14,-71.34"/>
</g>
<!-- Node23 -->
<g id="node23" class="node">
<title>Node23</title>
<g id="a_node23"><a xlink:title=" ">
<polygon fill="#e0e0e0" stroke="#999999" points="1031.09,-295.5 970.09,-295.5 970.09,-276.25 1031.09,-276.25 1031.09,-295.5"/>
<text text-anchor="middle" x="1000.59" y="-282" font-family="Helvetica,sans-Serif" font-size="10.00">tinyxml2.h</text>
</a>
</g>
</g>
<!-- Node1&#45;&gt;Node23 -->
<g id="edge42" class="edge">
<title>Node1&#45;&gt;Node23</title>
<path fill="none" stroke="#63b8ff" d="M1000.59,-331.32C1000.59,-323.55 1000.59,-314.68 1000.59,-306.92"/>
<polygon fill="#63b8ff" stroke="#63b8ff" points="1004.09,-306.95 1000.59,-296.95 997.09,-306.95 1004.09,-306.95"/>
</g>
<!-- Node24 -->
<g id="node24" class="node">
<title>Node24</title>
<g id="a_node24"><a xlink:title=" ">
<polygon fill="#e0e0e0" stroke="#999999" points="1107.59,-295.5 1049.59,-295.5 1049.59,-276.25 1107.59,-276.25 1107.59,-295.5"/>
<text text-anchor="middle" x="1078.59" y="-282" font-family="Helvetica,sans-Serif" font-size="10.00">exception</text>
</a>
</g>
</g>
<!-- Node1&#45;&gt;Node24 -->
<g id="edge43" class="edge">
<title>Node1&#45;&gt;Node24</title>
<path fill="none" stroke="#63b8ff" d="M1024.84,-331.32C1035.91,-322.17 1048.84,-311.48 1059.24,-302.88"/>
<polygon fill="#63b8ff" stroke="#63b8ff" points="1061.15,-305.02 1066.62,-295.95 1056.68,-299.62 1061.15,-305.02"/>
</g>
<!-- Node25 -->
<g id="node25" class="node">
<title>Node25</title>
<g id="a_node25"><a xlink:title=" ">
<polygon fill="#e0e0e0" stroke="#999999" points="1171.22,-295.5 1125.97,-295.5 1125.97,-276.25 1171.22,-276.25 1171.22,-295.5"/>
<text text-anchor="middle" x="1148.59" y="-282" font-family="Helvetica,sans-Serif" font-size="10.00">variant</text>
</a>
</g>
</g>
<!-- Node1&#45;&gt;Node25 -->
<g id="edge45" class="edge">
<title>Node1&#45;&gt;Node25</title>
<path fill="none" stroke="#63b8ff" d="M1047.01,-331.14C1070.11,-321.08 1097.4,-309.19 1117.87,-300.26"/>
<polygon fill="#63b8ff" stroke="#63b8ff" points="1119.13,-303.1 1126.9,-295.89 1116.33,-296.68 1119.13,-303.1"/>
</g>
<!-- Node26 -->
<g id="node26" class="node">
<title>Node26</title>
<g id="a_node26"><a xlink:title=" ">
<polygon fill="#e0e0e0" stroke="#999999" points="1240.22,-295.5 1188.97,-295.5 1188.97,-276.25 1240.22,-276.25 1240.22,-295.5"/>
<text text-anchor="middle" x="1214.59" y="-282" font-family="Helvetica,sans-Serif" font-size="10.00">sstream</text>
</a>
</g>
</g>
<!-- Node1&#45;&gt;Node26 -->
<g id="edge47" class="edge">
<title>Node1&#45;&gt;Node26</title>
<path fill="none" stroke="#63b8ff" d="M1066.84,-331.41C1103.62,-320.32 1147.96,-306.96 1178.41,-297.78"/>
<polygon fill="#63b8ff" stroke="#63b8ff" points="1179,-300.96 1187.57,-294.72 1176.98,-294.25 1179,-300.96"/>
</g>
<!-- Node3 -->
<g id="node3" class="node">
<title>Node3</title>
<g id="a_node3"><a xlink:href="aws__sign_8h.html" target="_top" xlink:title="Public interface to signing URLs and HTTP headers with the S3v4 protocol standard.">
<polygon fill="white" stroke="#666666" points="609.34,-185 543.84,-185 543.84,-165.75 609.34,-165.75 609.34,-185"/>
<text text-anchor="middle" x="576.59" y="-171.5" font-family="Helvetica,sans-Serif" font-size="10.00">aws_sign.h</text>
</a>
</g>
</g>
<!-- Node2&#45;&gt;Node3 -->
<g id="edge2" class="edge">
<title>Node2&#45;&gt;Node3</title>
<path fill="none" stroke="#63b8ff" d="M627.42,-275.87C618.46,-267.45 605.61,-254.12 597.59,-240.25 589.54,-226.32 584.07,-208.88 580.74,-195.74"/>
<polygon fill="#63b8ff" stroke="#63b8ff" points="583.94,-195.06 578.26,-186.11 577.12,-196.64 583.94,-195.06"/>
</g>
<!-- Node14 -->
<g id="node14" class="node">
<title>Node14</title>
<g id="a_node14"><a xlink:href="response__parser_8h.html" target="_top" xlink:title="Functions to parse XML and HTTP headers.">
<polygon fill="white" stroke="#666666" points="875.34,-129.75 779.84,-129.75 779.84,-110.5 875.34,-110.5 875.34,-129.75"/>
<text text-anchor="middle" x="827.59" y="-116.25" font-family="Helvetica,sans-Serif" font-size="10.00">response_parser.h</text>
</a>
</g>
</g>
<!-- Node2&#45;&gt;Node14 -->
<g id="edge19" class="edge">
<title>Node2&#45;&gt;Node14</title>
<path fill="none" stroke="#63b8ff" d="M648.08,-275.84C679.03,-249.16 770.3,-170.5 809.43,-136.77"/>
<polygon fill="#63b8ff" stroke="#63b8ff" points="811.08,-139.11 816.37,-129.93 806.51,-133.81 811.08,-139.11"/>
</g>
<!-- Node16 -->
<g id="node16" class="node">
<title>Node16</title>
<g id="a_node16"><a xlink:href="s3-client_8h.html" target="_top" xlink:title="declaration of functions and data types for sending S3 requests, signing URLs and downloading and upl...">
<polygon fill="white" stroke="#666666" points="668.09,-240.25 607.09,-240.25 607.09,-221 668.09,-221 668.09,-240.25"/>
<text text-anchor="middle" x="637.59" y="-226.75" font-family="Helvetica,sans-Serif" font-size="10.00">s3&#45;client.h</text>
</a>
</g>
</g>
<!-- Node2&#45;&gt;Node16 -->
<g id="edge24" class="edge">
<title>Node2&#45;&gt;Node16</title>
<path fill="none" stroke="#63b8ff" d="M637.59,-276.08C637.59,-269.42 637.59,-259.99 637.59,-251.53"/>
<polygon fill="#63b8ff" stroke="#63b8ff" points="641.09,-251.61 637.59,-241.61 634.09,-251.61 641.09,-251.61"/>
</g>
<!-- Node17 -->
<g id="node17" class="node">
<title>Node17</title>
<g id="a_node17"><a xlink:href="webclient_8h.html" target="_top" xlink:title="declaration of WebClient class wrapping libcurl to send web requests.">
<polygon fill="white" stroke="#666666" points="400.34,-185 334.84,-185 334.84,-165.75 400.34,-165.75 400.34,-185"/>
<text text-anchor="middle" x="367.59" y="-171.5" font-family="Helvetica,sans-Serif" font-size="10.00">webclient.h</text>
</a>
</g>
</g>
<!-- Node2&#45;&gt;Node17 -->
<g id="edge41" class="edge">
<title>Node2&#45;&gt;Node17</title>
<path fill="none" stroke="#63b8ff" d="M615.04,-275.81C567.29,-256.62 455.84,-211.84 400.29,-189.51"/>
<polygon fill="#63b8ff" stroke="#63b8ff" points="401.86,-185.97 391.27,-185.49 399.25,-192.47 401.86,-185.97"/>
</g>
<!-- Node4 -->
<g id="node4" class="node">
<title>Node4</title>
<g id="a_node4"><a xlink:href="common_8h.html" target="_top" xlink:title="Common definitions.">
<polygon fill="white" stroke="#666666" points="600.47,-74.5 538.72,-74.5 538.72,-55.25 600.47,-55.25 600.47,-74.5"/>
<text text-anchor="middle" x="569.59" y="-61" font-family="Helvetica,sans-Serif" font-size="10.00">common.h</text>
</a>
</g>
</g>
<!-- Node3&#45;&gt;Node4 -->
<g id="edge3" class="edge">
<title>Node3&#45;&gt;Node4</title>
<path fill="none" stroke="#63b8ff" d="M576.02,-165.5C574.9,-148.17 572.4,-109.48 570.87,-85.74"/>
<polygon fill="#63b8ff" stroke="#63b8ff" points="574.31,-85.63 570.17,-75.88 567.32,-86.08 574.31,-85.63"/>
</g>
<!-- Node3&#45;&gt;Node6 -->
<g id="edge18" class="edge">
<title>Node3&#45;&gt;Node6</title>
<path fill="none" stroke="#63b8ff" d="M581.69,-165.3C592.17,-145.62 614.71,-97.43 609.59,-55.25 608.58,-46.94 606.55,-37.94 604.51,-30.22"/>
<polygon fill="#63b8ff" stroke="#63b8ff" points="607.63,-29.4 601.52,-20.73 600.89,-31.31 607.63,-29.4"/>
</g>
<!-- Node7 -->
<g id="node7" class="node">
<title>Node7</title>
<g id="a_node7"><a xlink:href="url__utility_8h.html" target="_top" xlink:title="Internal utility functions to process and parse text and URLs and create S3 signature keys.">
<polygon fill="white" stroke="#666666" points="457.47,-129.75 395.72,-129.75 395.72,-110.5 457.47,-110.5 457.47,-129.75"/>
<text text-anchor="middle" x="426.59" y="-116.25" font-family="Helvetica,sans-Serif" font-size="10.00">url_utility.h</text>
</a>
</g>
</g>
<!-- Node3&#45;&gt;Node7 -->
<g id="edge6" class="edge">
<title>Node3&#45;&gt;Node7</title>
<path fill="none" stroke="#63b8ff" d="M551.15,-165.34C526.79,-156.7 489.83,-143.57 462.49,-133.87"/>
<polygon fill="#63b8ff" stroke="#63b8ff" points="463.76,-130.25 453.16,-130.2 461.41,-136.85 463.76,-130.25"/>
</g>
<!-- Node5 -->
<g id="node5" class="node">
<title>Node5</title>
<g id="a_node5"><a xlink:title=" ">
<polygon fill="#e0e0e0" stroke="#999999" points="390.97,-19.25 356.22,-19.25 356.22,0 390.97,0 390.97,-19.25"/>
<text text-anchor="middle" x="373.59" y="-5.75" font-family="Helvetica,sans-Serif" font-size="10.00">map</text>
</a>
</g>
</g>
<!-- Node4&#45;&gt;Node5 -->
<g id="edge4" class="edge">
<title>Node4&#45;&gt;Node5</title>
<path fill="none" stroke="#63b8ff" d="M538.53,-55.44C500.87,-45.21 437.94,-28.11 401.67,-18.25"/>
<polygon fill="#63b8ff" stroke="#63b8ff" points="402.9,-14.69 392.33,-15.44 401.06,-21.44 402.9,-14.69"/>
</g>
<!-- Node4&#45;&gt;Node6 -->
<g id="edge5" class="edge">
<title>Node4&#45;&gt;Node6</title>
<path fill="none" stroke="#63b8ff" d="M574.38,-55.08C578.22,-48.03 583.74,-37.9 588.54,-29.08"/>
<polygon fill="#63b8ff" stroke="#63b8ff" points="591.99,-31.07 593.7,-20.61 585.84,-27.72 591.99,-31.07"/>
</g>
<!-- Node7&#45;&gt;Node4 -->
<g id="edge12" class="edge">
<title>Node7&#45;&gt;Node4</title>
<path fill="none" stroke="#63b8ff" d="M450.85,-110.09C473.96,-101.49 508.99,-88.44 535.02,-78.75"/>
<polygon fill="#63b8ff" stroke="#63b8ff" points="536.06,-81.72 544.21,-74.95 533.62,-75.16 536.06,-81.72"/>
</g>
<!-- Node7&#45;&gt;Node5 -->
<g id="edge9" class="edge">
<title>Node7&#45;&gt;Node5</title>
<path fill="none" stroke="#63b8ff" d="M413.58,-110.13C403.07,-102.09 388.87,-89.31 381.59,-74.5 374.79,-60.68 373,-43.23 372.79,-30.06"/>
<polygon fill="#63b8ff" stroke="#63b8ff" points="376.29,-30.45 372.94,-20.4 369.3,-30.35 376.29,-30.45"/>
</g>
<!-- Node7&#45;&gt;Node6 -->
<g id="edge10" class="edge">
<title>Node7&#45;&gt;Node6</title>
<path fill="none" stroke="#63b8ff" d="M434.46,-110.29C446.69,-96.96 471.48,-71.56 496.59,-55.25 519.09,-40.64 547.18,-28.75 568.18,-20.93"/>
<polygon fill="#63b8ff" stroke="#63b8ff" points="569.23,-23.91 577.45,-17.22 566.85,-17.33 569.23,-23.91"/>
</g>
<!-- Node8 -->
<g id="node8" class="node">
<title>Node8</title>
<g id="a_node8"><a xlink:title=" ">
<polygon fill="#e0e0e0" stroke="#999999" points="338.47,-19.25 282.72,-19.25 282.72,0 338.47,0 338.47,-19.25"/>
<text text-anchor="middle" x="310.59" y="-5.75" font-family="Helvetica,sans-Serif" font-size="10.00">algorithm</text>
</a>
</g>
</g>
<!-- Node7&#45;&gt;Node8 -->
<g id="edge7" class="edge">
<title>Node7&#45;&gt;Node8</title>
<path fill="none" stroke="#63b8ff" d="M414.86,-110.3C403.48,-101.58 385.87,-87.67 371.59,-74.5 355.13,-59.32 337.6,-40.68 325.58,-27.46"/>
<polygon fill="#63b8ff" stroke="#63b8ff" points="328.84,-25.73 319.54,-20.65 323.64,-30.42 328.84,-25.73"/>
</g>
<!-- Node9 -->
<g id="node9" class="node">
<title>Node9</title>
<g id="a_node9"><a xlink:title=" ">
<polygon fill="#e0e0e0" stroke="#999999" points="444.34,-74.5 390.84,-74.5 390.84,-55.25 444.34,-55.25 444.34,-74.5"/>
<text text-anchor="middle" x="417.59" y="-61" font-family="Helvetica,sans-Serif" font-size="10.00">iostream</text>
</a>
</g>
</g>
<!-- Node7&#45;&gt;Node9 -->
<g id="edge8" class="edge">
<title>Node7&#45;&gt;Node9</title>
<path fill="none" stroke="#63b8ff" d="M425.1,-110.33C423.96,-103.59 422.35,-94.02 420.91,-85.49"/>
<polygon fill="#63b8ff" stroke="#63b8ff" points="424.23,-85.14 419.11,-75.86 417.32,-86.3 424.23,-85.14"/>
</g>
<!-- Node7&#45;&gt;Node10 -->
<g id="edge11" class="edge">
<title>Node7&#45;&gt;Node10</title>
<path fill="none" stroke="#63b8ff" d="M457.93,-113.78C517.31,-103.64 645.63,-81.74 705.98,-71.44"/>
<polygon fill="#63b8ff" stroke="#63b8ff" points="706.49,-74.73 715.76,-69.6 705.31,-67.83 706.49,-74.73"/>
</g>
<!-- Node11 -->
<g id="node11" class="node">
<title>Node11</title>
<g id="a_node11"><a xlink:href="lib_2include_2utility_8h.html" target="_top" xlink:title="internal utility functions">
<polygon fill="white" stroke="#666666" points="258.59,-74.5 212.59,-74.5 212.59,-55.25 258.59,-55.25 258.59,-74.5"/>
<text text-anchor="middle" x="235.59" y="-61" font-family="Helvetica,sans-Serif" font-size="10.00">utility.h</text>
</a>
</g>
</g>
<!-- Node7&#45;&gt;Node11 -->
<g id="edge13" class="edge">
<title>Node7&#45;&gt;Node11</title>
<path fill="none" stroke="#63b8ff" d="M395.48,-110.45C360.8,-100.78 304.92,-85.2 269.24,-75.26"/>
<polygon fill="#63b8ff" stroke="#63b8ff" points="270.44,-71.68 259.87,-72.36 268.56,-78.42 270.44,-71.68"/>
</g>
<!-- Node11&#45;&gt;Node6 -->
<g id="edge16" class="edge">
<title>Node11&#45;&gt;Node6</title>
<path fill="none" stroke="#63b8ff" d="M258.85,-60.46C321.98,-51.2 496.55,-25.59 567.75,-15.15"/>
<polygon fill="#63b8ff" stroke="#63b8ff" points="567.87,-18.52 577.26,-13.61 566.85,-11.6 567.87,-18.52"/>
</g>
<!-- Node11&#45;&gt;Node8 -->
<g id="edge14" class="edge">
<title>Node11&#45;&gt;Node8</title>
<path fill="none" stroke="#63b8ff" d="M248.31,-54.84C259.41,-46.96 275.75,-35.36 288.91,-26.02"/>
<polygon fill="#63b8ff" stroke="#63b8ff" points="290.68,-28.35 296.81,-19.7 286.63,-22.64 290.68,-28.35"/>
</g>
<!-- Node12 -->
<g id="node12" class="node">
<title>Node12</title>
<g id="a_node12"><a xlink:title=" ">
<polygon fill="#e0e0e0" stroke="#999999" points="264.59,-19.25 206.59,-19.25 206.59,0 264.59,0 264.59,-19.25"/>
<text text-anchor="middle" x="235.59" y="-5.75" font-family="Helvetica,sans-Serif" font-size="10.00">functional</text>
</a>
</g>
</g>
<!-- Node11&#45;&gt;Node12 -->
<g id="edge15" class="edge">
<title>Node11&#45;&gt;Node12</title>
<path fill="none" stroke="#63b8ff" d="M235.59,-55.08C235.59,-48.42 235.59,-38.99 235.59,-30.53"/>
<polygon fill="#63b8ff" stroke="#63b8ff" points="239.09,-30.61 235.59,-20.61 232.09,-30.61 239.09,-30.61"/>
</g>
<!-- Node13 -->
<g id="node13" class="node">
<title>Node13</title>
<g id="a_node13"><a xlink:title=" ">
<polygon fill="#e0e0e0" stroke="#999999" points="188.97,-19.25 106.22,-19.25 106.22,0 188.97,0 188.97,-19.25"/>
<text text-anchor="middle" x="147.59" y="-5.75" font-family="Helvetica,sans-Serif" font-size="10.00">unordered_map</text>
</a>
</g>
</g>
<!-- Node11&#45;&gt;Node13 -->
<g id="edge17" class="edge">
<title>Node11&#45;&gt;Node13</title>
<path fill="none" stroke="#63b8ff" d="M220.66,-54.84C207.26,-46.73 187.35,-34.68 171.69,-25.21"/>
<polygon fill="#63b8ff" stroke="#63b8ff" points="173.96,-21.89 163.59,-19.7 170.34,-27.87 173.96,-21.89"/>
</g>
<!-- Node14&#45;&gt;Node4 -->
<g id="edge23" class="edge">
<title>Node14&#45;&gt;Node4</title>
<path fill="none" stroke="#63b8ff" d="M783.53,-110.03C735.33,-100.08 658.65,-84.26 611.37,-74.5"/>
<polygon fill="#63b8ff" stroke="#63b8ff" points="612.38,-70.93 601.88,-72.33 610.97,-77.78 612.38,-70.93"/>
</g>
<!-- Node14&#45;&gt;Node6 -->
<g id="edge21" class="edge">
<title>Node14&#45;&gt;Node6</title>
<path fill="none" stroke="#63b8ff" d="M830.81,-110.1C835.01,-96.54 840.42,-70.83 827.59,-55.25 802.83,-25.2 686.11,-15.12 629.51,-11.96"/>
<polygon fill="#63b8ff" stroke="#63b8ff" points="629.89,-8.42 619.72,-11.4 629.52,-15.41 629.89,-8.42"/>
</g>
<!-- Node14&#45;&gt;Node10 -->
<g id="edge22" class="edge">
<title>Node14&#45;&gt;Node10</title>
<path fill="none" stroke="#63b8ff" d="M812.49,-110.09C798.94,-101.98 778.8,-89.93 762.97,-80.46"/>
<polygon fill="#63b8ff" stroke="#63b8ff" points="765.14,-77.08 754.76,-74.95 761.55,-83.09 765.14,-77.08"/>
</g>
<!-- Node15 -->
<g id="node15" class="node">
<title>Node15</title>
<g id="a_node15"><a xlink:title=" ">
<polygon fill="#e0e0e0" stroke="#999999" points="818.59,-74.5 778.59,-74.5 778.59,-55.25 818.59,-55.25 818.59,-74.5"/>
<text text-anchor="middle" x="798.59" y="-61" font-family="Helvetica,sans-Serif" font-size="10.00">regex</text>
</a>
</g>
</g>
<!-- Node14&#45;&gt;Node15 -->
<g id="edge20" class="edge">
<title>Node14&#45;&gt;Node15</title>
<path fill="none" stroke="#63b8ff" d="M822.8,-110.33C818.96,-103.28 813.44,-93.15 808.64,-84.33"/>
<polygon fill="#63b8ff" stroke="#63b8ff" points="811.34,-82.97 803.48,-75.86 805.19,-86.32 811.34,-82.97"/>
</g>
<!-- Node16&#45;&gt;Node3 -->
<g id="edge25" class="edge">
<title>Node16&#45;&gt;Node3</title>
<path fill="none" stroke="#63b8ff" d="M627.24,-220.59C618.43,-212.9 605.54,-201.65 594.98,-192.43"/>
<polygon fill="#63b8ff" stroke="#63b8ff" points="597.62,-189.21 587.79,-185.27 593.02,-194.49 597.62,-189.21"/>
</g>
<!-- Node16&#45;&gt;Node4 -->
<g id="edge26" class="edge">
<title>Node16&#45;&gt;Node4</title>
<path fill="none" stroke="#63b8ff" d="M635.46,-220.79C632.35,-208.32 626.09,-184.93 618.59,-165.75 607.14,-136.46 590.43,-104.02 579.79,-84.29"/>
<polygon fill="#63b8ff" stroke="#63b8ff" points="582.43,-82.83 574.57,-75.74 576.29,-86.19 582.43,-82.83"/>
</g>
<!-- Node16&#45;&gt;Node6 -->
<g id="edge39" class="edge">
<title>Node16&#45;&gt;Node6</title>
<path fill="none" stroke="#63b8ff" d="M638.41,-220.62C640.5,-194.35 644.52,-115.81 624.59,-55.25 621.52,-45.91 616.3,-36.38 611.35,-28.54"/>
<polygon fill="#63b8ff" stroke="#63b8ff" points="613.87,-27.01 605.39,-20.65 608.05,-30.91 613.87,-27.01"/>
</g>
<!-- Node16&#45;&gt;Node10 -->
<g id="edge40" class="edge">
<title>Node16&#45;&gt;Node10</title>
<path fill="none" stroke="#63b8ff" d="M651.12,-220.77C662.65,-212.64 679,-199.65 689.59,-185 712.22,-153.69 726.62,-110.4 733.59,-85.55"/>
<polygon fill="#63b8ff" stroke="#63b8ff" points="737.22,-86.53 736.42,-75.96 730.46,-84.72 737.22,-86.53"/>
</g>
<!-- Node16&#45;&gt;Node17 -->
<g id="edge27" class="edge">
<title>Node16&#45;&gt;Node17</title>
<path fill="none" stroke="#63b8ff" d="M606.62,-223.52C558.67,-214.06 466.3,-195.84 411.49,-185.03"/>
<polygon fill="#63b8ff" stroke="#63b8ff" points="412.21,-181.41 401.72,-182.91 410.86,-188.28 412.21,-181.41"/>
</g>
<!-- Node17&#45;&gt;Node4 -->
<g id="edge36" class="edge">
<title>Node17&#45;&gt;Node4</title>
<path fill="none" stroke="#63b8ff" d="M400.67,-167.24C428.39,-160.34 468.33,-148.18 499.59,-129.75 520.95,-117.15 541.42,-97.25 554.65,-83.01"/>
<polygon fill="#63b8ff" stroke="#63b8ff" points="556.79,-85.76 560.89,-75.99 551.59,-81.06 556.79,-85.76"/>
</g>
<!-- Node17&#45;&gt;Node5 -->
<g id="edge32" class="edge">
<title>Node17&#45;&gt;Node5</title>
<path fill="none" stroke="#63b8ff" d="M367.86,-165.41C368.46,-145.56 369.98,-96.4 371.59,-55.25 371.91,-47.11 372.3,-38.14 372.66,-30.39"/>
<polygon fill="#63b8ff" stroke="#63b8ff" points="376.19,-30.67 373.16,-20.51 369.2,-30.34 376.19,-30.67"/>
</g>
<!-- Node17&#45;&gt;Node6 -->
<g id="edge34" class="edge">
<title>Node17&#45;&gt;Node6</title>
<path fill="none" stroke="#63b8ff" d="M396.29,-165.3C417.09,-157.84 445.22,-145.87 466.59,-129.75 501.21,-103.64 497.03,-83.89 529.59,-55.25 542.69,-43.73 559.03,-33.03 572.51,-24.99"/>
<polygon fill="#63b8ff" stroke="#63b8ff" points="573.85,-27.69 580.74,-19.64 570.33,-21.63 573.85,-27.69"/>
</g>
<!-- Node17&#45;&gt;Node7 -->
<g id="edge37" class="edge">
<title>Node17&#45;&gt;Node7</title>
<path fill="none" stroke="#63b8ff" d="M377.6,-165.34C386.13,-157.65 398.59,-146.4 408.81,-137.18"/>
<polygon fill="#63b8ff" stroke="#63b8ff" points="410.65,-140.32 415.73,-131.02 405.96,-135.13 410.65,-140.32"/>
</g>
<!-- Node17&#45;&gt;Node10 -->
<g id="edge35" class="edge">
<title>Node17&#45;&gt;Node10</title>
<path fill="none" stroke="#63b8ff" d="M400.53,-165.33C432.72,-156.44 483.09,-142.41 526.59,-129.75 590.46,-111.17 664.84,-88.52 706.35,-75.8"/>
<polygon fill="#63b8ff" stroke="#63b8ff" points="707.12,-78.91 715.66,-72.63 705.07,-72.22 707.12,-78.91"/>
</g>
<!-- Node17&#45;&gt;Node11 -->
<g id="edge38" class="edge">
<title>Node17&#45;&gt;Node11</title>
<path fill="none" stroke="#63b8ff" d="M334.49,-172.69C250.07,-168.07 31.88,-153.87 10.59,-129.75 -43.47,-68.51 126.38,-64.07 201.61,-64.98"/>
<polygon fill="#63b8ff" stroke="#63b8ff" points="201.35,-68.5 211.41,-65.16 201.46,-61.5 201.35,-68.5"/>
</g>
<!-- Node18 -->
<g id="node18" class="node">
<title>Node18</title>
<g id="a_node18"><a xlink:title=" ">
<polygon fill="#e0e0e0" stroke="#999999" points="77.97,-129.75 19.22,-129.75 19.22,-110.5 77.97,-110.5 77.97,-129.75"/>
<text text-anchor="middle" x="48.59" y="-116.25" font-family="Helvetica,sans-Serif" font-size="10.00">curl/curl.h</text>
</a>
</g>
</g>
<!-- Node17&#45;&gt;Node18 -->
<g id="edge28" class="edge">
<title>Node17&#45;&gt;Node18</title>
<path fill="none" stroke="#63b8ff" d="M334.72,-169.78C284.18,-162.59 184.14,-147.78 89.04,-129.92"/>
<polygon fill="#63b8ff" stroke="#63b8ff" points="89.84,-126.32 79.36,-127.9 88.54,-133.2 89.84,-126.32"/>
</g>
<!-- Node19 -->
<g id="node19" class="node">
<title>Node19</title>
<g id="a_node19"><a xlink:title=" ">
<polygon fill="#e0e0e0" stroke="#999999" points="158.84,-129.75 96.34,-129.75 96.34,-110.5 158.84,-110.5 158.84,-129.75"/>
<text text-anchor="middle" x="127.59" y="-116.25" font-family="Helvetica,sans-Serif" font-size="10.00">curl/easy.h</text>
</a>
</g>
</g>
<!-- Node17&#45;&gt;Node19 -->
<g id="edge29" class="edge">
<title>Node17&#45;&gt;Node19</title>
<path fill="none" stroke="#63b8ff" d="M334.47,-167.03C291.61,-157.52 216.89,-140.94 169.95,-130.52"/>
<polygon fill="#63b8ff" stroke="#63b8ff" points="170.75,-126.89 160.22,-128.14 169.23,-133.73 170.75,-126.89"/>
</g>
<!-- Node20 -->
<g id="node20" class="node">
<title>Node20</title>
<g id="a_node20"><a xlink:title=" ">
<polygon fill="#e0e0e0" stroke="#999999" points="214.47,-129.75 176.72,-129.75 176.72,-110.5 214.47,-110.5 214.47,-129.75"/>
<text text-anchor="middle" x="195.59" y="-116.25" font-family="Helvetica,sans-Serif" font-size="10.00">array</text>
</a>
</g>
</g>
<!-- Node17&#45;&gt;Node20 -->
<g id="edge30" class="edge">
<title>Node17&#45;&gt;Node20</title>
<path fill="none" stroke="#63b8ff" d="M338.41,-165.34C306.86,-155.57 256.84,-140.09 225.15,-130.28"/>
<polygon fill="#63b8ff" stroke="#63b8ff" points="226.35,-126.67 215.76,-127.06 224.28,-133.36 226.35,-126.67"/>
</g>
<!-- Node21 -->
<g id="node21" class="node">
<title>Node21</title>
<g id="a_node21"><a xlink:title=" ">
<polygon fill="#e0e0e0" stroke="#999999" points="278.22,-129.75 232.97,-129.75 232.97,-110.5 278.22,-110.5 278.22,-129.75"/>
<text text-anchor="middle" x="255.59" y="-116.25" font-family="Helvetica,sans-Serif" font-size="10.00">atomic</text>
</a>
</g>
</g>
<!-- Node17&#45;&gt;Node21 -->
<g id="edge31" class="edge">
<title>Node17&#45;&gt;Node21</title>
<path fill="none" stroke="#63b8ff" d="M348.59,-165.34C331.05,-157 304.75,-144.5 284.59,-134.91"/>
<polygon fill="#63b8ff" stroke="#63b8ff" points="286.22,-131.34 275.68,-130.2 283.21,-137.66 286.22,-131.34"/>
</g>
<!-- Node22 -->
<g id="node22" class="node">
<title>Node22</title>
<g id="a_node22"><a xlink:title=" ">
<polygon fill="#e0e0e0" stroke="#999999" points="339.09,-129.75 296.09,-129.75 296.09,-110.5 339.09,-110.5 339.09,-129.75"/>
<text text-anchor="middle" x="317.59" y="-116.25" font-family="Helvetica,sans-Serif" font-size="10.00">mutex</text>
</a>
</g>
</g>
<!-- Node17&#45;&gt;Node22 -->
<g id="edge33" class="edge">
<title>Node17&#45;&gt;Node22</title>
<path fill="none" stroke="#63b8ff" d="M359.33,-165.58C352.28,-158.07 341.95,-147.06 333.32,-137.88"/>
<polygon fill="#63b8ff" stroke="#63b8ff" points="336.42,-136 327.03,-131.11 331.32,-140.8 336.42,-136"/>
</g>
</g>
</svg>
        <g id="navigator" transform="translate(0 0)" fill="#404254">
                <rect fill="#f2f5e9" fill-opacity="0.5" stroke="#606060" stroke-width=".5" x="0" y="0" width="60" height="60"/>
                <use id="zoomplus" xlink:href="#zoomPlus" x="17" y="9" onmousedown="handleZoom(evt,'in')"/>
                <use id="zoomminus" xlink:href="#zoomMin" x="42" y="9" onmousedown="handleZoom(evt,'out')"/>
                <use id="reset" xlink:href="#resetDef" x="30" y="36" onmousedown="handleReset()"/>
                <g id="arrowUp" xlink:href="#dirArrow" transform="translate(30 24)" onmousedown="handlePan(0,-1)">
                  <use xlink:href="#rim" fill="#404040">
                        <set attributeName="fill" to="#808080" begin="arrowUp.mouseover" end="arrowUp.mouseout"/>
                  </use>
                  <path fill="none" stroke="white" stroke-width="1.5" d="M0,-3.0v7 M-2.5,-0.5L0,-3.0L2.5,-0.5"/>
                </g>
                <g id="arrowRight" xlink:href="#dirArrow" transform="rotate(90) translate(36 -43)" onmousedown="handlePan(1,0)">
                  <use xlink:href="#rim" fill="#404040">
                        <set attributeName="fill" to="#808080" begin="arrowRight.mouseover" end="arrowRight.mouseout"/>
                  </use>
                  <path fill="none" stroke="white" stroke-width="1.5" d="M0,-3.0v7 M-2.5,-0.5L0,-3.0L2.5,-0.5"/>
                </g>
                <g id="arrowDown" xlink:href="#dirArrow" transform="rotate(180) translate(-30 -48)" onmousedown="handlePan(0,1)">
                  <use xlink:href="#rim" fill="#404040">
                        <set attributeName="fill" to="#808080" begin="arrowDown.mouseover" end="arrowDown.mouseout"/>
                  </use>
                  <path fill="none" stroke="white" stroke-width="1.5" d="M0,-3.0v7 M-2.5,-0.5L0,-3.0L2.5,-0.5"/>
                </g>
                <g id="arrowLeft" xlink:href="#dirArrow" transform="rotate(270) translate(-36 17)" onmousedown="handlePan(-1,0)">
                  <use xlink:href="#rim" fill="#404040">
                        <set attributeName="fill" to="#808080" begin="arrowLeft.mouseover" end="arrowLeft.mouseout"/>
                  </use>
                  <path fill="none" stroke="white" stroke-width="1.5" d="M0,-3.0v7 M-2.5,-0.5L0,-3.0L2.5,-0.5"/>
                </g>
        </g>
        <svg viewBox="0 0 15 15" width="100%" height="30px" preserveAspectRatio="xMaxYMin meet">
         <g id="arrow_out" transform="scale(0.3 0.3)">
          <a xlink:href="xmlstreams_8h__incl_org.svg" target="_base">
           <rect id="button" ry="5" rx="5" y="6" x="6" height="38" width="38"
                fill="#f2f5e9" fill-opacity="0.5" stroke="#606060" stroke-width="1.0"/>
           <path id="arrow"
             d="M 11.500037,31.436501 C 11.940474,20.09759 22.043105,11.32322 32.158766,21.979434 L 37.068811,17.246167 C 37.068811,17.246167 37.088388,32 37.088388,32 L 22.160133,31.978069 C 22.160133,31.978069 26.997745,27.140456 26.997745,27.140456 C 18.528582,18.264221 13.291696,25.230495 11.500037,31.436501 z"
             style="fill:#404040;"/>
          </a>
         </g>
        </svg>
</svg>
