<?xml version="1.0" encoding="UTF-8" standalone="no"?>
<!DOCTYPE svg PUBLIC "-//W3C//DTD SVG 1.1//EN"
 "http://www.w3.org/Graphics/SVG/1.1/DTD/svg11.dtd">
<!-- Generated by graphviz version 2.43.0 (0)
 -->
<!-- Title: /home/ugovaretto/projects/uv&#45;cpp/s3client/repo/lib/include/xmlstreams.h Pages: 1 -->
<!--zoomable 386 -->
<svg id="main" version="1.1" xmlns="http://www.w3.org/2000/svg" xmlns:xlink="http://www.w3.org/1999/xlink" xml:space="preserve" onload="init(evt)">
<style type="text/css"><![CDATA[
.edge:hover path { stroke: red; }
.edge:hover polygon { stroke: red; fill: red; }
]]></style>
<script type="text/javascript"><![CDATA[
var edges = document.getElementsByTagName('g');
if (edges && edges.length) {
  for (var i=0;i<edges.length;i++) {
    if (edges[i].id.substr(0,4)=='edge') {
      edges[i].setAttribute('class','edge');
    }
  }
}
]]></script>
        <defs>
                <circle id="rim" cx="0" cy="0" r="7"/>
                <circle id="rim2" cx="0" cy="0" r="3.5"/>
                <g id="zoomPlus">
                        <use xlink:href="#rim" fill="#404040">
                                <set attributeName="fill" to="#808080" begin="zoomplus.mouseover" end="zoomplus.mouseout"/>
                        </use>
                        <path d="M-4,0h8M0,-4v8" fill="none" stroke="white" stroke-width="1.5" pointer-events="none"/>
                </g>
                <g id="zoomMin">
                        <use xlink:href="#rim" fill="#404040">
                                <set attributeName="fill" to="#808080" begin="zoomminus.mouseover" end="zoomminus.mouseout"/>
                        </use>
                        <path d="M-4,0h8" fill="none" stroke="white" stroke-width="1.5" pointer-events="none"/>
                </g>
                <g id="dirArrow">
                        <path fill="none" stroke="white" stroke-width="1.5" d="M0,-3.0v7 M-2.5,-0.5L0,-3.0L2.5,-0.5"/>
                </g>
               <g id="resetDef">
                       <use xlink:href="#rim2" fill="#404040">
                               <set attributeName="fill" to="#808080" begin="reset.mouseover" end="reset.mouseout"/>
                       </use>
               </g>
        </defs>

<script type="text/javascript">
var viewWidth = 1225;
var viewHeight = 386;
var sectionId = 'dynsection-0';
</script>
<script xlink:href="svgpan.js"/>
<svg id="graph" class="graph">
<g id="viewport">
<title>/home/ugovaretto/projects/uv&#45;cpp/s3client/repo/lib/include/xmlstreams.h</title>
<!-- Node1 -->
<g id="node1" class="node">
<title>Node1</title>
<g id="a_node1"><a xlink:title="xml parser and generator.">
<polygon fill="#bfbfbf" stroke="black" points="965.33,-336.5 965.33,-377.5 1095.33,-377.5 1095.33,-336.5 965.33,-336.5"/>
<text text-anchor="start" x="973.33" y="-365.5" font-family="Helvetica,sans-Serif" font-size="10.00">/home/ugovaretto/projects</text>
<text text-anchor="start" x="973.33" y="-354.5" font-family="Helvetica,sans-Serif" font-size="10.00">/uv&#45;cpp/s3client/repo/lib</text>
<text text-anchor="middle" x="1030.33" y="-343.5" font-family="Helvetica,sans-Serif" font-size="10.00">/include/xmlstreams.h</text>
</a>
</g>
</g>
<!-- Node2 -->
<g id="node2" class="node">
<title>Node2</title>
<g id="a_node2"><a xlink:href="s3-api_8h.html" target="_top" xlink:title="declarations of S3Api class.">
<polygon fill="none" stroke="black" points="501.83,-280.5 501.83,-299.5 552.83,-299.5 552.83,-280.5 501.83,-280.5"/>
<text text-anchor="middle" x="527.33" y="-287.5" font-family="Helvetica,sans-Serif" font-size="10.00">s3&#45;api.h</text>
</a>
</g>
</g>
<!-- Node1&#45;&gt;Node2 -->
<g id="edge1" class="edge">
<title>Node1&#45;&gt;Node2</title>
<path fill="none" stroke="midnightblue" d="M965.09,-347.57C857.64,-333.68 647.01,-306.46 563.08,-295.62"/>
<polygon fill="midnightblue" stroke="midnightblue" points="563.39,-292.13 553.03,-294.32 562.5,-299.07 563.39,-292.13"/>
</g>
<!-- Node6 -->
<g id="node6" class="node">
<title>Node6</title>
<g id="a_node6"><a xlink:title=" ">
<polygon fill="none" stroke="#bfbfbf" points="611.83,-0.5 611.83,-19.5 652.83,-19.5 652.83,-0.5 611.83,-0.5"/>
<text text-anchor="middle" x="632.33" y="-7.5" font-family="Helvetica,sans-Serif" font-size="10.00">string</text>
</a>
</g>
</g>
<!-- Node1&#45;&gt;Node6 -->
<g id="edge53" class="edge">
<title>Node1&#45;&gt;Node6</title>
<path fill="none" stroke="midnightblue" d="M1012.81,-336.46C1004.39,-326.21 994.76,-313.09 988.33,-300 938.64,-198.85 1004.37,-129.95 919.33,-56 881.48,-23.08 729.16,-14.15 663.12,-11.8"/>
<polygon fill="midnightblue" stroke="midnightblue" points="663.04,-8.3 652.93,-11.47 662.81,-15.3 663.04,-8.3"/>
</g>
<!-- Node10 -->
<g id="node10" class="node">
<title>Node10</title>
<g id="a_node10"><a xlink:title=" ">
<polygon fill="none" stroke="#bfbfbf" points="711.33,-56.5 711.33,-75.5 755.33,-75.5 755.33,-56.5 711.33,-56.5"/>
<text text-anchor="middle" x="733.33" y="-63.5" font-family="Helvetica,sans-Serif" font-size="10.00">vector</text>
</a>
</g>
</g>
<!-- Node1&#45;&gt;Node10 -->
<g id="edge55" class="edge">
<title>Node1&#45;&gt;Node10</title>
<path fill="none" stroke="midnightblue" d="M965.18,-355.61C881.33,-351.27 746.33,-329.59 746.33,-235 746.33,-235 746.33,-235 746.33,-177 746.33,-144.58 740.69,-107.15 736.84,-85.37"/>
<polygon fill="midnightblue" stroke="midnightblue" points="740.28,-84.72 735.03,-75.52 733.4,-85.99 740.28,-84.72"/>
</g>
<!-- Node24 -->
<g id="node24" class="node">
<title>Node24</title>
<g id="a_node24"><a xlink:title=" ">
<polygon fill="none" stroke="#bfbfbf" points="1078.33,-224.5 1078.33,-243.5 1140.33,-243.5 1140.33,-224.5 1078.33,-224.5"/>
<text text-anchor="middle" x="1109.33" y="-231.5" font-family="Helvetica,sans-Serif" font-size="10.00">tinyxml2.h</text>
</a>
</g>
</g>
<!-- Node1&#45;&gt;Node24 -->
<g id="edge45" class="edge">
<title>Node1&#45;&gt;Node24</title>
<path fill="none" stroke="midnightblue" d="M1045.45,-336.4C1053.42,-325.8 1063.21,-312.39 1071.33,-300 1081.62,-284.32 1092.31,-265.81 1099.72,-252.56"/>
<polygon fill="midnightblue" stroke="midnightblue" points="1102.9,-254.03 1104.69,-243.58 1096.78,-250.64 1102.9,-254.03"/>
</g>
<!-- Node25 -->
<g id="node25" class="node">
<title>Node25</title>
<g id="a_node25"><a xlink:href="xml__path_8h_source.html" target="_top" xlink:title=" ">
<polygon fill="none" stroke="black" points="997.83,-280.5 997.83,-299.5 1062.83,-299.5 1062.83,-280.5 997.83,-280.5"/>
<text text-anchor="middle" x="1030.33" y="-287.5" font-family="Helvetica,sans-Serif" font-size="10.00">xml_path.h</text>
</a>
</g>
</g>
<!-- Node1&#45;&gt;Node25 -->
<g id="edge46" class="edge">
<title>Node1&#45;&gt;Node25</title>
<path fill="none" stroke="midnightblue" d="M1030.33,-336.5C1030.33,-328.07 1030.33,-318.24 1030.33,-309.87"/>
<polygon fill="midnightblue" stroke="midnightblue" points="1033.83,-309.65 1030.33,-299.65 1026.83,-309.65 1033.83,-309.65"/>
</g>
<!-- Node26 -->
<g id="node26" class="node">
<title>Node26</title>
<g id="a_node26"><a xlink:title=" ">
<polygon fill="none" stroke="#bfbfbf" points="1158.33,-224.5 1158.33,-243.5 1204.33,-243.5 1204.33,-224.5 1158.33,-224.5"/>
<text text-anchor="middle" x="1181.33" y="-231.5" font-family="Helvetica,sans-Serif" font-size="10.00">variant</text>
</a>
</g>
</g>
<!-- Node1&#45;&gt;Node26 -->
<g id="edge54" class="edge">
<title>Node1&#45;&gt;Node26</title>
<path fill="none" stroke="midnightblue" d="M1054.93,-336.29C1085.09,-312.12 1135.55,-271.69 1162.69,-249.94"/>
<polygon fill="midnightblue" stroke="midnightblue" points="1165.02,-252.56 1170.63,-243.57 1160.64,-247.1 1165.02,-252.56"/>
</g>
<!-- Node27 -->
<g id="node27" class="node">
<title>Node27</title>
<g id="a_node27"><a xlink:title=" ">
<polygon fill="none" stroke="#bfbfbf" points="1157.83,-280.5 1157.83,-299.5 1216.83,-299.5 1216.83,-280.5 1157.83,-280.5"/>
<text text-anchor="middle" x="1187.33" y="-287.5" font-family="Helvetica,sans-Serif" font-size="10.00">exception</text>
</a>
</g>
</g>
<!-- Node1&#45;&gt;Node27 -->
<g id="edge52" class="edge">
<title>Node1&#45;&gt;Node27</title>
<path fill="none" stroke="midnightblue" d="M1077.44,-336.5C1103.25,-325.81 1134.47,-312.89 1157.03,-303.54"/>
<polygon fill="midnightblue" stroke="midnightblue" points="1158.53,-306.71 1166.43,-299.65 1155.86,-300.24 1158.53,-306.71"/>
</g>
<!-- Node3 -->
<g id="node3" class="node">
<title>Node3</title>
<g id="a_node3"><a xlink:href="aws__sign_8h.html" target="_top" xlink:title="Public interface to signing URLs and HTTP headers with the S3v4 protocol standard.">
<polygon fill="none" stroke="black" points="144.33,-168.5 144.33,-187.5 210.33,-187.5 210.33,-168.5 144.33,-168.5"/>
<text text-anchor="middle" x="177.33" y="-175.5" font-family="Helvetica,sans-Serif" font-size="10.00">aws_sign.h</text>
</a>
</g>
</g>
<!-- Node2&#45;&gt;Node3 -->
<g id="edge2" class="edge">
<title>Node2&#45;&gt;Node3</title>
<path fill="none" stroke="midnightblue" d="M501.6,-280.91C440.36,-261.66 285.77,-213.08 214.44,-190.66"/>
<polygon fill="midnightblue" stroke="midnightblue" points="215.14,-187.21 204.55,-187.55 213.04,-193.89 215.14,-187.21"/>
</g>
<!-- Node14 -->
<g id="node14" class="node">
<title>Node14</title>
<g id="a_node14"><a xlink:href="error_8h_source.html" target="_top" xlink:title=" ">
<polygon fill="none" stroke="black" points="530.33,-224.5 530.33,-243.5 574.33,-243.5 574.33,-224.5 530.33,-224.5"/>
<text text-anchor="middle" x="552.33" y="-231.5" font-family="Helvetica,sans-Serif" font-size="10.00">error.h</text>
</a>
</g>
</g>
<!-- Node2&#45;&gt;Node14 -->
<g id="edge19" class="edge">
<title>Node2&#45;&gt;Node14</title>
<path fill="none" stroke="midnightblue" d="M531.46,-280.08C534.85,-272.77 539.75,-262.18 543.95,-253.1"/>
<polygon fill="midnightblue" stroke="midnightblue" points="547.26,-254.3 548.28,-243.75 540.9,-251.36 547.26,-254.3"/>
</g>
<!-- Node15 -->
<g id="node15" class="node">
<title>Node15</title>
<g id="a_node15"><a xlink:href="webclient_8h.html" target="_top" xlink:title="declaration of WebClient class wrapping libcurl to send web requests.">
<polygon fill="none" stroke="black" points="410.33,-168.5 410.33,-187.5 476.33,-187.5 476.33,-168.5 410.33,-168.5"/>
<text text-anchor="middle" x="443.33" y="-175.5" font-family="Helvetica,sans-Serif" font-size="10.00">webclient.h</text>
</a>
</g>
</g>
<!-- Node2&#45;&gt;Node15 -->
<g id="edge44" class="edge">
<title>Node2&#45;&gt;Node15</title>
<path fill="none" stroke="midnightblue" d="M521.98,-280.34C514.03,-267.63 498.39,-243.36 483.33,-224 475.63,-214.1 466.36,-203.59 458.69,-195.22"/>
<polygon fill="midnightblue" stroke="midnightblue" points="461.03,-192.61 451.66,-187.67 455.91,-197.37 461.03,-192.61"/>
</g>
<!-- Node21 -->
<g id="node21" class="node">
<title>Node21</title>
<g id="a_node21"><a xlink:href="response__parser_8h.html" target="_top" xlink:title="Functions to parse XML and HTTP headers.">
<polygon fill="none" stroke="black" points="812.33,-112.5 812.33,-131.5 908.33,-131.5 908.33,-112.5 812.33,-112.5"/>
<text text-anchor="middle" x="860.33" y="-119.5" font-family="Helvetica,sans-Serif" font-size="10.00">response_parser.h</text>
</a>
</g>
</g>
<!-- Node2&#45;&gt;Node21 -->
<g id="edge33" class="edge">
<title>Node2&#45;&gt;Node21</title>
<path fill="none" stroke="midnightblue" d="M544.77,-280.31C599.5,-253.02 768.16,-168.95 833.81,-136.22"/>
<polygon fill="midnightblue" stroke="midnightblue" points="835.68,-139.2 843.07,-131.61 832.56,-132.93 835.68,-139.2"/>
</g>
<!-- Node23 -->
<g id="node23" class="node">
<title>Node23</title>
<g id="a_node23"><a xlink:href="s3-client_8h.html" target="_top" xlink:title="declaration of functions and data types for sending S3 requests, signing URLs and downloading and upl...">
<polygon fill="none" stroke="black" points="412.33,-224.5 412.33,-243.5 474.33,-243.5 474.33,-224.5 412.33,-224.5"/>
<text text-anchor="middle" x="443.33" y="-231.5" font-family="Helvetica,sans-Serif" font-size="10.00">s3&#45;client.h</text>
</a>
</g>
</g>
<!-- Node2&#45;&gt;Node23 -->
<g id="edge38" class="edge">
<title>Node2&#45;&gt;Node23</title>
<path fill="none" stroke="midnightblue" d="M513.84,-280.32C500.73,-271.9 480.62,-258.97 465.23,-249.07"/>
<polygon fill="midnightblue" stroke="midnightblue" points="467.1,-246.12 456.8,-243.65 463.32,-252.01 467.1,-246.12"/>
</g>
<!-- Node4 -->
<g id="node4" class="node">
<title>Node4</title>
<g id="a_node4"><a xlink:href="common_8h.html" target="_top" xlink:title="Common definitions.">
<polygon fill="none" stroke="black" points="11.33,-56.5 11.33,-75.5 73.33,-75.5 73.33,-56.5 11.33,-56.5"/>
<text text-anchor="middle" x="42.33" y="-63.5" font-family="Helvetica,sans-Serif" font-size="10.00">common.h</text>
</a>
</g>
</g>
<!-- Node3&#45;&gt;Node4 -->
<g id="edge3" class="edge">
<title>Node3&#45;&gt;Node4</title>
<path fill="none" stroke="midnightblue" d="M144.21,-175.71C113.2,-172.56 68.31,-162.59 45.33,-132 35.48,-118.89 35.84,-99.74 38,-85.62"/>
<polygon fill="midnightblue" stroke="midnightblue" points="41.47,-86.07 39.95,-75.59 34.6,-84.74 41.47,-86.07"/>
</g>
<!-- Node3&#45;&gt;Node6 -->
<g id="edge18" class="edge">
<title>Node3&#45;&gt;Node6</title>
<path fill="none" stroke="midnightblue" d="M177.25,-168.45C177.61,-154.53 180.44,-127.02 196.33,-112 203.89,-104.86 504.03,-38.96 601.86,-17.63"/>
<polygon fill="midnightblue" stroke="midnightblue" points="602.69,-21.03 611.72,-15.48 601.2,-14.19 602.69,-21.03"/>
</g>
<!-- Node7 -->
<g id="node7" class="node">
<title>Node7</title>
<g id="a_node7"><a xlink:href="url__utility_8h.html" target="_top" xlink:title="Internal utility functions to process and parse text and URLs and create S3 signature keys.">
<polygon fill="none" stroke="black" points="87.33,-112.5 87.33,-131.5 149.33,-131.5 149.33,-112.5 87.33,-112.5"/>
<text text-anchor="middle" x="118.33" y="-119.5" font-family="Helvetica,sans-Serif" font-size="10.00">url_utility.h</text>
</a>
</g>
</g>
<!-- Node3&#45;&gt;Node7 -->
<g id="edge6" class="edge">
<title>Node3&#45;&gt;Node7</title>
<path fill="none" stroke="midnightblue" d="M167.85,-168.32C159.13,-160.34 145.99,-148.31 135.44,-138.65"/>
<polygon fill="midnightblue" stroke="midnightblue" points="137.73,-136 127.99,-131.83 133,-141.17 137.73,-136"/>
</g>
<!-- Node5 -->
<g id="node5" class="node">
<title>Node5</title>
<g id="a_node5"><a xlink:title=" ">
<polygon fill="none" stroke="#bfbfbf" points="24.83,-0.5 24.83,-19.5 59.83,-19.5 59.83,-0.5 24.83,-0.5"/>
<text text-anchor="middle" x="42.33" y="-7.5" font-family="Helvetica,sans-Serif" font-size="10.00">map</text>
</a>
</g>
</g>
<!-- Node4&#45;&gt;Node5 -->
<g id="edge4" class="edge">
<title>Node4&#45;&gt;Node5</title>
<path fill="none" stroke="midnightblue" d="M42.33,-56.08C42.33,-49.01 42.33,-38.86 42.33,-29.99"/>
<polygon fill="midnightblue" stroke="midnightblue" points="45.83,-29.75 42.33,-19.75 38.83,-29.75 45.83,-29.75"/>
</g>
<!-- Node4&#45;&gt;Node6 -->
<g id="edge5" class="edge">
<title>Node4&#45;&gt;Node6</title>
<path fill="none" stroke="midnightblue" d="M73.64,-62.13C175.92,-52.77 499.55,-23.15 601.36,-13.84"/>
<polygon fill="midnightblue" stroke="midnightblue" points="601.94,-17.3 611.58,-12.9 601.3,-10.33 601.94,-17.3"/>
</g>
<!-- Node7&#45;&gt;Node4 -->
<g id="edge12" class="edge">
<title>Node7&#45;&gt;Node4</title>
<path fill="none" stroke="midnightblue" d="M106.12,-112.32C94.56,-104.11 76.96,-91.6 63.17,-81.81"/>
<polygon fill="midnightblue" stroke="midnightblue" points="64.95,-78.77 54.77,-75.83 60.89,-84.48 64.95,-78.77"/>
</g>
<!-- Node7&#45;&gt;Node5 -->
<g id="edge9" class="edge">
<title>Node7&#45;&gt;Node5</title>
<path fill="none" stroke="midnightblue" d="M114.25,-112.23C108.1,-99.39 95.75,-74.95 82.33,-56 75.17,-45.89 66.07,-35.5 58.36,-27.25"/>
<polygon fill="midnightblue" stroke="midnightblue" points="60.68,-24.61 51.23,-19.81 55.62,-29.45 60.68,-24.61"/>
</g>
<!-- Node7&#45;&gt;Node6 -->
<g id="edge10" class="edge">
<title>Node7&#45;&gt;Node6</title>
<path fill="none" stroke="midnightblue" d="M149.52,-114.83C185.27,-107.35 245.38,-93.55 295.33,-76 315.6,-68.88 318.75,-62.13 339.33,-56 432.31,-28.3 547.24,-17 601.37,-12.96"/>
<polygon fill="midnightblue" stroke="midnightblue" points="601.94,-16.43 611.66,-12.22 601.44,-9.44 601.94,-16.43"/>
</g>
<!-- Node8 -->
<g id="node8" class="node">
<title>Node8</title>
<g id="a_node8"><a xlink:title=" ">
<polygon fill="none" stroke="#bfbfbf" points="135.33,-0.5 135.33,-19.5 191.33,-19.5 191.33,-0.5 135.33,-0.5"/>
<text text-anchor="middle" x="163.33" y="-7.5" font-family="Helvetica,sans-Serif" font-size="10.00">algorithm</text>
</a>
</g>
</g>
<!-- Node7&#45;&gt;Node8 -->
<g id="edge7" class="edge">
<title>Node7&#45;&gt;Node8</title>
<path fill="none" stroke="midnightblue" d="M121.86,-112.37C129.19,-94.46 146.18,-52.92 155.99,-28.95"/>
<polygon fill="midnightblue" stroke="midnightblue" points="159.27,-30.17 159.82,-19.59 152.79,-27.52 159.27,-30.17"/>
</g>
<!-- Node9 -->
<g id="node9" class="node">
<title>Node9</title>
<g id="a_node9"><a xlink:title=" ">
<polygon fill="none" stroke="#bfbfbf" points="167.33,-56.5 167.33,-75.5 221.33,-75.5 221.33,-56.5 167.33,-56.5"/>
<text text-anchor="middle" x="194.33" y="-63.5" font-family="Helvetica,sans-Serif" font-size="10.00">iostream</text>
</a>
</g>
</g>
<!-- Node7&#45;&gt;Node9 -->
<g id="edge8" class="edge">
<title>Node7&#45;&gt;Node9</title>
<path fill="none" stroke="midnightblue" d="M130.54,-112.32C142.11,-104.11 159.71,-91.6 173.49,-81.81"/>
<polygon fill="midnightblue" stroke="midnightblue" points="175.78,-84.48 181.9,-75.83 171.72,-78.77 175.78,-84.48"/>
</g>
<!-- Node7&#45;&gt;Node10 -->
<g id="edge11" class="edge">
<title>Node7&#45;&gt;Node10</title>
<path fill="none" stroke="midnightblue" d="M149.43,-117.19C163.71,-115.49 180.87,-113.54 196.33,-112 387.64,-92.95 617.83,-75.49 701.21,-69.34"/>
<polygon fill="midnightblue" stroke="midnightblue" points="701.6,-72.82 711.32,-68.6 701.09,-65.84 701.6,-72.82"/>
</g>
<!-- Node11 -->
<g id="node11" class="node">
<title>Node11</title>
<g id="a_node11"><a xlink:href="lib_2include_2utility_8h.html" target="_top" xlink:title="internal utility functions">
<polygon fill="none" stroke="black" points="239.83,-56.5 239.83,-75.5 286.83,-75.5 286.83,-56.5 239.83,-56.5"/>
<text text-anchor="middle" x="263.33" y="-63.5" font-family="Helvetica,sans-Serif" font-size="10.00">utility.h</text>
</a>
</g>
</g>
<!-- Node7&#45;&gt;Node11 -->
<g id="edge13" class="edge">
<title>Node7&#45;&gt;Node11</title>
<path fill="none" stroke="midnightblue" d="M141.31,-112.44C165.49,-103.44 203.75,-89.19 230.98,-79.05"/>
<polygon fill="midnightblue" stroke="midnightblue" points="232.32,-82.29 240.47,-75.52 229.87,-75.73 232.32,-82.29"/>
</g>
<!-- Node11&#45;&gt;Node6 -->
<g id="edge16" class="edge">
<title>Node11&#45;&gt;Node6</title>
<path fill="none" stroke="midnightblue" d="M286.97,-59.02C291.71,-57.93 296.67,-56.87 301.33,-56 411.1,-35.59 542.97,-20.43 601.62,-14.16"/>
<polygon fill="midnightblue" stroke="midnightblue" points="602.12,-17.63 611.69,-13.1 601.38,-10.67 602.12,-17.63"/>
</g>
<!-- Node11&#45;&gt;Node8 -->
<g id="edge14" class="edge">
<title>Node11&#45;&gt;Node8</title>
<path fill="none" stroke="midnightblue" d="M247.27,-56.32C231.38,-47.74 206.83,-34.49 188.38,-24.52"/>
<polygon fill="midnightblue" stroke="midnightblue" points="189.82,-21.33 179.36,-19.65 186.5,-27.49 189.82,-21.33"/>
</g>
<!-- Node12 -->
<g id="node12" class="node">
<title>Node12</title>
<g id="a_node12"><a xlink:title=" ">
<polygon fill="none" stroke="#bfbfbf" points="233.83,-0.5 233.83,-19.5 292.83,-19.5 292.83,-0.5 233.83,-0.5"/>
<text text-anchor="middle" x="263.33" y="-7.5" font-family="Helvetica,sans-Serif" font-size="10.00">functional</text>
</a>
</g>
</g>
<!-- Node11&#45;&gt;Node12 -->
<g id="edge15" class="edge">
<title>Node11&#45;&gt;Node12</title>
<path fill="none" stroke="midnightblue" d="M263.33,-56.08C263.33,-49.01 263.33,-38.86 263.33,-29.99"/>
<polygon fill="midnightblue" stroke="midnightblue" points="266.83,-29.75 263.33,-19.75 259.83,-29.75 266.83,-29.75"/>
</g>
<!-- Node13 -->
<g id="node13" class="node">
<title>Node13</title>
<g id="a_node13"><a xlink:title=" ">
<polygon fill="none" stroke="#bfbfbf" points="858.83,-0.5 858.83,-19.5 941.83,-19.5 941.83,-0.5 858.83,-0.5"/>
<text text-anchor="middle" x="900.33" y="-7.5" font-family="Helvetica,sans-Serif" font-size="10.00">unordered_map</text>
</a>
</g>
</g>
<!-- Node11&#45;&gt;Node13 -->
<g id="edge17" class="edge">
<title>Node11&#45;&gt;Node13</title>
<path fill="none" stroke="midnightblue" d="M287.14,-62.98C379.83,-55.12 717.88,-26.47 848.42,-15.4"/>
<polygon fill="midnightblue" stroke="midnightblue" points="848.89,-18.87 858.56,-14.54 848.3,-11.9 848.89,-18.87"/>
</g>
<!-- Node14&#45;&gt;Node6 -->
<g id="edge32" class="edge">
<title>Node14&#45;&gt;Node6</title>
<path fill="none" stroke="midnightblue" d="M574.38,-230.35C646.71,-221.18 874.58,-188.18 917.33,-132 985.76,-42.07 749.6,-18.24 662.97,-12.6"/>
<polygon fill="midnightblue" stroke="midnightblue" points="663.14,-9.1 652.94,-11.98 662.71,-16.09 663.14,-9.1"/>
</g>
<!-- Node14&#45;&gt;Node15 -->
<g id="edge20" class="edge">
<title>Node14&#45;&gt;Node15</title>
<path fill="none" stroke="midnightblue" d="M534.82,-224.32C517.26,-215.62 490,-202.12 469.8,-192.11"/>
<polygon fill="midnightblue" stroke="midnightblue" points="471.32,-188.96 460.8,-187.65 468.21,-195.23 471.32,-188.96"/>
</g>
<!-- Node15&#45;&gt;Node4 -->
<g id="edge29" class="edge">
<title>Node15&#45;&gt;Node4</title>
<path fill="none" stroke="midnightblue" d="M410.08,-176.68C330.57,-175.33 132.11,-168.31 78.33,-132 62.33,-121.2 52.74,-100.81 47.52,-85.73"/>
<polygon fill="midnightblue" stroke="midnightblue" points="50.78,-84.42 44.48,-75.91 44.1,-86.5 50.78,-84.42"/>
</g>
<!-- Node15&#45;&gt;Node5 -->
<g id="edge25" class="edge">
<title>Node15&#45;&gt;Node5</title>
<path fill="none" stroke="midnightblue" d="M410.28,-175.95C328.58,-172.92 119.29,-162.33 57.33,-132 26,-116.66 15.54,-108.29 2.33,-76 -5.05,-57.96 9.27,-39.18 22.78,-26.48"/>
<polygon fill="midnightblue" stroke="midnightblue" points="25.25,-28.97 30.47,-19.75 20.64,-23.7 25.25,-28.97"/>
</g>
<!-- Node15&#45;&gt;Node6 -->
<g id="edge27" class="edge">
<title>Node15&#45;&gt;Node6</title>
<path fill="none" stroke="midnightblue" d="M476.49,-169.31C500.15,-162.54 531.67,-150.77 554.33,-132 589.02,-103.28 613.52,-55.05 624.99,-29"/>
<polygon fill="midnightblue" stroke="midnightblue" points="628.29,-30.17 628.98,-19.6 621.85,-27.44 628.29,-30.17"/>
</g>
<!-- Node15&#45;&gt;Node7 -->
<g id="edge30" class="edge">
<title>Node15&#45;&gt;Node7</title>
<path fill="none" stroke="midnightblue" d="M410.08,-171.47C350.19,-161.52 224.39,-140.62 159.29,-129.81"/>
<polygon fill="midnightblue" stroke="midnightblue" points="159.83,-126.35 149.39,-128.16 158.68,-133.25 159.83,-126.35"/>
</g>
<!-- Node15&#45;&gt;Node10 -->
<g id="edge28" class="edge">
<title>Node15&#45;&gt;Node10</title>
<path fill="none" stroke="midnightblue" d="M476.56,-170.13C510.36,-162.64 563.95,-149.36 608.33,-132 645.34,-117.53 685.71,-95.25 710.28,-80.9"/>
<polygon fill="midnightblue" stroke="midnightblue" points="712.35,-83.74 719.18,-75.64 708.79,-77.71 712.35,-83.74"/>
</g>
<!-- Node15&#45;&gt;Node11 -->
<g id="edge31" class="edge">
<title>Node15&#45;&gt;Node11</title>
<path fill="none" stroke="midnightblue" d="M476.04,-168.44C511.12,-157.7 559.04,-137.56 537.33,-112 506.89,-76.15 363.66,-68.81 297.27,-67.34"/>
<polygon fill="midnightblue" stroke="midnightblue" points="296.99,-63.84 286.93,-67.15 296.86,-70.83 296.99,-63.84"/>
</g>
<!-- Node16 -->
<g id="node16" class="node">
<title>Node16</title>
<g id="a_node16"><a xlink:title=" ">
<polygon fill="none" stroke="#bfbfbf" points="205.83,-112.5 205.83,-131.5 264.83,-131.5 264.83,-112.5 205.83,-112.5"/>
<text text-anchor="middle" x="235.33" y="-119.5" font-family="Helvetica,sans-Serif" font-size="10.00">curl/curl.h</text>
</a>
</g>
</g>
<!-- Node15&#45;&gt;Node16 -->
<g id="edge21" class="edge">
<title>Node15&#45;&gt;Node16</title>
<path fill="none" stroke="midnightblue" d="M410.38,-168.44C373.6,-158.9 314.12,-143.45 274.87,-133.26"/>
<polygon fill="midnightblue" stroke="midnightblue" points="275.66,-129.85 265.1,-130.73 273.9,-136.63 275.66,-129.85"/>
</g>
<!-- Node17 -->
<g id="node17" class="node">
<title>Node17</title>
<g id="a_node17"><a xlink:title=" ">
<polygon fill="none" stroke="#bfbfbf" points="282.83,-112.5 282.83,-131.5 345.83,-131.5 345.83,-112.5 282.83,-112.5"/>
<text text-anchor="middle" x="314.33" y="-119.5" font-family="Helvetica,sans-Serif" font-size="10.00">curl/easy.h</text>
</a>
</g>
</g>
<!-- Node15&#45;&gt;Node17 -->
<g id="edge22" class="edge">
<title>Node15&#45;&gt;Node17</title>
<path fill="none" stroke="midnightblue" d="M422.89,-168.44C401.66,-159.56 368.23,-145.56 344.08,-135.45"/>
<polygon fill="midnightblue" stroke="midnightblue" points="345.25,-132.15 334.68,-131.52 342.55,-138.61 345.25,-132.15"/>
</g>
<!-- Node18 -->
<g id="node18" class="node">
<title>Node18</title>
<g id="a_node18"><a xlink:title=" ">
<polygon fill="none" stroke="#bfbfbf" points="364.33,-112.5 364.33,-131.5 402.33,-131.5 402.33,-112.5 364.33,-112.5"/>
<text text-anchor="middle" x="383.33" y="-119.5" font-family="Helvetica,sans-Serif" font-size="10.00">array</text>
</a>
</g>
</g>
<!-- Node15&#45;&gt;Node18 -->
<g id="edge23" class="edge">
<title>Node15&#45;&gt;Node18</title>
<path fill="none" stroke="midnightblue" d="M433.69,-168.32C424.82,-160.34 411.46,-148.31 400.73,-138.65"/>
<polygon fill="midnightblue" stroke="midnightblue" points="402.92,-135.92 393.15,-131.83 398.24,-141.13 402.92,-135.92"/>
</g>
<!-- Node19 -->
<g id="node19" class="node">
<title>Node19</title>
<g id="a_node19"><a xlink:title=" ">
<polygon fill="none" stroke="#bfbfbf" points="420.33,-112.5 420.33,-131.5 466.33,-131.5 466.33,-112.5 420.33,-112.5"/>
<text text-anchor="middle" x="443.33" y="-119.5" font-family="Helvetica,sans-Serif" font-size="10.00">atomic</text>
</a>
</g>
</g>
<!-- Node15&#45;&gt;Node19 -->
<g id="edge24" class="edge">
<title>Node15&#45;&gt;Node19</title>
<path fill="none" stroke="midnightblue" d="M443.33,-168.08C443.33,-161.01 443.33,-150.86 443.33,-141.99"/>
<polygon fill="midnightblue" stroke="midnightblue" points="446.83,-141.75 443.33,-131.75 439.83,-141.75 446.83,-141.75"/>
</g>
<!-- Node20 -->
<g id="node20" class="node">
<title>Node20</title>
<g id="a_node20"><a xlink:title=" ">
<polygon fill="none" stroke="#bfbfbf" points="484.33,-112.5 484.33,-131.5 528.33,-131.5 528.33,-112.5 484.33,-112.5"/>
<text text-anchor="middle" x="506.33" y="-119.5" font-family="Helvetica,sans-Serif" font-size="10.00">mutex</text>
</a>
</g>
</g>
<!-- Node15&#45;&gt;Node20 -->
<g id="edge26" class="edge">
<title>Node15&#45;&gt;Node20</title>
<path fill="none" stroke="midnightblue" d="M453.46,-168.32C462.86,-160.26 477.08,-148.08 488.4,-138.37"/>
<polygon fill="midnightblue" stroke="midnightblue" points="490.71,-141 496.03,-131.83 486.16,-135.68 490.71,-141"/>
</g>
<!-- Node21&#45;&gt;Node4 -->
<g id="edge37" class="edge">
<title>Node21&#45;&gt;Node4</title>
<path fill="none" stroke="midnightblue" d="M812.23,-118.14C698.5,-111.33 404.11,-93.41 158.33,-76 133.46,-74.24 105.6,-72.08 83.42,-70.32"/>
<polygon fill="midnightblue" stroke="midnightblue" points="83.59,-66.83 73.34,-69.52 83.03,-73.8 83.59,-66.83"/>
</g>
<!-- Node21&#45;&gt;Node6 -->
<g id="edge35" class="edge">
<title>Node21&#45;&gt;Node6</title>
<path fill="none" stroke="midnightblue" d="M849.69,-112.38C832.58,-98.86 797.49,-72.5 764.33,-56 731.08,-39.45 690.28,-26.58 662.92,-18.91"/>
<polygon fill="midnightblue" stroke="midnightblue" points="663.71,-15.5 653.14,-16.24 661.86,-22.25 663.71,-15.5"/>
</g>
<!-- Node21&#45;&gt;Node10 -->
<g id="edge36" class="edge">
<title>Node21&#45;&gt;Node10</title>
<path fill="none" stroke="midnightblue" d="M840.21,-112.44C819.31,-103.56 786.4,-89.56 762.62,-79.45"/>
<polygon fill="midnightblue" stroke="midnightblue" points="763.94,-76.21 753.36,-75.52 761.2,-82.65 763.94,-76.21"/>
</g>
<!-- Node22 -->
<g id="node22" class="node">
<title>Node22</title>
<g id="a_node22"><a xlink:title=" ">
<polygon fill="none" stroke="#bfbfbf" points="839.83,-56.5 839.83,-75.5 880.83,-75.5 880.83,-56.5 839.83,-56.5"/>
<text text-anchor="middle" x="860.33" y="-63.5" font-family="Helvetica,sans-Serif" font-size="10.00">regex</text>
</a>
</g>
</g>
<!-- Node21&#45;&gt;Node22 -->
<g id="edge34" class="edge">
<title>Node21&#45;&gt;Node22</title>
<path fill="none" stroke="midnightblue" d="M860.33,-112.08C860.33,-105.01 860.33,-94.86 860.33,-85.99"/>
<polygon fill="midnightblue" stroke="midnightblue" points="863.83,-85.75 860.33,-75.75 856.83,-85.75 863.83,-85.75"/>
</g>
<!-- Node23&#45;&gt;Node3 -->
<g id="edge39" class="edge">
<title>Node23&#45;&gt;Node3</title>
<path fill="none" stroke="midnightblue" d="M412.3,-226.7C364.92,-217.08 274.39,-198.7 220.59,-187.78"/>
<polygon fill="midnightblue" stroke="midnightblue" points="221.17,-184.33 210.67,-185.77 219.77,-191.19 221.17,-184.33"/>
</g>
<!-- Node23&#45;&gt;Node4 -->
<g id="edge40" class="edge">
<title>Node23&#45;&gt;Node4</title>
<path fill="none" stroke="midnightblue" d="M412.32,-232.14C355.8,-229.77 232.87,-220.94 135.33,-188 86.7,-171.58 60.38,-176.23 34.33,-132 25.97,-117.79 29.65,-98.82 34.41,-85.04"/>
<polygon fill="midnightblue" stroke="midnightblue" points="37.69,-86.27 38.08,-75.68 31.17,-83.71 37.69,-86.27"/>
</g>
<!-- Node23&#45;&gt;Node6 -->
<g id="edge42" class="edge">
<title>Node23&#45;&gt;Node6</title>
<path fill="none" stroke="midnightblue" d="M460.72,-224.44C498.73,-204.61 588.47,-151.35 621.33,-76 627.7,-61.39 630.4,-43.45 631.53,-30.12"/>
<polygon fill="midnightblue" stroke="midnightblue" points="635.05,-29.99 632.18,-19.79 628.06,-29.55 635.05,-29.99"/>
</g>
<!-- Node23&#45;&gt;Node10 -->
<g id="edge43" class="edge">
<title>Node23&#45;&gt;Node10</title>
<path fill="none" stroke="midnightblue" d="M474.65,-228.85C536.17,-220.47 668.23,-201.17 684.33,-188 715.96,-162.14 727.34,-112.71 731.31,-85.72"/>
<polygon fill="midnightblue" stroke="midnightblue" points="734.8,-86.03 732.59,-75.66 727.86,-85.14 734.8,-86.03"/>
</g>
<!-- Node23&#45;&gt;Node15 -->
<g id="edge41" class="edge">
<title>Node23&#45;&gt;Node15</title>
<path fill="none" stroke="midnightblue" d="M443.33,-224.08C443.33,-217.01 443.33,-206.86 443.33,-197.99"/>
<polygon fill="midnightblue" stroke="midnightblue" points="446.83,-197.75 443.33,-187.75 439.83,-197.75 446.83,-197.75"/>
</g>
<!-- Node25&#45;&gt;Node6 -->
<g id="edge48" class="edge">
<title>Node25&#45;&gt;Node6</title>
<path fill="none" stroke="midnightblue" d="M1027.91,-280.24C1022.99,-261.71 1012.33,-217.12 1012.33,-179 1012.33,-179 1012.33,-179 1012.33,-121 1012.33,-90.2 1012.44,-75.16 988.33,-56 938.37,-16.3 740.39,-11.32 663.29,-10.92"/>
<polygon fill="midnightblue" stroke="midnightblue" points="663.25,-7.42 653.24,-10.89 663.23,-14.42 663.25,-7.42"/>
</g>
<!-- Node25&#45;&gt;Node10 -->
<g id="edge51" class="edge">
<title>Node25&#45;&gt;Node10</title>
<path fill="none" stroke="midnightblue" d="M1016.55,-280.45C980.38,-257.81 880.29,-193.82 803.33,-132 783.88,-116.37 763.11,-96.66 749.29,-83.06"/>
<polygon fill="midnightblue" stroke="midnightblue" points="751.59,-80.41 742.03,-75.84 746.65,-85.37 751.59,-80.41"/>
</g>
<!-- Node25&#45;&gt;Node13 -->
<g id="edge49" class="edge">
<title>Node25&#45;&gt;Node13</title>
<path fill="none" stroke="midnightblue" d="M1033.03,-280.26C1038.49,-261.77 1050.33,-217.24 1050.33,-179 1050.33,-179 1050.33,-179 1050.33,-121 1050.33,-90.2 1048.23,-77.66 1026.33,-56 1006.36,-36.24 977.14,-25.11 951.86,-18.86"/>
<polygon fill="midnightblue" stroke="midnightblue" points="952.56,-15.43 942.04,-16.62 951.01,-22.26 952.56,-15.43"/>
</g>
<!-- Node25&#45;&gt;Node24 -->
<g id="edge47" class="edge">
<title>Node25&#45;&gt;Node24</title>
<path fill="none" stroke="midnightblue" d="M1043.03,-280.32C1055.23,-271.98 1073.91,-259.21 1088.34,-249.35"/>
<polygon fill="midnightblue" stroke="midnightblue" points="1090.39,-252.19 1096.67,-243.65 1086.44,-246.41 1090.39,-252.19"/>
</g>
<!-- Node25&#45;&gt;Node26 -->
<g id="edge50" class="edge">
<title>Node25&#45;&gt;Node26</title>
<path fill="none" stroke="midnightblue" d="M1054.26,-280.44C1079.7,-271.35 1120.11,-256.9 1148.51,-246.74"/>
<polygon fill="midnightblue" stroke="midnightblue" points="1149.78,-250 1158.02,-243.34 1147.42,-243.41 1149.78,-250"/>
</g>
</g>
</svg>
        <g id="navigator" transform="translate(0 0)" fill="#404254">
                <rect fill="#f2f5e9" fill-opacity="0.5" stroke="#606060" stroke-width=".5" x="0" y="0" width="60" height="60"/>
                <use id="zoomplus" xlink:href="#zoomPlus" x="17" y="9" onmousedown="handleZoom(evt,'in')"/>
                <use id="zoomminus" xlink:href="#zoomMin" x="42" y="9" onmousedown="handleZoom(evt,'out')"/>
                <use id="reset" xlink:href="#resetDef" x="30" y="36" onmousedown="handleReset()"/>
                <g id="arrowUp" xlink:href="#dirArrow" transform="translate(30 24)" onmousedown="handlePan(0,-1)">
                  <use xlink:href="#rim" fill="#404040">
                        <set attributeName="fill" to="#808080" begin="arrowUp.mouseover" end="arrowUp.mouseout"/>
                  </use>
                  <path fill="none" stroke="white" stroke-width="1.5" d="M0,-3.0v7 M-2.5,-0.5L0,-3.0L2.5,-0.5"/>
                </g>
                <g id="arrowRight" xlink:href="#dirArrow" transform="rotate(90) translate(36 -43)" onmousedown="handlePan(1,0)">
                  <use xlink:href="#rim" fill="#404040">
                        <set attributeName="fill" to="#808080" begin="arrowRight.mouseover" end="arrowRight.mouseout"/>
                  </use>
                  <path fill="none" stroke="white" stroke-width="1.5" d="M0,-3.0v7 M-2.5,-0.5L0,-3.0L2.5,-0.5"/>
                </g>
                <g id="arrowDown" xlink:href="#dirArrow" transform="rotate(180) translate(-30 -48)" onmousedown="handlePan(0,1)">
                  <use xlink:href="#rim" fill="#404040">
                        <set attributeName="fill" to="#808080" begin="arrowDown.mouseover" end="arrowDown.mouseout"/>
                  </use>
                  <path fill="none" stroke="white" stroke-width="1.5" d="M0,-3.0v7 M-2.5,-0.5L0,-3.0L2.5,-0.5"/>
                </g>
                <g id="arrowLeft" xlink:href="#dirArrow" transform="rotate(270) translate(-36 17)" onmousedown="handlePan(-1,0)">
                  <use xlink:href="#rim" fill="#404040">
                        <set attributeName="fill" to="#808080" begin="arrowLeft.mouseover" end="arrowLeft.mouseout"/>
                  </use>
                  <path fill="none" stroke="white" stroke-width="1.5" d="M0,-3.0v7 M-2.5,-0.5L0,-3.0L2.5,-0.5"/>
                </g>
        </g>
        <svg viewBox="0 0 15 15" width="100%" height="30px" preserveAspectRatio="xMaxYMin meet">
         <g id="arrow_out" transform="scale(0.3 0.3)">
          <a xlink:href="xmlstreams_8h__incl_org.svg" target="_base">
           <rect id="button" ry="5" rx="5" y="6" x="6" height="38" width="38"
                fill="#f2f5e9" fill-opacity="0.5" stroke="#606060" stroke-width="1.0"/>
           <path id="arrow"
             d="M 11.500037,31.436501 C 11.940474,20.09759 22.043105,11.32322 32.158766,21.979434 L 37.068811,17.246167 C 37.068811,17.246167 37.088388,32 37.088388,32 L 22.160133,31.978069 C 22.160133,31.978069 26.997745,27.140456 26.997745,27.140456 C 18.528582,18.264221 13.291696,25.230495 11.500037,31.436501 z"
             style="fill:#404040;"/>
          </a>
         </g>
        </svg>
</svg>
