<?xml version="1.0" encoding="UTF-8" standalone="no"?>
<!DOCTYPE svg PUBLIC "-//W3C//DTD SVG 1.1//EN"
 "http://www.w3.org/Graphics/SVG/1.1/DTD/svg11.dtd">
<!-- Generated by graphviz version 8.0.5 (20230430.1635)
 -->
<!-- Title: /Users/ugovaretto/projects/s3client/lib/include/aws_sign.h Pages: 1 -->
<svg width="612pt" height="272pt"
 viewBox="0.00 0.00 612.00 271.75" xmlns="http://www.w3.org/2000/svg" xmlns:xlink="http://www.w3.org/1999/xlink">
<g id="graph0" class="graph" transform="scale(1 1) rotate(0) translate(4 267.75)">
<title>/Users/ugovaretto/projects/s3client/lib/include/aws_sign.h</title>
<!-- Node1 -->
<g id="node1" class="node">
<title>Node1</title>
<g id="a_node1"><a xlink:title="Public interface to signing URLs and HTTP headers with the S3v4 protocol standard.">
<polygon fill="#999999" stroke="#666666" points="220.25,-263.75 68.5,-263.75 68.5,-233.25 220.25,-233.25 220.25,-263.75"/>
<text text-anchor="start" x="76.5" y="-250.25" font-family="Helvetica,sans-Serif" font-size="10.00">/Users/ugovaretto/projects</text>
<text text-anchor="middle" x="144.38" y="-239" font-family="Helvetica,sans-Serif" font-size="10.00">/s3client/lib/include/aws_sign.h</text>
</a>
</g>
</g>
<!-- Node2 -->
<g id="node2" class="node">
<title>Node2</title>
<g id="a_node2"><a xlink:href="s3-api_8h.html" target="_top" xlink:title="declarations of S3Client class;">
<polygon fill="white" stroke="#666666" points="136.75,-113.88 0,-113.88 0,-83.38 136.75,-83.38 136.75,-113.88"/>
<text text-anchor="start" x="8" y="-100.38" font-family="Helvetica,sans-Serif" font-size="10.00">/Users/ugovaretto/projects</text>
<text text-anchor="middle" x="68.38" y="-89.12" font-family="Helvetica,sans-Serif" font-size="10.00">/s3client/lib/include/s3&#45;api.h</text>
</a>
</g>
</g>
<!-- Node1&#45;&gt;Node2 -->
<g id="edge1" class="edge">
<title>Node1&#45;&gt;Node2</title>
<path fill="none" stroke="#63b8ff" d="M131.87,-223.18C115.96,-192.22 88.98,-139.71 75.91,-114.28"/>
<polygon fill="#63b8ff" stroke="#63b8ff" points="129.13,-224.49 136.81,-231.78 135.35,-221.29 129.13,-224.49"/>
</g>
<!-- Node4 -->
<g id="node4" class="node">
<title>Node4</title>
<g id="a_node4"><a xlink:href="s3-client_8h.html" target="_top" xlink:title="declaration of functions and data types for sending S3 requests, signing URLs and downloading and upl...">
<polygon fill="white" stroke="#666666" points="286.12,-197.25 154.62,-197.25 154.62,-155.5 286.12,-155.5 286.12,-197.25"/>
<text text-anchor="start" x="162.62" y="-183.75" font-family="Helvetica,sans-Serif" font-size="10.00">/Users/ugovaretto/projects</text>
<text text-anchor="start" x="162.62" y="-172.5" font-family="Helvetica,sans-Serif" font-size="10.00">/s3client/lib/include/s3</text>
<text text-anchor="middle" x="220.38" y="-161.25" font-family="Helvetica,sans-Serif" font-size="10.00">&#45;client.h</text>
</a>
</g>
</g>
<!-- Node1&#45;&gt;Node4 -->
<g id="edge3" class="edge">
<title>Node1&#45;&gt;Node4</title>
<path fill="none" stroke="#63b8ff" d="M168.15,-225.56C177.79,-216.67 188.85,-206.46 198.31,-197.74"/>
<polygon fill="#63b8ff" stroke="#63b8ff" points="166.1,-222.62 161.12,-231.97 170.85,-227.76 166.1,-222.62"/>
</g>
<!-- Node3 -->
<g id="node3" class="node">
<title>Node3</title>
<g id="a_node3"><a xlink:href="bucket-test_8cpp.html" target="_top" xlink:title="bucket tests">
<polygon fill="white" stroke="#666666" points="134.12,-41.75 2.62,-41.75 2.62,0 134.12,0 134.12,-41.75"/>
<text text-anchor="start" x="10.62" y="-28.25" font-family="Helvetica,sans-Serif" font-size="10.00">/Users/ugovaretto/projects</text>
<text text-anchor="start" x="10.62" y="-17" font-family="Helvetica,sans-Serif" font-size="10.00">/s3client/test/api/bucket</text>
<text text-anchor="middle" x="68.38" y="-5.75" font-family="Helvetica,sans-Serif" font-size="10.00">&#45;test.cpp</text>
</a>
</g>
</g>
<!-- Node2&#45;&gt;Node3 -->
<g id="edge2" class="edge">
<title>Node2&#45;&gt;Node3</title>
<path fill="none" stroke="#63b8ff" d="M68.38,-72.28C68.38,-62.48 68.38,-51.42 68.38,-42.16"/>
<polygon fill="#63b8ff" stroke="#63b8ff" points="64.88,-72.02 68.38,-82.02 71.88,-72.02 64.88,-72.02"/>
</g>
<!-- Node4&#45;&gt;Node2 -->
<g id="edge7" class="edge">
<title>Node4&#45;&gt;Node2</title>
<path fill="none" stroke="#63b8ff" d="M169.97,-150.26C145.97,-138.3 118.12,-124.41 97.65,-114.21"/>
<polygon fill="#63b8ff" stroke="#63b8ff" points="168.13,-153.75 178.64,-155.08 171.25,-147.48 168.13,-153.75"/>
</g>
<!-- Node5 -->
<g id="node5" class="node">
<title>Node5</title>
<g id="a_node5"><a xlink:href="parallel__upload_8cpp.html" target="_top" xlink:title="Parallel upload to S3 service.">
<polygon fill="white" stroke="#666666" points="286.12,-119.5 154.62,-119.5 154.62,-77.75 286.12,-77.75 286.12,-119.5"/>
<text text-anchor="start" x="162.62" y="-106" font-family="Helvetica,sans-Serif" font-size="10.00">/Users/ugovaretto/projects</text>
<text text-anchor="start" x="162.62" y="-94.75" font-family="Helvetica,sans-Serif" font-size="10.00">/s3client/apps/parallel</text>
<text text-anchor="middle" x="220.38" y="-83.5" font-family="Helvetica,sans-Serif" font-size="10.00">_upload.cpp</text>
</a>
</g>
</g>
<!-- Node4&#45;&gt;Node5 -->
<g id="edge4" class="edge">
<title>Node4&#45;&gt;Node5</title>
<path fill="none" stroke="#63b8ff" d="M220.38,-144.31C220.38,-136.11 220.38,-127.46 220.38,-119.98"/>
<polygon fill="#63b8ff" stroke="#63b8ff" points="216.88,-144.08 220.38,-154.08 223.88,-144.08 216.88,-144.08"/>
</g>
<!-- Node6 -->
<g id="node6" class="node">
<title>Node6</title>
<g id="a_node6"><a xlink:href="presign__url_8cpp.html" target="_top" xlink:title="Presign URL.">
<polygon fill="white" stroke="#666666" points="450.25,-113.88 304.5,-113.88 304.5,-83.38 450.25,-83.38 450.25,-113.88"/>
<text text-anchor="start" x="312.5" y="-100.38" font-family="Helvetica,sans-Serif" font-size="10.00">/Users/ugovaretto/projects</text>
<text text-anchor="middle" x="377.38" y="-89.12" font-family="Helvetica,sans-Serif" font-size="10.00">/s3client/apps/presign_url.cpp</text>
</a>
</g>
</g>
<!-- Node4&#45;&gt;Node6 -->
<g id="edge5" class="edge">
<title>Node4&#45;&gt;Node6</title>
<path fill="none" stroke="#63b8ff" d="M272.11,-150.42C296.97,-138.42 325.9,-124.46 347.14,-114.21"/>
<polygon fill="#63b8ff" stroke="#63b8ff" points="270.93,-147.58 263.45,-155.08 273.98,-153.88 270.93,-147.58"/>
</g>
<!-- Node7 -->
<g id="node7" class="node">
<title>Node7</title>
<g id="a_node7"><a xlink:href="apps_2s3-client_8cpp.html" target="_top" xlink:title="Send S3v4&#45;signed requests to S3 andpoint and print raw responses.">
<polygon fill="white" stroke="#666666" points="604,-113.88 468.75,-113.88 468.75,-83.38 604,-83.38 604,-113.88"/>
<text text-anchor="start" x="476.75" y="-100.38" font-family="Helvetica,sans-Serif" font-size="10.00">/Users/ugovaretto/projects</text>
<text text-anchor="middle" x="536.38" y="-89.12" font-family="Helvetica,sans-Serif" font-size="10.00">/s3client/apps/s3&#45;client.cpp</text>
</a>
</g>
</g>
<!-- Node4&#45;&gt;Node7 -->
<g id="edge6" class="edge">
<title>Node4&#45;&gt;Node7</title>
<path fill="none" stroke="#63b8ff" d="M297.11,-157.91C344.03,-147.11 405.25,-132.81 459.38,-119.5 466.08,-117.85 473.1,-116.09 480.06,-114.32"/>
<polygon fill="#63b8ff" stroke="#63b8ff" points="296.37,-154.71 287.41,-160.37 297.94,-161.54 296.37,-154.71"/>
</g>
</g>
</svg>
