<?xml version="1.0" encoding="UTF-8" standalone="no"?>
<!DOCTYPE svg PUBLIC "-//W3C//DTD SVG 1.1//EN"
 "http://www.w3.org/Graphics/SVG/1.1/DTD/svg11.dtd">
<!-- Generated by graphviz version 8.0.5 (20230430.1635)
 -->
<!-- Title: sss::WebClient::GetHeaderText Pages: 1 -->
<svg width="348pt" height="113pt"
 viewBox="0.00 0.00 347.50 112.88" xmlns="http://www.w3.org/2000/svg" xmlns:xlink="http://www.w3.org/1999/xlink">
<g id="graph0" class="graph" transform="scale(1 1) rotate(0) translate(4 108.88)">
<title>sss::WebClient::GetHeaderText</title>
<!-- Node1 -->
<g id="node1" class="node">
<title>Node1</title>
<g id="a_node1"><a xlink:title=" ">
<polygon fill="#999999" stroke="#666666" points="154.75,-67.88 0,-67.88 0,-48.62 154.75,-48.62 154.75,-67.88"/>
<text text-anchor="middle" x="77.38" y="-54.38" font-family="Helvetica,sans-Serif" font-size="10.00">sss::WebClient::GetHeaderText</text>
</a>
</g>
</g>
<!-- Node2 -->
<g id="node2" class="node">
<title>Node2</title>
<g id="a_node2"><a xlink:href="group__Ranges.html#ga0aa7f3b15d2ebf9b597a1b5ba38ae8ac" target="_top" xlink:title="return iterator at start position">
<polygon fill="white" stroke="#666666" points="295.62,-104.88 234.62,-104.88 234.62,-85.62 295.62,-85.62 295.62,-104.88"/>
<text text-anchor="middle" x="265.12" y="-91.38" font-family="Helvetica,sans-Serif" font-size="10.00">sss::begin</text>
</a>
</g>
</g>
<!-- Node1&#45;&gt;Node2 -->
<g id="edge1" class="edge">
<title>Node1&#45;&gt;Node2</title>
<path fill="none" stroke="#63b8ff" d="M129.13,-68.36C158.91,-74.29 196.01,-81.68 223.78,-87.21"/>
<polygon fill="#63b8ff" stroke="#63b8ff" points="222.82,-90.79 233.31,-89.31 224.18,-83.92 222.82,-90.79"/>
</g>
<!-- Node3 -->
<g id="node3" class="node">
<title>Node3</title>
<g id="a_node3"><a xlink:href="group__Ranges.html#ga4f73053571587e79eb3db628f5e6ef99" target="_top" xlink:title="return iterator at end position">
<polygon fill="white" stroke="#666666" points="291.88,-67.88 238.38,-67.88 238.38,-48.62 291.88,-48.62 291.88,-67.88"/>
<text text-anchor="middle" x="265.12" y="-54.38" font-family="Helvetica,sans-Serif" font-size="10.00">sss::end</text>
</a>
</g>
</g>
<!-- Node1&#45;&gt;Node3 -->
<g id="edge2" class="edge">
<title>Node1&#45;&gt;Node3</title>
<path fill="none" stroke="#63b8ff" d="M155,-58.25C179.96,-58.25 206.53,-58.25 227.21,-58.25"/>
<polygon fill="#63b8ff" stroke="#63b8ff" points="227.04,-61.75 237.04,-58.25 227.04,-54.75 227.04,-61.75"/>
</g>
<!-- Node4 -->
<g id="node4" class="node">
<title>Node4</title>
<g id="a_node4"><a xlink:href="classsss_1_1WebClient.html#a0b9b001ddc7ce778a613250e27e50731" target="_top" xlink:title=" ">
<polygon fill="white" stroke="#666666" points="339.5,-30.5 190.75,-30.5 190.75,0 339.5,0 339.5,-30.5"/>
<text text-anchor="start" x="198.75" y="-17" font-family="Helvetica,sans-Serif" font-size="10.00">sss::WebClient::GetResponse</text>
<text text-anchor="middle" x="265.12" y="-5.75" font-family="Helvetica,sans-Serif" font-size="10.00">Header</text>
</a>
</g>
</g>
<!-- Node1&#45;&gt;Node4 -->
<g id="edge3" class="edge">
<title>Node1&#45;&gt;Node4</title>
<path fill="none" stroke="#63b8ff" d="M121.93,-48.17C140.91,-43.77 163.76,-38.48 185.55,-33.44"/>
<polygon fill="#63b8ff" stroke="#63b8ff" points="186.18,-36.66 195.13,-30.99 184.6,-29.84 186.18,-36.66"/>
</g>
</g>
</svg>
