<?xml version="1.0" encoding="UTF-8" standalone="no"?>
<!DOCTYPE svg PUBLIC "-//W3C//DTD SVG 1.1//EN"
 "http://www.w3.org/Graphics/SVG/1.1/DTD/svg11.dtd">
<!-- Generated by graphviz version 8.0.5 (20230430.1635)
 -->
<!-- Title: sss::WebClient::Send Pages: 1 -->
<svg width="484pt" height="142pt"
 viewBox="0.00 0.00 483.50 141.81" xmlns="http://www.w3.org/2000/svg" xmlns:xlink="http://www.w3.org/1999/xlink">
<g id="graph0" class="graph" transform="scale(1 1) rotate(0) translate(4 137.81)">
<title>sss::WebClient::Send</title>
<!-- Node1 -->
<g id="node1" class="node">
<title>Node1</title>
<g id="a_node1"><a xlink:title=" ">
<polygon fill="#999999" stroke="#666666" points="475.5,-94.88 364.25,-94.88 364.25,-75.62 475.5,-75.62 475.5,-94.88"/>
<text text-anchor="middle" x="419.88" y="-81.38" font-family="Helvetica,sans-Serif" font-size="10.00">sss::WebClient::Send</text>
</a>
</g>
</g>
<!-- Node2 -->
<g id="node2" class="node">
<title>Node2</title>
<g id="a_node2"><a xlink:href="group__S3Client.html#ga5a769be8fbc874bad858ea95743e5643" target="_top" xlink:title="Send S3 request to endpoint.">
<polygon fill="white" stroke="#666666" points="130.38,-116.88 21.38,-116.88 21.38,-97.62 130.38,-97.62 130.38,-116.88"/>
<text text-anchor="middle" x="75.88" y="-103.38" font-family="Helvetica,sans-Serif" font-size="10.00">sss::SendS3Request</text>
</a>
</g>
</g>
<!-- Node1&#45;&gt;Node2 -->
<g id="edge1" class="edge">
<title>Node1&#45;&gt;Node2</title>
<path fill="none" stroke="#63b8ff" d="M393.04,-100.51C375.44,-109.99 351.25,-121.29 328.25,-126.25 255.09,-142.03 167.51,-128.25 117.41,-117.36"/>
<polygon fill="#63b8ff" stroke="#63b8ff" points="394.54,-103.12 401.58,-95.2 391.14,-97.01 394.54,-103.12"/>
</g>
<!-- Node3 -->
<g id="node3" class="node">
<title>Node3</title>
<g id="a_node3"><a xlink:href="classsss_1_1WebClient.html#ae7b1f77bd4ae44585f2d49ea493bdcc5" target="_top" xlink:title="Upload data from memory buffer.">
<polygon fill="white" stroke="#666666" points="328.25,-79.5 187.75,-79.5 187.75,-49 328.25,-49 328.25,-79.5"/>
<text text-anchor="start" x="195.75" y="-66" font-family="Helvetica,sans-Serif" font-size="10.00">sss::WebClient::UploadData</text>
<text text-anchor="middle" x="258" y="-54.75" font-family="Helvetica,sans-Serif" font-size="10.00">FromBuffer</text>
</a>
</g>
</g>
<!-- Node1&#45;&gt;Node3 -->
<g id="edge2" class="edge">
<title>Node1&#45;&gt;Node3</title>
<path fill="none" stroke="#63b8ff" d="M353,-76.6C344.92,-75.54 336.65,-74.45 328.52,-73.38"/>
<polygon fill="#63b8ff" stroke="#63b8ff" points="352.48,-80.19 362.86,-78.02 353.4,-73.25 352.48,-80.19"/>
</g>
<!-- Node5 -->
<g id="node5" class="node">
<title>Node5</title>
<g id="a_node5"><a xlink:href="classsss_1_1WebClient.html#ad038e41cfc902f6e49754c52a9a71992" target="_top" xlink:title="Upload file.">
<polygon fill="white" stroke="#666666" points="325.62,-116.88 190.38,-116.88 190.38,-97.62 325.62,-97.62 325.62,-116.88"/>
<text text-anchor="middle" x="258" y="-103.38" font-family="Helvetica,sans-Serif" font-size="10.00">sss::WebClient::UploadFile</text>
</a>
</g>
</g>
<!-- Node1&#45;&gt;Node5 -->
<g id="edge5" class="edge">
<title>Node1&#45;&gt;Node5</title>
<path fill="none" stroke="#63b8ff" d="M353.1,-94.3C344.15,-95.53 334.96,-96.8 326,-98.03"/>
<polygon fill="#63b8ff" stroke="#63b8ff" points="353.43,-97.65 362.86,-92.82 352.47,-90.72 353.43,-97.65"/>
</g>
<!-- Node6 -->
<g id="node6" class="node">
<title>Node6</title>
<g id="a_node6"><a xlink:href="classsss_1_1WebClient.html#accb4e986d73bb44149918fa0043ec43b" target="_top" xlink:title="Upload file starting from offset using unbuffered I/O read.">
<polygon fill="white" stroke="#666666" points="325.62,-30.5 190.38,-30.5 190.38,0 325.62,0 325.62,-30.5"/>
<text text-anchor="start" x="198.38" y="-17" font-family="Helvetica,sans-Serif" font-size="10.00">sss::WebClient::UploadFile</text>
<text text-anchor="middle" x="258" y="-5.75" font-family="Helvetica,sans-Serif" font-size="10.00">Unbuffered</text>
</a>
</g>
</g>
<!-- Node1&#45;&gt;Node6 -->
<g id="edge7" class="edge">
<title>Node1&#45;&gt;Node6</title>
<path fill="none" stroke="#63b8ff" d="M390.39,-70.06C372.73,-60.9 349.45,-49.31 328.25,-40.25 320.73,-37.04 312.64,-33.87 304.73,-30.92"/>
<polygon fill="#63b8ff" stroke="#63b8ff" points="388.59,-73.59 399.08,-75.13 391.84,-67.39 388.59,-73.59"/>
</g>
<!-- Node3&#45;&gt;Node2 -->
<g id="edge3" class="edge">
<title>Node3&#45;&gt;Node2</title>
<path fill="none" stroke="#63b8ff" d="M180.66,-82.47C159.63,-87.49 137.58,-92.76 119.24,-97.14"/>
<polygon fill="#63b8ff" stroke="#63b8ff" points="181.29,-85.68 190.21,-79.96 179.67,-78.87 181.29,-85.68"/>
</g>
<!-- Node4 -->
<g id="node4" class="node">
<title>Node4</title>
<g id="a_node4"><a xlink:href="classsss_1_1WebClient.html#ab5af9d8e7c424e49fab04f0d9d59b489" target="_top" xlink:title="Upload file starting from offset using unbuffered memory mapping of file.">
<polygon fill="white" stroke="#666666" points="151.75,-73.88 0,-73.88 0,-54.62 151.75,-54.62 151.75,-73.88"/>
<text text-anchor="middle" x="75.88" y="-60.38" font-family="Helvetica,sans-Serif" font-size="10.00">sss::WebClient::UploadFileMM</text>
</a>
</g>
</g>
<!-- Node3&#45;&gt;Node4 -->
<g id="edge4" class="edge">
<title>Node3&#45;&gt;Node4</title>
<path fill="none" stroke="#63b8ff" d="M176.39,-64.25C168.27,-64.25 160.06,-64.25 152.01,-64.25"/>
<polygon fill="#63b8ff" stroke="#63b8ff" points="176.36,-67.75 186.36,-64.25 176.36,-60.75 176.36,-67.75"/>
</g>
<!-- Node5&#45;&gt;Node2 -->
<g id="edge6" class="edge">
<title>Node5&#45;&gt;Node2</title>
<path fill="none" stroke="#63b8ff" d="M179.29,-107.25C162.94,-107.25 146.04,-107.25 130.79,-107.25"/>
<polygon fill="#63b8ff" stroke="#63b8ff" points="178.93,-110.75 188.93,-107.25 178.93,-103.75 178.93,-110.75"/>
</g>
</g>
</svg>
