<?xml version="1.0" encoding="UTF-8" standalone="no"?>
<!DOCTYPE svg PUBLIC "-//W3C//DTD SVG 1.1//EN"
 "http://www.w3.org/Graphics/SVG/1.1/DTD/svg11.dtd">
<!-- Generated by graphviz version 8.0.5 (20230430.1635)
 -->
<!-- Title: sss::WebClient::ErrorMsg Pages: 1 -->
<svg width="453pt" height="76pt"
 viewBox="0.00 0.00 452.75 75.88" xmlns="http://www.w3.org/2000/svg" xmlns:xlink="http://www.w3.org/1999/xlink">
<g id="graph0" class="graph" transform="scale(1 1) rotate(0) translate(4 71.88)">
<title>sss::WebClient::ErrorMsg</title>
<!-- Node1 -->
<g id="node1" class="node">
<title>Node1</title>
<g id="a_node1"><a xlink:title=" ">
<polygon fill="#999999" stroke="#666666" points="444.75,-45.88 316.25,-45.88 316.25,-26.62 444.75,-26.62 444.75,-45.88"/>
<text text-anchor="middle" x="380.5" y="-32.38" font-family="Helvetica,sans-Serif" font-size="10.00">sss::WebClient::ErrorMsg</text>
</a>
</g>
</g>
<!-- Node2 -->
<g id="node2" class="node">
<title>Node2</title>
<g id="a_node2"><a xlink:href="classsss_1_1WebClient.html#ad038e41cfc902f6e49754c52a9a71992" target="_top" xlink:title="Upload file.">
<polygon fill="white" stroke="#666666" points="280.25,-67.88 145,-67.88 145,-48.62 280.25,-48.62 280.25,-67.88"/>
<text text-anchor="middle" x="212.62" y="-54.38" font-family="Helvetica,sans-Serif" font-size="10.00">sss::WebClient::UploadFile</text>
</a>
</g>
</g>
<!-- Node1&#45;&gt;Node2 -->
<g id="edge1" class="edge">
<title>Node1&#45;&gt;Node2</title>
<path fill="none" stroke="#63b8ff" d="M305.2,-46.1C297.04,-47.19 288.76,-48.29 280.69,-49.36"/>
<polygon fill="#63b8ff" stroke="#63b8ff" points="305.39,-49.48 314.84,-44.69 304.47,-42.54 305.39,-49.48"/>
</g>
<!-- Node4 -->
<g id="node4" class="node">
<title>Node4</title>
<g id="a_node4"><a xlink:href="classsss_1_1WebClient.html#accb4e986d73bb44149918fa0043ec43b" target="_top" xlink:title="Upload file starting from offset using unbuffered I/O read.">
<polygon fill="white" stroke="#666666" points="280.25,-30.5 145,-30.5 145,0 280.25,0 280.25,-30.5"/>
<text text-anchor="start" x="153" y="-17" font-family="Helvetica,sans-Serif" font-size="10.00">sss::WebClient::UploadFile</text>
<text text-anchor="middle" x="212.62" y="-5.75" font-family="Helvetica,sans-Serif" font-size="10.00">Unbuffered</text>
</a>
</g>
</g>
<!-- Node1&#45;&gt;Node4 -->
<g id="edge3" class="edge">
<title>Node1&#45;&gt;Node4</title>
<path fill="none" stroke="#63b8ff" d="M305.2,-26.84C297.04,-25.81 288.76,-24.76 280.69,-23.74"/>
<polygon fill="#63b8ff" stroke="#63b8ff" points="304.48,-30.41 314.84,-28.19 305.36,-23.46 304.48,-30.41"/>
</g>
<!-- Node3 -->
<g id="node3" class="node">
<title>Node3</title>
<g id="a_node3"><a xlink:href="group__S3Client.html#ga5a769be8fbc874bad858ea95743e5643" target="_top" xlink:title="Send S3 request to endpoint.">
<polygon fill="white" stroke="#666666" points="109,-67.88 0,-67.88 0,-48.62 109,-48.62 109,-67.88"/>
<text text-anchor="middle" x="54.5" y="-54.38" font-family="Helvetica,sans-Serif" font-size="10.00">sss::SendS3Request</text>
</a>
</g>
</g>
<!-- Node2&#45;&gt;Node3 -->
<g id="edge2" class="edge">
<title>Node2&#45;&gt;Node3</title>
<path fill="none" stroke="#63b8ff" d="M133.72,-58.25C125.49,-58.25 117.25,-58.25 109.38,-58.25"/>
<polygon fill="#63b8ff" stroke="#63b8ff" points="133.51,-61.75 143.51,-58.25 133.51,-54.75 133.51,-61.75"/>
</g>
</g>
</svg>
