<?xml version="1.0" encoding="UTF-8" standalone="no"?>
<!DOCTYPE svg PUBLIC "-//W3C//DTD SVG 1.1//EN"
 "http://www.w3.org/Graphics/SVG/1.1/DTD/svg11.dtd">
<!-- Generated by graphviz version 8.0.5 (20230430.1635)
 -->
<!-- Title: sss::WebClient::SetReadFunction Pages: 1 -->
<svg width="528pt" height="113pt"
 viewBox="0.00 0.00 527.75 112.88" xmlns="http://www.w3.org/2000/svg" xmlns:xlink="http://www.w3.org/1999/xlink">
<g id="graph0" class="graph" transform="scale(1 1) rotate(0) translate(4 108.88)">
<title>sss::WebClient::SetReadFunction</title>
<!-- Node1 -->
<g id="node1" class="node">
<title>Node1</title>
<g id="a_node1"><a xlink:title=" ">
<polygon fill="#999999" stroke="#666666" points="519.75,-67.88 355.25,-67.88 355.25,-48.62 519.75,-48.62 519.75,-67.88"/>
<text text-anchor="middle" x="437.5" y="-54.38" font-family="Helvetica,sans-Serif" font-size="10.00">sss::WebClient::SetReadFunction</text>
</a>
</g>
</g>
<!-- Node2 -->
<g id="node2" class="node">
<title>Node2</title>
<g id="a_node2"><a xlink:href="classsss_1_1WebClient.html#a96837f149bb473853a6523d096a25c56" target="_top" xlink:title="Reset read/write functions to default.">
<polygon fill="white" stroke="#666666" points="319.25,-104.88 145,-104.88 145,-85.62 319.25,-85.62 319.25,-104.88"/>
<text text-anchor="middle" x="232.12" y="-91.38" font-family="Helvetica,sans-Serif" font-size="10.00">sss::WebClient::ResetRWFunctions</text>
</a>
</g>
</g>
<!-- Node1&#45;&gt;Node2 -->
<g id="edge1" class="edge">
<title>Node1&#45;&gt;Node2</title>
<path fill="none" stroke="#63b8ff" d="M370.25,-70.3C343.87,-75.1 313.84,-80.56 288.63,-85.15"/>
<polygon fill="#63b8ff" stroke="#63b8ff" points="370.71,-73.59 379.93,-68.36 369.46,-66.71 370.71,-73.59"/>
</g>
<!-- Node3 -->
<g id="node3" class="node">
<title>Node3</title>
<g id="a_node3"><a xlink:href="classsss_1_1WebClient.html#ad038e41cfc902f6e49754c52a9a71992" target="_top" xlink:title="Upload file.">
<polygon fill="white" stroke="#666666" points="299.75,-67.88 164.5,-67.88 164.5,-48.62 299.75,-48.62 299.75,-67.88"/>
<text text-anchor="middle" x="232.12" y="-54.38" font-family="Helvetica,sans-Serif" font-size="10.00">sss::WebClient::UploadFile</text>
</a>
</g>
</g>
<!-- Node1&#45;&gt;Node3 -->
<g id="edge2" class="edge">
<title>Node1&#45;&gt;Node3</title>
<path fill="none" stroke="#63b8ff" d="M344.18,-58.25C329.3,-58.25 314.15,-58.25 300.02,-58.25"/>
<polygon fill="#63b8ff" stroke="#63b8ff" points="343.95,-61.75 353.95,-58.25 343.95,-54.75 343.95,-61.75"/>
</g>
<!-- Node5 -->
<g id="node5" class="node">
<title>Node5</title>
<g id="a_node5"><a xlink:href="classsss_1_1WebClient.html#accb4e986d73bb44149918fa0043ec43b" target="_top" xlink:title="Upload file starting from offset using unbuffered I/O read.">
<polygon fill="white" stroke="#666666" points="299.75,-30.5 164.5,-30.5 164.5,0 299.75,0 299.75,-30.5"/>
<text text-anchor="start" x="172.5" y="-17" font-family="Helvetica,sans-Serif" font-size="10.00">sss::WebClient::UploadFile</text>
<text text-anchor="middle" x="232.12" y="-5.75" font-family="Helvetica,sans-Serif" font-size="10.00">Unbuffered</text>
</a>
</g>
</g>
<!-- Node1&#45;&gt;Node5 -->
<g id="edge4" class="edge">
<title>Node1&#45;&gt;Node5</title>
<path fill="none" stroke="#63b8ff" d="M378.28,-45.94C353.9,-40.78 325.4,-34.76 300.14,-29.42"/>
<polygon fill="#63b8ff" stroke="#63b8ff" points="377.31,-49.52 387.82,-48.17 378.76,-42.68 377.31,-49.52"/>
</g>
<!-- Node4 -->
<g id="node4" class="node">
<title>Node4</title>
<g id="a_node4"><a xlink:href="group__S3Client.html#ga5a769be8fbc874bad858ea95743e5643" target="_top" xlink:title="Send S3 request to endpoint.">
<polygon fill="white" stroke="#666666" points="109,-67.88 0,-67.88 0,-48.62 109,-48.62 109,-67.88"/>
<text text-anchor="middle" x="54.5" y="-54.38" font-family="Helvetica,sans-Serif" font-size="10.00">sss::SendS3Request</text>
</a>
</g>
</g>
<!-- Node3&#45;&gt;Node4 -->
<g id="edge3" class="edge">
<title>Node3&#45;&gt;Node4</title>
<path fill="none" stroke="#63b8ff" d="M153.49,-58.25C138.61,-58.25 123.33,-58.25 109.4,-58.25"/>
<polygon fill="#63b8ff" stroke="#63b8ff" points="153.23,-61.75 163.23,-58.25 153.23,-54.75 153.23,-61.75"/>
</g>
</g>
</svg>
