<?xml version="1.0" encoding="UTF-8" standalone="no"?>
<!DOCTYPE svg PUBLIC "-//W3C//DTD SVG 1.1//EN"
 "http://www.w3.org/Graphics/SVG/1.1/DTD/svg11.dtd">
<!-- Generated by graphviz version 8.0.5 (20230430.1635)
 -->
<!-- Title: sss::WebClient::SetHeaders Pages: 1 -->
<svg width="302pt" height="64pt"
 viewBox="0.00 0.00 301.75 64.25" xmlns="http://www.w3.org/2000/svg" xmlns:xlink="http://www.w3.org/1999/xlink">
<g id="graph0" class="graph" transform="scale(1 1) rotate(0) translate(4 60.25)">
<title>sss::WebClient::SetHeaders</title>
<!-- Node1 -->
<g id="node1" class="node">
<title>Node1</title>
<g id="a_node1"><a xlink:title=" ">
<polygon fill="#999999" stroke="#666666" points="293.75,-37.25 153.25,-37.25 153.25,-18 293.75,-18 293.75,-37.25"/>
<text text-anchor="middle" x="223.5" y="-23.75" font-family="Helvetica,sans-Serif" font-size="10.00">sss::WebClient::SetHeaders</text>
</a>
</g>
</g>
<!-- Node2 -->
<g id="node2" class="node">
<title>Node2</title>
<g id="a_node2"><a xlink:href="classsss_1_1api_1_1S3Api.html#a88b3eb551e57106ed171d9079de6afb4" target="_top" xlink:title="[WebClient::Config]">
<polygon fill="white" stroke="#666666" points="117.25,-56.25 0,-56.25 0,-37 117.25,-37 117.25,-56.25"/>
<text text-anchor="middle" x="58.62" y="-42.75" font-family="Helvetica,sans-Serif" font-size="10.00">sss::api::S3Api::Config</text>
</a>
</g>
</g>
<!-- Node1&#45;&gt;Node2 -->
<g id="edge1" class="edge">
<title>Node1&#45;&gt;Node2</title>
<path fill="none" stroke="#63b8ff" d="M142.14,-37C133.89,-37.96 125.62,-38.93 117.67,-39.85"/>
<polygon fill="#63b8ff" stroke="#63b8ff" points="142.43,-40.37 151.95,-35.74 141.62,-33.42 142.43,-40.37"/>
</g>
<!-- Node3 -->
<g id="node3" class="node">
<title>Node3</title>
<g id="a_node3"><a xlink:href="group__S3Client.html#ga5a769be8fbc874bad858ea95743e5643" target="_top" xlink:title="Send S3 request to endpoint.">
<polygon fill="white" stroke="#666666" points="113.12,-19.25 4.12,-19.25 4.12,0 113.12,0 113.12,-19.25"/>
<text text-anchor="middle" x="58.62" y="-5.75" font-family="Helvetica,sans-Serif" font-size="10.00">sss::SendS3Request</text>
</a>
</g>
</g>
<!-- Node1&#45;&gt;Node3 -->
<g id="edge2" class="edge">
<title>Node1&#45;&gt;Node3</title>
<path fill="none" stroke="#63b8ff" d="M142.28,-18.76C132.41,-17.67 122.51,-16.57 113.17,-15.54"/>
<polygon fill="#63b8ff" stroke="#63b8ff" points="141.63,-22.32 151.95,-19.94 142.4,-15.36 141.63,-22.32"/>
</g>
</g>
</svg>
