<?xml version="1.0" encoding="UTF-8" standalone="no"?>
<!DOCTYPE svg PUBLIC "-//W3C//DTD SVG 1.1//EN"
 "http://www.w3.org/Graphics/SVG/1.1/DTD/svg11.dtd">
<!-- Generated by graphviz version 8.0.5 (20230430.1635)
 -->
<!-- Title: sss::WebClient::GetResponseBody Pages: 1 -->
<svg width="373pt" height="64pt"
 viewBox="0.00 0.00 373.00 64.25" xmlns="http://www.w3.org/2000/svg" xmlns:xlink="http://www.w3.org/1999/xlink">
<g id="graph0" class="graph" transform="scale(1 1) rotate(0) translate(4 60.25)">
<title>sss::WebClient::GetResponseBody</title>
<!-- Node1 -->
<g id="node1" class="node">
<title>Node1</title>
<g id="a_node1"><a xlink:title=" ">
<polygon fill="#999999" stroke="#666666" points="365,-37.25 193.75,-37.25 193.75,-18 365,-18 365,-37.25"/>
<text text-anchor="middle" x="279.38" y="-23.75" font-family="Helvetica,sans-Serif" font-size="10.00">sss::WebClient::GetResponseBody</text>
</a>
</g>
</g>
<!-- Node2 -->
<g id="node2" class="node">
<title>Node2</title>
<g id="a_node2"><a xlink:href="classsss_1_1WebClient.html#ac9e82fc4b56b142d91f9b104f5266f91" target="_top" xlink:title="Get response body as text.">
<polygon fill="white" stroke="#666666" points="157.75,-56.25 0,-56.25 0,-37 157.75,-37 157.75,-56.25"/>
<text text-anchor="middle" x="78.88" y="-42.75" font-family="Helvetica,sans-Serif" font-size="10.00">sss::WebClient::GetContentText</text>
</a>
</g>
</g>
<!-- Node1&#45;&gt;Node2 -->
<g id="edge1" class="edge">
<title>Node1&#45;&gt;Node2</title>
<path fill="none" stroke="#63b8ff" d="M182.6,-36.79C174.41,-37.58 166.18,-38.36 158.15,-39.13"/>
<polygon fill="#63b8ff" stroke="#63b8ff" points="182.71,-40.2 192.33,-35.77 182.04,-33.23 182.71,-40.2"/>
</g>
<!-- Node3 -->
<g id="node3" class="node">
<title>Node3</title>
<g id="a_node3"><a xlink:href="classsss_1_1api_1_1S3Api.html#ac1463274896e5191d1315075539f84b4" target="_top" xlink:title=" ">
<polygon fill="white" stroke="#666666" points="145.38,-19.25 12.38,-19.25 12.38,0 145.38,0 145.38,-19.25"/>
<text text-anchor="middle" x="78.88" y="-5.75" font-family="Helvetica,sans-Serif" font-size="10.00">sss::api::S3Api::GetObject</text>
</a>
</g>
</g>
<!-- Node1&#45;&gt;Node3 -->
<g id="edge2" class="edge">
<title>Node1&#45;&gt;Node3</title>
<path fill="none" stroke="#63b8ff" d="M182.47,-18.93C170.08,-17.8 157.61,-16.67 145.85,-15.61"/>
<polygon fill="#63b8ff" stroke="#63b8ff" points="182.05,-22.5 192.33,-19.91 182.69,-15.52 182.05,-22.5"/>
</g>
</g>
</svg>
