<?xml version="1.0" encoding="UTF-8" standalone="no"?>
<!DOCTYPE svg PUBLIC "-//W3C//DTD SVG 1.1//EN"
 "http://www.w3.org/Graphics/SVG/1.1/DTD/svg11.dtd">
<!-- Generated by graphviz version 8.0.5 (20230430.1635)
 -->
<!-- Title: sss::WebClient::UploadFile Pages: 1 -->
<svg width="454pt" height="193pt"
 viewBox="0.00 0.00 454.25 193.25" xmlns="http://www.w3.org/2000/svg" xmlns:xlink="http://www.w3.org/1999/xlink">
<g id="graph0" class="graph" transform="scale(1 1) rotate(0) translate(4 189.25)">
<title>sss::WebClient::UploadFile</title>
<!-- Node1 -->
<g id="node1" class="node">
<title>Node1</title>
<g id="a_node1"><a xlink:title="Upload file.">
<polygon fill="#999999" stroke="#666666" points="135.25,-93.25 0,-93.25 0,-74 135.25,-74 135.25,-93.25"/>
<text text-anchor="middle" x="67.62" y="-79.75" font-family="Helvetica,sans-Serif" font-size="10.00">sss::WebClient::UploadFile</text>
</a>
</g>
</g>
<!-- Node2 -->
<g id="node2" class="node">
<title>Node2</title>
<g id="a_node2"><a xlink:href="classsss_1_1WebClient.html#a93d66d3941f37ec425bcdf0eef3836e4" target="_top" xlink:title=" ">
<polygon fill="white" stroke="#666666" points="317.75,-185.25 189.25,-185.25 189.25,-166 317.75,-166 317.75,-185.25"/>
<text text-anchor="middle" x="253.5" y="-171.75" font-family="Helvetica,sans-Serif" font-size="10.00">sss::WebClient::ErrorMsg</text>
</a>
</g>
</g>
<!-- Node1&#45;&gt;Node2 -->
<g id="edge1" class="edge">
<title>Node1&#45;&gt;Node2</title>
<path fill="none" stroke="#63b8ff" d="M79.37,-93.71C97.09,-109.76 134.17,-141 171.25,-157.62 175.07,-159.34 179.07,-160.89 183.15,-162.31"/>
<polygon fill="#63b8ff" stroke="#63b8ff" points="181.85,-165.88 192.44,-165.53 183.94,-159.2 181.85,-165.88"/>
</g>
<!-- Node3 -->
<g id="node3" class="node">
<title>Node3</title>
<g id="a_node3"><a xlink:href="lib_2include_2utility_8h.html#a7466aaf7905509bbeff80785a67d4859" target="_top" xlink:title=" ">
<polygon fill="white" stroke="#666666" points="290,-130.25 217,-130.25 217,-111 290,-111 290,-130.25"/>
<text text-anchor="middle" x="253.5" y="-116.75" font-family="Helvetica,sans-Serif" font-size="10.00">sss::FileSize</text>
</a>
</g>
</g>
<!-- Node1&#45;&gt;Node3 -->
<g id="edge2" class="edge">
<title>Node1&#45;&gt;Node3</title>
<path fill="none" stroke="#63b8ff" d="M118.87,-93.74C146.07,-99.21 179.44,-105.92 206.03,-111.27"/>
<polygon fill="#63b8ff" stroke="#63b8ff" points="205.1,-114.86 215.6,-113.4 206.48,-108 205.1,-114.86"/>
</g>
<!-- Node4 -->
<g id="node4" class="node">
<title>Node4</title>
<g id="a_node4"><a xlink:href="classsss_1_1WebClient.html#aa1d7484f0e09242ce53b24f9648ce50e" target="_top" xlink:title=" ">
<polygon fill="white" stroke="#666666" points="309.12,-93.25 197.88,-93.25 197.88,-74 309.12,-74 309.12,-93.25"/>
<text text-anchor="middle" x="253.5" y="-79.75" font-family="Helvetica,sans-Serif" font-size="10.00">sss::WebClient::Send</text>
</a>
</g>
</g>
<!-- Node1&#45;&gt;Node4 -->
<g id="edge4" class="edge">
<title>Node1&#45;&gt;Node4</title>
<path fill="none" stroke="#63b8ff" d="M135.53,-83.62C152.21,-83.62 170.07,-83.62 186.7,-83.62"/>
<polygon fill="#63b8ff" stroke="#63b8ff" points="186.42,-87.13 196.42,-83.62 186.42,-80.13 186.42,-87.13"/>
</g>
<!-- Node5 -->
<g id="node5" class="node">
<title>Node5</title>
<g id="a_node5"><a xlink:href="classsss_1_1WebClient.html#af6233ffd7b294e1e7e606e838dd44e9e" target="_top" xlink:title=" ">
<polygon fill="white" stroke="#666666" points="321.5,-56.25 185.5,-56.25 185.5,-37 321.5,-37 321.5,-56.25"/>
<text text-anchor="middle" x="253.5" y="-42.75" font-family="Helvetica,sans-Serif" font-size="10.00">sss::WebClient::SetMethod</text>
</a>
</g>
</g>
<!-- Node1&#45;&gt;Node5 -->
<g id="edge5" class="edge">
<title>Node1&#45;&gt;Node5</title>
<path fill="none" stroke="#63b8ff" d="M118.87,-73.51C141.37,-68.99 168.09,-63.61 191.71,-58.86"/>
<polygon fill="#63b8ff" stroke="#63b8ff" points="192.2,-62.13 201.32,-56.72 190.82,-55.26 192.2,-62.13"/>
</g>
<!-- Node7 -->
<g id="node7" class="node">
<title>Node7</title>
<g id="a_node7"><a xlink:href="classsss_1_1WebClient.html#a88dbcc61562e84aa9ebf1eabf887ac28" target="_top" xlink:title=" ">
<polygon fill="white" stroke="#666666" points="335.75,-19.25 171.25,-19.25 171.25,0 335.75,0 335.75,-19.25"/>
<text text-anchor="middle" x="253.5" y="-5.75" font-family="Helvetica,sans-Serif" font-size="10.00">sss::WebClient::SetReadFunction</text>
</a>
</g>
</g>
<!-- Node1&#45;&gt;Node7 -->
<g id="edge8" class="edge">
<title>Node1&#45;&gt;Node7</title>
<path fill="none" stroke="#63b8ff" d="M83.62,-73.67C103.06,-61.19 138.37,-39.95 171.25,-27.62 176.28,-25.74 181.56,-24.02 186.91,-22.46"/>
<polygon fill="#63b8ff" stroke="#63b8ff" points="187.52,-25.65 196.26,-19.66 185.69,-18.9 187.52,-25.65"/>
</g>
<!-- Node3&#45;&gt;Node3 -->
<g id="edge3" class="edge">
<title>Node3&#45;&gt;Node3</title>
<path fill="none" stroke="#63b8ff" d="M229.16,-130.54C218.05,-139.15 226.17,-148.25 253.5,-148.25 269.73,-148.25 279.18,-145.04 281.86,-140.63"/>
<polygon fill="#63b8ff" stroke="#63b8ff" points="284.79,-139.53 277.84,-131.54 278.29,-142.12 284.79,-139.53"/>
</g>
<!-- Node6 -->
<g id="node6" class="node">
<title>Node6</title>
<g id="a_node6"><a xlink:href="lib_2include_2utility_8h.html#ae153c064d6f1beda845702f67605b20e" target="_top" xlink:title=" ">
<polygon fill="white" stroke="#666666" points="446.25,-56.25 371.75,-56.25 371.75,-37 446.25,-37 446.25,-56.25"/>
<text text-anchor="middle" x="409" y="-42.75" font-family="Helvetica,sans-Serif" font-size="10.00">sss::ToUpper</text>
</a>
</g>
</g>
<!-- Node5&#45;&gt;Node6 -->
<g id="edge6" class="edge">
<title>Node5&#45;&gt;Node6</title>
<path fill="none" stroke="#63b8ff" d="M321.83,-46.62C334.9,-46.62 348.35,-46.62 360.61,-46.62"/>
<polygon fill="#63b8ff" stroke="#63b8ff" points="360.5,-50.13 370.5,-46.62 360.5,-43.13 360.5,-50.13"/>
</g>
<!-- Node6&#45;&gt;Node6 -->
<g id="edge7" class="edge">
<title>Node6&#45;&gt;Node6</title>
<path fill="none" stroke="#63b8ff" d="M384.66,-56.54C373.55,-65.15 381.67,-74.25 409,-74.25 425.23,-74.25 434.68,-71.04 437.36,-66.63"/>
<polygon fill="#63b8ff" stroke="#63b8ff" points="440.29,-65.53 433.34,-57.54 433.79,-68.12 440.29,-65.53"/>
</g>
</g>
</svg>
