<?xml version="1.0" encoding="UTF-8" standalone="no"?>
<!DOCTYPE svg PUBLIC "-//W3C//DTD SVG 1.1//EN"
 "http://www.w3.org/Graphics/SVG/1.1/DTD/svg11.dtd">
<!-- Generated by graphviz version 8.0.5 (20230430.1635)
 -->
<!-- Title: /Users/ugovaretto/projects/s3client/lib/include/common.h Pages: 1 -->
<svg width="611pt" height="416pt"
 viewBox="0.00 0.00 611.00 416.00" xmlns="http://www.w3.org/2000/svg" xmlns:xlink="http://www.w3.org/1999/xlink">
<g id="graph0" class="graph" transform="scale(1 1) rotate(0) translate(4 412)">
<title>/Users/ugovaretto/projects/s3client/lib/include/common.h</title>
<!-- Node1 -->
<g id="node1" class="node">
<title>Node1</title>
<g id="a_node1"><a xlink:title="Common definitions.">
<polygon fill="#999999" stroke="#666666" points="364.38,-408 216.38,-408 216.38,-377.5 364.38,-377.5 364.38,-408"/>
<text text-anchor="start" x="224.38" y="-394.5" font-family="Helvetica,sans-Serif" font-size="10.00">/Users/ugovaretto/projects</text>
<text text-anchor="middle" x="290.38" y="-383.25" font-family="Helvetica,sans-Serif" font-size="10.00">/s3client/lib/include/common.h</text>
</a>
</g>
</g>
<!-- Node2 -->
<g id="node2" class="node">
<title>Node2</title>
<g id="a_node2"><a xlink:href="aws__sign_8h.html" target="_top" xlink:title="Public interface to signing URLs and HTTP headers with the S3v4 protocol standard.">
<polygon fill="white" stroke="#666666" points="243.25,-263.75 91.5,-263.75 91.5,-233.25 243.25,-233.25 243.25,-263.75"/>
<text text-anchor="start" x="99.5" y="-250.25" font-family="Helvetica,sans-Serif" font-size="10.00">/Users/ugovaretto/projects</text>
<text text-anchor="middle" x="167.38" y="-239" font-family="Helvetica,sans-Serif" font-size="10.00">/s3client/lib/include/aws_sign.h</text>
</a>
</g>
</g>
<!-- Node1&#45;&gt;Node2 -->
<g id="edge1" class="edge">
<title>Node1&#45;&gt;Node2</title>
<path fill="none" stroke="#63b8ff" d="M270.68,-368.97C245.1,-339.39 201.21,-288.63 179.82,-263.9"/>
<polygon fill="#63b8ff" stroke="#63b8ff" points="268.49,-370.79 277.68,-376.06 273.78,-366.21 268.49,-370.79"/>
</g>
<!-- Node5 -->
<g id="node5" class="node">
<title>Node5</title>
<g id="a_node5"><a xlink:href="s3-client_8h.html" target="_top" xlink:title="declaration of functions and data types for sending S3 requests, signing URLs and downloading and upl...">
<polygon fill="white" stroke="#666666" points="293.12,-197.25 161.62,-197.25 161.62,-155.5 293.12,-155.5 293.12,-197.25"/>
<text text-anchor="start" x="169.62" y="-183.75" font-family="Helvetica,sans-Serif" font-size="10.00">/Users/ugovaretto/projects</text>
<text text-anchor="start" x="169.62" y="-172.5" font-family="Helvetica,sans-Serif" font-size="10.00">/s3client/lib/include/s3</text>
<text text-anchor="middle" x="227.38" y="-161.25" font-family="Helvetica,sans-Serif" font-size="10.00">&#45;client.h</text>
</a>
</g>
</g>
<!-- Node1&#45;&gt;Node5 -->
<g id="edge11" class="edge">
<title>Node1&#45;&gt;Node5</title>
<path fill="none" stroke="#63b8ff" d="M285.84,-366.58C279.8,-334.97 268.04,-279.3 252.38,-233.25 248.27,-221.18 242.52,-208.15 237.57,-197.71"/>
<polygon fill="#63b8ff" stroke="#63b8ff" points="282.52,-366.88 287.8,-376.07 289.4,-365.6 282.52,-366.88"/>
</g>
<!-- Node9 -->
<g id="node9" class="node">
<title>Node9</title>
<g id="a_node9"><a xlink:href="response__parser_8h.html" target="_top" xlink:title="Functions to parse XML and HTTP headers.">
<polygon fill="white" stroke="#666666" points="144.38,-341.5 2.38,-341.5 2.38,-299.75 144.38,-299.75 144.38,-341.5"/>
<text text-anchor="start" x="10.38" y="-328" font-family="Helvetica,sans-Serif" font-size="10.00">/Users/ugovaretto/projects</text>
<text text-anchor="start" x="10.38" y="-316.75" font-family="Helvetica,sans-Serif" font-size="10.00">/s3client/lib/include/response</text>
<text text-anchor="middle" x="73.38" y="-305.5" font-family="Helvetica,sans-Serif" font-size="10.00">_parser.h</text>
</a>
</g>
</g>
<!-- Node1&#45;&gt;Node9 -->
<g id="edge9" class="edge">
<title>Node1&#45;&gt;Node9</title>
<path fill="none" stroke="#63b8ff" d="M234.56,-373.71C204.45,-363.98 167.19,-351.94 136.09,-341.89"/>
<polygon fill="#63b8ff" stroke="#63b8ff" points="233.29,-377.3 243.88,-377.05 235.45,-370.64 233.29,-377.3"/>
</g>
<!-- Node10 -->
<g id="node10" class="node">
<title>Node10</title>
<g id="a_node10"><a xlink:href="url__utility_8h.html" target="_top" xlink:title="Internal utility functions to process and parse text and URLs and create S3 signature keys.">
<polygon fill="white" stroke="#666666" points="469.12,-341.5 337.62,-341.5 337.62,-299.75 469.12,-299.75 469.12,-341.5"/>
<text text-anchor="start" x="345.62" y="-328" font-family="Helvetica,sans-Serif" font-size="10.00">/Users/ugovaretto/projects</text>
<text text-anchor="start" x="345.62" y="-316.75" font-family="Helvetica,sans-Serif" font-size="10.00">/s3client/lib/include/url</text>
<text text-anchor="middle" x="403.38" y="-305.5" font-family="Helvetica,sans-Serif" font-size="10.00">_utility.h</text>
</a>
</g>
</g>
<!-- Node1&#45;&gt;Node10 -->
<g id="edge12" class="edge">
<title>Node1&#45;&gt;Node10</title>
<path fill="none" stroke="#63b8ff" d="M322.99,-371.51C337.98,-362.21 355.72,-351.2 370.72,-341.89"/>
<polygon fill="#63b8ff" stroke="#63b8ff" points="321.71,-368.8 315.06,-377.05 325.41,-374.75 321.71,-368.8"/>
</g>
<!-- Node11 -->
<g id="node11" class="node">
<title>Node11</title>
<g id="a_node11"><a xlink:href="webclient_8h.html" target="_top" xlink:title="declaration of WebClient class wrapping libcurl to send web requests.">
<polygon fill="white" stroke="#666666" points="451.25,-263.75 299.5,-263.75 299.5,-233.25 451.25,-233.25 451.25,-263.75"/>
<text text-anchor="start" x="307.5" y="-250.25" font-family="Helvetica,sans-Serif" font-size="10.00">/Users/ugovaretto/projects</text>
<text text-anchor="middle" x="375.38" y="-239" font-family="Helvetica,sans-Serif" font-size="10.00">/s3client/lib/include/webclient.h</text>
</a>
</g>
</g>
<!-- Node1&#45;&gt;Node11 -->
<g id="edge20" class="edge">
<title>Node1&#45;&gt;Node11</title>
<path fill="none" stroke="#63b8ff" d="M297.9,-366.92C304.36,-347.7 314.77,-320.89 328.38,-299.75 336.91,-286.49 349.14,-273.55 358.98,-264.12"/>
<polygon fill="#63b8ff" stroke="#63b8ff" points="294.31,-365.67 294.56,-376.26 300.97,-367.82 294.31,-365.67"/>
</g>
<!-- Node12 -->
<g id="node12" class="node">
<title>Node12</title>
<g id="a_node12"><a xlink:href="webclient_8cpp.html" target="_top" xlink:title="implementation of WebClient class, wrapper around libcurl">
<polygon fill="white" stroke="#666666" points="455.88,-191.62 310.88,-191.62 310.88,-161.12 455.88,-161.12 455.88,-191.62"/>
<text text-anchor="start" x="318.88" y="-178.12" font-family="Helvetica,sans-Serif" font-size="10.00">/Users/ugovaretto/projects</text>
<text text-anchor="middle" x="383.38" y="-166.88" font-family="Helvetica,sans-Serif" font-size="10.00">/s3client/lib/src/webclient.cpp</text>
</a>
</g>
</g>
<!-- Node1&#45;&gt;Node12 -->
<g id="edge21" class="edge">
<title>Node1&#45;&gt;Node12</title>
<path fill="none" stroke="#63b8ff" d="M375.5,-379.3C418.92,-371.02 465.31,-358.52 478.38,-341.5 508.08,-302.82 488.06,-273.4 460.38,-233.25 448.28,-215.71 428.82,-201.66 412.49,-192.03"/>
<polygon fill="#63b8ff" stroke="#63b8ff" points="375.04,-376.01 365.84,-381.26 376.3,-382.89 375.04,-376.01"/>
</g>
<!-- Node3 -->
<g id="node3" class="node">
<title>Node3</title>
<g id="a_node3"><a xlink:href="s3-api_8h.html" target="_top" xlink:title="declarations of S3Client class;">
<polygon fill="white" stroke="#666666" points="136.75,-113.88 0,-113.88 0,-83.38 136.75,-83.38 136.75,-113.88"/>
<text text-anchor="start" x="8" y="-100.38" font-family="Helvetica,sans-Serif" font-size="10.00">/Users/ugovaretto/projects</text>
<text text-anchor="middle" x="68.38" y="-89.12" font-family="Helvetica,sans-Serif" font-size="10.00">/s3client/lib/include/s3&#45;api.h</text>
</a>
</g>
</g>
<!-- Node2&#45;&gt;Node3 -->
<g id="edge2" class="edge">
<title>Node2&#45;&gt;Node3</title>
<path fill="none" stroke="#63b8ff" d="M143.84,-225.57C135.54,-217.17 126.51,-207.21 119.38,-197.25 99.77,-169.9 83.01,-134.01 74.46,-114.25"/>
<polygon fill="#63b8ff" stroke="#63b8ff" points="140.9,-227.57 150.48,-232.09 145.81,-222.58 140.9,-227.57"/>
</g>
<!-- Node2&#45;&gt;Node5 -->
<g id="edge4" class="edge">
<title>Node2&#45;&gt;Node5</title>
<path fill="none" stroke="#63b8ff" d="M186.84,-224.75C194.28,-216.05 202.71,-206.2 209.95,-197.74"/>
<polygon fill="#63b8ff" stroke="#63b8ff" points="183.65,-222.1 179.81,-231.97 188.97,-226.65 183.65,-222.1"/>
</g>
<!-- Node4 -->
<g id="node4" class="node">
<title>Node4</title>
<g id="a_node4"><a xlink:href="bucket-test_8cpp.html" target="_top" xlink:title="bucket tests">
<polygon fill="white" stroke="#666666" points="134.12,-41.75 2.62,-41.75 2.62,0 134.12,0 134.12,-41.75"/>
<text text-anchor="start" x="10.62" y="-28.25" font-family="Helvetica,sans-Serif" font-size="10.00">/Users/ugovaretto/projects</text>
<text text-anchor="start" x="10.62" y="-17" font-family="Helvetica,sans-Serif" font-size="10.00">/s3client/test/api/bucket</text>
<text text-anchor="middle" x="68.38" y="-5.75" font-family="Helvetica,sans-Serif" font-size="10.00">&#45;test.cpp</text>
</a>
</g>
</g>
<!-- Node3&#45;&gt;Node4 -->
<g id="edge3" class="edge">
<title>Node3&#45;&gt;Node4</title>
<path fill="none" stroke="#63b8ff" d="M68.38,-72.28C68.38,-62.48 68.38,-51.42 68.38,-42.16"/>
<polygon fill="#63b8ff" stroke="#63b8ff" points="64.88,-72.02 68.38,-82.02 71.88,-72.02 64.88,-72.02"/>
</g>
<!-- Node5&#45;&gt;Node3 -->
<g id="edge8" class="edge">
<title>Node5&#45;&gt;Node3</title>
<path fill="none" stroke="#63b8ff" d="M174.98,-150.42C149.81,-138.42 120.5,-124.46 99,-114.21"/>
<polygon fill="#63b8ff" stroke="#63b8ff" points="173.23,-153.93 183.77,-155.08 176.24,-147.61 173.23,-153.93"/>
</g>
<!-- Node6 -->
<g id="node6" class="node">
<title>Node6</title>
<g id="a_node6"><a xlink:href="parallel__upload_8cpp.html" target="_top" xlink:title="Parallel upload to S3 service.">
<polygon fill="white" stroke="#666666" points="450.12,-119.5 318.62,-119.5 318.62,-77.75 450.12,-77.75 450.12,-119.5"/>
<text text-anchor="start" x="326.62" y="-106" font-family="Helvetica,sans-Serif" font-size="10.00">/Users/ugovaretto/projects</text>
<text text-anchor="start" x="326.62" y="-94.75" font-family="Helvetica,sans-Serif" font-size="10.00">/s3client/apps/parallel</text>
<text text-anchor="middle" x="384.38" y="-83.5" font-family="Helvetica,sans-Serif" font-size="10.00">_upload.cpp</text>
</a>
</g>
</g>
<!-- Node5&#45;&gt;Node6 -->
<g id="edge5" class="edge">
<title>Node5&#45;&gt;Node6</title>
<path fill="none" stroke="#63b8ff" d="M279.23,-150.36C299.65,-140.5 322.81,-129.33 342.19,-119.98"/>
<polygon fill="#63b8ff" stroke="#63b8ff" points="277.93,-147.58 270.45,-155.08 280.98,-153.88 277.93,-147.58"/>
</g>
<!-- Node7 -->
<g id="node7" class="node">
<title>Node7</title>
<g id="a_node7"><a xlink:href="presign__url_8cpp.html" target="_top" xlink:title="Presign URL.">
<polygon fill="white" stroke="#666666" points="300.25,-113.88 154.5,-113.88 154.5,-83.38 300.25,-83.38 300.25,-113.88"/>
<text text-anchor="start" x="162.5" y="-100.38" font-family="Helvetica,sans-Serif" font-size="10.00">/Users/ugovaretto/projects</text>
<text text-anchor="middle" x="227.38" y="-89.12" font-family="Helvetica,sans-Serif" font-size="10.00">/s3client/apps/presign_url.cpp</text>
</a>
</g>
</g>
<!-- Node5&#45;&gt;Node7 -->
<g id="edge6" class="edge">
<title>Node5&#45;&gt;Node7</title>
<path fill="none" stroke="#63b8ff" d="M227.38,-144.15C227.38,-133.68 227.38,-122.51 227.38,-113.98"/>
<polygon fill="#63b8ff" stroke="#63b8ff" points="223.88,-144.08 227.38,-154.08 230.88,-144.08 223.88,-144.08"/>
</g>
<!-- Node8 -->
<g id="node8" class="node">
<title>Node8</title>
<g id="a_node8"><a xlink:href="apps_2s3-client_8cpp.html" target="_top" xlink:title="Send S3v4&#45;signed requests to S3 andpoint and print raw responses.">
<polygon fill="white" stroke="#666666" points="603,-113.88 467.75,-113.88 467.75,-83.38 603,-83.38 603,-113.88"/>
<text text-anchor="start" x="475.75" y="-100.38" font-family="Helvetica,sans-Serif" font-size="10.00">/Users/ugovaretto/projects</text>
<text text-anchor="middle" x="535.38" y="-89.12" font-family="Helvetica,sans-Serif" font-size="10.00">/s3client/apps/s3&#45;client.cpp</text>
</a>
</g>
</g>
<!-- Node5&#45;&gt;Node8 -->
<g id="edge7" class="edge">
<title>Node5&#45;&gt;Node8</title>
<path fill="none" stroke="#63b8ff" d="M304.22,-155.09C373.67,-138.13 393.11,-135.76 459.38,-119.5 466,-117.88 472.93,-116.13 479.8,-114.37"/>
<polygon fill="#63b8ff" stroke="#63b8ff" points="303.47,-151.91 294.6,-157.7 305.14,-158.71 303.47,-151.91"/>
</g>
<!-- Node9&#45;&gt;Node3 -->
<g id="edge10" class="edge">
<title>Node9&#45;&gt;Node3</title>
<path fill="none" stroke="#63b8ff" d="M72.67,-288.62C71.58,-240.46 69.51,-149.56 68.71,-114.21"/>
<polygon fill="#63b8ff" stroke="#63b8ff" points="69.19,-288.4 72.91,-298.32 76.19,-288.25 69.19,-288.4"/>
</g>
<!-- Node10&#45;&gt;Node2 -->
<g id="edge15" class="edge">
<title>Node10&#45;&gt;Node2</title>
<path fill="none" stroke="#63b8ff" d="M326.83,-296.88C290.75,-286.16 248.75,-273.68 216.92,-264.22"/>
<polygon fill="#63b8ff" stroke="#63b8ff" points="325.74,-300.5 336.32,-300 327.73,-293.79 325.74,-300.5"/>
</g>
<!-- Node10&#45;&gt;Node6 -->
<g id="edge13" class="edge">
<title>Node10&#45;&gt;Node6</title>
<path fill="none" stroke="#63b8ff" d="M439.54,-291.96C447.76,-283.8 455.5,-274.22 460.38,-263.75 480.68,-220.08 487.76,-198.14 465.38,-155.5 457.51,-140.53 443.62,-128.78 429.53,-120"/>
<polygon fill="#63b8ff" stroke="#63b8ff" points="437.54,-288.96 432.58,-298.32 442.29,-294.1 437.54,-288.96"/>
</g>
<!-- Node10&#45;&gt;Node8 -->
<g id="edge14" class="edge">
<title>Node10&#45;&gt;Node8</title>
<path fill="none" stroke="#63b8ff" d="M449.65,-293.12C460.94,-284.9 472.12,-274.99 480.38,-263.75 515.41,-216.03 529.09,-144.56 533.54,-114.15"/>
<polygon fill="#63b8ff" stroke="#63b8ff" points="447.87,-290.79 441.64,-299.35 451.85,-296.55 447.87,-290.79"/>
</g>
<!-- Node10&#45;&gt;Node11 -->
<g id="edge16" class="edge">
<title>Node10&#45;&gt;Node11</title>
<path fill="none" stroke="#63b8ff" d="M391.28,-289.32C387.76,-280.51 384.08,-271.3 381.14,-263.95"/>
<polygon fill="#63b8ff" stroke="#63b8ff" points="388.32,-290.35 395.28,-298.34 394.82,-287.76 388.32,-290.35"/>
</g>
<!-- Node11&#45;&gt;Node3 -->
<g id="edge17" class="edge">
<title>Node11&#45;&gt;Node3</title>
<path fill="none" stroke="#63b8ff" d="M288.42,-234.04C235.99,-224.75 175.08,-211.54 152.38,-197.25 132.36,-184.65 134.69,-173.52 119.38,-155.5 107.13,-141.09 92.52,-125.21 82.09,-114.08"/>
<polygon fill="#63b8ff" stroke="#63b8ff" points="287.67,-237.63 298.13,-235.9 288.87,-230.74 287.67,-237.63"/>
</g>
<!-- Node11&#45;&gt;Node5 -->
<g id="edge18" class="edge">
<title>Node11&#45;&gt;Node5</title>
<path fill="none" stroke="#63b8ff" d="M334.59,-228.17C314.56,-218.68 290.44,-207.25 270.15,-197.64"/>
<polygon fill="#63b8ff" stroke="#63b8ff" points="332.81,-231.68 343.35,-232.8 335.81,-225.35 332.81,-231.68"/>
</g>
<!-- Node11&#45;&gt;Node12 -->
<g id="edge19" class="edge">
<title>Node11&#45;&gt;Node12</title>
<path fill="none" stroke="#63b8ff" d="M378.26,-222.18C379.42,-212 380.72,-200.63 381.72,-191.89"/>
<polygon fill="#63b8ff" stroke="#63b8ff" points="374.69,-221.64 377.03,-231.97 381.64,-222.43 374.69,-221.64"/>
</g>
</g>
</svg>
