<?xml version="1.0" encoding="UTF-8" standalone="no"?>
<!DOCTYPE svg PUBLIC "-//W3C//DTD SVG 1.1//EN"
 "http://www.w3.org/Graphics/SVG/1.1/DTD/svg11.dtd">
<!-- Generated by graphviz version 8.0.5 (20230430.1635)
 -->
<!-- Title: next_div_by Pages: 1 -->
<svg width="422pt" height="98pt"
 viewBox="0.00 0.00 422.25 98.47" xmlns="http://www.w3.org/2000/svg" xmlns:xlink="http://www.w3.org/1999/xlink">
<g id="graph0" class="graph" transform="scale(1 1) rotate(0) translate(4 94.47)">
<title>next_div_by</title>
<!-- Node1 -->
<g id="node1" class="node">
<title>Node1</title>
<g id="a_node1"><a xlink:title="Return next number evenly divisible by specified number.">
<polygon fill="#999999" stroke="#666666" points="414.25,-46.25 345.75,-46.25 345.75,-27 414.25,-27 414.25,-46.25"/>
<text text-anchor="middle" x="380" y="-32.75" font-family="Helvetica,sans-Serif" font-size="10.00">next_div_by</text>
</a>
</g>
</g>
<!-- Node2 -->
<g id="node2" class="node">
<title>Node2</title>
<g id="a_node2"><a xlink:href="group__Hash__Utility.html#ga2343e55717412f96eec191b9fddb7e29" target="_top" xlink:title="Allocate buffer of correct size for computing hash code.">
<polygon fill="white" stroke="#666666" points="309.75,-69.25 236.75,-69.25 236.75,-50 309.75,-50 309.75,-69.25"/>
<text text-anchor="middle" x="273.25" y="-55.75" font-family="Helvetica,sans-Serif" font-size="10.00">alloc_padded</text>
</a>
</g>
</g>
<!-- Node1&#45;&gt;Node2 -->
<g id="edge1" class="edge">
<title>Node1&#45;&gt;Node2</title>
<path fill="none" stroke="#63b8ff" d="M334.71,-46.35C326.49,-48.16 318,-50.02 310.07,-51.76"/>
<polygon fill="#63b8ff" stroke="#63b8ff" points="335.26,-49.59 344.28,-44.03 333.76,-42.76 335.26,-49.59"/>
</g>
<!-- Node4 -->
<g id="node4" class="node">
<title>Node4</title>
<g id="a_node4"><a xlink:href="group__Hash.html#gac7fe13b785f5fd4903af4339ac88fbd3" target="_top" xlink:title="Return SHA256 hash.">
<polygon fill="white" stroke="#666666" points="188.75,-19.25 103.75,-19.25 103.75,0 188.75,0 188.75,-19.25"/>
<text text-anchor="middle" x="146.25" y="-5.75" font-family="Helvetica,sans-Serif" font-size="10.00">sha256::sha256</text>
</a>
</g>
</g>
<!-- Node1&#45;&gt;Node4 -->
<g id="edge7" class="edge">
<title>Node1&#45;&gt;Node4</title>
<path fill="none" stroke="#63b8ff" d="M334.59,-31.45C292.69,-26.57 230.33,-19.3 189.24,-14.52"/>
<polygon fill="#63b8ff" stroke="#63b8ff" points="333.96,-35.02 344.3,-32.7 334.77,-28.07 333.96,-35.02"/>
</g>
<!-- Node3 -->
<g id="node3" class="node">
<title>Node3</title>
<g id="a_node3"><a xlink:href="group__Hash.html#gad5c9477541172455b23067794ea866c0" target="_top" xlink:title="Implement HMAC algorithm.">
<polygon fill="white" stroke="#666666" points="55.75,-65.25 0,-65.25 0,-46 55.75,-46 55.75,-65.25"/>
<text text-anchor="middle" x="27.88" y="-51.75" font-family="Helvetica,sans-Serif" font-size="10.00">hmac256</text>
</a>
</g>
</g>
<!-- Node2&#45;&gt;Node3 -->
<g id="edge2" class="edge">
<title>Node2&#45;&gt;Node3</title>
<path fill="none" stroke="#63b8ff" d="M238.36,-73.5C226.65,-77.62 213.32,-81.57 200.75,-83.62 152.94,-91.44 139.14,-93.7 91.75,-83.62 75.5,-80.17 58.36,-72.21 46.09,-65.66"/>
<polygon fill="#63b8ff" stroke="#63b8ff" points="239.41,-76.47 247.58,-69.72 236.99,-69.9 239.41,-76.47"/>
</g>
<!-- Node2&#45;&gt;Node4 -->
<g id="edge3" class="edge">
<title>Node2&#45;&gt;Node4</title>
<path fill="none" stroke="#63b8ff" d="M237.02,-45.53C216.48,-37.32 191.05,-27.15 172.51,-19.73"/>
<polygon fill="#63b8ff" stroke="#63b8ff" points="235.37,-49.04 245.95,-49.51 237.97,-42.54 235.37,-49.04"/>
</g>
<!-- Node5 -->
<g id="node5" class="node">
<title>Node5</title>
<g id="a_node5"><a xlink:href="group__Hash.html#gaf988f7b1cc0bb03254347581a1b8d959" target="_top" xlink:title="Compute SHA256 hash of chunks of data, using preallocated temporary buffer to store padded data.">
<polygon fill="white" stroke="#666666" points="200.75,-74.25 91.75,-74.25 91.75,-55 200.75,-55 200.75,-74.25"/>
<text text-anchor="middle" x="146.25" y="-60.75" font-family="Helvetica,sans-Serif" font-size="10.00">sha256::sha256_next</text>
</a>
</g>
</g>
<!-- Node2&#45;&gt;Node5 -->
<g id="edge6" class="edge">
<title>Node2&#45;&gt;Node5</title>
<path fill="none" stroke="#63b8ff" d="M225.66,-61.49C217.56,-61.81 209.06,-62.15 200.78,-62.48"/>
<polygon fill="#63b8ff" stroke="#63b8ff" points="225.58,-64.95 235.43,-61.06 225.3,-57.96 225.58,-64.95"/>
</g>
<!-- Node4&#45;&gt;Node3 -->
<g id="edge4" class="edge">
<title>Node4&#45;&gt;Node3</title>
<path fill="none" stroke="#63b8ff" d="M109.65,-23.7C91.78,-30.76 70.56,-39.15 54.35,-45.55"/>
<polygon fill="#63b8ff" stroke="#63b8ff" points="110.7,-26.65 118.71,-19.72 108.12,-20.14 110.7,-26.65"/>
</g>
<!-- Node4&#45;&gt;Node4 -->
<g id="edge5" class="edge">
<title>Node4&#45;&gt;Node4</title>
<path fill="none" stroke="#63b8ff" d="M167.67,-29.98C165.42,-34.21 158.28,-37.25 146.25,-37.25 125.44,-37.25 119.26,-28.15 127.72,-19.54"/>
<polygon fill="#63b8ff" stroke="#63b8ff" points="170.82,-29.24 164.78,-20.54 164.07,-31.11 170.82,-29.24"/>
</g>
</g>
</svg>
