<?xml version="1.0" encoding="UTF-8" standalone="no"?>
<!DOCTYPE svg PUBLIC "-//W3C//DTD SVG 1.1//EN"
 "http://www.w3.org/Graphics/SVG/1.1/DTD/svg11.dtd">
<!-- Generated by graphviz version 8.0.5 (20230430.1635)
 -->
<!-- Title: sha256::to_little Pages: 1 -->
<svg width="306pt" height="57pt"
 viewBox="0.00 0.00 305.75 56.51" xmlns="http://www.w3.org/2000/svg" xmlns:xlink="http://www.w3.org/1999/xlink">
<g id="graph0" class="graph" transform="scale(1 1) rotate(0) translate(4 52.51)">
<title>sha256::to_little</title>
<!-- Node1 -->
<g id="node1" class="node">
<title>Node1</title>
<g id="a_node1"><a xlink:title="Convert hash value to little endian.">
<polygon fill="#999999" stroke="#666666" points="297.75,-47.25 212.75,-47.25 212.75,-28 297.75,-28 297.75,-47.25"/>
<text text-anchor="middle" x="255.25" y="-33.75" font-family="Helvetica,sans-Serif" font-size="10.00">sha256::to_little</text>
</a>
</g>
</g>
<!-- Node2 -->
<g id="node2" class="node">
<title>Node2</title>
<g id="a_node2"><a xlink:href="group__Hash.html#gad5c9477541172455b23067794ea866c0" target="_top" xlink:title="Implement HMAC algorithm.">
<polygon fill="white" stroke="#666666" points="55.75,-47.25 0,-47.25 0,-28 55.75,-28 55.75,-47.25"/>
<text text-anchor="middle" x="27.88" y="-33.75" font-family="Helvetica,sans-Serif" font-size="10.00">hmac256</text>
</a>
</g>
</g>
<!-- Node1&#45;&gt;Node2 -->
<g id="edge1" class="edge">
<title>Node1&#45;&gt;Node2</title>
<path fill="none" stroke="#63b8ff" d="M201.71,-44.56C193.37,-45.42 184.84,-46.16 176.75,-46.62 139.04,-48.81 129.43,-49.31 91.75,-46.62 79.98,-45.79 67.07,-44.08 56.02,-42.37"/>
<polygon fill="#63b8ff" stroke="#63b8ff" points="201.94,-47.94 211.5,-43.37 201.17,-40.98 201.94,-47.94"/>
</g>
<!-- Node3 -->
<g id="node3" class="node">
<title>Node3</title>
<g id="a_node3"><a xlink:href="group__Hash.html#gac7fe13b785f5fd4903af4339ac88fbd3" target="_top" xlink:title="Return SHA256 hash.">
<polygon fill="white" stroke="#666666" points="176.75,-19.25 91.75,-19.25 91.75,0 176.75,0 176.75,-19.25"/>
<text text-anchor="middle" x="134.25" y="-5.75" font-family="Helvetica,sans-Serif" font-size="10.00">sha256::sha256</text>
</a>
</g>
</g>
<!-- Node1&#45;&gt;Node3 -->
<g id="edge2" class="edge">
<title>Node1&#45;&gt;Node3</title>
<path fill="none" stroke="#63b8ff" d="M201.69,-25.26C193.5,-23.33 185.14,-21.36 177.23,-19.5"/>
<polygon fill="#63b8ff" stroke="#63b8ff" points="200.76,-28.87 211.3,-27.75 202.36,-22.06 200.76,-28.87"/>
</g>
<!-- Node3&#45;&gt;Node2 -->
<g id="edge3" class="edge">
<title>Node3&#45;&gt;Node2</title>
<path fill="none" stroke="#63b8ff" d="M85.25,-22.5C75.22,-25.19 64.98,-27.94 56.03,-30.34"/>
<polygon fill="#63b8ff" stroke="#63b8ff" points="85.82,-25.71 94.57,-19.73 84,-18.94 85.82,-25.71"/>
</g>
<!-- Node3&#45;&gt;Node3 -->
<g id="edge4" class="edge">
<title>Node3&#45;&gt;Node3</title>
<path fill="none" stroke="#63b8ff" d="M153.5,-29.98C151.48,-34.21 145.06,-37.25 134.25,-37.25 115.55,-37.25 110,-28.15 117.6,-19.54"/>
<polygon fill="#63b8ff" stroke="#63b8ff" points="156.71,-29.4 150.9,-20.54 149.92,-31.09 156.71,-29.4"/>
</g>
</g>
</svg>
