<?xml version="1.0" encoding="UTF-8" standalone="no"?>
<!DOCTYPE svg PUBLIC "-//W3C//DTD SVG 1.1//EN"
 "http://www.w3.org/Graphics/SVG/1.1/DTD/svg11.dtd">
<!-- Generated by graphviz version 8.0.5 (20230430.1635)
 -->
<!-- Title: sha256::sha256_stream Pages: 1 -->
<svg width="365pt" height="96pt"
 viewBox="0.00 0.00 365.00 96.42" xmlns="http://www.w3.org/2000/svg" xmlns:xlink="http://www.w3.org/1999/xlink">
<g id="graph0" class="graph" transform="scale(1 1) rotate(0) translate(4 92.42)">
<title>sha256::sha256_stream</title>
<!-- Node1 -->
<g id="node1" class="node">
<title>Node1</title>
<g id="a_node1"><a xlink:title="Compute SHA256 hash, updating hash value at every invocation.">
<polygon fill="#999999" stroke="#666666" points="357,-56.25 236.75,-56.25 236.75,-37 357,-37 357,-56.25"/>
<text text-anchor="middle" x="296.88" y="-42.75" font-family="Helvetica,sans-Serif" font-size="10.00">sha256::sha256_stream</text>
</a>
</g>
</g>
<!-- Node2 -->
<g id="node2" class="node">
<title>Node2</title>
<g id="a_node2"><a xlink:href="group__Hash.html#gad5c9477541172455b23067794ea866c0" target="_top" xlink:title="Implement HMAC algorithm.">
<polygon fill="white" stroke="#666666" points="55.75,-84.25 0,-84.25 0,-65 55.75,-65 55.75,-84.25"/>
<text text-anchor="middle" x="27.88" y="-70.75" font-family="Helvetica,sans-Serif" font-size="10.00">hmac256</text>
</a>
</g>
</g>
<!-- Node1&#45;&gt;Node2 -->
<g id="edge1" class="edge">
<title>Node1&#45;&gt;Node2</title>
<path fill="none" stroke="#63b8ff" d="M266.66,-61.25C248.26,-69.63 223.71,-79.32 200.75,-83.62 150.38,-93.08 90.36,-85.82 56.23,-80.01"/>
<polygon fill="#63b8ff" stroke="#63b8ff" points="267.9,-64.06 275.47,-56.64 264.93,-57.73 267.9,-64.06"/>
</g>
<!-- Node3 -->
<g id="node3" class="node">
<title>Node3</title>
<g id="a_node3"><a xlink:href="group__Hash.html#gac7fe13b785f5fd4903af4339ac88fbd3" target="_top" xlink:title="Return SHA256 hash.">
<polygon fill="white" stroke="#666666" points="188.75,-56.25 103.75,-56.25 103.75,-37 188.75,-37 188.75,-56.25"/>
<text text-anchor="middle" x="146.25" y="-42.75" font-family="Helvetica,sans-Serif" font-size="10.00">sha256::sha256</text>
</a>
</g>
</g>
<!-- Node1&#45;&gt;Node3 -->
<g id="edge2" class="edge">
<title>Node1&#45;&gt;Node3</title>
<path fill="none" stroke="#63b8ff" d="M225.41,-46.62C212.97,-46.62 200.37,-46.62 189.04,-46.62"/>
<polygon fill="#63b8ff" stroke="#63b8ff" points="225.28,-50.13 235.28,-46.62 225.28,-43.13 225.28,-50.13"/>
</g>
<!-- Node4 -->
<g id="node4" class="node">
<title>Node4</title>
<g id="a_node4"><a xlink:href="group__Hash.html#gaf988f7b1cc0bb03254347581a1b8d959" target="_top" xlink:title="Compute SHA256 hash of chunks of data, using preallocated temporary buffer to store padded data.">
<polygon fill="white" stroke="#666666" points="200.75,-19.25 91.75,-19.25 91.75,0 200.75,0 200.75,-19.25"/>
<text text-anchor="middle" x="146.25" y="-5.75" font-family="Helvetica,sans-Serif" font-size="10.00">sha256::sha256_next</text>
</a>
</g>
</g>
<!-- Node1&#45;&gt;Node4 -->
<g id="edge5" class="edge">
<title>Node1&#45;&gt;Node4</title>
<path fill="none" stroke="#63b8ff" d="M244.61,-33.86C226.04,-29.24 205.34,-24.09 187.81,-19.72"/>
<polygon fill="#63b8ff" stroke="#63b8ff" points="243.71,-37.5 254.26,-36.51 245.4,-30.7 243.71,-37.5"/>
</g>
<!-- Node3&#45;&gt;Node2 -->
<g id="edge3" class="edge">
<title>Node3&#45;&gt;Node2</title>
<path fill="none" stroke="#63b8ff" d="M93.01,-59.19C80.27,-62.26 67.14,-65.42 56.11,-68.07"/>
<polygon fill="#63b8ff" stroke="#63b8ff" points="93.66,-62.4 102.56,-56.65 92.02,-55.59 93.66,-62.4"/>
</g>
<!-- Node3&#45;&gt;Node3 -->
<g id="edge4" class="edge">
<title>Node3&#45;&gt;Node3</title>
<path fill="none" stroke="#63b8ff" d="M167.67,-66.98C165.42,-71.21 158.28,-74.25 146.25,-74.25 125.44,-74.25 119.26,-65.15 127.72,-56.54"/>
<polygon fill="#63b8ff" stroke="#63b8ff" points="170.82,-66.24 164.78,-57.54 164.07,-68.11 170.82,-66.24"/>
</g>
</g>
</svg>
