<?xml version="1.0" encoding="UTF-8" standalone="no"?>
<!DOCTYPE svg PUBLIC "-//W3C//DTD SVG 1.1//EN"
 "http://www.w3.org/Graphics/SVG/1.1/DTD/svg11.dtd">
<!-- Generated by graphviz version 8.0.5 (20230430.1635)
 -->
<!-- Title: sss::ComputeSignature Pages: 1 -->
<svg width="288pt" height="359pt"
 viewBox="0.00 0.00 288.25 359.25" xmlns="http://www.w3.org/2000/svg" xmlns:xlink="http://www.w3.org/1999/xlink">
<g id="graph0" class="graph" transform="scale(1 1) rotate(0) translate(4 355.25)">
<title>sss::ComputeSignature</title>
<!-- Node1 -->
<g id="node1" class="node">
<title>Node1</title>
<g id="a_node1"><a xlink:title="Compute signature.">
<polygon fill="#999999" stroke="#666666" points="118.75,-203.25 0,-203.25 0,-184 118.75,-184 118.75,-203.25"/>
<text text-anchor="middle" x="59.38" y="-189.75" font-family="Helvetica,sans-Serif" font-size="10.00">sss::ComputeSignature</text>
</a>
</g>
</g>
<!-- Node2 -->
<g id="node2" class="node">
<title>Node2</title>
<g id="a_node2"><a xlink:href="group__Ranges.html#ga0aa7f3b15d2ebf9b597a1b5ba38ae8ac" target="_top" xlink:title="return iterator at start position">
<polygon fill="white" stroke="#666666" points="248,-351.25 187,-351.25 187,-332 248,-332 248,-351.25"/>
<text text-anchor="middle" x="217.5" y="-337.75" font-family="Helvetica,sans-Serif" font-size="10.00">sss::begin</text>
</a>
</g>
</g>
<!-- Node1&#45;&gt;Node2 -->
<g id="edge1" class="edge">
<title>Node1&#45;&gt;Node2</title>
<path fill="none" stroke="#63b8ff" d="M64.72,-203.48C75.92,-227.77 108.22,-290.88 154.75,-323.62 161.22,-328.18 168.83,-331.59 176.46,-334.14"/>
<polygon fill="#63b8ff" stroke="#63b8ff" points="175.2,-337.71 185.77,-337.12 177.14,-330.98 175.2,-337.71"/>
</g>
<!-- Node3 -->
<g id="node3" class="node">
<title>Node3</title>
<g id="a_node3"><a xlink:href="group__Internal.html#ga74c69f25ce04876e114759c0023b2a12" target="_top" xlink:title=" ">
<polygon fill="white" stroke="#666666" points="280.25,-314.25 154.75,-314.25 154.75,-295 280.25,-295 280.25,-314.25"/>
<text text-anchor="middle" x="217.5" y="-300.75" font-family="Helvetica,sans-Serif" font-size="10.00">sss::CreateSignatureKey</text>
</a>
</g>
</g>
<!-- Node1&#45;&gt;Node3 -->
<g id="edge2" class="edge">
<title>Node1&#45;&gt;Node3</title>
<path fill="none" stroke="#63b8ff" d="M67.75,-203.67C82.27,-222.7 116.46,-264.15 154.75,-286.62 156.98,-287.94 159.32,-289.16 161.72,-290.3"/>
<polygon fill="#63b8ff" stroke="#63b8ff" points="160.29,-293.91 170.87,-294.51 162.98,-287.44 160.29,-293.91"/>
</g>
<!-- Node4 -->
<g id="node4" class="node">
<title>Node4</title>
<g id="a_node4"><a xlink:href="group__Ranges.html#ga4f73053571587e79eb3db628f5e6ef99" target="_top" xlink:title="return iterator at end position">
<polygon fill="white" stroke="#666666" points="244.25,-277.25 190.75,-277.25 190.75,-258 244.25,-258 244.25,-277.25"/>
<text text-anchor="middle" x="217.5" y="-263.75" font-family="Helvetica,sans-Serif" font-size="10.00">sss::end</text>
</a>
</g>
</g>
<!-- Node1&#45;&gt;Node4 -->
<g id="edge3" class="edge">
<title>Node1&#45;&gt;Node4</title>
<path fill="none" stroke="#63b8ff" d="M74.48,-203.54C92.42,-215.78 124.69,-236.58 154.75,-249.62 162.74,-253.1 171.6,-256.12 180.06,-258.66"/>
<polygon fill="#63b8ff" stroke="#63b8ff" points="178.88,-262.24 189.45,-261.59 180.78,-255.51 178.88,-262.24"/>
</g>
<!-- Node5 -->
<g id="node5" class="node">
<title>Node5</title>
<g id="a_node5"><a xlink:href="group__Internal.html#ga50353a351a93b1213dc4e5211c767d85" target="_top" xlink:title=" ">
<polygon fill="white" stroke="#666666" points="257.38,-240.25 177.62,-240.25 177.62,-221 257.38,-221 257.38,-240.25"/>
<text text-anchor="middle" x="217.5" y="-226.75" font-family="Helvetica,sans-Serif" font-size="10.00">sss::GetDates</text>
</a>
</g>
</g>
<!-- Node1&#45;&gt;Node5 -->
<g id="edge4" class="edge">
<title>Node1&#45;&gt;Node5</title>
<path fill="none" stroke="#63b8ff" d="M103.04,-203.74C122.8,-208.42 146.39,-214.01 166.94,-218.88"/>
<polygon fill="#63b8ff" stroke="#63b8ff" points="165.83,-222.45 176.37,-221.35 167.44,-215.64 165.83,-222.45"/>
</g>
<!-- Node6 -->
<g id="node6" class="node">
<title>Node6</title>
<g id="a_node6"><a xlink:href="group__Internal.html#ga990dfaae4abc6bf20a28f9772b7bcd16" target="_top" xlink:title="Byte to hex string conversion.">
<polygon fill="white" stroke="#666666" points="245.38,-203.25 189.62,-203.25 189.62,-184 245.38,-184 245.38,-203.25"/>
<text text-anchor="middle" x="217.5" y="-189.75" font-family="Helvetica,sans-Serif" font-size="10.00">sss::Hex</text>
</a>
</g>
</g>
<!-- Node1&#45;&gt;Node6 -->
<g id="edge5" class="edge">
<title>Node1&#45;&gt;Node6</title>
<path fill="none" stroke="#63b8ff" d="M118.95,-193.62C138.92,-193.62 160.71,-193.62 178.62,-193.62"/>
<polygon fill="#63b8ff" stroke="#63b8ff" points="178.49,-197.13 188.49,-193.62 178.49,-190.13 178.49,-197.13"/>
</g>
<!-- Node7 -->
<g id="node7" class="node">
<title>Node7</title>
<g id="a_node7"><a xlink:href="group__Internal.html#ga7160aa316f2c6633467b47588263c690" target="_top" xlink:title=" ">
<polygon fill="white" stroke="#666666" points="259.25,-166.25 175.75,-166.25 175.75,-147 259.25,-147 259.25,-166.25"/>
<text text-anchor="middle" x="217.5" y="-152.75" font-family="Helvetica,sans-Serif" font-size="10.00">sss::ParseURL</text>
</a>
</g>
</g>
<!-- Node1&#45;&gt;Node7 -->
<g id="edge6" class="edge">
<title>Node1&#45;&gt;Node7</title>
<path fill="none" stroke="#63b8ff" d="M103.04,-183.51C122.17,-178.98 144.9,-173.59 164.98,-168.84"/>
<polygon fill="#63b8ff" stroke="#63b8ff" points="165.58,-172.05 174.51,-166.34 163.97,-165.24 165.58,-172.05"/>
</g>
<!-- Node8 -->
<g id="node8" class="node">
<title>Node8</title>
<g id="a_node8"><a xlink:href="lib_2include_2utility_8h.html#ab314781bb3f053ef5325b50f3a1b74f8" target="_top" xlink:title=" ">
<polygon fill="white" stroke="#666666" points="254.75,-111.25 180.25,-111.25 180.25,-92 254.75,-92 254.75,-111.25"/>
<text text-anchor="middle" x="217.5" y="-97.75" font-family="Helvetica,sans-Serif" font-size="10.00">sss::ToLower</text>
</a>
</g>
</g>
<!-- Node1&#45;&gt;Node8 -->
<g id="edge7" class="edge">
<title>Node1&#45;&gt;Node8</title>
<path fill="none" stroke="#63b8ff" d="M77.06,-183.67C95.9,-172.45 127.49,-153.66 154.75,-137.62 166.22,-130.88 178.9,-123.47 189.78,-117.14"/>
<polygon fill="#63b8ff" stroke="#63b8ff" points="191.29,-119.73 198.18,-111.68 187.77,-113.68 191.29,-119.73"/>
</g>
<!-- Node9 -->
<g id="node9" class="node">
<title>Node9</title>
<g id="a_node9"><a xlink:href="lib_2include_2utility_8h.html#ae153c064d6f1beda845702f67605b20e" target="_top" xlink:title=" ">
<polygon fill="white" stroke="#666666" points="254.75,-56.25 180.25,-56.25 180.25,-37 254.75,-37 254.75,-56.25"/>
<text text-anchor="middle" x="217.5" y="-42.75" font-family="Helvetica,sans-Serif" font-size="10.00">sss::ToUpper</text>
</a>
</g>
</g>
<!-- Node1&#45;&gt;Node9 -->
<g id="edge9" class="edge">
<title>Node1&#45;&gt;Node9</title>
<path fill="none" stroke="#63b8ff" d="M67.01,-183.75C81.25,-163.1 116.54,-114.61 154.75,-82.62 164.12,-74.78 175.43,-67.64 185.79,-61.82"/>
<polygon fill="#63b8ff" stroke="#63b8ff" points="187.2,-64.5 194.34,-56.68 183.87,-58.34 187.2,-64.5"/>
</g>
<!-- Node10 -->
<g id="node10" class="node">
<title>Node10</title>
<g id="a_node10"><a xlink:href="group__Internal.html#ga0f079ace8729714b3949eabe22f228c9" target="_top" xlink:title=" ">
<polygon fill="white" stroke="#666666" points="259.25,-19.25 175.75,-19.25 175.75,0 259.25,0 259.25,-19.25"/>
<text text-anchor="middle" x="217.5" y="-5.75" font-family="Helvetica,sans-Serif" font-size="10.00">sss::UrlEncode</text>
</a>
</g>
</g>
<!-- Node1&#45;&gt;Node10 -->
<g id="edge11" class="edge">
<title>Node1&#45;&gt;Node10</title>
<path fill="none" stroke="#63b8ff" d="M63.13,-183.65C71.61,-154.84 100.13,-70.79 154.75,-27.62 158.06,-25.01 161.73,-22.78 165.59,-20.87"/>
<polygon fill="#63b8ff" stroke="#63b8ff" points="166.58,-23.83 174.47,-16.76 163.89,-17.37 166.58,-23.83"/>
</g>
<!-- Node8&#45;&gt;Node8 -->
<g id="edge8" class="edge">
<title>Node8&#45;&gt;Node8</title>
<path fill="none" stroke="#63b8ff" d="M192.74,-111.54C181.45,-120.15 189.7,-129.25 217.5,-129.25 234,-129.25 243.62,-126.04 246.34,-121.63"/>
<polygon fill="#63b8ff" stroke="#63b8ff" points="249.25,-120.49 242.26,-112.54 242.76,-123.12 249.25,-120.49"/>
</g>
<!-- Node9&#45;&gt;Node9 -->
<g id="edge10" class="edge">
<title>Node9&#45;&gt;Node9</title>
<path fill="none" stroke="#63b8ff" d="M192.74,-56.54C181.45,-65.15 189.7,-74.25 217.5,-74.25 234,-74.25 243.62,-71.04 246.34,-66.63"/>
<polygon fill="#63b8ff" stroke="#63b8ff" points="249.25,-65.49 242.26,-57.54 242.76,-68.12 249.25,-65.49"/>
</g>
</g>
</svg>
