<?xml version="1.0" encoding="UTF-8" standalone="no"?>
<!DOCTYPE svg PUBLIC "-//W3C//DTD SVG 1.1//EN"
 "http://www.w3.org/Graphics/SVG/1.1/DTD/svg11.dtd">
<!-- Generated by graphviz version 8.0.5 (20230430.1635)
 -->
<!-- Title: hmac256 Pages: 1 -->
<svg width="458pt" height="177pt"
 viewBox="0.00 0.00 458.25 177.25" xmlns="http://www.w3.org/2000/svg" xmlns:xlink="http://www.w3.org/1999/xlink">
<g id="graph0" class="graph" transform="scale(1 1) rotate(0) translate(4 173.25)">
<title>hmac256</title>
<!-- Node1 -->
<g id="node1" class="node">
<title>Node1</title>
<g id="a_node1"><a xlink:title="Implement HMAC algorithm.">
<polygon fill="#999999" stroke="#666666" points="55.75,-94.25 0,-94.25 0,-75 55.75,-75 55.75,-94.25"/>
<text text-anchor="middle" x="27.88" y="-80.75" font-family="Helvetica,sans-Serif" font-size="10.00">hmac256</text>
</a>
</g>
</g>
<!-- Node2 -->
<g id="node2" class="node">
<title>Node2</title>
<g id="a_node2"><a xlink:href="group__Hash__Utility.html#ga2343e55717412f96eec191b9fddb7e29" target="_top" xlink:title="Allocate buffer of correct size for computing hash code.">
<polygon fill="white" stroke="#666666" points="309.38,-169.25 236.38,-169.25 236.38,-150 309.38,-150 309.38,-169.25"/>
<text text-anchor="middle" x="272.88" y="-155.75" font-family="Helvetica,sans-Serif" font-size="10.00">alloc_padded</text>
</a>
</g>
</g>
<!-- Node1&#45;&gt;Node2 -->
<g id="edge1" class="edge">
<title>Node1&#45;&gt;Node2</title>
<path fill="none" stroke="#63b8ff" d="M36.61,-94.37C47.43,-107.2 68.39,-129.34 91.75,-139.62 134.34,-158.37 187.84,-162.13 225.43,-161.97"/>
<polygon fill="#63b8ff" stroke="#63b8ff" points="225.12,-165.46 235.07,-161.81 225.02,-158.46 225.12,-165.46"/>
</g>
<!-- Node5 -->
<g id="node5" class="node">
<title>Node5</title>
<g id="a_node5"><a xlink:href="group__Hash.html#gac47f6dba748c8b9093b1b2dff14a0be3" target="_top" xlink:title="Initialize SHA256 hash.">
<polygon fill="white" stroke="#666666" points="319.12,-132.25 226.62,-132.25 226.62,-113 319.12,-113 319.12,-132.25"/>
<text text-anchor="middle" x="272.88" y="-118.75" font-family="Helvetica,sans-Serif" font-size="10.00">sha256::init_hash</text>
</a>
</g>
</g>
<!-- Node1&#45;&gt;Node5 -->
<g id="edge4" class="edge">
<title>Node1&#45;&gt;Node5</title>
<path fill="none" stroke="#63b8ff" d="M40.98,-94.4C53.03,-103.46 72.46,-116.31 91.75,-121.62 132.05,-132.72 179.38,-132.5 215.4,-129.76"/>
<polygon fill="#63b8ff" stroke="#63b8ff" points="215.53,-133.18 225.2,-128.84 214.94,-126.2 215.53,-133.18"/>
</g>
<!-- Node6 -->
<g id="node6" class="node">
<title>Node6</title>
<g id="a_node6"><a xlink:href="group__Hash.html#gac7fe13b785f5fd4903af4339ac88fbd3" target="_top" xlink:title="Return SHA256 hash.">
<polygon fill="white" stroke="#666666" points="176.75,-94.25 91.75,-94.25 91.75,-75 176.75,-75 176.75,-94.25"/>
<text text-anchor="middle" x="134.25" y="-80.75" font-family="Helvetica,sans-Serif" font-size="10.00">sha256::sha256</text>
</a>
</g>
</g>
<!-- Node1&#45;&gt;Node6 -->
<g id="edge5" class="edge">
<title>Node1&#45;&gt;Node6</title>
<path fill="none" stroke="#63b8ff" d="M56.03,-84.62C63.5,-84.62 71.88,-84.62 80.28,-84.62"/>
<polygon fill="#63b8ff" stroke="#63b8ff" points="80.26,-88.13 90.26,-84.62 80.26,-81.13 80.26,-88.13"/>
</g>
<!-- Node7 -->
<g id="node7" class="node">
<title>Node7</title>
<g id="a_node7"><a xlink:href="group__Hash.html#ga21b0412f8de5402ca9424fb129f51d5f" target="_top" xlink:title="Compute SHA256 hash, updating hash value at every invocation.">
<polygon fill="white" stroke="#666666" points="333,-56.25 212.75,-56.25 212.75,-37 333,-37 333,-56.25"/>
<text text-anchor="middle" x="272.88" y="-42.75" font-family="Helvetica,sans-Serif" font-size="10.00">sha256::sha256_stream</text>
</a>
</g>
</g>
<!-- Node1&#45;&gt;Node7 -->
<g id="edge15" class="edge">
<title>Node1&#45;&gt;Node7</title>
<path fill="none" stroke="#63b8ff" d="M56.13,-75.16C67.09,-71.69 79.9,-68.02 91.75,-65.62 127.77,-58.35 168.43,-53.76 202,-50.92"/>
<polygon fill="#63b8ff" stroke="#63b8ff" points="201.95,-54.35 211.63,-50.05 201.38,-47.37 201.95,-54.35"/>
</g>
<!-- Node10 -->
<g id="node10" class="node">
<title>Node10</title>
<g id="a_node10"><a xlink:href="group__Hash.html#ga3175ec2f1104e9fd94349074ddc9d7d1" target="_top" xlink:title="Convert hash value to little endian.">
<polygon fill="white" stroke="#666666" points="315.38,-19.25 230.38,-19.25 230.38,0 315.38,0 315.38,-19.25"/>
<text text-anchor="middle" x="272.88" y="-5.75" font-family="Helvetica,sans-Serif" font-size="10.00">sha256::to_little</text>
</a>
</g>
</g>
<!-- Node1&#45;&gt;Node10 -->
<g id="edge16" class="edge">
<title>Node1&#45;&gt;Node10</title>
<path fill="none" stroke="#63b8ff" d="M43.23,-74.7C55.58,-66.59 74.14,-55.39 91.75,-48.62 133.35,-32.65 182.99,-22.52 219.61,-16.6"/>
<polygon fill="#63b8ff" stroke="#63b8ff" points="219.72,-19.96 229.06,-14.96 218.64,-13.05 219.72,-19.96"/>
</g>
<!-- Node3 -->
<g id="node3" class="node">
<title>Node3</title>
<g id="a_node3"><a xlink:href="group__Hash__Utility.html#ga2f56d7c5d4d0a61f36bdafd0abd32191" target="_top" xlink:title="Return next number evenly divisible by specified number.">
<polygon fill="white" stroke="#666666" points="443.88,-131.25 375.38,-131.25 375.38,-112 443.88,-112 443.88,-131.25"/>
<text text-anchor="middle" x="409.62" y="-117.75" font-family="Helvetica,sans-Serif" font-size="10.00">next_div_by</text>
</a>
</g>
</g>
<!-- Node2&#45;&gt;Node3 -->
<g id="edge2" class="edge">
<title>Node2&#45;&gt;Node3</title>
<path fill="none" stroke="#63b8ff" d="M309.63,-149.54C326.5,-144.78 346.78,-139.06 364.59,-134.04"/>
<polygon fill="#63b8ff" stroke="#63b8ff" points="365.35,-137.18 374.02,-131.1 363.45,-130.45 365.35,-137.18"/>
</g>
<!-- Node4 -->
<g id="node4" class="node">
<title>Node4</title>
<g id="a_node4"><a xlink:href="group__Hash__Utility.html#gac77df34e18fbd8a9ae82a50cf65d6cf4" target="_top" xlink:title="Convert number from little endian to big endian.">
<polygon fill="white" stroke="#666666" points="447.62,-169.25 371.62,-169.25 371.62,-150 447.62,-150 447.62,-169.25"/>
<text text-anchor="middle" x="409.62" y="-155.75" font-family="Helvetica,sans-Serif" font-size="10.00">to_big_endian</text>
</a>
</g>
</g>
<!-- Node2&#45;&gt;Node4 -->
<g id="edge3" class="edge">
<title>Node2&#45;&gt;Node4</title>
<path fill="none" stroke="#63b8ff" d="M309.63,-159.62C325.24,-159.62 343.77,-159.62 360.56,-159.62"/>
<polygon fill="#63b8ff" stroke="#63b8ff" points="360.29,-163.13 370.29,-159.62 360.29,-156.13 360.29,-163.13"/>
</g>
<!-- Node6&#45;&gt;Node2 -->
<g id="edge6" class="edge">
<title>Node6&#45;&gt;Node2</title>
<path fill="none" stroke="#63b8ff" d="M146.01,-94.41C160.3,-106.95 186.77,-128.6 212.75,-141.62 216.96,-143.74 221.47,-145.66 226.05,-147.38"/>
<polygon fill="#63b8ff" stroke="#63b8ff" points="224.51,-150.9 235.1,-150.86 226.8,-144.28 224.51,-150.9"/>
</g>
<!-- Node6&#45;&gt;Node3 -->
<g id="edge8" class="edge">
<title>Node6&#45;&gt;Node3</title>
<path fill="none" stroke="#63b8ff" d="M177.13,-86.97C217.31,-89.61 279.58,-94.75 333,-103.62 343.28,-105.33 354.23,-107.65 364.52,-110.05"/>
<polygon fill="#63b8ff" stroke="#63b8ff" points="363.4,-113.62 373.95,-112.56 365.04,-106.81 363.4,-113.62"/>
</g>
<!-- Node6&#45;&gt;Node5 -->
<g id="edge7" class="edge">
<title>Node6&#45;&gt;Node5</title>
<path fill="none" stroke="#63b8ff" d="M171.5,-94.71C188.16,-99.34 208.1,-104.89 225.8,-109.81"/>
<polygon fill="#63b8ff" stroke="#63b8ff" points="224.35,-113.32 234.93,-112.63 226.23,-106.57 224.35,-113.32"/>
</g>
<!-- Node6&#45;&gt;Node6 -->
<g id="edge9" class="edge">
<title>Node6&#45;&gt;Node6</title>
<path fill="none" stroke="#63b8ff" d="M117.6,-94.54C110,-103.15 115.55,-112.25 134.25,-112.25 145.06,-112.25 151.48,-109.21 153.5,-104.98"/>
<polygon fill="#63b8ff" stroke="#63b8ff" points="156.71,-104.4 150.9,-95.54 149.92,-106.09 156.71,-104.4"/>
</g>
<!-- Node6&#45;&gt;Node7 -->
<g id="edge10" class="edge">
<title>Node6&#45;&gt;Node7</title>
<path fill="none" stroke="#63b8ff" d="M171.5,-74.54C188.16,-69.91 208.1,-64.36 225.8,-59.44"/>
<polygon fill="#63b8ff" stroke="#63b8ff" points="226.23,-62.68 234.93,-56.62 224.35,-55.93 226.23,-62.68"/>
</g>
<!-- Node6&#45;&gt;Node10 -->
<g id="edge13" class="edge">
<title>Node6&#45;&gt;Node10</title>
<path fill="none" stroke="#63b8ff" d="M146.01,-74.84C160.3,-62.3 186.77,-40.65 212.75,-27.62 215.68,-26.16 218.75,-24.78 221.88,-23.5"/>
<polygon fill="#63b8ff" stroke="#63b8ff" points="222.88,-26.49 231.03,-19.72 220.44,-19.93 222.88,-26.49"/>
</g>
<!-- Node8 -->
<g id="node8" class="node">
<title>Node8</title>
<g id="a_node8"><a xlink:href="group__Hash__Utility.html#ga78ae03271cd4536e0d22219cf9ce294a" target="_top" xlink:title="Left shift of unsigned 8 bit int and conversion to 32 bit.">
<polygon fill="white" stroke="#666666" points="428.12,-56.25 391.12,-56.25 391.12,-37 428.12,-37 428.12,-56.25"/>
<text text-anchor="middle" x="409.62" y="-42.75" font-family="Helvetica,sans-Serif" font-size="10.00">lshift</text>
</a>
</g>
</g>
<!-- Node7&#45;&gt;Node8 -->
<g id="edge11" class="edge">
<title>Node7&#45;&gt;Node8</title>
<path fill="none" stroke="#63b8ff" d="M333.37,-46.62C349.67,-46.62 366.6,-46.62 380.26,-46.62"/>
<polygon fill="#63b8ff" stroke="#63b8ff" points="379.89,-50.13 389.89,-46.62 379.89,-43.13 379.89,-50.13"/>
</g>
<!-- Node9 -->
<g id="node9" class="node">
<title>Node9</title>
<g id="a_node9"><a xlink:href="group__Hash__Utility.html#gaec0ea9d7fd1557b10a283c3b3b474889" target="_top" xlink:title="Right rotate bits of 32 bit integer numbers.">
<polygon fill="white" stroke="#666666" points="442,-93.25 377.25,-93.25 377.25,-74 442,-74 442,-93.25"/>
<text text-anchor="middle" x="409.62" y="-79.75" font-family="Helvetica,sans-Serif" font-size="10.00">right_rotate</text>
</a>
</g>
</g>
<!-- Node7&#45;&gt;Node9 -->
<g id="edge12" class="edge">
<title>Node7&#45;&gt;Node9</title>
<path fill="none" stroke="#63b8ff" d="M310.7,-56.74C327.94,-61.47 348.58,-67.14 366.45,-72.04"/>
<polygon fill="#63b8ff" stroke="#63b8ff" points="365.31,-75.64 375.88,-74.91 367.17,-68.89 365.31,-75.64"/>
</g>
<!-- Node11 -->
<g id="node11" class="node">
<title>Node11</title>
<g id="a_node11"><a xlink:href="group__Hash__Utility.html#gaaea301b59a68d5bb6ea05216b80fa47c" target="_top" xlink:title="Convert from big endian to little endian.">
<polygon fill="white" stroke="#666666" points="450.25,-19.25 369,-19.25 369,0 450.25,0 450.25,-19.25"/>
<text text-anchor="middle" x="409.62" y="-5.75" font-family="Helvetica,sans-Serif" font-size="10.00">to_little_endian</text>
</a>
</g>
</g>
<!-- Node10&#45;&gt;Node11 -->
<g id="edge14" class="edge">
<title>Node10&#45;&gt;Node11</title>
<path fill="none" stroke="#63b8ff" d="M315.77,-9.62C329.06,-9.62 343.9,-9.62 357.75,-9.62"/>
<polygon fill="#63b8ff" stroke="#63b8ff" points="357.6,-13.13 367.6,-9.62 357.6,-6.13 357.6,-13.13"/>
</g>
</g>
</svg>
