<?xml version="1.0" encoding="UTF-8" standalone="no"?>
<!DOCTYPE svg PUBLIC "-//W3C//DTD SVG 1.1//EN"
 "http://www.w3.org/Graphics/SVG/1.1/DTD/svg11.dtd">
<!-- Generated by graphviz version 8.0.5 (20230430.1635)
 -->
<!-- Title: sha256::sha256_stream Pages: 1 -->
<svg width="229pt" height="64pt"
 viewBox="0.00 0.00 229.00 64.25" xmlns="http://www.w3.org/2000/svg" xmlns:xlink="http://www.w3.org/1999/xlink">
<g id="graph0" class="graph" transform="scale(1 1) rotate(0) translate(4 60.25)">
<title>sha256::sha256_stream</title>
<!-- Node1 -->
<g id="node1" class="node">
<title>Node1</title>
<g id="a_node1"><a xlink:title="Compute SHA256 hash, updating hash value at every invocation.">
<polygon fill="#999999" stroke="#666666" points="120.25,-37.25 0,-37.25 0,-18 120.25,-18 120.25,-37.25"/>
<text text-anchor="middle" x="60.12" y="-23.75" font-family="Helvetica,sans-Serif" font-size="10.00">sha256::sha256_stream</text>
</a>
</g>
</g>
<!-- Node2 -->
<g id="node2" class="node">
<title>Node2</title>
<g id="a_node2"><a xlink:href="group__Hash__Utility.html#ga78ae03271cd4536e0d22219cf9ce294a" target="_top" xlink:title="Left shift of unsigned 8 bit int and conversion to 32 bit.">
<polygon fill="white" stroke="#666666" points="207.12,-56.25 170.12,-56.25 170.12,-37 207.12,-37 207.12,-56.25"/>
<text text-anchor="middle" x="188.62" y="-42.75" font-family="Helvetica,sans-Serif" font-size="10.00">lshift</text>
</a>
</g>
</g>
<!-- Node1&#45;&gt;Node2 -->
<g id="edge1" class="edge">
<title>Node1&#45;&gt;Node2</title>
<path fill="none" stroke="#63b8ff" d="M120.67,-36.57C134.13,-38.59 147.81,-40.64 159.27,-42.37"/>
<polygon fill="#63b8ff" stroke="#63b8ff" points="158.49,-45.94 168.89,-43.96 159.52,-39.02 158.49,-45.94"/>
</g>
<!-- Node3 -->
<g id="node3" class="node">
<title>Node3</title>
<g id="a_node3"><a xlink:href="group__Hash__Utility.html#gaec0ea9d7fd1557b10a283c3b3b474889" target="_top" xlink:title="Right rotate bits of 32 bit integer numbers.">
<polygon fill="white" stroke="#666666" points="221,-19.25 156.25,-19.25 156.25,0 221,0 221,-19.25"/>
<text text-anchor="middle" x="188.62" y="-5.75" font-family="Helvetica,sans-Serif" font-size="10.00">right_rotate</text>
</a>
</g>
</g>
<!-- Node1&#45;&gt;Node3 -->
<g id="edge2" class="edge">
<title>Node1&#45;&gt;Node3</title>
<path fill="none" stroke="#63b8ff" d="M120.67,-19.15C128.95,-17.97 137.31,-16.78 145.18,-15.66"/>
<polygon fill="#63b8ff" stroke="#63b8ff" points="145.53,-19.01 154.94,-14.13 144.54,-12.08 145.53,-19.01"/>
</g>
</g>
</svg>
