<?xml version="1.0" encoding="UTF-8" standalone="no"?>
<!DOCTYPE svg PUBLIC "-//W3C//DTD SVG 1.1//EN"
 "http://www.w3.org/Graphics/SVG/1.1/DTD/svg11.dtd">
<!-- Generated by graphviz version 8.0.5 (20230430.1635)
 -->
<!-- Title: /Users/ugovaretto/projects/s3client/lib/include/utility.h Pages: 1 -->
<svg width="298pt" height="94pt"
 viewBox="0.00 0.00 298.25 93.75" xmlns="http://www.w3.org/2000/svg" xmlns:xlink="http://www.w3.org/1999/xlink">
<g id="graph0" class="graph" transform="scale(1 1) rotate(0) translate(4 89.75)">
<title>/Users/ugovaretto/projects/s3client/lib/include/utility.h</title>
<!-- Node1 -->
<g id="node1" class="node">
<title>Node1</title>
<g id="a_node1"><a xlink:title="internal utility functions">
<polygon fill="#999999" stroke="#666666" points="202,-85.75 69.75,-85.75 69.75,-55.25 202,-55.25 202,-85.75"/>
<text text-anchor="start" x="77.75" y="-72.25" font-family="Helvetica,sans-Serif" font-size="10.00">/Users/ugovaretto/projects</text>
<text text-anchor="middle" x="135.88" y="-61" font-family="Helvetica,sans-Serif" font-size="10.00">/s3client/lib/include/utility.h</text>
</a>
</g>
</g>
<!-- Node2 -->
<g id="node2" class="node">
<title>Node2</title>
<g id="a_node2"><a xlink:title=" ">
<polygon fill="#e0e0e0" stroke="#999999" points="55.75,-19.25 0,-19.25 0,0 55.75,0 55.75,-19.25"/>
<text text-anchor="middle" x="27.88" y="-5.75" font-family="Helvetica,sans-Serif" font-size="10.00">algorithm</text>
</a>
</g>
</g>
<!-- Node1&#45;&gt;Node2 -->
<g id="edge1" class="edge">
<title>Node1&#45;&gt;Node2</title>
<path fill="none" stroke="#63b8ff" d="M108.9,-54.8C92.14,-45.66 70.69,-33.97 54.07,-24.91"/>
<polygon fill="#63b8ff" stroke="#63b8ff" points="55.89,-21.37 45.44,-19.65 52.54,-27.51 55.89,-21.37"/>
</g>
<!-- Node3 -->
<g id="node3" class="node">
<title>Node3</title>
<g id="a_node3"><a xlink:title=" ">
<polygon fill="#e0e0e0" stroke="#999999" points="131.88,-19.25 73.88,-19.25 73.88,0 131.88,0 131.88,-19.25"/>
<text text-anchor="middle" x="102.88" y="-5.75" font-family="Helvetica,sans-Serif" font-size="10.00">functional</text>
</a>
</g>
</g>
<!-- Node1&#45;&gt;Node3 -->
<g id="edge2" class="edge">
<title>Node1&#45;&gt;Node3</title>
<path fill="none" stroke="#63b8ff" d="M127.72,-54.95C123.37,-47.19 117.97,-37.56 113.32,-29.26"/>
<polygon fill="#63b8ff" stroke="#63b8ff" points="115.9,-27.71 107.96,-20.7 109.8,-31.14 115.9,-27.71"/>
</g>
<!-- Node4 -->
<g id="node4" class="node">
<title>Node4</title>
<g id="a_node4"><a xlink:title=" ">
<polygon fill="#e0e0e0" stroke="#999999" points="189.88,-19.25 149.88,-19.25 149.88,0 189.88,0 189.88,-19.25"/>
<text text-anchor="middle" x="169.88" y="-5.75" font-family="Helvetica,sans-Serif" font-size="10.00">string</text>
</a>
</g>
</g>
<!-- Node1&#45;&gt;Node4 -->
<g id="edge3" class="edge">
<title>Node1&#45;&gt;Node4</title>
<path fill="none" stroke="#63b8ff" d="M144.28,-54.95C148.81,-47.1 154.44,-37.35 159.27,-28.99"/>
<polygon fill="#63b8ff" stroke="#63b8ff" points="162.66,-31.11 164.63,-20.7 156.6,-27.61 162.66,-31.11"/>
</g>
<!-- Node5 -->
<g id="node5" class="node">
<title>Node5</title>
<g id="a_node5"><a xlink:title=" ">
<polygon fill="#e0e0e0" stroke="#999999" points="290.25,-19.25 207.5,-19.25 207.5,0 290.25,0 290.25,-19.25"/>
<text text-anchor="middle" x="248.88" y="-5.75" font-family="Helvetica,sans-Serif" font-size="10.00">unordered_map</text>
</a>
</g>
</g>
<!-- Node1&#45;&gt;Node5 -->
<g id="edge4" class="edge">
<title>Node1&#45;&gt;Node5</title>
<path fill="none" stroke="#63b8ff" d="M164.1,-54.8C181.8,-45.57 204.5,-33.75 221.95,-24.65"/>
<polygon fill="#63b8ff" stroke="#63b8ff" points="223.29,-27.38 230.55,-19.65 220.06,-21.17 223.29,-27.38"/>
</g>
</g>
</svg>
