<?xml version="1.0" encoding="UTF-8" standalone="no"?>
<!DOCTYPE svg PUBLIC "-//W3C//DTD SVG 1.1//EN"
 "http://www.w3.org/Graphics/SVG/1.1/DTD/svg11.dtd">
<!-- Generated by graphviz version 8.0.5 (20230430.1635)
 -->
<!-- Title: /Users/ugovaretto/projects/s3client/lib/hash/utility.cpp Pages: 1 -->
<svg width="217pt" height="149pt"
 viewBox="0.00 0.00 217.25 149.00" xmlns="http://www.w3.org/2000/svg" xmlns:xlink="http://www.w3.org/1999/xlink">
<g id="graph0" class="graph" transform="scale(1 1) rotate(0) translate(4 145)">
<title>/Users/ugovaretto/projects/s3client/lib/hash/utility.cpp</title>
<!-- Node1 -->
<g id="node1" class="node">
<title>Node1</title>
<g id="a_node1"><a xlink:title="Implementation of SHA256 utility functions.">
<polygon fill="#999999" stroke="#666666" points="176.12,-141 43.12,-141 43.12,-110.5 176.12,-110.5 176.12,-141"/>
<text text-anchor="start" x="51.12" y="-127.5" font-family="Helvetica,sans-Serif" font-size="10.00">/Users/ugovaretto/projects</text>
<text text-anchor="middle" x="109.62" y="-116.25" font-family="Helvetica,sans-Serif" font-size="10.00">/s3client/lib/hash/utility.cpp</text>
</a>
</g>
</g>
<!-- Node2 -->
<g id="node2" class="node">
<title>Node2</title>
<g id="a_node2"><a xlink:href="lib_2hash_2utility_8h.html" target="_top" xlink:title="Declaration of utility functions for SHA256 hashing.">
<polygon fill="white" stroke="#666666" points="107.62,-74.5 61.62,-74.5 61.62,-55.25 107.62,-55.25 107.62,-74.5"/>
<text text-anchor="middle" x="84.62" y="-61" font-family="Helvetica,sans-Serif" font-size="10.00">utility.h</text>
</a>
</g>
</g>
<!-- Node1&#45;&gt;Node2 -->
<g id="edge1" class="edge">
<title>Node1&#45;&gt;Node2</title>
<path fill="none" stroke="#63b8ff" d="M103.45,-110.2C100.22,-102.61 96.24,-93.24 92.77,-85.07"/>
<polygon fill="#63b8ff" stroke="#63b8ff" points="95.61,-83.79 88.48,-75.95 89.17,-86.52 95.61,-83.79"/>
</g>
<!-- Node3 -->
<g id="node3" class="node">
<title>Node3</title>
<g id="a_node3"><a xlink:title=" ">
<polygon fill="#e0e0e0" stroke="#999999" points="45.25,-19.25 0,-19.25 0,0 45.25,0 45.25,-19.25"/>
<text text-anchor="middle" x="22.62" y="-5.75" font-family="Helvetica,sans-Serif" font-size="10.00">cstdint</text>
</a>
</g>
</g>
<!-- Node1&#45;&gt;Node3 -->
<g id="edge5" class="edge">
<title>Node1&#45;&gt;Node3</title>
<path fill="none" stroke="#63b8ff" d="M89.27,-110.18C77.46,-100.96 62.92,-88.22 52.62,-74.5 42.29,-60.72 34.25,-42.8 29.11,-29.46"/>
<polygon fill="#63b8ff" stroke="#63b8ff" points="32.2,-28.7 25.49,-20.51 25.62,-31.1 32.2,-28.7"/>
</g>
<!-- Node5 -->
<g id="node5" class="node">
<title>Node5</title>
<g id="a_node5"><a xlink:title=" ">
<polygon fill="#e0e0e0" stroke="#999999" points="167.88,-19.25 123.38,-19.25 123.38,0 167.88,0 167.88,-19.25"/>
<text text-anchor="middle" x="145.62" y="-5.75" font-family="Helvetica,sans-Serif" font-size="10.00">cstdlib</text>
</a>
</g>
</g>
<!-- Node1&#45;&gt;Node5 -->
<g id="edge6" class="edge">
<title>Node1&#45;&gt;Node5</title>
<path fill="none" stroke="#63b8ff" d="M114.18,-110.3C120.6,-89.97 132.3,-52.88 139.47,-30.12"/>
<polygon fill="#63b8ff" stroke="#63b8ff" points="143.09,-31.29 142.76,-20.7 136.42,-29.18 143.09,-31.29"/>
</g>
<!-- Node6 -->
<g id="node6" class="node">
<title>Node6</title>
<g id="a_node6"><a xlink:title=" ">
<polygon fill="#e0e0e0" stroke="#999999" points="209.25,-74.5 164,-74.5 164,-55.25 209.25,-55.25 209.25,-74.5"/>
<text text-anchor="middle" x="186.62" y="-61" font-family="Helvetica,sans-Serif" font-size="10.00">cstring</text>
</a>
</g>
</g>
<!-- Node1&#45;&gt;Node6 -->
<g id="edge7" class="edge">
<title>Node1&#45;&gt;Node6</title>
<path fill="none" stroke="#63b8ff" d="M128.66,-110.2C140.04,-101.49 154.51,-90.43 166.15,-81.53"/>
<polygon fill="#63b8ff" stroke="#63b8ff" points="167.94,-83.81 173.75,-74.95 163.68,-78.24 167.94,-83.81"/>
</g>
<!-- Node2&#45;&gt;Node3 -->
<g id="edge2" class="edge">
<title>Node2&#45;&gt;Node3</title>
<path fill="none" stroke="#63b8ff" d="M74.11,-54.84C65.15,-47.15 52.05,-35.9 41.31,-26.68"/>
<polygon fill="#63b8ff" stroke="#63b8ff" points="43.85,-23.39 33.99,-19.52 39.29,-28.7 43.85,-23.39"/>
</g>
<!-- Node4 -->
<g id="node4" class="node">
<title>Node4</title>
<g id="a_node4"><a xlink:title=" ">
<polygon fill="#e0e0e0" stroke="#999999" points="105.75,-19.25 63.5,-19.25 63.5,0 105.75,0 105.75,-19.25"/>
<text text-anchor="middle" x="84.62" y="-5.75" font-family="Helvetica,sans-Serif" font-size="10.00">cstdio</text>
</a>
</g>
</g>
<!-- Node2&#45;&gt;Node4 -->
<g id="edge3" class="edge">
<title>Node2&#45;&gt;Node4</title>
<path fill="none" stroke="#63b8ff" d="M84.62,-55.08C84.62,-48.42 84.62,-38.99 84.62,-30.53"/>
<polygon fill="#63b8ff" stroke="#63b8ff" points="88.13,-30.61 84.62,-20.61 81.13,-30.61 88.13,-30.61"/>
</g>
<!-- Node2&#45;&gt;Node5 -->
<g id="edge4" class="edge">
<title>Node2&#45;&gt;Node5</title>
<path fill="none" stroke="#63b8ff" d="M94.97,-54.84C103.79,-47.15 116.67,-35.9 127.24,-26.68"/>
<polygon fill="#63b8ff" stroke="#63b8ff" points="129.2,-28.74 134.43,-19.52 124.59,-23.46 129.2,-28.74"/>
</g>
</g>
</svg>
