<?xml version="1.0" encoding="UTF-8" standalone="no"?>
<!DOCTYPE svg PUBLIC "-//W3C//DTD SVG 1.1//EN"
 "http://www.w3.org/Graphics/SVG/1.1/DTD/svg11.dtd">
<!-- Generated by graphviz version 8.0.5 (20230430.1635)
 -->
<!-- Title: /Users/ugovaretto/projects/s3client/lib/hash/utility.h Pages: 1 -->
<svg width="590pt" height="172pt"
 viewBox="0.00 0.00 590.25 171.50" xmlns="http://www.w3.org/2000/svg" xmlns:xlink="http://www.w3.org/1999/xlink">
<g id="graph0" class="graph" transform="scale(1 1) rotate(0) translate(4 167.5)">
<title>/Users/ugovaretto/projects/s3client/lib/hash/utility.h</title>
<!-- Node1 -->
<g id="node1" class="node">
<title>Node1</title>
<g id="a_node1"><a xlink:title="Declaration of utility functions for SHA256 hashing.">
<polygon fill="#999999" stroke="#666666" points="345.5,-163.5 214,-163.5 214,-133 345.5,-133 345.5,-163.5"/>
<text text-anchor="start" x="222" y="-150" font-family="Helvetica,sans-Serif" font-size="10.00">/Users/ugovaretto/projects</text>
<text text-anchor="middle" x="279.75" y="-138.75" font-family="Helvetica,sans-Serif" font-size="10.00">/s3client/lib/hash/utility.h</text>
</a>
</g>
</g>
<!-- Node2 -->
<g id="node2" class="node">
<title>Node2</title>
<g id="a_node2"><a xlink:href="hmac256_8cpp.html" target="_top" xlink:title="implementation of HMAC hashing algorithm.">
<polygon fill="white" stroke="#666666" points="314.25,-30.5 163.25,-30.5 163.25,0 314.25,0 314.25,-30.5"/>
<text text-anchor="start" x="171.25" y="-17" font-family="Helvetica,sans-Serif" font-size="10.00">/Users/ugovaretto/projects</text>
<text text-anchor="middle" x="238.75" y="-5.75" font-family="Helvetica,sans-Serif" font-size="10.00">/s3client/lib/hash/hmac256.cpp</text>
</a>
</g>
</g>
<!-- Node1&#45;&gt;Node2 -->
<g id="edge1" class="edge">
<title>Node1&#45;&gt;Node2</title>
<path fill="none" stroke="#63b8ff" d="M264.19,-123.33C259.54,-115.25 254.87,-105.99 251.75,-97 244.02,-74.73 240.85,-47.39 239.58,-30.92"/>
<polygon fill="#63b8ff" stroke="#63b8ff" points="261.56,-124.75 269.72,-131.5 267.55,-121.13 261.56,-124.75"/>
</g>
<!-- Node3 -->
<g id="node3" class="node">
<title>Node3</title>
<g id="a_node3"><a xlink:href="md5_8cpp.html" target="_top" xlink:title="Implementation of MD5 algorithm,.">
<polygon fill="white" stroke="#666666" points="131.5,-30.5 0,-30.5 0,0 131.5,0 131.5,-30.5"/>
<text text-anchor="start" x="8" y="-17" font-family="Helvetica,sans-Serif" font-size="10.00">/Users/ugovaretto/projects</text>
<text text-anchor="middle" x="65.75" y="-5.75" font-family="Helvetica,sans-Serif" font-size="10.00">/s3client/lib/hash/md5.cpp</text>
</a>
</g>
</g>
<!-- Node1&#45;&gt;Node3 -->
<g id="edge2" class="edge">
<title>Node1&#45;&gt;Node3</title>
<path fill="none" stroke="#63b8ff" d="M202.75,-139.41C147.95,-132.05 81.09,-118.84 63.75,-97 48.84,-78.22 54.74,-48.5 60.3,-30.83"/>
<polygon fill="#63b8ff" stroke="#63b8ff" points="202.17,-142.99 212.53,-140.8 203.06,-136.05 202.17,-142.99"/>
</g>
<!-- Node4 -->
<g id="node4" class="node">
<title>Node4</title>
<g id="a_node4"><a xlink:href="md5_8h.html" target="_top" xlink:title="declaration of MD5 hashing functions.">
<polygon fill="white" stroke="#666666" points="204.5,-97 73,-97 73,-66.5 204.5,-66.5 204.5,-97"/>
<text text-anchor="start" x="81" y="-83.5" font-family="Helvetica,sans-Serif" font-size="10.00">/Users/ugovaretto/projects</text>
<text text-anchor="middle" x="138.75" y="-72.25" font-family="Helvetica,sans-Serif" font-size="10.00">/s3client/lib/hash/md5.h</text>
</a>
</g>
</g>
<!-- Node1&#45;&gt;Node4 -->
<g id="edge3" class="edge">
<title>Node1&#45;&gt;Node4</title>
<path fill="none" stroke="#63b8ff" d="M237.89,-128.1C216.35,-118.25 190.51,-106.43 170.62,-97.33"/>
<polygon fill="#63b8ff" stroke="#63b8ff" points="236.21,-131.64 246.75,-132.61 239.12,-125.27 236.21,-131.64"/>
</g>
<!-- Node5 -->
<g id="node5" class="node">
<title>Node5</title>
<g id="a_node5"><a xlink:href="sha256_8cpp.html" target="_top" xlink:title="Implementation of SHA256 algorithm.">
<polygon fill="white" stroke="#666666" points="486.12,-30.5 343.38,-30.5 343.38,0 486.12,0 486.12,-30.5"/>
<text text-anchor="start" x="351.38" y="-17" font-family="Helvetica,sans-Serif" font-size="10.00">/Users/ugovaretto/projects</text>
<text text-anchor="middle" x="414.75" y="-5.75" font-family="Helvetica,sans-Serif" font-size="10.00">/s3client/lib/hash/sha256.cpp</text>
</a>
</g>
</g>
<!-- Node1&#45;&gt;Node5 -->
<g id="edge5" class="edge">
<title>Node1&#45;&gt;Node5</title>
<path fill="none" stroke="#63b8ff" d="M356.1,-129.55C373.41,-122.15 390.1,-111.71 401.75,-97 416.83,-77.97 417.56,-48.33 416.39,-30.75"/>
<polygon fill="#63b8ff" stroke="#63b8ff" points="354.91,-126.65 346.88,-133.56 357.46,-133.17 354.91,-126.65"/>
</g>
<!-- Node6 -->
<g id="node6" class="node">
<title>Node6</title>
<g id="a_node6"><a xlink:href="sha256_8h.html" target="_top" xlink:title="declaration of SHA256 hash functions.">
<polygon fill="white" stroke="#666666" points="392.88,-97 260.62,-97 260.62,-66.5 392.88,-66.5 392.88,-97"/>
<text text-anchor="start" x="268.62" y="-83.5" font-family="Helvetica,sans-Serif" font-size="10.00">/Users/ugovaretto/projects</text>
<text text-anchor="middle" x="326.75" y="-72.25" font-family="Helvetica,sans-Serif" font-size="10.00">/s3client/lib/hash/sha256.h</text>
</a>
</g>
</g>
<!-- Node1&#45;&gt;Node6 -->
<g id="edge6" class="edge">
<title>Node1&#45;&gt;Node6</title>
<path fill="none" stroke="#63b8ff" d="M296.8,-123.85C303.26,-114.98 310.43,-105.15 316.13,-97.33"/>
<polygon fill="#63b8ff" stroke="#63b8ff" points="293.48,-121.47 290.42,-131.61 299.13,-125.59 293.48,-121.47"/>
</g>
<!-- Node7 -->
<g id="node7" class="node">
<title>Node7</title>
<g id="a_node7"><a xlink:href="lib_2hash_2utility_8cpp.html" target="_top" xlink:title="Implementation of SHA256 utility functions.">
<polygon fill="white" stroke="#666666" points="582.25,-97 449.25,-97 449.25,-66.5 582.25,-66.5 582.25,-97"/>
<text text-anchor="start" x="457.25" y="-83.5" font-family="Helvetica,sans-Serif" font-size="10.00">/Users/ugovaretto/projects</text>
<text text-anchor="middle" x="515.75" y="-72.25" font-family="Helvetica,sans-Serif" font-size="10.00">/s3client/lib/hash/utility.cpp</text>
</a>
</g>
</g>
<!-- Node1&#45;&gt;Node7 -->
<g id="edge9" class="edge">
<title>Node1&#45;&gt;Node7</title>
<path fill="none" stroke="#63b8ff" d="M343.8,-129.75C380.87,-119.61 426.99,-107.01 462.13,-97.4"/>
<polygon fill="#63b8ff" stroke="#63b8ff" points="343.32,-126.52 334.6,-132.53 345.17,-133.27 343.32,-126.52"/>
</g>
<!-- Node4&#45;&gt;Node3 -->
<g id="edge4" class="edge">
<title>Node4&#45;&gt;Node3</title>
<path fill="none" stroke="#63b8ff" d="M114.15,-59.02C103.65,-49.73 91.66,-39.15 82.25,-30.83"/>
<polygon fill="#63b8ff" stroke="#63b8ff" points="111.37,-61.12 121.19,-65.11 116.01,-55.87 111.37,-61.12"/>
</g>
<!-- Node6&#45;&gt;Node2 -->
<g id="edge7" class="edge">
<title>Node6&#45;&gt;Node2</title>
<path fill="none" stroke="#63b8ff" d="M298.22,-59.84C285.3,-50.37 270.33,-39.39 258.64,-30.83"/>
<polygon fill="#63b8ff" stroke="#63b8ff" points="295.65,-63.03 305.78,-66.11 299.79,-57.38 295.65,-63.03"/>
</g>
<!-- Node6&#45;&gt;Node5 -->
<g id="edge8" class="edge">
<title>Node6&#45;&gt;Node5</title>
<path fill="none" stroke="#63b8ff" d="M355.28,-59.84C368.2,-50.37 383.17,-39.39 394.86,-30.83"/>
<polygon fill="#63b8ff" stroke="#63b8ff" points="353.71,-57.38 347.72,-66.11 357.85,-63.03 353.71,-57.38"/>
</g>
</g>
</svg>
