<?xml version="1.0" encoding="UTF-8" standalone="no"?>
<!DOCTYPE svg PUBLIC "-//W3C//DTD SVG 1.1//EN"
 "http://www.w3.org/Graphics/SVG/1.1/DTD/svg11.dtd">
<!-- Generated by graphviz version 8.0.5 (20230430.1635)
 -->
<!-- Title: /Users/ugovaretto/projects/s3client/lib/include/utility.h Pages: 1 -->
<!--zoomable 416 -->
<svg id="main" version="1.1" xmlns="http://www.w3.org/2000/svg" xmlns:xlink="http://www.w3.org/1999/xlink" xml:space="preserve" onload="init(evt)">
<style type="text/css"><![CDATA[
.edge:hover path { stroke: red; }
.edge:hover polygon { stroke: red; fill: red; }
]]></style>
<script type="text/javascript"><![CDATA[
var edges = document.getElementsByTagName('g');
if (edges && edges.length) {
  for (var i=0;i<edges.length;i++) {
    if (edges[i].id.substr(0,4)=='edge') {
      edges[i].setAttribute('class','edge');
    }
  }
}
]]></script>
        <defs>
                <circle id="rim" cx="0" cy="0" r="7"/>
                <circle id="rim2" cx="0" cy="0" r="3.5"/>
                <g id="zoomPlus">
                        <use xlink:href="#rim" fill="#404040">
                                <set attributeName="fill" to="#808080" begin="zoomplus.mouseover" end="zoomplus.mouseout"/>
                        </use>
                        <path d="M-4,0h8M0,-4v8" fill="none" stroke="white" stroke-width="1.5" pointer-events="none"/>
                </g>
                <g id="zoomMin">
                        <use xlink:href="#rim" fill="#404040">
                                <set attributeName="fill" to="#808080" begin="zoomminus.mouseover" end="zoomminus.mouseout"/>
                        </use>
                        <path d="M-4,0h8" fill="none" stroke="white" stroke-width="1.5" pointer-events="none"/>
                </g>
                <g id="dirArrow">
                        <path fill="none" stroke="white" stroke-width="1.5" d="M0,-3.0v7 M-2.5,-0.5L0,-3.0L2.5,-0.5"/>
                </g>
               <g id="resetDef">
                       <use xlink:href="#rim2" fill="#404040">
                               <set attributeName="fill" to="#808080" begin="reset.mouseover" end="reset.mouseout"/>
                       </use>
               </g>
        </defs>

<script type="text/javascript">
var viewWidth = 705;
var viewHeight = 416;
var sectionId = 'dynsection-1';
</script>
<script xlink:href="svgpan.js"/>
<svg id="graph" class="graph">
<g id="viewport">
<title>/Users/ugovaretto/projects/s3client/lib/include/utility.h</title>
<!-- Node1 -->
<g id="node1" class="node">
<title>Node1</title>
<g id="a_node1"><a xlink:title="internal utility functions">
<polygon fill="#999999" stroke="#666666" points="466.75,-408 334.5,-408 334.5,-377.5 466.75,-377.5 466.75,-408"/>
<text text-anchor="start" x="342.5" y="-394.5" font-family="Helvetica,sans-Serif" font-size="10.00">/Users/ugovaretto/projects</text>
<text text-anchor="middle" x="400.62" y="-383.25" font-family="Helvetica,sans-Serif" font-size="10.00">/s3client/lib/include/utility.h</text>
</a>
</g>
</g>
<!-- Node2 -->
<g id="node2" class="node">
<title>Node2</title>
<g id="a_node2"><a xlink:href="url__utility_8h.html" target="_top" xlink:title="Internal utility functions to process and parse text and URLs and create S3 signature keys.">
<polygon fill="white" stroke="#666666" points="419.38,-341.5 287.88,-341.5 287.88,-299.75 419.38,-299.75 419.38,-341.5"/>
<text text-anchor="start" x="295.88" y="-328" font-family="Helvetica,sans-Serif" font-size="10.00">/Users/ugovaretto/projects</text>
<text text-anchor="start" x="295.88" y="-316.75" font-family="Helvetica,sans-Serif" font-size="10.00">/s3client/lib/include/url</text>
<text text-anchor="middle" x="353.62" y="-305.5" font-family="Helvetica,sans-Serif" font-size="10.00">_utility.h</text>
</a>
</g>
</g>
<!-- Node1&#45;&gt;Node2 -->
<g id="edge1" class="edge">
<title>Node1&#45;&gt;Node2</title>
<path fill="none" stroke="#63b8ff" d="M384.83,-368.18C379.14,-359.69 372.77,-350.18 367.27,-341.99"/>
<polygon fill="#63b8ff" stroke="#63b8ff" points="382.41,-369.86 390.89,-376.22 388.23,-365.96 382.41,-369.86"/>
</g>
<!-- Node10 -->
<g id="node10" class="node">
<title>Node10</title>
<g id="a_node10"><a xlink:href="webclient_8h.html" target="_top" xlink:title="declaration of WebClient class wrapping libcurl to send web requests.">
<polygon fill="white" stroke="#666666" points="599.5,-263.75 447.75,-263.75 447.75,-233.25 599.5,-233.25 599.5,-263.75"/>
<text text-anchor="start" x="455.75" y="-250.25" font-family="Helvetica,sans-Serif" font-size="10.00">/Users/ugovaretto/projects</text>
<text text-anchor="middle" x="523.62" y="-239" font-family="Helvetica,sans-Serif" font-size="10.00">/s3client/lib/include/webclient.h</text>
</a>
</g>
</g>
<!-- Node1&#45;&gt;Node10 -->
<g id="edge16" class="edge">
<title>Node1&#45;&gt;Node10</title>
<path fill="none" stroke="#63b8ff" d="M420.32,-368.97C445.9,-339.39 489.79,-288.63 511.18,-263.9"/>
<polygon fill="#63b8ff" stroke="#63b8ff" points="417.22,-366.21 413.32,-376.06 422.51,-370.79 417.22,-366.21"/>
</g>
<!-- Node3 -->
<g id="node3" class="node">
<title>Node3</title>
<g id="a_node3"><a xlink:href="parallel__upload_8cpp.html" target="_top" xlink:title="Parallel upload to S3 service.">
<polygon fill="white" stroke="#666666" points="284.38,-119.5 152.88,-119.5 152.88,-77.75 284.38,-77.75 284.38,-119.5"/>
<text text-anchor="start" x="160.88" y="-106" font-family="Helvetica,sans-Serif" font-size="10.00">/Users/ugovaretto/projects</text>
<text text-anchor="start" x="160.88" y="-94.75" font-family="Helvetica,sans-Serif" font-size="10.00">/s3client/apps/parallel</text>
<text text-anchor="middle" x="218.62" y="-83.5" font-family="Helvetica,sans-Serif" font-size="10.00">_upload.cpp</text>
</a>
</g>
</g>
<!-- Node2&#45;&gt;Node3 -->
<g id="edge2" class="edge">
<title>Node2&#45;&gt;Node3</title>
<path fill="none" stroke="#63b8ff" d="M301.97,-293.84C289.63,-285.65 277.48,-275.58 268.62,-263.75 235.43,-219.39 224.08,-152.85 220.35,-119.78"/>
<polygon fill="#63b8ff" stroke="#63b8ff" points="299.62,-297.12 309.95,-299.47 303.34,-291.19 299.62,-297.12"/>
</g>
<!-- Node4 -->
<g id="node4" class="node">
<title>Node4</title>
<g id="a_node4"><a xlink:href="apps_2s3-client_8cpp.html" target="_top" xlink:title="Send S3v4&#45;signed requests to S3 andpoint and print raw responses.">
<polygon fill="white" stroke="#666666" points="135.25,-113.88 0,-113.88 0,-83.38 135.25,-83.38 135.25,-113.88"/>
<text text-anchor="start" x="8" y="-100.38" font-family="Helvetica,sans-Serif" font-size="10.00">/Users/ugovaretto/projects</text>
<text text-anchor="middle" x="67.62" y="-89.12" font-family="Helvetica,sans-Serif" font-size="10.00">/s3client/apps/s3&#45;client.cpp</text>
</a>
</g>
</g>
<!-- Node2&#45;&gt;Node4 -->
<g id="edge3" class="edge">
<title>Node2&#45;&gt;Node4</title>
<path fill="none" stroke="#63b8ff" d="M299.73,-294.58C282.53,-285.71 263.79,-275.1 247.62,-263.75 179.44,-215.87 109.61,-144.49 81.04,-114.13"/>
<polygon fill="#63b8ff" stroke="#63b8ff" points="297.6,-297.92 308.1,-299.32 300.76,-291.68 297.6,-297.92"/>
</g>
<!-- Node5 -->
<g id="node5" class="node">
<title>Node5</title>
<g id="a_node5"><a xlink:href="aws__sign_8h.html" target="_top" xlink:title="Public interface to signing URLs and HTTP headers with the S3v4 protocol standard.">
<polygon fill="white" stroke="#666666" points="429.5,-263.75 277.75,-263.75 277.75,-233.25 429.5,-233.25 429.5,-263.75"/>
<text text-anchor="start" x="285.75" y="-250.25" font-family="Helvetica,sans-Serif" font-size="10.00">/Users/ugovaretto/projects</text>
<text text-anchor="middle" x="353.62" y="-239" font-family="Helvetica,sans-Serif" font-size="10.00">/s3client/lib/include/aws_sign.h</text>
</a>
</g>
</g>
<!-- Node2&#45;&gt;Node5 -->
<g id="edge4" class="edge">
<title>Node2&#45;&gt;Node5</title>
<path fill="none" stroke="#63b8ff" d="M353.62,-288.46C353.62,-279.92 353.62,-271.06 353.62,-263.95"/>
<polygon fill="#63b8ff" stroke="#63b8ff" points="350.13,-288.34 353.62,-298.34 357.13,-288.34 350.13,-288.34"/>
</g>
<!-- Node2&#45;&gt;Node10 -->
<g id="edge12" class="edge">
<title>Node2&#45;&gt;Node10</title>
<path fill="none" stroke="#63b8ff" d="M412.94,-295.16C437.99,-284.82 466.33,-273.13 488.06,-264.17"/>
<polygon fill="#63b8ff" stroke="#63b8ff" points="411.71,-292.29 403.8,-299.34 414.38,-298.76 411.71,-292.29"/>
</g>
<!-- Node6 -->
<g id="node6" class="node">
<title>Node6</title>
<g id="a_node6"><a xlink:href="s3-api_8h.html" target="_top" xlink:title="declarations of S3Client class;">
<polygon fill="white" stroke="#666666" points="603,-113.88 466.25,-113.88 466.25,-83.38 603,-83.38 603,-113.88"/>
<text text-anchor="start" x="474.25" y="-100.38" font-family="Helvetica,sans-Serif" font-size="10.00">/Users/ugovaretto/projects</text>
<text text-anchor="middle" x="534.62" y="-89.12" font-family="Helvetica,sans-Serif" font-size="10.00">/s3client/lib/include/s3&#45;api.h</text>
</a>
</g>
</g>
<!-- Node5&#45;&gt;Node6 -->
<g id="edge5" class="edge">
<title>Node5&#45;&gt;Node6</title>
<path fill="none" stroke="#63b8ff" d="M391.46,-227.55C406.39,-219 423.35,-208.42 437.62,-197.25 470.93,-171.19 504.55,-134.5 522.13,-114.33"/>
<polygon fill="#63b8ff" stroke="#63b8ff" points="390.01,-224.91 383,-232.86 393.43,-231.02 390.01,-224.91"/>
</g>
<!-- Node8 -->
<g id="node8" class="node">
<title>Node8</title>
<g id="a_node8"><a xlink:href="s3-client_8h.html" target="_top" xlink:title="declaration of functions and data types for sending S3 requests, signing URLs and downloading and upl...">
<polygon fill="white" stroke="#666666" points="428.38,-197.25 296.88,-197.25 296.88,-155.5 428.38,-155.5 428.38,-197.25"/>
<text text-anchor="start" x="304.88" y="-183.75" font-family="Helvetica,sans-Serif" font-size="10.00">/Users/ugovaretto/projects</text>
<text text-anchor="start" x="304.88" y="-172.5" font-family="Helvetica,sans-Serif" font-size="10.00">/s3client/lib/include/s3</text>
<text text-anchor="middle" x="362.62" y="-161.25" font-family="Helvetica,sans-Serif" font-size="10.00">&#45;client.h</text>
</a>
</g>
</g>
<!-- Node5&#45;&gt;Node8 -->
<g id="edge7" class="edge">
<title>Node5&#45;&gt;Node8</title>
<path fill="none" stroke="#63b8ff" d="M356.86,-222.28C357.9,-214.22 359.03,-205.4 360.01,-197.74"/>
<polygon fill="#63b8ff" stroke="#63b8ff" points="353.29,-221.61 355.49,-231.97 360.23,-222.5 353.29,-221.61"/>
</g>
<!-- Node7 -->
<g id="node7" class="node">
<title>Node7</title>
<g id="a_node7"><a xlink:href="bucket-test_8cpp.html" target="_top" xlink:title="bucket tests">
<polygon fill="white" stroke="#666666" points="600.38,-41.75 468.88,-41.75 468.88,0 600.38,0 600.38,-41.75"/>
<text text-anchor="start" x="476.88" y="-28.25" font-family="Helvetica,sans-Serif" font-size="10.00">/Users/ugovaretto/projects</text>
<text text-anchor="start" x="476.88" y="-17" font-family="Helvetica,sans-Serif" font-size="10.00">/s3client/test/api/bucket</text>
<text text-anchor="middle" x="534.62" y="-5.75" font-family="Helvetica,sans-Serif" font-size="10.00">&#45;test.cpp</text>
</a>
</g>
</g>
<!-- Node6&#45;&gt;Node7 -->
<g id="edge6" class="edge">
<title>Node6&#45;&gt;Node7</title>
<path fill="none" stroke="#63b8ff" d="M534.62,-72.28C534.62,-62.48 534.62,-51.42 534.62,-42.16"/>
<polygon fill="#63b8ff" stroke="#63b8ff" points="531.13,-72.02 534.62,-82.02 538.13,-72.02 531.13,-72.02"/>
</g>
<!-- Node8&#45;&gt;Node3 -->
<g id="edge8" class="edge">
<title>Node8&#45;&gt;Node3</title>
<path fill="none" stroke="#63b8ff" d="M314.55,-150.09C295.94,-140.3 274.93,-129.24 257.32,-119.98"/>
<polygon fill="#63b8ff" stroke="#63b8ff" points="312.56,-153.52 323.04,-155.08 315.81,-147.32 312.56,-153.52"/>
</g>
<!-- Node8&#45;&gt;Node4 -->
<g id="edge10" class="edge">
<title>Node8&#45;&gt;Node4</title>
<path fill="none" stroke="#63b8ff" d="M286.03,-155.95C243.97,-145.26 190.91,-131.71 143.62,-119.5 137.15,-117.83 130.38,-116.07 123.65,-114.32"/>
<polygon fill="#63b8ff" stroke="#63b8ff" points="284.92,-159.54 295.47,-158.61 286.64,-152.75 284.92,-159.54"/>
</g>
<!-- Node8&#45;&gt;Node6 -->
<g id="edge11" class="edge">
<title>Node8&#45;&gt;Node6</title>
<path fill="none" stroke="#63b8ff" d="M418.54,-150.75C445.84,-138.72 477.77,-124.66 501.23,-114.33"/>
<polygon fill="#63b8ff" stroke="#63b8ff" points="417.46,-147.84 409.72,-155.08 420.28,-154.25 417.46,-147.84"/>
</g>
<!-- Node9 -->
<g id="node9" class="node">
<title>Node9</title>
<g id="a_node9"><a xlink:href="presign__url_8cpp.html" target="_top" xlink:title="Presign URL.">
<polygon fill="white" stroke="#666666" points="448.5,-113.88 302.75,-113.88 302.75,-83.38 448.5,-83.38 448.5,-113.88"/>
<text text-anchor="start" x="310.75" y="-100.38" font-family="Helvetica,sans-Serif" font-size="10.00">/Users/ugovaretto/projects</text>
<text text-anchor="middle" x="375.62" y="-89.12" font-family="Helvetica,sans-Serif" font-size="10.00">/s3client/apps/presign_url.cpp</text>
</a>
</g>
</g>
<!-- Node8&#45;&gt;Node9 -->
<g id="edge9" class="edge">
<title>Node8&#45;&gt;Node9</title>
<path fill="none" stroke="#63b8ff" d="M367.93,-144.48C369.74,-133.92 371.68,-122.6 373.16,-113.98"/>
<polygon fill="#63b8ff" stroke="#63b8ff" points="364.35,-143.63 366.11,-154.08 371.25,-144.81 364.35,-143.63"/>
</g>
<!-- Node10&#45;&gt;Node6 -->
<g id="edge13" class="edge">
<title>Node10&#45;&gt;Node6</title>
<path fill="none" stroke="#63b8ff" d="M525.53,-221.96C527.84,-190.85 531.67,-139.38 533.53,-114.28"/>
<polygon fill="#63b8ff" stroke="#63b8ff" points="521.97,-221.55 524.72,-231.78 528.95,-222.07 521.97,-221.55"/>
</g>
<!-- Node10&#45;&gt;Node8 -->
<g id="edge14" class="edge">
<title>Node10&#45;&gt;Node8</title>
<path fill="none" stroke="#63b8ff" d="M479.85,-228.43C457.95,-218.89 431.43,-207.34 409.15,-197.64"/>
<polygon fill="#63b8ff" stroke="#63b8ff" points="478.31,-232.02 488.87,-232.8 481.1,-225.6 478.31,-232.02"/>
</g>
<!-- Node11 -->
<g id="node11" class="node">
<title>Node11</title>
<g id="a_node11"><a xlink:href="webclient_8cpp.html" target="_top" xlink:title="implementation of WebClient class, wrapper around libcurl">
<polygon fill="white" stroke="#666666" points="697.12,-191.62 552.12,-191.62 552.12,-161.12 697.12,-161.12 697.12,-191.62"/>
<text text-anchor="start" x="560.12" y="-178.12" font-family="Helvetica,sans-Serif" font-size="10.00">/Users/ugovaretto/projects</text>
<text text-anchor="middle" x="624.62" y="-166.88" font-family="Helvetica,sans-Serif" font-size="10.00">/s3client/lib/src/webclient.cpp</text>
</a>
</g>
</g>
<!-- Node10&#45;&gt;Node11 -->
<g id="edge15" class="edge">
<title>Node10&#45;&gt;Node11</title>
<path fill="none" stroke="#63b8ff" d="M553.15,-227C569.37,-215.74 589.11,-202.04 603.72,-191.89"/>
<polygon fill="#63b8ff" stroke="#63b8ff" points="551.77,-224.39 545.55,-232.97 555.76,-230.14 551.77,-224.39"/>
</g>
</g>
</svg>
        <g id="navigator" transform="translate(0 0)" fill="#404254">
                <rect fill="#f2f5e9" fill-opacity="0.5" stroke="#606060" stroke-width=".5" x="0" y="0" width="60" height="60"/>
                <use id="zoomplus" xlink:href="#zoomPlus" x="17" y="9" onmousedown="handleZoom(evt,'in')"/>
                <use id="zoomminus" xlink:href="#zoomMin" x="42" y="9" onmousedown="handleZoom(evt,'out')"/>
                <use id="reset" xlink:href="#resetDef" x="30" y="36" onmousedown="handleReset()"/>
                <g id="arrowUp" xlink:href="#dirArrow" transform="translate(30 24)" onmousedown="handlePan(0,-1)">
                  <use xlink:href="#rim" fill="#404040">
                        <set attributeName="fill" to="#808080" begin="arrowUp.mouseover" end="arrowUp.mouseout"/>
                  </use>
                  <path fill="none" stroke="white" stroke-width="1.5" d="M0,-3.0v7 M-2.5,-0.5L0,-3.0L2.5,-0.5"/>
                </g>
                <g id="arrowRight" xlink:href="#dirArrow" transform="rotate(90) translate(36 -43)" onmousedown="handlePan(1,0)">
                  <use xlink:href="#rim" fill="#404040">
                        <set attributeName="fill" to="#808080" begin="arrowRight.mouseover" end="arrowRight.mouseout"/>
                  </use>
                  <path fill="none" stroke="white" stroke-width="1.5" d="M0,-3.0v7 M-2.5,-0.5L0,-3.0L2.5,-0.5"/>
                </g>
                <g id="arrowDown" xlink:href="#dirArrow" transform="rotate(180) translate(-30 -48)" onmousedown="handlePan(0,1)">
                  <use xlink:href="#rim" fill="#404040">
                        <set attributeName="fill" to="#808080" begin="arrowDown.mouseover" end="arrowDown.mouseout"/>
                  </use>
                  <path fill="none" stroke="white" stroke-width="1.5" d="M0,-3.0v7 M-2.5,-0.5L0,-3.0L2.5,-0.5"/>
                </g>
                <g id="arrowLeft" xlink:href="#dirArrow" transform="rotate(270) translate(-36 17)" onmousedown="handlePan(-1,0)">
                  <use xlink:href="#rim" fill="#404040">
                        <set attributeName="fill" to="#808080" begin="arrowLeft.mouseover" end="arrowLeft.mouseout"/>
                  </use>
                  <path fill="none" stroke="white" stroke-width="1.5" d="M0,-3.0v7 M-2.5,-0.5L0,-3.0L2.5,-0.5"/>
                </g>
        </g>
        <svg viewBox="0 0 15 15" width="100%" height="30px" preserveAspectRatio="xMaxYMin meet">
         <g id="arrow_out" transform="scale(0.3 0.3)">
          <a xlink:href="lib_2include_2utility_8h__dep__incl_org.svg" target="_base">
           <rect id="button" ry="5" rx="5" y="6" x="6" height="38" width="38"
                fill="#f2f5e9" fill-opacity="0.5" stroke="#606060" stroke-width="1.0"/>
           <path id="arrow"
             d="M 11.500037,31.436501 C 11.940474,20.09759 22.043105,11.32322 32.158766,21.979434 L 37.068811,17.246167 C 37.068811,17.246167 37.088388,32 37.088388,32 L 22.160133,31.978069 C 22.160133,31.978069 26.997745,27.140456 26.997745,27.140456 C 18.528582,18.264221 13.291696,25.230495 11.500037,31.436501 z"
             style="fill:#404040;"/>
          </a>
         </g>
        </svg>
</svg>
