<?xml version="1.0" encoding="UTF-8" standalone="no"?>
<!DOCTYPE svg PUBLIC "-//W3C//DTD SVG 1.1//EN"
 "http://www.w3.org/Graphics/SVG/1.1/DTD/svg11.dtd">
<!-- Generated by graphviz version 8.0.5 (20230430.1635)
 -->
<!-- Title: sss::ToLower Pages: 1 -->
<svg width="521pt" height="140pt"
 viewBox="0.00 0.00 520.50 140.25" xmlns="http://www.w3.org/2000/svg" xmlns:xlink="http://www.w3.org/1999/xlink">
<g id="graph0" class="graph" transform="scale(1 1) rotate(0) translate(4 136.25)">
<title>sss::ToLower</title>
<!-- Node1 -->
<g id="node1" class="node">
<title>Node1</title>
<g id="a_node1"><a xlink:title=" ">
<polygon fill="#999999" stroke="#666666" points="512.5,-75.25 438,-75.25 438,-56 512.5,-56 512.5,-75.25"/>
<text text-anchor="middle" x="475.25" y="-61.75" font-family="Helvetica,sans-Serif" font-size="10.00">sss::ToLower</text>
</a>
</g>
</g>
<!-- Node1&#45;&gt;Node1 -->
<g id="edge7" class="edge">
<title>Node1&#45;&gt;Node1</title>
<path fill="none" stroke="#63b8ff" d="M499.25,-85.98C496.73,-90.21 488.73,-93.25 475.25,-93.25 451.94,-93.25 445.02,-84.15 454.49,-75.54"/>
<polygon fill="#63b8ff" stroke="#63b8ff" points="502.32,-85.05 496.01,-76.54 495.63,-87.13 502.32,-85.05"/>
</g>
<!-- Node2 -->
<g id="node2" class="node">
<title>Node2</title>
<g id="a_node2"><a xlink:href="group__Sign.html#ga904d511ec786b87644cc90dc96dd8f3f" target="_top" xlink:title="Compute signature.">
<polygon fill="white" stroke="#666666" points="402,-132.25 283.25,-132.25 283.25,-113 402,-113 402,-132.25"/>
<text text-anchor="middle" x="342.62" y="-118.75" font-family="Helvetica,sans-Serif" font-size="10.00">sss::ComputeSignature</text>
</a>
</g>
</g>
<!-- Node1&#45;&gt;Node2 -->
<g id="edge1" class="edge">
<title>Node1&#45;&gt;Node2</title>
<path fill="none" stroke="#63b8ff" d="M443.18,-80.13C430.47,-85.99 415.58,-92.74 402,-98.62 391.14,-103.33 379.06,-108.34 368.71,-112.56"/>
<polygon fill="#63b8ff" stroke="#63b8ff" points="444.24,-83.03 451.85,-75.66 441.3,-76.68 444.24,-83.03"/>
</g>
<!-- Node5 -->
<g id="node5" class="node">
<title>Node5</title>
<g id="a_node5"><a xlink:href="group__S3Client.html#ga5a769be8fbc874bad858ea95743e5643" target="_top" xlink:title="Send S3 request to endpoint.">
<polygon fill="white" stroke="#666666" points="113.12,-95.25 4.12,-95.25 4.12,-76 113.12,-76 113.12,-95.25"/>
<text text-anchor="middle" x="58.62" y="-81.75" font-family="Helvetica,sans-Serif" font-size="10.00">sss::SendS3Request</text>
</a>
</g>
</g>
<!-- Node1&#45;&gt;Node5 -->
<g id="edge6" class="edge">
<title>Node1&#45;&gt;Node5</title>
<path fill="none" stroke="#63b8ff" d="M426.93,-67.91C349.28,-71.65 195.29,-79.08 113.54,-83.02"/>
<polygon fill="#63b8ff" stroke="#63b8ff" points="427,-71.36 436.82,-67.38 426.66,-64.37 427,-71.36"/>
</g>
<!-- Node6 -->
<g id="node6" class="node">
<title>Node6</title>
<g id="a_node6"><a xlink:href="bucket-test_8cpp.html#a3c04138a5bfe5d72780bb7e82a18e627" target="_top" xlink:title="Bucket tests.">
<polygon fill="white" stroke="#666666" points="361.12,-56.25 324.12,-56.25 324.12,-37 361.12,-37 361.12,-56.25"/>
<text text-anchor="middle" x="342.62" y="-42.75" font-family="Helvetica,sans-Serif" font-size="10.00">main</text>
</a>
</g>
</g>
<!-- Node1&#45;&gt;Node6 -->
<g id="edge5" class="edge">
<title>Node1&#45;&gt;Node6</title>
<path fill="none" stroke="#63b8ff" d="M426.65,-58.7C403.91,-55.39 378.07,-51.64 361.34,-49.2"/>
<polygon fill="#63b8ff" stroke="#63b8ff" points="426.12,-62.31 436.52,-60.28 427.12,-55.38 426.12,-62.31"/>
</g>
<!-- Node7 -->
<g id="node7" class="node">
<title>Node7</title>
<g id="a_node7"><a xlink:href="group__S3Client.html#gad8bcfb380e91093fec44517e1eddc939" target="_top" xlink:title="Validate S3 client request parameters.">
<polygon fill="white" stroke="#666666" points="378.75,-19.25 306.5,-19.25 306.5,0 378.75,0 378.75,-19.25"/>
<text text-anchor="middle" x="342.62" y="-5.75" font-family="Helvetica,sans-Serif" font-size="10.00">sss::Validate</text>
</a>
</g>
</g>
<!-- Node1&#45;&gt;Node7 -->
<g id="edge8" class="edge">
<title>Node1&#45;&gt;Node7</title>
<path fill="none" stroke="#63b8ff" d="M447.89,-50.25C434.45,-42.8 417.66,-34.09 402,-27.62 394.75,-24.63 386.81,-21.86 379.19,-19.44"/>
<polygon fill="#63b8ff" stroke="#63b8ff" points="446.02,-53.78 456.45,-55.65 449.46,-47.69 446.02,-53.78"/>
</g>
<!-- Node3 -->
<g id="node3" class="node">
<title>Node3</title>
<g id="a_node3"><a xlink:href="group__Sign.html#ga3ae8e18ef70752b7369fca66c40c526b" target="_top" xlink:title="Sign headers.">
<polygon fill="white" stroke="#666666" points="247.25,-132.25 153.25,-132.25 153.25,-113 247.25,-113 247.25,-132.25"/>
<text text-anchor="middle" x="200.25" y="-118.75" font-family="Helvetica,sans-Serif" font-size="10.00">sss::SignHeaders</text>
</a>
</g>
</g>
<!-- Node2&#45;&gt;Node3 -->
<g id="edge2" class="edge">
<title>Node2&#45;&gt;Node3</title>
<path fill="none" stroke="#63b8ff" d="M271.97,-122.62C263.62,-122.62 255.25,-122.62 247.35,-122.62"/>
<polygon fill="#63b8ff" stroke="#63b8ff" points="271.91,-126.13 281.91,-122.62 271.91,-119.13 271.91,-126.13"/>
</g>
<!-- Node4 -->
<g id="node4" class="node">
<title>Node4</title>
<g id="a_node4"><a xlink:href="classsss_1_1api_1_1S3Api.html#a88b3eb551e57106ed171d9079de6afb4" target="_top" xlink:title="[WebClient::Config]">
<polygon fill="white" stroke="#666666" points="117.25,-132.25 0,-132.25 0,-113 117.25,-113 117.25,-132.25"/>
<text text-anchor="middle" x="58.62" y="-118.75" font-family="Helvetica,sans-Serif" font-size="10.00">sss::api::S3Api::Config</text>
</a>
</g>
</g>
<!-- Node3&#45;&gt;Node4 -->
<g id="edge3" class="edge">
<title>Node3&#45;&gt;Node4</title>
<path fill="none" stroke="#63b8ff" d="M141.97,-122.62C133.92,-122.62 125.65,-122.62 117.59,-122.62"/>
<polygon fill="#63b8ff" stroke="#63b8ff" points="141.76,-126.13 151.76,-122.62 141.76,-119.13 141.76,-126.13"/>
</g>
<!-- Node3&#45;&gt;Node5 -->
<g id="edge4" class="edge">
<title>Node3&#45;&gt;Node5</title>
<path fill="none" stroke="#63b8ff" d="M150.6,-109.73C133.28,-105.14 114.04,-100.05 97.73,-95.72"/>
<polygon fill="#63b8ff" stroke="#63b8ff" points="149.53,-113.34 160.1,-112.51 151.33,-106.57 149.53,-113.34"/>
</g>
</g>
</svg>
