<?xml version="1.0" encoding="UTF-8" standalone="no"?>
<!DOCTYPE svg PUBLIC "-//W3C//DTD SVG 1.1//EN"
 "http://www.w3.org/Graphics/SVG/1.1/DTD/svg11.dtd">
<!-- Generated by graphviz version 8.0.5 (20230430.1635)
 -->
<!-- Title: sss::GetHomeDir Pages: 1 -->
<svg width="237pt" height="45pt"
 viewBox="0.00 0.00 236.50 45.25" xmlns="http://www.w3.org/2000/svg" xmlns:xlink="http://www.w3.org/1999/xlink">
<g id="graph0" class="graph" transform="scale(1 1) rotate(0) translate(4 41.25)">
<title>sss::GetHomeDir</title>
<!-- Node1 -->
<g id="node1" class="node">
<title>Node1</title>
<g id="a_node1"><a xlink:title=" ">
<polygon fill="#999999" stroke="#666666" points="228.5,-19.25 136,-19.25 136,0 228.5,0 228.5,-19.25"/>
<text text-anchor="middle" x="182.25" y="-5.75" font-family="Helvetica,sans-Serif" font-size="10.00">sss::GetHomeDir</text>
</a>
</g>
</g>
<!-- Node1&#45;&gt;Node1 -->
<g id="edge1" class="edge">
<title>Node1&#45;&gt;Node1</title>
<path fill="none" stroke="#63b8ff" d="M206.18,-29.98C203.67,-34.21 195.69,-37.25 182.25,-37.25 159,-37.25 152.1,-28.15 161.55,-19.54"/>
<polygon fill="#63b8ff" stroke="#63b8ff" points="209.25,-29.06 202.95,-20.54 202.56,-31.13 209.25,-29.06"/>
</g>
<!-- Node2 -->
<g id="node2" class="node">
<title>Node2</title>
<g id="a_node2"><a xlink:href="lib_2include_2utility_8h.html#afaf7d810ee7626a814d7cbe790dce4ab" target="_top" xlink:title=" ">
<polygon fill="white" stroke="#666666" points="100,-19.25 0,-19.25 0,0 100,0 100,-19.25"/>
<text text-anchor="middle" x="50" y="-5.75" font-family="Helvetica,sans-Serif" font-size="10.00">sss::ParseTomlFile</text>
</a>
</g>
</g>
<!-- Node1&#45;&gt;Node2 -->
<g id="edge2" class="edge">
<title>Node1&#45;&gt;Node2</title>
<path fill="none" stroke="#63b8ff" d="M124.75,-9.62C116.61,-9.62 108.29,-9.62 100.3,-9.62"/>
<polygon fill="#63b8ff" stroke="#63b8ff" points="124.69,-13.13 134.69,-9.62 124.69,-6.13 124.69,-13.13"/>
</g>
<!-- Node2&#45;&gt;Node2 -->
<g id="edge3" class="edge">
<title>Node2&#45;&gt;Node2</title>
<path fill="none" stroke="#63b8ff" d="M73.93,-29.98C71.42,-34.21 63.44,-37.25 50,-37.25 26.75,-37.25 19.85,-28.15 29.3,-19.54"/>
<polygon fill="#63b8ff" stroke="#63b8ff" points="77,-29.06 70.7,-20.54 70.31,-31.13 77,-29.06"/>
</g>
</g>
</svg>
