<?xml version="1.0" encoding="UTF-8" standalone="no"?>
<!DOCTYPE svg PUBLIC "-//W3C//DTD SVG 1.1//EN"
 "http://www.w3.org/Graphics/SVG/1.1/DTD/svg11.dtd">
<!-- Generated by graphviz version 8.0.5 (20230430.1635)
 -->
<!-- Title: /Users/ugovaretto/projects/s3client/lib/hash/md5.cpp Pages: 1 -->
<svg width="325pt" height="204pt"
 viewBox="0.00 0.00 325.25 204.25" xmlns="http://www.w3.org/2000/svg" xmlns:xlink="http://www.w3.org/1999/xlink">
<g id="graph0" class="graph" transform="scale(1 1) rotate(0) translate(4 200.25)">
<title>/Users/ugovaretto/projects/s3client/lib/hash/md5.cpp</title>
<!-- Node1 -->
<g id="node1" class="node">
<title>Node1</title>
<g id="a_node1"><a xlink:title="Implementation of MD5 algorithm,.">
<polygon fill="#999999" stroke="#666666" points="192.38,-196.25 60.88,-196.25 60.88,-165.75 192.38,-165.75 192.38,-196.25"/>
<text text-anchor="start" x="68.88" y="-182.75" font-family="Helvetica,sans-Serif" font-size="10.00">/Users/ugovaretto/projects</text>
<text text-anchor="middle" x="126.62" y="-171.5" font-family="Helvetica,sans-Serif" font-size="10.00">/s3client/lib/hash/md5.cpp</text>
</a>
</g>
</g>
<!-- Node2 -->
<g id="node2" class="node">
<title>Node2</title>
<g id="a_node2"><a xlink:href="md5_8h.html" target="_top" xlink:title="declaration of MD5 hashing functions.">
<polygon fill="white" stroke="#666666" points="98.12,-129.75 55.12,-129.75 55.12,-110.5 98.12,-110.5 98.12,-129.75"/>
<text text-anchor="middle" x="76.62" y="-116.25" font-family="Helvetica,sans-Serif" font-size="10.00">md5.h</text>
</a>
</g>
</g>
<!-- Node1&#45;&gt;Node2 -->
<g id="edge1" class="edge">
<title>Node1&#45;&gt;Node2</title>
<path fill="none" stroke="#63b8ff" d="M114.27,-165.45C107.31,-157.26 98.59,-146.98 91.29,-138.39"/>
<polygon fill="#63b8ff" stroke="#63b8ff" points="93.47,-136.56 84.33,-131.2 88.14,-141.09 93.47,-136.56"/>
</g>
<!-- Node3 -->
<g id="node3" class="node">
<title>Node3</title>
<g id="a_node3"><a xlink:href="lib_2hash_2utility_8h.html" target="_top" xlink:title="Declaration of utility functions for SHA256 hashing.">
<polygon fill="white" stroke="#666666" points="149.62,-74.5 103.62,-74.5 103.62,-55.25 149.62,-55.25 149.62,-74.5"/>
<text text-anchor="middle" x="126.62" y="-61" font-family="Helvetica,sans-Serif" font-size="10.00">utility.h</text>
</a>
</g>
</g>
<!-- Node1&#45;&gt;Node3 -->
<g id="edge8" class="edge">
<title>Node1&#45;&gt;Node3</title>
<path fill="none" stroke="#63b8ff" d="M126.62,-165.55C126.62,-145.31 126.62,-108.47 126.62,-85.69"/>
<polygon fill="#63b8ff" stroke="#63b8ff" points="130.13,-85.95 126.62,-75.95 123.13,-85.95 130.13,-85.95"/>
</g>
<!-- Node4 -->
<g id="node4" class="node">
<title>Node4</title>
<g id="a_node4"><a xlink:title=" ">
<polygon fill="#e0e0e0" stroke="#999999" points="45.25,-19.25 0,-19.25 0,0 45.25,0 45.25,-19.25"/>
<text text-anchor="middle" x="22.62" y="-5.75" font-family="Helvetica,sans-Serif" font-size="10.00">cstdint</text>
</a>
</g>
</g>
<!-- Node1&#45;&gt;Node4 -->
<g id="edge10" class="edge">
<title>Node1&#45;&gt;Node4</title>
<path fill="none" stroke="#63b8ff" d="M82.4,-165.36C65.39,-157.48 47.47,-145.97 36.62,-129.75 16.53,-99.7 17.25,-55.63 19.8,-30.37"/>
<polygon fill="#63b8ff" stroke="#63b8ff" points="23.37,-30.97 21.11,-20.62 16.42,-30.12 23.37,-30.97"/>
</g>
<!-- Node5 -->
<g id="node5" class="node">
<title>Node5</title>
<g id="a_node5"><a xlink:title=" ">
<polygon fill="#e0e0e0" stroke="#999999" points="187.75,-19.25 145.5,-19.25 145.5,0 187.75,0 187.75,-19.25"/>
<text text-anchor="middle" x="166.62" y="-5.75" font-family="Helvetica,sans-Serif" font-size="10.00">cstdio</text>
</a>
</g>
</g>
<!-- Node1&#45;&gt;Node5 -->
<g id="edge11" class="edge">
<title>Node1&#45;&gt;Node5</title>
<path fill="none" stroke="#63b8ff" d="M131.87,-165.53C138.98,-145.39 151.58,-107.64 158.62,-74.5 161.76,-59.75 163.81,-42.81 165.05,-30.09"/>
<polygon fill="#63b8ff" stroke="#63b8ff" points="168.61,-30.65 166,-20.38 161.63,-30.03 168.61,-30.65"/>
</g>
<!-- Node6 -->
<g id="node6" class="node">
<title>Node6</title>
<g id="a_node6"><a xlink:title=" ">
<polygon fill="#e0e0e0" stroke="#999999" points="107.88,-19.25 63.38,-19.25 63.38,0 107.88,0 107.88,-19.25"/>
<text text-anchor="middle" x="85.62" y="-5.75" font-family="Helvetica,sans-Serif" font-size="10.00">cstdlib</text>
</a>
</g>
</g>
<!-- Node1&#45;&gt;Node6 -->
<g id="edge12" class="edge">
<title>Node1&#45;&gt;Node6</title>
<path fill="none" stroke="#63b8ff" d="M86.7,-165.35C70.97,-157.38 54.56,-145.8 45.62,-129.75 26.8,-95.92 53.29,-51.76 71.32,-27.84"/>
<polygon fill="#63b8ff" stroke="#63b8ff" points="74.49,-30.47 77.93,-20.45 68.99,-26.14 74.49,-30.47"/>
</g>
<!-- Node7 -->
<g id="node7" class="node">
<title>Node7</title>
<g id="a_node7"><a xlink:title=" ">
<polygon fill="#e0e0e0" stroke="#999999" points="253.75,-129.75 205.5,-129.75 205.5,-110.5 253.75,-110.5 253.75,-129.75"/>
<text text-anchor="middle" x="229.62" y="-116.25" font-family="Helvetica,sans-Serif" font-size="10.00">cassert</text>
</a>
</g>
</g>
<!-- Node1&#45;&gt;Node7 -->
<g id="edge9" class="edge">
<title>Node1&#45;&gt;Node7</title>
<path fill="none" stroke="#63b8ff" d="M152.35,-165.3C168.34,-156.16 188.79,-144.47 204.64,-135.41"/>
<polygon fill="#63b8ff" stroke="#63b8ff" points="205.88,-138.16 212.83,-130.15 202.41,-132.08 205.88,-138.16"/>
</g>
<!-- Node8 -->
<g id="node8" class="node">
<title>Node8</title>
<g id="a_node8"><a xlink:title=" ">
<polygon fill="#e0e0e0" stroke="#999999" points="317.25,-129.75 272,-129.75 272,-110.5 317.25,-110.5 317.25,-129.75"/>
<text text-anchor="middle" x="294.62" y="-116.25" font-family="Helvetica,sans-Serif" font-size="10.00">cstring</text>
</a>
</g>
</g>
<!-- Node1&#45;&gt;Node8 -->
<g id="edge13" class="edge">
<title>Node1&#45;&gt;Node8</title>
<path fill="none" stroke="#63b8ff" d="M168.59,-165.3C197.29,-155.24 234.81,-142.09 261.43,-132.76"/>
<polygon fill="#63b8ff" stroke="#63b8ff" points="262.48,-135.75 270.76,-129.14 260.17,-129.14 262.48,-135.75"/>
</g>
<!-- Node2&#45;&gt;Node3 -->
<g id="edge2" class="edge">
<title>Node2&#45;&gt;Node3</title>
<path fill="none" stroke="#63b8ff" d="M84.88,-110.33C91.93,-102.82 102.27,-91.81 110.89,-82.63"/>
<polygon fill="#63b8ff" stroke="#63b8ff" points="112.9,-85.55 117.19,-75.86 107.79,-80.75 112.9,-85.55"/>
</g>
<!-- Node2&#45;&gt;Node4 -->
<g id="edge6" class="edge">
<title>Node2&#45;&gt;Node4</title>
<path fill="none" stroke="#63b8ff" d="M72.21,-110.25C63.42,-92.6 43.62,-52.8 31.87,-29.2"/>
<polygon fill="#63b8ff" stroke="#63b8ff" points="34.69,-28.02 27.11,-20.63 28.43,-31.14 34.69,-28.02"/>
</g>
<!-- Node2&#45;&gt;Node6 -->
<g id="edge7" class="edge">
<title>Node2&#45;&gt;Node6</title>
<path fill="none" stroke="#63b8ff" d="M77.36,-110.25C78.8,-92.92 82.01,-54.23 83.98,-30.49"/>
<polygon fill="#63b8ff" stroke="#63b8ff" points="87.54,-30.88 84.88,-20.63 80.56,-30.3 87.54,-30.88"/>
</g>
<!-- Node3&#45;&gt;Node4 -->
<g id="edge3" class="edge">
<title>Node3&#45;&gt;Node4</title>
<path fill="none" stroke="#63b8ff" d="M108.98,-54.84C92.85,-46.58 68.72,-34.23 50.07,-24.68"/>
<polygon fill="#63b8ff" stroke="#63b8ff" points="51.85,-21.14 41.35,-19.7 48.66,-27.38 51.85,-21.14"/>
</g>
<!-- Node3&#45;&gt;Node5 -->
<g id="edge4" class="edge">
<title>Node3&#45;&gt;Node5</title>
<path fill="none" stroke="#63b8ff" d="M133.23,-55.08C138.7,-47.8 146.64,-37.23 153.4,-28.23"/>
<polygon fill="#63b8ff" stroke="#63b8ff" points="156.67,-30.71 159.88,-20.61 151.07,-26.5 156.67,-30.71"/>
</g>
<!-- Node3&#45;&gt;Node6 -->
<g id="edge5" class="edge">
<title>Node3&#45;&gt;Node6</title>
<path fill="none" stroke="#63b8ff" d="M119.85,-55.08C114.25,-47.8 106.11,-37.23 99.18,-28.23"/>
<polygon fill="#63b8ff" stroke="#63b8ff" points="101.42,-26.4 92.54,-20.61 95.87,-30.67 101.42,-26.4"/>
</g>
</g>
</svg>
