<?xml version="1.0" encoding="UTF-8" standalone="no"?>
<!DOCTYPE svg PUBLIC "-//W3C//DTD SVG 1.1//EN"
 "http://www.w3.org/Graphics/SVG/1.1/DTD/svg11.dtd">
<!-- Generated by graphviz version 8.0.5 (20230430.1635)
 -->
<!-- Title: /Users/ugovaretto/projects/s3client/apps/presign_url.cpp Pages: 1 -->
<svg width="865pt" height="315pt"
 viewBox="0.00 0.00 864.75 314.75" xmlns="http://www.w3.org/2000/svg" xmlns:xlink="http://www.w3.org/1999/xlink">
<g id="graph0" class="graph" transform="scale(1 1) rotate(0) translate(4 310.75)">
<title>/Users/ugovaretto/projects/s3client/apps/presign_url.cpp</title>
<!-- Node1 -->
<g id="node1" class="node">
<title>Node1</title>
<g id="a_node1"><a xlink:title="Presign URL.">
<polygon fill="#999999" stroke="#666666" points="780.62,-306.75 634.88,-306.75 634.88,-276.25 780.62,-276.25 780.62,-306.75"/>
<text text-anchor="start" x="642.88" y="-293.25" font-family="Helvetica,sans-Serif" font-size="10.00">/Users/ugovaretto/projects</text>
<text text-anchor="middle" x="707.75" y="-282" font-family="Helvetica,sans-Serif" font-size="10.00">/s3client/apps/presign_url.cpp</text>
</a>
</g>
</g>
<!-- Node2 -->
<g id="node2" class="node">
<title>Node2</title>
<g id="a_node2"><a xlink:title=" ">
<polygon fill="#e0e0e0" stroke="#999999" points="53.5,-74.5 0,-74.5 0,-55.25 53.5,-55.25 53.5,-74.5"/>
<text text-anchor="middle" x="26.75" y="-61" font-family="Helvetica,sans-Serif" font-size="10.00">iostream</text>
</a>
</g>
</g>
<!-- Node1&#45;&gt;Node2 -->
<g id="edge1" class="edge">
<title>Node1&#45;&gt;Node2</title>
<path fill="none" stroke="#63b8ff" d="M634.77,-283.7C532.98,-272.41 343.97,-244.83 193.75,-185 132.28,-160.52 72.08,-108.83 43.68,-82.32"/>
<polygon fill="#63b8ff" stroke="#63b8ff" points="46.58,-80.3 36.92,-75.96 41.76,-85.38 46.58,-80.3"/>
</g>
<!-- Node3 -->
<g id="node3" class="node">
<title>Node3</title>
<g id="a_node3"><a xlink:title=" ">
<polygon fill="#e0e0e0" stroke="#999999" points="753.75,-19.25 713.75,-19.25 713.75,0 753.75,0 753.75,-19.25"/>
<text text-anchor="middle" x="733.75" y="-5.75" font-family="Helvetica,sans-Serif" font-size="10.00">string</text>
</a>
</g>
</g>
<!-- Node1&#45;&gt;Node3 -->
<g id="edge2" class="edge">
<title>Node1&#45;&gt;Node3</title>
<path fill="none" stroke="#63b8ff" d="M756.54,-275.76C799.99,-259.26 856.75,-227.86 856.75,-176.38 856.75,-176.38 856.75,-176.38 856.75,-119.12 856.75,-69.88 800.62,-37.66 764.2,-21.93"/>
<polygon fill="#63b8ff" stroke="#63b8ff" points="765.64,-18.33 755.06,-17.75 762.97,-24.8 765.64,-18.33"/>
</g>
<!-- Node4 -->
<g id="node4" class="node">
<title>Node4</title>
<g id="a_node4"><a xlink:title=" ">
<polygon fill="#e0e0e0" stroke="#999999" points="784.38,-240.25 715.12,-240.25 715.12,-221 784.38,-221 784.38,-240.25"/>
<text text-anchor="middle" x="749.75" y="-226.75" font-family="Helvetica,sans-Serif" font-size="10.00">lyra/lyra.hpp</text>
</a>
</g>
</g>
<!-- Node1&#45;&gt;Node4 -->
<g id="edge3" class="edge">
<title>Node1&#45;&gt;Node4</title>
<path fill="none" stroke="#63b8ff" d="M718.13,-275.95C723.85,-267.93 730.99,-257.92 737.04,-249.44"/>
<polygon fill="#63b8ff" stroke="#63b8ff" points="740.32,-251.87 743.28,-241.7 734.62,-247.81 740.32,-251.87"/>
</g>
<!-- Node5 -->
<g id="node5" class="node">
<title>Node5</title>
<g id="a_node5"><a xlink:href="s3-client_8h.html" target="_top" xlink:title="declaration of functions and data types for sending S3 requests, signing URLs and downloading and upl...">
<polygon fill="white" stroke="#666666" points="697.25,-240.25 636.25,-240.25 636.25,-221 697.25,-221 697.25,-240.25"/>
<text text-anchor="middle" x="666.75" y="-226.75" font-family="Helvetica,sans-Serif" font-size="10.00">s3&#45;client.h</text>
</a>
</g>
</g>
<!-- Node1&#45;&gt;Node5 -->
<g id="edge4" class="edge">
<title>Node1&#45;&gt;Node5</title>
<path fill="none" stroke="#63b8ff" d="M697.62,-275.95C692.09,-268.02 685.21,-258.13 679.34,-249.71"/>
<polygon fill="#63b8ff" stroke="#63b8ff" points="681.66,-247.91 673.07,-241.7 675.91,-251.91 681.66,-247.91"/>
</g>
<!-- Node5&#45;&gt;Node3 -->
<g id="edge35" class="edge">
<title>Node5&#45;&gt;Node3</title>
<path fill="none" stroke="#63b8ff" d="M697.67,-221.39C727.16,-212.84 768.42,-198.81 777.75,-185 811.48,-135.08 769.37,-61.35 746.58,-28.06"/>
<polygon fill="#63b8ff" stroke="#63b8ff" points="749.12,-26.59 740.49,-20.45 743.4,-30.63 749.12,-26.59"/>
</g>
<!-- Node6 -->
<g id="node6" class="node">
<title>Node6</title>
<g id="a_node6"><a xlink:href="aws__sign_8h.html" target="_top" xlink:title="Public interface to signing URLs and HTTP headers with the S3v4 protocol standard.">
<polygon fill="white" stroke="#666666" points="768.5,-185 703,-185 703,-165.75 768.5,-165.75 768.5,-185"/>
<text text-anchor="middle" x="735.75" y="-171.5" font-family="Helvetica,sans-Serif" font-size="10.00">aws_sign.h</text>
</a>
</g>
</g>
<!-- Node5&#45;&gt;Node6 -->
<g id="edge5" class="edge">
<title>Node5&#45;&gt;Node6</title>
<path fill="none" stroke="#63b8ff" d="M678.45,-220.59C688.63,-212.74 703.58,-201.2 715.67,-191.87"/>
<polygon fill="#63b8ff" stroke="#63b8ff" points="717.44,-194.16 723.22,-185.27 713.16,-188.61 717.44,-194.16"/>
</g>
<!-- Node7 -->
<g id="node7" class="node">
<title>Node7</title>
<g id="a_node7"><a xlink:href="common_8h.html" target="_top" xlink:title="Common definitions.">
<polygon fill="white" stroke="#666666" points="705.62,-74.5 643.88,-74.5 643.88,-55.25 705.62,-55.25 705.62,-74.5"/>
<text text-anchor="middle" x="674.75" y="-61" font-family="Helvetica,sans-Serif" font-size="10.00">common.h</text>
</a>
</g>
</g>
<!-- Node5&#45;&gt;Node7 -->
<g id="edge22" class="edge">
<title>Node5&#45;&gt;Node7</title>
<path fill="none" stroke="#63b8ff" d="M667.18,-220.82C668.42,-195.39 672.04,-121.35 673.79,-85.62"/>
<polygon fill="#63b8ff" stroke="#63b8ff" points="677.33,-85.88 674.32,-75.72 670.33,-85.54 677.33,-85.88"/>
</g>
<!-- Node11 -->
<g id="node11" class="node">
<title>Node11</title>
<g id="a_node11"><a xlink:title=" ">
<polygon fill="#e0e0e0" stroke="#999999" points="119.25,-74.5 76.25,-74.5 76.25,-55.25 119.25,-55.25 119.25,-74.5"/>
<text text-anchor="middle" x="97.75" y="-61" font-family="Helvetica,sans-Serif" font-size="10.00">vector</text>
</a>
</g>
</g>
<!-- Node5&#45;&gt;Node11 -->
<g id="edge36" class="edge">
<title>Node5&#45;&gt;Node11</title>
<path fill="none" stroke="#63b8ff" d="M636.06,-227.98C532.87,-221.84 200.51,-197.13 121.75,-129.75 108.81,-118.68 102.84,-99.9 100.08,-85.56"/>
<polygon fill="#63b8ff" stroke="#63b8ff" points="103.41,-85.19 98.45,-75.83 96.49,-86.24 103.41,-85.19"/>
</g>
<!-- Node15 -->
<g id="node15" class="node">
<title>Node15</title>
<g id="a_node15"><a xlink:href="webclient_8h.html" target="_top" xlink:title="declaration of WebClient class wrapping libcurl to send web requests.">
<polygon fill="white" stroke="#666666" points="463.5,-185 398,-185 398,-165.75 463.5,-165.75 463.5,-185"/>
<text text-anchor="middle" x="430.75" y="-171.5" font-family="Helvetica,sans-Serif" font-size="10.00">webclient.h</text>
</a>
</g>
</g>
<!-- Node5&#45;&gt;Node15 -->
<g id="edge23" class="edge">
<title>Node5&#45;&gt;Node15</title>
<path fill="none" stroke="#63b8ff" d="M635.9,-222.66C594.63,-213.35 521.24,-196.79 474.34,-186.21"/>
<polygon fill="#63b8ff" stroke="#63b8ff" points="475.42,-182.64 464.89,-183.85 473.88,-189.47 475.42,-182.64"/>
</g>
<!-- Node6&#45;&gt;Node3 -->
<g id="edge21" class="edge">
<title>Node6&#45;&gt;Node3</title>
<path fill="none" stroke="#63b8ff" d="M738.2,-165.37C743.29,-145.44 754.01,-96.14 747.75,-55.25 746.44,-46.73 743.81,-37.6 741.18,-29.84"/>
<polygon fill="#63b8ff" stroke="#63b8ff" points="744.19,-28.86 737.48,-20.66 737.61,-31.26 744.19,-28.86"/>
</g>
<!-- Node6&#45;&gt;Node7 -->
<g id="edge6" class="edge">
<title>Node6&#45;&gt;Node7</title>
<path fill="none" stroke="#63b8ff" d="M730.76,-165.5C720.84,-147.85 698.46,-108.05 685.19,-84.45"/>
<polygon fill="#63b8ff" stroke="#63b8ff" points="687.76,-82.88 679.81,-75.88 681.66,-86.31 687.76,-82.88"/>
</g>
<!-- Node9 -->
<g id="node9" class="node">
<title>Node9</title>
<g id="a_node9"><a xlink:href="url__utility_8h.html" target="_top" xlink:title="Internal utility functions to process and parse text and URLs and create S3 signature keys.">
<polygon fill="white" stroke="#666666" points="562.62,-129.75 500.88,-129.75 500.88,-110.5 562.62,-110.5 562.62,-129.75"/>
<text text-anchor="middle" x="531.75" y="-116.25" font-family="Helvetica,sans-Serif" font-size="10.00">url_utility.h</text>
</a>
</g>
</g>
<!-- Node6&#45;&gt;Node9 -->
<g id="edge9" class="edge">
<title>Node6&#45;&gt;Node9</title>
<path fill="none" stroke="#63b8ff" d="M702.52,-165.7C667.23,-156.49 611.37,-141.91 573.22,-131.95"/>
<polygon fill="#63b8ff" stroke="#63b8ff" points="574.52,-128.41 563.96,-129.27 572.75,-135.18 574.52,-128.41"/>
</g>
<!-- Node7&#45;&gt;Node3 -->
<g id="edge8" class="edge">
<title>Node7&#45;&gt;Node3</title>
<path fill="none" stroke="#63b8ff" d="M684.76,-54.84C693.29,-47.15 705.75,-35.9 715.97,-26.68"/>
<polygon fill="#63b8ff" stroke="#63b8ff" points="717.81,-29.82 722.89,-20.52 713.12,-24.63 717.81,-29.82"/>
</g>
<!-- Node8 -->
<g id="node8" class="node">
<title>Node8</title>
<g id="a_node8"><a xlink:title=" ">
<polygon fill="#e0e0e0" stroke="#999999" points="595.12,-19.25 560.38,-19.25 560.38,0 595.12,0 595.12,-19.25"/>
<text text-anchor="middle" x="577.75" y="-5.75" font-family="Helvetica,sans-Serif" font-size="10.00">map</text>
</a>
</g>
</g>
<!-- Node7&#45;&gt;Node8 -->
<g id="edge7" class="edge">
<title>Node7&#45;&gt;Node8</title>
<path fill="none" stroke="#63b8ff" d="M658.3,-54.84C643.38,-46.66 621.16,-34.46 603.83,-24.94"/>
<polygon fill="#63b8ff" stroke="#63b8ff" points="605.74,-21.45 595.29,-19.7 602.37,-27.58 605.74,-21.45"/>
</g>
<!-- Node9&#45;&gt;Node2 -->
<g id="edge11" class="edge">
<title>Node9&#45;&gt;Node2</title>
<path fill="none" stroke="#63b8ff" d="M500.38,-111.96C497.47,-111.42 494.56,-110.92 491.75,-110.5 304.27,-82.46 254.23,-102.54 66.75,-74.5 65.96,-74.38 65.16,-74.26 64.36,-74.13"/>
<polygon fill="#63b8ff" stroke="#63b8ff" points="65.24,-70.55 54.77,-72.19 63.98,-77.43 65.24,-70.55"/>
</g>
<!-- Node9&#45;&gt;Node3 -->
<g id="edge13" class="edge">
<title>Node9&#45;&gt;Node3</title>
<path fill="none" stroke="#63b8ff" d="M545.08,-110.07C564.39,-97.13 601.51,-72.95 634.75,-55.25 657.18,-43.31 683.43,-31.57 703.26,-23.13"/>
<polygon fill="#63b8ff" stroke="#63b8ff" points="704.42,-26.03 712.28,-18.92 701.7,-19.57 704.42,-26.03"/>
</g>
<!-- Node9&#45;&gt;Node7 -->
<g id="edge15" class="edge">
<title>Node9&#45;&gt;Node7</title>
<path fill="none" stroke="#63b8ff" d="M556.01,-110.09C579.12,-101.49 614.15,-88.44 640.18,-78.75"/>
<polygon fill="#63b8ff" stroke="#63b8ff" points="641.22,-81.72 649.37,-74.95 638.78,-75.16 641.22,-81.72"/>
</g>
<!-- Node9&#45;&gt;Node8 -->
<g id="edge12" class="edge">
<title>Node9&#45;&gt;Node8</title>
<path fill="none" stroke="#63b8ff" d="M535.51,-110.25C542.96,-92.68 559.72,-53.16 569.74,-29.52"/>
<polygon fill="#63b8ff" stroke="#63b8ff" points="573.25,-31.2 573.93,-20.63 566.81,-28.47 573.25,-31.2"/>
</g>
<!-- Node10 -->
<g id="node10" class="node">
<title>Node10</title>
<g id="a_node10"><a xlink:title=" ">
<polygon fill="#e0e0e0" stroke="#999999" points="536.62,-19.25 480.88,-19.25 480.88,0 536.62,0 536.62,-19.25"/>
<text text-anchor="middle" x="508.75" y="-5.75" font-family="Helvetica,sans-Serif" font-size="10.00">algorithm</text>
</a>
</g>
</g>
<!-- Node9&#45;&gt;Node10 -->
<g id="edge10" class="edge">
<title>Node9&#45;&gt;Node10</title>
<path fill="none" stroke="#63b8ff" d="M529.87,-110.25C526.18,-92.84 517.92,-53.87 512.89,-30.16"/>
<polygon fill="#63b8ff" stroke="#63b8ff" points="516.16,-29.68 510.66,-20.63 509.31,-31.14 516.16,-29.68"/>
</g>
<!-- Node9&#45;&gt;Node11 -->
<g id="edge14" class="edge">
<title>Node9&#45;&gt;Node11</title>
<path fill="none" stroke="#63b8ff" d="M500.8,-112.13C497.75,-111.54 494.69,-110.98 491.75,-110.5 358.5,-88.64 198.13,-74.08 130.43,-68.47"/>
<polygon fill="#63b8ff" stroke="#63b8ff" points="130.89,-64.91 120.64,-67.58 130.32,-71.89 130.89,-64.91"/>
</g>
<!-- Node12 -->
<g id="node12" class="node">
<title>Node12</title>
<g id="a_node12"><a xlink:href="lib_2include_2utility_8h.html" target="_top" xlink:title="internal utility functions">
<polygon fill="white" stroke="#666666" points="459.75,-74.5 413.75,-74.5 413.75,-55.25 459.75,-55.25 459.75,-74.5"/>
<text text-anchor="middle" x="436.75" y="-61" font-family="Helvetica,sans-Serif" font-size="10.00">utility.h</text>
</a>
</g>
</g>
<!-- Node9&#45;&gt;Node12 -->
<g id="edge16" class="edge">
<title>Node9&#45;&gt;Node12</title>
<path fill="none" stroke="#63b8ff" d="M515.63,-110.09C501.03,-101.91 479.26,-89.71 462.29,-80.19"/>
<polygon fill="#63b8ff" stroke="#63b8ff" points="464.38,-76.79 453.94,-74.95 460.96,-82.9 464.38,-76.79"/>
</g>
<!-- Node12&#45;&gt;Node3 -->
<g id="edge19" class="edge">
<title>Node12&#45;&gt;Node3</title>
<path fill="none" stroke="#63b8ff" d="M460.06,-59.7C513.11,-50.18 642.93,-26.91 702.7,-16.19"/>
<polygon fill="#63b8ff" stroke="#63b8ff" points="703.12,-19.49 712.34,-14.28 701.88,-12.6 703.12,-19.49"/>
</g>
<!-- Node12&#45;&gt;Node10 -->
<g id="edge17" class="edge">
<title>Node12&#45;&gt;Node10</title>
<path fill="none" stroke="#63b8ff" d="M448.96,-54.84C459.68,-46.91 475.49,-35.22 488.16,-25.85"/>
<polygon fill="#63b8ff" stroke="#63b8ff" points="489.76,-28.29 495.72,-19.52 485.6,-22.66 489.76,-28.29"/>
</g>
<!-- Node13 -->
<g id="node13" class="node">
<title>Node13</title>
<g id="a_node13"><a xlink:title=" ">
<polygon fill="#e0e0e0" stroke="#999999" points="362.75,-19.25 304.75,-19.25 304.75,0 362.75,0 362.75,-19.25"/>
<text text-anchor="middle" x="333.75" y="-5.75" font-family="Helvetica,sans-Serif" font-size="10.00">functional</text>
</a>
</g>
</g>
<!-- Node12&#45;&gt;Node13 -->
<g id="edge18" class="edge">
<title>Node12&#45;&gt;Node13</title>
<path fill="none" stroke="#63b8ff" d="M419.28,-54.84C403.3,-46.58 379.4,-34.23 360.93,-24.68"/>
<polygon fill="#63b8ff" stroke="#63b8ff" points="362.8,-21.19 352.31,-19.7 359.58,-27.4 362.8,-21.19"/>
</g>
<!-- Node14 -->
<g id="node14" class="node">
<title>Node14</title>
<g id="a_node14"><a xlink:title=" ">
<polygon fill="#e0e0e0" stroke="#999999" points="463.12,-19.25 380.38,-19.25 380.38,0 463.12,0 463.12,-19.25"/>
<text text-anchor="middle" x="421.75" y="-5.75" font-family="Helvetica,sans-Serif" font-size="10.00">unordered_map</text>
</a>
</g>
</g>
<!-- Node12&#45;&gt;Node14 -->
<g id="edge20" class="edge">
<title>Node12&#45;&gt;Node14</title>
<path fill="none" stroke="#63b8ff" d="M434.27,-55.08C432.35,-48.26 429.62,-38.56 427.19,-29.95"/>
<polygon fill="#63b8ff" stroke="#63b8ff" points="430.36,-29.29 424.28,-20.61 423.62,-31.18 430.36,-29.29"/>
</g>
<!-- Node15&#45;&gt;Node3 -->
<g id="edge30" class="edge">
<title>Node15&#45;&gt;Node3</title>
<path fill="none" stroke="#63b8ff" d="M463.92,-170.81C504.73,-165.58 575.52,-153.72 631.75,-129.75 672.52,-112.38 688.42,-110.14 714.75,-74.5 724.32,-61.55 729.1,-43.79 731.47,-30.29"/>
<polygon fill="#63b8ff" stroke="#63b8ff" points="735.03,-31.14 732.99,-20.74 728.1,-30.14 735.03,-31.14"/>
</g>
<!-- Node15&#45;&gt;Node7 -->
<g id="edge32" class="edge">
<title>Node15&#45;&gt;Node7</title>
<path fill="none" stroke="#63b8ff" d="M463.92,-170.74C500.28,-165.68 559.48,-154.21 604.75,-129.75 626.81,-117.83 647.4,-97.47 660.47,-82.94"/>
<polygon fill="#63b8ff" stroke="#63b8ff" points="663.65,-85.62 667.57,-75.78 658.37,-81.02 663.65,-85.62"/>
</g>
<!-- Node15&#45;&gt;Node8 -->
<g id="edge28" class="edge">
<title>Node15&#45;&gt;Node8</title>
<path fill="none" stroke="#63b8ff" d="M463.85,-174.04C496.93,-171.75 546.41,-162.58 571.75,-129.75 593.92,-101.02 588.55,-55.8 582.95,-30.13"/>
<polygon fill="#63b8ff" stroke="#63b8ff" points="586.15,-29.44 580.39,-20.55 579.34,-31.09 586.15,-29.44"/>
</g>
<!-- Node15&#45;&gt;Node9 -->
<g id="edge33" class="edge">
<title>Node15&#45;&gt;Node9</title>
<path fill="none" stroke="#63b8ff" d="M447.88,-165.34C463.48,-157.12 486.77,-144.84 504.85,-135.31"/>
<polygon fill="#63b8ff" stroke="#63b8ff" points="506.32,-137.96 513.53,-130.2 503.05,-131.77 506.32,-137.96"/>
</g>
<!-- Node15&#45;&gt;Node11 -->
<g id="edge31" class="edge">
<title>Node15&#45;&gt;Node11</title>
<path fill="none" stroke="#63b8ff" d="M397.69,-172.25C332.2,-167.55 188.69,-154.67 146.75,-129.75 128.77,-119.06 115.06,-99.04 106.78,-84.25"/>
<polygon fill="#63b8ff" stroke="#63b8ff" points="109.47,-82.84 101.72,-75.61 103.27,-86.09 109.47,-82.84"/>
</g>
<!-- Node15&#45;&gt;Node12 -->
<g id="edge34" class="edge">
<title>Node15&#45;&gt;Node12</title>
<path fill="none" stroke="#63b8ff" d="M397.71,-174.14C331.36,-172.9 185.62,-166.02 154.75,-129.75 149.2,-123.24 149.19,-117.01 154.75,-110.5 186.25,-73.62 334.36,-67.05 402.4,-66"/>
<polygon fill="#63b8ff" stroke="#63b8ff" points="402.42,-69.49 412.37,-65.87 402.33,-62.49 402.42,-69.49"/>
</g>
<!-- Node16 -->
<g id="node16" class="node">
<title>Node16</title>
<g id="a_node16"><a xlink:title=" ">
<polygon fill="#e0e0e0" stroke="#999999" points="222.12,-129.75 163.38,-129.75 163.38,-110.5 222.12,-110.5 222.12,-129.75"/>
<text text-anchor="middle" x="192.75" y="-116.25" font-family="Helvetica,sans-Serif" font-size="10.00">curl/curl.h</text>
</a>
</g>
</g>
<!-- Node15&#45;&gt;Node16 -->
<g id="edge24" class="edge">
<title>Node15&#45;&gt;Node16</title>
<path fill="none" stroke="#63b8ff" d="M397.66,-166.97C354.62,-157.34 279.47,-140.53 233.12,-130.16"/>
<polygon fill="#63b8ff" stroke="#63b8ff" points="234.08,-126.56 223.56,-127.8 232.56,-133.39 234.08,-126.56"/>
</g>
<!-- Node17 -->
<g id="node17" class="node">
<title>Node17</title>
<g id="a_node17"><a xlink:title=" ">
<polygon fill="#e0e0e0" stroke="#999999" points="303,-129.75 240.5,-129.75 240.5,-110.5 303,-110.5 303,-129.75"/>
<text text-anchor="middle" x="271.75" y="-116.25" font-family="Helvetica,sans-Serif" font-size="10.00">curl/easy.h</text>
</a>
</g>
</g>
<!-- Node15&#45;&gt;Node17 -->
<g id="edge25" class="edge">
<title>Node15&#45;&gt;Node17</title>
<path fill="none" stroke="#63b8ff" d="M403.78,-165.34C377.74,-156.62 338.09,-143.34 309.03,-133.61"/>
<polygon fill="#63b8ff" stroke="#63b8ff" points="310.45,-130.06 299.85,-130.2 308.23,-136.7 310.45,-130.06"/>
</g>
<!-- Node18 -->
<g id="node18" class="node">
<title>Node18</title>
<g id="a_node18"><a xlink:title=" ">
<polygon fill="#e0e0e0" stroke="#999999" points="358.62,-129.75 320.88,-129.75 320.88,-110.5 358.62,-110.5 358.62,-129.75"/>
<text text-anchor="middle" x="339.75" y="-116.25" font-family="Helvetica,sans-Serif" font-size="10.00">array</text>
</a>
</g>
</g>
<!-- Node15&#45;&gt;Node18 -->
<g id="edge26" class="edge">
<title>Node15&#45;&gt;Node18</title>
<path fill="none" stroke="#63b8ff" d="M415.31,-165.34C401.46,-157.23 380.86,-145.18 364.67,-135.71"/>
<polygon fill="#63b8ff" stroke="#63b8ff" points="366.66,-132.23 356.26,-130.2 363.13,-138.27 366.66,-132.23"/>
</g>
<!-- Node19 -->
<g id="node19" class="node">
<title>Node19</title>
<g id="a_node19"><a xlink:title=" ">
<polygon fill="#e0e0e0" stroke="#999999" points="422.38,-129.75 377.12,-129.75 377.12,-110.5 422.38,-110.5 422.38,-129.75"/>
<text text-anchor="middle" x="399.75" y="-116.25" font-family="Helvetica,sans-Serif" font-size="10.00">atomic</text>
</a>
</g>
</g>
<!-- Node15&#45;&gt;Node19 -->
<g id="edge27" class="edge">
<title>Node15&#45;&gt;Node19</title>
<path fill="none" stroke="#63b8ff" d="M425.63,-165.58C421.53,-158.53 415.63,-148.4 410.5,-139.58"/>
<polygon fill="#63b8ff" stroke="#63b8ff" points="413.04,-137.99 404.98,-131.11 406.99,-141.51 413.04,-137.99"/>
</g>
<!-- Node20 -->
<g id="node20" class="node">
<title>Node20</title>
<g id="a_node20"><a xlink:title=" ">
<polygon fill="#e0e0e0" stroke="#999999" points="483.25,-129.75 440.25,-129.75 440.25,-110.5 483.25,-110.5 483.25,-129.75"/>
<text text-anchor="middle" x="461.75" y="-116.25" font-family="Helvetica,sans-Serif" font-size="10.00">mutex</text>
</a>
</g>
</g>
<!-- Node15&#45;&gt;Node20 -->
<g id="edge29" class="edge">
<title>Node15&#45;&gt;Node20</title>
<path fill="none" stroke="#63b8ff" d="M435.87,-165.58C439.97,-158.53 445.87,-148.4 451,-139.58"/>
<polygon fill="#63b8ff" stroke="#63b8ff" points="454.51,-141.51 456.52,-131.11 448.46,-137.99 454.51,-141.51"/>
</g>
</g>
</svg>
