<?xml version="1.0" encoding="UTF-8" standalone="no"?>
<!DOCTYPE svg PUBLIC "-//W3C//DTD SVG 1.1//EN"
 "http://www.w3.org/Graphics/SVG/1.1/DTD/svg11.dtd">
<!-- Generated by graphviz version 8.0.5 (20230430.1635)
 -->
<!-- Title: /Users/ugovaretto/projects/s3client/lib/include/response_parser.h Pages: 1 -->
<svg width="150pt" height="194pt"
 viewBox="0.00 0.00 150.00 194.00" xmlns="http://www.w3.org/2000/svg" xmlns:xlink="http://www.w3.org/1999/xlink">
<g id="graph0" class="graph" transform="scale(1 1) rotate(0) translate(4 190)">
<title>/Users/ugovaretto/projects/s3client/lib/include/response_parser.h</title>
<!-- Node1 -->
<g id="node1" class="node">
<title>Node1</title>
<g id="a_node1"><a xlink:title="Functions to parse XML and HTTP headers.">
<polygon fill="#999999" stroke="#666666" points="142,-186 0,-186 0,-144.25 142,-144.25 142,-186"/>
<text text-anchor="start" x="8" y="-172.5" font-family="Helvetica,sans-Serif" font-size="10.00">/Users/ugovaretto/projects</text>
<text text-anchor="start" x="8" y="-161.25" font-family="Helvetica,sans-Serif" font-size="10.00">/s3client/lib/include/response</text>
<text text-anchor="middle" x="71" y="-150" font-family="Helvetica,sans-Serif" font-size="10.00">_parser.h</text>
</a>
</g>
</g>
<!-- Node2 -->
<g id="node2" class="node">
<title>Node2</title>
<g id="a_node2"><a xlink:href="s3-api_8h.html" target="_top" xlink:title="declarations of S3Client class;">
<polygon fill="white" stroke="#666666" points="139.38,-108.25 2.62,-108.25 2.62,-77.75 139.38,-77.75 139.38,-108.25"/>
<text text-anchor="start" x="10.62" y="-94.75" font-family="Helvetica,sans-Serif" font-size="10.00">/Users/ugovaretto/projects</text>
<text text-anchor="middle" x="71" y="-83.5" font-family="Helvetica,sans-Serif" font-size="10.00">/s3client/lib/include/s3&#45;api.h</text>
</a>
</g>
</g>
<!-- Node1&#45;&gt;Node2 -->
<g id="edge1" class="edge">
<title>Node1&#45;&gt;Node2</title>
<path fill="none" stroke="#63b8ff" d="M71,-132.96C71,-124.42 71,-115.56 71,-108.45"/>
<polygon fill="#63b8ff" stroke="#63b8ff" points="67.5,-132.84 71,-142.84 74.5,-132.84 67.5,-132.84"/>
</g>
<!-- Node3 -->
<g id="node3" class="node">
<title>Node3</title>
<g id="a_node3"><a xlink:href="bucket-test_8cpp.html" target="_top" xlink:title="bucket tests">
<polygon fill="white" stroke="#666666" points="136.75,-41.75 5.25,-41.75 5.25,0 136.75,0 136.75,-41.75"/>
<text text-anchor="start" x="13.25" y="-28.25" font-family="Helvetica,sans-Serif" font-size="10.00">/Users/ugovaretto/projects</text>
<text text-anchor="start" x="13.25" y="-17" font-family="Helvetica,sans-Serif" font-size="10.00">/s3client/test/api/bucket</text>
<text text-anchor="middle" x="71" y="-5.75" font-family="Helvetica,sans-Serif" font-size="10.00">&#45;test.cpp</text>
</a>
</g>
</g>
<!-- Node2&#45;&gt;Node3 -->
<g id="edge2" class="edge">
<title>Node2&#45;&gt;Node3</title>
<path fill="none" stroke="#63b8ff" d="M71,-66.5C71,-58.52 71,-49.82 71,-42.24"/>
<polygon fill="#63b8ff" stroke="#63b8ff" points="67.5,-66.47 71,-76.47 74.5,-66.47 67.5,-66.47"/>
</g>
</g>
</svg>
