<?xml version="1.0" encoding="UTF-8" standalone="no"?>
<!DOCTYPE svg PUBLIC "-//W3C//DTD SVG 1.1//EN"
 "http://www.w3.org/Graphics/SVG/1.1/DTD/svg11.dtd">
<!-- Generated by graphviz version 8.0.5 (20230430.1635)
 -->
<!-- Title: /Users/ugovaretto/projects/s3client/lib/include/s3&#45;client.h Pages: 1 -->
<!--zoomable 271 -->
<svg id="main" version="1.1" xmlns="http://www.w3.org/2000/svg" xmlns:xlink="http://www.w3.org/1999/xlink" xml:space="preserve" onload="init(evt)">
<style type="text/css"><![CDATA[
.edge:hover path { stroke: red; }
.edge:hover polygon { stroke: red; fill: red; }
]]></style>
<script type="text/javascript"><![CDATA[
var edges = document.getElementsByTagName('g');
if (edges && edges.length) {
  for (var i=0;i<edges.length;i++) {
    if (edges[i].id.substr(0,4)=='edge') {
      edges[i].setAttribute('class','edge');
    }
  }
}
]]></script>
        <defs>
                <circle id="rim" cx="0" cy="0" r="7"/>
                <circle id="rim2" cx="0" cy="0" r="3.5"/>
                <g id="zoomPlus">
                        <use xlink:href="#rim" fill="#404040">
                                <set attributeName="fill" to="#808080" begin="zoomplus.mouseover" end="zoomplus.mouseout"/>
                        </use>
                        <path d="M-4,0h8M0,-4v8" fill="none" stroke="white" stroke-width="1.5" pointer-events="none"/>
                </g>
                <g id="zoomMin">
                        <use xlink:href="#rim" fill="#404040">
                                <set attributeName="fill" to="#808080" begin="zoomminus.mouseover" end="zoomminus.mouseout"/>
                        </use>
                        <path d="M-4,0h8" fill="none" stroke="white" stroke-width="1.5" pointer-events="none"/>
                </g>
                <g id="dirArrow">
                        <path fill="none" stroke="white" stroke-width="1.5" d="M0,-3.0v7 M-2.5,-0.5L0,-3.0L2.5,-0.5"/>
                </g>
               <g id="resetDef">
                       <use xlink:href="#rim2" fill="#404040">
                               <set attributeName="fill" to="#808080" begin="reset.mouseover" end="reset.mouseout"/>
                       </use>
               </g>
        </defs>

<script type="text/javascript">
var viewWidth = 667;
var viewHeight = 271;
var sectionId = 'dynsection-0';
</script>
<script xlink:href="svgpan.js"/>
<svg id="graph" class="graph">
<g id="viewport">
<title>/Users/ugovaretto/projects/s3client/lib/include/s3&#45;client.h</title>
<!-- Node1 -->
<g id="node1" class="node">
<title>Node1</title>
<g id="a_node1"><a xlink:title="declaration of functions and data types for sending S3 requests, signing URLs and downloading and upl...">
<polygon fill="#999999" stroke="#666666" points="131.5,-262.75 0,-262.75 0,-221 131.5,-221 131.5,-262.75"/>
<text text-anchor="start" x="8" y="-249.25" font-family="Helvetica,sans-Serif" font-size="10.00">/Users/ugovaretto/projects</text>
<text text-anchor="start" x="8" y="-238" font-family="Helvetica,sans-Serif" font-size="10.00">/s3client/lib/include/s3</text>
<text text-anchor="middle" x="65.75" y="-226.75" font-family="Helvetica,sans-Serif" font-size="10.00">&#45;client.h</text>
</a>
</g>
</g>
<!-- Node2 -->
<g id="node2" class="node">
<title>Node2</title>
<g id="a_node2"><a xlink:href="aws__sign_8h.html" target="_top" xlink:title="Public interface to signing URLs and HTTP headers with the S3v4 protocol standard.">
<polygon fill="white" stroke="#666666" points="98.5,-185 33,-185 33,-165.75 98.5,-165.75 98.5,-185"/>
<text text-anchor="middle" x="65.75" y="-171.5" font-family="Helvetica,sans-Serif" font-size="10.00">aws_sign.h</text>
</a>
</g>
</g>
<!-- Node1&#45;&gt;Node2 -->
<g id="edge1" class="edge">
<title>Node1&#45;&gt;Node2</title>
<path fill="none" stroke="#63b8ff" d="M65.75,-220.82C65.75,-213.05 65.75,-204.18 65.75,-196.42"/>
<polygon fill="#63b8ff" stroke="#63b8ff" points="69.25,-196.45 65.75,-186.45 62.25,-196.45 69.25,-196.45"/>
</g>
<!-- Node3 -->
<g id="node3" class="node">
<title>Node3</title>
<g id="a_node3"><a xlink:href="common_8h.html" target="_top" xlink:title="Common definitions.">
<polygon fill="white" stroke="#666666" points="117.62,-74.5 55.88,-74.5 55.88,-55.25 117.62,-55.25 117.62,-74.5"/>
<text text-anchor="middle" x="86.75" y="-61" font-family="Helvetica,sans-Serif" font-size="10.00">common.h</text>
</a>
</g>
</g>
<!-- Node1&#45;&gt;Node3 -->
<g id="edge18" class="edge">
<title>Node1&#45;&gt;Node3</title>
<path fill="none" stroke="#63b8ff" d="M43.84,-220.65C30.86,-206.14 17.98,-185.7 23.75,-165.75 33,-133.74 55.9,-102.11 71.39,-83.29"/>
<polygon fill="#63b8ff" stroke="#63b8ff" points="74.7,-85.8 78.5,-75.91 69.37,-81.27 74.7,-85.8"/>
</g>
<!-- Node5 -->
<g id="node5" class="node">
<title>Node5</title>
<g id="a_node5"><a xlink:title=" ">
<polygon fill="#e0e0e0" stroke="#999999" points="77.75,-19.25 37.75,-19.25 37.75,0 77.75,0 77.75,-19.25"/>
<text text-anchor="middle" x="57.75" y="-5.75" font-family="Helvetica,sans-Serif" font-size="10.00">string</text>
</a>
</g>
</g>
<!-- Node1&#45;&gt;Node5 -->
<g id="edge31" class="edge">
<title>Node1&#45;&gt;Node5</title>
<path fill="none" stroke="#63b8ff" d="M43.34,-220.65C33.9,-210.83 23.73,-198.3 17.75,-185 -2.56,-139.79 6.09,-123.95 2.75,-74.5 2.17,-65.96 -0.93,-62.97 2.75,-55.25 8.64,-42.89 19.82,-32.83 30.56,-25.42"/>
<polygon fill="#63b8ff" stroke="#63b8ff" points="32.18,-27.91 38.75,-19.6 28.43,-21.99 32.18,-27.91"/>
</g>
<!-- Node9 -->
<g id="node9" class="node">
<title>Node9</title>
<g id="a_node9"><a xlink:title=" ">
<polygon fill="#e0e0e0" stroke="#999999" points="576.25,-74.5 533.25,-74.5 533.25,-55.25 576.25,-55.25 576.25,-74.5"/>
<text text-anchor="middle" x="554.75" y="-61" font-family="Helvetica,sans-Serif" font-size="10.00">vector</text>
</a>
</g>
</g>
<!-- Node1&#45;&gt;Node9 -->
<g id="edge32" class="edge">
<title>Node1&#45;&gt;Node9</title>
<path fill="none" stroke="#63b8ff" d="M132,-238.57C271.5,-232.19 588.1,-209.09 653.75,-129.75 676.18,-102.64 623.77,-83.12 586.96,-73.24"/>
<polygon fill="#63b8ff" stroke="#63b8ff" points="588.16,-69.67 577.61,-70.59 586.43,-76.46 588.16,-69.67"/>
</g>
<!-- Node13 -->
<g id="node13" class="node">
<title>Node13</title>
<g id="a_node13"><a xlink:href="webclient_8h.html" target="_top" xlink:title="declaration of WebClient class wrapping libcurl to send web requests.">
<polygon fill="white" stroke="#666666" points="354.5,-185 289,-185 289,-165.75 354.5,-165.75 354.5,-185"/>
<text text-anchor="middle" x="321.75" y="-171.5" font-family="Helvetica,sans-Serif" font-size="10.00">webclient.h</text>
</a>
</g>
</g>
<!-- Node1&#45;&gt;Node13 -->
<g id="edge19" class="edge">
<title>Node1&#45;&gt;Node13</title>
<path fill="none" stroke="#63b8ff" d="M131.68,-224.26C177.68,-212.67 237.8,-197.53 277.99,-187.4"/>
<polygon fill="#63b8ff" stroke="#63b8ff" points="278.67,-190.59 287.51,-184.75 276.96,-183.8 278.67,-190.59"/>
</g>
<!-- Node2&#45;&gt;Node3 -->
<g id="edge2" class="edge">
<title>Node2&#45;&gt;Node3</title>
<path fill="none" stroke="#63b8ff" d="M67.47,-165.5C70.84,-148.09 78.38,-109.12 82.97,-85.41"/>
<polygon fill="#63b8ff" stroke="#63b8ff" points="86.54,-86.36 85.01,-75.88 79.67,-85.03 86.54,-86.36"/>
</g>
<!-- Node2&#45;&gt;Node5 -->
<g id="edge17" class="edge">
<title>Node2&#45;&gt;Node5</title>
<path fill="none" stroke="#63b8ff" d="M48.96,-165.32C36.68,-157.66 20.95,-145.42 13.75,-129.75 -0.08,-99.66 1.19,-85.89 13.75,-55.25 18.39,-43.93 27.45,-33.94 36.15,-26.3"/>
<polygon fill="#63b8ff" stroke="#63b8ff" points="37.99,-28.5 43.55,-19.48 33.58,-23.06 37.99,-28.5"/>
</g>
<!-- Node6 -->
<g id="node6" class="node">
<title>Node6</title>
<g id="a_node6"><a xlink:href="url__utility_8h.html" target="_top" xlink:title="Internal utility functions to process and parse text and URLs and create S3 signature keys.">
<polygon fill="white" stroke="#666666" points="193.62,-129.75 131.88,-129.75 131.88,-110.5 193.62,-110.5 193.62,-129.75"/>
<text text-anchor="middle" x="162.75" y="-116.25" font-family="Helvetica,sans-Serif" font-size="10.00">url_utility.h</text>
</a>
</g>
</g>
<!-- Node2&#45;&gt;Node6 -->
<g id="edge5" class="edge">
<title>Node2&#45;&gt;Node6</title>
<path fill="none" stroke="#63b8ff" d="M82.2,-165.34C97.12,-157.16 119.34,-144.96 136.67,-135.44"/>
<polygon fill="#63b8ff" stroke="#63b8ff" points="138.13,-138.08 145.21,-130.2 134.76,-131.95 138.13,-138.08"/>
</g>
<!-- Node4 -->
<g id="node4" class="node">
<title>Node4</title>
<g id="a_node4"><a xlink:title=" ">
<polygon fill="#e0e0e0" stroke="#999999" points="273.12,-19.25 238.38,-19.25 238.38,0 273.12,0 273.12,-19.25"/>
<text text-anchor="middle" x="255.75" y="-5.75" font-family="Helvetica,sans-Serif" font-size="10.00">map</text>
</a>
</g>
</g>
<!-- Node3&#45;&gt;Node4 -->
<g id="edge3" class="edge">
<title>Node3&#45;&gt;Node4</title>
<path fill="none" stroke="#63b8ff" d="M115.42,-54.84C146.92,-44.91 197.17,-29.08 228.22,-19.3"/>
<polygon fill="#63b8ff" stroke="#63b8ff" points="228.85,-22.45 237.34,-16.11 226.75,-15.78 228.85,-22.45"/>
</g>
<!-- Node3&#45;&gt;Node5 -->
<g id="edge4" class="edge">
<title>Node3&#45;&gt;Node5</title>
<path fill="none" stroke="#63b8ff" d="M81.96,-55.08C78.12,-48.03 72.6,-37.9 67.8,-29.08"/>
<polygon fill="#63b8ff" stroke="#63b8ff" points="70.5,-27.72 62.64,-20.61 64.35,-31.07 70.5,-27.72"/>
</g>
<!-- Node6&#45;&gt;Node3 -->
<g id="edge11" class="edge">
<title>Node6&#45;&gt;Node3</title>
<path fill="none" stroke="#63b8ff" d="M149.86,-110.09C138.5,-102.14 121.73,-90.39 108.34,-81"/>
<polygon fill="#63b8ff" stroke="#63b8ff" points="110.9,-77.82 100.71,-74.95 106.89,-83.56 110.9,-77.82"/>
</g>
<!-- Node6&#45;&gt;Node4 -->
<g id="edge8" class="edge">
<title>Node6&#45;&gt;Node4</title>
<path fill="none" stroke="#63b8ff" d="M186.99,-110.02C203.27,-102.73 223.99,-90.99 236.75,-74.5 246.72,-61.62 251.47,-43.59 253.73,-29.97"/>
<polygon fill="#63b8ff" stroke="#63b8ff" points="257.29,-30.75 255.14,-20.38 250.35,-29.83 257.29,-30.75"/>
</g>
<!-- Node6&#45;&gt;Node5 -->
<g id="edge9" class="edge">
<title>Node6&#45;&gt;Node5</title>
<path fill="none" stroke="#63b8ff" d="M159.44,-110.43C154.12,-97.29 142.63,-72.12 126.75,-55.25 115.19,-42.96 99.58,-32.5 86.13,-24.8"/>
<polygon fill="#63b8ff" stroke="#63b8ff" points="88.26,-21.43 77.81,-19.7 84.9,-27.57 88.26,-21.43"/>
</g>
<!-- Node7 -->
<g id="node7" class="node">
<title>Node7</title>
<g id="a_node7"><a xlink:title=" ">
<polygon fill="#e0e0e0" stroke="#999999" points="399.62,-19.25 343.88,-19.25 343.88,0 399.62,0 399.62,-19.25"/>
<text text-anchor="middle" x="371.75" y="-5.75" font-family="Helvetica,sans-Serif" font-size="10.00">algorithm</text>
</a>
</g>
</g>
<!-- Node6&#45;&gt;Node7 -->
<g id="edge6" class="edge">
<title>Node6&#45;&gt;Node7</title>
<path fill="none" stroke="#63b8ff" d="M182.5,-110.04C201.44,-101.24 230.75,-87.37 255.75,-74.5 287.45,-58.19 323.3,-38.2 346.65,-24.98"/>
<polygon fill="#63b8ff" stroke="#63b8ff" points="348.17,-27.57 355.14,-19.58 344.72,-21.48 348.17,-27.57"/>
</g>
<!-- Node8 -->
<g id="node8" class="node">
<title>Node8</title>
<g id="a_node8"><a xlink:title=" ">
<polygon fill="#e0e0e0" stroke="#999999" points="227.5,-74.5 174,-74.5 174,-55.25 227.5,-55.25 227.5,-74.5"/>
<text text-anchor="middle" x="200.75" y="-61" font-family="Helvetica,sans-Serif" font-size="10.00">iostream</text>
</a>
</g>
</g>
<!-- Node6&#45;&gt;Node8 -->
<g id="edge7" class="edge">
<title>Node6&#45;&gt;Node8</title>
<path fill="none" stroke="#63b8ff" d="M169.02,-110.33C174.16,-103.13 181.6,-92.71 187.99,-83.76"/>
<polygon fill="#63b8ff" stroke="#63b8ff" points="191.38,-86.03 194.34,-75.86 185.68,-81.97 191.38,-86.03"/>
</g>
<!-- Node6&#45;&gt;Node9 -->
<g id="edge10" class="edge">
<title>Node6&#45;&gt;Node9</title>
<path fill="none" stroke="#63b8ff" d="M193.71,-112.17C196.76,-111.57 199.81,-111 202.75,-110.5 263.97,-100.04 447.15,-78.37 522.17,-69.64"/>
<polygon fill="#63b8ff" stroke="#63b8ff" points="522.3,-73.03 531.83,-68.4 521.5,-66.08 522.3,-73.03"/>
</g>
<!-- Node10 -->
<g id="node10" class="node">
<title>Node10</title>
<g id="a_node10"><a xlink:href="lib_2include_2utility_8h.html" target="_top" xlink:title="internal utility functions">
<polygon fill="white" stroke="#666666" points="463.75,-74.5 417.75,-74.5 417.75,-55.25 463.75,-55.25 463.75,-74.5"/>
<text text-anchor="middle" x="440.75" y="-61" font-family="Helvetica,sans-Serif" font-size="10.00">utility.h</text>
</a>
</g>
</g>
<!-- Node6&#45;&gt;Node10 -->
<g id="edge12" class="edge">
<title>Node6&#45;&gt;Node10</title>
<path fill="none" stroke="#63b8ff" d="M193.74,-112.33C196.78,-111.7 199.82,-111.08 202.75,-110.5 291.79,-92.93 314.86,-92.81 403.75,-74.5 404.71,-74.3 405.69,-74.1 406.67,-73.89"/>
<polygon fill="#63b8ff" stroke="#63b8ff" points="407.3,-77.11 416.3,-71.53 405.78,-70.28 407.3,-77.11"/>
</g>
<!-- Node10&#45;&gt;Node5 -->
<g id="edge15" class="edge">
<title>Node10&#45;&gt;Node5</title>
<path fill="none" stroke="#63b8ff" d="M417.37,-60.62C351.25,-51.43 162.92,-25.25 88.52,-14.9"/>
<polygon fill="#63b8ff" stroke="#63b8ff" points="89.39,-11.35 79,-13.44 88.42,-18.28 89.39,-11.35"/>
</g>
<!-- Node10&#45;&gt;Node7 -->
<g id="edge13" class="edge">
<title>Node10&#45;&gt;Node7</title>
<path fill="none" stroke="#63b8ff" d="M429.05,-54.84C418.87,-46.99 403.92,-35.45 391.83,-26.12"/>
<polygon fill="#63b8ff" stroke="#63b8ff" points="394.34,-22.86 384.28,-19.52 390.06,-28.41 394.34,-22.86"/>
</g>
<!-- Node11 -->
<g id="node11" class="node">
<title>Node11</title>
<g id="a_node11"><a xlink:title=" ">
<polygon fill="#e0e0e0" stroke="#999999" points="575.75,-19.25 517.75,-19.25 517.75,0 575.75,0 575.75,-19.25"/>
<text text-anchor="middle" x="546.75" y="-5.75" font-family="Helvetica,sans-Serif" font-size="10.00">functional</text>
</a>
</g>
</g>
<!-- Node10&#45;&gt;Node11 -->
<g id="edge14" class="edge">
<title>Node10&#45;&gt;Node11</title>
<path fill="none" stroke="#63b8ff" d="M458.73,-54.84C475.25,-46.54 500,-34.11 519.04,-24.54"/>
<polygon fill="#63b8ff" stroke="#63b8ff" points="520.32,-27.32 527.68,-19.7 517.17,-21.06 520.32,-27.32"/>
</g>
<!-- Node12 -->
<g id="node12" class="node">
<title>Node12</title>
<g id="a_node12"><a xlink:title=" ">
<polygon fill="#e0e0e0" stroke="#999999" points="500.12,-19.25 417.38,-19.25 417.38,0 500.12,0 500.12,-19.25"/>
<text text-anchor="middle" x="458.75" y="-5.75" font-family="Helvetica,sans-Serif" font-size="10.00">unordered_map</text>
</a>
</g>
</g>
<!-- Node10&#45;&gt;Node12 -->
<g id="edge16" class="edge">
<title>Node10&#45;&gt;Node12</title>
<path fill="none" stroke="#63b8ff" d="M443.72,-55.08C446.03,-48.26 449.31,-38.56 452.22,-29.95"/>
<polygon fill="#63b8ff" stroke="#63b8ff" points="455.83,-31.2 455.71,-20.61 449.2,-28.96 455.83,-31.2"/>
</g>
<!-- Node13&#45;&gt;Node3 -->
<g id="edge28" class="edge">
<title>Node13&#45;&gt;Node3</title>
<path fill="none" stroke="#63b8ff" d="M288.8,-174.88C246.36,-173.91 172.2,-166.5 122.75,-129.75 107.92,-118.73 98.33,-99.66 92.81,-85.22"/>
<polygon fill="#63b8ff" stroke="#63b8ff" points="95.81,-84.18 89.23,-75.88 89.19,-86.47 95.81,-84.18"/>
</g>
<!-- Node13&#45;&gt;Node4 -->
<g id="edge24" class="edge">
<title>Node13&#45;&gt;Node4</title>
<path fill="none" stroke="#63b8ff" d="M342.33,-165.39C364.52,-154.29 395.21,-133.97 383.75,-110.5 362.98,-67.94 314.34,-38.23 283.36,-22.83"/>
<polygon fill="#63b8ff" stroke="#63b8ff" points="285.13,-19.32 274.59,-18.16 282.1,-25.63 285.13,-19.32"/>
</g>
<!-- Node13&#45;&gt;Node5 -->
<g id="edge26" class="edge">
<title>Node13&#45;&gt;Node5</title>
<path fill="none" stroke="#63b8ff" d="M288.61,-173.69C243.5,-171.46 161.44,-162.75 100.75,-129.75 70.58,-113.35 59.71,-106.3 46.75,-74.5 40.9,-60.15 44.53,-42.76 49.12,-29.75"/>
<polygon fill="#63b8ff" stroke="#63b8ff" points="52.71,-31.22 53.2,-20.64 46.22,-28.6 52.71,-31.22"/>
</g>
<!-- Node13&#45;&gt;Node6 -->
<g id="edge29" class="edge">
<title>Node13&#45;&gt;Node6</title>
<path fill="none" stroke="#63b8ff" d="M294.78,-165.34C268.74,-156.62 229.09,-143.34 200.03,-133.61"/>
<polygon fill="#63b8ff" stroke="#63b8ff" points="201.45,-130.06 190.85,-130.2 199.23,-136.7 201.45,-130.06"/>
</g>
<!-- Node13&#45;&gt;Node9 -->
<g id="edge27" class="edge">
<title>Node13&#45;&gt;Node9</title>
<path fill="none" stroke="#63b8ff" d="M354.74,-171.59C408.03,-166.44 509.7,-153.71 535.75,-129.75 547.99,-118.49 552.48,-99.74 554.05,-85.45"/>
<polygon fill="#63b8ff" stroke="#63b8ff" points="557.6,-85.99 554.8,-75.77 550.61,-85.5 557.6,-85.99"/>
</g>
<!-- Node13&#45;&gt;Node10 -->
<g id="edge30" class="edge">
<title>Node13&#45;&gt;Node10</title>
<path fill="none" stroke="#63b8ff" d="M354.63,-165.85C374.93,-159.08 400.19,-147.69 416.75,-129.75 428.06,-117.5 434.19,-99.41 437.42,-85.6"/>
<polygon fill="#63b8ff" stroke="#63b8ff" points="441.04,-86.32 439.56,-75.83 434.17,-84.95 441.04,-86.32"/>
</g>
<!-- Node14 -->
<g id="node14" class="node">
<title>Node14</title>
<g id="a_node14"><a xlink:title=" ">
<polygon fill="#e0e0e0" stroke="#999999" points="527.12,-129.75 468.38,-129.75 468.38,-110.5 527.12,-110.5 527.12,-129.75"/>
<text text-anchor="middle" x="497.75" y="-116.25" font-family="Helvetica,sans-Serif" font-size="10.00">curl/curl.h</text>
</a>
</g>
</g>
<!-- Node13&#45;&gt;Node14 -->
<g id="edge20" class="edge">
<title>Node13&#45;&gt;Node14</title>
<path fill="none" stroke="#63b8ff" d="M351.61,-165.34C380.77,-156.52 425.36,-143.03 457.62,-133.27"/>
<polygon fill="#63b8ff" stroke="#63b8ff" points="458.48,-136.36 467.04,-130.11 456.46,-129.66 458.48,-136.36"/>
</g>
<!-- Node15 -->
<g id="node15" class="node">
<title>Node15</title>
<g id="a_node15"><a xlink:title=" ">
<polygon fill="#e0e0e0" stroke="#999999" points="645,-129.75 582.5,-129.75 582.5,-110.5 645,-110.5 645,-129.75"/>
<text text-anchor="middle" x="613.75" y="-116.25" font-family="Helvetica,sans-Serif" font-size="10.00">curl/easy.h</text>
</a>
</g>
</g>
<!-- Node13&#45;&gt;Node15 -->
<g id="edge21" class="edge">
<title>Node13&#45;&gt;Node15</title>
<path fill="none" stroke="#63b8ff" d="M354.93,-168.5C402.36,-160.07 492.28,-143.99 568.75,-129.75 569.71,-129.57 570.68,-129.39 571.65,-129.21"/>
<polygon fill="#63b8ff" stroke="#63b8ff" points="572.11,-132.49 581.29,-127.2 570.81,-125.62 572.11,-132.49"/>
</g>
<!-- Node16 -->
<g id="node16" class="node">
<title>Node16</title>
<g id="a_node16"><a xlink:title=" ">
<polygon fill="#e0e0e0" stroke="#999999" points="249.62,-129.75 211.88,-129.75 211.88,-110.5 249.62,-110.5 249.62,-129.75"/>
<text text-anchor="middle" x="230.75" y="-116.25" font-family="Helvetica,sans-Serif" font-size="10.00">array</text>
</a>
</g>
</g>
<!-- Node13&#45;&gt;Node16 -->
<g id="edge22" class="edge">
<title>Node13&#45;&gt;Node16</title>
<path fill="none" stroke="#63b8ff" d="M306.31,-165.34C292.46,-157.23 271.86,-145.18 255.67,-135.71"/>
<polygon fill="#63b8ff" stroke="#63b8ff" points="257.66,-132.23 247.26,-130.2 254.13,-138.27 257.66,-132.23"/>
</g>
<!-- Node17 -->
<g id="node17" class="node">
<title>Node17</title>
<g id="a_node17"><a xlink:title=" ">
<polygon fill="#e0e0e0" stroke="#999999" points="313.38,-129.75 268.12,-129.75 268.12,-110.5 313.38,-110.5 313.38,-129.75"/>
<text text-anchor="middle" x="290.75" y="-116.25" font-family="Helvetica,sans-Serif" font-size="10.00">atomic</text>
</a>
</g>
</g>
<!-- Node13&#45;&gt;Node17 -->
<g id="edge23" class="edge">
<title>Node13&#45;&gt;Node17</title>
<path fill="none" stroke="#63b8ff" d="M316.63,-165.58C312.53,-158.53 306.63,-148.4 301.5,-139.58"/>
<polygon fill="#63b8ff" stroke="#63b8ff" points="304.04,-137.99 295.98,-131.11 297.99,-141.51 304.04,-137.99"/>
</g>
<!-- Node18 -->
<g id="node18" class="node">
<title>Node18</title>
<g id="a_node18"><a xlink:title=" ">
<polygon fill="#e0e0e0" stroke="#999999" points="374.25,-129.75 331.25,-129.75 331.25,-110.5 374.25,-110.5 374.25,-129.75"/>
<text text-anchor="middle" x="352.75" y="-116.25" font-family="Helvetica,sans-Serif" font-size="10.00">mutex</text>
</a>
</g>
</g>
<!-- Node13&#45;&gt;Node18 -->
<g id="edge25" class="edge">
<title>Node13&#45;&gt;Node18</title>
<path fill="none" stroke="#63b8ff" d="M326.87,-165.58C330.97,-158.53 336.87,-148.4 342,-139.58"/>
<polygon fill="#63b8ff" stroke="#63b8ff" points="345.51,-141.51 347.52,-131.11 339.46,-137.99 345.51,-141.51"/>
</g>
</g>
</svg>
        <g id="navigator" transform="translate(0 0)" fill="#404254">
                <rect fill="#f2f5e9" fill-opacity="0.5" stroke="#606060" stroke-width=".5" x="0" y="0" width="60" height="60"/>
                <use id="zoomplus" xlink:href="#zoomPlus" x="17" y="9" onmousedown="handleZoom(evt,'in')"/>
                <use id="zoomminus" xlink:href="#zoomMin" x="42" y="9" onmousedown="handleZoom(evt,'out')"/>
                <use id="reset" xlink:href="#resetDef" x="30" y="36" onmousedown="handleReset()"/>
                <g id="arrowUp" xlink:href="#dirArrow" transform="translate(30 24)" onmousedown="handlePan(0,-1)">
                  <use xlink:href="#rim" fill="#404040">
                        <set attributeName="fill" to="#808080" begin="arrowUp.mouseover" end="arrowUp.mouseout"/>
                  </use>
                  <path fill="none" stroke="white" stroke-width="1.5" d="M0,-3.0v7 M-2.5,-0.5L0,-3.0L2.5,-0.5"/>
                </g>
                <g id="arrowRight" xlink:href="#dirArrow" transform="rotate(90) translate(36 -43)" onmousedown="handlePan(1,0)">
                  <use xlink:href="#rim" fill="#404040">
                        <set attributeName="fill" to="#808080" begin="arrowRight.mouseover" end="arrowRight.mouseout"/>
                  </use>
                  <path fill="none" stroke="white" stroke-width="1.5" d="M0,-3.0v7 M-2.5,-0.5L0,-3.0L2.5,-0.5"/>
                </g>
                <g id="arrowDown" xlink:href="#dirArrow" transform="rotate(180) translate(-30 -48)" onmousedown="handlePan(0,1)">
                  <use xlink:href="#rim" fill="#404040">
                        <set attributeName="fill" to="#808080" begin="arrowDown.mouseover" end="arrowDown.mouseout"/>
                  </use>
                  <path fill="none" stroke="white" stroke-width="1.5" d="M0,-3.0v7 M-2.5,-0.5L0,-3.0L2.5,-0.5"/>
                </g>
                <g id="arrowLeft" xlink:href="#dirArrow" transform="rotate(270) translate(-36 17)" onmousedown="handlePan(-1,0)">
                  <use xlink:href="#rim" fill="#404040">
                        <set attributeName="fill" to="#808080" begin="arrowLeft.mouseover" end="arrowLeft.mouseout"/>
                  </use>
                  <path fill="none" stroke="white" stroke-width="1.5" d="M0,-3.0v7 M-2.5,-0.5L0,-3.0L2.5,-0.5"/>
                </g>
        </g>
        <svg viewBox="0 0 15 15" width="100%" height="30px" preserveAspectRatio="xMaxYMin meet">
         <g id="arrow_out" transform="scale(0.3 0.3)">
          <a xlink:href="s3-client_8h__incl_org.svg" target="_base">
           <rect id="button" ry="5" rx="5" y="6" x="6" height="38" width="38"
                fill="#f2f5e9" fill-opacity="0.5" stroke="#606060" stroke-width="1.0"/>
           <path id="arrow"
             d="M 11.500037,31.436501 C 11.940474,20.09759 22.043105,11.32322 32.158766,21.979434 L 37.068811,17.246167 C 37.068811,17.246167 37.088388,32 37.088388,32 L 22.160133,31.978069 C 22.160133,31.978069 26.997745,27.140456 26.997745,27.140456 C 18.528582,18.264221 13.291696,25.230495 11.500037,31.436501 z"
             style="fill:#404040;"/>
          </a>
         </g>
        </svg>
</svg>
