<?xml version="1.0" encoding="UTF-8" standalone="no"?>
<!DOCTYPE svg PUBLIC "-//W3C//DTD SVG 1.1//EN"
 "http://www.w3.org/Graphics/SVG/1.1/DTD/svg11.dtd">
<!-- Generated by graphviz version 8.0.5 (20230430.1635)
 -->
<!-- Title: /Users/ugovaretto/projects/s3client/lib/include/s3&#45;client.h Pages: 1 -->
<svg width="612pt" height="205pt"
 viewBox="0.00 0.00 612.12 205.25" xmlns="http://www.w3.org/2000/svg" xmlns:xlink="http://www.w3.org/1999/xlink">
<g id="graph0" class="graph" transform="scale(1 1) rotate(0) translate(4 201.25)">
<title>/Users/ugovaretto/projects/s3client/lib/include/s3&#45;client.h</title>
<!-- Node1 -->
<g id="node1" class="node">
<title>Node1</title>
<g id="a_node1"><a xlink:title="declaration of functions and data types for sending S3 requests, signing URLs and downloading and upl...">
<polygon fill="#999999" stroke="#666666" points="367.5,-197.25 236,-197.25 236,-155.5 367.5,-155.5 367.5,-197.25"/>
<text text-anchor="start" x="244" y="-183.75" font-family="Helvetica,sans-Serif" font-size="10.00">/Users/ugovaretto/projects</text>
<text text-anchor="start" x="244" y="-172.5" font-family="Helvetica,sans-Serif" font-size="10.00">/s3client/lib/include/s3</text>
<text text-anchor="middle" x="301.75" y="-161.25" font-family="Helvetica,sans-Serif" font-size="10.00">&#45;client.h</text>
</a>
</g>
</g>
<!-- Node2 -->
<g id="node2" class="node">
<title>Node2</title>
<g id="a_node2"><a xlink:href="parallel__upload_8cpp.html" target="_top" xlink:title="Parallel upload to S3 service.">
<polygon fill="white" stroke="#666666" points="131.5,-119.5 0,-119.5 0,-77.75 131.5,-77.75 131.5,-119.5"/>
<text text-anchor="start" x="8" y="-106" font-family="Helvetica,sans-Serif" font-size="10.00">/Users/ugovaretto/projects</text>
<text text-anchor="start" x="8" y="-94.75" font-family="Helvetica,sans-Serif" font-size="10.00">/s3client/apps/parallel</text>
<text text-anchor="middle" x="65.75" y="-83.5" font-family="Helvetica,sans-Serif" font-size="10.00">_upload.cpp</text>
</a>
</g>
</g>
<!-- Node1&#45;&gt;Node2 -->
<g id="edge1" class="edge">
<title>Node1&#45;&gt;Node2</title>
<path fill="none" stroke="#63b8ff" d="M228.38,-151.82C196.6,-141.62 159.75,-129.8 129.17,-119.98"/>
<polygon fill="#63b8ff" stroke="#63b8ff" points="226.92,-155.35 237.51,-155.08 229.05,-148.69 226.92,-155.35"/>
</g>
<!-- Node3 -->
<g id="node3" class="node">
<title>Node3</title>
<g id="a_node3"><a xlink:href="presign__url_8cpp.html" target="_top" xlink:title="Presign URL.">
<polygon fill="white" stroke="#666666" points="295.62,-113.88 149.88,-113.88 149.88,-83.38 295.62,-83.38 295.62,-113.88"/>
<text text-anchor="start" x="157.88" y="-100.38" font-family="Helvetica,sans-Serif" font-size="10.00">/Users/ugovaretto/projects</text>
<text text-anchor="middle" x="222.75" y="-89.12" font-family="Helvetica,sans-Serif" font-size="10.00">/s3client/apps/presign_url.cpp</text>
</a>
</g>
</g>
<!-- Node1&#45;&gt;Node3 -->
<g id="edge2" class="edge">
<title>Node1&#45;&gt;Node3</title>
<path fill="none" stroke="#63b8ff" d="M272.98,-147.79C261.03,-136.33 247.66,-123.51 237.72,-113.98"/>
<polygon fill="#63b8ff" stroke="#63b8ff" points="269.94,-149.68 279.58,-154.08 274.78,-144.63 269.94,-149.68"/>
</g>
<!-- Node4 -->
<g id="node4" class="node">
<title>Node4</title>
<g id="a_node4"><a xlink:href="apps_2s3-client_8cpp.html" target="_top" xlink:title="Send S3v4&#45;signed requests to S3 andpoint and print raw responses.">
<polygon fill="white" stroke="#666666" points="449.38,-113.88 314.12,-113.88 314.12,-83.38 449.38,-83.38 449.38,-113.88"/>
<text text-anchor="start" x="322.12" y="-100.38" font-family="Helvetica,sans-Serif" font-size="10.00">/Users/ugovaretto/projects</text>
<text text-anchor="middle" x="381.75" y="-89.12" font-family="Helvetica,sans-Serif" font-size="10.00">/s3client/apps/s3&#45;client.cpp</text>
</a>
</g>
</g>
<!-- Node1&#45;&gt;Node4 -->
<g id="edge3" class="edge">
<title>Node1&#45;&gt;Node4</title>
<path fill="none" stroke="#63b8ff" d="M331.17,-147.51C343.1,-136.22 356.38,-123.64 366.34,-114.21"/>
<polygon fill="#63b8ff" stroke="#63b8ff" points="329.04,-144.66 324.19,-154.08 333.86,-149.74 329.04,-144.66"/>
</g>
<!-- Node5 -->
<g id="node5" class="node">
<title>Node5</title>
<g id="a_node5"><a xlink:href="s3-api_8h.html" target="_top" xlink:title="declarations of S3Client class;">
<polygon fill="white" stroke="#666666" points="604.12,-113.88 467.38,-113.88 467.38,-83.38 604.12,-83.38 604.12,-113.88"/>
<text text-anchor="start" x="475.38" y="-100.38" font-family="Helvetica,sans-Serif" font-size="10.00">/Users/ugovaretto/projects</text>
<text text-anchor="middle" x="535.75" y="-89.12" font-family="Helvetica,sans-Serif" font-size="10.00">/s3client/lib/include/s3&#45;api.h</text>
</a>
</g>
</g>
<!-- Node1&#45;&gt;Node5 -->
<g id="edge4" class="edge">
<title>Node1&#45;&gt;Node5</title>
<path fill="none" stroke="#63b8ff" d="M374.91,-151.69C412.67,-139.47 457.57,-124.93 490.31,-114.33"/>
<polygon fill="#63b8ff" stroke="#63b8ff" points="373.89,-148.67 365.46,-155.08 376.05,-155.33 373.89,-148.67"/>
</g>
<!-- Node6 -->
<g id="node6" class="node">
<title>Node6</title>
<g id="a_node6"><a xlink:href="bucket-test_8cpp.html" target="_top" xlink:title="bucket tests">
<polygon fill="white" stroke="#666666" points="601.5,-41.75 470,-41.75 470,0 601.5,0 601.5,-41.75"/>
<text text-anchor="start" x="478" y="-28.25" font-family="Helvetica,sans-Serif" font-size="10.00">/Users/ugovaretto/projects</text>
<text text-anchor="start" x="478" y="-17" font-family="Helvetica,sans-Serif" font-size="10.00">/s3client/test/api/bucket</text>
<text text-anchor="middle" x="535.75" y="-5.75" font-family="Helvetica,sans-Serif" font-size="10.00">&#45;test.cpp</text>
</a>
</g>
</g>
<!-- Node5&#45;&gt;Node6 -->
<g id="edge5" class="edge">
<title>Node5&#45;&gt;Node6</title>
<path fill="none" stroke="#63b8ff" d="M535.75,-72.28C535.75,-62.48 535.75,-51.42 535.75,-42.16"/>
<polygon fill="#63b8ff" stroke="#63b8ff" points="532.25,-72.02 535.75,-82.02 539.25,-72.02 532.25,-72.02"/>
</g>
</g>
</svg>
