<?xml version="1.0" encoding="UTF-8" standalone="no"?>
<!DOCTYPE svg PUBLIC "-//W3C//DTD SVG 1.1//EN"
 "http://www.w3.org/Graphics/SVG/1.1/DTD/svg11.dtd">
<!-- Generated by graphviz version 8.0.5 (20230430.1635)
 -->
<!-- Title: /Users/ugovaretto/projects/s3client/lib/hash/sha256.h Pages: 1 -->
<svg width="176pt" height="149pt"
 viewBox="0.00 0.00 175.88 149.00" xmlns="http://www.w3.org/2000/svg" xmlns:xlink="http://www.w3.org/1999/xlink">
<g id="graph0" class="graph" transform="scale(1 1) rotate(0) translate(4 145)">
<title>/Users/ugovaretto/projects/s3client/lib/hash/sha256.h</title>
<!-- Node1 -->
<g id="node1" class="node">
<title>Node1</title>
<g id="a_node1"><a xlink:title="declaration of SHA256 hash functions.">
<polygon fill="#999999" stroke="#666666" points="150.75,-141 18.5,-141 18.5,-110.5 150.75,-110.5 150.75,-141"/>
<text text-anchor="start" x="26.5" y="-127.5" font-family="Helvetica,sans-Serif" font-size="10.00">/Users/ugovaretto/projects</text>
<text text-anchor="middle" x="84.62" y="-116.25" font-family="Helvetica,sans-Serif" font-size="10.00">/s3client/lib/hash/sha256.h</text>
</a>
</g>
</g>
<!-- Node2 -->
<g id="node2" class="node">
<title>Node2</title>
<g id="a_node2"><a xlink:href="lib_2hash_2utility_8h.html" target="_top" xlink:title="Declaration of utility functions for SHA256 hashing.">
<polygon fill="white" stroke="#666666" points="107.62,-74.5 61.62,-74.5 61.62,-55.25 107.62,-55.25 107.62,-74.5"/>
<text text-anchor="middle" x="84.62" y="-61" font-family="Helvetica,sans-Serif" font-size="10.00">utility.h</text>
</a>
</g>
</g>
<!-- Node1&#45;&gt;Node2 -->
<g id="edge1" class="edge">
<title>Node1&#45;&gt;Node2</title>
<path fill="none" stroke="#63b8ff" d="M84.62,-110.2C84.62,-102.87 84.62,-93.87 84.62,-85.91"/>
<polygon fill="#63b8ff" stroke="#63b8ff" points="88.13,-85.95 84.62,-75.95 81.13,-85.95 88.13,-85.95"/>
</g>
<!-- Node3 -->
<g id="node3" class="node">
<title>Node3</title>
<g id="a_node3"><a xlink:title=" ">
<polygon fill="#e0e0e0" stroke="#999999" points="45.25,-19.25 0,-19.25 0,0 45.25,0 45.25,-19.25"/>
<text text-anchor="middle" x="22.62" y="-5.75" font-family="Helvetica,sans-Serif" font-size="10.00">cstdint</text>
</a>
</g>
</g>
<!-- Node1&#45;&gt;Node3 -->
<g id="edge5" class="edge">
<title>Node1&#45;&gt;Node3</title>
<path fill="none" stroke="#63b8ff" d="M74.59,-110.1C68.01,-100.24 59.41,-86.82 52.62,-74.5 44.49,-59.72 36.43,-42.37 30.72,-29.48"/>
<polygon fill="#63b8ff" stroke="#63b8ff" points="33.56,-28.25 26.35,-20.48 27.14,-31.05 33.56,-28.25"/>
</g>
<!-- Node5 -->
<g id="node5" class="node">
<title>Node5</title>
<g id="a_node5"><a xlink:title=" ">
<polygon fill="#e0e0e0" stroke="#999999" points="167.88,-19.25 123.38,-19.25 123.38,0 167.88,0 167.88,-19.25"/>
<text text-anchor="middle" x="145.62" y="-5.75" font-family="Helvetica,sans-Serif" font-size="10.00">cstdlib</text>
</a>
</g>
</g>
<!-- Node1&#45;&gt;Node5 -->
<g id="edge6" class="edge">
<title>Node1&#45;&gt;Node5</title>
<path fill="none" stroke="#63b8ff" d="M94.71,-110.13C101.31,-100.28 109.92,-86.87 116.62,-74.5 124.61,-59.76 132.4,-42.4 137.89,-29.5"/>
<polygon fill="#63b8ff" stroke="#63b8ff" points="141.44,-31.07 142.07,-20.49 134.98,-28.37 141.44,-31.07"/>
</g>
<!-- Node2&#45;&gt;Node3 -->
<g id="edge2" class="edge">
<title>Node2&#45;&gt;Node3</title>
<path fill="none" stroke="#63b8ff" d="M74.11,-54.84C65.15,-47.15 52.05,-35.9 41.31,-26.68"/>
<polygon fill="#63b8ff" stroke="#63b8ff" points="43.85,-23.39 33.99,-19.52 39.29,-28.7 43.85,-23.39"/>
</g>
<!-- Node4 -->
<g id="node4" class="node">
<title>Node4</title>
<g id="a_node4"><a xlink:title=" ">
<polygon fill="#e0e0e0" stroke="#999999" points="105.75,-19.25 63.5,-19.25 63.5,0 105.75,0 105.75,-19.25"/>
<text text-anchor="middle" x="84.62" y="-5.75" font-family="Helvetica,sans-Serif" font-size="10.00">cstdio</text>
</a>
</g>
</g>
<!-- Node2&#45;&gt;Node4 -->
<g id="edge3" class="edge">
<title>Node2&#45;&gt;Node4</title>
<path fill="none" stroke="#63b8ff" d="M84.62,-55.08C84.62,-48.42 84.62,-38.99 84.62,-30.53"/>
<polygon fill="#63b8ff" stroke="#63b8ff" points="88.13,-30.61 84.62,-20.61 81.13,-30.61 88.13,-30.61"/>
</g>
<!-- Node2&#45;&gt;Node5 -->
<g id="edge4" class="edge">
<title>Node2&#45;&gt;Node5</title>
<path fill="none" stroke="#63b8ff" d="M94.97,-54.84C103.79,-47.15 116.67,-35.9 127.24,-26.68"/>
<polygon fill="#63b8ff" stroke="#63b8ff" points="129.2,-28.74 134.43,-19.52 124.59,-23.46 129.2,-28.74"/>
</g>
</g>
</svg>
