<?xml version="1.0" encoding="UTF-8" standalone="no"?>
<!DOCTYPE svg PUBLIC "-//W3C//DTD SVG 1.1//EN"
 "http://www.w3.org/Graphics/SVG/1.1/DTD/svg11.dtd">
<!-- Generated by graphviz version 8.0.5 (20230430.1635)
 -->
<!-- Title: /Users/ugovaretto/projects/s3client/lib/hash/sha256.h Pages: 1 -->
<svg width="320pt" height="105pt"
 viewBox="0.00 0.00 319.88 105.00" xmlns="http://www.w3.org/2000/svg" xmlns:xlink="http://www.w3.org/1999/xlink">
<g id="graph0" class="graph" transform="scale(1 1) rotate(0) translate(4 101)">
<title>/Users/ugovaretto/projects/s3client/lib/hash/sha256.h</title>
<!-- Node1 -->
<g id="node1" class="node">
<title>Node1</title>
<g id="a_node1"><a xlink:title="declaration of SHA256 hash functions.">
<polygon fill="#999999" stroke="#666666" points="223.62,-97 91.38,-97 91.38,-66.5 223.62,-66.5 223.62,-97"/>
<text text-anchor="start" x="99.38" y="-83.5" font-family="Helvetica,sans-Serif" font-size="10.00">/Users/ugovaretto/projects</text>
<text text-anchor="middle" x="157.5" y="-72.25" font-family="Helvetica,sans-Serif" font-size="10.00">/s3client/lib/hash/sha256.h</text>
</a>
</g>
</g>
<!-- Node2 -->
<g id="node2" class="node">
<title>Node2</title>
<g id="a_node2"><a xlink:href="hmac256_8cpp.html" target="_top" xlink:title="implementation of HMAC hashing algorithm.">
<polygon fill="white" stroke="#666666" points="151,-30.5 0,-30.5 0,0 151,0 151,-30.5"/>
<text text-anchor="start" x="8" y="-17" font-family="Helvetica,sans-Serif" font-size="10.00">/Users/ugovaretto/projects</text>
<text text-anchor="middle" x="75.5" y="-5.75" font-family="Helvetica,sans-Serif" font-size="10.00">/s3client/lib/hash/hmac256.cpp</text>
</a>
</g>
</g>
<!-- Node1&#45;&gt;Node2 -->
<g id="edge1" class="edge">
<title>Node1&#45;&gt;Node2</title>
<path fill="none" stroke="#63b8ff" d="M130.57,-59.57C118.6,-50.16 104.82,-39.31 94.03,-30.83"/>
<polygon fill="#63b8ff" stroke="#63b8ff" points="127.87,-62.68 137.89,-66.11 132.2,-57.18 127.87,-62.68"/>
</g>
<!-- Node3 -->
<g id="node3" class="node">
<title>Node3</title>
<g id="a_node3"><a xlink:href="sha256_8cpp.html" target="_top" xlink:title="Implementation of SHA256 algorithm.">
<polygon fill="white" stroke="#666666" points="311.88,-30.5 169.12,-30.5 169.12,0 311.88,0 311.88,-30.5"/>
<text text-anchor="start" x="177.12" y="-17" font-family="Helvetica,sans-Serif" font-size="10.00">/Users/ugovaretto/projects</text>
<text text-anchor="middle" x="240.5" y="-5.75" font-family="Helvetica,sans-Serif" font-size="10.00">/s3client/lib/hash/sha256.cpp</text>
</a>
</g>
</g>
<!-- Node1&#45;&gt;Node3 -->
<g id="edge2" class="edge">
<title>Node1&#45;&gt;Node3</title>
<path fill="none" stroke="#63b8ff" d="M184.76,-59.57C196.87,-50.16 210.82,-39.31 221.74,-30.83"/>
<polygon fill="#63b8ff" stroke="#63b8ff" points="183.08,-57.21 177.33,-66.11 187.38,-62.74 183.08,-57.21"/>
</g>
</g>
</svg>
