<?xml version="1.0" encoding="UTF-8" standalone="no"?>
<!DOCTYPE svg PUBLIC "-//W3C//DTD SVG 1.1//EN"
 "http://www.w3.org/Graphics/SVG/1.1/DTD/svg11.dtd">
<!-- Generated by graphviz version 8.0.5 (20230430.1635)
 -->
<!-- Title: /Users/ugovaretto/projects/s3client/lib/include/url_utility.h Pages: 1 -->
<svg width="705pt" height="350pt"
 viewBox="0.00 0.00 705.25 349.50" xmlns="http://www.w3.org/2000/svg" xmlns:xlink="http://www.w3.org/1999/xlink">
<g id="graph0" class="graph" transform="scale(1 1) rotate(0) translate(4 345.5)">
<title>/Users/ugovaretto/projects/s3client/lib/include/url_utility.h</title>
<!-- Node1 -->
<g id="node1" class="node">
<title>Node1</title>
<g id="a_node1"><a xlink:title="Internal utility functions to process and parse text and URLs and create S3 signature keys.">
<polygon fill="#999999" stroke="#666666" points="345.5,-341.5 214,-341.5 214,-299.75 345.5,-299.75 345.5,-341.5"/>
<text text-anchor="start" x="222" y="-328" font-family="Helvetica,sans-Serif" font-size="10.00">/Users/ugovaretto/projects</text>
<text text-anchor="start" x="222" y="-316.75" font-family="Helvetica,sans-Serif" font-size="10.00">/s3client/lib/include/url</text>
<text text-anchor="middle" x="279.75" y="-305.5" font-family="Helvetica,sans-Serif" font-size="10.00">_utility.h</text>
</a>
</g>
</g>
<!-- Node2 -->
<g id="node2" class="node">
<title>Node2</title>
<g id="a_node2"><a xlink:href="parallel__upload_8cpp.html" target="_top" xlink:title="Parallel upload to S3 service.">
<polygon fill="white" stroke="#666666" points="131.5,-119.5 0,-119.5 0,-77.75 131.5,-77.75 131.5,-119.5"/>
<text text-anchor="start" x="8" y="-106" font-family="Helvetica,sans-Serif" font-size="10.00">/Users/ugovaretto/projects</text>
<text text-anchor="start" x="8" y="-94.75" font-family="Helvetica,sans-Serif" font-size="10.00">/s3client/apps/parallel</text>
<text text-anchor="middle" x="65.75" y="-83.5" font-family="Helvetica,sans-Serif" font-size="10.00">_upload.cpp</text>
</a>
</g>
</g>
<!-- Node1&#45;&gt;Node2 -->
<g id="edge1" class="edge">
<title>Node1&#45;&gt;Node2</title>
<path fill="none" stroke="#63b8ff" d="M252.59,-291.7C208.86,-246.75 123.87,-159.38 85.45,-119.88"/>
<polygon fill="#63b8ff" stroke="#63b8ff" points="249.52,-293.59 259,-298.32 254.54,-288.71 249.52,-293.59"/>
</g>
<!-- Node3 -->
<g id="node3" class="node">
<title>Node3</title>
<g id="a_node3"><a xlink:href="apps_2s3-client_8cpp.html" target="_top" xlink:title="Send S3v4&#45;signed requests to S3 andpoint and print raw responses.">
<polygon fill="white" stroke="#666666" points="284.38,-113.88 149.12,-113.88 149.12,-83.38 284.38,-83.38 284.38,-113.88"/>
<text text-anchor="start" x="157.12" y="-100.38" font-family="Helvetica,sans-Serif" font-size="10.00">/Users/ugovaretto/projects</text>
<text text-anchor="middle" x="216.75" y="-89.12" font-family="Helvetica,sans-Serif" font-size="10.00">/s3client/apps/s3&#45;client.cpp</text>
</a>
</g>
</g>
<!-- Node1&#45;&gt;Node3 -->
<g id="edge2" class="edge">
<title>Node1&#45;&gt;Node3</title>
<path fill="none" stroke="#63b8ff" d="M270.96,-288.92C257.19,-240.84 231.07,-149.64 220.93,-114.21"/>
<polygon fill="#63b8ff" stroke="#63b8ff" points="267.82,-289.67 273.94,-298.32 274.55,-287.75 267.82,-289.67"/>
</g>
<!-- Node4 -->
<g id="node4" class="node">
<title>Node4</title>
<g id="a_node4"><a xlink:href="aws__sign_8h.html" target="_top" xlink:title="Public interface to signing URLs and HTTP headers with the S3v4 protocol standard.">
<polygon fill="white" stroke="#666666" points="429.62,-263.75 277.88,-263.75 277.88,-233.25 429.62,-233.25 429.62,-263.75"/>
<text text-anchor="start" x="285.88" y="-250.25" font-family="Helvetica,sans-Serif" font-size="10.00">/Users/ugovaretto/projects</text>
<text text-anchor="middle" x="353.75" y="-239" font-family="Helvetica,sans-Serif" font-size="10.00">/s3client/lib/include/aws_sign.h</text>
</a>
</g>
</g>
<!-- Node1&#45;&gt;Node4 -->
<g id="edge3" class="edge">
<title>Node1&#45;&gt;Node4</title>
<path fill="none" stroke="#63b8ff" d="M309.01,-291.9C319.1,-282.34 329.99,-272.02 338.5,-263.95"/>
<polygon fill="#63b8ff" stroke="#63b8ff" points="307,-288.92 302.15,-298.34 311.82,-294 307,-288.92"/>
</g>
<!-- Node9 -->
<g id="node9" class="node">
<title>Node9</title>
<g id="a_node9"><a xlink:href="webclient_8h.html" target="_top" xlink:title="declaration of WebClient class wrapping libcurl to send web requests.">
<polygon fill="white" stroke="#666666" points="599.62,-263.75 447.88,-263.75 447.88,-233.25 599.62,-233.25 599.62,-263.75"/>
<text text-anchor="start" x="455.88" y="-250.25" font-family="Helvetica,sans-Serif" font-size="10.00">/Users/ugovaretto/projects</text>
<text text-anchor="middle" x="523.75" y="-239" font-family="Helvetica,sans-Serif" font-size="10.00">/s3client/lib/include/webclient.h</text>
</a>
</g>
</g>
<!-- Node1&#45;&gt;Node9 -->
<g id="edge11" class="edge">
<title>Node1&#45;&gt;Node9</title>
<path fill="none" stroke="#63b8ff" d="M356.29,-297.63C394.24,-286.72 439.05,-273.84 472.76,-264.15"/>
<polygon fill="#63b8ff" stroke="#63b8ff" points="355.42,-294.52 346.78,-300.65 357.36,-301.25 355.42,-294.52"/>
</g>
<!-- Node5 -->
<g id="node5" class="node">
<title>Node5</title>
<g id="a_node5"><a xlink:href="s3-api_8h.html" target="_top" xlink:title="declarations of S3Client class;">
<polygon fill="white" stroke="#666666" points="603.12,-113.88 466.38,-113.88 466.38,-83.38 603.12,-83.38 603.12,-113.88"/>
<text text-anchor="start" x="474.38" y="-100.38" font-family="Helvetica,sans-Serif" font-size="10.00">/Users/ugovaretto/projects</text>
<text text-anchor="middle" x="534.75" y="-89.12" font-family="Helvetica,sans-Serif" font-size="10.00">/s3client/lib/include/s3&#45;api.h</text>
</a>
</g>
</g>
<!-- Node4&#45;&gt;Node5 -->
<g id="edge4" class="edge">
<title>Node4&#45;&gt;Node5</title>
<path fill="none" stroke="#63b8ff" d="M391.59,-227.55C406.52,-219 423.48,-208.42 437.75,-197.25 471.06,-171.19 504.68,-134.5 522.26,-114.33"/>
<polygon fill="#63b8ff" stroke="#63b8ff" points="390.13,-224.91 383.12,-232.86 393.55,-231.02 390.13,-224.91"/>
</g>
<!-- Node7 -->
<g id="node7" class="node">
<title>Node7</title>
<g id="a_node7"><a xlink:href="s3-client_8h.html" target="_top" xlink:title="declaration of functions and data types for sending S3 requests, signing URLs and downloading and upl...">
<polygon fill="white" stroke="#666666" points="428.5,-197.25 297,-197.25 297,-155.5 428.5,-155.5 428.5,-197.25"/>
<text text-anchor="start" x="305" y="-183.75" font-family="Helvetica,sans-Serif" font-size="10.00">/Users/ugovaretto/projects</text>
<text text-anchor="start" x="305" y="-172.5" font-family="Helvetica,sans-Serif" font-size="10.00">/s3client/lib/include/s3</text>
<text text-anchor="middle" x="362.75" y="-161.25" font-family="Helvetica,sans-Serif" font-size="10.00">&#45;client.h</text>
</a>
</g>
</g>
<!-- Node4&#45;&gt;Node7 -->
<g id="edge6" class="edge">
<title>Node4&#45;&gt;Node7</title>
<path fill="none" stroke="#63b8ff" d="M356.99,-222.28C358.02,-214.22 359.15,-205.4 360.14,-197.74"/>
<polygon fill="#63b8ff" stroke="#63b8ff" points="353.42,-221.61 355.61,-231.97 360.36,-222.5 353.42,-221.61"/>
</g>
<!-- Node6 -->
<g id="node6" class="node">
<title>Node6</title>
<g id="a_node6"><a xlink:href="bucket-test_8cpp.html" target="_top" xlink:title="bucket tests">
<polygon fill="white" stroke="#666666" points="600.5,-41.75 469,-41.75 469,0 600.5,0 600.5,-41.75"/>
<text text-anchor="start" x="477" y="-28.25" font-family="Helvetica,sans-Serif" font-size="10.00">/Users/ugovaretto/projects</text>
<text text-anchor="start" x="477" y="-17" font-family="Helvetica,sans-Serif" font-size="10.00">/s3client/test/api/bucket</text>
<text text-anchor="middle" x="534.75" y="-5.75" font-family="Helvetica,sans-Serif" font-size="10.00">&#45;test.cpp</text>
</a>
</g>
</g>
<!-- Node5&#45;&gt;Node6 -->
<g id="edge5" class="edge">
<title>Node5&#45;&gt;Node6</title>
<path fill="none" stroke="#63b8ff" d="M534.75,-72.28C534.75,-62.48 534.75,-51.42 534.75,-42.16"/>
<polygon fill="#63b8ff" stroke="#63b8ff" points="531.25,-72.02 534.75,-82.02 538.25,-72.02 531.25,-72.02"/>
</g>
<!-- Node7&#45;&gt;Node2 -->
<g id="edge7" class="edge">
<title>Node7&#45;&gt;Node2</title>
<path fill="none" stroke="#63b8ff" d="M286.4,-156.58C243.3,-145.89 188.47,-132.14 139.75,-119.5 137.17,-118.83 134.55,-118.15 131.9,-117.45"/>
<polygon fill="#63b8ff" stroke="#63b8ff" points="285.26,-160.15 295.81,-159.16 286.95,-153.36 285.26,-160.15"/>
</g>
<!-- Node7&#45;&gt;Node3 -->
<g id="edge9" class="edge">
<title>Node7&#45;&gt;Node3</title>
<path fill="none" stroke="#63b8ff" d="M314.03,-150.1C291.05,-138.17 264.44,-124.37 244.87,-114.21"/>
<polygon fill="#63b8ff" stroke="#63b8ff" points="312.14,-153.58 322.62,-155.08 315.36,-147.36 312.14,-153.58"/>
</g>
<!-- Node7&#45;&gt;Node5 -->
<g id="edge10" class="edge">
<title>Node7&#45;&gt;Node5</title>
<path fill="none" stroke="#63b8ff" d="M418.67,-150.75C445.97,-138.72 477.9,-124.66 501.35,-114.33"/>
<polygon fill="#63b8ff" stroke="#63b8ff" points="417.58,-147.84 409.84,-155.08 420.41,-154.25 417.58,-147.84"/>
</g>
<!-- Node8 -->
<g id="node8" class="node">
<title>Node8</title>
<g id="a_node8"><a xlink:href="presign__url_8cpp.html" target="_top" xlink:title="Presign URL.">
<polygon fill="white" stroke="#666666" points="448.62,-113.88 302.88,-113.88 302.88,-83.38 448.62,-83.38 448.62,-113.88"/>
<text text-anchor="start" x="310.88" y="-100.38" font-family="Helvetica,sans-Serif" font-size="10.00">/Users/ugovaretto/projects</text>
<text text-anchor="middle" x="375.75" y="-89.12" font-family="Helvetica,sans-Serif" font-size="10.00">/s3client/apps/presign_url.cpp</text>
</a>
</g>
</g>
<!-- Node7&#45;&gt;Node8 -->
<g id="edge8" class="edge">
<title>Node7&#45;&gt;Node8</title>
<path fill="none" stroke="#63b8ff" d="M368.05,-144.48C369.86,-133.92 371.81,-122.6 373.29,-113.98"/>
<polygon fill="#63b8ff" stroke="#63b8ff" points="364.48,-143.63 366.23,-154.08 371.37,-144.81 364.48,-143.63"/>
</g>
<!-- Node9&#45;&gt;Node5 -->
<g id="edge12" class="edge">
<title>Node9&#45;&gt;Node5</title>
<path fill="none" stroke="#63b8ff" d="M525.65,-221.96C527.96,-190.85 531.79,-139.38 533.66,-114.28"/>
<polygon fill="#63b8ff" stroke="#63b8ff" points="522.1,-221.55 524.84,-231.78 529.08,-222.07 522.1,-221.55"/>
</g>
<!-- Node9&#45;&gt;Node7 -->
<g id="edge13" class="edge">
<title>Node9&#45;&gt;Node7</title>
<path fill="none" stroke="#63b8ff" d="M479.98,-228.43C458.07,-218.89 431.55,-207.34 409.28,-197.64"/>
<polygon fill="#63b8ff" stroke="#63b8ff" points="478.43,-232.02 489,-232.8 481.23,-225.6 478.43,-232.02"/>
</g>
<!-- Node10 -->
<g id="node10" class="node">
<title>Node10</title>
<g id="a_node10"><a xlink:href="webclient_8cpp.html" target="_top" xlink:title="implementation of WebClient class, wrapper around libcurl">
<polygon fill="white" stroke="#666666" points="697.25,-191.62 552.25,-191.62 552.25,-161.12 697.25,-161.12 697.25,-191.62"/>
<text text-anchor="start" x="560.25" y="-178.12" font-family="Helvetica,sans-Serif" font-size="10.00">/Users/ugovaretto/projects</text>
<text text-anchor="middle" x="624.75" y="-166.88" font-family="Helvetica,sans-Serif" font-size="10.00">/s3client/lib/src/webclient.cpp</text>
</a>
</g>
</g>
<!-- Node9&#45;&gt;Node10 -->
<g id="edge14" class="edge">
<title>Node9&#45;&gt;Node10</title>
<path fill="none" stroke="#63b8ff" d="M553.27,-227C569.5,-215.74 589.23,-202.04 603.85,-191.89"/>
<polygon fill="#63b8ff" stroke="#63b8ff" points="551.9,-224.39 545.68,-232.97 555.89,-230.14 551.9,-224.39"/>
</g>
</g>
</svg>
