<?xml version="1.0" encoding="UTF-8" standalone="no"?>
<!DOCTYPE svg PUBLIC "-//W3C//DTD SVG 1.1//EN"
 "http://www.w3.org/Graphics/SVG/1.1/DTD/svg11.dtd">
<!-- Generated by graphviz version 8.0.5 (20230430.1635)
 -->
<!-- Title: /Users/ugovaretto/projects/s3client/lib/include/webclient.h Pages: 1 -->
<!--zoomable 204 -->
<svg id="main" version="1.1" xmlns="http://www.w3.org/2000/svg" xmlns:xlink="http://www.w3.org/1999/xlink" xml:space="preserve" onload="init(evt)">
<style type="text/css"><![CDATA[
.edge:hover path { stroke: red; }
.edge:hover polygon { stroke: red; fill: red; }
]]></style>
<script type="text/javascript"><![CDATA[
var edges = document.getElementsByTagName('g');
if (edges && edges.length) {
  for (var i=0;i<edges.length;i++) {
    if (edges[i].id.substr(0,4)=='edge') {
      edges[i].setAttribute('class','edge');
    }
  }
}
]]></script>
        <defs>
                <circle id="rim" cx="0" cy="0" r="7"/>
                <circle id="rim2" cx="0" cy="0" r="3.5"/>
                <g id="zoomPlus">
                        <use xlink:href="#rim" fill="#404040">
                                <set attributeName="fill" to="#808080" begin="zoomplus.mouseover" end="zoomplus.mouseout"/>
                        </use>
                        <path d="M-4,0h8M0,-4v8" fill="none" stroke="white" stroke-width="1.5" pointer-events="none"/>
                </g>
                <g id="zoomMin">
                        <use xlink:href="#rim" fill="#404040">
                                <set attributeName="fill" to="#808080" begin="zoomminus.mouseover" end="zoomminus.mouseout"/>
                        </use>
                        <path d="M-4,0h8" fill="none" stroke="white" stroke-width="1.5" pointer-events="none"/>
                </g>
                <g id="dirArrow">
                        <path fill="none" stroke="white" stroke-width="1.5" d="M0,-3.0v7 M-2.5,-0.5L0,-3.0L2.5,-0.5"/>
                </g>
               <g id="resetDef">
                       <use xlink:href="#rim2" fill="#404040">
                               <set attributeName="fill" to="#808080" begin="reset.mouseover" end="reset.mouseout"/>
                       </use>
               </g>
        </defs>

<script type="text/javascript">
var viewWidth = 761;
var viewHeight = 204;
var sectionId = 'dynsection-0';
</script>
<script xlink:href="svgpan.js"/>
<svg id="graph" class="graph">
<g id="viewport">
<title>/Users/ugovaretto/projects/s3client/lib/include/webclient.h</title>
<!-- Node1 -->
<g id="node1" class="node">
<title>Node1</title>
<g id="a_node1"><a xlink:title="declaration of WebClient class wrapping libcurl to send web requests.">
<polygon fill="#999999" stroke="#666666" points="401.25,-196.25 249.5,-196.25 249.5,-165.75 401.25,-165.75 401.25,-196.25"/>
<text text-anchor="start" x="257.5" y="-182.75" font-family="Helvetica,sans-Serif" font-size="10.00">/Users/ugovaretto/projects</text>
<text text-anchor="middle" x="325.38" y="-171.5" font-family="Helvetica,sans-Serif" font-size="10.00">/s3client/lib/include/webclient.h</text>
</a>
</g>
</g>
<!-- Node2 -->
<g id="node2" class="node">
<title>Node2</title>
<g id="a_node2"><a xlink:title=" ">
<polygon fill="#e0e0e0" stroke="#999999" points="58.75,-129.75 0,-129.75 0,-110.5 58.75,-110.5 58.75,-129.75"/>
<text text-anchor="middle" x="29.38" y="-116.25" font-family="Helvetica,sans-Serif" font-size="10.00">curl/curl.h</text>
</a>
</g>
</g>
<!-- Node1&#45;&gt;Node2 -->
<g id="edge1" class="edge">
<title>Node1&#45;&gt;Node2</title>
<path fill="none" stroke="#63b8ff" d="M249.09,-165.59C200.51,-156.3 135.97,-143.74 69.8,-130.01"/>
<polygon fill="#63b8ff" stroke="#63b8ff" points="70.67,-126.4 60.17,-127.79 69.25,-133.26 70.67,-126.4"/>
</g>
<!-- Node3 -->
<g id="node3" class="node">
<title>Node3</title>
<g id="a_node3"><a xlink:title=" ">
<polygon fill="#e0e0e0" stroke="#999999" points="139.62,-129.75 77.12,-129.75 77.12,-110.5 139.62,-110.5 139.62,-129.75"/>
<text text-anchor="middle" x="108.38" y="-116.25" font-family="Helvetica,sans-Serif" font-size="10.00">curl/easy.h</text>
</a>
</g>
</g>
<!-- Node1&#45;&gt;Node3 -->
<g id="edge2" class="edge">
<title>Node1&#45;&gt;Node3</title>
<path fill="none" stroke="#63b8ff" d="M271.18,-165.3C233.75,-155.14 184.7,-141.83 150.26,-132.49"/>
<polygon fill="#63b8ff" stroke="#63b8ff" points="151.64,-128.97 141.07,-129.73 149.81,-135.72 151.64,-128.97"/>
</g>
<!-- Node4 -->
<g id="node4" class="node">
<title>Node4</title>
<g id="a_node4"><a xlink:title=" ">
<polygon fill="#e0e0e0" stroke="#999999" points="195.25,-129.75 157.5,-129.75 157.5,-110.5 195.25,-110.5 195.25,-129.75"/>
<text text-anchor="middle" x="176.38" y="-116.25" font-family="Helvetica,sans-Serif" font-size="10.00">array</text>
</a>
</g>
</g>
<!-- Node1&#45;&gt;Node4 -->
<g id="edge3" class="edge">
<title>Node1&#45;&gt;Node4</title>
<path fill="none" stroke="#63b8ff" d="M288.16,-165.3C262.6,-155.19 229.14,-141.97 205.51,-132.64"/>
<polygon fill="#63b8ff" stroke="#63b8ff" points="207,-129.07 196.41,-128.65 204.43,-135.58 207,-129.07"/>
</g>
<!-- Node5 -->
<g id="node5" class="node">
<title>Node5</title>
<g id="a_node5"><a xlink:title=" ">
<polygon fill="#e0e0e0" stroke="#999999" points="259,-129.75 213.75,-129.75 213.75,-110.5 259,-110.5 259,-129.75"/>
<text text-anchor="middle" x="236.38" y="-116.25" font-family="Helvetica,sans-Serif" font-size="10.00">atomic</text>
</a>
</g>
</g>
<!-- Node1&#45;&gt;Node5 -->
<g id="edge4" class="edge">
<title>Node1&#45;&gt;Node5</title>
<path fill="none" stroke="#63b8ff" d="M303.37,-165.45C289.95,-156.57 272.83,-145.24 259.25,-136.26"/>
<polygon fill="#63b8ff" stroke="#63b8ff" points="261.37,-132.8 251.1,-130.2 257.5,-138.64 261.37,-132.8"/>
</g>
<!-- Node6 -->
<g id="node6" class="node">
<title>Node6</title>
<g id="a_node6"><a xlink:title=" ">
<polygon fill="#e0e0e0" stroke="#999999" points="332.75,-19.25 298,-19.25 298,0 332.75,0 332.75,-19.25"/>
<text text-anchor="middle" x="315.38" y="-5.75" font-family="Helvetica,sans-Serif" font-size="10.00">map</text>
</a>
</g>
</g>
<!-- Node1&#45;&gt;Node6 -->
<g id="edge5" class="edge">
<title>Node1&#45;&gt;Node6</title>
<path fill="none" stroke="#63b8ff" d="M315.86,-165.39C303.67,-145.7 283.16,-109.11 275.38,-74.5 273.5,-66.15 272.32,-63.24 275.38,-55.25 279.56,-44.32 287.79,-34.38 295.7,-26.67"/>
<polygon fill="#63b8ff" stroke="#63b8ff" points="297.28,-30.05 302.35,-20.74 292.59,-24.86 297.28,-30.05"/>
</g>
<!-- Node7 -->
<g id="node7" class="node">
<title>Node7</title>
<g id="a_node7"><a xlink:title=" ">
<polygon fill="#e0e0e0" stroke="#999999" points="618.88,-129.75 575.88,-129.75 575.88,-110.5 618.88,-110.5 618.88,-129.75"/>
<text text-anchor="middle" x="597.38" y="-116.25" font-family="Helvetica,sans-Serif" font-size="10.00">mutex</text>
</a>
</g>
</g>
<!-- Node1&#45;&gt;Node7 -->
<g id="edge6" class="edge">
<title>Node1&#45;&gt;Node7</title>
<path fill="none" stroke="#63b8ff" d="M396.74,-165.3C443.6,-155.52 506.22,-142.23 561.38,-129.75 562.68,-129.45 564.01,-129.15 565.35,-128.84"/>
<polygon fill="#63b8ff" stroke="#63b8ff" points="565.76,-132.11 574.69,-126.41 564.16,-125.29 565.76,-132.11"/>
</g>
<!-- Node8 -->
<g id="node8" class="node">
<title>Node8</title>
<g id="a_node8"><a xlink:title=" ">
<polygon fill="#e0e0e0" stroke="#999999" points="432.38,-19.25 392.38,-19.25 392.38,0 432.38,0 432.38,-19.25"/>
<text text-anchor="middle" x="412.38" y="-5.75" font-family="Helvetica,sans-Serif" font-size="10.00">string</text>
</a>
</g>
</g>
<!-- Node1&#45;&gt;Node8 -->
<g id="edge7" class="edge">
<title>Node1&#45;&gt;Node8</title>
<path fill="none" stroke="#63b8ff" d="M332.94,-165.27C348.76,-134.47 385.29,-63.35 402.75,-29.37"/>
<polygon fill="#63b8ff" stroke="#63b8ff" points="406.24,-31.23 407.7,-20.74 400.01,-28.03 406.24,-31.23"/>
</g>
<!-- Node9 -->
<g id="node9" class="node">
<title>Node9</title>
<g id="a_node9"><a xlink:title=" ">
<polygon fill="#e0e0e0" stroke="#999999" points="695.88,-74.5 652.88,-74.5 652.88,-55.25 695.88,-55.25 695.88,-74.5"/>
<text text-anchor="middle" x="674.38" y="-61" font-family="Helvetica,sans-Serif" font-size="10.00">vector</text>
</a>
</g>
</g>
<!-- Node1&#45;&gt;Node9 -->
<g id="edge8" class="edge">
<title>Node1&#45;&gt;Node9</title>
<path fill="none" stroke="#63b8ff" d="M396.24,-165.26C434.64,-156.48 482.63,-144.24 524.38,-129.75 544.16,-122.88 548.16,-118.81 567.38,-110.5 592.5,-99.64 621.14,-87.72 642.46,-78.94"/>
<polygon fill="#63b8ff" stroke="#63b8ff" points="643.67,-81.81 651.58,-74.77 641,-75.34 643.67,-81.81"/>
</g>
<!-- Node10 -->
<g id="node10" class="node">
<title>Node10</title>
<g id="a_node10"><a xlink:href="common_8h.html" target="_top" xlink:title="Common definitions.">
<polygon fill="white" stroke="#666666" points="346.25,-74.5 284.5,-74.5 284.5,-55.25 346.25,-55.25 346.25,-74.5"/>
<text text-anchor="middle" x="315.38" y="-61" font-family="Helvetica,sans-Serif" font-size="10.00">common.h</text>
</a>
</g>
</g>
<!-- Node1&#45;&gt;Node10 -->
<g id="edge9" class="edge">
<title>Node1&#45;&gt;Node10</title>
<path fill="none" stroke="#63b8ff" d="M324.11,-165.55C322.34,-145.31 319.11,-108.47 317.11,-85.69"/>
<polygon fill="#63b8ff" stroke="#63b8ff" points="320.53,-85.6 316.17,-75.95 313.56,-86.22 320.53,-85.6"/>
</g>
<!-- Node11 -->
<g id="node11" class="node">
<title>Node11</title>
<g id="a_node11"><a xlink:href="url__utility_8h.html" target="_top" xlink:title="Internal utility functions to process and parse text and URLs and create S3 signature keys.">
<polygon fill="white" stroke="#666666" points="481.25,-129.75 419.5,-129.75 419.5,-110.5 481.25,-110.5 481.25,-129.75"/>
<text text-anchor="middle" x="450.38" y="-116.25" font-family="Helvetica,sans-Serif" font-size="10.00">url_utility.h</text>
</a>
</g>
</g>
<!-- Node1&#45;&gt;Node11 -->
<g id="edge12" class="edge">
<title>Node1&#45;&gt;Node11</title>
<path fill="none" stroke="#63b8ff" d="M356.6,-165.3C376.46,-155.94 401.99,-143.91 421.4,-134.77"/>
<polygon fill="#63b8ff" stroke="#63b8ff" points="422.65,-137.58 430.21,-130.15 419.67,-131.25 422.65,-137.58"/>
</g>
<!-- Node14 -->
<g id="node14" class="node">
<title>Node14</title>
<g id="a_node14"><a xlink:href="lib_2include_2utility_8h.html" target="_top" xlink:title="internal utility functions">
<polygon fill="white" stroke="#666666" points="634.38,-74.5 588.38,-74.5 588.38,-55.25 634.38,-55.25 634.38,-74.5"/>
<text text-anchor="middle" x="611.38" y="-61" font-family="Helvetica,sans-Serif" font-size="10.00">utility.h</text>
</a>
</g>
</g>
<!-- Node1&#45;&gt;Node14 -->
<g id="edge24" class="edge">
<title>Node1&#45;&gt;Node14</title>
<path fill="none" stroke="#63b8ff" d="M383.2,-165.3C415.29,-156.42 455.63,-144.06 490.38,-129.75 525.16,-115.42 563.22,-94.38 587.18,-80.41"/>
<polygon fill="#63b8ff" stroke="#63b8ff" points="588.7,-82.99 595.54,-74.89 585.15,-76.95 588.7,-82.99"/>
</g>
<!-- Node10&#45;&gt;Node6 -->
<g id="edge10" class="edge">
<title>Node10&#45;&gt;Node6</title>
<path fill="none" stroke="#63b8ff" d="M315.38,-55.08C315.38,-48.42 315.38,-38.99 315.38,-30.53"/>
<polygon fill="#63b8ff" stroke="#63b8ff" points="318.88,-30.61 315.38,-20.61 311.88,-30.61 318.88,-30.61"/>
</g>
<!-- Node10&#45;&gt;Node8 -->
<g id="edge11" class="edge">
<title>Node10&#45;&gt;Node8</title>
<path fill="none" stroke="#63b8ff" d="M331.83,-54.84C346.74,-46.66 368.97,-34.46 386.29,-24.94"/>
<polygon fill="#63b8ff" stroke="#63b8ff" points="387.76,-27.58 394.84,-19.7 384.39,-21.45 387.76,-27.58"/>
</g>
<!-- Node11&#45;&gt;Node6 -->
<g id="edge15" class="edge">
<title>Node11&#45;&gt;Node6</title>
<path fill="none" stroke="#63b8ff" d="M439.33,-110.25C416.48,-91.89 363.79,-49.54 335.01,-26.41"/>
<polygon fill="#63b8ff" stroke="#63b8ff" points="337.56,-23.16 327.58,-19.63 333.18,-28.62 337.56,-23.16"/>
</g>
<!-- Node11&#45;&gt;Node8 -->
<g id="edge16" class="edge">
<title>Node11&#45;&gt;Node8</title>
<path fill="none" stroke="#63b8ff" d="M447.27,-110.25C441.14,-92.76 427.4,-53.52 419.1,-29.84"/>
<polygon fill="#63b8ff" stroke="#63b8ff" points="422.14,-28.91 415.53,-20.63 415.53,-31.22 422.14,-28.91"/>
</g>
<!-- Node11&#45;&gt;Node9 -->
<g id="edge17" class="edge">
<title>Node11&#45;&gt;Node9</title>
<path fill="none" stroke="#63b8ff" d="M481.56,-112.36C517.79,-104.4 579.59,-90.53 641.97,-74.77"/>
<polygon fill="#63b8ff" stroke="#63b8ff" points="642.56,-77.98 651.39,-72.12 640.84,-71.19 642.56,-77.98"/>
</g>
<!-- Node11&#45;&gt;Node10 -->
<g id="edge18" class="edge">
<title>Node11&#45;&gt;Node10</title>
<path fill="none" stroke="#63b8ff" d="M427.47,-110.09C405.75,-101.52 372.88,-88.56 348.34,-78.88"/>
<polygon fill="#63b8ff" stroke="#63b8ff" points="349.98,-75.37 339.39,-74.95 347.41,-81.88 349.98,-75.37"/>
</g>
<!-- Node12 -->
<g id="node12" class="node">
<title>Node12</title>
<g id="a_node12"><a xlink:title=" ">
<polygon fill="#e0e0e0" stroke="#999999" points="576.25,-19.25 520.5,-19.25 520.5,0 576.25,0 576.25,-19.25"/>
<text text-anchor="middle" x="548.38" y="-5.75" font-family="Helvetica,sans-Serif" font-size="10.00">algorithm</text>
</a>
</g>
</g>
<!-- Node11&#45;&gt;Node12 -->
<g id="edge13" class="edge">
<title>Node11&#45;&gt;Node12</title>
<path fill="none" stroke="#63b8ff" d="M481.66,-112.09C502.07,-105.79 527.42,-94.38 541.38,-74.5 550.4,-61.65 551.61,-43.62 550.88,-29.99"/>
<polygon fill="#63b8ff" stroke="#63b8ff" points="554.3,-30.01 549.88,-20.39 547.34,-30.67 554.3,-30.01"/>
</g>
<!-- Node13 -->
<g id="node13" class="node">
<title>Node13</title>
<g id="a_node13"><a xlink:title=" ">
<polygon fill="#e0e0e0" stroke="#999999" points="532.12,-74.5 478.62,-74.5 478.62,-55.25 532.12,-55.25 532.12,-74.5"/>
<text text-anchor="middle" x="505.38" y="-61" font-family="Helvetica,sans-Serif" font-size="10.00">iostream</text>
</a>
</g>
</g>
<!-- Node11&#45;&gt;Node13 -->
<g id="edge14" class="edge">
<title>Node11&#45;&gt;Node13</title>
<path fill="none" stroke="#63b8ff" d="M459.46,-110.33C467.29,-102.75 478.82,-91.59 488.36,-82.35"/>
<polygon fill="#63b8ff" stroke="#63b8ff" points="490.35,-85.33 495.1,-75.86 485.48,-80.3 490.35,-85.33"/>
</g>
<!-- Node11&#45;&gt;Node14 -->
<g id="edge19" class="edge">
<title>Node11&#45;&gt;Node14</title>
<path fill="none" stroke="#63b8ff" d="M477.69,-110.09C505.33,-100.95 548.13,-86.79 577.82,-76.97"/>
<polygon fill="#63b8ff" stroke="#63b8ff" points="578.72,-80.03 587.12,-73.57 576.52,-73.38 578.72,-80.03"/>
</g>
<!-- Node14&#45;&gt;Node8 -->
<g id="edge22" class="edge">
<title>Node14&#45;&gt;Node8</title>
<path fill="none" stroke="#63b8ff" d="M588.16,-57.66C552.26,-48.06 483.27,-29.6 443.23,-18.88"/>
<polygon fill="#63b8ff" stroke="#63b8ff" points="444.31,-15.28 433.75,-16.08 442.51,-22.04 444.31,-15.28"/>
</g>
<!-- Node14&#45;&gt;Node12 -->
<g id="edge20" class="edge">
<title>Node14&#45;&gt;Node12</title>
<path fill="none" stroke="#63b8ff" d="M600.69,-54.84C591.49,-47.07 578.01,-35.67 567.04,-26.4"/>
<polygon fill="#63b8ff" stroke="#63b8ff" points="569.8,-23.31 559.9,-19.52 565.28,-28.65 569.8,-23.31"/>
</g>
<!-- Node15 -->
<g id="node15" class="node">
<title>Node15</title>
<g id="a_node15"><a xlink:title=" ">
<polygon fill="#e0e0e0" stroke="#999999" points="652.38,-19.25 594.38,-19.25 594.38,0 652.38,0 652.38,-19.25"/>
<text text-anchor="middle" x="623.38" y="-5.75" font-family="Helvetica,sans-Serif" font-size="10.00">functional</text>
</a>
</g>
</g>
<!-- Node14&#45;&gt;Node15 -->
<g id="edge21" class="edge">
<title>Node14&#45;&gt;Node15</title>
<path fill="none" stroke="#63b8ff" d="M613.36,-55.08C614.88,-48.34 617.03,-38.77 618.95,-30.24"/>
<polygon fill="#63b8ff" stroke="#63b8ff" points="622.57,-31.13 621.35,-20.61 615.74,-29.6 622.57,-31.13"/>
</g>
<!-- Node16 -->
<g id="node16" class="node">
<title>Node16</title>
<g id="a_node16"><a xlink:title=" ">
<polygon fill="#e0e0e0" stroke="#999999" points="752.75,-19.25 670,-19.25 670,0 752.75,0 752.75,-19.25"/>
<text text-anchor="middle" x="711.38" y="-5.75" font-family="Helvetica,sans-Serif" font-size="10.00">unordered_map</text>
</a>
</g>
</g>
<!-- Node14&#45;&gt;Node16 -->
<g id="edge23" class="edge">
<title>Node14&#45;&gt;Node16</title>
<path fill="none" stroke="#63b8ff" d="M628.34,-54.84C643.78,-46.62 666.84,-34.34 684.74,-24.81"/>
<polygon fill="#63b8ff" stroke="#63b8ff" points="686.15,-27.49 693.33,-19.7 682.86,-21.31 686.15,-27.49"/>
</g>
</g>
</svg>
        <g id="navigator" transform="translate(0 0)" fill="#404254">
                <rect fill="#f2f5e9" fill-opacity="0.5" stroke="#606060" stroke-width=".5" x="0" y="0" width="60" height="60"/>
                <use id="zoomplus" xlink:href="#zoomPlus" x="17" y="9" onmousedown="handleZoom(evt,'in')"/>
                <use id="zoomminus" xlink:href="#zoomMin" x="42" y="9" onmousedown="handleZoom(evt,'out')"/>
                <use id="reset" xlink:href="#resetDef" x="30" y="36" onmousedown="handleReset()"/>
                <g id="arrowUp" xlink:href="#dirArrow" transform="translate(30 24)" onmousedown="handlePan(0,-1)">
                  <use xlink:href="#rim" fill="#404040">
                        <set attributeName="fill" to="#808080" begin="arrowUp.mouseover" end="arrowUp.mouseout"/>
                  </use>
                  <path fill="none" stroke="white" stroke-width="1.5" d="M0,-3.0v7 M-2.5,-0.5L0,-3.0L2.5,-0.5"/>
                </g>
                <g id="arrowRight" xlink:href="#dirArrow" transform="rotate(90) translate(36 -43)" onmousedown="handlePan(1,0)">
                  <use xlink:href="#rim" fill="#404040">
                        <set attributeName="fill" to="#808080" begin="arrowRight.mouseover" end="arrowRight.mouseout"/>
                  </use>
                  <path fill="none" stroke="white" stroke-width="1.5" d="M0,-3.0v7 M-2.5,-0.5L0,-3.0L2.5,-0.5"/>
                </g>
                <g id="arrowDown" xlink:href="#dirArrow" transform="rotate(180) translate(-30 -48)" onmousedown="handlePan(0,1)">
                  <use xlink:href="#rim" fill="#404040">
                        <set attributeName="fill" to="#808080" begin="arrowDown.mouseover" end="arrowDown.mouseout"/>
                  </use>
                  <path fill="none" stroke="white" stroke-width="1.5" d="M0,-3.0v7 M-2.5,-0.5L0,-3.0L2.5,-0.5"/>
                </g>
                <g id="arrowLeft" xlink:href="#dirArrow" transform="rotate(270) translate(-36 17)" onmousedown="handlePan(-1,0)">
                  <use xlink:href="#rim" fill="#404040">
                        <set attributeName="fill" to="#808080" begin="arrowLeft.mouseover" end="arrowLeft.mouseout"/>
                  </use>
                  <path fill="none" stroke="white" stroke-width="1.5" d="M0,-3.0v7 M-2.5,-0.5L0,-3.0L2.5,-0.5"/>
                </g>
        </g>
        <svg viewBox="0 0 15 15" width="100%" height="30px" preserveAspectRatio="xMaxYMin meet">
         <g id="arrow_out" transform="scale(0.3 0.3)">
          <a xlink:href="webclient_8h__incl_org.svg" target="_base">
           <rect id="button" ry="5" rx="5" y="6" x="6" height="38" width="38"
                fill="#f2f5e9" fill-opacity="0.5" stroke="#606060" stroke-width="1.0"/>
           <path id="arrow"
             d="M 11.500037,31.436501 C 11.940474,20.09759 22.043105,11.32322 32.158766,21.979434 L 37.068811,17.246167 C 37.068811,17.246167 37.088388,32 37.088388,32 L 22.160133,31.978069 C 22.160133,31.978069 26.997745,27.140456 26.997745,27.140456 C 18.528582,18.264221 13.291696,25.230495 11.500037,31.436501 z"
             style="fill:#404040;"/>
          </a>
         </g>
        </svg>
</svg>
