<?xml version="1.0" encoding="UTF-8" standalone="no"?>
<!DOCTYPE svg PUBLIC "-//W3C//DTD SVG 1.1//EN"
 "http://www.w3.org/Graphics/SVG/1.1/DTD/svg11.dtd">
<!-- Generated by graphviz version 8.0.5 (20230430.1635)
 -->
<!-- Title: /Users/ugovaretto/projects/s3client/lib/src/webclient.cpp Pages: 1 -->
<svg width="1329pt" height="260pt"
 viewBox="0.00 0.00 1328.51 259.50" xmlns="http://www.w3.org/2000/svg" xmlns:xlink="http://www.w3.org/1999/xlink">
<g id="graph0" class="graph" transform="scale(1 1) rotate(0) translate(4 255.5)">
<title>/Users/ugovaretto/projects/s3client/lib/src/webclient.cpp</title>
<!-- Node1 -->
<g id="node1" class="node">
<title>Node1</title>
<g id="a_node1"><a xlink:title="implementation of WebClient class, wrapper around libcurl">
<polygon fill="#999999" stroke="#666666" points="954.14,-251.5 809.14,-251.5 809.14,-221 954.14,-221 954.14,-251.5"/>
<text text-anchor="start" x="817.14" y="-238" font-family="Helvetica,sans-Serif" font-size="10.00">/Users/ugovaretto/projects</text>
<text text-anchor="middle" x="881.64" y="-226.75" font-family="Helvetica,sans-Serif" font-size="10.00">/s3client/lib/src/webclient.cpp</text>
</a>
</g>
</g>
<!-- Node2 -->
<g id="node2" class="node">
<title>Node2</title>
<g id="a_node2"><a xlink:href="webclient_8h.html" target="_top" xlink:title="declaration of WebClient class wrapping libcurl to send web requests.">
<polygon fill="white" stroke="#666666" points="328.39,-185 262.89,-185 262.89,-165.75 328.39,-165.75 328.39,-185"/>
<text text-anchor="middle" x="295.64" y="-171.5" font-family="Helvetica,sans-Serif" font-size="10.00">webclient.h</text>
</a>
</g>
</g>
<!-- Node1&#45;&gt;Node2 -->
<g id="edge1" class="edge">
<title>Node1&#45;&gt;Node2</title>
<path fill="none" stroke="#63b8ff" d="M808.9,-227.94C685.68,-215.56 439.53,-190.83 339.46,-180.78"/>
<polygon fill="#63b8ff" stroke="#63b8ff" points="339.86,-177.2 329.56,-179.68 339.16,-184.16 339.86,-177.2"/>
</g>
<!-- Node11 -->
<g id="node11" class="node">
<title>Node11</title>
<g id="a_node11"><a xlink:href="common_8h.html" target="_top" xlink:title="Common definitions.">
<polygon fill="white" stroke="#666666" points="200.51,-74.5 138.76,-74.5 138.76,-55.25 200.51,-55.25 200.51,-74.5"/>
<text text-anchor="middle" x="169.64" y="-61" font-family="Helvetica,sans-Serif" font-size="10.00">common.h</text>
</a>
</g>
</g>
<!-- Node1&#45;&gt;Node11 -->
<g id="edge37" class="edge">
<title>Node1&#45;&gt;Node11</title>
<path fill="none" stroke="#63b8ff" d="M808.76,-232.18C607.84,-222.92 57.51,-192.06 7.64,-129.75 -26.61,-86.95 68.92,-72.74 127.57,-68.08"/>
<polygon fill="#63b8ff" stroke="#63b8ff" points="127.69,-71.51 137.41,-67.3 127.18,-64.53 127.69,-71.51"/>
</g>
<!-- Node13 -->
<g id="node13" class="node">
<title>Node13</title>
<g id="a_node13"><a xlink:title=" ">
<polygon fill="#e0e0e0" stroke="#999999" points="520.51,-19.25 464.76,-19.25 464.76,0 520.51,0 520.51,-19.25"/>
<text text-anchor="middle" x="492.64" y="-5.75" font-family="Helvetica,sans-Serif" font-size="10.00">algorithm</text>
</a>
</g>
</g>
<!-- Node1&#45;&gt;Node13 -->
<g id="edge30" class="edge">
<title>Node1&#45;&gt;Node13</title>
<path fill="none" stroke="#63b8ff" d="M808.78,-229.2C771.23,-222.97 726.55,-210.37 693.64,-185 641.06,-144.46 670.62,-97.77 619.64,-55.25 594.48,-34.27 558.79,-22.88 531.65,-16.88"/>
<polygon fill="#63b8ff" stroke="#63b8ff" points="532.47,-13.27 521.97,-14.69 531.06,-20.12 532.47,-13.27"/>
</g>
<!-- Node14 -->
<g id="node14" class="node">
<title>Node14</title>
<g id="a_node14"><a xlink:title=" ">
<polygon fill="#e0e0e0" stroke="#999999" points="610.39,-74.5 556.89,-74.5 556.89,-55.25 610.39,-55.25 610.39,-74.5"/>
<text text-anchor="middle" x="583.64" y="-61" font-family="Helvetica,sans-Serif" font-size="10.00">iostream</text>
</a>
</g>
</g>
<!-- Node1&#45;&gt;Node14 -->
<g id="edge34" class="edge">
<title>Node1&#45;&gt;Node14</title>
<path fill="none" stroke="#63b8ff" d="M808.73,-232.72C762.41,-227.93 703.2,-215.62 659.64,-185 623.64,-159.69 600.77,-111.36 590.31,-84.7"/>
<polygon fill="#63b8ff" stroke="#63b8ff" points="593.37,-83.87 586.59,-75.73 586.81,-86.32 593.37,-83.87"/>
</g>
<!-- Node18 -->
<g id="node18" class="node">
<title>Node18</title>
<g id="a_node18"><a xlink:title=" ">
<polygon fill="#e0e0e0" stroke="#999999" points="745.14,-185 702.14,-185 702.14,-165.75 745.14,-165.75 745.14,-185"/>
<text text-anchor="middle" x="723.64" y="-171.5" font-family="Helvetica,sans-Serif" font-size="10.00">fcntl.h</text>
</a>
</g>
</g>
<!-- Node1&#45;&gt;Node18 -->
<g id="edge26" class="edge">
<title>Node1&#45;&gt;Node18</title>
<path fill="none" stroke="#63b8ff" d="M842.17,-220.55C815.46,-210.59 780.62,-197.61 755.64,-188.3"/>
<polygon fill="#63b8ff" stroke="#63b8ff" points="757.18,-184.77 746.59,-184.55 754.74,-191.33 757.18,-184.77"/>
</g>
<!-- Node19 -->
<g id="node19" class="node">
<title>Node19</title>
<g id="a_node19"><a xlink:title=" ">
<polygon fill="#e0e0e0" stroke="#999999" points="833.64,-185 763.64,-185 763.64,-165.75 833.64,-165.75 833.64,-185"/>
<text text-anchor="middle" x="798.64" y="-171.5" font-family="Helvetica,sans-Serif" font-size="10.00">sys/mman.h</text>
</a>
</g>
</g>
<!-- Node1&#45;&gt;Node19 -->
<g id="edge27" class="edge">
<title>Node1&#45;&gt;Node19</title>
<path fill="none" stroke="#63b8ff" d="M861.12,-220.7C848.73,-211.9 832.94,-200.71 820.34,-191.77"/>
<polygon fill="#63b8ff" stroke="#63b8ff" points="822.61,-188.38 812.43,-185.45 818.56,-194.09 822.61,-188.38"/>
</g>
<!-- Node20 -->
<g id="node20" class="node">
<title>Node20</title>
<g id="a_node20"><a xlink:title=" ">
<polygon fill="#e0e0e0" stroke="#999999" points="911.39,-185 851.89,-185 851.89,-165.75 911.39,-165.75 911.39,-185"/>
<text text-anchor="middle" x="881.64" y="-171.5" font-family="Helvetica,sans-Serif" font-size="10.00">sys/stat.h</text>
</a>
</g>
</g>
<!-- Node1&#45;&gt;Node20 -->
<g id="edge28" class="edge">
<title>Node1&#45;&gt;Node20</title>
<path fill="none" stroke="#63b8ff" d="M881.64,-220.7C881.64,-213.37 881.64,-204.37 881.64,-196.41"/>
<polygon fill="#63b8ff" stroke="#63b8ff" points="885.14,-196.45 881.64,-186.45 878.14,-196.45 885.14,-196.45"/>
</g>
<!-- Node21 -->
<g id="node21" class="node">
<title>Node21</title>
<g id="a_node21"><a xlink:title=" ">
<polygon fill="#e0e0e0" stroke="#999999" points="979.89,-185 929.39,-185 929.39,-165.75 979.89,-165.75 979.89,-185"/>
<text text-anchor="middle" x="954.64" y="-171.5" font-family="Helvetica,sans-Serif" font-size="10.00">unistd.h</text>
</a>
</g>
</g>
<!-- Node1&#45;&gt;Node21 -->
<g id="edge29" class="edge">
<title>Node1&#45;&gt;Node21</title>
<path fill="none" stroke="#63b8ff" d="M899.68,-220.7C910.37,-212.08 923.92,-201.15 934.89,-192.3"/>
<polygon fill="#63b8ff" stroke="#63b8ff" points="936.8,-194.45 942.38,-185.45 932.4,-189 936.8,-194.45"/>
</g>
<!-- Node22 -->
<g id="node22" class="node">
<title>Node22</title>
<g id="a_node22"><a xlink:title=" ">
<polygon fill="#e0e0e0" stroke="#999999" points="1045.76,-185 997.51,-185 997.51,-165.75 1045.76,-165.75 1045.76,-185"/>
<text text-anchor="middle" x="1021.64" y="-171.5" font-family="Helvetica,sans-Serif" font-size="10.00">cassert</text>
</a>
</g>
</g>
<!-- Node1&#45;&gt;Node22 -->
<g id="edge31" class="edge">
<title>Node1&#45;&gt;Node22</title>
<path fill="none" stroke="#63b8ff" d="M916.6,-220.55C939.15,-211.06 968.24,-198.83 990.09,-189.64"/>
<polygon fill="#63b8ff" stroke="#63b8ff" points="991.31,-192.51 999.17,-185.4 988.59,-186.05 991.31,-192.51"/>
</g>
<!-- Node23 -->
<g id="node23" class="node">
<title>Node23</title>
<g id="a_node23"><a xlink:title=" ">
<polygon fill="#e0e0e0" stroke="#999999" points="1109.26,-185 1064.01,-185 1064.01,-165.75 1109.26,-165.75 1109.26,-185"/>
<text text-anchor="middle" x="1086.64" y="-171.5" font-family="Helvetica,sans-Serif" font-size="10.00">cstring</text>
</a>
</g>
</g>
<!-- Node1&#45;&gt;Node23 -->
<g id="edge32" class="edge">
<title>Node1&#45;&gt;Node23</title>
<path fill="none" stroke="#63b8ff" d="M932.84,-220.55C970.56,-209.71 1020.76,-195.29 1053.39,-185.92"/>
<polygon fill="#63b8ff" stroke="#63b8ff" points="1054.09,-189.08 1062.73,-182.95 1052.15,-182.35 1054.09,-189.08"/>
</g>
<!-- Node24 -->
<g id="node24" class="node">
<title>Node24</title>
<g id="a_node24"><a xlink:title=" ">
<polygon fill="#e0e0e0" stroke="#999999" points="1176.14,-185 1127.14,-185 1127.14,-165.75 1176.14,-165.75 1176.14,-185"/>
<text text-anchor="middle" x="1151.64" y="-171.5" font-family="Helvetica,sans-Serif" font-size="10.00">fstream</text>
</a>
</g>
</g>
<!-- Node1&#45;&gt;Node24 -->
<g id="edge33" class="edge">
<title>Node1&#45;&gt;Node24</title>
<path fill="none" stroke="#63b8ff" d="M954.44,-220.73C998.76,-211.68 1056.77,-199.45 1116.1,-185.53"/>
<polygon fill="#63b8ff" stroke="#63b8ff" points="1116.87,-188.7 1125.8,-183 1115.27,-181.89 1116.87,-188.7"/>
</g>
<!-- Node25 -->
<g id="node25" class="node">
<title>Node25</title>
<g id="a_node25"><a xlink:title=" ">
<polygon fill="#e0e0e0" stroke="#999999" points="1253.01,-185 1194.26,-185 1194.26,-165.75 1253.01,-165.75 1253.01,-185"/>
<text text-anchor="middle" x="1223.64" y="-171.5" font-family="Helvetica,sans-Serif" font-size="10.00">stdexcept</text>
</a>
</g>
</g>
<!-- Node1&#45;&gt;Node25 -->
<g id="edge35" class="edge">
<title>Node1&#45;&gt;Node25</title>
<path fill="none" stroke="#63b8ff" d="M954.33,-224.48C1013.53,-215.42 1099.49,-201.62 1183.09,-185.41"/>
<polygon fill="#63b8ff" stroke="#63b8ff" points="1183.66,-188.67 1192.8,-183.32 1182.32,-181.8 1183.66,-188.67"/>
</g>
<!-- Node26 -->
<g id="node26" class="node">
<title>Node26</title>
<g id="a_node26"><a xlink:title=" ">
<polygon fill="#e0e0e0" stroke="#999999" points="1320.51,-185 1270.76,-185 1270.76,-165.75 1320.51,-165.75 1320.51,-185"/>
<text text-anchor="middle" x="1295.64" y="-171.5" font-family="Helvetica,sans-Serif" font-size="10.00">signal.h</text>
</a>
</g>
</g>
<!-- Node1&#45;&gt;Node26 -->
<g id="edge36" class="edge">
<title>Node1&#45;&gt;Node26</title>
<path fill="none" stroke="#63b8ff" d="M954.54,-228.17C1028.94,-220.37 1147.89,-206.3 1259.67,-185.18"/>
<polygon fill="#63b8ff" stroke="#63b8ff" points="1260.3,-188.43 1269.46,-183.11 1258.98,-181.55 1260.3,-188.43"/>
</g>
<!-- Node3 -->
<g id="node3" class="node">
<title>Node3</title>
<g id="a_node3"><a xlink:title=" ">
<polygon fill="#e0e0e0" stroke="#999999" points="433.01,-129.75 374.26,-129.75 374.26,-110.5 433.01,-110.5 433.01,-129.75"/>
<text text-anchor="middle" x="403.64" y="-116.25" font-family="Helvetica,sans-Serif" font-size="10.00">curl/curl.h</text>
</a>
</g>
</g>
<!-- Node2&#45;&gt;Node3 -->
<g id="edge2" class="edge">
<title>Node2&#45;&gt;Node3</title>
<path fill="none" stroke="#63b8ff" d="M313.96,-165.34C330.79,-157.04 356,-144.61 375.41,-135.04"/>
<polygon fill="#63b8ff" stroke="#63b8ff" points="376.81,-137.76 384.23,-130.2 373.71,-131.49 376.81,-137.76"/>
</g>
<!-- Node4 -->
<g id="node4" class="node">
<title>Node4</title>
<g id="a_node4"><a xlink:title=" ">
<polygon fill="#e0e0e0" stroke="#999999" points="513.89,-129.75 451.39,-129.75 451.39,-110.5 513.89,-110.5 513.89,-129.75"/>
<text text-anchor="middle" x="482.64" y="-116.25" font-family="Helvetica,sans-Serif" font-size="10.00">curl/easy.h</text>
</a>
</g>
</g>
<!-- Node2&#45;&gt;Node4 -->
<g id="edge3" class="edge">
<title>Node2&#45;&gt;Node4</title>
<path fill="none" stroke="#63b8ff" d="M327.36,-165.34C358.62,-156.44 406.55,-142.79 440.89,-133.01"/>
<polygon fill="#63b8ff" stroke="#63b8ff" points="441.41,-136.22 450.07,-130.11 439.5,-129.49 441.41,-136.22"/>
</g>
<!-- Node5 -->
<g id="node5" class="node">
<title>Node5</title>
<g id="a_node5"><a xlink:title=" ">
<polygon fill="#e0e0e0" stroke="#999999" points="569.51,-129.75 531.76,-129.75 531.76,-110.5 569.51,-110.5 569.51,-129.75"/>
<text text-anchor="middle" x="550.64" y="-116.25" font-family="Helvetica,sans-Serif" font-size="10.00">array</text>
</a>
</g>
</g>
<!-- Node2&#45;&gt;Node5 -->
<g id="edge4" class="edge">
<title>Node2&#45;&gt;Node5</title>
<path fill="none" stroke="#63b8ff" d="M328.58,-169.01C370.97,-161.87 447.05,-148.24 521.01,-129.94"/>
<polygon fill="#63b8ff" stroke="#63b8ff" points="521.58,-133.16 530.43,-127.33 519.88,-126.37 521.58,-133.16"/>
</g>
<!-- Node6 -->
<g id="node6" class="node">
<title>Node6</title>
<g id="a_node6"><a xlink:title=" ">
<polygon fill="#e0e0e0" stroke="#999999" points="62.26,-129.75 17.01,-129.75 17.01,-110.5 62.26,-110.5 62.26,-129.75"/>
<text text-anchor="middle" x="39.64" y="-116.25" font-family="Helvetica,sans-Serif" font-size="10.00">atomic</text>
</a>
</g>
</g>
<!-- Node2&#45;&gt;Node6 -->
<g id="edge5" class="edge">
<title>Node2&#45;&gt;Node6</title>
<path fill="none" stroke="#63b8ff" d="M262.56,-167.93C219.62,-159.51 142.41,-144.11 76.64,-129.75 75.51,-129.5 74.36,-129.25 73.21,-128.99"/>
<polygon fill="#63b8ff" stroke="#63b8ff" points="74.23,-125.41 63.71,-126.61 72.68,-132.24 74.23,-125.41"/>
</g>
<!-- Node7 -->
<g id="node7" class="node">
<title>Node7</title>
<g id="a_node7"><a xlink:title=" ">
<polygon fill="#e0e0e0" stroke="#999999" points="187.01,-19.25 152.26,-19.25 152.26,0 187.01,0 187.01,-19.25"/>
<text text-anchor="middle" x="169.64" y="-5.75" font-family="Helvetica,sans-Serif" font-size="10.00">map</text>
</a>
</g>
</g>
<!-- Node2&#45;&gt;Node7 -->
<g id="edge6" class="edge">
<title>Node2&#45;&gt;Node7</title>
<path fill="none" stroke="#63b8ff" d="M262.69,-171.29C214.46,-166.02 128.35,-153.48 109.64,-129.75 83.75,-96.91 124.24,-51.13 150.34,-27"/>
<polygon fill="#63b8ff" stroke="#63b8ff" points="152.4,-29.97 157.53,-20.7 147.74,-24.74 152.4,-29.97"/>
</g>
<!-- Node8 -->
<g id="node8" class="node">
<title>Node8</title>
<g id="a_node8"><a xlink:title=" ">
<polygon fill="#e0e0e0" stroke="#999999" points="162.14,-129.75 119.14,-129.75 119.14,-110.5 162.14,-110.5 162.14,-129.75"/>
<text text-anchor="middle" x="140.64" y="-116.25" font-family="Helvetica,sans-Serif" font-size="10.00">mutex</text>
</a>
</g>
</g>
<!-- Node2&#45;&gt;Node8 -->
<g id="edge7" class="edge">
<title>Node2&#45;&gt;Node8</title>
<path fill="none" stroke="#63b8ff" d="M269.34,-165.34C242.69,-156.19 201.41,-142 172.82,-132.18"/>
<polygon fill="#63b8ff" stroke="#63b8ff" points="174.14,-128.59 163.54,-128.65 171.86,-135.21 174.14,-128.59"/>
</g>
<!-- Node9 -->
<g id="node9" class="node">
<title>Node9</title>
<g id="a_node9"><a xlink:title=" ">
<polygon fill="#e0e0e0" stroke="#999999" points="259.64,-19.25 219.64,-19.25 219.64,0 259.64,0 259.64,-19.25"/>
<text text-anchor="middle" x="239.64" y="-5.75" font-family="Helvetica,sans-Serif" font-size="10.00">string</text>
</a>
</g>
</g>
<!-- Node2&#45;&gt;Node9 -->
<g id="edge8" class="edge">
<title>Node2&#45;&gt;Node9</title>
<path fill="none" stroke="#63b8ff" d="M290.27,-165.38C280.33,-148.31 259.16,-109.76 248.64,-74.5 244.32,-60.02 242.05,-43.07 240.87,-30.27"/>
<polygon fill="#63b8ff" stroke="#63b8ff" points="244.3,-30.18 240.05,-20.48 237.32,-30.72 244.3,-30.18"/>
</g>
<!-- Node10 -->
<g id="node10" class="node">
<title>Node10</title>
<g id="a_node10"><a xlink:title=" ">
<polygon fill="#e0e0e0" stroke="#999999" points="300.14,-74.5 257.14,-74.5 257.14,-55.25 300.14,-55.25 300.14,-74.5"/>
<text text-anchor="middle" x="278.64" y="-61" font-family="Helvetica,sans-Serif" font-size="10.00">vector</text>
</a>
</g>
</g>
<!-- Node2&#45;&gt;Node10 -->
<g id="edge9" class="edge">
<title>Node2&#45;&gt;Node10</title>
<path fill="none" stroke="#63b8ff" d="M293.35,-165.54C291.11,-156.58 287.72,-142.28 285.64,-129.75 283.17,-114.91 281.36,-97.97 280.2,-85.27"/>
<polygon fill="#63b8ff" stroke="#63b8ff" points="283.62,-85.26 279.28,-75.6 276.65,-85.86 283.62,-85.26"/>
</g>
<!-- Node2&#45;&gt;Node11 -->
<g id="edge10" class="edge">
<title>Node2&#45;&gt;Node11</title>
<path fill="none" stroke="#63b8ff" d="M273.3,-165.4C255.99,-157.7 232.1,-145.39 214.64,-129.75 199.98,-116.63 187.49,-97.87 179.41,-84.08"/>
<polygon fill="#63b8ff" stroke="#63b8ff" points="182.08,-82.68 174.13,-75.67 175.98,-86.11 182.08,-82.68"/>
</g>
<!-- Node12 -->
<g id="node12" class="node">
<title>Node12</title>
<g id="a_node12"><a xlink:href="url__utility_8h.html" target="_top" xlink:title="Internal utility functions to process and parse text and URLs and create S3 signature keys.">
<polygon fill="white" stroke="#666666" points="356.51,-129.75 294.76,-129.75 294.76,-110.5 356.51,-110.5 356.51,-129.75"/>
<text text-anchor="middle" x="325.64" y="-116.25" font-family="Helvetica,sans-Serif" font-size="10.00">url_utility.h</text>
</a>
</g>
</g>
<!-- Node2&#45;&gt;Node12 -->
<g id="edge13" class="edge">
<title>Node2&#45;&gt;Node12</title>
<path fill="none" stroke="#63b8ff" d="M300.59,-165.58C304.56,-158.53 310.27,-148.4 315.24,-139.58"/>
<polygon fill="#63b8ff" stroke="#63b8ff" points="318.72,-141.54 320.58,-131.11 312.62,-138.1 318.72,-141.54"/>
</g>
<!-- Node15 -->
<g id="node15" class="node">
<title>Node15</title>
<g id="a_node15"><a xlink:href="lib_2include_2utility_8h.html" target="_top" xlink:title="internal utility functions">
<polygon fill="white" stroke="#666666" points="440.64,-74.5 394.64,-74.5 394.64,-55.25 440.64,-55.25 440.64,-74.5"/>
<text text-anchor="middle" x="417.64" y="-61" font-family="Helvetica,sans-Serif" font-size="10.00">utility.h</text>
</a>
</g>
</g>
<!-- Node2&#45;&gt;Node15 -->
<g id="edge25" class="edge">
<title>Node2&#45;&gt;Node15</title>
<path fill="none" stroke="#63b8ff" d="M328.73,-174.29C396.38,-173.34 546.81,-166.99 578.64,-129.75 615.73,-86.35 509.27,-72.19 451.77,-67.77"/>
<polygon fill="#63b8ff" stroke="#63b8ff" points="452.2,-64.22 441.98,-67.01 451.71,-71.21 452.2,-64.22"/>
</g>
<!-- Node11&#45;&gt;Node7 -->
<g id="edge11" class="edge">
<title>Node11&#45;&gt;Node7</title>
<path fill="none" stroke="#63b8ff" d="M169.64,-55.08C169.64,-48.42 169.64,-38.99 169.64,-30.53"/>
<polygon fill="#63b8ff" stroke="#63b8ff" points="173.14,-30.61 169.64,-20.61 166.14,-30.61 173.14,-30.61"/>
</g>
<!-- Node11&#45;&gt;Node9 -->
<g id="edge12" class="edge">
<title>Node11&#45;&gt;Node9</title>
<path fill="none" stroke="#63b8ff" d="M181.51,-54.84C191.83,-46.99 207.01,-35.45 219.26,-26.12"/>
<polygon fill="#63b8ff" stroke="#63b8ff" points="221.1,-28.36 226.94,-19.52 216.86,-22.79 221.1,-28.36"/>
</g>
<!-- Node12&#45;&gt;Node7 -->
<g id="edge16" class="edge">
<title>Node12&#45;&gt;Node7</title>
<path fill="none" stroke="#63b8ff" d="M325.97,-110C325.96,-96.3 323.88,-70.42 309.64,-55.25 301.83,-46.93 236.6,-28.46 197.99,-18.08"/>
<polygon fill="#63b8ff" stroke="#63b8ff" points="198.98,-14.45 188.42,-15.26 197.18,-21.21 198.98,-14.45"/>
</g>
<!-- Node12&#45;&gt;Node9 -->
<g id="edge17" class="edge">
<title>Node12&#45;&gt;Node9</title>
<path fill="none" stroke="#63b8ff" d="M332.24,-110.14C340.96,-97.08 353.97,-72.52 342.64,-55.25 334.23,-42.45 297.34,-28.55 270.09,-19.72"/>
<polygon fill="#63b8ff" stroke="#63b8ff" points="271.43,-16.16 260.85,-16.49 269.33,-22.84 271.43,-16.16"/>
</g>
<!-- Node12&#45;&gt;Node10 -->
<g id="edge18" class="edge">
<title>Node12&#45;&gt;Node10</title>
<path fill="none" stroke="#63b8ff" d="M317.88,-110.33C311.32,-102.9 301.73,-92.04 293.67,-82.91"/>
<polygon fill="#63b8ff" stroke="#63b8ff" points="296.81,-81.04 287.57,-75.86 291.56,-85.67 296.81,-81.04"/>
</g>
<!-- Node12&#45;&gt;Node11 -->
<g id="edge19" class="edge">
<title>Node12&#45;&gt;Node11</title>
<path fill="none" stroke="#63b8ff" d="M299.17,-110.09C273.74,-101.41 235.06,-88.21 206.59,-78.49"/>
<polygon fill="#63b8ff" stroke="#63b8ff" points="207.83,-74.87 197.23,-74.95 205.56,-81.5 207.83,-74.87"/>
</g>
<!-- Node12&#45;&gt;Node13 -->
<g id="edge14" class="edge">
<title>Node12&#45;&gt;Node13</title>
<path fill="none" stroke="#63b8ff" d="M356.73,-110.36C388.4,-101.01 434.88,-86 449.64,-74.5 465.1,-62.45 476.96,-43.25 484.26,-29.04"/>
<polygon fill="#63b8ff" stroke="#63b8ff" points="487.75,-30.88 488.95,-20.35 481.45,-27.83 487.75,-30.88"/>
</g>
<!-- Node12&#45;&gt;Node14 -->
<g id="edge15" class="edge">
<title>Node12&#45;&gt;Node14</title>
<path fill="none" stroke="#63b8ff" d="M356.64,-112.41C359.68,-111.76 362.72,-111.11 365.64,-110.5 428.76,-97.23 502.28,-82.29 545.78,-73.5"/>
<polygon fill="#63b8ff" stroke="#63b8ff" points="546.32,-76.76 555.43,-71.35 544.93,-69.9 546.32,-76.76"/>
</g>
<!-- Node12&#45;&gt;Node15 -->
<g id="edge20" class="edge">
<title>Node12&#45;&gt;Node15</title>
<path fill="none" stroke="#63b8ff" d="M341.24,-110.09C355.25,-101.98 376.07,-89.93 392.44,-80.46"/>
<polygon fill="#63b8ff" stroke="#63b8ff" points="394.05,-82.99 400.95,-74.95 390.55,-76.93 394.05,-82.99"/>
</g>
<!-- Node15&#45;&gt;Node9 -->
<g id="edge23" class="edge">
<title>Node15&#45;&gt;Node9</title>
<path fill="none" stroke="#63b8ff" d="M394.37,-56.91C362.51,-47.38 305.27,-30.26 270.06,-19.73"/>
<polygon fill="#63b8ff" stroke="#63b8ff" points="271.47,-16.2 260.89,-16.68 269.46,-22.9 271.47,-16.2"/>
</g>
<!-- Node15&#45;&gt;Node13 -->
<g id="edge21" class="edge">
<title>Node15&#45;&gt;Node13</title>
<path fill="none" stroke="#63b8ff" d="M430.36,-54.84C441.46,-46.96 457.8,-35.36 470.95,-26.02"/>
<polygon fill="#63b8ff" stroke="#63b8ff" points="472.72,-28.35 478.85,-19.7 468.67,-22.64 472.72,-28.35"/>
</g>
<!-- Node16 -->
<g id="node16" class="node">
<title>Node16</title>
<g id="a_node16"><a xlink:title=" ">
<polygon fill="#e0e0e0" stroke="#999999" points="446.64,-19.25 388.64,-19.25 388.64,0 446.64,0 446.64,-19.25"/>
<text text-anchor="middle" x="417.64" y="-5.75" font-family="Helvetica,sans-Serif" font-size="10.00">functional</text>
</a>
</g>
</g>
<!-- Node15&#45;&gt;Node16 -->
<g id="edge22" class="edge">
<title>Node15&#45;&gt;Node16</title>
<path fill="none" stroke="#63b8ff" d="M417.64,-55.08C417.64,-48.42 417.64,-38.99 417.64,-30.53"/>
<polygon fill="#63b8ff" stroke="#63b8ff" points="421.14,-30.61 417.64,-20.61 414.14,-30.61 421.14,-30.61"/>
</g>
<!-- Node17 -->
<g id="node17" class="node">
<title>Node17</title>
<g id="a_node17"><a xlink:title=" ">
<polygon fill="#e0e0e0" stroke="#999999" points="371.01,-19.25 288.26,-19.25 288.26,0 371.01,0 371.01,-19.25"/>
<text text-anchor="middle" x="329.64" y="-5.75" font-family="Helvetica,sans-Serif" font-size="10.00">unordered_map</text>
</a>
</g>
</g>
<!-- Node15&#45;&gt;Node17 -->
<g id="edge24" class="edge">
<title>Node15&#45;&gt;Node17</title>
<path fill="none" stroke="#63b8ff" d="M402.71,-54.84C389.31,-46.73 369.4,-34.68 353.74,-25.21"/>
<polygon fill="#63b8ff" stroke="#63b8ff" points="356.01,-21.89 345.64,-19.7 352.38,-27.87 356.01,-21.89"/>
</g>
</g>
</svg>
